<?xml version="1.0" encoding="utf-8"?>
<!-- Generator: Adobe Illustrator 13.0.0, SVG Export Plug-In . SVG Version: 6.00 Build 14948)  -->
<!DOCTYPE svg PUBLIC "-//W3C//DTD SVG 1.1//EN" "http://www.w3.org/Graphics/SVG/1.1/DTD/svg11.dtd">
<svg version="1.1" xmlns="http://www.w3.org/2000/svg" xmlns:xlink="http://www.w3.org/1999/xlink" x="0px" y="0px"
	 width="291.901px" height="166.31px" viewBox="0 0 291.901 166.31" enable-background="new 0 0 291.901 166.31"
	 xml:space="preserve">
<g id="frame_1">
	<path fill="#834421" d="M78.129,62.421c0,0,0.5,16.5,1.75,18s5.25,4,6.5,4.25s10.75,0.5,10.75,0.5s1,8.125,1.625,9.125
		s4.125,4.5,4.625,4.75s2,0.375,2,0.375s-0.5-2.5-0.5-4.25s0.375-3.625,0.375-3.625s2.75,3.125,4.625,4s4.75,1.125,5.875,1
		s3.125-0.5,3.125-0.5s-4-2.75-4.75-3.625s-0.75-0.875-0.75-0.875s6.25,1.875,7.625,2.25s3-1.25,3-1.25l-1.375-2.75l8.625-2
		c0,0,7.625,0.5,7.875,2.375s3.75,11.375,4.375,12.875s5.625,9,6.25,10.25s1.125,3.125,1.125,5s0.75,12.875,1.375,15.25
		s1.125,4.75,1,5.125s-4,17.25-4,17.25s-6.625,1-7.875,1.875s-2.875,2.875-2.875,2.875s0.75,0.875,1.375,1.375
		s3.125,0.625,3.125,0.625l0.75-0.125l1.125,0.625h4c0,0,4.5,0,5.25-0.375s6.75-1.5,6.75-1.5l7-12.5l6-11.75l5.375-0.875
		c0,0-0.75,6.375-1.375,8.25s-3.625,13-4,13.375s-4,0.5-5.25,0.75s-3.75,1.5-4.25,2.125s-2,2.25-2,2.25s1.5,1.125,3.25,1.625
		s4.375,1.375,7.125,1.375s9.125-1.25,9.125-1.25l8.625-2.75c0,0,10.75-17.375,10.875-17.75s4.25-10.5,4.25-10.5l6.5,1.875
		c0,0,2.5-0.25,3.5,1.125s4.375,8,4.375,8l-3.375,12.25c0,0-7.125,0.125-8.375,0.625s-3.75,1.625-4.25,2.125s-1.125,1.5-1.125,1.5
		s1.625,1.625,3,1.625s5.375,0.25,5.375,0.25l0.25,0.625c0,0,9.5,0.5,10.625-0.375s4.875-5.75,4.875-5.75l8-12.375l4.5-4.875
		l12.25,0.5l2.5,0.375l-5.75,17.125c0,0-4.75-1-6.125-0.75s-5.75,0.875-7,1.625s-4.625,4.25-4.625,4.25s1.875,0.5,3.125,1
		s4.5,1.5,6,1.375s6.375-0.5,7.25-0.375s10-0.375,10-0.375s21.25-25.75,21.375-26.125s-1.5-12.125-1.875-12.375s7-29.75,7-29.75
		l2.375-12.625c0,0,1.25-6.125,1.375-7.75s-0.25-14.75-0.375-16.875s-1.5-15.25-2-16.625s-3.875-12.75-4.625-13.875
		s-3.875-5.875-5.25-7.5s-6.75-4.625-11-5.625s-10.375-3.125-19.5-1.75s-18.75,4.375-21.25,5.125s-13.375,6-13.375,6l-18.625-0.125
		c0,0,0.75-3.75-0.375-5.875s-1.5-5.125-2.875-6.875s-3.875-5.75-4.375-5.875s-3.375-1.625-4.25-1.5s-3.875-0.125-4.875,0.625
		s-5,4.625-5.875,5.75s-3.75,5-3.75,5s-3.125-0.625-5-1.625s-11.375-9.375-11.375-9.375s0.25-2.625-0.125-3.125s-2.375-2.125-4-2
		s-9.375,0.25-11.75,1.375s-10.25,5.5-10.875,6.375s-2,4.5-1.5,6s1.375,5.5,2.25,6.625s1.625,2.125,1.625,2.125s-6.625,5.5-6.75,6
		s-4.5,9.125-4.5,9.125l-9.5,5.75l-22.75,13.875L78.129,62.421z"/>
	<path fill="#5D3119" d="M176.629,37.296c0,0,1.125,8,0.875,10s-1.625,5.875-5.125,7s-19.25,3.875-19.25,3.875
		s9.375,1.875,11.125,3.125s3.25,2.625,1.625,4s-10.625,3.875-16.375,5s-12.5,1.25-12.5,1.25s1.25,6.875-1.375,10
		s-3.875,5.125-6.5,6.125s-12.5,1.5-12.5,1.5s5.5,4,6.875,4.375s4.375,0.25,4.375,0.25s-3.5-2.5-3.75-2.75s9.875-0.25,11.375-0.5
		s10.625-3.25,13.125-5.125s5.25-4.375,6.5-5.625s3.875-2.875,5.5-3.375s22.25-4.375,22.25-4.375l-7.5-6.25l14.5-1.25l-10.25-4.75
		l15.25-2.875c0,0-12.5-11-13.875-12.875s-4.125-7.5-4.125-7.5"/>
	<path fill="#5D3119" d="M144.129,102.921c-0.125-0.375,0.125-7.375,0.625-9.625s1.25-6.25,3.5-3.875s8.75,10.625,12.25,15.25
		s10.125,11.875,12.5,13.875s5.5,3.75,5.5,3.75s0.625,4.125,0.875,5.5s-0.125,5.25,0,6.5s-0.125,2.25-0.125,2.25
		s-9.625-2.375-15.5-7s-11.875-13-13.875-16.125s-5.75-8.75-5.75-8.75V102.921z"/>
	<path fill="#5D3119" d="M166.129,130.296c0,0,1,6.875,1.125,9.5s0.625,5.125,0.125,6.75s-8,15.25-8,15.25l3.375-0.375
		c0,0,4.125-6.375,5.375-8.25s10.375-16.375,10.375-16.375s-9.125-7-11.875-6.125"/>
	<path fill="#5D3119" d="M193.879,113.171c0,0,0.07,0.385,0.188,1.051c0.584,3.301,2.333,13.52,2.437,18.199
		c0.125,5.625,2.25,10.375-1,17.625s-7.75,13.75-7.75,13.75l4.625-1.125l20.625-31.375c0,0,0.625-18.625,0.375-20.875
		s-0.875-3-0.875-3s-1.25,4.375-2.5,7.125s-2.375,3.5-3.875,4.25s-7.75-0.75-11.5-5.75"/>
	<path fill="#5D3119" d="M213.504,109.296c0,0,2.5-14.625,2.625-16.125s1.5,2.375,2,3.5s1.375,5.625,1.375,7.125
		s-0.875,6.25-1.25,7.25s-1.375,4.125-1.75,4.5s-2.75,4.25-2.75,4.25s-0.625-6.125-0.375-9.375"/>
	<path fill="#5D3119" d="M213.629,128.046c0,0,4.625-1.5,7.25-3.375s4.25-4,6.5-7.75s2.25-3.75,2.25-3.75s-0.75,3.625-5.75,10.375
		s-9.125,11.75-9.625,12s-3.125,0.75-3.125,0.75l-2,0.25C209.129,136.546,212.254,129.046,213.629,128.046z"/>
	<path fill="#5D3119" d="M214.254,135.546c0,0,10.375,3.5,13,3.875s14.125,2.375,16.25,2.25s10.625-0.25,10.625-0.25l0.625-1.625
		c0,0-3-5.75-4.25-7.375s-1.25-1.625-1.25-1.625s-3.125,0.75-8.125,1s-14.75-0.375-16-0.625s-1.25-0.25-1.25-0.25L214.254,135.546z"
		/>
	<path fill="#5D3119" d="M237.129,140.671c0,0-6.625,11-9,14.125s-6.625,8.25-6.625,8.25l1.75-0.25c0,0,8.875-9.125,10.25-10.5
		s11-11.125,11-11.125l-0.875-3l-7,1.75"/>
	<path fill="#5D3119" d="M256.379,165.046c0,0,13.5-15.25,16.25-20.5s5-6.75,3.75-8.625s-5.375-5.5-8.5-7.875s-6.25-5.375-6-10.875
		s0.25-12.625,3.375-19.125s8.5-17.5,8.5-17.5s0.375,5.875,1.5,8.125s1.75,3.25,3.5,3.625s3.75,0.25,4.25-1.375
		s1.125-4.5,1.25-7.375s0.125-9.125,0.125-9.125s1.875,8.375,1.75,10.5s-0.25,10.125-0.625,12.875s-2.25,14.5-3,16.125
		s-1.375,4.25-1.25,5.25s10.25,13.375,10.25,13.375l-32.5,32.625L256.379,165.046z"/>
	<path fill="#FFFFFF" d="M98.566,59.483c0,0-13.688-1.938-17.688-1.625s-5,0.25-5,0.25l1.063,2.125l1.813,2.063l10.813,8.563
		l2.125,1.313l3.813-1.188c0,0-0.5-3.625-0.563-3.813s2.438-5.688,2.438-5.688l1.188-2.25"/>
	<ellipse fill="#FFFFFF" cx="115.035" cy="40.327" rx="12.156" ry="10.406"/>
	<ellipse fill="#FFFFFF" cx="136.66" cy="43.796" rx="14.594" ry="13"/>
	<ellipse fill="#0092FF" cx="127.754" cy="44.577" rx="5.188" ry="5.094"/>
	<ellipse fill="#0092FF" cx="107.441" cy="40.765" rx="4.438" ry="4.344"/>
	<circle fill="#00426B" cx="127.285" cy="44.577" r="2.219"/>
	<ellipse fill="#00426B" cx="107.129" cy="40.702" rx="1.875" ry="1.844"/>
	<ellipse fill="#FFFFFF" cx="129.41" cy="41.921" rx="1.344" ry="1.313"/>
	<circle fill="#FFFFFF" cx="125.473" cy="46.89" r="1.031"/>
	<ellipse fill="#FFFFFF" cx="108.816" cy="38.827" rx="1.125" ry="1.156"/>
	<circle fill="#FFFFFF" cx="105.629" cy="43.171" r="0.875"/>
	<ellipse fill="none" stroke="#000000" stroke-width="0.75" cx="136.629" cy="43.838" rx="14.5" ry="13.042"/>
	<path fill="none" stroke="#000000" stroke-width="0.75" d="M122.632,47.457c-0.485-1.258-0.609-2.637-0.429-3.98
		c-0.082-1.204,0.109-2.545,0.631-3.665c0.24-0.896,0.718-1.756,1.174-2.532c0.429-0.729,0.92-1.384,1.511-1.931
		c-2.032-3.272-6.021-5.512-10.641-5.512c-6.673,0-12.083,4.645-12.083,10.375s5.41,10.375,12.083,10.375
		c3.096,0,5.906-1.015,8.043-2.66c-0.005-0.013-0.014-0.025-0.019-0.039C122.796,47.775,122.701,47.637,122.632,47.457z"/>
	<line fill="none" stroke="#000000" stroke-width="0.75" x1="103.441" y1="44.046" x2="80.004" y2="57.921"/>
	<path fill="none" stroke="#000000" stroke-width="0.75" d="M116.441,29.921c0,0,1.563-2.625,4.688-4.813s12.125-7.625,12.125-7.625
		s-5.875-2.25-7.063-3.063s-1.438-1.125-1.438-1.125s5.625-2.5,13.563-1.875s10.75,1.125,10.75,1.125s-2.125-3.375-2.438-5.125
		s-0.313-2.625-0.313-2.625s3.125,1.688,6.438,4.313s7.188,6.25,9.063,6.875s3.125,0.875,3.125,0.875"/>
	<path fill="none" stroke="#000000" stroke-width="0.75" d="M160.379,25.858c0,0,3.75-8.125,7.063-12.5s7-7.313,8.5-7.75
		s5.375-1.375,7.688,1.313s4.438,5.5,5.813,8.688s1.75,4.75,1.875,5.938s0.125,8,0,8.188s-0.813,2.125-5.875,3.625
		s-12,3.188-12,3.188"/>
	<path fill="none" stroke="#000000" stroke-width="0.75" d="M165.191,28.733c0,0,4.313-7.625,9-10.063s4.938-2.5,4.938-2.5"/>
	<path fill="none" stroke="#000000" stroke-width="0.75" d="M176.191,35.796c0,0,2.563,5.938,6.75,10.063s11.938,11.5,11.938,11.5
		s-15.75,2.375-15.688,2.625s10.75,4.563,10.75,4.563l-14.813,1.313l7.313,6.625c0,0-20,2.688-23.063,4.313
		s-6.063,5.375-9.938,7.938s-6.125,4.188-11.5,5.313s-14,0.938-14,0.938s1.938,1.875,3.063,2.375s1.125,0.5,1.125,0.5
		s-5.25,0.813-9.188-0.375s-5.188-2-5.188-2s3.125,3.563,4,4s0.875,0.438,0.875,0.438s-4.438,1.5-7.625,0.125
		s-5.563-4.375-5.563-4.375s-1,3.813-0.563,5.75s0.438,1.938,0.438,1.938s-1.75,0.375-4.25-2.438s-3.25-5.125-3.563-7.125
		s0.063-4.75,0.063-4.75"/>
	<path fill="none" stroke="#000000" stroke-width="0.75" d="M76.379,58.108c0,0,4.063-0.438,10.313-0.125s13.125,1.438,16.125,2.438
		s5.375,2.438,5.375,2.438s-1.25,2.75-5.563,5.125s-11.188,4.25-11.188,4.25s-11.438-8.375-13.125-10.125
		S75.691,58.296,76.379,58.108z"/>
	<path fill="none" stroke="#000000" stroke-width="0.75" d="M78.066,62.108c0,0,0.125,11.125,0.75,14.063s1.625,5.875,3.875,7.063
		s5.438,1.688,10.625,1.938s19.125,0.375,21.813-0.813s8.438-6.563,9.75-8.125s2-2.75,2-2.75"/>
	<path fill="none" stroke="#000000" stroke-width="0.75" d="M93.066,72.108c0,0-0.063,6.125,0.688,7.813s3.5,5.438,3.5,5.438"/>
	<path fill="none" stroke="#000000" stroke-width="0.75" d="M124.191,23.233c0,0-3.438-4.563-3.875-8.063s0.125-5.438,2-7.063
		s8.313-5.5,11.938-6.625s7.625-1.25,9.875-1s3.063,0.813,3.75,1.688s0.688,4.063,0.688,4.063"/>
	<path fill="none" stroke="#000000" stroke-width="0.75" d="M286.463,84.838c0,0,0.584-4,0.584-7.417s0.5-7.333,0.25-12.75
		s-0.417-9.333-1.417-15.417s-1.5-9.5-3.5-14.917s-4.5-10.333-8.417-13.917s-13.5-5.75-20.083-6.167s-16.5,1.417-23,2.917
		s-19.5,7.5-21.084,8s-18.333,0.25-18.333,0.25"/>
	<path fill="none" stroke="#000000" stroke-width="0.75" d="M281.297,63.338c-0.167,0.25,5.583,15.751,4.916,24.417
		s-2.5,21.167-3.25,24.417s-3.582,5.667-0.666,9.75s9.083,10.583,9.083,10.583l-32.5,32.917c0,0-17.167,0.582-20.167,0.166
		s-7.667-1.834-7.917-2s3.834-4.333,6.834-5.083s7.416-1.167,9.083-0.667s1.667,0.5,1.667,0.5l6.25-18.333
		c0,0-7.749-13.584-8.833-17.167s-3.084-9.25-3.834-14s-1.25-9.665,1.25-14.749s7.333-11.667,7.333-11.667"/>
	<path fill="none" stroke="#000000" stroke-width="0.75" d="M212.963,109.005c0,0,0.5,11.25,0.417,14.5s0.167,7.25,0.167,7.25
		l-21.5,31.917c0,0-16.917,3.5-19.334,3.25s-4.833-0.75-4.833-0.75l-6-1.75c0,0,3.083-4.833,6.583-5s5.833,0.083,5.833,0.083
		s0.25-0.916,3-1.083s5.25,0.75,5.25,0.75"/>
	<path fill="none" stroke="#000000" stroke-width="0.75" d="M173.713,158.005c0,0,4.584-13.083,5.167-18s0.416-12.417-0.417-17
		s-1.333-8-1.333-8"/>
	<path fill="none" stroke="#000000" stroke-width="0.75" d="M138.88,89.922c0,0,2.667,8.832,4.417,12.416s3.916,6.917,6.583,11.084
		s8.833,12.417,12.25,14.917s9.75,6.167,11.667,6.75s5.583,1.5,5.583,1.5"/>
	<path fill="none" stroke="#000000" stroke-width="0.75" d="M148.964,156.089l4.166-17.084c0,0-0.666-3.833-1.083-7.417
		s-1.583-17.333-1.583-17.333"/>
	<path fill="none" stroke="#000000" stroke-width="0.75" d="M155.713,156.255c0,0-6.5,0.001-8.083,0.167s-5.417,0.833-6.917,1.833
		s-2.166,2.583-2.166,2.583s1.583,1.418,2.833,1.584s2.417,0.25,2.417,0.25s-0.083,0.75,4,0.75s7.834-1.001,10-1.334
		s5.333-1,5.333-1s15.75-24.833,15.75-24.583"/>
	<path fill="none" stroke="#000000" stroke-width="0.75" d="M210.046,136.588c0,0,5.334-1.166,8.084-2.333s7.25-4.416,9.833-7.083
		s6.25-8.333,6.917-11.083s1-3.167,1-3.167"/>
	<path fill="none" stroke="#000000" stroke-width="0.75" d="M213.547,119.588c0,0,3.582-4.25,4.249-6.583s1.834-9.167,1.334-11.75
		s-2.417-8.25-2.417-8.25"/>
	<path fill="none" stroke="#000000" stroke-width="0.75" d="M213.963,135.839c0,0,12.501,3.334,16.834,4s9.166,1.417,12.083,1.5
		s11.5,0.166,11.5,0.166"/>
	<path fill="none" stroke="#000000" stroke-width="0.75" d="M215.546,136.839c0,0,4.5,7.75,4.417,8s-3.833,12.666-3.833,12.666
		s-6.333-0.833-8.583,0.167s-4.667,3.583-4.667,3.583s1.083,0.667,2,1s2.916,0.667,4.333,0.75s2.334-0.167,2.334-0.167
		s-0.917,0.666,0.583,0.75s10.417-0.25,11-0.833s21.583-21.583,21.583-21.583"/>
	<path d="M217.067,92.879c0,0-1.876-4.188-2.604-4.896s1.479,3.792,1.938,5.167"/>
	<path d="M235.535,112.89c0,0,0.75-4.25,0.594-5.156s-0.156-0.906-0.156-0.906s0.719,4.875,0.125,6.406"/>
	<path d="M212.566,109.202c0,0,0.094-1.906-0.156-3.063s-0.281-1.281-0.281-1.281s1.188,3.031,1.219,4.25"/>
	<path d="M176.848,115.265c0,0-1.281-6.188-1.656-7.781s-0.375-1.594-0.375-1.594s2.688,8.063,2.719,9.063"/>
	<path d="M126.851,74.108c0,0,2.109-3.25,2.381-4.344c0.272-1.094,0.272-1.094,0.272-1.094s-2.28,4.031-3.063,4.813"/>
	<path d="M250.087,82.505c0,0,3.667-4.708,4.792-5.625s1.917-1.167,1.917-1.167s-5.125,6.166-6.25,7.375"/>
	<path d="M281.046,63.672c0,0-1.916-5.167-2.75-6.25s-0.834-1.083-0.834-1.083s2.583,1.875,4.25,7.333"/>
	<path d="M243.629,165.672c0,0,1.751-2.833,3.292-3.875s3.958-1.375,3.958-1.375s-3.708,1.916-4.583,2.958s-1.459,2.542-1.459,2.542
		"/>
	<path d="M236.629,164.797c0,0,1.209-3.084,2.542-4.042s4.708-1.541,4.708-1.541s-4.458,2.084-5.125,3s-1.375,3.291-1.375,3.291"/>
	<path d="M211.379,162.797c0,0,0.707-2.5,2.416-3.167s2.667-0.667,2.667-0.667s-3.126,1.166-3.542,2s-1.083,2.25-1.083,2.25"/>
	<path d="M206.337,162.38c0,0,0.416-1.707,1.833-2.666s2.959-0.959,2.959-0.959s-2.584,1.041-3.292,2s-1,2-1,2"/>
	<path d="M175.004,165.63c0-0.125,1.083-2.207,2.458-3.291s4.5-2,4.5-2s-4.291,2.333-4.708,3.083s-0.958,2.083-0.958,2.083"/>
	<path d="M167.129,164.88c0,0,1.083-1.832,2.125-2.916s1.749-1.708,2.833-1.875s1.667-0.084,1.667-0.084s-3.417,1.668-4.042,2.334
		s-1.75,2.666-1.75,2.666"/>
	<path d="M148.712,163.297c0,0,1.167-2.209,2.667-3.334s3.583-1.583,3.583-1.583s-3.584,2.374-4.292,3.333s-1.041,1.709-1.041,1.709
		"/>
	<path d="M143.337,162.38c0,0,0.75-1.959,1.75-2.875s3.833-1.916,3.833-1.916s-3.125,1.791-3.75,2.666s-0.75,2.542-0.75,2.542"/>
	<path d="M155.379,156.546c0,0,1.125,0.542,1.5,0.875s0.375,0.333,0.375,0.333s-0.501-1.957-1.584-1.916"/>
	<path d="M182.212,158.296l2.75,1.375c0,0-1.208-2.124-2.5-2.208"/>
	<path d="M96.129,59.337c0,0-12.583,0.833-12.083,2.25s10.583,9.917,10.583,9.917s9.25-4.332,10.583-5.416s3.458-2.958,2.979-3.229
		s-9.479-4.187-11.979-3.854"/>
</g>
<g id="frame_2">
	<path fill="#834421" d="M100.879,39.171c0,0,10.5,18.5,11.25,19.75s-21.25,10-22.75,11s-1,8.5-1,8.5s-2.75,6.5-2,8.25
		s12.75,22.25,13,23s9.25,7.75,10.75,8.25s24.75,6.5,24.75,6.5s13.75,5.75,14.5,6.25s16.75,7.75,21,7.75s28.75-3,29.75-3.5
		s13.5-6,13.5-6l19.25,6.75c0,0,12.5,11.5,12.5,12.75s6.75,0.5,6.75,0.5l2.125-3.375c0,0-1.375-7.25-2.375-9
		s-14.25-25.875-14.625-27.125s-1.625-6.25-2.125-7.75s-0.5-9.875-0.75-11.25s-0.625-6.5-0.625-6.5s-1.75-18.125-2-19.625
		s-1.625-16.125-1.625-16.5s-2.75-9.25-3.125-10.125s-4.125-8-4.625-8.875s-4.5-4.125-4.875-4.25s-12.25-4-12.25-4
		s-4-1.25-4.625-1.25s-14.625,0.5-15.125,0.5s-12,0.875-13,1.25s-5.25,1.75-5.875,2.125s-7,2.125-7.875,2.375
		s-11.5,3.125-12.375,3.375s-16.125,3-19.875,3.125"/>
	<path fill="#834421" d="M113.129,108.921l-22.5,2.75c0,0-12.25,6.25-13.5,7s-5,4-5,4l-1.5,7l1.25,2c0,0-2,5.25-0.75,6.75
		s8.75-3.75,8.75-3.75l10.25-2c0,0,19.5-2.5,20.25-2.5s22.75-3,24-3.25s10.75-2.5,10.75-2.5l5.25-18.75"/>
	<path fill="#3B1F0F" d="M50.462,120.254c0,0-1.333,1.416-1.583,1.833s-1.167,1.75-1.167,1.75l-0.583,0.917l-0.333,0.917l-0.083,0.5
		l-1.167,1.833l-0.25,2.917v2.166l0.417,2.5c0,0,0.833,1.166,1.083,1s9.417-4.25,9.917-4.5s9.333-4.832,9.667-4.916
		s4.417,0.084,4.917,0s2.083-0.417,2.083-0.417s1.667-1.25,2-1.75s2.167-2.166,2.167-2.166l2.417-1.5l4.417-1.834l7.084-2.416
		l1.75-0.834c0,0-0.668-0.416-1.334-1.583s-3-5.084-3-5.084l-1.333-2.333l-0.583-1.75l-0.75-1.75l-0.833-2.167l-0.25-0.833
		l-2.167,5.833c0,0-25.333,9.416-27.167,10s-4.417,1.917-4.417,1.917l-0.583,1.417"/>
	<path fill="#5D3119" d="M83.046,93.754c0,0,1.916,6.916,2.333,7.833s1.5,4.667,1.833,5.167s4.5,8.333,4.833,8.75
		s1.167,0.75,1.167,0.75l2.75-0.833l7.166-2.833l3.667-1.417c0,0-7.583-12.249-9.583-15.833s-4.417-9.084-4.417-9.084
		s-3.039,2.802-3.333,3s-3.833,3-3.833,3l-2.417,1"/>
	<path fill="#5D3119" d="M70.879,137.838c0,0,3.75-1.333,4.75-2s3.917-1.501,5.167-2.084s7.667-2.75,7.667-2.75l4.167-1
		c0,0,16.75-2.25,20.667-2.833s25.583-3.417,25.583-3.417l16.5-17.5l0.083,3.917l-1.5,3.083l-8.583,14.333
		c0,0,4.916,0.418,6.833,1.084s15.334,4.25,16.667,4.583s10.833,1.917,14.083,1s12.333-8.667,12.333-8.667l-4.5-11.666
		c0,0,1.501,1.083,3.584,2.583s6.166,5.667,9.833,6.417s12.083,2.75,15.583,2.583s9.834-0.999,9.667-0.833
		s11.833,12.083,11.833,12.083s5.834,5.834,5.917,6.084s2.5,1.833,3.5,2.083s3.5,0.25,3.5,0.25l0.167,3.917l-0.584,4.916v2.417
		l0.334,3.167c0,0-6.833-2-7.25-2.25s-4.75-2.917-5.167-3.167s-1.501-1.667-1.417-2.667s0.334-2.333,0.334-2.333l-13.25-10.25
		l-8-5.167l-4.584-1.166l-6.416,6.999l-11.584,3.334c0,0-5.75,0.333-6.083,0.583s-4.333,1.583-4.583,1.75s-8.833,0.417-8.833,0.417
		l-28.084-9.667c0,0-3.083-0.333-3.333-0.333s-14.667-0.334-14.667-0.334l-12.75-1.749c0,0-16.333,1-17.25,1s-11.5,0-11.5,0
		s-8.167,5.083-9.167,5.666s-4.5,2.25-4.5,2.25l-2.5,0.5l-1.167-0.25l-1-0.917l-0.25-1.25L70.879,137.838z"/>
	<path fill="#29150A" d="M48.212,132.921c0,0,6.917-3,8.667-3.75s5.417-2.501,6.833-2.917s5.833-1.166,5.833-1.166l5.583,0.25
		c0,0-1,2.5-1.417,3.25s-1.5,2.333-1.5,2.333s-4.833,0.084-5.333,0.167s-4.333-0.084-4.333-0.084s-1.583,1.501-2.333,2.084
		s-2.583,2-3.083,2.333s-3.25,1.417-3.75,1.667s-3.083,1.166-3.5,1.333s-2,0.417-2.333,0.417s-1.75-0.5-1.75-0.5l-0.583-1.084
		l0.167-1.083c0,0,1.25-1.667,1.417-1.917s1.5-1.75,1.5-1.75"/>
	<path fill="#30190C" d="M214.713,132.754c0,0-3.75,4.168-4,4.334s-2.667,2.416-2.667,2.416s1.583,2,1.75,2.25
		s3.751,3.084,3.834,3.334s0.583,3.916,0.583,3.916l12.917,6.917l0.416-5.583l0.584-5.167l0.25-1.667l-0.917-3l-0.167-1.5
		c0,0-1.917-2.083-2.5-2.333s-4.166-2.333-4.166-2.333l-2.667-1.334l-3.583-0.416"/>
	<path fill="none" stroke="#000000" stroke-width="0.75" d="M125.713,32.254c0,0,11.832-1.5,15.666-2.167s22-5.5,25-6.833
		s8.168-2.5,12.334-3s18.834-0.834,22-0.667s16.832,4.667,17.666,5.333s3.834,3.333,5.167,5.833s4.833,9.5,5.333,12
		s1.667,7.833,1.667,10.667s1.666,12.833,2.166,19.5s1.5,18.334,1.5,21.334s1,9,2,12s2.166,5.666,5,10.666s5.167,10.501,7,13.167
		s3.833,7,4.5,9.333s1.667,5.499,1.667,7.666s-0.333,5-0.5,6.667s0,5.833,0,5.833s-3.5-1-5.5-1.833s-6-2.999-7-3.833
		s-1.166-2.5-1-3.5s0.166-1,0.166-1s-14.665-11.833-16.499-13s-4.834-3.001-5.834-3.167s-15.332-3.332-17.166-3.666
		s-3.666-1.667-4.5-2.167s-21.834-53-21.834-53"/>
	<path fill="none" stroke="#000000" stroke-width="0.75" d="M214.879,132.588c0,0-5.666,6.332-7,7.166s-11.334,3.333-14.167,3.5
		s-6.5,1.666-8,2s-6.666,0.334-7.833,0.334s-28.334-9.334-29.667-9.667s-15.333-0.667-16.5-0.667s-10.834-1.166-11.667-1.333
		s-0.833-0.167-0.833-0.167"/>
	<path fill="none" stroke="#000000" stroke-width="0.75" d="M82.878,93.587c0,0,2.833,10.001,3.833,11.834s5.166,9.834,5.833,10.5
		s0.667,0.666,0.667,0.666"/>
	<path fill="none" stroke="#000000" stroke-width="0.75" d="M154.379,112.421l-11,18.833c0,0-27.001,2.499-30.334,2.833
		s-23.667,0.834-23.667,0.834s-8.5,5.333-10.833,6.5s-4.666,1.667-5.333,1.5s-1.833-1.333-2-2s-0.667-4.167-0.5-5.667
		s0.833-3.666,1.333-4.333s1.5-2,1.5-2s0.667-2.333,1.5-3.5s4.167-4,6-4.5s27.334-10.334,27.334-10.334l6-15.666"/>
	<path fill="none" stroke="#000000" stroke-width="0.75" d="M85.212,99.754l-2.5,7.167c0,0-27.333,10.166-29.333,10.833
		s-4.167,3.834-4.667,4.334s-1.167,2.166-1.167,2.166s-1.667,3.001-2,3.834s-0.167,3-0.333,3.833s0.167,3.333,0.167,3.333
		s-0.167,1.666,0.333,2.5s2,1.334,3.333,0.834s6.833-2.334,8-3.167s5.5-4.333,5.5-4.333l9.5-0.167"/>
	<path fill="none" stroke="#000000" stroke-width="0.75" d="M207.879,139.754c0,0,5.001,4.667,5.667,5.167s0.833,4.5,0.833,4.5
		l13,6.666c0,0,0.333-7.333,0.5-8.833s0.499-3.833,0.333-4.333s-0.833-3.834-0.833-3.834"/>
	<path d="M253.879,156.172c0,0-4.125-0.374-5.25-0.833s-2.542-2.834-2.542-2.834s3.291,2.375,4.25,2.542s3.625,0.375,3.625,0.375"/>
	<path d="M227.504,152.172c0,0-3.041-0.251-4.208-0.792s-3.625-2.333-3.625-2.333s6.5,2.249,7.083,2.333s0.917,0.042,0.917,0.042"/>
	<path d="M71.17,140.088c0,0,0.958-2.125,1.875-3.208s4.5-4.083,4.5-4.083s-4.708,5.834-5.375,6.875s-0.667,1.75-0.667,1.75"/>
	<path d="M73.67,128.547c0,0,2.083-2.001,3.5-2.334s1.667-0.166,1.667-0.166s-4.833,2.791-5.5,3.541"/>
	<path d="M45.503,135.755c0.083-0.125,2.75-4.249,3.458-5.083s2.75-2.125,2.75-2.125s-5.25,6.5-5.667,7.458
		s-0.458,1.333-0.458,1.333l-0.292-1.041"/>
	<path d="M46.253,126.339c0,0,2.458-3.333,3.958-4s1.958-0.584,1.958-0.584s-4.875,4.208-5.875,5.625s-1.083,1.959-1.083,1.959"/>
	<path fill="#834421" d="M127.932,27.171c-0.004-0.042,0-0.079-0.001-0.12l-1.067,0.067c0,0,0.486-3.793-0.783-5.834
		s-1.853-5.008-3.346-6.658c-1.493-1.65-4.266-5.467-4.772-5.557c-0.509-0.089-3.48-1.386-4.346-1.2
		c-0.864,0.185-3.873,0.144-4.819,0.962c-0.944,0.817-4.666,4.961-5.461,6.144c-0.795,1.183-3.393,5.249-3.393,5.249
		s-3.161-0.406-5.102-1.273s-11.999-8.562-11.999-8.562S82.909,7.753,82.5,7.28c-0.409-0.472-2.517-1.955-4.129-1.717
		c-1.612,0.238-9.334,0.902-11.626,2.189c-2.291,1.288-9.843,6.199-10.405,7.116c-0.563,0.916-1.682,4.628-1.079,6.089
		c0.603,1.462,1.754,5.392,2.705,6.453c0.951,1.061,1.769,2.007,1.769,2.007s-6.227,5.947-6.316,6.455
		c-0.089,0.507-3.854,9.416-3.854,9.416l-9.078,6.397l-21.73,15.423l-2.279,5.045c0,0,1.646,16.426,2.998,17.835
		c1.351,1.409,5.515,3.625,6.779,3.788c1.265,0.162,10.759-0.249,10.759-0.249s1.563,8.037,2.255,8.99
		c0.693,0.954,4.428,4.202,4.944,4.416c0.516,0.216,2.022,0.236,2.022,0.236s-0.673-2.46-0.795-4.206
		c-0.121-1.746,0.122-3.643,0.122-3.643s2.96,2.928,4.892,3.67c1.931,0.741,4.816,0.791,5.931,0.59
		c1.113-0.204,3.082-0.718,3.082-0.718s-4.181-2.465-4.99-3.286c-0.809-0.82-0.809-0.82-0.809-0.82s6.365,1.437,7.763,1.715
		c1.397,0.278,2.906-1.456,2.906-1.456l-1.563-2.647l8.465-2.595c0,0,6.008-0.021,7.627,1.268c0.172-0.073,0.341-0.153,0.515-0.221
		c0.261-0.102,0.481,0.006,0.62,0.189c0.186-0.079,0.371-0.129,0.545-0.129c0.132,0,0.247,0.04,0.341,0.105
		c0.314-0.185,0.628-0.372,0.943-0.556c0.009-0.011,0.016-0.022,0.025-0.033c3.352-3.604,7.374-6.718,11.615-9.37
		c0.293-0.415,0.607-0.81,0.928-1.198c-0.327-0.58-0.259-1.373,0.5-1.907c1.629-1.146,3.376-2.106,5.193-2.913
		c0.664-0.39,1.345-0.759,2.057-1.087c0.31-0.143,0.638-0.156,0.946-0.086c1.595-0.546,3.228-0.971,4.87-1.326l16.089-21.701
		c-0.206-0.174-0.373-0.4-0.478-0.651c-0.267,0.144-0.531,0.29-0.813,0.408c-0.555,0.233-1.092-0.048-1.447-0.466
		c-0.543,0.159-1.13-0.003-1.437-0.699c-1.188-2.796-1.95-5.748-3.055-8.568c-0.251-0.165-0.464-0.417-0.592-0.777
		c-0.113-0.253-0.206-0.512-0.283-0.774c-1.092-0.782-2.062-1.721-3.012-2.67c-0.188-0.189-0.22-0.409-0.156-0.6
		c-0.019-0.106-0.026-0.219-0.026-0.34c0-0.566,0.668-0.793,1.063-0.44c0.004,0.004,0.009,0.007,0.014,0.011
		c0.161-0.037,0.322-0.069,0.483-0.104c0.088-0.063,0.188-0.112,0.311-0.132c0.629-0.101,1.242-0.247,1.849-0.412
		c-0.084-0.446,0.109-0.944,0.651-1.088c0.923-0.245,1.832-0.523,2.749-0.786c1.759-1.424,3.744-2.425,5.92-3.136
		c0.313-0.315,0.64-0.622,0.97-0.925c0.27-1.422,0.597-2.829,0.948-4.241c0.05-0.202,0.145-0.344,0.255-0.454
		c0.004-0.059,0.006-0.117,0.015-0.179c0-0.002,0.001-0.004,0.001-0.006C127.966,27.577,127.952,27.374,127.932,27.171z"/>
	<path fill="#5D3119" d="M112.991,40.24c0,0,1.68,7.902,1.569,9.915c-0.111,2.013-1.214,5.974-4.627,7.34
		c-3.413,1.365-18.933,5.204-18.933,5.204s9.481,1.219,11.314,2.344c1.833,1.126,3.425,2.394,1.899,3.878
		c-1.526,1.484-10.33,4.604-15.988,6.126c-5.658,1.522-12.383,2.117-12.383,2.117s1.725,6.771-0.676,10.07
		c-2.401,3.302-3.509,5.382-6.059,6.563c-2.549,1.18-12.365,2.366-12.365,2.366s5.765,3.607,7.162,3.886
		c1.398,0.278,4.382-0.055,4.382-0.055s-3.665-2.251-3.932-2.482c-0.267-0.231,9.833-0.937,11.313-1.29
		c1.479-0.354,10.374-3.98,12.737-6.024c2.364-2.045,4.932-4.73,6.093-6.064c1.16-1.334,3.666-3.138,5.252-3.748
		c1.586-0.612,21.892-5.912,21.892-5.912l-7.916-5.713l14.378-2.256l-10.556-4.026l15.013-3.927c0,0-13.234-10.105-14.736-11.88
		s-4.637-7.195-4.637-7.195"/>
	<path fill="#FFFFFF" d="M36.661,67.802c0,0-13.789-0.981-17.757-0.39c-3.969,0.589-4.971,0.597-4.971,0.597l1.208,2.046
		l1.951,1.931l11.382,7.79l2.211,1.162l3.721-1.449c0,0-0.75-3.582-0.826-3.766c-0.076-0.183,2.036-5.843,2.036-5.843l1.028-2.326"
		/>
	
		<ellipse transform="matrix(-0.9976 0.0696 -0.0696 -0.9976 106.6967 91.3794)" fill="#FFFFFF" cx="51.758" cy="47.547" rx="12.156" ry="10.406"/>
	
		<ellipse transform="matrix(-0.9976 0.0695 -0.0695 -0.9976 150.4076 93.7711)" fill="#FFFFFF" cx="73.572" cy="49.504" rx="14.594" ry="13"/>
	
		<ellipse transform="matrix(-0.9976 0.0696 -0.0696 -0.9976 132.8664 97.1779)" fill="#0092FF" cx="64.741" cy="50.902" rx="5.187" ry="5.094"/>
	
		<ellipse transform="matrix(-0.9976 0.0696 -0.0696 -0.9976 91.6945 93.8281)" fill="#0092FF" cx="44.213" cy="48.511" rx="4.437" ry="4.344"/>
	<circle fill="#00426B" cx="64.274" cy="50.935" r="2.219"/>
	
		<ellipse transform="matrix(-0.9976 0.0695 -0.0695 -0.9976 91.0576 93.7727)" fill="#00426B" cx="43.897" cy="48.471" rx="1.875" ry="1.844"/>
	
		<ellipse transform="matrix(-0.9976 0.0696 -0.0696 -0.9976 135.6065 91.5513)" fill="#FFFFFF" cx="66.209" cy="48.137" rx="1.344" ry="1.313"/>
	<circle fill="#FFFFFF" cx="62.626" cy="53.368" r="1.031"/>
	
		<ellipse transform="matrix(-0.9976 0.0697 -0.0697 -0.9976 94.0276 89.6867)" fill="#FFFFFF" cx="45.45" cy="46.483" rx="1.125" ry="1.156"/>
	<circle fill="#FFFFFF" cx="42.572" cy="51.038" r="0.875"/>
	
		<ellipse transform="matrix(-0.9976 0.0695 -0.0695 -0.9976 150.3528 93.8618)" fill="none" stroke="#000000" stroke-width="0.75" cx="73.543" cy="49.548" rx="14.5" ry="13.041"/>
	<path fill="none" stroke="#000000" stroke-width="0.75" d="M59.832,54.131c-0.571-1.22-0.791-2.587-0.705-3.94
		c-0.165-1.195-0.068-2.546,0.375-3.699c0.177-0.91,0.595-1.802,0.996-2.607c0.377-0.757,0.822-1.445,1.373-2.03
		c-2.254-3.123-6.389-5.081-10.998-4.759c-6.657,0.463-11.731,5.473-11.333,11.189c0.399,5.716,6.119,9.973,12.776,9.51
		c3.089-0.215,5.821-1.423,7.839-3.212c-0.006-0.013-0.015-0.024-0.021-0.038C60.018,54.438,59.913,54.306,59.832,54.131z"/>
	<line fill="none" stroke="#000000" stroke-width="0.75" x1="40.45" y1="52.063" x2="18.035" y2="67.534"/>
	<path fill="none" stroke="#000000" stroke-width="0.75" d="M52.437,37.068c0,0,1.377-2.728,4.342-5.127
		c2.966-2.399,11.565-8.45,11.565-8.45s-6.017-1.836-7.258-2.563c-1.241-0.728-1.513-1.022-1.513-1.022s5.438-2.885,13.4-2.814
		c7.961,0.071,10.802,0.375,10.802,0.375s-2.355-3.219-2.789-4.943c-0.433-1.724-0.494-2.597-0.494-2.597s3.235,1.466,6.721,3.854
		c3.487,2.388,7.605,5.735,9.52,6.228c1.913,0.493,3.179,0.656,3.179,0.656"/>
	<path fill="none" stroke="#000000" stroke-width="0.75" d="M95.985,29.96c0,0,3.177-8.366,6.176-12.961
		c3.001-4.594,6.475-7.781,7.941-8.322c1.466-0.541,5.266-1.746,7.76,0.774c2.493,2.521,4.81,5.178,6.402,8.263
		c1.593,3.084,2.076,4.617,2.283,5.792s0.682,7.972,0.57,8.167c-0.112,0.196-0.663,2.177-5.609,4.025
		c-4.946,1.849-11.75,4.014-11.75,4.014"/>
	<path fill="none" stroke="#000000" stroke-width="0.75" d="M100.986,32.494c0,0,3.772-7.907,8.278-10.664
		c4.507-2.757,4.752-2.837,4.752-2.837"/>
	<path fill="none" stroke="#000000" stroke-width="0.75" d="M112.45,38.774c0,0,2.969,5.745,7.435,9.568
		c4.463,3.824,12.708,10.643,12.708,10.643s-15.547,3.465-15.468,3.709c0.08,0.246,11.041,3.804,11.041,3.804l-14.686,2.34
		l7.757,6.101c0,0-19.766,4.072-22.708,5.906c-2.941,1.834-5.674,5.783-9.361,8.607c-3.687,2.828-5.818,4.605-11.103,6.101
		c-5.283,1.496-13.9,1.909-13.9,1.909s2.063,1.735,3.22,2.156c1.157,0.421,1.157,0.421,1.157,0.421s-5.181,1.175-9.191,0.265
		c-4.01-0.911-5.314-1.635-5.314-1.635s3.365,3.336,4.269,3.711c0.903,0.376,0.903,0.376,0.903,0.376s-4.322,1.806-7.597,0.655
		c-3.276-1.15-5.853-3.977-5.853-3.977s-0.733,3.872-0.162,5.774c0.571,1.902,0.571,1.902,0.571,1.902s-1.719,0.495-4.409-2.136
		c-2.689-2.632-3.599-4.888-4.049-6.86c-0.451-1.974-0.269-4.742-0.269-4.742"/>
	<path fill="none" stroke="#000000" stroke-width="0.75" d="M14.431,67.974c0,0,4.022-0.719,10.279-0.843
		c6.257-0.122,13.193,0.522,16.256,1.311c3.062,0.79,5.531,2.058,5.531,2.058s-1.056,2.832-5.192,5.5
		c-4.137,2.67-10.865,5.018-10.865,5.018s-11.993-7.56-13.798-9.188C14.837,70.2,13.759,68.208,14.431,67.974z"/>
	<path fill="none" stroke="#000000" stroke-width="0.75" d="M16.393,71.847c0,0,0.898,11.089,1.726,13.976
		c0.827,2.888,2.029,5.748,4.356,6.776s5.542,1.305,10.734,1.194c5.193-0.111,19.105-0.956,21.704-2.328
		c2.599-1.37,7.96-7.133,9.162-8.783c1.201-1.649,1.804-2.883,1.804-2.883"/>
	<path fill="none" stroke="#000000" stroke-width="0.75" d="M32.052,80.779c0,0,0.364,6.114,1.229,7.745
		c0.865,1.632,3.87,5.182,3.87,5.182"/>
	<path fill="none" stroke="#000000" stroke-width="0.75" d="M59.703,29.858c0,0-3.746-4.313-4.426-7.773
		c-0.68-3.461-0.253-5.434,1.504-7.184c1.757-1.751,7.909-6.064,11.447-7.439s7.52-1.778,9.782-1.685
		c2.261,0.092,3.111,0.598,3.858,1.422c0.747,0.825,0.968,4.005,0.968,4.005"/>
	<path d="M65.894,80.425c0,0,1.878-3.389,2.073-4.499c0.196-1.109,0.196-1.109,0.196-1.109s-1.995,4.18-2.721,5.014"/>
	<path d="M34.219,67.825c0,0-12.496,1.707-11.898,3.086c0.597,1.379,11.248,9.156,11.248,9.156s8.927-4.966,10.181-6.139
		c1.254-1.174,3.244-3.192,2.747-3.43C46,70.262,36.75,66.981,34.279,67.488"/>
	<path fill="#834421" d="M62.67,99.588c0,0,1.958,0.583,2.625,0.583s-2.791,0.126-3.333,0.042"/>
	<path fill="#834421" d="M155.629,146.588c-0.167,0.25,3.667,5.249,4.25,5.666s5.083,2.083,5.583,2.25s2.75-0.5,2.75-0.5
		l0.417-0.666l-0.25-1.167l-1.5-2.5l-6-7.583c0,0-4.333,1.666-4.583,1.833"/>
	<path fill="#834421" d="M141.046,142.338l16.833-1.5l10.666-5.25c0,0,25.333-12.334,26.333-13s8.667-9.666,8.667-9.666
		s8-33.334,8-34.334s3-13,3-13s-0.833-11.666-1.5-17.333s-1.834-12.833-1.834-12.833l-3.166-9.333c0,0-5.334-8.167-7.084-9.417
		s-8.083-4.667-8.583-4.75s-8.749-2.084-13.916-1.667s-18.666,2-22.75,3.583s-15.834,6.084-17.084,6.667s-7.666,3-8.833,3.583
		s-7.5,2.917-10.167,3.75s-7.083,2.167-7.333,2.167s-4.75,1.5-5,1.583s-2.584,0.75-2.584,0.75s-11.084,3-12,3.167
		s-4.75,5.75-4.833,6.167s5.917,6.75,7,7.333s8.749,4,9.583,4.5s-8.333,11-8.583,11s-4,5.167-4,5.417s-12.333,11.749-12.75,12.166
		s-4.667,5.834-4.667,5.834s0.5,4.832,0.75,4.916s26,25.834,26.167,26.167s15.667,5.749,16.417,5.916s11.334,0.751,11.75,0.834
		s3.416-0.334,3.416-0.334l6.584,9.167"/>
	<path fill="#5D3119" d="M78.712,87.088c0,0,5.167,8.334,8,12.334s5.501,7.833,8.167,10.333s12.5,9.501,19,11.167
		s10.584,2.332,12.667,2.499s4.083-0.083,4.083-0.083s-4.333-7-5.333-7.667s-16.083-12.834-16.5-13.417s-3.75-3.833-3.75-3.833
		s9.499,5.084,15.666,7.917s10.916,5.416,12.5,6.833s4.667,5.917,6.917,10.5s5.167,10.333,5.167,10.333s-1.75,2.166-2,2.75
		s-2.833,5.084-2.833,5.084l-4.667-10.417c0,0-11,1.75-11.5,1.75s-13.168,0.083-15.084-0.417s-11.416-3.166-12.416-3.833
		s-11.333-8.333-12-9s-8-10.833-8.417-11.5s-2.333-4.416-2.417-4.833s-3.917-5.417-3.917-5.417"/>
	<path fill="#5D3119" d="M140.463,141.838c0,0-2.417,7.75-2.5,8.083s0.583,0,0.916-0.083s-0.166,0.75-0.166,0.75l0.166,0.75
		l2.334,0.417c0,0,1.5-0.084,2.083-0.334s2.667-0.583,2.667-0.583l0.583,1.083l1.417,1.084c0,0,2,1.333,2.583,1.75
		s7.167,2.499,7.167,2.499l2.75,0.75l2.833,0.25l3.583-0.333l1.5-0.833c0,0,0.584-1.667,0.667-2.25s-0.583-2.667-0.583-2.667
		l-0.75,1.25c0,0-1.084,0-2.417-0.333s-4.5-2-5.25-2.584s-3.833-2.75-3.583-2.833s1.916-1.083,2.416-1.333s0.75-1.167,1.167-1.834
		s0.917-1.333,1.417-1.916s11.166-5.667,11.166-5.667s3.417,0.083,4,0s1.417,0.083,2.167-0.25s11.667-4.5,12.5-4.75
		s9.166-3.833,10.083-4.416s2-1.917,2.25-2.251s2.25-3.75,2.25-3.75l2.167-8.166c0,0,2.416-9.417,2.666-10.083
		s0.751-5.584,1.417-7.334s1.667-34.583,1.667-34.583s-3.834,14.166-4.334,16.166s-4.5,15.334-5.5,18.501
		s-5.999,19.583-5.999,19.583s-4.417,2.917-4.75,3.083s-16.584,9.5-19.834,11.5s-16.583,9.417-19.833,10.25s-12.667,1.5-12.667,1.5"
		/>
	<path fill="#4F2914" d="M124.296,133.171l4.833,7.5c0,0-0.917,2.25-1.25,2.75s-1.583,4-1.583,4l-0.25,1.667l1.083,1.416
		l-0.083,1.167l2.333,0.25l4.25-0.833c0,0,3.417,2.332,3.917,2.666s6.666,3.167,7.083,3.167s3.75,1.333,4,1.333
		s4.333,0.667,4.333,0.667l2.75-0.5l1.25-1.083c0,0-5-2.167-6.083-2.667s-3.501-2.416-3.917-2.583s-0.416-1.25-0.416-1.25
		l-0.584-0.334l-2.666,0.917l-2.334,0.417l-1.666-0.584c0,0,2.083-8.582,1.083-10.916s-3.667-7.167-4-7.167
		s-0.583-1.333-0.583-1.333l-11.084,1.333"/>
	<path fill="#5D3119" d="M213.628,64.088c0-0.065,0.013-0.313,0.033-0.667c0.085-1.443,0.301-4.667,0.301-4.667
		s0.834,11.667,0.75,12.083s-1,10.917-1,11.75s-0.917,9.416-0.917,9.416s-1.084,0.75-1.667-0.5s0-9.084-0.083-10
		s1.417-7.833,1.167-8.083"/>
	<path fill="none" stroke="#000000" stroke-width="0.75" d="M103.92,32.213c0,0,9.5-2.5,16.25-4.375s18.125-7.125,22.75-9.25
		s18.625-6.625,26.25-7.5s17.875-1.125,24.25,1.25s9.625,6.125,12.875,11.125s4.5,10.25,5.75,17s2.125,14.5,2.375,24.625
		s-1,23.125-2.375,31.5s-2.25,8.875-3.625,15.125s-2,8.5-2.375,9.5s-3,2.375-12.75,6.5s-29.25,13.25-30.5,14s-1.375,0.875-2,1.875
		s-0.75,2.125-2.625,3.125s-9.125,3-10,3.375s-1.875,0.5-1.875,0.5s-1.25,0.125-2.875,0.75s-2.5,0.375-3.25,0.375
		s-1.25-0.875-1-1.25s-1-0.625-1-0.625s0.5-2.625,1.75-6.25s3.625-8.375,7.875-12.125s24.125-16.5,24.125-16.5
		s-7.625-10.125-9.375-12.75s-4.375-8.5-4.625-10.875s0.125-4.25,0.125-4.25"/>
	<path fill="none" stroke="#000000" stroke-width="0.75" d="M171.795,137.213c0,0,4.25,0.375,7.625-0.875s11.625-4.375,14-5.25
		s4.875-1.625,5.75-2.125s3.875-2.625,4.75-3.875s2.125-3.875,2.125-3.875"/>
	<path fill="none" stroke="#000000" stroke-width="0.75" d="M69.295,97.088c0,0,4.25,5,4.875,6.75s-0.375-0.125,0.625,1.75
		s6,9,8.375,12s8.25,8.75,12.625,10.75s10.25,4.125,14.125,4.5s11.875,0.375,14.25,0.25s11.125-1.25,11.125-1.25"/>
	<path fill="none" stroke="#000000" stroke-width="0.75" d="M102.045,95.713c0,0,10.875,10.5,15.625,13.875s9.125,7.625,9.125,7.625
		s8.25,13.125,9.5,15.875s4.5,8.75,4.5,8.75"/>
	<path fill="none" stroke="#000000" stroke-width="0.75" d="M135.795,132.338c0,0-5.125,5.125-6.25,7.25s-2.25,5.5-2.625,6.5
		s-1,3.25-1,3.25l1.125,0.875l-0.125,1.375c0,0,1.875,0.375,2.625,0.25s5.375-1.5,5.375-1.5l1,0.375l2.25-0.875"/>
	<line fill="none" stroke="#000000" stroke-width="0.75" x1="124.17" y1="133.088" x2="129.045" y2="140.588"/>
	<path fill="none" stroke="#000000" stroke-width="0.75" d="M134.17,150.963c0,0.5,3.25,2.875,5.25,3.75s7.125,3.25,9.375,3.5
		s5.25,0.375,5.875,0.25s2.625-0.875,2.375-1.375s-0.25-0.5-0.25-0.5"/>
	<path fill="none" stroke="#000000" stroke-width="0.75" d="M161.42,142.838c0,0,4.875,6.375,6.25,8.25s1.125,4.625,1,5.5
		s-1.75,1.375-3,1.625s-4,0.125-7.125-0.625s-7-2.5-9.75-4s-2.5-3-2.5-3"/>
	<path d="M147.045,150.4c0,0-0.563-1.563,0.563-3.5s5.125-7.438,5.125-7.438s-4.25,6.938-4.625,8.188s-0.25,2.75-0.25,2.75"/>
	<path d="M138.982,150.088c0-0.188,0.938-4.125,2.5-6.313s5.813-5.688,5.813-5.688s-5.25,6.063-5.875,7.313
		s-1.938,5.563-1.938,5.563"/>
	<path d="M167.732,157.588c0,0-4.688-0.813-6.25-1.688s-3.813-3.25-3.813-3.25s4.688,2.875,5.875,3.188s4.938,1.125,4.938,1.125"/>
	<path d="M134.42,150.15c0,0,1.75-4.563,2.25-5.5s3-3.875,3-3.875s-1.688,2.875-2.313,4.438s-1.438,5.5-1.438,5.5"/>
	<path d="M126.982,149.963c0,0,2-6.063,3.313-7.688s4.813-4.688,4.813-4.688s-4.563,5.063-5.375,7s-2.5,6.625-2.5,6.625"/>
	<path fill="none" stroke="#000000" d="M158.045,124.213c0,0-0.5-14.875-1-18.875s-6.125-28.625-6.125-28.625"/>
	<path d="M157.711,87.256c0,0,0-1.709,0.625-2.834s0.625-1.125,0.625-1.125s-0.541,2.959-0.666,3.959"/>
	<path d="M150.503,77.006c0,0-0.5-2.376-0.875-3.084s-0.5-0.875-0.5-0.875s1.751,2.376,2.209,3.709"/>
	<path fill="#834421" d="M107.267,26.019c-0.01-0.041-0.011-0.078-0.018-0.118l-1.048,0.215c0,0-0.045-3.824-1.586-5.669
		c-1.54-1.846-2.53-4.703-4.238-6.129c-1.707-1.427-4.983-4.822-5.497-4.84c-0.517-0.018-3.641-0.89-4.471-0.585
		c-0.83,0.303-3.815,0.68-4.639,1.622c-0.822,0.941-3.932,5.561-4.556,6.843c-0.623,1.282-2.63,5.668-2.63,5.668
		s-3.188,0.038-5.229-0.552c-2.042-0.59-13.072-6.813-13.072-6.813s-0.3-2.619-0.771-3.031c-0.47-0.411-2.763-1.586-4.328-1.126
		c-1.564,0.459-9.119,2.189-11.209,3.782c-2.09,1.593-8.886,7.506-9.316,8.492c-0.43,0.985-1.023,4.817-0.222,6.18
		c0.8,1.364,2.486,5.096,3.575,6.015s2.03,1.742,2.03,1.742s-5.34,6.754-5.358,7.27c-0.018,0.515-2.509,9.859-2.509,9.859
		l-8.101,7.596L4.696,80.732l-1.557,5.313c0,0,3.912,16.038,5.445,17.246c1.534,1.207,5.965,2.823,7.24,2.81
		c1.276-0.016,10.621-1.74,10.621-1.74s2.664,7.741,3.482,8.589c0.819,0.849,4.969,3.547,5.509,3.688
		c0.542,0.142,2.035-0.048,2.035-0.048s-1.008-2.343-1.371-4.055c-0.363-1.712-0.385-3.624-0.385-3.624s3.339,2.488,5.354,2.955
		c2.016,0.466,4.879,0.114,5.955-0.24c1.074-0.355,2.953-1.138,2.953-1.138s-4.483-1.86-5.398-2.562c-0.915-0.7-0.915-0.7-0.915-0.7
		s6.502,0.538,7.926,0.619c1.422,0.083,2.675-1.845,2.675-1.845l-1.916-2.404l8.022-3.745c0,0,5.947-0.856,7.729,0.195
		c0.16-0.096,0.316-0.199,0.479-0.29c0.245-0.137,0.478-0.061,0.64,0.102c0.174-0.104,0.349-0.179,0.522-0.203
		c0.131-0.019,0.251,0.006,0.352,0.058c0.286-0.228,0.571-0.457,0.857-0.682c0.008-0.013,0.013-0.024,0.021-0.037
		c2.818-4.035,6.369-7.676,10.201-10.892c0.232-0.452,0.489-0.887,0.752-1.316c-0.404-0.529-0.446-1.323,0.23-1.958
		c1.454-1.361,3.051-2.555,4.739-3.605c0.604-0.479,1.226-0.938,1.885-1.362c0.287-0.185,0.609-0.243,0.925-0.217
		c1.504-0.762,3.063-1.409,4.64-1.989l12.919-23.725c-0.228-0.144-0.426-0.344-0.563-0.579c-0.244,0.18-0.486,0.361-0.748,0.518
		c-0.517,0.308-1.088,0.104-1.498-0.26c-0.516,0.233-1.119,0.154-1.52-0.493c-1.563-2.604-2.729-5.421-4.215-8.062
		c-0.271-0.128-0.517-0.349-0.694-0.688c-0.147-0.235-0.274-0.479-0.388-0.728c-1.19-0.623-2.28-1.418-3.354-2.226
		c-0.213-0.161-0.274-0.375-0.237-0.573c-0.033-0.103-0.057-0.213-0.073-0.333c-0.08-0.561,0.551-0.878,0.991-0.584
		c0.005,0.003,0.01,0.005,0.016,0.009c0.153-0.059,0.31-0.113,0.464-0.17c0.078-0.074,0.17-0.137,0.289-0.174
		c0.608-0.188,1.195-0.417,1.773-0.665c-0.146-0.43-0.022-0.951,0.493-1.168c0.881-0.37,1.742-0.772,2.614-1.16
		c1.544-1.654,3.371-2.922,5.428-3.927c0.267-0.356,0.547-0.705,0.831-1.05c0.069-1.446,0.197-2.885,0.351-4.332
		c0.021-0.207,0.095-0.361,0.188-0.484c-0.004-0.059-0.01-0.117-0.01-0.179c0-0.002,0.001-0.004,0-0.006
		C107.356,26.417,107.314,26.218,107.267,26.019z"/>
	<path fill="#5D3119" d="M94.286,41.037c0,0,2.761,7.592,2.931,9.601c0.169,2.008-0.372,6.084-3.563,7.912
		c-3.19,1.825-18.027,7.782-18.027,7.782s9.56-0.11,11.531,0.75s3.724,1.896,2.42,3.576c-1.306,1.683-9.591,5.995-14.982,8.288
		c-5.393,2.293-11.969,3.816-11.969,3.816s2.649,6.466,0.73,10.065c-1.92,3.604-2.729,5.817-5.089,7.341
		c-2.361,1.522-11.917,4.061-11.917,4.061s6.21,2.772,7.632,2.854c1.423,0.081,4.332-0.663,4.332-0.663s-3.942-1.72-4.238-1.912
		c-0.297-0.192,9.607-2.293,11.024-2.848c1.415-0.556,9.72-5.384,11.776-7.735c2.057-2.354,4.227-5.37,5.191-6.853
		c0.964-1.482,3.194-3.616,4.681-4.441c1.486-0.826,20.858-8.895,20.858-8.895l-8.633-4.559l13.926-4.23l-11.013-2.521l14.321-5.974
		c0,0-14.509-8.169-16.243-9.719c-1.734-1.549-5.591-6.481-5.591-6.481"/>
	<path fill="#FFFFFF" d="M22.523,78.933c0,0-13.791,0.942-17.639,2.08c-3.849,1.134-4.84,1.28-4.84,1.28l1.48,1.859l2.201,1.641
		l12.354,6.134l2.351,0.844l3.483-1.952c0,0-1.241-3.443-1.341-3.613c-0.101-0.171,1.205-6.069,1.205-6.069l0.695-2.446"/>
	
		<ellipse transform="matrix(-0.9783 0.2074 -0.2074 -0.9783 80.3439 105.1305)" fill="#FFFFFF" cx="34.66" cy="56.777" rx="12.156" ry="10.406"/>
	
		<ellipse transform="matrix(-0.9783 0.2074 -0.2074 -0.9783 123.3912 98.4328)" fill="#FFFFFF" cx="56.535" cy="55.685" rx="14.594" ry="13.001"/>
	
		<ellipse transform="matrix(-0.9782 0.2075 -0.2075 -0.9782 107.0187 105.3705)" fill="#0092FF" cx="47.984" cy="58.297" rx="5.187" ry="5.094"/>
	
		<ellipse transform="matrix(-0.9782 0.2075 -0.2075 -0.9782 66.2493 110.6105)" fill="#0092FF" cx="27.323" cy="58.78" rx="4.437" ry="4.344"/>
	<circle fill="#00426B" cx="47.526" cy="58.394" r="2.219"/>
	
		<ellipse transform="matrix(-0.9782 0.2074 -0.2074 -0.9782 65.6159 110.6871)" fill="#00426B" cx="27.004" cy="58.784" rx="1.875" ry="1.844"/>
	
		<ellipse transform="matrix(-0.9782 0.2075 -0.2075 -0.9782 108.5235 99.3292)" fill="#FFFFFF" cx="49.053" cy="55.355" rx="1.344" ry="1.312"/>
	<circle fill="#FFFFFF" cx="46.232" cy="61.032" r="1.031"/>
	
		<ellipse transform="matrix(-0.9782 0.2075 -0.2075 -0.9782 67.6608 106.1022)" fill="#FFFFFF" cx="28.266" cy="56.6" rx="1.125" ry="1.157"/>
	<circle fill="#FFFFFF" cx="26.049" cy="61.509" r="0.875"/>
	
		<ellipse transform="matrix(-0.9783 0.2074 -0.2074 -0.9783 123.3562 98.5328)" fill="none" stroke="#000000" stroke-width="0.75" cx="56.513" cy="55.733" rx="14.5" ry="13.042"/>
	<path fill="none" stroke="#000000" stroke-width="0.75" d="M43.57,62.176c-0.735-1.129-1.142-2.452-1.245-3.804
		c-0.329-1.161-0.421-2.512-0.142-3.715c0.049-0.926,0.339-1.867,0.623-2.721c0.269-0.802,0.613-1.545,1.078-2.201
		c-2.667-2.78-7.033-4.144-11.552-3.185c-6.528,1.383-10.858,7.049-9.669,12.655c1.188,5.605,7.444,9.026,13.973,7.644
		c3.029-0.643,5.567-2.218,7.316-4.271c-0.008-0.012-0.018-0.021-0.026-0.034C43.798,62.454,43.675,62.339,43.57,62.176z"/>
	<line fill="none" stroke="#000000" stroke-width="0.75" x1="24.09" y1="62.82" x2="4.041" y2="81.254"/>
	<path fill="none" stroke="#000000" stroke-width="0.75" d="M33.877,46.306c0,0,0.985-2.892,3.588-5.68
		c2.604-2.788,10.279-9.974,10.279-9.974s-6.214-0.983-7.544-1.53c-1.33-0.549-1.64-0.802-1.64-0.802s4.985-3.613,12.879-4.648
		c7.894-1.035,10.75-1.129,10.75-1.129s-2.78-2.861-3.448-4.508c-0.669-1.646-0.85-2.503-0.85-2.503s3.408,1.003,7.192,2.884
		c3.785,1.88,8.329,4.623,10.292,4.846c1.963,0.222,3.239,0.208,3.239,0.208"/>
	<path fill="none" stroke="#000000" stroke-width="0.75" d="M76.018,33.218c0,0,1.983-8.726,4.315-13.693
		c2.334-4.967,5.331-8.605,6.709-9.344c1.376-0.739,4.972-2.46,7.792-0.311c2.819,2.15,5.481,4.46,7.487,7.293
		c2.007,2.833,2.697,4.284,3.065,5.419c0.369,1.136,1.782,7.8,1.699,8.009c-0.083,0.21-0.354,2.248-4.996,4.766
		s-11.078,5.606-11.078,5.606"/>
	<path fill="none" stroke="#000000" stroke-width="0.75" d="M81.321,35.033c0,0,2.638-8.354,6.717-11.71
		c4.08-3.356,4.312-3.47,4.312-3.47"/>
	<path fill="none" stroke="#000000" stroke-width="0.75" d="M93.547,39.661c0,0,3.738,5.277,8.69,8.443
		c4.951,3.167,14.063,8.774,14.063,8.774s-14.914,5.591-14.803,5.822c0.114,0.231,11.463,2.233,11.463,2.233l-14.219,4.355
		l8.528,4.965c0,0-19.008,6.777-21.667,9.003c-2.658,2.225-4.815,6.515-8.075,9.823c-3.259,3.313-5.123,5.369-10.148,7.584
		c-5.024,2.215-13.5,3.821-13.5,3.821s2.284,1.432,3.488,1.688c1.205,0.257,1.205,0.257,1.205,0.257s-4.968,1.883-9.066,1.539
		c-4.098-0.347-5.49-0.882-5.49-0.882s3.796,2.837,4.743,3.082c0.946,0.247,0.946,0.247,0.946,0.247s-4.029,2.389-7.432,1.704
		c-3.404-0.684-6.349-3.124-6.349-3.124s-0.188,3.936,0.641,5.74c0.83,1.805,0.83,1.805,0.83,1.805s-1.634,0.729-4.663-1.503
		c-3.028-2.233-4.243-4.34-4.962-6.232c-0.721-1.891-0.925-4.658-0.925-4.658"/>
	<path fill="none" stroke="#000000" stroke-width="0.75" d="M0.533,82.19c0,0,3.883-1.271,10.062-2.263
		c6.179-0.99,13.139-1.315,16.281-0.959s5.763,1.269,5.763,1.269s-0.652,2.951-4.378,6.168c-3.726,3.219-10.063,6.478-10.063,6.478
		s-12.926-5.82-14.94-7.184C1.244,84.339-0.101,82.515,0.533,82.19z"/>
	<path fill="none" stroke="#000000" stroke-width="0.75" d="M3.014,85.753c0,0,2.43,10.857,3.65,13.601
		c1.221,2.745,2.808,5.411,5.255,6.105c2.447,0.695,5.67,0.521,10.796-0.308c5.127-0.832,18.787-3.601,21.17-5.32
		c2.383-1.718,6.893-8.169,7.853-9.971c0.96-1.8,1.386-3.104,1.386-3.104"/>
	<path fill="none" stroke="#000000" stroke-width="0.75" d="M19.761,92.425c0,0,1.21,6.004,2.293,7.499
		c1.084,1.495,4.552,4.594,4.552,4.594"/>
	<path fill="none" stroke="#000000" stroke-width="0.75" d="M40.072,38.156c0,0-4.309-3.75-5.463-7.083
		c-1.154-3.333-1.006-5.346,0.492-7.323c1.497-1.979,6.99-7.104,10.303-8.957s7.199-2.806,9.453-3.027
		c2.251-0.223,3.165,0.16,4.019,0.873c0.853,0.713,1.515,3.832,1.515,3.832"/>
	<path d="M53.226,87.373c0,0,1.39-3.616,1.428-4.743c0.04-1.126,0.04-1.126,0.04-1.126s-1.395,4.416-1.998,5.343"/>
	<path d="M20.108,79.294c0,0-12.137,3.427-11.354,4.71c0.783,1.281,12.41,7.505,12.41,7.505s8.151-6.157,9.23-7.493
		c1.079-1.337,2.769-3.612,2.244-3.778s-10.142-2.13-12.518-1.285"/>
	<path fill="#834421" d="M52.695,106.798c0,0,2.02,0.306,2.681,0.213c0.66-0.092-2.747,0.512-3.295,0.505"/>
</g>
<g id="frame_3">
</g>
</svg>
