<?xml version="1.0" encoding="utf-8"?>
<!-- Generator: Adobe Illustrator 13.0.0, SVG Export Plug-In . SVG Version: 6.00 Build 14948)  -->
<!DOCTYPE svg PUBLIC "-//W3C//DTD SVG 1.1//EN" "http://www.w3.org/Graphics/SVG/1.1/DTD/svg11.dtd">
<svg version="1.1" xmlns="http://www.w3.org/2000/svg" xmlns:xlink="http://www.w3.org/1999/xlink" x="0px" y="0px"
	 width="262.447px" height="188.296px" viewBox="0 0 262.447 188.296" enable-background="new 0 0 262.447 188.296"
	 xml:space="preserve">
<g id="frame_1">
	<g>
		<g>
			<path fill="none" d="M16.566,55.999c-1.625,0.125-0.625,2.125,0.5,2.375c0.125-1.125-0.625-2.125-1.75-2.375
				c-0.5,1.875,1.875,3.5,3.375,3.875c-0.5-1.5-3.125-2.875-4.625-3.375c1,2,4.125,4,6.25,4.625c-0.625-1.375-3-2.875-4.625-3.25
				c0.625,1.5,2.5,2.75,4,3.5c-0.5-1-2-1.875-3.125-2.25c0.5,1.25,2.125,2.25,3.375,2.875c-0.875-1.25-2.25-2.25-3.625-3.125
				c0.875,0.75,1.625,1.5,2.5,2.25c-0.875-1.125-2.125-2.125-3.25-3.125c0.5,0.625,1.25,1.125,1.875,1.625
				c-1.125-0.375-2.125-1-3.125-1.5c0.375,0.625,0.875,1.25,1.625,1.75c-1-1-1.625-2.125-1.5-3.5c0,0.25,0,0.375,0.125,0.625
				c-0.375-0.75-0.25-1.625,0-2.375l-0.125,0.5c0.125-0.875,0.875-1.5,1.75-1.25c-0.375,0.5-0.5,0.625-1,0.875
				c0.25-1.375,2.875-2.625,4.125-1.75c-0.5,0.375-1.375,0.5-2.125,0.625c1.5-1,4.875-1.125,6.625-0.5c-1,0.5-2.625,0-3.75-0.25
				c1.375,0.5,2.875,0.375,4.375,0.875c-2.625-0.5-6-1-8.25,0.375c2.75,0.625,5.625-0.875,8.375-0.25
				c-2.875,0.375-6.125,0.125-8.875,0.875c2,0.5,4.5,0.375,6.5,0c-1.625-0.375-5.125-1.125-6.375-0.125
				c1.5,2.375,4.625,5.125,6.75,6.875c-0.625-1.875-2.375-4.25-3.875-5.5c-0.125,2.25,2,5.25,3.75,6.625
				c-0.375-0.625-3.25-4-3.5-2.25c-0.25,1.25,2.125,3,2.5,1.125"/>
			<path fill="#FFFFFF" d="M16.471,55.646c-2.012,0.441-2.238,2.364-0.191,3.129c0.395,0.148,1.76-0.092,1.752-0.66
				c-0.02-1.348-0.698-2.088-1.93-2.518c-0.352-0.123-1.676,0.062-1.743,0.557c-0.292,2.169,1.671,3.541,3.545,4.121
				c0.265,0.082,1.983-0.158,1.752-0.66c-0.854-1.857-2.973-2.854-4.805-3.518c-0.257-0.093-2.012,0.207-1.752,0.66
				c1.348,2.349,3.903,3.937,6.43,4.768c0.253,0.083,2.013-0.196,1.752-0.66c-0.981-1.747-2.918-2.862-4.805-3.393
				c-0.252-0.071-2.004,0.17-1.752,0.66c0.87,1.69,2.413,2.722,4.06,3.584c0.3,0.158,2.161-0.156,1.872-0.602
				c-0.786-1.215-1.977-1.889-3.305-2.393c-0.264-0.101-1.996,0.191-1.752,0.66c0.739,1.423,2.046,2.237,3.435,2.959
				c0.362,0.189,2.224-0.157,1.813-0.687c-1.008-1.299-2.256-2.233-3.625-3.125c-0.419-0.273-2.216,0.332-1.813,0.687
				c0.842,0.74,1.658,1.51,2.5,2.25c0.377,0.332,2.184-0.242,1.813-0.687c-0.971-1.163-2.115-2.128-3.25-3.125
				c-0.39-0.342-2.19,0.281-1.813,0.687c0.573,0.616,1.212,1.111,1.875,1.625c0.564-0.248,1.128-0.497,1.692-0.745
				c-1.044-0.398-2.015-0.928-3.005-1.442c-0.3-0.156-2.163,0.159-1.872,0.602c0.478,0.728,0.986,1.3,1.685,1.834
				c0.393,0.301,2.202-0.266,1.813-0.687c-0.96-1.037-1.462-2.006-1.44-3.416c-0.644,0.172-1.288,0.345-1.932,0.518
				c-0.019,0.22,0.023,0.429,0.125,0.625c0.182,0.52,2.089-0.044,1.932-0.518c-0.263-0.792-0.227-1.47-0.009-2.272
				c-0.638,0.104-1.275,0.208-1.913,0.312c-0.042,0.167-0.083,0.333-0.125,0.5c-0.13,0.52,1.76,0.202,1.913-0.312
				c0.059-0.221,0.118-0.441,0.177-0.662c-0.088-0.129-0.177-0.258-0.266-0.387c-0.167,0.284-0.396,0.503-0.688,0.656
				c0.509,0.006,1.018,0.012,1.526,0.018c0.284-0.847,1.185-1.793,2.262-1.251c0.112-0.172,0.225-0.345,0.337-0.517
				c-0.441,0.213-0.905,0.343-1.39,0.39c0.135,0.194,0.269,0.388,0.404,0.583c1.532-0.873,3.628-0.771,5.27-0.272
				c0.146-0.224,0.292-0.448,0.438-0.673c-0.77,0.26-1.849-0.201-2.616-0.38c-0.448-0.104-2.236,0.609-1.572,0.803
				c1.438,0.42,2.928,0.482,4.375,0.875c0.524-0.268,1.048-0.535,1.572-0.803c-3.228-0.6-6.599-1.005-9.605,0.603
				c-0.361,0.193-0.586,0.517-0.047,0.606c2.825,0.468,5.569-0.716,8.375-0.25c0.261-0.281,0.521-0.561,0.782-0.841
				c-3.059,0.344-6.123,0.207-9.135,0.931c-0.14,0.034-1.344,0.614-0.691,0.754c2.368,0.508,4.743,0.413,7.121,0.007
				c0.151-0.025,1.666-0.648,0.952-0.81c-2.536-0.577-5.556-1.264-7.911,0.21c-0.055,0.035-0.288,0.218-0.216,0.325
				c1.815,2.712,4.314,4.89,6.81,6.959c0.313,0.26,2.062-0.101,1.872-0.602c-0.812-2.149-2.222-4.064-3.935-5.584
				c-0.361-0.321-1.88,0.051-1.872,0.602c0.036,2.627,1.869,5.081,3.81,6.709c0.337,0.283,2.116-0.237,1.872-0.602
				c-0.938-1.406-3.529-4.373-5.271-2.216c-1.398,1.73,3.265,4.047,4.262,1.194c0.161-0.459-1.727-0.222-1.913,0.312
				c0.072,0.001,0.143,0.002,0.215,0.003c-0.303-0.215-0.535-0.494-0.696-0.836c-0.32-0.576-1.145-0.604-0.265,0.13
				c0.647,0.541,1.269,1.228,1.737,1.931c0.624-0.201,1.248-0.401,1.872-0.602c-1.914-1.605-3.655-3.953-3.69-6.541
				c-0.624,0.201-1.248,0.401-1.872,0.602c1.671,1.483,3.024,3.319,3.815,5.416c0.624-0.201,1.248-0.401,1.872-0.602
				c-1.68-1.394-3.303-2.841-4.806-4.426c-0.48-0.507-2.207-2.248-0.42-2.126c1.065,0.072,2.119,0.311,3.158,0.547
				c0.317-0.27,0.634-0.54,0.952-0.81c-1.964,0.334-3.919,0.427-5.879,0.007c-0.23,0.251-0.461,0.502-0.691,0.754
				c2.81-0.675,5.755-0.497,8.615-0.819c0.333-0.037,1.745-0.681,0.782-0.841c-2.825-0.468-5.569,0.716-8.375,0.25
				c-0.016,0.202-0.031,0.404-0.047,0.606c2.079-1.111,4.692-0.556,6.895-0.147c0.428,0.08,2.247-0.62,1.572-0.803
				c-1.442-0.392-2.941-0.457-4.375-0.875c-0.524,0.268-1.048,0.535-1.572,0.803c1.702,0.397,3.198,0.69,4.884,0.12
				c0.18-0.061,0.979-0.509,0.438-0.673c-2.51-0.762-5.676-0.585-7.98,0.728c-0.723,0.412-0.196,0.684,0.404,0.583
				c1.011-0.17,1.956-0.368,2.86-0.86c0.075-0.041,0.62-0.375,0.337-0.517c-1.942-0.978-5.268,0.103-5.988,2.249
				c-0.184,0.548,1.364,0.11,1.526,0.018c0.551-0.314,0.908-0.589,1.313-1.094c0.195-0.244-0.022-0.363-0.266-0.387
				c-1.442-0.142-2.879,0.351-3.323,1.838c0.638-0.104,1.275-0.208,1.913-0.312c0.042-0.167,0.083-0.333,0.125-0.5
				c0.129-0.516-1.771-0.211-1.913,0.312c-0.249,0.917-0.312,1.569-0.009,2.478c0.644-0.172,1.288-0.345,1.932-0.518
				c-0.102-0.197-0.144-0.405-0.125-0.625c-0.022-0.437-1.923-0.069-1.932,0.518c-0.022,1.484,0.578,2.525,1.56,3.584
				c0.604-0.229,1.208-0.458,1.813-0.687c-0.659-0.505-1.098-0.955-1.565-1.666c-0.624,0.201-1.248,0.401-1.872,0.602
				c1.073,0.557,2.114,1.127,3.245,1.558c0.337,0.129,2.134-0.402,1.692-0.745c-0.663-0.514-1.302-1.009-1.875-1.625
				c-0.604,0.229-1.208,0.458-1.813,0.687c1.135,0.997,2.279,1.962,3.25,3.125c0.604-0.229,1.208-0.458,1.813-0.687
				c-0.842-0.74-1.658-1.51-2.5-2.25c-0.604,0.229-1.208,0.458-1.813,0.687c1.369,0.892,2.617,1.826,3.625,3.125
				c0.604-0.229,1.208-0.458,1.813-0.687c-1.309-0.682-2.611-1.436-3.315-2.791c-0.584,0.22-1.168,0.44-1.752,0.66
				c1.163,0.442,2.253,1.037,2.945,2.107c0.624-0.201,1.248-0.401,1.872-0.602c-1.571-0.823-3.105-1.792-3.94-3.416
				c-0.584,0.22-1.168,0.44-1.752,0.66c1.708,0.48,3.549,1.512,4.445,3.107c0.584-0.22,1.168-0.44,1.752-0.66
				c-2.344-0.771-4.813-2.292-6.07-4.482c-0.584,0.22-1.168,0.44-1.752,0.66c1.654,0.6,3.668,1.544,4.445,3.232
				c0.584-0.22,1.168-0.44,1.752-0.66c-1.59-0.492-3.461-1.725-3.205-3.629c-0.581,0.186-1.162,0.372-1.743,0.557
				c1.12,0.391,1.554,1.113,1.57,2.232c0.584-0.22,1.168-0.44,1.752-0.66c-0.246-0.092-1.676-1.515-1.191-1.621
				C17.816,56.098,17.608,55.397,16.471,55.646L16.471,55.646z"/>
		</g>
	</g>
	<g>
		<g>
			<path fill="none" d="M13.816,55.874c-0.5-0.125-0.625,0.5-0.125,1.25c-0.125-0.125-0.125-0.625-0.125-0.75
				c-0.125,2.5,3.5,4.375,4.875,4.75"/>
			<path fill="#FFFFFF" d="M14.191,55.325c-1.352-0.067-2.165,0.825-1.466,2.058c0.353,0.624,2.214,0.077,1.932-0.518
				c-0.115-0.242-0.122-0.485-0.125-0.75c-0.007-0.596-1.929-0.234-1.932,0.379c-0.011,2.679,2.955,4.485,5.25,5.155
				c0.614,0.179,2.273-0.732,1.183-1.051c-1.833-0.536-4.509-2.186-4.5-4.345c-0.644,0.126-1.288,0.253-1.932,0.379
				c0.003,0.265,0.01,0.508,0.125,0.75c0.644-0.172,1.288-0.345,1.932-0.518c-0.026-0.045-0.319-0.771-0.432-0.713
				c-0.325,0.087-0.65,0.174-0.975,0.261c0.063,0.003,0.127,0.006,0.19,0.009C14.175,56.459,15.499,55.39,14.191,55.325
				L14.191,55.325z"/>
		</g>
	</g>
	<g>
		<g>
			<path fill="none" d="M50.316,41.249c-0.25-0.25-0.375-0.375-0.625-0.375c-1,2.625,1,7.75,3.75,8.625c0-1-3.5-6.375-4.875-5.5
				c-2,1.25,3,6.75,4.25,7c-0.75-2.125-3.125-5.625-5.125-6.5c-0.5,2.125,2,4.75,3.875,5.5c0.25-1.75-2.625-4.375-4-4.875
				c-0.25,1.125,2.75,5.875,4,4.75c1.375-1.375-3.375-5-4.25-5.375c-0.625,2.125,1.5,4,3,5c1,0.5,4.375,2.5,4.125,0.5
				c-0.125-1.125-4.5-4.375-5.5-3.125c-1.625,2,4.5,4.875,5.75,5c2.25,0.25,5.375-1,2.75-3.125c-1.375-1.125-5.875-1.75-5.625,0.875
				c0.375,5.75,17.5,0.75,7-4.875c-2.25-1.25-8-1.5-7.25,2.5c0.625,3.375,6.625,4.125,8.625,1.75c1.75-2.25-0.625-8.375-3.625-8.125
				c-4.25,0.375-1.625,7.375,0.625,8.625c4.125,2.25,6.375-2.375,6.5-5.75c0.125-4.5-2.5-3.875-3.375,0c-0.5,1.875,0,8.625,2.5,4.25
				c0.75-1.25,3.25-8.75,2-10.125c0-0.125-0.125-0.25-0.125-0.375c-2.375,1.25-3.875,6.125-3.875,8.625c0,4.875,3.125-0.5,3.75-2.25
				c0.5-1.75,2-7-1.125-6.625c-2.625,0.375-5,5.875-4.5,8.125c1.375,6.25,9.5-11.125,2.25-8.625c-2.25,0.75-6.5,7.125-5.125,9.625
				c1.625,2.625,5-4.75,5.5-6.125c1.375-4.125-1.5-3.375-3.5-0.875c-1.25,1.5-4,5.875-1.875,7.625c0.25-0.125,0.125-0.25,0.25-0.375
				"/>
			<path fill="#FFFFFF" d="M51.063,40.704c-0.208-0.125-0.417-0.25-0.625-0.375c-0.584-0.351-1.538-0.049-1.725,0.625
				c-0.942,3.414,0.899,7.735,4.165,9.179c0.54,0.239,1.659-0.187,1.528-0.893c-0.371-1.999-3.832-7.592-6.476-5.661
				c-2.826,2.064,2.287,7.271,4.323,8.054c0.444,0.171,1.814-0.181,1.528-0.893c-1.067-2.651-2.789-5.373-5.343-6.787
				c-0.499-0.276-1.676-0.109-1.725,0.625c-0.18,2.719,1.792,4.804,4.104,5.965c0.453,0.228,1.757,0.134,1.725-0.625
				c-0.106-2.479-2.293-4.42-4.415-5.429c-0.446-0.212-1.535,0.112-1.539,0.714c-0.013,1.877,2.638,6.605,5.082,5.376
				c3.374-1.698-1.973-5.756-3.607-6.626c-0.527-0.281-1.635-0.107-1.725,0.625c-0.396,3.235,5.853,9.376,8.863,6.214
				c1.748-1.836-4.95-6.572-7.065-4.187c-2.827,3.188,5.879,6.114,8.019,5.903c0.937-0.093,4-1.167,3.222-2.739
				c-0.948-1.913-3.145-2.87-5.267-2.674c-3.947,0.363-4.22,4.507-0.467,5.549c3.042,0.845,7.493-0.332,9.231-3.079
				c2.309-3.648-4.933-6.388-7.448-6.315c-1.491,0.043-3.958,0.409-4.584,2.076c-0.771,2.051,0.179,4.178,2.23,5.037
				c2.498,1.045,8.042,1.188,8.583-2.528c0.425-2.921-1.425-8.323-5.261-7.6c-7.104,1.338-0.153,15.405,6.35,8.765
				c1.667-1.703,3.629-8.577-0.026-9.074c-3.375-0.459-3.644,5.361-3.456,7.403c0.318,3.466,2.852,3.294,4.474,0.768
				c1.81-2.818,2.972-7.703,1.92-10.857c-0.218-0.654-1.181-0.442-1.601-0.161c-2.33,1.558-3.307,4.279-3.945,6.898
				c-0.27,1.108-0.933,5.002,1.248,4.822c3.476-0.286,5.339-7.158,4.961-9.911c-0.214-1.558-1.34-2.755-3.049-2.278
				c-2.55,0.712-3.903,3.053-4.805,5.392c-0.876,2.273-0.534,7.155,2.942,4.825c2.478-1.662,3.95-6.164,3.679-8.993
				c-0.395-4.121-5.671-0.951-7.01,0.526c-1.256,1.386-5.954,10.757-0.548,9.095c2.683-0.825,6.519-7.792,4.983-10.343
				c-1.76-2.924-10.743,6.315-7.207,10.305c0.427,0.482,1.3,0.274,1.689-0.151c0.166-0.181,0.272-0.319,0.367-0.544
				c0.42-1.009-1.523-0.959-1.841-0.197c-0.044,0.069-0.089,0.137-0.133,0.206c0.563-0.05,1.126-0.101,1.689-0.151
				c-1.319-1.489-0.381-3.337,0.396-4.853c0.382-0.746,0.881-1.429,1.397-2.085c0.875-1.111,2.331-0.925,1.667,0.791
				c-0.333,0.858-0.757,1.683-1.178,2.5c-0.372,0.722-2.032,3.941-2.512,2.703c-0.961-2.48,2.717-7.718,5.008-8.394
				c2.265-0.669,0.983,3.845,0.704,4.661c-0.193,0.562-2.151,4.258-2.341,4.046c-0.709-0.792-0.29-2.293-0.085-3.184
				c0.227-0.983,0.718-1.895,1.199-2.771c0.724-1.318,3.02-2.385,3.055-0.149c0.039,2.437-0.99,4.959-2.362,6.917
				c-0.792,1.129-0.068-2.359,0.041-2.944c0.396-2.139,1.392-4.648,3.262-5.898c-0.534-0.054-1.067-0.107-1.601-0.161
				c1.016,3.048-0.329,6.577-1.501,9.462c-0.094,0.23-0.694,1.265-0.544,1.432c-0.542-0.601-0.529-2.207-0.559-2.913
				c-0.066-1.551,1.498-6.04,1.593-1.91c0.059,2.531-2.254,7.579-5.391,4.638c-1.282-1.203-1.946-3.25-2.045-4.958
				c-0.11-1.879,2.117-1.808,3.064-0.721c0.797,0.915,1.138,2.151,1.388,3.307c0.912,4.211-4.685,4.343-6.763,1.943
				c-2.976-3.436,3.365-3.581,5.102-2.744c1.342,0.646,3.264,1.859,3.147,3.567c-0.186,2.712-5.756,3.022-7.451,2.144
				c-0.515-0.267-0.751-0.692-0.922-1.219c0.61-1.224,1.458-1.594,2.542-1.111c1.254,0.212,1.136,1.051-0.354,2.517
				c-1.58-0.059-3.604-1.567-4.713-2.581c-0.951-0.868,0.391-0.855,0.954-0.521c0.514,0.306,1.704,1.808,1.821,1.846
				c-2.353-0.779-5.134-2.781-4.799-5.519c-0.575,0.208-1.15,0.417-1.725,0.625c1.359,0.724,2.542,1.83,3.549,2.977
				c1.102,1.254-0.13,0.025-0.426-0.376c-0.517-0.702-1.155-1.685-1.148-2.601c-0.513,0.238-1.026,0.476-1.539,0.714
				c1.523,0.724,3.506,2.47,3.585,4.321c0.575-0.208,1.15-0.417,1.725-0.625c-1.944-0.977-3.803-2.664-3.646-5.035
				c-0.575,0.208-1.15,0.417-1.725,0.625c2.315,1.282,3.939,3.813,4.907,6.213c0.509-0.297,1.019-0.595,1.528-0.893
				c-1.814-0.698-3.547-3.297-4.202-5.039c-0.58-1.544,1.59,1.32,1.893,1.732c0.582,0.791,1.224,1.722,1.406,2.7
				c0.509-0.297,1.019-0.595,1.528-0.893c-2.813-1.244-4.105-5.281-3.335-8.071c-0.575,0.208-1.15,0.417-1.725,0.625
				c0.208,0.125,0.417,0.25,0.625,0.375C50.27,42.216,51.981,41.254,51.063,40.704L51.063,40.704z"/>
		</g>
	</g>
	<ellipse fill="none" stroke="#FFFFFF" cx="77.316" cy="47.749" rx="14.5" ry="15.25"/>
	<ellipse fill="none" stroke="#FFFFFF" cx="57.503" cy="43.062" rx="11.938" ry="10.188"/>
	<ellipse fill="none" stroke="#FFFFFF" cx="76.191" cy="48.624" rx="15.5" ry="16.625"/>
	<ellipse fill="none" stroke="#FFFFFF" cx="76.941" cy="49.062" rx="16.25" ry="16.438"/>
	<g>
		<g>
			<path fill="none" d="M68.941,53.624c-0.5,0.125,3,3,3.75,3.375c-1.625-1.5-4-2.5-6-3.625c1.875,1.5,4,2.625,5.875,4.125
				c-3.25-2.5-5.875-5.375-8.875-8.125c1.25,3,5.75,7.375,8.75,8.625c0-2-4.875-6.625-7-6.5c0.375,3.75,6.25,5.625,9.25,6
				s7.625-1.125,2.5-2.625c-2-0.625-7.375-0.375-5.25,3c1.75,3,8.875,2.25,11,0"/>
			<path fill="#FFFFFF" d="M67.969,53.722c-0.247,1.211,3.095,3.254,3.965,3.789c0.599,0.368,2.338-0.349,1.514-1.022
				c-1.835-1.501-3.925-2.503-6-3.625c-0.597-0.323-2.373,0.374-1.514,1.022c1.912,1.444,3.963,2.681,5.875,4.125
				c0.584,0.441,2.327-0.375,1.514-1.022c-3.1-2.472-5.846-5.316-8.741-8.015c-0.419-0.391-2.217-0.089-1.856,0.66
				c1.797,3.733,5.215,7.092,8.959,8.877c0.516,0.246,1.845,0.024,1.723-0.77c-0.468-3.039-4.583-6.6-7.61-6.864
				c-0.448-0.04-1.452,0.258-1.321,0.882c0.999,4.792,7.599,6.521,11.835,6.39c1.018-0.032,3.878-0.435,4.123-1.826
				c0.29-1.647-2.942-2.13-4.01-2.29c-3.214-0.479-8.446,1.75-4.485,5.196c2.974,2.587,9.123,1.238,11.794-1.135
				c0.871-0.773-1.035-0.927-1.582-0.44c-1.956,1.737-5.071,1.867-7.476,1.216c-1.005-0.272-4.054-2.996-0.779-3.582
				c0.888-0.159,1.854-0.042,2.721,0.172c4.098,1.013-1.098,1.447-1.57,1.416c-0.958-0.064-1.944-0.392-2.861-0.661
				c-2.534-0.744-5.203-2.212-5.779-4.975c-0.44,0.294-0.881,0.588-1.321,0.882c2.5,0.219,6.01,3.671,6.39,6.136
				c0.574-0.257,1.148-0.514,1.723-0.77c-3.505-1.672-6.844-4.848-8.541-8.373c-0.619,0.22-1.238,0.44-1.856,0.66
				c2.98,2.779,5.818,5.691,9.009,8.235c0.504-0.341,1.009-0.682,1.514-1.022c-1.912-1.444-3.963-2.681-5.875-4.125
				c-0.504,0.341-1.009,0.682-1.514,1.022c2.075,1.123,4.165,2.124,6,3.625c0.504-0.341,1.009-0.682,1.514-1.022
				c-0.654-0.402-3.677-2.264-3.535-2.961C70.086,52.676,68.123,52.966,67.969,53.722L67.969,53.722z"/>
		</g>
	</g>
	<g>
		<g>
			<path fill="none" d="M66.191,43.249c-1.625,0.25-1.25-1.125-0.875-2.125c1.5-3.5,5.5-6.25,9-7.25
				c-1.5,1.25-3.25,2.125-4.625,3.625c-1.375,1.375-2.5,3.125-4.125,4.125c1.875-3.25,9.75-8.875,13.625-7.5
				c-2.25,1.875-7.5,3.875-10.25,4.25c3.25-2.75,13.625-6.25,16.875-2.375c-1.875,1.625-9,0.5-10.5-1.375
				c2.75-1.5,11.875-0.125,13.625,2.75c1.25,2-0.875,1.75-2.25,1.125c-1.625-0.625-3.375-2-4.375-3.375
				c3.375,1.625,7.25,7.125,8.375,10.625c-2.375-1.125-4.375-5.25-5.125-7.75c2.375,2.5,4.875,9.25,3.25,12.375
				c-1.125-1.625-1.25-4.75-0.5-6.625c0.75,3.375-1.625,8.75-4.125,11c-3.5,3.125-7.625,1.5-11.75,1c2.375,1.125,6.25,2,8.875,1.5
				c-1-1.125-11-3-10.375-0.875c0.75,2.75,12,1.25,13.375-0.5c-1.125-1.125-5-1-5.875,0.5c1.125,1.375,3.25,1.125,4.875,1.125
				c-1.25,0-2.875,0-4.125,0.5c1.375,0.375,3.5-0.25,4.5-1.25c-0.5-0.5-0.875-0.5-1.5-0.125c3-0.25,5.5-5.375,6.375-7.75
				c1-3,1.25-6.375-0.125-9.125c0.375,2.625,2.75,4.75,2.375,7.5c-0.375,3-3.375,7.625-6.25,8.75c0.125-1.875,2.5-4.25,3.375-6
				c1-1.875,1.5-4.375,3-5.875c0.875,4.25-3,13.75-8,14.25c0.5-2.125,3.5-4.375,4.75-6.125c1.875-2.875,1.875-3.625,0.125-6.25
				c-2-3.25-6.125-14.875-11.75-12.125c3.25,1.5,8,1.25,10.75,3.5c-1.25,0.625-3.375,0.5-4.875,0.5"/>
			<path fill="#FFFFFF" d="M66.555,42.659c-0.847-0.862-0.733-1.784,0.341-2.765c1.439-2.724,4.815-4.547,7.563-5.487
				c-0.251-0.288-0.502-0.575-0.753-0.862c-3.146,2.39-5.657,5.374-8.75,7.75c0.506,0.125,1.011,0.25,1.517,0.375
				c1.581-2.375,3.903-4.053,6.308-5.521c0.979-0.598,8.365-3.415,2.971-0.618c-2.077,1.077-4.396,1.842-6.69,2.261
				c0.164,0.304,0.328,0.607,0.492,0.911c2.19-1.67,4.729-2.616,7.369-3.331c2.173-0.588,4.564-0.76,6.714,0.044
				c0.366,1.095-0.216,1.34-1.746,0.736c-1.026-0.078-2.032-0.257-3.019-0.537c-4.713-1.161,3.751-0.555,4.729-0.324
				c1.474,0.35,2.838,0.95,4.004,1.919c1.057,1.475,0.597,1.541-1.378,0.199c-1.192-0.695-2.197-1.588-3.015-2.676
				c-0.552,0.294-1.104,0.589-1.656,0.883c3.831,2.202,6.653,6.317,8.171,10.392c0.576-0.25,1.152-0.5,1.728-0.751
				c-2.645-1.68-3.958-4.653-4.921-7.517c-0.62,0.217-1.239,0.433-1.859,0.65c2.568,3.098,4.639,8.107,3.174,12.092
				c0.645-0.122,1.29-0.245,1.935-0.367c-1.047-2.133-1.133-4.155-0.497-6.474c-0.645,0.122-1.29,0.245-1.935,0.367
				c0.327,2.818-0.472,5.097-1.718,7.594c-2.741,5.493-8.017,4.267-12.609,3.587c-0.413-0.061-2.287,0.655-1.344,1.052
				c3.064,1.289,6.197,1.961,9.518,1.59c0.441-0.049,1.552-0.566,0.881-1.074c-1.202-0.912-13.57-2.938-12.103-0.124
				c2.027,3.89,12.491,1.832,15.125-0.565c0.237-0.215,0.257-0.507-0.021-0.686c-2.218-1.418-5.582-1.099-7.421,0.799
				c-0.235,0.242-0.251,0.481,0.021,0.686c1.685,1.263,3.192,1.251,5.273,1.223c0.243-0.394,0.486-0.787,0.729-1.181
				c-1.622,0.022-3.06,0.147-4.632,0.558c-0.676,0.177-1.264,1.029-0.222,1.123c2.113,0.191,3.754-0.273,5.475-1.511
				c0.271-0.195,0.569-0.589,0.151-0.821c-1.038-0.576-1.267-0.545-2.405-0.166c-1.133,0.378-0.899,1.372,0.285,1.065
				c6.771-1.751,9.324-11.909,7.073-17.667c-0.278-0.712-2.125-0.225-1.932,0.518c0.665,2.554,2.331,4.62,2.372,7.349
				c0.045,3.03-3.221,6.924-5.675,8.197c0.455,0.112,0.909,0.225,1.364,0.337c0.536-2.245,2.167-3.912,3.312-5.847
				c1.14-1.928,1.586-4.078,3-5.875c-0.624,0.071-1.248,0.142-1.872,0.213c0.6,4.544-2.117,12.419-7.177,13.458
				c0.371,0.142,0.741,0.283,1.112,0.425c1.073-2.617,6.674-6.186,6.168-9.495c-0.439-2.877-2.79-5.964-4.151-8.546
				c-2.127-4.034-5.18-8.671-10.256-6.796c-0.279,0.104-0.942,0.718-0.368,0.937c3.543,1.351,7.53,1.384,10.75,3.5
				c0.207-0.341,0.413-0.683,0.62-1.025c-1.441,0.368-2.897,0.515-4.368,0.442c-0.78-0.006-2.037,1.17-0.729,1.181
				c1.88,0.015,3.584,0.012,5.382-0.558c0.372-0.118,1.238-0.618,0.62-1.025c-1.297-0.853-2.467-1.323-3.933-1.768
				c-0.958-0.234-1.923-0.443-2.893-0.626c-1.031-0.724-1.538-0.672-1.521,0.156c2.708,1.411,4.442,5.433,5.73,7.962
				c1.225,2.406,3.812,5.677,2.605,8.319c-1.329,2.912-4.358,4.539-5.595,7.557c-0.227,0.553,0.902,0.468,1.112,0.425
				c6.037-1.241,9.566-9.417,8.823-15.042c-0.104-0.794-1.622-0.104-1.872,0.213c-1.623,2.064-2.22,4.556-3.545,6.797
				c-1.056,1.786-2.401,3.17-2.893,5.231c-0.156,0.654,1.084,0.481,1.364,0.337c2.937-1.524,4.778-3.99,6.153-6.965
				c1.759-3.807-0.775-6.41-1.707-9.989c-0.644,0.172-1.288,0.345-1.932,0.518c1.75,4.475,0.457,14.562-5.427,16.083
				c0.095,0.355,0.19,0.71,0.285,1.065c-0.926,0.084-1.852,0.168-2.778,0.252c-0.074,0.374-0.147,0.749-0.222,1.123
				c1.206-0.147,2.412-0.295,3.618-0.442c0.774-0.011,2.034-1.199,0.729-1.181c-1.893,0.026-1.963-0.313-4.131,0.076
				c-2.032,0.364-4.159,0.455-6.194,0.077c-0.382-1.024-0.096-1.353,0.859-0.987c0.885,0.088,1.763,0.222,2.633,0.402
				c1.216,0.228,2.705,0.504,3.707,1.264c0.294-0.358,0.587-0.716,0.881-1.074c-2.888,0.322-5.586-0.297-8.232-1.41
				c-0.448,0.351-0.896,0.701-1.344,1.052c4.77,0.706,8.79,1.746,12.943-1.23c3.298-2.363,4.923-7.769,4.48-11.588
				c-0.089-0.768-1.786-0.175-1.935,0.367c-0.66,2.403-0.611,4.504,0.503,6.776c0.352,0.716,1.71,0.244,1.935-0.367
				c1.544-4.201-0.611-9.384-3.326-12.658c-0.387-0.467-2.098-0.059-1.859,0.65c1.038,3.083,2.504,6.189,5.329,7.983
				c0.398,0.253,1.985-0.062,1.728-0.751c-1.609-4.318-4.533-8.532-8.579-10.858c-0.447-0.257-2.225,0.222-1.656,0.883
				c1.545,1.797,4.253,4.312,6.896,4.016c1.35-0.151,2.695-1.077,1.517-2.548c-2.968-3.705-10.729-4.542-14.913-2.804
				c-0.234,0.097-0.836,0.522-0.499,0.836c2.782,2.587,8.735,3.314,12.004,1.313c0.199-0.122,0.537-0.48,0.283-0.72
				c-4.666-4.408-14.026-0.881-18.379,2.437c-0.622,0.474-0.242,1.045,0.492,0.911c3.889-0.709,7.78-2.151,10.98-4.503
				c0.354-0.26,0.558-0.757-0.029-0.889c-5.55-1.24-12.199,3.638-15.113,8.014c-0.521,0.783,1.192,0.625,1.517,0.375
				c3.1-2.381,5.601-5.357,8.75-7.75c0.799-0.607-0.047-1.103-0.753-0.862c-3.732,1.277-6.742,3.253-9.09,6.462
				c-1.281,1.751-1.699,3.796,0.743,4.036C66.624,43.918,67.861,42.787,66.555,42.659L66.555,42.659z"/>
		</g>
	</g>
	<g>
		<g>
			<path fill="none" d="M54.066,37.374c-2,0.125-2.375,8.5-1,9.875c1.25-1.375-0.25-6.75-1.375-8
				c-0.625,1.625-0.875,4.75-0.125,6.375c1.25,2.625,2.375,0,2.375-1.875c0.125-1.5-0.375-4.875-2.375-4
				c-1.625,0.75-1.875,4.25-1.25,5.625c1.5,4.125,4.125-2.875,1-4.875c-3.625-2.5-3.875,5.125-1.125,6.5
				c-0.125-1.375-1.5-3.375-2.75-4.125c-0.5,1.25,0.875,3,1.625,4c-0.75-1.125-1.625-2.25-2.375-3.375c0.25,1,0.75,2,1.25,2.875
				c-0.125-2.375-1.125-4.5-0.125-6.875c0.25,0.875,0,1.875-0.125,2.75c-0.125-1.125,0.25-2.5,0.875-3.625
				c-0.25,1.25-1.125,2.625-2,3.5c0.125-0.875,0.375-1.75,0.625-2.625c-0.375,1.5-0.25,3.125-0.5,4.625
				c-1.625-1.875,2.75-8.75,4.75-8.875c-0.25,1-1.125,1.875-2,2.375c0-1.375,1.5-2.5,2.5-3.125c-1.75,2.125-5.625,7.25-2.375,9.875
				c1.25-1.375,0.625-5,1.375-6.875c-0.125,0.875-0.5,1.875-1.25,2.5c-0.25-3.25,4.75-6.875,7.75-5.625
				c-0.75,1.125-3.375,1-4.25,0.25c1.625-1.5,4.75-1.125,6.75-0.5c-1.125-0.375-2.375-0.375-3.625-0.5c2.625-1,5.625,1.5,6.875,3.5
				c-0.5-0.375-1-0.875-1.5-1.375c0.875,1.375,2,2.625,2.625,4.25"/>
			<path fill="#FFFFFF" d="M53.92,36.831c-3.404,0.97-3.487,8.467-1.747,10.812c0.385,0.519,1.53,0.101,1.8-0.344
				c1.427-2.345,0.105-6.396-1.39-8.444c-0.414-0.567-1.688-0.062-1.863,0.5c-0.513,1.645-1.604,7.798,1.501,7.973
				c2.577,0.145,2.767-3.246,2.667-5.048c-0.377-6.763-8.818-0.958-5.19,4.104c2.432,3.392,6.361-4.118,2.378-6.382
				c-4.864-2.765-6.174,5.166-2.646,7.495c0.453,0.299,1.883-0.044,1.727-0.756c-0.403-1.838-1.462-3.247-2.955-4.364
				c-0.428-0.32-1.661,0.013-1.731,0.603c-0.205,1.729,0.707,2.947,1.703,4.289c0.431,0.58,2.278-0.073,1.785-0.788
				c-0.781-1.132-1.594-2.242-2.375-3.375c-0.362-0.525-2.086-0.046-1.858,0.653c0.333,1.025,0.739,1.926,1.25,2.875
				c0.366,0.681,2.017,0.293,1.932-0.518c-0.242-2.316-0.805-4.415-0.121-6.722c-0.646,0.122-1.291,0.243-1.936,0.364
				c0.1,0.876,0.057,1.742-0.129,2.597c0.647-0.07,1.293-0.141,1.94-0.211c-0.006-1.336,0.214-2.206,0.812-3.469
				c-0.625,0.019-1.251,0.037-1.877,0.055c-0.32,1.227-0.925,2.292-1.815,3.194c0.585,0.032,1.17,0.063,1.756,0.095
				c0.149-0.889,0.357-1.764,0.625-2.625c-0.647,0.07-1.293,0.141-1.94,0.211c-0.27,1.536-0.323,3.078-0.5,4.625
				c0.621-0.167,1.242-0.333,1.863-0.5c-1.177-1.937,1.9-7.455,4.003-7.938c-0.351-0.198-0.702-0.396-1.053-0.593
				c-0.569,0.696-1.137,1.392-1.706,2.087c0.528,0.078,1.056,0.155,1.583,0.232c0.33-1.229,1.044-2.123,2.143-2.682
				c-0.466-0.18-0.933-0.359-1.399-0.539c-2.226,2.75-5.674,7.234-2.482,10.47c0.459,0.465,1.48,0.145,1.8-0.344
				c1.358-2.071,0.754-4.732,1.438-7.031c-0.647,0.07-1.293,0.141-1.94,0.211c-0.355,0.731-0.71,1.462-1.065,2.194
				c0.585,0.032,1.17,0.063,1.756,0.095c0.034-0.989,0.323-1.762,0.839-2.599c0.707-0.95,1.603-1.676,2.688-2.179
				c1.634-0.413,1.555-0.743-0.237-0.989c-0.049,0.279-0.099,0.557-0.147,0.835c1.735-1.229,3.765-0.764,5.557-0.271
				c0.387-0.378,0.773-0.756,1.16-1.134c-1.288-0.298-2.521-0.424-3.843-0.532c-0.072,0.38-0.144,0.761-0.216,1.142
				c2.539-0.6,4.565,1.545,5.837,3.351c0.595-0.263,1.19-0.525,1.785-0.788c-0.531-0.424-1.031-0.882-1.5-1.375
				c-0.486-0.476-2.293,0.035-1.785,0.788c0.915,1.357,1.862,2.614,2.552,4.115c0.336,0.732,2.235,0.142,1.932-0.518
				c-0.728-1.584-1.726-2.944-2.698-4.385c-0.595,0.263-1.19,0.525-1.785,0.788c0.469,0.492,0.969,0.951,1.5,1.375
				c0.494,0.421,2.321-0.026,1.785-0.788c-1.895-2.692-4.596-4.432-7.913-3.649c-0.69,0.163-1.253,1.058-0.216,1.142
				c1.148,0.058,2.283,0.214,3.407,0.468c0.664,0.153,2.303-0.819,1.16-1.134c-2.706-0.745-5.559-0.96-7.943,0.729
				c-0.286,0.202-0.554,0.593-0.147,0.835c1.795,1.071,4.275,0.909,5.796-0.547c0.314-0.3,0.191-0.652-0.206-0.768
				c-3.911-1.138-9.154,2.071-9.3,6.297c-0.028,0.821,1.429,0.476,1.756,0.095c0.783-0.91,1.158-1.638,1.435-2.806
				c0.194-0.819-1.737-0.472-1.94,0.211c-0.642,2.158-0.041,4.78-1.312,6.719c0.6-0.115,1.2-0.229,1.8-0.344
				c-2.808-2.846,0.305-6.855,2.268-9.28c0.726-0.896-0.912-0.866-1.399-0.539c-1.396,0.938-2.507,1.876-2.857,3.568
				c-0.158,0.764,1.293,0.442,1.583,0.232c1.084-0.784,1.734-1.44,2.294-2.663c0.306-0.667-0.644-0.687-1.053-0.593
				c-3.095,0.711-7.332,6.792-5.497,9.812c0.329,0.542,1.795,0.087,1.863-0.5c0.177-1.547,0.23-3.089,0.5-4.625
				c0.15-0.855-1.755-0.465-1.94,0.211c-0.268,0.861-0.476,1.736-0.625,2.625c-0.167,0.825,1.476,0.416,1.756,0.095
				c1.02-1.167,1.724-2.322,2.185-3.806c0.239-0.772-1.629-0.47-1.877,0.055c-0.594,1.253-0.944,2.37-0.938,3.781
				c0.004,0.885,1.829,0.496,1.94-0.211c0.164-1.038,0.242-1.871,0.121-2.903c-0.093-0.792-1.776-0.174-1.936,0.364
				c-0.723,2.437-0.129,4.553,0.129,7.028c0.644-0.172,1.288-0.345,1.932-0.518c-0.51-0.949-0.916-1.85-1.25-2.875
				c-0.62,0.218-1.239,0.435-1.858,0.653c0.781,1.132,1.594,2.242,2.375,3.375c0.595-0.263,1.19-0.525,1.785-0.788
				c-0.849-1.144-1.73-2.175-1.547-3.711c-0.577,0.201-1.154,0.402-1.731,0.603c1.323,0.99,2.19,2.269,2.545,3.886
				c0.575-0.252,1.151-0.504,1.727-0.756c-1.707-1.127-2.054-3.929-1.242-5.684c0.519-1.12,2.022,2.23,2.081,2.592
				c0.042,0.563-0.003,1.116-0.136,1.66c-0.356,1.914-0.384,0.009-0.547-0.484c-0.407-1.233-0.056-2.799,0.482-3.932
				c0.639-1.346,1.328,1.86,1.368,2.144c0.042,0.631,0.024,1.261-0.051,1.889c-0.347,1.851-0.558,1.818-0.635-0.101
				c-0.565-1.682-0.123-3.794,0.391-5.442c-0.621,0.167-1.242,0.333-1.863,0.5c1.234,1.692,2.549,5.601,1.36,7.556
				c0.6-0.115,1.2-0.229,1.8-0.344c-0.816-1.1-1.524-8.432,0.253-8.938C55.374,37.586,55.089,36.499,53.92,36.831L53.92,36.831z"/>
		</g>
	</g>
	<g>
		<g>
			<path fill="none" d="M15.441,55.749c2.625,0.125,5.625,0.75,8.125,0c-1.25-0.75-2.625-1.25-4-1.875
				c2-0.125,4.125,0.375,6.125,0.875c-2.125-1.125-4.5-1.75-6.75-2.25c2,0.625,4.25,0,6.375,0.625c-1-0.375-2.125-0.25-3.25-0.25
				c0.875,0.125,1.875,0.25,2.75,0.625"/>
			<path fill="#FFFFFF" d="M15.087,56.378c2.907,0.178,5.762,0.671,8.634-0.052c0.375-0.095,1.262-0.721,0.601-1.092
				c-1.29-0.723-2.649-1.278-4-1.875c-0.288,0.38-0.576,0.76-0.864,1.14c1.936-0.048,3.793,0.381,5.659,0.841
				c0.502,0.124,2.265-0.637,1.33-1.105c-2.207-1.105-4.531-1.781-6.932-2.326c-0.715-0.163-2.299,0.899-1.147,1.182
				c2.107,0.517,4.269,0.136,6.375,0.625c0.703,0.163,2.308-0.86,1.147-1.182c-1.162-0.322-2.271-0.306-3.47-0.288
				c-0.776,0.012-2.072,1.061-0.708,1.258c0.901,0.13,1.679,0.287,2.53,0.587c0.72,0.254,2.271-0.786,1.147-1.182
				c-0.974-0.344-1.952-0.516-2.97-0.663c-0.236,0.419-0.472,0.838-0.708,1.258c1.029-0.015,2.022-0.067,3.03,0.212
				c0.382-0.394,0.765-0.788,1.147-1.182c-2.11-0.49-4.279-0.112-6.375-0.625c-0.382,0.394-0.765,0.788-1.147,1.182
				c2.271,0.516,4.476,1.126,6.568,2.174c0.443-0.369,0.886-0.737,1.33-1.105c-2.192-0.541-4.325-0.966-6.591-0.909
				c-0.376,0.009-1.674,0.781-0.864,1.14c1.351,0.598,2.709,1.152,4,1.875c0.2-0.364,0.401-0.728,0.601-1.092
				c-2.5,0.63-5.087,0.103-7.616-0.052C14.952,55.069,13.776,56.298,15.087,56.378L15.087,56.378z"/>
		</g>
	</g>
	<path fill="#FFFFFF" d="M60.941,48.749c0,6.627,5.373,12,12,12h7.25c6.627,0,12-5.373,12-12v-4.25c0-6.627-5.373-12-12-12h-7.25
		c-6.627,0-12,5.373-12,12V48.749z"/>
	<path fill="#FFFFFF" d="M45.441,43.124c0,5.73,4.645,10.375,10.375,10.375h5c5.73,0,10.375-4.645,10.375-10.375l0,0
		c0-5.73-4.645-10.375-10.375-10.375h-5C50.086,32.749,45.441,37.394,45.441,43.124L45.441,43.124z"/>
	<path fill="#E7EDF2" d="M47.316,48.374c0,0-1,0.625,2,2.375s3.75,2.375,6.625,2s3.75-0.25,5-1.25s2.875-2,2.875-2
		s-0.5,0,0.75,2.125s2.125,3.25,4.25,4.625s3.375,2.625,5.875,2.75s2.25,0.75,5.375-0.125s2.625,0.625,6-2.75s4.375-5.5,4.75-7.375
		s1.125-2.875,0-5.375s-1.375-4.5-3.375-5.75s-2.375-2.375-5-3s-4-1.125-5.125-0.875s-2.5-0.25-4.5,0.75s-2.5,1.25-4,2.125
		s-2.625,2.375-2.625,2.375s-1.5-2-1.75-2.375s-2.375-1.75-3.25-2.25s-2-1.25-3-1.5s-1.625-0.25-1.625-0.25l-0.625-5
		c0,0,1.625-0.5,3.75,0.125s13.875,0.25,13.625,0.625s11.125,0.375,11.125,0.375s9.5,2,9.875,2.625s4.25,13.25,4.375,14.125
		s-0.875,9-0.875,9.625s-1.375,9.625-1.375,9.625s4.75,9,5,9.5s5.625,15,5.625,15.625s-0.5,16.5-0.75,16.875s7.75,11.5,8.625,11.875
		s9.875-0.25,9.875-0.25s15.625-4.125,16.125-3.75s14.375-1.5,14.375-1.5l19.25,1.875l9.125-6.125l19-5.375l9.625-0.75l-0.75-6.375
		l20.375-2.75l9.125-3.5c0,0,7.125,4.875,7.25,5.375s4.25,14.5,4,15.5s-4,17.375-4,17.375l-12.25,9.75l-2.5,1.5
		c0,0,0.875,0.5,2.25-4.625s2.875-11,2.875-12.375s-1.75-6.625-2.875-8.375s-3.375-4.625-3.375-4.625l-0.75-0.125
		c0,0,0.125,5.75,0,6.875s-0.75,5.875-0.75,5.875s-3.75-8.625-4.125-9.375s-2.875-3.125-4-3.5s-3.125-1.5-4.375-1.375
		s-8,1.125-8,1.125l6.125,11.5l-19.625-6.625c0,0-1.25,3.625-2.125,6.625s-1.125,4.375-1.875,6s-2.625,7-2.625,7
		s3.625,6.625,3.875,7s-8,9.875-8,9.875s3.625,3.75,3.375,4.125s-9.625,10.75-9.625,10.75l-10.375,19.75c0,0-3.375,1.125-5.5,1.625
		s-10.75,0.875-10.75,0.875v-0.875l-5.625,0.125l-2.125-0.5l0.375-0.5l-1.5-0.125c0,0-0.25-1,0.75-1.75s2.625-3.125,3.75-3.875
		s2.75-1.875,4.75-2.125s5.5-0.375,7.5-0.375s3.5-0.125,3.5-0.125s3.875-5.75,4.875-8.375s1.5-3.625,3-7.125s2.75-6.375,3.25-8.5
		s2.375-10.125,2.375-10.125s-5.25-1.125-7.125-1.75s-12.625-4.625-12.625-4.625l-1.625,4.375l-4.125,0.375l-2,0.75l3,1.375
		c0,0-2.625,0.75-4.25,1.5s-4.75,1.5-5.75,1.75s-3.625,0.5-3.625,0.5l2,2.625c0,0-1.75,1.25-2.25,1.5s-4.25,0.5-4.25,0.5l-8,3.5
		l-5.375,4.75l-8.875,15.375l-8.375,10.25l-10.875,0.75l0.625-1l-3.25,0.25l-2.625-0.5l-0.875-1l-1.625-0.125l-1.5-1.25
		c0,0,0.25-1.75,2.75-3.75s4.625-3.625,7.625-4.375s4-1.125,6.125-1s3.625,0.375,3.625,0.375s4.625-11,5.375-13
		s4.375-11.625,4.375-11.625s-2-6.125-2.125-6.875s-0.375,1.75-0.375,1.75s-2.25-2.25-3.5-3s-14.25-6.375-15.375-6.875
		s-6.125-2.5-7-3s-2.875-2.75-3.25-3.75c-0.276-0.735-0.687-4.784-0.885-6.874c-0.071-0.752-0.115-1.251-0.115-1.251
		s-0.375,1.125-1.125,1.375s-4.375-0.625-4.375-0.625s-0.375,0.125,2.375-3.375s6.25-8.375,8.125-11.875s3.875-8.125,4-12
		s-0.5-6.5-1.375-8.875c0,0-3.875-3.5-4.5-4.125s-10.125-6.5-10.125-6.5s-0.125,1.25-2.5,4s-2.25,2.625-4.5,4.625
		s-5.75,3.875-7,4.75s-4.125,1.75-4.125,1.75l0.5,4.875c0,0-1,0.875-2.625,0.75s-3-1.375-3.875-1.75s-1.375,0-1.375,0
		s-0.25,1-1,2.125s-1.25,1.75-2.125,1.75s-2.875-2-2.875-2s-0.25-2.25-0.375-3.125s-0.25,2.875-0.25,2.875l-1.25,0.375l-1.125-0.375
		l-1-1.5l-0.5-2.25l-0.125-5.25c0,0-3,0.625-4.75,0.625s-6.875-0.5-8.125-2.25s-1.25-1.75-1.25-1.75s-1.75-0.125-2.375-0.125
		s-5.25-2.125-6.375-2.75s-3.625-4.375-4.25-5.125s-1-2.625-1-2.625l0.625-9l1.75-3.625c0,0,2.5,2,3.625,2.75
		s4.125,1.375,4.125,1.375s1.125,0.25,3.75-1.125s8.875-6,8.875-6l-8.375-3.75l-0.625-0.625h3.875l1.5-0.75L47.316,48.374z"/>
	<path fill="#E7EDF2" d="M108.691,1.999c0,0-3.25,7.875-4.5,10.875s-5.25,11.625-6.375,13.25s-3.125,2.5-3.125,2.5l10,12.625
		l6.75-8.25c0,0,1.375-14.625,1.375-15s-2.125-10-2.125-10l-1.875-6.5"/>
	<path fill="#E7EDF2" d="M69.691,3.499l6.375,4.625c0,0,4.625,3,5.25,4.125s3.75,6,3.75,6s1.125,4.25,1.375,5.125s0.5,4.25,0.5,4.25
		l-15.75-0.125l-2.125-1.125l1.75-4.375c0,0,0.375-4,0.375-5.75s0.25-6.875,0.25-6.875L69.691,3.499z"/>
	<path fill="#737679" d="M56.441,27.999c0,0,2.5,0.25,3.625,1.375s5.875,3.5,5.875,3.5s3.75-1.125,6.625-1.75s3.125-1.25,7.75-1.25
		s8.5,0,10.625,2.125s4.25,5.625,4.75,9.25s0.625,20.75,0.625,20.75l-18.625,0.625c0,0,1.125,0.375,6.375,2s7,2.25,10.125,4.5
		s5.625,5,6.625,8.125s2.625,8.875,2.75,12.5s0.25,4.25-0.5,10.875s-1.375,9.25-0.5,13.625s2.75,8.875,2.75,8.875s-0.5-3.375,0.25-6
		s1.75-3.5,1.75-3.5s-0.375,4,2.625,7.625s11,7.75,11,7.75l-1.25-3.625c0,0,1.625,2.125,4.75,2.25s8.75-0.25,8.75-0.25
		s-2.75-1.75-3.75-3.25s-1-1.5-1-1.5s0.875,0.75,3.875,0.875s6.125,0.125,11.875-1.75s7.375-3,12.625-3.5s5.375-1.25,11.875-0.875
		s14.25,3.125,14.25,3.125s-2.125-3.5-3.25-5.375s-0.875-4.5-1-4.125s-1.125-0.375,3.375,1s5.875,2.375,8.875,4.125
		s4.875,2.625,4.875,2.625s0.25,0.5,0.875-2.375s0.5-5.5,0.5-7s0.125-2.625,0.125-2.625s-3.125,0.5,4-0.75s13.875-2.125,16-2.125
		s-2-2.125-3.75-2.5s-0.625-1.875-0.625-1.875s0.75-1,5.25-1.875s5.5-1.25,10.625-1.125s8.5,1.75,10.875,2.625s3.875,2,3.875,2
		s0.625-1.25-0.625-3.75s-1.875-3.875-1.875-3.875s1.375-0.375,3,2.375s3.75,5.125,4.125,9.25s0.375,8.375,0.125,10.5
		s-1.125,4.5-2.25,7.5s-3.875,7.375-5.75,9.875s-6.5,6.75-6.5,6.75s7.25-4.625,10.625-7s5.5-3.75,7.375-6.125s3.5-5,4.125-7
		s1.25-7.75,1.25-9.875s0.25-3.375,0-5.125s-1.25-7.5-1.25-7.5l-1.25-3.625l6.25,7.875c0,0,0.375-5.375-0.125-8s-1.125-7-2.625-8.75
		s-3.25-4.125-4.75-5.125s-4.375-2.875-6.25-3.75s-5.75-2-6.5-2.125s-2.875-0.25-2.875-0.25s0.625-0.875,2.375-2.25
		s4.875-3.625,4.875-3.625s-3.75-0.375-7.625,0.875s-9.75,3.75-12.25,5.25s-7.125,4.5-10.5,8.25s-5.5,6.75-7.5,8.875
		s-5.5,4-8.625,5.875s-5.5,3-6.375,3.125s-3.25-1.125-5.25-1s-4,0.125-4,0.125s-0.125-0.5,1.875-1.625s5.25-2.875,5.25-2.875
		s-0.75,0-3.25,0.5s-3,0.25-5.625,0.75s-5.375,0.875-6.5,1s-1.125,0.125-1.125,0.125l3-3.875c0,0-1.625-0.25-3.25,0.5
		s-5.25,1.5-6.875,2.875s-2.25,1.875-2.25,1.875s-0.375,0-0.25-1.25s0.25-2,0.25-2s0,0.625-2.125,1.875s-5.625,1.75-6.5,2
		s-0.875,0.25-0.875,0.25s1.75-0.5,3-2.375s2-3.625,2-3.625s-1.25,0.875-4.125,2s-5.125,1.375-6.875,1.875s-4.75,1.125-4.75,1.125
		s1.75-1.375,3-3.125s3.375-6.375,3.375-6.375s-0.625,0.75-3,2.375s-6.75,3.125-9,3.5s-6.875,0.625-6.875,0.625
		s1.125-0.25,2.375-1.375s3.375-4.125,3.375-4.125s-4.875,1-6.375,1.25s-3.5,0.25-3.5,0.25l2-1.75c0,0-2.5-0.375-5.125-1.875
		s-5.25-3.25-6.75-4.125s-5-5-5-5s-0.125-0.375-0.375-2.875s-1-4.875-1.625-5.875s-1.875-3.875-1.875-3.875s2.375,0.75,4.625,2.875
		s4.25,5.25,4.25,5.25s0.125-2.875-0.625-4.75s-1-3.5-2.75-5.625s-4.875-5.75-4.875-5.75s0.875-0.625,4.5-0.125
		s4.875,0.625,6.375,1.25s2.125,1.125,2.125,1.125s-0.875-2.375-2.75-4.25s-3.125-3-5.375-4.5s-4.5-3.125-5.375-3.125
		s-0.875,0-0.875,0s1.25-0.375,2.875-3s2.5-4.875,3.375-7s1.25-3.25,1.25-6s-0.125-16.75-0.125-16.75s-0.625-3.875-2.125-6.75
		s-4.5-7.875-4.5-7.875s-0.75-0.25-0.125,2.5s1.625,7.5,1.625,7.5s0.625,5,0.625,7.25s0,4.375-0.25,6.625s-0.75,5.375-1.625,7.5
		s-0.75,2.625-2.25,4.875s-2.125,3.375-2.125,3.375l-8.125-11.75c0,0-3-1.75-6.375-1.875s-10.875-0.5-13-0.375
		s-10.75-0.625-11.25-0.5S56.441,27.999,56.441,27.999z"/>
	<path fill="#737679" d="M91.316,134.249l4.375,16.375l-8.5,19.875c0,0-5,0.625-6.625,0.875s-4.25,0.75-6,2.125s-6,5.125-6,5.125
		l3,2.125l-0.375,0.75l13.375,0.875c0,0,4.75-4.875,7-5.625s4.625-2,4.625-2s0.75-2.375,1.875-4.75s3.25-6.625,3.625-6.875
		s2.5-1.125,2.5-1.125l7.625-4.5l2.125-5.5c0,0-0.5,0.625-1.25-1.5s-1.75-7-1.75-7s-3.125-3.125-4.25-3.875s-7-3.75-7-3.75
		L91.316,134.249z"/>
	<path fill="#737679" d="M152.441,142.124c0,0,0.75,2.5,0.125,5.625s-4.125,12.125-5.25,14.875s-5.5,10.5-6.125,11.375
		s-0.625,0.875-0.625,0.875s-6.25,0-7.875,0.125s-3.25-0.25-4.375,0.75s-5.5,6-5.5,6l1.375,0.375l-0.125,0.625
		c0,0,2.25,0.125,3.25,0.25s3.75-0.125,3.75-0.125l-0.75,1.375c0,0,3.125,0.125,4.625,0.125s5.375-0.625,6.875-1.125
		s3.125-1.125,3.125-1.125s5-7.125,7.125-10.125s4.375-6,6.625-8.875s3-3.625,5.375-5.875s9.25-9.375,9.25-9.375l-9.125,2
		l8.375-7.625c0,0-6.5-2.25-8.25-3.25s-6.125-4.125-6.125-4.125l-2,1.375l2.375,0.625c0,0-1.25,1.625-2.375,2.625
		s-3.75,2.25-3.75,2.25"/>
	<path fill="#A1A5A9" d="M132.941,130.249c0,0-2.5,1.375-3.875,3.375s-2.625,5.5-2.875,8.625s-0.5,9.25-0.5,9.25l-6.125,0.375
		l4.25,4.375l0.75,1.375c0,0-0.75-0.375-2.375-0.125s-3.875,1.875-5.5,3.25s-3.25,3.875-4.5,7.5s-1.75,7.75-2.875,9.75
		s-1.625,3.75-3.25,5.375s-5.375,3.75-5.375,3.75s8.75-1.625,9.375-2s1.125-0.875,3-4.375s3-5.75,4.75-9s1.625-5.125,3.75-6.375
		s14.75-8.875,14.75-8.875l-4.875-2.5h5.75c0,0-2-1.25-2.75-3.5s-1.875-3.25-1.875-5.25s0-7.25,0-8.125
		S132.941,130.249,132.941,130.249z"/>
	<path fill="#A1A5A9" d="M193.816,117.874c0,0-0.125,0.75-2.25,2.375s-7.375,5.25-8,6.625s-1.75,3.25-1.25,6.25s0.875,4.125,2.5,6
		s4,3.875,4,3.875l-7.25,9.625l3.125,0.125c0,0-3.125,3.375-5,5.875s-3.5,5.25-5.125,8.125s-3.75,7.625-5.125,10.375
		s-5.625,9.375-5.625,9.375l5.125-1.375c0,0,4.5-6.5,6.875-9.75s7-10.375,10.5-13.75s14.625-14.375,14.625-14.375l-10.875,2.875
		l8.5-7.625l-7.5-10.875c0,0,2.5-5.5,3.25-7.5s1.875-4.875,1.875-4.875L193.816,117.874z"/>
	<path d="M17.774,51.916c0.25-0.25,3.667,0,5.667,0.75s2.333,1.833,2.333,1.833s-6.5,0-6.75,0.083s-0.833,0.417-1.583,1.167
		s-0.833,1.333-0.25,2.083s5,4.667,5,4.667s3.167-0.583,5.167-1.667s8.167-5.25,8.167-5.25s-6.417-2.583-7.75-3
		s-2.667-1-3.333-0.917s-6.5-0.167-6.5-0.167"/>
	<ellipse fill="none" stroke="#000000" stroke-width="0.75" cx="77.399" cy="46.457" rx="13.708" ry="12.625"/>
	<path fill="none" stroke="#000000" stroke-width="0.75" d="M46.858,48.582c-0.25,0.083-13.5,2-16.75,2.5s0.5,0.667-4.667,0.667
		c-1.106,0-2.105,0.007-3,0.022c-0.088,0.001-0.175,0.003-0.261,0.004c-0.505,0.009-0.976,0.021-1.413,0.034
		c-2.259,0.069-3.596,0.195-4.077,0.355c-0.75,0.25-2.833,1.167-3.583,2.167s0,4.833,0,4.833s2.334,1.333,3.667,2.333
		s3.917,1.5,3.917,1.5s3.167-0.583,6.917-2.417s7.5-4.917,7.5-4.917s-4.667-2.083-6.917-2.583s-3.5-0.583-4.5-0.75
		s-2.833-0.25-2.833-0.25"/>
	<path fill="none" stroke="#000000" stroke-width="0.75" d="M13.107,59.165c-0.167,0.25-1.833,2.917-2,4.167
		s-0.083,9.167-0.083,9.167s0.833,2.417,2,3.917s3.5,3.583,5.583,4.5s4.083,1.5,6.75,1.5s12.333-0.249,14.917-0.416
		s7.833-1.333,10.917-2.5s7.167-2.916,9.333-4.833c2.167-1.917,4.5-5.583,4.5-6.583s-0.083-1.5-0.083-1.5"/>
	<path fill="none" stroke="#000000" stroke-width="0.75" d="M20.691,62.999c0,0-0.083,7.333,0.333,10.167s1.5,6.166,2.333,7.5
		s1.667,3.166,3.75,4.25s5.583,1.584,8.25,1.417s3.583-0.333,3.583-0.333s0.084,3.666,0.167,5.166s1.417,3.834,1.917,4.084
		s1.75-0.417,1.917-0.917s0.083-3.167,0.083-3.167s0.417,3.334,1,3.917s1.25,1.583,2.417,1.5s2.5-1.25,2.667-2s0.5-1.667,0.5-1.667
		s0.917-0.083,1.667,0.417s2.083,1.167,3.5,1.167s2.5-0.25,2.5-0.25l-0.25-5.167c0,0,0.5,0,2.75-1s3.917-1.916,5.25-3.083
		s4.417-3.167,5.5-4.417s2.916-3.084,3.333-3.917s1.083-2.167,1.083-2.167s2.75,1.25,5.167,2.833s3.75,2.167,5.75,3.75
		s5.25,4.917,5.25,5.75s0.084-4.584-0.333-7.167s-1.667-6-1.667-6s2.917,1.583,5.583,4s4.584,3.751,6.417,5.834s3.083,5.5,3.083,5.5
		s0.833-3.001,0.75-6.834s-0.166-8.333-0.916-9.5s3.916,2.083,5.166,3.667s2.833,3.251,2.75,4.167s0.334-4.667,0.084-7.083
		s-1.917-5.917-3.167-7.417s3.501,1.833,5.667,4s2.916,3.167,2.916,3.167s-0.083-4-1.333-6.667s-6.833-8.917-6.833-8.917
		s8.666,0.167,10.666,1s2,0.833,2,0.833s-3.417-5.583-6-7.417s-6.083-3.75-7.25-4.083s-0.75-0.25-0.75-0.25s3-2.333,4.5-5.75
		s2.666-6.5,2.583-9.083s0.167-16.417,0.167-16.417s-0.501-3.25-2.167-7.583s-4.75-8-4.75-8s-0.832,4-2.749,8.75
		s-2.583,6.667-4.5,10.083s-4,8.083-4.917,8.25s-0.917,0.167-0.917,0.167s-1.5-1-6.417-1.5s-15.667-0.917-18.417-0.833
		s-3.833-0.167-8.167,0.833s-6.25,1.417-6.25,1.417l0.417,4.417"/>
	<path fill="none" stroke="#000000" stroke-width="0.75" d="M69.774,25.499c0,0,1-3.083,1.083-7.25s0.5-8.833,0-10.5
		s-0.5-3.583-1.083-4.333s-0.583-0.75-0.583-0.75s1.417,0.583,5.5,4.083s4.583,2.75,6.75,5.917s3.833,5.583,4.333,7.333
		s0.75,6.5,0.75,6.5"/>
	<path fill="none" stroke="#000000" stroke-width="0.75" d="M89.274,83.999c0,0,1.667,4.667,1.75,7.5s-0.917,7.916-2.083,10.333
		s-4.75,8.667-6.333,11s-6.333,8.083-6.333,8.083s1.25,0.583,2.75,0.5s3.167-0.583,3.167-0.583"/>
	<path fill="none" stroke="#000000" stroke-width="0.75" d="M82.107,119.415c0,0-0.25,4.334,0.083,5.834s0.417,3.666,2.75,5.583
		s2.75,2.75,7.917,4s4.584,0.417,8.167,2.167s3.582,1.417,6.416,3.5s4.5,3.833,4.5,3.833s-0.166-2.917-0.166-3.75
		s-1.584-1.917-1.584-1.917"/>
	<path fill="none" stroke="#000000" stroke-width="0.75" d="M112.316,77.874c0,0,1.25,2.75,4.125,4.625s9.5,5.625,11,6.25
		s1.5,0.625,1.5,0.625s-1,1-1.625,1.375s2.25,0.125,2.25,0.125s2.625-0.125,4.875-0.5s2.25-0.375,2.25-0.375l0,0
		c0,0-2,2.375-2.875,3.375s-1.875,1.625-1.875,1.625s2.125,0.25,4.125-0.25s5.25-1.25,7.75-2.25s6.125-3.25,6.125-3.25
		s-2.5,5.25-3.125,6s-2.625,2.625-2.625,2.625s6.25-1.25,9.5-2.25s5.875-2.125,5.875-2.125s-0.25,1.25-2.125,3.125
		s-2.375,2.25-2.375,2.25s4.375-0.375,6-1.5s2.875-2.375,2.875-2.375s0,2.5,0.125,3.5"/>
	<path fill="none" stroke="#000000" stroke-width="0.75" d="M145.066,185.874l-1.25-0.5c0,0,2-2.125,3.75-4s3.625-2.625,5-3
		s11.75-0.75,11.75-0.75s3.375-5.375,4.875-8.25s3.875-8.875,5.125-12s3.625-13.5,3.625-13.5s-3.875-1-6.125-1.875
		s-6.375-2.375-9.625-4.125s-5.125-3.75-7.5-6.25s-4.25-5.875-4.625-7.375s0.125-8.125,1.75-11.75s4.75-7.375,7.125-9.875
		s6.125-5.25,9.125-7s7.5-2.75,8.125-2.625l-2.875,3.75c0,0,2.125-0.25,6.25-1s10-1.125,10-1.125h0.625c0,0-3.875,1.625-5.375,2.75
		s-2.625,1.75-2.625,1.75s3.25-0.375,5.75,0s3.625,0.625,5,1.5s4,3.25,4.25,5.125s0.25,1.875,0.25,1.875"/>
	<path fill="none" stroke="#000000" stroke-width="0.75" d="M152.941,186.999c0,0-2.75,0.25-4.625,0.25s-3.25-0.75-3.25-0.75
		s1.5-2.25,3.25-3.875s4.125-3,4.125-3"/>
	<path fill="none" stroke="#000000" stroke-width="0.75" d="M158.066,182.124"/>
	<path fill="none" stroke="#000000" stroke-width="0.75" d="M158.066,182.124c0,0-5.5,5.125-5.5,5.625s2.375-0.25,5.125-0.25
		s6.875-0.5,8.5-0.875s3-1,3-1s3.5-5.875,6.625-10.125s7.375-10.75,10.25-13.5s14.25-14.375,14.25-14.375s-2.5,0.25-5,1.125
		s-4.875,1.375-4.875,1.375l8.25-7.75l-7.875-10.375c0,0,2.625-5.375,4.125-10s2.375-9.25,2.5-11.125"/>
	<path fill="none" stroke="#000000" stroke-width="0.75" d="M191.941,99.749c0,0,2.75-1,6.125-2.625s7.875-4.5,10-7.375
		s5.25-6.625,8.875-10s10.125-7.375,13.125-8.5s6.625-2.5,9.375-3s5.875-0.75,5.875-0.75s-3.875,2.375-5.375,3.875s-1.5,1.5-1.5,1.5
		l0,0c0,0-0.5,0.125,3.25,1s3.125,0.625,8,3.25s5.375,4,7.5,6.5s2.875,6.625,3.375,9s0.375,8.375,0.375,8.375s-3-3.625-4-5
		s-2.375-2.75-2.375-2.75s1.375,2.75,1.75,5.375s1.5,10,0.875,15s-2.25,9.875-5.125,13s-8.75,7-11.25,9s-7.25,4.25-7.25,4.25
		s1.75-3.625,3-7.375s2-9,1.875-11.125s-4-10.375-5-11s-1-0.625-1-0.625l-0.625-0.25c0,0-0.5,10.25-0.75,11.375
		s-0.25,1.125-0.25,1.125s-3-7.25-4.25-9.25s-2.625-3.125-4.125-3.75s-4.5-1.375-6.625-1.125s-5.5,1.375-5.5,1.375l6,11.125
		c0,0-9.5-4-11.375-4.625s-7.5-1.75-7.5-1.75"/>
	<path fill="none" stroke="#000000" stroke-width="0.75" d="M109.941,129.499c0,0,1.5,9.875,2.25,12.5s2.25,7.875,2.25,7.875
		s-4.125,11.5-5.125,13.5s-4.75,11-4.75,11s-4.25-0.5-6.625,0s-7.125,2.375-8.875,3.75s-4.5,4.25-4.625,4.875s0.625,1.125,1.125,1.5
		s2.625,0.375,2.625,0.375"/>
	<path fill="none" stroke="#000000" stroke-width="0.75" d="M94.441,185.999c0,0-3.25,0.375-5.125,0s-1.375-1.875-1.375-1.875
		s0.75-1.5,2.25-3.125s4.5-2.625,4.5-2.625"/>
	<path fill="none" stroke="#000000" stroke-width="0.75" d="M100.566,179.874c0,0-2.75,1.75-4,3.125s-3.125,4.125-2.125,4.25
		s6.375-0.125,6.375-0.125s7.625-1.125,9.25-2s6.375-10.125,6.375-10.125s3.25-8.25,5.125-9.625s14.75-8.75,14.75-8.75
		s-4.625-3-4.875-2.625s5.375-0.125,5.375-0.125s-1.375-0.75-2.375-3.375s-1.625-4.875-1.75-6.625s-0.5-8.875-0.25-10"/>
	<path fill="none" stroke="#000000" stroke-width="0.75" d="M91.191,134.374c0,0,2.125,5.625,2.625,9s1.625,7.25,1.625,7.25
		s-3.875,8.75-5.25,12.5s-3,7.5-3,7.5s-6.125,0.375-8.625,1.125s-5.875,2.625-7.25,4s-2.875,3.125-2.875,3.125
		s1.875,1.5,2.625,1.625l0.75,0.75"/>
	<path fill="none" stroke="#000000" stroke-width="0.75" d="M78.191,174.749c0,0-2,0.625-3.5,2.125s-3.5,4.875-3.5,4.875
		s0.875,0,3,0.25s10.375,0.25,10.375,0.25"/>
	<path fill="none" stroke="#000000" stroke-width="0.75" d="M77.941,181.999c0,0,3.375-4.5,4.375-5"/>
	<path fill="none" stroke="#000000" stroke-width="0.75" d="M95.816,175.124c0.125-0.5,1.75-4.625,2.75-6.25
		s3.125-5.625,3.125-5.625l10-5.75l0.25-3.25"/>
	<path fill="none" stroke="#000000" stroke-width="0.75" d="M110.191,154.249"/>
	<path fill="none" stroke="#000000" stroke-width="0.75" d="M110.691,143.499c0,0,1.25,4.5,1.625,5.75s1.5,2.75,1.5,2.75"/>
	<path fill="none" stroke="#000000" stroke-width="0.75" d="M135.816,152.499c0,0,2.875-0.125,4.25-1s2-1.375,2-1.375l-2.375-2.25
		c0,0,3.5-0.625,5.75-1.125s8.125-3,8.125-3l-3.125-1c0,0,3.875-1.75,5.125-2.75s3-3.375,3-3.375l-2.75-0.375l1.875-0.875"/>
	<path fill="none" stroke="#000000" stroke-width="0.75" d="M152.316,141.874l0.75,2c0,0-1.125,6.625-1.875,8.875
		s-4.75,12.375-6,14.875s-4.625,7.5-4.625,7.5s-3.375-0.375-6.25-0.25s-5.25,0.125-6.875,1.5s-5,5.625-5,5.625l1.875,0.375"/>
	<path fill="none" stroke="#000000" stroke-width="0.75" d="M129.566,177.249c0,0-5.875,5-5.5,5.5s4.5,0.375,4.5,0.375l2.375-0.125"
		/>
	<path fill="none" stroke="#000000" stroke-width="0.75" d="M135.191,178.874c0,0-2.75,2.125-3.5,3.125s-1.25,2.25-1.25,2.25
		s6.125,0.25,8.25-0.125s6.125-1.75,6.125-1.75s3.25-4.625,5.75-8.125s7.875-11.5,10.75-14.25s11.875-12,11.875-12l-8.5,1.875
		c0,0,2.5-2.25,4.25-3.875s3.625-3.75,3.625-3.75"/>
	<path fill="none" stroke="#000000" stroke-width="0.5" d="M108.316,2.249c0,0,1.625,7.875,1.75,10.5s0.5,5.75,0.375,10.25
		s-1.75,9.375-2.75,11.875s-3,5.375-3,5.375"/>
	<path fill="none" stroke="#000000" stroke-width="0.75" d="M64.085,48.764c-0.16-1.084-0.366-2.168-0.311-3.266
		c0.024-0.468,0.122-0.915,0.252-1.348c0.053-0.33,0.13-0.653,0.235-0.969c0.005-0.425,0.054-0.85,0.191-1.262
		c0.083-0.25,0.167-0.5,0.25-0.75c0.245-0.735,0.639-1.382,1.123-1.934c-1.518-3.787-5.399-6.487-9.968-6.487
		c-5.891,0-10.667,4.477-10.667,10s4.776,10,10.667,10c3.343,0,6.307-1.458,8.262-3.714C64.106,48.944,64.094,48.854,64.085,48.764z
		"/>
	<ellipse fill="#0092FF" cx="69.316" cy="46.957" rx="5.125" ry="5.208"/>
	<ellipse fill="#0092FF" cx="49.649" cy="43.291" rx="3.958" ry="3.625"/>
	<ellipse fill="#00426B" cx="68.733" cy="47.041" rx="2.125" ry="2.042"/>
	<ellipse fill="#00426B" cx="49.066" cy="43.291" rx="1.458" ry="1.375"/>
	<ellipse fill="#FFFFFF" cx="71.608" cy="44.166" rx="1.333" ry="1.25"/>
	<ellipse fill="#FFFFFF" cx="67.108" cy="49.416" rx="1" ry="0.917"/>
	<circle fill="#FFFFFF" cx="51.024" cy="41.416" r="1.083"/>
	<ellipse fill="#FFFFFF" cx="47.441" cy="44.957" rx="0.667" ry="0.542"/>
</g>
<g id="frame_2">
	<path d="M44.025,70.416l-1.833,5.75c0,0-2.333,5.167-2.5,5.417s-1.333,2.334-1.333,2.334l-1.75,2.75l-1.5,2.5l-1.917,1.75
		l-1.5,1.916l-1.5,1.167l1,2.5l17.083-1.417c0,0,8.333-3.5,8.5-3.75s8.333-5.5,8.667-5.5s5.917-6.416,5.833-6.916
		s-3.167-13.5-3.167-13.5l-5.083-5.25c0,0-8.667,0.75-9,0.75s-8.75,4.667-9,4.917s-0.833,5.083-0.833,5.083"/>
	<path fill="#FFFFFF" d="M10.525,60.333c0,0,0.25,4.833,0.167,5.833s0.5,3.583,0.5,3.583l3.333,4l0.667-4.083l1.417-0.833
		l2.833,2.25l3.167-0.333l1.333,1.167l3.083-0.167l1.75,1.25l2.5,1l0.75-0.25l1.417,6.334l1.333,0.25c0,0,1.583-0.833,2.083-1.25
		s2.583-3.167,2.583-3.167s1.75-3.667,1.75-3.417s3.917-0.167,3.917-0.167l2-2.083l3.917-1.167l3.167-3.167l1.25,1l2.583-1.917
		l2.25,0.417l1.833-1.833c0,0-1.083-1-1.75-1.25s-3.417-0.167-3.417-0.167s-1,0.916-1.25,1.083s-2.25,1.333-2.25,1.333l-2.333,1.167
		l-2.5,1.167c0,0-7.167,1.333-7.417,1.333s-17.584-2.75-18.167-3.167s-12.417-5.083-12.417-5.083"/>
	<path fill="#FFFFFF" d="M67.191,76.666c-0.417,0-2.167,0.083-2.167,0.083l0.583,1.667l-1.917-0.583v4.25l-1.833,0.5l-0.5-0.084
		l0.333,1.5l-1.167-0.75l-0.667,2.334l-2.667,0.25l-1.667,3.333l-1.417-0.167c0,0-1.083,1.667-1.167,1.917s-1.917-0.083-1.917-0.083
		l-1.25,2.416l-1.75,0.75c0,0-1.667-3.082-2.083-3.666s-3.083-3.25-3.083-3.25s-0.167,3.082-0.667,4.499s-2.083,2.834-2.083,2.834
		l-1.833,1.083l-2.333,0.167l-4.333,0.083l-1.417-1.75l-1.833-1.583l-1.75-1l-0.167,5.833l0.667,2.25l6.083,2.25l11.333-0.5
		l11.667-4.75l9.917-10.833l3-7.084l1.667-4.333"/>
	<path fill="#FF0000" d="M67.025,70.416c0,0-1.917-0.083-3.333,0.833s-3.75,2.833-4.833,4.167s-1.917,4.25-1.917,4.25
		s-0.167,0.666-0.25,2.333s0.083,4.083,0.083,4.083l2.75-0.5l1-2.333l1.167,0.75l-0.333-1.5l2,0.083l0.333-5.083l1.917,0.917
		l-0.583-1.25l2.667-0.25l0.417-3.167l-0.75-3.25"/>
	<path fill="#E7EDF2" d="M86.608,7.124c0,0,0.375,3,0.25,4.5s-0.5,3.125-1,4.375s-1.625,4.125-2,5s-2.25,4.125-2.25,4.125
		l-3.375,4.375c0,0,3.375,1.5,3.625,1.875s10.375,4.125,10.375,4.125l1.875,1.375c0,0,1-2.75,0.875-3.25s0.625-5,0.625-5
		l-0.875-5.75l-1.75-5.5l-2.5-4.625L86.608,7.124z"/>
	<path fill="#E7EDF2" d="M102.358,42.124l4-3.375c0,0,6.5-6.125,6.875-6.5s6.875-7,7.125-7.5s3.125-3.625,3.125-3.625v9.625
		c0,0-2,6.5-2.25,7s-5.875,12.5-5.875,12.5s-6.875,8.125-7.375,8s-5.5,1.25-5.5,1.25l-1.5-13.375l1.375-4.75"/>
	<path fill="#E7EDF2" d="M64.858,26.749l0.25,7.625l4.375,8.125c0,0,5.75,0.375,6.25,0.875s8.875,2.5,9.375,3.125
		s-1.75,11.75-1.75,11.75l-11.125,0.375l-8.75-7.25c0,0-5.375-3.375-5.75-3.5s-4.25-3.25-4.625-3.125s-5.25-4.125-5.25-4.125
		s-7.375-2.625-8.625-2.75s-7.625-1.625-7.625-1.625l-4.25-0.75l-13.5,2.875c0,0-3.5,3.875-4,4.625s-1.5,3.75-1.5,3.75l-0.5,3.625
		l0.25,4.375l0.375,2.75l2.875,3.5l3.75,2.5l3.875,2.125c0,0,4.5,1.5,4.875,1.625s5.5,1.75,5.5,1.75l5,0.375l4.125-0.125l4.375-0.5
		l3.125-0.875l4-1.75l4.125-2.25l3.25-2c0,0,3.875,0.5,4.125,0.875s3.5,3.375,3.625,3.75s3,6.375,3,6.375l-0.5,8.375l-4.25,5
		l-4.25,3.75l-6.375,4.75l-7,2.625l-8.5,2l-6.75,0.5h-3.125h-0.75c0,0,0.25,1.375,0.875,2.375s2.25,1.875,3.625,2.875
		s2.75,2,4.5,1.875s3.5,0.125,4.75-0.375s1.25-0.875,2.375-1.875s2.25-1.875,2.25-1.875s0.75,3.75,1.375,4.625s2,3,2.375,3
		s1.875,0.25,1.875,0.25l1.125-1.125l0.875-1.125l1.625,1.25l1.625,0.125l1.25-0.125l0.5-0.625c0,0-0.375-1.75-0.375-2.25
		s0.375-1.625,0.375-1.625s2.625,0,3.5,0.125s4.25-0.125,4.25-0.125s-1.75-1.75-2-2.5s-1.125-2.75-1.125-2.75s1.875-1.625,2.5-2.25
		s2.875-3.375,3.375-3.875s2.125-2.625,2.375-3.375s2.125-5.5,2.125-5.5l3.5,5.875l2.75-9.875c0,0,1.625,1.75,2.625,3
		s1.5,2.75,2.125,4.125s2.125,4.375,2.625,5.75s0.5,3,0.5,3l2.375-4.25c0,0,0.625-11.75,0.375-12.125s2.125-6,2.125-6l6.375-10.75
		c0,0,1.5-6.375,1.5-6.875s0.125-9.375,0.125-9.375s-2.25-6.25-2.75-6.375s-10-7-10-7l-11.125-2.125l-4.875-3.375l-2.25-2
		l-3.125-0.5"/>
	<path fill="#E7EDF2" d="M91.358,90.874c0,0,0.125,3.75,0,4.625s-1.125,5.25-1.625,6s-1.75,4.125-2.75,6s-2.625,4.375-3.375,5.5
		s-6.375,7.875-6.375,7.875l5.25-0.75c0,0,0.25,3.625,0.5,5.375s0.75,3.75,1.75,4.625s1.25,1.625,3.375,2.5s4.75,1.75,5.75,2
		s5.125,2.5,5.125,2.5l5.25,2.25c0,0,2.625,1,3.125,1.375s2.125,0.875,2.5,1.125s4,3.875,4.5,4.125s0.625,4,0.625,4l-8.875,23.875
		c0,0-4.125-0.25-5.625,0.25s-5.375,1.25-6.125,1.5s-2.625,1.5-3.75,2.25s-3.75,2.375-4.25,2.875s-1.75,2.125-1.75,2.125
		s1.625,2.125,3,2.5s6.75,0.75,7.75,1s6.75-0.125,6.75-0.125l4.75-0.75l4.375-5.125c0,0,2.375-6.25,3.375-8.75
		s15.375-18.375,15.375-18.375l6.875-1.25l6-2l-2.5-2.125c0,0,4.75-0.25,5.375-0.5s9.125-3.75,9.125-3.75l-4.25-0.5
		c0,0,2.375-1.375,4.25-2.5s5.875-4.375,5.5-4.25s-4.875,0.5-4.875,0.5l3.625-2.25c0,0,2,2.25,3.5,2.75s4.875,2.875,5.5,3
		s4.125,1.25,4.125,1.25s2.375,0.875,2.75,0.875s2.75,0.875,2.75,0.875l1.25,0.25c0,0-3.75,13.375-4,14s-3.125,7.75-3.375,8.25
		s-3.375,6.5-3.75,7s-2.75,4.625-2.75,4.625s-3.75,0-4.625-0.125s-6.25,0.25-7,0.5s-3.125,1.875-3.75,2.625s-5.75,5-5.75,5l2,0.25
		l-0.875,0.75l9.25,0.25l-1.125,0.875c0,0,4.75,0.5,6.25,0.25s5.125-1,5.125-1l5-1c0,0,3.125-5,4.875-7.625
		s5.875-12.625,5.875-12.625l5.625-9.625c0,0,3.25-4.375,2.375-4.5s2.5-6.375,2.5-6.375l0.875-3.375c0,0-4.75-8.5-4.875-9
		s5.625-9.5,5.625-9.5l2.875-3.875c0,0,2-4.875,1.625-4.5s1.375-1,1.375-1s1,0.375,2,0.625s5,1.125,5.5,1.5s5.5,2.5,5.5,2.5
		l5.375,3.125l-5.875-13.125c0,0,1.75,0,2.875-0.25s3.75-0.75,4.625-0.625s2.25,0.25,3.5,0.375s3,1,3.375,1.25s2.625,4.25,3,4.75
		s3.875,7.5,3.875,7.5l1.625-10.75c0,0,2.5,2.5,2.875,3.25s2.375,4.875,2.375,4.875s0,3-0.125,4.375s-0.5,4.375-0.625,5
		s-4.625,12.25-4.625,12.25s6.5-3.75,6.75-4.125s7.5-11.375,7.625-11.875s2.875-7.75,2.875-7.75s1.75-9.125,1.375-9.75
		s-3.25-10.125-3.625-10.625s-3.125-5.5-4.25-6.25s-3.375-1.25-5.25-1.25s-15.75,4.25-16.75,4.75s-8.25,3.875-9.25,4.25
		s-6.125,4.125-6.125,4.125s-10,0.625-10.375,0.625s-13.5,4.25-14.125,4.25s-8.75,2-9.625,1.875s-28.375-1.875-28.375-1.875
		s-23.875-6.125-24.375-6.625s-7.875-10.125-8.125-10.375s-6.375-12.125-6.375-12.125s-9.25-2-9.5-1.5s-5,4.375-5,4.375
		L91.358,90.874z"/>
	<path fill="#A1A5A9" d="M133.733,145.999c0,0-0.625-5.625-0.375-7.75s0.75-8,0.75-8s-1.625,0.25-3.125,1.875s-3,4.375-3.5,5.5
		s-0.875,4.375-1,5.5s-0.25,8.75-0.25,8.75l-6,0.125l4.625,5.125c0,0-1.75,0.125-2.875,0.5s-3.125,1.375-4.25,2.25
		s-2.5,2.625-3.375,4s-1.625,4.625-2.125,5.5s-0.75,4.75-1,5.75s-0.875,3.5-1.625,4.5s-2.875,3.75-2.875,3.75l-2.875,2.25l8-1
		l10.375-19.75l15.375-8l-5.625-2.75h6.25c0,0-2.625-2.625-3.125-3.5S133.733,145.999,133.733,145.999z"/>
	<path fill="#A1A5A9" d="M196.441,117.665c-0.667,0.167-3.499,1.666-4.833,2.5s-4.668,3.334-5.834,4.667s-2.666,3.834-2.833,5.667
		s-0.667,3.499,0.833,5.666s2.334,4,3.334,5s2.333,2,2.333,2l-7.5,10.334l3.333-0.667c0,0-5,4.501-6.333,6.667
		s-5.333,9.833-5.333,9.833l-3.667,8.167l-5.5,9.333l5.833-1.666c0,0,5.333-8.667,6.5-10.667s5.5-8.167,7-9.667s7.834-8,7.834-8
		l6.166-6.333l3.834-4.167l-10.334,3.333l8.834-7.5l-8.834-11.166l5.667-11.834L196.441,117.665z"/>
	<path fill="#737679" d="M65.942,26.333c0,0,4,5,4.833,6.333s1.833,1.833,1.833,1.833s6.333,0.167,9.333,0.833s4.167,0.667,7.167,2
		s3.333,1.833,5,3.333s3,5,3,7.833s-0.833,6-1.833,9.167c-1,3.167-5.667,14.667-5.667,14.667l-18.667-6.5c0,0,4.5,2.667,7.5,5.333
		s3.667,3.333,5.667,6.167s2.5,4.167,2.833,6.5s0.667,3,0.667,5.5S86.442,98.5,86.442,98.5s1.667-1.834,3-3.834
		s2.333-2.999,2.333-4.666s0-6.334,0-6.334s0.833,1.166,2,3s3.334,5.167,3.334,5.167l0.333,4.333c0,0,2.166-4.667,2.333-6
		s0.168-5.834-0.166-6.5s-0.667-3.333-0.667-3.333s2.167,2.833,3.167,4s3.5,5.833,3.5,5.833s-1.167,5.333-1.667,7s-1.667,8-1.5,12
		s1.5,10,1.5,10l1.667,3.167c0,0,0-4.167,0.5-5.667s1.833-2.833,1.833-2.833s-0.001,5.167,2.333,7.667s6.5,5.5,8.167,6.333
		s3.667,1.333,3.667,1.333l-1.167-3.333c0,0,0.833,1.001,3.833,1.667s9.667,0.5,9.667,0.5s-2.166-1.334-3.833-2.834
		s-1.5-2.666-1.5-2.666s1.334,0.5,4,1s5.166,0.334,8.333-0.5s5.166-1.501,7.333-2.334s5.833-2.333,9-2.833s6.666-0.999,9.5-0.833
		s4.501,0.166,7.334,0.666s8.5,2.667,8.5,2.667l-1-3.667c0,0-1.167-1.999-1.667-2.666s-1.333-2.5-1.333-2.5s3.832,0.167,6.666,1.5
		s6.334,2.833,6.334,2.833l4.5,3.333c0,0,0.334-1.832,1-3.166s1.166-3.5,1.166-3.5l-0.5-5.5c0,0,5.168-1.168,8.834-1.834
		s9.333-1.333,9.333-1.333l4,0.167l-7.833-4.167c0,0,4.499-0.999,6.166-1.333s4.834-1.001,7.334-1.334s9.167,0.166,11,0.5
		s6.833,3.5,6.833,3.5s-0.333-3.166-0.5-3.833s-1-3.333-1-3.333s2.167,1.5,3.5,4s1.833,3.666,2.333,6.333s0.5,2.333,0.667,6.5
		s-0.832,7.333-1.166,9.333s-0.667,3-2.167,6s-1.167,3.334-3.5,6.167S234.276,140,234.276,140s6.666-3.166,9.833-5.333
		s5.167-4.5,6.667-6.167s5-5.833,5-5.833s1.667-3.834,2-5.167s1-4.666,1-6.333s-0.835-7.334-1.001-8.334s-2.833-10.5-2.833-10.5
		s1.167,1.166,2.5,3s3.833,4.667,3.833,4.667s0-3.833-0.333-7s-1.5-7.334-2.333-8.667s-3.833-4.666-4.5-5.166s-6.5-3.5-6.5-3.5
		l-3.833-1.5L238.609,73c0,0,3.333-2.167,3.833-2.667s4.5-2.833,4.5-2.833s-4.999,0-7.166,0.833s-7.833,1.667-8.5,2.167
		s-4.666,1.833-6.5,3.5s-7.167,6.167-7.167,6.167l-4.333,4.666c0,0-3.334,3.168-4.667,5.001s-4.667,5-5.5,5.5s-7.667,3.5-7.667,3.5
		l-4,0.833c0,0-2-1-3.333-1s-5.166,0.5-5.166,0.5s0.5-0.333,2.5-1.5s5.5-3,5.5-3s-5.833-0.166-7,0s-5.5,0.832-6.167,1.166
		s-3.833,1.334-3.833,1.334l2.666-3.667c0,0-2.999-0.332-4.666,0.334s-5,2.5-5.5,3s-1.834,1.666-1.834,1.666l0.5-4.166l-6.166,4.166
		l-3-0.166l4.333-5c0,0-10.501,3.334-11.167,3.5s-3.833,0.333-3.833,0.333l5.166-7.5c0,0-4.166,1.999-5.166,2.666
		S139.609,94,139.609,94l-4.333,1l-2.167-0.333L136.776,90l-9.167,0.833L129.276,89c0,0-8.833-4.167-10.333-5s-5.167-5-5.167-5
		s-0.834-2.333-1.167-4.333s-2-6.167-2.5-6.667s-2.166-3.167-2.666-3.667s-1.167-1.167-1.167-1.167s2.667-1.666,4.5-2.833
		s3.833-2.334,5-4.167s6.333-10.667,6.333-10.667s1.668-5,1.834-5.667s1-8.167,1-8.167l-0.667-6.833l-0.333-4.167
		c0,0-1.001,7.167-1.334,8.333s-1.666,5.5-2.333,7.167s-2.999,6.167-3.333,6.667s-3.834,5.667-3.834,5.667l-4.833,4.667
		l-3.333,3.333l-0.667-9l-1.5-6c0,0-9.5-6.333-10.5-6.833S85.109,31,85.109,31l-9.333-3.333l-9.5-2.167"/>
	<path fill="#737679" d="M153.609,141.166c0,0,0,5.167-0.333,7.167s-1.167,4.001-1.667,5.667s-4.499,12.166-5.166,13.333
		s-5.334,7.167-5.334,7.167l-0.833,0.833c0,0-5-0.667-6-0.5s-3.834,0.333-4.834,0.833s-6.5,5.334-6.5,5.334l1.334,1.833l6.666,1
		c0,0,4.667-0.001,5.667-0.167s6.334-0.999,7.167-1.166s2.333-0.5,2.333-0.5s4.334-6.334,5.167-7.667s5.167-7.666,6-8.833
		s17.333-18.167,17.333-18.167l-9.167,2.5l8-7.5c0,0-4.999-2.167-7.166-3.167s-6.5-4-6.5-4l-0.834-0.5l-2.666,1.667l3.833,0.333
		c0,0-1.333,0.834-2.333,1.667S153.609,141.166,153.609,141.166z"/>
	<path fill="#737679" d="M91.608,134.499l4.625,15.5l-8.375,20.75c0,0-6.125-0.125-7,0.25s-4.5,1.75-5.625,2.375s-3.5,2.875-4,3.5
		s-1.875,2-1.875,2s2,1.625,3.125,2s4.875,0.75,5.625,0.875s6.875,0.5,6.875,0.5s4-3.375,4.625-3.75s3.5-2.375,4.375-2.75
		s2.5-0.75,2.5-0.75l5.75-12.5l10.5-5.5l0.75-1.875l-2.625-0.5l2.875-0.125l0.875-2.25c0,0-1.75-2.25-2-3.75s-0.75-5-0.75-5
		s-2.375-3.375-3-3.5s-4.375-2.125-5-2.375s-5.625-1.625-5.625-1.625l-3.375-0.875L91.608,134.499z"/>
	<polyline fill="#E7EDF2" points="59.941,50.666 65.774,49.499 65.441,53.166 60.107,51.332 	"/>
	<ellipse fill="#FFFFFF" cx="79.191" cy="50.499" rx="13.75" ry="13.5"/>
	<ellipse fill="#FFFFFF" cx="59.357" cy="40.499" rx="11.75" ry="10.5"/>
	<path fill="#FFFFFF" d="M14.274,33.999c0,0-0.333,1.5-0.167,3s1.333,3.5,1.333,3.5l2.167,2.667l1,1.667l4.667,0.667l-1.333-4.667
		l-2.333-3.5l7,2.5l0.833-2.5l0.5-0.667c0,0-4.333-2.833-4.833-2.833s-2.667-1.333-3.333-1.167s-4.167-0.167-4.167-0.167l-1.5,0.667
		"/>
	<path fill="none" stroke="#000000" stroke-width="0.5" d="M57.441,104.666c0,0-0.333,1.833-0.167,2.833s0.5,2.168-0.333,2.334
		s-2.667,0-2.667,0l-2.167-1.334l-1.5-1.5"/>
	<path fill="none" stroke="#000000" stroke-width="0.75" d="M52.108,108.499l-0.833,1.5c0,0-1.167,1-1.667,1s-1.667-0.833-2.167-1.5
		s-1.5-2.5-1.833-3.166s-0.833-3.667-0.833-3.667s-0.167,1.166-1.667,2.333s-3.5,1.667-5.167,1.667s-5.5-0.334-5.5-0.334
		s-2.167-1.5-2.833-1.833s-3-3.167-3-3.167l0.333-1.833c0,0,0.667,0.167,2.667,0.167s5.667,0.166,7.333-0.167
		s3.833-0.167,6.333-1.167s4.166-1,6.833-2.5s5.333-2.667,6.833-4s4.167-3.333,5.667-4.833s3.833-4.167,4.333-5
		s0.667-8.833,0.667-8.833s-0.833-3.833-1.5-4.5s-1.333-3-2-3.5s-2.333-2.5-3.667-2.833s-2.333-0.833-3.167-0.333
		s-2.834,1.667-4.167,2.5s-3.5,2-4.833,2.667s-4.167,1.167-5.5,1.667s-4.666,0.833-6.333,0.833s-6.333-0.333-8-0.833
		s-2.833-1-5.833-2s-4.833-1.5-5.667-2s-4.833-2.667-4.833-2.667s-1.833-1.833-2.833-3s-1.334-2.667-1.667-4.5s-0.167-6.5-0.167-6.5
		s1-2.833,1.833-4.333s2.167-3.167,2.5-3.667s2.5-2.167,2.5-2.167"/>
	<path fill="none" stroke="#000000" stroke-width="0.75" d="M14.275,33.333c0,0-0.5,1.5-0.5,2.833s1,3.5,1.667,4.667
		s3.167,4.333,3.167,4.333s0.834-0.166,2.667,0.167s5.667,0,5.667,0l4.5-0.667l4.5-1.167c0,0-5.333-5-5.833-5.5
		s-6.167-3.667-6.167-3.667s-3.167-1-4.167-1.333S14.942,32.833,14.275,33.333z"/>
	<path fill="none" stroke="#000000" stroke-width="0.75" d="M27.274,35.833c0,0,2.333,0.5,4.333,0.667s6.667,1.333,6.667,1.333
		l4.167,0.833l5.167,1.667"/>
	<path fill="none" stroke="#000000" stroke-width="0.75" d="M64.775,30.333v-4.167c0,0,3.333-0.167,5,0.167s5.5,1.167,7.667,2
		s5.167,2.167,7.167,2.833s4.333,1.833,7.5,3.5s6.834,3.833,6.834,3.833l3.833,2.833c0,0,5-3.5,6.833-5.333s14-14.833,14-14.833
		s1,6.5,1,8.333s-0.667,8.167-1,9.333s-1.167,4.833-2.167,6.667s-2.332,4.833-3.166,6.167s-1.833,3.167-3,4.833
		s-3.334,3-4.667,4.167s-4.5,2.5-4.5,2.5s0.667,1.333,2,2.333s2.499,3.5,3.333,5.167s2.167,7.833,2.167,7.833
		s-2.501-1.333-3.667-1.833s-5.833-2.5-5.833-2.5l-1.167-0.833c0,0,2.168,4,2.334,5.333s0.833,3.666,0.833,5.333
		s-0.333,6.333-0.333,6.333s-2.333-4.166-3.5-5.333s-3.667-4.5-3.667-4.5s0.834,3.167,1.167,5.5s-0.166,3.999-0.5,5.333
		s-1.834,4.334-1.834,4.334s-0.167-3.5-0.833-5c-0.667-1.5-2.333-3-2.833-4s-2-2.5-2-2.5s-0.166,3.666-0.333,5.333
		s-0.667,3.167-1.5,4.667s-3.833,5.333-3.833,5.333s0.667-3.001,0.333-4.167s-2.333-6.333-2.333-6.333l-2.5-4.667l-3.167-3.5
		l-2.167,10.5l-4-6c0,0-2,5.668-3.333,7.501s-3.5,4.166-4.167,4.666s-2.5,2.5-2.5,2.5s0.833,2.168,1.167,2.834s1.5,2.5,1.5,2.5
		s-2.167,0-3.5,0s-4.667-0.334-4.667-0.334l-3.167-0.833"/>
	<path fill="none" stroke="#000000" stroke-width="0.75" d="M78.441,28.833c0,0,2.5-2.167,3.667-4.833s3.667-7.5,4-9.333
		s0.833-7.667,0.833-7.667s2.667,4.667,4,6.333s2.167,3.5,2.833,5.833s1.333,3.833,1.333,6.5s0.334,4.833,0.167,6.333
		s-1,3.667-1,3.667"/>
	<path fill="none" stroke="#000000" stroke-width="0.75" d="M10.441,60.666c0,0-0.167,2.834,0,4.667s0,4.166,1.167,5.333s3,3,3,3
		l0.5-4.167c0,0,1-1,1.833-0.333s2.333,2.167,2.333,2.167l3.167-0.833l1.667,1.5h3.167l1.333,1.333l3.167,0.5c0,0,0.833,2.5,1,3.667
		s0.333,2.667,0.333,2.667s1.5,0.5,2.333,0s2.5-2.167,3.167-3.167s1.5-2.667,1.833-3.167s1-1.333,1-1.333h4l2-2.5l3.333-0.667
		l3.333-3.667l1.167,1.333l2.667-2l2,0.833l2.167-2.333"/>
	<path fill="none" stroke="#000000" stroke-width="0.75" d="M26.941,99.499c0,0-0.5-1.499-0.5-2.833s0.167-5.167,0.167-5.167
		s3.667,1.834,4,2.667s1.167,1.5,1.167,1.5s1.667,0,3,0s4-0.001,5-0.834s2.333-2.5,2.333-2.5l0.5-5.333c0,0,1.5,0.667,2.5,2
		s2,4.333,2,4.333l1,0.834l1.5-0.834l1-2.666l2.333,0.333l0.667-2.333l1.833,0.5l1.5-3.334l2.5-0.166l0.833-2.167l1,0.5v-1.333
		c0,0,1.333,0.167,1.833,0s0.5-4.834,0.5-4.834l1.5,0.334l-0.167-1.167h2.667"/>
	<path fill="none" stroke="#000000" stroke-width="0.75" d="M30.608,94.166c0.167-0.334,3.667-3.668,5.5-6.334s4.5-7.667,5-9
		s2.333-6.167,2.333-6.167"/>
	<path fill="none" stroke="#000000" stroke-width="0.75" d="M91.275,91.166c0,0,0.167,2.667,0,4.5s-1.167,3.833-1.667,5.333
		s-1.833,4.834-2.667,6.334s-1.5,2.667-2.833,5s-6.667,8.333-6.667,8.333l4.833-0.167"/>
	<path fill="none" stroke="#000000" stroke-width="0.75" d="M82.775,118.166c0,0-0.5,3.667-0.333,5s0.5,3.333,1.333,5
		s0.833,2.167,3.167,3.667s2.167,1.499,5.333,2.499c3.166,1,3.167,1.5,6.167,2s2.833,0.501,5.333,1.334s2.5,1.166,4.5,2.333
		s4.833,4.833,4.833,4.833s-0.332-2.833-0.666-3.333s-2-3.167-2-3.167"/>
	<path fill="none" stroke="#000000" stroke-width="0.75" d="M110.608,128.833c0,0,0.667,6,1.667,9.667s2.833,11.5,2.833,11.5
		l-9.333,24.166c0,0-3.333-0.166-5.5,0.167s-4.5,0.501-6.5,1.667c-2,1.166-5.5,3.499-6.5,4.166s-2.833,3-2.833,3
		s1.833,1.501,3,1.834s5.667,1.334,8.333,1.5c2.666,0.166,8.5-0.334,10.833-0.667s5.667-1.5,5.667-1.5l9.667-19.166L137.275,157
		l-5.667-3h6.5c0,0-3.167-3.167-3.667-5.167s-1.167-4.833-1.5-6.5s0-9,0-9"/>
	<path fill="none" stroke="#000000" stroke-width="0.75" d="M88.441,185.166c0,0,0.667-1.667,1.5-2.5s3.333-3.333,3.333-3.333
		l1.833-1"/>
	<path fill="none" stroke="#000000" stroke-width="0.75" d="M95.775,186.5c0,0,1.834-2.833,2.667-3.5s3.333-2.667,3.333-2.667"/>
	<path fill="none" stroke="#000000" stroke-width="0.75" d="M91.774,134l4.5,16l-8.5,20.833c0,0-6.166,0.167-7.833,0.5
		s-4.5,1.833-6,2.833s-4.833,4.5-4.833,4.5s0.333,1,3.167,2s6.167,1.501,7.333,1.334s5.5,0.166,5.5,0.166"/>
	<path fill="none" stroke="#000000" stroke-width="0.75" d="M72.274,180.666c0,0,1.667-2,2.5-3s3.5-2.833,3.5-2.833"/>
	<path fill="none" stroke="#000000" stroke-width="0.75" d="M78.608,181.833c0,0,1.5-1.667,2.333-2.5s3.667-2.167,3.667-2.167"/>
	<polyline fill="none" stroke="#000000" stroke-width="0.75" points="96.275,175 101.608,163 112.608,157.167 	"/>
	<polyline fill="none" stroke="#000000" stroke-width="0.75" points="113.275,155.333 110.775,154.333 113.608,154.167 	"/>
	<path fill="none" stroke="#000000" stroke-width="0.75" d="M114.442,152.333c0,0-1.333-2-1.5-3s-1-6-1-6"/>
	<path fill="none" stroke="#000000" stroke-width="0.75" d="M136.775,152.333c0,0,3.999-1.501,4.666-1.667s1.5-0.5,1.5-0.5
		l-2.666-2.5c0,0,4.999-0.333,6.166-0.833s7.834-3,7.834-3L150.608,143c0,0,1.834-1.167,4.334-2.667s4.833-3.666,4.833-3.666
		l-3.5-0.167l2.667-1.5"/>
	<path fill="none" stroke="#000000" stroke-width="0.75" d="M153.275,141.5c0,0-0.333,6.999-0.833,8.666s-2.333,7.834-3,9.834
		s-3.334,7.166-3.834,8.166s-4.833,6.667-4.833,6.667s-7.001,0-8.834,0.5s-4.167,1.001-5,1.834s-4.333,4.333-4.333,4.333
		s0.166,1.167,2.833,1.667s7.167,0.666,7.167,0.666l8.5-0.666l4.833-1c0,0,5.166-7.5,6.5-9.667s4.668-7.001,7.334-10.167
		s8.833-8.666,8.333-8.333s6-6,6-6l-8.833,1.667l7.666-7.167"/>
	<path fill="none" stroke="#000000" stroke-width="0.75" d="M113.608,78.499c0,0,1.167,3.002,4.167,4.668S129.108,89,129.108,89
		l-1.666,1.833c0,0,8.333-0.166,8.833-0.666s-3.167,4.5-3.167,4.5s2.167,0.833,5.167,0s6.333-1.667,8.833-3s3.5-1.833,3.5-1.833
		l-5.5,7.5c0,0,2.833-0.334,5-1.167s9.834-2.5,9.834-2.5l-3.667,4.667c0,0,1.167,0.5,3-0.5s5.5-3.167,5.5-3.167l-0.667,3.667"/>
	<path fill="none" stroke="#000000" stroke-width="0.75" d="M197.942,109.833c0,0,0.333,2.667,0.166,4.167s-1,3.333-1.333,5
		s-1.5,4.333-4.167,9s-1.333,3.333-1.333,3.333l8.5,10.5l-9,8.5l10.166-2.833c0,0-6.666,6.833-9,8.833s-3.833,4-5.833,6.667
		s-4,4.167-6.333,7.5s-4,6.167-5.5,8s-4.5,7.333-4.5,7.333s-7.334,1.667-9.5,1.833s-6.834,0-6.834,0l0.834-0.833h-5.167l-3.5-0.5
		l0.5-0.667l-2-0.166c0,0,1.5-1.5,2.167-2.167s4.833-4,6.333-5s3.667-0.667,6.167-0.833s6,0.166,6,0.166s3.167-4.5,3.833-5.833
		s3.834-7.667,4.334-9s2.333-6.5,2.833-8.5s3-10.666,3-10.666l-4-1.167c0,0-5-1.5-7.167-2.5s-6.667-3.666-9.333-5.333
		s-4.167-4.667-5.667-7s-2.167-5.333-2.5-7.5s2.167-8.167,3.667-10.667s8.166-8.5,9.5-10s5.833-4.166,8.166-5.333
		s4.834-0.833,4.834-0.833l-2.5,3.666c0,0,2.334-0.834,4.667-1.334s5-0.833,7.833-0.833s4.333,0,4.333,0S187.941,96,186.108,97
		s-3.666,2.5-3.666,2.5s3.666-1,6.166-0.5s2.666,0.333,4,1.333s2.666,1.833,3.5,2.833s1.667,3.834,1.667,3.834"/>
	<path fill="none" stroke="#000000" stroke-width="0.75" d="M154.275,186.833c0,0,3.499-3.333,3.833-4"/>
	<path fill="none" stroke="#000000" stroke-width="0.75" d="M146.108,185.666c0,0,1.333-1.167,2-2s4.834-3.5,4.834-3.5"/>
	<path fill="none" stroke="#000000" stroke-width="0.75" d="M124.275,182.333c0,0,1.834-1.667,2.667-2.5s3.666-2,3.666-2"/>
	<path fill="none" stroke="#000000" stroke-width="0.75" d="M131.108,184c0,0,1.167-2.001,2.167-2.834s3.167-2.333,3.167-2.333"/>
	<path fill="none" stroke="#000000" stroke-width="0.75" d="M191.275,99.833c0,0,2.333-0.334,4-1.167s6-2.166,7.5-3.333
		s2.334-1.5,4.667-4s5.167-5.499,7.167-7.833s4-4.166,6-6s6.166-4.834,8.333-5.834s6.001-2.333,7.834-2.667s3.5-1,5.5-1.167
		s3.666,0,3.666,0s-2.667,1.667-4,2.667s-3.333,2.5-3.333,2.5s3.5,0.667,6.5,1.667s4.5,1.833,6.333,3s3.166,1.666,4.833,3.5
		s3.167,4.334,3.667,6.334s0.833,4.832,1,7.166s0.5,6,0.5,6s-2.833-4.167-3.333-4.5s-3.167-3.666-3.167-3.666
		s0.999,3.833,1.833,6.333s1.168,5.666,1.501,8.333s0.167,5.501-0.167,7.501s-1.166,5.666-2,7.333s-6.167,7.167-6.5,7.667
		s-5.333,4.832-6,5.166s-5,2.667-5,2.667l-4.833,2.833c0,0,1.5-3.834,2.833-7s2.166-7.832,2.333-8.666s-0.334-6.167-0.5-6.667
		s-1.833-3.667-2.333-4.5s-2.5-2.666-2.5-2.666l-2,10.166c0,0-3.334-6.833-3.667-7.333s-1.833-3.667-2.833-4.167
		s-5.001-2-6.667-1.833s-7.5,1-7.5,1l5.667,12.5c0,0-6.999-3.666-8.333-4.333S198.108,114,198.108,114"/>
	<path fill="none" stroke="#000000" stroke-width="0.75" d="M123.442,21.833c0,0-0.832,5.5-1.166,7.5s-0.666,3.167-1.5,5.5
		s-1.5,3.167-2.167,4.667s-1.167,2.5-2.167,4s-3,4.167-3.5,4.833s-2.666,3-3.333,3.5s-1.833,1.5-1.833,1.5"/>
	<path fill="none" stroke="#000000" stroke-width="0.75" d="M18.608,45.166c0,0-2.166,4.667-2.666,6.501s-1.333,5.334-1.5,7.167
		s0.333,4.5,0.333,4.5"/>
	<line fill="none" stroke="#000000" x1="65.442" y1="51.167" x2="93.108" y2="49.833"/>
	<line fill="none" stroke="#000000" x1="50.108" y1="33.667" x2="65.442" y2="48.833"/>
	<path fill="#050505" d="M22.274,45.499c0,0-0.833-0.5-1.667-1.833s-2.333-3.833-2.333-3.833l-0.667-1.833c0,0-0.167-1,0.667-1.5
		s3.167-0.167,3.167-0.167l5.333,3l-1.5-4.333c0,0,3.334,1.501,4.834,3s5.833,5.5,5.833,5.5s-3.168,0.833-3.834,1
		s-4.333,0.833-4.333,0.833l-2.667,0.167h-2"/>
	<ellipse fill="none" stroke="#000000" stroke-width="0.75" cx="79.108" cy="50.667" rx="13.667" ry="13"/>
	<path fill="none" stroke="#000000" stroke-width="0.75" d="M59.442,29.333c-6.443,0-11.667,4.776-11.667,10.667
		c0,5.891,5.224,10.667,11.667,10.667c2.257,0,4.351-0.603,6.133-1.621c0.022-0.123,0.062-0.242,0.091-0.364
		c-0.047-1.091,0.28-2.244,0.892-3.161c0.054-0.126,0.106-0.252,0.172-0.372c0.004-0.042-0.001-0.081,0.019-0.128
		c0.419-1.012,1.056-2.035,1.897-2.79c0.422-0.571,0.947-1.055,1.534-1.45c0.278-0.282,0.593-0.534,0.928-0.753
		c0-0.009,0.002-0.019,0.002-0.028C71.108,34.109,65.885,29.333,59.442,29.333z"/>
</g>
<g id="frame_3">
	<path fill="#E7EDF2" d="M69.024,17.458l0.5,23.833l-1.667,5.333c0,0,8.167,8.167,8.5,9.167s7.167,3.667,7.167,3.167
		s-0.167-17.167-0.167-17.167l-5.167-13.667l-8.667-11.333"/>
	<path fill="#E7EDF2" d="M32.691,33.292c0,0,5.5,5.833,6.333,7.5s2.333,5.333,2.833,7.167s0.5,7.5,0.5,7.5l16.667-7
		c0,0-3.5-6.167-4.5-7s-5.167-4.5-7.833-5.333s-7.833-2.333-7.833-2.333L32.691,33.292z"/>
	<path fill="#E7EDF2" d="M31.524,61.625c0,0,10,6.833,10.5,7s5.5-0.833,5.5-0.833l6-7.667c0,0,7.167-1.5,7.667-1.333
		s7.167,5.167,7.333,5.833s1.5,7.833,1.5,7.833l-4.167,6.5l-7.333,2.167l-5.833-1.833l-8.333,0.166c0,0-3.833,3.333-4.333,3.5
		s-7-0.666-7-0.666l-3,1.5L15.191,94.625L2.357,105.458c0,0,0.334,5.833,1.167,7.333s1,3.168,2.333,3.334s2.167-0.001,3.667-1.334
		s3.5-2.666,4.167-2.333s3,0.167,5.667,0.167s6.5,0.166,7.833-1.167s7.5-7.166,9.667-10.333s3.167-4.833,4.833-6.5s1-1.334,4-2.167
		s4-0.333,6.5-0.5s3-0.333,5.333,1.167s1.5,2,1.5,2s0.5,3.5,0.167,7s-0.333,4.999-2.167,7.666s-2.167,3.834-5.167,4.334
		s-5.5,1.166-7.667,1.333s-7-0.166-7.5,0.167s-2.333,0.167-4.667,1s-1.667,0.334-5.167,2s-11.167,4.166-11.167,4.166l-0.833,0.334
		c0,0,0.5,1.332,2.667,1.666s8.167,0,8.167,0l4.167-0.833l3.5-1.167l3.667-2.333c0,0,0.666,2.999,1.833,4.333
		s3.833,4.334,3.833,4.334s1-1.334,1.333-1.667s1.333,0.333,3,0.5s2.667-1,2.667-1l0.167-4c0,0,2.167,0.499,3.5,0.333
		s3.833-2,3.833-2l-2.833-4.166c0,0,3.333-3,4.5-4.5s5.667-8.001,6.333-10.334s1.333-5.166,1.333-5.166l9.167,1
		c0,0,4,2.333,3.833,2.833s0.167,11.833,0.167,11.833l1.833,0.334c0,0-2.5,5-3.167,6s2,0.5,2,0.5l2.667-0.667
		c0,0-0.167,6.333,2,8.833s3.333,3.834,5.833,4.667s10.833,4.333,11.333,4.833s10.167,5.834,10.167,5.834s1.833-0.667,1.833-0.167
		s1.334,2.833,1.334,2.833v2.834l-9,23.333l-8.834,0.5c0,0-3,0.834-4.5,1.667s-7.167,5.5-7.167,5.5l-1,2.166l3.5,2l0.5,1
		c0,0,5.834,0.501,9.5,0.334s12.666-2.334,12.666-2.334l2.667-13.333l7.833-9.333c0,0,6.999-8.501,6.833-9.001
		s5.834,0.834,5.834,0.834l4.166-2l4.667-1.834l-2.5-1.833c0,0,3.501-0.667,5.167-1s9.333-3.333,9.333-3.333l-4-1.167
		c0,0,5.667-3.333,7-4s2-1.167,2-1.167l-2.5-0.166l1.5-2.334l11.334,8.001l3.833-0.334l4.167,2c0,0-3.333,13.333-4,15.5
		s-9,17.667-9,17.667s-7.166-0.667-8.5-0.667s-5,1.499-6,2.333s-3.834,3.166-4.334,4s-2.166,2.334-2.166,2.334l1.666,0.5l-0.5,1.333
		c0,0,3.833,0.333,7,0.833s8.833,0,10.5-0.333s7.334-8.5,7.334-8.5s14.166-20.334,14.166-20.167s4.833-14.666,4.833-15.333
		s-1.5-9.667-1.5-9.667l-1.333-6.5l6.833-7.166l2.834-4.667c0,0,4.167-1.167,5-1.167s16.333,6.5,16.333,6.5l-5.832-12
		c0,0,5.166-0.5,7.833-0.333s4.5-0.001,6,1.333s6.5,11.834,6.5,11.834l2-12.334c0,0,2.167,3.334,3.667,6.334
		s1.832,8.166,0.999,11.666s-4.5,12.167-4.5,12.167l10.167-7.667c0,0,8.833-23.334,8.5-24s-5.834-18.833-6.667-18.833
		s-12.166-0.834-13.666-0.167s-21,9.167-21.667,9.667s-19.833,7.499-20.333,7.833s-23.5,1.834-23.5,1.834s-37.334-4.834-38-4.834
		s-8.334-8.833-8.667-8.333s-14.5-13.333-14.5-13.333s-13-9.5-13.5-9.5s-17.833-15-17.833-15l-8.833-7l-19.833,6.667l-14.5,4.667"/>
	<path fill="#A1A5A9" d="M196.191,116.124c0,0-4.5,2.834-7,4.834s-3.667,3.667-5,6s-1,4.333-0.5,6.333s1.5,3.167,2.667,5
		s3.5,3.333,3.5,3.333l-6.667,9.5l2.834,0.334c0,0-4.834,4.167-6.334,7s-5.167,9.334-6,11.167s-9,15.666-9,15.666l5.834-0.5
		l11.833-18l14.833-15.666l5.667-6l-10.833,3l8.833-7l-8.833-11.001c0,0,3.166-6.832,3.666-8.166s2.334-5.5,2.334-5.5
		L196.191,116.124z"/>
	<path fill="#A1A5A9" d="M134.358,128.291c0,0-2.333,1.501-3.833,4.167s-2.334,3.333-2.834,6.833s-0.666,10.5-0.666,10.5
		l-6.334,1.333l4.667,4.667c0,0-1.833-0.167-4.333,1.333s-4.666,3.834-6,6.334s-1.834,6.5-2.667,8.5s-0.667,3.999-2.167,6.166
		s-5.5,6.334-5.5,6.334l8.334-1.834l9.5-18.833l15.833-8.833l-5.833-2.667h6c0,0-1.5-0.001-2.5-2.667s-1.501-6-1.834-7.833
		S134.358,128.291,134.358,128.291z"/>
	<path fill="#737679" d="M80.816,52.333l-0.5,3.375l-12.125-9.75c0,0-12.625,3-14.125,3.75s-14.5,5.75-15.875,6.625
		s-5.625,4.375-5.625,4.375l10,0.75l13.25-8.75c0,0,9.5-0.375,10.5-0.125s3.5,2.25,5.375,5.25s5.25,9.25,6.375,11.625
		s3.25,8.375,3.25,8.375l-16.875,7c0,0,8.25-1.625,15.125,0.25s8.875,2.5,12.375,6s5,6,5,6s0-5.875-0.625-6.625
		s-5.875-6.25-5.875-6.25s3.25-0.125,4.875,0.375s7.875,3.25,7.875,3.25l-3-4.875c0,0,1.75-0.5,3.75,3s2.75,9,2.375,11.25
		s0,2.625-1.5,5.125s-2.25,4-2,6.875s0.125,6,1.125,7.625s2.875,4.375,2.875,4.375s0-4.375,0.25-6.25s1.25-2.625,1.25-2.625
		s0.125,2.75,1.875,5.625s2.125,4.125,4.875,5.875s7.5,3.875,7.5,3.875s-1.75-2.125-2-3s2.125,1.125,4.375,1.375
		s10.5,0.375,10.5,0.375s-1.125-0.5-3.5-1.875s-2.25-3.5-2.25-3.5s1.625,1.125,5.25,1s5.25,0.125,9.125-1.125s7.125-2.5,10.5-3.5
		s8.375-1.75,11.75-1.75s5.125,0.125,8.625,0.625s9.125,2.875,9.125,2.875s-0.75-3.5-1.875-5.125s-2.25-3.875-2.25-3.875
		s4.25,0.125,6.625,1.375s6.75,3.25,8.125,4.125s2.625,2.25,2.625,2.25s0.875-2.75,1.25-5.625s-0.375-6.875-0.375-6.875
		s0.625-0.25,5.5-0.875s10.125-1.625,12.5-1.875s4.75-0.25,4.75-0.25l-8-3.625c0,0,2-0.5,5.5-1.5s3.625-1.5,9.75-1.75
		s10.875,0.875,12.75,1.875s3.5,1.875,3.5,1.875s-0.625-3.5-1.25-5.125s-0.5-2.125-0.5-2.125s2.75,2.75,4,4.75
		s1.75,3.25,2.125,5.625s0.75,8,0.5,11s-0.375,2-1.625,6.375s-1.625,5.75-3.625,8.5s-9.75,10.125-9.75,10.125
		s11.875-6.625,15.5-10.25s6.625-6.875,7.5-9.125s1.875-9.5,1.75-11.375s-1.375-11.5-1.75-12.5s-0.75-4.125-0.75-4.125l5.5,8.625
		c0,0,0.125-5.75-0.375-7.75s-2-6.5-2.75-7.75s-1.875-4.125-3-5s-5.25-4.125-7.5-4.75s-6.125-1.875-7-1.875s-3-0.375-3-0.375
		l9.125-6.25c0,0-10.625,1.75-13,2.375s-8.375,3.25-9.75,4.125s-6.125,4.5-7.125,5.375s-2.125,3.375-3.875,5.375
		s-4.75,5.125-6.875,6.875s-6.125,4.5-8.375,5.625s-5.875,3-5.875,3s-3-1.5-4.75-1.625s-3.875,0-3.875,0l7.125-3.875
		c0,0-7.875,0-9.125,0.125s-8,2.125-8,2.125l4.125-4.875c0,0-6.625,2-7.875,2.75s-4,2.625-4,2.625l-0.25-3.25
		c0,0-1.5,0.875-2.75,1.875s-5.5,2.125-6.25,2.125s-0.75,0-0.75,0l4.625-5l-15.25,4.375l6.125-8.5c0,0-6.375,3.5-9.125,4.25
		s-9,1.25-9,1.25s2-1.375,3.25-3s2-2.5,2-2.5s0.25,0.5-2.875,1.25s-7.625,0.125-7.625,0.125l2-2c0,0-3.625-1-5.625-2
		s-6-3.375-7.75-4.625s-9.75-6.625-10.875-7.25s-10.625-6.75-10.625-6.75s0.5-0.75,2.125-1.375s2-0.875,3.125-0.625
		s2.125,0.625,2.125,0.625s-3.25-2.375-4.5-3.25s-2.75-2.375-4.375-2.375s-3.375,0-4.375,0.25s-3,0.25-3,0.25s1.5-1.875,1.5-4.875
		s-0.125-8.875-0.625-10.25s-2.625-7.625-3.25-8.75s-3.75-9-4.5-9.625s-6.25-6.75-6.875-7.125s-4-1.875-4-1.875s4.625,6,5.625,8.25
		s2,3.875,2.75,6s2.375,5.125,3,7.25s0.625,5.5,0.75,7.125S80.816,52.333,80.816,52.333z"/>
	<path fill="#737679" d="M92.566,133.208l4.375,14.75l-8.625,21.25l-7,0.125c0,0-4.375,1.25-5.5,2s-4,3.375-4.625,4
		s-2.125,2.625-2.125,2.625l3,0.625l-0.5,0.625c0,0,2.625,1,3.625,1.125s10.25,0.5,10.25,0.5s1.25-1.875,2.5-2.875
		s4.125-3.25,4.625-3.375s2.875-1.375,3.375-1.5s1.75-0.875,1.75-0.875l5.125-10.625l10.375-6l0.75-2.25l-3-0.875l3.375-0.25
		l0.625-1.5c0,0-1-1.375-1.375-2.125s-0.625-6-0.625-6s-3.5-3.25-4.5-4s-5.625-3-7.375-3.625S92.566,133.208,92.566,133.208z"/>
	<path fill="#737679" d="M154.316,139.333c0,0-1,7-1.5,9s-4.125,11.5-4.625,12.625s-6.25,12.25-6.25,12.25s-9.875,0-10.375,0
		s-2.625,1.125-3.875,2s-1.5,1-2.375,2.125s-2.25,3.25-2.25,3.25l2.375-0.125l-1,0.875c0,0,1.625,0.625,3.75,0.75
		s4.875,0.5,7.125,0.375s6.5-0.875,6.5-0.875l5.125-1.125c0,0,1-2.25,1.75-3.625s4.375-7.125,6.75-10.125s20.25-21.375,20.25-21.375
		l-10,2.25l8.5-6.75c0,0-2.875-1.375-5.25-2.375s-6.125-3.75-6.125-3.75l-2.875-1.625l-2.25,1.125l2.5,0.75
		c0,0-1.625,1.375-2.75,2.25s-2.625,2-2.625,2"/>
	<ellipse fill="#FFFFFF" cx="58.192" cy="69.958" rx="13.667" ry="13.5"/>
	<ellipse fill="#FFFFFF" cx="36.025" cy="75.124" rx="11.5" ry="11"/>
	<path fill="#FFFFFF" d="M14.525,95.958c0,0-2.5-1.166-3.667-0.5s-6.5,3.333-7.167,3.833s-3,2.166-3.167,2.833
		s0.166,2.334,0.833,2.834s4,2,4,2l6.833,0.833l2-2.333l-3.333-3.667l3.667-4.5V95.958z"/>
	<path fill="#FFFFFF" d="M8.359,115.958l5.833,2.833l0.5,4c0,0,2.5-1.001,4.5-1.667s8.333-3.334,10-3.5s6.667-0.999,8-1.166
		s8.5-0.667,10.167-1.167s1.667,0.333,3.667-0.667s3.167-1.167,4.667-3s2.667-4.5,3-6s0.667-5.666,0.667-5.666l-8-0.167l3-7.667
		c0,0-3.167-0.333-5.167,0.167s-3.833,0.167-5.167,1s-1.5,0.833-2.667,2s-2.667,2.667-3.5,4s-3,4.334-4.5,6.167
		s-7.333,7.333-7.333,7.333s-5.667,0-7.167,0s-5-0.334-5.5-0.167s-1.5,0-1.5,0L8.359,115.958z"/>
	<path d="M54.359,92.124l-2.667,8.834h7.667c0,0-0.333-3.5-0.5-4.5s-0.167-2.334-0.167-2.334l-3.333-1.833"/>
	<path fill="none" stroke="#000000" stroke-width="0.75" d="M33.191,65.333l-2.5-3.25c0,0,3.5-3.375,5.25-4.375s8.125-4,8.125-4
		s10.75-4.125,13.625-5.25s10.125-1.875,10.125-1.875s0,0,0.125-0.875s1-4.125,1-4.125s0.375-15.5,0.375-18.125
		s-0.5-6.125-0.5-6.125s1.75,0,3.625,1.5s3.875,3.625,5.875,5.875s5.125,9.75,5.125,9.75s3.375,8.25,4,11s0.875,7.875,0.625,9.25
		s-1.375,5.375-1.375,5.375s4.375-0.625,5.75-0.625s2.75,0.5,4,0.875s6,4.375,6,4.375s-2.25-0.375-3.75,0.125
		s-7.125,3.625-7.125,3.625s0.875,0.125,2.375,0.875s5.375,3.75,5.375,3.75l4.125,4.625l-7.875-0.625"/>
	<path fill="none" stroke="#000000" stroke-width="0.75" d="M93.191,75.333c0,0,3.375,2.625,5.625,5.625s4.25,6.75,4.25,6.75
		l-7.25-2.75l-4.875-0.875c0,0,3.5,3.875,4.375,5.125s1.75,7.875,1.75,7.875s-6.25-3-7.25-3.25s-10.5-2.625-10.5-2.625l5.375,8.625
		c0,0-5.5-1.125-6.875-1.375s-11-0.875-11-0.875s-2,5.625-2.875,7.625s-4.375,6.5-6,8.5s-3.875,3.375-3.875,3.375l2.75,4.125
		c0,0,0.375,0.25-0.75,1.125s-6.625,1.25-6.625,1.25s0.25,3.625-0.125,4.25s-3,0.375-3,0.375s-2.625-1.625-3.125-2
		s-1.5-2.625-1.5-2.625"/>
	<path fill="none" stroke="#000000" stroke-width="0.75" d="M44.191,126.708c0,0-0.25,2.25-0.75,2.5s-2.125-0.625-2.125-0.625
		s-2.625-4-3.125-4.5s-1.375-3-1.375-3s-1.125,1-3,2s-3.625,1.375-5.375,1.625s-4.625,0.25-6.75,0.5s-3,0-4.625-0.375
		s-2.5-1.75-2.5-1.75s5.625-2.25,8-3.125s5.875-2.125,8.5-2.875s2.625-0.25,6.875-0.875s7.75-0.25,10-0.75s3.375-0.75,5.125-1.875
		s3.125-1.5,4.375-4.375s1.625-6.625,1.625-8s-1.375-7.125-1.375-7.125"/>
	<path fill="none" stroke="#000000" stroke-width="0.75" d="M0.441,102.333c0,0-0.5,1.375,1.25,2.625s4.5,2.125,6.25,2.25
		s4.125,0.375,4.125,0.375s3-2.125,5-4.375s5.75-7.875,5.75-7.875s-6.375-0.375-8.875,0s-4.375,0.625-6.625,1.75
		s-5,3.25-5.625,3.875S0.441,102.333,0.441,102.333z"/>
	<path fill="none" stroke="#000000" stroke-width="0.75" d="M60.316,95.583c-1.75-1.25-5.375-3.375-7.25-3.375
		s-3.875,0.25-5.75,0.375s-2.875,0.625-4.375,1.75s-2.5,1.875-3.5,3.375s-7.125,8.75-9.25,11.5s-4.5,3.875-4.5,3.875
		s-10.25-0.25-12-0.25s-2.75,1-2.75,1s-3.125,2.75-4.125,2.75s-2.375-1.25-3.125-2.75s-1.125-3.375-1.375-4.875s0-3.625,0-3.625"/>
	<polyline fill="none" stroke="#000000" stroke-width="0.75" points="8.066,116.333 14.066,119.083 16.941,117.583 19.066,117.583 
		21.566,115.708 25.316,116.333 25.941,114.958 28.441,115.083 30.191,112.583 	"/>
	<path fill="none" stroke="#000000" stroke-width="0.75" d="M54.566,92.583l-3.75,9.625l-3.75,0.25l-1,1.75l-2,0.5l-3,2.375
		l-2.625-1.5c0,0-0.625,2.25-1.125,4.375s-1.25,4.5-1.25,4.5s-2.375,0.125-3.75-0.25s-3.125-3.25-3.125-3.25"/>
	<line fill="none" stroke="#000000" stroke-width="0.75" x1="59.316" y1="100.708" x2="51.691" y2="100.583"/>
	<line fill="none" stroke="#000000" stroke-width="0.75" x1="14.066" y1="119.083" x2="14.566" y2="123.083"/>
	<line fill="none" stroke="#000000" stroke-width="0.75" x1="12.691" y1="95.458" x2="29.941" y2="84.458"/>
	<path fill="none" stroke="#000000" stroke-width="0.75" d="M69.316,17.583c0,0,2.25,2.75,4.125,6s3.75,8.125,4.75,10.25
		s1.375,3.625,2.125,6.125s0.375,0.25,0.75,4.5s0,8.25,0,8.25"/>
	<path fill="none" stroke="#000000" stroke-width="0.75" d="M41.941,54.583c0,0,0.625-2.375,0.25-3.875s-0.375-3.75-1.125-5.625
		s-2.125-5.25-3.125-6.375s-5.375-5.625-5.375-5.625s4.75,0.375,7,0.875s3.375,1,6.5,2.125s3.625,1.875,5.75,3.375
		s2.625,2,3.875,3.625s3.25,5.25,3.25,5.25"/>
	<path fill="none" stroke="#000000" stroke-width="0.75" d="M95.191,66.458c0,0,12.375,7.25,15,8.75s11.75,8.875,14.25,9.875
		s6,2.25,6,2.25s-1.625,2.125-2,2.125s4,0.375,5.75,0s4.25-1.125,4.25-1.125l-4.625,5c0,0,3.5,0,5.625-0.5s7.25-2.25,8.625-3
		s3-1.5,3-1.5l-5.25,7.75c0,0,0.5,0,3.875-0.875s10.625-3,10.625-3l-3.75,4.75c0,0,2,0.25,3.875-0.875s5.25-3,5.25-3l0.125,2.5"/>
	<polyline fill="none" stroke="#000000" stroke-width="0.75" points="75.191,98.583 79.441,101.083 79.566,113.208 81.191,113.208 
		84.316,109.583 	"/>
	<path fill="none" stroke="#000000" stroke-width="0.75" d="M81.191,113.208c0,0-0.125,2-1.25,3.5s-2.875,3.125-2.875,3.125
		s3.25,0.125,4.375-0.25s1.875-0.75,1.875-0.75"/>
	<path fill="none" stroke="#000000" stroke-width="0.75" d="M83.316,117.583c0,0-0.125,6.125,0.375,7.625s0.25,2.75,2.75,4.625
		s3.375,2.75,6.375,3.375s3.875,0.375,6.5,1.25s2.875,0.875,5,1.875s5,2.625,6.125,3.625s3.625,4.125,3.625,4.125
		s-0.75-3.625-1.375-5s-1.5-2.125-1.5-2.125"/>
	<path fill="none" stroke="#000000" stroke-width="0.75" d="M92.316,132.958l4.5,15.375l-8.5,21l-7.125,0.25c0,0-1.5,0.125-4,1.375
		s-5.75,4-6.5,4.75s-1.625,2.5-1.625,2.5l3.25,0.25"/>
	<path fill="none" stroke="#000000" stroke-width="0.75" d="M78.691,173.833c0,0-2.25,1-3.75,2.125s-3,3.625-3,3.625
		s3,0.75,4.375,0.75s9,0.125,9,0.125"/>
	<path fill="none" stroke="#000000" stroke-width="0.75" d="M79.566,180.458c0,0,0.75-1.5,1.875-3s2.75-2.5,2.75-2.5"/>
	<path fill="none" stroke="#000000" stroke-width="0.75" d="M88.316,183.833c0,0,0,0-1.125-0.375s-2.25-1.125-2.25-1.125
		s0.875-2.25,1.875-3.125s4.75-3.875,6.75-5s4.75-1.625,4.75-1.625l8-0.5l9.25-24c0,0-1.75-7.5-2.625-10.125
		s-1.875-10.625-1.875-10.625"/>
	<path fill="none" stroke="#000000" stroke-width="0.75" d="M95.566,176.583c0,0-4.25,2-5.25,3.125s-1.875,4.375-1.625,4.875
		s2.125,0.75,5.125,0.75s8.625-0.25,8.625-0.25s5.625-0.75,6.875-1s3.5-1.25,3.5-1.25l9.125-18.75l16.125-9.125l-5.625-2.75
		l5.625,0.125c0,0-2.125-3-2.875-5.375s-1-5-1.25-7s-0.375-8.125-0.375-8.125"/>
	<path fill="none" stroke="#000000" stroke-width="0.75" d="M95.691,185.708c0,0,0.375-1.5,1.5-3.125s4.625-3.75,4.25-3.625"/>
	<line fill="none" stroke="#000000" stroke-width="0.75" x1="86.191" y1="180.458" x2="83.191" y2="180.458"/>
	<polyline fill="none" stroke="#000000" stroke-width="0.75" points="96.941,172.833 102.441,161.708 112.316,156.333 	"/>
	<polyline fill="none" stroke="#000000" stroke-width="0.75" points="113.566,153.708 111.191,152.583 114.566,152.083 	"/>
	<path fill="none" stroke="#000000" stroke-width="0.75" d="M112.941,142.958c0,0,0,3.75,0.25,4.75s1.5,2.875,1.5,2.875"/>
	<path fill="none" stroke="#000000" stroke-width="0.75" d="M158.941,133.083l-1.625,1.625l2.5,0.5c0,0-1.75,1.75-2.875,2.625
		s-5.625,3.5-5.625,3.5l3.5,0.875c0,0-3.5,1.625-4.875,2.125s-9.375,1.75-9.375,1.75l3.25,2.25c0,0-0.75,0.75-1.875,1.25
		s-4.375,0.5-4.375,0.5"/>
	<path fill="none" stroke="#000000" stroke-width="0.75" d="M154.441,139.833c0,0-0.75,5.625-1.5,7.875s-4.625,13.25-5.875,15.875
		s-5.25,9.75-5.25,9.75h-10.25c0,0-2,0.625-3.875,2s-4.375,5.375-4.375,5.375l1.875,0.125"/>
	<path fill="none" stroke="#000000" stroke-width="0.75" d="M131.441,175.583c0,0-3,1.75-4.25,3s-2.125,2.625-2.125,3
		s3.125,0.75,5,0.75s3.5,0.375,6.125,0.125s5.125-0.25,7.375-0.875s3.25-1.375,3.25-1.375s0.875-1.375,2.25-3.5
		s2.125-4.375,6.5-10.125s19.5-20.875,19.5-20.875l-9.75,2.25l8.75-7"/>
	<path fill="none" stroke="#000000" stroke-width="0.75" d="M146.316,184.333l-2.375-0.125c0,0,1.625-2.125,3-3.375
		s5-3.75,7.25-4.75s10.75,0.25,10.75,0.25s4.125-5.75,5.75-9.5s4.25-10.25,5-12.875s2.875-11.375,2.875-11.375s0,0-2.375-1
		s-6.625-2.625-11.875-5.375s-10.875-8.375-12.125-11.625s-1.5-4.875-1.375-7.125s2-7.375,3.75-9.875s6.375-7.5,8.25-9.125
		s5.25-4,8.5-5.5s6.375-1.875,6.375-1.875l-3.5,4.25c0,0,3.375-1.25,6.25-1.75s11-0.375,11-0.375l-8.5,4.125c0,0,2.5-0.5,5.875,0
		s5.75,2.625,7.125,4.375s2.25,4.25,2.25,4.25"/>
	<path fill="none" stroke="#000000" stroke-width="0.75" d="M153.316,179.083c0,0-2.25,0.875-4.375,2.625s-3,3.75-3,3.75
		s0.125,0.5,3.375,0.75s6.875,0.5,9.875,0.5s11.125-2,11.125-2s6.875-10.125,9.125-13.5s9.375-11.875,10.75-13.25
		s12.5-12.625,12.5-12.625l-11,2.875l9-7.125l-8.875-10.875c0,0-1,1.875,2.375-5.125s4.125-9.625,4.375-13.25s0.25-4.5,0.25-4.5"/>
	<path fill="none" stroke="#000000" stroke-width="0.75" d="M192.191,98.458c0,0,6.25-2.25,9.375-4.375s8.75-6.5,11.375-9.875
		s2-3.875,6.25-7.375s6.875-5.125,11.75-7.25s16.625-3.375,16.625-3.375l-8.75,6c0,0,3.125-0.125,8,1.75s7.625,3.75,10,6.5
		s3.625,7.125,4.5,10.125s0.75,9.375,0.75,9.375l-5.875-9.375c0,0,2.75,11.875,2.75,15s0.125,7.375-0.875,11.125
		s-2,4.875-6.125,9.375s-17.875,13-17.875,13s3.375-6.5,4.25-10.75s1.375-9.125,0.125-12.125s-4.875-7.125-4.875-7.125l-1.5,11.125
		c0,0-2.375-5.375-3.75-7.5s-2.875-5-4.375-5.5s-12.5,0.125-12.5,0.125l6.25,12.5c0,0-8.875-4-10.875-5s-8.125-1.75-8.125-1.75"/>
	<path d="M64.316,61.208c-0.375,0.125-14.75,16.625-14.75,16.625l15.875-15.125L64.316,61.208z"/>
	<polygon points="30.316,70.583 43.066,79.583 31.316,69.583 	"/>
	<polyline points="62.441,97.458 60.941,95.458 59.524,95.375 	"/>
	<path d="M131.566,182.083c0,0,2.5-3,3.625-3.75s1.125-0.75,1.125-0.75s-3,3.75-3.375,4.125s-0.875,0.5-0.875,0.5"/>
	<path d="M153.316,186.708c0,0,0.875-2.25,2.5-3.75s3.125-1.875,3.125-1.875c0,0.375-1.375,1.25-2.25,2.5s-1.625,2.625-1.625,2.625"
		/>
	<path d="M11.066,107.583c0.125,0.375,2.625,5.25,2.625,5.25l1-0.125l-2.625-5.125"/>
	<path d="M8.859,96.458l3.667,0.333c0,0-6,3.166-6.833,3.833s-2,1.668-0.5,2.334s7.833,3,7.833,3l1,0.166l8.791-10.791
		c0,0-7.039-0.418-7.957-0.209s-6.167,0.5-6.167,0.5"/>
	<polygon points="21.025,96.624 14.192,105.291 18.525,101.791 	"/>
	<ellipse fill="none" stroke="#000000" stroke-width="0.75" cx="57.753" cy="69.833" rx="13.813" ry="13.375"/>
	<path fill="none" stroke="#000000" stroke-width="0.75" d="M44.401,73.32c-0.316-0.774-0.385-1.648-0.332-2.509
		c-0.062-0.674-0.048-1.352,0.039-2.023c0.008-0.279,0.016-0.558,0.036-0.83c0.003-0.044,0.021-0.078,0.033-0.117
		c-2.092-1.923-4.97-3.133-8.173-3.133c-6.386,0-11.563,4.729-11.563,10.563c0,5.834,5.177,10.563,11.563,10.563
		c5.197,0,9.564-3.145,11.019-7.456C45.86,76.977,44.79,75.171,44.401,73.32z"/>
</g>
</svg>
