<?xml version="1.0" encoding="utf-8"?>
<!-- Generator: Adobe Illustrator 13.0.0, SVG Export Plug-In . SVG Version: 6.00 Build 14948)  -->
<!DOCTYPE svg PUBLIC "-//W3C//DTD SVG 1.1//EN" "http://www.w3.org/Graphics/SVG/1.1/DTD/svg11.dtd">
<svg version="1.1" xmlns="http://www.w3.org/2000/svg" xmlns:xlink="http://www.w3.org/1999/xlink" x="0px" y="0px"
	 width="219.44px" height="167.357px" viewBox="0 0 219.44 167.357" enable-background="new 0 0 219.44 167.357"
	 xml:space="preserve">
<g id="frame_1">
	<path fill="#834421" d="M4.75,63.344c0,0,0.5,16.5,1.75,18s5.25,4,6.5,4.25s10.75,0.5,10.75,0.5s1,8.125,1.625,9.125
		s4.125,4.5,4.625,4.75s2,0.375,2,0.375s-0.5-2.5-0.5-4.25s0.375-3.625,0.375-3.625s2.75,3.125,4.625,4s4.75,1.125,5.875,1
		s3.125-0.5,3.125-0.5s-4-2.75-4.75-3.625S40,92.469,40,92.469s6.25,1.875,7.625,2.25s3-1.25,3-1.25l-1.375-2.75l8.625-2
		c0,0,7.625,0.5,7.875,2.375s3.75,11.375,4.375,12.875s5.625,9,6.25,10.25s1.125,3.125,1.125,5s0.75,12.875,1.375,15.25
		s1.125,4.75,1,5.125s-4,17.25-4,17.25s-6.625,1-7.875,1.875s-2.875,2.875-2.875,2.875s0.75,0.875,1.375,1.375
		s3.125,0.625,3.125,0.625l0.75-0.125l1.125,0.625h4c0,0,4.5,0,5.25-0.375s6.75-1.5,6.75-1.5l7-12.5l6-11.75l5.375-0.875
		c0,0-0.75,6.375-1.375,8.25s-3.625,13-4,13.375s-4,0.5-5.25,0.75s-3.75,1.5-4.25,2.125s-2,2.25-2,2.25s1.5,1.125,3.25,1.625
		s4.375,1.375,7.125,1.375s9.125-1.25,9.125-1.25l8.625-2.75c0,0,10.75-17.375,10.875-17.75s4.25-10.5,4.25-10.5l6.5,1.875
		c0,0,2.5-0.25,3.5,1.125s4.375,8,4.375,8l-3.375,12.25c0,0-7.125,0.125-8.375,0.625s-3.75,1.625-4.25,2.125s-1.125,1.5-1.125,1.5
		s1.625,1.625,3,1.625s5.375,0.25,5.375,0.25l0.25,0.625c0,0,9.5,0.5,10.625-0.375s4.875-5.75,4.875-5.75l8-12.375l4.5-4.875
		l12.25,0.5l2.5,0.375l-5.75,17.125c0,0-4.75-1-6.125-0.75s-5.75,0.875-7,1.625s-4.625,4.25-4.625,4.25s1.875,0.5,3.125,1
		s4.5,1.5,6,1.375s6.375-0.5,7.25-0.375s10-0.375,10-0.375s21.25-25.75,21.375-26.125s-1.5-12.125-1.875-12.375s7-29.75,7-29.75
		l2.375-12.625c0,0,1.25-6.125,1.375-7.75s-0.25-14.75-0.375-16.875s-1.5-15.25-2-16.625S207.75,31.094,207,29.969
		s-3.875-5.875-5.25-7.5s-6.75-4.625-11-5.625s-10.375-3.125-19.5-1.75S152.5,19.469,150,20.219s-13.375,6-13.375,6L118,26.094
		c0,0,0.75-3.75-0.375-5.875s-1.5-5.125-2.875-6.875s-3.875-5.75-4.375-5.875s-3.375-1.625-4.25-1.5s-3.875-0.125-4.875,0.625
		s-5,4.625-5.875,5.75s-3.75,5-3.75,5s-3.125-0.625-5-1.625S75.25,6.344,75.25,6.344s0.25-2.625-0.125-3.125s-2.375-2.125-4-2
		s-9.375,0.25-11.75,1.375s-10.25,5.5-10.875,6.375s-2,4.5-1.5,6s1.375,5.5,2.25,6.625s1.625,2.125,1.625,2.125s-6.625,5.5-6.75,6
		s-4.5,9.125-4.5,9.125l-9.5,5.75L7.375,58.469L4.75,63.344z"/>
	<path fill="#5D3119" d="M103.25,38.219c0,0,1.125,8,0.875,10s-1.625,5.875-5.125,7s-19.25,3.875-19.25,3.875
		s9.375,1.875,11.125,3.125s3.25,2.625,1.625,4s-10.625,3.875-16.375,5s-12.5,1.25-12.5,1.25s1.25,6.875-1.375,10
		s-3.875,5.125-6.5,6.125s-12.5,1.5-12.5,1.5s5.5,4,6.875,4.375s4.375,0.25,4.375,0.25s-3.5-2.5-3.75-2.75s9.875-0.25,11.375-0.5
		s10.625-3.25,13.125-5.125s5.25-4.375,6.5-5.625s3.875-2.875,5.5-3.375s22.25-4.375,22.25-4.375l-7.5-6.25l14.5-1.25l-10.25-4.75
		l15.25-2.875c0,0-12.5-11-13.875-12.875s-4.125-7.5-4.125-7.5"/>
	<path fill="#5D3119" d="M70.75,103.844c-0.125-0.375,0.125-7.375,0.625-9.625s1.25-6.25,3.5-3.875s8.75,10.625,12.25,15.25
		s10.125,11.875,12.5,13.875s5.5,3.75,5.5,3.75s0.625,4.125,0.875,5.5s-0.125,5.25,0,6.5s-0.125,2.25-0.125,2.25
		s-9.625-2.375-15.5-7s-11.875-13-13.875-16.125s-5.75-8.75-5.75-8.75V103.844z"/>
	<path fill="#5D3119" d="M92.75,131.219c0,0,1,6.875,1.125,9.5s0.625,5.125,0.125,6.75s-8,15.25-8,15.25l3.375-0.375
		c0,0,4.125-6.375,5.375-8.25s10.375-16.375,10.375-16.375s-9.125-7-11.875-6.125"/>
	<path fill="#5D3119" d="M120.5,114.094c0,0,0.07,0.385,0.188,1.051c0.584,3.301,2.333,13.52,2.437,18.199
		c0.125,5.625,2.25,10.375-1,17.625s-7.75,13.75-7.75,13.75l4.625-1.125l20.625-31.375c0,0,0.625-18.625,0.375-20.875
		s-0.875-3-0.875-3s-1.25,4.375-2.5,7.125s-2.375,3.5-3.875,4.25s-7.75-0.75-11.5-5.75"/>
	<path fill="#5D3119" d="M140.125,110.219c0,0,2.5-14.625,2.625-16.125s1.5,2.375,2,3.5s1.375,5.625,1.375,7.125
		s-0.875,6.25-1.25,7.25s-1.375,4.125-1.75,4.5s-2.75,4.25-2.75,4.25s-0.625-6.125-0.375-9.375"/>
	<path fill="#5D3119" d="M140.25,128.969c0,0,4.625-1.5,7.25-3.375s4.25-4,6.5-7.75s2.25-3.75,2.25-3.75s-0.75,3.625-5.75,10.375
		s-9.125,11.75-9.625,12s-3.125,0.75-3.125,0.75l-2,0.25C135.75,137.469,138.875,129.969,140.25,128.969z"/>
	<path fill="#5D3119" d="M140.875,136.469c0,0,10.375,3.5,13,3.875s14.125,2.375,16.25,2.25s10.625-0.25,10.625-0.25l0.625-1.625
		c0,0-3-5.75-4.25-7.375s-1.25-1.625-1.25-1.625s-3.125,0.75-8.125,1s-14.75-0.375-16-0.625s-1.25-0.25-1.25-0.25L140.875,136.469z"
		/>
	<path fill="#5D3119" d="M163.75,141.594c0,0-6.625,11-9,14.125s-6.625,8.25-6.625,8.25l1.75-0.25c0,0,8.875-9.125,10.25-10.5
		s11-11.125,11-11.125l-0.875-3l-7,1.75"/>
	<path fill="#5D3119" d="M183,165.969c0,0,13.5-15.25,16.25-20.5s5-6.75,3.75-8.625s-5.375-5.5-8.5-7.875s-6.25-5.375-6-10.875
		s0.25-12.625,3.375-19.125s8.5-17.5,8.5-17.5s0.375,5.875,1.5,8.125s1.75,3.25,3.5,3.625s3.75,0.25,4.25-1.375
		s1.125-4.5,1.25-7.375S211,75.344,211,75.344s1.875,8.375,1.75,10.5s-0.25,10.125-0.625,12.875s-2.25,14.5-3,16.125
		s-1.375,4.25-1.25,5.25s10.25,13.375,10.25,13.375l-32.5,32.625L183,165.969z"/>
	<path fill="#FFFFFF" d="M25.188,60.406c0,0-13.688-1.938-17.688-1.625s-5,0.25-5,0.25l1.063,2.125l1.813,2.063l10.813,8.563
		l2.125,1.313l3.813-1.188c0,0-0.5-3.625-0.563-3.813S24,62.406,24,62.406l1.188-2.25"/>
	<ellipse fill="#FFFFFF" cx="41.657" cy="41.25" rx="12.156" ry="10.406"/>
	<ellipse fill="#FFFFFF" cx="63.282" cy="44.719" rx="14.594" ry="13"/>
	<ellipse fill="#0092FF" cx="54.375" cy="45.5" rx="5.188" ry="5.094"/>
	<ellipse fill="#0092FF" cx="34.063" cy="41.688" rx="4.438" ry="4.344"/>
	<circle fill="#00426B" cx="53.907" cy="45.5" r="2.219"/>
	<ellipse fill="#00426B" cx="33.75" cy="41.625" rx="1.875" ry="1.844"/>
	<ellipse fill="#FFFFFF" cx="56.032" cy="42.844" rx="1.344" ry="1.313"/>
	<circle fill="#FFFFFF" cx="52.094" cy="47.813" r="1.031"/>
	<ellipse fill="#FFFFFF" cx="35.438" cy="39.75" rx="1.125" ry="1.156"/>
	<circle fill="#FFFFFF" cx="32.25" cy="44.094" r="0.875"/>
	<ellipse fill="none" stroke="#000000" stroke-width="0.75" cx="63.25" cy="44.761" rx="14.5" ry="13.042"/>
	<path fill="none" stroke="#000000" stroke-width="0.75" d="M49.253,48.38c-0.485-1.258-0.609-2.637-0.429-3.98
		c-0.082-1.204,0.109-2.545,0.631-3.665c0.24-0.896,0.718-1.756,1.174-2.532c0.429-0.729,0.92-1.384,1.511-1.931
		c-2.032-3.272-6.021-5.512-10.64-5.512c-6.673,0-12.083,4.645-12.083,10.375s5.41,10.375,12.083,10.375
		c3.096,0,5.906-1.015,8.043-2.66c-0.005-0.013-0.014-0.025-0.019-0.039C49.418,48.698,49.323,48.56,49.253,48.38z"/>
	<line fill="none" stroke="#000000" stroke-width="0.75" x1="30.063" y1="44.969" x2="6.625" y2="58.844"/>
	<path fill="none" stroke="#000000" stroke-width="0.75" d="M43.063,30.844c0,0,1.563-2.625,4.688-4.813s12.125-7.625,12.125-7.625
		s-5.875-2.25-7.063-3.063s-1.438-1.125-1.438-1.125s5.625-2.5,13.563-1.875s10.75,1.125,10.75,1.125s-2.125-3.375-2.438-5.125
		s-0.313-2.625-0.313-2.625s3.125,1.688,6.438,4.313s7.188,6.25,9.063,6.875s3.125,0.875,3.125,0.875"/>
	<path fill="none" stroke="#000000" stroke-width="0.75" d="M87,26.781c0,0,3.75-8.125,7.063-12.5s7-7.313,8.5-7.75
		s5.375-1.375,7.688,1.313s4.438,5.5,5.813,8.688s1.75,4.75,1.875,5.938s0.125,8,0,8.188s-0.813,2.125-5.875,3.625
		s-12,3.188-12,3.188"/>
	<path fill="none" stroke="#000000" stroke-width="0.75" d="M91.813,29.656c0,0,4.313-7.625,9-10.063s4.938-2.5,4.938-2.5"/>
	<path fill="none" stroke="#000000" stroke-width="0.75" d="M102.813,36.719c0,0,2.563,5.938,6.75,10.063s11.938,11.5,11.938,11.5
		s-15.75,2.375-15.688,2.625s10.75,4.563,10.75,4.563l-14.813,1.313l7.313,6.625c0,0-20,2.688-23.063,4.313
		s-6.063,5.375-9.938,7.938s-6.125,4.188-11.5,5.313s-14,0.938-14,0.938s1.938,1.875,3.063,2.375s1.125,0.5,1.125,0.5
		s-5.25,0.813-9.188-0.375s-5.188-2-5.188-2s3.125,3.563,4,4s0.875,0.438,0.875,0.438s-4.438,1.5-7.625,0.125
		s-5.563-4.375-5.563-4.375s-1,3.813-0.563,5.75s0.438,1.938,0.438,1.938s-1.75,0.375-4.25-2.438s-3.25-5.125-3.563-7.125
		s0.063-4.75,0.063-4.75"/>
	<path fill="none" stroke="#000000" stroke-width="0.75" d="M3,59.031c0,0,4.063-0.438,10.313-0.125s13.125,1.438,16.125,2.438
		s5.375,2.438,5.375,2.438s-1.25,2.75-5.563,5.125s-11.188,4.25-11.188,4.25S6.625,64.781,4.938,63.031S2.313,59.219,3,59.031z"/>
	<path fill="none" stroke="#000000" stroke-width="0.75" d="M4.688,63.031c0,0,0.125,11.125,0.75,14.063s1.625,5.875,3.875,7.063
		s5.438,1.688,10.625,1.938s19.125,0.375,21.813-0.813s8.438-6.563,9.75-8.125s2-2.75,2-2.75"/>
	<path fill="none" stroke="#000000" stroke-width="0.75" d="M19.688,73.031c0,0-0.063,6.125,0.688,7.813s3.5,5.438,3.5,5.438"/>
	<path fill="none" stroke="#000000" stroke-width="0.75" d="M50.813,24.156c0,0-3.438-4.563-3.875-8.063s0.125-5.438,2-7.063
		s8.313-5.5,11.938-6.625s7.625-1.25,9.875-1s3.063,0.813,3.75,1.688s0.688,4.063,0.688,4.063"/>
	<path fill="none" stroke="#000000" stroke-width="0.75" d="M213.084,85.761c0,0,0.584-4,0.584-7.417s0.5-7.333,0.25-12.75
		s-0.417-9.333-1.417-15.417s-1.5-9.5-3.5-14.917s-4.5-10.333-8.417-13.917s-13.5-5.75-20.083-6.167s-16.5,1.417-23,2.917
		s-19.5,7.5-21.084,8s-18.333,0.25-18.333,0.25"/>
	<path fill="none" stroke="#000000" stroke-width="0.75" d="M207.918,64.261c-0.167,0.25,5.583,15.751,4.916,24.417
		s-2.5,21.167-3.25,24.417s-3.582,5.667-0.666,9.75s9.083,10.583,9.083,10.583l-32.5,32.917c0,0-17.167,0.582-20.167,0.166
		s-7.667-1.834-7.917-2s3.834-4.333,6.834-5.083s7.416-1.167,9.083-0.667s1.667,0.5,1.667,0.5l6.25-18.333
		c0,0-7.749-13.584-8.833-17.167s-3.084-9.25-3.834-14s-1.25-9.665,1.25-14.749s7.333-11.667,7.333-11.667"/>
	<path fill="none" stroke="#000000" stroke-width="0.75" d="M139.584,109.928c0,0,0.5,11.25,0.417,14.5s0.167,7.25,0.167,7.25
		l-21.5,31.917c0,0-16.917,3.5-19.334,3.25s-4.833-0.75-4.833-0.75l-6-1.75c0,0,3.083-4.833,6.583-5s5.833,0.083,5.833,0.083
		s0.25-0.916,3-1.083s5.25,0.75,5.25,0.75"/>
	<path fill="none" stroke="#000000" stroke-width="0.75" d="M100.334,158.928c0,0,4.584-13.083,5.167-18s0.416-12.417-0.417-17
		s-1.333-8-1.333-8"/>
	<path fill="none" stroke="#000000" stroke-width="0.75" d="M65.501,90.845c0,0,2.667,8.832,4.417,12.416s3.916,6.917,6.583,11.084
		s8.833,12.417,12.25,14.917s9.75,6.167,11.667,6.75s5.583,1.5,5.583,1.5"/>
	<path fill="none" stroke="#000000" stroke-width="0.75" d="M75.585,157.012l4.166-17.084c0,0-0.666-3.833-1.083-7.417
		s-1.583-17.333-1.583-17.333"/>
	<path fill="none" stroke="#000000" stroke-width="0.75" d="M82.334,157.178c0,0-6.5,0.001-8.083,0.167s-5.417,0.833-6.917,1.833
		s-2.166,2.583-2.166,2.583s1.583,1.418,2.833,1.584s2.417,0.25,2.417,0.25s-0.083,0.75,4,0.75s7.834-1.001,10-1.334
		s5.333-1,5.333-1s15.75-24.833,15.75-24.583"/>
	<path fill="none" stroke="#000000" stroke-width="0.75" d="M136.667,137.511c0,0,5.334-1.166,8.084-2.333s7.25-4.416,9.833-7.083
		s6.25-8.333,6.917-11.083s1-3.167,1-3.167"/>
	<path fill="none" stroke="#000000" stroke-width="0.75" d="M140.168,120.511c0,0,3.582-4.25,4.249-6.583s1.834-9.167,1.334-11.75
		s-2.417-8.25-2.417-8.25"/>
	<path fill="none" stroke="#000000" stroke-width="0.75" d="M140.584,136.762c0,0,12.501,3.334,16.834,4s9.166,1.417,12.083,1.5
		s11.5,0.166,11.5,0.166"/>
	<path fill="none" stroke="#000000" stroke-width="0.75" d="M142.167,137.762c0,0,4.5,7.75,4.417,8s-3.833,12.666-3.833,12.666
		s-6.333-0.833-8.583,0.167s-4.667,3.583-4.667,3.583s1.083,0.667,2,1s2.916,0.667,4.333,0.75s2.334-0.167,2.334-0.167
		s-0.917,0.666,0.583,0.75s10.417-0.25,11-0.833s21.583-21.583,21.583-21.583"/>
	<path d="M143.689,93.802c0,0-1.876-4.188-2.604-4.896s1.479,3.792,1.938,5.167"/>
	<path d="M162.157,113.813c0,0,0.75-4.25,0.594-5.156s-0.156-0.906-0.156-0.906s0.719,4.875,0.125,6.406"/>
	<path d="M139.188,110.125c0,0,0.094-1.906-0.156-3.063s-0.281-1.281-0.281-1.281s1.188,3.031,1.219,4.25"/>
	<path d="M103.469,116.188c0,0-1.281-6.188-1.656-7.781s-0.375-1.594-0.375-1.594s2.688,8.063,2.719,9.063"/>
	<path d="M53.472,75.031c0,0,2.109-3.25,2.381-4.344c0.272-1.094,0.272-1.094,0.272-1.094s-2.28,4.031-3.063,4.813"/>
	<path d="M176.708,83.428c0,0,3.667-4.708,4.792-5.625s1.917-1.167,1.917-1.167s-5.125,6.166-6.25,7.375"/>
	<path d="M207.667,64.595c0,0-1.916-5.167-2.75-6.25s-0.834-1.083-0.834-1.083s2.583,1.875,4.25,7.333"/>
	<path d="M170.25,166.595c0,0,1.751-2.833,3.292-3.875s3.958-1.375,3.958-1.375s-3.708,1.916-4.583,2.958s-1.459,2.542-1.459,2.542"
		/>
	<path d="M163.25,165.72c0,0,1.209-3.084,2.542-4.042s4.708-1.541,4.708-1.541s-4.458,2.084-5.125,3S164,166.428,164,166.428"/>
	<path d="M138,163.72c0,0,0.707-2.5,2.416-3.167s2.667-0.667,2.667-0.667s-3.126,1.166-3.542,2s-1.083,2.25-1.083,2.25"/>
	<path d="M132.958,163.303c0,0,0.416-1.707,1.833-2.666s2.959-0.959,2.959-0.959s-2.584,1.041-3.292,2s-1,2-1,2"/>
	<path d="M101.625,166.553c0-0.125,1.083-2.207,2.458-3.291s4.5-2,4.5-2s-4.291,2.333-4.708,3.083s-0.958,2.083-0.958,2.083"/>
	<path d="M93.75,165.803c0,0,1.083-1.832,2.125-2.916s1.749-1.708,2.833-1.875s1.667-0.084,1.667-0.084s-3.417,1.668-4.042,2.334
		s-1.75,2.666-1.75,2.666"/>
	<path d="M75.333,164.22c0,0,1.167-2.209,2.667-3.334s3.583-1.583,3.583-1.583s-3.584,2.374-4.292,3.333s-1.041,1.709-1.041,1.709"
		/>
	<path d="M69.958,163.303c0,0,0.75-1.959,1.75-2.875s3.833-1.916,3.833-1.916s-3.125,1.791-3.75,2.666s-0.75,2.542-0.75,2.542"/>
	<path d="M82,157.469c0,0,1.125,0.542,1.5,0.875s0.375,0.333,0.375,0.333s-0.501-1.957-1.584-1.916"/>
	<path d="M108.833,159.219l2.75,1.375c0,0-1.208-2.124-2.5-2.208"/>
	<path d="M22.75,60.26c0,0-12.583,0.833-12.083,2.25s10.583,9.917,10.583,9.917s9.25-4.332,10.583-5.416s3.458-2.958,2.979-3.229
		s-9.479-4.187-11.979-3.854"/>
</g>
<g id="frame_2">
	<path fill="#834421" d="M55.5,60.51c-0.666,0-6,6.167-5.333,6.5s9.333,11.832,10,12.666S66,92.177,66,92.177
		s4.667-2.499,6.667-2.166s12.166,4.167,15.833,6s11.666,4.834,15,4s13.333-15,14-16s3.667-13.667,3.667-15.667s-4.5-15-4.5-15
		l15.5-8.833L129.5,33.177l-4-5.333l-6.333-1.333c0,0-10.167,0-15.167,3.5"/>
	<path fill="#5D3119" d="M53.5,64.01c0,0,11.499,6.083,15.833,7.667s7.418,2.916,9.334,2.5s3.083-1.249,1.833-3.416
		s-7.333-8.917-7.333-8.917s10.084,4.5,12.75,5.417S95,68.594,95,68.594s3.333-0.833,3.583-1.083s2.751-3.417,3.501-5.417
		s2.333-5.083,2.333-5.083s-0.917,7.666-0.5,8.833s1.333,6.334,1.333,6.334l2.667,12l-14.75-7l6,9.666l-12.5-7.5l2.083,10
		c0,0-16.833-8.917-19.833-9.5s-16.834,0.25-18.25,0.25S45,80.344,45,80.344s-10.417,3-11.583,3.5s-3,0.667-3,0.667v2.5v1.333
		l-2.25,1c0,0-2.25-0.582-3.333-1.166s-3.083-3.584-3.083-3.584l-1.167,3.584c0,0-4.083-1.918-4.833-2.834s-1.333-2.833-1.333-2.833
		l-0.333-1.083L14,83.261l-3-0.083l-2.167-3l-0.917-2.5v-2.75l1.333-2.75c0,0,1.333-0.834,1.583-0.667s5.917,2.334,6.417,2.667
		s25.5-1.584,25.5-1.584L53.5,64.01z"/>
	<path fill="#834421" d="M106.042,6.094"/>
	<path fill="#834421" d="M213.542,60.594c-0.125-2.125-1.5-15.25-2-16.625s-3.875-12.75-4.625-13.875s-3.875-5.875-5.25-7.5
		s-6.75-4.625-11-5.625s-10.375-3.125-19.5-1.75s-18.75,4.375-21.25,5.125s-13.375,6-13.375,6l-18.625-0.125L95.962,53.531
		c0.363,0.12,0.719,0.248,1.059,0.384c0.852,0.341,1.818,0.769,2.733,1.296c0.128-0.227,0.245-0.465,0.396-0.669
		c0.964-1.31,2.788-1.802,4.048-0.522c4.349,4.414,5.549,10.835,5.957,16.825c0.474,0.474,0.95,0.945,1.418,1.426
		c1.52,1.563,0.475,3.658-1.077,4.251c0.259,0.411,0.504,0.833,0.73,1.271c0.631,1.22,0.169,2.775-0.854,3.506
		c-0.213,0.635-0.538,1.247-0.959,1.803c-0.82,5.083-4.533,9.327-10.115,8.346c-1.752-0.309-2.958-1.11-3.745-2.176
		c-3.783,2.179-9.003,2.567-11.603-0.283c-4.228-1.201-8.293-3.21-11.854-5.767l-6.428,7.997c0.25,1.875,3.75,11.375,4.375,12.875
		s5.625,9,6.25,10.25s1.125,3.125,1.125,5s0.75,12.875,1.375,15.25s1.125,4.75,1,5.125s-4,17.25-4,17.25s-6.625,1-7.875,1.875
		s-2.875,2.875-2.875,2.875s0.75,0.875,1.375,1.375s3.125,0.625,3.125,0.625l0.75-0.125l1.125,0.625h4c0,0,4.5,0,5.25-0.375
		s6.75-1.5,6.75-1.5l7-12.5l6-11.75l5.375-0.875c0,0-0.75,6.375-1.375,8.25s-3.625,13-4,13.375s-4,0.5-5.25,0.75
		s-3.75,1.5-4.25,2.125s-2,2.25-2,2.25s1.5,1.125,3.25,1.625s4.375,1.375,7.125,1.375s9.125-1.25,9.125-1.25l8.625-2.75
		c0,0,10.75-17.375,10.875-17.75s4.25-10.5,4.25-10.5l6.5,1.875c0,0,2.5-0.25,3.5,1.125s4.375,8,4.375,8l-3.375,12.25
		c0,0-7.125,0.125-8.375,0.625s-3.75,1.625-4.25,2.125s-1.125,1.5-1.125,1.5s1.625,1.625,3,1.625s5.375,0.25,5.375,0.25l0.25,0.625
		c0,0,9.5,0.5,10.625-0.375s4.875-5.75,4.875-5.75l8-12.375l4.5-4.875l12.25,0.5l2.5,0.375l-5.75,17.125c0,0-4.75-1-6.125-0.75
		s-5.75,0.875-7,1.625s-4.625,4.25-4.625,4.25s1.875,0.5,3.125,1s4.5,1.5,6,1.375s6.375-0.5,7.25-0.375s10-0.375,10-0.375
		s21.25-25.75,21.375-26.125s-1.5-12.125-1.875-12.375s7-29.75,7-29.75l2.375-12.625c0,0,1.25-6.125,1.375-7.75
		S213.667,62.719,213.542,60.594z"/>
	<path fill="#5D3119" d="M81.667,80.844"/>
	<path fill="#5D3119" d="M62.042,91.594"/>
	<path fill="#5D3119" d="M70.667,103.969c-0.125-0.375,0.125-7.375,0.625-9.625s1.25-6.25,3.5-3.875s8.75,10.625,12.25,15.25
		s10.125,11.875,12.5,13.875s5.5,3.75,5.5,3.75s0.625,4.125,0.875,5.5s-0.125,5.25,0,6.5s-0.125,2.25-0.125,2.25
		s-9.625-2.375-15.5-7s-11.875-13-13.875-16.125s-5.75-8.75-5.75-8.75V103.969z"/>
	<path fill="#5D3119" d="M92.667,131.344c0,0,1,6.875,1.125,9.5s0.625,5.125,0.125,6.75s-8,15.25-8,15.25l3.375-0.375
		c0,0,4.125-6.375,5.375-8.25s10.375-16.375,10.375-16.375s-9.125-7-11.875-6.125"/>
	<path fill="#5D3119" d="M120.417,114.219c0,0,0.07,0.385,0.188,1.051c0.584,3.301,2.333,13.52,2.437,18.199
		c0.125,5.625,2.25,10.375-1,17.625s-7.75,13.75-7.75,13.75l4.625-1.125l20.625-31.375c0,0,0.625-18.625,0.375-20.875
		s-0.875-3-0.875-3s-1.25,4.375-2.5,7.125s-2.375,3.5-3.875,4.25s-7.75-0.75-11.5-5.75"/>
	<path fill="#5D3119" d="M140.042,110.344c0,0,2.5-14.625,2.625-16.125s1.5,2.375,2,3.5s1.375,5.625,1.375,7.125
		s-0.875,6.25-1.25,7.25s-1.375,4.125-1.75,4.5s-2.75,4.25-2.75,4.25s-0.625-6.125-0.375-9.375"/>
	<path fill="#5D3119" d="M140.167,129.094c0,0,4.625-1.5,7.25-3.375s4.25-4,6.5-7.75s2.25-3.75,2.25-3.75s-0.75,3.625-5.75,10.375
		s-9.125,11.75-9.625,12s-3.125,0.75-3.125,0.75l-2,0.25C135.667,137.594,138.792,130.094,140.167,129.094z"/>
	<path fill="#5D3119" d="M140.792,136.594c0,0,10.375,3.5,13,3.875s14.125,2.375,16.25,2.25s10.625-0.25,10.625-0.25l0.625-1.625
		c0,0-3-5.75-4.25-7.375s-1.25-1.625-1.25-1.625s-3.125,0.75-8.125,1s-14.75-0.375-16-0.625s-1.25-0.25-1.25-0.25L140.792,136.594z"
		/>
	<path fill="#5D3119" d="M163.667,141.719c0,0-6.625,11-9,14.125s-6.625,8.25-6.625,8.25l1.75-0.25c0,0,8.875-9.125,10.25-10.5
		s11-11.125,11-11.125l-0.875-3l-7,1.75"/>
	<path fill="#5D3119" d="M182.917,166.094c0,0,13.5-15.25,16.25-20.5s5-6.75,3.75-8.625s-5.375-5.5-8.5-7.875s-6.25-5.375-6-10.875
		s0.25-12.625,3.375-19.125s8.5-17.5,8.5-17.5s0.375,5.875,1.5,8.125s1.75,3.25,3.5,3.625s3.75,0.25,4.25-1.375
		s1.125-4.5,1.25-7.375s0.125-9.125,0.125-9.125s1.875,8.375,1.75,10.5s-0.25,10.125-0.625,12.875s-2.25,14.5-3,16.125
		s-1.375,4.25-1.25,5.25s10.25,13.375,10.25,13.375l-32.5,32.625L182.917,166.094z"/>
	<path fill="none" stroke="#000000" stroke-width="0.75" d="M102.48,6.656"/>
	<path fill="none" stroke="#000000" stroke-width="0.75" d="M64.48,91.094"/>
	<path fill="none" stroke="#000000" stroke-width="0.75" d="M213.001,85.886c0,0,0.584-4,0.584-7.417s0.5-7.333,0.25-12.75
		s-0.417-9.333-1.417-15.417s-1.5-9.5-3.5-14.917s-4.5-10.333-8.417-13.917s-13.5-5.75-20.083-6.167s-16.5,1.417-23,2.917
		s-19.5,7.5-21.084,8s-18.333,0.25-18.333,0.25"/>
	<path fill="none" stroke="#000000" stroke-width="0.75" d="M207.835,64.386c-0.167,0.25,5.583,15.751,4.916,24.417
		s-2.5,21.167-3.25,24.417s-3.582,5.667-0.666,9.75s9.083,10.583,9.083,10.583l-32.5,32.917c0,0-17.167,0.582-20.167,0.166
		s-7.667-1.834-7.917-2s3.834-4.333,6.834-5.083s7.416-1.167,9.083-0.667s1.667,0.5,1.667,0.5l6.25-18.333
		c0,0-7.749-13.584-8.833-17.167s-3.084-9.25-3.834-14s-1.25-9.665,1.25-14.749s7.333-11.667,7.333-11.667"/>
	<path fill="none" stroke="#000000" stroke-width="0.75" d="M139.501,110.053c0,0,0.5,11.25,0.417,14.5s0.167,7.25,0.167,7.25
		l-21.5,31.917c0,0-16.917,3.5-19.334,3.25s-4.833-0.75-4.833-0.75l-6-1.75c0,0,3.083-4.833,6.583-5s5.833,0.083,5.833,0.083
		s0.25-0.916,3-1.083s5.25,0.75,5.25,0.75"/>
	<path fill="none" stroke="#000000" stroke-width="0.75" d="M100.251,159.053c0,0,4.584-13.083,5.167-18s0.416-12.417-0.417-17
		s-1.333-8-1.333-8"/>
	<path fill="none" stroke="#000000" stroke-width="0.75" d="M105.918,137.637c0,0-3.666-0.917-5.583-1.5s-8.25-4.25-11.667-6.75
		s-9.583-10.75-12.25-14.917s-4.833-7.5-6.583-11.084S65.418,90.97,65.418,90.97s-2.919-7.21-3.585-8.626s-2.583-3-2.583-3"/>
	<path fill="none" stroke="#000000" stroke-width="0.75" d="M75.502,157.137l4.166-17.084c0,0-0.666-3.833-1.083-7.417
		s-1.583-17.333-1.583-17.333"/>
	<path fill="none" stroke="#000000" stroke-width="0.75" d="M82.251,157.303c0,0-6.5,0.001-8.083,0.167s-5.417,0.833-6.917,1.833
		s-2.166,2.583-2.166,2.583s1.583,1.418,2.833,1.584s2.417,0.25,2.417,0.25s-0.083,0.75,4,0.75s7.834-1.001,10-1.334
		s5.333-1,5.333-1s15.75-24.833,15.75-24.583"/>
	<path fill="none" stroke="#000000" stroke-width="0.75" d="M136.584,137.636c0,0,5.334-1.166,8.084-2.333s7.25-4.416,9.833-7.083
		s6.25-8.333,6.917-11.083s1-3.167,1-3.167"/>
	<path fill="none" stroke="#000000" stroke-width="0.75" d="M140.085,120.636c0,0,3.582-4.25,4.249-6.583s1.834-9.167,1.334-11.75
		s-2.417-8.25-2.417-8.25"/>
	<path fill="none" stroke="#000000" stroke-width="0.75" d="M140.501,136.887c0,0,12.501,3.334,16.834,4s9.166,1.417,12.083,1.5
		s11.5,0.166,11.5,0.166"/>
	<path fill="none" stroke="#000000" stroke-width="0.75" d="M142.084,137.887c0,0,4.5,7.75,4.417,8s-3.833,12.666-3.833,12.666
		s-6.333-0.833-8.583,0.167s-4.667,3.583-4.667,3.583s1.083,0.667,2,1s2.916,0.667,4.333,0.75s2.334-0.167,2.334-0.167
		s-0.917,0.666,0.583,0.75s10.417-0.25,11-0.833s21.583-21.583,21.583-21.583"/>
	<path d="M143.606,93.927c0,0-1.876-4.188-2.604-4.896s1.479,3.792,1.938,5.167"/>
	<path d="M162.074,113.938c0,0,0.75-4.25,0.594-5.156s-0.156-0.906-0.156-0.906s0.719,4.875,0.125,6.406"/>
	<path d="M139.105,110.25c0,0,0.094-1.906-0.156-3.063s-0.281-1.281-0.281-1.281s1.188,3.031,1.219,4.25"/>
	<path d="M103.386,116.313c0,0-1.281-6.188-1.656-7.781s-0.375-1.594-0.375-1.594s2.688,8.063,2.719,9.063"/>
	<path d="M176.625,83.553c0,0,3.667-4.708,4.792-5.625s1.917-1.167,1.917-1.167s-5.125,6.166-6.25,7.375"/>
	<path d="M207.584,64.72c0,0-1.916-5.167-2.75-6.25S204,57.386,204,57.386s2.583,1.875,4.25,7.333"/>
	<path d="M170.167,166.72c0,0,1.751-2.833,3.292-3.875s3.958-1.375,3.958-1.375s-3.708,1.916-4.583,2.958s-1.459,2.542-1.459,2.542"
		/>
	<path d="M163.167,165.845c0,0,1.209-3.084,2.542-4.042s4.708-1.541,4.708-1.541s-4.458,2.084-5.125,3s-1.375,3.291-1.375,3.291"/>
	<path d="M137.917,163.845c0,0,0.707-2.5,2.416-3.167s2.667-0.667,2.667-0.667s-3.126,1.166-3.542,2s-1.083,2.25-1.083,2.25"/>
	<path d="M132.875,163.428c0,0,0.416-1.707,1.833-2.666s2.959-0.959,2.959-0.959s-2.584,1.041-3.292,2s-1,2-1,2"/>
	<path d="M101.542,166.678c0-0.125,1.083-2.207,2.458-3.291s4.5-2,4.5-2s-4.291,2.333-4.708,3.083s-0.958,2.083-0.958,2.083"/>
	<path d="M93.667,165.928c0,0,1.083-1.832,2.125-2.916s1.749-1.708,2.833-1.875s1.667-0.084,1.667-0.084s-3.417,1.668-4.042,2.334
		s-1.75,2.666-1.75,2.666"/>
	<path d="M75.25,164.345c0,0,1.167-2.209,2.667-3.334s3.583-1.583,3.583-1.583s-3.584,2.374-4.292,3.333s-1.041,1.709-1.041,1.709"
		/>
	<path d="M69.875,163.428c0,0,0.75-1.959,1.75-2.875s3.833-1.916,3.833-1.916s-3.125,1.791-3.75,2.666s-0.75,2.542-0.75,2.542"/>
	<path d="M81.917,157.594c0,0,1.125,0.542,1.5,0.875s0.375,0.333,0.375,0.333s-0.501-1.957-1.584-1.916"/>
	<path d="M108.75,159.344l2.75,1.375c0,0-1.208-2.124-2.5-2.208"/>
	<path fill="#FFFFFF" d="M2.438,42.969c0,0-0.813,3.375-0.813,3.625s0.563,3.688,0.563,3.688l0.75,1.688l0.875,0.625l2.438-3
		L7,52.906l2.625,1.5l1.25,1.25l2.938,1l1.375,2.313c0,0,3.125-0.188,3.063,0.063s0.313,1.625,0.313,1.625l2.875,0.563l0.688,4.938
		l1.625,0.625l4.625-2.25l1.375,0.25l3.125-1.063h2l2.438-1.375l2.563-0.5l2.25-1.625l2.688,0.75l1.5-3.5
		c0,0-7.438,1.563-8.375,1.875s-6.125,0.688-6.563,0.75s-4.188,0.125-5.313-0.313s-6.375-3.625-6.375-3.625l-9.75-7.188L3.75,44.094
		l-1.438-1.375"/>
	<path fill="#FFFFFF" d="M10,66.094l0.375,5.563c0,0,1.25,1.688,1.688,2.063s4.875,2.5,6.563,3.125s3.125,1.5,4.5,1.5
		s6.375,0.063,6.375,0.063l6.375-0.938l5.188-2.188L45,73.156l4.563-2.938l2.313-2.438l0.813-0.875l-1.125-0.625l-2.938-0.375
		l-1,2.375l-2.188-1l-1.125,1l-1.688,0.063l-0.313,2.125H38.5l-1.625,1.438l-3.813-0.188c0,0-1.875,1.375-2.063,1.375
		s-4.5-2.313-4.5-2.313s-2.875,2.875-3.063,2.938s-2.813-0.313-2.813-0.313l-1.188-1.313l-2.75,0.125l-1.063-2L13,69.531L10,66.094z
		"/>
	<path fill="#834421" d="M47.227,57.193c1.518,0.282,2.83,0.728,4.211,1.309c0.203,0.071,0.404,0.152,0.602,0.242
		c0.163,0.029,0.332,0.094,0.503,0.208c0.25,0.167,0.5,0.333,0.75,0.5c-0.003,0.004-0.006,0.007-0.009,0.011
		c0.092,0.065,0.184,0.123,0.276,0.195c0.35,0.271,0.457,0.633,0.411,0.989c0.065,0.193,0.076,0.387,0.052,0.574
		c0.021,0.079,0.04,0.16,0.049,0.248c0.042,0.417,0.084,0.833,0.125,1.25c0.012,0.112,0.007,0.215-0.005,0.313
		c0.002,0.021,0.003,0.042,0.005,0.063c0.014,0.173-0.018,0.323-0.067,0.464c0.056,0.34,0.027,0.692-0.106,1.028
		c1.446-0.111,2.882-0.058,4.102,0.061c2.274,0.219,4.491,0.84,6.458,1.879l60.57-34.039c-0.786-0.403-3.091-2.34-4.34-2.306
		c-1.25,0.035-6.754,0.887-8.117,1.299c-1.364,0.413-5.95,1.915-5.95,1.915s-2.189-2.315-3.142-4.215
		c-0.953-1.9-3.869-14.224-3.869-14.224s1.721-1.998,1.703-2.623c-0.017-0.625-0.711-3.107-2.109-3.943
		c-1.398-0.837-7.797-5.212-10.385-5.666c-2.589-0.454-11.544-1.432-12.56-1.079s-4.232,2.518-4.691,4.031
		c-0.458,1.513-2.055,5.284-1.99,6.708s0.099,2.673,0.099,2.673s-8.585,0.662-8.976,0.998c-0.392,0.336-8.945,4.849-8.945,4.849
		l-11.076-0.795L14.22,18.29l-4.959,2.463c0,0-9.124,13.757-8.97,15.703c0.153,1.947,1.974,6.298,2.85,7.224
		c0.876,0.927,8.485,6.619,8.485,6.619s-0.032,0.06-0.077,0.144c0.131,0.05,0.261,0.118,0.386,0.216
		c0.511,0.479,1.114,0.843,1.732,1.168c0.305,0.16,0.486,0.399,0.576,0.665c0.306,0.239,0.607,0.484,0.924,0.71
		c0.314,0.224,0.482,0.517,0.547,0.823c1.278,0.789,2.556,1.577,3.827,2.377c0.269,0.177,0.46,0.39,0.595,0.621
		c2.274,0.514,4.535,2.061,6.624,3.202c2.228-0.285,5.74-0.762,7.714-0.086c2.047-0.605,4.073-1.285,6.175-1.696
		c0.276-0.054,0.56-0.014,0.818,0.085c0.062-0.016,0.122-0.039,0.184-0.053c1.204-0.39,2.549-0.967,3.725-0.83
		c0.167,0.02,0.308,0.075,0.442,0.138C46.086,57.362,46.573,57.071,47.227,57.193z"/>
	<path fill="#834421" d="M123.22,55.773c0,0,2.778-2.627,3.088-5.012s1.736-5.05,1.625-7.272s0.159-6.932-0.177-7.323
		c-0.336-0.391-1.816-3.276-2.603-3.68"/>
	<path fill="#5D3119" d="M39.845,76.855c1.368,0.663,10.55,3.485,13.674,3.399c3.123-0.086,6.813-0.538,8.555-0.836"/>
	<path fill="#FFFFFF" d="M27.64,30.162c0,0-10.053-9.489-13.498-11.544c-3.446-2.056-4.226-2.685-4.226-2.685l-0.36,2.348
		l0.288,2.731l3.878,13.235l0.977,2.299l3.798,1.233c0,0,1.687-3.248,1.743-3.437c0.058-0.189,5.275-3.234,5.275-3.234l2.27-1.151"
		/>
	
		<ellipse transform="matrix(-0.8162 -0.5777 0.5777 -0.8162 80.8271 73.7902)" fill="#FFFFFF" cx="52.149" cy="24.04" rx="12.156" ry="10.407"/>
	
		<ellipse transform="matrix(-0.8163 -0.5777 0.5777 -0.8163 100.3949 110.661)" fill="#FFFFFF" cx="67.796" cy="39.364" rx="14.594" ry="13"/>
	
		<ellipse transform="matrix(-0.8163 -0.5777 0.5777 -0.8163 86.2959 104.052)" fill="#0092FF" cx="59.696" cy="38.302" rx="5.188" ry="5.094"/>
	
		<ellipse transform="matrix(-0.8162 -0.5777 0.5777 -0.8162 69.5036 69.5466)" fill="#0092FF" cx="45.813" cy="23.719" rx="4.438" ry="4.344"/>
	<circle fill="#00426B" cx="59.313" cy="38.031" r="2.219"/>
	
		<ellipse transform="matrix(-0.8163 -0.5776 0.5776 -0.8163 69.2437 68.9973)" fill="#00426B" cx="45.594" cy="23.488" rx="1.875" ry="1.843"/>
	
		<ellipse transform="matrix(-0.8162 -0.5778 0.5778 -0.8162 92.2303 103.5236)" fill="#FFFFFF" cx="62.583" cy="37.091" rx="1.344" ry="1.313"/>
	<circle fill="#FFFFFF" cx="56.498" cy="38.872" r="1.031"/>
	
		<ellipse transform="matrix(-0.8162 -0.5778 0.5778 -0.8162 74.0234 69.4153)" fill="#FFFFFF" cx="48.054" cy="22.932" rx="1.125" ry="1.156"/>
	<circle fill="#FFFFFF" cx="42.943" cy="24.636" r="0.875"/>
	
		<ellipse transform="matrix(-0.8162 -0.5777 0.5777 -0.8162 100.2924 110.6628)" fill="none" stroke="#000000" stroke-width="0.75" cx="67.747" cy="39.38" rx="14.501" ry="13.042"/>
	<path fill="none" stroke="#000000" stroke-width="0.75" d="M54.231,34.249c0.331-1.307,1.026-2.504,1.949-3.497
		c0.629-1.03,1.561-2.014,2.633-2.626c0.714-0.592,1.601-1.019,2.421-1.388c0.771-0.348,1.551-0.599,2.35-0.703
		c0.23-3.846-1.73-7.978-5.501-10.646c-5.447-3.856-12.547-3.19-15.857,1.487c-3.31,4.677-1.577,11.594,3.87,15.45
		c2.526,1.788,5.406,2.583,8.101,2.476c0.004-0.014,0.004-0.028,0.007-0.043C54.181,34.603,54.184,34.435,54.231,34.249z"/>
	<line fill="none" stroke="#000000" stroke-width="0.75" x1="40.538" y1="20.377" x2="13.391" y2="18.163"/>
	<path fill="none" stroke="#000000" stroke-width="0.75" d="M59.309,16.358c0,0,2.792-1.24,6.606-1.22
		c3.814,0.02,14.302,0.781,14.302,0.781s-3.495-5.231-3.995-6.58s-0.523-1.749-0.523-1.749s6.035,1.209,12.153,6.305
		s8.125,7.129,8.125,7.129s0.215-3.983,0.971-5.592s1.262-2.323,1.262-2.323s1.576,3.183,2.763,7.239
		c1.188,4.056,2.256,9.254,3.426,10.847c1.169,1.593,2.045,2.52,2.045,2.52"/>
	<path fill="none" stroke="#000000" stroke-width="0.75" d="M121.921,30.888c1.477,0.509,5.182,1.983,5.517,5.512
		c0.335,3.53,0.444,7.053-0.274,10.449c-0.72,3.396-1.316,4.889-1.9,5.93c-0.584,1.042-4.52,6.603-4.729,6.684
		c-0.211,0.081-1.892,1.265-6.89-0.436c-4.999-1.7-11.637-4.331-11.637-4.331"/>
	<path fill="none" stroke="#000000" stroke-width="0.75" d="M97.52,38.426c0,0,7.755-4.465,12.985-6.123
		c5.231-1.657,9.938-1.925,11.416-1.415"/>
	<path fill="none" stroke="#000000" stroke-width="0.75" d="M99.787,43.553c0,0,7.926-3.732,13.159-3.014
		c5.234,0.719,5.475,0.812,5.475,0.812"/>
	<path fill="none" stroke="#000000" stroke-width="0.75" d="M104.685,55.672c0,0-1.338,6.327-0.304,12.113
		c1.035,5.786,3.101,16.283,3.101,16.283s-14.228-7.16-14.321-6.92s6.139,9.935,6.139,9.935l-12.849-7.486l2.142,9.632
		c0,0-17.878-9.36-21.316-9.804c-3.438-0.442-8.054,0.886-12.697,0.738c-7.032-0.224-9.766-0.194-14.078,1.493"/>
	<path fill="none" stroke="#000000" stroke-width="0.75" d="M10.324,16.221c0,0,3.569,1.99,8.49,5.856s9.883,8.756,11.754,11.305
		s2.979,5.095,2.979,5.095s-2.608,1.522-7.501,0.97c-4.892-0.553-11.587-2.994-11.587-2.994S9.961,23.009,9.595,20.605
		C9.229,18.202,9.655,15.977,10.324,16.221z"/>
	<path fill="none" stroke="#000000" stroke-width="0.75" d="M9.391,20.461c0,0-6.325,9.153-7.512,11.912s-2.068,5.734-0.917,8.003
		c1.151,2.27,3.464,4.519,7.554,7.72s15.394,11.355,18.273,11.938s10.678-0.482,12.652-0.999c1.974-0.518,3.221-1.09,3.221-1.09"/>
	<path fill="none" stroke="#000000" stroke-width="0.75" d="M15.857,37.29c0,0-3.589,4.963-3.952,6.774
		c-0.362,1.811-0.284,6.46-0.284,6.46"/>
	<path fill="none" stroke="#000000" stroke-width="0.75" d="M69.499,15.377c0,0-0.17-5.71,1.495-8.819
		c1.665-3.11,3.243-4.366,5.712-4.609c2.47-0.243,9.963,0.313,13.571,1.489c3.609,1.176,6.946,3.385,8.639,4.889
		c1.691,1.504,2.03,2.433,2.086,3.544s-1.786,3.713-1.786,3.713"/>
	<path d="M25.735,28.634c0,0-10.752-6.588-11.162-5.144c-0.411,1.446,2.909,14.208,2.909,14.208s10.054,1.808,11.767,1.693
		c1.716-0.114,4.532-0.416,4.298-0.915s-5.318-8.895-7.552-10.066"/>
	<path fill="none" stroke="#000000" stroke-width="0.75" d="M46.375,57.469c0,0-1.125,3.625-1.5,3.5s-2.75-0.75-2.75-0.75
		l-1.75,1.625c0,0-2.5,0.375-2.875,0.25s-2.375,1.625-2.375,1.625l-2.5-0.125l-2.875,1.375l-1.125-0.75c0,0-3.5,2.25-4.5,2.5
		S22,66.094,22,66.094l-0.875-5l-2.5-0.375l-0.5-1.75H15.25l-1.5-2.375l-2.75-0.5l-1.125-1.625l-2.625-1.25l-1.125-3.625l-2,3.125
		l-1.75-1.25c0,0-0.75-3.375-0.625-5.125s0.75-3.875,0.875-4.25"/>
	<path fill="none" stroke="#000000" stroke-width="0.75" d="M35.125,60.094c0,0,5.5-1.75,7.875-2.25s4.75-0.75,6.5-0.375
		s3.875,1,4.375,2.125s0.625,3.5,0.375,4.125c-0.125,0.313-0.75,1.375-1.469,2.484s-1.531,2.266-2.031,2.766
		c-1,1-10.125,7.25-14.5,8.375s-11.5,1.5-14.25,0.75s-5.875-2.125-7.5-2.875s-4.125-3.375-4.125-3.375l-0.25-5.5l3.25,3.25
		l2.25,0.75l1.125,2l2.5-0.5l1.25,1.625l2.875,0.125l2.875-2.75l4.625,2.375l2.25-1.25l3.75-0.125c0,0,1.25-1.375,1.75-1.375
		s3.75,0,3.75,0l0.125-2.125h1.75c0,0,0-1.25,0.625-1s2.5,1,2.5,1l1-2.5L52,66.469"/>
	<path fill="none" stroke="#000000" stroke-width="0.75" d="M15.75,58.969c0,0,0.875,1.75,1.375,3s0.875,2.625,0.625,3.25
		s-2,2.125-2.375,2.5s-2,1.875-2,1.875"/>
	<path fill="none" stroke="#000000" stroke-width="0.75" d="M10.375,71.844c0,0-2,0.625-2.125,1.625s-1,4,0.375,6.25
		s2,3.5,2.875,3.625s1.875,0.25,2.25,0.125s0.25-2.75,0.25-2.75s0.375,2.5,1.875,4.5s4.5,3,4.5,3l1.375-3.625c0,0,1,2,2.5,3
		s3.25,2.375,4,2s2-1.25,2-1.25l0.375-3.625c0,0,12.125-3.625,14-4.375s21.375-0.375,22.5-1.125"/>
	<path fill="none" stroke="#000000" stroke-width="0.75" d="M103.936,29.95c9.756-5.098,21.787-3.742,32.439-3.481"/>
	<path fill="#010000" d="M46.75,57.469c0,0,3.375-0.313,4.625,0.375s2.938,2.438,2.938,2.438l0.25,2.5l-2.125,4.125l-4-1.25
		l-1.188,2.354l-2.563-0.938l-0.521,1.063L42.5,68.344l-0.25,1.938l-3.792,0.063l-1.729,1.354l-3.604,0.125l-2.292,1.125
		l-4.563-2.188l-3,2.625c0,0-2.771,0.001-2.833-0.021s-1.146-1.667-1.146-1.667l-2.479,0.479l-1.271-1.792l-1.771-0.75l1.542-1.584
		l2.458-2.521l0.271-1.084l-0.604-2.187l-1.229-2.583l-0.229-0.646c0,0,2.104-0.063,2.146-0.063s0.521,1.646,0.521,1.646
		l2.188,0.458l1.271,5.208c0,0,1.333,0.625,1.438,0.625s4.917-2.604,4.917-2.604l1.417,0.874l2.708-1.792l2.604,0.543l2-1.854
		l3.292-0.188l1.646-1.667l2.75,0.75c0,0,1.313-3.708,1.979-3.667"/>
	<path fill="#FFFFFF" d="M54.75,35.094l12.625,2.625L67,31.969c0,0-6.625-2-7-1.875s-3.625,1.25-3.625,1.25L54.75,35.094z"/>
	<path fill="#FFFFFF" d="M43.75,19.469l0.502,1.003l3.873,7.747c0,0,4.75-2.5,4.875-3s0.625-6.875,0.25-7s-6.375-0.5-6.375-0.5"/>
</g>
<g id="frame_3">
	<path fill="#834421" d="M56.5,60.26c-0.666,0-6,6.167-5.333,6.5c0.667,0.333,9.333,11.832,10,12.666S67,91.927,67,91.927
		s4.667-2.499,6.667-2.166s12.166,4.167,15.833,6s11.666,4.834,15,4s13.333-15,14-16s3.667-13.667,3.667-15.667s-4.5-15-4.5-15
		l15.5-8.833L130.5,32.927l-4-5.333l-6.333-1.333c0,0-10.167,0-15.167,3.5"/>
	<path fill="#834421" d="M107.042,5.844"/>
	<path fill="#834421" d="M214.542,60.344c-0.125-2.125-1.5-15.25-2-16.625s-3.875-12.75-4.625-13.875s-3.875-5.875-5.25-7.5
		s-6.75-4.625-11-5.625s-10.375-3.125-19.5-1.75s-18.75,4.375-21.25,5.125s-13.375,6-13.375,6l-18.625-0.125L96.962,53.281
		c0.363,0.12,0.719,0.248,1.059,0.384c0.852,0.341,1.818,0.769,2.733,1.296c0.128-0.227,0.245-0.465,0.396-0.669
		c0.964-1.31,2.788-1.802,4.048-0.522c4.349,4.414,5.549,10.835,5.957,16.825c0.474,0.474,0.95,0.945,1.418,1.426
		c1.52,1.563,0.475,3.658-1.077,4.251c0.259,0.411,0.504,0.833,0.73,1.271c0.631,1.22,0.169,2.775-0.854,3.506
		c-0.213,0.635-0.538,1.247-0.959,1.803c-0.82,5.083-4.533,9.327-10.115,8.346c-1.752-0.309-2.958-1.11-3.745-2.176
		c-3.783,2.179-9.003,2.567-11.603-0.283c-4.228-1.201-8.293-3.21-11.854-5.767l-6.428,7.997c0.25,1.875,3.75,11.375,4.375,12.875
		s5.625,9,6.25,10.25s1.125,3.125,1.125,5s0.75,12.875,1.375,15.25s1.125,4.75,1,5.125s-4,17.25-4,17.25s-6.625,1-7.875,1.875
		s-2.875,2.875-2.875,2.875s0.75,0.875,1.375,1.375s3.125,0.625,3.125,0.625l0.75-0.125l1.125,0.625h4c0,0,4.5,0,5.25-0.375
		s6.75-1.5,6.75-1.5l7-12.5l6-11.75l5.375-0.875c0,0-0.75,6.375-1.375,8.25s-3.625,13-4,13.375s-4,0.5-5.25,0.75
		s-3.75,1.5-4.25,2.125s-2,2.25-2,2.25s1.5,1.125,3.25,1.625s4.375,1.375,7.125,1.375s9.125-1.25,9.125-1.25l8.625-2.75
		c0,0,10.75-17.375,10.875-17.75s4.25-10.5,4.25-10.5l6.5,1.875c0,0,2.5-0.25,3.5,1.125s4.375,8,4.375,8l-3.375,12.25
		c0,0-7.125,0.125-8.375,0.625s-3.75,1.625-4.25,2.125s-1.125,1.5-1.125,1.5s1.625,1.625,3,1.625s5.375,0.25,5.375,0.25l0.25,0.625
		c0,0,9.5,0.5,10.625-0.375s4.875-5.75,4.875-5.75l8-12.375l4.5-4.875l12.25,0.5l2.5,0.375l-5.75,17.125c0,0-4.75-1-6.125-0.75
		s-5.75,0.875-7,1.625s-4.625,4.25-4.625,4.25s1.875,0.5,3.125,1s4.5,1.5,6,1.375s6.375-0.5,7.25-0.375s10-0.375,10-0.375
		s21.25-25.75,21.375-26.125s-1.5-12.125-1.875-12.375s7-29.75,7-29.75l2.375-12.625c0,0,1.25-6.125,1.375-7.75
		S214.667,62.469,214.542,60.344z"/>
	<path fill="#5D3119" d="M82.667,80.594"/>
	<path fill="#5D3119" d="M63.042,91.344"/>
	<path fill="#5D3119" d="M71.667,103.719c-0.125-0.375,0.125-7.375,0.625-9.625s1.25-6.25,3.5-3.875s8.75,10.625,12.25,15.25
		s10.125,11.875,12.5,13.875s5.5,3.75,5.5,3.75s0.625,4.125,0.875,5.5s-0.125,5.25,0,6.5s-0.125,2.25-0.125,2.25
		s-9.625-2.375-15.5-7s-11.875-13-13.875-16.125s-5.75-8.75-5.75-8.75V103.719z"/>
	<path fill="#5D3119" d="M93.667,131.094c0,0,1,6.875,1.125,9.5s0.625,5.125,0.125,6.75s-8,15.25-8,15.25l3.375-0.375
		c0,0,4.125-6.375,5.375-8.25s10.375-16.375,10.375-16.375s-9.125-7-11.875-6.125"/>
	<path fill="#5D3119" d="M121.417,113.969c0,0,0.07,0.385,0.188,1.051c0.584,3.301,2.333,13.52,2.437,18.199
		c0.125,5.625,2.25,10.375-1,17.625s-7.75,13.75-7.75,13.75l4.625-1.125l20.625-31.375c0,0,0.625-18.625,0.375-20.875
		s-0.875-3-0.875-3s-1.25,4.375-2.5,7.125s-2.375,3.5-3.875,4.25s-7.75-0.75-11.5-5.75"/>
	<path fill="#5D3119" d="M141.042,110.094c0,0,2.5-14.625,2.625-16.125s1.5,2.375,2,3.5s1.375,5.625,1.375,7.125
		s-0.875,6.25-1.25,7.25s-1.375,4.125-1.75,4.5s-2.75,4.25-2.75,4.25s-0.625-6.125-0.375-9.375"/>
	<path fill="#5D3119" d="M141.167,128.844c0,0,4.625-1.5,7.25-3.375s4.25-4,6.5-7.75s2.25-3.75,2.25-3.75s-0.75,3.625-5.75,10.375
		s-9.125,11.75-9.625,12s-3.125,0.75-3.125,0.75l-2,0.25C136.667,137.344,139.792,129.844,141.167,128.844z"/>
	<path fill="#5D3119" d="M141.792,136.344c0,0,10.375,3.5,13,3.875s14.125,2.375,16.25,2.25s10.625-0.25,10.625-0.25l0.625-1.625
		c0,0-3-5.75-4.25-7.375s-1.25-1.625-1.25-1.625s-3.125,0.75-8.125,1s-14.75-0.375-16-0.625s-1.25-0.25-1.25-0.25L141.792,136.344z"
		/>
	<path fill="#5D3119" d="M164.667,141.469c0,0-6.625,11-9,14.125s-6.625,8.25-6.625,8.25l1.75-0.25c0,0,8.875-9.125,10.25-10.5
		s11-11.125,11-11.125l-0.875-3l-7,1.75"/>
	<path fill="#5D3119" d="M183.917,165.844c0,0,13.5-15.25,16.25-20.5s5-6.75,3.75-8.625s-5.375-5.5-8.5-7.875s-6.25-5.375-6-10.875
		s0.25-12.625,3.375-19.125s8.5-17.5,8.5-17.5s0.375,5.875,1.5,8.125s1.75,3.25,3.5,3.625s3.75,0.25,4.25-1.375
		s1.125-4.5,1.25-7.375s0.125-9.125,0.125-9.125s1.875,8.375,1.75,10.5s-0.25,10.125-0.625,12.875s-2.25,14.5-3,16.125
		s-1.375,4.25-1.25,5.25s10.25,13.375,10.25,13.375l-32.5,32.625L183.917,165.844z"/>
	<path fill="none" stroke="#000000" stroke-width="0.75" d="M103.48,6.406"/>
	<path fill="none" stroke="#000000" stroke-width="0.75" d="M65.48,90.844"/>
	<path fill="none" stroke="#000000" stroke-width="0.75" d="M214.001,85.636c0,0,0.584-4,0.584-7.417s0.5-7.333,0.25-12.75
		s-0.417-9.333-1.417-15.417s-1.5-9.5-3.5-14.917s-4.5-10.333-8.417-13.917s-13.5-5.75-20.083-6.167s-16.5,1.417-23,2.917
		s-19.5,7.5-21.084,8s-18.333,0.25-18.333,0.25"/>
	<path fill="none" stroke="#000000" stroke-width="0.75" d="M208.835,64.136c-0.167,0.25,5.583,15.751,4.916,24.417
		s-2.5,21.167-3.25,24.417s-3.582,5.667-0.666,9.75s9.083,10.583,9.083,10.583l-32.5,32.917c0,0-17.167,0.582-20.167,0.166
		s-7.667-1.834-7.917-2s3.834-4.333,6.834-5.083s7.416-1.167,9.083-0.667s1.667,0.5,1.667,0.5l6.25-18.333
		c0,0-7.749-13.584-8.833-17.167s-3.084-9.25-3.834-14s-1.25-9.665,1.25-14.749s7.333-11.667,7.333-11.667"/>
	<path fill="none" stroke="#000000" stroke-width="0.75" d="M140.501,109.803c0,0,0.5,11.25,0.417,14.5s0.167,7.25,0.167,7.25
		l-21.5,31.917c0,0-16.917,3.5-19.334,3.25s-4.833-0.75-4.833-0.75l-6-1.75c0,0,3.083-4.833,6.583-5s5.833,0.083,5.833,0.083
		s0.25-0.916,3-1.083s5.25,0.75,5.25,0.75"/>
	<path fill="none" stroke="#000000" stroke-width="0.75" d="M101.251,158.803c0,0,4.584-13.083,5.167-18s0.416-12.417-0.417-17
		s-1.333-8-1.333-8"/>
	<path fill="none" stroke="#000000" stroke-width="0.75" d="M106.918,137.387c0,0-3.666-0.917-5.583-1.5s-8.25-4.25-11.667-6.75
		s-9.583-10.75-12.25-14.917s-4.833-7.5-6.583-11.084S66.418,90.72,66.418,90.72s-2.919-7.21-3.585-8.626s-2.583-3-2.583-3"/>
	<path fill="none" stroke="#000000" stroke-width="0.75" d="M76.502,156.887l4.166-17.084c0,0-0.666-3.833-1.083-7.417
		s-1.583-17.333-1.583-17.333"/>
	<path fill="none" stroke="#000000" stroke-width="0.75" d="M83.251,157.053c0,0-6.5,0.001-8.083,0.167s-5.417,0.833-6.917,1.833
		s-2.166,2.583-2.166,2.583s1.583,1.418,2.833,1.584s2.417,0.25,2.417,0.25s-0.083,0.75,4,0.75s7.834-1.001,10-1.334
		s5.333-1,5.333-1s15.75-24.833,15.75-24.583"/>
	<path fill="none" stroke="#000000" stroke-width="0.75" d="M137.584,137.386c0,0,5.334-1.166,8.084-2.333s7.25-4.416,9.833-7.083
		s6.25-8.333,6.917-11.083s1-3.167,1-3.167"/>
	<path fill="none" stroke="#000000" stroke-width="0.75" d="M141.085,120.386c0,0,3.582-4.25,4.249-6.583s1.834-9.167,1.334-11.75
		s-2.417-8.25-2.417-8.25"/>
	<path fill="none" stroke="#000000" stroke-width="0.75" d="M141.501,136.637c0,0,12.501,3.334,16.834,4s9.166,1.417,12.083,1.5
		s11.5,0.166,11.5,0.166"/>
	<path fill="none" stroke="#000000" stroke-width="0.75" d="M143.084,137.637c0,0,4.5,7.75,4.417,8s-3.833,12.666-3.833,12.666
		s-6.333-0.833-8.583,0.167s-4.667,3.583-4.667,3.583s1.083,0.667,2,1s2.916,0.667,4.333,0.75s2.334-0.167,2.334-0.167
		s-0.917,0.666,0.583,0.75s10.417-0.25,11-0.833s21.583-21.583,21.583-21.583"/>
	<path d="M144.606,93.677c0,0-1.876-4.188-2.604-4.896s1.479,3.792,1.938,5.167"/>
	<path d="M163.074,113.688c0,0,0.75-4.25,0.594-5.156s-0.156-0.906-0.156-0.906s0.719,4.875,0.125,6.406"/>
	<path d="M140.105,110c0,0,0.094-1.906-0.156-3.063s-0.281-1.281-0.281-1.281s1.188,3.031,1.219,4.25"/>
	<path d="M104.386,116.063c0,0-1.281-6.188-1.656-7.781s-0.375-1.594-0.375-1.594s2.688,8.063,2.719,9.063"/>
	<path d="M177.625,83.303c0,0,3.667-4.708,4.792-5.625s1.917-1.167,1.917-1.167s-5.125,6.166-6.25,7.375"/>
	<path d="M208.584,64.47c0,0-1.916-5.167-2.75-6.25S205,57.136,205,57.136s2.583,1.875,4.25,7.333"/>
	<path d="M171.167,166.47c0,0,1.751-2.833,3.292-3.875s3.958-1.375,3.958-1.375s-3.708,1.916-4.583,2.958s-1.459,2.542-1.459,2.542"
		/>
	<path d="M164.167,165.595c0,0,1.209-3.084,2.542-4.042s4.708-1.541,4.708-1.541s-4.458,2.084-5.125,3s-1.375,3.291-1.375,3.291"/>
	<path d="M138.917,163.595c0,0,0.707-2.5,2.416-3.167s2.667-0.667,2.667-0.667s-3.126,1.166-3.542,2s-1.083,2.25-1.083,2.25"/>
	<path d="M133.875,163.178c0,0,0.416-1.707,1.833-2.666s2.959-0.959,2.959-0.959s-2.584,1.041-3.292,2s-1,2-1,2"/>
	<path d="M102.542,166.428c0-0.125,1.083-2.207,2.458-3.291s4.5-2,4.5-2s-4.291,2.333-4.708,3.083s-0.958,2.083-0.958,2.083"/>
	<path d="M94.667,165.678c0,0,1.083-1.832,2.125-2.916s1.749-1.708,2.833-1.875s1.667-0.084,1.667-0.084s-3.417,1.668-4.042,2.334
		s-1.75,2.666-1.75,2.666"/>
	<path d="M76.25,164.095c0,0,1.167-2.209,2.667-3.334s3.583-1.583,3.583-1.583s-3.584,2.374-4.292,3.333s-1.041,1.709-1.041,1.709"
		/>
	<path d="M70.875,163.178c0,0,0.75-1.959,1.75-2.875s3.833-1.916,3.833-1.916s-3.125,1.791-3.75,2.666s-0.75,2.542-0.75,2.542"/>
	<path d="M82.917,157.344c0,0,1.125,0.542,1.5,0.875s0.375,0.333,0.375,0.333s-0.501-1.957-1.584-1.916"/>
	<path d="M109.75,159.094l2.75,1.375c0,0-1.208-2.124-2.5-2.208"/>
	<path fill="#834421" d="M117.489,48.791l13.285-9.012c-0.971-3.012-2.055-5.996-2.704-9.092c-0.396-0.62-0.785-1.247-1.189-1.862
		c-0.067-0.053-0.139-0.098-0.202-0.158c-0.026-0.024-0.054-0.046-0.081-0.068c-0.218-0.167-0.436-0.333-0.651-0.502
		c-0.354-0.279-0.722-0.563-1.02-0.905c-0.071-0.082-0.141-0.168-0.208-0.254c-1.303-0.599-2.686-1.06-4.066-1.517
		c-0.506,0-1.007,0.027-1.504,0.083c-2.131,0.45-4.239,0.99-6.343,1.545c-0.969,0.433-1.954,0.831-2.945,1.211
		c-1.183,0.453-2.58,1.276-3.859,1.276c-0.853,0-1.519-0.632-1.659-1.435c-0.563-0.485-0.836-1.215-0.807-1.964
		c-0.17,0.124-0.336,0.25-0.495,0.381L57.067,60.709c-0.663,0.052-5.5,6.616-4.809,6.896c0.69,0.28,10.228,11.067,10.957,11.847
		c0.731,0.78,6.791,12.007,6.791,12.007s4.458-2.854,6.478-2.679s12.455,3.204,16.254,4.746c3.799,1.541,12.008,3.909,15.267,2.817
		s12.121-15.995,12.708-17.044s2.59-13.911,2.433-15.905C122.99,61.4,117.489,48.791,117.489,48.791z"/>
	<path fill="#5D3119" d="M95.92,74.387l15.251,5.827l-3.595-11.755c0,0-1.317-5.08-1.823-6.211c-0.507-1.13-0.191-8.845-0.191-8.845
		s-1.337,3.197-1.93,5.25c-0.591,2.052-2.838,5.405-3.066,5.673c-0.229,0.269-3.487,1.359-3.487,1.359s-6.431,0.086-9.16-0.62
		S74.785,60.66,74.785,60.66s6.592,6.254,8.007,8.317c1.415,2.063,0.316,2.984-1.561,3.549c-1.878,0.564-5.057-0.523-9.501-1.765
		s-16.383-6.408-16.383-6.408L45.299,73.75c0,0-2.184,0.341-5.26,0.811c0.684,0.989,1.131,2.228,1.39,3.504
		c0.571-0.287,1.203-0.489,1.835-0.593c2.524-0.413,6.851-0.189,7.013,3.248c0.005,0.104-0.011,0.198-0.013,0.3
		c1.269-0.165,2.772-0.352,3.512-0.41c1.412-0.109,15.139-2.021,18.175-1.673c3.037,0.348,20.515,7.923,20.515,7.923l-2.856-9.807
		l13.047,6.502L95.92,74.387z"/>
	<path fill="#FFFFFF" d="M2.798,47.362c0,0-0.547,3.428-0.527,3.677s0.848,3.632,0.848,3.632l0.879,1.624L4.92,56.85l2.196-3.181
		l1.006,3.244l2.734,1.29l1.343,1.149l3.007,0.768l1.551,2.199c0,0,3.101-0.432,3.058-0.177c-0.043,0.254,0.438,1.595,0.438,1.595
		l2.911,0.337l1.07,4.869l1.669,0.496l4.436-2.604l1.39,0.142l3.032-1.304l1.994-0.155l2.323-1.562l2.516-0.698l2.117-1.795
		L46.448,62l1.222-3.606c0,0-7.292,2.138-8.203,2.523s-6.053,1.164-6.484,1.259c-0.431,0.098-4.165,0.452-5.321,0.104
		c-1.156-0.348-6.639-3.116-6.639-3.116l-10.281-6.405l-6.549-4.377l-1.54-1.259"/>
	<path fill="#834421" d="M48.561,58.048c1.536,0.163,2.878,0.505,4.3,0.976c0.208,0.056,0.415,0.121,0.62,0.194
		c0.164,0.016,0.338,0.068,0.517,0.168c0.263,0.146,0.524,0.294,0.788,0.44c-0.003,0.004-0.006,0.008-0.009,0.012
		c0.097,0.058,0.192,0.108,0.29,0.173c0.371,0.243,0.506,0.596,0.487,0.954c0.08,0.188,0.106,0.38,0.097,0.568
		c0.028,0.076,0.053,0.156,0.067,0.243c0.075,0.411,0.15,0.824,0.223,1.236c0.021,0.11,0.024,0.214,0.021,0.312
		c0.003,0.021,0.006,0.042,0.009,0.063c0.028,0.171,0.008,0.323-0.03,0.467c0.082,0.335,0.081,0.688-0.026,1.033
		c1.434-0.224,2.868-0.281,4.094-0.259c2.284,0.04,4.543,0.487,6.585,1.369l57.729-38.662c-0.815-0.34-3.264-2.091-4.506-1.96
		c-1.244,0.132-6.664,1.412-7.992,1.929c-1.327,0.518-5.782,2.374-5.782,2.374s-2.363-2.138-3.461-3.957
		c-1.099-1.819-4.967-13.879-4.967-13.879s1.56-2.126,1.493-2.748c-0.065-0.622-0.952-3.042-2.411-3.767s-8.18-4.588-10.795-4.838
		c-2.616-0.25-11.621-0.527-12.605-0.096c-0.985,0.431-4.022,2.84-4.362,4.385c-0.339,1.544-1.637,5.428-1.461,6.842
		c0.175,1.415,0.307,2.658,0.307,2.658s-8.508,1.329-8.87,1.694c-0.364,0.366-8.54,5.532-8.54,5.532l-11.104,0.072l-26.646,0.262
		l-4.751,2.842c0,0-8.023,14.427-7.718,16.355c0.305,1.929,2.459,6.125,3.405,6.98c0.945,0.855,8.976,5.937,8.976,5.937
		s-0.027,0.062-0.065,0.149c0.135,0.04,0.27,0.097,0.402,0.185c0.546,0.438,1.176,0.753,1.817,1.03
		c0.316,0.136,0.516,0.36,0.626,0.618c0.324,0.214,0.644,0.435,0.977,0.635c0.331,0.199,0.521,0.478,0.61,0.778
		c1.335,0.687,2.671,1.373,4,2.071c0.282,0.156,0.489,0.353,0.641,0.573c2.307,0.335,4.682,1.7,6.853,2.676
		c2.199-0.459,5.663-1.208,7.685-0.688c1.993-0.764,3.96-1.6,6.023-2.173c0.271-0.075,0.557-0.057,0.822,0.021
		c0.06-0.021,0.118-0.048,0.179-0.067c1.17-0.482,2.466-1.164,3.649-1.118c0.168,0.006,0.313,0.05,0.452,0.103
		C47.437,58.305,47.899,57.978,48.561,58.048z"/>
	<path fill="#834421" d="M124.211,50.702c0,0,2.565-2.835,2.688-5.237c0.123-2.401,1.337-5.17,1.052-7.377
		c-0.284-2.207-0.382-6.923-0.747-7.287c-0.365-0.363-2.066-3.124-2.882-3.466"/>
	<path fill="#FFFFFF" d="M26.924,32.627c0,0-10.763-8.675-14.358-10.456c-3.596-1.781-4.422-2.347-4.422-2.347l-0.176,2.369
		l0.5,2.701l4.899,12.892l1.153,2.215l3.882,0.934c0,0,1.428-3.369,1.47-3.563c0.043-0.193,5.007-3.636,5.007-3.636l2.173-1.324"/>
	
		<ellipse transform="matrix(-0.8588 -0.5123 0.5123 -0.8588 81.9705 71.8136)" fill="#FFFFFF" cx="50.881" cy="24.612" rx="12.156" ry="10.406"/>
	
		<ellipse transform="matrix(-0.8588 -0.5122 0.5122 -0.8588 105.9918 106.544)" fill="#FFFFFF" cx="67.676" cy="38.668" rx="14.594" ry="13"/>
	
		<ellipse transform="matrix(-0.8588 -0.5123 0.5123 -0.8588 91.0434 101.5718)" fill="#0092FF" cx="59.517" cy="38.241" rx="5.187" ry="5.094"/>
	
		<ellipse transform="matrix(-0.8588 -0.5123 0.5123 -0.8588 70.0924 68.8884)" fill="#0092FF" cx="44.539" cy="24.786" rx="4.437" ry="4.344"/>
	<circle fill="#00426B" cx="59.115" cy="38.001" r="2.219"/>
	
		<ellipse transform="matrix(-0.8589 -0.5122 0.5122 -0.8589 69.7667 68.3674)" fill="#00426B" cx="44.302" cy="24.572" rx="1.875" ry="1.843"/>
	
		<ellipse transform="matrix(-0.8587 -0.5124 0.5124 -0.8587 96.9399 100.3412)" fill="#FFFFFF" cx="62.301" cy="36.809" rx="1.344" ry="1.313"/>
	<circle fill="#FFFFFF" cx="56.373" cy="39.059" r="1.031"/>
	
		<ellipse transform="matrix(-0.8588 -0.5122 0.5122 -0.8588 74.6253 68.2172)" fill="#FFFFFF" cx="46.712" cy="23.827" rx="1.125" ry="1.156"/>
	<circle fill="#FFFFFF" cx="41.749" cy="25.924" r="0.875"/>
	
		<ellipse transform="matrix(-0.8588 -0.5123 0.5123 -0.8588 105.8883 106.5572)" fill="none" stroke="#000000" stroke-width="0.75" cx="67.627" cy="38.688" rx="14.501" ry="13.042"/>
	<path fill="none" stroke="#000000" stroke-width="0.75" d="M53.752,34.626c0.229-1.329,0.828-2.577,1.671-3.638
		c0.547-1.076,1.398-2.13,2.42-2.824c0.665-0.646,1.516-1.141,2.305-1.573c0.742-0.407,1.5-0.718,2.287-0.884
		c-0.069-3.852-2.347-7.818-6.314-10.185c-5.731-3.419-12.758-2.201-15.693,2.72c-2.935,4.921-0.667,11.682,5.064,15.101
		c2.658,1.585,5.591,2.153,8.27,1.835c0.003-0.014,0.001-0.028,0.003-0.043C53.731,34.984,53.72,34.816,53.752,34.626z"/>
	<line fill="none" stroke="#000000" stroke-width="0.75" x1="39.019" y1="21.866" x2="11.782" y2="21.776"/>
	<path fill="none" stroke="#000000" stroke-width="0.75" d="M57.419,16.395c0,0,2.688-1.454,6.491-1.732
		c3.805-0.277,14.319-0.337,14.319-0.337s-3.893-4.942-4.497-6.248c-0.604-1.306-0.658-1.702-0.658-1.702s6.11,0.734,12.608,5.337
		c6.497,4.603,8.656,6.473,8.656,6.473s-0.097-3.988,0.532-5.65c0.627-1.663,1.076-2.415,1.076-2.415s1.82,3.051,3.318,7.002
		c1.501,3.951,2.972,9.05,4.263,10.547c1.289,1.497,2.234,2.352,2.234,2.352"/>
	<path fill="none" stroke="#000000" stroke-width="0.75" d="M120.975,25.994c1.511,0.393,5.32,1.573,5.929,5.065
		c0.609,3.493,0.993,6.997,0.542,10.438c-0.452,3.442-0.93,4.976-1.432,6.06c-0.5,1.085-3.99,6.936-4.193,7.032
		c-0.204,0.098-1.787,1.409-6.903,0.104c-5.116-1.305-11.938-3.41-11.938-3.41"/>
	<path fill="none" stroke="#000000" stroke-width="0.75" d="M97.236,35.413c0,0,7.383-5.057,12.468-7.118
		c5.086-2.061,9.758-2.695,11.271-2.302"/>
	<path fill="none" stroke="#000000" stroke-width="0.75" d="M99.895,40.348c0,0,7.61-4.34,12.885-4.032
		c5.274,0.309,5.521,0.382,5.521,0.382"/>
	<path fill="none" stroke="#000000" stroke-width="0.75" d="M105.724,52.047c0,0-0.839,6.413,0.644,12.1s4.361,15.992,4.361,15.992
		s-14.743-6.029-14.817-5.782c-0.075,0.247,6.895,9.425,6.895,9.425l-13.394-6.46l2.888,9.436c0,0-18.555-7.937-22.018-8.11
		c-3.462-0.173-12.449,1.029-12.449,1.029s-9.429,0.716-14.083,1.5"/>
	<path fill="none" stroke="#000000" stroke-width="0.75" d="M8.573,20.08c0,0,3.714,1.706,8.921,5.176
		c5.208,3.47,10.536,7.958,12.6,10.354c2.064,2.396,3.367,4.847,3.367,4.847s-2.481,1.722-7.402,1.552
		c-4.92-0.169-11.785-2.081-11.785-2.081S8.741,26.875,8.188,24.508C7.635,22.141,7.887,19.889,8.573,20.08z"/>
	<path fill="none" stroke="#000000" stroke-width="0.75" d="M7.973,24.38c0,0-5.591,9.619-6.559,12.461s-1.614,5.878-0.291,8.05
		c1.325,2.173,3.806,4.235,8.133,7.106c4.327,2.873,16.232,10.12,19.149,10.476c2.917,0.357,10.608-1.314,12.536-1.983
		c1.927-0.67,3.126-1.338,3.126-1.338"/>
	<path fill="none" stroke="#000000" stroke-width="0.75" d="M15.733,40.653c0,0-3.191,5.228-3.412,7.062
		c-0.22,1.833,0.221,6.462,0.221,6.462"/>
	<path fill="none" stroke="#000000" stroke-width="0.75" d="M67.5,14.621c0,0-0.614-5.679,0.803-8.909
		c1.418-3.23,2.894-4.606,5.335-5.041c2.443-0.435,9.956-0.465,13.646,0.425c3.689,0.891,7.188,2.832,8.993,4.2
		c1.804,1.367,2.214,2.267,2.356,3.37s-1.49,3.842-1.49,3.842"/>
	<path d="M24.905,31.253c0,0-11.233-5.73-11.529-4.257c-0.297,1.474,4.009,13.938,4.009,13.938s10.165,1.018,11.863,0.77
		c1.702-0.247,4.486-0.768,4.213-1.247c-0.272-0.479-5.996-8.452-8.314-9.446"/>
	<path fill="none" stroke="#000000" stroke-width="0.75" d="M47.733,58.389c0,0-0.838,3.701-1.222,3.606
		c-0.383-0.095-2.8-0.532-2.8-0.532l-1.618,1.756c0,0-2.463,0.568-2.847,0.474s-2.241,1.805-2.241,1.805l-2.502,0.071l-2.759,1.595
		l-1.18-0.659c0,0-3.313,2.516-4.291,2.843s-2.167-0.457-2.167-0.457l-1.263-4.917l-2.521-0.178l-0.635-1.706l-2.866,0.225
		l-1.681-2.251l-2.781-0.284l-1.248-1.532l-2.715-1.042l-1.404-3.526l-1.75,3.271l-1.842-1.109c0,0-1.011-3.306-1.023-5.061
		c-0.012-1.755,0.446-3.922,0.541-4.306"/>
	<path fill="none" stroke="#000000" stroke-width="0.75" d="M17.318,62.274c0,0,1.009,1.676,1.605,2.883
		c0.596,1.208,1.078,2.549,0.876,3.192c-0.2,0.643-1.828,2.273-2.172,2.677c-0.344,0.404-1.847,2.025-1.847,2.025"/>
	<path fill="#010000" d="M48.107,58.359c0,0,3.34-0.575,4.641,0.013c1.299,0.588,3.118,2.201,3.118,2.201l0.444,2.473l-1.796,4.278
		l-4.086-0.934l-1,2.439L46.8,68.096l-0.437,1.1l-1.646,0.338l-0.098,1.951l-3.775,0.358l-1.618,1.485l-3.584,0.406l-2.196,1.3
		l-4.719-1.824l-2.787,2.85c0,0-2.762,0.218-2.827,0.201c-0.063-0.017-1.272-1.572-1.272-1.572l-2.434,0.671l-1.407-1.687
		l-1.824-0.609l1.414-1.7l2.254-2.704l0.185-1.102l-0.772-2.134l-1.427-2.479l-0.278-0.627c0,0,2.092-0.227,2.134-0.229
		c0.042-0.003,0.648,1.601,0.648,1.601l2.217,0.286l1.673,5.093c0,0,1.378,0.52,1.482,0.512c0.104-0.009,4.699-2.98,4.699-2.98
		l1.48,0.762l2.561-1.997l2.638,0.337l1.85-2.005l3.267-0.444l1.511-1.789l2.8,0.532c0,0,1.02-3.799,1.688-3.81"/>
	<path fill="#FFFFFF" d="M54.336,35.429l12.792,1.632l-0.823-5.703c0,0-6.761-1.477-7.125-1.323s-3.516,1.529-3.516,1.529
		L54.336,35.429z"/>
	<path fill="#FFFFFF" d="M42.151,20.71l0.579,0.961l4.466,7.421c0,0,4.541-2.863,4.625-3.372c0.086-0.508,0.086-6.903-0.297-6.998
		c-0.383-0.095-6.394-0.001-6.394-0.001"/>
	<path fill="none" stroke="#000000" stroke-width="0.75" d="M57.724,80.374"/>
	<path fill="#5D3119" d="M11.334,62.844c0,0-1.083,0.833-1.25,1.75s-0.25,3.251-0.167,3.667s0.75,2.666,1,3.083
		s1.75,2.916,2.167,3.333s2.083,1.918,2.417,2.084s1.083,0.416,1.333,0.416s1.667-0.5,1.667-0.5l0.417-0.833l-0.167-3.083
		c0,0,1.417,3.25,1.583,3.5s1.833,2.333,1.833,2.333l2,1l2.417,0.417l0.667-0.417L29,75.011c0,0,2.583,5.083,3.083,5.833
		s3.167,3,3.167,3l2.167,1.5l2.083,0.583l1.667-0.083l1.417-1.667l0.583-3.25l5.167-0.166l6.833-0.25l7.083-1.333l6.25-0.751
		l6.917-3.083l-13.083-9.25c0,0-4.75-1.166-5.25-1.333s-2.75-1.25-3.25-1.083c-0.5,0.166-3.167,4.166-3.167,4.166"/>
	<path fill="#FFFFFF" d="M12.292,55.052c-0.125,0.083-1.625,3.583-1.667,3.958s0.458,4.708,0.458,4.708s0.667,1.542,0.667,1.667
		s2.583,0.291,2.583,0.291l2.833,0.667l3.375,1.083c0,0,6.25,1.542,6.292,1.667s3,0.75,3.958,1.292S37,74.511,37,74.511l3.167,1.875
		c0,0,1.833,0.125,3.292-0.625s6.542-4,6.542-4l2.959-1.75c0,0,1.541-1.292,1.541-1.417s-0.166-2.791-0.208-2.916
		s0.834-2.584,0.792-2.709s0.25-2.75,0.208-3s-0.001-1.625-0.167-1.833s-0.958-0.458-0.958-0.458l-5.083,0.125l-5.208,1.625
		l-1.75,0.833c0,0-2.958,0.958-5.625,1.708s-3.875,0.417-5.708,0.709c-1.833,0.291-5.25-0.125-5.25-0.125s-3-2.167-3.708-2.542
		s-4.75-2.792-5.333-3.083s-3.75-2.333-3.75-2.333L12,55.177"/>
	<path fill="none" stroke="#000000" stroke-width="0.75" d="M42,59.927c0,0,0,0,3.333-1.333s8.083-1.25,9.583-0.583
		s1.583,3.667,1.75,5.583s-2.417,5.25-2.584,5.5s-2.417,1.417-4.583,3.084c-2.167,1.667-6.917,3.833-8.083,4.166
		s-2.5-0.666-2.5-0.666s-3.667-2.25-6.667-4.334s-9.417-3.25-12.833-4.416s-7.5-1.084-7.5-1.084s-0.25-0.333-0.667-1.083
		s-0.75-3.833-0.667-5.083s1.5-4.667,1.5-4.667l0.5-0.75"/>
	<path fill="none" stroke="#000000" stroke-width="0.75" d="M10.75,62.344c0,0-1,3.5-0.75,5.167s1.5,4.833,2.333,6
		s2.833,3,3.333,3.25s1.25,0.499,1.833,0.333s1.5-0.833,1.417-1.083s-0.083-1.5-0.083-1.5l-0.917-2.583c0,0,2.834,6.417,5.417,7.25
		s3.833,0.917,4.333-0.25s1.417-3.834,1.417-3.834s1.25,3.251,2.917,5.334s3.75,4.166,5.25,4.833s3.833,1.417,4.667-0.5
		s0.583-5.333,0.583-5.333"/>
	<path fill="none" stroke="#000000" stroke-width="0.75" d="M42.584,81.094c0,0,10.083-0.501,13.167-0.917s8.749-1.832,10.833-1.666
		s2.667,0.25,2.667,0.25"/>
	<path fill="none" stroke="#000000" stroke-width="0.75" d="M10.5,60.761l3.5-0.833l2,3.167l3.583-0.25l1.083,1.667
		c0,0,3-0.167,3.083,0.083s0.917,2,0.917,2S30,65.678,30,65.928s0.083,1.25,0.083,1.25l3.167-1.667l2.333,5.083l5.333-4.583l2.417,2
		l4.333-2.417l2.667-0.666c0,0,3.583-4.667,3.833-5.25s0.333-1.583,0.333-1.583"/>
	<path fill="none" stroke="#000000" stroke-width="0.75" d="M50.334,64.928c0,0,0.25,0.334,1.583,1.5
		c1.334,1.166,2.167,2.666,2.167,2.666"/>
	<path d="M54.792,58.219c0,0-0.374,1.5-0.583,1.833s-3.584,4.875-3.584,4.875s2.126,1.874,2.459,2.291s1.083,1.417,1.083,1.417
		s1.75-2.751,1.875-3.167s0.542-2.666,0.542-2.666l-0.459-2.375l-0.791-1.875L54.792,58.219z"/>
</g>
</svg>
