<?xml version="1.0" encoding="utf-8"?>
<!-- Generator: Adobe Illustrator 13.0.0, SVG Export Plug-In . SVG Version: 6.00 Build 14948)  -->
<!DOCTYPE svg PUBLIC "-//W3C//DTD SVG 1.1//EN" "http://www.w3.org/Graphics/SVG/1.1/DTD/svg11.dtd">
<svg version="1.1" xmlns="http://www.w3.org/2000/svg" xmlns:xlink="http://www.w3.org/1999/xlink" x="0px" y="0px"
	 width="250.701px" height="193.066px" viewBox="0 0 250.701 193.066" enable-background="new 0 0 250.701 193.066"
	 xml:space="preserve">
<g id="frame_1">
	<g>
		<g>
			<path fill="none" d="M5.938,60.77c-1.625,0.125-0.625,2.125,0.5,2.375c0.125-1.125-0.625-2.125-1.75-2.375
				c-0.5,1.875,1.875,3.5,3.375,3.875c-0.5-1.5-3.125-2.875-4.625-3.375c1,2,4.125,4,6.25,4.625c-0.625-1.375-3-2.875-4.625-3.25
				c0.625,1.5,2.5,2.75,4,3.5c-0.5-1-2-1.875-3.125-2.25c0.5,1.25,2.125,2.25,3.375,2.875c-0.875-1.25-2.25-2.25-3.625-3.125
				c0.875,0.75,1.625,1.5,2.5,2.25c-0.875-1.125-2.125-2.125-3.25-3.125c0.5,0.625,1.25,1.125,1.875,1.625
				c-1.125-0.375-2.125-1-3.125-1.5c0.375,0.625,0.875,1.25,1.625,1.75c-1-1-1.625-2.125-1.5-3.5c0,0.25,0,0.375,0.125,0.625
				c-0.375-0.75-0.25-1.625,0-2.375l-0.125,0.5c0.125-0.875,0.875-1.5,1.75-1.25c-0.375,0.5-0.5,0.625-1,0.875
				c0.25-1.375,2.875-2.625,4.125-1.75c-0.5,0.375-1.375,0.5-2.125,0.625c1.5-1,4.875-1.125,6.625-0.5c-1,0.5-2.625,0-3.75-0.25
				c1.375,0.5,2.875,0.375,4.375,0.875c-2.625-0.5-6-1-8.25,0.375c2.75,0.625,5.625-0.875,8.375-0.25
				c-2.875,0.375-6.125,0.125-8.875,0.875c2,0.5,4.5,0.375,6.5,0c-1.625-0.375-5.125-1.125-6.375-0.125
				c1.5,2.375,4.625,5.125,6.75,6.875c-0.625-1.875-2.375-4.25-3.875-5.5c-0.125,2.25,2,5.25,3.75,6.625
				c-0.375-0.625-3.25-4-3.5-2.25c-0.25,1.25,2.125,3,2.5,1.125"/>
			<path fill="#FFFFFF" d="M5.823,60.342c-2.045,0.448-2.189,2.484-0.162,3.242c0.465,0.174,1.752-0.038,1.742-0.698
				c-0.02-1.342-0.706-2.125-1.939-2.556c-0.405-0.141-1.66-0.004-1.738,0.575c-0.293,2.178,1.676,3.595,3.561,4.179
				c0.297,0.092,2.023-0.087,1.742-0.698c-0.855-1.858-2.981-2.891-4.814-3.556c-0.283-0.103-2.063,0.139-1.742,0.698
				c1.349,2.351,3.906,3.972,6.439,4.806c0.279,0.092,2.063-0.126,1.742-0.698c-0.983-1.75-2.921-2.898-4.814-3.431
				c-0.28-0.079-2.051,0.099-1.742,0.698c0.897,1.744,2.494,2.792,4.189,3.681c0.397,0.208,2.082-0.178,1.677-0.803
				c-0.76-1.176-1.968-1.84-3.25-2.326c-0.294-0.111-2.041,0.123-1.742,0.698c0.766,1.475,2.13,2.309,3.564,3.056
				c0.379,0.197,2.131-0.218,1.677-0.803c-1.008-1.299-2.256-2.233-3.625-3.125c-0.456-0.297-2.312,0.279-1.802,0.727
				c0.842,0.74,1.658,1.51,2.5,2.25c0.424,0.373,2.259-0.179,1.802-0.727c-0.971-1.163-2.115-2.128-3.25-3.125
				c-0.437-0.384-2.269,0.225-1.802,0.727c0.573,0.616,1.211,1.111,1.875,1.625c0.559-0.268,1.118-0.535,1.677-0.803
				c-1.088-0.415-2.093-0.964-3.125-1.5c-0.395-0.205-2.086,0.18-1.677,0.803c0.463,0.706,0.954,1.236,1.625,1.75
				c0.436,0.333,2.286-0.205,1.802-0.727c-0.959-1.035-1.457-1.987-1.435-3.396c-0.644,0.172-1.288,0.345-1.932,0.518
				c-0.019,0.22,0.023,0.429,0.125,0.625c0.214,0.611,2.123,0.057,1.932-0.518c-0.262-0.788-0.22-1.456-0.004-2.252
				c-0.641,0.09-1.283,0.181-1.924,0.271c-0.042,0.167-0.083,0.333-0.125,0.5c-0.161,0.643,1.751,0.308,1.924-0.271
				c0.062-0.209,0.124-0.419,0.186-0.629c-0.097-0.159-0.193-0.318-0.29-0.478c-0.231,0.209-0.463,0.419-0.694,0.628
				c0.516,0.034,1.032,0.069,1.548,0.103c0.283-1,1.079-1.392,2.387-1.175c0.063-0.226,0.126-0.452,0.19-0.678
				c-0.432,0.234-0.896,0.361-1.392,0.382c0.146,0.24,0.293,0.48,0.44,0.72c1.502-0.856,3.647-0.79,5.262-0.299
				c0.136-0.261,0.273-0.522,0.409-0.783c-0.763,0.258-2.012-0.212-2.781-0.392c-0.452-0.105-2.123,0.707-1.378,0.925
				c1.439,0.42,2.93,0.482,4.375,0.875c0.459-0.309,0.919-0.617,1.378-0.925c-3.184-0.591-6.48-0.96-9.438,0.622
				c-0.375,0.2-0.565,0.633-0.016,0.724c2.828,0.469,5.571-0.715,8.375-0.25c0.25-0.322,0.499-0.645,0.749-0.967
				c-3.058,0.344-6.126,0.206-9.136,0.929c-0.394,0.095-1.358,0.727-0.487,0.913c2.305,0.494,4.644,0.39,6.956-0.004
				c0.37-0.063,1.761-0.737,0.749-0.967c-2.351-0.534-5.364-1.255-7.563,0.122c-0.216,0.136-0.495,0.332-0.314,0.602
				c1.792,2.679,4.286,4.831,6.75,6.875c0.353,0.292,2.1-0.006,1.867-0.622c-0.814-2.156-2.221-4.079-3.94-5.604
				c-0.425-0.377-1.875-0.025-1.867,0.622c0.036,2.63,1.873,5.101,3.815,6.729c0.417,0.349,2.221-0.098,1.802-0.727
				c-0.951-1.426-3.5-4.273-5.216-2.149c-1.392,1.723,3.238,4.224,4.277,1.251c0.202-0.577-1.715-0.325-1.924,0.271
				c0.141,0.041,0.281,0.082,0.421,0.122c-0.399-0.214-0.699-0.526-0.897-0.935c-0.027-0.518-0.357-0.647-0.991-0.388
				c0.263,0.153,0.507,0.333,0.731,0.538c0.677,0.565,1.307,1.282,1.797,2.016c0.601-0.242,1.201-0.484,1.802-0.727
				c-1.912-1.604-3.65-3.936-3.685-6.521c-0.622,0.208-1.245,0.415-1.867,0.622c1.665,1.477,3.021,3.306,3.81,5.396
				c0.622-0.208,1.245-0.415,1.867-0.622c-2.464-2.044-4.957-4.196-6.75-6.875c-0.105,0.201-0.209,0.401-0.314,0.602
				c1.285-0.805,3.813,0.06,5.187,0.372c0.25-0.322,0.499-0.645,0.749-0.967c-2.029,0.346-4.022,0.43-6.044-0.004
				c-0.163,0.304-0.325,0.609-0.487,0.913c2.815-0.677,5.75-0.5,8.614-0.821c0.377-0.042,1.759-0.799,0.749-0.967
				c-2.828-0.469-5.571,0.715-8.375,0.25c-0.005,0.241-0.01,0.482-0.016,0.724c2.129-1.138,4.807-0.547,7.062-0.128
				c0.432,0.08,2.135-0.719,1.378-0.925c-1.443-0.392-2.941-0.456-4.375-0.875c-0.459,0.309-0.919,0.617-1.378,0.925
				c1.657,0.387,3.082,0.662,4.719,0.108c0.211-0.071,0.978-0.61,0.409-0.783c-2.539-0.771-5.653-0.629-7.988,0.701
				c-0.73,0.416-0.181,0.825,0.44,0.72c1.013-0.171,1.952-0.375,2.858-0.868c0.263-0.144,0.583-0.48,0.19-0.678
				c-1.955-0.984-5.158,0.222-5.863,2.325c-0.217,0.648,1.363,0.208,1.548,0.103c0.548-0.313,0.912-0.629,1.306-1.122
				c0.198-0.248-0.033-0.452-0.29-0.478c-1.486-0.147-2.857,0.337-3.314,1.871c0.641-0.09,1.283-0.181,1.924-0.271
				c0.042-0.167,0.083-0.333,0.125-0.5c0.159-0.637-1.763-0.32-1.924,0.271c-0.25,0.92-0.307,1.585-0.004,2.498
				c0.644-0.172,1.288-0.345,1.932-0.518c-0.102-0.197-0.144-0.405-0.125-0.625c-0.028-0.557-1.922-0.146-1.932,0.518
				c-0.023,1.485,0.582,2.544,1.565,3.604c0.601-0.242,1.201-0.484,1.802-0.727c-0.671-0.514-1.161-1.044-1.625-1.75
				c-0.559,0.268-1.118,0.535-1.677,0.803c1.032,0.536,2.037,1.085,3.125,1.5c0.361,0.137,2.229-0.375,1.677-0.803
				c-0.663-0.514-1.302-1.009-1.875-1.625c-0.601,0.242-1.201,0.484-1.802,0.727c1.135,0.997,2.279,1.962,3.25,3.125
				c0.601-0.242,1.201-0.484,1.802-0.727c-0.842-0.74-1.658-1.51-2.5-2.25c-0.601,0.242-1.201,0.484-1.802,0.727
				c1.369,0.892,2.617,1.826,3.625,3.125c0.559-0.268,1.118-0.535,1.677-0.803c-1.261-0.656-2.509-1.392-3.186-2.694
				c-0.581,0.233-1.161,0.465-1.742,0.698c1.209,0.459,2.288,1.072,3,2.174c0.559-0.268,1.118-0.535,1.677-0.803
				c-1.52-0.796-3.003-1.75-3.811-3.319c-0.581,0.233-1.161,0.465-1.742,0.698c1.707,0.479,3.54,1.475,4.436,3.069
				c0.581-0.233,1.161-0.465,1.742-0.698c-2.339-0.77-4.804-2.255-6.061-4.444c-0.581,0.233-1.161,0.465-1.742,0.698
				c1.661,0.602,3.655,1.5,4.436,3.194c0.581-0.233,1.161-0.465,1.742-0.698c-1.579-0.489-3.445-1.675-3.189-3.571
				c-0.58,0.191-1.159,0.383-1.738,0.575c1.118,0.39,1.544,1.071,1.561,2.194c0.581-0.233,1.161-0.465,1.742-0.698
				c-0.177-0.066-1.662-1.398-1.162-1.508C7.222,60.941,6.974,60.09,5.823,60.342L5.823,60.342z"/>
		</g>
	</g>
	<g>
		<g>
			<path fill="none" d="M3.188,60.645c-0.5-0.125-0.625,0.5-0.125,1.25c-0.125-0.125-0.125-0.625-0.125-0.75
				c-0.125,2.5,3.5,4.375,4.875,4.75"/>
			<path fill="#FFFFFF" d="M3.525,59.955c-1.586-0.079-2.071,1.086-1.348,2.361c0.377,0.666,2.201,0.056,1.851-0.681
				c-0.089-0.188-0.111-0.362-0.113-0.569c-0.013-0.999-1.952-0.695-1.955,0.155c-0.011,2.708,2.952,4.629,5.292,5.313
				c0.812,0.237,2.285-0.941,1.121-1.281c-1.786-0.522-4.466-2.06-4.458-4.187c-0.652,0.052-1.303,0.104-1.955,0.155
				c0.004,0.316,0,0.642,0.137,0.931c0.617-0.227,1.234-0.454,1.851-0.681C3.76,61.271,3.704,61.05,3.778,60.81
				c-0.166,0.151-0.332,0.302-0.498,0.453c0.047-0.024,0.093-0.048,0.14-0.072c-0.254,0.045-0.508,0.09-0.762,0.134
				c0.063,0.003,0.127,0.006,0.19,0.009c0.465,0.023,1.036-0.13,1.259-0.586C4.313,60.332,3.931,59.975,3.525,59.955L3.525,59.955z"
				/>
		</g>
	</g>
	<g>
		<g>
			<path fill="none" d="M39.688,46.02c-0.25-0.25-0.375-0.375-0.625-0.375c-1,2.625,1,7.75,3.75,8.625c0-1-3.5-6.375-4.875-5.5
				c-2,1.25,3,6.75,4.25,7c-0.75-2.125-3.125-5.625-5.125-6.5c-0.5,2.125,2,4.75,3.875,5.5c0.25-1.75-2.625-4.375-4-4.875
				c-0.25,1.125,2.75,5.875,4,4.75c1.375-1.375-3.375-5-4.25-5.375c-0.625,2.125,1.5,4,3,5c1,0.5,4.375,2.5,4.125,0.5
				c-0.125-1.125-4.5-4.375-5.5-3.125c-1.625,2,4.5,4.875,5.75,5c2.25,0.25,5.375-1,2.75-3.125c-1.375-1.125-5.875-1.75-5.625,0.875
				c0.375,5.75,17.5,0.75,7-4.875c-2.25-1.25-8-1.5-7.25,2.5c0.625,3.375,6.625,4.125,8.625,1.75c1.75-2.25-0.625-8.375-3.625-8.125
				c-4.25,0.375-1.625,7.375,0.625,8.625c4.125,2.25,6.375-2.375,6.5-5.75c0.125-4.5-2.5-3.875-3.375,0c-0.5,1.875,0,8.625,2.5,4.25
				c0.75-1.25,3.25-8.75,2-10.125c0-0.125-0.125-0.25-0.125-0.375c-2.375,1.25-3.875,6.125-3.875,8.625c0,4.875,3.125-0.5,3.75-2.25
				c0.5-1.75,2-7-1.125-6.625c-2.625,0.375-5,5.875-4.5,8.125c1.375,6.25,9.5-11.125,2.25-8.625c-2.25,0.75-6.5,7.125-5.125,9.625
				c1.625,2.625,5-4.75,5.5-6.125c1.375-4.125-1.5-3.375-3.5-0.875c-1.25,1.5-4,5.875-1.875,7.625c0.25-0.125,0.125-0.25,0.25-0.375
				"/>
			<path fill="#FFFFFF" d="M40.6,45.699c-0.208-0.125-0.417-0.25-0.625-0.375c-0.331-0.198-1.748,0.081-1.863,0.499
				c-0.875,3.172,0.678,7.392,3.788,8.767c0.299,0.132,1.967-0.102,1.878-0.579c-0.466-2.508-3.296-6.436-6.166-5.429
				c-3.402,1.193,1.938,6.844,3.663,7.508c0.264,0.102,2.05-0.154,1.878-0.579c-1.023-2.542-2.726-5.204-5.178-6.562
				c-0.351-0.194-1.846,0.092-1.878,0.579c-0.169,2.555,1.782,4.483,3.928,5.562c0.328,0.165,1.899-0.089,1.878-0.579
				c-0.092-2.172-2.208-4.06-4.053-4.937c-0.344-0.163-1.875,0.079-1.878,0.579c-0.016,2.202,2.494,5.708,4.974,4.838
				c3.465-1.215-1.949-5.298-3.346-6.042c-0.369-0.196-1.818,0.087-1.878,0.579c-0.4,3.268,5.917,8.831,8.918,5.678
				c1.227-1.289-2.905-3.554-3.572-3.877c-1.207-0.585-2.568-0.34-3.625,0.405c-1.788,1.26,1.973,3.579,2.676,3.993
				c1.743,1.027,3.558,1.621,5.572,1.135c1.485-0.358,3.706-1.014,2.759-2.926c-0.836-1.688-3.888-1.954-5.482-1.653
				c-4.112,0.775-2.849,4.592,0.741,4.997c2.806,0.316,6.97-0.693,8.568-3.219c2.48-3.92-6.039-5.907-8.413-5.62
				c-4.885,0.59-4.941,5.566-0.291,6.896c2.483,0.709,6.539-0.129,7.428-2.828c1.14-3.462-1.932-7.744-5.521-7.067
				c-3.89,0.733-2.851,5.019-1.359,7.538c1.679,2.836,5.168,2.681,7.563,0.945c1.672-1.212,4.273-9.292,0.493-8.905
				c-3.385,0.346-3.792,4.372-3.542,7.082c0.255,2.778,2.332,3.154,4.059,1.184c2.188-2.497,3.352-8.227,2.336-11.274
				c-0.135-0.405-1.495,0.118-1.699,0.254c-2.209,1.477-3.361,4.101-3.836,6.662c-0.29,1.564-0.966,4.691,1.446,4.226
				c3.616-0.697,5.091-7.019,4.674-10.057c-0.243-1.768-2.192-1.532-3.43-1.186c-2.315,0.646-3.581,3.078-4.376,5.141
				c-1.042,2.701-0.243,6.354,3.07,4.132c2.38-1.596,4.069-6.145,3.513-8.915c-0.696-3.472-5.945,0.048-7.008,1.221
				c-1.427,1.574-5.793,10.204-0.328,8.287c2.051-0.719,7.17-8.56,4.517-9.973c-1.33-0.709-3.765,1.03-4.521,1.885
				c-1.771,2-4.637,5.878-2.4,8.402c0.275,0.311,1.56-0.167,1.783-0.41c0.163-0.178,0.24-0.247,0.33-0.464
				c0.113-0.271-1.704-0.115-1.9,0.357c-0.057,0.095-0.113,0.19-0.17,0.286c0.594-0.137,1.188-0.273,1.783-0.41
				c-1.407-1.588-0.428-3.615,0.399-5.229c0.388-0.758,3.147-4.954,3.457-2.727c0.204,1.468-3.506,7.904-3.928,7.393
				c-1.606-1.951,2.653-9.47,5.033-9.22c2.094,0.22,0.795,4.315,0.462,5.284c-0.316,0.922-0.76,1.796-1.25,2.635
				c-0.214,0.367-0.467,0.706-0.726,1.042c-0.499,0.646-0.218,0.467-0.535-0.334c-0.55-1.391,0.108-3.05,0.61-4.351
				c0.495-1.282,2.757-5.22,3.684-2.328c0.779,2.43-0.803,5.82-2.064,7.84c-0.965,1.546-0.438-1.45-0.342-2.238
				c0.292-2.397,1.426-5.541,3.521-6.941c-0.566,0.084-1.133,0.169-1.699,0.254c1.075,3.226-0.29,7.448-1.859,10.42
				c-0.66,0.543-0.635,0.82,0.074,0.832c-0.269-0.306-0.446-0.656-0.533-1.05c-0.252-0.755-0.263-1.612-0.297-2.398
				c-0.062-1.455,1.029-6.303,1.592-2.572c0.384,2.547-1.036,7.773-4.598,6.19c-1.722-0.765-2.533-3.564-2.801-5.224
				c-0.177-1.099,0.059-3.399,2.048-2.228c1.219,0.719,1.815,2.354,2.218,3.627c1.4,4.417-3.833,5.95-6.522,2.845
				c-0.688-0.795-0.678-2.033-0.333-2.952c0.626-1.667,3.627-0.804,4.729-0.4c1.603,0.588,3.598,2.025,3.808,3.831
				c0.413,3.535-7.902,4.593-8.469,0.688c-0.318-2.195,3.187-0.669,3.747-0.296c2.753,1.833-1.286,2.481-2.726,1.867
				c-0.863-0.369-1.665-0.861-2.444-1.379c-0.335-0.223-1.984-2.531-1.488-2.358c0.886,0.309,1.676,0.957,2.398,1.533
				c0.484,0.386,2.134,1.932,0.529,1.244c-2.375-1.019-4.862-2.904-4.516-5.735c-0.626,0.193-1.252,0.386-1.878,0.579
				c1.723,0.917,3.866,2.635,4.433,4.539c0.697,0.262,0.742,0.209,0.137-0.158c-0.655-0.482-1.137-1.293-1.572-1.969
				c-0.445-0.691-0.875-1.529-0.87-2.366c-0.626,0.193-1.252,0.386-1.878,0.579c1.852,0.88,3.854,2.651,3.947,4.813
				c0.626-0.193,1.252-0.386,1.878-0.579c-2.124-1.067-3.988-2.925-3.822-5.438c-0.626,0.193-1.252,0.386-1.878,0.579
				c2.422,1.341,4.058,3.921,5.072,6.438c0.626-0.193,1.252-0.386,1.878-0.579c-2.053-0.79-3.808-3.37-4.552-5.353
				c-0.186-0.495-0.788-1.106,0.045-0.474c0.715,0.542,1.242,1.33,1.768,2.046c0.607,0.825,1.295,1.835,1.486,2.86
				c0.626-0.193,1.252-0.386,1.878-0.579c-2.953-1.306-4.555-5.43-3.712-8.483c-0.621,0.166-1.242,0.333-1.863,0.499
				c0.208,0.125,0.417,0.25,0.625,0.375C39.235,46.616,40.8,45.819,40.6,45.699L40.6,45.699z"/>
		</g>
	</g>
	<ellipse fill="none" stroke="#FFFFFF" cx="66.688" cy="52.52" rx="14.5" ry="15.25"/>
	<ellipse fill="none" stroke="#FFFFFF" cx="46.875" cy="47.832" rx="11.938" ry="10.188"/>
	<ellipse fill="none" stroke="#FFFFFF" cx="65.563" cy="53.395" rx="15.5" ry="16.625"/>
	<ellipse fill="none" stroke="#FFFFFF" cx="66.313" cy="53.832" rx="16.25" ry="16.438"/>
	<g>
		<g>
			<path fill="none" d="M58.313,58.395c-0.5,0.125,3,3,3.75,3.375c-1.625-1.5-4-2.5-6-3.625c1.875,1.5,4,2.625,5.875,4.125
				c-3.25-2.5-5.875-5.375-8.875-8.125c1.25,3,5.75,7.375,8.75,8.625c0-2-4.875-6.625-7-6.5c0.375,3.75,6.25,5.625,9.25,6
				s7.625-1.125,2.5-2.625c-2-0.625-7.375-0.375-5.25,3c1.75,3,8.875,2.25,11,0"/>
			<path fill="#FFFFFF" d="M57.362,58.574c-0.224,1.1,2.974,3.015,3.788,3.515c0.393,0.241,2.083-0.428,1.825-0.639
				c-1.835-1.501-3.925-2.502-6-3.625c-0.401-0.217-2.083,0.443-1.825,0.639c1.912,1.444,3.963,2.681,5.875,4.125
				c0.397,0.3,2.061-0.451,1.825-0.639c-3.145-2.508-5.937-5.386-8.875-8.125c-0.269-0.25-2.024,0.276-1.878,0.578
				c1.754,3.644,5.168,6.952,8.803,8.686c0.302,0.144,1.951-0.106,1.878-0.578c-0.438-2.84-4.349-6.351-7.167-6.597
				c-0.268-0.023-1.862,0.145-1.764,0.615c0.986,4.732,8.354,6.919,12.613,5.99c0.593-0.129,3.399-0.59,3.338-1.586
				c-0.108-1.772-3.75-1.924-5.09-1.919c-3.297,0.011-7.176,2.675-2.825,5.257c3.088,1.834,8.74,0.557,11.299-1.717
				c0.375-0.333-1.409-0.111-1.739,0.182c-2.293,2.037-7.196,2.281-9.165-0.35c-2.361-3.154,3.846-2.391,5.269-1.615
				c-0.667,0.396-1.334,0.792-2.001,1.187c-0.717-0.037-1.424-0.136-2.122-0.298c-1.114-0.222-2.182-0.621-3.23-1.048
				c-2.094-0.852-3.938-2.313-4.415-4.601c-0.588,0.205-1.176,0.41-1.764,0.615c2.709,0.237,6.423,3.745,6.833,6.403
				c0.626-0.193,1.252-0.385,1.878-0.578c-3.621-1.727-6.957-4.95-8.697-8.564c-0.626,0.193-1.252,0.385-1.878,0.578
				c2.938,2.739,5.729,5.617,8.875,8.125c0.608-0.213,1.217-0.426,1.825-0.639c-1.912-1.444-3.963-2.681-5.875-4.125
				c-0.608,0.213-1.217,0.426-1.825,0.639c2.075,1.123,4.164,2.124,6,3.625c0.608-0.213,1.217-0.426,1.825-0.639
				c-0.626-0.385-3.876-2.431-3.712-3.235C59.338,57.842,57.453,58.132,57.362,58.574L57.362,58.574z"/>
		</g>
	</g>
	<g>
		<g>
			<path fill="none" d="M55.563,48.02c-1.625,0.25-1.25-1.125-0.875-2.125c1.5-3.5,5.5-6.25,9-7.25
				c-1.5,1.25-3.25,2.125-4.625,3.625c-1.375,1.375-2.5,3.125-4.125,4.125c1.875-3.25,9.75-8.875,13.625-7.5
				c-2.25,1.875-7.5,3.875-10.25,4.25c3.25-2.75,13.625-6.25,16.875-2.375c-1.875,1.625-9,0.5-10.5-1.375
				c2.75-1.5,11.875-0.125,13.625,2.75c1.25,2-0.875,1.75-2.25,1.125c-1.625-0.625-3.375-2-4.375-3.375
				c3.375,1.625,7.25,7.125,8.375,10.625c-2.375-1.125-4.375-5.25-5.125-7.75c2.375,2.5,4.875,9.25,3.25,12.375
				c-1.125-1.625-1.25-4.75-0.5-6.625c0.75,3.375-1.625,8.75-4.125,11c-3.5,3.125-7.625,1.5-11.75,1c2.375,1.125,6.25,2,8.875,1.5
				c-1-1.125-11-3-10.375-0.875c0.75,2.75,12,1.25,13.375-0.5c-1.125-1.125-5-1-5.875,0.5c1.125,1.375,3.25,1.125,4.875,1.125
				c-1.25,0-2.875,0-4.125,0.5c1.375,0.375,3.5-0.25,4.5-1.25c-0.5-0.5-0.875-0.5-1.5-0.125c3-0.25,5.5-5.375,6.375-7.75
				c1-3,1.25-6.375-0.125-9.125c0.375,2.625,2.75,4.75,2.375,7.5c-0.375,3-3.375,7.625-6.25,8.75c0.125-1.875,2.5-4.25,3.375-6
				c1-1.875,1.5-4.375,3-5.875c0.875,4.25-3,13.75-8,14.25c0.5-2.125,3.5-4.375,4.75-6.125c1.875-2.875,1.875-3.625,0.125-6.25
				c-2-3.25-6.125-14.875-11.75-12.125c3.25,1.5,8,1.25,10.75,3.5c-1.25,0.625-3.375,0.5-4.875,0.5"/>
			<path fill="#FFFFFF" d="M55.904,47.343c-1.083-1.163-0.706-2.38,1.133-3.654c1.604-2.193,4.327-3.56,6.82-4.413
				c-0.268-0.349-0.536-0.698-0.803-1.047c-3.146,2.39-5.655,5.373-8.75,7.75c0.518,0.17,1.036,0.34,1.553,0.51
				c1.954-2.934,5.138-5.005,8.288-6.444c6.207-2.835,1.18,0.056-0.297,0.729c-1.817,0.828-3.747,1.381-5.705,1.738
				c0.268,0.349,0.536,0.698,0.803,1.047c2.191-1.671,4.732-2.603,7.372-3.317c1.94-0.525,4.021-0.67,5.998-0.25
				c2.672,0.568-1.586,0.79-2.178,0.726c0.313,0.034-3.487-1.18-3.239-1.211c1.339-0.173,2.737,0.031,4.065,0.203
				c1.65,0.212,3.275,0.734,4.775,1.443c1.07,0.35,1.018,0.675-0.156,0.977c-1.172-0.68-2.175-1.564-3.009-2.652
				c-0.545,0.32-1.09,0.64-1.635,0.96c3.816,2.193,6.641,6.27,8.158,10.341c0.571-0.267,1.143-0.534,1.714-0.801
				c-2.637-1.675-3.945-4.605-4.908-7.466c-0.617,0.226-1.235,0.451-1.852,0.676c2.473,2.983,4.643,7.981,3.217,11.862
				c0.628-0.055,1.257-0.109,1.885-0.164c-1.045-2.129-1.125-4.134-0.489-6.448c-0.647,0.113-1.295,0.227-1.942,0.34
				c0.321,2.765-0.51,5.095-1.731,7.544c-2.54,5.09-8.277,4.196-12.836,3.521c-0.709-0.105-1.975,0.856-0.905,1.306
				c2.995,1.26,6.097,1.911,9.345,1.548c0.51-0.057,1.559-0.677,0.842-1.221c-1.35-1.023-13.078-3.761-12.089-0.074
				c1.146,4.278,12.939,1.511,15.144-0.495c0.248-0.226,0.229-0.625-0.054-0.806c-2.265-1.448-5.547-1.16-7.426,0.779
				c-0.246,0.253-0.225,0.597,0.054,0.806c1.748,1.311,3.406,1.29,5.53,1.261c0.063-0.452,0.125-0.904,0.188-1.356
				c-1.565,0.021-2.887,0.154-4.388,0.546c-0.723,0.189-1.222,1.213-0.172,1.308c2.134,0.193,3.737-0.261,5.475-1.511
				c0.296-0.213,0.54-0.721,0.115-0.958c-1.052-0.584-1.256-0.602-2.418-0.214c-1.153,0.384-0.864,1.575,0.339,1.264
				c6.782-1.754,9.29-12.028,7.046-17.766c-0.321-0.822-2.158-0.352-1.932,0.518c0.658,2.526,2.325,4.634,2.364,7.323
				c0.045,3.051-3.283,6.877-5.693,8.128c0.465,0.153,0.931,0.306,1.396,0.459c0.466-1.953,1.79-3.239,2.773-4.901
				c1.28-2.166,1.852-4.624,3.428-6.628c-0.589-0.001-1.179-0.003-1.769-0.005c0.604,4.571-2.187,12.329-7.204,13.359
				c0.363,0.242,0.726,0.485,1.089,0.727c1.487-3.626,5.481-5.48,6.229-9.521c0.347-1.874-2.481-5.46-3.276-7.02
				c-2.205-4.331-5.372-10.737-11.167-8.596c-0.564,0.208-0.791,0.923-0.144,1.17c3.489,1.33,7.38,1.32,10.565,3.413
				c0.193-0.392,0.386-0.783,0.579-1.174c-1.423,0.443-2.878,0.595-4.364,0.456c-0.892-0.007-1.989,1.342-0.683,1.353
				c1.855,0.015,3.603,0.021,5.386-0.544c0.426-0.135,1.23-0.747,0.579-1.174c-3.321-2.183-7.292-2.199-10.935-3.587
				c-0.048,0.39-0.096,0.78-0.144,1.17c4.534-1.675,7.988,7.256,9.402,10.051c1.633,3.228,3.013,5.072,0.249,8.434
				c-1.51,1.836-3.196,3.136-4.116,5.38c-0.291,0.708,0.607,0.826,1.089,0.727c6.052-1.244,9.538-9.525,8.796-15.141
				c-0.099-0.751-1.478-0.374-1.769-0.005c-1.447,1.839-2.137,3.936-3.117,6.043c-1.039,2.234-2.844,3.717-3.432,6.177
				c-0.17,0.712,1.055,0.636,1.396,0.459c2.934-1.522,4.771-4.047,6.141-7.011c1.752-3.791-0.791-6.471-1.72-10.039
				c-0.644,0.172-1.288,0.345-1.932,0.518c1.758,4.498,0.418,14.466-5.454,15.984c0.113,0.421,0.226,0.842,0.339,1.264
				c-0.943,0.022-1.885,0.044-2.828,0.067c-0.057,0.436-0.115,0.872-0.172,1.308c1.269-0.355,2.556-0.506,3.862-0.454
				c1.081-0.015,1.503-1.375,0.188-1.356c-0.031-1.104-0.504-1.268-1.419-0.493c-0.579,0.172-1.164,0.316-1.756,0.433
				c-2.055,0.457-4.247,0.54-6.333,0.331c-3.943-0.395,1.138-0.843,2.237-0.675c1.349,0.206,3.297,0.517,4.43,1.375
				c0.281-0.407,0.562-0.814,0.842-1.221c-2.951,0.33-5.696-0.312-8.405-1.452c-0.302,0.436-0.604,0.871-0.905,1.306
				c4.738,0.701,8.62,1.681,12.725-1.261c3.313-2.375,4.902-7.843,4.457-11.674c-0.105-0.907-1.773-0.274-1.942,0.34
				c-0.661,2.406-0.605,4.528,0.511,6.802c0.322,0.657,1.633,0.524,1.885-0.164c1.582-4.304-0.485-9.512-3.283-12.888
				c-0.446-0.539-2.13-0.15-1.852,0.676c1.039,3.088,2.511,6.235,5.342,8.034c0.464,0.295,2.011-0.006,1.714-0.801
				c-1.612-4.325-4.534-8.576-8.592-10.909c-0.518-0.297-2.287,0.202-1.635,0.96c1.584,1.842,4.224,4.312,6.914,4.085
				c1.426-0.12,2.645-1.222,1.484-2.67c-2.988-3.73-10.708-4.627-14.931-2.873c-0.279,0.116-0.819,0.63-0.466,0.958
				c2.817,2.62,8.702,3.404,12.02,1.373c0.229-0.14,0.514-0.585,0.252-0.833c-4.715-4.455-13.977-0.991-18.395,2.377
				c-0.868,0.662,0.092,1.177,0.803,1.047c3.789-0.691,7.601-2.179,10.714-4.467c0.372-0.273,0.522-0.913-0.07-1.045
				c-5.599-1.251-12.166,3.615-15.108,8.035c-0.562,0.844,1.165,0.809,1.553,0.51c3.099-2.38,5.601-5.357,8.75-7.75
				c0.805-0.611-0.051-1.304-0.803-1.047c-3.394,1.161-7.315,3.178-9.076,6.511c-0.963,1.823-1.889,3.91,0.779,4.172
				C56.133,48.785,57.211,47.472,55.904,47.343L55.904,47.343z"/>
		</g>
	</g>
	<g>
		<g>
			<path fill="none" d="M43.438,42.145c-2,0.125-2.375,8.5-1,9.875c1.25-1.375-0.25-6.75-1.375-8
				c-0.625,1.625-0.875,4.75-0.125,6.375c1.25,2.625,2.375,0,2.375-1.875c0.125-1.5-0.375-4.875-2.375-4
				c-1.625,0.75-1.875,4.25-1.25,5.625c1.5,4.125,4.125-2.875,1-4.875c-3.625-2.5-3.875,5.125-1.125,6.5
				c-0.125-1.375-1.5-3.375-2.75-4.125c-0.5,1.25,0.875,3,1.625,4c-0.75-1.125-1.625-2.25-2.375-3.375c0.25,1,0.75,2,1.25,2.875
				c-0.125-2.375-1.125-4.5-0.125-6.875c0.25,0.875,0,1.875-0.125,2.75c-0.125-1.125,0.25-2.5,0.875-3.625
				c-0.25,1.25-1.125,2.625-2,3.5c0.125-0.875,0.375-1.75,0.625-2.625c-0.375,1.5-0.25,3.125-0.5,4.625
				c-1.625-1.875,2.75-8.75,4.75-8.875c-0.25,1-1.125,1.875-2,2.375c0-1.375,1.5-2.5,2.5-3.125c-1.75,2.125-5.625,7.25-2.375,9.875
				c1.25-1.375,0.625-5,1.375-6.875c-0.125,0.875-0.5,1.875-1.25,2.5c-0.25-3.25,4.75-6.875,7.75-5.625
				c-0.75,1.125-3.375,1-4.25,0.25c1.625-1.5,4.75-1.125,6.75-0.5c-1.125-0.375-2.375-0.375-3.625-0.5c2.625-1,5.625,1.5,6.875,3.5
				c-0.5-0.375-1-0.875-1.5-1.375c0.875,1.375,2,2.625,2.625,4.25"/>
			<path fill="#FFFFFF" d="M43.317,41.694c-3.397,0.967-3.523,8.343-1.779,10.694c0.332,0.447,1.563,0.016,1.794-0.366
				c1.422-2.337,0.115-6.336-1.371-8.373c-0.351-0.48-1.711,0.013-1.863,0.499c-0.481,1.543-1.617,7.854,1.473,7.869
				c2.574,0.012,2.795-3.037,2.688-4.968c-0.123-2.202-1.466-3.81-3.695-2.896c-2.543,1.043-2.501,4.775-1.568,6.865
				c0.609,1.365,2.28,0.992,3.166,0.18c1.747-1.601,1.055-4.971-0.575-6.298c-4.162-3.389-6.649,4.779-2.924,7.238
				c0.4,0.265,2.025,0.099,1.865-0.628c-0.387-1.766-1.377-3.159-2.816-4.235c-0.4-0.299-1.789-0.127-1.863,0.499
				c-0.204,1.718,0.7,2.907,1.689,4.239c0.365,0.491,2.221-0.127,1.799-0.738c-0.781-1.133-1.594-2.243-2.375-3.375
				c-0.308-0.447-2.058,0.038-1.865,0.628c0.333,1.025,0.739,1.926,1.25,2.875c0.313,0.583,2.003,0.168,1.932-0.518
				c-0.242-2.321-0.813-4.435-0.127-6.746c-0.643,0.129-1.286,0.259-1.929,0.389c0.107,0.884,0.066,1.758-0.123,2.621
				c0.643-0.129,1.286-0.259,1.929-0.389c-0.006-1.38,0.306-2.3,0.873-3.496c-0.642,0.086-1.285,0.173-1.927,0.26
				c-0.402,1.296-1.041,2.346-1.932,3.367c0.62-0.042,1.239-0.084,1.858-0.126c0.149-0.889,0.357-1.764,0.625-2.625
				c-0.642,0.086-1.285,0.173-1.927,0.26c-0.27,1.536-0.323,3.078-0.5,4.625c0.621-0.167,1.242-0.333,1.863-0.499
				c-1.206-1.985,1.834-7.565,3.971-8.056c-0.361-0.107-0.723-0.213-1.084-0.32c-0.602,0.703-1.203,1.407-1.805,2.11
				c0.577,0.002,1.154,0.003,1.731,0.005c0.222-1.258,0.931-2.17,2.128-2.737c-0.496-0.087-0.991-0.174-1.487-0.261
				c-2.187,2.702-5.497,7.087-2.379,10.248c0.399,0.405,1.52,0.053,1.794-0.366c1.359-2.072,0.759-4.708,1.443-7.008
				c-0.642,0.086-1.285,0.173-1.927,0.26c-0.108,0.913-0.502,1.701-1.182,2.367c0.62-0.042,1.239-0.084,1.858-0.126
				c0.053-1.537,0.709-2.619,1.806-3.707c2.011-1.996,4.153-2.288,6.883-1.537c0.398-0.334,0.797-0.668,1.195-1.002
				c-1.284-0.297-2.531-0.411-3.839-0.518c-0.087,0.323-0.175,0.646-0.263,0.969c2.526-0.597,4.587,1.619,5.855,3.419
				c0.6-0.246,1.199-0.492,1.799-0.738c-0.531-0.424-1.031-0.883-1.5-1.375c-0.42-0.411-2.229,0.101-1.799,0.738
				c0.914,1.354,1.873,2.648,2.559,4.14c0.292,0.637,2.18,0.022,1.932-0.518c-0.727-1.583-1.721-2.921-2.691-4.36
				c-0.6,0.246-1.199,0.492-1.799,0.738c0.469,0.492,0.969,0.951,1.5,1.375c0.431,0.368,2.25-0.097,1.799-0.738
				c-1.914-2.719-4.571-4.366-7.895-3.581c-0.646,0.153-1.288,0.886-0.263,0.969c1.161,0.011,2.298,0.171,3.411,0.482
				c0.56,0.13,2.281-0.704,1.195-1.002c-2.821-0.776-5.658-0.875-8.116,0.866c-0.25,0.177-0.262,0.433-0.005,0.586
				c1.753,1.045,4.305,0.857,5.792-0.565c0.161-0.154,0.347-0.486,0.005-0.586c-3.923-1.141-9.337,1.865-9.487,6.206
				c-0.028,0.825,1.579,0.199,1.858-0.126c0.737-0.855,1.051-1.507,1.318-2.633c0.163-0.687-1.75-0.335-1.927,0.26
				c-0.642,2.156-0.035,4.803-1.307,6.742c0.598-0.122,1.196-0.244,1.794-0.366c-2.89-2.929,0.366-7.025,2.371-9.502
				c0.546-0.674-1.226-0.437-1.487-0.261c-1.364,0.917-2.524,1.833-2.872,3.513c-0.16,0.775,1.496,0.176,1.731,0.005
				c1.073-0.775,1.644-1.438,2.195-2.64c0.228-0.496-0.93-0.355-1.084-0.32c-3.054,0.702-7.354,6.69-5.529,9.694
				c0.278,0.458,1.805,0.004,1.863-0.499c0.177-1.547,0.23-3.089,0.5-4.625c0.126-0.72-1.767-0.326-1.927,0.26
				c-0.268,0.861-0.476,1.736-0.625,2.625c-0.163,0.805,1.614,0.153,1.858-0.126c0.995-1.139,1.62-2.185,2.068-3.633
				c0.214-0.69-1.685-0.251-1.927,0.26c-0.6,1.268-0.884,2.368-0.877,3.754c0.002,0.571,1.843,0.16,1.929-0.389
				c0.163-1.028,0.248-1.856,0.127-2.879c-0.077-0.655-1.789-0.084-1.929,0.389c-0.722,2.433-0.136,4.532,0.123,7.004
				c0.644-0.172,1.288-0.345,1.932-0.518c-0.51-0.949-0.916-1.85-1.25-2.875c-0.622,0.209-1.244,0.418-1.865,0.628
				c0.781,1.133,1.594,2.243,2.375,3.375c0.6-0.246,1.199-0.492,1.799-0.738c-0.857-1.154-1.745-2.212-1.561-3.761
				c-0.621,0.167-1.242,0.333-1.863,0.499c1.37,1.024,2.315,2.333,2.684,4.015c0.622-0.209,1.244-0.418,1.865-0.628
				c-1.77-1.169-2.073-3.637-1.531-5.547c0.454-1.6,1.987,1.244,2.131,1.707c0.23,0.739-0.499,2.813,0.09,3.235
				c-0.868-0.623-0.82-2.614-0.772-3.445c0.111-1.924,1.281-2.804,1.851-0.47c0.16,0.658,0.238,4.939-0.589,2.476
				c-0.569-1.692-0.133-3.809,0.384-5.467c-0.621,0.167-1.242,0.333-1.863,0.499c1.253,1.718,2.574,5.665,1.379,7.627
				c0.598-0.122,1.196-0.244,1.794-0.366c-0.857-1.156-1.52-8.56,0.221-9.056C44.703,42.269,44.468,41.367,43.317,41.694
				L43.317,41.694z"/>
		</g>
	</g>
	<g>
		<g>
			<path fill="none" d="M4.813,60.52c2.625,0.125,5.625,0.75,8.125,0c-1.25-0.75-2.625-1.25-4-1.875
				c2-0.125,4.125,0.375,6.125,0.875c-2.125-1.125-4.5-1.75-6.75-2.25c2,0.625,4.25,0,6.375,0.625c-1-0.375-2.125-0.25-3.25-0.25
				c0.875,0.125,1.875,0.25,2.75,0.625"/>
			<path fill="#FFFFFF" d="M4.458,61.148c2.907,0.178,5.762,0.671,8.634-0.052c0.375-0.095,1.262-0.721,0.601-1.092
				c-1.29-0.723-2.649-1.278-4-1.875c-0.288,0.38-0.576,0.76-0.864,1.14c1.936-0.048,3.793,0.381,5.659,0.841
				c0.502,0.124,2.265-0.637,1.33-1.105c-2.207-1.105-4.531-1.781-6.932-2.326c-0.715-0.163-2.299,0.899-1.147,1.182
				c2.107,0.517,4.269,0.136,6.375,0.625c0.703,0.163,2.308-0.86,1.147-1.182c-1.162-0.322-2.271-0.306-3.47-0.288
				c-0.776,0.012-2.072,1.061-0.708,1.258c0.901,0.13,1.679,0.287,2.53,0.587c0.72,0.254,2.271-0.786,1.147-1.182
				c-0.974-0.344-1.952-0.516-2.97-0.663c-0.236,0.419-0.472,0.838-0.708,1.258c1.029-0.015,2.022-0.067,3.03,0.212
				c0.382-0.394,0.765-0.788,1.147-1.182c-2.11-0.49-4.279-0.112-6.375-0.625c-0.382,0.394-0.765,0.788-1.147,1.182
				c2.271,0.516,4.476,1.126,6.568,2.174c0.443-0.369,0.886-0.737,1.33-1.105c-2.192-0.541-4.325-0.966-6.591-0.909
				c-0.376,0.009-1.674,0.781-0.864,1.14c1.351,0.598,2.709,1.152,4,1.875c0.2-0.364,0.401-0.728,0.601-1.092
				c-2.5,0.63-5.087,0.103-7.616-0.052C4.323,59.839,3.148,61.068,4.458,61.148L4.458,61.148z"/>
		</g>
	</g>
	<path fill="#FFFFFF" d="M50.313,53.52c0,6.627,5.373,12,12,12h7.25c6.627,0,12-5.373,12-12v-4.25c0-6.627-5.373-12-12-12h-7.25
		c-6.627,0-12,5.373-12,12V53.52z"/>
	<path fill="#FFFFFF" d="M34.813,47.895c0,5.73,4.645,10.375,10.375,10.375h5c5.73,0,10.375-4.645,10.375-10.375l0,0
		c0-5.73-4.645-10.375-10.375-10.375h-5C39.458,37.52,34.813,42.165,34.813,47.895L34.813,47.895z"/>
	<path fill="#E7EDF2" d="M36.688,53.145c0,0-1,0.625,2,2.375s3.75,2.375,6.625,2s3.75-0.25,5-1.25s2.875-2,2.875-2
		s-0.5,0,0.75,2.125s2.125,3.25,4.25,4.625s3.375,2.625,5.875,2.75s2.25,0.75,5.375-0.125s2.625,0.625,6-2.75s4.375-5.5,4.75-7.375
		s1.125-2.875,0-5.375s-1.375-4.5-3.375-5.75s-2.375-2.375-5-3s-4-1.125-5.125-0.875s-2.5-0.25-4.5,0.75s-2.5,1.25-4,2.125
		s-2.625,2.375-2.625,2.375s-1.5-2-1.75-2.375s-2.375-1.75-3.25-2.25s-2-1.25-3-1.5s-1.625-0.25-1.625-0.25l-0.625-5
		c0,0,1.625-0.5,3.75,0.125s13.875,0.25,13.625,0.625s11.125,0.375,11.125,0.375s9.5,2,9.875,2.625s4.25,13.25,4.375,14.125
		s-0.875,9-0.875,9.625s-1.375,9.625-1.375,9.625s4.75,9,5,9.5s5.625,15,5.625,15.625s-0.5,16.5-0.75,16.875s7.75,11.5,8.625,11.875
		s9.875-0.25,9.875-0.25s15.625-4.125,16.125-3.75s14.375-1.5,14.375-1.5l19.25,1.875l9.125-6.125l19-5.375l9.625-0.75l-0.75-6.375
		l20.375-2.75l9.125-3.5c0,0,7.125,4.875,7.25,5.375s4.25,14.5,4,15.5s-4,17.375-4,17.375l-12.25,9.75l-2.5,1.5
		c0,0,0.875,0.5,2.25-4.625s2.875-11,2.875-12.375s-1.75-6.625-2.875-8.375s-3.375-4.625-3.375-4.625l-0.75-0.125
		c0,0,0.125,5.75,0,6.875s-0.75,5.875-0.75,5.875s-3.75-8.625-4.125-9.375s-2.875-3.125-4-3.5s-3.125-1.5-4.375-1.375
		s-8,1.125-8,1.125l6.125,11.5l-19.625-6.625c0,0-1.25,3.625-2.125,6.625s-1.125,4.375-1.875,6s-2.625,7-2.625,7
		s3.625,6.625,3.875,7s-8,9.875-8,9.875s3.625,3.75,3.375,4.125s-9.625,10.75-9.625,10.75l-10.375,19.75c0,0-3.375,1.125-5.5,1.625
		s-10.75,0.875-10.75,0.875v-0.875l-5.625,0.125l-2.125-0.5l0.375-0.5l-1.5-0.125c0,0-0.25-1,0.75-1.75s2.625-3.125,3.75-3.875
		s2.75-1.875,4.75-2.125s5.5-0.375,7.5-0.375s3.5-0.125,3.5-0.125s3.875-5.75,4.875-8.375s1.5-3.625,3-7.125s2.75-6.375,3.25-8.5
		s2.375-10.125,2.375-10.125s-5.25-1.125-7.125-1.75s-12.625-4.625-12.625-4.625l-1.625,4.375l-4.125,0.375l-2,0.75l3,1.375
		c0,0-2.625,0.75-4.25,1.5s-4.75,1.5-5.75,1.75s-3.625,0.5-3.625,0.5l2,2.625c0,0-1.75,1.25-2.25,1.5s-4.25,0.5-4.25,0.5l-8,3.5
		l-5.375,4.75l-8.875,15.375l-8.375,10.25l-10.875,0.75l0.625-1l-3.25,0.25l-2.625-0.5l-0.875-1l-1.625-0.125l-1.5-1.25
		c0,0,0.25-1.75,2.75-3.75s4.625-3.625,7.625-4.375s4-1.125,6.125-1s3.625,0.375,3.625,0.375s4.625-11,5.375-13
		s4.375-11.625,4.375-11.625s-2-6.125-2.125-6.875s-0.375,1.75-0.375,1.75s-2.25-2.25-3.5-3s-14.25-6.375-15.375-6.875
		s-6.125-2.5-7-3s-2.875-2.75-3.25-3.75c-0.276-0.735-0.687-4.784-0.885-6.874c-0.071-0.752-0.115-1.251-0.115-1.251
		s-0.375,1.125-1.125,1.375s-4.375-0.625-4.375-0.625s-0.375,0.125,2.375-3.375s6.25-8.375,8.125-11.875s3.875-8.125,4-12
		s-0.5-6.5-1.375-8.875c0,0-3.875-3.5-4.5-4.125s-10.125-6.5-10.125-6.5s-0.125,1.25-2.5,4s-2.25,2.625-4.5,4.625
		s-5.75,3.875-7,4.75s-4.125,1.75-4.125,1.75l0.5,4.875c0,0-1,0.875-2.625,0.75s-3-1.375-3.875-1.75s-1.375,0-1.375,0
		s-0.25,1-1,2.125s-1.25,1.75-2.125,1.75s-2.875-2-2.875-2s-0.25-2.25-0.375-3.125s-0.25,2.875-0.25,2.875l-1.25,0.375l-1.125-0.375
		l-1-1.5l-0.5-2.25l-0.125-5.25c0,0-3,0.625-4.75,0.625s-6.875-0.5-8.125-2.25s-1.25-1.75-1.25-1.75s-1.75-0.125-2.375-0.125
		s-5.25-2.125-6.375-2.75s-3.625-4.375-4.25-5.125s-1-2.625-1-2.625l0.625-9l1.75-3.625c0,0,2.5,2,3.625,2.75
		s4.125,1.375,4.125,1.375s1.125,0.25,3.75-1.125s8.875-6,8.875-6l-8.375-3.75l-0.625-0.625h3.875l1.5-0.75L36.688,53.145z"/>
	<path fill="#E7EDF2" d="M98.063,6.77c0,0-3.25,7.875-4.5,10.875s-5.25,11.625-6.375,13.25s-3.125,2.5-3.125,2.5l10,12.625
		l6.75-8.25c0,0,1.375-14.625,1.375-15s-2.125-10-2.125-10l-1.875-6.5"/>
	<path fill="#E7EDF2" d="M59.063,8.27l6.375,4.625c0,0,4.625,3,5.25,4.125s3.75,6,3.75,6s1.125,4.25,1.375,5.125s0.5,4.25,0.5,4.25
		l-15.75-0.125l-2.125-1.125l1.75-4.375c0,0,0.375-4,0.375-5.75s0.25-6.875,0.25-6.875L59.063,8.27z"/>
	<path fill="#737679" d="M45.813,32.77c0,0,2.5,0.25,3.625,1.375s5.875,3.5,5.875,3.5s3.75-1.125,6.625-1.75s3.125-1.25,7.75-1.25
		s8.5,0,10.625,2.125s4.25,5.625,4.75,9.25s0.625,20.75,0.625,20.75l-18.625,0.625c0,0,1.125,0.375,6.375,2s7,2.25,10.125,4.5
		s5.625,5,6.625,8.125s2.625,8.875,2.75,12.5s0.25,4.25-0.5,10.875s-1.375,9.25-0.5,13.625s2.75,8.875,2.75,8.875s-0.5-3.375,0.25-6
		s1.75-3.5,1.75-3.5s-0.375,4,2.625,7.625s11,7.75,11,7.75l-1.25-3.625c0,0,1.625,2.125,4.75,2.25s8.75-0.25,8.75-0.25
		s-2.75-1.75-3.75-3.25s-1-1.5-1-1.5s0.875,0.75,3.875,0.875s6.125,0.125,11.875-1.75s7.375-3,12.625-3.5s5.375-1.25,11.875-0.875
		s14.25,3.125,14.25,3.125s-2.125-3.5-3.25-5.375s-0.875-4.5-1-4.125s-1.125-0.375,3.375,1s5.875,2.375,8.875,4.125
		s4.875,2.625,4.875,2.625s0.25,0.5,0.875-2.375s0.5-5.5,0.5-7s0.125-2.625,0.125-2.625s-3.125,0.5,4-0.75s13.875-2.125,16-2.125
		s-2-2.125-3.75-2.5s-0.625-1.875-0.625-1.875s0.75-1,5.25-1.875s5.5-1.25,10.625-1.125s8.5,1.75,10.875,2.625s3.875,2,3.875,2
		s0.625-1.25-0.625-3.75s-1.875-3.875-1.875-3.875s1.375-0.375,3,2.375s3.75,5.125,4.125,9.25s0.375,8.375,0.125,10.5
		s-1.125,4.5-2.25,7.5s-3.875,7.375-5.75,9.875s-6.5,6.75-6.5,6.75s7.25-4.625,10.625-7s5.5-3.75,7.375-6.125s3.5-5,4.125-7
		s1.25-7.75,1.25-9.875s0.25-3.375,0-5.125s-1.25-7.5-1.25-7.5l-1.25-3.625l6.25,7.875c0,0,0.375-5.375-0.125-8s-1.125-7-2.625-8.75
		s-3.25-4.125-4.75-5.125s-4.375-2.875-6.25-3.75s-5.75-2-6.5-2.125s-2.875-0.25-2.875-0.25s0.625-0.875,2.375-2.25
		s4.875-3.625,4.875-3.625s-3.75-0.375-7.625,0.875s-9.75,3.75-12.25,5.25s-7.125,4.5-10.5,8.25s-5.5,6.75-7.5,8.875
		s-5.5,4-8.625,5.875s-5.5,3-6.375,3.125s-3.25-1.125-5.25-1s-4,0.125-4,0.125s-0.125-0.5,1.875-1.625s5.25-2.875,5.25-2.875
		s-0.75,0-3.25,0.5s-3,0.25-5.625,0.75s-5.375,0.875-6.5,1s-1.125,0.125-1.125,0.125l3-3.875c0,0-1.625-0.25-3.25,0.5
		s-5.25,1.5-6.875,2.875s-2.25,1.875-2.25,1.875s-0.375,0-0.25-1.25s0.25-2,0.25-2s0,0.625-2.125,1.875s-5.625,1.75-6.5,2
		s-0.875,0.25-0.875,0.25s1.75-0.5,3-2.375s2-3.625,2-3.625s-1.25,0.875-4.125,2s-5.125,1.375-6.875,1.875s-4.75,1.125-4.75,1.125
		s1.75-1.375,3-3.125s3.375-6.375,3.375-6.375s-0.625,0.75-3,2.375s-6.75,3.125-9,3.5s-6.875,0.625-6.875,0.625
		s1.125-0.25,2.375-1.375s3.375-4.125,3.375-4.125s-4.875,1-6.375,1.25s-3.5,0.25-3.5,0.25l2-1.75c0,0-2.5-0.375-5.125-1.875
		s-5.25-3.25-6.75-4.125s-5-5-5-5s-0.125-0.375-0.375-2.875s-1-4.875-1.625-5.875s-1.875-3.875-1.875-3.875s2.375,0.75,4.625,2.875
		s4.25,5.25,4.25,5.25s0.125-2.875-0.625-4.75s-1-3.5-2.75-5.625s-4.875-5.75-4.875-5.75s0.875-0.625,4.5-0.125
		s4.875,0.625,6.375,1.25s2.125,1.125,2.125,1.125s-0.875-2.375-2.75-4.25s-3.125-3-5.375-4.5s-4.5-3.125-5.375-3.125
		s-0.875,0-0.875,0s1.25-0.375,2.875-3s2.5-4.875,3.375-7s1.25-3.25,1.25-6s-0.125-16.75-0.125-16.75s-0.625-3.875-2.125-6.75
		s-4.5-7.875-4.5-7.875s-0.75-0.25-0.125,2.5s1.625,7.5,1.625,7.5s0.625,5,0.625,7.25s0,4.375-0.25,6.625s-0.75,5.375-1.625,7.5
		s-0.75,2.625-2.25,4.875s-2.125,3.375-2.125,3.375l-8.125-11.75c0,0-3-1.75-6.375-1.875s-10.875-0.5-13-0.375
		s-10.75-0.625-11.25-0.5S45.813,32.77,45.813,32.77z"/>
	<path fill="#737679" d="M80.688,139.02l4.375,16.375l-8.5,19.875c0,0-5,0.625-6.625,0.875s-4.25,0.75-6,2.125s-6,5.125-6,5.125
		l3,2.125l-0.375,0.75l13.375,0.875c0,0,4.75-4.875,7-5.625s4.625-2,4.625-2s0.75-2.375,1.875-4.75s3.25-6.625,3.625-6.875
		s2.5-1.125,2.5-1.125l7.625-4.5l2.125-5.5c0,0-0.5,0.625-1.25-1.5s-1.75-7-1.75-7s-3.125-3.125-4.25-3.875s-7-3.75-7-3.75
		L80.688,139.02z"/>
	<path fill="#737679" d="M141.813,146.895c0,0,0.75,2.5,0.125,5.625s-4.125,12.125-5.25,14.875s-5.5,10.5-6.125,11.375
		s-0.625,0.875-0.625,0.875s-6.25,0-7.875,0.125s-3.25-0.25-4.375,0.75s-5.5,6-5.5,6l1.375,0.375l-0.125,0.625
		c0,0,2.25,0.125,3.25,0.25s3.75-0.125,3.75-0.125l-0.75,1.375c0,0,3.125,0.125,4.625,0.125s5.375-0.625,6.875-1.125
		s3.125-1.125,3.125-1.125s5-7.125,7.125-10.125s4.375-6,6.625-8.875s3-3.625,5.375-5.875s9.25-9.375,9.25-9.375l-9.125,2
		l8.375-7.625c0,0-6.5-2.25-8.25-3.25s-6.125-4.125-6.125-4.125l-2,1.375l2.375,0.625c0,0-1.25,1.625-2.375,2.625
		s-3.75,2.25-3.75,2.25"/>
	<path fill="#A1A5A9" d="M122.313,135.02c0,0-2.5,1.375-3.875,3.375s-2.625,5.5-2.875,8.625s-0.5,9.25-0.5,9.25l-6.125,0.375
		l4.25,4.375l0.75,1.375c0,0-0.75-0.375-2.375-0.125s-3.875,1.875-5.5,3.25s-3.25,3.875-4.5,7.5s-1.75,7.75-2.875,9.75
		s-1.625,3.75-3.25,5.375s-5.375,3.75-5.375,3.75s8.75-1.625,9.375-2s1.125-0.875,3-4.375s3-5.75,4.75-9s1.625-5.125,3.75-6.375
		s14.75-8.875,14.75-8.875l-4.875-2.5h5.75c0,0-2-1.25-2.75-3.5s-1.875-3.25-1.875-5.25s0-7.25,0-8.125
		S122.313,135.02,122.313,135.02z"/>
	<path fill="#A1A5A9" d="M183.188,122.645c0,0-0.125,0.75-2.25,2.375s-7.375,5.25-8,6.625s-1.75,3.25-1.25,6.25s0.875,4.125,2.5,6
		s4,3.875,4,3.875l-7.25,9.625l3.125,0.125c0,0-3.125,3.375-5,5.875s-3.5,5.25-5.125,8.125s-3.75,7.625-5.125,10.375
		s-5.625,9.375-5.625,9.375l5.125-1.375c0,0,4.5-6.5,6.875-9.75s7-10.375,10.5-13.75s14.625-14.375,14.625-14.375l-10.875,2.875
		l8.5-7.625l-7.5-10.875c0,0,2.5-5.5,3.25-7.5s1.875-4.875,1.875-4.875L183.188,122.645z"/>
	<path d="M7.146,56.687c0.25-0.25,3.667,0,5.667,0.75s2.333,1.833,2.333,1.833s-6.5,0-6.75,0.083S7.563,59.77,6.813,60.52
		s-0.833,1.333-0.25,2.083s5,4.667,5,4.667s3.167-0.583,5.167-1.667s8.167-5.25,8.167-5.25s-6.417-2.583-7.75-3
		s-2.667-1-3.333-0.917s-6.5-0.167-6.5-0.167"/>
	<ellipse fill="none" stroke="#000000" stroke-width="0.75" cx="66.771" cy="51.228" rx="13.708" ry="12.625"/>
	<path fill="none" stroke="#000000" stroke-width="0.75" d="M36.229,53.353c-0.25,0.083-13.5,2-16.75,2.5s0.5,0.667-4.667,0.667
		c-1.106,0-2.105,0.007-3,0.022c-0.088,0.001-0.175,0.003-0.261,0.004c-0.505,0.009-0.976,0.021-1.413,0.034
		c-2.259,0.069-3.596,0.195-4.077,0.355c-0.75,0.25-2.833,1.167-3.583,2.167s0,4.833,0,4.833s2.334,1.333,3.667,2.333
		s3.917,1.5,3.917,1.5s3.167-0.583,6.917-2.417s7.5-4.917,7.5-4.917s-4.667-2.083-6.917-2.583s-3.5-0.583-4.5-0.75
		s-2.833-0.25-2.833-0.25"/>
	<path fill="none" stroke="#000000" stroke-width="0.75" d="M2.479,63.936c-0.167,0.25-1.833,2.917-2,4.167
		s-0.083,9.167-0.083,9.167s0.833,2.417,2,3.917s3.5,3.583,5.583,4.5s4.083,1.5,6.75,1.5s12.333-0.249,14.917-0.416
		s7.833-1.333,10.917-2.5s7.167-2.916,9.333-4.834c2.167-1.917,4.5-5.583,4.5-6.583s-0.083-1.5-0.083-1.5"/>
	<path fill="none" stroke="#000000" stroke-width="0.75" d="M10.063,67.769c0,0-0.083,7.333,0.333,10.167
		c0.417,2.834,1.5,6.166,2.333,7.5s1.667,3.166,3.75,4.25s5.583,1.584,8.25,1.417s3.583-0.333,3.583-0.333s0.084,3.666,0.167,5.166
		s1.417,3.834,1.917,4.084s1.75-0.417,1.917-0.917s0.083-3.167,0.083-3.167s0.417,3.334,1,3.917s1.25,1.583,2.417,1.5
		s2.5-1.25,2.667-2s0.5-1.667,0.5-1.667s0.917-0.083,1.667,0.417s2.083,1.167,3.5,1.167s2.5-0.25,2.5-0.25l-0.25-5.167
		c0,0,0.5,0,2.75-1s3.917-1.916,5.25-3.083s4.417-3.167,5.5-4.417s2.916-3.084,3.333-3.917s1.083-2.167,1.083-2.167
		s2.75,1.25,5.167,2.833s3.75,2.167,5.75,3.75s5.25,4.917,5.25,5.75s0.084-4.584-0.333-7.167s-1.667-6-1.667-6s2.917,1.583,5.583,4
		s4.584,3.751,6.417,5.834s3.083,5.5,3.083,5.5s0.833-3.001,0.75-6.834s-0.166-8.333-0.916-9.5s3.916,2.083,5.166,3.667
		s2.833,3.251,2.75,4.167s0.334-4.666,0.084-7.083c-0.25-2.417-1.917-5.917-3.167-7.417s3.501,1.833,5.667,4
		s2.916,3.167,2.916,3.167s-0.083-4-1.333-6.667s-6.833-8.917-6.833-8.917s8.666,0.167,10.666,1s2,0.833,2,0.833
		s-3.417-5.583-6-7.417s-6.083-3.75-7.25-4.083s-0.75-0.25-0.75-0.25s3-2.333,4.5-5.75s2.666-6.5,2.583-9.083
		s0.167-16.417,0.167-16.417s-0.501-3.25-2.167-7.583s-4.75-8-4.75-8s-0.832,4-2.749,8.75s-2.583,6.667-4.5,10.083
		s-4,8.083-4.917,8.25s-0.917,0.167-0.917,0.167s-1.5-1-6.417-1.5s-15.667-0.917-18.417-0.833s-3.833-0.167-8.167,0.833
		s-6.25,1.417-6.25,1.417l0.417,4.417"/>
	<path fill="none" stroke="#000000" stroke-width="0.75" d="M59.146,30.269c0,0,1-3.083,1.083-7.25s0.5-8.833,0-10.5
		s-0.5-3.583-1.083-4.333s-0.583-0.75-0.583-0.75s1.417,0.583,5.5,4.083s4.583,2.75,6.75,5.917s3.833,5.583,4.333,7.333
		s0.75,6.5,0.75,6.5"/>
	<path fill="none" stroke="#000000" stroke-width="0.75" d="M78.646,88.77c0,0,1.667,4.667,1.75,7.5s-0.917,7.916-2.083,10.333
		s-4.75,8.667-6.333,11s-6.333,8.083-6.333,8.083s1.25,0.583,2.75,0.5s3.167-0.583,3.167-0.583"/>
	<path fill="none" stroke="#000000" stroke-width="0.75" d="M71.479,124.186c0,0-0.25,4.334,0.083,5.834s0.417,3.666,2.75,5.583
		s2.75,2.75,7.917,4s4.584,0.417,8.167,2.167s3.582,1.417,6.416,3.5s4.5,3.833,4.5,3.833s-0.166-2.917-0.166-3.75
		s-1.584-1.917-1.584-1.917"/>
	<path fill="none" stroke="#000000" stroke-width="0.75" d="M101.688,82.645c0,0,1.25,2.75,4.125,4.625s9.5,5.625,11,6.25
		s1.5,0.625,1.5,0.625s-1,1-1.625,1.375s2.25,0.125,2.25,0.125s2.625-0.125,4.875-0.5s2.25-0.375,2.25-0.375l0,0
		c0,0-2,2.375-2.875,3.375s-1.875,1.625-1.875,1.625s2.125,0.25,4.125-0.25s5.25-1.25,7.75-2.25s6.125-3.25,6.125-3.25
		s-2.5,5.25-3.125,6s-2.625,2.625-2.625,2.625s6.25-1.25,9.5-2.25s5.875-2.125,5.875-2.125s-0.25,1.25-2.125,3.125
		s-2.375,2.25-2.375,2.25s4.375-0.375,6-1.5s2.875-2.375,2.875-2.375s0,2.5,0.125,3.5"/>
	<path fill="none" stroke="#000000" stroke-width="0.75" d="M134.438,190.645l-1.25-0.5c0,0,2-2.125,3.75-4s3.625-2.625,5-3
		s11.75-0.75,11.75-0.75s3.375-5.375,4.875-8.25s3.875-8.875,5.125-12s3.625-13.5,3.625-13.5s-3.875-1-6.125-1.875
		s-6.375-2.375-9.625-4.125s-5.125-3.75-7.5-6.25s-4.25-5.875-4.625-7.375s0.125-8.125,1.75-11.75s4.75-7.375,7.125-9.875
		s6.125-5.25,9.125-7s7.5-2.75,8.125-2.625l-2.875,3.75c0,0,2.125-0.25,6.25-1s10-1.125,10-1.125h0.625c0,0-3.875,1.625-5.375,2.75
		s-2.625,1.75-2.625,1.75s3.25-0.375,5.75,0s3.625,0.625,5,1.5s4,3.25,4.25,5.125s0.25,1.875,0.25,1.875"/>
	<path fill="none" stroke="#000000" stroke-width="0.75" d="M142.313,191.77c0,0-2.75,0.25-4.625,0.25s-3.25-0.75-3.25-0.75
		s1.5-2.25,3.25-3.875s4.125-3,4.125-3"/>
	<path fill="none" stroke="#000000" stroke-width="0.75" d="M147.438,186.895"/>
	<path fill="none" stroke="#000000" stroke-width="0.75" d="M147.438,186.895c0,0-5.5,5.125-5.5,5.625s2.375-0.25,5.125-0.25
		s6.875-0.5,8.5-0.875s3-1,3-1s3.5-5.875,6.625-10.125s7.375-10.75,10.25-13.5s14.25-14.375,14.25-14.375s-2.5,0.25-5,1.125
		s-4.875,1.375-4.875,1.375l8.25-7.75l-7.875-10.375c0,0,2.625-5.375,4.125-10s2.375-9.25,2.5-11.125"/>
	<path fill="none" stroke="#000000" stroke-width="0.75" d="M181.313,104.52c0,0,2.75-1,6.125-2.625s7.875-4.5,10-7.375
		s5.25-6.625,8.875-10s10.125-7.375,13.125-8.5s6.625-2.5,9.375-3s5.875-0.75,5.875-0.75s-3.875,2.375-5.375,3.875s-1.5,1.5-1.5,1.5
		l0,0c0,0-0.5,0.125,3.25,1s3.125,0.625,8,3.25s5.375,4,7.5,6.5s2.875,6.625,3.375,9s0.375,8.375,0.375,8.375s-3-3.625-4-5
		s-2.375-2.75-2.375-2.75s1.375,2.75,1.75,5.375s1.5,10,0.875,15s-2.25,9.875-5.125,13s-8.75,7-11.25,9s-7.25,4.25-7.25,4.25
		s1.75-3.625,3-7.375s2-9,1.875-11.125s-4-10.375-5-11s-1-0.625-1-0.625l-0.625-0.25c0,0-0.5,10.25-0.75,11.375
		s-0.25,1.125-0.25,1.125s-3-7.25-4.25-9.25s-2.625-3.125-4.125-3.75s-4.5-1.375-6.625-1.125s-5.5,1.375-5.5,1.375l6,11.125
		c0,0-9.5-4-11.375-4.625s-7.5-1.75-7.5-1.75"/>
	<path fill="none" stroke="#000000" stroke-width="0.75" d="M99.313,134.27c0,0,1.5,9.875,2.25,12.5s2.25,7.875,2.25,7.875
		s-4.125,11.5-5.125,13.5s-4.75,11-4.75,11s-4.25-0.5-6.625,0s-7.125,2.375-8.875,3.75s-4.5,4.25-4.625,4.875s0.625,1.125,1.125,1.5
		s2.625,0.375,2.625,0.375"/>
	<path fill="none" stroke="#000000" stroke-width="0.75" d="M83.813,190.77c0,0-3.25,0.375-5.125,0s-1.375-1.875-1.375-1.875
		s0.75-1.5,2.25-3.125s4.5-2.625,4.5-2.625"/>
	<path fill="none" stroke="#000000" stroke-width="0.75" d="M89.938,184.645c0,0-2.75,1.75-4,3.125s-3.125,4.125-2.125,4.25
		s6.375-0.125,6.375-0.125s7.625-1.125,9.25-2s6.375-10.125,6.375-10.125s3.25-8.25,5.125-9.625s14.75-8.75,14.75-8.75
		s-4.625-3-4.875-2.625s5.375-0.125,5.375-0.125s-1.375-0.75-2.375-3.375s-1.625-4.875-1.75-6.625s-0.5-8.875-0.25-10"/>
	<path fill="none" stroke="#000000" stroke-width="0.75" d="M80.563,139.145c0,0,2.125,5.625,2.625,9s1.625,7.25,1.625,7.25
		s-3.875,8.75-5.25,12.5s-3,7.5-3,7.5s-6.125,0.375-8.625,1.125s-5.875,2.625-7.25,4s-2.875,3.125-2.875,3.125
		s1.875,1.5,2.625,1.625l0.75,0.75"/>
	<path fill="none" stroke="#000000" stroke-width="0.75" d="M67.563,179.52c0,0-2,0.625-3.5,2.125s-3.5,4.875-3.5,4.875
		s0.875,0,3,0.25s10.375,0.25,10.375,0.25"/>
	<path fill="none" stroke="#000000" stroke-width="0.75" d="M67.313,186.77c0,0,3.375-4.5,4.375-5"/>
	<path fill="none" stroke="#000000" stroke-width="0.75" d="M85.188,179.895c0.125-0.5,1.75-4.625,2.75-6.25
		s3.125-5.625,3.125-5.625l10-5.75l0.25-3.25"/>
	<path fill="none" stroke="#000000" stroke-width="0.75" d="M99.563,159.02"/>
	<path fill="none" stroke="#000000" stroke-width="0.75" d="M100.063,148.27c0,0,1.25,4.5,1.625,5.75s1.5,2.75,1.5,2.75"/>
	<path fill="none" stroke="#000000" stroke-width="0.75" d="M125.188,157.27c0,0,2.875-0.125,4.25-1s2-1.375,2-1.375l-2.375-2.25
		c0,0,3.5-0.625,5.75-1.125s8.125-3,8.125-3l-3.125-1c0,0,3.875-1.75,5.125-2.75s3-3.375,3-3.375l-2.75-0.375l1.875-0.875"/>
	<path fill="none" stroke="#000000" stroke-width="0.75" d="M141.688,146.645l0.75,2c0,0-1.125,6.625-1.875,8.875
		s-4.75,12.375-6,14.875s-4.625,7.5-4.625,7.5s-3.375-0.375-6.25-0.25s-5.25,0.125-6.875,1.5s-5,5.625-5,5.625l1.875,0.375"/>
	<path fill="none" stroke="#000000" stroke-width="0.75" d="M118.938,182.02c0,0-5.875,5-5.5,5.5s4.5,0.375,4.5,0.375l2.375-0.125"
		/>
	<path fill="none" stroke="#000000" stroke-width="0.75" d="M124.563,183.645c0,0-2.75,2.125-3.5,3.125s-1.25,2.25-1.25,2.25
		s6.125,0.25,8.25-0.125s6.125-1.75,6.125-1.75s3.25-4.625,5.75-8.125s7.875-11.5,10.75-14.25s11.875-12,11.875-12l-8.5,1.875
		c0,0,2.5-2.25,4.25-3.875s3.625-3.75,3.625-3.75"/>
	<path fill="none" stroke="#000000" stroke-width="0.5" d="M97.688,7.02c0,0,1.625,7.875,1.75,10.5s0.5,5.75,0.375,10.25
		s-1.75,9.375-2.75,11.875s-3,5.375-3,5.375"/>
	<path fill="none" stroke="#000000" stroke-width="0.75" d="M53.457,53.535c-0.16-1.084-0.366-2.168-0.311-3.266
		c0.024-0.468,0.122-0.915,0.252-1.348c0.053-0.33,0.13-0.653,0.235-0.969c0.005-0.425,0.054-0.85,0.191-1.262
		c0.083-0.25,0.167-0.5,0.25-0.75c0.245-0.735,0.639-1.382,1.123-1.934c-1.518-3.787-5.399-6.487-9.968-6.487
		c-5.891,0-10.667,4.477-10.667,10s4.776,10,10.667,10c3.343,0,6.307-1.458,8.262-3.714C53.478,53.714,53.465,53.625,53.457,53.535z
		"/>
	<ellipse fill="#0092FF" cx="58.688" cy="51.728" rx="5.125" ry="5.208"/>
	<ellipse fill="#0092FF" cx="39.021" cy="48.061" rx="3.958" ry="3.625"/>
	<ellipse fill="#00426B" cx="58.104" cy="51.812" rx="2.125" ry="2.042"/>
	<ellipse fill="#00426B" cx="38.438" cy="48.061" rx="1.458" ry="1.375"/>
	<ellipse fill="#FFFFFF" cx="60.979" cy="48.936" rx="1.333" ry="1.25"/>
	<ellipse fill="#FFFFFF" cx="56.479" cy="54.187" rx="1" ry="0.917"/>
	<circle fill="#FFFFFF" cx="40.396" cy="46.187" r="1.083"/>
	<ellipse fill="#FFFFFF" cx="36.813" cy="49.728" rx="0.667" ry="0.542"/>
</g>
<g id="frame_2">
	<path fill="#E7EDF2" d="M63.188,33.52l-1.75-5.25l9.25,1.875c0,0,22.375-1.75,22.875-1.75s8.125,3.875,8.375,4.375
		s3.125,11.75,3.25,12.375s-0.375,17.125-0.375,17.75s-3.875,4.125-4.375,4s7.375,9.75,7.375,9.75l1,9l-1-0.875
		c0,0-4.75-5.75-5.625-6.375s-7.125-4.875-7.125-4.875s2.375,11.625,2.125,12s0,17-0.25,17.375s-0.125,16,1.875,16.5
		s42.625-7.25,43.375-6.875s23.375-2.125,23.375-2.125l10.875-2.5l19.625-4.875l23.125-11.75c0,0,14.125-0.5,14.625,0
		s9,15.125,9,16.25s-2.875,21.25-2.875,21.25l-16.625,16.25c0,0,4.375-10.25,4.25-14.25s-2-10-2.875-11.25s-2.875-4.125-2.875-4.125
		l-1.25,11.75l-7.125-13c0,0-6.375-1.125-8.125-1s-5.5,0.5-5.5,0.5l5.5,12.5l-19.25-7.125l-3.25,7.375c0,0-3.25,19.125-3.25,19.5
		s-4.25,9.875-4.625,10.75s-2.625,10.25-3.5,10.5s-16,24.25-16,24.25l-12.125,1.375l-8.875-1.125l-0.875-1.375
		c0,0,1.75-3.25,3.75-4.375s5.75-2.5,6.5-2.75s9.125-0.125,9.125-0.125s3-3.25,4.25-6s4.625-10.625,5.375-12.625s3.25-9,3.625-10.5
		s1.25-4.625,1.25-4.625l-5.5-1.75l-13.875-2.25l-4.875,0.125l-3.875,2.375l4.25,0.75c0,0-2,0.875-3.625,1.625
		s-8.875,2.25-10.125,2.5s-1.25,0.25-1.25,0.25l2.75,2.375l-6,2.375l-3.875-0.875c0,0-5.5,3.625-5.625,4s-8.25,9.375-8.25,9.375
		l-8,14.5l-6.5,6.75l-0.75,0.875l-7.625-0.375l-7.125-1.375l-4.25-1.5c0,0,0.5-1,1.625-2.75s3.75-3.5,5-4s4.875-2.125,6.125-2.375
		s5.75-1,5.75-1l2.75-0.625l9.125-23l-2.5-6.25c0,0-5.625-4.875-7.5-5.5s-10-3.625-11.375-3.875s-2.5-0.5-5-1.375
		s-3.125-1.875-4.5-3.625s-1-5.125-1.25-5.75s-0.125-2.75-0.125-2.75s-4.75-0.125-5.125,0s2.875-4.25,6-9.125
		s5.75-8.75,6.875-13.125s1.75-8.625,0.625-11.875s-4-11.5-4-11.5s-0.125,0-3.375,2.5s-6.75,3.5-8.125,4.5s-2.25,1.125-2.25,1.125
		l0.75,5.25l-8-0.75c0,0-0.375,1.5-0.75,2.375s-0.375,0.625-1.5,0.875s-2-1.125-2.5-1.5s-1.25-2-1.25-2l-0.5,1.75
		c0,0-0.5,0.625-1.375,0.625s-1.875-0.375-2.25-1.875s-0.25-3-0.25-3l0.25-5.125c0,0-1.25,0.625-3.125,1.25s-2.875,0.375-4.625,0
		s-4.375-2.5-4.375-2.5l-1.875-1.5c0,0,1.25,0.25-2.125-0.375s-6-1.625-7.625-2.75s-3.25-4.375-3.625-5.125s-1.625-5.25-1.375-7
		s1.75-7.125,1.75-7.125l1.375-2.625l13.25-6l19.375-2.625L63.563,33.02"/>
	<path fill="#E7EDF2" d="M113.646,1.103c0,0,3.499,13.167,3.666,18.5s-4.5,22-4.5,22s-4.166,2.666-4.666,2.333s-6-10.333-6-10.333
		l-1.167-5.333l2-1.333c0,0,2.667-5.167,3.667-7s3.5-6.833,3.833-8S113.646,1.103,113.646,1.103z"/>
	<path fill="#E7EDF2" d="M74.479,2.936c0,0,3.167,2.5,4.667,3.5s5.167,3.834,6.333,5.167s3.001,4,3.667,5.5s2.499,5.333,2.666,6.333
		s0,4.333,0,4.333l-12.833-0.5l-4.167,0.167c0,0,0.5-1.833,0.667-2.667s1-6,1.167-7.333s0-7.166-0.167-7.833s-0.5-4.167-0.5-4.167
		L74.479,2.936z"/>
	<path fill="#A1A5A9" d="M121.438,143.52c0,0,1.125-5.75,1.25-6.75s0.375-0.875,0.125-1s-3.375,1.25-5.25,4.875
		s-2.375,16.375-2.375,16.375s-7.125,0.25-6.75,0.25s5.625,4.5,5.625,4.5s-3.625,1.125-6,2.75s-4.5,2.875-5.875,6.625
		s-2.25,9.625-2.25,9.625s-1,2.5-2.75,4.75s-5.375,6.375-5.375,6.375s3.375-0.125,5.375-1s3.125-0.625,4.125-2.125
		s2.875-6.125,3.75-8.125s5.25-9.875,5.25-9.875l7.25-4.875c0,0,4.625-2.75,5.375-3s3.375-0.625,3.375-0.625l-5.5-2.75l6,0.25
		c0,0-4-7.375-4.375-8.375s-1-6.625-1-6.625V143.52z"/>
	<path fill="#A1A5A9" d="M184.438,123.395c0,0-3.875,2.125-6.625,4.125s-5,4.875-5.625,6.875s-0.625,5.75,0.75,7.875
		s4.5,5.375,4.875,5.625s0.375,0.25,0.375,0.25l-7.25,9.875l3.125-0.25c0,0-6.875,8.125-8.75,11.5s-6.125,12.125-6.875,13.625
		s-4.375,7.5-5.125,8.25s-0.75,0.75-0.75,0.75l6-0.75l5.375-8.75l7.875-11c0,0,8.375-9.375,9.75-10.75s8.25-7.75,8.25-7.75
		l-9.875,1.5l8.375-7.5l-8.5-10.625c0,0,3.5-6.125,4.125-8.25s1.875-4.5,1.875-4.5l-1-1.25"/>
	<path fill="#737679" d="M61.688,28.645c0,0,3.125,0.75,5.125,1.875s4.375,2.625,4.375,2.625s6.125-1.5,8.625-2
		s6.5-1.125,9.75-0.875s7.5,1.125,9,4.5s2.75,7.625,2.875,14.75s0.125,12.875,0.125,12.875L81.688,62.77c0,0,5.125,0.5,10.5,2.75
		s5,1.75,8.125,4.75s3,1.5,5,6.125s2.75,8.625,2.75,8.625s1.5,3.75,1.5,3.375s0.875-4.75,0.75-6.25s-0.375-4.875-0.375-4.875
		l-1-3.25l-1.25-3c0,0,1.25,0.125,2.375,1.125s7.875,8.5,7.875,8.5l-1-9.125l-2.625-5.5c0,0,3.375,1.875,4.5,2.875
		s4.375,3.375,4.375,3.375s-2.75-7.625-3.375-8.25s-5.25-5.75-5.25-5.75l11.75,0.5c0,0-4.75-6.75-7.5-8.375s-5-2.625-5-2.625
		s4.375-5.875,5-7.625s2-5.5,1.875-10.875s-0.625-10.5-1.375-14.25s-3.625-10.875-3.625-10.875l-1.875-3.375l-0.375,1.5
		c0,0,1.25,3.375,1.625,6.5s0.5,10.25,0.625,12.625s-0.125,3.875-0.625,6.875s-0.875,4.75-1.75,6.375s-3.875,5.875-3.875,5.875
		l-0.375,0.875l-7.375-13c0,0-8.625-2.25-13.625-2.25s-13.375,0.25-15.5,0.375s-10.75,1.5-10.75,1.5"/>
	<path fill="#737679" d="M94.688,73.02c0,0,2,11.5,1.875,12.375s-1.875-1.625-1.875-1.625s0.25,0.875,0,5.25
		s-0.25,5.75-1.375,10.875s-2.125,9.5-2.25,12.875s-0.125,5.5,0.625,8.375s2.875,6.875,2.875,6.875s-0.5-4.5,0.25-6.625
		s1.75-2.625,1.75-2.625s0.375,5.375,2,7.5s7,6,8.375,6.625s3.75,1.25,3.75,1.25s-1.75-1.625-2.125-2.625s-0.375-1-0.375-1
		s2.625,1.625,4.625,2s7.75,0.5,8.5,0.375s1.25,0,1.25,0s-1.625-0.875-3.125-2.125s-2.75-3.375-2.75-3.375s-0.125-0.375,1.75,0.625
		s8.125,1,11.25,0.125s7-2.125,10.375-3s6.875-2.375,11.125-2.5s6.875-0.125,11.125,0.5s9.625,2.875,9.625,2.875l-0.625-3.25
		c0,0-1.75-3-2.375-3.75s-1.625-2-1.625-2s1.375-0.25,4,0.125s6.75,2.25,8.75,3.5s5.125,4,5.125,4s0.625-2.625,1.125-4.125
		s0.5-8.125,0.5-8.125s5.75-1.5,10.875-2.125s11.75-0.75,11.75-0.75s-6.625-3.375-7.625-3.625s-1-0.25-1-0.25
		s6.125-2.375,9.625-2.875s10.625-1.125,13.5-0.5s8.875,3.5,8.875,3.5s-0.375-2.5-0.625-4s-1.25-3-1.25-3s4.75,4.875,5.625,8.25
		s2,10.625,1,14.375s-3.875,9.875-6.125,13.75s-8.5,9.75-8.5,9.75s7.25-3.125,10.25-5.5s5.375-3.5,6.625-5.375s1.375-1.75,3.25-4.75
		s3.125-5.875,3.5-8.75s-0.125-10.75-0.25-12.125s-2.125-10.75-2.125-10.75l6,8.5c0,0-0.75-11.125-1.125-12.5
		s-4.75-9.375-8.75-11.125s-13.5-4.125-13.5-4.125l9-5.75c0,0-11.875,0.625-17,3.125s-9.625,5.125-13,9.125s-4,4.375-7.625,8.625
		s-6,5.625-10,7.875s-7.375,3.625-7.375,3.625s-8.625-1.375-9.125-1.125l7-4.125l-16.375,2l3.625-3.125c0,0-5.5,0.125-7,1
		s-6,3.5-6,3.5l0.125-3.125l-5.75,3.5c0,0-2.875,0.625-3.25,0.5s5.625-5,5.625-5l-15.125,4l4.75-7.625c0,0-4.625,2.375-6.875,3.125
		s-10.875,1.375-10.875,1.375l4.75-5.125l-10.5,1.75l2.75-2.375c0,0-4.625-1.625-8.25-3.5s-10-9-11.25-11.25s-3-5-3-5l-0.75-0.875"
		/>
	<path fill="#737679" d="M81.188,139.77l3.625,15.375l-7.75,21c0,0-5.625-0.125-7.625,0.375s-6.625,2.5-7.875,3.625
		s-3.375,3.875-3.375,3.875s1.125,1.125,3.875,2.25s11.625,1,11.625,1s2.125-2.875,4-3.875s7-2.875,7-2.875l6.25-12.625l10-5.875
		l1.125-2.75l-2.375-0.375l2.75-0.875l1-2.25l-2-0.75l-1.125-7c0,0-5.625-4.125-8-4.875s-10.375-3.625-10.375-3.625"/>
	<path fill="#737679" d="M142.688,146.645l-0.125,1.75l1.375,0.125l-1.375,1c0,0-0.125,2.5-1.125,4.75s-4.125,12-5.25,14.25
		s-6.25,11.5-6.25,11.5h-10.25c0,0-1.625,0.25-3.125,1.375s-5,5.75-5,5.75l1.625,0.375c0,0,2.375,1.75,5.625,1.875
		s10.625-0.5,10.625-0.5s3-0.5,4.625-1.625s4.25-5.25,4.25-5.25s6.625-10.625,9.75-14s14.5-14.875,14.5-14.875l-9.125,2.375l8.125-8
		c0,0-2.625-1-5.625-2.5s-7.75-5.25-7.75-5.25l-2.125,1.25l2.75-0.125c0,0-0.375,0.5-1.75,2.125S142.688,146.645,142.688,146.645z"
		/>
	<ellipse fill="#FFFFFF" cx="83.438" cy="46.145" rx="14.25" ry="12.75"/>
	<ellipse fill="#FFFFFF" cx="61.375" cy="43.207" rx="11.438" ry="10.313"/>
	<path fill="#FFFFFF" d="M34.688,53.145c0,0-7.125-2.25-9.375-2s-6.375,2-7.25,2.875s-0.875,2.125-0.875,2.125l5.125,5.5l4,1.875
		l4-1.25l5-5.375l-0.25-3"/>
	<path d="M100.938,141.27c0,0-0.75,0.5-1.125-0.75c-0.304-1.013-0.854-4.648-1.051-5.994c-0.047-0.316-0.074-0.506-0.074-0.506"/>
	<polyline points="186.313,114.02 186.301,114.52 186.188,119.27 186.813,119.27 	"/>
	<path d="M185.063,108.52c0,0,1.25,2,1.5,3.125s0.25,1.125,0.25,1.125l-1.875-3.625L185.063,108.52z"/>
	<path d="M85.063,192.145c0,0,1.375-2.375,2-3.375s3-3.5,3-3.5s-4.125,2.875-5,4.375s-0.875,1.875-0.875,2.25"/>
	<path d="M76.688,190.395c0,0,0-1.125,1.125-2.375s6.25-4.75,6.25-4.75l-3,3c0,0-1.875,1.875-2.5,2.625s-0.5,1.5-0.5,1.5H76.688z"/>
	<path d="M60.688,185.52c0,0,1.25-1.75,2.25-2.625s4.375-2.75,4.375-2.75s-2.875,2.625-3.5,3.125s-2.25,2.625-2.25,2.625
		L60.688,185.52z"/>
	<path d="M66.938,187.02c0,0,1.875-2.125,2.375-2.75s1.5-1.5,2.125-2s1.125-0.625,1.125-0.625s-1.625,1.5-2.375,2.625
		s-2.125,2.875-2.125,2.875L66.938,187.02z"/>
	<path d="M112.313,187.77c0,0,1.625-1.5,2.625-2.5s3.375-2.125,3.375-2.125s-2,1.625-2.875,2.5s-1.625,2-1.625,2"/>
	<path d="M119.563,189.52c0,0,1.07-1.352,2.021-2.567c0.951-1.217,2.854-2.433,2.854-2.433s-1.308,1.352-2.141,2.567
		c-0.832,1.217-1.308,2.433-1.308,2.433"/>
	<path d="M134.063,190.895c0,0,0.125-0.5,1.75-1.625s3-2.25,3.875-2.625s-3.125,2.75-3.75,3.375s-1,1.5-1,1.5"/>
	<path d="M142.188,192.77c0,0,0.75-1.625,1.75-2.625s3-2.625,3-2.625s-1.875,2.125-2.5,3s-1.125,2.125-1.125,2.125L142.188,192.77z"
		/>
	<path d="M122.313,135.77c0,0-0.625,0.5-1.125,3.5s-0.125,4.625-0.125,4.625l0.625-0.125c0,0-0.125-2.5,0-3.875
		S122.313,135.77,122.313,135.77z"/>
	<path d="M70.146,66.103c0,0-0.25,1.875-0.5,2.75s-0.75,1.5-0.75,1.5l0.75,0.375c0,0,0.5-0.625,0.625-1.5
		S70.146,66.103,70.146,66.103z"/>
	<path fill="none" stroke="#000000" stroke-width="0.75" d="M62.188,32.77l-0.875-4.25c0,0,3-1.25,7.75-1.625
		s13.625-0.75,16.625-0.5s6.625,0.375,9.25,0.75s6.375,0.875,6.375,0.875s1.875-1,3.125-3.5s5.375-10.875,6.125-13.5
		s3.125-10.125,3.125-10.125s3,4.875,4.5,9.375s2.5,13.625,2.375,18s-0.375,7.25-1.25,9.75s-1.5,3.75-3,6.25s-2.75,3.625-2.75,3.625
		s0.5-0.375,3.875,1.5s4.125,3.25,5.25,4.375s3.625,4.875,3.625,4.875l-11.875-0.5c0,0,1.5,1.75,3.625,4s2.125,3.125,3.25,5.25
		s2.125,5.25,2.125,5.25s-3.25-3.125-4.625-4s-4.5-2.75-4.5-2.75s1.125,2,1.875,3.625s1.125,4.375,1.25,5.625s0.25,5.125,0.25,5.125
		s-6.25-7.375-8.25-8.5s-2-1.125-2-1.125s1.5,2.125,2,4.375s0.75,4.25,0.75,6s-0.75,7.25-0.75,7.25s-2-4.125-4.125-6.375
		s-7.125-6-8-6.625s-2.75-1.875-2.75-1.875s1,4,1.125,6.25s0.375,5.375,0.375,5.375s-7.125-5.875-9.125-7s-6.375-3.125-6.375-3.125
		s-1,2-3.125,4.25s-6.5,5.5-8.25,6.5s-6.75,3.125-6.75,3.125v5.25c0,0-4.625,0-5.625-0.375s-2.375-0.5-2.375-0.5s0,2.75-0.75,3.125
		s-3,0.125-3,0.125s-0.75-1.125-1.25-2s-0.875-3-0.875-3"/>
	<path d="M113.563,2.145c0,0,0.04,0.198,0.102,0.526c0.182,0.976,0.555,3.102,0.648,4.599c0.125,2,0.625,6.75,0.75,9.125
		s0.25,6.5,0.125,8.625s-0.5,3.25-0.875,5.375s-0.75,3-1.5,4.625s-3.375,6-3.375,6s4.75-6.75,5.375-8.75s1.125-5.25,1.125-6.875
		s0.125-7.5,0-8.875s-0.625-7.5-0.75-8"/>
	<path fill="none" stroke="#000000" stroke-width="0.75" d="M48.938,93.895c0,0-0.25,1-1,1.375s-1.875,0-2.375-0.375
		s-0.875-2.625-1-3.875s0.125-5.375,0.125-5.375s-3.625,1.875-6.75,1.375s-6.375-3.125-7.375-4.125s-3-3.875-3.5-6.375
		s-0.875-7.5-0.75-8.25s0-5.375,0-5.375"/>
	<path fill="none" stroke="#000000" stroke-width="0.75" d="M17.438,54.645c0,0-0.75,0,0.125,1.75s1.875,3.125,3.25,4s5.25,3,5.25,3
		s3.5-0.375,5.5-1.25s6.125-3.625,7.5-4.625s2.125-1.75,2.125-1.75s-7.75-4-11.375-4.25s-5-0.25-7.125,0.125
		S17.438,54.645,17.438,54.645z"/>
	<path fill="none" stroke="#000000" stroke-width="0.75" d="M18.313,57.895c0,0-0.875,2.125-1.375,3.875s-0.625,7-0.375,9.625
		s0.25,3.125,2,5.25s2.75,3,4.875,4s5.875,2.125,9.375,2.25s11.375-0.375,14.5-0.75s4-0.75,8.25-2.125s5.75-1.5,8.875-3.875
		s5.125-6.25,5.125-6.25"/>
	<path fill="none" stroke="#000000" stroke-width="0.75" d="M32.438,51.77c0,0,18.375-2.875,19.25-3"/>
	<path fill="none" stroke="#000000" stroke-width="0.75" d="M75.313,80.77c0,0,1.5,3,2.5,5.625s2.125,6.375,2.375,8.625
		s0.125,5.625-1,8.875s-2.5,5.875-4.75,10s-8.375,12.375-8.375,12.375l5.125,0.125"/>
	<path fill="none" stroke="#000000" stroke-width="0.75" d="M71.313,124.02c0,0-0.5,8.125,1.25,10.625s2.125,3.25,7.75,4.875
		s3.375,0.625,9.75,3s6.375,2.375,8.375,4s2.875,3.25,2.875,3.25l-2.375-6.375"/>
	<path fill="none" stroke="#000000" stroke-width="0.75" d="M121.313,142.645c0,0-0.75,2.375,0.75,7.125s4.375,9.875,4.375,9.875
		l-5.75-0.375l4.875,3c0,0-2.75,0.5-7,3.125s-8.75,5.5-8.75,5.5l-8.75,18.25c0,0,0.375-0.125-1.5,0.875c0,0-1.063,1.063-6,1.813
		s-9.813-0.25-10.313-0.188s-5.813-0.938-5.813-0.938s-1.25-0.188-2.75-0.625s-1.5-1.375-1.5-1.375s2.25-4.438,6-6.063
		s7.375-2.75,9.75-3.125s5.375-0.75,5.375-0.75l9-23.25l-3.375-16.125"/>
	<polyline fill="none" stroke="#000000" stroke-width="0.75" points="100.313,148.395 101.313,155.27 103.313,155.52 	"/>
	<path fill="none" stroke="#000000" stroke-width="0.75" d="M125.938,157.645c0,0,4.875-2,5.25-2.125s-2-2.5-2-2.5
		s5.375-0.875,7.625-1.5s6.375-2.75,6.375-2.75l-3.75-0.75c0,0,3.125-1.375,5.125-2.875s4-3.75,4-3.75l-2.625-0.25l1.5-1"/>
	<line fill="none" stroke="#000000" stroke-width="0.75" x1="142.063" y1="146.77" x2="142.688" y2="148.895"/>
	<path fill="none" stroke="#000000" stroke-width="0.75" d="M142.563,149.52c0,0-1,3.5-1.5,5.625s-3.25,8.5-4.375,11.625
		s-6.75,13.5-6.75,13.5l-10.125-0.25c0,0-1.875,0.5-3.625,2s-4.5,5.375-4.5,5.375s4.25,1.75,6.25,1.875s10.875-0.375,10.875-0.375
		l6.125-1.375c0,0,8.25-13.5,10.375-16.125s11-12.375,13.375-14.75s3.625-3.25,3.625-3.25l-8.625,2l8.25-7.875"/>
	<path fill="none" stroke="#000000" stroke-width="0.75" d="M99.313,158.895l3-0.625L99.313,158.895z"/>
	<path fill="none" stroke="#000000" stroke-width="0.75" d="M101.063,160.645"/>
	<path fill="none" stroke="#000000" stroke-width="0.75" d="M81.063,139.895c0,0,3.125,12.125,3.375,13.375s0.25,2,0.25,2
		l-7.875,20.875c0,0-6.375,0.25-8.25,0.75s-5.75,2.375-7.5,3.75s-3,3.375-3,3.375s4,2.5,5.125,2.625s5.75,0.875,7.25,0.75
		s3.375,0,3.375,0"/>
	<line fill="none" stroke="#000000" stroke-width="0.75" x1="102.438" y1="152.145" x2="100.688" y2="148.895"/>
	<polyline fill="none" stroke="#000000" stroke-width="0.75" points="84.938,180.52 90.813,168.145 100.813,162.27 	"/>
	<path fill="none" stroke="#000000" stroke-width="0.75" d="M186.688,118.395c0,0-0.5,3.625-1.5,6.125s-2,5.125-3.125,7
		s-2.375,5.375-2.375,5.375l8.625,10.125l-8.375,7.625l9.375-1.25c0,0-9.625,8.75-12.75,12.375s-8.5,10.25-10.625,13.875
		s-7.5,11.375-7.5,11.375s-13.125,1.75-15.125,1.625s-8.75-0.375-9.125-0.625s-1.125-1-1.125-1s1.5-2.875,3.25-4.25
		s6.875-3.625,8.875-3.75s7.875,0,7.875,0s2.25-1.125,5.375-8.5s6.5-16,7.125-18.25s1.875-6.75,1.875-6.75s-4.75-1.125-10.25-3.625
		s-12.75-8.625-14.625-10.875s-3.125-5.375-3.125-9s-0.25-5,2.25-9.375s6.75-9.25,9.125-11.5s5.25-4.25,8.25-5.375
		s6.75-1.125,6.75-1.125l-3.375,3.125l16.375-1.875l-7.375,4.125c0,0,5.5-0.25,8,0.375s5.5,4.75,5.5,4.75"/>
	<path fill="none" stroke="#000000" stroke-width="0.75" d="M96.438,74.77c0,0.5,3,5.5,5.125,8.375s5.125,5.875,8.75,7.375
		s8,3.75,8,3.75l-2.375,1.75l10-0.875l-4.375,4.875c0,0,1,0,4.375-0.25s6.375-1.125,8.5-1.875s4.75-2.25,4.75-2.25l-5,7.25
		l15.5-3.75l-5.75,4.75c0,0,2.25,0.75,4-0.5s5-3.375,5-3.375l-0.25,3.125"/>
	<path fill="none" stroke="#000000" stroke-width="0.75" d="M75.063,26.27c0,0,1.625-7.375,1.625-9.875s-0.625-9.625-1-10.625
		s-1.875-3.125-1.875-3.125s6.625,4,10.375,8s5.25,6.875,6.5,10.25s0.875,6,0.875,6"/>
	<path fill="none" stroke="#000000" stroke-width="0.75" d="M186.813,119.27l18.375,6.5l-5.25-11.875c0,0,6-1,8.25-0.625
		s4.75,1,4.75,1l7.375,12.875l1.75-11.75c0,0,3.5,4.625,4.625,7.75s0.875,7.5,0.5,10s-1.625,5.75-2.5,8s-2.25,4.25-2.25,4.25
		s6.5-3.125,10.5-6.125s7.75-6,9.625-9s3.375-6.25,3.875-9.875s-0.25-13.625-0.625-15.875s-1.875-6.75-1.875-6.75l6.375,8.625
		c0,0,0.125-6.75-1.375-12s-4.75-9.25-8.25-11.25s-7.625-3.125-10.125-3.75s-3.75-1.125-3.75-1.125s1.375-1,3.5-2.25
		s4.875-3,4.875-3s-6.5,0.125-10.5,1.125s-8.125,2.125-12.5,5.25s-6.25,5.25-9.75,9.25s-4.5,5.875-7.75,8.625s-5.5,3.5-8.875,5.125
		s-5.5,2.5-5.5,2.5"/>
	<line fill="none" stroke="#000000" stroke-width="0.75" x1="69.563" y1="46.27" x2="97.813" y2="46.27"/>
	<path fill="none" stroke="#000000" stroke-width="0.75" d="M50.063,43.02c0.375,0,19,3,19,3"/>
	<path d="M28.063,51.395c0,0,2.875,2.375,3,2.75s-1.375,0.625-3.25,0.75s-4.125,0.25-5.25,0.625s-1.375,1.375-0.75,2.125
		s2.25,2.375,2.625,2.625s3.75,2.625,3.75,2.625l3.375-0.75l6.75-4.125l2.875-2.25c0,0-5.375-2.5-6.25-2.75
		S28.063,51.395,28.063,51.395z"/>
	<path fill="none" stroke="#000000" stroke-width="0.75" d="M61.25,32.77c-6.317,0-11.438,4.645-11.438,10.375
		S54.933,53.52,61.25,53.52c3.373,0,6.372-1.349,8.461-3.458c-0.06-0.277-0.107-0.553-0.146-0.813
		c-0.179-1.193-0.29-2.397-0.299-3.604c0-0.022,0.014-0.037,0.017-0.058c-0.038-0.307-0.075-0.615-0.122-0.921
		c-0.039-0.248,0.076-0.442,0.239-0.561c0.003-0.035,0-0.068,0.011-0.105c0.408-1.368,1.01-2.632,1.677-3.887
		c0.135-0.384,0.294-0.759,0.502-1.119c0.025-0.042,0.058-0.065,0.087-0.097C69.887,35.287,65.896,32.77,61.25,32.77z"/>
	<ellipse fill="none" stroke="#000000" stroke-width="0.75" cx="83.438" cy="46.27" rx="14.25" ry="12.875"/>
</g>
</svg>
