<?xml version="1.0" encoding="utf-8"?>
<!-- Generator: Adobe Illustrator 13.0.0, SVG Export Plug-In . SVG Version: 6.00 Build 14948)  -->
<!DOCTYPE svg PUBLIC "-//W3C//DTD SVG 1.1//EN" "http://www.w3.org/Graphics/SVG/1.1/DTD/svg11.dtd">
<svg version="1.1" xmlns="http://www.w3.org/2000/svg" xmlns:xlink="http://www.w3.org/1999/xlink" x="0px" y="0px"
	 width="251.714px" height="184.943px" viewBox="0 0 251.714 184.943" enable-background="new 0 0 251.714 184.943"
	 xml:space="preserve">
<g id="frame_1">
	<path fill="#19CF53" d="M17.252,42.38c0,0-7.417,7.125-8.417,8.375s-4.875,6-5.5,7.375s-1.625,5.5-1.875,6.875
		s-0.875,6.25-0.875,6.25s3.625-1,5.25-1.75s6-1.625,6-1.625s0.375,2.625,0.625,3.75s2,4.125,2.625,4.625s5.625,5,6.375,5.5
		s2.625,1.25,2.625,1.25s1.625-1.125,3.25-2.375s5.75-2.5,7.5-3.375s3.75-1.5,5.75-2.125s7.5-0.625,7.5-0.625l7,1.5l4,2.375
		l5.625,2.75l2,11.375c0,0-4.375,4.625-6.5,6.75s-8.5,9.625-9.25,10.75s-4.875,6.5-5.25,7.25s-1.25,3.125-1.25,3.125l5.875-2
		c0,0,9.125-0.75,9.75-0.375s10,20,10.625,20.5s12.75,10.375,14.125,10.875s9.75,1.75,9.75,1.75l3,1.75c0,0-0.125,4.875-0.5,6.375
		s-3.25,12.125-3.25,12.125s-7.75-0.5-9.375,0.125s-4.75,1.875-5.5,2.5s-4,4.375-4,4.375l-1.375,3.75l2.25,0.375l-0.25,0.625h6.25
		l-0.5,1.375l5.75,0.125l14.5-8c0,0,4-3.625,4.625-4.625s11.75-17.5,11.75-17.5l2.875-2.75l28.125-14l9-2l7.5,13.75l3.75,4.25
		l2.125,4l-5.375,17.375c0,0-10.25-0.125-11.25,0.5s-4.5,2.875-5.125,3.5s-2,2.625-2,2.625s4.25,1.625,4.75,1.75
		s1.25,0.25,1.25,0.25l7.5,0.25l-0.25,0.875c0,0,9.5-0.625,10.875-0.75s4.375-1.75,4.375-1.75l9.375-10.125
		c0,0,9.625-14.25,9.625-14.625s2.125-6.875,1.875-7.75s-4.25-16.375-5.125-17.25s7.375-16.625,7.375-16.625l4.125,10.125
		c0,0,7.125,1.5,7.5,1.5s8.75-2.375,8.75-2.375l11.75-8.875l1.125-3.375c0,0,0.375-4.375-1.25-7.875s-7.5-15.75-7.5-15.75
		s12.375-13.625,15.375-17s7.25-8,8.75-10.75s2.375-4.25,2.25-5s-3.625-5.375-4.625-6.25s-4.5-4.25-6.375-5.25
		s-8.375-4.75-8.375-4.75l11,16.25c0,0-22.875,18.125-24.125,19.375s-5.75,7.125-5.75,7.125s-0.75,6.25-0.25,8.75
		s3.25,15.5,3.25,15.5l-11.125,3c0,0,0.125-7.5-0.5-10.625s-0.875-6.125-0.875-6.125l0.125-4.625c0,0,0.5-5.875-1-10.625
		s-1.875-9.25-6.25-13.25s-9.875-8.125-12.25-8.5s-1.75-1.25-1.75-1.25l3.625-2c0,0,4-1,4.875-1s0.875,0,0.875,0
		s-3.875-4.75-4.625-7s-0.625-7,0.125-9.125s2.375-4.875,3.75-5.75s5.125-2.25,5.125-2.25s-10.375-3.25-12.75-3.625
		s-13.125-1-14.5-0.625s-11.375,2.5-12.625,3s-8.25,3.375-8.25,3.375s1,8.75,0.875,9.875s-1.75,6.5-2.375,8.625
		s-3.875,7.625-4.625,8.875s-3.875,4.625-3.875,4.625s-3.125,0.75-5,1.75s-10.125,6.375-11,7.375s-1.5-4.25-0.375-8.375
		s5.25-11.625,6.75-13.5s8.625-7.375,8.625-7.375s0.125-3-1.375-5.375s-5.375-6.75-5.375-6.75s-2.25,1.375-3.75,2
		s-4.5,1.375-5.875,1.875s-5.792,0.625-5.792,0.625l-2.25-0.167l-0.083,11.417c0,0,3.125,1.75,4.75,3.375s6.125,6.5,6.125,6.5
		s-7,2.25-7.375,2.25s-10-0.875-11-1.125s-3.625-0.625-3.625-0.625l0.125,3.5c0,0,3.625,1.25,4.875,2.375s3.875,3.75,5,5
		s2.25,4.125,3,5.625s1.25,3.875,1.25,3.875s-6.5,6-7.875,7.125s-6,5.25-7,6.5s-5.75,6.75-6.875,8.5s-6.5,8.75-6.5,8.75
		s-1.75-6.25-2.75-8.125s-2.5-5.125-2.5-5.125s0.5-1.625,1.5-2.875s14.625-26.125,14.625-26.125l0.875-2.5l4.25-3.5l13,0.5
		l6.125-2.375l1.5-5.125c0,0-1.625-4-2.375-4.125s-13.875-10.75-14.25-10.75s-8.75-1.625-8.75-1.625l-6.25-1l3.25-4.75
		c0,0,1.25-3.125,0.5-3.25S76.336,25.88,76.336,25.88l-12.375,7c0,0-3.25,5.25-3.125,5.625s-6.5,6.25-6.5,6.25l-0.625-0.5
		c0,0-2.75,3.375-4.375,4.5s-6.5,3.25-9.625,3.5s-6,0-7-0.375s-5.5-2-6.375-2.625s-3.375-1.75-4.625-3.125
		S17.252,42.38,17.252,42.38z"/>
	<path fill="#13923B" d="M61.211,53.63c0,0,0.053-0.032,0.15-0.089c0.984-0.586,6.502-3.848,7.412-3.848c1,0,2.25-0.063,2.688,0.375
		s1,1.938,0.813,3.5s-1.188,4.5-2.25,6.375s-4.813,5.875-4.813,5.875s2.875-4.875,3.813-7.313s1.25-4.875,1.125-5.625
		s-0.938-1.625-2.938-1.125"/>
	<path fill="#13923B" d="M57.711,77.318c0,0,8.5,3.063,11.625,3.313s6.563,1.188,12.313-3.563s18.688-17.438,18.688-17.438l-1.875,5
		l-4.75,9.25l-5.625,8.75l-5.438,8.375l-1.5,3.125c0,0-2.375-2.688-3.438-3.25s-5.25-1.063-6.688-0.625s-4.188,2.25-4.188,2.25
		l-0.688-3.25l-4.063-7.063L57.711,77.318z"/>
	<path fill="#13923B" d="M202.086,94.463c0,0-0.25,4.667-0.5,7.917s-1.334,6.332-1.917,7.166s-1.417,1.416-2.5,1.5
		s-3-1.832-3.833-3.166s-2.917-8.417-2.917-8.417s-5.416,10.417-6.916,14.5s-4.25,14-4.667,17.75s1.332,9.834,2.916,11.834
		s7.167,6.166,8.917,7.666s2.666,2.083,2.833,3.5s0.001,3.501-1.916,6.167s-13.25,17.25-13.25,17.25l-5,5.833l2.666-0.5
		l32.667-33.25c0,0-6.749-6.501-7.833-7.917s-2.083-3.167-2.083-4.5s0.75-7.333,1.083-8.333s2.083-8.166,2.333-9.583
		s1.251-9.168,1.334-11.084S202.086,94.463,202.086,94.463z"/>
	<path fill="#13923B" d="M164.169,156.046l-24.916,25.417c0,0-9.667,0.583-10.584,0.833s-4,0.25-4,0.25l-2.667-0.083l1-1
		c0,0-2.833,0.166-3.083,0.083s-2.667-1.5-2.667-1.5s2.417-2.166,3.167-2.666s3.001-1.668,3.417-1.834s3.166-0.166,3.166-0.166
		l3.834,0.583l4.333-15.5c0,0,12.334-1.5,12.917-1.583s11.25-1.834,11.25-1.834L164.169,156.046z"/>
	<path fill="#13923B" d="M120.253,140.88c0,0-2.333,6.751-4.5,10.917s-6.917,13.415-13.917,19.749s-10.999,8.75-12.833,9.917
		s-5.834,3-5.834,3h5.5l5.5-0.416l5-1.25l2-1.167l2.917-3.167l3.667-4.666l5.583-9.5l6-9.917l1.416-4.5v-6.834L120.253,140.88z"/>
	<path fill="#13923B" d="M91.252,157.63l-8.416,14.75c0,0-3.417,1.916-4.167,2.666s-2.833,3.5-2.833,3.5l-1.334,1.75l-10.75-0.083
		l0.834-0.583l-4.834-0.167l0.5-0.417l-1.75-0.416v-1l1.584-2.084c0,0,4.5-3.916,5.333-4.083s7.083-0.417,7.083-0.417
		s2.25-5.25,2.417-6.5s0.333-8.082,0.333-8.916s-0.416-3-0.416-3s4.75,1.75,5.75,2.083s4.416,1.251,5.583,1.417s5.5,1.25,5.5,1.25"
		/>
	<path fill="#077606" d="M150.169,36.214c0,0,12.333,15.75,15.583,20s10.917,14.833,10.917,14.833s-4.916-10.417-8.333-15.5
		s-11.334-14-12.667-15.167S150.169,36.214,150.169,36.214z"/>
	<path fill="#077606" d="M151.502,32.38c0,0,8.584,2.5,12.417,4.25s7.999,3.417,11.583,6s10.167,8.167,10.167,8.167
		s-5.833-9.833-13.833-13.25s-14.918-4.5-16.084-4.75S151.502,32.38,151.502,32.38z"/>
	<path fill="#0C6729" d="M138.211,74.005c0,0-3.125,1.875-5.125,4s-4.749,6.626-5.416,8.459s-1.001,5.332-0.417,6.416
		s2.333,2.667,4,2.5s5.25-0.5,8-3.25s4.833-5.916,5.25-8.333s0.583-5.751,0.5-7.334s-0.249-3.167-1.416-3.167
		s-5.417,0.417-5.417,0.417"/>
	<path fill="#0C6729" d="M151.504,72.88c0,0-1.418,1.417-1.834,2.5s-0.167,2.334,0.75,3.167s1.084,1.167,3.584,1.25
		s2.166,0.417,4.166,0.75s2.501,0.916,3.834,0.416s2.5-0.584,2.583-2.25s-0.25-3.416-1-4.249c-0.75-0.834-2.833-2.251-4.333-2.417
		s-5.751-0.333-7.334,0.583"/>
	<path fill="#0C6729" d="M150.586,82.505c0,0-1.5,1.188-2,2.688s-0.75,4.875-0.75,5.938s0.188,2.063,1.375,2.438
		s2.25,0.875,4.25-0.063s3.313-1.813,3.938-2.625s1.25-3.25-0.25-4.5s-4.188-3.938-6.25-3.813"/>
	<path fill="#0C6729" d="M169.398,107.818c0,0-1.188,1.125-1.438,2s0,2.563,1,3.063s1.938,0.313,2.938-0.313s1.625-1.188,2.563-1.75
		s2.125-1.25,2.125-1.875s-0.563-2.25-1.688-2.563S170.836,106.818,169.398,107.818z"/>
	<path fill="#0C6729" d="M172.336,114.568c0,0,1.438-0.688,2.688-0.813s2.75,0.125,3,0.438s0.188,1.375-0.125,2.5
		s-1.125,3.188-2,3.063s-2.5-1.563-2.75-2.063S171.523,115.818,172.336,114.568z"/>
	<path fill="#0C6729" d="M163.898,114.755c0,0-1.25,1.875-1.313,4.438s0.5,5.125,1.125,6.563s1.688,2.563,2.438,2.938
		s1.313,0.563,2.25,0.125s2-1.938,2.188-3.375s-0.063-5.5-1-7.25s-2.25-3-2.875-3.313S165.523,114.005,163.898,114.755z"/>
	<path fill="#0C6729" d="M103.648,136.88c-0.191,0.048-1.438,1.125-1.688,1.875s0,1.813,0.188,2.25s0.688,0.5,1.375,0.5
		s1-0.875,2.063-1.375s1.938-0.75,2-1.25s0.125-1.875-1.063-2.063S104.648,136.63,103.648,136.88z"/>
	<path fill="#0C6729" d="M108.627,142.047c0,0-2.082,0.126-2.791,0.459s-1.126,0.707-1.084,1.166s1.292,1.709,1.542,1.959
		s0.791,0.582,1.083,0.541s1.375-1.707,1.5-2.166S109.377,142.38,108.627,142.047z"/>
	<path fill="#0C6729" d="M99.294,143.297c0,0-0.958,1.459-0.958,2.542s0.5,2.624,0.75,3.583s0.874,2.083,1.541,2.625
		s1.043,0.875,1.709,0.625s1.583-1.5,1.708-2.75s-0.001-3.791-0.917-4.833s-1.417-2.708-3.75-2"/>
	<path fill="#077606" d="M116.587,37.38c0,0,7.417,0.667,11.417,1.833s5.916,2.25,5.916,2.25s-9.666-2.167-11.333-2.25
		s-4.25,0-4.25,0L116.587,37.38z"/>
	<path fill="#077606" d="M113.754,47.63l2.666-0.917c0,0,8.584-2.417,11.084-2.5s2.5-0.083,2.5-0.083s-13.75,4.25-14.417,4.583"/>
	<path fill="#E2E20E" d="M44.669,120.547c0,0,0.833-1.5,3.25-2.75s5.167-2.334,7.667-2.25s5.25-0.584,8.25,3
		s5.083,7.084,7.583,11.834s4.333,8.166,7.917,11.583s4.251,4.084,7.334,4.917s10.25,0.833,10.25,0.833s0,3.751,0.083,4.667
		s0.25,4.083,0.25,4.083l-0.417,2.083l-1.833-0.333c0,0-10.251-2.166-11.501-2.583s-11.249-4.084-13.916-5.334
		s-9.75-6.166-10.584-6.583c-0.833-0.417-4-3.25-5-4.333s-6.417-8.167-6.417-8.167l-2.5-4.417l-0.667-2.083v-2.75L44.669,120.547z"
		/>
	<path fill="#E2E20E" d="M120.669,141.131c0.25-0.083,9.334-4.834,14.167-8.167s14.832-9.833,16.916-11.083s7.25-3.917,7.25-3.917
		s-0.416,3.833-0.416,4.5s0.832,4.834,0.916,5.084s2.668,9.25,3.834,12.333s6.5,14.5,6.5,14.5s-7,1.75-8,2s-6.668,1.583-8.334,1.833
		s-12.417,1.418-13.75,1.584s-10.082,0.417-11.249,0.5s-12.667,0.5-12.667,0.5s0.917-2,1.417-2.75s2.583-5.166,2.916-6
		s0.75-2.834,0.75-2.834l-0.167-6.583v-1.833"/>
	<path fill="#E2E20E" d="M201.961,121.755c0,0,1.75,2.875,4.375,3.5s6.625,1.125,9.375,0.125s5.75-2.5,8-4.5s5.5-6.25,6.375-7.625
		s2.25-5,2.25-5s1.5,3,1.375,4s-0.625,3.375-0.625,3.375s-2.25,2.625-3.25,4.125s-8.5,8.625-9.375,9s-4,3.25-5.375,4.125
		s-8.25,5.625-8.875,6s-4.875,3.5-4.875,3.5s-1.584-1.332-2.167-3.499s-0.333-3.417-0.25-4.5s2.083-9.083,2.083-9.083
		L201.961,121.755z"/>
	<path fill="#5C3396" d="M101.836,1.505c0,0-1.499,6.959-1.749,8.042s-0.583,1.416-1,2.333s-2,2.917-2,2.917L94.92,16.63
		l-1.833,0.333c0,0-2.917-1.083-3.417-1.417s-2.416-1.5-2.416-1.5l-1.834-0.333c0,0-2.583,0.333-3.5,1s-2.333,1.167-2.833,1.833
		s-4.084,4.917-4.084,4.917l8.834,0.833c0,0-0.416,2.834-0.5,3.167s5.582,0.583,5.916,0.417s5.834-1.917,6.167-2.083
		s3.583-2.917,3.583-2.917l5.167-5.417l0.583-1.833l0.25-3.25l0.334-1.167c0,0-2.167-6.334-2.417-6.667s-1-1.5-1-1.5"/>
	<path fill="#5C3396" d="M87.919,36.547c0,0,2.251,0.167,2.834,0.25s4.666,1.167,4.916,1.25s3.667-1.417,3.667-1.417l8.5-6.5
		c0,0,3.916,0,4.166,0.083s7.917,1.417,7.917,1.417l6.333-2.833l3.167-3l1.75-3.417l0.5-3.25c0,0-0.666-7.417-1.083-9
		s-0.334-2.083-0.334-2.083s-1.832,5-2.416,6.583s-2.417,4.833-2.417,4.833l-4.75,4.417l-0.916,0.583l-2.917-0.083l-2.5-1.75
		l-2.417-1.917c0,0-1.917-1.25-2.167-1.25s-2.75-0.25-2.75-0.25s-4.333,1.5-4.583,1.75s-5.083,3.417-5.083,3.417l-3.083,3.667
		l-3.584,4.583L87.919,36.547z"/>
	<path fill="#42256A" d="M95.336,37.88c0,0,3.375-4.875,4.25-6.125s3.875-3.25,4.875-3.625s4-0.125,5.5,0.375s3.875,2.5,5.625,2.5
		s3.875,0.125,5.625-0.875s3.125-1.375,5-3.25s4.875-5.75,4.875-5.75l0.375-1.125c0,0,0.125,3.625-0.125,4.875s-1,3.375-1.625,4.125
		s-1.875,1.75-2.75,2.5s-3.5,1.5-4.125,1.75s-4,1-4.375,1.125s-3.75,0.5-4.125,0.5s-2.875-0.375-2.875-0.375l-5.5,8.25
		C105.961,42.755,96.461,38.005,95.336,37.88z"/>
	<path fill="#42256A" d="M104.836,8.13c-0.125,0.375-0.5,4.75-1.375,7.125s-3.375,3.75-4.375,5s-2.75,2.125-2.75,2.125l3.75,0.25
		l2.125-1.5l1.875-1.125c0,0,0.625-1.5,0.625-1.875s0.875-5.5,0.875-5.5l-0.75-5.125"/>
	<path fill="#42256A" d="M85.961,22.005c0,0,2.5,1.5,3.625,1.375s0.625,0.375,0.625,0.375s-4.625,0.75-5.375,1.375
		s-0.5,0.125-0.5,0.125l1.25-3.875"/>
	<path fill="#830000" d="M108.752,44.214c0,0,6.584,2,7.167,2.167s7,2.5,7,2.5s-1.501-5.083-2.917-7.167s-6.333-7.083-6.333-7.083
		l-2.25-0.167l-5.583,7.917l2.416,1.5"/>
	<path fill="#830000" d="M80.003,27.88c0,0,4.917-0.25,6.25-0.25s7.416,0.667,7.416,0.667s1.834-1.75,2.584-2.417
		s4.166-3.5,4.166-3.5s-12.166,1.25-13.583,1.833s-7.5,3.917-7.5,3.917"/>
	<path fill="#830000" d="M64.836,31.63c0,0,4.25-5.917,6.25-7.417s4.416-2.5,4.416-2.5l12.167-4.417l-3.083,8.083
		c0,0-4.916,2.333-5.25,2.417s-3.584,1.333-3.584,1.333s-4.416-0.5-5.333-0.167S64.836,31.63,64.836,31.63z"/>
	<path fill="#830000" d="M215.502,23.715c0,0-0.249,4-0.166,4.833s0.334,5.167,0.5,5.75s1.082,2.25,1.416,2.917
		s2.751,4.333,4.584,5.25s6.083,2.583,6.083,2.583l4.667,0.75l1.666,0.25l-3.583-5.75c0,0,6.333,3.417,6.75,3.75
		s0.917,0.417,0.917,0.417s0.249-1.083,0.416-2s0.833-4.083,0.75-4.583s0-3.25-1.75-5s-4.25-3-4.25-3s-2.082-0.083-2.666,0.333
		s-2.584,1.5-3.167,1.917s-2,1-2.75,1s-2.167-0.5-2.75-0.75s-3.333-2.833-3.75-3.583S215.502,23.715,215.502,23.715z"/>
	<ellipse fill="#FFFFFF" cx="72.805" cy="39.568" rx="11.219" ry="10.563"/>
	<ellipse fill="#FFFFFF" cx="56.086" cy="36.63" rx="9.25" ry="8.083"/>
	<ellipse fill="#0092FF" cx="50.461" cy="36.922" rx="3.25" ry="3.042"/>
	<ellipse fill="#0092FF" cx="65.857" cy="39.651" rx="4.021" ry="3.521"/>
	<ellipse fill="#00426B" cx="65.534" cy="39.672" rx="1.406" ry="1.271"/>
	<ellipse fill="#00426B" cx="50.19" cy="36.797" rx="1.271" ry="1.167"/>
	<ellipse fill="#FFFFFF" cx="51.773" cy="35.38" rx="0.813" ry="0.75"/>
	<ellipse fill="#FFFFFF" cx="48.68" cy="38.224" rx="0.656" ry="0.531"/>
	<circle fill="#FFFFFF" cx="67.336" cy="37.693" r="0.875"/>
	<circle fill="#FFFFFF" cx="64.117" cy="41.287" r="0.656"/>
	<path fill="none" stroke="#000000" stroke-width="0.75" d="M53.503,44.63c0,0-1.917,2.417-3.667,3.917s-5.917,3.5-11.167,3.917
		s-10-2.083-13.25-3.833s-7.917-6.75-7.917-6.75s-10.667,10.333-13.5,15S0.419,71.464,0.419,71.464s6.917-2.75,12-4.167
		s18.833-5.583,23.5-5.583s11.167,0,16.25,0.25s7.083,0.333,9.5-0.5c2.416-0.833,2.5-1.333,2.5-1.333"/>
	<path d="M63.773,60.13c0,0,2-2.594,2.563-4.188s0.563-1.594,0.563-1.594s-1.25,5.156-2.531,6.094"/>
	<path fill="none" stroke="#000000" stroke-width="0.75" d="M11.398,67.818c0,0,1.125,4.313,2.688,6.75s5.75,5.75,7.125,6.688
		s2.688,1.813,2.688,1.813s2.5-2.375,6.313-4.125s11.188-4.313,15.125-4.188s9.563,0.375,13,3.25s7.75,10.563,8.063,12.188
		s0.375,2.375,0.375,2.375s-8,7.75-11.875,12.438s-9,11.938-9.688,13.438s-1.75,5.688,0.313,9.25s7.25,12.688,15.75,17.688
		s12.063,6.938,17.563,8.75s16.063,4.063,17.25,4.125s1.188,0.063,1.188,0.063"/>
	<path fill="none" stroke="#000000" stroke-width="0.75" d="M98.773,136.568c-0.063,0.188-1.813,4-1.688,9.125
		s0.313,11.25-0.375,14.563s-3,10.938-3,10.938s-8.25,0.313-10.375,0.938s-5.188,2.938-7,5.438s-2.875,4.625-2.875,4.625l2.75,0.313
		l-0.563,0.938l6-0.063l-0.188,0.938c0,0,8.438,0.313,13.063-0.313s6.75-1.5,10.25-6.188s12.938-20.063,14.188-22.938
		s1.75-4.938,1.75-4.938s0.125-4.813,0-6.75s-0.25-2.688-0.25-2.688"/>
	<path fill="none" stroke="#000000" stroke-width="0.75" d="M116.023,160.568c0,0,21.188-0.188,26.313-0.938
		s9.938-1.188,13.688-1.875s13.188-3.375,13.188-3.375"/>
	<path fill="none" stroke="#000000" stroke-width="0.75" d="M167.586,100.505c0,0-3.625,4.375-5.875,8.875
		s-3.313,9.125-3.063,13.438s2.688,12.25,4.625,16.938s8,17.875,8,17.875s-5.375,17.375-5.438,17.563s-9.063-0.125-11.563,0.813
		s-6.813,5.813-6.813,5.813s1.688,0.75,3.063,1.063s3.25,0.188,3.25,0.188l-0.188,0.875l7.75-0.188l-0.625,0.75
		c0,0,8.563-0.125,11.563-0.5s3.813-0.5,3.813-0.5l32.625-33.25c0,0-9.563-8.438-9.875-12.188s1.063-8.813,1.875-11.625
		s1.188-4.938,1.75-8.25s1.125-8,1.125-11.688s-0.938-10.875-2.938-17.875s-3.063-10-3.063-10"/>
	<path fill="none" stroke="#000000" stroke-width="0.75" d="M202.273,95.693c0,0,0.375-9.688-0.188-13.25s-1.75-10.125-4.375-13.938
		s-9.25-9.375-11.375-10.563s-4.875-1.75-4.875-1.75"/>
	<path fill="none" stroke="#000000" stroke-width="0.75" d="M128.586,69.63c0,0,6.625-4.625,10.75-9.75s8.75-15.5,8.375-21.375
		s-0.75-8-0.75-8s12.625-6,19.75-6.375s14.75,0,19.125,1s8.75,3.125,8.75,3.125s-7.375,2.875-8.125,6.125s-2,8.75,0,12.375
		s4,5.375,4,5.375s-8.25,1-10.5,4.875s-2.75,10.375-1.375,13.25s1.875,3.625,1.875,3.625s-12.875-3.875-20.5-3.625
		s-14.625-0.25-21.5,2.625s-8.625,3.625-8.625,3.625"/>
	<path fill="none" stroke="#000000" stroke-width="0.75" d="M137.586,62.005c0,0-4.375,0.875-10.375,5.125
		s-23.375,17.75-29.5,25.375s-11.25,15-11.25,15l-5.25-13.5c0,0-0.125-1.125,1.25-2.75s9.625-14.625,10.875-16.75
		s6.375-12,6.75-13.875s0.375-4.5,0.375-4.5"/>
	<path fill="none" stroke="#000000" stroke-width="0.75" d="M89.211,47.88c0,0,7.125,7.5,14,9.125s11.125,1.125,13.5,0.625
		s5.625-1.625,5.625-1.625s-4.875-6.125-10.125-9.625s-17.125-8.875-20.375-9.375s-3.25-0.5-3.25-0.5"/>
	<path d="M88.69,36.172c0,0-1.021,0.104-1.458,0.375s-1.042,1.313-1.042,1.313s1.605-1.021,2.396-1"/>
	<path fill="none" stroke="#000000" stroke-width="0.75" d="M87.92,36.63c0,0,6.751-9.792,10.042-12.417s7.584-5.167,10-5
		s4.458,1.583,6,2.833s1.792,2.125,3.417,2.167s2.29,0.833,4.499-1.125s3.709-3.542,4.917-5.875s3.5-9.042,3.5-9.042
		s1.626,7.5,1.209,12.792s-1.584,8.583-4.292,10.25s-8.833,3.25-11.208,3.333s-4.709,0.042-4.709,0.042s-5.457,7.958-5.541,8.083"/>
	<path fill="none" stroke="#000000" stroke-width="0.75" d="M113.545,34.714c0,0,4.833,3.875,6.875,7.75s2.542,6.25,2.542,6.25
		s-14.376-4.792-15.542-5.042"/>
	<path fill="none" stroke="#000000" stroke-width="0.75" d="M129.087,29.797c0,0,4.916,6.083,5.833,8.5s1,3.917,1,3.917
		s-5.832,3.833-7.916,6.583s-4.918,6.417-6.084,10.083s-2,5.333-2,8.333s0.334,5,0.334,5"/>
	<path fill="none" stroke="#000000" stroke-width="0.75" d="M100.503,59.964c0,0,2.083,0.25,5.5,3.083s4.75,4.416,6,7.083
		s2.667,6.75,2.667,6.75"/>
	<path d="M128.419,69.339l-6.583,4.438c0,0,6.563-3.542,7.063-3.938"/>
	<path d="M129.752,76.152c0,0-5.521,3.041-6.708,4.083s-1.188,1.042-1.188,1.042s7.271-4.021,8.104-4.438"/>
	<path d="M89.023,48.255c0,0-2.313-2.375-2.938-3.156s-0.625-0.781-0.625-0.781s3.625,2.969,4.125,3.438"/>
	<path d="M120.106,140.63c0,0-0.104-0.896-0.604-1.729s-0.5-0.833-0.5-0.833s1.541,1.416,1.791,2.458"/>
	<path d="M167.189,100.423c0,0,4.896-5.479,6.125-6.188s1.229-0.709,1.229-0.709s-6.396,6.916-6.896,7.5"/>
	<path d="M197.305,78.912c0,0-0.781-2.094-1.625-3.844s-0.844-1.75-0.844-1.75s2.656,3.719,3.094,5.281"/>
	<path fill="none" stroke="#000000" stroke-width="0.75" d="M203.753,110.381l10.917-2.417c0,0-3.167-14.333-3.25-18.083
		s0.333-6.5,0.333-6.5s2.75-4.583,9.417-10.167s20.667-16.25,20.667-16.25l-11.583-17.167c0,0,12.917,7,16.583,11.833
		s4,4.333,2.25,8s-4.501,6.75-11.584,14.75s-14,15.25-14,15.25s4.667,8.249,7.167,13.833s3.083,8.501,2.75,10.584
		s0.001,2.249-5.416,7.749s-9.085,8.168-13.501,11.584s-13.416,8.75-13.416,8.75"/>
	<path fill="none" stroke="#000000" stroke-width="0.75" d="M234.087,45.88c0,0-5.5-0.25-8.917-1.667s-5.833-3.583-8.25-7.417
		s-1.416-13.417-1.416-13.417s2.582,5.417,4.249,7.083s4.334,3.583,7.084,2.167s4.332-3.5,6.666-2.667s3,1.083,4.5,3.417
		s1.5,3.083,1.417,5.25s-1.25,5.583-1.25,5.583"/>
	<path fill="none" stroke="#000000" stroke-width="0.75" d="M64.648,31.568c0,0,4.875-6.75,8.875-8.938s14.063-5.313,14.063-5.313
		s-3.125,8.063-3.313,8.125"/>
	<path fill="none" stroke="#000000" d="M100.523,22.38c0,0-6.125,0.313-11.25,1.375s-10.688,4.438-10.688,4.438"/>
	<path fill="none" stroke="#000000" stroke-width="0.75" d="M74.711,22.068c0,0,3.625-4.938,4.938-5.938s5.438-3.375,7.688-2
		s4.563,2.938,6.063,2.813s4.625-2.375,5.875-5.625s2.75-10.25,2.75-10.25s3.438,6.313,3.375,10.188s-0.563,8-1,8.625"/>
	<path d="M98.42,136.506c0,0,0.708-1.396,1.833-2.542s3.126-1.896,3.396-1.938s-3.979,3.604-4.563,4.75"/>
	<path fill="none" stroke="#000000" stroke-width="0.75" d="M91.461,157.443c-0.125,0.188-8.063,14.25-8.5,14.625
		s-0.438,0.375-0.438,0.375"/>
	<path fill="none" stroke="#000000" stroke-width="0.75" d="M75.086,152.818c0,0,0.438,6.188,0.063,9.438s-1.25,5.875-1.875,7.125
		s-0.938,1.813-0.938,1.813s-5.688,0-6.688,0.25s-2.875,1.438-4.25,2.688s-3,3.938-3,3.938s0.25,0.625,0.688,0.75
		s1.063,0.125,1.063,0.125l-0.438,0.563l4.625,0.063l-0.5,0.625h10.938"/>
	<path d="M81.492,183.287c0,0,3.875-4.938,5.781-6.094s1.906-1.156,1.906-1.156s-7.406,7.969-7.531,8.188"/>
	<path d="M76.055,182.287c0,0,1.375-2.313,3.938-4.438s2.719-2.156,2.719-2.156s-6.531,7.406-6.656,7.594"/>
	<path d="M64.18,179.474c0,0,2.875-3.156,4.281-3.969s1.406-0.813,1.406-0.813l-5.5,5.594"/>
	<path d="M59.898,179.068c0,0,2.563-3.219,3.875-3.969s1.438-0.844,1.438-0.844l-4.844,5.156"/>
	<path fill="none" stroke="#000000" stroke-width="0.75" d="M135.169,160.381l-4.416,15.666c0,0-5.25-1.416-8.25,0.167
		s-5.334,3.75-5.334,3.75s1.916,1.417,3.25,1.417s2.167,0.083,2.167,0.083l-0.5,0.75l5.417,0.083c0,0,10.916-0.499,11.333-0.666
		s25.75-25.833,25.75-25.833"/>
	<path d="M153.773,183.068c0,0,1.25-2.75,2.625-3.875s3.938-1.875,3.938-1.875s-3.75,2.438-4.563,3.375s-1.688,3.188-1.688,3.188"/>
	<path d="M160.961,183.943c0,0,1-2.188,2.125-3.188s4.063-2.563,4.063-2.563s-3.188,2.313-4,3.375s-1.813,2.75-1.813,2.75"/>
	<path d="M127.503,182.297c0,0,0.271-1.604,1.771-2.729s2.75-1.438,2.75-1.438s-2.313,1.813-2.875,2.563s-0.688,1.938-0.688,1.938"
		/>
	<path d="M122.586,181.464c0,0,0.875-1.584,2.125-2.709s2.188-1.25,2.188-1.25l-4.313,4.625"/>
	<ellipse fill="none" stroke="#000000" stroke-width="0.75" cx="72.773" cy="39.443" rx="11.219" ry="10.438"/>
	<path fill="none" stroke="#000000" stroke-width="0.75" d="M62.141,42.088c-0.179-0.438-0.272-0.908-0.313-1.392
		c-0.175-0.623-0.221-1.281-0.158-1.922c-0.027-0.393-0.006-0.788,0.124-1.124c0.052-0.464,0.177-0.918,0.397-1.34
		c0.09-0.296,0.219-0.592,0.375-0.876c0.229-0.581,0.545-1.115,0.924-1.597c0.179-0.376,0.391-0.728,0.656-1.048
		c-1.577-2.474-4.615-4.158-8.123-4.158c-5.126,0-9.281,3.582-9.281,8s4.155,8,9.281,8c2.401,0,4.579-0.795,6.227-2.085
		c-0.016-0.077-0.03-0.154-0.045-0.231C62.184,42.238,62.158,42.165,62.141,42.088z"/>
	<polyline points="64.398,31.287 63.898,32.193 64.023,32.505 64.836,31.787 65.148,30.912 	"/>
	<path fill="none" stroke="#000000" d="M75.586,29.297c0,0,2.332-1.584,9.166-1.667s9.584,0.583,9.584,0.583"/>
</g>
<g id="frame_2">
</g>
<g id="frame_2_1_">
	<path fill="#19CF53" d="M43.908,62.387c0.322-0.088,0.621-0.106,0.906-0.093c0.063-0.063,0.125-0.125,0.188-0.187
		c0.332-0.342,0.668-0.679,1.013-1.005c1.443-1.369,3.282-0.781,4.196,0.443c0.124-0.068,0.241-0.146,0.366-0.211
		c1.152-0.603,2.512-0.267,3.382,0.524c0.096-0.063,0.189-0.128,0.285-0.19c1.237-0.793,2.733-0.272,3.581,0.735
		c0.36-0.247,0.721-0.494,1.085-0.735c0.996-0.66,1.991-0.548,2.752-0.037c1.083-0.539,2.138-0.343,2.903,0.236
		c0.115-0.047,0.225-0.102,0.342-0.146c0.9-0.346,1.648-0.212,2.208,0.193c0.152-0.077,0.297-0.164,0.45-0.24L51.564,52.9
		l-10.667,9.751c0,0-0.078,0.625-0.19,1.559C41.632,63.374,42.688,62.72,43.908,62.387z"/>
	<path fill="#19CF53" d="M83.398,88.568c-0.083-0.25-3.5-9.167-3.5-9.167l-7.25-14.083l-0.816-0.75
		c-0.078,0.296-0.224,0.6-0.451,0.902l-0.006,0.007c0.299,0.682,0.361,1.486,0.126,2.222c1.267,0.956,1.754,3.105,0.445,4.333
		c-0.177,0.167-0.36,0.324-0.541,0.487c0.072,0.703-0.145,1.468-0.792,2.18c-0.822,0.904-1.683,1.745-2.562,2.562
		c-0.02,0.07-0.031,0.14-0.057,0.212c-0.025,0.071-0.061,0.133-0.087,0.203c1.345,0.707,2.203,2.343,1.14,3.794
		c-0.347,0.474-0.703,0.933-1.063,1.386c0.002,0.02,0.008,0.038,0.009,0.059c2.106,1.027,2.19,4.345,0.21,5.114
		c0.072,0.59-0.026,1.211-0.321,1.775c-0.093,0.178-0.194,0.351-0.291,0.526c0.076-0.071-0.11,0.206-0.188,0.388
		c-0.061,0.141-0.122,0.28-0.188,0.419c-0.117,0.246-0.286,0.447-0.475,0.628c2.343,4.458,9.381,17.746,10.074,17.885
		c0.833,0.166,10.667,3,11,2.584s0.75-6.334,0.75-6.334S83.481,88.818,83.398,88.568z"/>
	<path fill="#19CF53" d="M101.898,14.817c0,0,2.916,8.083,3.166,8.75s0.167,3,0.167,3l-0.5,1.167l-0.833,0.917l-4.75,1.583
		c0,0,3.667,8.25,4.25,10.084c0.583,1.832,0.834,4.666,0.75,5.416s-0.583,3-1.25,3.666c-0.667,0.668-7,4-7,4
		s7.917,4.584,10.25,6.001s3.582,2.583,4.416,4s2.251,4.249,3.167,5.833s2.583,8.333,2.583,8.333l5.333-5.333l0.084-3.5
		c0,0,0.749-5.75,0.916-6.75s2.583-8.167,4.083-10.084c1.5-1.916,4.5-5.75,5.417-6.916s5.75-4.916,5.75-4.916s-2.917-7-3.917-7.917
		s-8.083-6.667-8.083-6.667s-8.751-5.667-11.167-6.667s-12.416-3.917-12.416-3.917"/>
	<path fill="#19CF53" d="M112.647,78.568c0,0,10.916-9.584,12.083-10.334s8.084-5.083,8.084-5.083l5.916-2.583l1.5,0.166
		c0,0-11.165,13.499-11.499,13.833s-12.083,6.833-13.5,7.5s-2.5-2.833-2.5-2.833"/>
	<path fill="#19CF53" d="M181.147,55.234c0,0,8.166,3.334,9.25,4.334s5.5,5.166,5.5,5.166s1.084,1.75,1.084,2
		s-12.75-4.916-13.167-5.083s-6.75-3.917-6.75-3.917"/>
	<path fill="#14A241" d="M67.244,86.794c0.234,0.595,0.247,1.301-0.084,2.075c-0.237,1.508-0.902,2.871-2.046,4.163
		c-0.313,0.354-0.657,0.582-1.009,0.722c-0.457,0.631-0.921,1.258-1.391,1.883c-0.311,0.413-0.689,0.749-1.107,0.99
		c-0.531,0.706-1.076,1.403-1.66,2.072c-0.382,0.438-0.805,0.687-1.235,0.81c-1.039,1.19-2.115,2.345-3.196,3.458
		c-0.361,0.648-0.69,1.185-0.951,1.517c-1.375,1.75-5,7.875-5,7.875s2.5-1.75,3.25-2.25s3.375-2.5,3.375-2.5s3.25-2.125,3.625-2.5
		s1.875-2.5,2.375-3.125s3.625-4.625,4.25-5.75s1.75-3.75,2.375-6.25c0.616-2.465,1.229-5.046,1.247-6.436
		C69.153,84.666,68.204,85.736,67.244,86.794z"/>
	<path fill="#19CF53" d="M251.189,56.693c-0.125-0.75-3.625-5.375-4.625-6.25s-4.5-4.25-6.375-5.25s-8.375-4.75-8.375-4.75l11,16.25
		c0,0-22.875,18.125-24.125,19.375s-5.75,7.125-5.75,7.125s-0.75,6.25-0.25,8.75s3.25,15.5,3.25,15.5l-11.125,3
		c0,0,0.125-7.5-0.5-10.625s-0.875-6.125-0.875-6.125l0.125-4.625c0,0,0.5-5.875-1-10.625s-1.875-9.25-6.25-13.25l-12.25-8.5
		c-2.375-0.375-1.75-1.25-1.75-1.25l3.625-2c0,0,1.725-0.431,3.157-0.727c0.043-0.275,0.235-0.525,0.594-0.531
		c0.561-0.01,1.112-0.077,1.663-0.162c-0.954-1.205-3.673-4.732-4.289-6.58c-0.75-2.25-0.625-7,0.125-9.125s2.375-4.875,3.75-5.75
		s5.125-2.25,5.125-2.25s-10.375-3.25-12.75-3.625s-13.125-1-14.5-0.625s-11.375,2.5-12.625,3s-8.25,3.375-8.25,3.375
		s1,8.75,0.875,9.875s-1.75,6.5-2.375,8.625s-3.875,7.625-4.625,8.875s-3.875,4.625-3.875,4.625s-3.125,0.75-5,1.75
		c-1.514,0.808-7.18,4.465-9.768,6.371c-0.096,0.217-0.252,0.428-0.493,0.617c-2.127,1.68-4.287,3.314-6.459,4.932
		c-0.001,0.202-0.086,0.403-0.316,0.535c-3.264,1.87-5.958,4.502-8.938,6.767c-1.66,1.552-3.314,3.108-4.919,4.717
		c-0.972,1.079-1.936,2.166-3.006,3.162c-0.071,0.066-0.145,0.106-0.22,0.137c-1.776,2.686-3.788,5.265-5.787,7.461
		c-0.453,0.639-0.914,1.271-1.389,1.891c-0.103,0.134-0.232,0.202-0.366,0.242c-0.04,0.06-0.081,0.12-0.121,0.18
		c-0.012,0.057-0.031,0.114-0.065,0.173c-0.877,1.498-1.793,2.986-2.438,4.604c-0.242,0.607-1.105,0.478-1.204-0.013
		c-0.222-0.096-0.39-0.291-0.383-0.604c-0.008-0.016-0.021-0.023-0.028-0.04c-0.807-1.883-1.634-3.769-1.951-5.806
		c-0.001-0.008,0.001-0.015,0-0.022c-0.011-0.016-0.024-0.026-0.035-0.043c-0.191-0.307-0.377-0.616-0.565-0.925
		c-0.492-0.626-0.855-1.316-1.185-2.075c-0.195-0.45-0.191-0.883-0.077-1.27c-0.83-0.804-0.762-2.71-0.852-3.772
		c-0.117-1.377-0.098-2.693,0.127-4.059c0.037-0.226,0.127-0.41,0.237-0.574l-14.923,5.79c0,0-4.375,4.625-6.5,6.75
		s-8.5,9.625-9.25,10.75s-4.875,6.5-5.25,7.25s-1.25,3.125-1.25,3.125l5.875-2c0,0,9.125-0.75,9.75-0.375s10,20,10.625,20.5
		s12.75,10.375,14.125,10.875s9.75,1.75,9.75,1.75l3,1.75c0,0-0.125,4.875-0.5,6.375s-3.25,12.125-3.25,12.125
		s-7.75-0.5-9.375,0.125s-4.75,1.875-5.5,2.5s-4,4.375-4,4.375l-1.375,3.75l2.25,0.375l-0.25,0.625h6.25l-0.5,1.375l5.75,0.125
		l14.5-8c0,0,4-3.625,4.625-4.625s11.75-17.5,11.75-17.5l2.875-2.75l28.125-14l9-2l7.5,13.75l3.75,4.25l2.125,4l-5.375,17.375
		c0,0-10.25-0.125-11.25,0.5s-4.5,2.875-5.125,3.5s-2,2.625-2,2.625s4.25,1.625,4.75,1.75s1.25,0.25,1.25,0.25l7.5,0.25l-0.25,0.875
		c0,0,9.5-0.625,10.875-0.75s4.375-1.75,4.375-1.75l9.375-10.125c0,0,9.625-14.25,9.625-14.625s2.125-6.875,1.875-7.75
		s-4.25-16.375-5.125-17.25s7.375-16.625,7.375-16.625l4.125,10.125c0,0,7.125,1.5,7.5,1.5s8.75-2.375,8.75-2.375l11.75-8.875
		l1.125-3.375c0,0,0.375-4.375-1.25-7.875s-7.5-15.75-7.5-15.75s12.375-13.625,15.375-17s7.25-8,8.75-10.75
		S251.314,57.443,251.189,56.693z"/>
	<path fill="#13923B" d="M203.314,94.151c0,0-0.25,4.667-0.5,7.917s-1.334,6.332-1.917,7.166s-1.417,1.416-2.5,1.5
		s-3-1.832-3.833-3.166s-2.917-8.417-2.917-8.417s-5.416,10.417-6.916,14.5s-4.25,14-4.667,17.75s1.332,9.834,2.916,11.834
		s7.167,6.166,8.917,7.666s2.666,2.083,2.833,3.5s0.001,3.501-1.916,6.167s-13.25,17.25-13.25,17.25l-5,5.833l2.666-0.5
		l32.667-33.25c0,0-6.749-6.501-7.833-7.917s-2.083-3.167-2.083-4.5s0.75-7.333,1.083-8.333s2.083-8.166,2.333-9.583
		s1.251-9.168,1.334-11.084S203.314,94.151,203.314,94.151z"/>
	<path fill="#13923B" d="M165.397,155.734l-24.916,25.417c0,0-9.667,0.583-10.584,0.833s-4,0.25-4,0.25l-2.667-0.083l1-1
		c0,0-2.833,0.166-3.083,0.083s-2.667-1.5-2.667-1.5s2.417-2.166,3.167-2.666s3.001-1.668,3.417-1.834s3.166-0.166,3.166-0.166
		l3.834,0.583l4.333-15.5c0,0,12.334-1.5,12.917-1.583s11.25-1.834,11.25-1.834L165.397,155.734z"/>
	<path fill="#13923B" d="M121.481,140.568c0,0-2.333,6.751-4.5,10.917s-6.917,13.415-13.917,19.749s-10.999,8.75-12.833,9.917
		s-5.834,3-5.834,3h5.5l5.5-0.416l5-1.25l2-1.167l2.917-3.167l3.667-4.666l5.583-9.5l6-9.917l1.416-4.5v-6.834L121.481,140.568z"/>
	<path fill="#13923B" d="M92.48,157.318l-8.416,14.75c0,0-3.417,1.916-4.167,2.666s-2.833,3.5-2.833,3.5l-1.334,1.75l-10.75-0.083
		l0.834-0.583l-4.834-0.167l0.5-0.417l-1.75-0.416v-1l1.584-2.084c0,0,4.5-3.916,5.333-4.083s7.083-0.417,7.083-0.417
		s2.25-5.25,2.417-6.5s0.333-8.082,0.333-8.916s-0.416-3-0.416-3s4.75,1.75,5.75,2.083s4.416,1.251,5.583,1.417s5.5,1.25,5.5,1.25"
		/>
	<path fill="#077606" d="M151.397,35.902c0,0,12.333,15.75,15.583,20s10.917,14.833,10.917,14.833s-4.916-10.417-8.333-15.5
		s-11.334-14.001-12.667-15.167S151.397,35.902,151.397,35.902z"/>
	<path fill="#077606" d="M152.73,32.068c0,0,8.584,2.5,12.417,4.25s7.999,3.416,11.583,6s10.167,8.167,10.167,8.167
		s-5.833-9.833-13.833-13.25s-14.918-4.5-16.084-4.75S152.73,32.068,152.73,32.068z"/>
	<path fill="#0C6729" d="M139.439,73.693c0,0-3.125,1.875-5.125,4s-4.749,6.626-5.416,8.459s-1.001,5.332-0.417,6.416
		s2.333,2.667,4,2.5s5.25-0.5,8-3.25s4.833-5.916,5.25-8.333s0.583-5.751,0.5-7.334s-0.249-3.166-1.416-3.166
		s-5.417,0.417-5.417,0.417"/>
	<path fill="#0C6729" d="M152.732,72.568c0,0-1.418,1.417-1.834,2.5s-0.167,2.334,0.75,3.167s1.084,1.167,3.584,1.25
		s2.166,0.417,4.166,0.75s2.501,0.916,3.834,0.416s2.5-0.584,2.583-2.25s-0.25-3.416-1-4.249c-0.75-0.834-2.833-2.251-4.333-2.418
		c-1.5-0.166-5.751-0.332-7.334,0.584"/>
	<path fill="#0C6729" d="M151.814,82.193c0,0-1.5,1.188-2,2.688s-0.75,4.875-0.75,5.938s0.188,2.063,1.375,2.438
		s2.25,0.875,4.25-0.063s3.313-1.813,3.938-2.625s1.25-3.25-0.25-4.5s-4.188-3.938-6.25-3.813"/>
	<path fill="#0C6729" d="M170.627,107.505c0,0-1.188,1.125-1.438,2s0,2.563,1,3.063s1.938,0.313,2.938-0.313s1.625-1.188,2.563-1.75
		s2.125-1.25,2.125-1.875s-0.563-2.25-1.688-2.563S172.064,106.505,170.627,107.505z"/>
	<path fill="#0C6729" d="M173.564,114.255c0,0,1.438-0.688,2.688-0.813s2.75,0.125,3,0.438s0.188,1.375-0.125,2.5
		s-1.125,3.188-2,3.063s-2.5-1.563-2.75-2.063S172.752,115.505,173.564,114.255z"/>
	<path fill="#0C6729" d="M165.127,114.443c0,0-1.25,1.875-1.313,4.438s0.5,5.125,1.125,6.563s1.688,2.563,2.438,2.938
		s1.313,0.563,2.25,0.125s2-1.938,2.188-3.375s-0.063-5.5-1-7.25s-2.25-3-2.875-3.313S166.752,113.693,165.127,114.443z"/>
	<path fill="#0C6729" d="M104.877,136.568c-0.191,0.048-1.438,1.125-1.688,1.875s0,1.813,0.188,2.25s0.688,0.5,1.375,0.5
		s1-0.875,2.063-1.375s1.938-0.75,2-1.25s0.125-1.875-1.063-2.063S105.877,136.318,104.877,136.568z"/>
	<path fill="#0C6729" d="M109.855,141.735c0,0-2.082,0.126-2.791,0.459s-1.126,0.707-1.084,1.166s1.292,1.709,1.542,1.959
		s0.791,0.582,1.083,0.541s1.375-1.707,1.5-2.166S110.605,142.068,109.855,141.735z"/>
	<path fill="#0C6729" d="M100.522,142.985c0,0-0.958,1.459-0.958,2.542s0.5,2.624,0.75,3.583s0.874,2.083,1.541,2.625
		s1.043,0.875,1.709,0.625s1.583-1.5,1.708-2.75s-0.001-3.791-0.917-4.833s-1.417-2.708-3.75-2"/>
	<path fill="#E2E20E" d="M45.898,120.235c0,0,0.833-1.5,3.25-2.75s5.167-2.334,7.667-2.25s5.25-0.584,8.25,3
		s5.083,7.084,7.583,11.834s4.333,8.166,7.917,11.583s4.251,4.084,7.334,4.917s10.25,0.833,10.25,0.833s0,3.751,0.083,4.667
		s0.25,4.083,0.25,4.083l-0.417,2.083l-1.833-0.333c0,0-10.251-2.166-11.501-2.583s-11.249-4.084-13.916-5.334
		s-9.75-6.166-10.584-6.583c-0.833-0.417-4-3.25-5-4.333s-6.417-8.167-6.417-8.167l-2.5-4.417l-0.667-2.083v-2.75L45.898,120.235z"
		/>
	<path fill="#E2E20E" d="M121.897,140.819c0.25-0.083,9.334-4.834,14.167-8.167s14.832-9.833,16.916-11.083s7.25-3.917,7.25-3.917
		s-0.416,3.833-0.416,4.5s0.832,4.834,0.916,5.084s2.668,9.25,3.834,12.333s6.5,14.5,6.5,14.5s-7,1.75-8,2s-6.668,1.583-8.334,1.833
		s-12.417,1.418-13.75,1.584s-10.082,0.417-11.249,0.5s-12.667,0.5-12.667,0.5s0.917-2,1.417-2.75s2.583-5.166,2.916-6
		s0.75-2.834,0.75-2.834l-0.167-6.583v-1.833"/>
	<path fill="#E2E20E" d="M203.189,121.443c0,0,1.75,2.875,4.375,3.5s6.625,1.125,9.375,0.125s5.75-2.5,8-4.5s5.5-6.25,6.375-7.625
		s2.25-5,2.25-5s1.5,3,1.375,4s-0.625,3.375-0.625,3.375s-2.25,2.625-3.25,4.125s-8.5,8.625-9.375,9s-4,3.25-5.375,4.125
		s-8.25,5.625-8.875,6s-4.875,3.5-4.875,3.5s-1.584-1.332-2.167-3.499s-0.333-3.417-0.25-4.5s2.083-9.083,2.083-9.083
		L203.189,121.443z"/>
	<path fill="#830000" d="M216.73,23.402c0,0-0.249,4-0.166,4.833s0.334,5.167,0.5,5.75c0.166,0.583,1.082,2.25,1.416,2.916
		c0.334,0.667,2.751,4.334,4.584,5.25c1.833,0.917,6.083,2.584,6.083,2.584l4.667,0.75l1.666,0.25l-3.583-5.75
		c0,0,6.333,3.416,6.75,3.75c0.417,0.333,0.917,0.416,0.917,0.416s0.249-1.082,0.416-2c0.167-0.916,0.833-4.083,0.75-4.583
		s0-3.25-1.75-5s-4.25-3-4.25-3s-2.082-0.083-2.666,0.333s-2.584,1.5-3.167,1.917s-2,1-2.75,1s-2.167-0.5-2.75-0.75
		s-3.333-2.833-3.75-3.583S216.73,23.402,216.73,23.402z"/>
	<path fill="none" stroke="#000000" stroke-width="0.75" d="M98.502,158.005c-14.333-0.855-27.982-6.607-39.105-15.597
		c-5.291-4.276-11.244-9.475-12.997-16.332c-1.933-7.56,3.331-14.415,7.228-20.47c0.091-0.143,0.182-0.284,0.272-0.426
		c0,0,13.25-12.78,13.583-16.28"/>
	<path fill="none" stroke="#000000" stroke-width="0.75" d="M100.002,136.255c-0.063,0.188-1.813,4-1.688,9.125
		s0.313,11.25-0.375,14.563s-3,10.938-3,10.938s-8.25,0.313-10.375,0.938s-5.188,2.938-7,5.438s-2.875,4.625-2.875,4.625l2.75,0.313
		l-0.563,0.938l6-0.063l-0.188,0.938c0,0,8.438,0.313,13.063-0.313s6.75-1.5,10.25-6.188s12.938-20.063,14.188-22.938
		s1.75-4.938,1.75-4.938s0.125-4.813,0-6.75s-0.25-2.688-0.25-2.688"/>
	<path fill="none" stroke="#000000" stroke-width="0.75" d="M117.252,160.255c0,0,21.188-0.188,26.313-0.938
		s9.938-1.188,13.688-1.875s13.188-3.375,13.188-3.375"/>
	<path fill="none" stroke="#000000" stroke-width="0.75" d="M168.814,100.193c0,0-3.625,4.375-5.875,8.875
		s-3.313,9.125-3.063,13.438s2.688,12.25,4.625,16.938s8,17.875,8,17.875s-5.375,17.375-5.438,17.563s-9.063-0.125-11.563,0.813
		s-6.813,5.813-6.813,5.813s1.688,0.75,3.063,1.063s3.25,0.188,3.25,0.188l-0.188,0.875l7.75-0.188l-0.625,0.75
		c0,0,8.563-0.125,11.563-0.5s3.813-0.5,3.813-0.5l32.625-33.25c0,0-9.563-8.438-9.875-12.188s1.063-8.813,1.875-11.625
		s1.188-4.938,1.75-8.25s1.125-8,1.125-11.688s-0.938-10.875-2.938-17.875s-3.063-10-3.063-10"/>
	<path fill="none" stroke="#000000" stroke-width="0.75" d="M203.502,95.38c0,0,0.375-9.688-0.188-13.25s-1.75-10.125-4.375-13.938
		s-9.25-9.375-11.375-10.563s-4.875-1.75-4.875-1.75"/>
	<path fill="none" stroke="#000000" stroke-width="0.75" d="M129.814,69.318c0,0,6.625-4.625,10.75-9.75s8.75-15.5,8.375-21.375
		s-0.75-8-0.75-8s12.625-6,19.75-6.375s14.75,0,19.125,1s8.75,3.125,8.75,3.125s-7.375,2.875-8.125,6.125s-2,8.75,0,12.375
		s4,5.375,4,5.375s-8.25,1-10.5,4.875s-2.75,10.375-1.375,13.25s1.875,3.625,1.875,3.625s-12.875-3.875-20.5-3.625
		s-14.625-0.25-21.5,2.625s-8.625,3.625-8.625,3.625"/>
	<path fill="none" stroke="#000000" stroke-width="0.75" d="M139.689,60.443c-10.72,2.546-18.802,10.982-26.809,17.988
		c-9.281,8.121-17.26,17.41-24.316,27.512c0,0-3.279-11.705-5.827-19.165s-9.173-20.46-10.548-21.71s-19.75-13.875-19.75-13.875"/>
	<path fill="none" stroke="#000000" stroke-width="0.75" d="M115.898,76.568"/>
	<path d="M129.647,69.027l-6.583,4.438c0,0,6.563-3.542,7.063-3.938"/>
	<path d="M130.98,75.839c0,0-5.521,3.041-6.708,4.083s-1.188,1.042-1.188,1.042s7.271-4.021,8.104-4.438"/>
	<path d="M121.335,140.318c0,0-0.104-0.896-0.604-1.729s-0.5-0.833-0.5-0.833s1.541,1.416,1.791,2.458"/>
	<path d="M168.418,100.111c0,0,4.896-5.479,6.125-6.188s1.229-0.709,1.229-0.709s-6.396,6.916-6.896,7.5"/>
	<path d="M198.533,78.599c0,0-0.781-2.094-1.625-3.844s-0.844-1.75-0.844-1.75s2.656,3.719,3.094,5.281"/>
	<path fill="none" stroke="#000000" stroke-width="0.75" d="M204.981,110.069l10.917-2.417c0,0-3.167-14.333-3.25-18.083
		s0.333-6.5,0.333-6.5s2.75-4.583,9.417-10.166c6.667-5.584,20.667-16.251,20.667-16.251l-11.583-17.166c0,0,12.917,7,16.583,11.833
		s4,4.333,2.25,8s-4.501,6.75-11.584,14.75s-14,15.25-14,15.25s4.667,8.249,7.167,13.833s3.083,8.501,2.75,10.584
		s0.001,2.249-5.416,7.749s-9.085,8.168-13.501,11.584s-13.416,8.75-13.416,8.75"/>
	<path fill="none" stroke="#000000" stroke-width="0.75" d="M235.315,45.568c0,0-5.5-0.25-8.917-1.666
		c-3.417-1.417-5.833-3.584-8.25-7.417s-1.416-13.417-1.416-13.417s2.582,5.417,4.249,7.083s4.334,3.583,7.084,2.167
		s4.332-3.5,6.666-2.667s3,1.083,4.5,3.417s1.5,3.083,1.417,5.25s-1.25,5.584-1.25,5.584"/>
	<path d="M99.648,136.194c0,0,0.708-1.396,1.833-2.542s3.126-1.896,3.396-1.938s-3.979,3.604-4.563,4.75"/>
	<path fill="none" stroke="#000000" stroke-width="0.75" d="M92.689,157.13c-0.125,0.188-8.063,14.25-8.5,14.625
		s-0.438,0.375-0.438,0.375"/>
	<path fill="none" stroke="#000000" stroke-width="0.75" d="M76.314,152.505c0,0,0.438,6.188,0.063,9.438s-1.25,5.875-1.875,7.125
		s-0.938,1.813-0.938,1.813s-5.688,0-6.688,0.25s-2.875,1.438-4.25,2.688s-3,3.938-3,3.938s0.25,0.625,0.688,0.75
		s1.063,0.125,1.063,0.125l-0.438,0.563l4.625,0.063l-0.5,0.625h10.938"/>
	<path d="M82.721,182.974c0,0,3.875-4.938,5.781-6.094s1.906-1.156,1.906-1.156s-7.406,7.969-7.531,8.188"/>
	<path d="M77.283,181.974c0,0,1.375-2.313,3.938-4.438s2.719-2.156,2.719-2.156s-6.531,7.406-6.656,7.594"/>
	<path d="M65.408,179.162c0,0,2.875-3.156,4.281-3.969s1.406-0.813,1.406-0.813l-5.5,5.594"/>
	<path d="M61.127,178.755c0,0,2.563-3.219,3.875-3.969s1.438-0.844,1.438-0.844l-4.844,5.156"/>
	<path fill="none" stroke="#000000" stroke-width="0.75" d="M136.397,160.069l-4.416,15.666c0,0-5.25-1.416-8.25,0.167
		s-5.334,3.75-5.334,3.75s1.916,1.417,3.25,1.417s2.167,0.083,2.167,0.083l-0.5,0.75l5.417,0.083c0,0,10.916-0.499,11.333-0.666
		s25.75-25.833,25.75-25.833"/>
	<path d="M155.002,182.755c0,0,1.25-2.75,2.625-3.875s3.938-1.875,3.938-1.875s-3.75,2.438-4.563,3.375s-1.688,3.188-1.688,3.188"/>
	<path d="M162.189,183.63c0,0,1-2.188,2.125-3.188s4.063-2.563,4.063-2.563s-3.188,2.313-4,3.375s-1.813,2.75-1.813,2.75"/>
	<path d="M128.731,181.985c0,0,0.271-1.604,1.771-2.729s2.75-1.438,2.75-1.438s-2.313,1.813-2.875,2.563s-0.688,1.938-0.688,1.938"
		/>
	<path d="M123.814,181.152c0,0,0.875-1.584,2.125-2.709s2.188-1.25,2.188-1.25l-4.313,4.625"/>
	<path fill="none" stroke="#000000" stroke-width="0.75" d="M121.564,71.234c0,0,0.5-11,3.125-16.125s8.5-11.375,10.125-12.625
		s3.125-2.25,3.125-2.25s-2.5-6.75-5-9.25s-15.375-11.125-21.125-13.375s-9.75-2.875-9.75-2.875s2.375,7,2.875,9.125
		s0.5,3.25-0.75,4.25s-5.375,2.375-5.375,2.375s2.25,3.75,4,8.5s1.625,6.25,1,8.5s-2.875,3.5-5,4.625s-3,1.375-3,1.375
		s3.75,1.75,8.75,5s3.5,1.625,6.625,6.125s4.875,10.75,4.875,10.75"/>
	<path fill="#077606" d="M103.564,32.609c0,0,8.5,3.375,17.5,4.625s15.125,2,15.125,2S108.064,32.734,103.564,32.609z"/>
	<path fill="#077606" d="M102.939,52.859c0,0,24.5-8.375,26.25-9.375s1.75-1,1.75-1s-10.375,8-27.5,10.625"/>
	<path fill="#020202" d="M181.773,56.193c0,0,1.126,0.125,1.417,0.166s0.25-0.584,0.25-0.584l-1.334-0.332"/>
	<path fill="#19CF53" d="M131.551,76.862c-0.611-1.457-1.164-2.936-1.663-4.435c-0.089-0.163-0.173-0.327-0.269-0.486
		c-0.13-0.029-0.255-0.106-0.336-0.251c-0.178-0.255-0.299-0.531-0.366-0.833c-0.008-0.022-0.005-0.044-0.01-0.068
		c-1.304-2.574-3.229-4.79-4.533-7.37c-0.055-0.108-0.057-0.207-0.037-0.297c-0.36-0.296-0.726-0.585-1.086-0.862
		c-0.511-0.394,0.062-1.212,0.574-0.819c1.512,1.161,3.049,2.458,4.198,4.014c0.204-0.12,0.492-0.125,0.675,0.074
		c0.495,0.541,1.016,1.113,1.526,1.716c-2.654-4.447-6.939-12.03-7.189-12.13c-0.347-0.14-7.515-4.765-7.515-4.765l-5.43-3.257
		l4.785-3.197c0,0,2.322-2.436,1.674-2.83c-0.649-0.397-16.961-7.747-16.961-7.747l-14.09,1.891c0,0-4.973,3.662-4.996,4.056
		c-0.022,0.395-8.358,3.381-8.358,3.381l-0.394-0.695c0,0-3.81,2.108-5.737,2.547c-1.927,0.439-7.242,0.597-10.235-0.335
		c-2.994-0.931-5.57-2.233-6.357-2.953c-0.789-0.72-4.36-3.904-4.94-4.81c-0.579-0.906-2.48-2.88-3.13-4.622
		c-0.648-1.741-2.742-5.14-2.742-5.14s-9.535,3.852-10.929,4.639c-1.394,0.789-6.759,3.754-7.849,4.798
		c-1.092,1.042-3.556,4.499-4.301,5.682c-0.745,1.184-3.138,5.475-3.138,5.475s3.736,0.422,5.525,0.33
		c0.924-0.047,2.536,0.148,3.884,0.348c0.087-0.097,0.218-0.163,0.4-0.154c0.124,0.006,0.263-0.012,0.403-0.028
		c0.023-0.008,0.04-0.023,0.067-0.029c0.186-0.042,0.355,0.016,0.534,0.066c0.133,0.06,0.215,0.152,0.263,0.253
		c0.1,0.021,0.2,0.042,0.3,0.062c0.033,0.007,0.05,0.03,0.08,0.042c0.011,0.001,0.022-0.001,0.033,0.002
		c0.27-0.041,0.554,0.134,0.564,0.459c0.022,0.012,0.047,0.019,0.068,0.031c0.641,0.412,0.442,1.078-0.048,1.514
		c-0.049,0.043-0.099,0.067-0.149,0.088c-0.059,0.576-0.127,1.15-0.226,1.72c0.202,0.063,0.375,0.229,0.366,0.499
		c-0.04,1.243,0.173,2.468,0.347,3.693c0.024,0.159-0.036,0.292-0.13,0.393c0.235,0.704,0.448,1.415,0.669,2.127
		c0.012,0.012,0.027,0.017,0.039,0.028c1.664,1.569,2.347,3.57,2.981,5.711c0,0,0,0,0,0c0.004,0.018,0.01,0.035,0.015,0.052
		c0.684,0.81,1.399,1.566,2.089,2.294c0.728-0.174,1.98-0.482,3.263-0.844c1.972-0.555,6.267-0.179,8.217-0.339
		c1.95-0.16,4.039,0.004,6.127,0.168c2.088,0.165,7.193,2.212,7.193,2.212l5.736,3.862c0.121-0.028,0.253-0.021,0.385,0.051
		c0.621,0.346,1.141,0.8,1.604,1.309c0.113,0.009,0.225,0.067,0.315,0.196c0.233,0.336,0.456,0.666,0.658,1.002l0.586,0.891
		c0.112,0.17,0.102,0.35,0.034,0.502c0.024,0.091,0.063,0.175,0.082,0.27c0.023,0.109,0.008,0.199-0.028,0.278l3.592,3.977
		l-1.281,6.092c0.042,0.121,0.061,0.259,0.046,0.411c-0.026,0.31-0.033,0.615-0.053,0.922c0.009,0.012,0.015,0.023,0.021,0.035
		c0.255,0.166,0.425,0.432,0.397,0.771c0.258,0.591,0.436,1.216,0.473,1.805c0.002,0.021,0.003,0.04,0.005,0.06
		c0.015,0.294-0.01,0.575-0.075,0.84l29.749-5.719c1.393-1.369,2.903-2.582,4.572-3.594c0.443-0.418,0.876-0.844,1.29-1.295
		c0.146-0.159,0.309-0.273,0.476-0.35c0.196-0.249,0.386-0.502,0.573-0.758c0.046-0.36,0.236-0.703,0.61-0.938
		c0.276-0.231,0.59-0.335,0.9-0.329c0.2-0.214,0.401-0.43,0.603-0.643c0.111-0.119,0.232-0.188,0.357-0.229
		c0.477-0.418,0.977-0.786,1.593-1.075c-0.024-0.114-0.017-0.236,0.068-0.363c0.749-1.038,1.194-2.257,1.778-3.392
		c0.142-0.28,0.31-0.523,0.498-0.769c-0.16-0.37,0.17-0.905,0.606-0.688c0.226,0.111,0.429,0.277,0.515,0.513
		c0.044,0.052,0.086,0.106,0.131,0.158c0.069,0.011,0.138,0.033,0.204,0.08c0.628,0.433,1.197,0.897,1.767,1.396
		c0.132-0.038,0.276-0.035,0.405,0.05c0.904,0.586,1.813,1.141,2.754,1.654c0.474,0.246,0.947,0.492,1.431,0.729
		c0.116,0.056,0.188,0.144,0.234,0.241c1.5,0.417,2.923,1.017,4.35,1.653c0.415,0.112,0.839,0.2,1.258,0.302
		c1.242-0.068,2.438,0.1,3.673,0.469c0.216,0.063,0.314,0.221,0.328,0.393c0.534,0.003,1.071,0.009,1.608,0.012L131.551,76.862z"/>
	<path fill="#13923B" d="M106.733,77.529l3.602-3.942c0,0-16.731,6.96-23.835,9.227c-7.105,2.268-9.947,0.119-12.754-1.278
		c-2.808-1.395-9.556-7.4-9.556-7.4l2.244,6.152l1.142,8.068l-0.205,1.179c0.057-0.006,0.11-0.013,0.166-0.015
		c0.57-0.016,0.553,0.764,0.101,0.951c0,0.173-0.014,0.352-0.052,0.532c0.029,0.111,0.011,0.235-0.069,0.357
		c-0.009,0.064-0.015,0.129-0.024,0.195c-0.002,0.018-0.016,0.03-0.02,0.046l22.933-1.229l8.476-6.028L106.733,77.529z"/>
	<path fill="#5C3396" d="M133.365,20.197c0,0-3.982,5.9-4.617,6.813c-0.635,0.912-1.069,1.097-1.797,1.793
		c-0.729,0.695-2.942,1.962-2.942,1.962l-2.695,0.895l-1.824-0.373c0,0-2.303-2.091-2.644-2.587
		c-0.341-0.495-1.683-2.291-1.683-2.291l-1.58-0.993c0,0-2.521-0.652-3.619-0.374c-1.099,0.277-2.602,0.213-3.313,0.646
		s-5.62,3.044-5.62,3.044l7.891,4.062c0,0-1.442,2.476-1.645,2.752c-0.201,0.278,4.964,2.62,5.336,2.589
		c0.373-0.03,6.129,0.393,6.498,0.363c0.374-0.031,4.41-1.374,4.41-1.374l6.815-3.103l1.223-1.485L133,29.613l0.745-0.958
		c0,0,0.348-6.686,0.237-7.088c-0.107-0.402-0.368-1.764-0.368-1.764"/>
	<path fill="#5C3396" d="M107.402,47.54c0,0,2.027,0.993,2.538,1.286c0.511,0.295,3.896,2.821,4.097,2.992
		c0.202,0.17,3.932,0.049,3.932,0.049l10.309-2.868c0,0,3.635,1.458,3.837,1.629c0.2,0.169,6.82,4.26,6.82,4.26l6.932-0.273
		l4.058-1.604l2.895-2.52l1.672-2.83c0,0,2.146-7.13,2.348-8.756c0.201-1.625,0.466-2.058,0.466-2.058s-3.562,3.958-4.693,5.211
		c-1.13,1.252-4.044,3.585-4.044,3.585l-6.051,2.332l-1.068,0.201l-2.675-1.163l-1.671-2.556l-1.527-2.677
		c0,0-1.316-1.876-1.547-1.968c-0.231-0.091-2.46-1.255-2.46-1.255s-4.579-0.221-4.905-0.083c-0.324,0.14-5.989,1.278-5.989,1.278
		l-4.226,2.255l-5.035,2.921L107.402,47.54z"/>
	<path fill="#42256A" d="M113.792,51.539c0,0,4.946-3.27,6.224-4.104c1.278-0.835,4.806-1.574,5.875-1.549
		c1.065,0.023,3.759,1.372,4.965,2.394c1.206,1.023,2.666,3.765,4.288,4.415c1.627,0.652,3.551,1.558,5.548,1.283
		c1.997-0.277,3.411-0.114,5.852-1.156c2.438-1.042,6.665-3.521,6.665-3.521l0.764-0.906c0,0-1.23,3.412-1.929,4.479
		c-0.697,1.068-2.184,2.76-3.045,3.224c-0.858,0.463-2.392,0.927-3.482,1.296c-1.092,0.371-3.807,0.09-4.479,0.089
		c-0.673,0-4.085-0.561-4.479-0.584c-0.396-0.024-3.665-0.932-4.014-1.072c-0.348-0.14-2.527-1.417-2.527-1.417l-8.179,5.607
		C121.837,60.017,114.788,52.073,113.792,51.539z"/>
	<path fill="#42256A" d="M133.684,27.463c-0.256,0.301-2.233,4.222-3.93,6.1c-1.697,1.877-4.527,2.224-5.921,3.012
		c-1.395,0.788-3.343,0.949-3.343,0.949l3.386,1.628l2.534-0.601l2.157-0.346c0,0,1.14-1.16,1.277-1.509
		c0.139-0.348,2.86-4.778,2.86-4.778l1.211-5.036"/>
	<path fill="#42256A" d="M111,33.314c0,0,1.761,2.322,2.853,2.625c1.09,0.303,0.438,0.581,0.438,0.581s-4.57-1.026-5.502-0.725
		c-0.925,0.3-0.509-0.07-0.509-0.07l2.603-3.132"/>
	<path fill="#830000" d="M123.886,62.413c0,0,5.365,4.306,5.847,4.677c0.478,0.371,5.563,4.926,5.563,4.926s0.499-5.277-0.037-7.736
		c-0.541-2.464-3.242-8.934-3.242-8.934l-2.028-0.993l-8.127,5.27l1.684,2.292"/>
	<path fill="#830000" d="M103.284,36.548c0,0,4.655,1.598,5.892,2.094c1.237,0.498,6.637,3.38,6.637,3.38s2.353-0.942,3.296-1.281
		c0.945-0.34,5.172-1.698,5.172-1.698s-11.759-3.368-13.291-3.355c-1.531,0.014-8.418,0.843-8.418,0.843"/>
	<path fill="#830000" d="M87.811,34.382c0,0,6.146-3.908,8.561-4.556c2.415-0.647,5.029-0.677,5.029-0.677l12.938,0.43l-5.872,6.355
		c0,0-5.431,0.335-5.771,0.288c-0.342-0.047-3.824-0.097-3.824-0.097s-3.911-2.106-4.887-2.138
		C93.011,33.954,87.811,34.382,87.811,34.382z"/>
	
		<ellipse transform="matrix(-0.9281 -0.3723 0.3723 -0.9281 161.2271 120.5598)" fill="#FFFFFF" cx="92.251" cy="44.716" rx="11.219" ry="10.562"/>
	
		<ellipse transform="matrix(-0.9281 -0.3722 0.3722 -0.9281 136.7499 97.931)" fill="#FFFFFF" cx="77.828" cy="35.766" rx="9.25" ry="8.085"/>
	
		<ellipse transform="matrix(-0.9281 -0.3723 0.3723 -0.9281 127.1469 92.4382)" fill="#0092FF" cx="72.499" cy="33.943" rx="3.25" ry="3.042"/>
	<path fill="#0092FF" d="M82.04,40.71c-0.724,1.804,0.358,3.938,2.42,4.764c2.062,0.826,4.32,0.033,5.045-1.771
		c0.722-1.805-0.36-3.938-2.423-4.764C85.021,38.111,82.762,38.905,82.04,40.71z"/>
	
		<ellipse transform="matrix(-0.9283 -0.3718 0.3718 -0.9283 149.1443 112.9704)" fill="#00426B" cx="85.464" cy="42.105" rx="1.407" ry="1.271"/>
	
		<ellipse transform="matrix(-0.9281 -0.3724 0.3724 -0.9281 126.8253 91.9497)" fill="#00426B" cx="72.293" cy="33.726" rx="1.271" ry="1.168"/>
	
		<ellipse transform="matrix(-0.9279 -0.3729 0.3729 -0.9279 130.918 91.3238)" fill="#FFFFFF" cx="74.291" cy="33.001" rx="0.813" ry="0.75"/>
	
		<ellipse transform="matrix(-0.928 -0.3725 0.3725 -0.928 122.8092 92.7066)" fill="#FFFFFF" cx="70.361" cy="34.488" rx="0.657" ry="0.531"/>
	<circle fill="#FFFFFF" cx="87.874" cy="40.94" r="0.876"/>
	<circle fill="#FFFFFF" cx="83.548" cy="43.077" r="0.656"/>
	<path fill="none" stroke="#000000" stroke-width="0.75" d="M70.912,60.306"/>
	<path fill="none" stroke="#000000" stroke-width="0.75" d="M72.111,42.08c-13.415,7.574-27.443-3.45-32.389-15.955
		c-5.697,2.333-11.699,4.396-16.733,8.034c-4.572,3.303-7.65,8.083-10.134,13.063c5.011,0.03,10.022,0.204,15.018,0.604"/>
	<path fill="none" stroke="#000000" stroke-width="0.75" d="M24.741,48.077c0,0-0.561,4.419-0.018,7.265
		c0.543,2.842,3.197,7.476,4.125,8.858c0.926,1.382,1.819,2.682,1.819,2.682s3.205-1.273,7.393-1.478
		c4.191-0.205,11.989,0.162,15.598,1.745c3.607,1.581,8.736,3.907,10.856,7.856c2.12,3.946,3.262,12.689,2.945,14.312"/>
	<path fill="none" stroke="#000000" stroke-width="0.75" d="M85.451,93.998c4.676-3.229,9.441-6.442,13.858-10.024
		c4.789-3.885,10.055-7.754,12.442-13.59"/>
	<path fill="none" stroke="#000000" stroke-width="0.75" d="M104.382,58.538c0,0,3.822,9.614,9.599,13.682
		c5.776,4.066,9.907,5.187,12.297,5.605c2.392,0.42,5.826,0.586,5.826,0.586s-2.245-7.5-5.814-12.703
		c-3.569-5.202-12.59-14.612-15.421-16.286c-2.83-1.674-2.83-1.674-2.83-1.674"/>
	<path d="M108.259,47.478c0,0-0.986-0.284-1.492-0.195c-0.507,0.088-1.456,0.831-1.456,0.831s1.871-0.35,2.596-0.037"/>
	<path fill="none" stroke="#000000" stroke-width="0.75" d="M107.373,47.617c0,0,9.91-6.575,13.943-7.786
		c4.033-1.21,8.961-1.971,11.143-0.917c2.181,1.053,3.55,3.128,4.514,4.863c0.967,1.734,0.872,2.639,2.366,3.284
		c1.493,0.643,1.815,1.626,4.593,0.629c2.78-0.995,4.761-1.906,6.751-3.622c1.989-1.715,6.613-7.089,6.613-7.089
		s-1.281,7.568-3.64,12.323c-2.355,4.756-4.666,7.376-7.797,7.917c-3.136,0.537-9.409-0.271-11.645-1.08
		c-2.236-0.808-4.384-1.713-4.384-1.713s-8.031,5.353-8.153,5.438"/>
	<path fill="none" stroke="#000000" stroke-width="0.75" d="M131.869,55.378c0,0,3.044,5.395,3.498,9.753
		c0.451,4.356,0.032,6.748,0.032,6.748s-11.561-9.801-12.549-10.465"/>
	<path d="M104.07,58.817c0,0-1.264-3.066-1.552-4.023c-0.288-0.958-0.288-0.958-0.288-0.958s2.259,4.104,2.547,4.725"/>
	<path fill="none" stroke="#000000" stroke-width="0.75" d="M87.658,34.254c0,0,7.037-4.45,11.564-4.991
		c4.527-0.542,15.029,0.304,15.029,0.304s-5.898,6.321-6.096,6.309"/>
	<path fill="none" stroke="#000000" d="M124.375,39.083c0,0-5.801-1.99-10.952-2.913c-5.152-0.921-11.571,0.14-11.571,0.14"/>
	<path fill="none" stroke="#000000" stroke-width="0.75" d="M100.534,29.184c0,0,5.203-3.233,6.793-3.673s6.304-1.108,7.881,1.006
		c1.575,2.114,3.142,4.425,4.578,4.867c1.44,0.441,5.178-0.483,7.548-3.035c2.368-2.551,6.368-8.488,6.368-8.488
		s0.84,7.138-0.66,10.711c-1.501,3.573-3.499,7.215-4.139,7.633"/>
	
		<ellipse transform="matrix(-0.9281 -0.3723 0.3723 -0.9281 161.3048 120.3225)" fill="none" stroke="#000000" stroke-width="0.75" cx="92.269" cy="44.589" rx="11.219" ry="10.438"/>
	<path fill="none" stroke="#000000" stroke-width="0.75" d="M81.416,43.083c-0.004-0.471,0.083-0.942,0.228-1.407
		c0.069-0.643,0.271-1.271,0.57-1.844c0.119-0.374,0.285-0.733,0.531-0.996c0.22-0.413,0.507-0.787,0.868-1.096
		c0.193-0.242,0.423-0.468,0.674-0.673c0.43-0.454,0.922-0.832,1.451-1.139c0.308-0.282,0.634-0.529,1-0.727
		c-0.542-2.885-2.735-5.579-5.991-6.883c-4.758-1.909-9.948-0.132-11.592,3.969c-1.646,4.1,0.879,8.972,5.636,10.88
		c2.229,0.894,4.546,0.967,6.556,0.382c0.014-0.077,0.028-0.154,0.044-0.23C81.398,43.241,81.402,43.163,81.416,43.083z"/>
	<polyline points="87.532,33.901 86.73,34.555 86.729,34.893 87.752,34.527 88.367,33.833 	"/>
	<path fill="none" stroke="#000000" d="M98.655,36.219c0,0,2.753-0.602,9.129,1.865c6.372,2.467,8.677,4.109,8.677,4.109"/>
	<path fill="#FFFFFF" d="M84.564,37.49c-0.097,0.08-2.032,2.119-2.323,3.009c-0.288,0.89-0.458,2.057-0.296,2.842
		c0.164,0.785-0.442,1.881,2.549,2.487c2.993,0.606,3.959,0.075,3.959,0.075l3.573-3.72c0,0-0.792-2.915-1.128-3.124
		s-2.12-1.056-2.354-1.079c-0.235-0.022-3.825-0.564-3.825-0.564"/>
	<path fill="#FFFFFF" d="M74.38,30.295c-0.146-0.043-2.904,0.023-3.312,0.251c-0.404,0.229-2.263,2.364-1.876,3.938
		c0.385,1.576,2.652,3.592,2.759,3.72c0.105,0.129,2.704,0.194,2.704,0.194s0.896-0.419,0.939-0.563
		c0.044-0.144,1.993-2.625,2.015-2.859c0.021-0.235-0.739-2.526-0.934-2.691C76.484,32.12,74.38,30.295,74.38,30.295z"/>
	<path fill="#13923B" d="M88.539,89.291l-16.166,0.088c0,0,3.445,4.938,3.78,5.146c0.334,0.207,5.006,1.533,5.006,1.533l1.01-0.349
		l2.95-2.122L88.539,89.291z"/>
	<path fill="#13923B" d="M65.341,93.584c0.289-0.144,0.61-0.25,0.974-0.297c2.778-0.359,5.7-0.371,8.439,0.194
		c0.311,0.053,0.619,0.116,0.927,0.189c1.896,0.342,3.751,1.133,5.37,2.329c0.317,0.234,0.548,0.509,0.734,0.797l0.83-1.135
		l-11.199-7.438l-4.198,2.181l-0.299,0.88c0,0,0.597,1.633-0.925,1.758c-0.228,0.019-0.48,0.023-0.745,0.021
		c0.009,0.062,0.022,0.122,0.03,0.183C65.303,93.358,65.32,93.472,65.341,93.584z"/>
	<path fill="#13923B" d="M89.419,88.398c0,0-9.36,5.813-9.2,6.004c0.157,0.194,1.521,1.445,1.521,1.445s7.062-4.016,8.852-6.037
		c1.786-2.022,0.517-2.38,0.517-2.38"/>
	<path fill="none" stroke="#000000" d="M81.644,40.235l0.792,0.104c0,0,2.995,0.872,4.428,1.687
		c1.433,0.813,4.593,3.714,5.566,5.018s2.876,4.383,2.876,4.383l1.302,2.222l0.1,0.838"/>
	<path fill="none" stroke="#000000" d="M71.91,29.146c0.177,0.017,2.687,1.346,4.244,3.031c1.559,1.685,3.795,4.971,4.186,5.569
		c0.387,0.599,1.528,2.63,1.528,2.63"/>
	<ellipse fill="#FFFFFF" cx="90.544" cy="46.046" rx="7.938" ry="5.646"/>
	<ellipse fill="#FFFFFF" cx="86.232" cy="41.234" rx="3.958" ry="3.667"/>
	<ellipse fill="#FFFFFF" cx="95.544" cy="49.838" rx="3.729" ry="4.438"/>
	<path fill="#FFFFFF" d="M73.482,28.817h-0.75c0,0-1.166,0.75-1.375,1.042s0.958,1.292,0.958,1.292s2.959,2.459,3.167,2.917
		s3.041,5.875,3.166,5.875s0.958,0.5,1,0.625s1.459,0.333,1.459,0.333s0.666-2.083,1.166-2.708s-1.666-3.417-1.666-3.417
		s-1.292-3.375-1.667-3.708"/>
	<path fill="#FFFFFF" d="M80.565,41.15l0.542-0.25c0,0,0.916-1.833,1.208-2.458s-0.875-0.5-0.875-0.5l-1.333,0.5"/>
	<path d="M60.564,59.984c0,0,2.375-3.5,4.875-4.625s5.125-1.75,6.5-0.875s2.375,0,3.625,1.75s1.25,0.5,1.625,2.5
		s1.25,2.5,0.625,4.875s-2,5.875-2,5.875s-3.5-4.5-4.75-5.375s-5.25-3.5-6.625-3.625s-3.375-0.375-3.375-0.375"/>
	<polygon points="82.314,43.984 99.689,41.109 99.689,42.359 	"/>
	<polyline points="77.189,40.359 76.733,39.615 71.439,30.984 73.064,30.359 	"/>
</g>
</svg>
