<?xml version="1.0" encoding="utf-8"?>
<!-- Generator: Adobe Illustrator 13.0.0, SVG Export Plug-In . SVG Version: 6.00 Build 14948)  -->
<!DOCTYPE svg PUBLIC "-//W3C//DTD SVG 1.1//EN" "http://www.w3.org/Graphics/SVG/1.1/DTD/svg11.dtd">
<svg version="1.1" xmlns="http://www.w3.org/2000/svg" xmlns:xlink="http://www.w3.org/1999/xlink" x="0px" y="0px"
	 width="301.641px" height="196.347px" viewBox="0 0 301.641 196.347" enable-background="new 0 0 301.641 196.347"
	 xml:space="preserve">
<g id="frame_1">
	<g>
		<g>
			<path fill="none" d="M56.877,55.999c-1.625,0.125-0.625,2.125,0.5,2.375c0.125-1.125-0.625-2.125-1.75-2.375
				c-0.5,1.875,1.875,3.5,3.375,3.875c-0.5-1.5-3.125-2.875-4.625-3.375c1,2,4.125,4,6.25,4.625c-0.625-1.375-3-2.875-4.625-3.25
				c0.625,1.5,2.5,2.75,4,3.5c-0.5-1-2-1.875-3.125-2.25c0.5,1.25,2.125,2.25,3.375,2.875c-0.875-1.25-2.25-2.25-3.625-3.125
				c0.875,0.75,1.625,1.5,2.5,2.25c-0.875-1.125-2.125-2.125-3.25-3.125c0.5,0.625,1.25,1.125,1.875,1.625
				c-1.125-0.375-2.125-1-3.125-1.5c0.375,0.625,0.875,1.25,1.625,1.75c-1-1-1.625-2.125-1.5-3.5c0,0.25,0,0.375,0.125,0.625
				c-0.375-0.75-0.25-1.625,0-2.375l-0.125,0.5c0.125-0.875,0.875-1.5,1.75-1.25c-0.375,0.5-0.5,0.625-1,0.875
				c0.25-1.375,2.875-2.625,4.125-1.75c-0.5,0.375-1.375,0.5-2.125,0.625c1.5-1,4.875-1.125,6.625-0.5c-1,0.5-2.625,0-3.75-0.25
				c1.375,0.5,2.875,0.375,4.375,0.875c-2.625-0.5-6-1-8.25,0.375c2.75,0.625,5.625-0.875,8.375-0.25
				c-2.875,0.375-6.125,0.125-8.875,0.875c2,0.5,4.5,0.375,6.5,0c-1.625-0.375-5.125-1.125-6.375-0.125
				c1.5,2.375,4.625,5.125,6.75,6.875c-0.625-1.875-2.375-4.25-3.875-5.5c-0.125,2.25,2,5.25,3.75,6.625
				c-0.375-0.625-3.25-4-3.5-2.25c-0.25,1.25,2.125,3,2.5,1.125"/>
			<path fill="#FFFFFF" d="M56.692,55.309c-2.358,0.517-1.819,3.006,0.133,3.736c0.48,0.18,1.542-0.068,1.533-0.737
				c-0.022-1.517-0.746-2.48-2.178-2.98c-0.553-0.193-1.443,0.074-1.533,0.737c-0.311,2.309,1.813,3.864,3.803,4.48
				c0.45,0.14,1.871-0.164,1.518-0.93c-0.914-1.985-3.068-3.073-5.039-3.787c-0.625-0.227-1.902,0.289-1.435,1.104
				c1.365,2.378,4.027,4.023,6.58,4.863c0.628,0.207,1.9-0.275,1.435-1.104c-0.997-1.773-3.044-2.951-4.955-3.488
				c-0.647-0.182-1.875,0.25-1.435,1.104c0.915,1.778,2.607,2.835,4.33,3.738c0.598,0.313,1.921-0.352,1.435-1.104
				c-0.808-1.25-2.091-1.97-3.455-2.488c-0.653-0.248-1.858,0.289-1.435,1.104c0.784,1.509,2.243,2.352,3.705,3.113
				c0.562,0.292,1.996-0.38,1.435-1.104c-1.046-1.348-2.343-2.336-3.767-3.264c-0.717-0.467-2.364,0.368-1.481,1.144
				c0.842,0.74,1.658,1.51,2.5,2.25c0.568,0.5,2.247-0.258,1.623-1.005c-1.013-1.213-2.208-2.224-3.392-3.264
				c-0.574-0.504-2.275,0.304-1.623,1.005c0.618,0.665,1.299,1.208,2.017,1.764c0.431-0.414,0.862-0.829,1.293-1.243
				c-1.086-0.414-2.095-0.965-3.125-1.5c-0.595-0.309-1.928,0.353-1.435,1.104c0.497,0.756,1.052,1.341,1.767,1.889
				c0.58,0.444,2.292-0.282,1.623-1.005c-0.865-0.933-1.422-1.821-1.402-3.133c-0.654,0.044-1.307,0.088-1.961,0.132
				c0.016,0.327,0.031,0.507,0.14,0.818c0.318,0.91,2.232,0.388,1.932-0.518c-0.289-0.869-0.211-1.353,0.015-2.182
				c-0.654,0.044-1.307,0.088-1.961,0.132c-0.042,0.167-0.083,0.333-0.125,0.5c-0.228,0.91,1.684,0.81,1.908,0.059
				c0.165-0.216,0.33-0.432,0.495-0.648c-0.162-0.344-0.324-0.688-0.486-1.032c-0.207,0.195-0.414,0.389-0.621,0.583
				c0.454,0.24,0.908,0.481,1.362,0.722c0.357-1.063,1.589-1.736,2.646-1.204c0.039-0.422,0.078-0.845,0.117-1.268
				c-0.609,0.332-1.206,0.418-1.875,0.531c0.207,0.429,0.414,0.858,0.62,1.287c1.631-0.929,3.867-0.963,5.638-0.426
				c0.123-0.454,0.245-0.907,0.367-1.361c-1.068,0.361-2.194-0.043-3.237-0.286c-0.789-0.184-1.968,1.08-0.88,1.397
				c1.439,0.42,2.93,0.482,4.375,0.875c0.293-0.466,0.587-0.932,0.88-1.397c-2.996-0.556-6.215-0.991-9.013,0.505
				c-0.662,0.354-0.743,1.182,0.107,1.323c2.827,0.469,5.565-0.716,8.375-0.25c0.135-0.487,0.271-0.974,0.406-1.461
				c-3.052,0.343-6.135,0.197-9.139,0.919c-0.836,0.201-1.116,1.208-0.143,1.417c2.335,0.501,4.672,0.362,7.013-0.036
				c0.881-0.15,1.073-1.206,0.143-1.417c-2.337-0.531-5.179-1.222-7.35,0.136c-0.297,0.186-0.436,0.599-0.235,0.898
				c1.826,2.729,4.382,4.933,6.892,7.014c0.494,0.41,2.008-0.033,1.707-0.831c-0.852-2.257-2.301-4.217-4.1-5.813
				c-0.458-0.406-1.731-0.06-1.721,0.638c0.039,2.832,1.891,5.37,3.99,7.131c0.584,0.49,2.17-0.185,1.623-1.005
				c-0.703-1.053-1.694-2.129-2.794-2.768c-0.681-0.396-2.162-0.422-2.439,0.556c-0.736,2.601,3.309,4.419,4.278,1.645
				c0.376-1.076-1.559-1.097-1.854-0.25c0.1-0.287-1.064-0.574-1.195-0.65c0.38,0.22,0.729,0.581,1.034,0.885
				c0.441,0.441,0.86,0.929,1.206,1.448c0.541-0.335,1.082-0.67,1.623-1.005c-1.752-1.47-3.478-3.738-3.51-6.119
				c-0.574,0.212-1.147,0.425-1.721,0.638c1.584,1.406,2.9,3.201,3.65,5.187c0.569-0.277,1.138-0.554,1.707-0.831
				c-2.418-2.005-4.85-4.107-6.608-6.736c-0.079,0.299-0.157,0.599-0.235,0.898c1.323-0.828,3.993,0.066,5.4,0.386
				c0.047-0.472,0.095-0.944,0.143-1.417c-1.999,0.341-3.999,0.39-5.987-0.036c-0.047,0.472-0.095,0.944-0.143,1.417
				c2.821-0.678,5.744-0.508,8.611-0.831c0.846-0.095,1.62-1.26,0.406-1.461c-2.827-0.469-5.565,0.716-8.375,0.25
				c0.036,0.441,0.072,0.882,0.107,1.323c2.306-1.233,5.035-0.701,7.487-0.245c0.775,0.144,1.985-1.097,0.88-1.397
				c-1.443-0.393-2.941-0.457-4.375-0.875c-0.293,0.466-0.587,0.932-0.88,1.397c1.429,0.333,2.832,0.697,4.263,0.214
				c0.531-0.18,1.295-1.08,0.367-1.361c-2.393-0.727-5.398-0.688-7.612,0.574c-1.023,0.583-0.358,1.452,0.62,1.287
				c0.847-0.144,1.619-0.307,2.375-0.719c0.565-0.308,0.772-0.938,0.117-1.268c-1.938-0.976-4.911,0.229-5.604,2.296
				c-0.272,0.81,0.808,1.038,1.362,0.722c0.573-0.327,0.965-0.65,1.379-1.167c0.358-0.448,0.059-0.978-0.486-1.032
				c-1.422-0.141-2.579,0.423-3.005,1.852c0.636,0.02,1.272,0.039,1.908,0.059c0.042-0.167,0.083-0.333,0.125-0.5
				c0.245-0.978-1.727-0.73-1.961,0.132c-0.251,0.925-0.285,1.666,0.015,2.568c0.644-0.172,1.288-0.345,1.932-0.518
				c-0.037-0.144-0.073-0.288-0.11-0.432c-0.052-1.036-1.947-0.783-1.961,0.132c-0.024,1.574,0.539,2.724,1.598,3.867
				c0.541-0.335,1.082-0.67,1.623-1.005c-0.66-0.505-1.043-0.941-1.483-1.611c-0.478,0.368-0.957,0.736-1.435,1.104
				c1.034,0.537,2.035,1.084,3.125,1.5c0.669,0.255,2.174-0.56,1.293-1.243c-0.61-0.473-1.204-0.917-1.733-1.486
				c-0.541,0.335-1.082,0.67-1.623,1.005c1.085,0.953,2.179,1.874,3.108,2.986c0.541-0.335,1.082-0.67,1.623-1.005
				c-0.842-0.74-1.658-1.51-2.5-2.25c-0.494,0.381-0.988,0.762-1.481,1.144c1.313,0.855,2.514,1.736,3.483,2.986
				c0.478-0.368,0.957-0.736,1.435-1.104c-1.23-0.641-2.39-1.376-3.045-2.637c-0.478,0.368-0.957,0.736-1.435,1.104
				c1.126,0.428,2.127,0.979,2.795,2.012c0.478-0.368,0.957-0.736,1.435-1.104c-1.491-0.781-2.883-1.732-3.67-3.262
				c-0.478,0.368-0.957,0.736-1.435,1.104c1.687,0.474,3.415,1.446,4.295,3.012c0.478-0.368,0.957-0.736,1.435-1.104
				c-2.319-0.763-4.681-2.228-5.92-4.387c-0.478,0.368-0.957,0.736-1.435,1.104c1.517,0.55,3.494,1.403,4.211,2.963
				c0.506-0.31,1.012-0.62,1.518-0.93c-1.468-0.455-3.184-1.508-2.947-3.27c-0.511,0.246-1.022,0.491-1.533,0.737
				c0.911,0.239,1.352,0.829,1.322,1.77c0.511-0.246,1.022-0.491,1.533-0.737c0.097,0.036-1.327-0.913-0.867-1.014
				C58.281,56.422,57.895,55.045,56.692,55.309L56.692,55.309z"/>
		</g>
	</g>
	<g>
		<g>
			<path fill="none" d="M54.127,55.874c-0.5-0.125-0.625,0.5-0.125,1.25c-0.125-0.125-0.125-0.625-0.125-0.75
				c-0.125,2.5,3.5,4.375,4.875,4.75"/>
			<path fill="#FFFFFF" d="M54.47,55.203c-1.576-0.078-2.076,1.065-1.354,2.337c0.366,0.646,2.192,0.041,1.853-0.675
				c-0.091-0.193-0.112-0.361-0.115-0.574c-0.013-0.977-1.949-0.655-1.952,0.166c-0.011,2.704,2.953,4.611,5.287,5.293
				c0.786,0.229,2.285-0.914,1.129-1.252c-1.793-0.523-4.472-2.074-4.463-4.207c-0.651,0.055-1.301,0.111-1.952,0.166
				c0.004,0.315-0.002,0.637,0.135,0.926c0.618-0.225,1.235-0.45,1.853-0.675c-0.187-0.206-0.245-0.433-0.174-0.68
				c-0.167,0.148-0.333,0.295-0.5,0.443c0.046-0.024,0.093-0.048,0.14-0.072c-0.254,0.046-0.507,0.091-0.761,0.137
				c0.063,0.003,0.127,0.006,0.19,0.009c0.46,0.023,1.034-0.134,1.262-0.579C55.257,55.554,54.863,55.222,54.47,55.203L54.47,55.203
				z"/>
		</g>
	</g>
	<g>
		<g>
			<path fill="none" d="M90.627,41.249c-0.25-0.25-0.375-0.375-0.625-0.375c-1,2.625,1,7.75,3.75,8.625c0-1-3.5-6.375-4.875-5.5
				c-2,1.25,3,6.75,4.25,7c-0.75-2.125-3.125-5.625-5.125-6.5c-0.5,2.125,2,4.75,3.875,5.5c0.25-1.75-2.625-4.375-4-4.875
				c-0.25,1.125,2.75,5.875,4,4.75c1.375-1.375-3.375-5-4.25-5.375c-0.625,2.125,1.5,4,3,5c1,0.5,4.375,2.5,4.125,0.5
				c-0.125-1.125-4.5-4.375-5.5-3.125c-1.625,2,4.5,4.875,5.75,5c2.25,0.25,5.375-1,2.75-3.125c-1.375-1.125-5.875-1.75-5.625,0.875
				c0.375,5.75,17.5,0.75,7-4.875c-2.25-1.25-8-1.5-7.25,2.5c0.625,3.375,6.625,4.125,8.625,1.75c1.75-2.25-0.625-8.375-3.625-8.125
				c-4.25,0.375-1.625,7.375,0.625,8.625c4.125,2.25,6.375-2.375,6.5-5.75c0.125-4.5-2.5-3.875-3.375,0c-0.5,1.875,0,8.625,2.5,4.25
				c0.75-1.25,3.25-8.75,2-10.125c0-0.125-0.125-0.25-0.125-0.375c-2.375,1.25-3.875,6.125-3.875,8.625c0,4.875,3.125-0.5,3.75-2.25
				c0.5-1.75,2-7-1.125-6.625c-2.625,0.375-5,5.875-4.5,8.125c1.375,6.25,9.5-11.125,2.25-8.625c-2.25,0.75-6.5,7.125-5.125,9.625
				c1.625,2.625,5-4.75,5.5-6.125c1.375-4.125-1.5-3.375-3.5-0.875c-1.25,1.5-4,5.875-1.875,7.625c0.25-0.125,0.125-0.25,0.25-0.375
				"/>
			<path fill="#FFFFFF" d="M91.371,40.686c-0.208-0.125-0.417-0.25-0.625-0.375c-0.612-0.367-1.529-0.067-1.723,0.634
				c-0.941,3.413,0.903,7.766,4.174,9.213c0.569,0.251,1.657-0.188,1.521-0.917c-0.362-1.949-3.882-7.665-6.484-5.691
				c-2.79,2.117,2.261,7.31,4.337,8.109c0.469,0.18,1.819-0.179,1.521-0.917c-1.066-2.647-2.792-5.39-5.348-6.804
				c-0.522-0.289-1.672-0.132-1.723,0.634c-0.188,2.837,1.918,4.891,4.299,6.088c0.446,0.224,1.562-0.11,1.535-0.729
				c-0.106-2.479-2.302-4.454-4.424-5.463c-0.469-0.223-1.531,0.105-1.535,0.729c-0.013,1.872,2.649,6.648,5.093,5.418
				c3.385-1.704-1.991-5.81-3.62-6.677c-0.552-0.293-1.629-0.13-1.723,0.634c-0.396,3.234,5.852,9.42,8.872,6.248
				c1.763-1.852-5.005-6.692-7.078-4.236c-2.76,3.271,5.817,6.18,8.034,5.961c1.248-0.123,3.667-1.078,3.213-2.772
				c-0.536-1.998-3.471-2.874-5.276-2.708c-3.959,0.365-4.208,4.564-0.452,5.607c3.066,0.851,7.479-0.32,9.229-3.085
				c2.313-3.656-4.937-6.439-7.461-6.366c-1.508,0.044-3.948,0.41-4.58,2.091c-0.771,2.054,0.185,4.218,2.241,5.079
				c2.525,1.057,8.035,1.197,8.579-2.543c0.424-2.912-1.433-8.368-5.273-7.644c-7.07,1.333-0.18,15.508,6.366,8.824
				c1.668-1.704,3.623-8.63-0.041-9.129c-3.377-0.459-3.636,5.391-3.448,7.433c0.32,3.489,2.845,3.328,4.479,0.785
				c1.805-2.81,2.966-7.726,1.916-10.875c-0.225-0.674-1.166-0.487-1.609-0.191c-2.332,1.559-3.301,4.299-3.94,6.919
				c-0.271,1.116-0.927,5.024,1.259,4.865c3.477-0.253,5.326-7.221,4.952-9.944c-0.213-1.555-1.342-2.792-3.058-2.313
				c-2.547,0.711-3.9,3.077-4.8,5.409c-0.878,2.278-0.525,7.206,2.955,4.872c2.486-1.667,3.943-6.187,3.671-9.023
				c-0.397-4.153-5.66-0.995-7.017,0.502c-1.697,1.873-3.164,4.518-3.248,7.081c-0.053,1.627,1.251,2.524,2.716,2.074
				c2.694-0.829,6.509-7.833,4.972-10.386c-1.781-2.96-10.739,6.332-7.202,10.323c0.442,0.5,1.286,0.31,1.694-0.136
				c0.167-0.182,0.27-0.325,0.364-0.552c0.431-1.034-1.515-1.037-1.85-0.231c-0.045,0.066-0.09,0.132-0.136,0.198
				c0.565-0.045,1.129-0.09,1.694-0.136c-1.313-1.482-0.37-3.317,0.403-4.826c0.383-0.749,0.882-1.421,1.399-2.078
				c1.131-1.437,2.33-0.993,1.655,0.749c-0.419,1.083-3.23,6.396-3.686,5.221c-0.958-2.471,2.698-7.675,5.017-8.36
				c2.269-0.67,0.96,3.82,0.689,4.609c-0.189,0.552-2.163,4.25-2.338,4.055c-0.807-0.9-0.193-2.789,0.096-3.722
				c0.295-0.952,0.805-1.867,1.344-2.694c0.808-1.241,2.701-1.488,2.729,0.313c0.039,2.439-0.993,4.943-2.366,6.901
				c-0.783,1.117-0.059-2.323,0.05-2.91c0.396-2.143,1.404-4.632,3.267-5.877c-0.536-0.064-1.073-0.127-1.609-0.191
				c1.017,3.052-0.332,6.554-1.506,9.445c-0.095,0.235-0.697,1.268-0.542,1.44c-0.541-0.6-0.524-2.189-0.554-2.895
				c-0.065-1.537,1.494-6.034,1.588-1.929c0.06,2.603-2.563,7.969-5.76,4.204c-1.147-1.351-1.748-3.35-1.633-5.096
				c0.734-0.319,1.468-0.639,2.202-0.958c0.503,0.404,0.917,0.883,1.238,1.437c0.762,1.12,1.042,2.606,1.036,3.931
				c-0.019,3.911-6.434,2.39-7.263-0.347c-1.189-3.925,10.489-2.15,8.498,2.363c-1.013,2.295-5.813,2.645-7.594,1.411
				c-0.848-0.587-1.004-2.315,0.897-2.251c1.542,0.052,5.442,2.826,0.69,2.649c-1.501-0.055-3.237-1.393-4.377-2.263
				c-1.173-0.897-0.766-1.621,0.63-0.791c0.383,0.228,1.868,1.824,1.81,1.804c-2.341-0.775-5.125-2.747-4.79-5.485
				c-0.574,0.211-1.148,0.422-1.723,0.634c1.355,0.722,2.543,1.825,3.547,2.968c1.107,1.26-0.157-0.023-0.431-0.395
				c-0.514-0.697-1.15-1.672-1.143-2.583c-0.512,0.243-1.023,0.486-1.535,0.729c1.555,0.739,3.497,2.42,3.576,4.287
				c0.512-0.243,1.023-0.486,1.535-0.729c-1.879-0.944-3.6-2.664-3.451-4.912c-0.574,0.211-1.148,0.422-1.723,0.634
				c2.315,1.281,3.932,3.786,4.902,6.196c0.507-0.306,1.014-0.611,1.521-0.917c-1.813-0.697-3.541-3.271-4.195-5.014
				c-0.553-1.473,1.536,1.252,1.896,1.741c0.579,0.788,1.222,1.716,1.403,2.69c0.507-0.306,1.014-0.611,1.521-0.917
				c-2.795-1.236-4.099-5.238-3.326-8.037c-0.574,0.211-1.148,0.422-1.723,0.634c0.208,0.125,0.417,0.25,0.625,0.375
				C90.624,42.255,92.312,41.251,91.371,40.686L91.371,40.686z"/>
		</g>
	</g>
	<ellipse fill="none" stroke="#FFFFFF" cx="117.627" cy="47.749" rx="14.5" ry="15.25"/>
	<ellipse fill="none" stroke="#FFFFFF" cx="97.815" cy="43.062" rx="11.938" ry="10.188"/>
	<ellipse fill="none" stroke="#FFFFFF" cx="116.502" cy="48.624" rx="15.5" ry="16.625"/>
	<ellipse fill="none" stroke="#FFFFFF" cx="117.252" cy="49.062" rx="16.25" ry="16.438"/>
	<g>
		<g>
			<path fill="none" d="M109.252,53.624c-0.5,0.125,3,3,3.75,3.375c-1.625-1.5-4-2.5-6-3.625c1.875,1.5,4,2.625,5.875,4.125
				c-3.25-2.5-5.875-5.375-8.875-8.125c1.25,3,5.75,7.375,8.75,8.625c0-2-4.875-6.625-7-6.5c0.375,3.75,6.25,5.625,9.25,6
				s7.625-1.125,2.5-2.625c-2-0.625-7.375-0.375-5.25,3c1.75,3,8.875,2.25,11,0"/>
			<path fill="#FFFFFF" d="M108.273,53.695c-0.267,1.31,3.1,3.322,3.986,3.867c0.699,0.43,2.388-0.388,1.486-1.125
				c-1.835-1.501-3.925-2.503-6-3.625c-0.694-0.375-2.43,0.412-1.486,1.125c1.912,1.444,3.963,2.681,5.875,4.125
				c0.69,0.521,2.368-0.422,1.486-1.125c-3.144-2.507-5.938-5.387-8.875-8.125c-0.453-0.422-2.063,0.086-1.709,0.821
				c1.843,3.828,5.331,7.198,9.16,9.024c0.582,0.278,1.632-0.203,1.521-0.917c-0.467-3.032-4.604-6.688-7.634-6.952
				c-0.531-0.046-1.441,0.281-1.298,0.97c1.002,4.811,7.585,6.621,11.862,6.488c0.823-0.026,4.189-0.486,4.104-1.897
				c-0.108-1.77-2.604-2.19-4.041-2.404c-3.187-0.475-7.707,1.199-4.954,4.876c2.473,3.304,9.558,1.795,12.138-0.498
				c0.979-0.87-0.552-1.552-1.286-0.899c-1.718,1.526-4.121,1.814-6.336,1.65c-1.284-0.095-2.366-0.599-3.137-1.629
				c-1.897-2.535,3.219-2.06,3.811-1.914c3.86,0.954-1.165,1.286-1.612,1.256c-0.971-0.065-1.929-0.373-2.856-0.645
				c-2.503-0.735-5.188-2.161-5.76-4.903c-0.433,0.323-0.865,0.646-1.298,0.97c2.491,0.218,5.984,3.571,6.366,6.048
				c0.507-0.306,1.014-0.611,1.521-0.917c-3.432-1.637-6.685-4.788-8.34-8.226c-0.569,0.274-1.139,0.548-1.709,0.821
				c2.939,2.741,5.729,5.616,8.875,8.125c0.496-0.375,0.991-0.75,1.486-1.125c-1.912-1.444-3.963-2.681-5.875-4.125
				c-0.496,0.375-0.991,0.75-1.486,1.125c2.075,1.123,4.165,2.124,6,3.625c0.496-0.375,0.991-0.75,1.486-1.125
				c-0.531-0.326-3.626-2.334-3.514-2.883C110.429,52.583,108.451,52.822,108.273,53.695L108.273,53.695z"/>
		</g>
	</g>
	<g>
		<g>
			<path fill="none" d="M106.502,43.249c-1.625,0.25-1.25-1.125-0.875-2.125c1.5-3.5,5.5-6.25,9-7.25
				c-1.5,1.25-3.25,2.125-4.625,3.625c-1.375,1.375-2.5,3.125-4.125,4.125c1.875-3.25,9.75-8.875,13.625-7.5
				c-2.25,1.875-7.5,3.875-10.25,4.25c3.25-2.75,13.625-6.25,16.875-2.375c-1.875,1.625-9,0.5-10.5-1.375
				c2.75-1.5,11.875-0.125,13.625,2.75c1.25,2-0.875,1.75-2.25,1.125c-1.625-0.625-3.375-2-4.375-3.375
				c3.375,1.625,7.25,7.125,8.375,10.625c-2.375-1.125-4.375-5.25-5.125-7.75c2.375,2.5,4.875,9.25,3.25,12.375
				c-1.125-1.625-1.25-4.75-0.5-6.625c0.75,3.375-1.625,8.75-4.125,11c-3.5,3.125-7.625,1.5-11.75,1c2.375,1.125,6.25,2,8.875,1.5
				c-1-1.125-11-3-10.375-0.875c0.75,2.75,12,1.25,13.375-0.5c-1.125-1.125-5-1-5.875,0.5c1.125,1.375,3.25,1.125,4.875,1.125
				c-1.25,0-2.875,0-4.125,0.5c1.375,0.375,3.5-0.25,4.5-1.25c-0.5-0.5-0.875-0.5-1.5-0.125c3-0.25,5.5-5.375,6.375-7.75
				c1-3,1.25-6.375-0.125-9.125c0.375,2.625,2.75,4.75,2.375,7.5c-0.375,3-3.375,7.625-6.25,8.75c0.125-1.875,2.5-4.25,3.375-6
				c1-1.875,1.5-4.375,3-5.875c0.875,4.25-3,13.75-8,14.25c0.5-2.125,3.5-4.375,4.75-6.125c1.875-2.875,1.875-3.625,0.125-6.25
				c-2-3.25-6.125-14.875-11.75-12.125c3.25,1.5,8,1.25,10.75,3.5c-1.25,0.625-3.375,0.5-4.875,0.5"/>
			<path fill="#FFFFFF" d="M107.099,42.743c-2.135-0.21,0.563-3.522,0.972-4.08c1.651-2.257,4.383-3.544,6.932-4.417
				c-0.381-0.171-0.763-0.342-1.145-0.513c-3.146,2.39-5.664,5.38-8.75,7.75c0.555,0.049,1.11,0.099,1.666,0.148
				c0.933-1.4,2.099-2.49,3.378-3.562c0.924-0.737,1.898-1.398,2.922-1.986c0.959-0.585,7.169-2.375,1.759,0.088
				c-1.109,0.505-6.102,2.652-1.913,0.614c2.827-1.375,6.176-2.181,9.32-1.897c1.83-0.046,2.179,0.41,1.048,1.367
				c-1.028-0.005-2.043-0.115-3.045-0.33c-4.773-0.838-0.996-1.466,1.407-1.157c1.752,0.226,3.418,0.774,5.006,1.525
				c1.15,0.257,1.524,0.841,1.119,1.75c-1.805-0.645-3.051-1.9-4.248-3.292c-0.557,0.275-1.114,0.55-1.671,0.826
				c3.847,2.211,6.66,6.348,8.181,10.429c0.579-0.238,1.159-0.476,1.738-0.713c-2.649-1.683-3.967-4.689-4.931-7.554
				c-0.622,0.21-1.243,0.42-1.865,0.63c2.564,3.094,4.65,8.146,3.185,12.132c0.643-0.129,1.287-0.258,1.93-0.387
				c-1.048-2.136-1.14-4.171-0.502-6.494c-0.643,0.129-1.287,0.258-1.93,0.387c0.379,3.271-0.758,6.082-2.44,8.827
				c-2.701,4.41-7.729,3.021-11.873,2.408c-0.369-0.055-2.225,0.6-1.368,0.961c3.057,1.286,6.2,1.925,9.508,1.555
				c0.186-0.021,1.543-0.497,1.038-0.881c-1.588-1.205-12.213-4.025-12.24-0.245c-0.028,3.925,13.364,0.972,15.11-0.618
				c0.228-0.208,0.276-0.42,0.002-0.595c-2.171-1.388-5.612-1.047-7.417,0.814c-0.107,0.11-0.332,0.36-0.129,0.512
				c1.728,1.296,3.224,1.309,5.392,1.279c0.254-0.35,0.509-0.701,0.764-1.051c-1.62,0.022-3.06,0.158-4.629,0.568
				c-0.345,0.09-1.402,0.88-0.474,0.964c2.275,0.207,4.012-0.283,5.866-1.616c0.243-0.175,0.269-0.447,0.002-0.595
				c-1.026-0.57-1.273-0.501-2.395-0.128c-1.119,0.373-0.926,1.218,0.245,0.915c6.769-1.75,9.353-11.812,7.093-17.591
				c-0.245-0.627-2.1-0.126-1.932,0.518c0.563,2.163,1.762,4.02,2.355,6.172c0.955,3.465-3.163,8.157-5.858,9.555
				c0.519,0.045,1.038,0.091,1.557,0.136c0.532-2.229,2.161-3.927,3.307-5.865c1.14-1.927,1.585-4.076,3-5.875
				c-0.621,0.084-1.241,0.167-1.862,0.251c0.6,4.541-2.115,12.498-7.157,13.534c0.362,0.11,0.724,0.22,1.086,0.33
				c1.095-2.671,6.681-6.157,6.174-9.475c-0.436-2.853-2.797-5.979-4.151-8.546c-2.133-4.045-5.182-8.591-10.237-6.723
				c-0.245,0.09-0.955,0.614-0.397,0.827c3.49,1.33,7.445,1.328,10.623,3.417c0.259-0.276,0.518-0.552,0.776-0.829
				c-1.443,0.359-2.9,0.503-4.371,0.432c-0.695-0.006-2.068,1.041-0.764,1.051c1.881,0.015,3.582,0.002,5.379-0.568
				c0.14-0.044,1.238-0.525,0.776-0.829c-2.583-1.698-5.405-2.13-8.389-2.772c-1.986-0.428,1.311,1.589,1.831,2.158
				c1.403,1.536,2.373,3.471,3.336,5.297c1.159,2.197,2.51,4.454,3.519,6.72c1.376,3.091-4.885,7.289-6.035,10.096
				c-0.21,0.511,0.916,0.365,1.086,0.33c6.032-1.24,9.587-9.334,8.843-14.966c-0.091-0.691-1.639-0.032-1.862,0.251
				c-1.63,2.072-2.212,4.542-3.545,6.797c-1.065,1.8-2.402,3.136-2.898,5.213c-0.169,0.709,1.33,0.254,1.557,0.136
				c2.388-1.239,4.338-3.334,5.473-5.791c2.073-4.485-0.085-6.605-1.225-10.982c-0.644,0.172-1.288,0.345-1.932,0.518
				c1.191,3.046,1.009,5.885,0.127,8.994c-0.819,2.886-4.42,8.798-7.815,8.491c-0.158,0.321-0.316,0.643-0.474,0.964
				c1.207-0.144,2.414-0.288,3.621-0.432c0.689-0.009,2.066-1.069,0.764-1.051c-1.222,0.442-1.715,0.026-1.482-1.249
				c1.862,0.171-3.027,1.4-2.647,1.332c-2.146,0.384-4.589,0.552-6.7-0.098c-3.234-0.996,2.437-0.801,3.014-0.713
				c1.458,0.223,3.328,0.458,4.535,1.374c0.346-0.293,0.692-0.587,1.038-0.881c-2.921,0.326-5.582-0.325-8.242-1.445
				c-0.456,0.32-0.912,0.641-1.368,0.961c3.624,0.537,8.448,1.979,11.775-0.405c3.845-2.755,6.214-7.597,5.662-12.36
				c-0.076-0.658-1.796-0.101-1.93,0.387c-0.659,2.4-0.616,4.486,0.498,6.756c0.31,0.631,1.732,0.151,1.93-0.387
				c1.545-4.204-0.597-9.339-3.315-12.618c-0.342-0.413-2.072,0.015-1.865,0.63c1.039,3.086,2.496,6.153,5.319,7.946
				c0.35,0.222,1.963-0.11,1.738-0.713c-1.607-4.313-4.533-8.5-8.569-10.821c-0.397-0.228-2.169,0.246-1.671,0.826
				c1.501,1.745,4.265,4.312,6.881,3.964c1.278-0.17,2.753-0.943,1.542-2.456c-2.953-3.687-10.728-4.484-14.899-2.751
				c-0.198,0.082-0.843,0.446-0.524,0.743c2.761,2.568,8.74,3.259,11.992,1.268c0.174-0.106,0.551-0.404,0.306-0.635
				c-4.701-4.441-14.197-0.708-18.543,2.605c-0.596,0.454,0.233,0.723,0.631,0.65c3.97-0.724,7.896-2.222,11.158-4.619
				c0.344-0.253,0.188-0.566-0.173-0.647c-5.505-1.23-12.235,3.67-15.117,7.999c-0.532,0.799,1.382,0.366,1.666,0.148
				c3.097-2.379,5.606-5.362,8.75-7.75c0.855-0.65-0.822-0.623-1.145-0.513c-3.64,1.245-6.57,3.227-8.847,6.339
				c-1.104,1.509-1.831,3.685,0.501,3.914C106.481,43.812,108.172,42.848,107.099,42.743L107.099,42.743z"/>
		</g>
	</g>
	<g>
		<g>
			<path fill="none" d="M94.377,37.374c-2,0.125-2.375,8.5-1,9.875c1.25-1.375-0.25-6.75-1.375-8
				c-0.625,1.625-0.875,4.75-0.125,6.375c1.25,2.625,2.375,0,2.375-1.875c0.125-1.5-0.375-4.875-2.375-4
				c-1.625,0.75-1.875,4.25-1.25,5.625c1.5,4.125,4.125-2.875,1-4.875c-3.625-2.5-3.875,5.125-1.125,6.5
				c-0.125-1.375-1.5-3.375-2.75-4.125c-0.5,1.25,0.875,3,1.625,4c-0.75-1.125-1.625-2.25-2.375-3.375c0.25,1,0.75,2,1.25,2.875
				c-0.125-2.375-1.125-4.5-0.125-6.875c0.25,0.875,0,1.875-0.125,2.75c-0.125-1.125,0.25-2.5,0.875-3.625
				c-0.25,1.25-1.125,2.625-2,3.5c0.125-0.875,0.375-1.75,0.625-2.625c-0.375,1.5-0.25,3.125-0.5,4.625
				c-1.625-1.875,2.75-8.75,4.75-8.875c-0.25,1-1.125,1.875-2,2.375c0-1.375,1.5-2.5,2.5-3.125c-1.75,2.125-5.625,7.25-2.375,9.875
				c1.25-1.375,0.625-5,1.375-6.875c-0.125,0.875-0.5,1.875-1.25,2.5c-0.25-3.25,4.75-6.875,7.75-5.625
				c-0.75,1.125-3.375,1-4.25,0.25c1.625-1.5,4.75-1.125,6.75-0.5c-1.125-0.375-2.375-0.375-3.625-0.5c2.625-1,5.625,1.5,6.875,3.5
				c-0.5-0.375-1-0.875-1.5-1.375c0.875,1.375,2,2.625,2.625,4.25"/>
			<path fill="#FFFFFF" d="M94.19,36.676c-3.403,0.969-3.414,8.69-1.695,11.008c0.469,0.632,1.476,0.243,1.81-0.306
				c1.426-2.344,0.067-6.524-1.421-8.564c-0.396-0.543-1.608-0.343-1.81,0.306c-0.666,2.135-1.61,7.188,1.27,8.285
				c2.576,0.981,2.946-3.581,2.871-4.93c-0.112-2.005-1.399-4.501-3.774-3.33c-2.475,1.22-2.467,4.946-1.504,7.104
				c0.738,1.653,2.589,1.286,3.451-0.001c1.331-1.986,0.755-4.878-1.021-6.324c-4.269-3.476-6.291,5.217-2.604,7.651
				c0.574,0.379,1.895,0.027,1.706-0.834c-0.405-1.848-1.471-3.316-2.976-4.442c-0.536-0.401-1.636-0.074-1.721,0.64
				c-0.209,1.762,0.698,2.989,1.724,4.371c0.547,0.736,2.359-0.007,1.764-0.87c-0.781-1.133-1.594-2.243-2.375-3.375
				c-0.453-0.657-2.13-0.173-1.848,0.694c0.354,1.088,0.795,2.049,1.334,3.051c0.428,0.795,1.933,0.12,1.848-0.694
				c-0.232-2.224-0.824-4.256-0.163-6.487c-0.631,0.043-1.263,0.086-1.894,0.13c0.088,0.862,0.042,1.714-0.14,2.555
				c0.654-0.042,1.308-0.085,1.962-0.128c-0.005-1.249,0.291-2.309,0.822-3.432c-0.619-0.086-1.238-0.172-1.856-0.258
				c-0.396,1.278-1.008,2.312-1.887,3.318c0.599,0.082,1.198,0.165,1.796,0.247c0.191-0.811,0.382-1.622,0.572-2.432
				c-0.636-0.021-1.273-0.043-1.909-0.065c-0.27,1.536-0.323,3.078-0.5,4.625c0.621-0.167,1.242-0.333,1.863-0.499
				c-1.197-1.971,2.019-7.274,4.055-7.742c-0.372-0.275-0.744-0.551-1.115-0.827c-0.574,0.677-1.147,1.354-1.721,2.032
				c0.543,0.136,1.087,0.272,1.63,0.408c0.435-1.158,1.158-2.021,2.168-2.589c-0.488-0.261-0.976-0.522-1.464-0.783
				c-2.258,2.79-5.656,7.363-2.441,10.621c0.426,0.432,1.336,0.425,1.697-0.125c1.401-2.137,0.786-4.695,1.488-7.057
				c-0.636-0.021-1.273-0.043-1.909-0.065c-0.361,0.708-0.723,1.417-1.084,2.125c0.599,0.082,1.198,0.165,1.796,0.247
				c0.096-2.783,3.262-5.745,6.218-4.885c-0.033-0.383-0.065-0.766-0.098-1.148c-0.954,0.049-1.908,0.098-2.861,0.146
				c-0.03,0.349-0.061,0.698-0.091,1.048c1.681-1.191,3.787-0.781,5.55-0.296c0.292-0.47,0.584-0.939,0.877-1.41
				c-1.216-0.281-2.382-0.398-3.625-0.5c-0.046,0.477-0.093,0.954-0.139,1.431c2.571-0.607,4.553,1.457,5.806,3.237
				c0.541-0.337,1.081-0.674,1.622-1.011c-0.531-0.424-1.031-0.883-1.5-1.375c-0.564-0.552-2.164,0.207-1.622,1.011
				c0.904,1.341,1.86,2.592,2.541,4.074c0.407,0.887,2.323,0.334,1.932-0.518c-0.734-1.599-1.727-2.97-2.709-4.426
				c-0.541,0.337-1.081,0.674-1.622,1.011c0.469,0.492,0.969,0.951,1.5,1.375c0.583,0.499,2.192-0.2,1.622-1.011
				c-1.887-2.68-4.605-4.551-7.944-3.763c-0.768,0.181-1.181,1.346-0.139,1.431c1.243,0.102,2.41,0.219,3.625,0.5
				c0.801,0.185,1.965-1.11,0.877-1.41c-2.751-0.757-5.528-1.011-7.95,0.704c-0.323,0.229-0.506,0.8-0.091,1.048
				c1.72,1.026,4.132,1.089,5.639-0.354c0.345-0.331,0.524-0.967-0.098-1.148c-3.997-1.163-9.133,2.05-9.282,6.365
				c-0.033,0.962,1.376,0.734,1.796,0.247c0.794-0.923,1.136-1.695,1.416-2.875c0.219-0.924-1.685-0.82-1.909-0.065
				c-0.62,2.083-0.049,4.843-1.262,6.693c0.566-0.042,1.131-0.083,1.697-0.125c-2.792-2.83,0.395-6.766,2.309-9.129
				c0.775-0.958-0.867-1.184-1.464-0.783c-1.44,0.968-2.474,1.929-2.832,3.661c-0.183,0.883,1.246,0.686,1.63,0.408
				c1.095-0.792,1.715-1.488,2.279-2.718c0.327-0.713-0.619-0.941-1.115-0.827c-3.137,0.721-7.287,6.974-5.445,10.008
				c0.412,0.679,1.78,0.222,1.863-0.499c0.177-1.547,0.23-3.089,0.5-4.625c0.167-0.948-1.703-0.82-1.909-0.065
				c-0.299,1.091-0.454,1.712-0.678,2.818c-0.198,0.978,1.435,0.66,1.796,0.247c1.005-1.151,1.659-2.219,2.113-3.682
				c0.347-1.12-1.48-1.053-1.856-0.258c-0.612,1.292-0.934,2.386-0.928,3.818c0.004,1.07,1.821,0.765,1.962-0.128
				c0.167-1.055,0.233-1.896,0.11-2.945c-0.097-0.831-1.708-0.498-1.894,0.13c-0.75,2.53-0.181,4.693,0.087,7.263
				c0.616-0.231,1.231-0.462,1.848-0.694c-0.52-0.846-0.908-1.746-1.166-2.699c-0.616,0.231-1.231,0.462-1.848,0.694
				c0.781,1.133,1.594,2.243,2.375,3.375c0.588-0.29,1.176-0.58,1.764-0.87c-0.798-1.074-1.706-2.116-1.526-3.629
				c-0.573,0.213-1.147,0.426-1.721,0.64c1.313,0.981,2.17,2.196,2.524,3.808c0.568-0.278,1.137-0.556,1.706-0.834
				c-1.59-1.05-1.896-3.357-1.406-5.082c0.497-1.749,2.113,1.278,2.166,1.448c0.038,0.121,0.039,3.326-0.409,2.325
				c-0.348-0.779-0.303-1.642-0.255-2.47c-0.149-1.328,0.407-1.732,1.668-1.211c0.177,0.591,0.271,1.197,0.283,1.817
				c0.012,0.212-0.365,2.352-0.707,1.334c-0.519-1.543-0.118-3.709,0.349-5.208c-0.603,0.102-1.207,0.204-1.81,0.306
				c1.247,1.709,2.519,5.48,1.329,7.436c0.603-0.102,1.207-0.204,1.81-0.306c-0.809-1.09-1.487-8.232,0.305-8.742
				C95.756,37.732,95.388,36.335,94.19,36.676L94.19,36.676z"/>
		</g>
	</g>
	<g>
		<g>
			<path fill="none" d="M55.752,55.749c2.625,0.125,5.625,0.75,8.125,0c-1.25-0.75-2.625-1.25-4-1.875
				c2-0.125,4.125,0.375,6.125,0.875c-2.125-1.125-4.5-1.75-6.75-2.25c2,0.625,4.25,0,6.375,0.625c-1-0.375-2.125-0.25-3.25-0.25
				c0.875,0.125,1.875,0.25,2.75,0.625"/>
			<path fill="#FFFFFF" d="M55.398,56.378c2.907,0.178,5.762,0.671,8.634-0.052c0.375-0.095,1.262-0.721,0.601-1.092
				c-1.29-0.723-2.649-1.278-4-1.875c-0.288,0.38-0.576,0.76-0.864,1.14c1.936-0.048,3.793,0.381,5.659,0.841
				c0.502,0.124,2.265-0.637,1.33-1.105c-2.207-1.105-4.531-1.781-6.932-2.326c-0.715-0.163-2.299,0.899-1.147,1.182
				c2.107,0.517,4.269,0.136,6.375,0.625c0.703,0.163,2.308-0.86,1.147-1.182c-1.162-0.322-2.271-0.306-3.47-0.288
				c-0.776,0.012-2.072,1.061-0.708,1.258c0.901,0.13,1.679,0.287,2.53,0.587c0.72,0.254,2.271-0.786,1.147-1.182
				c-0.974-0.344-1.952-0.516-2.97-0.663c-0.236,0.419-0.472,0.838-0.708,1.258c1.029-0.015,2.022-0.067,3.03,0.212
				c0.382-0.394,0.765-0.788,1.147-1.182c-2.11-0.49-4.279-0.112-6.375-0.625c-0.382,0.394-0.765,0.788-1.147,1.182
				c2.271,0.516,4.476,1.126,6.568,2.174c0.443-0.369,0.886-0.737,1.33-1.105c-2.192-0.541-4.325-0.966-6.591-0.909
				c-0.376,0.009-1.674,0.781-0.864,1.14c1.351,0.598,2.709,1.152,4,1.875c0.2-0.364,0.401-0.728,0.601-1.092
				c-2.5,0.63-5.087,0.103-7.616-0.052C55.263,55.069,54.088,56.298,55.398,56.378L55.398,56.378z"/>
		</g>
	</g>
	<path fill="#FFFFFF" d="M101.252,48.749c0,6.627,5.373,12,12,12h7.25c6.627,0,12-5.373,12-12v-4.25c0-6.627-5.373-12-12-12h-7.25
		c-6.627,0-12,5.373-12,12V48.749z"/>
	<path fill="#FFFFFF" d="M85.752,43.124c0,5.73,4.645,10.375,10.375,10.375h5c5.73,0,10.375-4.645,10.375-10.375l0,0
		c0-5.73-4.645-10.375-10.375-10.375h-5C90.397,32.749,85.752,37.394,85.752,43.124L85.752,43.124z"/>
	<path fill="#E7EDF2" d="M87.627,48.374c0,0-1,0.625,2,2.375s3.75,2.375,6.625,2s3.75-0.25,5-1.25s2.875-2,2.875-2
		s-0.5,0,0.75,2.125s2.125,3.25,4.25,4.625s3.375,2.625,5.875,2.75s2.25,0.75,5.375-0.125s2.625,0.625,6-2.75s4.375-5.5,4.75-7.375
		s1.125-2.875,0-5.375s-1.375-4.5-3.375-5.75s-2.375-2.375-5-3s-4-1.125-5.125-0.875s-2.5-0.25-4.5,0.75s-2.5,1.25-4,2.125
		s-2.625,2.375-2.625,2.375s-1.5-2-1.75-2.375s-2.375-1.75-3.25-2.25s-2-1.25-3-1.5s-1.625-0.25-1.625-0.25l-0.625-5
		c0,0,1.625-0.5,3.75,0.125s13.875,0.25,13.625,0.625s11.125,0.375,11.125,0.375s9.5,2,9.875,2.625s4.25,13.25,4.375,14.125
		s-0.875,9-0.875,9.625s-1.375,9.625-1.375,9.625s4.75,9,5,9.5s5.625,15,5.625,15.625s-0.5,16.5-0.75,16.875s7.75,11.5,8.625,11.875
		s9.875-0.25,9.875-0.25s15.625-4.125,16.125-3.75s14.375-1.5,14.375-1.5l19.25,1.875l9.125-6.125l19-5.375l9.625-0.75l-0.75-6.375
		l20.375-2.75l9.125-3.5c0,0,7.125,4.875,7.25,5.375s4.25,14.5,4,15.5s-4,17.375-4,17.375l-12.25,9.75l-2.5,1.5
		c0,0,0.875,0.5,2.25-4.625s2.875-11,2.875-12.375s-1.75-6.625-2.875-8.375s-3.375-4.625-3.375-4.625l-0.75-0.125
		c0,0,0.125,5.75,0,6.875s-0.75,5.875-0.75,5.875s-3.75-8.625-4.125-9.375s-2.875-3.125-4-3.5s-3.125-1.5-4.375-1.375
		s-8,1.125-8,1.125l6.125,11.5l-19.625-6.625c0,0-1.25,3.625-2.125,6.625s-1.125,4.375-1.875,6s-2.625,7-2.625,7
		s3.625,6.625,3.875,7s-8,9.875-8,9.875s3.625,3.75,3.375,4.125s-9.625,10.75-9.625,10.75l-10.375,19.75c0,0-3.375,1.125-5.5,1.625
		s-10.75,0.875-10.75,0.875v-0.875l-5.625,0.125l-2.125-0.5l0.375-0.5l-1.5-0.125c0,0-0.25-1,0.75-1.75s2.625-3.125,3.75-3.875
		s2.75-1.875,4.75-2.125s5.5-0.375,7.5-0.375s3.5-0.125,3.5-0.125s3.875-5.75,4.875-8.375s1.5-3.625,3-7.125s2.75-6.375,3.25-8.5
		s2.375-10.125,2.375-10.125s-5.25-1.125-7.125-1.75s-12.625-4.625-12.625-4.625l-1.625,4.375l-4.125,0.375l-2,0.75l3,1.375
		c0,0-2.625,0.75-4.25,1.5s-4.75,1.5-5.75,1.75s-3.625,0.5-3.625,0.5l2,2.625c0,0-1.75,1.25-2.25,1.5s-4.25,0.5-4.25,0.5l-8,3.5
		l-5.375,4.75l-8.875,15.375l-8.375,10.25l-10.875,0.75l0.625-1l-3.25,0.25l-2.625-0.5l-0.875-1l-1.625-0.125l-1.5-1.25
		c0,0,0.25-1.75,2.75-3.75s4.625-3.625,7.625-4.375s4-1.125,6.125-1s3.625,0.375,3.625,0.375s4.625-11,5.375-13
		s4.375-11.625,4.375-11.625s-2-6.125-2.125-6.875s-0.375,1.75-0.375,1.75s-2.25-2.25-3.5-3s-14.25-6.375-15.375-6.875
		s-6.125-2.5-7-3s-2.875-2.75-3.25-3.75c-0.276-0.735-0.687-4.784-0.885-6.874c-0.071-0.752-0.115-1.251-0.115-1.251
		s-0.375,1.125-1.125,1.375s-4.375-0.625-4.375-0.625s-0.375,0.125,2.375-3.375s6.25-8.375,8.125-11.875s3.875-8.125,4-12
		s-0.5-6.5-1.375-8.875c0,0-3.875-3.5-4.5-4.125s-10.125-6.5-10.125-6.5s-0.125,1.25-2.5,4s-2.25,2.625-4.5,4.625
		s-5.75,3.875-7,4.75s-4.125,1.75-4.125,1.75l0.5,4.875c0,0-1,0.875-2.625,0.75s-3-1.375-3.875-1.75s-1.375,0-1.375,0
		s-0.25,1-1,2.125s-1.25,1.75-2.125,1.75s-2.875-2-2.875-2s-0.25-2.25-0.375-3.125s-0.25,2.875-0.25,2.875l-1.25,0.375l-1.125-0.375
		l-1-1.5l-0.5-2.25l-0.125-5.25c0,0-3,0.625-4.75,0.625s-6.875-0.5-8.125-2.25s-1.25-1.75-1.25-1.75s-1.75-0.125-2.375-0.125
		s-5.25-2.125-6.375-2.75s-3.625-4.375-4.25-5.125s-1-2.625-1-2.625l0.625-9l1.75-3.625c0,0,2.5,2,3.625,2.75
		s4.125,1.375,4.125,1.375s1.125,0.25,3.75-1.125s8.875-6,8.875-6l-8.375-3.75l-0.625-0.625h3.875l1.5-0.75L87.627,48.374z"/>
	<path fill="#E7EDF2" d="M149.002,1.999c0,0-3.25,7.875-4.5,10.875s-5.25,11.625-6.375,13.25s-3.125,2.5-3.125,2.5l10,12.625
		l6.75-8.25c0,0,1.375-14.625,1.375-15s-2.125-10-2.125-10l-1.875-6.5"/>
	<path fill="#E7EDF2" d="M110.002,3.499l6.375,4.625c0,0,4.625,3,5.25,4.125s3.75,6,3.75,6s1.125,4.25,1.375,5.125
		s0.5,4.25,0.5,4.25l-15.75-0.125l-2.125-1.125l1.75-4.375c0,0,0.375-4,0.375-5.75s0.25-6.875,0.25-6.875L110.002,3.499z"/>
	<path fill="#737679" d="M96.752,27.999c0,0,2.5,0.25,3.625,1.375s5.875,3.5,5.875,3.5s3.75-1.125,6.625-1.75s3.125-1.25,7.75-1.25
		s8.5,0,10.625,2.125s4.25,5.625,4.75,9.25s0.625,20.75,0.625,20.75l-18.625,0.625c0,0,1.125,0.375,6.375,2s7,2.25,10.125,4.5
		s5.625,5,6.625,8.125s2.625,8.875,2.75,12.5s0.25,4.25-0.5,10.875s-1.375,9.25-0.5,13.625s2.75,8.875,2.75,8.875s-0.5-3.375,0.25-6
		s1.75-3.5,1.75-3.5s-0.375,4,2.625,7.625s11,7.75,11,7.75l-1.25-3.625c0,0,1.625,2.125,4.75,2.25s8.75-0.25,8.75-0.25
		s-2.75-1.75-3.75-3.25s-1-1.5-1-1.5s0.875,0.75,3.875,0.875s6.125,0.125,11.875-1.75s7.375-3,12.625-3.5s5.375-1.25,11.875-0.875
		s14.25,3.125,14.25,3.125s-2.125-3.5-3.25-5.375s-0.875-4.5-1-4.125s-1.125-0.375,3.375,1s5.875,2.375,8.875,4.125
		s4.875,2.625,4.875,2.625s0.25,0.5,0.875-2.375s0.5-5.5,0.5-7s0.125-2.625,0.125-2.625s-3.125,0.5,4-0.75s13.875-2.125,16-2.125
		s-2-2.125-3.75-2.5s-0.625-1.875-0.625-1.875s0.75-1,5.25-1.875s5.5-1.25,10.625-1.125s8.5,1.75,10.875,2.625s3.875,2,3.875,2
		s0.625-1.25-0.625-3.75s-1.875-3.875-1.875-3.875s1.375-0.375,3,2.375s3.75,5.125,4.125,9.25s0.375,8.375,0.125,10.5
		s-1.125,4.5-2.25,7.5s-3.875,7.375-5.75,9.875s-6.5,6.75-6.5,6.75s7.25-4.625,10.625-7s5.5-3.75,7.375-6.125s3.5-5,4.125-7
		s1.25-7.75,1.25-9.875s0.25-3.375,0-5.125s-1.25-7.5-1.25-7.5l-1.25-3.625l6.25,7.875c0,0,0.375-5.375-0.125-8s-1.125-7-2.625-8.75
		s-3.25-4.125-4.75-5.125s-4.375-2.875-6.25-3.75s-5.75-2-6.5-2.125s-2.875-0.25-2.875-0.25s0.625-0.875,2.375-2.25
		s4.875-3.625,4.875-3.625s-3.75-0.375-7.625,0.875s-9.75,3.75-12.25,5.25s-7.125,4.5-10.5,8.25s-5.5,6.75-7.5,8.875
		s-5.5,4-8.625,5.875s-5.5,3-6.375,3.125s-3.25-1.125-5.25-1s-4,0.125-4,0.125s-0.125-0.5,1.875-1.625s5.25-2.875,5.25-2.875
		s-0.75,0-3.25,0.5s-3,0.25-5.625,0.75s-5.375,0.875-6.5,1s-1.125,0.125-1.125,0.125l3-3.875c0,0-1.625-0.25-3.25,0.5
		s-5.25,1.5-6.875,2.875s-2.25,1.875-2.25,1.875s-0.375,0-0.25-1.25s0.25-2,0.25-2s0,0.625-2.125,1.875s-5.625,1.75-6.5,2
		s-0.875,0.25-0.875,0.25s1.75-0.5,3-2.375s2-3.625,2-3.625s-1.25,0.875-4.125,2s-5.125,1.375-6.875,1.875s-4.75,1.125-4.75,1.125
		s1.75-1.375,3-3.125s3.375-6.375,3.375-6.375s-0.625,0.75-3,2.375s-6.75,3.125-9,3.5s-6.875,0.625-6.875,0.625
		s1.125-0.25,2.375-1.375s3.375-4.125,3.375-4.125s-4.875,1-6.375,1.25s-3.5,0.25-3.5,0.25l2-1.75c0,0-2.5-0.375-5.125-1.875
		s-5.25-3.25-6.75-4.125s-5-5-5-5s-0.125-0.375-0.375-2.875s-1-4.875-1.625-5.875s-1.875-3.875-1.875-3.875s2.375,0.75,4.625,2.875
		s4.25,5.25,4.25,5.25s0.125-2.875-0.625-4.75s-1-3.5-2.75-5.625s-4.875-5.75-4.875-5.75s0.875-0.625,4.5-0.125
		s4.875,0.625,6.375,1.25s2.125,1.125,2.125,1.125s-0.875-2.375-2.75-4.25s-3.125-3-5.375-4.5s-4.5-3.125-5.375-3.125
		s-0.875,0-0.875,0s1.25-0.375,2.875-3s2.5-4.875,3.375-7s1.25-3.25,1.25-6s-0.125-16.75-0.125-16.75s-0.625-3.875-2.125-6.75
		s-4.5-7.875-4.5-7.875s-0.75-0.25-0.125,2.5s1.625,7.5,1.625,7.5s0.625,5,0.625,7.25s0,4.375-0.25,6.625s-0.75,5.375-1.625,7.5
		s-0.75,2.625-2.25,4.875s-2.125,3.375-2.125,3.375l-8.125-11.75c0,0-3-1.75-6.375-1.875s-10.875-0.5-13-0.375
		s-10.75-0.625-11.25-0.5S96.752,27.999,96.752,27.999z"/>
	<path fill="#737679" d="M131.627,134.249l4.375,16.375l-8.5,19.875c0,0-5,0.625-6.625,0.875s-4.25,0.75-6,2.125s-6,5.125-6,5.125
		l3,2.125l-0.375,0.75l13.375,0.875c0,0,4.75-4.875,7-5.625s4.625-2,4.625-2s0.75-2.375,1.875-4.75s3.25-6.625,3.625-6.875
		s2.5-1.125,2.5-1.125l7.625-4.5l2.125-5.5c0,0-0.5,0.625-1.25-1.5s-1.75-7-1.75-7s-3.125-3.125-4.25-3.875s-7-3.75-7-3.75
		L131.627,134.249z"/>
	<path fill="#737679" d="M192.752,142.124c0,0,0.75,2.5,0.125,5.625s-4.125,12.125-5.25,14.875s-5.5,10.5-6.125,11.375
		s-0.625,0.875-0.625,0.875s-6.25,0-7.875,0.125s-3.25-0.25-4.375,0.75s-5.5,6-5.5,6l1.375,0.375l-0.125,0.625
		c0,0,2.25,0.125,3.25,0.25s3.75-0.125,3.75-0.125l-0.75,1.375c0,0,3.125,0.125,4.625,0.125s5.375-0.625,6.875-1.125
		s3.125-1.125,3.125-1.125s5-7.125,7.125-10.125s4.375-6,6.625-8.875s3-3.625,5.375-5.875s9.25-9.375,9.25-9.375l-9.125,2
		l8.375-7.625c0,0-6.5-2.25-8.25-3.25s-6.125-4.125-6.125-4.125l-2,1.375l2.375,0.625c0,0-1.25,1.625-2.375,2.625
		s-3.75,2.25-3.75,2.25"/>
	<path fill="#A1A5A9" d="M173.252,130.249c0,0-2.5,1.375-3.875,3.375s-2.625,5.5-2.875,8.625s-0.5,9.25-0.5,9.25l-6.125,0.375
		l4.25,4.375l0.75,1.375c0,0-0.75-0.375-2.375-0.125s-3.875,1.875-5.5,3.25s-3.25,3.875-4.5,7.5s-1.75,7.75-2.875,9.75
		s-1.625,3.75-3.25,5.375s-5.375,3.75-5.375,3.75s8.75-1.625,9.375-2s1.125-0.875,3-4.375s3-5.75,4.75-9s1.625-5.125,3.75-6.375
		s14.75-8.875,14.75-8.875l-4.875-2.5h5.75c0,0-2-1.25-2.75-3.5s-1.875-3.25-1.875-5.25s0-7.25,0-8.125
		S173.252,130.249,173.252,130.249z"/>
	<path fill="#A1A5A9" d="M234.127,117.874c0,0-0.125,0.75-2.25,2.375s-7.375,5.25-8,6.625s-1.75,3.25-1.25,6.25s0.875,4.125,2.5,6
		s4,3.875,4,3.875l-7.25,9.625l3.125,0.125c0,0-3.125,3.375-5,5.875s-3.5,5.25-5.125,8.125s-3.75,7.625-5.125,10.375
		s-5.625,9.375-5.625,9.375l5.125-1.375c0,0,4.5-6.5,6.875-9.75s7-10.375,10.5-13.75s14.625-14.375,14.625-14.375l-10.875,2.875
		l8.5-7.625l-7.5-10.875c0,0,2.5-5.5,3.25-7.5s1.875-4.875,1.875-4.875L234.127,117.874z"/>
	<path d="M58.086,51.916c0.25-0.25,3.667,0,5.667,0.75s2.333,1.833,2.333,1.833s-6.5,0-6.75,0.083s-0.833,0.417-1.583,1.167
		s-0.833,1.333-0.25,2.083s5,4.667,5,4.667s3.167-0.583,5.167-1.667s8.167-5.25,8.167-5.25s-6.417-2.583-7.75-3
		s-2.667-1-3.333-0.917s-6.5-0.167-6.5-0.167"/>
	<ellipse fill="none" stroke="#000000" stroke-width="0.75" cx="117.711" cy="46.457" rx="13.708" ry="12.625"/>
	<path fill="none" stroke="#000000" stroke-width="0.75" d="M87.169,48.582c-0.25,0.083-13.5,2-16.75,2.5s0.5,0.667-4.667,0.667
		c-1.106,0-2.105,0.007-3,0.022c-0.088,0.001-0.175,0.003-0.261,0.004c-0.505,0.009-0.976,0.021-1.413,0.034
		c-2.259,0.069-3.596,0.195-4.077,0.355c-0.75,0.25-2.833,1.167-3.583,2.167s0,4.833,0,4.833s2.334,1.333,3.667,2.333
		s3.917,1.5,3.917,1.5s3.167-0.583,6.917-2.417s7.5-4.917,7.5-4.917s-4.667-2.083-6.917-2.583s-3.5-0.583-4.5-0.75
		s-2.833-0.25-2.833-0.25"/>
	<path fill="none" stroke="#000000" stroke-width="0.75" d="M53.419,59.165c-0.167,0.25-1.833,2.917-2,4.167
		s-0.083,9.167-0.083,9.167s0.833,2.417,2,3.917s3.5,3.583,5.583,4.5s4.083,1.5,6.75,1.5s12.333-0.249,14.917-0.416
		s7.833-1.333,10.917-2.5s7.167-2.916,9.333-4.834c2.167-1.917,4.5-5.583,4.5-6.583s-0.083-1.5-0.083-1.5"/>
	<path fill="none" stroke="#000000" stroke-width="0.75" d="M61.002,62.999c0,0-0.083,7.333,0.333,10.167
		c0.417,2.834,1.5,6.166,2.333,7.5s1.667,3.166,3.75,4.25s5.583,1.584,8.25,1.417s3.583-0.333,3.583-0.333s0.084,3.666,0.167,5.166
		s1.417,3.834,1.917,4.084s1.75-0.417,1.917-0.917s0.083-3.167,0.083-3.167s0.417,3.334,1,3.917s1.25,1.583,2.417,1.5
		s2.5-1.25,2.667-2s0.5-1.667,0.5-1.667s0.917-0.083,1.667,0.417s2.083,1.167,3.5,1.167s2.5-0.25,2.5-0.25l-0.25-5.167
		c0,0,0.5,0,2.75-1s3.917-1.916,5.25-3.083s4.417-3.167,5.5-4.417s2.916-3.084,3.333-3.917s1.083-2.166,1.083-2.166
		s2.75,1.25,5.167,2.833s3.75,2.167,5.75,3.75s5.25,4.917,5.25,5.75s0.084-4.584-0.333-7.167s-1.667-6-1.667-6s2.917,1.583,5.583,4
		s4.584,3.751,6.417,5.834s3.083,5.5,3.083,5.5s0.833-3.001,0.75-6.834s-0.166-8.332-0.916-9.5c-0.75-1.167,3.916,2.083,5.166,3.667
		s2.833,3.251,2.75,4.167s0.334-4.666,0.084-7.083c-0.25-2.417-1.917-5.917-3.167-7.417s3.501,1.833,5.667,4
		s2.916,3.167,2.916,3.167s-0.083-4-1.333-6.667s-6.833-8.917-6.833-8.917s8.666,0.167,10.666,1s2,0.833,2,0.833
		s-3.417-5.583-6-7.417s-6.083-3.75-7.25-4.083s-0.75-0.25-0.75-0.25s3-2.333,4.5-5.75s2.666-6.5,2.583-9.083
		s0.167-16.417,0.167-16.417s-0.501-3.25-2.167-7.583s-4.75-8-4.75-8s-0.832,4-2.749,8.75s-2.583,6.667-4.5,10.083
		s-4,8.083-4.917,8.25s-0.917,0.167-0.917,0.167s-1.5-1-6.417-1.5s-15.667-0.917-18.417-0.833s-3.833-0.167-8.167,0.833
		s-6.25,1.417-6.25,1.417l0.417,4.417"/>
	<path fill="none" stroke="#000000" stroke-width="0.75" d="M110.086,25.499c0,0,1-3.083,1.083-7.25s0.5-8.833,0-10.5
		s-0.5-3.583-1.083-4.333s-0.583-0.75-0.583-0.75s1.417,0.583,5.5,4.083s4.583,2.75,6.75,5.917s3.833,5.583,4.333,7.333
		s0.75,6.5,0.75,6.5"/>
	<path fill="none" stroke="#000000" stroke-width="0.75" d="M129.586,83.999c0,0,1.667,4.667,1.75,7.5s-0.917,7.916-2.083,10.333
		s-4.75,8.667-6.333,11s-6.333,8.083-6.333,8.083s1.25,0.583,2.75,0.5s3.167-0.583,3.167-0.583"/>
	<path fill="none" stroke="#000000" stroke-width="0.75" d="M122.419,119.415c0,0-0.25,4.334,0.083,5.834s0.417,3.666,2.75,5.583
		s2.75,2.75,7.917,4s4.584,0.417,8.167,2.167s3.582,1.417,6.416,3.5s4.5,3.833,4.5,3.833s-0.166-2.917-0.166-3.75
		s-1.584-1.917-1.584-1.917"/>
	<path fill="none" stroke="#000000" stroke-width="0.75" d="M152.627,77.874c0,0,1.25,2.75,4.125,4.625s9.5,5.625,11,6.25
		s1.5,0.625,1.5,0.625s-1,1-1.625,1.375s2.25,0.125,2.25,0.125s2.625-0.125,4.875-0.5s2.25-0.375,2.25-0.375l0,0
		c0,0-2,2.375-2.875,3.375s-1.875,1.625-1.875,1.625s2.125,0.25,4.125-0.25s5.25-1.25,7.75-2.25s6.125-3.25,6.125-3.25
		s-2.5,5.25-3.125,6s-2.625,2.625-2.625,2.625s6.25-1.25,9.5-2.25s5.875-2.125,5.875-2.125s-0.25,1.25-2.125,3.125
		s-2.375,2.25-2.375,2.25s4.375-0.375,6-1.5s2.875-2.375,2.875-2.375s0,2.5,0.125,3.5"/>
	<path fill="none" stroke="#000000" stroke-width="0.75" d="M185.377,185.874l-1.25-0.5c0,0,2-2.125,3.75-4s3.625-2.625,5-3
		s11.75-0.75,11.75-0.75s3.375-5.375,4.875-8.25s3.875-8.875,5.125-12s3.625-13.5,3.625-13.5s-3.875-1-6.125-1.875
		s-6.375-2.375-9.625-4.125s-5.125-3.75-7.5-6.25s-4.25-5.875-4.625-7.375s0.125-8.125,1.75-11.75s4.75-7.375,7.125-9.875
		s6.125-5.25,9.125-7s7.5-2.75,8.125-2.625l-2.875,3.75c0,0,2.125-0.25,6.25-1s10-1.125,10-1.125h0.625c0,0-3.875,1.625-5.375,2.75
		s-2.625,1.75-2.625,1.75s3.25-0.375,5.75,0s3.625,0.625,5,1.5s4,3.25,4.25,5.125s0.25,1.875,0.25,1.875"/>
	<path fill="none" stroke="#000000" stroke-width="0.75" d="M193.252,186.999c0,0-2.75,0.25-4.625,0.25s-3.25-0.75-3.25-0.75
		s1.5-2.25,3.25-3.875s4.125-3,4.125-3"/>
	<path fill="none" stroke="#000000" stroke-width="0.75" d="M198.377,182.124"/>
	<path fill="none" stroke="#000000" stroke-width="0.75" d="M198.377,182.124c0,0-5.5,5.125-5.5,5.625s2.375-0.25,5.125-0.25
		s6.875-0.5,8.5-0.875s3-1,3-1s3.5-5.875,6.625-10.125s7.375-10.75,10.25-13.5s14.25-14.375,14.25-14.375s-2.5,0.25-5,1.125
		s-4.875,1.375-4.875,1.375l8.25-7.75l-7.875-10.375c0,0,2.625-5.375,4.125-10s2.375-9.25,2.5-11.125"/>
	<path fill="none" stroke="#000000" stroke-width="0.75" d="M232.252,99.749c0,0,2.75-1,6.125-2.625s7.875-4.5,10-7.375
		s5.25-6.625,8.875-10s10.125-7.375,13.125-8.5s6.625-2.5,9.375-3s5.875-0.75,5.875-0.75s-3.875,2.375-5.375,3.875s-1.5,1.5-1.5,1.5
		l0,0c0,0-0.5,0.125,3.25,1s3.125,0.625,8,3.25s5.375,4,7.5,6.5s2.875,6.625,3.375,9s0.375,8.375,0.375,8.375s-3-3.625-4-5
		s-2.375-2.75-2.375-2.75s1.375,2.75,1.75,5.375s1.5,10,0.875,15s-2.25,9.875-5.125,13s-8.75,7-11.25,9s-7.25,4.25-7.25,4.25
		s1.75-3.625,3-7.375s2-9,1.875-11.125s-4-10.375-5-11s-1-0.625-1-0.625l-0.625-0.25c0,0-0.5,10.25-0.75,11.375
		s-0.25,1.125-0.25,1.125s-3-7.25-4.25-9.25s-2.625-3.125-4.125-3.75s-4.5-1.375-6.625-1.125s-5.5,1.375-5.5,1.375l6,11.125
		c0,0-9.5-4-11.375-4.625s-7.5-1.75-7.5-1.75"/>
	<path fill="none" stroke="#000000" stroke-width="0.75" d="M150.252,129.499c0,0,1.5,9.875,2.25,12.5s2.25,7.875,2.25,7.875
		s-4.125,11.5-5.125,13.5s-4.75,11-4.75,11s-4.25-0.5-6.625,0s-7.125,2.375-8.875,3.75s-4.5,4.25-4.625,4.875s0.625,1.125,1.125,1.5
		s2.625,0.375,2.625,0.375"/>
	<path fill="none" stroke="#000000" stroke-width="0.75" d="M134.752,185.999c0,0-3.25,0.375-5.125,0s-1.375-1.875-1.375-1.875
		s0.75-1.5,2.25-3.125s4.5-2.625,4.5-2.625"/>
	<path fill="none" stroke="#000000" stroke-width="0.75" d="M140.877,179.874c0,0-2.75,1.75-4,3.125s-3.125,4.125-2.125,4.25
		s6.375-0.125,6.375-0.125s7.625-1.125,9.25-2s6.375-10.125,6.375-10.125s3.25-8.25,5.125-9.625s14.75-8.75,14.75-8.75
		s-4.625-3-4.875-2.625s5.375-0.125,5.375-0.125s-1.375-0.75-2.375-3.375s-1.625-4.875-1.75-6.625s-0.5-8.875-0.25-10"/>
	<path fill="none" stroke="#000000" stroke-width="0.75" d="M131.502,134.374c0,0,2.125,5.625,2.625,9s1.625,7.25,1.625,7.25
		s-3.875,8.75-5.25,12.5s-3,7.5-3,7.5s-6.125,0.375-8.625,1.125s-5.875,2.625-7.25,4s-2.875,3.125-2.875,3.125
		s1.875,1.5,2.625,1.625l0.75,0.75"/>
	<path fill="none" stroke="#000000" stroke-width="0.75" d="M118.502,174.749c0,0-2,0.625-3.5,2.125s-3.5,4.875-3.5,4.875
		s0.875,0,3,0.25s10.375,0.25,10.375,0.25"/>
	<path fill="none" stroke="#000000" stroke-width="0.75" d="M118.252,181.999c0,0,3.375-4.5,4.375-5"/>
	<path fill="none" stroke="#000000" stroke-width="0.75" d="M136.127,175.124c0.125-0.5,1.75-4.625,2.75-6.25
		s3.125-5.625,3.125-5.625l10-5.75l0.25-3.25"/>
	<path fill="none" stroke="#000000" stroke-width="0.75" d="M150.502,154.249"/>
	<path fill="none" stroke="#000000" stroke-width="0.75" d="M151.002,143.499c0,0,1.25,4.5,1.625,5.75s1.5,2.75,1.5,2.75"/>
	<path fill="none" stroke="#000000" stroke-width="0.75" d="M176.127,152.499c0,0,2.875-0.125,4.25-1s2-1.375,2-1.375l-2.375-2.25
		c0,0,3.5-0.625,5.75-1.125s8.125-3,8.125-3l-3.125-1c0,0,3.875-1.75,5.125-2.75s3-3.375,3-3.375l-2.75-0.375l1.875-0.875"/>
	<path fill="none" stroke="#000000" stroke-width="0.75" d="M192.627,141.874l0.75,2c0,0-1.125,6.625-1.875,8.875
		s-4.75,12.375-6,14.875s-4.625,7.5-4.625,7.5s-3.375-0.375-6.25-0.25s-5.25,0.125-6.875,1.5s-5,5.625-5,5.625l1.875,0.375"/>
	<path fill="none" stroke="#000000" stroke-width="0.75" d="M169.877,177.249c0,0-5.875,5-5.5,5.5s4.5,0.375,4.5,0.375l2.375-0.125"
		/>
	<path fill="none" stroke="#000000" stroke-width="0.75" d="M175.502,178.874c0,0-2.75,2.125-3.5,3.125s-1.25,2.25-1.25,2.25
		s6.125,0.25,8.25-0.125s6.125-1.75,6.125-1.75s3.25-4.625,5.75-8.125s7.875-11.5,10.75-14.25s11.875-12,11.875-12l-8.5,1.875
		c0,0,2.5-2.25,4.25-3.875s3.625-3.75,3.625-3.75"/>
	<path fill="none" stroke="#000000" stroke-width="0.5" d="M148.627,2.249c0,0,1.625,7.875,1.75,10.5s0.5,5.75,0.375,10.25
		s-1.75,9.375-2.75,11.875s-3,5.375-3,5.375"/>
	<path fill="none" stroke="#000000" stroke-width="0.75" d="M104.396,48.764c-0.16-1.084-0.366-2.168-0.311-3.266
		c0.024-0.468,0.122-0.915,0.252-1.348c0.053-0.33,0.13-0.653,0.235-0.969c0.005-0.425,0.054-0.85,0.191-1.262
		c0.083-0.25,0.167-0.5,0.25-0.75c0.245-0.735,0.639-1.382,1.123-1.934c-1.518-3.787-5.399-6.487-9.968-6.487
		c-5.891,0-10.667,4.477-10.667,10s4.776,10,10.667,10c3.343,0,6.307-1.458,8.262-3.714
		C104.417,48.944,104.405,48.854,104.396,48.764z"/>
	<ellipse fill="#0092FF" cx="109.627" cy="46.957" rx="5.125" ry="5.208"/>
	<ellipse fill="#0092FF" cx="89.961" cy="43.291" rx="3.958" ry="3.625"/>
	<ellipse fill="#00426B" cx="109.044" cy="47.041" rx="2.125" ry="2.042"/>
	<ellipse fill="#00426B" cx="89.378" cy="43.291" rx="1.458" ry="1.375"/>
	<ellipse fill="#FFFFFF" cx="111.919" cy="44.166" rx="1.333" ry="1.25"/>
	<ellipse fill="#FFFFFF" cx="107.419" cy="49.416" rx="1" ry="0.917"/>
	<circle fill="#FFFFFF" cx="91.336" cy="41.416" r="1.083"/>
	<ellipse fill="#FFFFFF" cx="87.753" cy="44.957" rx="0.667" ry="0.542"/>
</g>
<g id="frame_2">
	<path fill="#E7EDF2" d="M108.502,18.832c0,0,0.25,12.75,0,15.5s-1.5,12.25-2,13s3.75,4,3.75,4l9,6.25l0.25-18l-2.25-9.75
		l-4.75-8.25L108.502,18.832z"/>
	<path fill="#E7EDF2" d="M72.252,34.332c0,0,1.75,1.5,2.75,3s3,5,3.5,6s1.75,3,2,4s1.25,3.75,1,4.75s-0.25,3.5-0.25,3.5l16.5-5.5
		l-2.75-4.25l-4.25-5.75c0,0-2.25-0.5-3.75-1.5s-5.5-2.75-5.5-2.75l-5.75-1.25L72.252,34.332z"/>
	<path fill="#E7EDF2" d="M70.502,63.082l2.75,4l-1.5,12.5l-3,4.5l-14.75,11.5l-11.75,6.25l-0.75,5.25c0,0,0.5,3.75,0.75,4.75
		s0.75,3.25,0.75,3.25l0.5,1.75c0,0,1.25,0.75,2.25,0.75s2.25-0.5,2.25-0.5s-0.25,1,0.75,1.5s2.25,0.75,3,1s0,0.5,0.75,1.75
		s0.5,2.25,1.75,2.75s-1.5-0.5,1.25,0.5s3.5,0.5,6.25,0.5s5.75,0.75,7,0s5-2,5-2l2-1.25c0,0-0.25,1.5,0.75,3.25s2.5,3.75,3.25,4.25
		s2.5,0.5,2.5,0.5l1-1.75c0,0,0,0.25,1.25,0.75s2.5,0.25,2.5,0.25l1.25-1c0,0-0.5-2.75-0.5-3.5s2.5-0.75,2.5-0.75l3-0.25l2.5-1
		l-1.25-2l-1-1.75c0,0,0.25,0,2.5-3.25s6.25-9,7-11.25s3-6,3-6s0.75,0.75,3,0.5s4.25-0.25,5.25,0.5s3.25,2.75,3.25,2.75l0.75,12.25
		l2,0.25c0,0,0,1-1,2.25s-3,3.5-3,3.5s0,0.5,2.25,0.25s3.5-1.25,3.5-1.25s-0.5,0.5,0,3s0.75,3.75,2,5.75s1.5,2.75,3,3.5
		s6.5,2.75,6.5,2.75l4.75,3.25l6.75,2.5l5.25,2.5l2.25,1.25l-2.75-5.75l2.5,1.75l3.25,8.75l-10.25,25.25c0,0-3.5-0.75-5.75,0
		s-5,0.75-6.5,2s-2.5,0.75-4.25,2s-4.75,4.5-4.75,4.5s0.25,0.5,1.5,1.25s2.75,0.5,2.75,0.5l1.75,0.5l3.5,0.25l1.5,0.5h7.25l5-2
		l5.25-8l4-10.75c0,0,5.75-4.25,6.5-4.5s4.5-3,4.5-3l-5-4.5l4.75-1.25l1-8.25l1-5.75l2.25-6v6l0.75,11.5c0,0,1,2.75,2.5,2.75
		s4.75-1,4.75-1l2.75-1.5l-2-2.75c0,0,3-0.5,4.25-0.75s6.75-2.25,6.75-2.25l-1-1.75c0,0,1.25-1.25,3-2s7-3,7-3l5,3.75l5.25,1l8,2
		c0,0-2.5,8.75-3.25,10.75s-3,8.25-4.25,11s-4,6.5-4.75,8.5s-1.75,3.5-1.75,3.5s-6.5,0-8,0s-5.5,0.75-5.5,0.75s-3.5,2.5-4.25,3.5
		s-3.25,3.25-3.25,3.25s0.75,1,2,1.25s5,0,5,0l2.75-0.25l-0.75,1.25c0,0,4.75,0.25,5.75,0s6-1.5,6-1.5s2.75-2.25,3.25-3
		s7.75-14,7.75-14l7.5-7.25l5.25-6.5l-1-6l5.25-8.5l-5.5-5.75l1-6l5.5-7.25l2.75-4l5-3.5l15,6l-5.25-11.5l7.5-1l5.5,1.5
		c0,0,2.25,1.25,4,4.25s3.75,8,3.75,8l1.5-12c0,0,1.25-0.25,2.25,2.75s2.25,4.75,2.5,7.25s1,6.25,0.5,7.75s-0.75,2.75-1.25,5
		s-3.5,7.5-3.5,7.5s0.75,0.75,5.75-3.75s10.75-13.75,10.75-13.75l2.25-15.75l-3.25-7.5l-4-7.25c0,0-6.75-1.25-7.5-0.75
		s-11.25,0.75-12,1.25s-11.75,3.75-12.5,4s-15.5,3.25-15.75,4.25s-13.5,4.5-14.25,5.25s-23-1.5-23-1.5s-21.25,3.5-22,3.25
		s-10.75-5-11.5-5.5s-18.25-10.5-18.75-11.25s-6.75-9-6.75-9s-7-9.75-8-9.5s-9.5-5.5-10.75-5.5s-5.75-7-5.75-7
		s-10.25-11-11.25-10.75s-15.25,4-15.25,4l-12.75,6.5l-5.5,4.25"/>
	<polygon fill="#BF0404" points="66.252,114.082 64.002,117.832 67.752,118.082 69.252,116.332 	"/>
	<path fill="#A1A5A9" d="M235.836,117.165c0,0-3.167,1.999-4.5,2.833s-5.166,3.334-6.333,4.667s-2.834,3.667-2.667,6
		s0.001,3.499,1.667,6.333s4.333,5.667,4.333,5.667l-6.333,9.333l2.5,0.334c0,0-5.001,5.333-6.834,8.333s-5.999,10.667-6.666,12.167
		s-7.334,13.167-7.334,13.167l5.5-0.5c0,0,6.334-9.834,7.334-11.667s5.166-7.501,6.833-9.667s9.167-10.666,10.667-11.833
		s6.166-5.667,6.166-5.667l-9,2.667l7.667-7.333l-8.333-11.334c0,0,3.5-8.499,4.5-9.833S235.836,117.165,235.836,117.165z"/>
	<path fill="#A1A5A9" d="M172.336,138.832c-0.167-0.667,0.833-8,1-8.667c0,0-2.167,0.667-3.5,2.167s-2.5,3.832-3,6.166
		s-1,12.5-1,12.5l-6.333,0.334l4.666,5.333c0,0-3.166,0.667-4.833,1.5s-3.167,2.5-4.5,4.5s-2.167,3.667-3,6
		s-1.166,4.499-1.833,6.833s-1.167,4.166-2.167,5.5s-6,5-6,5l9.167-2l10.333-19.166l15.667-8.834l-5.667-2.666l6-0.167
		c0,0-2.666-1.501-3.333-3.167s-1.667-6.666-1.667-6.666V138.832z"/>
	<ellipse fill="#FFFFFF" cx="96.69" cy="70.77" rx="14.188" ry="12.563"/>
	<ellipse fill="#FFFFFF" cx="75.127" cy="75.895" rx="10.375" ry="10.813"/>
	<path fill="#FFFFFF" d="M38.877,103.832c0,0,3.875-4.75,4.875-5.125s7-2,7-2h2.875l-8.625,6.125l4.875,2.125l3.125,0.625
		l-1.625,2.375c0,0-5.375-1-7.25-1.25s-5.125-1.625-5.125-1.625"/>
	<path fill="#737679" d="M71.003,61.832c0,0,4-0.166,5.167,0.167s5.333,0.5,5.333,0.5s2.167-2,4.5-3.667s6.833-4.166,8.167-4.833
		s4.667-1.667,5.667-1.667s4.167-0.167,6,1.333s5.666,5.667,6.833,7.833s6.833,16.667,6.833,16.667l-16.5,8.167
		c0,0,6.667-1.334,10.833-1.167s5.333-0.167,9.833,1.833s7,3.667,8.5,5.667s3.708,5.042,3.708,5.042s-0.041-2.875-1.375-5.375
		s-4.833-7.834-4.833-7.834s2.166-0.333,5,1.167s6.667,3.5,6.667,3.5s-0.333-2.334-1.333-3.667s-2.5-3.666-2.5-3.666
		s3.666,3,4.666,4.333s1.668,2.999,2.334,4.833s1.166,3.167,0.833,6.167s-0.167,2.499-1.167,5.333s-1.667,3-2,5
		s-0.333,5.668,0.167,7.834s3,7.166,3,7.166s-0.667-2.166-0.167-4.666s2.167-4.334,2.167-4.334s1.333,5.833,2.833,7.5
		s5.501,4.833,6.834,5.5s4.166,1.834,4.166,1.834s-1.5-2-1.5-2.667s1.168-0.001,3.334,0.833s4.667,0.834,6.5,0.834
		s3.5-0.167,3.5-0.167s-3.668-2.666-3.834-3.333s-0.166-1.667-0.166-1.667s1.167,1,4,1s3.833,0.499,7.333-0.667
		s7.501-2.332,10.167-3.166s5.999-1.834,9.666-2.334s3.166-0.999,7.5-0.666s9.334,1.332,10.667,1.666s4.333,1.667,4.333,1.667
		s-1.166-3.001-2.166-4.667s-1.834-3.5-1.834-3.5s0.666-0.832,3-0.166s5.001,1.332,7.334,2.666s7,4.167,7,4.167
		s1.667-1.333,1.5-2.833s0.666-7.667,0.333-8.667s4.833-1.166,8.833-1.833s7.334-0.834,8.834-1.167s4-0.333,4-0.333
		s-2.5-1.5-3.667-2s-3.5-1.667-3.5-1.667s0.001-0.833,3.167-1.333s2.833-0.668,6.833-1.334s2.668-0.833,6.834-0.833
		s5.332,0.167,8.166,1.167s5.334,2.5,5.334,2.5l1,0.166c0,0-0.167-1.999-0.667-3.166s-2.333-4.667-2.333-4.667
		s1.834,1.166,3.5,3.833s2.666,4.168,3.166,6.834s1.334,5.667,1.167,8.5s0,4.999-1,8.166s-2.167,5.501-3.5,7.834
		s-2.833,3.999-4.333,5.666s-6.334,6.167-6.334,6.167s3.5-0.834,6.5-2.667s8.001-5.999,10.834-9.166s5.166-6.334,5.833-8.334
		s1.499-5.999,1.333-9.166s-0.166-7.334-0.666-8.834s-1.5-5.5-2-6.333s-0.5-2.667-0.5-2.667s0.667,0.166,2.5,2.5
		s3.833,5.667,3.833,5.667s0.167-5-0.333-7.5s-0.668-6-1.834-8s-4.5-6.167-5.5-6.667s-5.167-3.167-6.5-3.333
		s-4.666-1.167-5.666-1.167s-3.667-0.833-3.667-0.833l8.667-6.167c0,0-7.5,0.666-9.667,1.333s-7.168,2.333-8.834,3.5
		s-7.5,4-8.833,5.667s-7.167,7.668-8.167,8.834s-6.5,7.333-7.333,7.833s-2.499,1.333-4.333,2.5s-5,2.333-6.167,2.833
		s-5.167-0.333-6-0.333s-3.667,0.167-3.667,0.167s1.833-2.001,3-2.834s4.167-2.166,4.167-2.166s-3.833,0.166-4.833,0.166
		s-3.668,0.168-5.334,0.834s-6.666,2-6.666,2s0.833-1.833,1.5-2.5s1-1.334,1-1.334s-6.333,1-7.833,2.167s-3,2.333-3,2.333
		l-1.167-3.333c0,0-1.333,1.001-2.333,1.667s-5.667,2-5.667,2l3.5-4.667l-15.166,3.5c0,0,2.332-1.667,3.166-3
		s2.334-4.167,2.334-4.167s-2.666,1.834-4,2.834s-3.167,1-6.167,1.5s-6.667,0.666-6.667,0.666l3.833-5.833c0,0,0,0.833-3.5,1.5
		s-6.5,0.333-6.5,0.333l2.334-1.833c0,0-7.833-3.834-10.5-5.667s-10.666-7.333-12.5-8.5s-10.833-6.5-10.833-6.5s1.667-1.834,2.667-2
		s2.834-0.167,2.834-0.167h0.833c0,0-5-3.5-6.167-3.833c-1.167-0.333-3.833-1.167-4.667-1.167s-5.333,0-5.333,0
		s1.167-1.167,1.5-3.333s0-8.833-0.833-11.167s-2.333-7-3.5-10.167s-3-7.667-5-10.167s-9-8.167-9-8.167l-0.667-0.667l3.167,5
		c0,0,2.333,3.667,3.333,6s3.167,7.167,3.333,8.167s1,4.333,1.167,5.667s0.667,6.167,0.667,6.833s0.167,5.333,0,5.833s-0.5,3-0.5,3
		l-8.167-7.667l-3.667-2.667c0,0-6.5,0.667-8.833,1.333s-6.167,1.5-7.667,2.333s-4.833,1.167-7.333,2.5s-5.5,3.5-6.833,4.167
		s-5.167,3.5-5.167,3.5"/>
	<polyline fill="#737679" points="108.67,17.832 115.67,31.166 117.17,30.332 112.17,20.666 	"/>
	<polygon fill="#737679" points="121.003,46.999 117.837,57.832 120.503,58.832 	"/>
	<path fill="#737679" d="M131.337,133.832l4,15.333l-7.667,21.5c0,0-4.5-0.666-5.667-0.333s-4.5,1.667-5.833,2.5
		s-4.667,2.334-5.333,3s-1.5,2.666-1.5,2.666s-0.333,1.167,1.833,1.667s4.833,0.833,6.333,1s6.5,0.167,6.5,0.167s1.333-0.666,3-2
		s3.5-2.833,4.5-3.5s4.167-1.667,4.167-1.667l6.167-12l10.166-5.5l-2.5-4.333l3.5,1l1-1.5c0,0-1.5-3.334-2-4.667
		s-1.5-5.167-1.5-5.167s-4.332-3.334-5.666-4s-8.167-3.333-8.167-3.333l-5.5-1.5"/>
	<path fill="#737679" d="M193.503,139.665c0,0-0.666,5.334-0.833,6.667s-1.667,5.332-2.167,7.166s-2.167,6.5-2.667,7.5
		s-6.833,13-6.833,13s-4-0.167-5,0s-4.667,0.168-5.167,0.334s-3.499,0.833-4.166,1.833s-4.167,4.833-4.167,4.833l1.333,0.5
		l-0.833,0.5l5.333,1c0,0,5,0.334,6.167,0.334s2.167,0.334,3.5,0s4.833-1.334,4.833-1.334l2.334-1c0,0,0.5-1,2.5-4
		s4.666-6.5,5.666-7.833s8.834-10.499,9.834-11.833s10.5-10.834,10.5-10.834l-9,2.167l7.833-6.667c0,0-3.334-1.499-5.667-2.666
		s-5.833-3.167-6.833-3.667s-2-1.167-2-1.167l-2,0.5l2.667,0.667c0,0-1.334,1-2.167,2S193.503,139.665,193.503,139.665z"/>
	<polygon fill="#737679" points="144.837,137.998 148.503,139.665 150.67,142.665 149.336,143.332 	"/>
	<polyline fill="#737679" points="126.503,80.665 132.337,87.665 134.503,92.332 131.837,90.998 	"/>
	<path d="M56.252,95.957c0,0-2.5,1-5.375,2.25s-5.375,2.75-6.375,3.375s-1.5,1-1,1.75s1.75,1.75,2.75,1.875s4.375,1.125,4.375,1.125
		l1.75,0.5l4.5-4.5l3.625-5.5l1-1.5h-4.75"/>
	<path d="M54.377,95.707c-0.375,0.125-6.375,2.5-7.625,3.5s-3.375,3.125-3.375,3.125l8.125-2.625l3.875-3L54.377,95.707z"/>
	<path d="M62.877,112.082v6.25l2.625,0.5c0,0-0.625-0.125-0.25-1.5s1.875-2.625,1.875-2.625L62.877,112.082z"/>
	<path fill="none" stroke="#000000" stroke-width="0.75" d="M72.252,65.832l-2.25-3c0,0,9.5-7.5,13-9s12.25-4.5,14.5-5
		s9.25-1.25,9.25-1.25s0,0,1-5.75s0-24.25,0-24.25s3.875,1.625,7.5,5.875s6.25,9,7.25,11.625s4,12.25,4.375,14.875
		s0.125,6.375-0.375,8s-0.875,3-0.875,3s1.125-0.125,4.25,0s4.75,0.625,6.75,1.5s4.625,3.125,4.625,3.125s-3.125,0.625-5.625,1.75
		s-4.375,2.625-4.375,2.625s0.25-0.125,3.125,1.625s7,6.5,7,6.5h-6.25"/>
	<line fill="none" stroke="#000000" stroke-width="0.75" x1="68.877" y1="84.582" x2="51.877" y2="96.207"/>
	<path fill="none" stroke="#000000" stroke-width="0.75" d="M51.002,108.332c0,0-2.75-0.75-6-1.25s-6.25-1-6.25-2.75s2.5-4.5,5.5-6
		s9.5-3,11.75-2.75s5.5,0,5.5,0s-1,1.75-3.25,5S51.002,108.332,51.002,108.332z"/>
	<path fill="none" stroke="#000000" stroke-width="0.75" d="M41.502,106.582c0,0-0.25,3.25,0.5,5.25s1.25,4.5,1.25,4.5
		s2.5,0.75,4.25,0.5s3-1,4-2.25s1.5-2.5,1.5-2.5l-2-3.75"/>
	<path fill="none" stroke="#000000" stroke-width="0.75" d="M62.752,112.082l0.25,6.25c0,0,3.5,0.25,4.75-0.25s1.25-1,1.5-1.75
		c0.18-0.54-3.273-2.508-5.218-3.566C63.28,112.355,62.752,112.082,62.752,112.082h-9.75"/>
	<path fill="none" stroke="#000000" stroke-width="0.75" d="M132.377,76.707c0,0,2.125,1.375,4.25,4.125s4.5,8.125,4.5,8.125
		s-5.5-2.625-6.875-3.25s-4-0.875-4-0.875s1,1.125,2.75,3.625s2,5.25,2.375,6.875s0.5,2.375,0.5,2.375s-2.5-1.375-5.375-2.375
		s-6.25-2.125-8.25-2.5s-4-0.75-4-0.75l5.625,8.625c0,0-4.5-1.5-7.625-1.75s-10.875-0.375-10.875-0.375s-2.375,6.625-3.375,8.625
		s-1.875,3.875-3,5.125s-2.875,3.375-3.625,4.25s-2.125,1.875-2.125,1.875s0.875,1.625,1.625,2.5s1.5,1.25,1.5,1.25
		s-0.375,0.375-1.625,1.125s-5.625,1-5.625,1l-1.25-0.25l0.375,4.125c0,0,0.125,1.125-1.375,1.25s-4.25-2-4.25-2l-1.5-2.25"/>
	<path fill="none" stroke="#000000" stroke-width="0.75" d="M47.502,116.832c0,0,0.5,1.75,2.25,2.375s2.75,1.125,2.75,1.125
		s0,2.375,0.875,3.375s1.75,1.5,3.375,1.75s8.875,0.125,10.5,0.125s6.5-2.25,7.5-3s1-0.75,1-0.75s1.5,4.75,2.5,5.5
		s2,2.375,2.875,2.5s1.75-1.75,1.75-1.75"/>
	<path fill="none" stroke="#000000" stroke-width="0.75" d="M120.252,114.332l-2.125-0.375l-0.5-11.875c0,0-5-3.125-5.375-3.25"/>
	<path fill="none" stroke="#000000" stroke-width="0.75" d="M122.752,110.082"/>
	<path fill="none" stroke="#000000" stroke-width="0.75" d="M122.752,110.082c0,0-2,3.625-2.625,5.125s-2,3.875-3.25,4.875
		s-1.25,1-1.25,1s2.75,0.125,4.375-0.375s2.125-0.5,2.125-0.5"/>
	<path fill="none" stroke="#000000" stroke-width="0.75" d="M122.002,118.082c0,0-0.75,4.5,0,6.75s0.75,2.25,0.75,2.25
		s1.5,3.625,5.5,5.5s2.375,0,9.25,2.5s10,3.5,12.125,5.625s3,3.75,3,3.75s-0.25-4-0.875-4.5s-2-1.625-2-1.625"/>
	<path d="M87.127,76.707c0-0.375-0.5-0.625,0.875-2.625s1.75-2.625,3.125-3.375s3.75-0.625,4.75-0.375s4,2.375,4.5,3.125
		s1,2.25,1,2.25s-1.25-1.25-2.25-2s-2.625-2-3.625-2.125s-2.916-0.25-3.833,0.333s-2.333,1.5-2.75,2.167s-1.5,2.167-1.5,2.167"/>
	<path d="M69.919,79.249"/>
	<path d="M69.919,79.249c0,0,0.228-0.271,0.564-0.667c0.701-0.825,1.873-2.187,2.436-2.75c0.833-0.833,2.333-1.083,3.583-1.167
		s1.917,0.167,2.917,0.417s2.167,1.334,2.833,1.917s1.25,1.75,1.25,1.75s-1.25-0.666-2.167-1.333s-1.917-1.5-2.667-1.667
		s-1.5,0-2.25,0.083s-1.083-0.25-1.833,0.25"/>
	<path fill="none" stroke="#000000" stroke-width="0.75" d="M127.669,184.332c0,0-1.5,0-2.167-0.167s-1.667-1.333-1.667-1.333
		s2.167-2.834,3.167-3.667s3.833-2.333,5.667-3.5s5.333-1.667,7.667-2s4.666-0.333,4.666-0.333l10-24.5
		c0,0-3.333-9.834-3.833-13.167s-1.5-7.5-1.5-7.5"/>
	<path fill="none" stroke="#000000" stroke-width="0.75" d="M134.669,177.498c0,0-4.167,3-5,4s-2.167,3.833-1.167,4s6-0.166,6-0.166
		"/>
	<path fill="none" stroke="#000000" stroke-width="0.75" d="M140.836,179.498c0,0-2.166,0.834-3.5,2.667s-3.167,4-3.167,4
		s4.999,0.167,7.333,0s8-1.667,9-2s1-0.333,1-0.333l9.5-19.167l16-8.5l-5.666-3h5.666c0,0-2.833-2.333-3.333-4.5
		s-0.999-2.166-1.333-5.833s-0.167-9.834-0.167-9.834"/>
	<path fill="none" stroke="#000000" stroke-width="0.75" d="M97.502,48.832c0,0-3.167-5-4.667-6.333s-3.833-3.167-6.333-4.5
		s-7.833-2.833-9-3.167s-6.167-1.167-6.167-1.167s2.333,2,3.667,3.667s3,4.333,3.667,6.5s2.5,7.667,2.667,8.667s0.333,2,0.333,2"/>
	<path fill="none" stroke="#000000" stroke-width="0.75" d="M134.669,67.666c0,0,5.667,3,10.167,6.167s10.333,7.168,13.333,8.834
		s8.501,5,9.667,5.333s1.166,0.333,1.166,0.333l-2.166,1.834c0,0,2.833,0.166,4.333,0.166s5.667-1,5.667-1l-3.834,4.833
		c0,0,1.833,0.5,4.333,0s4.834-0.5,7.167-1.5s5.333-3.333,5.333-3.333s-2.166,3.333-3.166,4.833s-2.5,2.834-2.5,2.834l14.833-3.834
		l-3.166,4.5c0,0,1.666-0.166,3.333-0.833s4.833-2.833,4.833-2.833l0.334,2.833"/>
	<path fill="none" stroke="#000000" stroke-width="0.75" d="M175.836,150.832c0,0,2,0.666,3.5,0.333s3-1.333,3-1.333l-2.334-3
		c0,0,3.333-0.667,5.5-1s7-3,7-3l-2.5-1.333c0,0,3.166-1.334,5-2.334s3.667-3.5,3.667-3.5l-2.833-0.5l2.166-1"/>
	<path fill="none" stroke="#000000" stroke-width="0.75" d="M184.835,184.999l-1.166-0.167c0,0,2.5-2.667,3.666-4s3.5-2.333,4.334-3
		s3.333-0.5,5.666-0.5s7,0.167,7,0.167s3.334-6.167,4.5-8.167s4.334-9.667,5.5-13.333s3.834-13,3.834-13s-3.667-0.667-6.167-1.5
		s-5.5-2-9.333-4.334s-5.5-4.166-8.833-7s-3.5-5-4.167-8.666s0.5-7.334,2-10.334s3.167-5,5.833-7.833s8-6.833,10.834-8.333
		s7.666-2.334,7.666-2.334l-2.667,4.001c0,0,0,0.332,3-0.834s6.333-2,7.5-2s6.667-0.166,6.667-0.166s-3,1.499-4.5,2.666
		s-3.167,2.167-3.167,2.167s1.001-0.167,4.334,0s3.5-0.166,5.333,1.167s3.001,2.5,3.667,4s1.166,3,1.166,3"/>
	<path fill="none" stroke="#000000" stroke-width="0.75" d="M192.335,179.499c0,0-2.999,1.666-4.166,2.833s-3.334,3.5-3.334,3.5
		l4.334,0.333l4.333-0.333"/>
	<path fill="none" stroke="#000000" stroke-width="0.75" d="M198.169,180.999c0,0-1.334,1.167-2.667,2.5s-2.5,3.333-2.5,3.333
		s1.666,0.167,4.333,0.167s6,0,7.667-0.5s4.333-1.167,4.333-1.167s5.668-10.167,7.334-12.167s6.166-9.166,8.666-11.666
		s4.501-4.667,6.834-6.834s7.833-7.833,7.833-7.833l-8.833,1.833l7.667-6.833l-8.334-11.167c0,0,0.501-1.666,2.334-5.333
		s3.666-7.666,4.166-9.5s0.334-6.834,0.334-6.834"/>
	<path fill="none" stroke="#000000" stroke-width="0.75" d="M231.836,98.999c0,0,1.334-0.001,5.834-2.167s7.332-4.666,9.666-7.333
		s9-10.5,11.5-12.5s5.833-4.334,9.833-6.167s9-3.167,11-3.667s6.334-0.667,6.334-0.667s-5.166,4-6.5,5s-1.334,1-1.334,1
		s0.833,0.5,5.167,1.333s4.834,1.167,7.834,2.833s6,4.833,7.333,7.5s1.999,7.168,2.333,9.834s0.167,6.166,0.167,6.166
		s-2.667-4-3.5-5s-3.333-3.166-3.333-3.166s1.666,3.334,2.666,7.5s0.999,7.501,0.833,10.667s0,6.333-1,8.833
		s-2.333,4.166-4.333,6.833s-2.166,2.501-5.833,5.667s-6.001,5-7.834,6s-5,2.166-5,2.166s2.166-5.167,3-7.5s1.334-6.499,1.334-8.666
		s-0.334-6.833-0.834-8s-4-5.334-4-5.334l-2,10.667c0,0-2.5-5.833-3.333-7.333s-3.334-4.5-5.167-5s-8.5-0.666-9.333-0.5
		s-2.833,0.333-2.833,0.333l6.166,12l-9.666-4.5c0,0-4.666-1.333-6-1.333s-3.5,0.5-3.5,0.5"/>
	<path fill="none" stroke="#000000" stroke-width="0.75" d="M193.503,140.499c0,0-1.166,7.166-1.833,9.833s-3.833,10.334-4.5,12.167
		s-6.333,11.666-6.333,11.666s-4.501-0.499-6.334-0.166s-3.832-0.333-5.166,0.5s-4.333,3.167-5,4s-2,2.333-2,2.333l1.5,0.5"/>
	<path fill="none" stroke="#000000" stroke-width="0.75" d="M175.67,178.165"/>
	<path fill="none" stroke="#000000" stroke-width="0.75" d="M176.503,177.999c0,0-3,2.333-4,3.333s-2,1.833-2,1.833
		s-2-0.166-3-0.166s-4.5-0.667-4.5-0.667s1.667-1.833,2.667-2.833s3.833-2.5,3.833-2.5"/>
	<path fill="none" stroke="#000000" stroke-width="0.75" d="M170.503,183.165c0,0,2.666,0.001,4,0.334s5.501-0.166,6.834-0.5
		s4-1.667,4-1.667s2.334-3.667,3.5-5.5s5-6.999,6.5-8.833s7.834-9.5,9.5-11.167s8.5-8.833,8.5-8.833l-8.667,2.166l8-7.166"/>
	<path fill="none" stroke="#000000" stroke-width="0.75" d="M131.17,133.332l4,15.833c0,0-3,8-3.167,9s-4.333,12.333-4.333,12.333
		s-5.833-0.166-7.333,0.334s-5.333,2.333-6.833,3.333s-4.667,3.667-4.667,3.667s0,1.834,2,2.5s5.833,1.166,7.667,1.333
		s6.5-0.167,6.5-0.167"/>
	<path fill="none" stroke="#000000" stroke-width="0.75" d="M110.837,180.332c0,0,1.667-2.501,3-3.334s4.167-2.666,4.167-2.666"/>
	<path fill="none" stroke="#000000" stroke-width="0.75" d="M118.503,181.665c0,0,1.833-3.5,2.333-4s2.5-2.167,2.5-2.167"/>
	<path fill="none" stroke="#000000" stroke-width="0.75" d="M107.752,17.582c0,0,2.917,4.583,4.751,8.416s3.167,4.833,4.333,8.5
		s2.166,6.334,2.333,8.667s0.5,5.167,0.333,7s-0.667,5.333-0.833,6.167"/>
	<path fill="none" stroke="#000000" d="M151.503,142.832"/>
	<path fill="none" stroke="#000000" stroke-width="0.75" d="M150.836,142.665c0,0,1,4.333,1.667,6s1.333,3.5,1.333,3.5"/>
	<polyline fill="none" stroke="#000000" stroke-width="0.75" points="153.336,153.498 150.003,152.998 152.003,155.832 	"/>
	<polyline fill="none" stroke="#000000" stroke-width="0.75" points="152.003,156.832 141.67,162.165 136.17,173.998 	"/>
	<path fill="none" stroke="#000000" stroke-width="0.75" d="M83.002,71.082c0,6.627,5.373,12,12,12h3.5c6.627,0,12-5.373,12-12v-1
		c0-6.627-5.373-12-12-12h-3.5c-6.627,0-12,5.373-12,12V71.082z"/>
	<path fill="none" stroke="#000000" stroke-width="0.75" d="M84.707,76.792c-0.71-0.759-1.125-1.998-1.21-3.154
		c-0.001-0.004-0.003-0.009-0.004-0.014c-0.036-0.114-0.066-0.228-0.099-0.342c-0.016-0.055-0.033-0.107-0.047-0.163
		c-0.436-1.561-0.593-3.046-0.189-3.97c-0.033-0.107-0.071-0.21-0.127-0.292c-0.064-0.096-0.083-0.188-0.085-0.276
		c-1.96-1.941-4.667-3.167-7.692-3.167c-5.983,0-10.833,4.701-10.833,10.5c0,5.799,4.85,10.5,10.833,10.5
		c5.02,0,9.223-3.315,10.453-7.806C85.271,78.146,84.962,77.459,84.707,76.792z"/>
</g>
<g id="frame_3">
	<path fill="#E7EDF2" d="M57.336,120.832c0,0,0.167-10,0.167-10.5s0.167-5.834,0.167-5.834l-2.833-6.666c0,0,6.5,3.666,6.833,4.166"
		/>
	<path fill="#E7EDF2" d="M68.502,108.582l1.75,2.125c0,0,3,4.625,2.875,5s0,4.75,0,4.75l-13.375,1.625l-2-0.625l0.25-14l-0.5-3.375
		l-2.125-4.875l-0.542-1.375c0,0,4.542,2.5,5.417,3.125s5.625,4.25,5.625,4.25L68.502,108.582z"/>
	<path fill="#E7EDF2" d="M84.002,121.707l7.125,12.125l1.125,2.625l5.5-7c0,0,1.875-9.625,1.875-10.125s-0.25-7.125-0.25-7.125l-1-7
		l-2-7.25l-1.75-3.125l-2.25,7.5c0,0-4.375,11.25-4.875,12.375S84.002,121.707,84.002,121.707z"/>
	<path fill="#E7EDF2" d="M44.502,128.957l-0.875-5.25l8,0.125l23.375-1c0,0,7.25,3.75,7.5,4.125s4.625,18.875,4.625,18.875
		l6.625-5.5l8-17.375l6.875,0.25l-0.125,1.875c0,0,3.875-0.875,4.375-1s3.625-0.125,3.625-0.125l-2.375,1.125l2.5,0.125
		c0,0,1,1.75,1.125,2.125s1.5,7.875,1.5,8.375s0.5,9.5,0.5,9.875s41.875-2.625,41.875-2.625l27.125-4.375l12.625,4.5l8.625-4.875
		c0,0,12.125-5.125,12.125-5.5s21.625-7.625,22-7.125s11.75-0.125,12.625,0.25s5.875,23.625,5.875,23.625l-2.25,13.375
		c0,0-7.375,7.125-7.75,7.375s-6.5,3.75-6.5,3.75s1.25-3.5,1.875-5.375s1.875-9.5,1.75-10.25s-0.875-5.5-0.875-5.5l-1.5-3.875
		l-3.375-3l-1.375,10.625l-5.25-8.5c0,0-2-3.25-2.625-3.625s-4.125-1.125-4.125-1.125l-8.125,0.5c0,0,5.625,11,5.5,11.375
		s-14.25-5.5-14.25-5.5l-5.5-0.125l-0.875,5.875c0,0-2.5,5.5-3,6.25s-2.375,2.875-2.375,2.875s2.875,3.875,3.625,4.5
		s6,3.625,6,3.625l9.625,3.75l-4,1.625l7.375,3.875l-8,0.375l3.25,3.875l-14.5-1.625l-9-1l-13.75,0.25c0,0-4.25,2.25-4.625,3.125
		s-2.25,4.625-2.25,4.625s-0.125,1.375-0.75,2.125s-4.25,1.875-4.25,1.875l-5.5,0.25l-9.25-0.25l0.625-0.75l-2.875-0.5
		c0,0,0.375-2.75,0.75-3.75s2.25-4.5,2.625-5.25s3.875-4.5,3.875-4.5l5.5-2.25l5.75-1.75l6.25-1l1.375-0.25l-4.5-2.25l-4.125-2.375
		l-2.125-2l-2.125,2.25l2.875,0.5c0,0-1,1.125-2,2.125s-6.375,3.875-6.375,3.875l3.25,1.125l-12.125,2.875l3.75,3.875h-8.625
		l1.375,2.875l-59.25-9c0,0-6.125,4.25-7.375,4.75s-13.875,1.875-14.5,2s-5.25-1.625-6.375-1.875s-2.25-2.125-2.25-2.75
		s1.125-3.875,2.5-5.125s6.125-4.375,6.625-4.625s-3.125-3-3.125-3s-1.625,2.375-2.625,3.75s-4.125,4.875-5.375,5.75
		s-9.75,6.25-9.75,6.25l0.75,4.625c0,0-2.125,0.5-2.875,0.5s-4.875-1.375-4.875-1.375s-0.5,1-0.625,1.5s0.25,2-0.25,2.25
		s-1.5,1-1.5,1l-2.75-0.125l-1.375-1.5l-0.375-0.875l-1.25,1.375l-1-0.125l-0.875-1l-0.75-1.5v-2.5l-0.125-2.75v-2
		c0,0-3,1.5-3.375,1.5s-5.875-0.625-5.875-0.625l-2.625-1l-3.875-1.125l-4.125-1.625l-2-1.375l-0.5-1.75l0.375-2l-0.25-2.375
		l-2.625-2.75l-2-1.125c0,0-1.375-0.25-1.5-0.625s-0.625-2.5-0.625-2.5l-0.25-6.25l1.875-2.625l11.75-6.25l20.5-5l9.25-11.875
		l0.75-3.25"/>
	<path fill="#737679" d="M94.836,95.332c0,0,1.167,4.167,1.5,6.5s1.167,6.834,1.333,9.167s0.167,7.667,0,9.5s-0.834,5-1.667,7.5
		s-4,5.5-4,5.5l-8-11.334c0,0-7.833-1.832-9.167-1.666s-19.667-0.334-19.667-0.334l-11.333,3.167c0,0,3.167,1,5,2
		s4.667,2.333,4.667,2.333s5-1.666,7.167-2.333s4.667-1.5,7.167-1.5s5,0,7.333,0.5s5.167,3.333,6.5,5.5s2.167,5.667,2.667,8.5
		s1.167,17.333,1.167,17.333l-19.167,2c0,0,7.667,1.166,11,2s4.5,1.668,6.833,3.334s4.833,4.666,4.833,4.666l4.5,0.667l-1.167-4.167
		l5,4.167l4.333,0.5c0,0-1.333-6.334-2-7.667s-2-2.833-2-2.833l9.667,5l-7.833-12.667c0,0,3.667-1.166,4.667-1.166
		s5.333,1.333,5.333,1.333s-4.833-6.499-5.333-6.833s-3.833-3-3.833-3l-3.667-0.5c0,0,2-1.834,3.167-3.667s1.667-3.334,2.167-5.667
		s0.833-7,0.5-10.5s-1.333-13.5-1.333-13.5s-3.333-8.834-3.833-9.667s-2.833-3-2.833-3"/>
	<path fill="#737679" d="M115.002,124.832c0,0,2.666,2.833,2.333,5.833s-0.667,4.833-2,7.5s-2.333,5.334-2,8.334
		s1.001,7.334,1.667,8.5s1.5,2.333,1.5,2.333s-0.166-1.999,0.5-4.833s1.833-3.334,1.833-3.334s0,3.167,1.5,5.667
		s3.333,4.501,5.5,5.667s7,4,7,4l-1.833-3.834c0,0,0.833,1.501,3.833,1.834s9.333-0.167,9.333-0.167s-3-1.501-4-3.167
		s-0.666-2.166,2.834-1.333s4.166,1.666,8.666,0.333s6.5-2.834,10.167-3.5s9.833-1.5,13.5-2s3-1.499,8.5-0.166
		s10.833,2.833,10.833,2.833s-0.834-3.167-2-4.5s-3-4.667-3-4.667s0.834,0.001,4.834,1.334s7.499,2.333,9.166,3.333
		s3.834,2.833,3.834,2.833s1.166-3.5,1.333-5s-0.167-6.5-0.167-6.5s10.667-1.666,13.667-2.333s8.833-1,8.833-1l-7.666-4
		c0,0,5.499-1.501,9.166-2.334s3.834-1.166,8.167-0.833s8,1.333,9.5,1.833s4.833,2.5,4.833,2.5s0-3.333-1-4.833
		s-1.166-2.5-1.166-2.5s2.334,2.167,4,5s3.166,10.167,3.166,13s-0.499,6.166-1.999,10.333s-2.333,5.001-4,7.834
		s-8.5,9.333-8.5,9.333s9.667-4.333,13.333-7.833s7.166-8.333,7.833-10s2.834-9,2.667-10.5s-1.167-9.667-1.167-9.667l-1.5-8.5
		l5.833,8.667c0,0-0.499-8.833-0.666-9.833s-1.833-8.001-3-8.834s-6.833-5.666-6.833-5.666l-8.5-3l-4.334-1.334l8.167-5.666
		c0,0-7.666,0.167-9.333,1s-11,4.499-12,5.166s-6.168,3.834-7.834,5.667s-7.499,8.832-8.166,9.666s-7.001,5.667-8.334,6.667
		s-9.167,4.167-9.167,4.167s-2.666-0.667-4.333-0.667s-3.667,0-3.667,0l7.334-4.166c0,0-5.5-0.834-7-0.167s-6.334,1.334-7.167,1.667
		s-3.5,1-3.5,1l4-4.667c0,0-3.334,0.666-5,1.333s-5.834,2.334-6.5,2.834s-0.666,0.5-0.666,0.5l0,0l-0.5-3c0,0-0.334,0.167-1.834,1.5
		s-3.334,2.333-4,2.833s-3,0.333-3,0.333l5.167-5.666l-16,3.833l5.667-7.5c0,0-2.834,2-4.834,3s-8.833,2.666-8.833,2.666
		l-3.833-0.833l4.166-3.833l-9.333-0.334l2.167-2.666c0,0-6.333,0-7.333,0.5s-3.167,1.5-3.167,1.5h-14L115.002,124.832z"/>
	<polyline fill="#737679" points="90.752,163.207 91.198,163.748 94.252,167.457 91.877,167.832 	"/>
	<polyline fill="#737679" points="96.502,158.332 107.336,163.332 101.002,155.832 94.877,158.082 	"/>
	<polygon fill="#020202" points="21.419,169.832 23.586,172.415 22.252,175.499 21.002,175.582 18.752,174.332 19.752,171.832 	"/>
	<ellipse fill="#FFFFFF" cx="66.836" cy="140.665" rx="14.667" ry="13"/>
	<ellipse fill="#FFFFFF" cx="43.836" cy="138.248" rx="10.5" ry="10.084"/>
	<path fill="#FFFFFF" d="M17.377,150.707c0,0-2.25-0.75-3.375-0.75s-6.875,0-6.875,0l-4.5,1.625l-1.5,0.875l0.125,2.125l1.125,1.75
		l4.125,3.5l3.5,0.5l3.375-0.375c0,0,0.25-2.875-0.125-3s5-4.125,5-4.125l-0.25-1.75"/>
	<path fill="#9E0000" d="M23.252,172.082c-0.25,0.083-0.75-0.083-1.5,0.667s-1,1.083-0.833,1.833s0.917,1.333,0.917,1.333
		l3.333-0.083l0.583-0.667L23.252,172.082z"/>
	<path d="M94.752,95.666c0,0,2.25,6.333,2.75,9.75s0.833,9.583,0.583,12.333s-0.25,3.583-1,6.5s-2.75,7.667-2.75,7.667
		s0-0.417,0.917-4.167s1.5-5.999,1.667-8.166s0.167-4.917,0-6.917s-0.083-6.167-0.333-6.917s-1.75-8.5-1.75-8.5l-0.417-1.25
		L94.752,95.666z"/>
	<path d="M55.169,142.416c0-0.25-0.25-0.5,1.417-1.75s2.417-1.583,3.167-1.833s2.333-0.333,3.25-0.25s0.833,0,1.833,0.5
		s1.667,1.333,2.25,2s1.083,1.833,1.417,2.5s0.5,2.667,0.5,2.667l-1.5-2.584c0,0-0.417-1-1.417-1.75s-2.25-1.334-2.917-1.5
		s-0.833-0.416-1.833-0.333s-1.667,0.167-2.25,0.5s-3.583,1.5-3.583,1.5"/>
	<path d="M38.502,139.166c-0.075,0,0.172-0.203,0.619-0.487c0.544-0.347,1.383-0.813,2.298-1.179c1.667-0.667,2-0.75,3.5-0.5
		s1.833,0.417,2.917,1s1.417,1.082,1.917,2.166s1.083,3.167,1.083,3.167l0.083,1l-1.833-3c0,0-0.333-1.333-1.333-2
		s-2.667-1.249-3.25-1.333s-2,0.083-2,0.083"/>
	<path d="M60.836,183.333c0,0-0.667,0.416,0.833-1.917s1.5-2.749,3.167-3.833s4.667-1.917,4.667-1.917s-2.417,1.667-3.083,2.167
		s-1.167,0.916-1.917,1.583s-0.667,0.667-1.333,1.667s-0.833,1.417-1,2s-0.333,1.416-0.333,1.416l-0.083,0.334l-0.833-0.834
		L60.836,183.333z"/>
	<path d="M66.919,186.499c0,0,0-0.076,0.06-0.257c0.104-0.318,0.394-0.96,1.19-2.076c1.25-1.75,1.083-1.584,2.5-2.917
		s1.5-1.666,2.917-2.333s1.417-0.667,1.417-0.667s-0.333,0.666-1.167,1.25s-1.417,1-2.083,1.75s-0.833,0.416-1.667,1.75
		s-1.25,2.333-1.5,2.5s-0.417,0.917-0.417,0.917"/>
	<path d="M156.168,194.166c0,0-0.166-0.334,1.417-2.667s1.833-3.083,3.583-4.333s2.917-1.667,2.917-1.667s-1.583,1.5-2.25,2.25
		s-1.333,1-2,2.167s-0.916,0.667-1.583,2.5s-1,2.583-1,2.583l-0.917-0.333L156.168,194.166z"/>
	<path d="M164.252,195.166c0,0,0.25-0.999,0.75-2.583s0.75-2.166,1.25-3.25s1-1.584,1.583-2.167s1.833-1.417,1.833-1.417
		s-0.25,0.917-1.083,1.917s-1.334,1.834-1.667,2.917s-0.666,1.334-0.833,2.25s-0.333,2.416-0.333,2.416L164.252,195.166z"/>
	<polygon points="208.918,144.583 208.252,149.166 209.085,149.249 	"/>
	<path d="M207.086,138.25c0,0,0.333-0.334,0.666,0.166s0.667,3.667,0.667,3.667s-0.25-0.834-0.667-1.917s-1.083-2-1.083-2"/>
	<path fill="none" stroke="#000000" stroke-width="0.75" d="M57.502,120.166c0,0,0.083-3.666,0.167-5.083s0-5.417,0-7.75
		s-0.333-3.417-1.167-5.417s-2-4.333-2-4.333s1.083-0.167,5.083,3s5.583,3.999,7.917,6.583s2.75,3.5,4.333,5.75
		s1.333,2.75,1.5,4.167s0.083,3.5,0.083,3.5"/>
	<path fill="none" stroke="#000000" stroke-width="0.75" d="M44.169,128.25l-0.833-4.667c0,0,1.666-1.083,6.583-2.083
		s8.5-0.834,17.917-0.834s9.917-0.083,9.917-0.083s1.75,0.5,3.5,0.583s2.25,0.583,2.25,0.583s0.167,0.751,2-2.916
		s3-6.916,3.833-9.25s3.333-7.668,3.5-8.584s1.417-6.083,1.417-6.083s2.333,2.666,3.333,4s1.917,3.75,2.75,6.917
		s1.167,7.083,1.5,11.833s0.583,8.084,0.417,10.417s-0.25,3.416-1.5,6.333s-4.333,6.417-4.333,6.417s2.167,0.166,3.5,0.333
		s1.834,0.916,3.417,2.083s6.417,7.584,6.417,7.584s-3.333-1.25-5.5-1.25s-5.167,1.166-5.167,1.166l8.167,12.584l-7.333-3.167"/>
	<path d="M101.669,168.999c0,0-0.25-4-0.583-5.083s-1.583-4.583-1.583-4.583l-2.75-1.917c0,0,2.25,2.917,2.333,3.25"/>
	<path d="M91.586,164.25c0,0,1.833,2.332,1.75,3.166s1.167,0.917,1.167,0.917l-0.333-2.25c0,0,0.833,0.251,1.833,1.417
		s1,1.166,1,1.166h1c0,0-0.083-0.749-0.75-1.166s-2.25-1.917-2.25-1.917l-2.917-1.333"/>
	<path fill="none" stroke="#000000" stroke-width="0.75" d="M1.169,152.333c0,0,0.667-0.833,3.5-1.75s4.167-1.001,6.75-0.917
		s6.083,0.5,6.083,0.5l6.917,2.25L14.252,160c0,0-2.75,0.5-5.333,0.333s-5-2.834-5-2.834s-2.75-2.666-2.833-2.916
		s-0.417-0.918-0.333-1.334s0.667-1.333,0.667-1.333"/>
	<line fill="none" stroke="#000000" stroke-width="0.75" x1="13.502" y1="149.583" x2="35.252" y2="144.416"/>
	<path fill="none" stroke="#000000" stroke-width="0.75" d="M2.086,155.749c0,0-1.333,2.168-1.5,3.334s-0.333,5.25-0.083,6.583
		s0.917,2.001,2.083,2.417s2.583,0.582,3.833,0.166s4.333-2.166,4.333-2.166"/>
	<path fill="none" stroke="#000000" stroke-width="0.75" d="M9.419,160.583c0,0,0.5,0.916,0.75,1.666s0.334,3.833,0.917,4
		s0.167-0.082,2.417,0.334s3.083,0.833,4.833,1.583c1.464,0.628,1.937,0.729,2.98,1.674c0.203,0.185,0.428,0.4,0.687,0.659
		c1.583,1.584,3.75,4.5,3.75,4.5s-0.167,1-0.917,1s-4.333-0.25-4.333-0.25s-0.333-0.25-1.083-0.75s-0.917-1-0.417-2.083
		s2.083-2.75,2.083-2.75"/>
	<path fill="none" stroke="#000000" stroke-width="0.75" d="M4.252,168.583c0,0,1.667,1.832,2.667,2.666s0.667,3,0.833,3.917
		s-0.417,1.751,0.583,2.917s3.833,2.583,7,3.583s4.333,1.667,7.25,1.75s3.917,0,5.167-0.25s1.833-0.833,1.833-0.833
		s-0.333,6.584,0.417,7.75s1.667,2.083,2,2.083s1.5-0.583,1.75-1.333"/>
	<path fill="none" stroke="#000000" stroke-width="0.75" d="M33.669,186.999c0,0-0.083,3.584,0.667,4.584s1.083,1.5,2.083,1.583
		s2.083-0.083,2.583-0.583s0.75-0.666,0.833-1.5s0.333-2.667,0.333-2.667s-0.333,0.416,1.917,0.833s3.75,0.583,4.5,0.5
		s1.417-0.416,1.417-0.416l-0.417-5.167c0,0-0.5,1.167,2.667-0.75s7.917-5.417,8.917-6.5s3.084-2.916,3.917-4.166
		s2.167-3.75,2.167-3.75l3.417,2.749"/>
	<path fill="none" stroke="#000000" stroke-width="0.75" d="M102.586,122.416l6.333,0.334l-0.25,1.916c0,0,5.417-0.75,6.5-0.75
		s-0.25,1.167-0.25,1.167l15.833-0.333c0,0,0.25-0.835,3-1.501s6.75-0.583,6.75-0.583l-2.25,2.833l9.584,0.167
		c0,0-3.584,3.999-3.834,4.083s2.834,0.333,5.084-0.25s6.582-1.667,7.916-2.333s4.334-2.416,4.334-2.416l-5.584,8l15.75-4
		c0,0-5.25,5.334-5,5.25s1.75-0.166,3.75-1.25s5.083-3.5,5.083-3.5l0.5,2.833"/>
	<path fill="none" stroke="#000000" stroke-width="0.75" d="M185.169,175.166c-0.5,0-7.084,0.416-10.084,1.083
		s-7.834,1.667-10.25,2.667s-4.417,1.917-5.75,3.417s-2.25,3.416-3.333,5.166s-1.501,3.167-1.917,4.667s-0.25,2.333-0.25,2.333
		s0.667,0.334,0.917,0.417s0.25,0.083,0.25,0.083l2.083-0.083l-0.416,0.833c0,0,11.75,0.5,13.25,0s4.082-0.666,5.166-1.916
		s1.417-3.334,1.417-3.334s0.75-1.416,1.25-2.583s0.751-1.249,2.167-2.333s3-1.917,3-1.917s7.999,0,11.666,0
		s26.083,3.083,26.083,3.083l-4.083-4.333l8.75-0.417l-7.667-3.666l3.75-1.75c0,0-4.667-1.583-7.25-2.75s-4.917-2.083-7-3.75
		s-4.75-5.417-4.75-5.417s2.668-3.499,3.001-4.333s1.917-4.25,2.5-6.167s1-5.333,1-5.333"/>
	<polyline fill="none" stroke="#000000" stroke-width="0.75" points="164.335,195.583 164.835,194.416 165.669,194.75 
		165.835,195.666 	"/>
	<line fill="none" stroke="#000000" stroke-width="0.75" x1="165.002" y1="196" x2="165.169" y2="194.166"/>
	<path fill="none" stroke="#000000" stroke-width="0.75" d="M208.918,149.75c0,0,3.417-0.417,4.917-0.167s13.75,5.833,13.75,5.833
		l-5.25-11.333c0,0,7.084-1,9.167-0.667s3.166,0.583,4.333,1.833s6.417,11.584,6.417,11.584l1.667-10.917
		c0,0,3.083,2.583,3.583,3.833s2.084,5.583,2.167,7.25s0,5.167-0.417,6.667s-0.917,3.749-1.667,5.583s-2.833,5.917-2.833,5.917
		s10.416-5.667,13.166-8s4.167-3.583,6.167-6.333s2.667-3.334,3.917-7.167s1.417-6.75,1.25-9.333s-1-9-1.25-10.25
		s-1.584-6.167-1.584-6.167l6.167,8.75c0,0,0-2.584-0.333-6.75s-1.916-9.917-3.083-11.667s-6.5-5.999-8.667-6.916
		s-9.416-3.168-10.333-3.084s-1.167-0.5-1.167-0.5s-0.917,0.334,3.25-2.166s5.25-3,5.25-3s-5.417-0.001-8.167,0.666
		s-6.332,1.334-9.666,3.084s-7.168,4-8.834,5.5s-5.333,5.249-7.333,7.666s-4.918,6.084-7.084,7.667s-5.666,3.501-7.833,4.667
		s-6.25,2.583-6.25,2.583"/>
	<path fill="none" stroke="#000000" stroke-width="0.75" d="M205.168,136.083c0,0,1.334,1.083,1.917,2c0,0,0,0-1.083-1.084
		s-1.834-1.583-1.834-1.583c-1.834-1.083-2.666-1.5-4.25-1.75s-5.75,0.25-5.75,0.25l7.667-4.333c0,0,0,0-1.167-0.25
		s-8.166,0.416-11.416,1.333s-4.75,1.5-4.75,1.5l3.333-4.583c-0.416,0.083-5.582,0.833-8.166,2.333s-4.166,2.584-6.25,4.417
		s-3.75,3.167-5.417,5s-4.084,5.334-5.417,8.75s-1.667,8.167-1.25,10s0.584,3.334,2.584,5.75s3.332,3.667,5.416,5.5
		s2.916,2.582,4.75,3.666s5.5,2.667,5.5,2.667"/>
	<path fill="none" stroke="#000000" stroke-width="0.75" d="M206.752,137.333c0,0,0.416,0.833,0.583,1.5"/>
	<polyline fill="#050505" points="146.002,172.332 146.502,167.332 147.669,172.165 	"/>
	<path fill="none" stroke="#000000" stroke-width="0.75" d="M89.669,167.665c-3.667-0.5-8.833-0.167-10.667,0.333
		s-9.5,3.334-11.167,4s-6.833,5.167-7.833,7.667s-0.5,3.333,0.917,4.334s3.75,2.166,6.06,2.243s13.023-0.744,16.357-2.41
		s6.5-4,6.5-4l59.167,8.666l-1.5-2.666c0,0,9.334,0.5,9-0.167s-6.333-5-6.333-5l5.167-2c0,0-5.834-4.334-7.167-5.5s-1.167-2-1.167-2
		"/>
	<path fill="none" stroke="#000000" d="M88.836,167.498c0,0,37.5,5.334,37.833,4.667s0.833-1,0.833-1s-3-4.333-2.5-3.5
		s1.334,3.667,1.334,3.667"/>
	<line fill="none" stroke="#000000" stroke-width="0.75" x1="152.836" y1="181.665" x2="161.669" y2="179.999"/>
	<path fill="none" stroke="#000000" stroke-width="0.75" d="M169.335,169.333c-0.333,0.832-2.166,1.832-2.166,1.832l3.167,0.667
		c0,0-1.5,1.501-3.667,3.167s-5,2.666-5,2.666l3.166,1.251"/>
	<line fill="none" stroke="#000000" stroke-width="0.75" x1="151.877" y1="181.707" x2="155.002" y2="181.457"/>
	<line fill="none" stroke="#000000" stroke-width="0.75" x1="99.252" y1="159.832" x2="100.627" y2="160.457"/>
	<path d="M15.627,150.207c0,0-5.625,1.5-7.5,2s-3,0.875-3.125,1.375s1,1.375,2,2.625s2.875,2.75,3.875,3.125S14.252,160,14.252,160
		l10.25-7.168l-6.125-2.25L15.627,150.207z"/>
	<ellipse fill="none" stroke="#000000" stroke-width="0.75" cx="66.753" cy="140.666" rx="14.583" ry="12.583"/>
	<path fill="none" stroke="#000000" stroke-width="0.75" d="M52.74,137.61c0.049-0.406,0.156-0.815,0.316-1.2
		c0.003-0.02-0.004-0.037,0.002-0.057c0.209-0.634,0.515-1.184,0.852-1.736c-1.639-3.691-5.494-6.284-9.991-6.284
		c-5.983,0-10.833,4.589-10.833,10.25s4.85,10.25,10.833,10.25c3.549,0,6.67-1.636,8.644-4.134
		C51.874,142.45,51.975,139.785,52.74,137.61z"/>
</g>
</svg>
