<?xml version="1.0" encoding="utf-8"?>
<!-- Generator: Adobe Illustrator 13.0.0, SVG Export Plug-In . SVG Version: 6.00 Build 14948)  -->
<!DOCTYPE svg PUBLIC "-//W3C//DTD SVG 1.1//EN" "http://www.w3.org/Graphics/SVG/1.1/DTD/svg11.dtd">
<svg version="1.1" xmlns="http://www.w3.org/2000/svg" xmlns:xlink="http://www.w3.org/1999/xlink" x="0px" y="0px"
	 width="217.042px" height="166.31px" viewBox="0 0 217.042 166.31" enable-background="new 0 0 217.042 166.31"
	 xml:space="preserve">
<g id="frame_1">
	<path fill="#834421" d="M2.352,62.421c0,0,0.5,16.5,1.75,18s5.25,4,6.5,4.25s10.75,0.5,10.75,0.5s1,8.125,1.625,9.125
		s4.125,4.5,4.625,4.75s2,0.375,2,0.375s-0.5-2.5-0.5-4.25s0.375-3.625,0.375-3.625s2.75,3.125,4.625,4s4.75,1.125,5.875,1
		s3.125-0.5,3.125-0.5s-4-2.75-4.75-3.625s-0.75-0.875-0.75-0.875s6.25,1.875,7.625,2.25s3-1.25,3-1.25l-1.375-2.75l8.625-2
		c0,0,7.625,0.5,7.875,2.375s3.75,11.375,4.375,12.875s5.625,9,6.25,10.25s1.125,3.125,1.125,5s0.75,12.875,1.375,15.25
		s1.125,4.75,1,5.125s-4,17.25-4,17.25s-6.625,1-7.875,1.875s-2.875,2.875-2.875,2.875s0.75,0.875,1.375,1.375
		s3.125,0.625,3.125,0.625l0.75-0.125l1.125,0.625h4c0,0,4.5,0,5.25-0.375s6.75-1.5,6.75-1.5l7-12.5l6-11.75l5.375-0.875
		c0,0-0.75,6.375-1.375,8.25s-3.625,13-4,13.375s-4,0.5-5.25,0.75s-3.75,1.5-4.25,2.125s-2,2.25-2,2.25s1.5,1.125,3.25,1.625
		s4.375,1.375,7.125,1.375s9.125-1.25,9.125-1.25l8.625-2.75c0,0,10.75-17.375,10.875-17.75s4.25-10.5,4.25-10.5l6.5,1.875
		c0,0,2.5-0.25,3.5,1.125s4.375,8,4.375,8l-3.375,12.25c0,0-7.125,0.125-8.375,0.625s-3.75,1.625-4.25,2.125s-1.125,1.5-1.125,1.5
		s1.625,1.625,3,1.625s5.375,0.25,5.375,0.25l0.25,0.625c0,0,9.5,0.5,10.625-0.375s4.875-5.75,4.875-5.75l8-12.375l4.5-4.875
		l12.25,0.5l2.5,0.375l-5.75,17.125c0,0-4.75-1-6.125-0.75s-5.75,0.875-7,1.625s-4.625,4.25-4.625,4.25s1.875,0.5,3.125,1
		s4.5,1.5,6,1.375s6.375-0.5,7.25-0.375s10-0.375,10-0.375s21.25-25.75,21.375-26.125s-1.5-12.125-1.875-12.375s7-29.75,7-29.75
		l2.375-12.625c0,0,1.25-6.125,1.375-7.75s-0.25-14.75-0.375-16.875s-1.5-15.25-2-16.625s-3.875-12.75-4.625-13.875
		s-3.875-5.875-5.25-7.5s-6.75-4.625-11-5.625s-10.375-3.125-19.5-1.75s-18.75,4.375-21.25,5.125s-13.375,6-13.375,6l-18.625-0.125
		c0,0,0.75-3.75-0.375-5.875s-1.5-5.125-2.875-6.875s-3.875-5.75-4.375-5.875s-3.375-1.625-4.25-1.5s-3.875-0.125-4.875,0.625
		s-5,4.625-5.875,5.75s-3.75,5-3.75,5s-3.125-0.625-5-1.625S72.852,5.421,72.852,5.421s0.25-2.625-0.125-3.125s-2.375-2.125-4-2
		s-9.375,0.25-11.75,1.375s-10.25,5.5-10.875,6.375s-2,4.5-1.5,6s1.375,5.5,2.25,6.625s1.625,2.125,1.625,2.125s-6.625,5.5-6.75,6
		s-4.5,9.125-4.5,9.125l-9.5,5.75L4.977,57.546L2.352,62.421z"/>
	<path fill="#5D3119" d="M100.852,37.296c0,0,1.125,8,0.875,10s-1.625,5.875-5.125,7s-19.25,3.875-19.25,3.875
		s9.375,1.875,11.125,3.125s3.25,2.625,1.625,4s-10.625,3.875-16.375,5s-12.5,1.25-12.5,1.25s1.25,6.875-1.375,10
		s-3.875,5.125-6.5,6.125s-12.5,1.5-12.5,1.5s5.5,4,6.875,4.375s4.375,0.25,4.375,0.25s-3.5-2.5-3.75-2.75s9.875-0.25,11.375-0.5
		s10.625-3.25,13.125-5.125s5.25-4.375,6.5-5.625s3.875-2.875,5.5-3.375s22.25-4.375,22.25-4.375l-7.5-6.25l14.5-1.25l-10.25-4.75
		l15.25-2.875c0,0-12.5-11-13.875-12.875s-4.125-7.5-4.125-7.5"/>
	<path fill="#5D3119" d="M68.352,102.921c-0.125-0.375,0.125-7.375,0.625-9.625s1.25-6.25,3.5-3.875s8.75,10.625,12.25,15.25
		s10.125,11.875,12.5,13.875s5.5,3.75,5.5,3.75s0.625,4.125,0.875,5.5s-0.125,5.25,0,6.5s-0.125,2.25-0.125,2.25
		s-9.625-2.375-15.5-7s-11.875-13-13.875-16.125s-5.75-8.75-5.75-8.75V102.921z"/>
	<path fill="#5D3119" d="M90.352,130.296c0,0,1,6.875,1.125,9.5s0.625,5.125,0.125,6.75s-8,15.25-8,15.25l3.375-0.375
		c0,0,4.125-6.375,5.375-8.25s10.375-16.375,10.375-16.375s-9.125-7-11.875-6.125"/>
	<path fill="#5D3119" d="M118.102,113.171c0,0,0.07,0.385,0.188,1.051c0.584,3.301,2.333,13.52,2.437,18.199
		c0.125,5.625,2.25,10.375-1,17.625s-7.75,13.75-7.75,13.75l4.625-1.125l20.625-31.375c0,0,0.625-18.625,0.375-20.875
		s-0.875-3-0.875-3s-1.25,4.375-2.5,7.125s-2.375,3.5-3.875,4.25s-7.75-0.75-11.5-5.75"/>
	<path fill="#5D3119" d="M137.727,109.296c0,0,2.5-14.625,2.625-16.125s1.5,2.375,2,3.5s1.375,5.625,1.375,7.125
		s-0.875,6.25-1.25,7.25s-1.375,4.125-1.75,4.5s-2.75,4.25-2.75,4.25s-0.625-6.125-0.375-9.375"/>
	<path fill="#5D3119" d="M137.852,128.046c0,0,4.625-1.5,7.25-3.375s4.25-4,6.5-7.75s2.25-3.75,2.25-3.75s-0.75,3.625-5.75,10.375
		s-9.125,11.75-9.625,12s-3.125,0.75-3.125,0.75l-2,0.25C133.352,136.546,136.477,129.046,137.852,128.046z"/>
	<path fill="#5D3119" d="M138.477,135.546c0,0,10.375,3.5,13,3.875s14.125,2.375,16.25,2.25s10.625-0.25,10.625-0.25l0.625-1.625
		c0,0-3-5.75-4.25-7.375s-1.25-1.625-1.25-1.625s-3.125,0.75-8.125,1s-14.75-0.375-16-0.625s-1.25-0.25-1.25-0.25L138.477,135.546z"
		/>
	<path fill="#5D3119" d="M161.352,140.671c0,0-6.625,11-9,14.125s-6.625,8.25-6.625,8.25l1.75-0.25c0,0,8.875-9.125,10.25-10.5
		s11-11.125,11-11.125l-0.875-3l-7,1.75"/>
	<path fill="#5D3119" d="M180.602,165.046c0,0,13.5-15.25,16.25-20.5s5-6.75,3.75-8.625s-5.375-5.5-8.5-7.875s-6.25-5.375-6-10.875
		s0.25-12.625,3.375-19.125s8.5-17.5,8.5-17.5s0.375,5.875,1.5,8.125s1.75,3.25,3.5,3.625s3.75,0.25,4.25-1.375
		s1.125-4.5,1.25-7.375s0.125-9.125,0.125-9.125s1.875,8.375,1.75,10.5s-0.25,10.125-0.625,12.875s-2.25,14.5-3,16.125
		s-1.375,4.25-1.25,5.25s10.25,13.375,10.25,13.375l-32.5,32.625L180.602,165.046z"/>
	<path fill="#FFFFFF" d="M22.79,59.483c0,0-13.688-1.938-17.688-1.625s-5,0.25-5,0.25l1.063,2.125l1.813,2.063l10.813,8.563
		l2.125,1.313l3.813-1.188c0,0-0.5-3.625-0.563-3.813s2.438-5.688,2.438-5.688l1.188-2.25"/>
	<ellipse fill="#FFFFFF" cx="39.258" cy="40.327" rx="12.156" ry="10.406"/>
	<ellipse fill="#FFFFFF" cx="60.883" cy="43.796" rx="14.594" ry="13"/>
	<ellipse fill="#0092FF" cx="51.977" cy="44.577" rx="5.188" ry="5.094"/>
	<ellipse fill="#0092FF" cx="31.665" cy="40.765" rx="4.438" ry="4.344"/>
	<circle fill="#00426B" cx="51.508" cy="44.577" r="2.219"/>
	<ellipse fill="#00426B" cx="31.352" cy="40.702" rx="1.875" ry="1.844"/>
	<ellipse fill="#FFFFFF" cx="53.633" cy="41.921" rx="1.344" ry="1.313"/>
	<circle fill="#FFFFFF" cx="49.696" cy="46.89" r="1.031"/>
	<ellipse fill="#FFFFFF" cx="33.04" cy="38.827" rx="1.125" ry="1.156"/>
	<circle fill="#FFFFFF" cx="29.852" cy="43.171" r="0.875"/>
	<ellipse fill="none" stroke="#000000" stroke-width="0.75" cx="60.852" cy="43.838" rx="14.5" ry="13.042"/>
	<path fill="none" stroke="#000000" stroke-width="0.75" d="M46.855,47.457c-0.485-1.258-0.609-2.637-0.429-3.98
		c-0.082-1.204,0.109-2.545,0.631-3.665c0.24-0.896,0.718-1.756,1.174-2.532c0.429-0.729,0.92-1.384,1.512-1.931
		c-2.033-3.272-6.021-5.512-10.641-5.512c-6.673,0-12.083,4.645-12.083,10.375s5.41,10.375,12.083,10.375
		c3.096,0,5.906-1.015,8.043-2.66c-0.005-0.013-0.014-0.025-0.019-0.039C47.02,47.775,46.924,47.637,46.855,47.457z"/>
	<line fill="none" stroke="#000000" stroke-width="0.75" x1="27.665" y1="44.046" x2="4.227" y2="57.921"/>
	<path fill="none" stroke="#000000" stroke-width="0.75" d="M40.665,29.921c0,0,1.563-2.625,4.688-4.813s12.125-7.625,12.125-7.625
		s-5.875-2.25-7.063-3.063s-1.438-1.125-1.438-1.125s5.625-2.5,13.563-1.875s10.75,1.125,10.75,1.125s-2.125-3.375-2.438-5.125
		S70.54,4.796,70.54,4.796s3.125,1.688,6.438,4.313s7.188,6.25,9.063,6.875s3.125,0.875,3.125,0.875"/>
	<path fill="none" stroke="#000000" stroke-width="0.75" d="M84.602,25.858c0,0,3.75-8.125,7.063-12.5s7-7.313,8.5-7.75
		s5.375-1.375,7.688,1.313s4.438,5.5,5.813,8.688s1.75,4.75,1.875,5.938s0.125,8,0,8.188s-0.813,2.125-5.875,3.625
		s-12,3.188-12,3.188"/>
	<path fill="none" stroke="#000000" stroke-width="0.75" d="M89.415,28.733c0,0,4.313-7.625,9-10.063s4.938-2.5,4.938-2.5"/>
	<path fill="none" stroke="#000000" stroke-width="0.75" d="M100.415,35.796c0,0,2.563,5.938,6.75,10.063s11.938,11.5,11.938,11.5
		s-15.75,2.375-15.688,2.625s10.75,4.563,10.75,4.563l-14.813,1.313l7.313,6.625c0,0-20,2.688-23.063,4.313
		s-6.063,5.375-9.938,7.938s-6.125,4.188-11.5,5.313s-14,0.938-14,0.938s1.938,1.875,3.063,2.375s1.125,0.5,1.125,0.5
		s-5.25,0.813-9.188-0.375s-5.188-2-5.188-2s3.125,3.563,4,4s0.875,0.438,0.875,0.438s-4.438,1.5-7.625,0.125
		s-5.563-4.375-5.563-4.375s-1,3.813-0.563,5.75s0.438,1.938,0.438,1.938s-1.75,0.375-4.25-2.438s-3.25-5.125-3.563-7.125
		s0.063-4.75,0.063-4.75"/>
	<path fill="none" stroke="#000000" stroke-width="0.75" d="M0.602,58.108c0,0,4.063-0.438,10.313-0.125s13.125,1.438,16.125,2.438
		s5.375,2.438,5.375,2.438s-1.25,2.75-5.563,5.125s-11.188,4.25-11.188,4.25S4.227,63.858,2.54,62.108S-0.085,58.296,0.602,58.108z"
		/>
	<path fill="none" stroke="#000000" stroke-width="0.75" d="M2.29,62.108c0,0,0.125,11.125,0.75,14.063s1.625,5.875,3.875,7.063
		s5.438,1.688,10.625,1.938s19.125,0.375,21.813-0.813s8.438-6.563,9.75-8.125s2-2.75,2-2.75"/>
	<path fill="none" stroke="#000000" stroke-width="0.75" d="M17.29,72.108c0,0-0.063,6.125,0.688,7.813s3.5,5.438,3.5,5.438"/>
	<path fill="none" stroke="#000000" stroke-width="0.75" d="M48.415,23.233c0,0-3.438-4.563-3.875-8.063s0.125-5.438,2-7.063
		s8.313-5.5,11.938-6.625s7.625-1.25,9.875-1s3.063,0.813,3.75,1.688s0.688,4.063,0.688,4.063"/>
	<path fill="none" stroke="#000000" stroke-width="0.75" d="M210.686,84.838c0,0,0.584-4,0.584-7.417s0.5-7.333,0.25-12.75
		s-0.417-9.333-1.417-15.417s-1.5-9.5-3.5-14.917s-4.5-10.333-8.417-13.917s-13.5-5.75-20.083-6.167s-16.5,1.417-23,2.917
		s-19.5,7.5-21.084,8s-18.333,0.25-18.333,0.25"/>
	<path fill="none" stroke="#000000" stroke-width="0.75" d="M205.52,63.338c-0.167,0.25,5.583,15.751,4.916,24.417
		s-2.5,21.167-3.25,24.417s-3.582,5.667-0.666,9.75s9.083,10.583,9.083,10.583l-32.5,32.917c0,0-17.167,0.582-20.167,0.166
		s-7.667-1.834-7.917-2s3.834-4.333,6.834-5.083s7.416-1.167,9.083-0.667s1.667,0.5,1.667,0.5l6.25-18.333
		c0,0-7.749-13.584-8.833-17.167s-3.084-9.25-3.834-14s-1.25-9.665,1.25-14.749s7.333-11.667,7.333-11.667"/>
	<path fill="none" stroke="#000000" stroke-width="0.75" d="M137.186,109.005c0,0,0.5,11.25,0.417,14.5s0.167,7.25,0.167,7.25
		l-21.5,31.917c0,0-16.917,3.5-19.334,3.25s-4.833-0.75-4.833-0.75l-6-1.75c0,0,3.083-4.833,6.583-5s5.833,0.083,5.833,0.083
		s0.25-0.916,3-1.083s5.25,0.75,5.25,0.75"/>
	<path fill="none" stroke="#000000" stroke-width="0.75" d="M97.936,158.005c0,0,4.584-13.083,5.167-18s0.416-12.417-0.417-17
		s-1.333-8-1.333-8"/>
	<path fill="none" stroke="#000000" stroke-width="0.75" d="M63.103,89.922c0,0,2.667,8.832,4.417,12.416s3.916,6.917,6.583,11.084
		s8.833,12.417,12.25,14.917s9.75,6.167,11.667,6.75s5.583,1.5,5.583,1.5"/>
	<path fill="none" stroke="#000000" stroke-width="0.75" d="M73.187,156.089l4.166-17.084c0,0-0.666-3.833-1.083-7.417
		s-1.583-17.333-1.583-17.333"/>
	<path fill="none" stroke="#000000" stroke-width="0.75" d="M79.936,156.255c0,0-6.5,0.001-8.083,0.167s-5.417,0.833-6.917,1.833
		s-2.166,2.583-2.166,2.583s1.583,1.418,2.833,1.584s2.417,0.25,2.417,0.25s-0.083,0.75,4,0.75s7.834-1.001,10-1.334
		s5.333-1,5.333-1s15.75-24.833,15.75-24.583"/>
	<path fill="none" stroke="#000000" stroke-width="0.75" d="M134.269,136.588c0,0,5.334-1.166,8.084-2.333s7.25-4.416,9.833-7.083
		s6.25-8.333,6.917-11.083s1-3.167,1-3.167"/>
	<path fill="none" stroke="#000000" stroke-width="0.75" d="M137.77,119.588c0,0,3.582-4.25,4.249-6.583s1.834-9.167,1.334-11.75
		s-2.417-8.25-2.417-8.25"/>
	<path fill="none" stroke="#000000" stroke-width="0.75" d="M138.186,135.839c0,0,12.501,3.334,16.834,4s9.166,1.417,12.083,1.5
		s11.5,0.166,11.5,0.166"/>
	<path fill="none" stroke="#000000" stroke-width="0.75" d="M139.769,136.839c0,0,4.5,7.75,4.417,8s-3.833,12.666-3.833,12.666
		s-6.333-0.833-8.583,0.167s-4.667,3.583-4.667,3.583s1.083,0.667,2,1s2.916,0.667,4.333,0.75s2.334-0.167,2.334-0.167
		s-0.917,0.666,0.583,0.75s10.417-0.25,11-0.833s21.583-21.583,21.583-21.583"/>
	<path d="M141.291,92.879c0,0-1.876-4.188-2.604-4.896s1.479,3.792,1.938,5.167"/>
	<path d="M159.758,112.89c0,0,0.75-4.25,0.594-5.156s-0.156-0.906-0.156-0.906s0.719,4.875,0.125,6.406"/>
	<path d="M136.79,109.202c0,0,0.094-1.906-0.156-3.063s-0.281-1.281-0.281-1.281s1.188,3.031,1.219,4.25"/>
	<path d="M101.071,115.265c0,0-1.281-6.188-1.656-7.781s-0.375-1.594-0.375-1.594s2.688,8.063,2.719,9.063"/>
	<path d="M51.074,74.108c0,0,2.109-3.25,2.381-4.344c0.272-1.094,0.272-1.094,0.272-1.094s-2.28,4.031-3.063,4.813"/>
	<path d="M174.31,82.505c0,0,3.667-4.708,4.792-5.625s1.917-1.167,1.917-1.167s-5.125,6.166-6.25,7.375"/>
	<path d="M205.269,63.672c0,0-1.916-5.167-2.75-6.25s-0.834-1.083-0.834-1.083s2.583,1.875,4.25,7.333"/>
	<path d="M167.852,165.672c0,0,1.751-2.833,3.292-3.875s3.958-1.375,3.958-1.375s-3.708,1.916-4.583,2.958s-1.459,2.542-1.459,2.542
		"/>
	<path d="M160.852,164.797c0,0,1.209-3.084,2.542-4.042s4.708-1.541,4.708-1.541s-4.458,2.084-5.125,3s-1.375,3.291-1.375,3.291"/>
	<path d="M135.602,162.797c0,0,0.707-2.5,2.416-3.167s2.667-0.667,2.667-0.667s-3.126,1.166-3.542,2s-1.083,2.25-1.083,2.25"/>
	<path d="M130.56,162.38c0,0,0.416-1.707,1.833-2.666s2.959-0.959,2.959-0.959s-2.584,1.041-3.292,2s-1,2-1,2"/>
	<path d="M99.227,165.63c0-0.125,1.083-2.207,2.458-3.291s4.5-2,4.5-2s-4.291,2.333-4.708,3.083s-0.958,2.083-0.958,2.083"/>
	<path d="M91.352,164.88c0,0,1.083-1.832,2.125-2.916s1.749-1.708,2.833-1.875s1.667-0.084,1.667-0.084s-3.417,1.668-4.042,2.334
		s-1.75,2.666-1.75,2.666"/>
	<path d="M72.935,163.297c0,0,1.167-2.209,2.667-3.334s3.583-1.583,3.583-1.583s-3.584,2.374-4.292,3.333s-1.041,1.709-1.041,1.709"
		/>
	<path d="M67.56,162.38c0,0,0.75-1.959,1.75-2.875s3.833-1.916,3.833-1.916s-3.125,1.791-3.75,2.666s-0.75,2.542-0.75,2.542"/>
	<path d="M79.602,156.546c0,0,1.125,0.542,1.5,0.875s0.375,0.333,0.375,0.333s-0.501-1.957-1.584-1.916"/>
	<path d="M106.435,158.296l2.75,1.375c0,0-1.208-2.124-2.5-2.208"/>
	<path d="M20.352,59.337c0,0-12.583,0.833-12.083,2.25s10.583,9.917,10.583,9.917s9.25-4.332,10.583-5.416s3.458-2.958,2.979-3.229
		s-9.479-4.187-11.979-3.854"/>
</g>
<g id="frame_2">
	<path fill="#834421" d="M128.102,31.92l-2.584-3.445c-3.161,1.233-6.384,2.287-9.689,3.064c-6.65,2.982-13.343,5.87-20.084,8.647
		c-0.77,0.317-1.438,0.288-1.993,0.053c-1.033,0.332-2.087,0.605-3.174,0.78c-1.974,0.318-3.402-0.893-3.714-2.369L54.102,59.253
		c-0.666,0-6,6.168-5.333,6.501s9.333,11.832,10,12.666s5.833,12.5,5.833,12.5s4.667-2.499,6.667-2.166s12.166,4.167,15.833,6
		s11.666,4.834,15,4s13.333-15,14-16s3.667-13.667,3.667-15.667s-4.5-15-4.5-15l15.5-8.833L128.102,31.92z"/>
	<path fill="#834421" d="M104.644,4.837"/>
	<path fill="#834421" d="M212.144,59.337c-0.125-2.125-1.5-15.25-2-16.625s-3.875-12.75-4.625-13.875s-3.875-5.875-5.25-7.5
		s-6.75-4.625-11-5.625s-10.375-3.125-19.5-1.75s-18.75,4.375-21.25,5.125s-13.375,6-13.375,6l-3.017-0.021
		c-0.477,0.178-0.948,0.365-1.418,0.56c-1.93,0.991-3.893,1.864-5.951,2.542c-1.655,0.605-3.35,1.098-5.005,1.699
		c-3.581,1.709-7.171,3.406-10.915,4.649L94.564,52.274c0.363,0.12,0.719,0.248,1.059,0.384c0.852,0.341,1.818,0.769,2.733,1.296
		c0.128-0.227,0.245-0.465,0.396-0.669c0.964-1.31,2.788-1.802,4.048-0.522c4.349,4.415,5.549,10.835,5.957,16.825
		c0.474,0.474,0.95,0.945,1.418,1.426c1.52,1.563,0.475,3.658-1.077,4.251c0.259,0.411,0.504,0.833,0.73,1.271
		c0.631,1.22,0.169,2.775-0.854,3.506c-0.213,0.635-0.538,1.247-0.959,1.803c-0.82,5.083-4.533,9.327-10.115,8.346
		c-1.752-0.309-2.958-1.11-3.745-2.176c-3.783,2.179-9.003,2.567-11.603-0.283c-4.228-1.201-8.293-3.21-11.854-5.767l-6.428,7.997
		c0.25,1.875,3.75,11.375,4.375,12.875s5.625,9,6.25,10.25s1.125,3.125,1.125,5s0.75,12.875,1.375,15.25s1.125,4.75,1,5.125
		s-4,17.25-4,17.25s-6.625,1-7.875,1.875s-2.875,2.875-2.875,2.875s0.75,0.875,1.375,1.375s3.125,0.625,3.125,0.625l0.75-0.125
		l1.125,0.625h4c0,0,4.5,0,5.25-0.375s6.75-1.5,6.75-1.5l7-12.5l6-11.75l5.375-0.875c0,0-0.75,6.375-1.375,8.25s-3.625,13-4,13.375
		s-4,0.5-5.25,0.75s-3.75,1.5-4.25,2.125s-2,2.25-2,2.25s1.5,1.125,3.25,1.625s4.375,1.375,7.125,1.375s9.125-1.25,9.125-1.25
		l8.625-2.75c0,0,10.75-17.375,10.875-17.75s4.25-10.5,4.25-10.5l6.5,1.875c0,0,2.5-0.25,3.5,1.125s4.375,8,4.375,8l-3.375,12.25
		c0,0-7.125,0.125-8.375,0.625s-3.75,1.625-4.25,2.125s-1.125,1.5-1.125,1.5s1.625,1.625,3,1.625s5.375,0.25,5.375,0.25l0.25,0.625
		c0,0,9.5,0.5,10.625-0.375s4.875-5.75,4.875-5.75l8-12.375l4.5-4.875l12.25,0.5l2.5,0.375l-5.75,17.125c0,0-4.75-1-6.125-0.75
		s-5.75,0.875-7,1.625s-4.625,4.25-4.625,4.25s1.875,0.5,3.125,1s4.5,1.5,6,1.375s6.375-0.5,7.25-0.375s10-0.375,10-0.375
		s21.25-25.75,21.375-26.125s-1.5-12.125-1.875-12.375s7-29.75,7-29.75l2.375-12.625c0,0,1.25-6.125,1.375-7.75
		S212.269,61.462,212.144,59.337z"/>
	<path fill="#5D3119" d="M80.269,79.587"/>
	<path fill="#5D3119" d="M60.644,90.337"/>
	<path fill="#5D3119" d="M69.269,102.712c-0.125-0.375,0.125-7.375,0.625-9.625s1.25-6.25,3.5-3.875s8.75,10.625,12.25,15.25
		s10.125,11.875,12.5,13.875s5.5,3.75,5.5,3.75s0.625,4.125,0.875,5.5s-0.125,5.25,0,6.5s-0.125,2.25-0.125,2.25
		s-9.625-2.375-15.5-7s-11.875-13-13.875-16.125s-5.75-8.75-5.75-8.75V102.712z"/>
	<path fill="#5D3119" d="M91.269,130.087c0,0,1,6.875,1.125,9.5s0.625,5.125,0.125,6.75s-8,15.25-8,15.25l3.375-0.375
		c0,0,4.125-6.375,5.375-8.25s10.375-16.375,10.375-16.375s-9.125-7-11.875-6.125"/>
	<path fill="#5D3119" d="M119.019,112.962c0,0,0.07,0.385,0.188,1.051c0.584,3.301,2.333,13.52,2.437,18.199
		c0.125,5.625,2.25,10.375-1,17.625s-7.75,13.75-7.75,13.75l4.625-1.125l20.625-31.375c0,0,0.625-18.625,0.375-20.875
		s-0.875-3-0.875-3s-1.25,4.375-2.5,7.125s-2.375,3.5-3.875,4.25s-7.75-0.75-11.5-5.75"/>
	<path fill="#5D3119" d="M138.644,109.087c0,0,2.5-14.625,2.625-16.125s1.5,2.375,2,3.5s1.375,5.625,1.375,7.125
		s-0.875,6.25-1.25,7.25s-1.375,4.125-1.75,4.5s-2.75,4.25-2.75,4.25s-0.625-6.125-0.375-9.375"/>
	<path fill="#5D3119" d="M138.769,127.837c0,0,4.625-1.5,7.25-3.375s4.25-4,6.5-7.75s2.25-3.75,2.25-3.75s-0.75,3.625-5.75,10.375
		s-9.125,11.75-9.625,12s-3.125,0.75-3.125,0.75l-2,0.25C134.269,136.337,137.394,128.837,138.769,127.837z"/>
	<path fill="#5D3119" d="M139.394,135.337c0,0,10.375,3.5,13,3.875s14.125,2.375,16.25,2.25s10.625-0.25,10.625-0.25l0.625-1.625
		c0,0-3-5.75-4.25-7.375s-1.25-1.625-1.25-1.625s-3.125,0.75-8.125,1s-14.75-0.375-16-0.625s-1.25-0.25-1.25-0.25L139.394,135.337z"
		/>
	<path fill="#5D3119" d="M162.269,140.462c0,0-6.625,11-9,14.125s-6.625,8.25-6.625,8.25l1.75-0.25c0,0,8.875-9.125,10.25-10.5
		s11-11.125,11-11.125l-0.875-3l-7,1.75"/>
	<path fill="#5D3119" d="M181.519,164.837c0,0,13.5-15.25,16.25-20.5s5-6.75,3.75-8.625s-5.375-5.5-8.5-7.875s-6.25-5.375-6-10.875
		s0.25-12.625,3.375-19.125s8.5-17.5,8.5-17.5s0.375,5.875,1.5,8.125s1.75,3.25,3.5,3.625s3.75,0.25,4.25-1.375
		s1.125-4.5,1.25-7.375s0.125-9.125,0.125-9.125s1.875,8.375,1.75,10.5s-0.25,10.125-0.625,12.875s-2.25,14.5-3,16.125
		s-1.375,4.25-1.25,5.25s10.25,13.375,10.25,13.375l-32.5,32.625L181.519,164.837z"/>
	<path fill="none" stroke="#000000" stroke-width="0.75" d="M101.082,5.399"/>
	<path fill="none" stroke="#000000" stroke-width="0.75" d="M63.082,89.837"/>
	<path fill="none" stroke="#000000" stroke-width="0.75" d="M211.603,84.629c0,0,0.584-4,0.584-7.417s0.5-7.333,0.25-12.75
		s-0.417-9.333-1.417-15.417s-1.5-9.5-3.5-14.917s-4.5-10.333-8.417-13.917s-13.5-5.75-20.083-6.167s-16.5,1.417-23,2.917
		s-18.418,6.958-20.584,7.625c-5.423,1.67-26,10.5-42.667,16.833"/>
	<path fill="none" stroke="#000000" stroke-width="0.75" d="M206.437,63.129c-0.167,0.25,5.583,15.751,4.916,24.417
		s-2.5,21.167-3.25,24.417s-3.582,5.667-0.666,9.75s9.083,10.583,9.083,10.583l-32.5,32.917c0,0-17.167,0.582-20.167,0.166
		s-7.667-1.834-7.917-2s3.834-4.333,6.834-5.083s7.416-1.167,9.083-0.667s1.667,0.5,1.667,0.5l6.25-18.333
		c0,0-7.749-13.584-8.833-17.167s-3.084-9.25-3.834-14s-1.25-9.665,1.25-14.749s7.333-11.667,7.333-11.667"/>
	<path fill="none" stroke="#000000" stroke-width="0.75" d="M138.103,108.796c0,0,0.5,11.25,0.417,14.5s0.167,7.25,0.167,7.25
		l-21.5,31.917c0,0-16.917,3.5-19.334,3.25s-4.833-0.75-4.833-0.75l-6-1.75c0,0,3.083-4.833,6.583-5s5.833,0.083,5.833,0.083
		s0.25-0.916,3-1.083s5.25,0.75,5.25,0.75"/>
	<path fill="none" stroke="#000000" stroke-width="0.75" d="M98.853,157.796c0,0,4.584-13.083,5.167-18s0.416-12.417-0.417-17
		s-1.333-8-1.333-8"/>
	<path fill="none" stroke="#000000" stroke-width="0.75" d="M104.52,136.38c0,0-3.666-0.917-5.583-1.5s-8.25-4.25-11.667-6.75
		s-9.583-10.75-12.25-14.917s-4.833-7.5-6.583-11.084S64.02,89.713,64.02,89.713s-2.919-7.21-3.585-8.626s-2.583-3-2.583-3"/>
	<path fill="none" stroke="#000000" stroke-width="0.75" d="M74.104,155.88l4.166-17.084c0,0-0.666-3.833-1.083-7.417
		s-1.583-17.333-1.583-17.333"/>
	<path fill="none" stroke="#000000" stroke-width="0.75" d="M80.853,156.046c0,0-6.5,0.001-8.083,0.167s-5.417,0.833-6.917,1.833
		s-2.166,2.583-2.166,2.583s1.583,1.418,2.833,1.584s2.417,0.25,2.417,0.25s-0.083,0.75,4,0.75s7.834-1.001,10-1.334
		s5.333-1,5.333-1s15.75-24.833,15.75-24.583"/>
	<path fill="none" stroke="#000000" stroke-width="0.75" d="M135.186,136.379c0,0,5.334-1.166,8.084-2.333s7.25-4.416,9.833-7.083
		s6.25-8.333,6.917-11.083s1-3.167,1-3.167"/>
	<path fill="none" stroke="#000000" stroke-width="0.75" d="M138.687,119.379c0,0,3.582-4.25,4.249-6.583s1.834-9.167,1.334-11.75
		s-2.417-8.25-2.417-8.25"/>
	<path fill="none" stroke="#000000" stroke-width="0.75" d="M139.103,135.63c0,0,12.501,3.334,16.834,4s9.166,1.417,12.083,1.5
		s11.5,0.166,11.5,0.166"/>
	<path fill="none" stroke="#000000" stroke-width="0.75" d="M140.686,136.63c0,0,4.5,7.75,4.417,8s-3.833,12.666-3.833,12.666
		s-6.333-0.833-8.583,0.167s-4.667,3.583-4.667,3.583s1.083,0.667,2,1s2.916,0.667,4.333,0.75s2.334-0.167,2.334-0.167
		s-0.917,0.666,0.583,0.75s10.417-0.25,11-0.833s21.583-21.583,21.583-21.583"/>
	<path d="M142.208,92.67c0,0-1.876-4.188-2.604-4.896s1.479,3.792,1.938,5.167"/>
	<path d="M160.675,112.681c0,0,0.75-4.25,0.594-5.156s-0.156-0.906-0.156-0.906s0.719,4.875,0.125,6.406"/>
	<path d="M137.707,108.993c0,0,0.094-1.906-0.156-3.063s-0.281-1.281-0.281-1.281s1.188,3.031,1.219,4.25"/>
	<path d="M101.988,115.056c0,0-1.281-6.188-1.656-7.781s-0.375-1.594-0.375-1.594s2.688,8.063,2.719,9.063"/>
	<path d="M175.227,82.296c0,0,3.667-4.708,4.792-5.625s1.917-1.167,1.917-1.167s-5.125,6.166-6.25,7.375"/>
	<path d="M206.186,63.463c0,0-1.916-5.167-2.75-6.25s-0.834-1.083-0.834-1.083s2.583,1.875,4.25,7.333"/>
	<path d="M168.769,165.463c0,0,1.751-2.833,3.292-3.875s3.958-1.375,3.958-1.375s-3.708,1.916-4.583,2.958s-1.459,2.542-1.459,2.542
		"/>
	<path d="M161.769,164.588c0,0,1.209-3.084,2.542-4.042s4.708-1.541,4.708-1.541s-4.458,2.084-5.125,3s-1.375,3.291-1.375,3.291"/>
	<path d="M136.519,162.588c0,0,0.707-2.5,2.416-3.167s2.667-0.667,2.667-0.667s-3.126,1.166-3.542,2s-1.083,2.25-1.083,2.25"/>
	<path d="M131.477,162.171c0,0,0.416-1.707,1.833-2.666s2.959-0.959,2.959-0.959s-2.584,1.041-3.292,2s-1,2-1,2"/>
	<path d="M100.144,165.421c0-0.125,1.083-2.207,2.458-3.291s4.5-2,4.5-2s-4.291,2.333-4.708,3.083s-0.958,2.083-0.958,2.083"/>
	<path d="M92.269,164.671c0,0,1.083-1.832,2.125-2.916s1.749-1.708,2.833-1.875s1.667-0.084,1.667-0.084s-3.417,1.668-4.042,2.334
		s-1.75,2.666-1.75,2.666"/>
	<path d="M73.852,163.088c0,0,1.167-2.209,2.667-3.334s3.583-1.583,3.583-1.583s-3.584,2.374-4.292,3.333s-1.041,1.709-1.041,1.709"
		/>
	<path d="M68.477,162.171c0,0,0.75-1.959,1.75-2.875s3.833-1.916,3.833-1.916s-3.125,1.791-3.75,2.666s-0.75,2.542-0.75,2.542"/>
	<path d="M80.519,156.337c0,0,1.125,0.542,1.5,0.875s0.375,0.333,0.375,0.333s-0.501-1.957-1.584-1.916"/>
	<path d="M107.352,158.087l2.75,1.375c0,0-1.208-2.124-2.5-2.208"/>
	<path fill="#834421" d="M63.436,26.754c-0.5,0-2.667-0.167-3.167,0.167s-2.167,7-2.5,8.333s2.001,11.333,2.167,12.5
		s4.333,11,4.833,12.5s4.667,9.334,5.167,10.167s3.167,3.666,4,4.833s4.666,5.999,5.666,6.833s5.5,4.833,7,6s10,1.001,10.667,0.334
		s3.999-11,3.833-12.167s-5.166-9.5-5.833-11.5s-5.333-9.833-7.333-12.333s-5.001-8.167-5.334-8.667s-5.5-10.833-6-11.167
		s-1.499-4.5-2.166-5s-2.501-2.667-3.334-2.667s-3.333-0.167-3.333-0.167"/>
	<path fill="#5D3119" d="M59.977,27.629c0,0,5.25,1.375,7.75,2.875s4.25,3.625,4.625,5.25s0.375,3.875,0.25,5.75
		s-3.875,15.25-3.875,15.25s6.375-8.875,8.25-9.25s3.375,1.375,3.5,3.125s-0.875,10.625-2.25,15.125s-3,11.75-3,11.75
		s7,0.25,9.125,5.125s2.25,6,2.25,8.625s0.25,3.125-1,6.25s-2.125,4.25-2.125,4.25s3.75-4.25,4.625-6s3.125-8.125,3.625-10.875
		s0.625-8.5,0.125-11.625s-0.875-5.75-1.875-7.625s-1.875-5.125-1.625-7.875s2.625-13.25,3.625-16.625s1.75-5.625,1.75-5.625
		l-8.875,4.75c0,0,0-3.625,0.875-5.75s3.75-10.125,3.75-10.125s-7.875,9.375-8.625,9.125s-1.25-4.5,0.125-7.5
		s3.625-7.625,3.625-7.625l-24.5,8.75"/>
	<path fill="#5D3119" d="M81.352,22.129c-0.313,0.25-3.063,12.063-3,12.25s1.438,1.625,1.563,1.438s1.188-1.625,1.188-1.625
		l0.25-2.25l2.25-8.625l1.313-4.938"/>
	<path fill="#5D3119" d="M86.79,56.441c0,0,2.938,11.813,3,12.25s1.625,6.438,1.625,6.438l1.063,6.375l0.438-3.563
		c0,0-0.563-7.125-0.75-7.75s-2.063-8.313-2.188-8.5s-1.375-3.125-1.375-3.125l0.125-1.938l-1.875-3.625"/>
	<path fill="#834421" d="M89.066,106.12c0.331-1.082,0.779-3.066,0.779-3.066s-4.11,2.58-5.211,2.922
		c-1.1,0.342-1.1,0.342-1.1,0.342s4.198-4.994,5.088-6.107s0.042-3.25,0.042-3.25l-3.069,0.172l0.554-3.047
		c-2.165,1.615-6.001,0.07-4.831-2.91c-1.446-1.616-2.451-4.083-2.838-6.653c-1.55,0.226-3.129-0.23-4.126-1.385
		c-0.912-0.224-1.706-0.88-2.018-2.074c-0.837-3.212-0.678-8.404,2.023-10.74c0.315-0.273,0.643-0.488,0.975-0.661
		c-0.759-1.413-1.297-2.923-1.41-4.624c-1.934-2.625-3.772-5.334-5.404-8.146c-6.178-3.017-8.293-14.269-8.433-20.086
		c-0.044-1.837,0.034-4.174,0.584-6.31c0.103-1.472,0.348-2.909,0.758-4.291c-0.112-0.019-0.223-0.03-0.336-0.06
		c-0.431,0.057-0.858,0.008-1.251-0.125c-0.629,0.494-1.377,0.893-2.103,0.453c-1.061-0.642-0.454-2.122,0.515-2.196
		c0.001,0,0.001-0.001,0.002-0.001c-0.067-0.346-0.071-0.722,0.044-1.133c0.091-0.326,0.169-0.647,0.246-0.969v-4.046
		c0-0.797,0.271-1.382,0.684-1.772c-0.008-1.165-0.092-2.347-0.263-3.576c-0.087-0.631,0.046-1.187,0.31-1.648
		c-0.583-0.376-1.132-0.889-1.644-1.48c-0.248-0.111-0.487-0.251-0.702-0.457c-0.208-0.178-0.416-0.355-0.625-0.533
		c-0.785-0.411-1.563-0.835-2.327-1.291L53.53,8.392c0,0-3.146-2.176-5.542-1.985c-2.396,0.19-5.299-0.655-7.451-0.087
		c-2.152,0.568-6.815,1.277-7.128,1.687c-0.313,0.41-2.83,2.454-3.062,3.307c-0.232,0.853-1.651,3.507-1.359,4.723
		c0.292,1.215,2.263,6.424,2.949,7.673c0.686,1.25,3.103,5.425,3.103,5.425s-1.813,2.621-3.475,3.946
		c-1.662,1.325-13.117,6.725-13.117,6.725s-2.311-1.271-2.918-1.124c-0.608,0.146-2.893,1.337-3.422,2.879
		c-0.53,1.541-3.488,8.706-3.397,11.332c0.091,2.626,0.984,11.591,1.54,12.511c0.555,0.922,3.338,3.621,4.914,3.758
		c1.576,0.135,5.594,0.918,6.974,0.561c1.38-0.357,2.595-0.65,2.595-0.65s2.422,8.264,2.832,8.576
		c0.409,0.314,6.592,7.75,6.592,7.75l1.512,11.002l3.716,26.387l3.435,4.342c0,0,15.346,6.084,17.218,5.531
		c1.874-0.553,5.755-3.232,6.479-4.281c0.726-1.049,4.722-9.67,4.722-9.67s7.855,2.303,9.021,2.127
		c1.166-0.178,5.767-2.004,6.194-2.363s1.138-1.688,1.138-1.688s-2.493-0.533-4.101-1.227c-1.606-0.693-3.179-1.781-3.179-1.781
		s3.959-1.285,5.506-2.66S88.734,107.202,89.066,106.12z"/>
	<path fill="#FFFFFF" d="M48.664,106.994c0,0-7.207,11.797-8.505,15.592c-1.3,3.797-1.753,4.689-1.753,4.689l2.372-0.133
		l2.612-0.846l12.148-6.529l2.047-1.432l0.422-3.971c0,0-3.525-0.979-3.723-0.994c-0.197-0.018-4.255-4.494-4.255-4.494
		l-1.594-1.982"/>
	
		<ellipse transform="matrix(-0.3965 0.918 -0.918 -0.3965 129.8915 83.1718)" fill="#FFFFFF" cx="37.608" cy="84.279" rx="12.157" ry="10.406"/>
	
		<ellipse transform="matrix(-0.3965 0.918 -0.918 -0.3965 129.3515 46.574)" fill="#FFFFFF" cx="49.368" cy="65.802" rx="14.594" ry="13"/>
	
		<ellipse transform="matrix(-0.3965 0.918 -0.918 -0.3965 133.21 61.0041)" fill="#0092FF" cx="46.553" cy="74.288" rx="5.188" ry="5.095"/>
	
		<ellipse transform="matrix(-0.3966 0.918 -0.918 -0.3966 132.8049 95.5477)" fill="#0092FF" cx="34.999" cy="91.423" rx="4.437" ry="4.344"/>
	<circle fill="#00426B" cx="46.367" cy="74.719" r="2.219"/>
	
		<ellipse transform="matrix(-0.3966 0.918 -0.918 -0.3966 132.7928 96.0864)" fill="#00426B" cx="34.818" cy="91.686" rx="1.874" ry="1.844"/>
	
		<ellipse transform="matrix(-0.3965 0.918 -0.918 -0.3965 128.3593 59.0472)" fill="#FFFFFF" cx="44.771" cy="71.714" rx="1.344" ry="1.313"/>
	<circle fill="#FFFFFF" cx="47.771" cy="77.3" r="1.031"/>
	
		<ellipse transform="matrix(-0.3967 0.918 -0.918 -0.3967 129.2189 93.8579)" fill="#FFFFFF" cx="33.765" cy="89.394" rx="1.124" ry="1.156"/>
	<circle fill="#FFFFFF" cx="36.489" cy="94.042" r="0.875"/>
	
		<ellipse transform="matrix(-0.3965 0.918 -0.918 -0.3965 129.4303 46.6156)" fill="none" stroke="#000000" stroke-width="0.75" cx="49.394" cy="65.848" rx="14.501" ry="13.042"/>
	<path fill="none" stroke="#000000" stroke-width="0.75" d="M47.166,80.133c-1.347-0.055-2.662-0.486-3.824-1.186
		c-1.138-0.402-2.293-1.109-3.114-2.031c-0.727-0.576-1.328-1.357-1.859-2.084c-0.499-0.682-0.906-1.393-1.173-2.152
		c-3.81,0.568-7.448,3.342-9.279,7.584c-2.646,6.125-0.527,12.934,4.732,15.207c5.26,2.271,11.67-0.854,14.316-6.98
		c1.228-2.842,1.411-5.824,0.748-8.438c-0.015-0.002-0.029,0.002-0.044,0.002C47.523,80.107,47.358,80.141,47.166,80.133z"/>
	<line fill="none" stroke="#000000" stroke-width="0.75" x1="36.425" y1="96.396" x2="39.869" y2="123.414"/>
	<path fill="none" stroke="#000000" stroke-width="0.75" d="M28.613,78.861c0,0-1.79-2.475-2.56-6.211
		c-0.769-3.736-2.192-14.155-2.192-14.155s-4.395,4.501-5.612,5.271c-1.217,0.768-1.603,0.873-1.603,0.873
		s-0.064-6.156,3.657-13.194c3.721-7.04,5.295-9.423,5.295-9.423s-3.941,0.612-5.671,0.205c-1.73-0.406-2.534-0.753-2.534-0.753
		s2.788-2.2,6.511-4.2c3.723-2,8.588-4.12,9.905-5.593c1.317-1.473,2.042-2.522,2.042-2.522"/>
	<path fill="none" stroke="#000000" stroke-width="0.75" d="M42.306,36.915c0,0-5.972-6.664-8.675-11.44s-3.937-9.326-3.744-10.876
		c0.193-1.55,0.869-5.479,4.253-6.537c3.384-1.057,6.809-1.893,10.28-1.891c3.471,0.002,5.055,0.277,6.194,0.634
		c1.14,0.355,7.394,3.057,7.516,3.246c0.123,0.189,1.629,1.588,0.999,6.831c-0.632,5.242-1.833,12.28-1.833,12.28"/>
	<path fill="none" stroke="#000000" stroke-width="0.75" d="M46.854,33.637c0,0-5.29-6.982-5.669-12.252
		c-0.379-5.27-0.337-5.524-0.337-5.524"/>
	<path fill="none" stroke="#000000" stroke-width="0.75" d="M92.334,82.965c-1.1,5.381-4.69,13.225-4.69,13.225
		s2.488-1.035,3.395-1.869c0.904-0.834,0.904-0.834,0.904-0.834s-1.336,5.141-3.987,8.285s-3.893,3.969-3.893,3.969
		s4.51-1.457,5.258-2.086c0.749-0.629,0.749-0.629,0.749-0.629s-0.383,4.668-2.909,7.049c-2.525,2.381-6.222,3.371-6.222,3.371
		s3.104,2.43,5.056,2.797c1.951,0.367,1.951,0.367,1.951,0.367s-0.35,1.754-3.923,2.934c-3.573,1.182-5.993,0.953-7.953,0.445
		c-1.96-0.506-4.336-1.941-4.336-1.941"/>
	<path fill="none" stroke="#000000" stroke-width="0.75" d="M57.699,26.339c0,0,6.467,0.002,11.914-2.206
		c5.448-2.209,15.291-6.399,15.291-6.399s-4.065,15.4-3.811,15.442c0.254,0.042,8.451-8.06,8.451-8.06l-4.669,14.119l8.981-4.085
		c0,0-5.464,19.426-5.187,22.881c0.278,3.456,2.531,7.697,3.348,12.271c0.814,4.572,1.415,7.283,0.316,12.662"/>
	<path fill="none" stroke="#000000" stroke-width="0.75" d="M38.604,126.816c0,0,1.209-3.902,3.975-9.516
		c2.765-5.615,6.525-11.479,8.631-13.838c2.107-2.355,4.369-3.967,4.369-3.967s2.028,2.238,2.499,7.139
		c0.47,4.9-0.535,11.955-0.535,11.955s-12.223,7.18-14.499,8.035S38.503,127.523,38.604,126.816z"/>
	<path fill="none" stroke="#000000" stroke-width="0.75" d="M42.944,126.854c0,0,10.263,4.297,13.208,4.889
		c2.944,0.59,6.037,0.838,8.021-0.758c1.981-1.594,3.705-4.322,5.991-8.984c2.286-4.664,7.928-17.408,7.903-20.348
		c-0.023-2.938-2.679-10.348-3.593-12.172s-1.731-2.926-1.731-2.926"/>
	<path fill="none" stroke="#000000" stroke-width="0.75" d="M58.073,117.049c0,0,5.598,2.486,7.444,2.467s6.38-1.057,6.38-1.057"/>
	<path fill="none" stroke="#000000" stroke-width="0.75" d="M25.546,69.096c0,0-5.551,1.346-8.938,0.359s-4.942-2.27-5.69-4.635
		c-0.749-2.368-1.753-9.813-1.349-13.587c0.405-3.773,1.876-7.496,2.998-9.462s1.96-2.489,3.036-2.773
		c1.076-0.284,4.002,0.979,4.002,0.979"/>
	<path d="M47.563,109.174c0,0-4.224,11.883-2.726,11.984c1.5,0.104,13.3-5.783,13.3-5.783s-0.309-10.211-0.775-11.863
		c-0.466-1.654-1.344-4.348-1.783-4.016c-0.438,0.332-7.603,7.041-8.288,9.469"/>
	<ellipse fill="#FFFFFF" cx="47.103" cy="71.046" rx="8.083" ry="8.542"/>
	<ellipse fill="#FFFFFF" cx="35.769" cy="87.796" rx="7.75" ry="7.958"/>
	<path fill="#FF0000" d="M74.883,84.191l-0.018,0.132l-0.232,1.806c0,0,1.094,1.938,1.156,2.094s1.5,1.313,1.5,1.313
		s0.5,0.031,0.594-0.031s1.656-0.875,1.656-0.875l1.406-1.156l1.125-1.063c0,0,0.625-1.281,0.531-1.25s-0.25-1-0.25-1l-0.25-0.813
		l-0.5-0.531l-1.688-0.25c0,0-3.375,0.406-3.469,0.469"/>
	<path fill="none" stroke="#000000" stroke-width="0.75" d="M76.165,93.566c0,0-0.25-0.125-0.75-1.5c-0.354-0.972-2.438-2.688-3-3.5
		s-1.625-2-2-2.875s-0.063-1.75,0.125-2.25s1.813-0.875,1.813-0.875s7.375-0.25,8.5,0s1.75,1.438,1.75,1.75s0.688,1.938-2.5,3.938
		s-3,1.813-4.063,2.5s-1.063,0.688-1.063,0.688"/>
	<path fill="#050202" d="M79.04,82.816c-0.188,0.125-3.125,1.188-3.563,2.313s0.25,1.875,0.688,2.5s2.125,2.063,2.125,2.063
		l-2.875,1.531c0,0-3.75-3.125-4.469-4.281s-0.906-2.875-0.906-2.875l0.531-1l3.625-0.688l4.125-0.063L79.04,82.816z"/>
	<path d="M46.602,80.504c0,0-1.438-3.438-1.313-6.625s0.813-4.75,1.875-6.438s5.063-4.813,5.063-4.813s-3.5,4.688-4.25,6.688
		s-1.5,4.5-1.375,6.25s0.438,4.938,0.438,4.938"/>
	<path d="M33.977,92.754c0,0-0.688-1.5,1.5-4.25s3.625-3.5,3.625-3.5l2.438-0.938l3.25-0.063l2.5,0.125c0,0-1.875-1.438-4.125-1.313
		s-4.875,0.875-5.688,1.563s-3.063,3-3.375,4.25s-0.063,3.688-0.063,3.688"/>
</g>
</svg>
