<?xml version="1.0" encoding="utf-8"?>
<!-- Generator: Adobe Illustrator 13.0.0, SVG Export Plug-In . SVG Version: 6.00 Build 14948)  -->
<!DOCTYPE svg PUBLIC "-//W3C//DTD SVG 1.1//EN" "http://www.w3.org/Graphics/SVG/1.1/DTD/svg11.dtd">
<svg version="1.1" xmlns="http://www.w3.org/2000/svg" xmlns:xlink="http://www.w3.org/1999/xlink" x="0px" y="0px"
	 width="252.969px" height="188.796px" viewBox="0 0 252.969 188.796" enable-background="new 0 0 252.969 188.796"
	 xml:space="preserve">
<g id="frame_1">
	<path fill="#E7EDF2" d="M36.847,48.874c0,0-1,0.625,2,2.375s3.75,2.375,6.625,2s3.75-0.25,5-1.25s2.875-2,2.875-2
		s-0.5,0,0.75,2.125s2.125,3.25,4.25,4.625s3.375,2.625,5.875,2.75s2.25,0.75,5.375-0.125s2.625,0.625,6-2.75s4.375-5.5,4.75-7.375
		s1.125-2.875,0-5.375s-1.375-4.5-3.375-5.75s-2.375-2.375-5-3s-4-1.125-5.125-0.875s-2.5-0.25-4.5,0.75s-2.5,1.25-4,2.125
		s-2.625,2.375-2.625,2.375s-1.5-2-1.75-2.375s-2.375-1.75-3.25-2.25s-2-1.25-3-1.5s-1.625-0.25-1.625-0.25l-0.625-5
		c0,0,1.625-0.5,3.75,0.125s13.875,0.25,13.625,0.625s11.125,0.375,11.125,0.375s9.5,2,9.875,2.625s4.25,13.25,4.375,14.125
		s-0.875,9-0.875,9.625s-1.375,9.625-1.375,9.625s4.75,9,5,9.5s5.625,15,5.625,15.625s-0.5,16.5-0.75,16.875s7.75,11.5,8.625,11.875
		s9.875-0.25,9.875-0.25s15.625-4.125,16.125-3.75s14.375-1.5,14.375-1.5l19.25,1.875l9.125-6.125l19-5.375l9.625-0.75l-0.75-6.375
		l20.375-2.75l9.125-3.5c0,0,7.125,4.875,7.25,5.375s4.25,14.5,4,15.5s-4,17.375-4,17.375l-12.25,9.75l-2.5,1.5
		c0,0,0.875,0.5,2.25-4.625s2.875-11,2.875-12.375s-1.75-6.625-2.875-8.375s-3.375-4.625-3.375-4.625l-0.75-0.125
		c0,0,0.125,5.75,0,6.875s-0.75,5.875-0.75,5.875s-3.75-8.625-4.125-9.375s-2.875-3.125-4-3.5s-3.125-1.5-4.375-1.375
		s-8,1.125-8,1.125l6.125,11.5l-19.625-6.625c0,0-1.25,3.625-2.125,6.625s-1.125,4.375-1.875,6s-2.625,7-2.625,7
		s3.625,6.625,3.875,7s-8,9.875-8,9.875s3.625,3.75,3.375,4.125s-9.625,10.75-9.625,10.75l-10.375,19.75c0,0-3.375,1.125-5.5,1.625
		s-10.75,0.875-10.75,0.875v-0.875l-5.625,0.125l-2.125-0.5l0.375-0.5l-1.5-0.125c0,0-0.25-1,0.75-1.75s2.625-3.125,3.75-3.875
		s2.75-1.875,4.75-2.125s5.5-0.375,7.5-0.375s3.5-0.125,3.5-0.125s3.875-5.75,4.875-8.375s1.5-3.625,3-7.125s2.75-6.375,3.25-8.5
		s2.375-10.125,2.375-10.125s-5.25-1.125-7.125-1.75s-12.625-4.625-12.625-4.625l-1.625,4.375l-4.125,0.375l-2,0.75l3,1.375
		c0,0-2.625,0.75-4.25,1.5s-4.75,1.5-5.75,1.75s-3.625,0.5-3.625,0.5l2,2.625c0,0-1.75,1.25-2.25,1.5s-4.25,0.5-4.25,0.5l-8,3.5
		l-5.375,4.75l-8.875,15.375l-8.375,10.25l-10.875,0.75l0.625-1l-3.25,0.25l-2.625-0.5l-0.875-1l-1.625-0.125l-1.5-1.25
		c0,0,0.25-1.75,2.75-3.75s4.625-3.625,7.625-4.375s4-1.125,6.125-1s3.625,0.375,3.625,0.375s4.625-11,5.375-13
		s4.375-11.625,4.375-11.625s-2-6.125-2.125-6.875s-0.375,1.75-0.375,1.75s-2.25-2.25-3.5-3s-14.25-6.375-15.375-6.875
		s-6.125-2.5-7-3s-2.875-2.75-3.25-3.75c-0.276-0.735-0.687-4.784-0.885-6.874c-0.071-0.752-0.115-1.251-0.115-1.251
		s-0.375,1.125-1.125,1.375s-4.375-0.625-4.375-0.625s-0.375,0.125,2.375-3.375s6.25-8.375,8.125-11.875s3.875-8.125,4-12
		s-0.5-6.5-1.375-8.875c0,0-3.875-3.5-4.5-4.125s-10.125-6.5-10.125-6.5s-0.125,1.25-2.5,4s-2.25,2.625-4.5,4.625
		s-5.75,3.875-7,4.75s-4.125,1.75-4.125,1.75l0.5,4.875c0,0-1,0.875-2.625,0.75s-3-1.375-3.875-1.75s-1.375,0-1.375,0
		s-0.25,1-1,2.125s-1.25,1.75-2.125,1.75s-2.875-2-2.875-2s-0.25-2.25-0.375-3.125s-0.25,2.875-0.25,2.875l-1.25,0.375l-1.125-0.375
		l-1-1.5l-0.5-2.25l-0.125-5.25c0,0-3,0.625-4.75,0.625s-6.875-0.5-8.125-2.25s-1.25-1.75-1.25-1.75s-1.75-0.125-2.375-0.125
		s-5.25-2.125-6.375-2.75s-3.625-4.375-4.25-5.125s-1-2.625-1-2.625l0.625-9l1.75-3.625c0,0,2.5,2,3.625,2.75
		s4.125,1.375,4.125,1.375s1.125,0.25,3.75-1.125s8.875-6,8.875-6l-8.375-3.75l-0.625-0.625h3.875l1.5-0.75L36.847,48.874z"/>
	<path fill="#E7EDF2" d="M98.222,2.499c0,0-3.25,7.875-4.5,10.875s-5.25,11.625-6.375,13.25s-3.125,2.5-3.125,2.5l10,12.625
		l6.75-8.25c0,0,1.375-14.625,1.375-15s-2.125-10-2.125-10l-1.875-6.5"/>
	<path fill="#E7EDF2" d="M59.222,3.999l6.375,4.625c0,0,4.625,3,5.25,4.125s3.75,6,3.75,6s1.125,4.25,1.375,5.125s0.5,4.25,0.5,4.25
		l-15.75-0.125l-2.125-1.125l1.75-4.375c0,0,0.375-4,0.375-5.75s0.25-6.875,0.25-6.875L59.222,3.999z"/>
	<path fill="#737679" d="M45.972,28.499c0,0,2.5,0.25,3.625,1.375s5.875,3.5,5.875,3.5s3.75-1.125,6.625-1.75s3.125-1.25,7.75-1.25
		s8.5,0,10.625,2.125s4.25,5.625,4.75,9.25s0.625,20.75,0.625,20.75l-18.625,0.625c0,0,1.125,0.375,6.375,2s7,2.25,10.125,4.5
		s5.625,5,6.625,8.125s2.625,8.875,2.75,12.5s0.25,4.25-0.5,10.875s-1.375,9.25-0.5,13.625s2.75,8.875,2.75,8.875s-0.5-3.375,0.25-6
		s1.75-3.5,1.75-3.5s-0.375,4,2.625,7.625s11,7.75,11,7.75l-1.25-3.625c0,0,1.625,2.125,4.75,2.25s8.75-0.25,8.75-0.25
		s-2.75-1.75-3.75-3.25s-1-1.5-1-1.5s0.875,0.75,3.875,0.875s6.125,0.125,11.875-1.75s7.375-3,12.625-3.5s5.375-1.25,11.875-0.875
		s14.25,3.125,14.25,3.125s-2.125-3.5-3.25-5.375s-0.875-4.5-1-4.125s-1.125-0.375,3.375,1s5.875,2.375,8.875,4.125
		s4.875,2.625,4.875,2.625s0.25,0.5,0.875-2.375s0.5-5.5,0.5-7s0.125-2.625,0.125-2.625s-3.125,0.5,4-0.75s13.875-2.125,16-2.125
		s-2-2.125-3.75-2.5s-0.625-1.875-0.625-1.875s0.75-1,5.25-1.875s5.5-1.25,10.625-1.125s8.5,1.75,10.875,2.625s3.875,2,3.875,2
		s0.625-1.25-0.625-3.75s-1.875-3.875-1.875-3.875s1.375-0.375,3,2.375s3.75,5.125,4.125,9.25s0.375,8.375,0.125,10.5
		s-1.125,4.5-2.25,7.5s-3.875,7.375-5.75,9.875s-6.5,6.75-6.5,6.75s7.25-4.625,10.625-7s5.5-3.75,7.375-6.125s3.5-5,4.125-7
		s1.25-7.75,1.25-9.875s0.25-3.375,0-5.125s-1.25-7.5-1.25-7.5l-1.25-3.625l6.25,7.875c0,0,0.375-5.375-0.125-8s-1.125-7-2.625-8.75
		s-3.25-4.125-4.75-5.125s-4.375-2.875-6.25-3.75s-5.75-2-6.5-2.125s-2.875-0.25-2.875-0.25s0.625-0.875,2.375-2.25
		s4.875-3.625,4.875-3.625s-3.75-0.375-7.625,0.875s-9.75,3.75-12.25,5.25s-7.125,4.5-10.5,8.25s-5.5,6.75-7.5,8.875
		s-5.5,4-8.625,5.875s-5.5,3-6.375,3.125s-3.25-1.125-5.25-1s-4,0.125-4,0.125s-0.125-0.5,1.875-1.625s5.25-2.875,5.25-2.875
		s-0.75,0-3.25,0.5s-3,0.25-5.625,0.75s-5.375,0.875-6.5,1s-1.125,0.125-1.125,0.125l3-3.875c0,0-1.625-0.25-3.25,0.5
		s-5.25,1.5-6.875,2.875s-2.25,1.875-2.25,1.875s-0.375,0-0.25-1.25s0.25-2,0.25-2s0,0.625-2.125,1.875s-5.625,1.75-6.5,2
		s-0.875,0.25-0.875,0.25s1.75-0.5,3-2.375s2-3.625,2-3.625s-1.25,0.875-4.125,2s-5.125,1.375-6.875,1.875s-4.75,1.125-4.75,1.125
		s1.75-1.375,3-3.125s3.375-6.375,3.375-6.375s-0.625,0.75-3,2.375s-6.75,3.125-9,3.5s-6.875,0.625-6.875,0.625
		s1.125-0.25,2.375-1.375s3.375-4.125,3.375-4.125s-4.875,1-6.375,1.25s-3.5,0.25-3.5,0.25l2-1.75c0,0-2.5-0.375-5.125-1.875
		s-5.25-3.25-6.75-4.125s-5-5-5-5s-0.125-0.375-0.375-2.875s-1-4.875-1.625-5.875s-1.875-3.875-1.875-3.875s2.375,0.75,4.625,2.875
		s4.25,5.25,4.25,5.25s0.125-2.875-0.625-4.75s-1-3.5-2.75-5.625s-4.875-5.75-4.875-5.75s0.875-0.625,4.5-0.125
		s4.875,0.625,6.375,1.25s2.125,1.125,2.125,1.125s-0.875-2.375-2.75-4.25s-3.125-3-5.375-4.5s-4.5-3.125-5.375-3.125
		s-0.875,0-0.875,0s1.25-0.375,2.875-3s2.5-4.875,3.375-7s1.25-3.25,1.25-6s-0.125-16.75-0.125-16.75s-0.625-3.875-2.125-6.75
		s-4.5-7.875-4.5-7.875s-0.75-0.25-0.125,2.5s1.625,7.5,1.625,7.5s0.625,5,0.625,7.25s0,4.375-0.25,6.625s-0.75,5.375-1.625,7.5
		s-0.75,2.625-2.25,4.875s-2.125,3.375-2.125,3.375l-8.125-11.75c0,0-3-1.75-6.375-1.875s-10.875-0.5-13-0.375
		s-10.75-0.625-11.25-0.5S45.972,28.499,45.972,28.499z"/>
	<path fill="#737679" d="M80.847,134.749l4.375,16.375l-8.5,19.875c0,0-5,0.625-6.625,0.875s-4.25,0.75-6,2.125s-6,5.125-6,5.125
		l3,2.125l-0.375,0.75l13.375,0.875c0,0,4.75-4.875,7-5.625s4.625-2,4.625-2s0.75-2.375,1.875-4.75s3.25-6.625,3.625-6.875
		s2.5-1.125,2.5-1.125l7.625-4.5l2.125-5.5c0,0-0.5,0.625-1.25-1.5s-1.75-7-1.75-7s-3.125-3.125-4.25-3.875s-7-3.75-7-3.75
		L80.847,134.749z"/>
	<path fill="#737679" d="M141.972,142.624c0,0,0.75,2.5,0.125,5.625s-4.125,12.125-5.25,14.875s-5.5,10.5-6.125,11.375
		s-0.625,0.875-0.625,0.875s-6.25,0-7.875,0.125s-3.25-0.25-4.375,0.75s-5.5,6-5.5,6l1.375,0.375l-0.125,0.625
		c0,0,2.25,0.125,3.25,0.25s3.75-0.125,3.75-0.125l-0.75,1.375c0,0,3.125,0.125,4.625,0.125s5.375-0.625,6.875-1.125
		s3.125-1.125,3.125-1.125s5-7.125,7.125-10.125s4.375-6,6.625-8.875s3-3.625,5.375-5.875s9.25-9.375,9.25-9.375l-9.125,2
		l8.375-7.625c0,0-6.5-2.25-8.25-3.25s-6.125-4.125-6.125-4.125l-2,1.375l2.375,0.625c0,0-1.25,1.625-2.375,2.625
		s-3.75,2.25-3.75,2.25"/>
	<path fill="#A1A5A9" d="M122.472,130.749c0,0-2.5,1.375-3.875,3.375s-2.625,5.5-2.875,8.625s-0.5,9.25-0.5,9.25l-6.125,0.375
		l4.25,4.375l0.75,1.375c0,0-0.75-0.375-2.375-0.125s-3.875,1.875-5.5,3.25s-3.25,3.875-4.5,7.5s-1.75,7.75-2.875,9.75
		s-1.625,3.75-3.25,5.375s-5.375,3.75-5.375,3.75s8.75-1.625,9.375-2s1.125-0.875,3-4.375s3-5.75,4.75-9s1.625-5.125,3.75-6.375
		s14.75-8.875,14.75-8.875l-4.875-2.5h5.75c0,0-2-1.25-2.75-3.5s-1.875-3.25-1.875-5.25s0-7.25,0-8.125
		S122.472,130.749,122.472,130.749z"/>
	<path fill="#A1A5A9" d="M183.347,118.374c0,0-0.125,0.75-2.25,2.375s-7.375,5.25-8,6.625s-1.75,3.25-1.25,6.25s0.875,4.125,2.5,6
		s4,3.875,4,3.875l-7.25,9.625l3.125,0.125c0,0-3.125,3.375-5,5.875s-3.5,5.25-5.125,8.125s-3.75,7.625-5.125,10.375
		s-5.625,9.375-5.625,9.375l5.125-1.375c0,0,4.5-6.5,6.875-9.75s7-10.375,10.5-13.75s14.625-14.375,14.625-14.375l-10.875,2.875
		l8.5-7.625l-7.5-10.875c0,0,2.5-5.5,3.25-7.5s1.875-4.875,1.875-4.875L183.347,118.374z"/>
	<path d="M7.306,52.416c0.25-0.25,3.667,0,5.667,0.75s2.333,1.833,2.333,1.833s-6.5,0-6.75,0.083s-0.833,0.417-1.583,1.167
		s-0.833,1.333-0.25,2.083s5,4.667,5,4.667s3.167-0.583,5.167-1.667s8.167-5.25,8.167-5.25s-6.417-2.583-7.75-3
		s-2.667-1-3.333-0.917s-6.5-0.167-6.5-0.167"/>
	<ellipse fill="none" stroke="#000000" stroke-width="0.75" cx="66.931" cy="46.957" rx="13.708" ry="12.625"/>
	<path fill="none" stroke="#000000" stroke-width="0.75" d="M36.389,49.082c-0.25,0.083-13.5,2-16.75,2.5s0.5,0.667-4.667,0.667
		c-1.106,0-2.105,0.007-3,0.022c-0.088,0.001-0.175,0.003-0.261,0.004c-0.505,0.009-0.976,0.021-1.413,0.034
		c-2.259,0.069-3.596,0.195-4.077,0.355c-0.75,0.25-2.833,1.167-3.583,2.167s0,4.833,0,4.833s2.334,1.333,3.667,2.333
		s3.917,1.5,3.917,1.5s3.167-0.583,6.917-2.417s7.5-4.917,7.5-4.917s-4.667-2.083-6.917-2.583s-3.5-0.583-4.5-0.75
		s-2.833-0.25-2.833-0.25"/>
	<path fill="none" stroke="#000000" stroke-width="0.75" d="M2.639,59.665c-0.167,0.25-1.833,2.917-2,4.167
		s-0.083,9.167-0.083,9.167s0.833,2.417,2,3.917s3.5,3.583,5.583,4.5s4.083,1.5,6.75,1.5s12.333-0.249,14.917-0.416
		s7.833-1.333,10.917-2.5s7.167-2.916,9.333-4.834c2.167-1.917,4.5-5.583,4.5-6.583s-0.083-1.5-0.083-1.5"/>
	<path fill="none" stroke="#000000" stroke-width="0.75" d="M10.222,63.499c0,0-0.083,7.333,0.333,10.167
		c0.417,2.834,1.5,6.166,2.333,7.5s1.667,3.166,3.75,4.25s5.583,1.584,8.25,1.417s3.583-0.333,3.583-0.333s0.084,3.666,0.167,5.166
		s1.417,3.834,1.917,4.084s1.75-0.417,1.917-0.917s0.083-3.167,0.083-3.167s0.417,3.334,1,3.917s1.25,1.583,2.417,1.5
		s2.5-1.25,2.667-2s0.5-1.667,0.5-1.667s0.917-0.083,1.667,0.417s2.083,1.167,3.5,1.167s2.5-0.25,2.5-0.25l-0.25-5.167
		c0,0,0.5,0,2.75-1s3.917-1.916,5.25-3.083s4.417-3.167,5.5-4.417s2.916-3.084,3.333-3.917s1.083-2.167,1.083-2.167
		s2.75,1.25,5.167,2.833s3.75,2.167,5.75,3.75s5.25,4.917,5.25,5.75s0.084-4.584-0.333-7.167s-1.667-6-1.667-6s2.917,1.583,5.583,4
		s4.584,3.751,6.417,5.834s3.083,5.5,3.083,5.5s0.833-3.001,0.75-6.834s-0.166-8.333-0.916-9.5s3.916,2.083,5.166,3.667
		s2.833,3.251,2.75,4.167s0.334-4.666,0.084-7.083c-0.25-2.417-1.917-5.917-3.167-7.417s3.501,1.833,5.667,4
		s2.916,3.167,2.916,3.167s-0.083-4-1.333-6.667s-6.833-8.917-6.833-8.917s8.666,0.167,10.666,1s2,0.833,2,0.833
		s-3.417-5.583-6-7.417s-6.083-3.75-7.25-4.083s-0.75-0.25-0.75-0.25s3-2.333,4.5-5.75s2.666-6.5,2.583-9.083
		s0.167-16.417,0.167-16.417s-0.501-3.25-2.167-7.583s-4.75-8-4.75-8s-0.832,4-2.749,8.75s-2.583,6.667-4.5,10.083
		s-4,8.083-4.917,8.25s-0.917,0.167-0.917,0.167s-1.5-1-6.417-1.5s-15.667-0.917-18.417-0.833s-3.833-0.167-8.167,0.833
		s-6.25,1.417-6.25,1.417l0.417,4.417"/>
	<path fill="none" stroke="#000000" stroke-width="0.75" d="M59.306,25.999c0,0,1-3.083,1.083-7.25s0.5-8.833,0-10.5
		s-0.5-3.583-1.083-4.333s-0.583-0.75-0.583-0.75s1.417,0.583,5.5,4.083s4.583,2.75,6.75,5.917s3.833,5.583,4.333,7.333
		s0.75,6.5,0.75,6.5"/>
	<path fill="none" stroke="#000000" stroke-width="0.75" d="M78.806,84.499c0,0,1.667,4.667,1.75,7.5s-0.917,7.916-2.083,10.333
		s-4.75,8.667-6.333,11s-6.333,8.083-6.333,8.083s1.25,0.583,2.75,0.5s3.167-0.583,3.167-0.583"/>
	<path fill="none" stroke="#000000" stroke-width="0.75" d="M71.639,119.915c0,0-0.25,4.334,0.083,5.834s0.417,3.666,2.75,5.583
		s2.75,2.75,7.917,4s4.584,0.417,8.167,2.167s3.582,1.417,6.416,3.5s4.5,3.833,4.5,3.833s-0.166-2.917-0.166-3.75
		s-1.584-1.917-1.584-1.917"/>
	<path fill="none" stroke="#000000" stroke-width="0.75" d="M101.847,78.374c0,0,1.25,2.75,4.125,4.625s9.5,5.625,11,6.25
		s1.5,0.625,1.5,0.625s-1,1-1.625,1.375s2.25,0.125,2.25,0.125s2.625-0.125,4.875-0.5s2.25-0.375,2.25-0.375l0,0
		c0,0-2,2.375-2.875,3.375s-1.875,1.625-1.875,1.625s2.125,0.25,4.125-0.25s5.25-1.25,7.75-2.25s6.125-3.25,6.125-3.25
		s-2.5,5.25-3.125,6s-2.625,2.625-2.625,2.625s6.25-1.25,9.5-2.25s5.875-2.125,5.875-2.125s-0.25,1.25-2.125,3.125
		s-2.375,2.25-2.375,2.25s4.375-0.375,6-1.5s2.875-2.375,2.875-2.375s0,2.5,0.125,3.5"/>
	<path fill="none" stroke="#000000" stroke-width="0.75" d="M134.597,186.374l-1.25-0.5c0,0,2-2.125,3.75-4s3.625-2.625,5-3
		s11.75-0.75,11.75-0.75s3.375-5.375,4.875-8.25s3.875-8.875,5.125-12s3.625-13.5,3.625-13.5s-3.875-1-6.125-1.875
		s-6.375-2.375-9.625-4.125s-5.125-3.75-7.5-6.25s-4.25-5.875-4.625-7.375s0.125-8.125,1.75-11.75s4.75-7.375,7.125-9.875
		s6.125-5.25,9.125-7s7.5-2.75,8.125-2.625l-2.875,3.75c0,0,2.125-0.25,6.25-1s10-1.125,10-1.125h0.625c0,0-3.875,1.625-5.375,2.75
		s-2.625,1.75-2.625,1.75s3.25-0.375,5.75,0s3.625,0.625,5,1.5s4,3.25,4.25,5.125s0.25,1.875,0.25,1.875"/>
	<path fill="none" stroke="#000000" stroke-width="0.75" d="M142.472,187.499c0,0-2.75,0.25-4.625,0.25s-3.25-0.75-3.25-0.75
		s1.5-2.25,3.25-3.875s4.125-3,4.125-3"/>
	<path fill="none" stroke="#000000" stroke-width="0.75" d="M147.597,182.624"/>
	<path fill="none" stroke="#000000" stroke-width="0.75" d="M147.597,182.624c0,0-5.5,5.125-5.5,5.625s2.375-0.25,5.125-0.25
		s6.875-0.5,8.5-0.875s3-1,3-1s3.5-5.875,6.625-10.125s7.375-10.75,10.25-13.5s14.25-14.375,14.25-14.375s-2.5,0.25-5,1.125
		s-4.875,1.375-4.875,1.375l8.25-7.75l-7.875-10.375c0,0,2.625-5.375,4.125-10s2.375-9.25,2.5-11.125"/>
	<path fill="none" stroke="#000000" stroke-width="0.75" d="M181.472,100.249c0,0,2.75-1,6.125-2.625s7.875-4.5,10-7.375
		s5.25-6.625,8.875-10s10.125-7.375,13.125-8.5s6.625-2.5,9.375-3s5.875-0.75,5.875-0.75s-3.875,2.375-5.375,3.875s-1.5,1.5-1.5,1.5
		l0,0c0,0-0.5,0.125,3.25,1s3.125,0.625,8,3.25s5.375,4,7.5,6.5s2.875,6.625,3.375,9s0.375,8.375,0.375,8.375s-3-3.625-4-5
		s-2.375-2.75-2.375-2.75s1.375,2.75,1.75,5.375s1.5,10,0.875,15s-2.25,9.875-5.125,13s-8.75,7-11.25,9s-7.25,4.25-7.25,4.25
		s1.75-3.625,3-7.375s2-9,1.875-11.125s-4-10.375-5-11s-1-0.625-1-0.625l-0.625-0.25c0,0-0.5,10.25-0.75,11.375
		s-0.25,1.125-0.25,1.125s-3-7.25-4.25-9.25s-2.625-3.125-4.125-3.75s-4.5-1.375-6.625-1.125s-5.5,1.375-5.5,1.375l6,11.125
		c0,0-9.5-4-11.375-4.625s-7.5-1.75-7.5-1.75"/>
	<path fill="none" stroke="#000000" stroke-width="0.75" d="M99.472,129.999c0,0,1.5,9.875,2.25,12.5s2.25,7.875,2.25,7.875
		s-4.125,11.5-5.125,13.5s-4.75,11-4.75,11s-4.25-0.5-6.625,0s-7.125,2.375-8.875,3.75s-4.5,4.25-4.625,4.875s0.625,1.125,1.125,1.5
		s2.625,0.375,2.625,0.375"/>
	<path fill="none" stroke="#000000" stroke-width="0.75" d="M83.972,186.499c0,0-3.25,0.375-5.125,0s-1.375-1.875-1.375-1.875
		s0.75-1.5,2.25-3.125s4.5-2.625,4.5-2.625"/>
	<path fill="none" stroke="#000000" stroke-width="0.75" d="M90.097,180.374c0,0-2.75,1.75-4,3.125s-3.125,4.125-2.125,4.25
		s6.375-0.125,6.375-0.125s7.625-1.125,9.25-2s6.375-10.125,6.375-10.125s3.25-8.25,5.125-9.625s14.75-8.75,14.75-8.75
		s-4.625-3-4.875-2.625s5.375-0.125,5.375-0.125s-1.375-0.75-2.375-3.375s-1.625-4.875-1.75-6.625s-0.5-8.875-0.25-10"/>
	<path fill="none" stroke="#000000" stroke-width="0.75" d="M80.722,134.874c0,0,2.125,5.625,2.625,9s1.625,7.25,1.625,7.25
		s-3.875,8.75-5.25,12.5s-3,7.5-3,7.5s-6.125,0.375-8.625,1.125s-5.875,2.625-7.25,4s-2.875,3.125-2.875,3.125
		s1.875,1.5,2.625,1.625l0.75,0.75"/>
	<path fill="none" stroke="#000000" stroke-width="0.75" d="M67.722,175.249c0,0-2,0.625-3.5,2.125s-3.5,4.875-3.5,4.875
		s0.875,0,3,0.25s10.375,0.25,10.375,0.25"/>
	<path fill="none" stroke="#000000" stroke-width="0.75" d="M67.472,182.499c0,0,3.375-4.5,4.375-5"/>
	<path fill="none" stroke="#000000" stroke-width="0.75" d="M85.347,175.624c0.125-0.5,1.75-4.625,2.75-6.25
		s3.125-5.625,3.125-5.625l10-5.75l0.25-3.25"/>
	<path fill="none" stroke="#000000" stroke-width="0.75" d="M99.722,154.749"/>
	<path fill="none" stroke="#000000" stroke-width="0.75" d="M100.222,143.999c0,0,1.25,4.5,1.625,5.75s1.5,2.75,1.5,2.75"/>
	<path fill="none" stroke="#000000" stroke-width="0.75" d="M125.347,152.999c0,0,2.875-0.125,4.25-1s2-1.375,2-1.375l-2.375-2.25
		c0,0,3.5-0.625,5.75-1.125s8.125-3,8.125-3l-3.125-1c0,0,3.875-1.75,5.125-2.75s3-3.375,3-3.375l-2.75-0.375l1.875-0.875"/>
	<path fill="none" stroke="#000000" stroke-width="0.75" d="M141.847,142.374l0.75,2c0,0-1.125,6.625-1.875,8.875
		s-4.75,12.375-6,14.875s-4.625,7.5-4.625,7.5s-3.375-0.375-6.25-0.25s-5.25,0.125-6.875,1.5s-5,5.625-5,5.625l1.875,0.375"/>
	<path fill="none" stroke="#000000" stroke-width="0.75" d="M119.097,177.749c0,0-5.875,5-5.5,5.5s4.5,0.375,4.5,0.375l2.375-0.125"
		/>
	<path fill="none" stroke="#000000" stroke-width="0.75" d="M124.722,179.374c0,0-2.75,2.125-3.5,3.125s-1.25,2.25-1.25,2.25
		s6.125,0.25,8.25-0.125s6.125-1.75,6.125-1.75s3.25-4.625,5.75-8.125s7.875-11.5,10.75-14.25s11.875-12,11.875-12l-8.5,1.875
		c0,0,2.5-2.25,4.25-3.875s3.625-3.75,3.625-3.75"/>
	<path fill="none" stroke="#000000" stroke-width="0.5" d="M97.847,2.749c0,0,1.625,7.875,1.75,10.5s0.5,5.75,0.375,10.25
		s-1.75,9.375-2.75,11.875s-3,5.375-3,5.375"/>
	<path fill="none" stroke="#000000" stroke-width="0.75" d="M53.616,49.264c-0.16-1.084-0.366-2.168-0.311-3.266
		c0.024-0.468,0.122-0.915,0.252-1.348c0.053-0.33,0.13-0.653,0.235-0.969c0.005-0.425,0.054-0.85,0.191-1.262
		c0.083-0.25,0.167-0.5,0.25-0.75c0.245-0.735,0.639-1.382,1.123-1.934c-1.518-3.787-5.399-6.487-9.968-6.487
		c-5.891,0-10.667,4.477-10.667,10s4.776,10,10.667,10c3.343,0,6.307-1.458,8.262-3.714C53.637,49.444,53.625,49.354,53.616,49.264z
		"/>
	<ellipse fill="#0092FF" cx="58.847" cy="47.457" rx="5.125" ry="5.208"/>
	<ellipse fill="#0092FF" cx="39.181" cy="43.791" rx="3.958" ry="3.625"/>
	<ellipse fill="#00426B" cx="58.264" cy="47.541" rx="2.125" ry="2.042"/>
	<ellipse fill="#00426B" cx="38.597" cy="43.791" rx="1.458" ry="1.375"/>
	<ellipse fill="#FFFFFF" cx="61.139" cy="44.666" rx="1.333" ry="1.25"/>
	<ellipse fill="#FFFFFF" cx="56.639" cy="49.916" rx="1" ry="0.917"/>
	<circle fill="#FFFFFF" cx="40.556" cy="41.916" r="1.083"/>
	<ellipse fill="#FFFFFF" cx="36.972" cy="45.457" rx="0.667" ry="0.542"/>
</g>
<g id="frame_2">
	<path fill="#E7EDF2" d="M97.472,2.666c0,0-2.834,8.833-3.5,10s-3.5,7.833-4,9s-4.666,6.833-4.666,6.833s2.166,5.333,2.333,6.333
		s4.667,8.833,4.667,9.333s5.666-4.5,5.833-5.167s2-11.833,2-12.667s3.499-11.5,3.333-12.333s-3-6-3-6l-2.333-6.333"/>
	<path fill="#E7EDF2" d="M58.639,3.166c0,0,1.833,4.833,2,6.667s0.333,5.167,0.167,7.167s-0.333,4-1,7s2,4.5,2,4.5l7-0.667
		l5.333,0.833l1.167-1.667c0,0,0.833-1,0.167-3.833s-1-5.5-2.167-7.333s-8.833-8.833-10.167-9.833s-5-4.167-5-4.167"/>
	<path fill="#E7EDF2" d="M45.472,28.499l1.333,5l-10,15.5l-23.167,4.5l-10.5,4.833c0,0-3.167,6.667-2.667,10s0.5,7.667,4.167,10.167
		s4.167,3.333,7,3.5s2.833,0.167,2.833,0.167s-0.667,1.001,1.667,2.167s3.333,1.5,5.5,1.833s4.167,0.833,5.5,0.333
		s1.333-0.5,1.333-0.5s-0.167,4.168,0.333,6.334s0.5,2.5,1.5,3s2.5-0.834,2.5-0.834s0.333,2.668,1.833,2.834s3.167-2,3.167-2
		l1.833-2c0,0,1.833,1,3.5,1s3.5,0,3.5,0l0.167-5.167c0,0,2-0.499,4.667-2.333s5.5-2.168,7.333-4.334s6.333-8.167,6.333-8.167
		l13.667,10.5c0,0,1.333,3.166,1.5,6.166s1,3.5-0.833,7.5s-2.666,6.834-4.833,10.834s-9.167,12.666-9.167,12.666h6.167
		c0,0-0.5,8,3.667,10.167s3.833,2.334,7.833,3.167s8.167,5.166,8.667,5.333s8.166,5.834,8.166,5.834l1.5-1.667l-1.666-5.167
		l2.5,2.834l1.499,8.167l-9,23.333c0,0-7.333,0.499-9.166,1.166c-1.833,0.667-10,2.834-10.333,3.334s-1.667,5.166-1.667,5.166
		s0.667,1.001,3.333,1.834s8.333,1.332,11.333,1.166s10.834-2,10.834-2l5.166-11.5l6.334-11.666c0,0,6.166-6.5,5.833-6
		s9-2.334,9-2.334l6.5-2.833l-3.833-2.167c0,0,4.333,0.5,6.5-0.5s9.333-4.333,9.333-4.333l-4.333-0.5c0,0,4.333-1.499,6-2.833
		s4.333-3.834,4.333-3.834l7.5,6.667l4.5-0.166c0,0,6.167,2.334,5.667,2.5s-4.166,13.333-6,18.166s-8.167,14.833-8.167,14.833
		s-6.334-0.833-8.667-0.333s-6.166,2.167-6.666,2.667s-3.168,3-3.834,3.833s-1,1.833-1,1.833s0.834,0.166,3.167,1
		s3.833,0.166,6.5,0.5s5.333,0.666,7.333,0s10-7.5,10-7.5l15.334-22.5l6.167-16.999c0,0-4-5.667-4.167-6.167s1.166-9.333,1.833-10
		s4.834-4,4.834-4l-1.5-7.667c0,0-18.834-5-19.834-5s-40.333-4.166-40.833-4.166S99.806,86.333,99.806,86.333l-5.167-9.166
		l-2.667-13c0,0-3.167-22.333-4-23.333s-5.833-12.5-6.667-12.667s-15.833-0.333-15.833-0.333l-11.833,0.833L45.472,28.499z"/>
	<path fill="#A1A5A9" d="M184.472,117.749c0,0-5.75,3.375-8.125,6s-5.75,7.125-4.5,10.75s3.375,6.25,4.75,7.875
		s1.375,1.625,1.375,1.625l-7.5,9.5l3.75-0.375c0,0-3.875,4.125-8,10.75s-8.375,15.875-8.375,15.875l-4.625,7.125l4.875-0.5
		c0,0,0.5-1.875,4.625-7.125s4.25-6.25,8.125-10.875s19.375-20.25,19-20.125s-9.5,1.5-9.5,1.5l8.5-6.25l-8.75-11.5
		c0,0,4.5-9.625,5.125-10.875s-0.875-4.125-0.875-4.125"/>
	<path fill="#A1A5A9" d="M122.222,131.374c0,0-3.5,1.5-4.875,5.75s-1.875,6.875-2.125,9.75s-0.125,5.125-0.125,5.125l-0.25,0.5
		l-5.875,0.125l5,4.375c0,0-4.5,0.75-7,3.375s-3.625,4-5,8.125s-1.75,6.75-2.875,9.5s-3,5.5-4.25,6.75s-1.75,1.625-1.75,1.625
		s7-0.375,7.875-2s3.125-6,3.125-6l6.25-12.375l16-8.5l-5.25-2.875l5.5,0.375c0,0-3.5-7-3.875-9.5s-1.125-5.75-1.125-7.125
		s1.125-7,1.125-7"/>
	<ellipse fill="#FFFFFF" cx="67.722" cy="46.749" rx="14.125" ry="12.875"/>
	<ellipse fill="#FFFFFF" cx="46.597" cy="42.999" rx="11.625" ry="10"/>
	<path fill="#737679" d="M46.222,28.374c0,0,7.5,4.5,8.5,5s1-0.125,4.375-1.125s6.5-1.5,10.25-1.75s7.625-0.375,10.5,2.125
		s4,4.125,4.75,7.375s1.25,10,1.25,14.25s0,8.375,0,8.375l-19.875,0.625c0,0,9.875,1.625,13.5,3.625s4.625,1.875,6.5,4.375
		s4,3.25,5.125,8s2.625,11.5,2.125,15.375s-1.75,10.75-1.625,15.625s1.5,10.625,2.375,12s0.75,0.75,0.75,0.75s0.125-6.5,0.75-7.375
		s1.5-1.375,1.5-1.375s1,5.75,1.75,6.875s5.125,5.125,7.25,6.25s4.5,2,4.5,2s-1.125-1.875-1.5-2.875s0.5,0.5,2.25,1s4.75,1,7,0.75
		s2.25-0.25,2.25-0.25s-1.5-1.75-1.875-3s-0.375-1.25-0.375-1.25s1.5,0.125,4.25,0.5s8.375-0.5,10.375-1.125s5-2.25,8.75-3.25
		s4.625-1.75,8.875-1.875s11.375,0.125,14.625,0.625s7.5,2.375,7.5,2.375s-0.875-2.75-2.125-4.5s-2.875-4.25-2.875-4.25
		s2.375,0,5.125,0.75s5.5,2.25,7.5,3.25s5.375,3.75,5.375,3.75s0.875-0.625,0.875-2.625s1.625-2,1.625-2l8.125,5.375l4.625,6.125
		c0,0,3.625,5.125,5.375,7.5s3.25,4.125,5.25,5.875s5,4.125,7.125,5.375s3.625,2.25,6.125,2.75s7.125,1.875,7.125,1.875
		s-1.75-0.5-2.875-1.75s-1.5-2.625-1.5-2.625s4.625-0.75,7.25-1.625s7.25-2.5,9.125-4s5-5.5,6-7.5s1.875-6.25,2-7s0.5-5,0.5-5
		s-1.125,2.625-2.375,4.25s-3.875,3.25-3.875,3.25s-0.375-0.125,0.25-1.875s1.125-4,2.5-7s2.5-5.125,2.75-6.875s0-6.875,0-6.875
		s-0.875-6.125-2.375-9s-4.25-6.625-6-8s-2-3.25-5.375-5.5s-7.875-5.75-7.875-5.75s2,6.875,2.625,9.125s1.375,6.625,0.875,8.875
		s-1.5,5.125-2.5,6.5s-4,4.625-4.5,4.875s-0.875-11.125-0.875-11.125s-5.375,9.625-6.25,10.625s-3.125,2.125-3.125,2.125l-12.5-2.5
		l8.375-10.75l-30,6.75c0,0-3.125-1.875-4.75-2.125s-5.375-0.5-5.375-0.5l7.75-4.125c0,0-9.75,0.125-11.875,0.875s-5.5,2-5.5,2
		l3.25-4.625c0,0-6.375,1-9.125,3s-2.75,2-2.75,2l0.375-3.25c0,0-3.875,2.125-5.5,3s-4.75,1.75-4.375,1.5s5.25-6.625,5.25-6.625
		s-7,2.5-9.75,3.5s-6.875,1.625-6.875,1.625l6.375-7.75c0,0-6.375,3-8.125,3.75s-5.375,0.875-6.75,1.125s-2.875,0.375-2.875,0.375
		l4.375-5.125c0,0-3.5,1-4.625,1.125s-5.25-1-5.25-1l2.625-1.625c0,0-8.625-3.625-10.875-4.75s-5.75-5.375-5.75-5.375
		s0-3.5-0.375-4.75s-3.75-8.125-3.75-8.125s2.875,1.875,4.625,3.375s4.75,3.375,4.625,3s-0.375-3.75-1.375-5.5s-7-8.875-7-8.875
		s7.75,0.25,9,0.375s3.625,1.25,3.625,1.25s-1.625-2-2.875-4.125s-3.125-4-5-5s-6.75-2.25-6.75-2.25s0.375,0.625,2.375-1.625
		s2-2.125,2.875-4.625s2-3.75,2.25-5.75s0.625-20.25,0.625-20.25s-2.5-5.375-3.25-7.25s-4.25-7.75-4.25-7.75s-0.125,1.375,0.5,3.5
		s1.625,6.875,1.875,9.25s-0.5,9-0.5,11.75s-1.75,8.875-1.75,8.875l-3,5.625l-1,0.875l-7.5-12.5c0,0-13.125-2.25-16.5-2.125
		s-14.25,0.125-14.25,0.125L46.222,28.374z"/>
	<path fill="#737679" d="M80.722,134.999l4.5,15.75l-8.5,20.75c0,0-6,0.25-7.25,0.625s-5.5,1.5-6.75,2.625s-5,4.75-5,4.75
		s2.125,1.125,3.375,1.75s2,0.125,3.25,0.75s5.625,0.125,6.125,0.25s3.5,0.125,3.5,0.125s1.375-2,3-3.125s6-2.875,6.5-3.125
		s3-1.375,3-1.375l4.5-11.125l10.375-6.125l0.375-1.125l-2.25-1.875l2.875-0.125l1-2.5c0,0-1.25-1.875-1.75-2.625
		s-1.25-4.875-1.25-4.875s-2.25-2.625-4.75-4s-7.5-3.875-8.625-4S80.722,134.999,80.722,134.999z"/>
	<path fill="#737679" d="M142.847,141.874c0,0-0.375,4.875-1.125,7.5s-2.625,9-4.375,12.75s-7,13.25-7,13.25s-2.25,0-5.375,0
		s-5.375-0.125-6.375,0.5s-4.375,2.625-4.875,3.5s-2.375,3.125-2.375,3.125l2.25,0.5c0,0,3.125,1.5,4.125,1.5s3.375,0.125,4.25,0
		s10.625-0.75,11.375-1s1.5-0.625,1.5-0.625s1.25-2.375,2.125-3.625s2.875-5.375,7.25-10.625s19.125-21,19.125-21l-9.5,2.5
		c0,0,8.875-7.875,8.5-7.625s-5.875-2.125-8.375-3.375s-6.875-4.875-6.875-4.875l-2,2.625l4.125-0.375c0,0-2.125,2.25-3.375,3.125
		S142.847,141.874,142.847,141.874z"/>
	<path fill="#FFFFFF" d="M17.639,54.833c0,0-4.833-2.833-5.5-2.833s-5.5,0.333-6.5,0.833s-3.667,2.5-3.5,3.167s0.5,3.5,1.833,4.667
		s6.333,3.167,6.333,3.167l3.167-1l0.5-2.5c0,0-1-2.834-0.333-3.167s3.667-1.5,3.667-1.5"/>
	<ellipse fill="#0092FF" cx="71.972" cy="53.5" rx="4.667" ry="4"/>
	<ellipse fill="#0092FF" cx="48.972" cy="44.417" rx="4.5" ry="4.25"/>
	<ellipse fill="#00426B" cx="72.055" cy="53.833" rx="2.083" ry="2"/>
	<ellipse fill="#00426B" cx="49.138" cy="44.667" rx="2.333" ry="2"/>
	<ellipse fill="#FFFFFF" cx="73.972" cy="51.25" rx="1.833" ry="1.417"/>
	<ellipse fill="#FFFFFF" cx="51.139" cy="42.5" rx="1" ry="1.167"/>
	<ellipse fill="#FFFFFF" cx="47.222" cy="47.417" rx="0.583" ry="0.75"/>
	<circle fill="#FFFFFF" cx="70.472" cy="56.167" r="0.667"/>
	<path fill="#020202" d="M54.472,66.999c0,0-0.813,2.75-1.313,3.688s-1.063,1.313-1.063,1.313l1,0.25c0,0,0.375-1.125,0.75-2.125
		S54.472,66.999,54.472,66.999z"/>
	<path fill="#020202" d="M99.222,128.812c0,0,0.188,3.688,0.438,5.25s1.625,6.375,1.625,6.375l0.688-0.375
		c0,0-1.875-6.188-1.938-6.5S99.222,128.812,99.222,128.812z"/>
	<path fill="#020202" d="M122.535,130.624c0,0-1.188,2.875-1.313,4.813s-0.125,4.625-0.125,4.625l1-0.125c0,0-0.375-3.063-0.25-4.25
		S122.535,130.624,122.535,130.624z"/>
	<path fill="#020202" d="M185.639,113.083c0,0,0.832,1.25,0.416,3.25s-0.75,3.167-0.75,3.167l0.75,0.167c0,0,0.5-2.501,0.5-3.084
		S185.639,113.083,185.639,113.083z"/>
	<path fill="#020202" d="M180.472,100.833c0,0,1.084,1.166,2.167,2.083s2,2.251,2.333,2.834s0.75,1.083,0.75,1.083
		s-2.334-4.167-2.917-4.667s-1.416-2.083-1.416-2.083l-0.917,0.417"/>
	<path fill="#020202" d="M84.139,186.75c0,0,0.583-1.418,1.75-3.084s3.917-3.416,3.917-3.416s-3.501,4.333-3.917,5.333
		s-0.5,1.583-0.5,1.583L84.139,186.75z"/>
	<path fill="#020202" d="M76.972,184.916c0,0,0.667-1.667,1.25-2.5s3.917-2.916,3.917-2.916l2.25-1.167c0,0-3.833,3.249-4.417,3.833
		s-1.667,2.917-1.667,2.917l-1-0.167"/>
	<path fill="#020202" d="M67.555,182.25c0,0,0.583-1.501,1.583-2.584s3.167-2.75,3.167-2.75s-2.083,2.833-2.583,3.75
		s-0.583,2-0.583,2L67.555,182.25z"/>
	<path fill="#020202" d="M60.305,181.25c0,0,1.25-1.75,2.417-3s4.75-3.25,4.75-3.25s-3.583,2.833-4.417,4.083s-1.083,2.5-1.083,2.5
		L60.305,181.25z"/>
	<path fill="#020202" d="M112.638,182.916c0,0,0.416-0.667,2.5-2.25s4.917-2.666,4.917-2.666s-3.749,2.333-4.583,3.333
		s-1.75,1.75-1.75,1.75L112.638,182.916z"/>
	<path fill="#020202" d="M119.722,184.166c0,0,0.082-0.5,1.166-1.833s4.167-3.25,4.167-3.25s-2.5,2.249-3,3.083
		S120.972,184,120.972,184l-0.167,0.5L119.722,184.166z"/>
	<path fill="#020202" d="M134.472,186.75c0.083-0.25,0.834-1.334,2-2.667s4.833-3.583,4.833-3.583s-1.917,2-2.75,2.833
		s-1.501,1.416-1.917,2.083s-1,1.667-1,1.667"/>
	<path fill="#020202" d="M142.388,187.75c0,0,0-0.667,1.417-2.25s3.5-3.333,3.5-3.333s-2.001,2.833-2.417,3.583
		s-1.333,2.083-1.333,2.083L142.388,187.75z"/>
	<ellipse fill="none" stroke="#000000" stroke-width="0.75" cx="67.785" cy="46.874" rx="14.063" ry="12.875"/>
	<path fill="none" stroke="#000000" stroke-width="0.75" d="M2.472,55.124c0,0,0.75-1.375,2.75-2s5.125-1.375,7.75-1.125
		s6.25,1.625,8.25,2.25s3.375,1.625,3.375,1.625s-2.125,1.875-4.875,3.625s-5.25,3.25-6.625,3.75s-3,0.75-3,0.75s-6-3.5-6.625-4.125
		S0.972,56.624,2.472,55.124z"/>
	<line fill="none" stroke="#000000" stroke-width="0.75" x1="15.847" y1="52.624" x2="37.347" y2="48.999"/>
	<path fill="none" stroke="#000000" stroke-width="0.75" d="M2.472,58.624c0,0-1.25,2.375-1.625,5.75s-1,7.25,0.375,9.75
		s4.125,6.125,6.25,7.125s3.125,1.125,6.25,1.375s13.125,1.25,21.125-0.875s9.5-2.875,12.375-4.875s5.875-5.625,5.875-5.625"/>
	<path fill="none" stroke="#000000" stroke-width="0.75" d="M10.097,63.999c0,0-0.125,6.25,0.25,9.375s1.625,6.875,2.875,8.5
		s2.5,2.875,5.625,4s5.375,1.125,7.125,0.875s2.625-0.625,2.625-0.625s0,4.875,0.625,7s1,2.625,1.75,2.75s1.625-1.5,1.625-1.5"/>
	<path fill="none" stroke="#000000" stroke-width="0.75" d="M32.722,91.124c-0.25,0.375-0.125,3.25,0.75,4.25s1.25,1.625,2.5,1.5
		s2.625-1.5,2.875-2s0.875-1.375,0.875-1.375s2.25,0.875,3.5,1.125s3.625-0.125,3.625-0.125l-0.5-4.75c0,0,1.375-0.375,4.5-2.375
		s7-3.875,8.5-5.625s5.875-7,5.5-6.75s5,2.75,7.75,4.625s9.25,7.5,9.25,7.5l-3.25-12.875c0,0-1-1.25,4.125,2.5s4.75,3,6.625,5.375
		s4.25,7.125,4.25,7.125s0.75-9.875,0.375-12.25s-1.625-5-1.625-5s2.5,1.375,5.25,4s4.375,4.625,4.375,4.625s-0.25-5-0.75-7.375
		s-3.375-7.25-3.375-7.25l9.125,6.5c0,0,0-3.625-2.25-6.875s-6.125-7.5-6.125-7.5s2.625,0,6,0.25s6.125,0.75,6.125,0.75
		s-3.625-5.875-6.5-7.875s-7-3.125-7-3.125s2.125-1,4-4.75s2.875-6,3.25-9s0.125-15.375,0-17s-2.875-9.375-4-11.75s-3.25-4-3.25-4
		s-1.25,5.75-2.625,9.5s-7,15.375-8,16.25s-1,0.875-1,0.875s-6.5-1.125-11.75-1.75s-15.25,0-17.875,0s-10.875,2-10.875,2
		l1.375,3.875"/>
	<path d="M96.972,3.249c0,0,2.125,6.875,2.25,8.875s-0.375,13.5-0.875,17.25s-3,9.5-3.75,10.625s2.625-3.5,3.875-8.25
		s1.75-6.75,1.875-8.625s0.125-5.75,0-7.5s-0.25-5.625-0.5-6.625s-2.25-6.75-2.25-6.75"/>
	<path fill="none" stroke="#000000" stroke-width="0.75" d="M59.097,26.374c0,0,2.125-7.375,1.875-10.875s-0.875-8.5-1.25-9.375
		s-2.125-3.75-2.125-3.75s3.875,2.75,7.75,5.75s4.625,3.75,6.25,5.75s2,3.875,3,6.125s1.125,7,1.125,7"/>
	<path fill="none" stroke="#000000" stroke-width="0.75" d="M79.097,84.499c0,0,1.375,4,1.625,6.625s-0.625,5.625-1.5,8.25
		s-2.375,6.125-5.125,10.625s-8.875,12.25-8.875,12.25l5.75-0.25"/>
	<path fill="none" stroke="#000000" stroke-width="0.75" d="M71.347,119.374c0,0,0.125,6.125,1,8.625s1.5,4.125,4,5.5s3,1.25,6.5,2
		s5.375,1,9.75,3.125s9,6.875,9,6.875l-2.375-6.25l2.25,2.875"/>
	<path fill="none" stroke="#000000" stroke-width="0.75" d="M100.972,137.999l2.875,12.125l-9.5,24.125c0,0-5.125-0.125-8.25,0.75
		s-8.375,3.25-10.125,5.125s-2.75,3.75-2.75,3.75s2.5,1.625,7.25,2.25s6.5,0.75,10.75,0.375s9.5-1.5,9.5-1.5l9.625-18.875
		l15.875-8.5l-5.375-3l5.5,0.125c0,0-2.375-2.875-3.125-5.875s-1.75-10.375-1.75-10.375"/>
	<path fill="none" stroke="#000000" stroke-width="0.75" d="M147.472,134.874l-2.25,2l3.875-0.125c0,0-2.375,2.375-4.5,3.875
		s-5.125,2.375-5.125,2.375l4,0.5c0,0-5.375,3-7.875,3.75s-6.75,1.25-6.75,1.25l3,2.25c0,0-1.375,0.5-2.75,0.875s-4,1-4,1"/>
	<path fill="none" stroke="#000000" stroke-width="0.75" d="M80.722,135.374l4.375,15.25l-8.375,21.125c0,0-3.25-0.5-7.375,0.375
		s-8.625,4-9.625,5s-1,1-1,1l-0.875,1.5c0,0,4.5,2,7.125,2.5s8.75,0.375,8.75,0.375"/>
	<polyline fill="none" stroke="#000000" stroke-width="0.75" points="86.097,174.999 90.972,163.124 100.972,157.749 	"/>
	<polyline fill="none" stroke="#000000" stroke-width="0.75" points="101.597,155.874 99.847,154.624 102.347,154.374 	"/>
	<path fill="none" stroke="#000000" stroke-width="0.75" d="M103.347,151.999c0,0-1.5-1.875-2-3.125s-0.75-4-0.75-4"/>
	<line fill="none" stroke="#000000" stroke-width="0.75" x1="142.597" y1="141.999" x2="142.847" y2="143.374"/>
	<path fill="none" stroke="#000000" stroke-width="0.75" d="M142.847,144.124c0,0-1.375,6.25-2.375,9s-5.25,14-6.75,16.875
		s-3.5,5.75-3.5,5.75s-5.625-0.875-8.125-0.5s-5,1-6.5,2.375s-4.25,4.75-4.25,4.75s3.875,1.375,5.875,1.875s5.625,0,8.25-0.125
		s7.5-0.625,8.5-0.875s1-0.25,1-0.25s2.25-4.125,3.625-6.25s5.625-8.375,9.25-12.625s15.25-16.25,15.25-16.25l-8.875,2.125
		l7.25-6.625"/>
	<path fill="none" stroke="#000000" stroke-width="0.75" d="M102.222,78.874c0,0,1.75,2.625,3.875,4.375s6.25,3.625,7.375,4.125
		s5,2,5,2l-2.25,1.625c0,0,3.125,0.75,4.625,0.625s4.625-1,4.625-1l-3.75,4.75c0,0,3.875,0.25,5.875-0.125s6.5-2.125,6.5-2.125
		l5.25-2.875l-6.125,8.125c0,0,3.375-0.5,6-1.375s10.375-4,10.25-3.625s-5,6.25-5,6.25s1-0.125,4.125-1.625s5.375-2.625,5.375-2.625
		v2.875"/>
	<path fill="none" stroke="#000000" stroke-width="0.75" d="M181.722,101.249c-1.625-2-10-1.625-10-1.625s7.625-4,8.125-4.25
		s-8,0.25-11.5,0.875s-5.625,1.5-5.625,1.5l2.875-4.125c0,0-2.5,0.5-4.5,1.25s-4,1.375-5.75,2.5s-5.625,4.25-7.375,5.75
		s-5.25,6.75-6.625,9.375s-2.25,8.875-2,10.625s0.5,3.625,2.125,6s7.5,7,10.75,8.875s7.5,3.625,7.5,3.625l7.75,3.375
		c0,0-3.125,9.25-4.375,13.25s-4.25,10.25-5.125,12.75s-4.375,7.375-4.375,7.375s-5.125-0.125-7.625-0.125s-6.375,1.375-7.625,2.125
		s-3.625,3.375-4.125,4.125s-1.125,2.125-1.125,2.125s1.5,0.625,4.125,0.875s5,0.875,9.75,0.625s11.125-1.75,11.125-1.75
		s7.25-10,9.875-14s8.125-10.625,10.25-13s11.375-11.125,11.375-11.125l-9.25,1.75l8.5-6.625l-9-11.375c0,0,2.25-4.875,3.875-7.75
		s2.625-6.875,2.625-6.875"/>
	<path fill="none" stroke="#000000" stroke-width="0.75" d="M186.597,115.499c0,0,2.125-0.125,3.25,0.25s2.75,1.875,5.125,4.25
		s5.375,6.125,7.25,9.375s5.75,7.375,8.5,10s6.5,6,9.875,7.5s11.75,3.625,11.75,3.625s-2.375-0.625-3.875-2.75s-1.5-2.125-1.5-2.125
		s4.125-0.25,7.5-1.375s8.875-3,11.375-5.75s3.875-5.25,4.875-8.25s1.875-10,1.875-10s-0.25,1.25-1.75,3.625s-4.75,4.375-4.75,4.375
		s-0.5-0.5,0.625-3.25s0.875-2.125,2.375-6s2.125-4.5,2.375-7.75s0-7.875-0.375-9.875s-1.25-5.375-4.5-9.125s-8.375-8.875-10.125-10
		s-6.125-4.5-6.125-4.5s1.25,3,1.875,7.125s1.875,7.875,1.375,10.625s-2.375,6.375-3.5,7.75s-4.25,3.75-4.25,3.75l-0.375-10.875
		c0,0-5.875,10.5-7.625,11.25s-0.125,1.5-4.25,0.75s-9.625-2.125-9.625-2.125s8.375-10.875,7.875-10.5s-29,6-29,6"/>
	<line fill="none" stroke="#000000" stroke-width="0.75" x1="184.097" y1="101.499" x2="182.222" y2="101.749"/>
	<path d="M12.972,51.999l3.167,2.501c0,0-4.334-0.167-6.667,0.5s-3,1-2.833,2.667s1.5,2.834,2.667,3.667s3.792,1.916,3.792,1.916
		s3.375-1.583,4.542-2.583s6.958-4.792,6.958-4.792s-3.625-2.041-5.125-2.541S12.972,51.999,12.972,51.999z"/>
	<path fill="none" stroke="#000000" stroke-width="0.75" d="M53.984,46.779c0.011-0.35,0.048-0.698,0.094-1.046
		c-0.004-0.042-0.015-0.082-0.008-0.129c0.017-0.114,0.044-0.221,0.066-0.332c0.023-0.132,0.05-0.262,0.079-0.394
		c0.001-0.005,0.003-0.011,0.004-0.017c0.082-0.382,0.173-0.762,0.295-1.133c0.006-0.025,0.017-0.05,0.022-0.076
		c0.047-0.182,0.102-0.363,0.162-0.543c0.164-0.535,0.362-1.06,0.628-1.55c0.002-0.07,0.012-0.141,0.048-0.21
		c0.373-0.714,0.793-1.266,1.33-1.854c-1.632-3.795-5.729-6.495-10.545-6.495c-6.248,0-11.313,4.533-11.313,10.125
		s5.065,10.125,11.313,10.125c3.128,0,5.942-1.152,7.99-2.989C53.844,49.115,53.778,47.794,53.984,46.779z"/>
</g>
<g id="frame_3">
	<path fill="#E7EDF2" d="M206.263,120.624l-19.625-6.625c0,0-1.25,3.625-2.125,6.625s-1.125,4.375-1.875,6s-2.625,7-2.625,7
		s3.625,6.625,3.875,7s-8,9.875-8,9.875s3.625,3.75,3.375,4.125s-9.625,10.75-9.625,10.75l-10.375,19.75c0,0-3.375,1.125-5.5,1.625
		s-10.75,0.875-10.75,0.875v-0.875l-5.625,0.125l-2.125-0.5l0.375-0.5l-1.5-0.125c0,0-0.25-1,0.75-1.75s2.625-3.125,3.75-3.875
		s2.75-1.875,4.75-2.125s5.5-0.375,7.5-0.375s3.5-0.125,3.5-0.125s3.875-5.75,4.875-8.375s1.5-3.625,3-7.125s2.75-6.375,3.25-8.5
		s2.375-10.125,2.375-10.125s-5.25-1.125-7.125-1.75s-12.625-4.625-12.625-4.625l-1.625,4.375l-4.125,0.375l-2,0.75l3,1.375
		c0,0-2.625,0.75-4.25,1.5s-4.75,1.5-5.75,1.75s-3.625,0.5-3.625,0.5l2,2.625c0,0-1.75,1.25-2.25,1.5s-4.25,0.5-4.25,0.5l-8,3.5
		l-5.375,4.75l-8.875,15.375l-8.375,10.25l-10.875,0.75l0.625-1l-3.25,0.25l-2.625-0.5l-0.875-1l-1.625-0.125l-1.5-1.25
		c0,0,0.25-1.75,2.75-3.75s4.625-3.625,7.625-4.375s4-1.125,6.125-1s3.625,0.375,3.625,0.375s4.625-11,5.375-13
		s4.375-11.625,4.375-11.625s-2-6.125-2.125-6.875s-0.375,1.75-0.375,1.75s-2.25-2.25-3.5-3s-14.25-6.375-15.375-6.875
		s-6.125-2.5-7-3s-2.875-2.75-3.25-3.75c-0.275-0.735-0.687-4.784-0.885-6.874c-0.071-0.752-0.115-1.251-0.115-1.251
		s-0.375,1.125-1.125,1.375s-4.375-0.625-4.375-0.625s-0.375,0.125,2.375-3.375s6.25-8.375,8.125-11.875s3.875-8.125,4-12
		s-0.5-6.5-1.375-8.875c0,0-3.875-3.5-4.5-4.125s-10.125-6.5-10.125-6.5s-0.125,1.25-2.5,4s-2.25,2.625-4.5,4.625
		s-5.75,3.875-7,4.75s-4.125,1.75-4.125,1.75l0.5,4.875c0,0-1,0.875-2.625,0.75s-3-1.375-3.875-1.75s-1.375,0-1.375,0
		s-0.25,1-1,2.125s-1.25,1.75-2.125,1.75s-2.875-2-2.875-2s-0.25-2.25-0.375-3.125s-0.25,2.875-0.25,2.875l-1.25,0.375l-1.125-0.375
		l-1-1.5l-0.5-2.25l-0.125-5.25c0,0-3,0.625-4.75,0.625s-6.875-0.5-8.125-2.25s-1.25-1.75-1.25-1.75s-1.75-0.125-2.375-0.125
		s-5.25-2.125-6.375-2.75s-3.625-4.375-4.25-5.125s-1-2.625-1-2.625l0.625-9l1.75-3.625c0,0,2.5,2,3.625,2.75
		s4.125,1.375,4.125,1.375s1.125,0.25,3.75-1.125s8.875-6,8.875-6l-8.375-3.75l-0.625-0.625h3.875l1.5-0.75l17.375-2.5
		c0,0-1,0.625,2,2.375s3.75,2.375,6.625,2s3.75-0.25,5-1.25s2.875-2,2.875-2s-0.5,0,0.75,2.125s2.125,3.25,4.25,4.625
		s3.375,2.625,5.875,2.75s2.25,0.75,5.375-0.125s2.625,0.625,6-2.75s4.375-5.5,4.75-7.375s1.125-2.875,0-5.375
		s-1.375-4.5-3.375-5.75s-2.375-2.375-5-3s-4-1.125-5.125-0.875s-2.5-0.25-4.5,0.75s-2.5,1.25-4,2.125s-2.625,2.375-2.625,2.375
		s-1.5-2-1.75-2.375s-2.375-1.75-3.25-2.25s-2-1.25-3-1.5s-1.625-0.25-1.625-0.25l-0.625-5c0,0,1.625-0.5,3.75,0.125
		s13.875,0.25,13.625,0.625s11.125,0.375,11.125,0.375s9.5,2,9.875,2.625s4.25,13.25,4.375,14.125s-0.875,9-0.875,9.625
		s-1.375,9.625-1.375,9.625s4.75,9,5,9.5s5.625,15,5.625,15.625s-0.5,16.5-0.75,16.875s7.75,11.5,8.625,11.875
		s9.875-0.25,9.875-0.25s15.625-4.125,16.125-3.75s14.375-1.5,14.375-1.5l19.25,1.875l9.125-6.125l19-5.375l9.625-0.75"/>
	<path fill="#E7EDF2" d="M98.388,1.999c0,0-3.25,7.875-4.5,10.875s-5.25,11.625-6.375,13.25s-3.125,2.5-3.125,2.5l10,12.625
		l6.75-8.25c0,0,1.375-14.625,1.375-15s-2.125-10-2.125-10l-1.875-6.5"/>
	<path fill="#E7EDF2" d="M59.388,3.499l6.375,4.625c0,0,4.625,3,5.25,4.125s3.75,6,3.75,6s1.125,4.25,1.375,5.125s0.5,4.25,0.5,4.25
		l-15.75-0.125l-2.125-1.125l1.75-4.375c0,0,0.375-4,0.375-5.75s0.25-6.875,0.25-6.875L59.388,3.499z"/>
	<path fill="#737679" d="M196.888,90.749c-2,2.125-5.5,4-8.625,5.875s-5.5,3-6.375,3.125s-3.25-1.125-5.25-1s-4,0.125-4,0.125
		s-0.125-0.5,1.875-1.625s5.25-2.875,5.25-2.875s-0.75,0-3.25,0.5s-3,0.25-5.625,0.75s-5.375,0.875-6.5,1s-1.125,0.125-1.125,0.125
		l3-3.875c0,0-1.625-0.25-3.25,0.5s-5.25,1.5-6.875,2.875s-2.25,1.875-2.25,1.875s-0.375,0-0.25-1.25s0.25-2,0.25-2
		s0,0.625-2.125,1.875s-5.625,1.75-6.5,2s-0.875,0.25-0.875,0.25s1.75-0.5,3-2.375s2-3.625,2-3.625s-1.25,0.875-4.125,2
		s-5.125,1.375-6.875,1.875s-4.75,1.125-4.75,1.125s1.75-1.375,3-3.125s3.375-6.375,3.375-6.375s-0.625,0.75-3,2.375
		s-6.75,3.125-9,3.5s-6.875,0.625-6.875,0.625s1.125-0.25,2.375-1.375s3.375-4.125,3.375-4.125s-4.875,1-6.375,1.25
		s-3.5,0.25-3.5,0.25l2-1.75c0,0-2.5-0.375-5.125-1.875s-5.25-3.25-6.75-4.125s-5-5-5-5s-0.125-0.375-0.375-2.875
		s-1-4.875-1.625-5.875s-1.875-3.875-1.875-3.875s2.375,0.75,4.625,2.875s4.25,5.25,4.25,5.25s0.125-2.875-0.625-4.75
		s-1-3.5-2.75-5.625s-4.875-5.75-4.875-5.75s0.875-0.625,4.5-0.125s4.875,0.625,6.375,1.25s2.125,1.125,2.125,1.125
		s-0.875-2.375-2.75-4.25s-3.125-3-5.375-4.5s-4.5-3.125-5.375-3.125s-0.875,0-0.875,0s1.25-0.375,2.875-3s2.5-4.875,3.375-7
		s1.25-3.25,1.25-6s-0.125-16.75-0.125-16.75s-0.625-3.875-2.125-6.75s-4.5-7.875-4.5-7.875s-0.75-0.25-0.125,2.5
		s1.625,7.5,1.625,7.5s0.625,5,0.625,7.25s0,4.375-0.25,6.625s-0.75,5.375-1.625,7.5s-0.75,2.625-2.25,4.875
		s-2.125,3.375-2.125,3.375l-8.125-11.75c0,0-3-1.75-6.375-1.875s-10.875-0.5-13-0.375s-10.75-0.625-11.25-0.5s-9.25,2.25-9.25,2.25
		s2.5,0.25,3.625,1.375s5.875,3.5,5.875,3.5s3.75-1.125,6.625-1.75s3.125-1.25,7.75-1.25s8.5,0,10.625,2.125s4.25,5.625,4.75,9.25
		s0.625,20.75,0.625,20.75l-18.625,0.625c0,0,1.125,0.375,6.375,2s7,2.25,10.125,4.5s5.625,5,6.625,8.125s2.625,8.875,2.75,12.5
		s0.25,4.25-0.5,10.875s-1.375,9.25-0.5,13.625s2.75,8.875,2.75,8.875s-0.5-3.375,0.25-6s1.75-3.5,1.75-3.5s-0.375,4,2.625,7.625
		s11,7.75,11,7.75l-1.25-3.625c0,0,1.625,2.125,4.75,2.25s8.75-0.25,8.75-0.25s-2.75-1.75-3.75-3.25s-1-1.5-1-1.5
		s0.875,0.75,3.875,0.875s6.125,0.125,11.875-1.75s7.375-3,12.625-3.5s5.375-1.25,11.875-0.875s14.25,3.125,14.25,3.125
		s-2.125-3.5-3.25-5.375s-0.875-4.5-1-4.125s-1.125-0.375,3.375,1s5.875,2.375,8.875,4.125s4.875,2.625,4.875,2.625
		s0.25,0.5,0.875-2.375s0.5-5.5,0.5-7s0.125-2.625,0.125-2.625s-3.125,0.5,4-0.75s13.875-2.125,16-2.125"/>
	<path fill="#737679" d="M81.013,134.249l4.375,16.375l-8.5,19.875c0,0-5,0.625-6.625,0.875s-4.25,0.75-6,2.125s-6,5.125-6,5.125
		l3,2.125l-0.375,0.75l13.375,0.875c0,0,4.75-4.875,7-5.625s4.625-2,4.625-2s0.75-2.375,1.875-4.75s3.25-6.625,3.625-6.875
		s2.5-1.125,2.5-1.125l7.625-4.5l2.125-5.5c0,0-0.5,0.625-1.25-1.5s-1.75-7-1.75-7s-3.125-3.125-4.25-3.875s-7-3.75-7-3.75
		L81.013,134.249z"/>
	<path fill="#737679" d="M142.138,142.124c0,0,0.75,2.5,0.125,5.625s-4.125,12.125-5.25,14.875s-5.5,10.5-6.125,11.375
		s-0.625,0.875-0.625,0.875s-6.25,0-7.875,0.125s-3.25-0.25-4.375,0.75s-5.5,6-5.5,6l1.375,0.375l-0.125,0.625
		c0,0,2.25,0.125,3.25,0.25s3.75-0.125,3.75-0.125l-0.75,1.375c0,0,3.125,0.125,4.625,0.125s5.375-0.625,6.875-1.125
		s3.125-1.125,3.125-1.125s5-7.125,7.125-10.125s4.375-6,6.625-8.875s3-3.625,5.375-5.875s9.25-9.375,9.25-9.375l-9.125,2
		l8.375-7.625c0,0-6.5-2.25-8.25-3.25s-6.125-4.125-6.125-4.125l-2,1.375l2.375,0.625c0,0-1.25,1.625-2.375,2.625
		s-3.75,2.25-3.75,2.25"/>
	<path fill="#A1A5A9" d="M122.638,130.249c0,0-2.5,1.375-3.875,3.375s-2.625,5.5-2.875,8.625s-0.5,9.25-0.5,9.25l-6.125,0.375
		l4.25,4.375l0.75,1.375c0,0-0.75-0.375-2.375-0.125s-3.875,1.875-5.5,3.25s-3.25,3.875-4.5,7.5s-1.75,7.75-2.875,9.75
		s-1.625,3.75-3.25,5.375s-5.375,3.75-5.375,3.75s8.75-1.625,9.375-2s1.125-0.875,3-4.375s3-5.75,4.75-9s1.625-5.125,3.75-6.375
		s14.75-8.875,14.75-8.875l-4.875-2.5h5.75c0,0-2-1.25-2.75-3.5s-1.875-3.25-1.875-5.25s0-7.25,0-8.125
		S122.638,130.249,122.638,130.249z"/>
	<path fill="#A1A5A9" d="M183.513,117.874c0,0-0.125,0.75-2.25,2.375s-7.375,5.25-8,6.625s-1.75,3.25-1.25,6.25s0.875,4.125,2.5,6
		s4,3.875,4,3.875l-7.25,9.625l3.125,0.125c0,0-3.125,3.375-5,5.875s-3.5,5.25-5.125,8.125s-3.75,7.625-5.125,10.375
		s-5.625,9.375-5.625,9.375l5.125-1.375c0,0,4.5-6.5,6.875-9.75s7-10.375,10.5-13.75s14.625-14.375,14.625-14.375l-10.875,2.875
		l8.5-7.625l-7.5-10.875c0,0,2.5-5.5,3.25-7.5s1.875-4.875,1.875-4.875L183.513,117.874z"/>
	<path d="M7.472,51.916c0.25-0.25,3.667,0,5.667,0.75s2.333,1.833,2.333,1.833s-6.5,0-6.75,0.083s-0.833,0.417-1.583,1.167
		s-0.833,1.334-0.25,2.084s5,4.666,5,4.666s3.167-0.583,5.167-1.666c2-1.084,8.167-5.25,8.167-5.25s-6.417-2.584-7.75-3
		s-2.667-1-3.333-0.917s-6.5-0.167-6.5-0.167"/>
	<ellipse fill="none" stroke="#000000" stroke-width="0.75" cx="67.097" cy="46.457" rx="13.708" ry="12.625"/>
	<path fill="none" stroke="#000000" stroke-width="0.75" d="M36.555,48.582c-0.25,0.083-13.5,2-16.75,2.5s0.499,0.667-4.667,0.667
		c-1.106,0-2.105,0.007-3,0.022c-0.088,0.001-0.175,0.003-0.261,0.004c-0.505,0.009-0.976,0.021-1.413,0.034
		c-2.259,0.069-3.596,0.195-4.077,0.355c-0.75,0.25-2.833,1.167-3.583,2.167s0,4.833,0,4.833s2.334,1.334,3.667,2.334
		s3.917,1.5,3.917,1.5s3.167-0.584,6.917-2.417c3.75-1.833,7.5-4.917,7.5-4.917s-4.666-2.083-6.916-2.583s-3.5-0.583-4.5-0.75
		s-2.833-0.25-2.833-0.25"/>
	<path fill="none" stroke="#000000" stroke-width="0.75" d="M2.805,59.165c-0.167,0.25-1.833,2.917-2,4.167
		s-0.083,9.167-0.083,9.167s0.833,2.416,2,3.916s3.5,3.583,5.583,4.5s4.083,1.5,6.75,1.5s12.333-0.249,14.917-0.416
		c2.583-0.167,7.832-1.333,10.916-2.5s7.167-2.916,9.334-4.834c2.166-1.916,4.5-5.583,4.5-6.583s-0.084-1.5-0.084-1.5"/>
	<path fill="none" stroke="#000000" stroke-width="0.75" d="M10.388,62.999c0,0-0.083,7.332,0.333,10.166s1.5,6.166,2.333,7.5
		s1.667,3.166,3.75,4.25s5.583,1.584,8.25,1.417s3.583-0.333,3.583-0.333s0.084,3.666,0.167,5.166s1.417,3.834,1.917,4.084
		s1.749-0.417,1.916-0.917s0.084-3.167,0.084-3.167s0.416,3.334,1,3.917c0.583,0.583,1.249,1.583,2.416,1.5s2.5-1.25,2.667-2
		s0.5-1.667,0.5-1.667s0.917-0.083,1.667,0.417s2.083,1.167,3.5,1.167c1.416,0,2.5-0.25,2.5-0.25l-0.25-5.167c0,0,0.5,0,2.75-1
		s3.916-1.916,5.25-3.083c1.332-1.167,4.416-3.167,5.5-4.417c1.082-1.25,2.916-3.084,3.332-3.917
		c0.418-0.833,1.084-2.166,1.084-2.166s2.75,1.25,5.166,2.833c2.418,1.583,3.75,2.167,5.75,3.75s5.25,4.917,5.25,5.75
		s0.084-4.584-0.332-7.167c-0.418-2.583-1.668-6-1.668-6s2.917,1.583,5.584,4s4.584,3.751,6.417,5.834s3.083,5.5,3.083,5.5
		s0.833-3.001,0.75-6.834s-0.166-8.332-0.916-9.5c-0.75-1.166,3.916,2.084,5.166,3.667s2.833,3.251,2.75,4.167
		s0.334-4.666,0.084-7.084c-0.25-2.416-1.917-5.916-3.167-7.416s3.501,1.832,5.667,4c2.166,2.166,2.916,3.166,2.916,3.166
		s-0.083-4-1.333-6.666c-1.25-2.667-6.833-8.917-6.833-8.917s8.666,0.167,10.666,1s2,0.833,2,0.833s-3.417-5.583-6-7.417
		s-6.083-3.75-7.25-4.083s-0.75-0.25-0.75-0.25s3-2.333,4.5-5.75s2.666-6.5,2.583-9.083s0.167-16.417,0.167-16.417
		s-0.501-3.25-2.167-7.583s-4.75-8-4.75-8s-0.832,4-2.749,8.75s-2.583,6.667-4.5,10.083s-4,8.083-4.917,8.25
		s-0.917,0.167-0.917,0.167s-1.5-1-6.416-1.5c-4.917-0.5-15.667-0.917-18.417-0.833s-3.833-0.167-8.167,0.833
		s-6.25,1.417-6.25,1.417l0.416,4.417"/>
	<path fill="none" stroke="#000000" stroke-width="0.75" d="M59.472,25.499c0,0,1-3.083,1.083-7.25s0.5-8.833,0-10.5
		s-0.5-3.583-1.083-4.333c-0.584-0.75-0.584-0.75-0.584-0.75s1.416,0.583,5.5,4.083s4.583,2.75,6.75,5.917s3.834,5.583,4.334,7.333
		s0.75,6.5,0.75,6.5"/>
	<path fill="none" stroke="#000000" stroke-width="0.75" d="M78.972,83.999c0,0,1.666,4.667,1.75,7.5
		c0.083,2.833-0.918,7.916-2.084,10.333s-4.75,8.667-6.334,11c-1.582,2.333-6.332,8.083-6.332,8.083s1.25,0.583,2.75,0.5
		s3.166-0.583,3.166-0.583"/>
	<path fill="none" stroke="#000000" stroke-width="0.75" d="M71.804,119.415c0,0-0.25,4.334,0.084,5.834s0.416,3.666,2.75,5.583
		s2.75,2.75,7.917,4s4.584,0.417,8.167,2.167s3.582,1.417,6.416,3.5s4.5,3.833,4.5,3.833s-0.166-2.917-0.166-3.75
		s-1.584-1.917-1.584-1.917"/>
	<path fill="none" stroke="#000000" stroke-width="0.75" d="M102.013,77.874c0,0,1.25,2.75,4.125,4.625s9.5,5.625,11,6.25
		s1.5,0.625,1.5,0.625s-1,1-1.625,1.375s2.25,0.125,2.25,0.125s2.625-0.125,4.875-0.5s2.25-0.375,2.25-0.375l0,0
		c0,0-2,2.375-2.875,3.375s-1.875,1.625-1.875,1.625s2.125,0.25,4.125-0.25s5.25-1.25,7.75-2.25s6.125-3.25,6.125-3.25
		s-2.5,5.25-3.125,6s-2.625,2.625-2.625,2.625s6.25-1.25,9.5-2.25s5.875-2.125,5.875-2.125s-0.25,1.25-2.125,3.125
		s-2.375,2.25-2.375,2.25s4.375-0.375,6-1.5s2.875-2.375,2.875-2.375s0,2.5,0.125,3.5"/>
	<path fill="none" stroke="#000000" stroke-width="0.75" d="M134.763,185.874l-1.25-0.5c0,0,2-2.125,3.75-4s3.625-2.625,5-3
		s11.75-0.75,11.75-0.75s3.375-5.375,4.875-8.25s3.875-8.875,5.125-12s3.625-13.5,3.625-13.5s-3.875-1-6.125-1.875
		s-6.375-2.375-9.625-4.125s-5.125-3.75-7.5-6.25s-4.25-5.875-4.625-7.375s0.125-8.125,1.75-11.75s4.75-7.375,7.125-9.875
		s6.125-5.25,9.125-7s7.5-2.75,8.125-2.625l-2.875,3.75c0,0,2.125-0.25,6.25-1s10-1.125,10-1.125h0.625c0,0-3.875,1.625-5.375,2.75
		s-2.625,1.75-2.625,1.75s3.25-0.375,5.75,0s3.625,0.625,5,1.5s4,3.25,4.25,5.125s0.25,1.875,0.25,1.875"/>
	<path fill="none" stroke="#000000" stroke-width="0.75" d="M142.638,186.999c0,0-2.75,0.25-4.625,0.25s-3.25-0.75-3.25-0.75
		s1.5-2.25,3.25-3.875s4.125-3,4.125-3"/>
	<path fill="none" stroke="#000000" stroke-width="0.75" d="M147.763,182.124"/>
	<path fill="none" stroke="#000000" stroke-width="0.75" d="M147.763,182.124c0,0-5.5,5.125-5.5,5.625s2.375-0.25,5.125-0.25
		s6.875-0.5,8.5-0.875s3-1,3-1s3.5-5.875,6.625-10.125s7.375-10.75,10.25-13.5s14.25-14.375,14.25-14.375s-2.5,0.25-5,1.125
		s-4.875,1.375-4.875,1.375l8.25-7.75l-7.875-10.375c0,0,2.625-5.375,4.125-10s2.375-9.25,2.5-11.125"/>
	<path fill="none" stroke="#000000" stroke-width="0.75" d="M181.638,99.749c0,0,2.75-1,6.125-2.625s7.875-4.5,10-7.375"/>
	<path fill="none" stroke="#000000" stroke-width="0.75" d="M99.638,129.499c0,0,1.5,9.875,2.25,12.5s2.25,7.875,2.25,7.875
		s-4.125,11.5-5.125,13.5s-4.75,11-4.75,11s-4.25-0.5-6.625,0s-7.125,2.375-8.875,3.75s-4.5,4.25-4.625,4.875s0.625,1.125,1.125,1.5
		s2.625,0.375,2.625,0.375"/>
	<path fill="none" stroke="#000000" stroke-width="0.75" d="M84.138,185.999c0,0-3.25,0.375-5.125,0s-1.375-1.875-1.375-1.875
		s0.75-1.5,2.25-3.125s4.5-2.625,4.5-2.625"/>
	<path fill="none" stroke="#000000" stroke-width="0.75" d="M90.263,179.874c0,0-2.75,1.75-4,3.125s-3.125,4.125-2.125,4.25
		s6.375-0.125,6.375-0.125s7.625-1.125,9.25-2s6.375-10.125,6.375-10.125s3.25-8.25,5.125-9.625s14.75-8.75,14.75-8.75
		s-4.625-3-4.875-2.625s5.375-0.125,5.375-0.125s-1.375-0.75-2.375-3.375s-1.625-4.875-1.75-6.625s-0.5-8.875-0.25-10"/>
	<path fill="none" stroke="#000000" stroke-width="0.75" d="M80.888,134.374c0,0,2.125,5.625,2.625,9s1.625,7.25,1.625,7.25
		s-3.875,8.75-5.25,12.5s-3,7.5-3,7.5s-6.125,0.375-8.625,1.125s-5.875,2.625-7.25,4s-2.875,3.125-2.875,3.125
		s1.875,1.5,2.625,1.625l0.75,0.75"/>
	<path fill="none" stroke="#000000" stroke-width="0.75" d="M67.888,174.749c0,0-2,0.625-3.5,2.125s-3.5,4.875-3.5,4.875
		s0.875,0,3,0.25s10.375,0.25,10.375,0.25"/>
	<path fill="none" stroke="#000000" stroke-width="0.75" d="M67.638,181.999c0,0,3.375-4.5,4.375-5"/>
	<path fill="none" stroke="#000000" stroke-width="0.75" d="M85.513,175.124c0.125-0.5,1.75-4.625,2.75-6.25
		s3.125-5.625,3.125-5.625l10-5.75l0.25-3.25"/>
	<path fill="none" stroke="#000000" stroke-width="0.75" d="M99.888,154.249"/>
	<path fill="none" stroke="#000000" stroke-width="0.75" d="M100.388,143.499c0,0,1.25,4.5,1.625,5.75s1.5,2.75,1.5,2.75"/>
	<path fill="none" stroke="#000000" stroke-width="0.75" d="M125.513,152.499c0,0,2.875-0.125,4.25-1s2-1.375,2-1.375l-2.375-2.25
		c0,0,3.5-0.625,5.75-1.125s8.125-3,8.125-3l-3.125-1c0,0,3.875-1.75,5.125-2.75s3-3.375,3-3.375l-2.75-0.375l1.875-0.875"/>
	<path fill="none" stroke="#000000" stroke-width="0.75" d="M142.013,141.874l0.75,2c0,0-1.125,6.625-1.875,8.875
		s-4.75,12.375-6,14.875s-4.625,7.5-4.625,7.5s-3.375-0.375-6.25-0.25s-5.25,0.125-6.875,1.5s-5,5.625-5,5.625l1.875,0.375"/>
	<path fill="none" stroke="#000000" stroke-width="0.75" d="M119.263,177.249c0,0-5.875,5-5.5,5.5s4.5,0.375,4.5,0.375l2.375-0.125"
		/>
	<path fill="none" stroke="#000000" stroke-width="0.75" d="M124.888,178.874c0,0-2.75,2.125-3.5,3.125s-1.25,2.25-1.25,2.25
		s6.125,0.25,8.25-0.125s6.125-1.75,6.125-1.75s3.25-4.625,5.75-8.125s7.875-11.5,10.75-14.25s11.875-12,11.875-12l-8.5,1.875
		c0,0,2.5-2.25,4.25-3.875s3.625-3.75,3.625-3.75"/>
	<path fill="none" stroke="#000000" stroke-width="0.5" d="M98.013,2.249c0,0,1.625,7.875,1.75,10.5s0.5,5.75,0.375,10.25
		s-1.75,9.375-2.75,11.875s-3,5.375-3,5.375"/>
	<path fill="none" stroke="#000000" stroke-width="0.75" d="M53.783,48.764c-0.16-1.084-0.367-2.168-0.311-3.266
		c0.023-0.468,0.121-0.915,0.252-1.348c0.053-0.33,0.13-0.653,0.235-0.969c0.005-0.425,0.054-0.85,0.19-1.262
		c0.084-0.25,0.167-0.5,0.25-0.75c0.246-0.735,0.639-1.382,1.123-1.934c-1.518-3.787-5.398-6.487-9.968-6.487
		c-5.892,0-10.667,4.477-10.667,10s4.775,10,10.667,10c3.343,0,6.307-1.458,8.262-3.714C53.803,48.944,53.791,48.854,53.783,48.764z
		"/>
	<ellipse fill="#0092FF" cx="59.013" cy="46.957" rx="5.125" ry="5.208"/>
	<ellipse fill="#0092FF" cx="39.347" cy="43.291" rx="3.958" ry="3.625"/>
	<ellipse fill="#00426B" cx="58.43" cy="47.041" rx="2.125" ry="2.042"/>
	<ellipse fill="#00426B" cx="38.764" cy="43.291" rx="1.458" ry="1.375"/>
	<ellipse fill="#FFFFFF" cx="61.305" cy="44.166" rx="1.333" ry="1.25"/>
	<ellipse fill="#FFFFFF" cx="56.805" cy="49.416" rx="1" ry="0.917"/>
	<circle fill="#FFFFFF" cx="40.722" cy="41.416" r="1.083"/>
	<ellipse fill="#FFFFFF" cx="37.139" cy="44.957" rx="0.667" ry="0.542"/>
	<path fill="#E7EDF2" d="M203.972,70.165l-14.334,25.001l-4.666,8.666l2.5,6.5l27.333-10.166l-12.167-5.834
		c0,0,6.001-6.833,7.834-7.333s5.999-0.667,7.666-0.167s8.5,4.167,8.5,4.167l-5.666-9.5c0,0,6.333,1.167,8.833,3.5
		s6.999,7.833,8.333,10.833s2.834,7.5,2.834,7.5s1.166-14.5,0.833-15.5s-4.5-16.833-5-17.499c-0.5-0.668-7.666-10.334-8.333-10.5
		c-0.667-0.168-13.5-3-14.5-2.834s-11.167,8.666-12.167,9.666s-6.999,13.167-7.333,13.834s-1.667,10-1.667,10L203.972,70.165z"/>
	<path fill="#737679" d="M203.306,40.499c0,0-4.833,4.833-6,6.333s-3.833,5.333-4.5,7.167c-0.667,1.834-2.334,5.666-2.834,7.666
		s-0.834,6.334-1,8.5c-0.166,2.168,0.167,7.501-0.333,9.834s-0.667,4.834-1.167,7.167s-1.5,4.666-2.333,6.166s-2.333,4.5-2.333,4.5
		l-1.667,2.5c0,0-0.834-0.499,0.833,0.834s4.5,4.666,4.5,4.666s0.5-0.499,3.167-3.666s8.833-8.5,8.833-8.5l7.834-7.834
		c0,0-7.334,1.501-8.334,1.834s2.834-4.835,5.167-7.834s3.501-4.499,6.167-6.499s5.166-3,7.333-3.834s6.167-2,6.167-2
		s-4.833-2.667-6-2.834c-1.167-0.166-1-1.166,0.833-1.5c1.833-0.332,3.167,0.668,5.5,1.334s8.333,5.333,11,9.166
		c2.667,3.834,3.833,4.667,4.5,8.334s1.333,3.167,1.5,8s0.167,13,0.167,13s3.334-6.333,4-10.333s1.166-4.667,1.166-7.667
		s-1-12.5-1.833-13.834c-0.833-1.332-2.333-5.332-5-7.666s-12.333-9.5-12.333-9.5l10,2.666c0,0-7.666-7.833-10-9s-3-2.167-5-2.167
		s-6.5-0.167-9,0.5s-5.001,1.333-6.834,2.333s-4.833,2.667-4.833,2.667l2.5-11.5"/>
	<path fill="none" stroke="#000000" stroke-width="0.75" d="M181.638,99.666c0,0,4.334-5.833,5.334-10.333s1.833-12.334,1.833-16.5
		c0-4.167,0.833-12.167,2-14.667s4.166-8,6-10.833s6.667-7.167,6.667-7.167l-2.833,11c0,0,0-0.5,3.833-2.833s7-2.5,11-3
		s6.333-0.5,9.333,1s6.499,4.666,8.333,6.333s3.334,3.667,3.334,3.667l-10.167-2.5c0,0,3.999,2.5,6.833,4.667
		s3.667,2.834,7.167,7.334s3.834,6.166,4.667,10.166s0.832,7.167,0.166,11s-1,7.167-2,9.5s-2.5,7.333-2.5,7.333
		s-2.832-8.834-5.166-12s-5.834-7-8.667-8.333s-6-1.833-6-1.833l5.833,9.5c0,0-7.834-4.668-11-4.834s-7,1.334-9,3.667
		s-4.333,5-4.333,5l12.5,4.833l-26.5,10.667"/>
</g>
</svg>
