<?xml version="1.0" encoding="utf-8"?>
<!-- Generator: Adobe Illustrator 13.0.0, SVG Export Plug-In . SVG Version: 6.00 Build 14948)  -->
<!DOCTYPE svg PUBLIC "-//W3C//DTD SVG 1.1//EN" "http://www.w3.org/Graphics/SVG/1.1/DTD/svg11.dtd">
<svg version="1.1" xmlns="http://www.w3.org/2000/svg" xmlns:xlink="http://www.w3.org/1999/xlink" x="0px" y="0px"
	 width="184.078px" height="191.958px" viewBox="0 0 184.078 191.958" enable-background="new 0 0 184.078 191.958"
	 xml:space="preserve">
<g id="frame_1">
	<ellipse fill="#FFFFFF" cx="44.627" cy="26.636" rx="10.5" ry="9.813"/>
	<ellipse fill="#FFFFFF" cx="29.596" cy="23.542" rx="10.156" ry="8.281"/>
	<path fill="#FFFFFF" d="M31.877,17.511c0.063-0.188,7.875-5.25,8.125-5.25s6.625-0.5,8.125-0.313s3.875,0.5,4.063,1.25
		s-2.938,6.063-3.125,6.75s-3.688,3.25-3.688,3.25l-8.313,11.688c0,0-4.625,7.25-4.5,7.813s0.625,3.438,0.5,4.375
		s-1.563,4.5-1.563,4.5l-1.438,1.375l-0.813,0.438l-5.063,1.125l-8.063-0.188l-3.188-0.375l-2.313-0.688L8.44,52.824l-0.938-0.625
		l-0.75-0.375l-2.25-0.875l-2.5-1.75l-0.875-1.688l-0.75-3.125l0.125-1.313l0.75-1.375l1.125-0.813l1.875-0.438l1.5-0.188
		l1.938-1.375l6.875-4.375c0,0,6.938-3.5,7.125-3.563s1.625-0.75,1.625-0.75l5.938-5.438l3.125-7.25"/>
	<path fill="#FFFFFF" d="M50.315,56.136c-0.75,0.75-5.25,20.5-5.25,20.5s2.5,10.5,2.25,11.75s2.75,13.5,3,14.25s4.5,6.5,5,7.25
		s4,6.5,4.75,7s1.125,2.375,1.125,2.375l1.25,3.75l1.938,5.75l0.563,2.5l1.563,5.313l0.375,4.375l0.313,5.125l0.063,4.125
		l0.063,5.75l-0.75,6.438c0,0-0.875,5.875-0.938,6.063s-0.625,3.688-0.625,3.688l-0.438,3.375c0,0-0.563,1.813-0.625,2.063
		s-0.25,1.688-0.313,2.063s-0.563,2.25-0.563,2.25l-5.438,2l-0.563,1.375l-0.563,1.188l-0.688,0.938l-0.313,1.438
		c0,0,0.438,0.188,0.688,0.188s2.188,0.375,2.188,0.375h1.063l0.688,0.25l2.125,0.313c0,0,0.438-0.063,0.375,0.125
		s0.25,0.5,0.25,0.5s7.188-0.125,7.375-0.188s3.5-0.313,3.5-0.313l2.438-0.75l1.063-0.938l0.813-1.688v-1.5l-0.813-5.063
		l-0.563-6.875l-0.563-6.438l-0.625-9.125v-5.625l0.375-5.5l0.625-6.375l1.313-8l3.25-14.813c0,0,5.375-0.688,5.688-1.063
		s6.125-5.938,6.125-5.938s2.438-2.313,3.438-3.313s11.813-8.188,12.188-8.5s5.625-2.5,5.625-2.5s-0.875-4.25-1.313-4.688
		s-28-8.813-28-8.813L72.69,70.886l-1.125-2.125l-1.563-1.688c0,0-1.563-2.438-1.563-2.625s-1.313-3.813-1.313-3.813l-1-2.625
		l-0.563-2.063l-0.313-1.75l-0.625-1.938c0,0-0.688-1.375-1.125-1.25s-6.125,1.5-6.563,1.625s-6.625,3.063-6.625,3.063"/>
	<path fill="#FFFFFF" d="M124.065,114.011c0,0,8.125,10.75,8.5,11s13.125,4.75,13.75,5.125s8.5,1.75,8.875,1.875
		s3.375,2.125,3.375,2.125s0,11.25-0.125,11.625s-1,12-1,12.75s0.5,9.625,0,9.875s-7,5.5-7,5.5l-2.5,2.25l-0.875,0.75l-1.625,2.813
		l-1.063,1.25l-1.063,0.938l-1.75,1.313l-2.438,1.563l-1.313,1.188l-0.625,1.375v1.625c0,0,0.313,0.688,0.5,0.688
		s1.813,0.125,1.813,0.125l0.5,0.188l-0.125,0.625c0,0,0.563,0.5,0.813,0.5s1.875-0.063,1.875-0.063l1,0.063l1.25,0.125l3.125,0.25
		c0,0,2.5-0.438,2.75-0.438s1.75-0.5,1.938-0.563s1.875-0.688,1.875-0.688l1.438-0.938l1.063-1.063l0.75-1.438l1.688-3.25
		l2.125-5.688l1.125-3.625l1.5-6.75l0.938-4.125l0.813-4.438l0.313-4.625l0.063-8.563l-0.563-7.5v-4.5l-0.875-7.375l-0.5-1.563
		l-1.5-0.25l-2.688-1.375l-2.438-1.875c0,0-2.313-1.5-2.688-1.5s-14.188-6-14.875-6.25s-11.938,0-11.625,0s-4.5,0.25-4.688,0.375"/>
	<path fill="#B2B2B2" d="M46.502,46.824l-0.375,2.75c0,0-0.063,4.25-0.188,4.438s-1.063,2.063-1.125,2.25s-0.625,2.5-0.625,2.5
		s-2.063,4.938-2.75,6.813s-2.438,9.188-2.75,10.688s-0.688,3.75-0.938,5.375s-0.5,3.938-0.438,6s0.063,2.75,0.313,4.625
		s0.688,4.688,1.375,6.375s2.063,4.688,3.875,7.5s3.375,4.75,4.125,5.75s0.875,2.125,0.875,2.125l0.813,3.688
		c0,0,1.25,5.188,2,7.063s1.313,3.563,2.063,6.313s1.5,5.5,1.75,7.25s0.625,6.625,0.625,8s0.188,5.188,0.063,7.25
		s-0.125,6.188-0.438,8.063s-0.813,4.75-1.25,6.625s-0.563,1.563-1.063,3.813s-0.688,2.75-1,4s-0.625,2.875-0.625,2.875
		l-2.813,1.188l-2.75,1.563l-1.313,1.75l-0.188,1.25l0.688,1c0,0,1.125,0.25,1.313,0.25s1.375,0.063,1.375,0.063l0.438-0.125
		l-0.438,0.5l3.188,0.063v0.5l2.813,0.188h2.188l0.5-0.125l0.938-2.188c0,0,1.5-1.313,3.063-1.75s3.063-0.938,3.063-0.938
		l1.625-7.688l0.563-3.813c0,0-1.875-8.438-1.75-10.875s-0.25-14.625-0.25-14.625s1.375-8.5,1.438-8.688s1.188-2.625,1.188-2.625
		l-2.188-8.188l-2.688-8.25l-2.563-8.563c0,0-0.938-0.875-2.438-3.688s-4.313-10.438-5.375-15.5s-0.625-11.5-0.5-14.813
		s0.875-8.875,2.313-12.313s3.563-6.188,5.625-7.188s3.313-1,4-1.063s3.313,0.063,3.313,0.063s-0.063-1.875-0.188-2.125
		s-0.5-1.813-0.5-1.813l-0.125-1.5l0.063-0.813v-1.5l-0.25-1.188c0,0-1.313-0.813-1.813-0.625s-1.5,0.063-2.063,0.125
		s-6.75,0.5-6.75,0.5l-6.5-0.938l-0.438,2"/>
	<path fill="#B2B2B2" d="M73.981,107.219c0,0-1.167,2.668-1.5,4.584s-0.666,5.75,0.667,7.833s2.5,3.583,2.5,3.583
		s-1.501,9.417-2.167,14.417s-1.249,9.334-1.416,14s-0.333,7,0.667,10.75s3.416,8.083,3.416,8.083s-0.332-7.583-0.416-7.833
		s-0.25-5.917-0.25-5.917s0.334-8.167,0.25-8.5s0.833-8.083,0.833-8.083s2.166-10.167,2.083-10.5s0.917-4.417,0.917-4.417
		l2.583-1.083l2.75-1.667c0,0,6.666-5.5,6.833-5.75s6.833-6,7.75-7s4.501-4.833,4.501-4.833l3.333-2.5l2.167-1.667l1.583-0.75
		l1.833-0.75l0.5-0.167l-0.25-2.583l0.167-2c0,0-1.501-0.667-5.417,2s-3.333,2.084-8.083,5.417s-11.083,9.5-13.75,11.333
		s-4.667,3-4.667,3"/>
	<path fill="#B2B2B2" d="M113.565,98.136l-0.167,3.666c0,0,0.334,4.75,1.167,6.667s3.583,5.666,5.083,7.583s4.5,5.167,4.5,5.167
		s-2-0.5-2.5-0.583s-6.751-2.583-7.167-2.75s-6.249-1.583-6.666-1.75s-2.084-1.749-2.334-1.833s5.834,7.084,12.167,10.25
		s8.416,3.834,9.083,4s4.417,0.333,4.417,0.333l2.917,0.583l2.666,1.583l2.667,1c0,0,0.583,2.751,1.083,6.334
		s0.751,6.999,0.751,11.333s0.415,7.001-0.001,10.334s-0.75,7.25-3.75,10.333s-5.166,4.333-6.916,5.083s-3.417,0.917-3.417,0.917
		l-1.5,3.333c0,0-3.999,1.666-4.666,2.583s-2.667,3.167-2.667,3.167l-0.25,1.333l1.333,0.334h1.25l-0.083,0.583l2.833,0.667
		l1.584,0.166c0,0-0.417,0.584,0.083,0.667s3.167,0.417,3.167,0.417l1.916-0.084l2-0.75l1.834-0.833l2.333-1l1.583-1.667
		l0.917-1.333c0,0,2.417-7,3-9.5s2.667-10.833,3.25-12.75s0.999-2.5,1.166-7.25s-0.084-12.832-0.25-13.916s-1.417-6.667-1.5-6.917
		s8,1,8,1s1.251,7.75,1.084,12.5s-0.333,7.999-0.75,10.333s-1.001,5.918-1.667,8.084s-1.166,3.834-1.916,5.25
		s-0.75,2.416-1.167,3.666s-1.333,2.5-1.333,2.5s2.249,0.666,4.666-0.75s5.5-3.75,6.667-6.583s2.75-6.917,2.75-10.5
		s0.082-11.083-0.834-17.833s-1.916-11.834-1.916-11.834s-7.333,0.668-10.75-0.166s-11.751-4.75-15.167-7.667
		s-7.583-8.334-7.583-8.334"/>
	<path fill="#B2B2B2" d="M118.94,123.762c0,0,5.208,6.083,5.458,6.333s5.042,0.667,5.792,0.875s3.709,0.042,3.917,0.125
		s0.5-0.209,0.625-0.292s0.166-0.916,0.083-1.041s-3-2.376-3.25-2.459s-10.166-2.958-10.333-2.958s-2.125-0.75-2.125-0.75"/>
	<path fill="#7C7C7C" d="M63.232,124.636c0,0-0.022,0.119-0.063,0.339c-0.352,1.904-2.082,11.37-2.604,16.078
		c-0.583,5.25-1.334,9.749-1,13.999s-0.083,5.168,0.917,7.834s4,8.666,4,8.666l0.75-0.75l-0.917-2.75l-0.916-5.833v-9.833v-7.334
		l0.083-3.416l1.083-4.917l1-2.583l-2.167-9.917"/>
	<path fill="#7C7C7C" d="M98.066,110.802c0,0,1.416,3.251,2.083,4.334s2.667,4.417,3.667,5.25s4.75,4.75,5.75,5.333
		s4.332,2.749,5.666,3.583s4.501,2.918,5.334,3.334s4.499,0.75,5.416,1s5.167,0.75,5.167,0.75l2.833,0.333
		c0,0,0.334,9.833,0.417,12.333s-0.083,5.084-0.333,6.834s-1.166,5.75-1.5,7.083s-0.416,3.333-1,4.833s-1.417,3.334-1.917,4.834
		s-2.5,5.5-2.5,5.5s3.667-0.751,4-0.834s2.917-1.25,4-2.583s3.917-4.916,4.667-7.833s1.166-8.417,1.083-11.417s0.333-9.833-0.167-13
		s-1-6.75-1-6.75l-0.5-2.083l-4.333-1.833c0,0-6.833-0.667-9.25-1.417s-6.667-3.25-8.167-4.25s-3.749-2.333-6.416-4.833"/>
	<path fill="#574C3F" d="M70.981,68.303c0,0-1.25,3.583-1.5,5.75s-1.167,7.167-0.5,12.083s1.667,7.167,3.417,10.5
		s5.166,6.667,8.583,7.167s3.916,0.166,8-1.584s5.334-2.75,8.834-4.5s6.667-3.5,8.667-3.583s6.583,0.167,6.583,0.167l0.416,4.083
		c0,0,0.334,1.25,1.834,4.667s3.916,6.583,6.333,9s4.666,4.5,9,6.083s6.167,2.75,13.25,2.917s13.583,0,13.583,0l-3.166-3.75
		l-1.917-2.334l-1.667-2.333l-1.833-3l-0.833-2.417l-1-2.5l-1.5-4.083l-0.667-2.166l-0.666-2.5l-0.584-2.084l-0.416-0.916
		l3.249,0.833l2.834,0.583l2.416,0.5l4.25,0.167l4.334,0.166h4.166l5.417-2l4.75-2.416l4.167-2.834l2.333-2.749l1.917-4.167
		l0.5-2.917l-0.25-4.417l-1.084-5.75l-1.25-3.75l-2-5l-2.25-3.75l-1.666-3.167l-2.334-2.833c0,0,0.918,4.583,1.334,6.333
		s1.25,4.5,1.25,4.5l0.25,2.75l0.5,3.25c0,0,0.25,2.5,0.25,2.75s0.083,3.25,0.083,3.25l-0.166,3.5l-0.917,2.667l-1.167,1.5
		l-0.833,1.25l-1,1.083l-1.167,1.25l-3.416,1.667l-3.084,0.333l-3.333,0.25l-5.75-0.333l-3.333-0.584l-3.917-1l-5.25-1.5
		l-2.167-1.416l-1.25-0.584l-1.25-4l-2-3.417l-3.083-3.667l-4.334-2.333l-3.666-1h-4.167l-4.166,0.417l-5.584,0.917l-5.75,1.25
		l-9.75,1.917l-7.75,1.5h-5.417h-2.666l-2.417-0.167l-3.333-0.75l-1.667-1.417L70.981,68.303z"/>
	<path fill="#574C3F" d="M28.814,15.553c0,0,1.667,0.417,2.333,0.667s2,1.25,2,1.25l0.5,0.25c0,0,0.75-0.417,2.25-1.667
		s2.749-1.833,5.083-2.333s5.584-0.417,6.667-0.25s1.667,0.417,1.667,0.417l-0.417,3.583l2.667,1.833l2,1.333
		c0,0,0.834,1.833,1,2.167s0.249,1.5,0.416,1.75s0.416,1.167,0.5,1.5s0.083,1.25,0,1.833s-0.417,1.417-0.5,1.667
		s-0.5,1.167-0.583,1.417s-0.75,1.25-0.75,1.25l-2.75,2.5l-2,0.833l-2.583,0.583l-2,0.167l-3.75-0.667l-1.584-0.75
		c0,0-1.166-0.833-1.416-1.083s-1.084-1-1.334-1.083s-1.083-1.167-1.083-1.167s-1.5,2-2.667,3.667s-1.167,3.25-1.25,5.5
		s0.333,4.333,0.333,5.75s0.583,2.25-0.417,3.75s-2.583,3.417-2.583,3.417l10.25-4.25c0,0,7.416-4.417,8.416-4.917
		s8.168-5.667,8.834-6.167s7.833-9.084,7.583-8.917s-1.334-1.5-1.417-2.083s2.75-5.333,2.75-5.333s2.084-0.083,2.417-0.25
		s1.583-0.833,1.583-0.833s1.918,0.667,3.084,1.167s6,0.917,6,0.917l1.916-0.167l4.667-0.25l2.583-0.25l2.5-0.333l2.75-0.667l3.25-1
		l1.167-0.5l-3.75-3.25l-3.5-2.583l-3.417-2.083l-4.25-2.5L77.065,6.97l-3.5-1.417L72.731,4.97l2.167-2l1.5-1.417L71.731,0.97
		l-4.833-0.75h-7.5l-4.417,0.333L51.815,0.47l-4.167,1.417l-3.583,1.917l-2.167,2.083L40.065,7.72l-0.917,1.417l-3,1.333l-4.083,2.5
		L28.814,15.553z"/>
	<path fill="#3D352C" d="M63.565,18.074c0,0-1.563-1.25-1.875-1.5s-0.438-0.5-0.438-0.5s-2.063,8.313-4.313,12.313
		s-3.313,5.813-6.063,8.5s-7.938,7.563-11.063,9.875s-8.875,6.25-8.875,6.25s5.625-2.188,6.313-2.625s3.938-1.938,3.938-1.938
		l3.438-1.25l2-0.563l3.063,0.5c0,0,3.438,0.375,3.75,0.375s2.75,0.188,2.75,0.188s2.625,0,2.813,0s2.063-0.25,2.313-0.313
		s1.813-1.063,1.813-1.063l1.875-1.375l1.813-2.375l0.813-1.375l0.875-1.813l0.813-2l0.938-3.438l0.375-3.563l-0.063-3.438
		l-0.313-2.875l-0.563-1.563l-0.5-1.375l-0.125-0.438l-2-1.125l-1.688-0.625l-1.563-1L63.565,18.074z"/>
	<path fill="#3D352C" d="M100.085,108.969c0,0,1.688,3.75,4.625,5.938s5.5,4,7.938,4.938s4.625,1.188,6.375,1.313
		s4.813,0.125,4.813,0.125s-2.75-2.438-3.313-3.063s-3.75-4.875-3.75-4.875l-1.063-1.938l-0.813-1.625l-0.688-1.688l-0.688-2.688
		l-0.5-3.063l-0.063-1.188l-0.063-1l0.063-0.875l-1.313,0.188l-2.313,1.375l-2.063,1.25l-1.813,1.375l-1,1.25l-1.438,1.125
		l-2.063,1.813L100.085,108.969z"/>
	<ellipse fill="#20A0FF" cx="37.909" cy="26.761" rx="3.781" ry="3.75"/>
	<ellipse fill="#004774" cx="37.409" cy="26.574" rx="1.531" ry="1.5"/>
	<ellipse fill="#20A0FF" cx="23.19" cy="24.136" rx="3.125" ry="3"/>
	<ellipse fill="#004774" cx="22.909" cy="24.074" rx="1.094" ry="1.063"/>
	<ellipse fill="#FFFFFF" cx="39.252" cy="24.667" rx="1" ry="0.906"/>
	<ellipse fill="#FFFFFF" cx="35.721" cy="28.324" rx="0.719" ry="0.688"/>
	<ellipse fill="#FFFFFF" cx="24.377" cy="22.73" rx="0.813" ry="0.781"/>
	<ellipse fill="#FFFFFF" cx="21.721" cy="25.699" rx="0.656" ry="0.625"/>
	<path fill="none" stroke="#020202" stroke-width="0.75" d="M28.315,15.636c0,0,6.75-5.313,9.938-5.875S48.377,8.886,51.44,9.324
		s6.188,1,6.188,1s2.5-2.75,4.375-3.688s8-1.875,10.375-1.313s6.625,2.063,13.313,6.188s11.438,8.25,11.438,8.25
		s-6.75,2.125-8.375,2.375s-7.063,0.813-11.125,0.688s-6.688-1.25-7.563-1.5s-0.875-0.25-0.875-0.25s1.125,3.438,1.25,5.563
		s0.125,7.188-0.938,10.25s-2.5,5.625-4.125,7.5s-1.75,2.313-5,3.063s-3.938,0.438-6.563,0.313s-5.75-1-7.25-0.938
		s-3.063,0.625-6.063,2.063s-2.375,1.375-7.375,3.188s-6.625,2.313-10.375,2.5s-6.063,0.188-8.813-0.313s-5.188-1.25-5.938-1.688
		s-0.938-0.688-0.938-0.688"/>
	<path fill="none" stroke="#020202" stroke-width="0.75" d="M5.164,40.596c5.709-4.239,11.776-7.286,18.151-10.397"/>
	<path fill="none" stroke="#020202" stroke-width="0.75" d="M1.502,41.824c0,0-0.239,0.226-0.497,0.605
		c-0.317,0.466-0.663,1.165-0.628,1.958c0.063,1.438,0.438,3.875,2.375,5.25s3.563,2.563,5.813,2.063s3.875-1.125,5.75-2.75
		s3.063-2.688,3-4.5s-1.063-3-2.75-3.5s-9.938-0.375-10.938-0.313S2.065,41.449,1.502,41.824z"/>
	<path fill="#020202" d="M57.971,10.449c0,0-0.344,0.313-0.844,1.328s-0.5,1.016-0.5,1.016s0.125-2.266,1.156-3.016"/>
	<path fill="#020202" d="M69.471,21.636c0,0-3.406-1.531-5-2.875s-1.688-1.5-1.688-1.5s7.938,4,8.75,4.219"/>
	<path fill="#020202" d="M12.69,41.167c0,0-4.625,0.844-6.344,1.969s-2.375,1.875-2.094,3s0.219,0.594,1.375,2.156
		s3.094,3.406,3.094,3.406s4.219-1.656,4.875-2.094s3.688-3.969,3.719-4.75s-0.25-2.906-0.375-2.75S14.502,40.449,12.69,41.167z"/>
	<path fill="#020202" d="M2.049,40.917c0,0-0.703,0.484-0.969,0.781s0.141,0.328,0.141,0.328l0.547-0.391l0.563-0.766"/>
	<ellipse fill="none" stroke="#020202" stroke-width="0.75" cx="44.565" cy="26.595" rx="10.75" ry="9.708"/>
	<path fill="none" stroke="#020202" stroke-width="0.75" d="M33.898,23.898c0.007-0.038,0.028-0.061,0.04-0.094
		c0.257-1.128,0.942-2.146,1.824-2.95c-1.174-2.988-4.194-5.135-7.78-5.135c-4.603,0-8.333,3.507-8.333,7.833
		s3.731,7.833,8.333,7.833c2.387,0,4.524-0.958,6.043-2.473C33.484,27.322,33.642,25.197,33.898,23.898z"/>
	<path fill="none" stroke="#020202" stroke-width="0.75" d="M38.899,9.553c0,0,2.833-4.5,5.333-5.917s4.833-2.417,7.833-2.917
		s12.25-0.333,15.667-0.25s8.833,1.25,8.833,1.25l-4.188,3.604"/>
	<path fill="none" stroke="#020202" stroke-width="0.75" d="M46.232,46.97c0,0,0.084,6-1.083,8.833s-3.834,9.75-5.084,14.417
		s-2.75,13.584-2.583,18s0.416,8.917,2.833,13.75s6.251,9.999,10.334,13.666s10.083,7.334,11.083,7.834s1.333,0.666,1.333,0.666
		s0.563,1.875,1.188,4.688s2.063,5.563,2.563,11.063s0.563,14.5,0.188,18.938s-1.063,7.188-1.938,12.063s-2.125,11.188-2.125,11.188
		s-4.75,1.375-6,2.938s-1.625,4-1.625,4l3.813,0.125l-0.125,0.688h3.5v0.688c0,0,5.25-0.125,7.813-0.188s5.188-0.5,6.313-1.5
		s1.438-1.188,1.5-2.938s-0.688-4.875-0.875-6.938s-0.688-5.688-1-9.563s-0.813-11-0.75-15.125s0.188-6.188,0.688-11.063
		s0.938-6.625,1.75-11s2.063-9.313,2.5-11.813s1.063-4.813,1.063-4.813"/>
	<path fill="none" stroke="#020202" stroke-width="0.75" d="M79.315,125.469c0,0,4.25-1.582,7.25-4.166s5.916-5.251,9.833-9.001
		s7.668-7.499,10.334-9.666s4.249-3.083,5.166-3.25s1.25-0.167,1.25-0.167s-0.084,3.917,0.5,6.167s2.416,6.75,4.333,9.25
		s5.25,6.582,9.667,9.916s8.5,7,15.75,8.5s9.333,1.834,9.333,1.834s1,12.667,0.667,17.75s-2.083,13.167-4,17.75s-2.25,6.416-4,9.166
		s-3.001,3.168-4.667,4.334s-3.082,2.082-3.416,3.166s-0.25,2.084,0.25,2.417s2.416,0.417,2.416,0.417s-0.416,0.75-0.083,1.083
		s3.334,0.167,3.667,0.25s0.333,0.083,0.333,0.083s2.999,0.5,5.333,0.167s5.416-1.749,7.25-3.333s4.917-10.168,5.917-13.584
		s2.25-8.916,2.917-12.333s0.834-8.084,0.917-12.25s-0.417-13.834-0.667-17.417s-1.25-8-1.25-8s-3.668-0.583-6.584-3.583
		s-6.5-6.666-8.5-11.083s-3.499-8.333-4.499-11.5s-1.667-6.5-2.584-10.25s-4.001-12.333-5.667-14.917s-4-5.25-8.083-6.333
		s-7.999-0.917-12.916-0.167s-11.25,2.167-17.417,3.417s-9.916,2.25-14.833,2s-8.333-0.167-11.5-3.167s-3.5-4.75-4.75-8.5
		s-1.833-6.833-2.25-9.583s-0.584-4.833-0.584-4.833"/>
	<path fill="none" stroke="#020202" stroke-width="0.75" d="M47.815,112.699c0,0,1.563,8.75,3.125,12.688s2.688,9.563,3.438,12.563
		s0.688,6.75,0.75,10.875s0.125,7.375-0.375,12.125s-0.813,4.875-1.75,9.438s-2.375,8.625-2.375,8.625s-3.625,1.375-4.813,2.375
		s-1.688,2.125-1.813,2.75s-0.125,0.625-0.125,0.625s0.375,1,1.063,1.063s2.625,0.125,2.625,0.125l-0.438,0.5l3.563,0.063
		l-0.438,0.625h5.625"/>
	<path fill="none" stroke="#020202" stroke-width="0.75" d="M65.065,170.886c0,0-1.625-5.188-1.688-9.688s0.063-13.625,0.063-16.563
		s0.188-2.813,0.813-6.25s1.375-4.438,1.375-4.438"/>
	<path fill="none" stroke="#020202" stroke-width="0.75" d="M97.981,110.969c0,0,3.001,6.999,7.334,11.083
		s13.25,10.084,17.25,11.167s11.25,1.583,11.25,1.583s0.584,14.5,0.25,17.75s-1.834,11.083-3.167,14.75s-3.332,7.917-4.166,9.917
		s-1.084,2.584-1.084,2.584s-3.416,1.166-4.416,2.166s-2.918,3.416-3.084,4s0.167,1.25,0.167,1.25l2.583,0.084l-0.083,0.666
		c0,0,2.75,0.667,3.25,0.667s0.833,0,0.833,0l-0.166,0.667c0,0,4.834,0.417,6,0s3.332-1.084,4.916-2.167s2.584-1.916,3.167-3.083
		s1.333-2.834,2.833-8.834s3.834-14.499,4.167-16.666s0.249-12.75,0.333-16.167s-1.583-8.917-1.583-8.917"/>
	<path fill="none" stroke="#020202" stroke-width="0.75" d="M139.565,80.636c0,0,7,3.625,14.25,4.5s13.75,1.5,17.75-2
		s5.625-7.625,4.625-15.875s-3.625-18-3.625-18s7,9.125,9.125,17.25s3.25,16-2.125,20.625s-10.875,7.75-16.5,8.125
		s-16.125-1.25-17.125-1.5s-2.625-0.75-2.625-0.75"/>
	<path fill="#020202" d="M113.471,99.199c0,0-0.188-7.719,0.344-9.938s0.688-2.625,0.688-2.625s-1.469,3.188-1.625,5.5
		s-0.156,7.5-0.156,7.5"/>
	<polyline fill="#020202" points="63.315,123.97 55.523,100.428 62.69,124.345 	"/>
	<path fill="#020202" d="M81.815,115.678c0,0-2.583-2.209-4.25-4s-3.543-4.542-3.834-6s-0.291-3.375-0.291-3.375
		s-1.084,3.125,0.208,5.25s6.291,7.834,6.833,8.459s0.542,0.625,0.542,0.625"/>
	<path fill="#050505" d="M46.941,186.304c0.084-0.167,0.876-2.584,2.334-3.709s1.625-1.208,1.625-1.208s-3.042,4.708-3.167,4.958"/>
	<path fill="#050505" d="M50.4,186.22c0,0,1.75-3.041,2.75-3.958s1-0.917,1-0.917l-3.375,5.792"/>
	<path fill="#050505" d="M58.858,189.012c0,0,0.458-1.584,1.458-2.834s1.375-1.416,1.375-1.416s-2.334,4.625-2.417,5"/>
	<path fill="#050505" d="M62.358,189.762c0,0,0.959-3.126,1.875-4.084s1.166-1.166,1.166-1.166l-2.333,6"/>
	<path fill="#020202" d="M120.607,187.179c0,0,0.25-1.938,0.958-2.979s1.917-1.792,1.917-1.792s-2.126,4.626-2.209,5.084
		s-0.166,0.521-0.166,0.521"/>
	<path fill="#020202" d="M124.502,188.554c-0.021-0.063,0.604-3.666,1.625-4.625s1.521-1.042,1.521-1.042s-1.146,1.396-1.708,2.667
		s-0.625,3.438-0.625,3.438"/>
	<path fill="#020202" d="M139.815,189.742c0,0-0.042-1.958,1.333-3.313s1.375-1.354,1.375-1.354s-2.583,5.374-2.396,5.771"/>
	<path fill="#020202" d="M143.627,191.117c0,0-0.209-3.146,0.604-4.313s2.5-2.375,2.5-2.375s-1.167,1.688-1.688,2.625
		s-0.791,2.604-0.833,3.313s0,0.854,0,0.854"/>
</g>
<g id="frame_2">
	<path fill="#FFFFFF" d="M50.565,55.886c-0.75,0.75-5.25,20.5-5.25,20.5s2.5,10.5,2.25,11.75s2.75,13.5,3,14.25s4.5,6.5,5,7.25
		s4,6.5,4.75,7s1.125,2.375,1.125,2.375l1.25,3.75l1.938,5.75l0.563,2.5l1.563,5.313l0.375,4.375l0.313,5.125l0.063,4.125
		l0.063,5.75l-0.75,6.438c0,0-0.875,5.875-0.938,6.063s-0.625,3.688-0.625,3.688l-0.438,3.375c0,0-0.563,1.813-0.625,2.063
		s-0.25,1.688-0.313,2.063s-0.563,2.25-0.563,2.25l-5.438,2l-0.563,1.375l-0.563,1.188l-0.688,0.938l-0.313,1.438
		c0,0,0.438,0.188,0.688,0.188s2.188,0.375,2.188,0.375h1.063l0.688,0.25l2.125,0.313c0,0,0.438-0.063,0.375,0.125
		s0.25,0.5,0.25,0.5s7.188-0.125,7.375-0.188s3.5-0.313,3.5-0.313l2.438-0.75l1.063-0.938l0.813-1.688v-1.5l-0.813-5.063
		l-0.563-6.875l-0.563-6.438l-0.625-9.125v-5.625l0.375-5.5l0.625-6.375l1.313-8l3.25-14.813c0,0,5.375-0.688,5.688-1.063
		s6.125-5.938,6.125-5.938s2.438-2.313,3.438-3.313s11.813-8.188,12.188-8.5s5.625-2.5,5.625-2.5s-0.875-4.25-1.313-4.688
		s-28-8.813-28-8.813L72.94,70.636l-1.125-2.125l-1.563-1.688c0,0-1.563-2.438-1.563-2.625s-1.313-3.813-1.313-3.813l-1-2.625
		l-0.563-2.063l-0.313-1.75l-0.625-1.938c0,0-0.688-1.375-1.125-1.25s-6.125,1.5-6.563,1.625s-6.625,3.063-6.625,3.063"/>
	<path fill="#FFFFFF" d="M124.315,113.761c0,0,8.125,10.75,8.5,11s13.125,4.75,13.75,5.125s8.5,1.75,8.875,1.875
		s3.375,2.125,3.375,2.125s0,11.25-0.125,11.625s-1,12-1,12.75s0.5,9.625,0,9.875s-7,5.5-7,5.5l-2.5,2.25l-0.875,0.75l-1.625,2.813
		l-1.063,1.25l-1.063,0.938l-1.75,1.313l-2.438,1.563l-1.313,1.188l-0.625,1.375v1.625c0,0,0.313,0.688,0.5,0.688
		s1.813,0.125,1.813,0.125l0.5,0.188l-0.125,0.625c0,0,0.563,0.5,0.813,0.5s1.875-0.063,1.875-0.063l1,0.063l1.25,0.125l3.125,0.25
		c0,0,2.5-0.438,2.75-0.438s1.75-0.5,1.938-0.563s1.875-0.688,1.875-0.688l1.438-0.938l1.063-1.063l0.75-1.438l1.688-3.25
		l2.125-5.688l1.125-3.625l1.5-6.75l0.938-4.125l0.813-4.438l0.313-4.625l0.063-8.563l-0.563-7.5v-4.5l-0.875-7.375l-0.5-1.563
		l-1.5-0.25l-2.688-1.375l-2.438-1.875c0,0-2.313-1.5-2.688-1.5s-14.188-6-14.875-6.25s-11.938,0-11.625,0s-4.5,0.25-4.688,0.375"/>
	<path fill="#B2B2B2" d="M46.877,46.199"/>
	<path fill="#B2B2B2" d="M46.752,46.574l-0.375,2.75c0,0-0.063,4.25-0.188,4.438s-1.063,2.063-1.125,2.25s-0.625,2.5-0.625,2.5
		s-2.063,4.938-2.75,6.813s-2.438,9.188-2.75,10.688s-0.688,3.75-0.938,5.375s-0.5,3.938-0.438,6s0.063,2.75,0.313,4.625
		s0.688,4.688,1.375,6.375s2.063,4.688,3.875,7.5s3.375,4.75,4.125,5.75s0.875,2.125,0.875,2.125l0.813,3.688
		c0,0,1.25,5.188,2,7.063s1.313,3.563,2.063,6.313s1.5,5.5,1.75,7.25s0.625,6.625,0.625,8s0.188,5.188,0.063,7.25
		s-0.125,6.188-0.438,8.063s-0.813,4.75-1.25,6.625s-0.563,1.563-1.063,3.813s-0.688,2.75-1,4s-0.625,2.875-0.625,2.875
		l-2.813,1.188l-2.75,1.563l-1.313,1.75l-0.188,1.25l0.688,1c0,0,1.125,0.25,1.313,0.25s1.375,0.063,1.375,0.063l0.438-0.125
		l-0.438,0.5l3.188,0.063v0.5l2.813,0.188h2.188l0.5-0.125l0.938-2.188c0,0,1.5-1.313,3.063-1.75s3.063-0.938,3.063-0.938
		l1.625-7.688l0.563-3.813c0,0-1.875-8.438-1.75-10.875s-0.25-14.625-0.25-14.625s1.375-8.5,1.438-8.688s1.188-2.625,1.188-2.625
		l-2.188-8.188l-2.688-8.25l-2.563-8.563c0,0-0.938-0.875-2.438-3.688s-4.313-10.438-5.375-15.5s-0.625-11.5-0.5-14.813
		s0.875-8.875,2.313-12.313s3.563-6.188,5.625-7.188s3.313-1,4-1.063s3.313,0.063,3.313,0.063s-0.063-1.875-0.188-2.125
		s-0.5-1.813-0.5-1.813l-0.125-1.5l0.063-0.813v-1.5"/>
	<path fill="#B2B2B2" d="M74.231,106.969c0,0-1.167,2.668-1.5,4.584s-0.666,5.75,0.667,7.833s2.5,3.583,2.5,3.583
		s-1.501,9.417-2.167,14.417s-1.249,9.334-1.416,14s-0.333,7,0.667,10.75s3.416,8.083,3.416,8.083s-0.332-7.583-0.416-7.833
		s-0.25-5.917-0.25-5.917s0.334-8.167,0.25-8.5s0.833-8.083,0.833-8.083s2.166-10.167,2.083-10.5s0.917-4.417,0.917-4.417
		l2.583-1.083l2.75-1.667c0,0,6.666-5.5,6.833-5.75s6.833-6,7.75-7s4.501-4.833,4.501-4.833l3.333-2.5l2.167-1.667l1.583-0.75
		l1.833-0.75l0.5-0.167l-0.25-2.583l0.167-2c0,0-1.501-0.667-5.417,2s-3.333,2.084-8.083,5.417s-11.083,9.5-13.75,11.333
		s-4.667,3-4.667,3"/>
	<path fill="#B2B2B2" d="M113.815,97.886l-0.167,3.666c0,0,0.334,4.75,1.167,6.667s3.583,5.666,5.083,7.583s4.5,5.167,4.5,5.167
		s-2-0.5-2.5-0.583s-6.751-2.583-7.167-2.75s-6.249-1.583-6.666-1.75s-2.084-1.749-2.334-1.833s5.834,7.084,12.167,10.25
		s8.416,3.834,9.083,4s4.417,0.333,4.417,0.333l2.917,0.583l2.666,1.583l2.667,1c0,0,0.583,2.751,1.083,6.334
		s0.751,6.999,0.751,11.333s0.415,7.001-0.001,10.334s-0.75,7.25-3.75,10.333s-5.166,4.333-6.916,5.083s-3.417,0.917-3.417,0.917
		l-1.5,3.333c0,0-3.999,1.666-4.666,2.583s-2.667,3.167-2.667,3.167l-0.25,1.333l1.333,0.334h1.25l-0.083,0.583l2.833,0.667
		l1.584,0.166c0,0-0.417,0.584,0.083,0.667s3.167,0.417,3.167,0.417l1.916-0.084l2-0.75l1.834-0.833l2.333-1l1.583-1.667
		l0.917-1.333c0,0,2.417-7,3-9.5s2.667-10.833,3.25-12.75s0.999-2.5,1.166-7.25s-0.084-12.832-0.25-13.916s-1.417-6.667-1.5-6.917
		s8,1,8,1s1.251,7.75,1.084,12.5s-0.333,7.999-0.75,10.333s-1.001,5.918-1.667,8.084s-1.166,3.834-1.916,5.25
		s-0.75,2.416-1.167,3.666s-1.333,2.5-1.333,2.5s2.249,0.666,4.666-0.75s5.5-3.75,6.667-6.583s2.75-6.917,2.75-10.5
		s0.082-11.083-0.834-17.833s-1.916-11.834-1.916-11.834s-7.333,0.668-10.75-0.166s-11.751-4.75-15.167-7.667
		s-7.583-8.334-7.583-8.334"/>
	<path fill="#B2B2B2" d="M119.19,123.512c0,0,5.208,6.083,5.458,6.333s5.042,0.667,5.792,0.875s3.709,0.042,3.917,0.125
		s0.5-0.209,0.625-0.292s0.166-0.916,0.083-1.041s-3-2.376-3.25-2.459s-10.166-2.958-10.333-2.958s-2.125-0.75-2.125-0.75"/>
	<path fill="#7C7C7C" d="M63.482,124.386c0,0-0.022,0.119-0.063,0.339c-0.352,1.904-2.082,11.37-2.604,16.078
		c-0.583,5.25-1.334,9.749-1,13.999s-0.083,5.168,0.917,7.834s4,8.666,4,8.666l0.75-0.75l-0.917-2.75l-0.916-5.833v-9.833v-7.334
		l0.083-3.416l1.083-4.917l1-2.583l-2.167-9.917"/>
	<path fill="#7C7C7C" d="M98.316,110.552c0,0,1.416,3.251,2.083,4.334s2.667,4.417,3.667,5.25s4.75,4.75,5.75,5.333
		s4.332,2.749,5.666,3.583s4.501,2.918,5.334,3.334s4.499,0.75,5.416,1s5.167,0.75,5.167,0.75l2.833,0.333
		c0,0,0.334,9.833,0.417,12.333s-0.083,5.084-0.333,6.834s-1.166,5.75-1.5,7.083s-0.416,3.333-1,4.833s-1.417,3.334-1.917,4.834
		s-2.5,5.5-2.5,5.5s3.667-0.751,4-0.834s2.917-1.25,4-2.583s3.917-4.916,4.667-7.833s1.166-8.417,1.083-11.417s0.333-9.833-0.167-13
		s-1-6.75-1-6.75l-0.5-2.083l-4.333-1.833c0,0-6.833-0.667-9.25-1.417s-6.667-3.25-8.167-4.25s-3.749-2.333-6.416-4.833"/>
	<path fill="#574C3F" d="M71.231,68.053c0,0-1.25,3.583-1.5,5.75c-0.25,2.167-1.167,7.167-0.5,12.083s1.667,7.167,3.417,10.5
		s5.166,6.667,8.583,7.167s3.916,0.166,8-1.584s5.334-2.75,8.834-4.5s6.667-3.5,8.667-3.583s6.583,0.167,6.583,0.167l0.416,4.083
		c0,0,0.334,1.25,1.834,4.667s3.916,6.583,6.333,9s4.666,4.5,9,6.083s6.167,2.75,13.25,2.917s13.583,0,13.583,0l-3.166-3.75
		l-1.917-2.334l-1.667-2.333l-1.833-3l-0.833-2.417l-1-2.5l-1.5-4.083l-0.667-2.166l-0.666-2.5l-0.584-2.084l-0.416-0.916
		l3.249,0.833l2.834,0.583l2.416,0.5l4.25,0.167l4.334,0.166h4.166l5.417-2l4.75-2.416l4.167-2.834l2.333-2.749l1.917-4.167
		l0.5-2.917l-0.25-4.417l-1.084-5.75l-1.25-3.75l-2-5l-2.25-3.75l-1.666-3.167l-2.334-2.833c0,0,0.918,4.583,1.334,6.333
		s1.25,4.5,1.25,4.5l0.25,2.75l0.5,3.25c0,0,0.25,2.5,0.25,2.75s0.083,3.25,0.083,3.25l-0.166,3.5l-0.917,2.667l-1.167,1.5
		l-0.833,1.25l-1,1.083l-1.167,1.25l-3.416,1.667l-3.084,0.333l-3.333,0.25l-5.75-0.333l-3.333-0.584l-3.917-1l-5.25-1.5
		l-2.167-1.416l-1.25-0.584l-1.25-4l-2-3.417l-3.083-3.667l-4.334-2.333l-3.666-1h-4.167l-4.166,0.417l-5.584,0.917l-5.75,1.25
		l-9.75,1.917l-7.75,1.5h-5.417h-2.666l-2.417-0.167l-3.333-0.75l-1.667-1.417L71.231,68.053z"/>
	<line fill="#3D352C" x1="44.877" y1="46.949" x2="46.877" y2="46.386"/>
	<path fill="#3D352C" d="M100.335,108.719c0,0,1.688,3.75,4.625,5.938s5.5,4,7.938,4.938s4.625,1.188,6.375,1.313
		s4.813,0.125,4.813,0.125s-2.75-2.438-3.313-3.063s-3.75-4.875-3.75-4.875l-1.063-1.938l-0.813-1.625l-0.688-1.688l-0.688-2.688
		l-0.5-3.063l-0.063-1.188l-0.063-1l0.063-0.875l-1.313,0.188l-2.313,1.375l-2.063,1.25l-1.813,1.375l-1,1.25l-1.438,1.125
		l-2.063,1.813L100.335,108.719z"/>
	<path fill="none" stroke="#020202" stroke-width="0.75" d="M46.815,46.574"/>
	<path fill="none" stroke="#020202" stroke-width="0.75" d="M46.482,46.72c0,0,0.084,6-1.083,8.833s-3.834,9.75-5.084,14.417
		s-2.75,13.584-2.583,18s0.416,8.917,2.833,13.75s6.251,9.999,10.334,13.666s10.083,7.334,11.083,7.834s1.333,0.666,1.333,0.666
		s0.563,1.875,1.188,4.688s2.063,5.563,2.563,11.063s0.563,14.5,0.188,18.938s-1.063,7.188-1.938,12.063s-2.125,11.188-2.125,11.188
		s-4.75,1.375-6,2.938s-1.625,4-1.625,4l3.813,0.125l-0.125,0.688h3.5v0.688c0,0,5.25-0.125,7.813-0.188s5.188-0.5,6.313-1.5
		s1.438-1.188,1.5-2.938s-0.688-4.875-0.875-6.938s-0.688-5.688-1-9.563s-0.813-11-0.75-15.125s0.188-6.188,0.688-11.063
		s0.938-6.625,1.75-11s2.063-9.313,2.5-11.813s1.063-4.813,1.063-4.813"/>
	<path fill="none" stroke="#020202" stroke-width="0.75" d="M79.565,125.219c0,0,4.25-1.582,7.25-4.166s5.916-5.251,9.833-9.001
		s7.668-7.499,10.334-9.666s4.249-3.083,5.166-3.25s1.25-0.167,1.25-0.167s-0.084,3.917,0.5,6.167s2.416,6.75,4.333,9.25
		s5.25,6.582,9.667,9.916s8.5,7,15.75,8.5s9.333,1.834,9.333,1.834s1,12.667,0.667,17.75s-2.083,13.167-4,17.75s-2.25,6.416-4,9.166
		s-3.001,3.168-4.667,4.334s-3.082,2.082-3.416,3.166s-0.25,2.084,0.25,2.417s2.416,0.417,2.416,0.417s-0.416,0.75-0.083,1.083
		s3.334,0.167,3.667,0.25s0.333,0.083,0.333,0.083s2.999,0.5,5.333,0.167s5.416-1.749,7.25-3.333s4.917-10.168,5.917-13.584
		s2.25-8.916,2.917-12.333s0.834-8.084,0.917-12.25s-0.417-13.834-0.667-17.417s-1.25-8-1.25-8s-3.668-0.583-6.584-3.583
		s-6.5-6.666-8.5-11.083s-3.499-8.333-4.499-11.5s-1.667-6.5-2.584-10.25s-4.001-12.334-5.667-14.917
		c-1.666-2.583-4-5.25-8.083-6.333s-7.999-0.917-12.916-0.167s-11.25,2.167-17.417,3.417s-9.916,2.25-14.833,2
		s-8.333-0.167-11.5-3.167s-3.5-4.75-4.75-8.5s-1.833-6.833-2.25-9.583s-0.584-4.833-0.584-4.833"/>
	<path fill="none" stroke="#020202" stroke-width="0.75" d="M48.065,112.449c0,0,1.563,8.75,3.125,12.688s2.688,9.563,3.438,12.563
		s0.688,6.75,0.75,10.875s0.125,7.375-0.375,12.125s-0.813,4.875-1.75,9.438s-2.375,8.625-2.375,8.625s-3.625,1.375-4.813,2.375
		s-1.688,2.125-1.813,2.75s-0.125,0.625-0.125,0.625s0.375,1,1.063,1.063s2.625,0.125,2.625,0.125l-0.438,0.5l3.563,0.063
		l-0.438,0.625h5.625"/>
	<path fill="none" stroke="#020202" stroke-width="0.75" d="M65.315,170.636c0,0-1.625-5.188-1.688-9.688s0.063-13.625,0.063-16.563
		s0.188-2.813,0.813-6.25s1.375-4.438,1.375-4.438"/>
	<path fill="none" stroke="#020202" stroke-width="0.75" d="M98.231,110.719c0,0,3.001,6.999,7.334,11.083
		s13.25,10.084,17.25,11.167s11.25,1.583,11.25,1.583s0.584,14.5,0.25,17.75s-1.834,11.083-3.167,14.75s-3.332,7.917-4.166,9.917
		s-1.084,2.584-1.084,2.584s-3.416,1.166-4.416,2.166s-2.918,3.416-3.084,4s0.167,1.25,0.167,1.25l2.583,0.084l-0.083,0.666
		c0,0,2.75,0.667,3.25,0.667s0.833,0,0.833,0l-0.166,0.667c0,0,4.834,0.417,6,0s3.332-1.084,4.916-2.167s2.584-1.916,3.167-3.083
		s1.333-2.834,2.833-8.834s3.834-14.499,4.167-16.666s0.249-12.75,0.333-16.167s-1.583-8.917-1.583-8.917"/>
	<path fill="none" stroke="#020202" stroke-width="0.75" d="M139.815,80.386c0,0,7,3.625,14.25,4.5s13.75,1.5,17.75-2
		s5.625-7.625,4.625-15.875s-3.625-18-3.625-18s7,9.125,9.125,17.25s3.25,16-2.125,20.625s-10.875,7.75-16.5,8.125
		s-16.125-1.25-17.125-1.5s-2.625-0.75-2.625-0.75"/>
	<path fill="#020202" d="M113.721,98.949c0,0-0.188-7.719,0.344-9.938s0.688-2.625,0.688-2.625s-1.469,3.188-1.625,5.5
		s-0.156,7.5-0.156,7.5"/>
	<polyline fill="#020202" points="63.565,123.72 55.773,100.178 62.94,124.095 	"/>
	<path fill="#020202" d="M82.065,115.428c0,0-2.583-2.209-4.25-4s-3.543-4.542-3.834-6s-0.291-3.375-0.291-3.375
		s-1.084,3.125,0.208,5.25s6.291,7.834,6.833,8.459s0.542,0.625,0.542,0.625"/>
	<path fill="#050505" d="M47.191,186.054c0.084-0.167,0.876-2.584,2.334-3.709s1.625-1.208,1.625-1.208s-3.042,4.708-3.167,4.958"/>
	<path fill="#050505" d="M50.65,185.97c0,0,1.75-3.041,2.75-3.958s1-0.917,1-0.917l-3.375,5.792"/>
	<path fill="#050505" d="M59.108,188.762c0,0,0.458-1.584,1.458-2.834s1.375-1.416,1.375-1.416s-2.334,4.625-2.417,5"/>
	<path fill="#050505" d="M62.608,189.512c0,0,0.959-3.126,1.875-4.084s1.166-1.166,1.166-1.166l-2.333,6"/>
	<path fill="#020202" d="M120.857,186.929c0,0,0.25-1.938,0.958-2.979s1.917-1.792,1.917-1.792s-2.126,4.626-2.209,5.084
		s-0.166,0.521-0.166,0.521"/>
	<path fill="#020202" d="M124.752,188.304c-0.021-0.063,0.604-3.666,1.625-4.625s1.521-1.042,1.521-1.042s-1.146,1.396-1.708,2.667
		s-0.625,3.438-0.625,3.438"/>
	<path fill="#020202" d="M140.065,189.492c0,0-0.042-1.958,1.333-3.313s1.375-1.354,1.375-1.354s-2.583,5.374-2.396,5.771"/>
	<path fill="#020202" d="M143.877,190.867c0,0-0.209-3.146,0.604-4.313s2.5-2.375,2.5-2.375s-1.167,1.688-1.688,2.625
		s-0.791,2.604-0.833,3.313s0,0.854,0,0.854"/>
	
		<ellipse transform="matrix(-0.814 0.5808 -0.5808 -0.814 91.3151 53.0604)" fill="#FFFFFF" cx="37.163" cy="41.149" rx="10.5" ry="9.812"/>
	
		<ellipse transform="matrix(0.814 -0.5808 0.5808 0.814 -23.2062 22.2418)" fill="#FFFFFF" cx="23.13" cy="47.36" rx="10.156" ry="8.282"/>
	<path fill="#FFFFFF" d="M21.485,41.126c-0.059-0.189,3.36-8.848,3.564-8.993c0.204-0.146,5.103-4.255,6.433-4.974
		c1.33-0.718,3.444-1.844,4.033-1.342c0.588,0.502,1.13,6.641,1.376,7.309c0.247,0.669-1.113,4.788-1.113,4.788l0.021,14.342
		c0,0,0.445,8.588,0.874,8.974c0.428,0.385,2.506,2.435,2.948,3.271c0.441,0.835,1.341,4.57,1.341,4.57l-0.371,1.954l-0.407,0.828
		l-3.468,3.856l-6.673,4.53l-2.813,1.546L24.95,82.57l-2.035,0.916l-1.126,0.034l-0.829,0.131l-2.339,0.594l-3.051,0.028
		l-1.693-0.866l-2.425-2.108l-0.66-1.141l-0.188-1.555l0.444-1.315l1.272-1.444l1.112-1.024l0.779-2.245l3.055-7.555
		c0,0,3.615-6.878,3.731-7.038s0.888-1.554,0.888-1.554l1.675-7.875l-1.667-7.716"/>
	<path fill="#B2B2B2" d="M64.872,45.872l-0.894-0.821c0,0-1.541,0.101-1.839,0.544c-0.297,0.443-1.185,0.922-1.606,1.299
		c-0.421,0.378-5.204,4.328-5.204,4.328l-5.835,3.012l0.805,1.882"/>
	<path fill="#574C3F" d="M17.853,41.311c0,0,1.6-0.629,2.287-0.813c0.688-0.184,2.354-0.144,2.354-0.144l0.552-0.087
		c0,0,0.369-0.775,0.863-2.664c0.495-1.889,1.174-3.088,2.783-4.851c1.609-1.763,4.304-3.583,5.282-4.076
		c0.979-0.493,1.599-0.629,1.599-0.629l1.742,3.159l3.236-0.057l2.401-0.077c0,0,1.743,1.008,2.072,1.183
		c0.33,0.175,1.075,1.077,1.355,1.183c0.281,0.107,1.016,0.708,1.278,0.931c0.263,0.223,0.794,0.969,1.064,1.492
		c0.271,0.523,0.483,1.396,0.561,1.647s0.271,1.24,0.35,1.492c0.077,0.252,0.114,1.454,0.114,1.454l-0.786,3.632l-1.145,1.84
		l-1.765,1.975L42.524,49.2l-3.441,1.635l-1.725,0.31c0,0-1.434-0.001-1.781-0.06c-0.35-0.059-1.463-0.184-1.715-0.106
		c-0.252,0.077-1.56-0.321-1.56-0.321s-0.06,2.5-0.042,4.534c0.018,2.034,0.938,3.323,2.177,5.203c1.24,1.88,2.79,3.333,3.611,4.487
		c0.823,1.153,1.782,1.493,1.84,3.294c0.057,1.802-0.119,4.282-0.119,4.282l5.876-9.413c0,0,3.473-7.902,3.995-8.89
		c0.523-0.988,3.358-9.356,3.609-10.15c0.253-0.794,1.102-11.944,0.995-11.664c-0.107,0.282-1.957-0.446-2.364-0.873
		c-0.406-0.426-0.858-5.938-0.858-5.938s1.648-1.278,1.822-1.607s0.805-1.598,0.805-1.598s1.948-0.571,3.188-0.842
		c1.24-0.27,5.417-2.738,5.417-2.738l1.463-1.249l3.654-2.914l1.956-1.704l1.843-1.723l1.852-2.14l2.064-2.702l0.659-1.085
		L70.805,4.76l-4.351-0.071l-3.99,0.289l-4.913,0.433L52.146,6.3l-3.672,0.879l-1.018,0.01l0.604-2.887l0.397-2.024L44.32,4.513
		L39.95,6.71l-6.105,4.356l-3.402,2.837l-2.626,1.771l-2.569,3.574l-1.803,3.641l-0.554,2.955l-0.427,2.557l0.076,1.686
		l-1.668,2.828l-1.872,4.407L17.853,41.311z"/>
	<path fill="#3D352C" d="M50.408,56.268l2.783-1.372c0,0,3.015-1.691,3.271-1.873c0.254-0.182,2.348-1.444,2.348-1.444
		s2.136-1.525,2.289-1.634c0.152-0.109,1.533-1.401,1.701-1.597c0.167-0.196,0.859-1.917,0.859-1.917l0.727-2.208l0.096-2.986
		l-0.137-1.591l-0.341-1.984l-0.5-2.1l-1.233-3.342l-1.764-3.118l-2.047-2.762l-1.925-2.159l-1.365-0.945l-1.205-0.829l-0.356-0.283
		l-2.281,0.246l-1.737,0.471l-1.853,0.094l-0.132,0.247c0,0-1.996-0.11-2.396-0.131c-0.399-0.022-0.646-0.153-0.646-0.153
		s3.149,7.965,3.641,12.528c0.492,4.563,0.68,6.655,0.002,10.44c-0.679,3.785-2.068,10.767-3.271,14.464
		c-1.201,3.698-3.594,10.242-3.594,10.242s3.308-5.047,3.613-5.803c0.306-0.756,2.081-3.864,2.081-3.864l2.071-3.015"/>
	
		<ellipse transform="matrix(-0.8141 0.5808 -0.5808 -0.8141 83.8497 63.4613)" fill="#20A0FF" cx="31.766" cy="45.153" rx="3.781" ry="3.75"/>
	
		<ellipse transform="matrix(-0.8141 0.5808 -0.5808 -0.8141 82.9946 64.0115)" fill="#004774" cx="31.251" cy="45.291" rx="1.531" ry="1.499"/>
	
		<ellipse transform="matrix(-0.8141 0.5807 -0.5807 -0.8141 63.071 82.9391)" fill="#20A0FF" cx="18.26" cy="51.565" rx="3.125" ry="3"/>
	
		<ellipse transform="matrix(-0.814 0.5809 -0.5809 -0.814 62.662 83.2878)" fill="#004774" cx="17.995" cy="51.677" rx="1.094" ry="1.063"/>
	
		<ellipse transform="matrix(-0.8141 0.5807 -0.5807 -0.8141 82.183 59.03)" fill="#FFFFFF" cx="31.644" cy="42.668" rx="1" ry="0.906"/>
	
		<ellipse transform="matrix(-0.8142 0.5805 -0.5805 -0.8142 83.7354 68.596)" fill="#FFFFFF" cx="30.893" cy="47.695" rx="0.719" ry="0.688"/>
	
		<ellipse transform="matrix(-0.8141 0.5807 -0.5807 -0.8141 62.2765 79.5258)" fill="#FFFFFF" cx="18.41" cy="49.73" rx="0.813" ry="0.781"/>
	
		<ellipse transform="matrix(-0.8141 0.5808 -0.5808 -0.8141 63.7836 86.9587)" fill="#FFFFFF" cx="17.972" cy="53.69" rx="0.656" ry="0.625"/>
	<path fill="none" stroke="#020202" stroke-width="0.75" d="M50.465,56.458c-1.185,0.922-2.129,2.287-3.736,5.199
		c-1.608,2.913-1.135,2.499-4.153,6.879c-3.017,4.379-4.049,5.73-6.993,8.06c-2.944,2.332-4.827,3.675-7.355,4.865
		c-2.529,1.189-4.949,1.994-5.813,2.074c-0.865,0.08-1.163-0.014-1.163-0.014"/>
	<path fill="none" stroke="#020202" stroke-width="0.75" d="M17.495,41.668c0,0,2.41-8.245,4.678-10.554
		c2.268-2.309,7.733-6.592,10.481-8.015c2.747-1.423,5.618-2.78,5.618-2.78s0.438-3.691,1.42-5.542
		c0.981-1.853,5.422-6.173,7.683-7.095s6.59-2.169,14.431-2.695c7.84-0.526,14.103,0.073,14.103,0.073s-4.261,5.65-5.438,6.797
		s-5.278,4.764-8.657,7.021c-3.38,2.258-6.17,2.867-7.027,3.171c-0.856,0.305-0.856,0.305-0.856,0.305s2.911,2.145,4.248,3.802
		c1.335,1.657,4.275,5.779,5.19,8.889c0.913,3.11,1.231,6.031,0.997,8.501c-0.234,2.471-0.082,2.899-2.292,5.397
		c-2.209,2.498-2.95,2.643-5.159,4.065c-2.21,1.423-5.263,2.526-6.447,3.448"/>
	<path fill="none" stroke="#020202" stroke-width="0.75" d="M13.146,75.433c2.186-6.767,5.355-12.771,8.738-19.006"/>
	<path fill="none" stroke="#020202" stroke-width="0.75" d="M10.878,78.559c0,0-0.063,0.323-0.053,0.781
		c0.013,0.563,0.137,1.334,0.626,1.958c0.885,1.135,2.606,2.901,4.982,2.895c2.376-0.006,4.388,0.018,5.93-1.698
		c1.541-1.712,2.5-3.165,3.083-5.577c0.583-2.411,0.932-3.966-0.171-5.405c-1.104-1.439-2.607-1.825-4.271-1.252
		c-1.664,0.573-8.308,5.467-9.085,6.099C11.141,76.99,11.119,77.927,10.878,78.559z"/>
	<path fill="#020202" d="M38.624,20.221c0,0-0.098,0.454,0.084,1.572c0.184,1.117,0.184,1.117,0.184,1.117s-1.214-1.917-0.81-3.126"
		/>
	<path fill="#020202" d="M54.483,22.649c0,0-3.662,0.732-5.739,0.564c-2.078-0.168-2.245-0.241-2.245-0.241s8.784-1.354,9.573-1.648
		"/>
	<path fill="#020202" d="M19.604,71.527c0,0-3.274,3.374-4.02,5.287c-0.746,1.914-0.845,2.906,0.038,3.658
		c0.882,0.753,0.523,0.357,2.371,0.957c1.849,0.601,4.497,0.976,4.497,0.976s2.473-3.798,2.752-4.535
		c0.28-0.737,0.697-5.373,0.269-6.027c-0.428-0.654-1.892-2.221-1.903-2.021C23.597,70.022,20.663,69.89,19.604,71.527z"/>
	<path fill="#020202" d="M10.797,77.503c0,0-0.292,0.803-0.335,1.199s0.305,0.186,0.305,0.186l0.218-0.636l0.014-0.95"/>
	
		<ellipse transform="matrix(-0.8141 0.5808 -0.5808 -0.8141 91.1811 53.1107)" fill="none" stroke="#020202" stroke-width="0.75" cx="37.089" cy="41.152" rx="10.751" ry="9.708"/>
	<path fill="none" stroke="#020202" stroke-width="0.75" d="M26.839,45.152c-0.015-0.035-0.012-0.066-0.022-0.1
		c-0.446-1.067-0.479-2.294-0.229-3.461c-2.691-1.75-6.396-1.744-9.316,0.339c-3.747,2.673-4.747,7.695-2.233,11.217
		c2.512,3.521,7.586,4.209,11.333,1.537c1.943-1.387,3.126-3.408,3.483-5.523C28.491,48.179,27.385,46.357,26.839,45.152z"/>
	<path fill="none" stroke="#020202" stroke-width="0.75" d="M22.578,30.569c0,0-0.308-5.309,0.905-7.914
		c1.212-2.605,2.531-4.774,4.683-6.924s9.778-7.386,12.608-9.303c2.829-1.917,7.917-4.113,7.917-4.113l-1.316,5.366"/>
	<path fill="#FFFFFF" d="M14.987,49.48c0,0,2.766-1.359,2.875-1.328s2.281,0.328,2.344,0.375s2.078,1.625,2.109,1.813
		s0.047,2.078-0.094,2.313s-1.125,1.469-1.203,1.594s-1.438,0.844-1.5,0.875s-1.625-0.141-1.625-0.141l-0.75-0.406
		c0,0-1-0.297-1.828-1.891s-0.547-1.656-0.594-1.641s0.109-1.609,0.109-1.609"/>
	<path fill="#FFFFFF" d="M27.971,45.98c0.031,0.063,0.828,1.813,1.906,2.5s3.859,0.594,3.859,0.594s0.813-1.234,0.953-1.328
		s0.297-0.219,0.125,0.031s1.234-3.109,1.219-3.031s-0.609-1.438-0.719-1.516s-2.016-2.625-2.203-2.703s-1.75,0.328-2.391,0.547
		s-1.625,0.813-1.734,0.906s-0.875,0.953-0.969,1.047s-0.281,1.094-0.297,1.188"/>
	<polyline fill="#020202" points="37.815,35.574 39.377,36.574 32.127,49.011 37.44,35.824 	"/>
	<path fill="#020202" d="M17.065,47.449c0,0,10.375,3.188,10.188,3.188s-10.75-1.375-10.75-1.375l0.313-1.688"/>
	<path fill="#FCFAFA" d="M55.002,47.449c-0.563-0.688-2.125-2.938-2.75-2.938s-1.813,0.625-1.813,0.625s-1.375,1.563-1.75,4.25
		s-1.125,4.438-1.313,6.063s-0.688,3.813-0.688,4.438c0,0.341,0.019,0.752,0.035,1.06c0.513-0.83,1.082-1.626,1.579-2.468
		c0.038-0.065,0.081-0.119,0.128-0.164c0.248-0.4,0.518-0.792,0.825-1.138c0.415-0.602,0.84-1.167,1.245-1.602
		c1.688-1.813,4.5-4.063,4.5-4.063s1.813-0.313,1.75-1S55.565,48.136,55.002,47.449z"/>
</g>
</svg>
