<?xml version="1.0" encoding="utf-8"?>
<!-- Generator: Adobe Illustrator 13.0.0, SVG Export Plug-In . SVG Version: 6.00 Build 14948)  -->
<!DOCTYPE svg PUBLIC "-//W3C//DTD SVG 1.1//EN" "http://www.w3.org/Graphics/SVG/1.1/DTD/svg11.dtd">
<svg version="1.1" xmlns="http://www.w3.org/2000/svg" xmlns:xlink="http://www.w3.org/1999/xlink" x="0px" y="0px"
	 width="210.011px" height="137.131px" viewBox="0 0 210.011 137.131" enable-background="new 0 0 210.011 137.131"
	 xml:space="preserve">
<g id="frame_1">
</g>
<g id="frame_2">
	<path fill="#D69E3A" d="M83.538,14.196c-0.732-2.236-4.98-6.602-6.483-7.946c-1.503-1.343-9.006-4.752-9.006-4.752
		s-9.857-1.8-11.711-0.628c-1.853,1.173-3.815,3.105-4.021,3.504c-0.204,0.4-0.977,6.489-0.977,6.489l-0.5,11.603l0.993,16.487
		c0,0-10.713,2.928-12.243,3.709c-1.531,0.779-6.891,4.015-6.891,4.015s-5.401,8.134-5.874,8.988
		c-0.473,0.854-3.646,8.373-3.695,9.078c-0.048,0.706-1.208,4.701-1.208,4.701l-0.363,0.979l-1.744,21.971
		c0,0,1.013,6.743,0.88,6.97c-0.133,0.229-1.657,1.778-1.657,1.778s-7.833,4.838-9.059,6.348s-3.142,3.624-3.142,3.624
		s3.312,1.644,3.665,1.668c0.353,0.024,3.392,1.355,3.392,1.355l-1.757,4.96l0.012,1.535l-3.689,2.11l-1.005,0.876l1.623,0.466
		c0,0,2.437-0.247,3.15-0.316c0.715-0.068,8.559-2.483,10.064-2.912c1.506-0.429,15.363-6.978,16.847-7.939
		c1.483-0.962,3.937-0.557,3.937-0.557s7.363-0.558,10.554-1.461c3.193-0.904,10.035-4.216,11.566-4.996
		c1.53-0.779,17.188-22.386,17.188-22.386s-0.452-14.088-0.678-14.223c-0.228-0.133-7.82-9.986-7.82-9.986s-3.623-6.568-3.844-6.82
		c-0.219-0.251-3.576-2.962-3.576-2.962l17.271-24.449C83.736,25.078,84.271,16.432,83.538,14.196z M62.748,92.64
		c-0.194,0.797-1.421,0.459-1.227-0.338c0.185-0.756-0.183-1.526-0.438-2.225c-0.281-0.772,0.948-1.103,1.227-0.338
		C62.656,90.687,62.996,91.625,62.748,92.64z"/>
	<path fill="#D69E3A" d="M66.304,107.971c0.25,0,5.833,1.167,5.833,1.167l4.583-0.417l0.917,0.417l-2.333,4.833
		c0,0-6.083,0.583-6.5,0.75s-3.834,2.25-3.834,2.25l-2.583,4.25c0,0-0.833,1.416-0.583,1.25s1.416,0.334,1.416,0.334
		s-0.166,0.834,0.084,0.75s5.083,0.25,5.083,0.25l7.417-3.167c0,0,5.082-3.584,5.666-4.167s5-6.333,5.25-6.833
		s2.25-5.167,2.25-5.167s3.584,0.75,3.834,0.75s8.499-0.333,8.499-0.333s7.334-1.666,7.584-1.833s10.249-3.167,10.249-3.167
		s9.417-4.166,9.667-4.25s9.75-8.833,9.75-8.833l5.25-11.334c0,0,4-14.75,3.75-14.75s0.583-9.916,0.333-10.333
		s-1.916-9.667-2.166-9.917s-4.167-4.083-4.417-4.083s-8.834-2.75-9.667-2.917s-8.416-0.917-8.416-0.917l-6.917,0.584l-2.5,0.5
		l2,14.167l-1.5,4.333l-0.917,2.167l-2.166,1.916l-3.834,3.5l-4.25,1.584l-5.75,1.916l-6.666,1.584l-2.834,0.75l2.417,12.333
		l-0.166,4.666l-1.5,6.084l-4.584,8.25l-4.75,4.583l-6.083,4.334l-5.167,0.75l-1.5,1L66.304,107.971z"/>
	<path fill="#D69E3A" d="M113.387,111.554l-7.917,7.834l2.917,0.333l3.416,0.083l1.084,0.417h6.083c0,0,4.583-2.001,4.833-2.167
		s4.25-1.5,4.25-1.5s4.416-2.166,4.75-2.416s3.084-3.334,3.084-3.334l1.583-2.583l0.833-1.833l2.334-2.25c0,0-0.666-2.584-1-2.667
		s-7.5,1.418-8.5,1.584s-8.167,3-8.917,3.333s-6.916,3.166-7.083,3.333s-3.167,2.584-3.167,2.584l-0.25,0.416"/>
	<path fill="#D69E3A" d="M113.344,112.137c-0.5,0-8.125,3.125-8.125,3.125l-1.25,1.375l-0.5,2l0.75,0.625l1.251,0.126l6.249-3.501
		l1.75-2.875"/>
	<path fill="#956E28" d="M29.848,50.38c-0.188,0.163-12.13-6.563-13.485-7.482c-1.354-0.919-8.541-6.374-9.135-7.183
		c-0.593-0.809-1.668-4.072-1.675-4.841c-0.006-0.769,0.5-2.979,0.5-2.979l2.994-4.046l5.93-5.5l1.593-0.836l8.047-2.814
		l4.689-0.328l5.032,0.699l3.202,1.52l3.928,3.872l2.824,3.62l1.312,2.394l1.507,3.884l1.44,3.938l1.605,5.012l1.388-0.436
		l0.42,5.935c0,0-0.798-0.409-2.929-1.204c-2.131-0.796-7.076-1.903-7.265-1.739c-0.188,0.164-3.396,1.303-3.396,1.303l-3.878,2.273
		l-3.149,2.854L29.848,50.38z"/>
	<path fill="#956E28" d="M64.989,51.254c0,0,5.713,5.414,7.237,7.29s6.239,8.932,7.119,11.592c0.88,2.659,1.188,5.931,0.672,9.144
		c-0.516,3.212-0.832,4.372-1.706,6.793c-0.876,2.421-3.605,7.783-5.067,9.278c-1.461,1.495-4.487,5.126-6.379,6.888
		c-1.892,1.76-6.839,5.851-7.271,6.115c-0.433,0.266,1.418-0.021,1.418-0.021l5.29-3.063l6.247-4.119l6.99-6.314
		c0,0,3.581-3.119,3.714-3.346c0.136-0.229,3.556-5.31,3.556-5.31l3.227-9.996l0.15-9.972l-2.407-7.075l-3.086-5.824l-5.955-5.311
		l-4.97-4.181l-1.284-0.206L64.989,51.254z"/>
	<path fill="#956E28" d="M60.47,108.888l-1.666,6c0,0-4.668,0-5.084,0.083s-3.583,2.833-3.583,2.833l-2.167,2.5l-0.666,1.167l1,0.25
		l0.083,0.917h3.917l-0.5,0.666c0,0,5.5-0.583,6.083-0.583s2.583-0.5,2.583-0.5l1.75-1.5l1-1.5l1.584-1.667l1.166-1.083l1.5-1
		l0.834-0.583l2.5-5.167c0,0-7.5-0.749-8-0.833s-2.584-0.5-2.584-0.5"/>
	<path fill="#956E28" d="M68.387,123.805l0.333-1.084c0,0,2.084,0.001,3.584-0.916s6.165-4.584,8.249-7.167s4.083-5.167,5.667-8
		s1.334-2.5,2.667-5.25s1.5-2.751,2.25-5.167s0.917-1.916,1-3.166s0.999,4.499-0.167,8.166s-5.333,12.167-5.333,12.167l-3.917,5.833
		l-1.833,1.917l-2.25,1l-2.334,0.833l-3.416,0.667L68.387,123.805z"/>
	<path fill="#956E28" d="M87.72,111.888l4,0.5l-2.417,2.583v0.917l2.917,0.166l-0.167,0.834l3.417,0.166l2.083-0.416h1.833
		l2.167-0.25l2.083-0.084l1-0.166l3.167-3.5l10.25-2.167h1.167l7.416-1.583l5-1.667l3.334-2.333l3.333-1.667
		c0,0-0.833,2.417-2.5,4.417s-4.25,4.667-4.25,4.667l-1.917,1.916l-2.75,1.917l-2.583,1.667l-1.5,1c0,0,8.334-3.084,10.917-3.834
		s9.75-1.583,9.75-1.583s2-2.084,2.5-2.667s1.25-2.166,1.25-2.166l-0.334-2l-0.583-1.667l-1.167-1.583l-1.166-0.834l-1.25-1.416
		l-0.334-0.25c0,0,6.416-5.083,8-6.75s3.917-4.501,5.167-6.334s3.917-7.666,4.917-10.333s1.833-9.083,2-10.583s-1-9.334-1.75-10.917
		s-3.751-6.501-4.334-7.167s-2.667-2.916-3.25-3.333s-4.167-3.584-4.5-3.917s-3.082-2.333-3.666-2.583s-2-1.417-2.667-1.667
		s-1.917-0.75-1.917-0.75s2.917,6.084,3.167,9.167s0.5,4.75,0.417,7.75s-0.25,6.417-0.917,9.75s-0.417,4.667-1.167,7.75
		s-2.666,8.334-4.166,10.25s-2.416,4.001-5.833,6.917s-7.417,4.249-10.417,6.166s-8.416,4.084-10.75,4.917s-6.167,3.001-8.417,3.417
		s-4.084,0.75-5.917,1s-2.834,0.667-4,0.75s-1.5,0-1.5,0l-3.5,7.499"/>
	<path fill="#956E28" d="M65.344,108.012c0,0,8.5,0.125,10-0.125s1.5-0.25,1.5-0.25l-0.375,3.125c0,0-11.748-1.957-11.999-2.041
		S65.344,108.012,65.344,108.012z"/>
	<path fill="#956E28" d="M122.969,109.762c0,0-17.125,5.625-17.875,6.125s0.5-1.5,0.5-1.5l2.209-1.749l16.041-3.626"/>
	<path fill="#FF5AAD" d="M56.927,25.896l2.998,29.441l6.141-5.132l9.065-9.89c0,0,1.264-0.327,0.587-3.385
		c-0.675-3.06-2.265-9.192-2.553-9.271c-0.289-0.08-2.603-3.369-2.949-3.511c-0.345-0.143-3.964-1.63-4.254-1.71
		c-0.289-0.08-3.174-0.217-3.589-0.187c-0.416,0.03-4.906,2.618-4.906,2.618L56.927,25.896z"/>
	<path fill="#C181B9" d="M161.719,72.97c0,0-0.834,3.251-0.917,3.667s-0.916,3.166-0.916,3.166l-0.667,1.25
		c0,0,6.583-0.999,8.5-1.166s10.749-0.251,12.166-0.084s4.918,0.417,5.834,0.667s4.083,1.167,4.083,1.167l2.833,1.25l2.75,1.666
		l3.584,4l1.75,3.584c0,0,1.083,5,1.083,5.25s-0.167,3-0.167,3l-0.75,2.417l-2,1.416l-3.583,2.584l-5,1.833l-7,1.75l-8.416,0.667
		l-10.584,0.833l-10.083,0.416c0,0-11.083,0.834-11.333,0.917s-9.084,1.75-9.084,1.75l-7.333,2.083l-6.417,2.75
		c0,0-3.417,2.333-3.667,2.5s-5,4.334-5,4.334l-2.25,2.25l-6.833,7.833c0,0,11-6.082,13.5-7.166s9.667-3.75,9.667-3.75l6.416-2.25
		l6-1.75l7.084-1.167l5.75-0.917l5.666-0.083l9.501-0.583l7.999-0.417l8.5-1l5.75-1.25l5.917-1.417l5.083-2.25
		c0,0,2.833-1.334,3.75-1.917s3.667-3.416,3.667-3.416l2.417-3.417l0.833-3.333l-0.416-7.5l-1.167-4.833l-1.583-3.417
		c0,0-4.667-4.583-5.667-5.25s-9.417-5-9.667-5s-6.166-1.417-6.166-1.417l-9.917-0.417l-9.167-0.083l-4.5-0.083"/>
	<path fill="#B23F79" d="M56.901,25.363c0,0,0.079-11.455,0.497-13.257c0.421-1.802,0.762-4.2,1.939-5.005
		c1.177-0.805,4.618-1.042,7.668-0.714c3.048,0.328,4.592,1.084,7.277,2.391c2.688,1.307,4.603,2.62,6.23,4.739
		c1.627,2.12,2.27,3.109,2.704,4.498c0.437,1.389,0.443,2.157,0.535,3.404c0.091,1.246,0.232,1.788,0.232,1.788l-0.539,2.678
		l-1.276,3.102l-0.984,2.296l-2.053,3.225l-1.676,2.899l-3.128,3.388c0,0,0.267,1.317,0.217-2.289
		c-0.048-3.605-0.574-6.239-1.731-8.327c-1.155-2.089-2.525-3.658-4.106-4.713c-1.581-1.054-4.393-2.25-6.26-1.73
		c-1.867,0.523-5.705,3.094-5.705,3.094L56.901,25.363z"/>
	
		<ellipse transform="matrix(-0.8187 0.5742 -0.5742 -0.8187 122.883 105.4879)" fill="#FFFFFF" cx="44.789" cy="72.142" rx="15.703" ry="13.679"/>
	
		<ellipse transform="matrix(-0.8512 0.5248 -0.5248 -0.8512 86.3808 137.2871)" fill="#FFFFFF" cx="23.73" cy="80.888" rx="12.666" ry="10.501"/>
	<path fill="#FFFFFF" d="M8.734,111.006l-2.023,0.216l-3.47,2.36l-2.191,2.686l-0.45,1.386l-0.293,1.693l0.037,1.184l1.5,2.229
		l1.15,1.318l2.721-0.05l1.826,0.067l1.366-0.969l2.292-1.557l2.073-1.807c0,0-2.129-1.683-2.356-1.815
		c-0.227-0.134-0.731-3.122-0.825-3.481c-0.093-0.361-0.7-2.707-0.7-2.707L8.734,111.006z"/>
	
		<ellipse transform="matrix(-0.7539 0.657 -0.657 -0.7539 116.4539 112.0728)" fill="#0090FB" cx="37.234" cy="77.85" rx="5.895" ry="5.23"/>
	
		<ellipse transform="matrix(-0.7539 0.657 -0.657 -0.7539 86.9723 138.6365)" fill="#0090FB" cx="17.521" cy="85.607" rx="4.854" ry="4.292"/>
	
		<ellipse transform="matrix(-0.7539 0.657 -0.657 -0.7539 86.8993 138.7722)" fill="#003D5F" cx="17.458" cy="85.662" rx="2.021" ry="1.917"/>
	
		<ellipse transform="matrix(-0.754 0.6568 -0.6568 -0.754 116.0244 112.1332)" fill="#003D5F" cx="37.017" cy="77.791" rx="2.354" ry="2.25"/>
	
		<ellipse transform="matrix(-0.7535 0.6574 -0.6574 -0.7535 85.4181 132.9975)" fill="#FFFFFF" cx="17.778" cy="82.511" rx="1.125" ry="0.958"/>
	
		<ellipse transform="matrix(-0.7538 0.6571 -0.6571 -0.7538 114.8253 105.158)" fill="#FFFFFF" cx="37.715" cy="74.088" rx="1.228" ry="1.083"/>
	
		<ellipse transform="matrix(-0.7536 0.6574 -0.6574 -0.7536 118.0494 118.3905)" fill="#FFFFFF" cx="36.834" cy="81.322" rx="1.104" ry="0.958"/>
	<circle fill="#FFFFFF" cx="16.757" cy="88.789" r="0.812"/>
	<path d="M50.392,27.913c-0.06,0.217,2.304,24.521,2.304,24.521L51.41,27.938L50.392,27.913z"/>
	
		<ellipse transform="matrix(-0.8236 0.5672 -0.5672 -0.8236 122.9812 106.1994)" fill="none" stroke="#000000" stroke-width="0.75" cx="44.975" cy="72.226" rx="15.775" ry="13.488"/>
	<path fill="none" stroke="#000000" stroke-width="0.75" d="M32.624,81.926c-1.123-1.169-1.895-2.587-2.166-4.318
		c-0.244-0.577-0.331-1.182-0.318-1.797c-0.278-1.571-0.374-3.36,0.164-4.847c-3.823-1.926-9.057-1.297-13.189,1.981
		c-5.373,4.261-6.838,11.362-3.271,15.859c3.568,4.5,10.815,4.691,16.189,0.431c1.979-1.568,3.423-3.524,4.286-5.592
		C33.673,83.19,33.092,82.595,32.624,81.926z"/>
	<path fill="none" stroke="#000000" stroke-width="0.75" d="M19.705,92.298c0,0,0.852,6.304,0.762,6.964
		c-0.089,0.657-0.519,1.115-0.519,1.115s-5.186,3.276-7.218,5.13c-2.033,1.854-5.873,5.533-5.873,5.533"/>
	<path fill="none" stroke="#000000" stroke-width="0.75" d="M0.978,116.662c0,0-0.687,2.255-0.594,3.503
		c0.091,1.247,1.734,3.133,2.151,3.514c0.417,0.383,1.963,0.446,3.115,0.436c1.152-0.01,2.494-0.184,4.03-1.272
		c1.537-1.091,4.362-2.892,5.43-4.236c1.066-1.344,2.27-3.387,2.097-4.728c-0.175-1.342-0.66-2.658-1.722-3.309
		c-1.063-0.648-3.231-1.329-5.867-0.357C6.979,111.181,3.738,111.934,0.978,116.662z"/>
	<path fill="none" stroke="#000000" stroke-width="0.75" d="M7.966,123.919c7.832,0.718,15.377-3.19,22.187-6.539
		c5.737-2.821,11.828-5.194,17.002-9.016"/>
	<path fill="none" stroke="#000000" stroke-width="0.75" d="M55.414,110.177c14.212-4.79,32.664-17.565,34.469-33.744
		c0.93-8.337-0.22-16.064-5.503-22.873c-2.849-3.672-7.518-8.332-11.841-10.129"/>
	<path fill="none" stroke="#000000" stroke-width="0.75" d="M40.249,112.446c3.766,0.034,7.778-0.013,11.414-1.076"/>
	<path fill="none" stroke="#000000" stroke-width="0.75" d="M51.013,29.195c0,0-0.136-9.001-0.078-13.692
		c0.056-4.692,0.813-10.577,2.31-12.378c1.498-1.802,2.752-2.646,7.214-2.472C64.92,0.825,70.621,1.659,73.622,3.77
		c3,2.11,4.567,3.813,6.79,6.269c2.224,2.456,3.166,4.205,3.744,6.769c0.576,2.564-0.117,6.459-0.419,8.27
		c-0.301,1.812-3.01,7.708-6.256,11.975c-3.246,4.266-5.243,6.891-6.398,8.229"/>
	<path d="M71.074,44.762c0,0-3.822,3.857-4.983,5.063c-1.16,1.205-1.058,1.228-1.058,1.228s5.76-4.521,7.029-6.459"/>
	<path fill="none" stroke="#000000" stroke-width="0.75" d="M21.945,69.978c0,0,2.6-10.335,4.007-12.778
		c1.408-2.444,3.676-7.959,8.033-11.203s12.092-5.785,14.375-6.337c2.281-0.552,3.23-0.604,3.23-0.604"/>
	<path fill="none" stroke="#000000" stroke-width="0.75" d="M29.783,50.434c0,0-9.271-5.186-12.396-6.993
		c-3.125-1.81-9.247-6.424-10.512-8.637c-1.265-2.213-1.667-4.959-0.448-7.236c1.22-2.279,6.625-7.874,9.764-9.726
		c3.139-1.851,8.168-3.692,12.063-3.661c3.896,0.032,7.424,0.273,9.811,2.504c2.386,2.232,6.695,7.428,8.403,11.799
		c1.709,4.371,3.46,10.692,3.46,10.692"/>
	<path fill="none" stroke="#000000" stroke-width="0.75" d="M114.302,33.387c0,0,6.749-1.333,12.833-0.5s11.001,2,15.834,4.75
		s12.499,9,15.083,13.25s5,10.749,4,19.083s-4.334,15.749-7.75,19.583s-7.833,8.75-12.833,11.667s-5.168,3.25-10.334,5.667
		s-8.082,3-13.666,4s-11.167,1.666-16.917,1.666s-9.083-0.417-10.833-0.5s-2.333-0.166-2.333-0.166"/>
	<path fill="none" stroke="#000000" stroke-width="0.75" d="M76.552,110.803c0,0-11.166-1.832-12.083-1.916s-1-0.5-1-0.5"/>
	<path fill="none" stroke="#000000" stroke-width="0.75" d="M77.219,107.803c-0.083,0.25-1.583,5.917-1.583,5.917
		s-5.334,0.583-7.167,1.25s-4.001,2.333-4.917,3.75s-2.083,4.083-2.083,4.083l1.75,0.167l-0.417,0.917c0,0,5.166,0.166,7.75-0.167
		s6.25-0.749,7.917-1.333s2.834-1.166,4.167-3s4.334-6.584,6-9.834s3.25-6.749,3.75-9.166s0.5-3.917,0.5-3.917"/>
	<path fill="none" stroke="#000000" stroke-width="0.75" d="M60.636,108.97l-1.917,5.917c0,0-3.083-0.416-4.583,0
		s-3.75,2.666-4.917,3.916s-1.917,2.75-1.917,2.75l1.584,0.25l-0.5,0.834l3.916-0.084l-0.166,0.667c0,0,7.333-0.166,8.583-1.083
		s1.25-0.917,1.25-0.917"/>
	<line fill="none" stroke="#000000" stroke-width="0.75" x1="70.469" y1="109.887" x2="68.052" y2="115.137"/>
	<path fill="none" stroke="#000000" stroke-width="0.75" d="M108.303,112.053c0,0-4.001,3.751-4.667,5.084s-0.666,2.25-0.666,2.25
		l1.416,0.25l-0.25,0.583l7.25-0.25l0.667,0.333l7.667,0.084"/>
	<path fill="none" stroke="#000000" stroke-width="0.75" d="M142.136,100.72c0,0,2.917,2.167,3.917,4.167s0.916,3.667,0.833,4.417
		s-1.332,2.333-1.666,2.833s-1.417,1.167-1.417,1.167"/>
	<line fill="none" stroke="#000000" stroke-width="0.75" x1="113.887" y1="33.595" x2="115.095" y2="33.262"/>
	<path fill="none" stroke="#000000" stroke-width="0.75" d="M126.656,68.512c0,0-4.125,0.875-7.875,2.813s-9,6.688-11.125,10.25
		s-2.813,7.438-3,10.75s2.063,10.375,5.188,13.063s8,5,10.813,4.813"/>
	<path d="M126.448,68.159c0,0,3.73-0.376,7.001,0.271s3.521,0.793,4.375,1.146s0.958,0.375,0.958,0.375s-9.354-1.563-12.25-1.063"/>
	<path fill="none" stroke="#000000" stroke-width="0.75" d="M161.803,72.97c0,0,17.75-1.001,25.75,1.083s15.917,5.834,19.25,11.834
		s3.333,15.584,2,18.417s-5.167,6.583-10.75,9.083s-13.249,4.251-18.666,4.667s-13.334,1.166-21.084,1.416s-13.917,0.667-22.5,3
		s-16.75,5.167-25.083,9.75s-8.333,4.583-8.333,4.583s8.25-11.417,15.583-15.583s16.999-7.417,29.916-8.25
		s31.335-1.749,37.251-2.916s13.416-3.418,15.583-7.584s0.416-10.166-1.334-13.083s-5.584-7.333-14.5-8.833s-23.084-0.5-25,0.25"/>
	<line fill="none" stroke="#000000" stroke-width="0.75" x1="159.47" y1="81.137" x2="161.803" y2="80.387"/>
	<path fill="none" stroke="#000000" stroke-width="0.75" d="M91.97,112.054c0,0-2.167,2-2.417,2.583s-0.416,1.083,0.417,1.25
		s2.25,0,2.25,0l-0.083,0.917c0,0,2.667,0.249,4-0.084s1.75-0.166,1.75-0.166s3.75,0.166,4.833-0.084s1.583-0.083,1.583-0.083"/>
	<path fill="none" stroke="#000000" stroke-width="0.75" d="M92.22,115.887c0,0,1.665-2.918,2.332-3.209s0.958-0.25,0.958-0.25"/>
	<path fill="none" stroke="#000000" stroke-width="0.75" d="M97.635,116.303c0,0,0.75-1.5,1.542-2.125s2.167-1.541,2.167-1.541"/>
	<path d="M48.677,121.887c0,0,0.166-0.751,1.958-2.542s1.959-1.791,1.959-1.791s-3.291,4.374-3.625,4.916"/>
	<path d="M51.927,122.554c0,0,1.75-2.709,2.875-3.834s1.583-1.208,1.583-1.208s-4.123,5.333-4.249,5.708"/>
	<path d="M63.385,122.929c0.042-0.125,2.916-3.876,3.625-4.334s0.709-0.458,0.709-0.458l-4.334,6"/>
	<path d="M67.677,123.679c0.042-0.125-0.001-1.168,1.458-2.959s3.625-3.25,3.625-3.25s-2.624,3.125-3.166,4.042
		s-1.042,2.458-1.042,2.458"/>
	<path d="M104.386,119.637c0,0,2.167-2.667,3.75-4.125s3.833-2.667,3.833-2.667s-7.001,7.042-7.167,7.292s-0.166,0.25-0.166,0.25"/>
	<path d="M111.219,119.804c0,0,1.124-2.041,3.333-3.75s5-3,5-3s-7.625,6.375-7.75,7.333L111.219,119.804z"/>
	<path d="M8.414,110.511c0,0-2.835,2.583-3.71,5.003c-0.875,2.421-0.737,3.848-0.55,4.57c0.187,0.721,1.134,1.553,2.733,1.485
		c1.599-0.065,3.598,0.07,5.568-1.094c1.97-1.165,2.566-1.242,2.566-1.242s1.957-3.335,2.071-4.345
		c0.114-1.012-0.652-3.412-0.652-3.412l-0.956-0.908l-1.627-1.042l-3.387,0.3l-1.687,0.476"/>
	<path fill="#D69E3A" d="M114.197,33.721l-6.25,1.625l-4.313,2.188c0,0-3.75,2.5-3.938,2.563s-3.313,2.188-3.313,2.188l-2.375,1.5
		l-2.438,2.188l-1.563,2.188l-1.875,2.875l-2.156,4.188c0,0,2.094,3.625,2.5,4.656s1.344,3.25,1.563,4.313s0.156,0.781,0.156,0.781
		s9.656-1.656,9.813-1.719s8.75-2.844,8.875-2.875s7.5-6.281,7.5-6.281s1.25-6.125,0.969-6.781s-1.938-7.625-1.938-7.719"/>
	<path fill="#D69E3A" d="M63.052,86.972c-0.25-0.25-3.751,6.583-3.417,6.833s1.25,2.001,2.167,1.834s4.249-2.667,4.583-3.417
		s-1.832-5.666-2.416-5.833s-3.667,1.083-3.667,1.083l-0.25,3.167l4.583,2.333l7.167-3.167"/>
	<path fill="#D69E3A" d="M53.166,109.815c0,0-1.5,1.563-1.594,1.781s1.344,0.25,1.344,0.25l1.125-0.656c0,0,0.719-1.125,0.719-1.219
		"/>
	<path fill="#D69E3A" d="M88.303,59.388c0,0,1.375,3.666,1.75,6.041s0.854,0.625,0.854,0.625s0.001-1.333-0.041-1.396
		s-0.5-2.583-0.542-2.646S88.303,59.388,88.303,59.388z"/>
	<path fill="#D69E3A" d="M90.219,77.117c0,0-0.896,4.604-1.833,6.438s1.332-0.313,1.354-0.375s0.791-1.438,0.813-1.542
		s0.313-1.52,0.271-1.666s-0.146-1.918-0.125-2.021s-0.417-0.958-0.417-0.958"/>
	<path fill="#956E28" d="M89.052,79.096c0,0-0.625,2.457-1.083,3.541s0.75-4.354,0.75-4.354"/>
	<path fill="#FCFCFC" d="M31.552,79.638c0,0,1.167,2.375,2.479,3.188s5.292,1.022,5.458,1.063s4.25-3.271,4.313-3.375
		s0.313-4.084,0.354-4.229s-0.355-2.313-0.521-2.417s-2.854-2.438-3.063-2.5s-2.896-0.5-3.292-0.438s-1.958,0.583-2.146,0.688
		s-1.729,1.208-1.896,1.438s-2.021,2.334-2.021,2.334"/>
	<path fill="#FCFCFC" d="M12.697,85.388c0,0,0.125,0.73,0.229,1.084s0.875,1.916,1.75,2.708s1.167,0.958,1.167,0.958
		s1.791,0.271,1.896,0.334s1.333-0.271,1.438-0.354s2.25-1.813,2.25-1.813s0.604-0.708,0.646-0.813s0.396-2.896,0.417-2.958
		s-0.375-2.001-0.458-2.146s-1.042-1.479-1.188-1.541s-3.125-0.646-3.271-0.646s-3.188,1.271-3.396,1.438s-1.25,2.021-1.25,2.021"/>
	<path fill="#FCFCFC" d="M14.619,89.034l1.125,1.094C15.744,90.127,15.119,89.627,14.619,89.034z"/>
	<polyline fill="#FCFCFC" points="14.979,88.924 16.104,89.94 15.843,90.138 	"/>
	<path fill="none" stroke="#020202" stroke-width="0.75" d="M85.635,55.034c0,0,3.313-6.875,7.625-10.438s11.75-8.188,14.688-9.25
		s8.438-2.313,9-2.375"/>
	<path fill="#D69E3A" d="M90.177,77.347c0,0-0.323,2.499-0.792,3.749s-0.906,2.563-1.813,4.094s-2.406,3.906-3.094,4.719
		s-1.094,1.5-2.156,2.656s-1.438,1.656-2.875,2.969s-3.5,3.031-3.5,3.031s-2.844,2.344-3.5,2.875s-1.188,0.813-2.344,1.656
		s-1,0.813-2.313,1.688s-2.969,1.781-3.781,2.25s-2.75,1.313-2.969,1.406s2.219,0.563,2.563,0.563s2.719-0.938,3.594-1.313
		s9.094-2.313,9.094-2.313l10-8.25l4.688-11c0,0,1.563-6.438,1.563-6.531s-1.375-2.594-1.375-2.594L90.177,77.347z"/>
	<polyline fill="#D69E3A" points="77.354,108.752 76.635,111.659 78.041,109.127 77.51,108.784 	"/>
	<path fill="none" stroke="#050505" stroke-width="0.75" d="M71.447,109.909c-3.594-0.469-10.719-1.75-10.719-1.75"/>
	<path fill="none" stroke="#000000" stroke-width="0.75" d="M61.072,108.096"/>
	<line fill="none" stroke="#050505" stroke-width="0.75" x1="60.947" y1="108.002" x2="59.947" y2="111.096"/>
	<ellipse fill="#020202" cx="26.619" cy="80.987" rx="2.609" ry="2.547"/>
	<ellipse fill="#020202" cx="35.65" cy="76.831" rx="2.328" ry="2.266"/>
	<path fill="#020202" d="M39.822,112.346l11.313,0.063c0,0,1-1.625,1.344-2.344s0.75-2.031,0.469-2.313s-3.781-0.406-4.375-0.25
		s-3.875,1.406-4.813,1.906s-3.813,2.781-3.813,2.781"/>
	<path fill="none" stroke="#020202" d="M60.291,107.127c-0.094,0-1.5,0.688-3.344,1.906s-2.344,1.906-3.188,2.5
		s-1.281,0.594-2.625,0.531"/>
	<path fill="#020202" d="M55.604,109.815"/>
	<path fill="#020202" d="M55.119,109.893c0-0.047,0.984-1.734,1.547-2.484s0.781-0.906,0.781-0.906s-1,1.984-1.219,2.516
		S55.119,109.893,55.119,109.893z"/>
	<path fill="none" stroke="#000000" stroke-width="0.75" d="M86.676,86.055c0,0-4.332,6.251-6.791,8.667s-3.709,3.541-7.084,6.083
		s-7.209,4.958-7.5,5.125"/>
	<path fill="#D69E3A" d="M76.892,5.812c-1.516-1.327-9.056-4.657-9.056-4.657S57.96-0.541,56.12,0.651
		c-1.839,1.192-3.782,3.144-3.982,3.546c-0.201,0.401-0.909,6.499-0.909,6.499l-0.378,11.606l1.166,16.477
		c0,0-10.681,3.039-12.203,3.837c-1.522,0.796-6.848,4.088-6.848,4.088s-5.316,8.19-5.78,9.049
		c-0.463,0.858-3.558,8.411-3.599,9.116c-0.041,0.706-1.159,4.714-1.159,4.714l-0.353,0.982l-1.513,21.989
		c0,0,1.084,6.731,0.954,6.96c-0.131,0.229-1.639,1.795-1.639,1.795s-7.782,4.919-8.992,6.442c-1.209,1.522-3.104,3.656-3.104,3.656
		s3.329,1.61,3.682,1.631c0.354,0.02,3.406,1.319,3.406,1.319l-1.705,4.977l0.028,1.537l-3.666,2.147l-0.996,0.887l1.627,0.449
		c0,0,2.435-0.272,3.148-0.35c0.713-0.075,8.532-2.572,10.033-3.018c1.501-0.444,15.289-7.14,16.762-8.116
		c1.474-0.978,3.93-0.598,3.93-0.598s4.252-0.369,7.689-0.956c-0.068-0.526,0.089-1.035,0.38-1.464
		c0.085-0.485,0.327-0.963,0.663-1.308c0.295-0.305,0.676-0.419,1.06-0.396c0.093-0.129,0.184-0.258,0.285-0.38
		c0.396-0.482,0.98-1.003,1.659-0.93c0.171,0.018,0.315,0.062,0.452,0.113c0.416-0.027,0.829,0.111,1.151,0.473
		c0.046,0.052,0.083,0.11,0.12,0.169c1.06-0.056,2.552-0.937,3.244-1.259c1.896-0.883,3.794-1.758,5.744-2.511
		c0.243-0.193,0.562-0.312,0.961-0.291c0.039,0.003,0.079,0.005,0.118,0.006c0.116,0.006,0.227,0.031,0.332,0.065
		c4.462-5.518,15.143-20.587,15.143-20.587s-0.599-14.083-0.827-14.215S74.281,58.9,74.281,58.9s-3.692-6.529-3.914-6.778
		c-0.223-0.25-3.608-2.925-3.608-2.925l17.013-24.63c0,0,0.444-8.65-0.313-10.878C82.703,11.46,78.409,7.139,76.892,5.812z"/>
	<path fill="#956E28" d="M30.152,50.434C29.965,50.601,17.953,44,16.589,43.095c-1.364-0.905-8.607-6.283-9.209-7.086
		c-0.603-0.803-1.712-4.054-1.727-4.822c-0.014-0.768,0.469-2.983,0.469-2.983l2.952-4.078l5.872-5.562l1.584-0.853l8.018-2.898
		l4.685-0.378l5.039,0.646l3.219,1.486l3.968,3.831l2.862,3.591l1.337,2.378l1.547,3.868l1.484,3.922l1.656,4.996l1.384-0.451
		l0.482,5.931c0,0-0.804-0.401-2.941-1.175c-2.141-0.773-7.096-1.827-7.283-1.661c-0.187,0.166-3.383,1.337-3.383,1.337
		l-3.853,2.314l-3.119,2.889L30.152,50.434z"/>
	<path fill="#956E28" d="M79.015,47.546l-5.014-4.129l-1.286-0.192l-7.414,7.715c0,0,5.769,5.354,7.313,7.214
		c1.544,1.859,6.332,8.864,7.241,11.516c0.908,2.651,1.25,5.918,0.768,9.136s-0.786,4.381-1.635,6.812
		c-0.85,2.43-3.523,7.82-4.969,9.331s-4.434,5.174-6.307,6.953c-0.178,0.169-0.388,0.361-0.611,0.567
		c0.02-0.008,0.036-0.02,0.056-0.027c0.041-0.015,0.079-0.021,0.119-0.032c0.977-0.878,2.015-1.707,3.061-2.462
		c0.024-0.026,0.054-0.057,0.079-0.083c1.025-1.111,2.337-2.089,3.056-3.436c0.347-0.646,0.925-0.799,1.455-0.652
		c0.076-0.08,0.147-0.166,0.226-0.244c1.087-1.105,2.585,0.154,2.39,1.391l2.768-2.554c0,0,3.548-3.159,3.679-3.386
		c0.132-0.229,3.498-5.347,3.498-5.347l3.121-10.029l0.047-9.973l-2.481-7.05l-3.147-5.79L79.015,47.546z"/>
	<path fill="#956E28" d="M56.591,90.158c0,0,2.401-0.687,3.349-0.749c0.948-0.063,1.901-0.244,2.519,0.323
		c0.617,0.566,0.935,1.176,0.902,1.765c-0.034,0.588,0.263,1.55-0.311,2.284c-0.573,0.733-0.911,1.481-0.911,1.481
		s2.046-1.711,2.529-2.923c0.484-1.211,0.835-3.197,0.226-3.883c-0.609-0.685-1.503-1.563-3.143-0.772
		C60.112,88.474,56.591,90.158,56.591,90.158z"/>
	<path fill="#FF5AAD" d="M56.971,25.667l3.31,29.408l6.086-5.195l8.96-9.985c0,0,1.261-0.341,0.553-3.392
		c-0.708-3.052-2.361-9.167-2.651-9.243c-0.29-0.077-2.638-3.341-2.984-3.479c-0.348-0.138-3.982-1.588-4.272-1.664
		c-0.291-0.077-3.177-0.185-3.592-0.15s-4.877,2.668-4.877,2.668L56.971,25.667z"/>
	<path fill="#B23F79" d="M56.942,25.134c0,0-0.043-11.454,0.356-13.261c0.4-1.806,0.718-4.208,1.887-5.025
		c1.168-0.817,4.607-1.09,7.66-0.795c3.051,0.296,4.602,1.036,7.303,2.314c2.7,1.278,4.63,2.571,6.279,4.673
		c1.649,2.102,2.301,3.084,2.751,4.468s0.465,2.152,0.57,3.398C83.854,22.153,84,22.692,84,22.692l-0.511,2.685l-1.243,3.115
		l-0.961,2.306l-2.018,3.246l-1.646,2.916l-3.091,3.421c0,0,0.278,1.313,0.192-2.291c-0.087-3.606-0.642-6.234-1.819-8.311
		c-1.179-2.075-2.563-3.63-4.155-4.667c-1.594-1.037-4.417-2.206-6.278-1.664c-1.861,0.542-5.674,3.153-5.674,3.153L56.942,25.134z"
		/>
	
		<ellipse transform="matrix(-0.8126 0.5828 -0.5828 -0.8126 124.1362 104.1654)" fill="#FFFFFF" cx="45.322" cy="72.039" rx="15.703" ry="13.679"/>
	
		<ellipse transform="matrix(-0.8457 0.5337 -0.5337 -0.8457 88.1868 136.5119)" fill="#FFFFFF" cx="24.356" cy="81.006" rx="12.666" ry="10.501"/>
	<path fill="#FFFFFF" d="M9.677,111.281l-2.021,0.236l-3.444,2.396l-2.164,2.709l-0.435,1.391l-0.275,1.695l0.049,1.185l1.523,2.213
		l1.164,1.307l2.72-0.078l1.827,0.047l1.356-0.983l2.275-1.579l2.055-1.829c0,0-2.146-1.659-2.375-1.79
		c-0.228-0.131-0.764-3.114-0.861-3.474s-0.729-2.698-0.729-2.698L9.677,111.281z"/>
	
		<ellipse transform="matrix(-0.747 0.6649 -0.6649 -0.747 117.8276 110.807)" fill="#0090FB" cx="37.828" cy="77.826" rx="5.896" ry="5.229"/>
	
		<ellipse transform="matrix(-0.7469 0.6649 -0.6649 -0.7469 88.8324 137.7688)" fill="#0090FB" cx="18.197" cy="85.791" rx="4.854" ry="4.292"/>
	
		<ellipse transform="matrix(-0.747 0.6648 -0.6648 -0.747 88.7532 137.9159)" fill="#003D5F" cx="18.134" cy="85.846" rx="2.02" ry="1.917"/>
	
		<ellipse transform="matrix(-0.7469 0.6649 -0.6649 -0.7469 117.4103 110.8502)" fill="#003D5F" cx="37.61" cy="77.769" rx="2.354" ry="2.25"/>
	
		<ellipse transform="matrix(-0.747 0.6648 -0.6648 -0.747 87.1541 132.2152)" fill="#FFFFFF" cx="18.421" cy="82.69" rx="1.125" ry="0.958"/>
	
		<ellipse transform="matrix(-0.7469 0.6649 -0.6649 -0.7469 116.0928 103.9347)" fill="#FFFFFF" cx="38.268" cy="74.06" rx="1.229" ry="1.082"/>
	
		<ellipse transform="matrix(-0.7467 0.6651 -0.6651 -0.7467 119.5154 117.0945)" fill="#FFFFFF" cx="37.464" cy="81.302" rx="1.104" ry="0.958"/>
	<circle fill="#FFFFFF" cx="17.466" cy="88.98" r="0.812"/>
	<path d="M50.459,27.752c-0.058,0.219,2.562,24.496,2.562,24.496l-1.545-24.48L50.459,27.752z"/>
	<path d="M55.188,98.016c0,0-0.022-2.657,0.739-3.587s2.921-2.265,2.921-2.265s-1.551,1.548-1.898,2.191s-0.788,0.618-0.845,1.589
		s-0.041,1.459-0.041,1.459L55.188,98.016z"/>
	
		<ellipse transform="matrix(-0.8176 0.5758 -0.5758 -0.8176 124.2418 104.8803)" fill="none" stroke="#000000" stroke-width="0.75" cx="45.508" cy="72.12" rx="15.775" ry="13.488"/>
	<path fill="none" stroke="#000000" stroke-width="0.75" d="M33.261,81.95c-1.135-1.156-1.922-2.566-2.211-4.294
		c-0.25-0.575-0.343-1.178-0.337-1.794c-0.295-1.567-0.41-3.355,0.113-4.849c-3.843-1.884-9.07-1.201-13.167,2.12
		c-5.329,4.317-6.719,11.434-3.105,15.895c3.615,4.461,10.864,4.577,16.193,0.259c1.961-1.59,3.385-3.559,4.226-5.636
		C34.323,83.203,33.735,82.614,33.261,81.95z"/>
	<path fill="none" stroke="#000000" stroke-width="0.75" d="M20.451,92.458c0,0,0.918,6.295,0.835,6.955
		c-0.083,0.659-0.508,1.121-0.508,1.121s-5.151,3.331-7.164,5.206c-2.012,1.875-5.814,5.595-5.814,5.595"/>
	<path fill="none" stroke="#000000" stroke-width="0.75" d="M1.981,117.017c0,0-0.663,2.263-0.558,3.509
		c0.105,1.245,1.767,3.113,2.188,3.491c0.42,0.379,1.967,0.425,3.12,0.402c1.152-0.021,2.492-0.209,4.017-1.315
		c1.525-1.107,4.332-2.936,5.384-4.292c1.053-1.354,2.234-3.411,2.046-4.751c-0.188-1.339-0.687-2.65-1.757-3.289
		c-1.069-0.637-3.245-1.294-5.871-0.297C7.925,111.474,4.692,112.261,1.981,117.017z"/>
	<path fill="none" stroke="#000000" stroke-width="0.75" d="M9.045,124.2c0,0,2.554,0.237,4.214-0.153s9.792-2.441,15.406-5.348
		c5.614-2.905,14.397-7.043,18.382-10.088c3.983-3.045,6.096-5.092,6.851-6.685c0.758-1.595,1.519-4.029,1.71-5.037"/>
	<path fill="none" stroke="#000000" stroke-width="0.75" d="M75.857,98.691c8.654-7.203,15.979-17.395,15.25-29.157
		c-0.699-11.285-8.258-21.627-18.34-26.496"/>
	<path fill="none" stroke="#000000" stroke-width="0.75" d="M51.093,29.03c0,0-0.229-9-0.224-13.692
		c0.008-4.692,0.704-10.583,2.182-12.401c1.478-1.817,2.723-2.675,7.187-2.549c4.463,0.126,10.174,0.9,13.196,2.979
		c3.021,2.079,4.606,3.765,6.855,6.198c2.25,2.432,3.211,4.17,3.814,6.729c0.605,2.558-0.049,6.459-0.332,8.273
		c-0.281,1.813-2.928,7.74-6.129,12.039c-3.201,4.301-5.17,6.945-6.311,8.296"/>
	<path d="M71.318,44.384c0,0-3.781,3.897-4.931,5.115c-1.147,1.217-1.046,1.237-1.046,1.237s5.712-4.583,6.961-6.531"/>
	<path fill="none" stroke="#000000" stroke-width="0.75" d="M22.456,70.115c0,0,2.492-10.362,3.873-12.82
		c1.381-2.457,3.591-7.995,7.915-11.286c4.323-3.29,12.031-5.912,14.307-6.488c2.276-0.575,3.224-0.638,3.224-0.638"/>
	<path fill="none" stroke="#000000" stroke-width="0.75" d="M30.088,50.49c0,0-9.326-5.086-12.469-6.862s-9.313-6.326-10.602-8.525
		c-1.289-2.199-1.719-4.941-0.524-7.231c1.195-2.291,6.542-7.943,9.661-9.828c3.12-1.884,8.129-3.779,12.025-3.788
		s7.426,0.195,9.836,2.401c2.41,2.207,6.773,7.357,8.527,11.71s3.571,10.655,3.571,10.655"/>
	<path d="M9.352,110.79c0,0-2.808,2.611-3.658,5.041c-0.849,2.43-0.696,3.854-0.501,4.574c0.194,0.72,1.149,1.543,2.749,1.458
		c1.599-0.083,3.598,0.032,5.556-1.152c1.958-1.185,2.553-1.27,2.553-1.27s1.921-3.354,2.024-4.367s-0.688-3.404-0.688-3.404
		l-0.966-0.897l-1.638-1.025l-3.384,0.335l-1.681,0.493"/>
	<path fill="#FFFFFF" d="M31.541,77.564c0,0,1.24,5.34,4.515,6.105c3.276,0.766,7-1.63,7-1.63s1.378-3.905,1.444-4.299
		c0.068-0.395-1.088-4.889-1.26-4.987c-0.171-0.099-5.617-1.609-5.84-1.579c-0.223,0.032-2.46,0.434-2.87,0.631
		c-0.409,0.198-1.737,1.714-1.877,1.839c-0.14,0.124-1.051,3.613-1.051,3.613"/>
	<path fill="#FFFFFF" d="M13.358,85.745c0,0,0.163,0.998,0.691,1.812c0.529,0.813,2.613,2.778,2.613,2.778s1.582,0.461,1.759,0.471
		c0.176,0.011,4.331-1.902,4.561-2.052c0.229-0.149,1.457-2.218,1.56-2.979c0.104-0.762-1.115-2.663-1.356-2.839
		c-0.24-0.176-4.069-2.848-4.069-2.848s-1.182,0.02-1.242,0.046c-0.06,0.025-2.085,1.605-2.132,1.647
		c-0.046,0.041-1.889,2.547-1.889,2.547l-0.533,1.311"/>
	<path fill="#FFFFFF" d="M14.031,87.377c0.274,0.621,1.644,2.693,2.545,2.923C17.478,90.529,14.031,87.377,14.031,87.377z"/>
	<path fill="#FFFFFF" d="M14.667,86.588c0,0-0.567,0.396-0.556,0.69c0.012,0.296-0.062,0.277-0.062,0.277s1.045,1.831,2.005,2.315
		c0.961,0.483,0.302-1.636,0.302-1.636l-0.989-1.519L14.667,86.588z"/>
	<line fill="none" stroke="#070707" stroke-width="0.75" x1="12.864" y1="79.769" x2="34.356" y2="85.237"/>
	<line fill="none" stroke="#070707" stroke-width="0.75" x1="37.457" y1="85.211" x2="46.369" y2="61.322"/>
	<path fill="#956E28" d="M80.107,70.017c0,0,0.78,6.893,0.132,10.425c-0.647,3.533-2.396,12.788-2.396,12.788l-0.502,3.571
		l2.182-1.998c0,0,3.029-7.438,3.096-7.553c0.065-0.115,1.531-15.199,1.334-15.358C83.755,71.734,80.107,70.017,80.107,70.017z"/>
	<path fill="#956E28" d="M90.24,67.175"/>
	<path fill="#956E28" d="M89.532,66.131l0.183,8.038l0.524,2.155c0,0,0.504-3.072,0.519-3.587c0.016-0.516,0.01-2.212-0.042-3.087
		c-0.053-0.874-0.419-0.658-0.265-0.768c0.153-0.109,0.229-0.12,0.212-0.106"/>
	<path fill="#956E28" d="M90.448,68.662l0.061,0.757l0.21-0.077c0,0-0.008-0.634-0.125-0.892c-0.117-0.259-0.385-0.244-0.385-0.244"
		/>
	<path fill="#D69E3A" d="M77.475,96.543"/>
	<path fill="#D69E3A" d="M76.709,97.517c0,0,1.479-2.99,1.692-5.104c0.211-2.112,0.849-5.86,1.097-7.462
		c0.247-1.601,0.502-5.593,0.423-6.902c-0.079-1.312-4.859,13.152-4.859,13.152s-1.686,4.264-1.646,4.354
		c0.038,0.091-2.31,2.81-2.472,2.91c-0.16,0.103-2.689,0.973-2.76,1.036c-0.07,0.063-1.909,1.991-1.909,1.991l-1.143,1.02
		l-4.609,2.388l-3.246,1.383l-3.58,1.054c0,0-0.219-0.057-0.312,0.026c-0.094,0.083-1.154,1.194-1.154,1.194l-0.475,0.925
		c0,0,0.118,1.4,0.157,1.491c0.038,0.091,0.153,1.16,0.153,1.16l0.232,0.589c0,0,1.037-0.338,1.151-0.397
		c0.113-0.061,1.264-0.789,1.264-0.789s1.138-1.308,1.208-1.369c0.069-0.063,1.268-1.631,1.268-1.631l0.498,0.184
		c0,0,4.356-1.827,4.405-1.913c0.05-0.086,3.599-1.739,3.599-1.739l5.292-3.079c0,0,2.669-1.372,2.765-1.5
		c0.096-0.127,2.256-1.883,2.256-1.883s0.144-0.168,0.546-0.61c0.401-0.441,1.365-2.555,1.222-3.892"/>
	<path fill="#D69E3A" d="M72.319,95.358l-2.438,4.265c0,0,1.277,0.117,1.487-0.069c0.209-0.188,3.147-3.514,3.272-3.75
		c0.124-0.236-0.951-1.914-1.087-1.878"/>
	<path fill="#FCFAFA" d="M42.013,112.2l9.614-0.637c0,0-0.013-2.333,0.192-2.794c0.203-0.46,1.195-1.789,1.422-2.13
		c0.226-0.342,1.793-1.652,2.193-1.954c0.401-0.301,3.004-2.171,3.492-2.438c0.487-0.267,1.769-0.989,2.278-1.108
		c0.508-0.117,3.017-0.872,3.063-0.913c0.047-0.042,1.772-0.798,1.772-0.798s1.427-0.937,1.503-0.976
		c0.077-0.039,1.275-1.136,1.369-1.219c0.093-0.083,1.597-1.56,1.644-1.602c0.046-0.041,0.983-1.462,1.018-1.549
		c0.036-0.087,0.913-2.235,0.913-2.235s-0.263-1.076-0.332-1.154s-0.706-1.045-0.706-1.045l-1.557-1.403c0,0-2.07-0.446-2.279-0.398
		c-0.208,0.048-1.982,0.343-2.117,0.379s-2.747-0.956-2.747-0.956s-1.405-0.48-1.522-0.486c-0.117-0.007-1.199,0.063-1.199,0.063
		s-1.315,1.059-1.376,1.086c-0.061,0.025-3.398,5.173-3.398,5.173s-2.37,4.702-2.419,4.803c-0.05,0.101-1.581,2.831-1.581,2.831
		s-1.33,2.076-1.349,2.148c-0.02,0.074-1.452,2.632-1.452,2.632l-1.788,2.064l-2.645,2.606l-2.076,1.96"/>
	<path fill="none" stroke="#020202" stroke-width="0.75" d="M41.429,112.358c0,0,6.505-5.29,8.702-9.589
		c2.198-4.299,4.705-9.377,6.355-11.849c1.647-2.473,3.162-4.155,6.275-5.922c3.112-1.768,4.11-0.646,6.729,1.541
		c2.617,2.188,3.53,3.216,3.148,5.229c-0.383,2.014-1.71,3.531-3.495,5.287c-1.783,1.755-3.91,3.313-5.519,3.575
		c-1.609,0.26-2.771,0.459-4.711,1.851c-1.94,1.393-4.058,2.774-5.085,3.689c-1.026,0.914-1.338,1.693-1.825,2.462
		c-0.487,0.768-0.184,3.176-0.184,3.176L41.429,112.358z"/>
	<path fill="none" stroke="#020202" stroke-width="0.75" d="M51.82,111.809c0,0-0.238,1.049,0.551,1.184s3.403-2.193,4.077-3.128
		s1.306-2.669,1.306-2.669"/>
	<path fill="none" stroke="#020202" stroke-width="0.75" d="M56.926,109.272c0,0,15.472-7.247,17.723-9.418s3.081-2.742,3.495-3.781
		"/>
	<path fill="none" stroke="#020202" stroke-width="0.75" d="M53.496,104.292l2.375-2.784l-0.479-2.417l2.335-0.573l1.733-0.874
		l0.434-2.896c0,0,2.159-0.583,2.355-0.925c0.197-0.343,1.173-0.375,1.671-1.319c0.498-0.945,0.963-2.866,0.963-2.866
		s-1.839-1.878-2.618-2.189c-0.777-0.311-2.823-0.163-2.823-0.163"/>
	<path fill="none" stroke="#020202" stroke-width="0.75" d="M64.883,89.637c0,0,1.307-1.164,2.023-1.3
		c0.716-0.135,2.128-0.054,2.657-0.022s1.859,1.524,1.859,1.524l1.216,1.93"/>
	<path fill="#020202" d="M60.451,86.916c0,0,1.754,0.278,1.898,0.345c0.144,0.068,0.527,0.313,0.937,0.646
		c0.408,0.333,1.659,1.395,1.659,1.395s0.769-0.516,1.244-0.828c0.476-0.312,1.268-0.235,1.687-0.329
		c0.418-0.095,1.478-0.033,1.478-0.033l0.538,0.135l0.786,0.444c0,0,0.715,0.647,0.754,0.723c0.041,0.076,0.599,0.86,0.599,0.86
		l0.368,0.538l0.103-0.983c0,0-0.711-0.984-0.769-1.018c-0.057-0.032-0.977-0.971-1.049-0.99s-1.113-0.906-1.113-0.906
		s-0.964-0.928-1.035-0.976c-0.071-0.047-1.355-1.053-1.355-1.053l-1.405-0.7l-0.689-0.056l-0.988,0.238l-1.828,0.986L60.451,86.916
		z"/>
</g>
</svg>
