<?xml version="1.0" encoding="utf-8"?>
<!-- Generator: Adobe Illustrator 13.0.0, SVG Export Plug-In . SVG Version: 6.00 Build 14948)  -->
<!DOCTYPE svg PUBLIC "-//W3C//DTD SVG 1.1//EN" "http://www.w3.org/Graphics/SVG/1.1/DTD/svg11.dtd">
<svg version="1.1" xmlns="http://www.w3.org/2000/svg" xmlns:xlink="http://www.w3.org/1999/xlink" x="0px" y="0px"
	 width="254.075px" height="169.345px" viewBox="0 0 254.075 169.345" enable-background="new 0 0 254.075 169.345"
	 xml:space="preserve">
<g id="frame_1">
	<path fill="#834421" d="M39.803,62.421c0,0,0.5,16.5,1.75,18s5.25,4,6.5,4.25s10.75,0.5,10.75,0.5s1,8.125,1.625,9.125
		s4.125,4.5,4.625,4.75s2,0.375,2,0.375s-0.5-2.5-0.5-4.25s0.375-3.625,0.375-3.625s2.75,3.125,4.625,4s4.75,1.125,5.875,1
		s3.125-0.5,3.125-0.5s-4-2.75-4.75-3.625s-0.75-0.875-0.75-0.875s6.25,1.875,7.625,2.25s3-1.25,3-1.25l-1.375-2.75l8.625-2
		c0,0,7.625,0.5,7.875,2.375s3.75,11.375,4.375,12.875s5.625,9,6.25,10.25s1.125,3.125,1.125,5s0.75,12.875,1.375,15.25
		s1.125,4.75,1,5.125s-4,17.25-4,17.25s-6.625,1-7.875,1.875s-2.875,2.875-2.875,2.875s0.75,0.875,1.375,1.375
		s3.125,0.625,3.125,0.625l0.75-0.125l1.125,0.625h4c0,0,4.5,0,5.25-0.375s6.75-1.5,6.75-1.5l7-12.5l6-11.75l5.375-0.875
		c0,0-0.75,6.375-1.375,8.25s-3.625,13-4,13.375s-4,0.5-5.25,0.75s-3.75,1.5-4.25,2.125s-2,2.25-2,2.25s1.5,1.125,3.25,1.625
		s4.375,1.375,7.125,1.375s9.125-1.25,9.125-1.25l8.625-2.75c0,0,10.75-17.375,10.875-17.75s4.25-10.5,4.25-10.5l6.5,1.875
		c0,0,2.5-0.25,3.5,1.125s4.375,8,4.375,8l-3.375,12.25c0,0-7.125,0.125-8.375,0.625s-3.75,1.625-4.25,2.125s-1.125,1.5-1.125,1.5
		s1.625,1.625,3,1.625s5.375,0.25,5.375,0.25l0.25,0.625c0,0,9.5,0.5,10.625-0.375s4.875-5.75,4.875-5.75l8-12.375l4.5-4.875
		l12.25,0.5l2.5,0.375l-5.75,17.125c0,0-4.75-1-6.125-0.75s-5.75,0.875-7,1.625s-4.625,4.25-4.625,4.25s1.875,0.5,3.125,1
		s4.5,1.5,6,1.375s6.375-0.5,7.25-0.375s10-0.375,10-0.375s21.25-25.75,21.375-26.125s-1.5-12.125-1.875-12.375s7-29.75,7-29.75
		l2.375-12.625c0,0,1.25-6.125,1.375-7.75s-0.25-14.75-0.375-16.875s-1.5-15.25-2-16.625s-3.875-12.75-4.625-13.875
		s-3.875-5.875-5.25-7.5s-6.75-4.625-11-5.625s-10.375-3.125-19.5-1.75s-18.75,4.375-21.25,5.125s-13.375,6-13.375,6l-18.625-0.125
		c0,0,0.75-3.75-0.375-5.875s-1.5-5.125-2.875-6.875s-3.875-5.75-4.375-5.875s-3.375-1.625-4.25-1.5s-3.875-0.125-4.875,0.625
		s-5,4.625-5.875,5.75s-3.75,5-3.75,5s-3.125-0.625-5-1.625s-11.375-9.375-11.375-9.375s0.25-2.625-0.125-3.125s-2.375-2.125-4-2
		s-9.375,0.25-11.75,1.375s-10.25,5.5-10.875,6.375s-2,4.5-1.5,6s1.375,5.5,2.25,6.625s1.625,2.125,1.625,2.125s-6.625,5.5-6.75,6
		s-4.5,9.125-4.5,9.125l-9.5,5.75l-22.75,13.875L39.803,62.421z"/>
	<path fill="#5D3119" d="M138.303,37.296c0,0,1.125,8,0.875,10s-1.625,5.875-5.125,7s-19.25,3.875-19.25,3.875
		s9.375,1.875,11.125,3.125s3.25,2.625,1.625,4s-10.625,3.875-16.375,5s-12.5,1.25-12.5,1.25s1.25,6.875-1.375,10
		s-3.875,5.125-6.5,6.125s-12.5,1.5-12.5,1.5s5.5,4,6.875,4.375s4.375,0.25,4.375,0.25s-3.5-2.5-3.75-2.75s9.875-0.25,11.375-0.5
		s10.625-3.25,13.125-5.125s5.25-4.375,6.5-5.625s3.875-2.875,5.5-3.375s22.25-4.375,22.25-4.375l-7.5-6.25l14.5-1.25l-10.25-4.75
		l15.25-2.875c0,0-12.5-11-13.875-12.875s-4.125-7.5-4.125-7.5"/>
	<path fill="#5D3119" d="M105.803,102.921c-0.125-0.375,0.125-7.375,0.625-9.625s1.25-6.25,3.5-3.875s8.75,10.625,12.25,15.25
		s10.125,11.875,12.5,13.875s5.5,3.75,5.5,3.75s0.625,4.125,0.875,5.5s-0.125,5.25,0,6.5s-0.125,2.25-0.125,2.25
		s-9.625-2.375-15.5-7s-11.875-13-13.875-16.125s-5.75-8.75-5.75-8.75V102.921z"/>
	<path fill="#5D3119" d="M127.803,130.296c0,0,1,6.875,1.125,9.5s0.625,5.125,0.125,6.75s-8,15.25-8,15.25l3.375-0.375
		c0,0,4.125-6.375,5.375-8.25s10.375-16.375,10.375-16.375s-9.125-7-11.875-6.125"/>
	<path fill="#5D3119" d="M155.553,113.171c0,0,0.07,0.385,0.188,1.051c0.584,3.301,2.333,13.52,2.437,18.199
		c0.125,5.625,2.25,10.375-1,17.625s-7.75,13.75-7.75,13.75l4.625-1.125l20.625-31.375c0,0,0.625-18.625,0.375-20.875
		s-0.875-3-0.875-3s-1.25,4.375-2.5,7.125s-2.375,3.5-3.875,4.25s-7.75-0.75-11.5-5.75"/>
	<path fill="#5D3119" d="M175.178,109.296c0,0,2.5-14.625,2.625-16.125s1.5,2.375,2,3.5s1.375,5.625,1.375,7.125
		s-0.875,6.25-1.25,7.25s-1.375,4.125-1.75,4.5s-2.75,4.25-2.75,4.25s-0.625-6.125-0.375-9.375"/>
	<path fill="#5D3119" d="M175.303,128.046c0,0,4.625-1.5,7.25-3.375s4.25-4,6.5-7.75s2.25-3.75,2.25-3.75s-0.75,3.625-5.75,10.375
		s-9.125,11.75-9.625,12s-3.125,0.75-3.125,0.75l-2,0.25C170.803,136.546,173.928,129.046,175.303,128.046z"/>
	<path fill="#5D3119" d="M175.928,135.546c0,0,10.375,3.5,13,3.875s14.125,2.375,16.25,2.25s10.625-0.25,10.625-0.25l0.625-1.625
		c0,0-3-5.75-4.25-7.375s-1.25-1.625-1.25-1.625s-3.125,0.75-8.125,1s-14.75-0.375-16-0.625s-1.25-0.25-1.25-0.25L175.928,135.546z"
		/>
	<path fill="#5D3119" d="M198.803,140.671c0,0-6.625,11-9,14.125s-6.625,8.25-6.625,8.25l1.75-0.25c0,0,8.875-9.125,10.25-10.5
		s11-11.125,11-11.125l-0.875-3l-7,1.75"/>
	<path fill="#5D3119" d="M218.053,165.046c0,0,13.5-15.25,16.25-20.5s5-6.75,3.75-8.625s-5.375-5.5-8.5-7.875s-6.25-5.375-6-10.875
		s0.25-12.625,3.375-19.125s8.5-17.5,8.5-17.5s0.375,5.875,1.5,8.125s1.75,3.25,3.5,3.625s3.75,0.25,4.25-1.375
		s1.125-4.5,1.25-7.375s0.125-9.125,0.125-9.125s1.875,8.375,1.75,10.5s-0.25,10.125-0.625,12.875s-2.25,14.5-3,16.125
		s-1.375,4.25-1.25,5.25s10.25,13.375,10.25,13.375l-32.5,32.625L218.053,165.046z"/>
	<path fill="#FFFFFF" d="M60.24,59.483c0,0-13.688-1.938-17.688-1.625s-5,0.25-5,0.25l1.063,2.125l1.813,2.063l10.813,8.563
		l2.125,1.313l3.813-1.188c0,0-0.5-3.625-0.563-3.813s2.438-5.688,2.438-5.688l1.188-2.25"/>
	<ellipse fill="#FFFFFF" cx="76.709" cy="40.327" rx="12.156" ry="10.406"/>
	<ellipse fill="#FFFFFF" cx="98.334" cy="43.796" rx="14.594" ry="13"/>
	<ellipse fill="#0092FF" cx="89.428" cy="44.577" rx="5.188" ry="5.094"/>
	<ellipse fill="#0092FF" cx="69.115" cy="40.765" rx="4.438" ry="4.344"/>
	<circle fill="#00426B" cx="88.959" cy="44.577" r="2.219"/>
	<ellipse fill="#00426B" cx="68.803" cy="40.702" rx="1.875" ry="1.844"/>
	<ellipse fill="#FFFFFF" cx="91.084" cy="41.921" rx="1.344" ry="1.313"/>
	<circle fill="#FFFFFF" cx="87.146" cy="46.89" r="1.031"/>
	<ellipse fill="#FFFFFF" cx="70.49" cy="38.827" rx="1.125" ry="1.156"/>
	<circle fill="#FFFFFF" cx="67.303" cy="43.171" r="0.875"/>
	<ellipse fill="none" stroke="#000000" stroke-width="0.75" cx="98.302" cy="43.838" rx="14.5" ry="13.042"/>
	<path fill="none" stroke="#000000" stroke-width="0.75" d="M84.306,47.457c-0.485-1.258-0.609-2.637-0.429-3.98
		c-0.082-1.204,0.109-2.545,0.631-3.665c0.24-0.896,0.718-1.756,1.174-2.532c0.429-0.729,0.92-1.384,1.511-1.931
		c-2.032-3.272-6.021-5.512-10.64-5.512c-6.673,0-12.083,4.645-12.083,10.375s5.41,10.375,12.083,10.375
		c3.096,0,5.906-1.015,8.043-2.66c-0.005-0.013-0.014-0.025-0.019-0.039C84.47,47.775,84.375,47.637,84.306,47.457z"/>
	<line fill="none" stroke="#000000" stroke-width="0.75" x1="65.115" y1="44.046" x2="41.678" y2="57.921"/>
	<path fill="none" stroke="#000000" stroke-width="0.75" d="M78.115,29.921c0,0,1.563-2.625,4.688-4.813s12.125-7.625,12.125-7.625
		s-5.875-2.25-7.063-3.063s-1.438-1.125-1.438-1.125s5.625-2.5,13.563-1.875s10.75,1.125,10.75,1.125s-2.125-3.375-2.438-5.125
		s-0.313-2.625-0.313-2.625s3.125,1.688,6.438,4.313s7.188,6.25,9.063,6.875s3.125,0.875,3.125,0.875"/>
	<path fill="none" stroke="#000000" stroke-width="0.75" d="M122.053,25.858c0,0,3.75-8.125,7.063-12.5s7-7.313,8.5-7.75
		s5.375-1.375,7.688,1.313s4.438,5.5,5.813,8.688s1.75,4.75,1.875,5.938s0.125,8,0,8.188s-0.813,2.125-5.875,3.625
		s-12,3.188-12,3.188"/>
	<path fill="none" stroke="#000000" stroke-width="0.75" d="M126.865,28.733c0,0,4.313-7.625,9-10.063s4.938-2.5,4.938-2.5"/>
	<path fill="none" stroke="#000000" stroke-width="0.75" d="M137.865,35.796c0,0,2.563,5.938,6.75,10.063s11.938,11.5,11.938,11.5
		s-15.75,2.375-15.688,2.625s10.75,4.563,10.75,4.563l-14.813,1.313l7.313,6.625c0,0-20,2.688-23.063,4.313
		s-6.063,5.375-9.938,7.938s-6.125,4.188-11.5,5.313s-14,0.938-14,0.938s1.938,1.875,3.063,2.375s1.125,0.5,1.125,0.5
		s-5.25,0.813-9.188-0.375s-5.188-2-5.188-2s3.125,3.563,4,4s0.875,0.438,0.875,0.438s-4.438,1.5-7.625,0.125
		s-5.563-4.375-5.563-4.375s-1,3.813-0.563,5.75s0.438,1.938,0.438,1.938s-1.75,0.375-4.25-2.438s-3.25-5.125-3.563-7.125
		s0.063-4.75,0.063-4.75"/>
	<path fill="none" stroke="#000000" stroke-width="0.75" d="M38.053,58.108c0,0,4.063-0.438,10.313-0.125s13.125,1.438,16.125,2.438
		s5.375,2.438,5.375,2.438s-1.25,2.75-5.563,5.125s-11.188,4.25-11.188,4.25S41.678,63.858,39.99,62.108
		S37.365,58.296,38.053,58.108z"/>
	<path fill="none" stroke="#000000" stroke-width="0.75" d="M39.74,62.108c0,0,0.125,11.125,0.75,14.063s1.625,5.875,3.875,7.063
		s5.438,1.688,10.625,1.938s19.125,0.375,21.813-0.813s8.438-6.563,9.75-8.125s2-2.75,2-2.75"/>
	<path fill="none" stroke="#000000" stroke-width="0.75" d="M54.74,72.108c0,0-0.063,6.125,0.688,7.813s3.5,5.438,3.5,5.438"/>
	<path fill="none" stroke="#000000" stroke-width="0.75" d="M85.865,23.233c0,0-3.438-4.563-3.875-8.063s0.125-5.438,2-7.063
		s8.313-5.5,11.938-6.625s7.625-1.25,9.875-1s3.063,0.813,3.75,1.688s0.688,4.063,0.688,4.063"/>
	<path fill="none" stroke="#000000" stroke-width="0.75" d="M248.137,84.838c0,0,0.584-4,0.584-7.417s0.5-7.333,0.25-12.75
		s-0.417-9.333-1.417-15.417s-1.5-9.5-3.5-14.917s-4.5-10.333-8.417-13.917s-13.5-5.75-20.083-6.167s-16.5,1.417-23,2.917
		s-19.5,7.5-21.084,8s-18.333,0.25-18.333,0.25"/>
	<path fill="none" stroke="#000000" stroke-width="0.75" d="M242.971,63.338c-0.167,0.25,5.583,15.751,4.916,24.417
		s-2.5,21.167-3.25,24.417s-3.582,5.667-0.666,9.75s9.083,10.583,9.083,10.583l-32.5,32.917c0,0-17.167,0.582-20.167,0.166
		s-7.667-1.834-7.917-2s3.834-4.333,6.834-5.083s7.416-1.167,9.083-0.667s1.667,0.5,1.667,0.5l6.25-18.333
		c0,0-7.749-13.584-8.833-17.167s-3.084-9.25-3.834-14s-1.25-9.665,1.25-14.749s7.333-11.667,7.333-11.667"/>
	<path fill="none" stroke="#000000" stroke-width="0.75" d="M174.637,109.005c0,0,0.5,11.25,0.417,14.5s0.167,7.25,0.167,7.25
		l-21.5,31.917c0,0-16.917,3.5-19.334,3.25s-4.833-0.75-4.833-0.75l-6-1.75c0,0,3.083-4.833,6.583-5s5.833,0.083,5.833,0.083
		s0.25-0.916,3-1.083s5.25,0.75,5.25,0.75"/>
	<path fill="none" stroke="#000000" stroke-width="0.75" d="M135.387,158.005c0,0,4.584-13.083,5.167-18s0.416-12.417-0.417-17
		s-1.333-8-1.333-8"/>
	<path fill="none" stroke="#000000" stroke-width="0.75" d="M100.554,89.922c0,0,2.667,8.832,4.417,12.416s3.916,6.917,6.583,11.084
		s8.833,12.417,12.25,14.917s9.75,6.167,11.667,6.75s5.583,1.5,5.583,1.5"/>
	<path fill="none" stroke="#000000" stroke-width="0.75" d="M110.638,156.089l4.166-17.084c0,0-0.666-3.833-1.083-7.417
		s-1.583-17.333-1.583-17.333"/>
	<path fill="none" stroke="#000000" stroke-width="0.75" d="M117.387,156.255c0,0-6.5,0.001-8.083,0.167s-5.417,0.833-6.917,1.833
		s-2.166,2.583-2.166,2.583s1.583,1.418,2.833,1.584s2.417,0.25,2.417,0.25s-0.083,0.75,4,0.75s7.834-1.001,10-1.334
		s5.333-1,5.333-1s15.75-24.833,15.75-24.583"/>
	<path fill="none" stroke="#000000" stroke-width="0.75" d="M171.72,136.588c0,0,5.334-1.166,8.084-2.333s7.25-4.416,9.833-7.083
		s6.25-8.333,6.917-11.083s1-3.167,1-3.167"/>
	<path fill="none" stroke="#000000" stroke-width="0.75" d="M175.221,119.588c0,0,3.582-4.25,4.249-6.583s1.834-9.167,1.334-11.75
		s-2.417-8.25-2.417-8.25"/>
	<path fill="none" stroke="#000000" stroke-width="0.75" d="M175.637,135.839c0,0,12.501,3.334,16.834,4s9.166,1.417,12.083,1.5
		s11.5,0.166,11.5,0.166"/>
	<path fill="none" stroke="#000000" stroke-width="0.75" d="M177.22,136.839c0,0,4.5,7.75,4.417,8s-3.833,12.666-3.833,12.666
		s-6.333-0.833-8.583,0.167s-4.667,3.583-4.667,3.583s1.083,0.667,2,1s2.916,0.667,4.333,0.75s2.334-0.167,2.334-0.167
		s-0.917,0.666,0.583,0.75s10.417-0.25,11-0.833s21.583-21.583,21.583-21.583"/>
	<path d="M178.741,92.879c0,0-1.876-4.188-2.604-4.896s1.479,3.792,1.938,5.167"/>
	<path d="M197.209,112.89c0,0,0.75-4.25,0.594-5.156s-0.156-0.906-0.156-0.906s0.719,4.875,0.125,6.406"/>
	<path d="M174.24,109.202c0,0,0.094-1.906-0.156-3.063s-0.281-1.281-0.281-1.281s1.188,3.031,1.219,4.25"/>
	<path d="M138.521,115.265c0,0-1.281-6.188-1.656-7.781s-0.375-1.594-0.375-1.594s2.688,8.063,2.719,9.063"/>
	<path d="M88.524,74.108c0,0,2.109-3.25,2.381-4.344c0.272-1.094,0.272-1.094,0.272-1.094s-2.28,4.031-3.063,4.813"/>
	<path d="M211.761,82.505c0,0,3.667-4.708,4.792-5.625s1.917-1.167,1.917-1.167s-5.125,6.166-6.25,7.375"/>
	<path d="M242.72,63.672c0,0-1.916-5.167-2.75-6.25s-0.834-1.083-0.834-1.083s2.583,1.875,4.25,7.333"/>
	<path d="M205.303,165.672c0,0,1.751-2.833,3.292-3.875s3.958-1.375,3.958-1.375s-3.708,1.916-4.583,2.958s-1.459,2.542-1.459,2.542
		"/>
	<path d="M198.303,164.797c0,0,1.209-3.084,2.542-4.042s4.708-1.541,4.708-1.541s-4.458,2.084-5.125,3s-1.375,3.291-1.375,3.291"/>
	<path d="M173.053,162.797c0,0,0.707-2.5,2.416-3.167s2.667-0.667,2.667-0.667s-3.126,1.166-3.542,2s-1.083,2.25-1.083,2.25"/>
	<path d="M168.011,162.38c0,0,0.416-1.707,1.833-2.666s2.959-0.959,2.959-0.959s-2.584,1.041-3.292,2s-1,2-1,2"/>
	<path d="M136.678,165.63c0-0.125,1.083-2.207,2.458-3.291s4.5-2,4.5-2s-4.291,2.333-4.708,3.083s-0.958,2.083-0.958,2.083"/>
	<path d="M128.803,164.88c0,0,1.083-1.832,2.125-2.916s1.749-1.708,2.833-1.875s1.667-0.084,1.667-0.084s-3.417,1.668-4.042,2.334
		s-1.75,2.666-1.75,2.666"/>
	<path d="M110.386,163.297c0,0,1.167-2.209,2.667-3.334s3.583-1.583,3.583-1.583s-3.584,2.374-4.292,3.333s-1.041,1.709-1.041,1.709
		"/>
	<path d="M105.011,162.38c0,0,0.75-1.959,1.75-2.875s3.833-1.916,3.833-1.916s-3.125,1.791-3.75,2.666s-0.75,2.542-0.75,2.542"/>
	<path d="M117.053,156.546c0,0,1.125,0.542,1.5,0.875s0.375,0.333,0.375,0.333s-0.501-1.957-1.584-1.916"/>
	<path d="M143.886,158.296l2.75,1.375c0,0-1.208-2.124-2.5-2.208"/>
	<path d="M57.803,59.337c0,0-12.583,0.833-12.083,2.25s10.583,9.917,10.583,9.917s9.25-4.332,10.583-5.416s3.458-2.958,2.979-3.229
		s-9.479-4.187-11.979-3.854"/>
</g>
<g id="frame_2">
	<path fill="#834421" d="M165.136,31.38l-2.584-3.445c-3.161,1.233-6.384,2.287-9.689,3.064c-6.65,2.982-13.343,5.87-20.084,8.647
		c-0.77,0.317-1.438,0.288-1.993,0.053c-1.033,0.332-2.087,0.605-3.174,0.78c-1.974,0.318-3.402-0.893-3.714-2.369L91.136,58.712
		c-0.666,0-6,6.168-5.333,6.5c0.667,0.334,9.333,11.832,10,12.666s5.833,12.5,5.833,12.5s4.667-2.498,6.667-2.166
		c2,0.334,12.166,4.168,15.833,6c3.667,1.834,11.666,4.834,15,4s13.333-15,14-16s3.667-13.666,3.667-15.666s-4.5-15-4.5-15
		l15.5-8.833L165.136,31.38z"/>
	<path fill="#834421" d="M141.678,4.296"/>
	<path fill="#834421" d="M249.178,58.796c-0.125-2.125-1.5-15.25-2-16.625s-3.875-12.75-4.625-13.875s-3.875-5.875-5.25-7.5
		s-6.75-4.625-11-5.625s-10.375-3.125-19.5-1.75s-18.75,4.375-21.25,5.125s-13.375,6-13.375,6l-3.017-0.021
		c-0.477,0.178-0.948,0.365-1.418,0.56c-1.93,0.991-3.893,1.864-5.951,2.542c-1.655,0.605-3.35,1.098-5.005,1.699
		c-3.581,1.709-7.171,3.406-10.915,4.649l-14.274,17.758c0.363,0.12,0.719,0.248,1.059,0.384c0.852,0.341,1.818,0.769,2.733,1.296
		c0.128-0.227,0.245-0.465,0.396-0.669c0.964-1.31,2.788-1.802,4.048-0.522c4.349,4.415,5.549,10.835,5.957,16.825
		c0.474,0.473,0.95,0.945,1.418,1.426c1.52,1.563,0.475,3.658-1.077,4.25c0.259,0.412,0.504,0.834,0.73,1.271
		c0.631,1.219,0.169,2.775-0.854,3.506c-0.213,0.635-0.538,1.246-0.959,1.803c-0.82,5.082-4.533,9.326-10.115,8.346
		c-1.752-0.309-2.958-1.111-3.745-2.176c-3.783,2.178-9.003,2.566-11.603-0.283c-4.228-1.201-8.293-3.211-11.854-5.768l-6.428,7.998
		c0.25,1.875,3.75,11.375,4.375,12.875s5.625,9,6.25,10.25s1.125,3.125,1.125,5s0.75,12.875,1.375,15.25s1.125,4.75,1,5.125
		s-4,17.25-4,17.25s-6.625,1-7.875,1.875s-2.875,2.875-2.875,2.875s0.75,0.875,1.375,1.375s3.125,0.625,3.125,0.625l0.75-0.125
		l1.125,0.625h4c0,0,4.5,0,5.25-0.375s6.75-1.5,6.75-1.5l7-12.5l6-11.75l5.375-0.875c0,0-0.75,6.375-1.375,8.25s-3.625,13-4,13.375
		s-4,0.5-5.25,0.75s-3.75,1.5-4.25,2.125s-2,2.25-2,2.25s1.5,1.125,3.25,1.625s4.375,1.375,7.125,1.375s9.125-1.25,9.125-1.25
		l8.625-2.75c0,0,10.75-17.375,10.875-17.75s4.25-10.5,4.25-10.5l6.5,1.875c0,0,2.5-0.25,3.5,1.125s4.375,8,4.375,8l-3.375,12.25
		c0,0-7.125,0.125-8.375,0.625s-3.75,1.625-4.25,2.125s-1.125,1.5-1.125,1.5s1.625,1.625,3,1.625s5.375,0.25,5.375,0.25l0.25,0.625
		c0,0,9.5,0.5,10.625-0.375s4.875-5.75,4.875-5.75l8-12.375l4.5-4.875l12.25,0.5l2.5,0.375l-5.75,17.125c0,0-4.75-1-6.125-0.75
		s-5.75,0.875-7,1.625s-4.625,4.25-4.625,4.25s1.875,0.5,3.125,1s4.5,1.5,6,1.375s6.375-0.5,7.25-0.375s10-0.375,10-0.375
		s21.25-25.75,21.375-26.125s-1.5-12.125-1.875-12.375s7-29.75,7-29.75l2.375-12.625c0,0,1.25-6.125,1.375-7.75
		S249.303,60.921,249.178,58.796z"/>
	<path fill="#5D3119" d="M117.303,79.047"/>
	<path fill="#5D3119" d="M97.678,89.797"/>
	<path fill="#5D3119" d="M106.303,102.172c-0.125-0.375,0.125-7.375,0.625-9.625s1.25-6.25,3.5-3.875s8.75,10.625,12.25,15.25
		s10.125,11.875,12.5,13.875s5.5,3.75,5.5,3.75s0.625,4.125,0.875,5.5s-0.125,5.25,0,6.5s-0.125,2.25-0.125,2.25
		s-9.625-2.375-15.5-7s-11.875-13-13.875-16.125s-5.75-8.75-5.75-8.75V102.172z"/>
	<path fill="#5D3119" d="M128.303,129.547c0,0,1,6.875,1.125,9.5s0.625,5.125,0.125,6.75s-8,15.25-8,15.25l3.375-0.375
		c0,0,4.125-6.375,5.375-8.25s10.375-16.375,10.375-16.375s-9.125-7-11.875-6.125"/>
	<path fill="#5D3119" d="M156.053,112.422c0,0,0.07,0.385,0.188,1.051c0.584,3.301,2.333,13.52,2.437,18.199
		c0.125,5.625,2.25,10.375-1,17.625s-7.75,13.75-7.75,13.75l4.625-1.125l20.625-31.375c0,0,0.625-18.625,0.375-20.875
		s-0.875-3-0.875-3s-1.25,4.375-2.5,7.125s-2.375,3.5-3.875,4.25s-7.75-0.75-11.5-5.75"/>
	<path fill="#5D3119" d="M175.678,108.547c0,0,2.5-14.625,2.625-16.125s1.5,2.375,2,3.5s1.375,5.625,1.375,7.125
		s-0.875,6.25-1.25,7.25s-1.375,4.125-1.75,4.5s-2.75,4.25-2.75,4.25s-0.625-6.125-0.375-9.375"/>
	<path fill="#5D3119" d="M175.803,127.297c0,0,4.625-1.5,7.25-3.375s4.25-4,6.5-7.75s2.25-3.75,2.25-3.75s-0.75,3.625-5.75,10.375
		s-9.125,11.75-9.625,12s-3.125,0.75-3.125,0.75l-2,0.25C171.303,135.797,174.428,128.297,175.803,127.297z"/>
	<path fill="#5D3119" d="M176.428,134.797c0,0,10.375,3.5,13,3.875s14.125,2.375,16.25,2.25s10.625-0.25,10.625-0.25l0.625-1.625
		c0,0-3-5.75-4.25-7.375s-1.25-1.625-1.25-1.625s-3.125,0.75-8.125,1s-14.75-0.375-16-0.625s-1.25-0.25-1.25-0.25L176.428,134.797z"
		/>
	<path fill="#5D3119" d="M199.303,139.922c0,0-6.625,11-9,14.125s-6.625,8.25-6.625,8.25l1.75-0.25c0,0,8.875-9.125,10.25-10.5
		s11-11.125,11-11.125l-0.875-3l-7,1.75"/>
	<path fill="#5D3119" d="M218.553,164.297c0,0,13.5-15.25,16.25-20.5s5-6.75,3.75-8.625s-5.375-5.5-8.5-7.875s-6.25-5.375-6-10.875
		s0.25-12.625,3.375-19.125s8.5-17.5,8.5-17.5s0.375,5.875,1.5,8.125s1.75,3.25,3.5,3.625s3.75,0.25,4.25-1.375
		s1.125-4.5,1.25-7.375s0.125-9.125,0.125-9.125s1.875,8.375,1.75,10.5s-0.25,10.125-0.625,12.875s-2.25,14.5-3,16.125
		s-1.375,4.25-1.25,5.25s10.25,13.375,10.25,13.375l-32.5,32.625L218.553,164.297z"/>
	<path fill="none" stroke="#000000" stroke-width="0.75" d="M138.115,4.859"/>
	<path fill="none" stroke="#000000" stroke-width="0.75" d="M100.115,89.297"/>
	<path fill="none" stroke="#000000" stroke-width="0.75" d="M248.637,84.088c0,0,0.584-4,0.584-7.416c0-3.418,0.5-7.334,0.25-12.75
		c-0.25-5.417-0.417-9.333-1.417-15.417s-1.5-9.5-3.5-14.917s-4.5-10.333-8.417-13.917s-13.5-5.75-20.083-6.167
		s-16.5,1.417-23,2.917s-18.418,6.958-20.584,7.625c-5.423,1.67-26,10.5-42.667,16.833"/>
	<path fill="none" stroke="#000000" stroke-width="0.75" d="M243.471,62.588c-0.167,0.25,5.583,15.751,4.916,24.417
		s-2.5,21.166-3.25,24.416s-3.582,5.668-0.666,9.75c2.916,4.084,9.083,10.584,9.083,10.584l-32.5,32.916
		c0,0-17.167,0.582-20.167,0.166s-7.667-1.834-7.917-2s3.834-4.332,6.834-5.082s7.416-1.168,9.083-0.668s1.667,0.5,1.667,0.5
		l6.25-18.332c0,0-7.749-13.584-8.833-17.168c-1.084-3.582-3.084-9.25-3.834-14s-1.25-9.664,1.25-14.748s7.333-11.668,7.333-11.668"
		/>
	<path fill="none" stroke="#000000" stroke-width="0.75" d="M175.137,108.256c0,0,0.5,11.25,0.417,14.5s0.167,7.25,0.167,7.25
		l-21.5,31.916c0,0-16.917,3.5-19.334,3.25s-4.833-0.75-4.833-0.75l-6-1.75c0,0,3.083-4.832,6.583-5
		c3.5-0.166,5.833,0.084,5.833,0.084s0.25-0.916,3-1.084c2.75-0.166,5.25,0.75,5.25,0.75"/>
	<path fill="none" stroke="#000000" stroke-width="0.75" d="M135.887,157.256c0,0,4.584-13.084,5.167-18
		c0.583-4.918,0.416-12.418-0.417-17c-0.833-4.584-1.333-8-1.333-8"/>
	<path fill="none" stroke="#000000" stroke-width="0.75" d="M141.554,135.84c0,0-3.666-0.918-5.583-1.5
		c-1.917-0.584-8.25-4.25-11.667-6.75s-9.583-10.75-12.25-14.918c-2.667-4.166-4.833-7.5-6.583-11.084s-4.417-12.416-4.417-12.416
		s-2.919-7.209-3.585-8.625s-2.583-3-2.583-3"/>
	<path fill="none" stroke="#000000" stroke-width="0.75" d="M111.138,155.34l4.166-17.084c0,0-0.666-3.834-1.083-7.418
		s-1.583-17.332-1.583-17.332"/>
	<path fill="none" stroke="#000000" stroke-width="0.75" d="M117.887,155.506c0,0-6.5,0-8.083,0.166s-5.417,0.834-6.917,1.834
		s-2.166,2.582-2.166,2.582s1.583,1.418,2.833,1.584s2.417,0.25,2.417,0.25s-0.083,0.75,4,0.75s7.834-1,10-1.334
		c2.166-0.332,5.333-1,5.333-1s15.75-24.832,15.75-24.582"/>
	<path fill="none" stroke="#000000" stroke-width="0.75" d="M172.22,135.838c0,0,5.334-1.166,8.084-2.332
		c2.75-1.168,7.25-4.416,9.833-7.084c2.583-2.666,6.25-8.332,6.917-11.082s1-3.168,1-3.168"/>
	<path fill="none" stroke="#000000" stroke-width="0.75" d="M175.721,118.838c0,0,3.582-4.25,4.249-6.582
		c0.667-2.334,1.834-9.168,1.334-11.75c-0.5-2.584-2.417-8.25-2.417-8.25"/>
	<path fill="none" stroke="#000000" stroke-width="0.75" d="M176.137,135.09c0,0,12.501,3.334,16.834,4s9.166,1.416,12.083,1.5
		c2.917,0.082,11.5,0.166,11.5,0.166"/>
	<path fill="none" stroke="#000000" stroke-width="0.75" d="M177.72,136.09c0,0,4.5,7.75,4.417,8s-3.833,12.666-3.833,12.666
		s-6.333-0.834-8.583,0.166s-4.667,3.584-4.667,3.584s1.083,0.666,2,1c0.917,0.332,2.916,0.666,4.333,0.75
		c1.417,0.082,2.334-0.168,2.334-0.168s-0.917,0.666,0.583,0.75s10.417-0.25,11-0.832c0.583-0.584,21.583-21.584,21.583-21.584"/>
	<path d="M179.241,92.129c0,0-1.876-4.188-2.604-4.895c-0.729-0.709,1.479,3.791,1.938,5.166"/>
	<path d="M197.709,112.141c0,0,0.75-4.25,0.594-5.156s-0.156-0.906-0.156-0.906s0.719,4.875,0.125,6.406"/>
	<path d="M174.74,108.453c0,0,0.094-1.906-0.156-3.063s-0.281-1.281-0.281-1.281s1.188,3.031,1.219,4.25"/>
	<path d="M139.021,114.516c0,0-1.281-6.188-1.656-7.781s-0.375-1.594-0.375-1.594s2.688,8.063,2.719,9.063"/>
	<path d="M212.261,81.756c0,0,3.667-4.709,4.792-5.625c1.125-0.918,1.917-1.168,1.917-1.168s-5.125,6.166-6.25,7.375"/>
	<path d="M243.22,62.922c0,0-1.916-5.167-2.75-6.25s-0.834-1.083-0.834-1.083s2.583,1.875,4.25,7.333"/>
	<path d="M205.803,164.922c0,0,1.751-2.832,3.292-3.875c1.541-1.041,3.958-1.375,3.958-1.375s-3.708,1.916-4.583,2.959
		c-0.875,1.041-1.459,2.541-1.459,2.541"/>
	<path d="M198.803,164.047c0,0,1.209-3.084,2.542-4.041c1.333-0.959,4.708-1.541,4.708-1.541s-4.458,2.084-5.125,3
		s-1.375,3.291-1.375,3.291"/>
	<path d="M173.553,162.047c0,0,0.707-2.5,2.416-3.166c1.709-0.668,2.667-0.668,2.667-0.668s-3.126,1.166-3.542,2
		s-1.083,2.25-1.083,2.25"/>
	<path d="M168.511,161.631c0,0,0.416-1.707,1.833-2.666s2.959-0.959,2.959-0.959s-2.584,1.041-3.292,2s-1,2-1,2"/>
	<path d="M137.178,164.881c0-0.125,1.083-2.207,2.458-3.291s4.5-2,4.5-2s-4.291,2.332-4.708,3.082s-0.958,2.084-0.958,2.084"/>
	<path d="M129.303,164.131c0,0,1.083-1.832,2.125-2.916s1.749-1.709,2.833-1.875c1.084-0.168,1.667-0.084,1.667-0.084
		s-3.417,1.668-4.042,2.334s-1.75,2.666-1.75,2.666"/>
	<path d="M110.886,162.547c0,0,1.167-2.209,2.667-3.334s3.583-1.582,3.583-1.582s-3.584,2.373-4.292,3.332s-1.041,1.709-1.041,1.709
		"/>
	<path d="M105.511,161.631c0,0,0.75-1.959,1.75-2.875s3.833-1.916,3.833-1.916s-3.125,1.791-3.75,2.666s-0.75,2.541-0.75,2.541"/>
	<path d="M117.553,155.797c0,0,1.125,0.541,1.5,0.875c0.375,0.332,0.375,0.332,0.375,0.332s-0.501-1.957-1.584-1.916"/>
	<path d="M144.386,157.547l2.75,1.375c0,0-1.208-2.125-2.5-2.209"/>
	<path fill="#834421" d="M100.47,26.213c-0.5,0-2.667-0.167-3.167,0.167s-2.167,7-2.5,8.333s2.001,11.333,2.167,12.5
		s4.333,11,4.833,12.5s4.667,9.333,5.167,10.167c0.5,0.832,3.167,3.666,4,4.832c0.833,1.168,4.666,6,5.666,6.834s5.5,4.832,7,6
		c1.5,1.166,10,1,10.667,0.334c0.667-0.668,3.999-11,3.833-12.168c-0.166-1.166-5.166-9.5-5.833-11.5
		c-0.667-2-5.333-9.833-7.333-12.333s-5.001-8.167-5.334-8.667s-5.5-10.833-6-11.167s-1.499-4.5-2.166-5s-2.501-2.667-3.334-2.667
		s-3.333-0.167-3.333-0.167"/>
	<path fill="#5D3119" d="M97.011,27.088c0,0,5.25,1.375,7.75,2.875s4.25,3.625,4.625,5.25s0.375,3.875,0.25,5.75
		s-3.875,15.25-3.875,15.25s6.375-8.875,8.25-9.25s3.375,1.375,3.5,3.125s-0.875,10.625-2.25,15.125c-1.375,4.5-3,11.75-3,11.75
		s7,0.25,9.125,5.125s2.25,6,2.25,8.625s0.25,3.125-1,6.25s-2.125,4.25-2.125,4.25s3.75-4.25,4.625-6s3.125-8.125,3.625-10.875
		s0.625-8.5,0.125-11.625s-0.875-5.75-1.875-7.625c-1-1.875-1.875-5.125-1.625-7.875s2.625-13.25,3.625-16.625
		s1.75-5.625,1.75-5.625l-8.875,4.75c0,0,0-3.625,0.875-5.75s3.75-10.125,3.75-10.125s-7.875,9.375-8.625,9.125s-1.25-4.5,0.125-7.5
		s3.625-7.625,3.625-7.625l-24.5,8.75"/>
	<path fill="#5D3119" d="M118.386,21.588c-0.313,0.25-3.063,12.063-3,12.25s1.438,1.625,1.563,1.438s1.188-1.625,1.188-1.625
		l0.25-2.25l2.25-8.625l1.313-4.938"/>
	<path fill="#5D3119" d="M123.823,55.901c0,0,2.938,11.812,3,12.25s1.625,6.438,1.625,6.438l1.063,6.375l0.438-3.563
		c0,0-0.563-7.125-0.75-7.75s-2.063-8.312-2.188-8.5s-1.375-3.125-1.375-3.125l0.125-1.938l-1.875-3.625"/>
	<path fill="#834421" d="M126.1,105.58c0.331-1.082,0.779-3.066,0.779-3.066s-4.11,2.58-5.211,2.922c-1.1,0.342-1.1,0.342-1.1,0.342
		s4.198-4.994,5.088-6.107s0.042-3.25,0.042-3.25l-3.069,0.172l0.554-3.047c-2.165,1.615-6.001,0.07-4.831-2.91
		c-1.446-1.617-2.451-4.084-2.838-6.654c-1.55,0.227-3.129-0.23-4.126-1.385c-0.912-0.223-1.706-0.879-2.018-2.074
		c-0.837-3.211-0.678-8.404,2.023-10.74c0.315-0.273,0.643-0.488,0.975-0.66c-0.759-1.414-1.297-2.924-1.41-4.625
		c-1.934-2.624-3.772-5.334-5.404-8.145c-6.178-3.017-8.293-14.269-8.433-20.086c-0.044-1.837,0.034-4.174,0.584-6.31
		c0.103-1.472,0.348-2.909,0.758-4.291c-0.112-0.019-0.223-0.03-0.336-0.06c-0.431,0.057-0.858,0.008-1.251-0.125
		c-0.629,0.494-1.377,0.893-2.103,0.453c-1.061-0.642-0.454-2.122,0.515-2.196c0.001,0,0.001-0.001,0.002-0.001
		c-0.067-0.346-0.071-0.722,0.044-1.133c0.091-0.326,0.169-0.647,0.246-0.969v-4.046c0-0.797,0.271-1.382,0.684-1.772
		c-0.008-1.165-0.092-2.347-0.263-3.576c-0.087-0.631,0.046-1.187,0.31-1.648c-0.583-0.376-1.132-0.889-1.644-1.48
		C94.419,9,94.18,8.86,93.965,8.655c-0.208-0.178-0.416-0.355-0.625-0.533c-0.785-0.411-1.563-0.835-2.327-1.291l-0.449,1.021
		c0,0-3.146-2.176-5.542-1.985c-2.396,0.19-5.299-0.655-7.451-0.087c-2.152,0.568-6.815,1.277-7.128,1.687
		c-0.313,0.41-2.83,2.454-3.062,3.307c-0.232,0.853-1.651,3.507-1.359,4.723c0.292,1.215,2.263,6.424,2.949,7.673
		c0.686,1.25,3.103,5.425,3.103,5.425s-1.813,2.621-3.475,3.946c-1.662,1.325-13.117,6.725-13.117,6.725s-2.311-1.271-2.918-1.124
		c-0.608,0.146-2.893,1.337-3.422,2.879c-0.53,1.541-3.488,8.706-3.397,11.332c0.091,2.626,0.984,11.591,1.54,12.511
		c0.555,0.922,3.338,3.621,4.914,3.758c1.576,0.135,5.594,0.918,6.974,0.561c1.38-0.357,2.595-0.65,2.595-0.65
		s2.422,8.264,2.832,8.576c0.409,0.314,6.592,7.75,6.592,7.75l1.512,11.002l3.716,26.387l3.435,4.342c0,0,15.346,6.084,17.218,5.531
		c1.874-0.553,5.755-3.232,6.479-4.281c0.726-1.049,4.722-9.67,4.722-9.67s7.855,2.303,9.021,2.127
		c1.166-0.178,5.767-2.004,6.194-2.363s1.138-1.688,1.138-1.688s-2.493-0.533-4.101-1.227c-1.606-0.693-3.179-1.781-3.179-1.781
		s3.959-1.285,5.506-2.66S125.768,106.662,126.1,105.58z"/>
	<path fill="#FFFFFF" d="M85.698,106.453c0,0-7.207,11.797-8.505,15.592c-1.3,3.797-1.753,4.689-1.753,4.689l2.372-0.133
		l2.612-0.846l12.148-6.529l2.047-1.432l0.422-3.971c0,0-3.525-0.979-3.723-0.994c-0.197-0.018-4.255-4.494-4.255-4.494
		l-1.594-1.982"/>
	
		<ellipse transform="matrix(-0.3965 0.918 -0.918 -0.3965 181.1129 48.4183)" fill="#FFFFFF" cx="74.642" cy="83.738" rx="12.157" ry="10.406"/>
	
		<ellipse transform="matrix(-0.3965 0.918 -0.918 -0.3965 180.5743 11.8218)" fill="#FFFFFF" cx="86.402" cy="65.261" rx="14.593" ry="13"/>
	
		<ellipse transform="matrix(-0.3965 0.918 -0.918 -0.3965 184.4301 26.25)" fill="#0092FF" cx="83.587" cy="73.747" rx="5.188" ry="5.095"/>
	
		<ellipse transform="matrix(-0.3966 0.918 -0.918 -0.3966 184.0278 60.7948)" fill="#0092FF" cx="72.032" cy="90.882" rx="4.437" ry="4.344"/>
	<circle fill="#00426B" cx="83.401" cy="74.178" r="2.219"/>
	
		<ellipse transform="matrix(-0.3966 0.918 -0.918 -0.3966 184.0176 61.3342)" fill="#00426B" cx="71.851" cy="91.145" rx="1.874" ry="1.844"/>
	
		<ellipse transform="matrix(-0.3965 0.918 -0.918 -0.3965 179.5804 24.2935)" fill="#FFFFFF" cx="81.805" cy="71.173" rx="1.344" ry="1.313"/>
	<circle fill="#FFFFFF" cx="84.805" cy="76.759" r="1.031"/>
	
		<ellipse transform="matrix(-0.3967 0.918 -0.918 -0.3967 180.4461 59.1067)" fill="#FFFFFF" cx="70.799" cy="88.853" rx="1.124" ry="1.156"/>
	<circle fill="#FFFFFF" cx="73.523" cy="93.501" r="0.875"/>
	
		<ellipse transform="matrix(-0.3966 0.918 -0.918 -0.3966 180.6534 11.8636)" fill="none" stroke="#000000" stroke-width="0.75" cx="86.427" cy="65.307" rx="14.501" ry="13.042"/>
	<path fill="none" stroke="#000000" stroke-width="0.75" d="M84.2,79.592c-1.347-0.055-2.662-0.486-3.824-1.186
		c-1.138-0.402-2.293-1.109-3.114-2.031c-0.727-0.576-1.328-1.357-1.859-2.084c-0.499-0.682-0.906-1.393-1.173-2.152
		c-3.81,0.568-7.448,3.342-9.279,7.584c-2.646,6.125-0.527,12.934,4.732,15.207c5.26,2.271,11.67-0.854,14.316-6.98
		c1.228-2.842,1.411-5.824,0.748-8.438c-0.015-0.002-0.029,0.002-0.044,0.002C84.557,79.566,84.392,79.6,84.2,79.592z"/>
	<line fill="none" stroke="#000000" stroke-width="0.75" x1="73.458" y1="95.855" x2="76.903" y2="122.873"/>
	<path fill="none" stroke="#000000" stroke-width="0.75" d="M65.646,78.32c0,0-1.79-2.475-2.56-6.211
		c-0.769-3.736-2.192-14.155-2.192-14.155s-4.395,4.501-5.612,5.271c-1.217,0.767-1.603,0.873-1.603,0.873
		s-0.064-6.155,3.657-13.194c3.721-7.04,5.295-9.423,5.295-9.423s-3.941,0.612-5.671,0.205c-1.73-0.406-2.534-0.753-2.534-0.753
		s2.788-2.2,6.511-4.2c3.723-2,8.588-4.12,9.905-5.593c1.317-1.473,2.042-2.522,2.042-2.522"/>
	<path fill="none" stroke="#000000" stroke-width="0.75" d="M79.339,36.375c0,0-5.972-6.664-8.675-11.44s-3.937-9.326-3.744-10.876
		c0.193-1.55,0.869-5.479,4.253-6.537c3.384-1.057,6.809-1.893,10.28-1.891c3.471,0.002,5.055,0.277,6.194,0.634
		c1.14,0.355,7.394,3.057,7.516,3.246c0.123,0.189,1.629,1.588,0.999,6.831c-0.632,5.242-1.833,12.28-1.833,12.28"/>
	<path fill="none" stroke="#000000" stroke-width="0.75" d="M83.887,33.097c0,0-5.29-6.982-5.669-12.252
		c-0.379-5.27-0.337-5.524-0.337-5.524"/>
	<path fill="none" stroke="#000000" stroke-width="0.75" d="M129.368,82.424c-1.1,5.381-4.69,13.225-4.69,13.225
		s2.488-1.035,3.395-1.869c0.904-0.834,0.904-0.834,0.904-0.834s-1.336,5.141-3.987,8.285s-3.893,3.969-3.893,3.969
		s4.51-1.457,5.258-2.086c0.749-0.629,0.749-0.629,0.749-0.629s-0.383,4.668-2.909,7.049c-2.525,2.381-6.222,3.371-6.222,3.371
		s3.104,2.43,5.056,2.797c1.951,0.367,1.951,0.367,1.951,0.367s-0.35,1.754-3.923,2.934c-3.573,1.182-5.993,0.953-7.953,0.445
		c-1.96-0.506-4.336-1.941-4.336-1.941"/>
	<path fill="none" stroke="#000000" stroke-width="0.75" d="M94.732,25.799c0,0,6.467,0.002,11.914-2.206
		c5.448-2.209,15.291-6.399,15.291-6.399s-4.065,15.4-3.811,15.442c0.254,0.042,8.451-8.06,8.451-8.06l-4.669,14.119l8.981-4.085
		c0,0-5.464,19.426-5.187,22.881c0.278,3.456,2.531,7.697,3.348,12.271c0.814,4.572,1.415,7.283,0.316,12.662"/>
	<path fill="none" stroke="#000000" stroke-width="0.75" d="M75.637,126.275c0,0,1.209-3.902,3.975-9.516
		c2.765-5.615,6.525-11.479,8.631-13.838c2.107-2.355,4.369-3.967,4.369-3.967s2.028,2.238,2.499,7.139
		c0.47,4.9-0.535,11.955-0.535,11.955s-12.223,7.18-14.499,8.035S75.537,126.982,75.637,126.275z"/>
	<path fill="none" stroke="#000000" stroke-width="0.75" d="M79.978,126.313c0,0,10.263,4.297,13.208,4.889
		c2.944,0.59,6.037,0.838,8.021-0.758c1.981-1.594,3.705-4.322,5.991-8.984c2.286-4.664,7.928-17.408,7.903-20.348
		c-0.023-2.938-2.679-10.348-3.593-12.172s-1.731-2.926-1.731-2.926"/>
	<path fill="none" stroke="#000000" stroke-width="0.75" d="M95.106,116.508c0,0,5.598,2.486,7.444,2.467s6.38-1.057,6.38-1.057"/>
	<path fill="none" stroke="#000000" stroke-width="0.75" d="M62.58,68.555c0,0-5.551,1.346-8.938,0.359s-4.942-2.27-5.69-4.635
		c-0.749-2.367-1.753-9.813-1.349-13.587c0.405-3.773,1.876-7.496,2.998-9.462s1.96-2.489,3.036-2.773
		c1.076-0.284,4.002,0.979,4.002,0.979"/>
	<path d="M84.597,108.633c0,0-4.224,11.883-2.726,11.984c1.5,0.104,13.3-5.783,13.3-5.783s-0.309-10.211-0.775-11.863
		c-0.466-1.654-1.344-4.348-1.783-4.016c-0.438,0.332-7.603,7.041-8.288,9.469"/>
	<ellipse fill="#FFFFFF" cx="84.136" cy="70.506" rx="8.083" ry="8.541"/>
	<ellipse fill="#FFFFFF" cx="72.802" cy="87.256" rx="7.75" ry="7.957"/>
	<path fill="#FF0000" d="M111.917,83.65l-0.018,0.133l-0.232,1.805c0,0,1.094,1.938,1.156,2.094s1.5,1.313,1.5,1.313
		s0.5,0.031,0.594-0.031s1.656-0.875,1.656-0.875l1.406-1.156l1.125-1.063c0,0,0.625-1.281,0.531-1.25s-0.25-1-0.25-1l-0.25-0.813
		l-0.5-0.531l-1.688-0.25c0,0-3.375,0.406-3.469,0.469"/>
	<path fill="none" stroke="#000000" stroke-width="0.75" d="M113.198,93.025c0,0-0.25-0.125-0.75-1.5
		c-0.354-0.971-2.438-2.688-3-3.5s-1.625-2-2-2.875s-0.063-1.75,0.125-2.25s1.813-0.875,1.813-0.875s7.375-0.25,8.5,0
		s1.75,1.438,1.75,1.75s0.688,1.938-2.5,3.938s-3,1.813-4.063,2.5s-1.063,0.688-1.063,0.688"/>
	<path fill="#050202" d="M116.073,82.275c-0.188,0.125-3.125,1.188-3.563,2.313s0.25,1.875,0.688,2.5s2.125,2.063,2.125,2.063
		l-2.875,1.531c0,0-3.75-3.125-4.469-4.281s-0.906-2.875-0.906-2.875l0.531-1l3.625-0.688l4.125-0.063L116.073,82.275z"/>
	<path d="M83.636,79.963c0,0-1.438-3.438-1.313-6.625s0.813-4.75,1.875-6.438s5.063-4.812,5.063-4.812s-3.5,4.687-4.25,6.687
		s-1.5,4.5-1.375,6.25s0.438,4.938,0.438,4.938"/>
	<path d="M71.011,92.213c0,0-0.688-1.5,1.5-4.25s3.625-3.5,3.625-3.5l2.438-0.938l3.25-0.063l2.5,0.125c0,0-1.875-1.438-4.125-1.313
		s-4.875,0.875-5.688,1.563s-3.063,3-3.375,4.25s-0.063,3.688-0.063,3.688"/>
</g>
<g id="frame_3">
	<polyline fill="#834421" points="31.469,159.213 30.636,164.795 31.469,166.213 31.803,163.295 32.136,159.629 31.303,158.213 	"/>
	<path fill="#834421" d="M38.303,164.463l0.917,1l2.417-0.084l0.5-1c0,0-2.583-1.75-2.833-1.916"/>
	<path fill="#834421" d="M6.136,151.295c0,0,1.667,2.918,2,3c0.333,0.084,7.917,1.168,7.917,1.168s5.5,0.334,5.75,0.25
		s3.25-1.168,3.25-1.168l-0.583-2.666"/>
	<path fill="#834421" d="M39.136,158.629l0.667,3l1-0.334l0.5-1.582l1.167,1.416c0,0,1.75,0.334,2.083,0.5s1.667,0.5,1.917,0.5
		s3.917,0.25,3.917,0.25l3.417-0.666l1.833-0.168c0,0,2.833-1.584,3.083-1.5s3.417,1.416,4.5,1.5s6.333-0.916,6.75-1
		c0.417-0.082,12.333-3.748,12.75-3.666c0.417,0.084,12.834,0.668,13.667,0.75c0.833,0.084,21.083-1.084,21.083-1.084
		s11.583-0.916,12.083-1.166s18.251-11.666,18.167-11.334c-0.084,0.334,5.5,3.418,5.75,3.668s4.25,3.582,4.25,3.582l1.75-0.166
		l8.666-1.834l21.5,1c0,0,17.333,2.084,17.5,2.334s12.25-4.332,12.75-4.666s9.584-8,9.584-8l12.083,3.5l6.417-3.084l1.833-4.084
		l-0.167-4.416l-1.333-1.916l-2.333-1.918c0,0-4.667-6.666-5.417-8.416s-9.667-17.084-9.667-17.084s-0.083-2.666,0-3.25
		c0.083-0.582,0.583-7.416,0.583-8.916s-0.666-12.834-0.666-15.916c0-3.084-0.749-10-2.083-14.667
		c-1.334-4.667-2.667-11.332-3.334-12.666s-4.75-8.084-4.75-8.084s-3.5-3.584-4.333-4s-8.917-3.833-9.917-3.917
		s-7.5-1.166-7.75-1.083s-11.25,0.25-11.25,0.25l-9.833,1.583l-11.084,2.916l-9.999,4.251l-9.834,3.583l-23.166,9.417l-12.334,5.416
		c0,0-1.667,1.249-2,1.666s-3.583,4.417-3.583,4.417l-4.584,6.5l-6.666,10.668c0,0-5.667,6.416-5.917,7.25
		c-0.25,0.832-29.583,38.584-29.583,38.584s-4,9.832-4,10.332s-12.167,11.334-12.5,12c-0.333,0.668-3.833,6.834-3.833,6.834"/>
	<path fill="#5D3119" d="M56.636,159.545c0,0,9.167,0.334,12-0.166s8.5-2.834,9-2.834s44.167-2.166,44.167-2.166
		s23.501-19.332,26.834-22.5c3.333-3.166,11.5-14.166,11.333-17s0-9.334,0-9.334s6.167,9.002,3,17.334
		c-3.167,8.334-4.667,10-4.667,10l-1,4.666l0.667,5.834c0,0,1.167,1.168,3.5-0.5c2.333-1.666,5.499-4.5,6.833-6s5.667-8.5,5.667-8.5
		s1.5,1.168-4.5,8c-6,6.834-10.333,13.834-10.333,13.834l-1.334,1.332l-4.833-0.666l-9.667,0.5l-10.5,14l-54.333-2.666
		c0,0-9.333,2.832-10.833,3.5c-1.5,0.666-9.167-0.168-10.333-0.168s-2,0-2,0s-0.333-4.5,0-5S56.636,159.545,56.636,159.545z"/>
	<path fill="#69361A" d="M167.47,146.879c0.5,0.166,12.167,1.834,16.5,1.166c4.333-0.666-0.834-0.166,1.666-0.5
		c2.5-0.332,7-1.5,7-1.5l-4.333-11.832c0,0,4.167,4.666,7.5,8.666s8.166,5.666,9.833,5.5s6.334-1.666,8.667-4.166
		s6.832-12.666,8.166-18.334c1.334-5.666,2.334-21.166,2.334-25.5s0.666-16.5,0.166-18.666c-0.5-2.168-0.5-3.668-0.5-3.668
		s4,10.334,5,14.334s1.167,9.666,1.167,9.666s-0.001,7.834-0.167,9.5c-0.166,1.668-1.166,6.334-1.333,7
		c-0.167,0.668-1.833,9.5-1.833,9.5l-0.167,2.168c0,0,1.833,1.834,3.5,1.666c1.667-0.166,7.667-0.166,7.667-0.166l-2.834,6.5
		c0,0,3.167,2,5.167,1.5s6.5-2.168,6.5-2.168s2.333-1.834,2.5-2.5s-0.5,5-0.5,5s-3.999,11.166-4.333,12s-1.667,2.666-2.167,3
		s-3.166,1.334-3.833,1.334s-3.334,0.334-3.334,0.334l-2.666-0.834l-2.334-1.334l-1.333-1c0,0-0.333-1.166-0.333-2.166s0.5-3,0.5-3
		s-2.334,3.666-3.167,4.834c-0.833,1.166-3.666,3.666-4.666,4.332c-1,0.668-5.666,2.668-6.5,2.834s-5,1-5.5,0.834
		c-0.5-0.168-5.667-0.5-5.667-0.5l-3-1.168l-2-1.666l-1-1.334c0,0-4.999,0.666-6.666,0.834c-1.667,0.166-9-1-9-1l-4.667-1.166
		l-17.5-4l7.5-5"/>
	<polyline fill="#69361A" points="73.553,161.213 69.22,164.963 70.803,165.379 73.386,164.713 76.136,163.545 77.303,162.295 
		76.803,160.129 	"/>
	<path fill="#5D3119" d="M65.47,153.795l-2.583,3.25c0,0,0.917,0.5,1.5,0.25s3.333-1.082,3.667-1.25
		c0.333-0.166,0.833-0.666,0.75-0.916s-0.917-1.834-0.917-1.834"/>
	<path fill="#5D3119" d="M99.303,130.129l11.084-1.584l2.75-0.166l0.666-0.5c0,0-7.333-1.582-7.833-1.416s-5.584,2.748-5.917,2.916"
		/>
	<path fill="#5D3119" d="M97.053,130.045c0,0,5.584,5.334,5.917,5.584s3.667,0,3.667,0l-1.917-1.5c0,0-7.333-5.084-7.583-5.25"/>
	<polyline fill="#5D3119" points="99.303,102.795 100.886,105.045 101.553,104.795 100.303,102.795 	"/>
	<path fill="none" stroke="#000000" stroke-width="0.75" d="M56.219,158.963c0,0-1.167,2.416-1.25,3.832
		c-0.083,1.418,0.5,2.918,0.5,2.918s5.167,0.5,7.333,0.5s7.5-0.75,9.167-1s7-2.5,7-2.5s39.001,1.834,41.917,2
		s11.833,0.666,11.833,0.666s11.667-15.5,13.833-17.5s7.166-8,7.166-8"/>
	<path fill="none" stroke="#000000" stroke-width="0.75" d="M143.636,151.629c0,0,9.334-0.5,10.167-0.75s3.166-3.168,3.333-3.834
		s0.417-2.416,0.417-2.416l0.25-10.5c0,0,2.917-4.166,4-6.916s2.083-11.084,1.083-14.084s-1.583-4.666-1.583-4.666"/>
	<path fill="none" stroke="#000000" stroke-width="0.75" d="M153.803,150.879c0,0,3.749,1.334,7.083-0.416s9-4.75,10.917-7.168
		c1.917-2.416,6.084-7.25,7-12s0.833-3.25,0.833-3.25"/>
	<path fill="none" stroke="#000000" stroke-width="0.75" d="M158.886,151.213c0,0,14.167,3.332,16.25,3.666s7.501,1.918,8.917,2.084
		s14.166-0.168,14.166-0.168"/>
	<path fill="none" stroke="#000000" stroke-width="0.75" d="M196.719,96.045c-0.25,0.084-6.833,7.168-8.833,11.834
		s-3.75,11.75-2,18.25s6.416,19.668,8.333,23.25c1.917,3.584,2.835,7,5.001,8.666c2.166,1.668,2.584,2.166,4.5,2.584
		c1.916,0.416,10.082,0.666,12.499-0.25s7.834-4,10.667-7.75s5.833-9.75,5.833-9.75"/>
	<path fill="none" stroke="#000000" stroke-width="0.75" d="M229.303,149.129c0,0-0.75,3.584-0.417,4.334s1.584,1.332,2.417,1.832
		s1.749,0.918,2.666,1.084s3.084,0,3.084,0s2.75,0.166,3,0.084c0.25-0.084,3.334-1.166,4.75-4.334c1.416-3.166,4-11.082,4.25-11.5
		c0.25-0.416,0.832-7.832,0.416-9c-0.416-1.166-2.832-2.5-3.999-4s-15.084-25.916-15.084-25.916"/>
	<path fill="none" stroke="#000000" stroke-width="0.75" d="M226.136,134.129c0,0,2.75-11.416,3.25-16.666s1.333-13.584,1-17.584
		s-2.166-11.168-2.833-13.75c-0.667-2.584-3-8.584-3-8.584"/>
	<path fill="none" stroke="#000000" stroke-width="0.75" d="M230.636,102.045c0,0,0.75-4.166,0.75-11.332
		c0-7.168-0.666-20.584-1.083-23.334s-4.333-18.917-5.5-21.417s-3.249-6.584-7.083-9.834s-9.501-4.417-14.334-5.417
		s-14.583-0.833-20.583,0.167s-11.499,2.083-18.833,5.167s-25.168,9.417-31.251,12.25s-17.583,6.917-20.833,8.75
		s-2.583,2.166-4.75,4.833c-2.167,2.667-5.75,7.667-5.75,7.667"/>
	<path fill="none" stroke="#000000" stroke-width="0.75" d="M79.803,146.713c0,0,22.584-7.334,22.5-7.334s16.833-17.75,16.833-17.75
		"/>
	<path d="M63.969,165.963c0-0.25,0.084-4.418,0.667-5.418s3.667-3.5,3.667-3.5s-2.833,3.666-3,4.334
		c-0.167,0.666-0.25,4.416-0.25,4.416"/>
	<path d="M56.886,165.795c0,0,0.416-3.75,0.833-4.5s2.917-3.082,2.917-3.082s-1.25,1.582-1.833,3.082s-0.75,4.334-0.75,4.334"/>
	<path d="M118.595,121.629c0,0,2.543-2.709,2.959-2.916c0.416-0.209-1.876,2.832-2.459,3.457"/>
	<path d="M153.334,139.807c0.094-0.031,1.438-1.969,1.625-2.25s-0.5,2.094-1,2.594"/>
	<path d="M161.021,108.713c0,0-2.531-4.344-3-4.875s-0.469-0.531-0.469-0.531s3.75,4.094,4.094,5.063"/>
	<path d="M179.209,127.9c0.031-0.188,0.563-2.313,0.625-4.125s0.438,3.219,0.031,4.5"/>
	<path d="M196.303,95.994c0,0,2.813-2.75,3.969-3.156s1.156-0.406,1.156-0.406s-3.469,2.781-4.688,4"/>
	<path d="M224.303,77.807c0,0-1.625-3.344-2.438-4.313s-0.938-1.094-0.938-1.094s3.5,3.406,4,5.031"/>
	<path d="M225.896,133.838c0,0-0.875,3.188-1.375,3.938s-0.5,0.75-0.5,0.75s2.344-3.156,2.563-4.688"/>
	<path d="M232.271,142.963c0,0,1.406-2.188,1.563-2.875s0.156-0.688,0.156-0.688s-0.469,2.625-1.063,3.813"/>
	<path d="M231.334,155.088c0-0.094,0.031-6.25,0.438-8s0.5-1.906,0.5-1.906s-0.063,9.844,0.281,10.469"/>
	<path d="M236.834,156.182c0-0.094,0.781-3.531,1.688-5.563s2.656-4.375,2.563-4.313s-2.781,6.438-3.219,8s-0.375,2.219-0.375,2.219
		"/>
	<path fill="#5D3119" d="M104.217,128.895c1.612-0.15,6.257-0.768,8.865-1.123c-0.601-0.248-1.169-0.559-1.584-1.037
		c-3.544-0.84-8.576-2.119-8.658-2.623c-0.125-0.781,3.406-3.195,6.705-3.367c3.295-0.172,8.436-0.324,8.436-0.324l-19.113-17.648
		l-0.502,0.119c0,0,1.219,5.289,1.047,8.201c-0.168,2.91-1.24,5.445-2.506,6.531c-1.268,1.086-3.26,2.129-4.98,2.889
		c-1.717,0.758-15.306,3.637-15.306,3.637s10.819,1.533,12.019,3.021c1.201,1.486,0.348,3.627-1.145,4.549s-9.819,4.152-14.444,5.02
		c-4.625,0.869-11.801,2.791-11.801,2.791s3.024,6.318-0.31,10.461s-4.273,4.775-6.598,5.994c-2.326,1.217-2.653,1.67-6.001,2.01
		c-3.349,0.342-4.751,0.09-4.751,0.09s5.505,1.352,7.46,1.314c1.957-0.035,8.647-0.998,11.316-1.83
		c2.668-0.832,7.821-3.389,10.357-5.279c2.538-1.893,4.69-3.441,5.886-5.197c1.198-1.756,3.67-4.039,6.225-5.092
		c2.553-1.055,12.955-3.818,16.41-4.496c3.455-0.68,5.793-1.059,5.793-1.059l-8.322-5.66
		C98.715,130.785,101.928,129.104,104.217,128.895z"/>
	<path fill="#5D3119" d="M113.152,119.279c-0.367-0.16-12.109,2.881-12.246,3.021c-0.137,0.145-0.773,2.027-0.549,2.053
		c0.225,0.023,1.988,0.297,1.988,0.297l2.111-0.822l8.684-2.004l4.984-1.127"/>
	<path fill="#5D3119" d="M85.271,140.008c0,0-9.104,8.08-9.462,8.338c-0.36,0.258-4.951,4.424-4.951,4.424l-5.155,3.898l3.358-1.264
		c0,0,6.052-3.803,6.52-4.258c0.466-0.457,6.409-5.684,6.516-5.881c0.109-0.197,2.133-2.666,2.133-2.666l1.773-0.787l2.34-3.344"/>
	<path fill="#834421" d="M112.42,88.26c0,0,0.471-3.795-0.809-5.83c-1.281-2.037-1.877-5-3.381-6.645
		c-1.5-1.643-4.291-5.445-4.799-5.533c-0.508-0.086-3.486-1.369-4.348-1.18c-0.095,0.021-0.225,0.039-0.365,0.055
		c-0.084,0.055-0.169,0.107-0.27,0.139c-1.884,0.561-3.48,1.373-4.99,2.598c-0.028,0.033-0.04,0.066-0.073,0.1
		c-1.112,1.059-2.212,2.125-3.378,3.119c-0.945,1.445-2.449,2.672-2.979,4.301c-0.253,0.777-0.447,1.594-1.085,2.107
		c0.005,0.215-0.096,0.424-0.34,0.461c-0.616,0.094-1.182,0.164-1.77-0.084c-0.193-0.08-0.319-0.27-0.351-0.461
		c-1.009-0.17-2.229-0.357-2.957-1.1c-0.053-0.021-0.114-0.039-0.166-0.063c-1.944-0.857-12.041-8.502-12.041-8.502
		s0.039-1.922-0.206-2.775c-0.133-0.025-0.269-0.068-0.407-0.154c-0.718-0.443-1.456-0.848-2.072-1.434
		c-0.069-0.066-0.11-0.145-0.156-0.219c-0.555-0.191-1.13-0.303-1.654-0.223c-0.981,0.15-4.227,0.471-7.132,0.99
		c-5.327,2.316-11.76,5.486-15.308,9.951c-0.071,0.088-0.146,0.156-0.224,0.215c-0.436,1.473-0.771,3.395-0.372,4.352
		c0.187,0.445,0.426,1.121,0.694,1.873c0.467,1,0.968,1.992,1.288,2.996c0.047,0.148,0.06,0.285,0.055,0.414
		c0.238,0.496,0.475,0.906,0.699,1.154c0.957,1.057,1.78,1.998,1.78,1.998s-6.199,5.979-6.286,6.486
		c-0.089,0.508-3.81,9.434-3.81,9.434l-9.046,6.441l-0.006,0.004c-0.016,0.039-0.041,0.074-0.06,0.111
		c0.181,0.473,0.07,1.014-0.534,1.289c-1.48,0.672-2.723,1.699-4.233,2.342c-0.018,0.008-0.035,0.014-0.052,0.021
		c-1.755,1.811-3.884,3.266-6.131,4.387c-0.186,0.092-0.367,0.131-0.54,0.131L4.509,128.77l-2.254,5.057
		c0,0,1.726,16.416,3.083,17.82c1.358,1.404,5.532,3.6,6.797,3.754c1.266,0.158,10.757-0.301,10.757-0.301s0.024,0.123,0.066,0.33
		c0.351-0.123,0.819,0.135,0.667,0.584c-0.102,0.301-0.224,0.588-0.364,0.865c0.515,2.422,1.443,6.535,1.929,7.201
		c0.698,0.951,4.45,4.18,4.966,4.393c0.516,0.211,2.022,0.225,2.022,0.225s-0.683-2.455-0.814-4.201
		c-0.13-1.744,0.104-3.643,0.104-3.643s2.975,2.912,4.91,3.645c1.936,0.732,4.82,0.77,5.933,0.561
		c1.112-0.207,3.078-0.73,3.078-0.73s-4.192-2.445-5.005-3.262s-0.813-0.816-0.813-0.816s6.372,1.404,7.771,1.676
		c1.398,0.273,2.899-1.469,2.899-1.469l-1.576-2.641l2.957-0.922c-2.435-1.17-2.845-5.285,0.338-5.629
		c0.762-2.031,2.481-4.066,4.579-5.6c-0.918-1.27-1.247-2.881-0.687-4.299c-0.225-0.912-0.011-1.92,0.903-2.748
		c2.458-2.23,7.131-4.498,10.454-3.188c0.389,0.15,0.731,0.342,1.038,0.557c0.9-1.328,1.988-2.504,3.443-3.393
		c1.429-2.932,2.977-5.816,4.712-8.566c-0.192-6.873,8.795-13.965,13.885-16.785c1.607-0.891,3.715-1.904,5.861-2.408
		c1.352-0.592,2.738-1.041,4.154-1.318c-0.037-0.107-0.078-0.209-0.104-0.324c-0.25-0.355-0.406-0.758-0.471-1.166
		c-0.73-0.328-1.43-0.807-1.375-1.654c0.074-1.236,1.668-1.387,2.184-0.561c0.002-0.002,0.002-0.002,0.002,0
		c0.275-0.221,0.605-0.398,1.023-0.486c0.332-0.07,0.652-0.15,0.973-0.23l3.584-1.877c0.709-0.371,1.352-0.4,1.887-0.217
		c1.031-0.547,2.037-1.168,3.047-1.891c0.52-0.369,1.074-0.51,1.605-0.488c0.063-0.691,0.262-1.416,0.549-2.145
		c-0.016-0.271-0.004-0.547,0.08-0.832c0.061-0.268,0.123-0.533,0.18-0.801c0.002-0.887,0.018-1.773,0.066-2.662L112.42,88.26z"/>
	<path fill="#FFFFFF" d="M22.803,129.67c0,0-13.793-0.916-17.758-0.307c-3.966,0.607-4.968,0.621-4.968,0.621l1.218,2.039
		l1.96,1.922l11.418,7.736l2.218,1.15l3.714-1.467c0,0-0.768-3.578-0.846-3.76c-0.076-0.184,2.009-5.854,2.009-5.854l1.017-2.332"/>
	<path fill="#FFFFFF" d="M25.679,110.244c0.429,5.732,6.202,9.973,12.896,9.475c6.696-0.5,11.777-5.551,11.35-11.281
		c-0.427-5.732-6.202-9.973-12.896-9.473C30.333,99.461,25.252,104.514,25.679,110.244z"/>
	
		<ellipse transform="matrix(-0.9972 0.0743 -0.0743 -0.9972 127.3535 217.6441)" fill="#FFFFFF" cx="59.626" cy="111.192" rx="14.594" ry="13"/>
	
		<ellipse transform="matrix(-0.9972 0.0745 -0.0745 -0.9972 109.8584 221.1655)" fill="#0092FF" cx="50.802" cy="112.633" rx="5.188" ry="5.094"/>
	
		<ellipse transform="matrix(-0.9972 0.0744 -0.0744 -0.9972 68.6509 218.1266)" fill="#0092FF" cx="30.263" cy="110.342" rx="4.437" ry="4.344"/>
	<circle fill="#00426B" cx="50.334" cy="112.668" r="2.219"/>
	
		<ellipse transform="matrix(-0.9973 0.074 -0.074 -0.9973 67.9699 218.0879)" fill="#00426B" cx="29.946" cy="110.303" rx="1.875" ry="1.845"/>
	
		<ellipse transform="matrix(-0.9972 0.0741 -0.0741 -0.9972 112.5139 215.5461)" fill="#FFFFFF" cx="52.256" cy="109.861" rx="1.344" ry="1.312"/>
	<circle fill="#FFFFFF" cx="48.698" cy="115.108" r="1.031"/>
	
		<ellipse transform="matrix(-0.9973 0.0738 -0.0738 -0.9973 70.8866 213.9957)" fill="#FFFFFF" cx="31.489" cy="108.308" rx="1.125" ry="1.157"/>
	<circle fill="#FFFFFF" cx="28.633" cy="112.876" r="0.875"/>
	
		<ellipse transform="matrix(-0.9972 0.0744 -0.0744 -0.9972 127.2989 217.7337)" fill="none" stroke="#000000" stroke-width="0.75" cx="59.597" cy="111.236" rx="14.501" ry="13.042"/>
	<path fill="none" stroke="#000000" stroke-width="0.75" d="M45.908,115.887c-0.576-1.219-0.804-2.584-0.723-3.938
		c-0.171-1.195-0.081-2.547,0.356-3.701c0.173-0.912,0.587-1.805,0.984-2.613c0.373-0.758,0.814-1.449,1.363-2.037
		c-2.27-3.111-6.415-5.049-11.022-4.705c-6.653,0.494-11.703,5.531-11.279,11.244c0.427,5.713,6.167,9.943,12.823,9.447
		c3.088-0.229,5.815-1.449,7.823-3.248c-0.005-0.016-0.016-0.025-0.022-0.039C46.096,116.191,45.99,116.061,45.908,115.887z"/>
	<line fill="none" stroke="#000000" stroke-width="0.75" x1="26.518" y1="113.912" x2="4.177" y2="129.49"/>
	<path fill="none" stroke="#000000" stroke-width="0.75" d="M38.432,98.859c0,0,1.362-2.734,4.315-5.148
		c2.954-2.414,11.525-8.506,11.525-8.506s-6.026-1.807-7.271-2.527c-1.245-0.723-1.517-1.016-1.517-1.016s5.424-2.912,13.386-2.877
		c7.962,0.031,10.804,0.32,10.804,0.32s-2.369-3.207-2.811-4.928c-0.443-1.723-0.507-2.596-0.507-2.596s3.242,1.449,6.741,3.82
		c3.497,2.373,7.632,5.701,9.548,6.186c1.916,0.482,3.184,0.639,3.184,0.639"/>
	<path fill="none" stroke="#000000" stroke-width="0.75" d="M81.945,91.541c0,0,3.135-8.381,6.113-12.992
		c2.979-4.607,6.438-7.811,7.9-8.357c1.463-0.549,5.258-1.771,7.764,0.734c2.508,2.51,4.834,5.156,6.443,8.232
		c1.607,3.076,2.098,4.607,2.311,5.781c0.213,1.176,0.719,7.969,0.609,8.164c-0.111,0.199-0.652,2.182-5.59,4.053
		s-11.73,4.07-11.73,4.07"/>
	<path fill="none" stroke="#000000" stroke-width="0.75" d="M86.959,94.049c0,0,3.732-7.924,8.227-10.703
		c4.492-2.779,4.738-2.859,4.738-2.859"/>
	<path fill="none" stroke="#000000" stroke-width="0.75" d="M64.343,157.219c-5.277,1.52-13.892,1.977-13.892,1.977
		s2.071,1.725,3.23,2.141c1.158,0.414,1.158,0.414,1.158,0.414s-5.173,1.201-9.189,0.311c-4.015-0.893-5.321-1.609-5.321-1.609
		s3.382,3.32,4.287,3.691s0.904,0.371,0.904,0.371s-4.313,1.826-7.594,0.691c-3.28-1.133-5.872-3.949-5.872-3.949
		s-0.713,3.877-0.134,5.775c0.58,1.9,0.58,1.9,0.58,1.9s-1.716,0.502-4.418-2.115c-2.704-2.619-3.624-4.869-4.083-6.84
		c-0.46-1.971-0.29-4.744-0.29-4.744"/>
	<path fill="none" stroke="#000000" stroke-width="0.75" d="M98.453,100.275c0,0,2.998,5.73,7.479,9.533
		c4.482,3.803,12.762,10.58,12.762,10.58s-15.531,3.539-15.451,3.785c0.08,0.244,11.059,3.75,11.059,3.75l-14.672,2.41l7.783,6.063
		c0,0-19.744,4.166-22.678,6.014c-2.934,1.85-5.646,5.813-9.319,8.658c-3.674,2.84-5.797,4.631-11.072,6.15"/>
	<path fill="none" stroke="#000000" stroke-width="0.75" d="M0.576,129.947c0,0,4.018-0.738,10.273-0.893
		c6.257-0.152,13.196,0.459,16.263,1.232c3.064,0.775,5.541,2.031,5.541,2.031s-1.042,2.834-5.167,5.523
		c-4.124,2.689-10.84,5.07-10.84,5.07s-12.029-7.5-13.842-9.121C0.991,132.172-0.097,130.186,0.576,129.947z"/>
	<path fill="none" stroke="#000000" stroke-width="0.75" d="M41.17,153.244"/>
	<path fill="none" stroke="#000000" stroke-width="0.75" d="M2.556,133.811c0,0,0.952,11.086,1.793,13.967
		c0.843,2.883,2.057,5.738,4.39,6.756c2.331,1.018,5.547,1.279,10.738,1.143l11.826-0.547c0,0,0.75,0.168,1.167,0.5
		c0.417,0.334,0.917,2.168,0.5,2.25c-0.417,0.084-2.667,0.416-3.25,0.334c-0.583-0.084-1.917-1.334-1.917-1.334
		s-0.917-1.082-0.333-1.75"/>
	<path fill="none" stroke="#000000" stroke-width="0.75" d="M18.257,142.666c0,0,0.393,6.113,1.267,7.74
		c0.874,1.629,3.894,5.162,3.894,5.162"/>
	<path fill="none" stroke="#000000" stroke-width="0.75" d="M45.662,91.613c0,0-3.767-4.295-4.463-7.752
		c-0.696-3.459-0.281-5.432,1.468-7.191c1.751-1.76,7.882-6.104,11.414-7.494c3.53-1.391,7.511-1.813,9.773-1.73
		c2.262,0.08,3.114,0.582,3.865,1.402c0.75,0.82,0.987,4.002,0.987,4.002"/>
	<path d="M20.361,129.705c0,0-12.487,1.768-11.882,3.141c0.604,1.377,11.291,9.102,11.291,9.102s8.903-5.008,10.151-6.188
		c1.25-1.18,3.229-3.205,2.731-3.441c-0.498-0.234-9.764-3.471-12.232-2.953"/>
	
		<ellipse transform="matrix(-0.4637 -0.886 0.886 -0.4637 -19.9568 211.1541)" fill="#FFFFFF" cx="53.929" cy="111.617" rx="8.084" ry="8.542"/>
	
		<ellipse transform="matrix(-0.4637 -0.886 0.886 -0.4637 -47.3557 190.0157)" fill="#FFFFFF" cx="33.833" cy="109.341" rx="7.75" ry="7.958"/>
	<polygon points="27.428,155.547 31.678,155.504 32.928,156.379 33.053,157.629 30.844,158.129 29.094,158.004 27.511,156.713 	"/>
	<path d="M46.49,112.588c0,0,0.313,1.688,1.125,2.75s1.813,2,2.625,2.5s1.813,0.813,2.813,0.938s3.188,0.125,3.75,0.063
		s2.188-0.5,3.25-1.125s1.5-1,2.188-1.75s1.25-1.438,1.563-2.188s0.813-2.375,0.813-2.375s-0.438,4.25-1.375,5.563
		s-2.5,2.5-3.313,2.813s-1.563,0.813-2.75,0.875s-4.375-0.125-5.125-0.5s-3.313-1.625-4.125-2.813s-1.375-3.125-1.375-3.625
		S46.49,112.588,46.49,112.588z"/>
	<path d="M45.233,115.025c-0.042-0.611-0.164-1.191-0.188-1.793c-0.433,0.41-0.871,0.729-1.618,1.168
		c-1.063,0.625-2.688,1.063-3.25,1.125s-2.75,0.063-3.75-0.063s-2-0.438-2.813-0.938s-1.813-1.438-2.625-2.5s-1.125-2.75-1.125-2.75
		s0.063,0.625,0.063,1.125s0.563,2.438,1.375,3.625s3.375,2.438,4.125,2.813s3.938,0.563,5.125,0.5s1.938-0.563,2.75-0.875
		c0.486-0.188,1.239-0.691,1.967-1.342C45.261,115.086,45.235,115.063,45.233,115.025z"/>
</g>
</svg>
