<?xml version="1.0" encoding="utf-8"?>
<!-- Generator: Adobe Illustrator 13.0.0, SVG Export Plug-In . SVG Version: 6.00 Build 14948)  -->
<!DOCTYPE svg PUBLIC "-//W3C//DTD SVG 1.1//EN" "http://www.w3.org/Graphics/SVG/1.1/DTD/svg11.dtd">
<svg version="1.1" xmlns="http://www.w3.org/2000/svg" xmlns:xlink="http://www.w3.org/1999/xlink" x="0px" y="0px"
	 width="297.021px" height="173.75px" viewBox="0 0 297.021 173.75" enable-background="new 0 0 297.021 173.75"
	 xml:space="preserve">
<g id="frame_1">
	<path fill="#FFA82B" d="M65.1,29.042l7.5-5.333l11.667-15.5l3-2.5c0,0,8.5-3.5,10.5-3.667s7-0.5,7.5-0.5s5.5,1.833,5.5,1.833
		s2.167,2,2.667,2.333s4.5,3.667,5.667,4.5s3.667,4.667,3.667,4.667s-0.666,6.833-0.833,7.833s-0.667,5.167-2.333,9
		s-4.667,8.333-5.5,9s-8.333,2.833-8.833,2.833s-12,0.667-12.5,0.667s-5.5-3.167-6-3.333s-11.333-3.833-12.333-4.5
		S66.1,31.542,66.1,31.542L65.1,29.042z"/>
	<path fill="#FFA82B" d="M295.767,115.376l-2.5-10.167l-2.834,1l-1,3.5l-0.833,4c0,0,0.666,3.999,0.333,5.833s-1,4.834-1.5,6.167
		s-0.5,1.166-1.833,2.833s-0.333,2.001-2,2.834s-3.166,1.499-6.166,1.666s-6,0.001-10-0.666s-7.668-2.5-9.334-3.667
		s-4.332-3.833-5.666-6.333s-4.001-9-4.334-10.5s-2.333-7.332-3.333-10.666s-3.167-10.334-4-11.167s-3.001-5.001-4.667-5.667
		s-4.499-3.833-6.166-4.5s-2.666-3.667-5-5s-5.001-3.499-6.001-3.667c-1-0.166-7.166,0-8.833,0s-4.5,0-6.5,0.334
		c-2,0.333-4.834,0.834-8.667,1s-6.499,0-9.166,0s-8.833-0.334-11.5-1.334S165.6,68.21,163.6,68.043s-9.334-1.833-10.667-2.333
		s-7.833-2.833-8.833-2.833s-11.833-3.167-11.833-3.167l-1.833-0.168l-18.5,18.167c0,0,2.667,21.499,2.667,21.999
		s9.667,13.334,9.833,13.834s3.5,6.5,3.5,6.5l3.5,7l0.833,3.667c0,0-10,27.333-10.5,27.5s-12.333,1-14,1.667
		s-4.666,2.833-6.333,4.333s-3.333,4-3.333,4s3.167,1.833,5,2.5s9,1.334,10.833,1.167s9.333-1.667,9.333-1.667
		s5.333-5.333,5.333-5.833s3.667-12.999,4-13.833s8.833-9.167,9.333-9.667s6.833-5.166,5.833-5.5s-3.166-1.334-2.833-1.834
		s2.999-7.5,2.833-9.333s2.834-10.833,2.834-10.833l0.999,0.166c0,0,2.834,4.001,3.834,3.834s13.833-3.667,13.833-3.667l9.167-1.667
		l8.61,3.815c0.206-0.202,0.496-0.301,0.853-0.157c1.11,0.446,2.337,0.544,3.354,1.222c0.186,0.123,0.301,0.279,0.367,0.446
		c0.801,0.166,1.536,0.449,1.977,1.272c0.009,0.016,0.007,0.031,0.014,0.047c2.11,0.852,5.168,2.081,5.492,2.188
		c0.5,0.166,6.166,3.667,7.166,4s4,1.833,4,1.833s-1.5,7.333-3,11.333s-3.667,7.5-4.667,10.167s-2.5,5.833-3.833,8s-4,5.833-4,5.833
		s-9.167,0.166-11.167,0.5s-4.167,1.334-5.5,2.334s-3.166,2.333-3.833,3.333s-2,2.5-2,2.5l2.667,0.667c0,0,0.167,0.666,2,0.833
		s5.833,0.167,5.833,0.167l-0.833,0.5c0,0,2.5,0.334,5,0.5s8.5-1.5,8.5-1.5l6-1.167c0,0,7.332-13.167,9.166-16.5s6.5-13.333,7-14
		s4.667-11.666,4.167-11.833s2.5-8,2.5-8s-0.453-1.302-1.053-3.045c-1.352-2.472-2.398-5.067-3.122-7.826
		c-0.077-0.293,0.015-0.654,0.223-0.902c-0.031-0.116-0.048-0.194-0.048-0.227c0-0.5,4-6.334,4.5-7.334
		c0.299-0.597,1.604-2.318,2.61-3.612c0.756-1.247,1.694-2.523,2.883-3.031l1.507-1.356l1.5-3.666c0,0,4.833,9.5,5,11
		s3.166,12.499,3.5,14.666s5.5,10.834,6.167,11.334s10.999,10.167,11.499,10.5s9.167,2.333,11.167,2.333s8.666,0.834,9.333,0.667
		s6.834-0.667,6.834-0.667s2-0.167,5-4.667s3.332-6,4.166-8.333S295.767,115.376,295.767,115.376z"/>
	<path fill="#B2751E" d="M107.392,52.875L111.142,69l5.25,2c0,0,7.5-3.75,7.875-4s4.75-4.625,4.75-4.625l2.25-1.625l-0.375-1
		c0,0-5.75-3.75-7.875-6s-9.75-8.5-10.25-8.5s-1.875,7-1.875,7L107.392,52.875z"/>
	<path fill="#7F5415" d="M165.642,117.25c0,0,4,2.125,6.625,3.5s8.875,3.625,9.25,3.875s3.125,1,3.125,1s-5.5,16.5-5.75,17.375
		s-2.75,5.25-2.75,5.25l-5.875,10.375l-0.375,0.875c0,0-5.125-1.5-7-1.25s-6.625,1.375-7.5,2s-2.5,1.875-3.375,3
		s-2.5,3.875-2.5,3.875l1.75,0.125l-0.125,0.875l8.125-0.125l-0.75,1.25c0,0,6.5,0.25,7.875-0.125s8-1.875,8-1.875l0.875-0.25
		c0,0,5.625-9.625,9-14.25s9-10.875,9-10.875l13.75-13.375l-10.625,2.125l8-7.25c0,0-9.625-5.375-10-5.5s-10.25-6-10.25-6
		l-3.5,1.875l-8.75-0.125l-5.75,3.5"/>
	<path fill="#7F5415" d="M107.767,119.5l3.75,11.625l-9.875,23.125c0,0-6.75,0.625-8.25,1s-7.5,4-9.375,5.75
		s-2.625,2.625-2.625,2.625s1.625,1.75,2.25,1.875s1.375,0,1.375,0l0.5,0.5l2.25,0.25l3.125,0.125L91.767,167l0.75,0.25l2.875-0.125
		l2.875,0.125c0,0,3.125-3.625,4.5-4.375s5.625-3,5.625-3l2.625-0.25l6.25-13.625l12.5-7.75l-0.125-0.75l-3.625-2.5l5.875,0.125
		l-1.25-2.625c0,0-1-1.25-1.25-2.625s0.375-4.625,0.375-4.625l-16.75-5.875L107.767,119.5z"/>
	<path fill="#B2751E" d="M231.392,93.5c0,0-7.875,5.25-10.625,7.625s-5,6.875-5.25,8.875s-1.25,4.25,1.25,7.375s5.75,7,5.75,7
		l-8,10.125l3.25-0.625c0,0-10.875,14.5-12.875,18.875s-6.5,13.625-7,14.125s-3.625,5.5-3.625,5.5l7-1.625c0,0,8-13.25,8.375-14
		s8.25-10.375,9.375-11.875s9.625-10.25,9.625-10.25l6.25-5.875l-10.875,2l9.5-8.625L224.267,110c0,0,4.5-8.125,5.25-9.875
		S231.392,93.5,231.392,93.5z"/>
	<path fill="#B2751E" d="M152.267,111.25l-0.09-1.617L152.142,109c0,0-5.125,4.5-5.875,7s-2.125,10.625-2.375,13.375
		s0.25,3.625,0.25,3.625l-7.25,0.25l5.5,5.375c0,0-2.25,0.125-4.875,2s-5.75,5.25-6.875,7.5s-2.375,5.375-2.75,7.625
		s-1,6.375-2.125,8s-5.625,7.375-5.625,7.375l8.5-2.125l11.125-21.125l16.5-9.125l-5.75-2.625l6.5-0.125c0,0-4.5-7.625-4.75-9.375
		s0.375-10.5,0.375-10.5"/>
	<path fill="#B2751E" d="M152.517,113.75c0,0,8.625-2.25,12-3.375s8.75-2.5,10.25-2.875s6.5-1.625,6.5-1.625l3.625,5.125
		c0,0-16.375,4.5-16.75,4.625s-12.25,3.75-12.25,3.75l-3.5,0.375L152.517,113.75z"/>
	<path fill="#B2751E" d="M231.767,87.5c0,0,1.875,1.375,4.625,6.75s4.25,10.125,5.125,13.375s4.75,11.125,7,14.5
		s8.25,10.5,13.125,12.5s6.625,2.75,10.5,3.125s9.75,0.625,10.125,0.625s5.5,0.375,5.5,0.375s-2,1.5-3.25,1.875
		s-8.75,1.5-9.75,1.375s-10.875-1.125-14.25-2.5s-8.125-4-8.625-4.5s-5.375-6.625-5.375-6.625l-4.25-6.625l-1.5-3.25l-3.5-13.125
		l-1.25-4.625l-3.125-6.375l-1.5-0.875L231.767,87.5z"/>
	<ellipse fill="#FFFFFF" cx="95.392" cy="22" rx="10.75" ry="10.5"/>
	<ellipse fill="#FFFFFF" cx="77.767" cy="19.938" rx="8.875" ry="7.688"/>
	<path fill="#FFFFFF" d="M103.392,7.375c0,0-3.25,0.625-6.25,2.25s-7,5-7,5s-5.375,10.25-5.875,11.875s-0.375,4.75,0.5,6
		s0.75,1.75,3.5,2.375s8.5,0.625,11.125,0.5s6.125-4,6.125-4l4.5-6c0,0,1.125-3,0.625-5.375s-1.625-9.125-3.125-10.125
		s-3.625-3.125-3.625-3.125"/>
	<path fill="#FFFFFF" d="M85.142,7.25c0,0,0.875,4.375,0,6.625s-4.5,9.5-4.5,9.5s-4.25,5-4.625,5.125s-0.625,0.375-1.625,0.125
		s-4.875-2-4.875-2l3.625-4.5L78.392,14l-2-1.125l0.875-1.25l8.125-4.875"/>
	<path fill="#FFFFFF" d="M123.267,17.125l22.375-7.25c0,0-0.5,4.5-2,6.875s-5,5.625-6.25,6.75s-5.625,3.5-6.875,4.125
		s-3.625,1.875-4.625,2.25s-1.5,0.625-1.5,0.625L123.267,17.125z"/>
	<path fill="#FFFFFF" d="M66.392,44.5c0,0-6.875-8.375-7.25-9.5s-0.75-3.25-0.5-3.875s1.25-2,1.25-2l3.5-0.375l5.125,0.5l7.25,2.5
		l2.375,3l-4.125,0.875l-8.125,0.5l1,8.375"/>
	<path fill="#FFFFFF" d="M59.017,34.125c-0.375,0-2,2.375-2.375,3.375s-0.75,3.5-0.875,4.375s0.625,4,0.75,4.625s1.5,3.25,1.5,3.25
		s-0.375,1.875-0.625,3s-1.125,3.875-1.125,5s0,3.75,0.125,4.625s0.25,3.75,0.5,4.5s0.875,2.375,1.25,3s0.75,1.625,1.5,2.25
		s1.5,0.875,1.5,0.875l1.125-1l2.125,1.875c0,0,1.5,1,2,0.875s1.125-0.5,1.25-0.875s0.25-2.375,0.25-2.375l1.125,0.375
		c0,0,2.25,2.5,2.875,2.375s1.375-0.375,1.375-0.375l0.25-2.75l0.875-0.875h3.625l1.625-1l-1-2.625L77.517,64l6.25-5.25l3.625-7.625
		c0,0,8.875-3.5,9.5-3.25s9.125-1.75,9.5-1.5s4-2.25,4-2.25l4-1.375l3.5-7l-0.875-3.375c0,0-5.625,5.75-6.5,6.25
		s-6.75,1.875-7.125,2s-2.875,0.25-7.25-0.25S86.517,38.25,85.267,38s-4-2.125-4-2.125l-5.875-0.125"/>
	<path fill="#FFFFFF" d="M112.642,75.125c-0.375,0.25,1.125,14.5,2.5,20.125s1.875,8,4.625,10.75s8,6.75,8,6.75l1,7.375
		c0,0-9.5-2.5-10.5-2.625s-7.875-3.625-8.5-4.375s-4.875-7.875-5.125-8.5s-0.625-12.25-0.75-13.375s2.75-10.5,2.75-10.5
		s4.25-4.375,4.625-4.625"/>
	<path fill="#B1B1B1" d="M122.267,18.875l-6.125,14.75l-0.75,7.75L110.142,40l-2,0.375l-0.5,3.375c0,0-6.375-0.25-9.25,0.75
		s-8.25,3.125-10.5,5.25s-3.625,2.625-4.5,4.375s-1.375,5.5-1.375,5.75s4.625-3,4.625-3l4-1.875l1.875-0.25l0.375,4.375
		c0,0,1.5,12.375,1.375,15.125s-2.875,13.875-4.125,17.125S80.892,116,80.892,116l9.375-7.625c0,0,4,8.75,7.75,11.875
		s9.75,6.375,9.375,6.25s-4.25-4.5-4.625-6.25s-0.375-4.625-0.375-4.625s3.125,2.875,5.125,4.5s7,4.375,9.5,5.25
		s7.625,1.875,7.625,1.875l6.75-0.125l-2.75-10c0,0,1.125,1.375-7-0.375s-4.375-1.625-6.125-2.375S112.142,112,112.142,112
		l8.375-0.375c0,0-3.5-1.75-6.125-3.625s-4.25-4.625-5.875-8.875s-1.875-6.25-1.75-10.125s1.75-7,2.25-10.125s2.625-7.75,2.625-7.75
		S111.017,65,110.392,63s-2.75-8.375-2.75-8.375l14.5,3.375c0,0-8.625-10.125-8.25-9.875s14.5,10.25,14.5,10.25l-6.25-16.25
		L133.642,55c0,0-6.25-15.25-7.125-16.625s-2.125-8.5-2.125-8.5s-0.75-5.75-0.875-6.875s-0.875-4.75-0.875-4.75"/>
	<path fill="#B1B1B1" d="M152.767,115.375c0,0-0.375,6.5-0.375,7s2.25-0.25,2.25-0.25l9.25-3.875l7.125-2.125
		c0,0,4.5-0.625,4.875-0.75s6.625-0.875,6.625-0.875l4.25,0.875l4.625,1.625c0,0-3.875-3.5-4.5-3.875s-2.25-2.375-2.25-2.375
		s-2.125-0.75-2.5-0.625s-6.375,0.25-6.375,0.25l-5.125,1.125l-8.375,1.875l-6.5,1.5L152.767,115.375z"/>
	<polygon fill="#B1B1B1" points="197.392,120 209.517,128.25 210.767,124.75 	"/>
	<ellipse fill="#0092FF" cx="88.642" cy="23.313" rx="4.25" ry="3.688"/>
	<ellipse fill="#0092FF" cx="73.079" cy="20.188" rx="3.688" ry="3.188"/>
	<circle fill="#00426B" cx="88.142" cy="23.125" r="1.5"/>
	<circle fill="#00426B" cx="72.517" cy="20.25" r="1.25"/>
	<ellipse fill="#FFFFFF" cx="90.017" cy="21.5" rx="1.375" ry="1.125"/>
	<ellipse fill="#FFFFFF" cx="86.517" cy="25.438" rx="1" ry="0.938"/>
	<ellipse fill="#FFFFFF" cx="74.579" cy="19.063" rx="1.188" ry="1.063"/>
	<ellipse fill="#FFFFFF" cx="70.767" cy="22.125" rx="0.75" ry="0.625"/>
	<path fill="none" stroke="#000000" stroke-width="0.75" d="M77.267,11.5c0,0,3.625-2,6.375-3.5s7.125-3.75,10.25-4.75
		s4.625-0.75,7.125-0.875s4.125-0.375,5.75,0s3.375,0.75,6.5,3.125s5.875,4.875,7.625,8s2.375,4.5,2.625,8.125
		s-0.125,4.875,0.875,9.625s0.5,4.625,2.625,8.625s6.625,15.875,6.5,15.5S121.392,42.25,121.392,42.25l7,16.375l-14.75-10.375
		l7.875,9.625c0,0-7-1.5-11.625-2.5s-14-1-16.25-0.75s-7.625,2.375-9.75,4s-6.5,5.25-6.5,5.25s1,3.25,1.5,4.25s0.625,1.75,0,2.25
		s-2.875,0.125-3.25,0.125s-2-0.25-2-0.25"/>
	<path fill="none" stroke="#000000" stroke-width="0.75" d="M73.392,68.875l-0.125,5c0,0-0.5,0.625-0.875,0.75
		s-2.375-1.25-2.375-1.25l-3.625-4.25"/>
	<path fill="none" stroke="#000000" stroke-width="0.75" d="M67.392,70.125c0,0,0.625,2.5,0.25,3.5S66.767,75,65.392,74.75
		S62.517,72,62.517,72l-1.375-2.75"/>
	<path fill="none" stroke="#000000" stroke-width="0.75" d="M62.392,71.375c0,0-0.625,1-1.375,1.5s-2.75-0.75-3.625-3.5
		s-1.625-7.25-1.5-9.5s0.75-5.875,1-6.75s0.375-2.75,0.375-3.25s-0.875-2.5-1.375-4.25s-0.25-3.5,0-5.125s2.375-6.125,2.375-6.125"
		/>
	<path fill="none" stroke="#000000" stroke-width="0.75" d="M59.017,30.25c0,0-0.625,0.25-0.5,2.375s-0.125,1.75,1.25,4s6.5,9,6.5,9
		s3-1.75,4.375-2.625s9.625-6,9.625-6l1.125-0.875c0,0-3.25-3.5-6.25-4.75s-8.5-2.5-10.125-2.5s-6,0.75-6,0.75"/>
	<line fill="none" stroke="#000000" stroke-width="0.75" x1="65.517" y1="28.875" x2="71.017" y2="24.875"/>
	<line fill="none" stroke="#000000" stroke-width="0.75" x1="66.267" y1="45.625" x2="65.517" y2="51"/>
	<path d="M59.017,49.875c0,0,0.238,0.015,0.636,0.043c1.62,0.115,5.883,0.456,7.489,0.957c2,0.625,9.875,5.5,9.875,5.5
		s-3.75-1.625-4.75-2.125s-4.875-2.25-5.625-2.5"/>
	<path d="M108.767,2.625L121.642,0l-6,7c0,0-5.125-3.375-6-3.875"/>
	<path d="M119.142,10.625l26.875-1.5c0,0,0.125,1-0.625,1.25s-8.375,2.5-9.125,2.75s-6.25,2.125-8.375,3.25
		s-4.625,2.375-4.625,2.375s-1.875-4.625-2.375-5.25S119.142,10.625,119.142,10.625z"/>
	<path fill="none" stroke="#020202" stroke-width="0.75" d="M124.392,30.375c0,0,3.875-1.125,6.25-2.5s6.375-4,8.5-5.75
		s4.75-5,5.25-6.75s0.75-2.625,1-3.5s0.125-2.25,0.125-2.25"/>
	<path fill="none" stroke="#000000" stroke-width="0.75" d="M62.392,29.25c0,0-3.75-0.125-3.875,1.875"/>
	<ellipse fill="none" stroke="#000000" stroke-width="0.75" cx="95.079" cy="22.25" rx="11.063" ry="10.375"/>
	<path fill="none" stroke="#000000" stroke-width="0.75" d="M84.281,23.876c-0.097-0.151-0.135-0.33-0.237-0.475
		c-0.149-0.212-0.09-0.439,0.056-0.604c0-0.008-0.005-0.013-0.005-0.021v-1.152c0-0.01,0.005-0.016,0.006-0.025
		c-0.003-0.033-0.009-0.063-0.006-0.1c0.02-0.214,0.105-0.416,0.125-0.625c0.003-0.029,0.016-0.05,0.021-0.077
		c0.033-0.625,0.148-1.231,0.373-1.819c0.041-0.107,0.109-0.179,0.185-0.236c0.023-0.057,0.053-0.111,0.079-0.167
		c-0.022-0.11-0.021-0.228,0.041-0.352c0.29-0.579,0.587-1.157,0.96-1.687c-1.408-2.606-4.362-4.412-7.8-4.412
		c-4.798,0-8.688,3.498-8.688,7.813s3.89,7.813,8.688,7.813c2.468,0,4.684-0.935,6.265-2.421
		C84.284,24.858,84.273,24.37,84.281,23.876z"/>
	<line fill="none" stroke="#000000" stroke-width="0.75" x1="75.517" y1="12.375" x2="79.642" y2="10.125"/>
	<path d="M112.517,19.875c0,0-0.136,0.256-0.367,0.688c-1.079,2.018-4.229,7.87-5.258,9.312c-1.25,1.75-5.375,5.125-6.5,5.875
		S95.767,38,95.767,38s6.5-1.125,7.875-1.75s3.5-2.75,4.75-4.625s2.125-3.375,2.5-4.75"/>
	<path d="M115.017,29.375c0,0-1.875,3.875-3,5.375s-5.125,4.625-5.625,4.75s-0.5,0.125-0.5,0.125S111.142,39,112.517,38
		s2.25-2.25,2.375-3.125S115.017,29.375,115.017,29.375z"/>
	<path d="M76.267,32.5c0,0-7.625-0.375-9.625,0s-4.25,1-4,2.625s3,9.125,3,9.125l1.375,1.625l4.875-3.5l9.5-6.25l-4.625-3.75"/>
	<path fill="none" stroke="#000000" stroke-width="0.75" d="M125.267,56.75c0,0,5.125,3.5,12.625,5.25s15.375,4.25,23.625,5.875
		s16.625,4.875,23.5,5.125s10.125,0.125,16.625-0.875s10-0.875,13.5-0.875s4.375,0.875,7.625,2.75s5.125,3.5,6.875,7.75
		s2.25,2.125,2.125,6.25s-0.5,6.625-1.5,10.25s-2.5,5.625-3.5,7.5s-2.625,4.875-2.625,4.875L233.517,122l-9.375,8.875l10.375-2
		c0,0-7,6.875-11.125,11.375s-10.25,11.375-12,14s-10.375,16.625-10.375,16.625s-7.625,1.875-10.625,2.25s-6.875,0.25-7.375,0.125
		s-2.25-0.75-3.75-0.75s-4.5-0.875-4.5-0.875l-2.25-0.875c0,0,0.625-1.625,2.375-3.375s2.5-2.375,4.25-3.25s3.75-1.625,6-1.875
		s10.125-0.125,10.125-0.125s5.5-8.875,7.125-12.625s6.125-16.75,6.125-16.75l2-8.125c0,0-9.625-2.375-12.625-4.25
		s-3.625-1.125-8.5-5.125s-5.5-5.25-7.25-8s-3.25-8.125-3.125-10.5s1.5-7.75,5.125-12.125S193.267,75,193.267,75"/>
	<path fill="none" stroke="#000000" stroke-width="0.75" d="M92.392,54.75c0,0,0.5,5.5,0.875,9.375s1.375,11.5-0.375,18.5
		s-11.875,33.25-11.875,33.25l9.5-7.375c0,0,2.75,7,6.375,10.75s10.375,7.25,10.375,7.25s-3.375-3.25-4.375-5.875
		S102.267,116,102.267,116s5.25,5.125,9.625,7.125s7.125,4,10.875,4.25s8.75,0,8.75,0"/>
	<path fill="none" stroke="#000000" stroke-width="0.75" d="M126.142,107.875l6.125,22.625l-10.875,27.625c0,0-6.75,0.5-9.125,0.875
		s-4.5,0.875-6.625,2.125s-5,3.875-5.75,4.875s-1.75,2.125-1.75,2.125s1.375,1.375,3,1.875s4.125,1.625,8.5,1.875
		s7.25-0.125,10.375-0.5s8.875-2.125,8.875-2.125l10.75-21.25l16.875-9.25l-6.25-2.75l6.75-0.125c0,0-3.375-3-4.125-7
		s-0.5-18.875-0.5-18.875"/>
	<path fill="none" stroke="#000000" stroke-width="0.75" d="M152.767,123c0,0,9.125-3.875,13.125-5.125s6-1.5,9.5-2.125
		s6-0.875,8.75-0.625s7.875,2.125,7.875,2.125"/>
	<path fill="none" stroke="#000000" stroke-width="0.75" d="M165.892,117.875c0,0,8,4.25,10.125,4.875s8.625,3,8.625,3
		s-5,15.125-5.75,17.125s-8.625,16.375-8.625,16.375s-7.625-0.875-10-0.5s-5.25,1.5-6.75,3s-4.25,5.25-4.25,5.25l2,0.25
		l-0.125,1.125h7.875l-0.625,1c0,0,8.375-0.25,11.25-0.875s5.25-1.125,5.25-1.125s2.875-4.25,4.25-6.125s5.75-9.25,8.125-12.5
		s19-20,19-20s-10.5,2.25-10.125,2s7.75-6.25,7.75-6.25"/>
	<path fill="none" stroke="#000000" stroke-width="0.75" d="M209.517,127.75c-0.375,0-7.625-4.375-10.25-5.875
		s-5.75-3.625-5.75-3.625"/>
	<path fill="none" stroke="#000000" stroke-width="0.75" d="M108.767,121.125l2.375,10.125l-9.5,23.375c0,0-6.125,0.25-8.375,0.875
		s-5.625,1.875-6.875,3.125s-5.125,5-5.125,5s1.75,1.75,2.75,1.75s1.625,0.75,1.625,0.75s2.625,0.375,4.25,0.375
		s1.875,0.75,1.875,0.75h6.125"/>
	<polyline fill="none" stroke="#000000" stroke-width="0.75" points="111.267,159 117.142,146 129.392,139.125 	"/>
	<path fill="none" stroke="#000000" stroke-width="0.75" d="M129.642,137.5l-3.125-2.25l4,0.25l0.75-2c0,0-1.75-2.625-1.875-3.625
		s0-2.375,0-2.375"/>
	<path fill="none" stroke="#000000" stroke-width="0.75" d="M231.642,92.75c0,0,1.5,2.125,2.5,4.125s2.875,6.25,3.5,9.125
		s2.625,10.25,3.5,13s2.625,6,4.5,8.375s3.625,6.5,8.5,9.375s6.25,3,11.375,4.125s12.5,1.375,15.375,0.625s5-0.25,9.25-4.625
		s6.625-11.375,6.5-14.25s-0.375-11.625-1-15.625s-1.625-8.5-3.875-9.25s-4.625-0.125-5.375,1.5s0.125,5.625,0.75,8.625
		s1.75,7.5,1.5,10.875s-0.125,2.625-0.75,5.375s-0.061,2.917-2.625,5.25c-4.167,3.792,0.083,0.917-3.083,2.751
		c-3.194,1.851-3.667,1.124-6.292,1.249s-4.125,0.25-7.5-0.5s-4.875-0.25-8-2.375s-2.75-1.125-6-4.875s-3.75-6.125-5.25-10
		s-1.75-6.125-3.375-11.125s-3.625-10.75-4.875-13s-2.375-4.375-4.375-6.125s-2.875-2.5-4.5-3.75s-2.875-1.75-2.875-1.75"/>
	<path d="M128.517,60.875l-19.375,19.5c0,0-0.5-1,1.25-5.75s3.375-6.375,5.125-7.875s4.375-3.5,5.875-4.125
		S128.517,60.875,128.517,60.875z"/>
	<path d="M125.392,57.375c0,0-4,2.375-5.25,3s-7.625,1.875-7.625,1.875s0-0.5,1.25-2.125s3.5-3.25,3.5-3.25l4.25,1l-1.25-1.625
		l3.5-0.125l2.25,0.875"/>
	<path d="M132.017,64.625l0.125-0.75c0,0-2.75,6.75-4.625,9.25s-2.375,2.375-5.75,4.875s-4.375,2.625-6.5,5.875s-3,3.25-3.875,7.125
		s0,14.125,0,14.125s1.125-3.375,1.5-6s0.25-2.375,1.375-4.75s1.5-3.625,4.875-7.25s3.5-3.25,6.25-6s3.25-2.625,4.375-4.875
		s1.5-4.5,1.875-6.125s0.875-5.75,0.875-5.75"/>
	<path d="M143.142,68.25c0,0-6.125,4.125-8.625,6.75s-4.125,5.25-5.25,7.875s-2.125,4.75-2.5,8.125s0.125,8.125,0.375,10.375
		s0.875,2.375,0.875,2.375s0.5-2.5,1.25-6.75s1.625-7.125,3.125-11s2.125-5.5,4.125-8.375s6-9.375,6-9.375"/>
	<path d="M152.392,70.125c0,0-4.875,5.875-5.875,10.375s-1.125,9.125-0.875,11.25s0.875,4.25,2.125,6.5s3.125,5.25,3.125,5.25
		s-0.625-8.75-0.875-9.5s0.125-8.125,0.375-10.625s1.375-9.125,1.375-9.125L152.392,70.125z"/>
	<path d="M160.767,70.875c0,0-0.5,21.25-0.5,24.5s-0.375,18.875-0.375,18.875s2.375-4.125,3.125-8.375s1.625-11.75,1.625-15.125
		s-0.375-7.5-0.75-10.125s-2.625-9.5-2.625-9.5"/>
	<path d="M174.642,72.875c0,0,0.625,13.75,0.375,20.5s-1.625,19.875-1.625,19.875s2.5-4.625,3.5-7.25s2.25-6.5,2.25-6.5
		s0.25-4.125,0.5-5.5s0-7.75-0.125-9.125s-3.375-10.625-4.125-11.75"/>
	<path d="M188.142,76.125c0,0,0.625,7.25,0.125,12.25s-3,22.25-3,22.25s0.625,0.625,2.625-3.875s3.625-8.25,4-11.75
		s0.625-8.625,0.25-10.5S188.142,76.125,188.142,76.125z"/>
	<path d="M199.267,74.5c0,0,0.625,9.625,0.375,13.375s-0.375,7.75-1.125,11.375S194.892,116,194.892,116l4-5.625
		c0,0,1.5-2.25,2.25-5.125s2.625-10.5,2.625-13.125s0.625-6.625-0.5-9.625S199.267,74.5,199.267,74.5z"/>
	<path d="M218.142,73.75c0,0-5.125,16.5-6.375,19.625s-4.75,13.625-7.25,17.75s-3.75,6.5-3.75,6.5s4-1.875,6.375-4.75
		s3.125-4.125,5.25-8.125s2.875-5.375,3.875-8.5s2.125-6,2.125-9.125S218.142,73.75,218.142,73.75z"/>
	<path d="M235.267,89c0,0,0.25,6.5,0.5,7.875s0.625,1.75,0.75,1.375s0.625-3.375,0.5-4.5S235.267,89,235.267,89z"/>
	<path d="M241.267,100.625c0,0-0.069,0.244-0.183,0.667c-0.19,0.709-0.504,1.923-0.817,3.333c-0.5,2.25-0.25,5.5-0.25,5.5
		s0.875-1.5,1.125-2.25l0.5-6.5"/>
	<path d="M243.017,112.375l0.125,8.5l1.375-3.125c0,0,0.125-0.5-0.125-1.875s-0.75-2.75-0.75-2.75"/>
	<path d="M248.392,122.75c0,0-0.625,1.625-0.75,3.25s0.875,3.875,0.875,3.875s0.875-0.875,0.875-1.75s-0.5-5.5-0.5-5.5"/>
	<path d="M255.767,129.75c0,0-1.25,0.875-1.375,2.5s1.125,3.75,1.125,3.75l1.5,1.375L255.767,129.75z"/>
	<path d="M263.392,134.875c0,0,0.375,2.125,1.875,3.25s4.375,2.125,4.375,2.125l2.125-0.125l-5.5-3.25L264.392,135"/>
	<path d="M274.267,137.375c0,0,1.75,1.625,3.375,2.375s2.375,1.375,3.625,1.125s2.875-0.5,2.875-0.5s-0.875-0.5-2-0.875
		s-3.625-1.25-3.625-1.25l-3.625-1"/>
	<path d="M284.517,133.375c0,0,0.625,1.625,2.25,1.5s4.375-0.125,4.375-0.125l1.125-0.875c0,0-3.375-0.375-3.875-0.375
		S284.517,133.375,284.517,133.375z"/>
	<polyline points="289.892,127.125 294.142,127.625 295.892,127 292.642,126.5 290.517,126.875 	"/>
	<path d="M288.892,117l1-7.5l2.75,6.5v-11.125l2.75,15.375l1-3.625c0,0-0.5-4.375-0.5-6.75s0-4-0.375-5.125s-0.625-3-1-4
		s-0.375-2-1.375-2.625s-1.125-1.125-2.375-1.25s-2.625-0.125-3.125,0.25s-1.25,2.125-1.25,2.125s-0.375,1.375-0.375,2.125
		s0.75,5.5,0.75,5.5s0.875,3.25,0.875,3.625S288.892,117,288.892,117z"/>
	<path d="M182.392,172.5c0,0,1.125-1.375,2.25-2.5s4.125-2.75,4.125-2.75s-3.125,3.125-3.625,3.5s-2.125,2.5-2.125,2.5"/>
	<path d="M174.267,170.625c0.5-0.375,1.625-2.375,2.625-3.125s6.125-3,6.125-3s-4.25,2.625-5,3.375s-3.25,3.75-3.25,3.75
		l-0.625-0.375"/>
	<polyline points="158.517,168.75 163.517,163.5 159.142,169.25 	"/>
	<path d="M151.267,167.75l6.375-5.875c0,0-3.375,2-4.25,2.625s-2.875,2.75-2.875,2.75h0.75"/>
	<path d="M111.267,171.5c0,0,0.625-1.625,1.625-2.875s4.875-3.75,4.875-3.75s-2.625,3-3.375,3.875s-1.5,3-1.5,3"/>
	<path d="M102.267,170.125c0,0,1-2.25,3-3.75s6.625-3.75,6.625-3.75s-4.625,3.5-5.375,4.25s-3.125,3.875-3.125,3.875"/>
	<path d="M91.642,166.25c0,0,0.625-1.625,2-2.875s3.5-2,3.5-2s-2.875,2.5-3.375,3.375s-0.75,2.25-0.75,2.25l-1.25,0.25
		L91.642,166.25z"/>
	<path d="M84.642,165.125c0,0-0.125-1.375,1.125-2.5s6.75-4.375,6.75-4.375s-5.125,4.25-5.75,4.875s-1.125,3-1.125,3"/>
	<line fill="none" stroke="#000000" stroke-width="0.75" x1="99.267" y1="167" x2="95.767" y2="167.25"/>
</g>
<g id="frame_2">
	<path fill="#FFA82B" d="M24.267,60.875c-0.5,0.167-7.5,2-8.333,2.333s-6.833,3-7.833,4.167s-4.333,5-4.833,6s-2.333,7.5-2.333,8
		s-0.667,7.833-0.667,7.833l0.667,5c0,0,4.834,5.168,5.167,5.834s3.833,9.833,3.833,9.833l1.167,4.167l-0.167,4.666l0.167,2.834
		c0,0,3.833-2.5,4.333-3s6.833-4.667,8-5.667s6.667-4.001,7.5-5.167s6.167-7.167,6.5-8s3.333-6.833,3.333-6.833s0.5-2.666,0.5-3.333
		s0-13.5,0-13.5s0-1.333-0.333-1.833s-4.167-4.667-4.167-4.667"/>
	<path fill="#FFA82B" d="M76.1,113.875l1.833,9.5l-5.667,6.667c0,0-12.5,8.5-14,9.5s-3.5,4.166-4,4.833S51.142,152,51.767,154
		s2.75,6.375,2.75,6.375L56.142,162l3,0.375l3.125-0.875l1.375-1.625L63.017,153l5.5-9.25l16.5-5.75c0,0,18.875-2.125,19.375-2
		s4.375-4.75,4.375-4.75s1.75-2.375,1.375-2.5s-2.5-6.375-2.5-6.375l0.125-4.25l9.625-2.375c0,0,10-0.875,10.625-1
		s13.75,6.625,13.75,6.625s7.625,4.75,8,4.75s2.5,1.125,3,0.875s7,0.5,7,0.5s5.25,1.75,6.625,2.5s5.375,6,6.75,7.75
		s15.5,22.25,15.5,22.25s-7.875,0.5-9.375,1s-3.375,2-3.75,3s-0.75,3.5-0.75,4s6,0.875,6.5,1.125s10.75-0.5,10.75-0.5
		s4.75-1.875,4.75-2.25s-0.875-8-1.25-8.5s-16.25-28-16.25-28s-4.875-8.625-5.25-9s-0.25-11.375-0.125-11.75s9.5-12.5,9.5-12.5
		s3.625,3.25,3.875,4s16.25,34,17.25,34.75s9.375,5.625,10.75,5.75s14.5,3,14.5,3l8.375-1.875l1.125-0.25c0,0,5.125-1.25,6.5-8.25
		s1.5-15.25,1.5-15.25s-0.875-13.375-1.125-14.375s-7.75,3.125-7.75,3.125l1.625,8.5c0,0,0.375,8.375-0.5,10.5s-1.75,5.25-2.875,6.5
		s-2.5,2.5-4.125,3s-3.875,0.5-5.875,0.75s-3.25,0-4.875-0.125s-8.125-1.375-11-2.75s-5.75-4.75-7-6.25s-4.875-14.875-6.125-18.625
		s-2-7.25-2.75-8.625s-4-8.625-5.75-10.5s-6.875-5.5-7.75-5.75s-8.25-8.5-9.125-8.75s-3.5-2.125-14.25-0.75s-15.75,1.5-18,1.75
		s-10.375-1.625-14.25-2.5s-18.5-3.75-18.5-3.75l-27.875-8l-13.5,9l-0.25,27l10.875,15.25"/>
	<polyline fill="#FFA82B" points="10.517,112.543 10.767,119.043 11.934,117.293 10.85,112.293 	"/>
	<path fill="#FFFFFF" d="M36.892,74.125l2.5,6.5c0,0,0.25,1.125-0.25,4.5s-1.5,7.25-3,9.375s-8.5,10.375-11.625,13.5
		s-9,7.125-9,7.125s-4.625,5-5.125,6.25s-1,3.375-0.625,4s2.125,2.125,2.125,2.125l2.375,2.875c0,0,5.5,4.25,6.125,4.5
		s6.375,0.25,6.375,0.25s5,4.75,9.25,6.375s8.375,2.75,10.125,2.625s2.875,0,2.875,0l-2-3.75c0,0,3,0.75,4.25,0.125
		s1.625-1.5,1.625-1.5v-1l-0.375-0.625l-1.125-1.125l-2-0.625c0,0,1.75-0.25,3.875-1.75s2.75-1.75,2.75-1.75l-4.75-2.375
		c0,0,2-0.25,2.25-0.875s1.125-2.5,1.125-2.5l-0.625-2.25l-0.625-0.5l-1.625,0.125h-0.875c0,0,0.25-2.125,2.625-3.125
		s5.125-1.875,5.125-1.875l1.125-6c0,0,6.5,5.75,6.75,6.5s6.125,2.375,7,2.75s6.75,0.875,6.75,0.875L84.392,122
		c0,0-7-11.875-7.625-12.5s-5.375-19-5.625-19.375s-6.25-16.25-6.25-16.25S58.392,74.5,56.767,75s-17.625-1.125-18-1.25"/>
	<path fill="#FFFFFF" d="M28.892,38.625c-0.375,0.25-4.125,22-3.75,22.25s1.125,3.5,1.5,3.625s5.25,2.75,5.75,2.875
		s4.375,1.25,4.375,1.25l1.5,0.375l-0.625-4.25c0,0-0.125-11.625-0.25-12.125s-1.375-6.25-1.375-6.25l-3.375-5.125L28.892,38.625z"
		/>
	
		<ellipse transform="matrix(-0.9986 -0.053 0.053 -0.9986 31.8634 180.8448)" fill="#FFFFFF" cx="18.329" cy="90" rx="10.062" ry="11"/>
	
		<ellipse transform="matrix(-0.9162 -0.4008 0.4008 -0.9162 -24.3321 202.5353)" fill="#FFFFFF" cx="9.017" cy="103.813" rx="8.023" ry="8.898"/>
	<path fill="#FFFFFF" d="M16.767,100.75c0,0,2.375,3.75,5.375,2.875s4.75-2,6.125-5.375s4.75-7.375,3.875-10.75s-4.875-11-4.875-11
		s-4.25-2-7.75-2.875s-5-1-7.875,0s-3.25,2.125-3.75,4.125S7.642,88.5,8.267,91.125s2.375,0.375,2.375,0.375l2.75,5.75"/>
	<path fill="#FFFFFF" d="M0.767,91.5c0,0,4.625,2.875,5.5,4.5s-3.25,4.625-3.25,4.625L1.267,103l-0.625-7L0.767,91.5z"/>
	<path fill="#FFFFFF" d="M11.642,113.75c0,0,2.125-0.25,2.875-1.75s0.625-3.625,0.625-3.625l-3.875,2l-0.5,1.375L11.642,113.75z"/>
	<path fill="#FFFFFF" d="M10.767,114.125"/>
	<path fill="#B2751E" d="M82.642,62.625c0,0-7.125,4.875-10.125,7.75s-14,12.75-15,13.625s-7.875,1.375-7.875,1.375
		s-1-1.375-0.375-2.125s0.75-4.875,0.125-4.875s-2.5-2.625-2.125-3.125s5.625-3.125,5.625-3.125l2.25-3.625
		c0,0,4.125-5.25,4.5-5.625s3.5-3.125,4.25-3.5s3.125-1.125,4-1.125S71.517,59,71.517,59l3.25,0.875l4,1.5L82.642,62.625z"/>
	<path fill="#B2751E" d="M121.392,133.625l-10.625-7l2.229-0.769c0.041-0.259,0.175-0.503,0.452-0.661
		c0.209-0.119,0.426-0.217,0.646-0.311l-8.701-14.26l-7.125-6.25c0.375,0.5,7.5,16.25,7.5,16.25s-6,0.625-5.375,1s8,8,8,8h-7.125
		l3.375,3.625c0,0-6.375,0.5-8.875,1.125S66.142,144,66.142,144s0.125,1.375-0.75,2.5s-2.25,1.25-2.875,2.25s-1.5,3.125-1.625,4.125
		s-0.25,3.75-0.25,3.75l0.375,2.75l0.75,1.625l2.125,0.25c0,0,1.625-1.375,1.625-1.75s1.25-2.75,1.25-2.75l0.375-6.875l1.5-3.375
		l3.875-2.5l4.375-1.125l8.875-2l7.25-0.5l24-0.625l-5.875-5.5L121.392,133.625z"/>
	<path fill="#B2751E" d="M107.345,116.289l25.326-8.875l3.837,6.606c0,0-3.23-1.304-6.674-0.938
		c-3.443,0.364-13.362,3.137-13.866,3.408c-0.504,0.272-6.73,2.753-6.73,2.753L107.345,116.289z"/>
	<path fill="#B2751E" d="M183.642,94.875c0,0-1.875,2.5-4.875,5s-6.875,4.813-8.688,6.938s-3.125,4.25-3.25,7.063
		s0.375,4.438,2.438,7s3.625,4.25,6,8.438s18.125,31.75,18.125,31.75s0.938,2,0.25,3.438s-6.125,1.188-6.125,1.188l-4.625,0.438
		l-1.5-0.125l-3.313-0.063c0,0,0.438,0.25-0.875-0.313s-1.313-0.563-1.313-0.563l-0.875,2.188l-0.188,1.625l1.063,1.438l1.625,0.375
		l0.813,0.75l3.25,0.063l0.625,0.688l15.688-0.125l2.313-1.313c0,0,0.813-1.938,0.688-2.25s0.063-6.938,0.063-6.938l-0.688-1.75
		l-16.75-29.438l6.625-0.75l-4.063-1.688l4.375-0.813l0.063-0.563c0,0-4.063-2.313-4.25-2.375s-5.75-4.25-5.75-4.25l-3.438-3.875
		l-1.063-2.188l2.5-5.313l2.25-4.75l2.688-6.875c0,0,1.625,1.75,1.438,1.813s1.938,4.625,2.063,4.875s2.188,5.438,2.75,7.313
		s1.438,5.375,2.063,7.375s2.438,7,3.375,8.75s2.688,5.063,4.438,6.813s1.813,3,7.188,5.813s8.188,3.563,10.063,4.063
		s2.563,0.688,6.188,0.813s5.5,0,7.625-0.125s3,0.25,5-0.625s3.625-1.5,3.625-1.5l-0.188-1c0,0-1.438,0.25-4.563,0.5
		s-10.75,0.875-14.438-0.25s-2.688-0.813-6.938-3.063s-4.375-1.625-7-4.25s-8.063-11.313-8.063-11.313s-3.313-7.625-4.438-10.313
		s-2.688-7.625-3.25-8.75s-4.063-9.563-4.563-10.25s-2-2.5-2-2.5l-0.063,3.438"/>
	<path fill="#7F5415" d="M119.142,121.188c0,0,4.5,3.125,6.313,3.563s3.625,1.188,6.563,2.25s4.063,1.438,5.188,2.563
		s2.625,1.813,3.875,4.563s1.063,2.188,1.875,4.313s2.188,4.563,4.125,9.625s2.563,7.063,2.563,7.063l-0.188,3.25
		c0,0-3.438,0.625-4.688,1.438s-2.688,1.688-3.125,2.25s-1.75,2.875-1.75,2.875l-0.063,2.688l0.188,1.063
		c0,0,4.188,0.688,4.375,0.688s8.813-0.063,10.25-0.25s2.625-1.063,3.25-1.75s1.25-1.063,1.563-2.875s0.063-4.5,0.063-4.5
		l1.938-0.625c0,0,0.438-0.688,0.063-1.375s-2.563-3.563-3.313-4.938s-6.125-17.375-6.125-17.375l6.75-1.813l-4.813-3.75
		c0,0,7.438,0.438,7.188,0.438s-1.625-3.313-1.625-3.313s-5.375-2-8.688-3.625s-7.25-4.188-7.25-4.188l-1.688-0.5l-6.563,0.188
		l-9.5,0.313L119.142,121.188z"/>
	<path fill="#7F5415" d="M82.1,142.042l11.833,16.667c0,0-0.25,0.583-1.167,1.25s-4,1.084-4.417,1.417s-3.167,3.166-3.167,3.166
		s-0.25,0.5-0.417,2s-0.25,3.334-0.25,3.334s2.083,0.582,3.667,0.666s13.25-0.166,13.25-0.166s1.916-0.666,2.083-1.75
		s0.417-4.167,0.417-4.167l-0.25-4.917l-1.417-1.333l2.083-0.417c0,0,0.834-0.583-0.416-1.333s-3.083-3.75-3.5-4
		s-2.084-3.917-2.084-3.917l-1.25-3.5l-1-3.25l-0.25-1.333c0,0-5.5-0.001-5.917,0.083s-8.083,1.167-8.083,1.167"/>
	<path fill="#B2751E" d="M22.892,62.875l14.25,12.375l1.625-0.5l-6.5-9.625l-5.125-1.375l4.375,2.875c0,0-5.875-5.5-6.25-5.375
		s-1.875,1.375-1.875,1.375"/>
	<path fill="#B1B1B1" d="M25.767,63.25L43.392,80.5c0,0-0.625,3-1.5,6S39.642,98,39.642,98s4.875,0.125,9.375,3.875
		s6.75,6.125,7.375,8s1.875,3.375,1,5.625s-1.5,4.25-1.5,4.25l0.75,1.5c0,0,5.75,4.5,6.125,4.875s6,2.625,7.125,2.875
		s2.875,0.875,2.875,0.875l11.125-7.5l-1.125-1c0,0-3.5-0.125-8.625-1.25s-10.5-5-10.5-5l8.25-0.625c0,0-8.75-4.75-10.625-9.625
		S58.642,89.25,59.142,86.5s1.5-3.75,1.5-3.75l-9.875,0.875l12-8.25L48.642,74.75l13.5-5.625c0,0-20.375-1.75-20.75-1.625
		s-8.625-3-9.5-3.125S25.767,63.25,25.767,63.25z"/>
	<path fill="#B1B1B1" d="M138.392,116c-1.25-0.875-2.75-2.5-2.75-2.5s-2.125-0.875-8.125,0s-16.625,4.125-17,4.375l-0.25,0.625
		l3.25,5c0,0,0.056-0.023,0.149-0.064c0.082-0.282,0.346-0.529,0.716-0.465c-0.411-0.072-0.238-0.003,0.015-0.089
		c0.193-0.066,0.386-0.135,0.577-0.206c0.277-0.104,0.74-0.28,0.91-0.354c0.186-0.081,0.362-0.063,0.512,0.007
		c1.242-0.481,2.727-1.025,4.121-1.454c3.25-1,9.25-1.125,11-1.375s12-0.375,12-0.375S139.642,116.875,138.392,116z"/>
	<path d="M28.642,38.25c0,0-2.875,4.375-4.125,7.375s-4.875,14.5-5,15.25s-0.125,2-0.125,2s1.375-0.25,3.25-0.125s4.5,0.5,4.5,0.5
		s-0.5-8.875-0.25-11s1.375-9.375,1.375-9.375L28.642,38.25z"/>
	<path d="M6.017,68.5c0,0,1.5-7.875,2.125-10.25s0.625-2.375,0.625-2.375s2.875,4.375,3.25,5.875s0.25,2.75,0.25,2.75
		S5.892,67.375,6.017,68.5z"/>
	<path d="M23.399,108.5l-5.104,4.031l-3.403,8.673c0,0,0,2.199,1.178,2.443c1.178,0.244,9.947,0.978,9.947,0.978l-1.047-13.804
		C24.97,110.821,25.755,108.866,23.399,108.5z"/>
	<path d="M23.642,73.375c0,0,2.25,2.875,4.375,6.125s2.875,4.875,3.5,7.375s1.25,9.75,1.25,9.75s1.25-5.375,1-8.25
		s-1.75-7.625-2.375-8.5s-7.875-7-7.875-7"/>
	<path d="M32.642,74.625c0,0,3.875,4.75,4.875,6.75s1.5,6,1.5,6s0.75-2.625,0.625-4.75s-0.375-4-1.625-5.25s-4.75-2.75-4.75-2.75"/>
	<path d="M70.017,59l-5.375,7.25c0,0,6.25-2.25,8-3.25s3.5-2.375,3.5-2.375S70.392,59,70.017,59z"/>
	<path d="M80.017,64.125c0,0-6.25,0.25-8.375,1.875s-5.625,4.75-7.125,7.75s-1.25,4.75-1.375,7s0.375,4.75,0.375,4.75l0.875,0.5
		c0,0,0.375-4.375,2.375-7.75s4.75-7.375,7-9S80.017,64.125,80.017,64.125z"/>
	<path d="M83.767,67c0,0-1.875,5.375-3.75,7.875s-3.875,4.5-6.5,6.25s-4.875,3.625-6.375,5.5s-3.25,4-4.125,7.5s-0.75,7.5-0.5,9.375
		s1,5.125,1,4.75s0.875-8.125,2.125-11s2.5-5.75,4.625-7.625s1.75-2.125,4.625-4.25s3.75-2.625,5-4.375s2.125-2.25,2.75-4.125
		s1.625-9.25,1.625-9.25"/>
	<path d="M94.642,71.125c-0.375,0.25-8.5,6.25-10.25,8.5s-5.125,8.125-5.625,12.25s0.375,15.5,0.375,15.5s1.625-6.125,3.375-12.625
		s3.5-10,5.25-13S94.642,71.125,94.642,71.125z"/>
	<path d="M103.517,73c0,0-4.25,7.5-5,9.75s-1.625,7.125-1.375,9.75s1.5,7.625,2.625,9.25s2.625,4,2.625,4s-1.25-13.25-1-17.5
		S103.517,73,103.517,73z"/>
	<path d="M112.517,73.875c0,0,0,18.125-0.125,22.875s-1,20.25-0.75,19.5s3.875-8.375,4.375-15.875s-0.875-19.25-1.75-21.625
		S112.517,73.875,112.517,73.875z"/>
	<path d="M126.767,75.75c0,0,0,6-0.125,15.5s-2.125,25.125-2.125,25.125s6.125-10.75,6.375-16.75s0.375-11.75-0.25-13.875
		s-3.5-10.5-3.5-10.5"/>
	<path d="M139.642,78.75c-0.25,0-0.75,20.875-1.5,25.625s-2.375,9.875-2.375,9.875s4.625-3.875,6-9.625s2-10.875,1.75-15.25
		S139.642,78.75,139.642,78.75z"/>
	<path d="M150.892,77.25c0,0,0.75,9.5,0.375,14.375s-1.25,10.625-2,14.25S147.142,119,147.142,119s3.375-4.375,5.375-10.375
		s2.25-8.875,2.5-13.125s-0.875-10.75-1.625-12.875S150.892,77.25,150.892,77.25z"/>
	<path d="M169.392,76.75c0,0-5.125,19.375-7.125,23.625s-4.75,11.5-6.75,14.375s-4,6.25-4,6.25s5.5-3.25,9.75-9.875
		s6.25-10.875,7-14.75s1-11.125,1.125-12.75S169.392,76.75,169.392,76.75z"/>
	<path d="M186.642,93.125c0,0,0.625,4.625,0.625,5.875s0,2.25,0,2.25s0.625-4.125,0.625-5.25s-1-3.5-1-3.5"/>
	<path d="M192.267,104.375c0,0-0.75,2.875-0.875,4.625s0,3.875,0,3.875s1.125-0.875,1.25-1.625s0.25-6.625,0.25-6.625"/>
	<path d="M194.642,116.25c0,0-0.125,4.125-0.125,5.625s0,1.5,0,1.5s1.125-2.25,1.125-2.625S194.642,116.25,194.642,116.25z"/>
	<path d="M199.642,125.375c0,0-0.625,3.875-0.375,5.25s0.75,2.75,0.75,2.75s0.5-2.625,0.375-3.375S199.642,125.375,199.642,125.375z
		"/>
	<path d="M206.767,133c0,0-1.125,2.125-1.125,3.375s0.625,3,0.625,3l1.375,1.125L206.767,133z"/>
	<path d="M214.892,137.875c0,0,1.25,2.5,3.375,4.125s3.375,2.125,3.375,2.125l1.5,0.375c0,0-2.25-1.875-3.75-3.25
		S214.892,137.875,214.892,137.875z"/>
	<path d="M225.892,140.375c0,0,1.625,1.375,2.875,2.125s3.875,1.5,3.875,1.5l2-0.25l1.5-0.75c0,0-6.5-1.375-7.375-1.625
		S225.892,140.375,225.892,140.375z"/>
	<path d="M235.517,136.625c0,0,3,1,4.5,1.125s3.75-0.125,3.75-0.125l0.75-1c0,0-3.625,0-4.5,0S235.517,136.625,235.517,136.625z"/>
	<path d="M241.267,130.25c0,0,1.375,1.125,3.25,0.875s1.875-0.25,1.875-0.25l0.25-1.625L241.267,130.25z"/>
	<path fill="none" stroke="#000000" stroke-width="0.75" d="M12.267,127.5c0,0,1.125,2,2,2.625s3.625,3.625,6.125,4.75
		s6.25,0.375,6.25,0.375s3,2.375,4.875,3.75s7,3.875,10.25,4.75s7.25,0,7.25,0l-2-3.125c0,0,2,0.375,3.125,0.25
		s2.375-0.625,2.875-1.375s0-2-0.875-2.625s-3.125-1.25-3.125-1.25s2.125-0.375,3.375-1.125s3.5-2.5,3.5-2.5l-4.5-2.375
		c0,0,1.75-0.5,2.125-0.875s0.875-1.625,0.75-2.375s-0.125-1.5-0.75-2S51.142,124,51.142,124s0.75-1.125,1.875-2s3-1.75,4.5-2.5
		s3.5-2.125,3.75-4.125s-0.125-3.75-1.25-5.5s-3.125-4-5.125-6.375s-2.625-4.75-2.875-6.375s0.25-3.5,0.5-3.875
		s7.875-10.5,7.875-10.5l-9.875,1.5l12.125-8.75c0,0-14.125-0.5-13.75-0.625s13.875-5.75,13.875-5.75l-21.875-1.5
		c0,0-2.875-0.625-5-1.75s-7.25-2.5-11.75-3.125s-9.125,0.75-9.125,0.75s-4.5,1.625-6.875,3.875s-4.375,5-5.625,8.125
		s-2,10.25-2.125,14.375S0.892,100,0.892,100"/>
	<line fill="none" stroke="#000000" stroke-width="0.75" x1="10.392" y1="112.5" x2="10.642" y2="121.75"/>
	<path fill="none" stroke="#000000" stroke-width="0.75" d="M9.767,125c0,0-0.625-2,2-5.5s7.75-7.875,9.125-9.125s3-2,3-2
		s1,1.5,1.25,5.25s0.5,11.5,0.5,11.5s-7.25,2.875-9.75,2.75S10.767,127.375,9.767,125z"/>
	<path fill="none" stroke="#000000" stroke-width="0.75" d="M55.017,68.5c0,0,4.25-4.875,5.875-6.875s5-3.625,10.75-2.5
		s7.75,2.875,16.875,5.5s22.75,6.25,34.125,8.625s16.5,3.625,26,2.25s20.25-3.25,25.125,1.125s8.625,7.75,9.5,12.25
		s0.625,8.625-2.25,14.75s-5.25,10.25-5.25,10.25s1.5,3.875,6.25,7.375s6.875,4.625,8.25,5.25s-2.625,1.625-4.125,1.375
		s3.625,1.875,3.625,1.875l-6.375,0.75l17.25,30.125l0.125,9.125c0,0-0.875,1.75-2.75,2.125s-15.875,0.375-15.875,0.375l-0.625-0.75
		l-3.375-0.125c-0.5-0.75-0.5-0.75-0.5-0.75s-1.375-0.125-1.875-0.5s-1.25-1-0.75-2.75s0.5-5.875,5-6.625s8.75-0.25,8.75-0.25
		s-18.625-27.25-20.625-29.125s-4.25-3-7.625-3.875s-10-3.625-14.25-6.25s-7-4.25-9.75-7.375s-4.875-8.5-5.375-9.625
		s-0.625-7.375,1.125-11.125s6.5-9.375,7.875-10.625"/>
	<path fill="none" stroke="#000000" stroke-width="0.75" d="M105.517,110.375c-0.125,0.375,8.75,14.5,8.75,14.5l-3.25,1.75l10.25,7
		L111.142,134l5.875,5.625c0,0-25.125,0.75-28.75,1.125s-14.75,2.5-17.625,4.5s-3.25,3.5-3.625,5.125s-0.375,6.75-0.375,6.75
		s-1.25,2.875-2.375,3.75s-2.375,0.5-2.375,0.5s0.375,0.375-1,0.75s-3.75,0.125-3.75,0.125l-0.75-0.625c0,0-0.75-0.125-1.5-0.875
		s-2.375-2.375-2.75-5.25s-0.125-6,0.375-7.75s2-4.5,4.125-6.75s27.5-18.625,27.5-18.625V118.5"/>
	<line fill="none" stroke="#000000" stroke-width="0.75" x1="84.142" y1="122.375" x2="75.892" y2="112.625"/>
	<path fill="none" stroke="#000000" stroke-width="0.75" d="M56.017,120.5c0,0,4,4.25,6.875,5.75s10.25,3.5,10.25,3.5"/>
	<path fill="none" stroke="#000000" stroke-width="0.75" d="M113.767,122.875c0,0,7-2.5,11-3.125s19.25-0.5,19.25-0.5"/>
	<path fill="none" stroke="#000000" stroke-width="0.75" d="M119.017,121c0,0,2.75,2.375,7,3.875s7.125,2.125,9.375,3.375
		s2.375,1.125,4.875,4.875s9.375,21.75,9.375,21.75s0.125,3-0.125,3.375s-5.375,1.375-6.875,2.625s-2.5,3.125-2.625,4
		s-0.25,3.375-0.25,3.375s-0.25,1.125,6.25,1s9.875-0.375,9.875-0.375s1.75-0.375,2.875-2.875s0.625-6,0.625-6
		s1.375-0.25,1.75-0.375s0.5-1.125,0.125-2.125s-3.375-4.375-4.25-6.75s-5-15.375-5-15.375l6.75-1.375l-4.875-3.75
		c0,0,7.625,0.25,7.25,0.375s-1.625-3.375-1.625-3.375"/>
	<path fill="none" stroke="#000000" stroke-width="0.75" d="M82.142,141.75c0,0,3.125,4.875,5.875,8.875s5.625,8.25,5.625,8.25
		s0.125,1.25-1.625,1.375s-5.375,1.75-6.5,3.5s-1.125,6.5-1.125,6.5l3.75,0.5l13.5-0.5c0,0,2-1.125,2.25-2.375s0-8.625,0-8.625
		l-1.125-1c0,0,2.25-0.25,1.75-0.75s-3.375-3.75-4.5-5.125s-4.125-10.375-4.25-11.25s-0.125-0.875-0.125-0.875l0,0"/>
	
		<ellipse transform="matrix(-0.9266 -0.3761 0.3761 -0.9266 1.42 180.0594)" fill="none" stroke="#000000" stroke-width="0.75" cx="18.285" cy="89.891" rx="9.91" ry="11.186"/>
	<path fill="none" stroke="#000000" stroke-width="0.75" d="M16.917,100.787c-0.455-0.039-0.892-0.127-1.325-0.242
		c-0.445,0.063-0.904-0.054-1.273-0.335c-0.22-0.029-0.429-0.125-0.631-0.255c-0.289-0.107-0.561-0.253-0.811-0.436
		c-0.395-0.111-0.758-0.35-0.99-0.666c-0.139-0.084-0.279-0.166-0.407-0.276c-0.114-0.099-0.2-0.216-0.274-0.34
		c-0.303-0.144-0.567-0.372-0.742-0.67c-0.038-0.064-0.065-0.132-0.09-0.2c-0.218-0.187-0.396-0.423-0.508-0.688
		c-0.052-0.063-0.108-0.121-0.152-0.196c-0.08-0.136-0.13-0.289-0.167-0.446c-0.091-0.121-0.162-0.253-0.212-0.395
		c-0.148-0.217-0.247-0.441-0.292-0.667c-2.978,0.29-5.855,2.317-7.306,5.521c-2.059,4.544-0.47,9.704,3.549,11.525
		c4.019,1.82,8.947-0.388,11.005-4.933C17.246,104.988,17.405,102.761,16.917,100.787z"/>
	<path d="M0.475,99.376c0,0,0.25,1.832,0.375,2.791s0.542-1.125,0.542-1.125s-0.375-3.208-0.458-3.833"/>
	<path fill="none" stroke="#000000" stroke-width="0.75" d="M28.642,38.25c0,0,2.875,1.5,4.625,4s3.188,4.625,3.688,7.938
		s0.938,16.5,0.938,16.5"/>
	<path d="M7.829,60.125c0,0-2.25,9.938-2.313,10.125s4.063-4.125,4.063-4.125l0.438-1.375L7.829,60.125z"/>
	<path fill="none" stroke="#000000" stroke-width="0.75" d="M183.518,96.708c0,0,1.416,1.917,2.833,5.417s2.833,7.083,4,11.5
		s1.584,6.251,3.667,11.084s5.667,10.917,11.5,14.5s6.667,3.251,10,4.167s4.25,1.25,9.583,1.25s10.834-0.001,14.584-3.084
		s4.915-4.167,6.249-8.083s0.834-3.917,1.084-10.75s0.083-10.084-0.417-13.75s-0.666-7.25-3.083-8.5s-4.5-0.75-5,2.167
		s0.667,8.666,1,12.083s0.833,8.833-0.25,12.583s-3.168,7.417-6.834,8.417s-6.583,1.25-11.833,0.5s-9.416-1.833-12.833-4.583
		s-3.583-3.417-5.583-8.5s-2.917-7.25-4.334-12.417s-1.917-7.833-3.75-12.083s-2-5.083-5-8.333s-5.667-5.251-7.5-6.167
		s-0.583-0.333-0.583-0.333"/>
	<path d="M56.392,161.625c0,0-0.563-0.5-1.438-2.188s-0.563-1.813-0.688-3.5s0.375-4,0.375-4s0.063,3.875,0.313,5.063
		s0.25,1.813,0.875,2.938s1.563,2.313,1.563,2.313l0.125,0.313l-1.063-0.5"/>
	<path d="M61.892,161.375c0,0-0.938-1-1.938-2.313s-1.063-2.125-1.25-3.688s-0.188-1.563-0.188-1.563s1.313,3.875,1.875,4.625
		s2.125,2.813,2.125,2.813"/>
	<path d="M88.454,170.563c0,0-0.313-3.875,0.188-4.625s2.188-2.313,2.188-2.313s-1.125,1.813-1.438,2.563s-0.375,2.438-0.375,2.938
		s0.188,1.688,0.188,1.688"/>
	<path d="M143.579,169.313c0,0,0-0.625-0.063-2.813s0-3.25,1.063-4.063s5.063-2.625,5.063-2.625s-3.938,2.438-4.5,3
		s-0.75,1.188-0.813,2.063s0.063,4.25,0.063,4.25"/>
	<path d="M178.142,171.375c0,0-0.125-2.563-0.063-3.375s0.25-2.625,0.563-3.25s2.875-1.625,2.875-1.625s-2,0.188-2.75,0.438
		s-1.25,1.438-1.438,2.688s-0.188,4.188-0.188,4.188"/>
	<path d="M181.267,171.438l-0.063-5.313c0,0,0.938-1.625,1.938-1.813s4.125-0.188,4.125-0.188s-4.25,0.688-4.75,1.563
		s-0.438,2.688-0.375,3.938s0,2.625,0,2.625"/>
	<polyline points="108.725,115.75 109.309,106.583 109.767,116.958 	"/>
	<path d="M106.434,111.333l-3.042-4.75c0,0,1.708,4.167,2.083,4.625"/>
	<path d="M140.267,82.833c0,0,0.542-0.792,2.5-2.25s1.958-1.458,1.958-1.458s-3.626,1.875-4.167,2.5"/>
	<polyline fill="#020202" points="17.767,100.75 21.767,81 16.142,100.625 3.767,106.25 14.319,100.21 	"/>
	<path d="M113.142,122.751c0,0,0.959-0.376,1.5-0.584s-1.042,1.292-1.042,1.292"/>
	<path d="M238.851,101.459c0,0-0.751,3.25-0.667,4.583s2.25,11.917,2.25,11.917l1-6.75l2.667,6.75c0,0-0.167-10.667-0.167-10.417
		s1.834,10.917,1.917,10.667s1-3.667,1-3.667s-0.083-5.25-0.333-7s-0.751-5.25-1.334-5.75s-2.832-2.083-3.416-2
		s-1.501-0.167-1.834,0.25s-0.916,1.083-0.916,1.083"/>
	<path fill="none" stroke="#000000" stroke-width="0.75" d="M34.892,140.25c0,0,1.25-2.75,2.125-4.375s1.625-3.625,3.25-5.875
		s3-4.375,4.5-6.125s4.25-4.25,6.5-5.625s2.875-1.25,4.125-2.75s0.25-2.125-0.125-3.625s-2.25-3.375-3.625-5.375
		s-2.875-3.625-4.5-4.75s-3.125-0.625-4.875-0.75s-6,1.875-7.625,3s-2.75,2.75-2.75,2.75s-0.625,0.375,0.125,2
		s4.125,4.875,4.125,4.875s1.75,3,2.125,4.75s-0.75,3.75-3,5.875s-4.625,4.375-5.625,5.625s-2.25,6.25-2.25,6.25"/>
	<path fill="none" stroke="#000000" stroke-width="0.75" d="M26.017,124.625c0,0,4.25,3.625,4.875,3.875"/>
	<path fill="none" stroke="#000000" stroke-width="0.75" d="M31.517,139l0.375-5.875l2.125,0.25l-0.125-1.875l1.625-0.25
		c-0.75-1,1.125-1,1.125-1l0.625-3.5l2.375-1l-1-4l5.125-0.5l-2.875-3.125l5.75-0.625l-5.75-4l-1.125-0.375c0,0,2.25-1.625,4.25-1.5
		s3.25,1.125,3.25,1.125"/>
	<polyline fill="none" stroke="#000000" stroke-width="0.75" points="44.017,111.625 43.892,108.5 46.017,108.125 49.892,104 	"/>
	<path fill="none" stroke="#000000" stroke-width="0.75" d="M34.642,104c0,0,4-0.75,5.5-0.125s5.875,4.25,5.875,4.25"/>
	<path d="M36.892,102.625"/>
	<path d="M50.642,105c0,0-2.625-4-5-4s-5.625,0.375-7.5,1.375S33.392,105,33.392,105s8.625-4,14.375,1.25"/>
	<path d="M49.017,104.625c0,0-3.5-4.5-7-3s4,7.625,4.875,6.125"/>
	<polygon points="42.642,102 38.517,103.125 42.892,105.125 	"/>
</g>
</svg>
