<?xml version="1.0" encoding="utf-8"?>
<!-- Generator: Adobe Illustrator 13.0.0, SVG Export Plug-In . SVG Version: 6.00 Build 14948)  -->
<!DOCTYPE svg PUBLIC "-//W3C//DTD SVG 1.1//EN" "http://www.w3.org/Graphics/SVG/1.1/DTD/svg11.dtd">
<svg version="1.1" xmlns="http://www.w3.org/2000/svg" xmlns:xlink="http://www.w3.org/1999/xlink" x="0px" y="0px"
	 width="236.948px" height="137.211px" viewBox="0 0 236.948 137.211" enable-background="new 0 0 236.948 137.211"
	 xml:space="preserve">
<g id="frame_1">
	<path fill="#D69E3A" d="M41.696,67.801c0,0-3.667,5.749-3.917,5.833s-2.417,0.251-2.417,0.251s-9.083-1.5-11-1.167
		s-4.75,0.667-4.75,0.667s1.417,3.416,1.667,3.666s1.667,3.25,1.667,3.25l-4.583,2.584l-1,1.166l-4.167-0.833h-1.333l0.917,1.417
		c0,0,2,1.416,2.583,1.833s8.083,3.751,9.5,4.417s16.167,4.833,17.917,5.083s3.333,2.167,3.333,2.167s5.917,4.417,8.917,5.833
		s10.333,3.416,12,3.833c1.666,0.417,27.666-5.583,27.666-5.583s8.916-10.917,8.833-11.167s0.667-12.667,0.667-12.667
		s1.583-7.332,1.583-7.666s-0.75-4.584-0.75-4.584l29.084-7.083c0,0,6.083-6.166,7-8.333s0.583-8.25,0.333-10.25
		s-3.667-9.5-3.667-9.5s-6.249-7.833-8.416-8.167s-4.916-0.167-5.333,0s-5,4.25-5,4.25l-8,8.417l-10.084,13.083
		c0,0-9.999-4.832-11.666-5.249s-7.833-1.5-7.833-1.5s-9.417,2.583-10.334,2.916s-8.25,3.916-8.75,4.416s-4,2.75-4,2.75l-0.917,0.5"
		/>
	<path fill="#D69E3A" d="M91.948,108.051c0.25,0,5.833,1.167,5.833,1.167l4.583-0.417l0.917,0.417l-2.333,4.833
		c0,0-6.083,0.583-6.5,0.75s-3.834,2.25-3.834,2.25l-2.583,4.25c0,0-0.833,1.416-0.583,1.25s1.416,0.334,1.416,0.334
		s-0.166,0.834,0.084,0.75s5.083,0.25,5.083,0.25l7.417-3.167c0,0,5.082-3.584,5.666-4.167s5-6.333,5.25-6.833
		s2.25-5.167,2.25-5.167s3.584,0.75,3.834,0.75s8.499-0.333,8.499-0.333s7.334-1.666,7.584-1.833s10.249-3.167,10.249-3.167
		s9.417-4.166,9.667-4.25s9.75-8.833,9.75-8.833l5.25-11.334c0,0,4-14.75,3.75-14.75s0.583-9.916,0.333-10.333
		s-1.916-9.667-2.166-9.917s-4.167-4.083-4.417-4.083s-8.834-2.75-9.667-2.917s-8.416-0.917-8.416-0.917l-6.917,0.584l-2.5,0.5
		l2,14.167l-1.5,4.333l-0.917,2.167l-2.166,1.916l-3.834,3.5l-4.25,1.584l-5.75,1.916l-6.666,1.584l-2.834,0.75l2.417,12.333
		l-0.166,4.666l-1.5,6.084l-4.584,8.25l-4.75,4.583l-6.083,4.334l-5.167,0.75l-1.5,1L91.948,108.051z"/>
	<path fill="#D69E3A" d="M139.031,111.634l-7.917,7.834l2.917,0.333l3.416,0.083l1.084,0.417h6.083c0,0,4.583-2.001,4.833-2.167
		s4.25-1.5,4.25-1.5s4.416-2.166,4.75-2.416s3.084-3.334,3.084-3.334l1.583-2.583l0.833-1.833l2.334-2.25c0,0-0.666-2.584-1-2.667
		s-7.5,1.418-8.5,1.584s-8.167,3-8.917,3.333s-6.916,3.166-7.083,3.333s-3.167,2.584-3.167,2.584l-0.25,0.416"/>
	<path fill="#D69E3A" d="M138.988,112.217c-0.5,0-8.125,3.125-8.125,3.125l-1.25,1.375l-0.5,2l0.75,0.625l1.251,0.126l6.249-3.501
		l1.75-2.875"/>
	<path fill="#956E28" d="M76.864,42.718c-0.25,0-4.833-12.917-5.25-14.5s-2.251-10.417-2.167-11.417s1.417-4.167,1.917-4.75
		s2.334-1.917,2.334-1.917l4.916-1.083l8.084-0.25l1.75,0.417l7.916,3.167l3.75,2.833l3.334,3.833l1.416,3.25l0.417,5.5l-0.25,4.584
		l-0.583,2.666l-1.417,3.917l-1.5,3.917l-2.084,4.833l1.334,0.583l-3.584,4.75c0,0-0.332-0.833-1.416-2.833
		s-4.084-6.083-4.334-6.083s-3.416-1.25-3.416-1.25l-4.417-0.834l-4.25,0.084L76.864,42.718z"/>
	<path fill="#956E28" d="M102.781,66.468c0,0,0.749,7.834,0.666,10.25s-1.165,10.832-2.249,13.416s-3.001,5.251-5.501,7.334
		s-3.5,2.75-5.75,4s-7.832,3.499-9.916,3.666s-6.751,0.916-9.334,1s-9-0.082-9.5-0.166s1.083,0.916,1.083,0.916l6,1.167l7.416,1
		l9.417-0.167c0,0,4.75,0,5-0.083s6.167-1.667,6.167-1.667l9-5.416l6.666-7.417l2.834-6.916l1.5-6.417l-1-7.917l-1-6.417l-0.833-1
		L102.781,66.468z"/>
	<path fill="#956E28" d="M70.198,89.968c0,0,2.25,1.084,3,1.667s1.582,1.082,1.666,1.916s-0.084,1.5-0.5,1.917
		s-0.834,1.333-1.75,1.5s-1.666,0.5-1.666,0.5s2.666,0.083,3.833-0.5s2.75-1.833,2.75-2.75s-0.083-2.167-1.833-2.667
		S70.198,89.968,70.198,89.968z"/>
	<path fill="#956E28" d="M86.114,108.968l-1.666,6c0,0-4.668,0-5.084,0.083s-3.583,2.833-3.583,2.833l-2.167,2.5l-0.666,1.167
		l1,0.25l0.083,0.917h3.917l-0.5,0.666c0,0,5.5-0.583,6.083-0.583s2.583-0.5,2.583-0.5l1.75-1.5l1-1.5l1.584-1.667l1.166-1.083
		l1.5-1l0.834-0.583l2.5-5.167c0,0-7.5-0.749-8-0.833s-2.584-0.5-2.584-0.5"/>
	<path fill="#956E28" d="M94.031,123.885l0.333-1.084c0,0,2.084,0.001,3.584-0.916s6.165-4.584,8.249-7.167s4.083-5.167,5.667-8
		s1.334-2.5,2.667-5.25s1.5-2.751,2.25-5.167s0.917-1.916,1-3.166s0.999,4.499-0.167,8.166s-5.333,12.167-5.333,12.167l-3.917,5.833
		l-1.833,1.917l-2.25,1l-2.334,0.833l-3.416,0.667L94.031,123.885z"/>
	<path fill="#956E28" d="M113.364,111.968l4,0.5l-2.417,2.583v0.917l2.917,0.166l-0.167,0.834l3.417,0.166l2.083-0.416h1.833
		l2.167-0.25l2.083-0.084l1-0.166l3.167-3.5l10.25-2.167h1.167l7.416-1.583l5-1.667l3.334-2.333l3.333-1.667
		c0,0-0.833,2.417-2.5,4.417s-4.25,4.667-4.25,4.667l-1.917,1.916l-2.75,1.917l-2.583,1.667l-1.5,1c0,0,8.334-3.084,10.917-3.834
		s9.75-1.583,9.75-1.583s2-2.084,2.5-2.667s1.25-2.166,1.25-2.166l-0.334-2l-0.583-1.667l-1.167-1.583l-1.166-0.834l-1.25-1.416
		l-0.334-0.25c0,0,6.416-5.083,8-6.75s3.917-4.501,5.167-6.334s3.917-7.666,4.917-10.333s1.833-9.083,2-10.583s-1-9.334-1.75-10.917
		s-3.751-6.501-4.334-7.167s-2.667-2.916-3.25-3.333s-4.167-3.584-4.5-3.917s-3.082-2.333-3.666-2.583s-2-1.417-2.667-1.667
		s-1.917-0.75-1.917-0.75s2.917,6.084,3.167,9.167s0.5,4.75,0.417,7.75s-0.25,6.417-0.917,9.75s-0.417,4.667-1.167,7.75
		s-2.666,8.334-4.166,10.25s-2.416,4.001-5.833,6.917s-7.417,4.249-10.417,6.166s-8.416,4.084-10.75,4.917s-6.167,3.001-8.417,3.417
		s-4.084,0.75-5.917,1s-2.834,0.667-4,0.75s-1.5,0-1.5,0l-3.5,7.499"/>
	<path fill="#956E28" d="M90.988,108.092c0,0,8.5,0.125,10-0.125s1.5-0.25,1.5-0.25l-0.375,3.125c0,0-11.748-1.957-11.999-2.041
		S90.988,108.092,90.988,108.092z"/>
	<path fill="#956E28" d="M148.613,109.842c0,0-17.125,5.625-17.875,6.125s0.5-1.5,0.5-1.5l2.209-1.749l16.041-3.626"/>
	<path fill="#FF5AAD" d="M113.364,42.052L96.281,66.218l8,0.166l13.333-1.5c0,0,1.167,0.584,2.667-2.166s4.332-8.417,4.166-8.667
		s0.251-4.249,0.084-4.583s-1.918-3.834-2.084-4.084s-2.25-2.25-2.583-2.5s-5.417-1.25-5.417-1.25L113.364,42.052z"/>
	<path fill="#C181B9" d="M187.363,73.05c0,0-0.834,3.251-0.917,3.667s-0.916,3.166-0.916,3.166l-0.667,1.25
		c0,0,6.583-0.999,8.5-1.166s10.749-0.251,12.166-0.084s4.918,0.417,5.834,0.667s4.083,1.167,4.083,1.167l2.833,1.25l2.75,1.666
		l3.584,4l1.75,3.584c0,0,1.083,5,1.083,5.25s-0.167,3-0.167,3l-0.75,2.417l-2,1.416l-3.583,2.584l-5,1.833l-7,1.75l-8.416,0.667
		l-10.584,0.833l-10.083,0.416c0,0-11.083,0.834-11.333,0.917s-9.084,1.75-9.084,1.75l-7.333,2.083l-6.417,2.75
		c0,0-3.417,2.333-3.667,2.5s-5,4.334-5,4.334l-2.25,2.25l-6.833,7.833c0,0,11-6.082,13.5-7.166s9.667-3.75,9.667-3.75l6.416-2.25
		l6-1.75l7.084-1.167l5.75-0.917l5.666-0.083l9.501-0.583l7.999-0.417l8.5-1l5.75-1.25l5.917-1.417l5.083-2.25
		c0,0,2.833-1.334,3.75-1.917s3.667-3.416,3.667-3.416l2.417-3.417l0.833-3.333l-0.416-7.5l-1.167-4.833l-1.583-3.417
		c0,0-4.667-4.583-5.667-5.25s-9.417-5-9.667-5S210.78,73.3,210.78,73.3l-9.917-0.417l-9.167-0.083l-4.5-0.083"/>
	<path fill="#B23F79" d="M113.697,41.635c0,0,7.584-8.584,9.084-9.667s3.334-2.667,4.75-2.5s4.167,2.25,6.25,4.5
		s2.749,3.834,3.916,6.584s1.749,4.999,1.583,7.666s-0.332,3.834-0.916,5.167s-1.084,1.917-1.834,2.917s-1,1.5-1,1.5l-2.166,1.666
		l-3,1.5l-2.25,1.083l-3.667,1.083l-3.167,1.084l-4.583,0.5c0,0-0.666,1.166,1.667-1.584s3.666-5.082,4.166-7.416s0.5-4.416,0-6.25
		s-1.833-4.584-3.583-5.417s-6.333-1.417-6.333-1.417L113.697,41.635z"/>
	
		<ellipse transform="matrix(-0.9945 -0.105 0.105 -0.9945 140.0078 145.2564)" fill="#FFFFFF" cx="73.829" cy="68.941" rx="15.703" ry="13.679"/>
	
		<ellipse transform="matrix(-0.9865 -0.1637 0.1637 -0.9865 93.6128 131.1074)" fill="#FFFFFF" cx="52.207" cy="61.698" rx="12.666" ry="10.501"/>
	<path fill="#FFFFFF" d="M21.113,74.55l-1.667-1.167l-4.167-0.5l-3.417,0.584l-1.25,0.75L9.28,75.3l-0.75,0.917l-0.333,2.666v1.75
		l2.083,1.75l1.333,1.25L13.28,83.8l2.75,0.333h2.75c0,0-0.5-2.666-0.583-2.916s1.5-2.834,1.667-3.167s1.25-2.5,1.25-2.5V74.55z"/>
	<ellipse fill="#0090FB" cx="64.384" cy="68.28" rx="5.896" ry="5.229"/>
	<ellipse fill="#0090FB" cx="44.425" cy="61.176" rx="4.854" ry="4.292"/>
	<ellipse fill="#003D5F" cx="44.342" cy="61.176" rx="2.021" ry="1.917"/>
	<ellipse fill="#003D5F" cx="64.259" cy="68.093" rx="2.354" ry="2.25"/>
	<ellipse fill="#FFFFFF" cx="46.654" cy="59.01" rx="1.125" ry="0.958"/>
	<ellipse fill="#FFFFFF" cx="67.217" cy="65.76" rx="1.229" ry="1.083"/>
	<ellipse fill="#FFFFFF" cx="61.8" cy="70.635" rx="1.104" ry="0.958"/>
	<circle fill="#FFFFFF" cx="41.759" cy="63.072" r="0.813"/>
	<path d="M107.113,39.279c-0.188,0.125-14.375,20-14.375,20l15.125-19.313L107.113,39.279z"/>
	<path d="M63.925,94.904c0,0,1.75-2,2.938-2.188s3.688,0.25,3.688,0.25s-2.188,0.125-2.875,0.375s-1-0.063-1.688,0.625
		s-1,1.063-1,1.063L63.925,94.904z"/>
	
		<ellipse transform="matrix(-0.9935 -0.1136 0.1136 -0.9935 139.4989 146.198)" fill="none" stroke="#000000" stroke-width="0.75" cx="73.914" cy="69.125" rx="15.775" ry="13.488"/>
	<path fill="none" stroke="#000000" stroke-width="0.75" d="M58.23,68.324c-0.078-1.619,0.271-3.195,1.205-4.679
		c0.195-0.595,0.527-1.107,0.941-1.563c0.822-1.367,1.925-2.778,3.309-3.546c-1.618-3.963-5.976-6.928-11.245-7.172
		c-6.851-0.318-12.621,4.072-12.887,9.807c-0.267,5.736,5.071,10.643,11.922,10.961c2.522,0.117,4.895-0.407,6.904-1.399
		C58.19,69.966,58.144,69.136,58.23,68.324z"/>
	<path fill="none" stroke="#000000" stroke-width="0.75" d="M41.675,67.654c0,0-3.5,5.313-4,5.75s-1.125,0.5-1.125,0.5
		s-6.063-0.938-8.813-0.875s-8.063,0.313-8.063,0.313"/>
	<path fill="none" stroke="#000000" stroke-width="0.75" d="M11.55,73.717c0,0-2,1.25-2.75,2.25s-0.75,3.5-0.688,4.063
		s1.188,1.625,2.063,2.375s2,1.5,3.875,1.688s5.188,0.688,6.875,0.375s3.938-1.063,4.688-2.188s1.25-2.438,0.875-3.625
		s-1.563-3.125-4.188-4.125S16.738,71.967,11.55,73.717z"/>
	<path fill="none" stroke="#000000" stroke-width="0.75" d="M12.05,83.779c0,0,1.75,1.875,3.25,2.688s8.938,4.688,15.063,6.25
		S45.8,97.029,50.8,97.404s7.938,0.25,9.563-0.438s3.813-2,4.625-2.625"/>
	<path fill="none" stroke="#000000" stroke-width="0.75" d="M43.925,96.342c0,0,5.563,5,9.313,6.688s10.25,4.5,16,5.188
		s14.5,1.313,20.5,0.25s9.5-2.313,12.5-4.375s9.438-8.688,11.063-12.563s2.563-8.625,2.625-11.438s-1.375-12.875-1.875-13.563
		s-0.438-1-0.438-1"/>
	<path fill="none" stroke="#000000" stroke-width="0.75" d="M106.738,40.654c0,0,5.813-6.875,8.938-10.375s7.563-7.438,9.875-7.813
		s3.813-0.188,7.063,2.875s7,7.438,7.875,11s0.938,5.875,1,9.188s-0.375,5.25-1.625,7.563s-4.332,4.792-5.749,5.959
		s-7.334,3.834-12.584,4.917s-8.479,1.749-10.229,1.999"/>
	<path d="M111.634,65.571c0,0-5.416,0.396-7.083,0.542s-1.604,0.229-1.604,0.229s7.313,0.375,9.542-0.25"/>
	<path fill="none" stroke="#000000" stroke-width="0.75" d="M58.03,52.3c0,0,8.751-6.083,11.417-7s7.999-3.584,13.416-3.167
		s12.917,3.583,15,4.667s2.833,1.667,2.833,1.667"/>
	<path fill="none" stroke="#000000" stroke-width="0.75" d="M76.78,42.717c0,0-3.583-10-4.75-13.417s-2.75-10.917-2.25-13.417
		s2.001-4.833,4.417-5.75s10.167-1.583,13.75-0.917s8.584,2.583,11.5,5.167s5.417,5.083,5.75,8.333s0.167,10-1.417,14.417
		s-4.417,10.334-4.417,10.334"/>
	<path fill="none" stroke="#000000" stroke-width="0.75" d="M139.946,33.467c0,0,6.749-1.333,12.833-0.5s11.001,2,15.834,4.75
		s12.499,9,15.083,13.25s5,10.749,4,19.083s-4.334,15.749-7.75,19.583s-7.833,8.75-12.833,11.667s-5.168,3.25-10.334,5.667
		s-8.082,3-13.666,4s-11.167,1.666-16.917,1.666s-9.083-0.417-10.833-0.5s-2.333-0.166-2.333-0.166"/>
	<path fill="none" stroke="#000000" stroke-width="0.75" d="M102.196,110.883c0,0-11.166-1.832-12.083-1.916s-1-0.5-1-0.5"/>
	<path fill="none" stroke="#000000" stroke-width="0.75" d="M102.863,107.883c-0.083,0.25-1.583,5.917-1.583,5.917
		s-5.334,0.583-7.167,1.25s-4.001,2.333-4.917,3.75s-2.083,4.083-2.083,4.083l1.75,0.167l-0.417,0.917c0,0,5.166,0.166,7.75-0.167
		s6.25-0.749,7.917-1.333s2.834-1.166,4.167-3s4.334-6.584,6-9.834s3.25-6.749,3.75-9.166s0.5-3.917,0.5-3.917"/>
	<path fill="none" stroke="#000000" stroke-width="0.75" d="M86.28,109.05l-1.917,5.917c0,0-3.083-0.416-4.583,0
		s-3.75,2.666-4.917,3.916s-1.917,2.75-1.917,2.75l1.584,0.25l-0.5,0.834l3.916-0.084L77.78,123.3c0,0,7.333-0.166,8.583-1.083
		s1.25-0.917,1.25-0.917"/>
	<line fill="none" stroke="#000000" stroke-width="0.75" x1="96.113" y1="109.967" x2="93.696" y2="115.217"/>
	<path fill="none" stroke="#000000" stroke-width="0.75" d="M133.947,112.133c0,0-4.001,3.751-4.667,5.084s-0.666,2.25-0.666,2.25
		l1.416,0.25l-0.25,0.583l7.25-0.25l0.667,0.333l7.667,0.084"/>
	<path fill="none" stroke="#000000" stroke-width="0.75" d="M167.78,100.8c0,0,2.917,2.167,3.917,4.167s0.916,3.667,0.833,4.417
		s-1.332,2.333-1.666,2.833s-1.417,1.167-1.417,1.167"/>
	<line fill="none" stroke="#000000" stroke-width="0.75" x1="139.531" y1="33.675" x2="140.739" y2="33.342"/>
	<path fill="none" stroke="#000000" stroke-width="0.75" d="M152.3,68.592c0,0-4.125,0.875-7.875,2.813s-9,6.688-11.125,10.25
		s-2.813,7.438-3,10.75s2.063,10.375,5.188,13.063s8,5,10.813,4.813"/>
	<path d="M152.092,68.238c0,0,3.73-0.376,7.001,0.271s3.521,0.793,4.375,1.146s0.958,0.375,0.958,0.375s-9.354-1.563-12.25-1.063"/>
	<path fill="none" stroke="#000000" stroke-width="0.75" d="M187.447,73.05c0,0,17.75-1.001,25.75,1.083s15.917,5.834,19.25,11.834
		s3.333,15.584,2,18.417s-5.167,6.583-10.75,9.083s-13.249,4.251-18.666,4.667s-13.334,1.166-21.084,1.416s-13.917,0.667-22.5,3
		s-16.75,5.167-25.083,9.75s-8.333,4.583-8.333,4.583s8.25-11.417,15.583-15.583s16.999-7.417,29.916-8.25
		s31.335-1.749,37.251-2.916s13.416-3.418,15.583-7.584s0.416-10.166-1.334-13.083s-5.584-7.333-14.5-8.833s-23.084-0.5-25,0.25"/>
	<line fill="none" stroke="#000000" stroke-width="0.75" x1="185.114" y1="81.217" x2="187.447" y2="80.467"/>
	<path fill="none" stroke="#000000" stroke-width="0.75" d="M117.614,112.134c0,0-2.167,2-2.417,2.583s-0.416,1.083,0.417,1.25
		s2.25,0,2.25,0l-0.083,0.917c0,0,2.667,0.249,4-0.084s1.75-0.166,1.75-0.166s3.75,0.166,4.833-0.084s1.583-0.083,1.583-0.083"/>
	<path fill="none" stroke="#000000" stroke-width="0.75" d="M117.864,115.967c0,0,1.665-2.918,2.332-3.209s0.958-0.25,0.958-0.25"/>
	<path fill="none" stroke="#000000" stroke-width="0.75" d="M123.279,116.383c0,0,0.75-1.5,1.542-2.125s2.167-1.541,2.167-1.541"/>
	<path d="M74.321,121.967c0,0,0.166-0.751,1.958-2.542s1.959-1.791,1.959-1.791s-3.291,4.374-3.625,4.916"/>
	<path d="M77.571,122.634c0,0,1.75-2.709,2.875-3.834s1.583-1.208,1.583-1.208s-4.123,5.333-4.249,5.708"/>
	<path d="M89.029,123.009c0.042-0.125,2.916-3.876,3.625-4.334s0.709-0.458,0.709-0.458l-4.334,6"/>
	<path d="M93.321,123.759c0.042-0.125-0.001-1.168,1.458-2.959s3.625-3.25,3.625-3.25s-2.624,3.125-3.166,4.042
		s-1.042,2.458-1.042,2.458"/>
	<path d="M130.03,119.717c0,0,2.167-2.667,3.75-4.125s3.833-2.667,3.833-2.667s-7.001,7.042-7.167,7.292s-0.166,0.25-0.166,0.25"/>
	<path d="M136.863,119.884c0,0,1.124-2.041,3.333-3.75s5-3,5-3s-7.625,6.375-7.75,7.333L136.863,119.884z"/>
	<path d="M21.196,73.967c0,0-3.833,0.083-6.083,1.333s-3.083,2.416-3.417,3.083S11.529,80.3,12.779,81.3s2.667,2.416,4.917,2.833
		s2.75,0.75,2.75,0.75s3.667-1.229,4.417-1.916s1.75-3,1.75-3l-0.125-1.313L25.946,76.8l-2.75-2l-1.583-0.75"/>
</g>
<g id="frame_2">
	<path fill="#D69E3A" d="M109.601,13.942c-0.732-2.236-4.98-6.602-6.483-7.946c-1.503-1.343-9.006-4.752-9.006-4.752
		s-9.857-1.8-11.711-0.628c-1.853,1.173-3.815,3.105-4.021,3.504c-0.204,0.4-0.977,6.489-0.977,6.489l-0.5,11.603l0.993,16.487
		c0,0-10.713,2.928-12.243,3.709c-1.531,0.779-6.891,4.015-6.891,4.015s-5.401,8.134-5.874,8.988
		c-0.473,0.854-3.646,8.373-3.695,9.078c-0.048,0.706-1.208,4.701-1.208,4.701l-0.363,0.979l-1.744,21.971
		c0,0,1.013,6.743,0.88,6.97c-0.133,0.229-1.657,1.778-1.657,1.778s-7.833,4.838-9.059,6.348S32.9,110.86,32.9,110.86
		s3.312,1.644,3.665,1.668c0.353,0.024,3.392,1.355,3.392,1.355l-1.757,4.96l0.012,1.535l-3.689,2.11l-1.005,0.876l1.623,0.466
		c0,0,2.437-0.247,3.15-0.316c0.715-0.068,8.559-2.483,10.064-2.912c1.506-0.429,15.363-6.978,16.847-7.939
		c1.483-0.962,3.937-0.557,3.937-0.557s7.363-0.558,10.554-1.461c3.193-0.904,10.035-4.216,11.566-4.996
		c1.53-0.779,17.188-22.386,17.188-22.386s-0.452-14.088-0.678-14.223c-0.228-0.133-7.82-9.986-7.82-9.986s-3.623-6.568-3.844-6.82
		c-0.219-0.251-3.576-2.962-3.576-2.962l17.271-24.449C109.799,24.823,110.333,16.178,109.601,13.942z M88.811,92.386
		c-0.194,0.797-1.421,0.459-1.227-0.338c0.185-0.756-0.183-1.526-0.438-2.225c-0.281-0.772,0.948-1.103,1.227-0.338
		C88.719,90.433,89.059,91.37,88.811,92.386z"/>
	<path fill="#D69E3A" d="M92.367,107.717c0.25,0,5.833,1.167,5.833,1.167l4.583-0.417l0.917,0.417l-2.333,4.833
		c0,0-6.083,0.583-6.5,0.75s-3.834,2.25-3.834,2.25l-2.583,4.25c0,0-0.833,1.416-0.583,1.25s1.416,0.334,1.416,0.334
		s-0.166,0.834,0.084,0.75s5.083,0.25,5.083,0.25l7.417-3.167c0,0,5.082-3.584,5.666-4.167s5-6.333,5.25-6.833
		s2.25-5.167,2.25-5.167s3.584,0.75,3.834,0.75s8.499-0.333,8.499-0.333s7.334-1.666,7.584-1.833s10.249-3.167,10.249-3.167
		s9.417-4.166,9.667-4.25s9.75-8.833,9.75-8.833l5.25-11.334c0,0,4-14.75,3.75-14.75s0.583-9.916,0.333-10.333
		s-1.916-9.667-2.166-9.917s-4.167-4.083-4.417-4.083s-8.834-2.75-9.667-2.917s-8.416-0.917-8.416-0.917l-6.917,0.584l-2.5,0.5
		l2,14.167l-1.5,4.333l-0.917,2.167l-2.166,1.916l-3.834,3.5l-4.25,1.584l-5.75,1.916l-6.666,1.584l-2.834,0.75l2.417,12.333
		L116.2,82.3l-1.5,6.084l-4.584,8.25l-4.75,4.583l-6.083,4.334l-5.167,0.75l-1.5,1L92.367,107.717z"/>
	<path fill="#D69E3A" d="M139.45,111.3l-7.917,7.834l2.917,0.333l3.416,0.083l1.084,0.417h6.083c0,0,4.583-2.001,4.833-2.167
		s4.25-1.5,4.25-1.5s4.416-2.166,4.75-2.416s3.084-3.334,3.084-3.334l1.583-2.583l0.833-1.833l2.334-2.25c0,0-0.666-2.584-1-2.667
		s-7.5,1.418-8.5,1.584s-8.167,3-8.917,3.333s-6.916,3.166-7.083,3.333s-3.167,2.584-3.167,2.584l-0.25,0.416"/>
	<path fill="#D69E3A" d="M139.407,111.883c-0.5,0-8.125,3.125-8.125,3.125l-1.25,1.375l-0.5,2l0.75,0.625l1.251,0.126l6.249-3.501
		l1.75-2.875"/>
	<path fill="#956E28" d="M55.911,50.126c-0.188,0.163-12.13-6.563-13.485-7.482c-1.354-0.919-8.541-6.374-9.135-7.183
		c-0.593-0.809-1.668-4.072-1.675-4.841c-0.006-0.769,0.5-2.979,0.5-2.979l2.994-4.046l5.93-5.5l1.593-0.836l8.047-2.814
		l4.689-0.328l5.032,0.699l3.202,1.52l3.928,3.872l2.824,3.62l1.312,2.393l1.507,3.884l1.44,3.938l1.605,5.012l1.388-0.436
		l0.42,5.935c0,0-0.798-0.409-2.929-1.204c-2.131-0.796-7.076-1.903-7.265-1.739c-0.188,0.164-3.396,1.303-3.396,1.303l-3.878,2.273
		l-3.149,2.854L55.911,50.126z"/>
	<path fill="#956E28" d="M91.052,51c0,0,5.713,5.414,7.237,7.29s6.239,8.932,7.119,11.592c0.88,2.659,1.188,5.931,0.672,9.144
		c-0.516,3.212-0.832,4.372-1.706,6.793c-0.876,2.421-3.605,7.783-5.067,9.278c-1.461,1.495-4.487,5.126-6.379,6.888
		c-1.892,1.76-6.839,5.851-7.271,6.115c-0.433,0.266,1.418-0.021,1.418-0.021l5.29-3.063l6.247-4.119l6.99-6.314
		c0,0,3.581-3.119,3.714-3.346c0.136-0.229,3.556-5.31,3.556-5.31l3.227-9.996l0.15-9.972l-2.407-7.075l-3.086-5.824l-5.955-5.311
		l-4.97-4.181l-1.284-0.206L91.052,51z"/>
	<path fill="#956E28" d="M86.533,108.634l-1.666,6c0,0-4.668,0-5.084,0.083S76.2,117.55,76.2,117.55l-2.167,2.5l-0.666,1.167l1,0.25
		l0.083,0.917h3.917l-0.5,0.666c0,0,5.5-0.583,6.083-0.583s2.583-0.5,2.583-0.5l1.75-1.5l1-1.5l1.584-1.667l1.166-1.083l1.5-1
		l0.834-0.583l2.5-5.167c0,0-7.5-0.749-8-0.833s-2.584-0.5-2.584-0.5"/>
	<path fill="#956E28" d="M94.45,123.551l0.333-1.084c0,0,2.084,0.001,3.584-0.916s6.165-4.584,8.249-7.167s4.083-5.167,5.667-8
		s1.334-2.5,2.667-5.25s1.5-2.751,2.25-5.167s0.917-1.916,1-3.166s0.999,4.499-0.167,8.166s-5.333,12.167-5.333,12.167l-3.917,5.833
		l-1.833,1.917l-2.25,1l-2.334,0.833l-3.416,0.667L94.45,123.551z"/>
	<path fill="#956E28" d="M113.783,111.634l4,0.5l-2.417,2.583v0.917l2.917,0.166l-0.167,0.834l3.417,0.166l2.083-0.416h1.833
		l2.167-0.25l2.083-0.084l1-0.166l3.167-3.5l10.25-2.167h1.167l7.416-1.583l5-1.667l3.334-2.333l3.333-1.667
		c0,0-0.833,2.417-2.5,4.417s-4.25,4.667-4.25,4.667l-1.917,1.916l-2.75,1.917l-2.583,1.667l-1.5,1c0,0,8.334-3.084,10.917-3.834
		s9.75-1.583,9.75-1.583s2-2.084,2.5-2.667s1.25-2.166,1.25-2.166l-0.334-2l-0.583-1.667l-1.167-1.583l-1.166-0.834l-1.25-1.416
		l-0.334-0.25c0,0,6.416-5.083,8-6.75s3.917-4.501,5.167-6.334s3.917-7.666,4.917-10.333s1.833-9.083,2-10.583s-1-9.334-1.75-10.917
		s-3.751-6.501-4.334-7.167s-2.667-2.916-3.25-3.333s-4.167-3.584-4.5-3.917s-3.082-2.333-3.666-2.583s-2-1.417-2.667-1.667
		s-1.917-0.75-1.917-0.75s2.917,6.084,3.167,9.167s0.5,4.75,0.417,7.75s-0.25,6.417-0.917,9.75s-0.417,4.667-1.167,7.75
		s-2.666,8.334-4.166,10.25s-2.416,4.001-5.833,6.917s-7.417,4.249-10.417,6.166s-8.416,4.084-10.75,4.917s-6.167,3.001-8.417,3.417
		s-4.084,0.75-5.917,1s-2.834,0.667-4,0.75s-1.5,0-1.5,0l-3.5,7.499"/>
	<path fill="#956E28" d="M91.407,107.758c0,0,8.5,0.125,10-0.125s1.5-0.25,1.5-0.25l-0.375,3.125c0,0-11.748-1.957-11.999-2.041
		S91.407,107.758,91.407,107.758z"/>
	<path fill="#956E28" d="M149.032,109.508c0,0-17.125,5.625-17.875,6.125s0.5-1.5,0.5-1.5l2.209-1.749l16.041-3.626"/>
	<path fill="#FF5AAD" d="M82.99,25.642l2.998,29.441l6.141-5.132l9.065-9.89c0,0,1.264-0.327,0.587-3.385
		c-0.675-3.06-2.265-9.192-2.553-9.271c-0.289-0.08-2.603-3.369-2.949-3.511c-0.345-0.142-3.964-1.63-4.254-1.71
		c-0.289-0.08-3.174-0.217-3.589-0.187c-0.416,0.03-4.906,2.618-4.906,2.618L82.99,25.642z"/>
	<path fill="#C181B9" d="M187.782,72.716c0,0-0.834,3.251-0.917,3.667s-0.916,3.166-0.916,3.166l-0.667,1.25
		c0,0,6.583-0.999,8.5-1.166s10.749-0.251,12.166-0.084s4.918,0.417,5.834,0.667s4.083,1.167,4.083,1.167l2.833,1.25l2.75,1.666
		l3.584,4l1.75,3.584c0,0,1.083,5,1.083,5.25s-0.167,3-0.167,3l-0.75,2.417l-2,1.416l-3.583,2.584l-5,1.833l-7,1.75l-8.416,0.667
		l-10.584,0.833l-10.083,0.416c0,0-11.083,0.834-11.333,0.917s-9.084,1.75-9.084,1.75l-7.333,2.083l-6.417,2.75
		c0,0-3.417,2.333-3.667,2.5s-5,4.334-5,4.334l-2.25,2.25l-6.833,7.833c0,0,11-6.082,13.5-7.166s9.667-3.75,9.667-3.75l6.416-2.25
		l6-1.75l7.084-1.167l5.75-0.917l5.666-0.083l9.501-0.583l7.999-0.417l8.5-1l5.75-1.25l5.917-1.417l5.083-2.25
		c0,0,2.833-1.334,3.75-1.917s3.667-3.416,3.667-3.416l2.417-3.417l0.833-3.333l-0.416-7.5l-1.167-4.833l-1.583-3.417
		c0,0-4.667-4.583-5.667-5.25s-9.417-5-9.667-5s-6.166-1.417-6.166-1.417l-9.917-0.417l-9.167-0.083l-4.5-0.083"/>
	<path fill="#B23F79" d="M82.964,25.108c0,0,0.079-11.455,0.497-13.257c0.421-1.802,0.762-4.2,1.939-5.005
		c1.177-0.805,4.618-1.042,7.668-0.714c3.048,0.328,4.592,1.084,7.277,2.391c2.688,1.307,4.603,2.62,6.23,4.739
		c1.627,2.12,2.27,3.109,2.704,4.498c0.437,1.389,0.443,2.157,0.535,3.404c0.091,1.246,0.232,1.788,0.232,1.788l-0.539,2.678
		l-1.276,3.102l-0.984,2.296l-2.053,3.225l-1.676,2.899l-3.128,3.388c0,0,0.267,1.317,0.217-2.289
		c-0.048-3.605-0.574-6.239-1.731-8.327c-1.155-2.089-2.525-3.658-4.106-4.713c-1.581-1.054-4.393-2.25-6.26-1.73
		c-1.867,0.523-5.705,3.093-5.705,3.093L82.964,25.108z"/>
	
		<ellipse transform="matrix(-0.8187 0.5742 -0.5742 -0.8187 170.1381 90.0599)" fill="#FFFFFF" cx="70.852" cy="71.888" rx="15.703" ry="13.679"/>
	
		<ellipse transform="matrix(-0.8512 0.5248 -0.5248 -0.8512 134.4954 123.1377)" fill="#FFFFFF" cx="49.793" cy="80.634" rx="12.666" ry="10.501"/>
	<path fill="#FFFFFF" d="M34.797,110.752l-2.023,0.216l-3.47,2.36l-2.191,2.686l-0.45,1.386l-0.293,1.693l0.037,1.184l1.5,2.229
		l1.15,1.318l2.721-0.05l1.826,0.067l1.366-0.969l2.292-1.557l2.073-1.807c0,0-2.129-1.683-2.356-1.815
		c-0.227-0.134-0.731-3.122-0.825-3.481c-0.093-0.361-0.7-2.707-0.7-2.707L34.797,110.752z"/>
	
		<ellipse transform="matrix(-0.7539 0.657 -0.657 -0.7539 161.9975 94.5022)" fill="#0090FB" cx="63.297" cy="77.595" rx="5.895" ry="5.23"/>
	
		<ellipse transform="matrix(-0.7539 0.657 -0.657 -0.7539 132.5172 121.0674)" fill="#0090FB" cx="43.584" cy="85.353" rx="4.854" ry="4.292"/>
	
		<ellipse transform="matrix(-0.7539 0.657 -0.657 -0.7539 132.4438 121.2027)" fill="#003D5F" cx="43.521" cy="85.408" rx="2.021" ry="1.917"/>
	
		<ellipse transform="matrix(-0.754 0.6568 -0.6568 -0.754 161.5727 94.5679)" fill="#003D5F" cx="63.08" cy="77.536" rx="2.354" ry="2.25"/>
	
		<ellipse transform="matrix(-0.7535 0.6574 -0.6574 -0.7535 130.953 115.4173)" fill="#FFFFFF" cx="43.841" cy="82.256" rx="1.125" ry="0.958"/>
	
		<ellipse transform="matrix(-0.7538 0.6571 -0.6571 -0.7538 160.3685 87.5871)" fill="#FFFFFF" cx="63.778" cy="73.833" rx="1.228" ry="1.083"/>
	
		<ellipse transform="matrix(-0.7536 0.6574 -0.6574 -0.7536 163.5856 100.8117)" fill="#FFFFFF" cx="62.897" cy="81.067" rx="1.104" ry="0.958"/>
	<circle fill="#FFFFFF" cx="42.82" cy="88.535" r="0.812"/>
	<path d="M76.455,27.658c-0.06,0.217,2.304,24.521,2.304,24.521l-1.285-24.496L76.455,27.658z"/>
	
		<ellipse transform="matrix(-0.8236 0.5672 -0.5672 -0.8236 170.3648 90.9526)" fill="none" stroke="#000000" stroke-width="0.75" cx="71.038" cy="71.971" rx="15.775" ry="13.488"/>
	<path fill="none" stroke="#000000" stroke-width="0.75" d="M58.687,81.672c-1.123-1.169-1.895-2.587-2.166-4.318
		c-0.244-0.577-0.331-1.182-0.318-1.797c-0.278-1.571-0.374-3.36,0.164-4.847c-3.823-1.926-9.057-1.297-13.189,1.981
		c-5.373,4.261-6.838,11.362-3.271,15.859c3.568,4.5,10.815,4.691,16.189,0.431c1.979-1.568,3.423-3.524,4.286-5.592
		C59.736,82.936,59.155,82.341,58.687,81.672z"/>
	<path fill="none" stroke="#000000" stroke-width="0.75" d="M45.768,92.044c0,0,0.852,6.304,0.762,6.964
		c-0.089,0.657-0.519,1.115-0.519,1.115s-5.186,3.276-7.218,5.13c-2.033,1.854-5.873,5.533-5.873,5.533"/>
	<path fill="none" stroke="#000000" stroke-width="0.75" d="M27.041,116.407c0,0-0.687,2.255-0.594,3.503
		c0.091,1.247,1.734,3.133,2.151,3.514c0.417,0.383,1.963,0.446,3.115,0.436c1.152-0.01,2.494-0.184,4.03-1.272
		c1.537-1.091,4.362-2.892,5.43-4.236c1.066-1.344,2.27-3.387,2.097-4.728c-0.175-1.342-0.66-2.658-1.722-3.309
		c-1.063-0.648-3.231-1.329-5.867-0.357C33.042,110.927,29.801,111.68,27.041,116.407z"/>
	<path fill="none" stroke="#000000" stroke-width="0.75" d="M34.029,123.665c7.832,0.718,15.377-3.19,22.187-6.539
		c5.737-2.821,11.828-5.194,17.002-9.016"/>
	<path fill="none" stroke="#000000" stroke-width="0.75" d="M81.477,109.923c14.212-4.79,32.664-17.565,34.469-33.744
		c0.93-8.337-0.22-16.064-5.503-22.873c-2.849-3.672-7.518-8.332-11.841-10.129"/>
	<path fill="none" stroke="#000000" stroke-width="0.75" d="M66.312,112.191c3.766,0.034,7.778-0.013,11.414-1.076"/>
	<path fill="none" stroke="#000000" stroke-width="0.75" d="M77.076,28.94c0,0-0.136-9.001-0.078-13.692
		c0.056-4.692,0.813-10.577,2.31-12.378c1.498-1.802,2.752-2.646,7.214-2.472c4.462,0.173,10.163,1.007,13.164,3.118
		c3,2.11,4.567,3.813,6.79,6.269c2.224,2.456,3.166,4.205,3.744,6.769c0.576,2.564-0.117,6.459-0.419,8.27
		c-0.301,1.812-3.01,7.708-6.256,11.975c-3.246,4.266-5.243,6.891-6.398,8.229"/>
	<path d="M97.137,44.508c0,0-3.822,3.857-4.983,5.063c-1.16,1.205-1.058,1.228-1.058,1.228s5.76-4.521,7.029-6.459"/>
	<path fill="none" stroke="#000000" stroke-width="0.75" d="M48.008,69.724c0,0,2.6-10.335,4.007-12.778
		c1.408-2.444,3.676-7.959,8.033-11.203s12.092-5.785,14.375-6.337c2.281-0.552,3.23-0.604,3.23-0.604"/>
	<path fill="none" stroke="#000000" stroke-width="0.75" d="M55.846,50.18c0,0-9.271-5.186-12.396-6.993
		c-3.125-1.81-9.247-6.424-10.512-8.637c-1.265-2.213-1.667-4.959-0.448-7.236c1.22-2.279,6.625-7.874,9.764-9.726
		c3.139-1.851,8.168-3.692,12.063-3.661c3.896,0.032,7.424,0.273,9.811,2.504c2.386,2.232,6.695,7.429,8.403,11.799
		c1.709,4.371,3.46,10.692,3.46,10.692"/>
	<path fill="none" stroke="#000000" stroke-width="0.75" d="M140.365,33.133c0,0,6.749-1.333,12.833-0.5s11.001,2,15.834,4.75
		s12.499,9,15.083,13.25s5,10.749,4,19.083s-4.334,15.749-7.75,19.583s-7.833,8.75-12.833,11.667s-5.168,3.25-10.334,5.667
		s-8.082,3-13.666,4s-11.167,1.666-16.917,1.666s-9.083-0.417-10.833-0.5s-2.333-0.166-2.333-0.166"/>
	<path fill="none" stroke="#000000" stroke-width="0.75" d="M102.615,110.549c0,0-11.166-1.832-12.083-1.916s-1-0.5-1-0.5"/>
	<path fill="none" stroke="#000000" stroke-width="0.75" d="M103.282,107.549c-0.083,0.25-1.583,5.917-1.583,5.917
		s-5.334,0.583-7.167,1.25s-4.001,2.333-4.917,3.75s-2.083,4.083-2.083,4.083l1.75,0.167l-0.417,0.917c0,0,5.166,0.166,7.75-0.167
		s6.25-0.749,7.917-1.333s2.834-1.166,4.167-3s4.334-6.584,6-9.834s3.25-6.749,3.75-9.166s0.5-3.917,0.5-3.917"/>
	<path fill="none" stroke="#000000" stroke-width="0.75" d="M86.699,108.716l-1.917,5.917c0,0-3.083-0.416-4.583,0
		s-3.75,2.666-4.917,3.916s-1.917,2.75-1.917,2.75l1.584,0.25l-0.5,0.834l3.916-0.084l-0.166,0.667c0,0,7.333-0.166,8.583-1.083
		s1.25-0.917,1.25-0.917"/>
	<line fill="none" stroke="#000000" stroke-width="0.75" x1="96.532" y1="109.633" x2="94.115" y2="114.883"/>
	<path fill="none" stroke="#000000" stroke-width="0.75" d="M134.366,111.799c0,0-4.001,3.751-4.667,5.084s-0.666,2.25-0.666,2.25
		l1.416,0.25l-0.25,0.583l7.25-0.25l0.667,0.333l7.667,0.084"/>
	<path fill="none" stroke="#000000" stroke-width="0.75" d="M168.199,100.466c0,0,2.917,2.167,3.917,4.167s0.916,3.667,0.833,4.417
		s-1.332,2.333-1.666,2.833s-1.417,1.167-1.417,1.167"/>
	<line fill="none" stroke="#000000" stroke-width="0.75" x1="139.95" y1="33.341" x2="141.158" y2="33.008"/>
	<path fill="none" stroke="#000000" stroke-width="0.75" d="M152.719,68.258c0,0-4.125,0.875-7.875,2.813s-9,6.688-11.125,10.25
		s-2.813,7.438-3,10.75s2.063,10.375,5.188,13.063s8,5,10.813,4.813"/>
	<path d="M152.511,67.904c0,0,3.73-0.376,7.001,0.271s3.521,0.793,4.375,1.146s0.958,0.375,0.958,0.375s-9.354-1.563-12.25-1.063"/>
	<path fill="none" stroke="#000000" stroke-width="0.75" d="M187.866,72.716c0,0,17.75-1.001,25.75,1.083s15.917,5.834,19.25,11.834
		s3.333,15.584,2,18.417s-5.167,6.583-10.75,9.083s-13.249,4.251-18.666,4.667s-13.334,1.166-21.084,1.416s-13.917,0.667-22.5,3
		s-16.75,5.167-25.083,9.75s-8.333,4.583-8.333,4.583s8.25-11.417,15.583-15.583s16.999-7.417,29.916-8.25
		s31.335-1.749,37.251-2.916s13.416-3.418,15.583-7.584s0.416-10.166-1.334-13.083s-5.584-7.333-14.5-8.833s-23.084-0.5-25,0.25"/>
	<line fill="none" stroke="#000000" stroke-width="0.75" x1="185.533" y1="80.883" x2="187.866" y2="80.133"/>
	<path fill="none" stroke="#000000" stroke-width="0.75" d="M118.033,111.8c0,0-2.167,2-2.417,2.583s-0.416,1.083,0.417,1.25
		s2.25,0,2.25,0l-0.083,0.917c0,0,2.667,0.249,4-0.084s1.75-0.166,1.75-0.166s3.75,0.166,4.833-0.084s1.583-0.083,1.583-0.083"/>
	<path fill="none" stroke="#000000" stroke-width="0.75" d="M118.283,115.633c0,0,1.665-2.918,2.332-3.209s0.958-0.25,0.958-0.25"/>
	<path fill="none" stroke="#000000" stroke-width="0.75" d="M123.698,116.049c0,0,0.75-1.5,1.542-2.125s2.167-1.541,2.167-1.541"/>
	<path d="M74.74,121.633c0,0,0.166-0.751,1.958-2.542s1.959-1.791,1.959-1.791s-3.291,4.374-3.625,4.916"/>
	<path d="M77.99,122.3c0,0,1.75-2.709,2.875-3.834s1.583-1.208,1.583-1.208s-4.123,5.333-4.249,5.708"/>
	<path d="M89.448,122.675c0.042-0.125,2.916-3.876,3.625-4.334s0.709-0.458,0.709-0.458l-4.334,6"/>
	<path d="M93.74,123.425c0.042-0.125-0.001-1.168,1.458-2.959s3.625-3.25,3.625-3.25s-2.624,3.125-3.166,4.042
		s-1.042,2.458-1.042,2.458"/>
	<path d="M130.449,119.383c0,0,2.167-2.667,3.75-4.125s3.833-2.667,3.833-2.667s-7.001,7.042-7.167,7.292s-0.166,0.25-0.166,0.25"/>
	<path d="M137.282,119.55c0,0,1.124-2.041,3.333-3.75s5-3,5-3s-7.625,6.375-7.75,7.333L137.282,119.55z"/>
	<path d="M34.477,110.257c0,0-2.835,2.583-3.71,5.003c-0.875,2.421-0.737,3.848-0.55,4.57c0.187,0.721,1.134,1.553,2.733,1.485
		c1.599-0.065,3.598,0.07,5.568-1.094c1.97-1.165,2.566-1.242,2.566-1.242s1.957-3.335,2.071-4.345
		c0.114-1.012-0.652-3.412-0.652-3.412l-0.956-0.908l-1.627-1.042l-3.387,0.3l-1.687,0.476"/>
	<path fill="#D69E3A" d="M140.26,33.467l-6.25,1.625l-4.313,2.188c0,0-3.75,2.5-3.938,2.563s-3.313,2.188-3.313,2.188l-2.375,1.5
		l-2.438,2.188l-1.563,2.188l-1.875,2.875l-2.156,4.188c0,0,2.094,3.625,2.5,4.656s1.344,3.25,1.563,4.313s0.156,0.781,0.156,0.781
		s9.656-1.656,9.813-1.719s8.75-2.844,8.875-2.875s7.5-6.281,7.5-6.281s1.25-6.125,0.969-6.781s-1.938-7.625-1.938-7.719"/>
	<path fill="#D69E3A" d="M89.115,86.718c-0.25-0.25-3.751,6.583-3.417,6.833s1.25,2.001,2.167,1.834s4.249-2.667,4.583-3.417
		s-1.832-5.666-2.416-5.833s-3.667,1.083-3.667,1.083l-0.25,3.167l4.583,2.333l7.167-3.167"/>
	<path fill="#D69E3A" d="M79.229,109.561c0,0-1.5,1.563-1.594,1.781s1.344,0.25,1.344,0.25l1.125-0.656c0,0,0.719-1.125,0.719-1.219
		"/>
	<path fill="#D69E3A" d="M114.366,59.134c0,0,1.375,3.666,1.75,6.041s0.854,0.625,0.854,0.625s0.001-1.333-0.041-1.396
		s-0.5-2.583-0.542-2.646S114.366,59.134,114.366,59.134z"/>
	<path fill="#D69E3A" d="M116.282,76.862c0,0-0.896,4.604-1.833,6.438s1.332-0.313,1.354-0.375s0.791-1.438,0.813-1.542
		s0.313-1.52,0.271-1.666s-0.146-1.918-0.125-2.021s-0.417-0.958-0.417-0.958"/>
	<path fill="#956E28" d="M115.115,78.842c0,0-0.625,2.457-1.083,3.541s0.75-4.354,0.75-4.354"/>
	<path fill="#FCFCFC" d="M57.615,79.384c0,0,1.167,2.375,2.479,3.188s5.292,1.022,5.458,1.063s4.25-3.271,4.313-3.375
		s0.313-4.084,0.354-4.229s-0.355-2.313-0.521-2.417s-2.854-2.438-3.063-2.5s-2.896-0.5-3.292-0.438s-1.958,0.583-2.146,0.688
		s-1.729,1.208-1.896,1.438s-2.021,2.334-2.021,2.334"/>
	<path fill="#FCFCFC" d="M38.76,85.134c0,0,0.125,0.73,0.229,1.084s0.875,1.916,1.75,2.708s1.167,0.958,1.167,0.958
		s1.791,0.271,1.896,0.334s1.333-0.271,1.438-0.354s2.25-1.813,2.25-1.813s0.604-0.708,0.646-0.813s0.396-2.896,0.417-2.958
		s-0.375-2.001-0.458-2.146s-1.042-1.479-1.188-1.541s-3.125-0.646-3.271-0.646s-3.188,1.271-3.396,1.438s-1.25,2.021-1.25,2.021"/>
	<path fill="#FCFCFC" d="M40.682,88.779l1.125,1.094C41.807,89.873,41.182,89.373,40.682,88.779z"/>
	<polyline fill="#FCFCFC" points="41.042,88.67 42.167,89.686 41.906,89.884 	"/>
	<path fill="none" stroke="#020202" stroke-width="0.75" d="M111.698,54.779c0,0,3.313-6.875,7.625-10.438s11.75-8.188,14.688-9.25
		s8.438-2.313,9-2.375"/>
	<path fill="#D69E3A" d="M116.24,77.093c0,0-0.323,2.499-0.792,3.749s-0.906,2.563-1.813,4.094s-2.406,3.906-3.094,4.719
		s-1.094,1.5-2.156,2.656s-1.438,1.656-2.875,2.969s-3.5,3.031-3.5,3.031s-2.844,2.344-3.5,2.875s-1.188,0.813-2.344,1.656
		s-1,0.813-2.313,1.688s-2.969,1.781-3.781,2.25s-2.75,1.313-2.969,1.406s2.219,0.563,2.563,0.563s2.719-0.938,3.594-1.313
		s9.094-2.313,9.094-2.313l10-8.25l4.688-11c0,0,1.563-6.438,1.563-6.531s-1.375-2.594-1.375-2.594L116.24,77.093z"/>
	<polyline fill="#D69E3A" points="103.417,108.498 102.698,111.404 104.104,108.873 103.573,108.529 	"/>
	<path fill="none" stroke="#050505" stroke-width="0.75" d="M97.51,109.654c-3.594-0.469-10.719-1.75-10.719-1.75"/>
	<path fill="none" stroke="#000000" stroke-width="0.75" d="M87.135,107.842"/>
	<line fill="none" stroke="#050505" stroke-width="0.75" x1="87.01" y1="107.748" x2="86.01" y2="110.842"/>
	<ellipse fill="#020202" cx="52.682" cy="80.732" rx="2.609" ry="2.547"/>
	<ellipse fill="#020202" cx="61.713" cy="76.576" rx="2.328" ry="2.266"/>
	<path fill="#020202" d="M65.885,112.092l11.313,0.063c0,0,1-1.625,1.344-2.344s0.75-2.031,0.469-2.313s-3.781-0.406-4.375-0.25
		s-3.875,1.406-4.813,1.906s-3.813,2.781-3.813,2.781"/>
	<path fill="none" stroke="#020202" d="M86.354,106.873c-0.094,0-1.5,0.688-3.344,1.906s-2.344,1.906-3.188,2.5
		s-1.281,0.594-2.625,0.531"/>
	<path fill="#020202" d="M81.667,109.561"/>
	<path fill="#020202" d="M81.182,109.639c0-0.047,0.984-1.734,1.547-2.484s0.781-0.906,0.781-0.906s-1,1.984-1.219,2.516
		S81.182,109.639,81.182,109.639z"/>
	<path fill="none" stroke="#000000" stroke-width="0.75" d="M112.739,85.801c0,0-4.332,6.251-6.791,8.667s-3.709,3.541-7.084,6.083
		s-7.209,4.958-7.5,5.125"/>
</g>
<g id="frame_3">
	<path fill="#D69E3A" d="M140.947,32.986c0,0,10.625-3.625,17.875,0.125s-10.875,13-10.5,13.125s-7.25,14.125-7.75,15
		s-16.125,10-16.125,10s1.25,23.625,1,24s-4.125,6.875-4.125,7.25s0.625,1.75,0.625,1.75l-0.438,2.188l-1.438,5.563
		c0,0-0.875,2.75-1,2.938s-0.813,1.625-0.813,1.625l-1.438,1.375l-4.375-0.313l-10.875-0.75l-2.438,0.438
		c0,0-1.875,1.625-2.063,1.938s-1.5,2.125-1.5,2.125l-1.438,1.375l-1.563,0.375l-0.688-0.313l-0.875,0.188l-1.438,0.25h-1.688
		h-1.313l-0.938-0.625l-0.688-0.75l-0.563-0.563c0,0,0.063-0.875,0.188-1.063s2.125-3.375,2.125-3.375l2.375-2.875l2.813-2l1.75-1
		l1.25-1.313c0,0,0.688-1.5,0.875-1.688s1.25-1.438,1.25-1.438s0.5-0.688,0.625-0.938s1-1.938,1-1.938l0.75-1.188l0.875-2.313
		l0.938-1.875l1.313-3.188l0.438-3.063l0.875-5.125l0.375-2.75c0,0-4.438-2-4.625-2.313s-5.875-8.375-5.875-8.375l-2.5-4.375
		l3-2.125c0,0,6.75-2.5,8-2.938s5.625-4.25,6.688-5.375s4.375-4.313,5.688-6.188s4.563-7.313,4.563-7.313l1.625-1.875l5.875-4.438
		l4.813-2.688l3.063-1.375l3.125-1.125l3.688-1.125"/>
	<path fill="#956E28" d="M122.822,103.174l-1.063-0.188l-1.875,8.563l3,0.313c0,0,3.125-7.75,2.938-8"/>
	<path fill="#956E28" d="M150.447,108.486c0,0,7.125,0.313,11.313-1.625s10.375-4.313,10.375-4.313l2.813-1.313h1.625l4.75,1.438
		c0,0,3.125,0.625,3.313,0.625s2.938,0.063,2.938,0.063l2.063,0.063l2.563-0.313l1.625-0.5l1.313-0.625c0,0,0.313-0.125,0.5-0.188
		s1.438-0.5,1.438-0.5l1.188-1.438v-1.938l-2.063-2l-3.688-1.563l-2.438-0.813l-7.063-0.375l-1.875,0.063
		c0,0-3.063,0.813-3.25,0.875s-3.5,0.5-3.5,0.5"/>
	<path fill="#956E28" d="M174.259,39.549l3.75,2.063l1.188,1.125l2,1.438l1.375,1.375c0,0,1.188,1.563,1.25,1.75
		s1.313,1.438,1.375,1.688s1.25,2,1.375,2.375s1.125,2.625,1.063,2.813s0.125,1.438,0.125,1.438s-9.438-8.25-9.625-8.188
		s-4.125-5.313-4.125-5.313s0.5-3.063,0.313-2.938"/>
	<path fill="#D69E3A" d="M113.914,42.232c-0.012-2.353-2.717-7.811-3.733-9.551c-1.02-1.738-7.116-7.285-7.116-7.285
		s-10.673-5.14-12.797-4.593c-2.122,0.548-4.583,1.786-4.9,2.102c-0.316,0.318-2.918,5.878-2.918,5.878l-4.034,10.89l-4.111,15.998
		c0,0-11.094-0.499-12.79-0.226c-1.696,0.272-7.79,1.71-7.79,1.71s-7.635,6.086-8.348,6.754c-0.712,0.666-6.039,6.851-6.301,7.508
		s-2.591,4.104-2.591,4.104l-0.646,0.822L27.441,96.72c0,0-1.103,6.729-1.299,6.903c-0.197,0.177-2.123,1.186-2.123,1.186
		s-8.939,2.203-10.569,3.264c-1.63,1.06-4.102,2.484-4.102,2.484s2.648,2.58,2.976,2.712c0.328,0.131,2.813,2.331,2.813,2.331
		l-3.193,4.18l-0.459,1.468l-4.159,0.876l-1.225,0.525l1.402,0.942c0,0,2.396,0.513,3.094,0.665
		c0.703,0.152,8.908,0.26,10.473,0.313c1.565,0.055,16.763-1.929,18.47-2.39c1.707-0.461,3.917,0.677,3.917,0.677
		s7.18,1.727,10.494,1.847c3.316,0.117,10.844-0.937,12.541-1.21c1.696-0.272,23.224-16.036,23.224-16.036s3.89-13.549,3.716-13.746
		c-0.175-0.196-4.381-11.902-4.381-11.902s-1.435-7.363-1.567-7.669c-0.131-0.31-2.494-3.918-2.494-3.918l25.776-17.57
		C110.766,52.65,113.924,44.587,113.914,42.232z M68.23,110.118c-0.429,0.697-1.493,0-1.063-0.698
		c0.407-0.662,0.294-1.51,0.266-2.253c-0.031-0.821,1.239-0.758,1.271,0.055C68.742,108.229,68.777,109.227,68.23,110.118z"/>
	<path fill="#956E28" d="M49.873,59.805c-0.229,0.097-9.533-9.967-10.541-11.257c-1.007-1.29-6.175-8.685-6.492-9.638
		c-0.317-0.952-0.34-4.39-0.11-5.122c0.23-0.733,1.389-2.681,1.389-2.681l4.09-2.934l7.331-3.417l1.773-0.307l8.522-0.212
		l4.563,1.127l4.575,2.207l2.583,2.429l2.551,4.892l1.579,4.311l0.514,2.68l0.244,4.16l0.163,4.189l-0.009,5.264l1.454,0.01
		l-1.42,5.778c0,0-0.635-0.635-2.419-2.044c-1.784-1.41-6.152-3.983-6.381-3.885c-0.229,0.101-3.631,0.2-3.631,0.2l-4.39,0.974
		l-3.872,1.752L49.873,59.805z"/>
	<path fill="#956E28" d="M103.543,90.074c0.128-0.386,0.38-0.629,0.675-0.754l-0.049-3.008l-1.153-6.49l-5.88-7.287l-3.447-5.504
		l-1.16-0.59l-9.476,4.971c0,0,3.778,6.905,4.653,9.158c0.876,2.254,3.2,10.415,3.222,13.217c0.022,2.801-0.688,6.008-2.164,8.908
		s-2.133,3.907-3.706,5.942c-1.577,2.035-5.818,6.304-7.669,7.277c-1.85,0.978-5.843,3.504-8.184,4.601
		c-2.34,1.095-8.303,3.473-8.795,3.593c-0.494,0.118,1.356,0.415,1.356,0.415l5.974-1.295l7.21-2.004l8.59-3.867
		c0,0,4.363-1.87,4.561-2.046c0.199-0.175,5.014-3.965,5.014-3.965l6.135-8.523l1.269-2.273
		C101.602,97.079,102.395,93.525,103.543,90.074z"/>
	<path fill="#FF5AAD" d="M83.155,44.804l-6.174,28.94l7.419-3l11.66-6.634c0,0,1.305,0.076,1.598-3.042
		c0.296-3.118,0.663-9.444,0.412-9.608c-0.251-0.163-1.443-4.004-1.729-4.245c-0.285-0.241-3.273-2.768-3.525-2.932
		c-0.25-0.165-2.952-1.181-3.358-1.279c-0.404-0.098-5.472,0.988-5.472,0.988L83.155,44.804z"/>
	<path fill="#B23F79" d="M111.244,40.66c-0.901-2.518-2.32-4.355-4.478-6.422c-2.155-2.068-5.233-3.667-8.035-4.914
		c-2.802-1.246-6.15-2.077-7.517-1.672c-1.368,0.405-2.429,2.584-3.382,4.169c-0.95,1.59-4.537,12.466-4.537,12.466l-0.6,1.345
		c0,0,4.44-1.269,6.379-1.194c1.937,0.078,4.246,2.079,5.427,3.566c1.181,1.489,2.005,3.403,2.464,5.745
		c0.46,2.343,0.155,5.01-0.905,8.457c-0.318,1.037-0.526,1.636-0.663,1.975l3.771-2.127l0.236-0.101
		c0.015-0.012,0.025-0.025,0.041-0.037c3.052-2.285,5.941-4.771,9.219-6.722l1.578-1.863l1.333-2.385c0,0,0.033-0.56,0.327-1.774
		c0.295-1.215,0.525-1.948,0.535-3.405C112.451,44.313,112.142,43.175,111.244,40.66z"/>
	<path fill="#FFFFFF" d="M42.42,89.74c2.232,7.218,10.759,10.989,19.042,8.428c8.288-2.563,13.194-10.49,10.96-17.708
		c-2.23-7.219-10.758-10.99-19.044-8.429C45.095,74.596,40.188,82.522,42.42,89.74z"/>
	
		<ellipse transform="matrix(-0.9711 0.2386 -0.2386 -0.9711 89.137 163.1453)" fill="#FFFFFF" cx="34.695" cy="86.967" rx="12.666" ry="10.5"/>
	<path fill="#FFFFFF" d="M11.186,111.035l-1.992-0.415l-4.026,1.185l-2.91,1.882l-0.853,1.182l-0.798,1.522l-0.328,1.138
		l0.744,2.581l0.69,1.608l2.605,0.788l1.717,0.623l1.597-0.504l2.659-0.778l2.528-1.084c0,0-1.511-2.254-1.686-2.45
		c-0.176-0.197,0.261-3.195,0.282-3.565c0.022-0.373,0.164-2.792,0.164-2.792L11.186,111.035z"/>
	
		<ellipse transform="matrix(-0.919 0.3944 -0.3944 -0.919 127.8209 150.1649)" fill="#0090FB" cx="48.481" cy="88.216" rx="5.895" ry="5.231"/>
	
		<ellipse transform="matrix(-0.9191 0.3941 -0.3941 -0.9191 87.7607 161.085)" fill="#0090FB" cx="27.338" cy="89.555" rx="4.854" ry="4.293"/>
	
		<ellipse transform="matrix(-0.9191 0.3941 -0.3941 -0.9191 87.6237 161.1799)" fill="#003D5F" cx="27.261" cy="89.587" rx="2.021" ry="1.918"/>
	
		<ellipse transform="matrix(-0.9192 0.3939 -0.3939 -0.9192 127.3761 150.0451)" fill="#003D5F" cx="48.292" cy="88.093" rx="2.353" ry="2.25"/>
	<path fill="#FFFFFF" d="M27.499,87.131c0.208,0.484,0.84,0.679,1.412,0.436c0.571-0.246,0.865-0.837,0.656-1.323
		c-0.208-0.489-0.84-0.684-1.412-0.439C27.584,86.049,27.29,86.641,27.499,87.131z"/>
	
		<ellipse transform="matrix(-0.9193 0.3935 -0.3935 -0.9193 129.5021 143.0129)" fill="#FFFFFF" cx="50.091" cy="84.781" rx="1.228" ry="1.085"/>
	
		<ellipse transform="matrix(-0.919 0.3942 -0.3942 -0.919 126.2945 156.85)" fill="#FFFFFF" cx="47.036" cy="91.398" rx="1.104" ry="0.958"/>
	<circle fill="#FFFFFF" cx="25.635" cy="92.349" r="0.812"/>
	<path d="M76.318,44.719c-0.125,0.189-5.328,24.046-5.328,24.046l6.288-23.71L76.318,44.719z"/>
	<path fill="none" stroke="#000000" stroke-width="0.75" d="M42.463,89.769c2.139,7.134,10.64,10.89,18.986,8.388
		c8.345-2.504,13.372-10.318,11.232-17.454c-2.139-7.133-10.638-10.888-18.982-8.385C45.352,74.821,40.322,82.635,42.463,89.769z"/>
	<path fill="none" stroke="#000000" stroke-width="0.75" d="M42.842,90.681c-0.71-1.456-1.01-3.043-0.737-4.772
		c-0.056-0.624,0.047-1.228,0.249-1.809c0.217-1.581,0.674-3.313,1.642-4.562c-3.048-3.006-8.223-4.013-13.162-2.158
		c-6.421,2.407-9.993,8.717-7.977,14.092c2.016,5.377,8.855,7.781,15.277,5.373c2.364-0.886,4.338-2.305,5.794-4.008
		C43.453,92.207,43.083,91.462,42.842,90.681z"/>
	<path fill="none" stroke="#000000" stroke-width="0.75" d="M27.365,96.592c0,0-1.121,6.263-1.41,6.863
		c-0.286,0.598-0.836,0.901-0.836,0.901s-5.94,1.53-8.444,2.67c-2.503,1.144-7.286,3.467-7.286,3.467"/>
	<path fill="none" stroke="#000000" stroke-width="0.75" d="M2.069,114.039c0,0-1.345,1.937-1.639,3.154
		c-0.296,1.214,0.689,3.513,0.969,4.002c0.279,0.492,1.732,1.028,2.831,1.371c1.1,0.344,2.43,0.588,4.226,0.023
		c1.798-0.567,5.039-1.415,6.467-2.366c1.427-0.953,3.198-2.528,3.445-3.856c0.245-1.331,0.188-2.734-0.625-3.679
		c-0.813-0.943-2.667-2.257-5.475-2.139C9.462,110.663,6.147,110.388,2.069,114.039z"/>
	<path fill="none" stroke="#000000" stroke-width="0.75" d="M6.495,123.092c7.234,3.085,15.615,1.678,23.124,0.579
		c6.326-0.927,12.851-1.316,18.947-3.368"/>
	<path fill="none" stroke="#000000" stroke-width="0.75" d="M55.872,124.56c14.996-0.201,36.476-6.702,43.155-21.549
		c3.44-7.649,6.56-14.951,3.617-23.053c-1.585-4.368-6.441-10.641-10.005-13.677"/>
	<path fill="none" stroke="#000000" stroke-width="0.75" d="M40.742,122.069c3.574,1.188,7.407,2.373,11.194,2.477"/>
	<path fill="none" stroke="#000000" stroke-width="0.75" d="M76.514,46.129c0,0,2.632-8.607,4.124-13.058
		c1.493-4.447,4.018-9.815,5.993-11.072c1.981-1.257,3.433-1.675,7.625-0.142c4.194,1.533,11.207,4.48,13.416,7.411
		c2.208,2.929,3.178,5.029,4.54,8.05c1.364,3.018,1.726,4.972,1.489,7.589c-0.238,2.619-2.092,6.112-2.934,7.744
		c-0.845,1.631-7.071,6.007-11.468,9.071c-4.398,3.066-7.105,4.953-8.615,5.872"/>
	<path d="M90.836,67.099c0,0-4.822,2.5-6.295,3.291c-1.476,0.791-1.384,0.845-1.384,0.845s6.868-2.538,8.671-3.993"/>
	<path fill="none" stroke="#000000" stroke-width="0.75" d="M36.342,76.035c0,0,5.644-9.04,7.732-10.934
		c2.09-1.896,5.939-6.447,11.082-8.2c5.142-1.751,13.282-1.8,15.625-1.624c2.341,0.175,3.261,0.415,3.261,0.415"/>
	<path fill="none" stroke="#000000" stroke-width="0.75" d="M49.795,59.837c0,0-7.234-7.78-9.655-10.458
		c-2.418-2.681-6.831-8.949-7.357-11.444c-0.525-2.494-0.065-5.23,1.793-7.023c1.86-1.797,8.721-5.465,12.276-6.264
		c3.556-0.802,8.907-1.012,12.604,0.212c3.699,1.226,6.983,2.536,8.57,5.394c1.588,2.854,4.096,9.124,4.382,13.809
		c0.287,4.683,0.015,11.236,0.015,11.236"/>
	<path fill="none" stroke="#000000" stroke-width="0.75" d="M158.073,120.235"/>
	<path d="M11.033,110.467c0,0-3.491,1.588-5.065,3.622c-1.575,2.039-1.881,3.438-1.925,4.184c-0.043,0.743,0.603,1.825,2.146,2.252
		c1.542,0.428,3.403,1.17,5.635,0.666c2.233-0.505,2.823-0.396,2.823-0.396s2.885-2.575,3.303-3.501
		c0.419-0.927,0.426-3.448,0.426-3.448l-0.632-1.157l-1.229-1.491l-3.315-0.753l-1.752-0.065"/>
	<path fill="#FCFCFC" d="M42.523,88.175c0,0,0.382,2.618,1.383,3.795c1,1.175,4.723,2.595,4.869,2.687
		c0.146,0.09,5.048-1.809,5.14-1.892c0.091-0.078,1.55-3.791,1.634-3.916c0.083-0.127,0.371-2.311,0.245-2.46
		c-0.126-0.15-1.97-3.196-2.148-3.319c-0.18-0.123-2.603-1.362-3-1.425c-0.396-0.064-2.042-0.046-2.253-0.005
		c-0.211,0.042-2.015,0.619-2.245,0.786c-0.229,0.169-2.639,1.603-2.639,1.603"/>
	<path fill="#FCFCFC" d="M22.814,87.868c0,0-0.106,0.732-0.115,1.101c-0.008,0.369,0.246,2.093,0.835,3.113
		c0.591,1.023,0.818,1.271,0.818,1.271s1.621,0.807,1.702,0.898c0.081,0.093,1.352,0.151,1.477,0.104
		c0.125-0.046,2.698-1.035,2.698-1.035s0.792-0.488,0.864-0.574c0.071-0.087,1.264-2.636,1.303-2.688
		c0.039-0.052,0.257-2.019,0.223-2.183c-0.035-0.165-0.539-1.729-0.658-1.831c-0.12-0.104-2.777-1.575-2.915-1.619
		c-0.139-0.045-3.423,0.232-3.673,0.328c-0.25,0.094-1.81,1.541-1.81,1.541"/>
	<path fill="#FCFCFC" d="M23.525,91.926l0.736,1.386C24.261,93.312,23.819,92.644,23.525,91.926z"/>
	<polyline fill="#FCFCFC" points="23.901,91.932 24.66,93.243 24.352,93.353 	"/>
	<path fill="none" stroke="#020202" stroke-width="0.75" d="M103.384,81.765"/>
	<path fill="none" stroke="#000000" stroke-width="0.75" d="M61.895,124.313"/>
	
		<ellipse transform="matrix(-0.9517 -0.3071 0.3071 -0.9517 46.0164 183.1334)" fill="#020202" cx="37.415" cy="87.947" rx="2.609" ry="2.547"/>
	
		<ellipse transform="matrix(-0.9518 -0.3068 0.3068 -0.9518 65.6681 183.8442)" fill="#020202" cx="47.285" cy="86.76" rx="2.328" ry="2.265"/>
	<path fill="#020202" d="M40.366,121.844l10.748,3.528c0,0,1.451-1.239,1.998-1.818c0.548-0.578,1.337-1.703,1.155-2.058
		c-0.181-0.353-3.475-1.546-4.087-1.579c-0.613-0.034-4.12,0.15-5.166,0.338c-1.046,0.19-4.481,1.479-4.481,1.479"/>
	<path fill="none" stroke="#020202" d="M61.449,123.153c-0.089-0.027-1.639,0.194-3.767,0.789c-2.129,0.595-2.816,1.096-3.801,1.402
		c-0.985,0.306-1.401,0.172-2.661-0.299"/>
	<path fill="#020202" d="M56.163,124.273"/>
	<path fill="#020202" d="M55.679,124.2c0.014-0.046,1.468-1.35,2.232-1.892c0.767-0.539,1.023-0.623,1.023-0.623
		s-1.561,1.583-1.932,2.021C56.631,124.145,55.679,124.2,55.679,124.2z"/>
	<path fill="none" stroke="#000000" stroke-width="0.75" d="M93.024,111.187c0,0-6.04,4.621-9.121,6.168
		c-3.081,1.546-4.617,2.232-8.608,3.618c-3.992,1.383-8.382,2.507-8.71,2.577"/>
	<path fill="#FFFFFF" d="M48.322,81.861l-3.563,2.188c0,0-0.563,4.688-0.438,4.938s2,2.188,2.25,2.375s5.625-5.25,5.625-5.25
		l-2.688-4.313"/>
	<path fill="#FFFFFF" d="M35.072,83.674l-2.813,4.938c0,0,1.563,3.875,1.938,4.25s3.875,1.063,4.063,1.063s2.313-1.75,2.313-1.75
		l0.188-2.938l-0.5-4.875c0,0-4.938-2.438-5.063-2.25"/>
	<path fill="#956E28" d="M92.823,67.902c0,0,1.53,0.521,2.499,1.615s2.094,2.469,3.031,3.813s1.469,2.031,1.75,2.5
		s0.438,0.719,0.75,1.438s-0.844,0.031-0.844,0.031s-1.969-2.063-2.156-2.125"/>
	<path fill="#956E28" d="M96.009,70.518c0,0,3.281,3.094,5.031,7S96.009,70.518,96.009,70.518z"/>
	<path fill="#D69E3A" d="M71.072,101.986c-0.375,0.25-7.625,8.125-7.75,8.875s3.625,2,4.125,2.125s8.5-5.125,8.25-5.5"/>
	<path fill="#D69E3A" d="M119.741,104.486c0.25,0,8.499-0.333,8.499-0.333s7.334-1.666,7.584-1.833s10.249-3.167,10.249-3.167
		s9.417-4.166,9.667-4.25s9.75-8.833,9.75-8.833l5.25-11.334c0,0,4-14.75,3.75-14.75s0.583-9.916,0.333-10.333
		s-1.916-9.667-2.166-9.917s-4.167-4.083-4.417-4.083s-8.834-2.75-9.667-2.917s-8.416-0.917-8.416-0.917l-6.917,0.584l-2.5,0.5
		l2,14.167l-1.5,4.333l-0.917,2.167l-2.166,1.916l-3.834,3.5l-4.25,1.584l-5.75,1.916l-6.666,1.584"/>
	<path fill="#956E28" d="M187.907,55.153c-0.75-1.583-3.751-6.501-4.334-7.167s-2.667-2.916-3.25-3.333s-4.167-3.584-4.5-3.917
		s-3.082-2.333-3.666-2.583s-2-1.417-2.667-1.667s-1.917-0.75-1.917-0.75s2.917,6.084,3.167,9.167s0.5,4.75,0.417,7.75
		s-0.25,6.417-0.917,9.75s-0.417,4.667-1.167,7.75s-2.666,8.334-4.166,10.25s-2.416,4.001-5.833,6.917s-7.417,4.249-10.417,6.166
		s-8.416,4.084-10.75,4.917s-6.167,3.001-8.417,3.417s-4.084,0.75-5.917,1l-0.609,8.981c2.376,0.458,4.696,0.311,7.009,0.037
		c0.186-0.132,0.422-0.217,0.725-0.217h0.989c1.97-0.261,3.942-0.526,5.948-0.5c0.198,0.003,0.372,0.043,0.521,0.112l7.085-1.498
		h1.167l7.416-1.583l5-1.667l3.334-2.333l3.333-1.667c0,0-0.1,0.28-0.282,0.707c0.592-0.241,1.182-0.487,1.772-0.73
		c0.367-0.155,0.736-0.303,1.11-0.441c0.83-0.328,1.669-0.637,2.525-0.898l-0.709-0.803l-0.334-0.25c0,0,6.416-5.083,8-6.75
		s3.917-4.501,5.167-6.334s3.917-7.666,4.917-10.333s1.833-9.083,2-10.583S188.657,56.736,187.907,55.153z"/>
	<path fill="#C181B9" d="M188.656,72.235c0,0-0.834,3.251-0.917,3.667s-0.916,3.166-0.916,3.166l-0.667,1.25
		c0,0,6.583-0.999,8.5-1.166s10.749-0.251,12.166-0.084s4.918,0.417,5.834,0.667s4.083,1.167,4.083,1.167l2.833,1.25l2.75,1.666
		l3.584,4l1.75,3.584c0,0,1.083,5,1.083,5.25s-0.167,3-0.167,3l-0.75,2.417l-2,1.416l-3.583,2.584l-5,1.833l-7,1.75l-8.416,0.667
		l-10.584,0.833l-10.083,0.416c0,0-11.083,0.834-11.333,0.917s-9.084,1.75-9.084,1.75l-7.333,2.083l-6.417,2.75
		c0,0-3.417,2.333-3.667,2.5s-5,4.334-5,4.334l-2.25,2.25l-6.833,7.833c0,0,11-6.082,13.5-7.166s9.667-3.75,9.667-3.75l6.416-2.25
		l6-1.75l7.084-1.167l5.75-0.917l5.666-0.083l9.501-0.583l7.999-0.417l8.5-1l5.75-1.25l5.917-1.417l5.083-2.25
		c0,0,2.833-1.334,3.75-1.917s3.667-3.416,3.667-3.416l2.417-3.417l0.833-3.333l-0.416-7.5l-1.167-4.833l-1.583-3.417
		c0,0-4.667-4.583-5.667-5.25s-9.417-5-9.667-5s-6.166-1.417-6.166-1.417l-9.917-0.417l-9.167-0.083l-4.5-0.083"/>
	<path fill="none" stroke="#000000" stroke-width="0.75" d="M141.239,32.652c14.333-3.916,28.333,2.084,39.333,11.084
		c12,11,11,28,3,42c-14,22-40,27-64.003,25.794"/>
	<line fill="none" stroke="#000000" stroke-width="0.75" x1="140.824" y1="32.86" x2="142.032" y2="32.527"/>
	<path fill="none" stroke="#000000" stroke-width="0.75" d="M153.593,67.777c0,0-4.125,0.875-7.875,2.813s-9,6.688-11.125,10.25
		s-2.813,7.438-3,10.75s2.063,10.375,5.188,13.063s8,5,10.813,4.813"/>
	<path d="M153.385,67.424c0,0,3.73-0.376,7.001,0.271s3.521,0.793,4.375,1.146s0.958,0.375,0.958,0.375s-9.354-1.563-12.25-1.063"/>
	<path fill="none" stroke="#000000" stroke-width="0.75" d="M188.74,72.235c0,0,17.75-1.001,25.75,1.083s15.917,5.834,19.25,11.834
		s3.333,15.584,2,18.417s-5.167,6.583-10.75,9.083s-13.249,4.251-18.666,4.667s-13.334,1.166-21.084,1.416s-13.917,0.667-22.5,3
		s-16.75,5.167-25.083,9.75s-8.333,4.583-8.333,4.583s8.25-11.417,15.583-15.583s16.999-7.417,29.916-8.25
		s31.335-1.749,37.251-2.916s13.416-3.418,15.583-7.584s0.416-10.166-1.334-13.083s-5.584-7.333-14.5-8.833s-23.084-0.5-25,0.25"/>
	<line fill="none" stroke="#000000" stroke-width="0.75" x1="186.407" y1="80.402" x2="188.74" y2="79.652"/>
	<path fill="none" stroke="#000000" stroke-width="0.75" d="M131.24,115.652"/>
	<path fill="none" stroke="#000000" stroke-width="0.75" d="M129.657,115.735"/>
	<path fill="none" stroke="#000000" stroke-width="0.75" d="M124.824,115.819"/>
	<path fill="none" stroke="#000000" stroke-width="0.75" d="M123.074,115.985"/>
	<path fill="none" stroke="#020202" stroke-width="0.75" d="M93.947,67.236c0,0,7.5-2.375,9.5-3.875s8.625-7.375,10.875-10.75
		s5-7.938,5.875-8.75c4.099-3.807,11.75-8.188,14.688-9.25s8.438-2.313,9-2.375"/>
	<path fill="none" stroke="#020202" stroke-width="0.75" d="M104.905,93.569c0,0-1.25,12.75-1.333,14s-0.083,1.25-0.083,1.25
		s-8.917,1.833-10.167,2.583s-6.334,4.333-7.5,6.5s-1.916,3.333-1.666,3.75s1.333,0.667,1.333,0.667"/>
	<path fill="none" stroke="#020202" stroke-width="0.75" d="M94.156,117.736c0,0-3.25,4.667-2.5,5.25c0,0-0.417,0.083-1.417,0.166
		s-3.083,0.167-3.083,0.167s-1.084-0.083-1.334-0.833s3.75-6.334,3.75-6.334"/>
	<path fill="none" stroke="#020202" stroke-width="0.75" d="M92.239,123.152c0,0,1.333,0.001,2.25-0.666s2.333-2.75,2.833-3.417
		s1.333-1.749,2.25-2.083s3.25,0,8.667,0.5s6.999,0.667,8.083,0.417s2.334-2.418,2.834-3.834s2.75-10.083,2.75-10.083"/>
	<path fill="none" stroke="#020202" stroke-width="0.75" d="M151.239,108.819c0,0,7.5-0.832,11.083-2.416s8.584-3,10.417-4
		s2.833-1.333,4.583-1s3.333,1.499,5.75,1.666s4.251,0.501,5.667,0.334s2.75-0.083,4-0.5s2.833-1.167,2.833-1.167"/>
	<path fill="none" stroke="#020202" stroke-width="0.75" d="M186.239,99.736c0,0,3.999,1.667,5.416,1.667s5,0.249,5.5-0.084
		s1.834-0.834,0.917-3s-4.25-3.583-4.5-3.583s-1.667-0.834-4.25-1.167s-8.417-0.333-8.417-0.333l-4.25,1.167"/>
	<polyline fill="#956E28" points="123.323,102.82 122.155,102.903 122.238,105.069 123.738,104.986 	"/>
	<path d="M48.572,93.424c0,0-0.125-1.75,0.5-2.875s3.438-3.75,4.188-4.063s4.25-0.375,5.063-0.063s3.75,4.125,4,4.5s0,3.188,0,3.188
		s-0.688-2.063-1.188-2.875s-1.625-2.25-2.375-2.75s-2.875-1.125-3.875-0.875s-1.688,0.313-2.25,1s-1.813,1.5-2.25,2.25
		s-1.313,3.313-1.313,3.313"/>
	<path d="M27.947,92.486c0,0-0.125-1.75,0.5-2.875s3.438-3.75,4.188-4.063s4.25-0.375,5.063-0.063s3.75,4.125,4,4.5s0,3.188,0,3.188
		s-0.688-2.063-1.188-2.875s-1.625-2.25-2.375-2.75s-2.875-1.125-3.875-0.875s-1.688,0.313-2.25,1s-1.813,1.5-2.25,2.25
		s-1.313,3.313-1.313,3.313"/>
</g>
</svg>
