<?xml version="1.0" encoding="utf-8"?>
<!-- Generator: Adobe Illustrator 13.0.0, SVG Export Plug-In . SVG Version: 6.00 Build 14948)  -->
<!DOCTYPE svg PUBLIC "-//W3C//DTD SVG 1.1//EN" "http://www.w3.org/Graphics/SVG/1.1/DTD/svg11.dtd">
<svg version="1.1" xmlns="http://www.w3.org/2000/svg" xmlns:xlink="http://www.w3.org/1999/xlink" x="0px" y="0px"
	 width="217.124px" height="166.976px" viewBox="0 0 217.124 166.976" enable-background="new 0 0 217.124 166.976"
	 xml:space="preserve">
<g id="frame_1">
	<path fill="#834421" d="M3.351,62.921c0,0,0.5,16.5,1.75,18s5.25,4,6.5,4.25s10.75,0.5,10.75,0.5s1,8.125,1.625,9.125
		s4.125,4.5,4.625,4.75s2,0.375,2,0.375s-0.5-2.5-0.5-4.25s0.375-3.625,0.375-3.625s2.75,3.125,4.625,4s4.75,1.125,5.875,1
		s3.125-0.5,3.125-0.5s-4-2.75-4.75-3.625s-0.75-0.875-0.75-0.875s6.25,1.875,7.625,2.25s3-1.25,3-1.25l-1.375-2.75l8.625-2
		c0,0,7.625,0.5,7.875,2.375s3.75,11.375,4.375,12.875s5.625,9,6.25,10.25s1.125,3.125,1.125,5s0.75,12.875,1.375,15.25
		s1.125,4.75,1,5.125s-4,17.25-4,17.25s-6.625,1-7.875,1.875s-2.875,2.875-2.875,2.875s0.75,0.875,1.375,1.375
		s3.125,0.625,3.125,0.625l0.75-0.125l1.125,0.625h4c0,0,4.5,0,5.25-0.375s6.75-1.5,6.75-1.5l7-12.5l6-11.75l5.375-0.875
		c0,0-0.75,6.375-1.375,8.25s-3.625,13-4,13.375s-4,0.5-5.25,0.75s-3.75,1.5-4.25,2.125s-2,2.25-2,2.25s1.5,1.125,3.25,1.625
		s4.375,1.375,7.125,1.375s9.125-1.25,9.125-1.25l8.625-2.75c0,0,10.75-17.375,10.875-17.75s4.25-10.5,4.25-10.5l6.5,1.875
		c0,0,2.5-0.25,3.5,1.125s4.375,8,4.375,8l-3.375,12.25c0,0-7.125,0.125-8.375,0.625s-3.75,1.625-4.25,2.125s-1.125,1.5-1.125,1.5
		s1.625,1.625,3,1.625s5.375,0.25,5.375,0.25l0.25,0.625c0,0,9.5,0.5,10.625-0.375s4.875-5.75,4.875-5.75l8-12.375l4.5-4.875
		l12.25,0.5l2.5,0.375l-5.75,17.125c0,0-4.75-1-6.125-0.75s-5.75,0.875-7,1.625s-4.625,4.25-4.625,4.25s1.875,0.5,3.125,1
		s4.5,1.5,6,1.375s6.375-0.5,7.25-0.375s10-0.375,10-0.375s21.25-25.75,21.375-26.125s-1.5-12.125-1.875-12.375s7-29.75,7-29.75
		l2.375-12.625c0,0,1.25-6.125,1.375-7.75s-0.25-14.75-0.375-16.875s-1.5-15.25-2-16.625s-3.875-12.75-4.625-13.875
		s-3.875-5.875-5.25-7.5s-6.75-4.625-11-5.625s-10.375-3.125-19.5-1.75s-18.75,4.375-21.25,5.125s-13.375,6-13.375,6l-18.625-0.125
		c0,0,0.75-3.75-0.375-5.875s-1.5-5.125-2.875-6.875s-3.875-5.75-4.375-5.875s-3.375-1.625-4.25-1.5s-3.875-0.125-4.875,0.625
		s-5,4.625-5.875,5.75s-3.75,5-3.75,5s-3.125-0.625-5-1.625S73.851,5.921,73.851,5.921s0.25-2.625-0.125-3.125s-2.375-2.125-4-2
		s-9.375,0.25-11.75,1.375s-10.25,5.5-10.875,6.375s-2,4.5-1.5,6s1.375,5.5,2.25,6.625s1.625,2.125,1.625,2.125s-6.625,5.5-6.75,6
		s-4.5,9.125-4.5,9.125l-9.5,5.75L5.976,58.046L3.351,62.921z"/>
	<path fill="#5D3119" d="M101.851,37.796c0,0,1.125,8,0.875,10s-1.625,5.875-5.125,7s-19.25,3.875-19.25,3.875
		s9.375,1.875,11.125,3.125s3.25,2.625,1.625,4s-10.625,3.875-16.375,5s-12.5,1.25-12.5,1.25s1.25,6.875-1.375,10
		s-3.875,5.125-6.5,6.125s-12.5,1.5-12.5,1.5s5.5,4,6.875,4.375s4.375,0.25,4.375,0.25s-3.5-2.5-3.75-2.75s9.875-0.25,11.375-0.5
		s10.625-3.25,13.125-5.125s5.25-4.375,6.5-5.625s3.875-2.875,5.5-3.375s22.25-4.375,22.25-4.375l-7.5-6.25l14.5-1.25l-10.25-4.75
		l15.25-2.875c0,0-12.5-11-13.875-12.875s-4.125-7.5-4.125-7.5"/>
	<path fill="#5D3119" d="M69.351,103.421c-0.125-0.375,0.125-7.375,0.625-9.625s1.25-6.25,3.5-3.875s8.75,10.625,12.25,15.25
		s10.125,11.875,12.5,13.875s5.5,3.75,5.5,3.75s0.625,4.125,0.875,5.5s-0.125,5.25,0,6.5s-0.125,2.25-0.125,2.25
		s-9.625-2.375-15.5-7s-11.875-13-13.875-16.125s-5.75-8.75-5.75-8.75V103.421z"/>
	<path fill="#5D3119" d="M91.351,130.796c0,0,1,6.875,1.125,9.5s0.625,5.125,0.125,6.75s-8,15.25-8,15.25l3.375-0.375
		c0,0,4.125-6.375,5.375-8.25s10.375-16.375,10.375-16.375s-9.125-7-11.875-6.125"/>
	<path fill="#5D3119" d="M119.101,113.671c0,0,0.07,0.385,0.188,1.051c0.584,3.301,2.333,13.52,2.437,18.199
		c0.125,5.625,2.25,10.375-1,17.625s-7.75,13.75-7.75,13.75l4.625-1.125l20.625-31.375c0,0,0.625-18.625,0.375-20.875
		s-0.875-3-0.875-3s-1.25,4.375-2.5,7.125s-2.375,3.5-3.875,4.25s-7.75-0.75-11.5-5.75"/>
	<path fill="#5D3119" d="M138.726,109.796c0,0,2.5-14.625,2.625-16.125s1.5,2.375,2,3.5s1.375,5.625,1.375,7.125
		s-0.875,6.25-1.25,7.25s-1.375,4.125-1.75,4.5s-2.75,4.25-2.75,4.25s-0.625-6.125-0.375-9.375"/>
	<path fill="#5D3119" d="M138.851,128.546c0,0,4.625-1.5,7.25-3.375s4.25-4,6.5-7.75s2.25-3.75,2.25-3.75s-0.75,3.625-5.75,10.375
		s-9.125,11.75-9.625,12s-3.125,0.75-3.125,0.75l-2,0.25C134.351,137.046,137.476,129.546,138.851,128.546z"/>
	<path fill="#5D3119" d="M139.476,136.046c0,0,10.375,3.5,13,3.875s14.125,2.375,16.25,2.25s10.625-0.25,10.625-0.25l0.625-1.625
		c0,0-3-5.75-4.25-7.375s-1.25-1.625-1.25-1.625s-3.125,0.75-8.125,1s-14.75-0.375-16-0.625s-1.25-0.25-1.25-0.25L139.476,136.046z"
		/>
	<path fill="#5D3119" d="M162.351,141.171c0,0-6.625,11-9,14.125s-6.625,8.25-6.625,8.25l1.75-0.25c0,0,8.875-9.125,10.25-10.5
		s11-11.125,11-11.125l-0.875-3l-7,1.75"/>
	<path fill="#5D3119" d="M181.601,165.546c0,0,13.5-15.25,16.25-20.5s5-6.75,3.75-8.625s-5.375-5.5-8.5-7.875s-6.25-5.375-6-10.875
		s0.25-12.625,3.375-19.125s8.5-17.5,8.5-17.5s0.375,5.875,1.5,8.125s1.75,3.25,3.5,3.625s3.75,0.25,4.25-1.375
		s1.125-4.5,1.25-7.375s0.125-9.125,0.125-9.125s1.875,8.375,1.75,10.5s-0.25,10.125-0.625,12.875s-2.25,14.5-3,16.125
		s-1.375,4.25-1.25,5.25s10.25,13.375,10.25,13.375l-32.5,32.625L181.601,165.546z"/>
	<path fill="#FFFFFF" d="M23.789,59.984c0,0-13.688-1.938-17.688-1.625s-5,0.25-5,0.25l1.063,2.125l1.813,2.063l10.813,8.563
		l2.125,1.313l3.813-1.188c0,0-0.5-3.625-0.563-3.813s2.438-5.688,2.438-5.688l1.188-2.25"/>
	<ellipse fill="#FFFFFF" cx="40.257" cy="40.828" rx="12.156" ry="10.406"/>
	<ellipse fill="#FFFFFF" cx="61.882" cy="44.296" rx="14.594" ry="13"/>
	<ellipse fill="#0092FF" cx="52.976" cy="45.078" rx="5.188" ry="5.094"/>
	<ellipse fill="#0092FF" cx="32.664" cy="41.265" rx="4.438" ry="4.344"/>
	<circle fill="#00426B" cx="52.507" cy="45.078" r="2.219"/>
	<ellipse fill="#00426B" cx="32.351" cy="41.203" rx="1.875" ry="1.844"/>
	<ellipse fill="#FFFFFF" cx="54.632" cy="42.421" rx="1.344" ry="1.313"/>
	<circle fill="#FFFFFF" cx="50.695" cy="47.39" r="1.031"/>
	<ellipse fill="#FFFFFF" cx="34.039" cy="39.328" rx="1.125" ry="1.156"/>
	<circle fill="#FFFFFF" cx="30.851" cy="43.671" r="0.875"/>
	<ellipse fill="none" stroke="#000000" stroke-width="0.75" cx="61.851" cy="44.338" rx="14.5" ry="13.042"/>
	<path fill="none" stroke="#000000" stroke-width="0.75" d="M47.854,47.958c-0.485-1.258-0.609-2.637-0.429-3.98
		c-0.082-1.204,0.109-2.545,0.631-3.665c0.24-0.896,0.718-1.756,1.174-2.532c0.429-0.729,0.92-1.384,1.511-1.931
		c-2.032-3.272-6.021-5.512-10.641-5.512c-6.673,0-12.083,4.645-12.083,10.375s5.41,10.375,12.083,10.375
		c3.096,0,5.906-1.015,8.043-2.66c-0.005-0.013-0.014-0.025-0.019-0.039C48.019,48.276,47.923,48.137,47.854,47.958z"/>
	<line fill="none" stroke="#000000" stroke-width="0.75" x1="28.664" y1="44.546" x2="5.226" y2="58.421"/>
	<path fill="none" stroke="#000000" stroke-width="0.75" d="M41.664,30.421c0,0,1.563-2.625,4.688-4.813s12.125-7.625,12.125-7.625
		s-5.875-2.25-7.063-3.063s-1.438-1.125-1.438-1.125s5.625-2.5,13.563-1.875s10.75,1.125,10.75,1.125s-2.125-3.375-2.438-5.125
		s-0.313-2.625-0.313-2.625s3.125,1.688,6.438,4.313s7.188,6.25,9.063,6.875s3.125,0.875,3.125,0.875"/>
	<path fill="none" stroke="#000000" stroke-width="0.75" d="M85.601,26.359c0,0,3.75-8.125,7.063-12.5s7-7.313,8.5-7.75
		s5.375-1.375,7.688,1.313s4.438,5.5,5.813,8.688s1.75,4.75,1.875,5.938s0.125,8,0,8.188s-0.813,2.125-5.875,3.625
		s-12,3.188-12,3.188"/>
	<path fill="none" stroke="#000000" stroke-width="0.75" d="M90.414,29.234c0,0,4.313-7.625,9-10.063s4.938-2.5,4.938-2.5"/>
	<path fill="none" stroke="#000000" stroke-width="0.75" d="M101.414,36.296c0,0,2.563,5.938,6.75,10.063s11.938,11.5,11.938,11.5
		s-15.75,2.375-15.688,2.625s10.75,4.563,10.75,4.563l-14.813,1.313l7.313,6.625c0,0-20,2.688-23.063,4.313
		s-6.063,5.375-9.938,7.938s-6.125,4.188-11.5,5.313s-14,0.938-14,0.938s1.938,1.875,3.063,2.375s1.125,0.5,1.125,0.5
		s-5.25,0.813-9.188-0.375s-5.188-2-5.188-2s3.125,3.563,4,4s0.875,0.438,0.875,0.438s-4.438,1.5-7.625,0.125
		s-5.563-4.375-5.563-4.375s-1,3.813-0.563,5.75s0.438,1.938,0.438,1.938s-1.75,0.375-4.25-2.438s-3.25-5.125-3.563-7.125
		s0.063-4.75,0.063-4.75"/>
	<path fill="none" stroke="#000000" stroke-width="0.75" d="M1.601,58.609c0,0,4.063-0.438,10.313-0.125s13.125,1.438,16.125,2.438
		s5.375,2.438,5.375,2.438s-1.25,2.75-5.563,5.125s-11.188,4.25-11.188,4.25S5.226,64.359,3.539,62.609S0.914,58.796,1.601,58.609z"
		/>
	<path fill="none" stroke="#000000" stroke-width="0.75" d="M3.289,62.609c0,0,0.125,11.125,0.75,14.063s1.625,5.875,3.875,7.063
		s5.438,1.688,10.625,1.938s19.125,0.375,21.813-0.813s8.438-6.563,9.75-8.125s2-2.75,2-2.75"/>
	<path fill="none" stroke="#000000" stroke-width="0.75" d="M18.289,72.609c0,0-0.063,6.125,0.688,7.813s3.5,5.438,3.5,5.438"/>
	<path fill="none" stroke="#000000" stroke-width="0.75" d="M49.414,23.734c0,0-3.438-4.563-3.875-8.063s0.125-5.438,2-7.063
		s8.313-5.5,11.938-6.625s7.625-1.25,9.875-1s3.063,0.813,3.75,1.688s0.688,4.063,0.688,4.063"/>
	<path fill="none" stroke="#000000" stroke-width="0.75" d="M211.685,85.338c0,0,0.584-4,0.584-7.417s0.5-7.333,0.25-12.75
		s-0.417-9.333-1.417-15.417s-1.5-9.5-3.5-14.917s-4.5-10.333-8.417-13.917s-13.5-5.75-20.083-6.167s-16.5,1.417-23,2.917
		s-19.5,7.5-21.084,8s-18.333,0.25-18.333,0.25"/>
	<path fill="none" stroke="#000000" stroke-width="0.75" d="M206.519,63.838c-0.167,0.25,5.583,15.751,4.916,24.417
		s-2.5,21.167-3.25,24.417s-3.582,5.667-0.666,9.75s9.083,10.583,9.083,10.583l-32.5,32.917c0,0-17.167,0.582-20.167,0.166
		s-7.667-1.834-7.917-2s3.834-4.333,6.834-5.083s7.416-1.167,9.083-0.667s1.667,0.5,1.667,0.5l6.25-18.333
		c0,0-7.749-13.584-8.833-17.167s-3.084-9.25-3.834-14s-1.25-9.665,1.25-14.749s7.333-11.667,7.333-11.667"/>
	<path fill="none" stroke="#000000" stroke-width="0.75" d="M138.185,109.505c0,0,0.5,11.25,0.417,14.5s0.167,7.25,0.167,7.25
		l-21.5,31.917c0,0-16.917,3.5-19.334,3.25s-4.833-0.75-4.833-0.75l-6-1.75c0,0,3.083-4.833,6.583-5s5.833,0.083,5.833,0.083
		s0.25-0.916,3-1.083s5.25,0.75,5.25,0.75"/>
	<path fill="none" stroke="#000000" stroke-width="0.75" d="M98.935,158.505c0,0,4.584-13.083,5.167-18s0.416-12.417-0.417-17
		s-1.333-8-1.333-8"/>
	<path fill="none" stroke="#000000" stroke-width="0.75" d="M64.102,90.422c0,0,2.667,8.832,4.417,12.416s3.916,6.917,6.583,11.084
		s8.833,12.417,12.25,14.917s9.75,6.167,11.667,6.75s5.583,1.5,5.583,1.5"/>
	<path fill="none" stroke="#000000" stroke-width="0.75" d="M74.186,156.589l4.166-17.084c0,0-0.666-3.833-1.083-7.417
		s-1.583-17.333-1.583-17.333"/>
	<path fill="none" stroke="#000000" stroke-width="0.75" d="M80.935,156.755c0,0-6.5,0.001-8.083,0.167s-5.417,0.833-6.917,1.833
		s-2.166,2.583-2.166,2.583s1.583,1.418,2.833,1.584s2.417,0.25,2.417,0.25s-0.083,0.75,4,0.75s7.834-1.001,10-1.334
		s5.333-1,5.333-1s15.75-24.833,15.75-24.583"/>
	<path fill="none" stroke="#000000" stroke-width="0.75" d="M135.268,137.088c0,0,5.334-1.166,8.084-2.333s7.25-4.416,9.833-7.083
		s6.25-8.333,6.917-11.083s1-3.167,1-3.167"/>
	<path fill="none" stroke="#000000" stroke-width="0.75" d="M138.769,120.088c0,0,3.582-4.25,4.249-6.583s1.834-9.167,1.334-11.75
		s-2.417-8.25-2.417-8.25"/>
	<path fill="none" stroke="#000000" stroke-width="0.75" d="M139.185,136.339c0,0,12.501,3.334,16.834,4s9.166,1.417,12.083,1.5
		s11.5,0.166,11.5,0.166"/>
	<path fill="none" stroke="#000000" stroke-width="0.75" d="M140.768,137.339c0,0,4.5,7.75,4.417,8s-3.833,12.666-3.833,12.666
		s-6.333-0.833-8.583,0.167s-4.667,3.583-4.667,3.583s1.083,0.667,2,1s2.916,0.667,4.333,0.75s2.334-0.167,2.334-0.167
		s-0.917,0.666,0.583,0.75s10.417-0.25,11-0.833s21.583-21.583,21.583-21.583"/>
	<path d="M142.29,93.379c0,0-1.876-4.188-2.604-4.896s1.479,3.792,1.938,5.167"/>
	<path d="M160.757,113.39c0,0,0.75-4.25,0.594-5.156s-0.156-0.906-0.156-0.906s0.719,4.875,0.125,6.406"/>
	<path d="M137.789,109.703c0,0,0.094-1.906-0.156-3.063s-0.281-1.281-0.281-1.281s1.188,3.031,1.219,4.25"/>
	<path d="M102.07,115.765c0,0-1.281-6.188-1.656-7.781s-0.375-1.594-0.375-1.594s2.688,8.063,2.719,9.063"/>
	<path d="M52.073,74.609c0,0,2.109-3.25,2.381-4.344c0.272-1.094,0.272-1.094,0.272-1.094s-2.28,4.031-3.063,4.813"/>
	<path d="M175.309,83.005c0,0,3.667-4.708,4.792-5.625s1.917-1.167,1.917-1.167s-5.125,6.166-6.25,7.375"/>
	<path d="M206.268,64.172c0,0-1.916-5.167-2.75-6.25s-0.834-1.083-0.834-1.083s2.583,1.875,4.25,7.333"/>
	<path d="M168.851,166.172c0,0,1.751-2.833,3.292-3.875s3.958-1.375,3.958-1.375s-3.708,1.916-4.583,2.958s-1.459,2.542-1.459,2.542
		"/>
	<path d="M161.851,165.297c0,0,1.209-3.084,2.542-4.042s4.708-1.541,4.708-1.541s-4.458,2.084-5.125,3s-1.375,3.291-1.375,3.291"/>
	<path d="M136.601,163.297c0,0,0.707-2.5,2.416-3.167s2.667-0.667,2.667-0.667s-3.126,1.166-3.542,2s-1.083,2.25-1.083,2.25"/>
	<path d="M131.559,162.88c0,0,0.416-1.707,1.833-2.666s2.959-0.959,2.959-0.959s-2.584,1.041-3.292,2s-1,2-1,2"/>
	<path d="M100.226,166.13c0-0.125,1.083-2.207,2.458-3.291s4.5-2,4.5-2s-4.291,2.333-4.708,3.083s-0.958,2.083-0.958,2.083"/>
	<path d="M92.351,165.38c0,0,1.083-1.832,2.125-2.916s1.749-1.708,2.833-1.875s1.667-0.084,1.667-0.084s-3.417,1.668-4.042,2.334
		s-1.75,2.666-1.75,2.666"/>
	<path d="M73.934,163.797c0,0,1.167-2.209,2.667-3.334s3.583-1.583,3.583-1.583s-3.584,2.374-4.292,3.333s-1.041,1.709-1.041,1.709"
		/>
	<path d="M68.559,162.88c0,0,0.75-1.959,1.75-2.875s3.833-1.916,3.833-1.916s-3.125,1.791-3.75,2.666s-0.75,2.542-0.75,2.542"/>
	<path d="M80.601,157.046c0,0,1.125,0.542,1.5,0.875s0.375,0.333,0.375,0.333s-0.501-1.957-1.584-1.916"/>
	<path d="M107.434,158.796l2.75,1.375c0,0-1.208-2.124-2.5-2.208"/>
	<path d="M21.351,59.838c0,0-12.583,0.833-12.083,2.25s10.583,9.917,10.583,9.917s9.25-4.332,10.583-5.416s3.458-2.958,2.979-3.229
		s-9.479-4.187-11.979-3.854"/>
</g>
<g id="frame_2">
	<path fill="#834421" d="M2.851,62.588c0,0,0.5,16.5,1.75,18s5.25,4,6.5,4.25s10.75,0.5,10.75,0.5s1,8.125,1.625,9.125
		s4.125,4.5,4.625,4.75s2,0.375,2,0.375s-0.5-2.5-0.5-4.25s0.375-3.625,0.375-3.625s2.75,3.125,4.625,4s4.75,1.125,5.875,1
		s3.125-0.5,3.125-0.5s-4-2.75-4.75-3.625s-0.75-0.875-0.75-0.875s6.25,1.875,7.625,2.25s3-1.25,3-1.25l-1.375-2.75l8.625-2
		c0,0,7.625,0.5,7.875,2.375s3.75,11.375,4.375,12.875s5.625,9,6.25,10.25s1.125,3.125,1.125,5s0.75,12.875,1.375,15.25
		s1.125,4.75,1,5.125s-4,17.25-4,17.25s-6.625,1-7.875,1.875s-2.875,2.875-2.875,2.875s0.75,0.875,1.375,1.375
		s3.125,0.625,3.125,0.625l0.75-0.125l1.125,0.625h4c0,0,4.5,0,5.25-0.375s6.75-1.5,6.75-1.5l7-12.5l6-11.75l5.375-0.875
		c0,0-0.75,6.375-1.375,8.25s-3.625,13-4,13.375s-4,0.5-5.25,0.75s-3.75,1.5-4.25,2.125s-2,2.25-2,2.25s1.5,1.125,3.25,1.625
		s4.375,1.375,7.125,1.375s9.125-1.25,9.125-1.25l8.625-2.75c0,0,10.75-17.375,10.875-17.75s4.25-10.5,4.25-10.5l6.5,1.875
		c0,0,2.5-0.25,3.5,1.125s4.375,8,4.375,8l-3.375,12.25c0,0-7.125,0.125-8.375,0.625s-3.75,1.625-4.25,2.125s-1.125,1.5-1.125,1.5
		s1.625,1.625,3,1.625s5.375,0.25,5.375,0.25l0.25,0.625c0,0,9.5,0.5,10.625-0.375s4.875-5.75,4.875-5.75l8-12.375l4.5-4.875
		l12.25,0.5l2.5,0.375l-5.75,17.125c0,0-4.75-1-6.125-0.75s-5.75,0.875-7,1.625s-4.625,4.25-4.625,4.25s1.875,0.5,3.125,1
		s4.5,1.5,6,1.375s6.375-0.5,7.25-0.375s10-0.375,10-0.375s21.25-25.75,21.375-26.125s-1.5-12.125-1.875-12.375s7-29.75,7-29.75
		l2.375-12.625c0,0,1.25-6.125,1.375-7.75s-0.25-14.75-0.375-16.875s-1.5-15.25-2-16.625s-3.875-12.75-4.625-13.875
		s-3.875-5.875-5.25-7.5s-6.75-4.625-11-5.625s-10.375-3.125-19.5-1.75s-18.75,4.375-21.25,5.125s-13.375,6-13.375,6l-18.625-0.125
		c0,0,0.75-3.75-0.375-5.875s-1.5-5.125-2.875-6.875s-3.875-5.75-4.375-5.875s-3.375-1.625-4.25-1.5s-3.875-0.125-4.875,0.625
		s-5,4.625-5.875,5.75s-3.75,5-3.75,5s-3.125-0.625-5-1.625S73.351,5.588,73.351,5.588s0.25-2.625-0.125-3.125s-2.375-2.125-4-2
		s-9.375,0.25-11.75,1.375s-10.25,5.5-10.875,6.375s-2,4.5-1.5,6s1.375,5.5,2.25,6.625s1.625,2.125,1.625,2.125s-6.625,5.5-6.75,6
		s-4.5,9.125-4.5,9.125l-9.5,5.75L5.476,57.713L2.851,62.588z"/>
	<path fill="#5D3119" d="M101.351,37.463c0,0,1.125,8,0.875,10s-1.625,5.875-5.125,7s-19.25,3.875-19.25,3.875
		s9.375,1.875,11.125,3.125s3.25,2.625,1.625,4s-10.625,3.875-16.375,5s-12.5,1.25-12.5,1.25s1.25,6.875-1.375,10
		s-3.875,5.125-6.5,6.125s-12.5,1.5-12.5,1.5s5.5,4,6.875,4.375s4.375,0.25,4.375,0.25s-3.5-2.5-3.75-2.75s9.875-0.25,11.375-0.5
		s10.625-3.25,13.125-5.125s5.25-4.375,6.5-5.625s3.875-2.875,5.5-3.375s22.25-4.375,22.25-4.375l-7.5-6.25l14.5-1.25l-10.25-4.75
		l15.25-2.875c0,0-12.5-11-13.875-12.875s-4.125-7.5-4.125-7.5"/>
	<path fill="#5D3119" d="M68.851,103.088c-0.125-0.375,0.125-7.375,0.625-9.625s1.25-6.25,3.5-3.875s8.75,10.625,12.25,15.25
		s10.125,11.875,12.5,13.875s5.5,3.75,5.5,3.75s0.625,4.125,0.875,5.5s-0.125,5.25,0,6.5s-0.125,2.25-0.125,2.25
		s-9.625-2.375-15.5-7s-11.875-13-13.875-16.125s-5.75-8.75-5.75-8.75V103.088z"/>
	<path fill="#5D3119" d="M90.851,130.463c0,0,1,6.875,1.125,9.5s0.625,5.125,0.125,6.75s-8,15.25-8,15.25l3.375-0.375
		c0,0,4.125-6.375,5.375-8.25s10.375-16.375,10.375-16.375s-9.125-7-11.875-6.125"/>
	<path fill="#5D3119" d="M118.601,113.338c0,0,0.07,0.385,0.188,1.051c0.584,3.301,2.333,13.52,2.437,18.199
		c0.125,5.625,2.25,10.375-1,17.625s-7.75,13.75-7.75,13.75l4.625-1.125l20.625-31.375c0,0,0.625-18.625,0.375-20.875
		s-0.875-3-0.875-3s-1.25,4.375-2.5,7.125s-2.375,3.5-3.875,4.25s-7.75-0.75-11.5-5.75"/>
	<path fill="#5D3119" d="M138.226,109.463c0,0,2.5-14.625,2.625-16.125s1.5,2.375,2,3.5s1.375,5.625,1.375,7.125
		s-0.875,6.25-1.25,7.25s-1.375,4.125-1.75,4.5s-2.75,4.25-2.75,4.25s-0.625-6.125-0.375-9.375"/>
	<path fill="#5D3119" d="M138.351,128.213c0,0,4.625-1.5,7.25-3.375s4.25-4,6.5-7.75s2.25-3.75,2.25-3.75s-0.75,3.625-5.75,10.375
		s-9.125,11.75-9.625,12s-3.125,0.75-3.125,0.75l-2,0.25C133.851,136.713,136.976,129.213,138.351,128.213z"/>
	<path fill="#5D3119" d="M138.976,135.713c0,0,10.375,3.5,13,3.875s14.125,2.375,16.25,2.25s10.625-0.25,10.625-0.25l0.625-1.625
		c0,0-3-5.75-4.25-7.375s-1.25-1.625-1.25-1.625s-3.125,0.75-8.125,1s-14.75-0.375-16-0.625s-1.25-0.25-1.25-0.25L138.976,135.713z"
		/>
	<path fill="#5D3119" d="M161.851,140.838c0,0-6.625,11-9,14.125s-6.625,8.25-6.625,8.25l1.75-0.25c0,0,8.875-9.125,10.25-10.5
		s11-11.125,11-11.125l-0.875-3l-7,1.75"/>
	<path fill="#5D3119" d="M181.101,165.213c0,0,13.5-15.25,16.25-20.5s5-6.75,3.75-8.625s-5.375-5.5-8.5-7.875s-6.25-5.375-6-10.875
		s0.25-12.625,3.375-19.125s8.5-17.5,8.5-17.5s0.375,5.875,1.5,8.125s1.75,3.25,3.5,3.625s3.75,0.25,4.25-1.375
		s1.125-4.5,1.25-7.375s0.125-9.125,0.125-9.125s1.875,8.375,1.75,10.5s-0.25,10.125-0.625,12.875s-2.25,14.5-3,16.125
		s-1.375,4.25-1.25,5.25s10.25,13.375,10.25,13.375l-32.5,32.625L181.101,165.213z"/>
	<path fill="#FFFFFF" d="M23.289,59.651c0,0-13.688-1.938-17.688-1.625s-5,0.25-5,0.25l1.063,2.125l1.813,2.063l10.813,8.563
		l2.125,1.313l3.813-1.188c0,0-0.5-3.625-0.563-3.813s2.438-5.688,2.438-5.688l1.188-2.25"/>
	<ellipse fill="#FFFFFF" cx="39.757" cy="40.495" rx="12.156" ry="10.406"/>
	<ellipse fill="#FFFFFF" cx="61.382" cy="43.963" rx="14.594" ry="13"/>
	<ellipse fill="#0092FF" cx="52.476" cy="44.745" rx="5.188" ry="5.094"/>
	<ellipse fill="#0092FF" cx="32.164" cy="40.932" rx="4.438" ry="4.344"/>
	<circle fill="#00426B" cx="52.007" cy="44.745" r="2.219"/>
	<ellipse fill="#00426B" cx="31.851" cy="40.87" rx="1.875" ry="1.844"/>
	<ellipse fill="#FFFFFF" cx="54.132" cy="42.088" rx="1.344" ry="1.313"/>
	<circle fill="#FFFFFF" cx="50.195" cy="47.057" r="1.031"/>
	<ellipse fill="#FFFFFF" cx="33.539" cy="38.995" rx="1.125" ry="1.156"/>
	<circle fill="#FFFFFF" cx="30.351" cy="43.338" r="0.875"/>
	<ellipse fill="none" stroke="#000000" stroke-width="0.75" cx="61.351" cy="44.005" rx="14.5" ry="13.042"/>
	<path fill="none" stroke="#000000" stroke-width="0.75" d="M47.354,47.625c-0.485-1.258-0.609-2.637-0.429-3.98
		c-0.082-1.204,0.109-2.545,0.631-3.665c0.24-0.896,0.718-1.756,1.174-2.532c0.429-0.729,0.92-1.384,1.511-1.931
		c-2.032-3.272-6.021-5.512-10.641-5.512c-6.673,0-12.083,4.645-12.083,10.375s5.41,10.375,12.083,10.375
		c3.096,0,5.906-1.015,8.043-2.66c-0.005-0.013-0.014-0.025-0.019-0.039C47.519,47.943,47.423,47.804,47.354,47.625z"/>
	<line fill="none" stroke="#000000" stroke-width="0.75" x1="28.164" y1="44.213" x2="4.726" y2="58.088"/>
	<path fill="none" stroke="#000000" stroke-width="0.75" d="M41.164,30.088c0,0,1.563-2.625,4.688-4.813s12.125-7.625,12.125-7.625
		s-5.875-2.25-7.063-3.063s-1.438-1.125-1.438-1.125s5.625-2.5,13.563-1.875s10.75,1.125,10.75,1.125s-2.125-3.375-2.438-5.125
		s-0.313-2.625-0.313-2.625s3.125,1.688,6.438,4.313s7.188,6.25,9.063,6.875s3.125,0.875,3.125,0.875"/>
	<path fill="none" stroke="#000000" stroke-width="0.75" d="M85.101,26.026c0,0,3.75-8.125,7.063-12.5s7-7.313,8.5-7.75
		s5.375-1.375,7.688,1.313s4.438,5.5,5.813,8.688s1.75,4.75,1.875,5.938s0.125,8,0,8.188s-0.813,2.125-5.875,3.625
		s-12,3.188-12,3.188"/>
	<path fill="none" stroke="#000000" stroke-width="0.75" d="M89.914,28.901c0,0,4.313-7.625,9-10.063s4.938-2.5,4.938-2.5"/>
	<path fill="none" stroke="#000000" stroke-width="0.75" d="M100.914,35.963c0,0,2.563,5.938,6.75,10.063s11.938,11.5,11.938,11.5
		s-15.75,2.375-15.688,2.625s10.75,4.563,10.75,4.563l-14.813,1.313l7.313,6.625c0,0-20,2.688-23.063,4.313
		s-6.063,5.375-9.938,7.938s-6.125,4.188-11.5,5.313s-14,0.938-14,0.938s1.938,1.875,3.063,2.375s1.125,0.5,1.125,0.5
		s-5.25,0.813-9.188-0.375s-5.188-2-5.188-2s3.125,3.563,4,4s0.875,0.438,0.875,0.438s-4.438,1.5-7.625,0.125
		s-5.563-4.375-5.563-4.375s-1,3.813-0.563,5.75s0.438,1.938,0.438,1.938s-1.75,0.375-4.25-2.438s-3.25-5.125-3.563-7.125
		s0.063-4.75,0.063-4.75"/>
	<path fill="none" stroke="#000000" stroke-width="0.75" d="M1.101,58.276c0,0,4.063-0.438,10.313-0.125s13.125,1.438,16.125,2.438
		s5.375,2.438,5.375,2.438s-1.25,2.75-5.563,5.125s-11.188,4.25-11.188,4.25S4.726,64.026,3.039,62.276S0.414,58.463,1.101,58.276z"
		/>
	<path fill="none" stroke="#000000" stroke-width="0.75" d="M2.789,62.276c0,0,0.125,11.125,0.75,14.063s1.625,5.875,3.875,7.063
		s5.438,1.688,10.625,1.938s19.125,0.375,21.813-0.813s8.438-6.563,9.75-8.125s2-2.75,2-2.75"/>
	<path fill="none" stroke="#000000" stroke-width="0.75" d="M17.789,72.276c0,0-0.063,6.125,0.688,7.813s3.5,5.438,3.5,5.438"/>
	<path fill="none" stroke="#000000" stroke-width="0.75" d="M48.914,23.401c0,0-3.438-4.563-3.875-8.063s0.125-5.438,2-7.063
		s8.313-5.5,11.938-6.625s7.625-1.25,9.875-1s3.063,0.813,3.75,1.688s0.688,4.063,0.688,4.063"/>
	<path fill="none" stroke="#000000" stroke-width="0.75" d="M211.185,85.005c0,0,0.584-4,0.584-7.417s0.5-7.333,0.25-12.75
		s-0.417-9.333-1.417-15.417s-1.5-9.5-3.5-14.917s-4.5-10.333-8.417-13.917s-13.5-5.75-20.083-6.167s-16.5,1.417-23,2.917
		s-19.5,7.5-21.084,8s-18.333,0.25-18.333,0.25"/>
	<path fill="none" stroke="#000000" stroke-width="0.75" d="M206.019,63.505c-0.167,0.25,5.583,15.751,4.916,24.417
		s-2.5,21.167-3.25,24.417s-3.582,5.667-0.666,9.75s9.083,10.583,9.083,10.583l-32.5,32.917c0,0-17.167,0.582-20.167,0.166
		s-7.667-1.834-7.917-2s3.834-4.333,6.834-5.083s7.416-1.167,9.083-0.667s1.667,0.5,1.667,0.5l6.25-18.333
		c0,0-7.749-13.584-8.833-17.167s-3.084-9.25-3.834-14s-1.25-9.665,1.25-14.749s7.333-11.667,7.333-11.667"/>
	<path fill="none" stroke="#000000" stroke-width="0.75" d="M137.685,109.172c0,0,0.5,11.25,0.417,14.5s0.167,7.25,0.167,7.25
		l-21.5,31.917c0,0-16.917,3.5-19.334,3.25s-4.833-0.75-4.833-0.75l-6-1.75c0,0,3.083-4.833,6.583-5s5.833,0.083,5.833,0.083
		s0.25-0.916,3-1.083s5.25,0.75,5.25,0.75"/>
	<path fill="none" stroke="#000000" stroke-width="0.75" d="M98.435,158.172c0,0,4.584-13.083,5.167-18s0.416-12.417-0.417-17
		s-1.333-8-1.333-8"/>
	<path fill="none" stroke="#000000" stroke-width="0.75" d="M63.602,90.089c0,0,2.667,8.832,4.417,12.416s3.916,6.917,6.583,11.084
		s8.833,12.417,12.25,14.917s9.75,6.167,11.667,6.75s5.583,1.5,5.583,1.5"/>
	<path fill="none" stroke="#000000" stroke-width="0.75" d="M73.686,156.256l4.166-17.084c0,0-0.666-3.833-1.083-7.417
		s-1.583-17.333-1.583-17.333"/>
	<path fill="none" stroke="#000000" stroke-width="0.75" d="M80.435,156.422c0,0-6.5,0.001-8.083,0.167s-5.417,0.833-6.917,1.833
		s-2.166,2.583-2.166,2.583s1.583,1.418,2.833,1.584s2.417,0.25,2.417,0.25s-0.083,0.75,4,0.75s7.834-1.001,10-1.334
		s5.333-1,5.333-1s15.75-24.833,15.75-24.583"/>
	<path fill="none" stroke="#000000" stroke-width="0.75" d="M134.768,136.755c0,0,5.334-1.166,8.084-2.333s7.25-4.416,9.833-7.083
		s6.25-8.333,6.917-11.083s1-3.167,1-3.167"/>
	<path fill="none" stroke="#000000" stroke-width="0.75" d="M138.269,119.755c0,0,3.582-4.25,4.249-6.583s1.834-9.167,1.334-11.75
		s-2.417-8.25-2.417-8.25"/>
	<path fill="none" stroke="#000000" stroke-width="0.75" d="M138.685,136.006c0,0,12.501,3.334,16.834,4s9.166,1.417,12.083,1.5
		s11.5,0.166,11.5,0.166"/>
	<path fill="none" stroke="#000000" stroke-width="0.75" d="M140.268,137.006c0,0,4.5,7.75,4.417,8s-3.833,12.666-3.833,12.666
		s-6.333-0.833-8.583,0.167s-4.667,3.583-4.667,3.583s1.083,0.667,2,1s2.916,0.667,4.333,0.75s2.334-0.167,2.334-0.167
		s-0.917,0.666,0.583,0.75s10.417-0.25,11-0.833s21.583-21.583,21.583-21.583"/>
	<path d="M141.79,93.046c0,0-1.876-4.188-2.604-4.896s1.479,3.792,1.938,5.167"/>
	<path d="M160.257,113.057c0,0,0.75-4.25,0.594-5.156s-0.156-0.906-0.156-0.906s0.719,4.875,0.125,6.406"/>
	<path d="M137.289,109.37c0,0,0.094-1.906-0.156-3.063s-0.281-1.281-0.281-1.281s1.188,3.031,1.219,4.25"/>
	<path d="M101.57,115.432c0,0-1.281-6.188-1.656-7.781s-0.375-1.594-0.375-1.594s2.688,8.063,2.719,9.063"/>
	<path d="M51.573,74.276c0,0,2.109-3.25,2.381-4.344c0.272-1.094,0.272-1.094,0.272-1.094s-2.28,4.031-3.063,4.813"/>
	<path d="M174.809,82.672c0,0,3.667-4.708,4.792-5.625s1.917-1.167,1.917-1.167s-5.125,6.166-6.25,7.375"/>
	<path d="M205.768,63.839c0,0-1.916-5.167-2.75-6.25s-0.834-1.083-0.834-1.083s2.583,1.875,4.25,7.333"/>
	<path d="M168.351,165.839c0,0,1.751-2.833,3.292-3.875s3.958-1.375,3.958-1.375s-3.708,1.916-4.583,2.958s-1.459,2.542-1.459,2.542
		"/>
	<path d="M161.351,164.964c0,0,1.209-3.084,2.542-4.042s4.708-1.541,4.708-1.541s-4.458,2.084-5.125,3s-1.375,3.291-1.375,3.291"/>
	<path d="M136.101,162.964c0,0,0.707-2.5,2.416-3.167s2.667-0.667,2.667-0.667s-3.126,1.166-3.542,2s-1.083,2.25-1.083,2.25"/>
	<path d="M131.059,162.547c0,0,0.416-1.707,1.833-2.666s2.959-0.959,2.959-0.959s-2.584,1.041-3.292,2s-1,2-1,2"/>
	<path d="M99.726,165.797c0-0.125,1.083-2.207,2.458-3.291s4.5-2,4.5-2s-4.291,2.333-4.708,3.083s-0.958,2.083-0.958,2.083"/>
	<path d="M91.851,165.047c0,0,1.083-1.832,2.125-2.916s1.749-1.708,2.833-1.875s1.667-0.084,1.667-0.084s-3.417,1.668-4.042,2.334
		s-1.75,2.666-1.75,2.666"/>
	<path d="M73.434,163.464c0,0,1.167-2.209,2.667-3.334s3.583-1.583,3.583-1.583s-3.584,2.374-4.292,3.333s-1.041,1.709-1.041,1.709"
		/>
	<path d="M68.059,162.547c0,0,0.75-1.959,1.75-2.875s3.833-1.916,3.833-1.916s-3.125,1.791-3.75,2.666s-0.75,2.542-0.75,2.542"/>
	<path d="M80.101,156.713c0,0,1.125,0.542,1.5,0.875s0.375,0.333,0.375,0.333s-0.501-1.957-1.584-1.916"/>
	<path d="M106.934,158.463l2.75,1.375c0,0-1.208-2.124-2.5-2.208"/>
	<path d="M20.851,59.505c0,0-12.583,0.833-12.083,2.25s10.583,9.917,10.583,9.917s9.25-4.332,10.583-5.416s3.458-2.958,2.979-3.229
		s-9.479-4.187-11.979-3.854"/>
	<ellipse fill="#FFFFFF" cx="54.945" cy="44.401" rx="7.781" ry="6.813"/>
	<ellipse fill="#FFFFFF" cx="35.57" cy="40.432" rx="7.719" ry="7.844"/>
	<polyline fill="none" stroke="#000000" points="27.664,39.651 46.851,45.526 76.101,45.026 	"/>
</g>
<g id="frame_3">
	<path fill="#834421" d="M2.352,62.421c0,0,0.5,16.5,1.75,18s5.25,4,6.5,4.25s10.75,0.5,10.75,0.5s1,8.125,1.625,9.125
		s4.125,4.5,4.625,4.75s2,0.375,2,0.375s-0.5-2.5-0.5-4.25s0.375-3.625,0.375-3.625s2.75,3.125,4.625,4s4.75,1.125,5.875,1
		s3.125-0.5,3.125-0.5s-4-2.75-4.75-3.625s-0.75-0.875-0.75-0.875s6.25,1.875,7.625,2.25s3-1.25,3-1.25l-1.375-2.75l8.625-2
		c0,0,7.625,0.5,7.875,2.375s3.75,11.375,4.375,12.875s5.625,9,6.25,10.25s1.125,3.125,1.125,5s0.75,12.875,1.375,15.25
		s1.125,4.75,1,5.125s-4,17.25-4,17.25s-6.625,1-7.875,1.875s-2.875,2.875-2.875,2.875s0.75,0.875,1.375,1.375
		s3.125,0.625,3.125,0.625l0.75-0.125l1.125,0.625h4c0,0,4.5,0,5.25-0.375s6.75-1.5,6.75-1.5l7-12.5l6-11.75l5.375-0.875
		c0,0-0.75,6.375-1.375,8.25s-3.625,13-4,13.375s-4,0.5-5.25,0.75s-3.75,1.5-4.25,2.125s-2,2.25-2,2.25s1.5,1.125,3.25,1.625
		s4.375,1.375,7.125,1.375s9.125-1.25,9.125-1.25l8.625-2.75c0,0,10.75-17.375,10.875-17.75s4.25-10.5,4.25-10.5l6.5,1.875
		c0,0,2.5-0.25,3.5,1.125s4.375,8,4.375,8l-3.375,12.25c0,0-7.125,0.125-8.375,0.625s-3.75,1.625-4.25,2.125s-1.125,1.5-1.125,1.5
		s1.625,1.625,3,1.625s5.375,0.25,5.375,0.25l0.25,0.625c0,0,9.5,0.5,10.625-0.375s4.875-5.75,4.875-5.75l8-12.375l4.5-4.875
		l12.25,0.5l2.5,0.375l-5.75,17.125c0,0-4.75-1-6.125-0.75s-5.75,0.875-7,1.625s-4.625,4.25-4.625,4.25s1.875,0.5,3.125,1
		s4.5,1.5,6,1.375s6.375-0.5,7.25-0.375s10-0.375,10-0.375s21.25-25.75,21.375-26.125s-1.5-12.125-1.875-12.375s7-29.75,7-29.75
		l2.375-12.625c0,0,1.25-6.125,1.375-7.75s-0.25-14.75-0.375-16.875s-1.5-15.25-2-16.625s-3.875-12.75-4.625-13.875
		s-3.875-5.875-5.25-7.5s-6.75-4.625-11-5.625s-10.375-3.125-19.5-1.75s-18.75,4.375-21.25,5.125s-13.375,6-13.375,6l-18.625-0.125
		c0,0,0.75-3.75-0.375-5.875s-1.5-5.125-2.875-6.875s-3.875-5.75-4.375-5.875s-3.375-1.625-4.25-1.5s-3.875-0.125-4.875,0.625
		s-5,4.625-5.875,5.75s-3.75,5-3.75,5s-3.125-0.625-5-1.625S72.852,5.421,72.852,5.421s0.25-2.625-0.125-3.125s-2.375-2.125-4-2
		s-9.375,0.25-11.75,1.375s-10.25,5.5-10.875,6.375s-2,4.5-1.5,6s1.375,5.5,2.25,6.625s1.625,2.125,1.625,2.125s-6.625,5.5-6.75,6
		s-4.5,9.125-4.5,9.125l-9.5,5.75L4.977,57.546L2.352,62.421z"/>
	<path fill="#5D3119" d="M100.852,37.296c0,0,1.125,8,0.875,10s-1.625,5.875-5.125,7s-19.25,3.875-19.25,3.875
		s9.375,1.875,11.125,3.125s3.25,2.625,1.625,4s-10.625,3.875-16.375,5s-12.5,1.25-12.5,1.25s1.25,6.875-1.375,10
		s-3.875,5.125-6.5,6.125s-12.5,1.5-12.5,1.5s5.5,4,6.875,4.375s4.375,0.25,4.375,0.25s-3.5-2.5-3.75-2.75s9.875-0.25,11.375-0.5
		s10.625-3.25,13.125-5.125s5.25-4.375,6.5-5.625s3.875-2.875,5.5-3.375s22.25-4.375,22.25-4.375l-7.5-6.25l14.5-1.25l-10.25-4.75
		l15.25-2.875c0,0-12.5-11-13.875-12.875s-4.125-7.5-4.125-7.5"/>
	<path fill="#5D3119" d="M68.352,102.921c-0.125-0.375,0.125-7.375,0.625-9.625s1.25-6.25,3.5-3.875s8.75,10.625,12.25,15.25
		s10.125,11.875,12.5,13.875s5.5,3.75,5.5,3.75s0.625,4.125,0.875,5.5s-0.125,5.25,0,6.5s-0.125,2.25-0.125,2.25
		s-9.625-2.375-15.5-7s-11.875-13-13.875-16.125s-5.75-8.75-5.75-8.75V102.921z"/>
	<path fill="#5D3119" d="M90.352,130.296c0,0,1,6.875,1.125,9.5s0.625,5.125,0.125,6.75s-8,15.25-8,15.25l3.375-0.375
		c0,0,4.125-6.375,5.375-8.25s10.375-16.375,10.375-16.375s-9.125-7-11.875-6.125"/>
	<path fill="#5D3119" d="M118.102,113.171c0,0,0.07,0.385,0.188,1.051c0.584,3.301,2.333,13.52,2.437,18.199
		c0.125,5.625,2.25,10.375-1,17.625s-7.75,13.75-7.75,13.75l4.625-1.125l20.625-31.375c0,0,0.625-18.625,0.375-20.875
		s-0.875-3-0.875-3s-1.25,4.375-2.5,7.125s-2.375,3.5-3.875,4.25s-7.75-0.75-11.5-5.75"/>
	<path fill="#5D3119" d="M137.727,109.296c0,0,2.5-14.625,2.625-16.125s1.5,2.375,2,3.5s1.375,5.625,1.375,7.125
		s-0.875,6.25-1.25,7.25s-1.375,4.125-1.75,4.5s-2.75,4.25-2.75,4.25s-0.625-6.125-0.375-9.375"/>
	<path fill="#5D3119" d="M137.852,128.046c0,0,4.625-1.5,7.25-3.375s4.25-4,6.5-7.75s2.25-3.75,2.25-3.75s-0.75,3.625-5.75,10.375
		s-9.125,11.75-9.625,12s-3.125,0.75-3.125,0.75l-2,0.25C133.352,136.546,136.477,129.046,137.852,128.046z"/>
	<path fill="#5D3119" d="M138.477,135.546c0,0,10.375,3.5,13,3.875s14.125,2.375,16.25,2.25s10.625-0.25,10.625-0.25l0.625-1.625
		c0,0-3-5.75-4.25-7.375s-1.25-1.625-1.25-1.625s-3.125,0.75-8.125,1s-14.75-0.375-16-0.625s-1.25-0.25-1.25-0.25L138.477,135.546z"
		/>
	<path fill="#5D3119" d="M161.352,140.671c0,0-6.625,11-9,14.125s-6.625,8.25-6.625,8.25l1.75-0.25c0,0,8.875-9.125,10.25-10.5
		s11-11.125,11-11.125l-0.875-3l-7,1.75"/>
	<path fill="#5D3119" d="M180.602,165.046c0,0,13.5-15.25,16.25-20.5s5-6.75,3.75-8.625s-5.375-5.5-8.5-7.875s-6.25-5.375-6-10.875
		s0.25-12.625,3.375-19.125s8.5-17.5,8.5-17.5s0.375,5.875,1.5,8.125s1.75,3.25,3.5,3.625s3.75,0.25,4.25-1.375
		s1.125-4.5,1.25-7.375s0.125-9.125,0.125-9.125s1.875,8.375,1.75,10.5s-0.25,10.125-0.625,12.875s-2.25,14.5-3,16.125
		s-1.375,4.25-1.25,5.25s10.25,13.375,10.25,13.375l-32.5,32.625L180.602,165.046z"/>
	<path fill="#FFFFFF" d="M22.79,59.483c0,0-13.688-1.938-17.688-1.625s-5,0.25-5,0.25l1.063,2.125l1.813,2.063l10.813,8.563
		l2.125,1.313l3.813-1.188c0,0-0.5-3.625-0.563-3.813s2.438-5.688,2.438-5.688l1.188-2.25"/>
	<ellipse fill="#FFFFFF" cx="39.258" cy="40.327" rx="12.156" ry="10.406"/>
	<ellipse fill="#FFFFFF" cx="60.883" cy="43.796" rx="14.594" ry="13"/>
	<ellipse fill="#0092FF" cx="51.977" cy="44.577" rx="5.188" ry="5.094"/>
	<ellipse fill="#0092FF" cx="31.665" cy="40.765" rx="4.438" ry="4.344"/>
	<circle fill="#00426B" cx="51.508" cy="44.577" r="2.219"/>
	<ellipse fill="#00426B" cx="31.352" cy="40.702" rx="1.875" ry="1.844"/>
	<ellipse fill="#FFFFFF" cx="53.633" cy="41.921" rx="1.344" ry="1.313"/>
	<circle fill="#FFFFFF" cx="49.696" cy="46.89" r="1.031"/>
	<ellipse fill="#FFFFFF" cx="33.04" cy="38.827" rx="1.125" ry="1.156"/>
	<circle fill="#FFFFFF" cx="29.852" cy="43.171" r="0.875"/>
	<ellipse fill="none" stroke="#000000" stroke-width="0.75" cx="60.852" cy="43.838" rx="14.5" ry="13.042"/>
	<path fill="none" stroke="#000000" stroke-width="0.75" d="M46.855,47.457c-0.485-1.258-0.609-2.637-0.429-3.98
		c-0.082-1.204,0.109-2.545,0.631-3.665c0.24-0.896,0.718-1.756,1.174-2.532c0.429-0.729,0.92-1.384,1.511-1.931
		c-2.032-3.272-6.021-5.512-10.64-5.512c-6.673,0-12.083,4.645-12.083,10.375s5.41,10.375,12.083,10.375
		c3.096,0,5.906-1.015,8.043-2.66c-0.005-0.013-0.014-0.025-0.019-0.039C47.02,47.775,46.924,47.637,46.855,47.457z"/>
	<line fill="none" stroke="#000000" stroke-width="0.75" x1="27.665" y1="44.046" x2="4.227" y2="57.921"/>
	<path fill="none" stroke="#000000" stroke-width="0.75" d="M40.665,29.921c0,0,1.563-2.625,4.688-4.813s12.125-7.625,12.125-7.625
		s-5.875-2.25-7.063-3.063s-1.438-1.125-1.438-1.125s5.625-2.5,13.563-1.875s10.75,1.125,10.75,1.125s-2.125-3.375-2.438-5.125
		S70.54,4.796,70.54,4.796s3.125,1.688,6.438,4.313s7.188,6.25,9.063,6.875s3.125,0.875,3.125,0.875"/>
	<path fill="none" stroke="#000000" stroke-width="0.75" d="M84.602,25.858c0,0,3.75-8.125,7.063-12.5s7-7.313,8.5-7.75
		s5.375-1.375,7.688,1.313s4.438,5.5,5.813,8.688s1.75,4.75,1.875,5.938s0.125,8,0,8.188s-0.813,2.125-5.875,3.625
		s-12,3.188-12,3.188"/>
	<path fill="none" stroke="#000000" stroke-width="0.75" d="M89.415,28.733c0,0,4.313-7.625,9-10.063s4.938-2.5,4.938-2.5"/>
	<path fill="none" stroke="#000000" stroke-width="0.75" d="M100.415,35.796c0,0,2.563,5.938,6.75,10.063s11.938,11.5,11.938,11.5
		s-15.75,2.375-15.688,2.625s10.75,4.563,10.75,4.563l-14.813,1.313l7.313,6.625c0,0-20,2.688-23.063,4.313
		s-6.063,5.375-9.938,7.938s-6.125,4.188-11.5,5.313s-14,0.938-14,0.938s1.938,1.875,3.063,2.375s1.125,0.5,1.125,0.5
		s-5.25,0.813-9.188-0.375s-5.188-2-5.188-2s3.125,3.563,4,4s0.875,0.438,0.875,0.438s-4.438,1.5-7.625,0.125
		s-5.563-4.375-5.563-4.375s-1,3.813-0.563,5.75s0.438,1.938,0.438,1.938s-1.75,0.375-4.25-2.438s-3.25-5.125-3.563-7.125
		s0.063-4.75,0.063-4.75"/>
	<path fill="none" stroke="#000000" stroke-width="0.75" d="M0.602,58.108c0,0,4.063-0.438,10.313-0.125s13.125,1.438,16.125,2.438
		s5.375,2.438,5.375,2.438s-1.25,2.75-5.563,5.125s-11.188,4.25-11.188,4.25S4.227,63.859,2.54,62.108
		C0.852,60.358-0.085,58.296,0.602,58.108z"/>
	<path fill="none" stroke="#000000" stroke-width="0.75" d="M51.102,73.484"/>
	<path fill="none" stroke="#000000" stroke-width="0.75" d="M49.102,76.234"/>
	<path fill="none" stroke="#000000" stroke-width="0.75" d="M2.29,62.108c0,0,0.125,11.125,0.75,14.063s1.625,5.875,3.875,7.063
		s5.438,1.688,10.625,1.938s19.125,0.375,21.813-0.813c0,0,3.916-2.771,4.416-3.271"/>
	<path fill="none" stroke="#000000" stroke-width="0.75" d="M17.29,72.109c0,0-0.063,6.125,0.688,7.813s3.5,5.438,3.5,5.438"/>
	<path fill="none" stroke="#000000" stroke-width="0.75" d="M48.415,23.233c0,0-3.438-4.563-3.875-8.063s0.125-5.438,2-7.063
		s8.313-5.5,11.938-6.625s7.625-1.25,9.875-1s3.063,0.813,3.75,1.688s0.688,4.063,0.688,4.063"/>
	<path fill="none" stroke="#000000" stroke-width="0.75" d="M210.686,84.837c0,0,0.584-4,0.584-7.416c0-3.418,0.5-7.334,0.25-12.75
		c-0.25-5.417-0.417-9.333-1.417-15.417s-1.5-9.5-3.5-14.917s-4.5-10.333-8.417-13.917s-13.5-5.75-20.083-6.167
		s-16.5,1.417-23,2.917s-19.5,7.5-21.084,8s-18.333,0.25-18.333,0.25"/>
	<path fill="none" stroke="#000000" stroke-width="0.75" d="M205.52,63.338c-0.167,0.25,5.583,15.751,4.916,24.417
		s-2.5,21.166-3.25,24.416s-3.582,5.668-0.666,9.75c2.916,4.084,9.083,10.584,9.083,10.584l-32.5,32.916
		c0,0-17.167,0.582-20.167,0.166s-7.667-1.834-7.917-2s3.834-4.332,6.834-5.082s7.416-1.168,9.083-0.668s1.667,0.5,1.667,0.5
		l6.25-18.332c0,0-7.749-13.584-8.833-17.168c-1.084-3.582-3.084-9.25-3.834-14s-1.25-9.664,1.25-14.748s7.333-11.668,7.333-11.668"
		/>
	<path fill="none" stroke="#000000" stroke-width="0.75" d="M137.186,109.005c0,0,0.5,11.25,0.417,14.5s0.167,7.25,0.167,7.25
		l-21.5,31.916c0,0-16.917,3.5-19.334,3.25s-4.833-0.75-4.833-0.75l-6-1.75c0,0,3.083-4.832,6.583-5
		c3.5-0.166,5.833,0.084,5.833,0.084s0.25-0.916,3-1.084c2.75-0.166,5.25,0.75,5.25,0.75"/>
	<path fill="none" stroke="#000000" stroke-width="0.75" d="M97.936,158.005c0,0,4.584-13.084,5.167-18
		c0.583-4.918,0.416-12.418-0.417-17c-0.833-4.584-1.333-8-1.333-8"/>
	<path fill="none" stroke="#000000" stroke-width="0.75" d="M63.103,89.921c0,0,2.667,8.832,4.417,12.416s3.916,6.918,6.583,11.084
		c2.667,4.168,8.833,12.418,12.25,14.918s9.75,6.166,11.667,6.75c1.917,0.582,5.583,1.5,5.583,1.5"/>
	<path fill="none" stroke="#000000" stroke-width="0.75" d="M73.187,156.089l4.166-17.084c0,0-0.666-3.834-1.083-7.418
		s-1.583-17.332-1.583-17.332"/>
	<path fill="none" stroke="#000000" stroke-width="0.75" d="M79.936,156.255c0,0-6.5,0-8.083,0.166s-5.417,0.834-6.917,1.834
		s-2.166,2.582-2.166,2.582s1.583,1.418,2.833,1.584s2.417,0.25,2.417,0.25s-0.083,0.75,4,0.75s7.834-1,10-1.334
		c2.166-0.332,5.333-1,5.333-1s15.75-24.832,15.75-24.582"/>
	<path fill="none" stroke="#000000" stroke-width="0.75" d="M134.269,136.587c0,0,5.334-1.166,8.084-2.332
		c2.75-1.168,7.25-4.416,9.833-7.084c2.583-2.666,6.25-8.332,6.917-11.082s1-3.168,1-3.168"/>
	<path fill="none" stroke="#000000" stroke-width="0.75" d="M137.77,119.587c0,0,3.582-4.25,4.249-6.582
		c0.667-2.334,1.834-9.168,1.334-11.75c-0.5-2.584-2.417-8.25-2.417-8.25"/>
	<path fill="none" stroke="#000000" stroke-width="0.75" d="M138.186,135.839c0,0,12.501,3.334,16.834,4s9.166,1.416,12.083,1.5
		c2.917,0.082,11.5,0.166,11.5,0.166"/>
	<path fill="none" stroke="#000000" stroke-width="0.75" d="M139.769,136.839c0,0,4.5,7.75,4.417,8s-3.833,12.666-3.833,12.666
		s-6.333-0.834-8.583,0.166s-4.667,3.584-4.667,3.584s1.083,0.666,2,1c0.917,0.332,2.916,0.666,4.333,0.75
		c1.417,0.082,2.334-0.168,2.334-0.168s-0.917,0.666,0.583,0.75s10.417-0.25,11-0.832c0.583-0.584,21.583-21.584,21.583-21.584"/>
	<path d="M141.291,92.878c0,0-1.876-4.188-2.604-4.895c-0.729-0.709,1.479,3.791,1.938,5.166"/>
	<path d="M159.758,112.89c0,0,0.75-4.25,0.594-5.156s-0.156-0.906-0.156-0.906s0.719,4.875,0.125,6.406"/>
	<path d="M136.79,109.203c0,0,0.094-1.906-0.156-3.063s-0.281-1.281-0.281-1.281s1.188,3.031,1.219,4.25"/>
	<path d="M101.071,115.265c0,0-1.281-6.188-1.656-7.781s-0.375-1.594-0.375-1.594s2.688,8.063,2.719,9.063"/>
	<path d="M174.31,82.505c0,0,3.667-4.709,4.792-5.625c1.125-0.918,1.917-1.168,1.917-1.168s-5.125,6.166-6.25,7.375"/>
	<path d="M205.269,63.671c0,0-1.916-5.166-2.75-6.25s-0.834-1.083-0.834-1.083s2.583,1.875,4.25,7.333"/>
	<path d="M167.852,165.671c0,0,1.751-2.832,3.292-3.875c1.541-1.041,3.958-1.375,3.958-1.375s-3.708,1.916-4.583,2.959
		c-0.875,1.041-1.459,2.541-1.459,2.541"/>
	<path d="M160.852,164.796c0,0,1.209-3.084,2.542-4.041c1.333-0.959,4.708-1.541,4.708-1.541s-4.458,2.084-5.125,3
		s-1.375,3.291-1.375,3.291"/>
	<path d="M135.602,162.796c0,0,0.707-2.5,2.416-3.166c1.709-0.668,2.667-0.668,2.667-0.668s-3.126,1.166-3.542,2
		s-1.083,2.25-1.083,2.25"/>
	<path d="M130.56,162.38c0,0,0.416-1.707,1.833-2.666s2.959-0.959,2.959-0.959s-2.584,1.041-3.292,2s-1,2-1,2"/>
	<path d="M99.227,165.63c0-0.125,1.083-2.207,2.458-3.291s4.5-2,4.5-2s-4.291,2.332-4.708,3.082s-0.958,2.084-0.958,2.084"/>
	<path d="M91.352,164.88c0,0,1.083-1.832,2.125-2.916s1.749-1.709,2.833-1.875c1.084-0.168,1.667-0.084,1.667-0.084
		s-3.417,1.668-4.042,2.334s-1.75,2.666-1.75,2.666"/>
	<path d="M72.935,163.296c0,0,1.167-2.209,2.667-3.334s3.583-1.582,3.583-1.582s-3.584,2.373-4.292,3.332s-1.041,1.709-1.041,1.709"
		/>
	<path d="M67.56,162.38c0,0,0.75-1.959,1.75-2.875s3.833-1.916,3.833-1.916s-3.125,1.791-3.75,2.666s-0.75,2.541-0.75,2.541"/>
	<path d="M79.602,156.546c0,0,1.125,0.541,1.5,0.875c0.375,0.332,0.375,0.332,0.375,0.332s-0.501-1.957-1.584-1.916"/>
	<path d="M106.435,158.296l2.75,1.375c0,0-1.208-2.125-2.5-2.209"/>
	<path d="M20.352,59.337c0,0-12.583,0.833-12.083,2.25s10.583,9.916,10.583,9.916s9.25-4.332,10.583-5.416s3.458-2.958,2.979-3.229
		s-9.479-4.187-11.979-3.854"/>
	<path fill="#834421" d="M46.477,92.878c0,0,1.875,0.916,2.375,0.875s-1,0.125-2.375-0.083"/>
	<polyline fill="#834421" points="37.393,91.212 37.477,92.17 37.727,92.128 37.977,91.212 37.06,90.628 	"/>
	<path fill="#FF0000" d="M44.81,79.92c0,0-1.875,1.709-2,1.792s-0.833,1.333-0.875,1.458s0.125,1.5,0.25,1.75
		s0.417,0.875,0.625,0.875s1.625-0.875,1.625-0.875l2-1.625l1.75-1.708l1.875-1.917l1.458-1.416l0.167-0.209l-6.625,1.959"/>
	<path fill="none" stroke="#000000" stroke-width="0.75" d="M42.102,82.504c0,0,2.5-2.501,3.833-3.084s6-1.333,6-1.333
		s-5.667,5-6.833,6.25s-4,3.167-6.417,3.917s-7.583,1.083-9.5,0.583s-4.5-2.083-5.083-2.5s-1.083-1-1.083-1"/>
	<path d="M23.393,85.337c0,0,9.292,0.501,11.917-0.083s4.75-0.875,5.5-1.5s1.792-1.5,1.792-1.5s-0.375,1.208-0.125,1.708
		s0.833,1.458,0.833,1.458l0.167,0.292c0,0-2.25,1.624-2.708,1.833s-4.625,1.334-5.083,1.334s-2.708,0.332-2.875,0.291
		s-3.708-0.292-4.25-0.5s-4.167-2.125-4.167-2.125l-1.458-1.375"/>
</g>
<g id="frame_4">
	<path fill="#834421" d="M2.352,63.088c0,0,0.5,16.5,1.75,18s5.25,4,6.5,4.25s10.75,0.5,10.75,0.5s1,8.125,1.625,9.125
		s4.125,4.5,4.625,4.75s2,0.375,2,0.375s-0.5-2.5-0.5-4.25s0.375-3.625,0.375-3.625s2.75,3.125,4.625,4s4.75,1.125,5.875,1
		s3.125-0.5,3.125-0.5s-4-2.75-4.75-3.625s-0.75-0.875-0.75-0.875s6.25,1.875,7.625,2.25s3-1.25,3-1.25l-1.375-2.75l8.625-2
		c0,0,7.625,0.5,7.875,2.375s3.75,11.375,4.375,12.875s5.625,9,6.25,10.25s1.125,3.125,1.125,5s0.75,12.875,1.375,15.25
		s1.125,4.75,1,5.125s-4,17.25-4,17.25s-6.625,1-7.875,1.875s-2.875,2.875-2.875,2.875s0.75,0.875,1.375,1.375
		s3.125,0.625,3.125,0.625l0.75-0.125l1.125,0.625h4c0,0,4.5,0,5.25-0.375s6.75-1.5,6.75-1.5l7-12.5l6-11.75l5.375-0.875
		c0,0-0.75,6.375-1.375,8.25s-3.625,13-4,13.375s-4,0.5-5.25,0.75s-3.75,1.5-4.25,2.125s-2,2.25-2,2.25s1.5,1.125,3.25,1.625
		s4.375,1.375,7.125,1.375s9.125-1.25,9.125-1.25l8.625-2.75c0,0,10.75-17.375,10.875-17.75s4.25-10.5,4.25-10.5l6.5,1.875
		c0,0,2.5-0.25,3.5,1.125s4.375,8,4.375,8l-3.375,12.25c0,0-7.125,0.125-8.375,0.625s-3.75,1.625-4.25,2.125s-1.125,1.5-1.125,1.5
		s1.625,1.625,3,1.625s5.375,0.25,5.375,0.25l0.25,0.625c0,0,9.5,0.5,10.625-0.375s4.875-5.75,4.875-5.75l8-12.375l4.5-4.875
		l12.25,0.5l2.5,0.375l-5.75,17.125c0,0-4.75-1-6.125-0.75s-5.75,0.875-7,1.625s-4.625,4.25-4.625,4.25s1.875,0.5,3.125,1
		s4.5,1.5,6,1.375s6.375-0.5,7.25-0.375s10-0.375,10-0.375s21.25-25.75,21.375-26.125s-1.5-12.125-1.875-12.375s7-29.75,7-29.75
		l2.375-12.625c0,0,1.25-6.125,1.375-7.75s-0.25-14.75-0.375-16.875s-1.5-15.25-2-16.625s-3.875-12.75-4.625-13.875
		s-3.875-5.875-5.25-7.5s-6.75-4.625-11-5.625s-10.375-3.125-19.5-1.75s-18.75,4.375-21.25,5.125s-13.375,6-13.375,6l-18.625-0.125
		c0,0,0.75-3.75-0.375-5.875s-1.5-5.125-2.875-6.875s-3.875-5.75-4.375-5.875s-3.375-1.625-4.25-1.5s-3.875-0.125-4.875,0.625
		s-5,4.625-5.875,5.75s-3.75,5-3.75,5s-3.125-0.625-5-1.625S72.852,6.088,72.852,6.088s0.25-2.625-0.125-3.125s-2.375-2.125-4-2
		s-9.375,0.25-11.75,1.375s-10.25,5.5-10.875,6.375s-2,4.5-1.5,6s1.375,5.5,2.25,6.625s1.625,2.125,1.625,2.125s-6.625,5.5-6.75,6
		s-4.5,9.125-4.5,9.125l-9.5,5.75L4.977,58.213L2.352,63.088z"/>
	<path fill="#5D3119" d="M100.852,37.963c0,0,1.125,8,0.875,10s-1.625,5.875-5.125,7s-19.25,3.875-19.25,3.875
		s9.375,1.875,11.125,3.125s3.25,2.625,1.625,4s-10.625,3.875-16.375,5s-12.5,1.25-12.5,1.25s1.25,6.875-1.375,10
		s-3.875,5.125-6.5,6.125s-12.5,1.5-12.5,1.5s5.5,4,6.875,4.375s4.375,0.25,4.375,0.25s-3.5-2.5-3.75-2.75s9.875-0.25,11.375-0.5
		s10.625-3.25,13.125-5.125s5.25-4.375,6.5-5.625s3.875-2.875,5.5-3.375s22.25-4.375,22.25-4.375l-7.5-6.25l14.5-1.25l-10.25-4.75
		l15.25-2.875c0,0-12.5-11-13.875-12.875s-4.125-7.5-4.125-7.5"/>
	<path fill="#5D3119" d="M68.352,103.588c-0.125-0.375,0.125-7.375,0.625-9.625s1.25-6.25,3.5-3.875s8.75,10.625,12.25,15.25
		s10.125,11.875,12.5,13.875s5.5,3.75,5.5,3.75s0.625,4.125,0.875,5.5s-0.125,5.25,0,6.5s-0.125,2.25-0.125,2.25
		s-9.625-2.375-15.5-7s-11.875-13-13.875-16.125s-5.75-8.75-5.75-8.75V103.588z"/>
	<path fill="#5D3119" d="M90.352,130.963c0,0,1,6.875,1.125,9.5s0.625,5.125,0.125,6.75s-8,15.25-8,15.25l3.375-0.375
		c0,0,4.125-6.375,5.375-8.25s10.375-16.375,10.375-16.375s-9.125-7-11.875-6.125"/>
	<path fill="#5D3119" d="M118.102,113.838c0,0,0.07,0.385,0.188,1.051c0.584,3.301,2.333,13.52,2.437,18.199
		c0.125,5.625,2.25,10.375-1,17.625s-7.75,13.75-7.75,13.75l4.625-1.125l20.625-31.375c0,0,0.625-18.625,0.375-20.875
		s-0.875-3-0.875-3s-1.25,4.375-2.5,7.125s-2.375,3.5-3.875,4.25s-7.75-0.75-11.5-5.75"/>
	<path fill="#5D3119" d="M137.727,109.963c0,0,2.5-14.625,2.625-16.125s1.5,2.375,2,3.5s1.375,5.625,1.375,7.125
		s-0.875,6.25-1.25,7.25s-1.375,4.125-1.75,4.5s-2.75,4.25-2.75,4.25s-0.625-6.125-0.375-9.375"/>
	<path fill="#5D3119" d="M137.852,128.713c0,0,4.625-1.5,7.25-3.375s4.25-4,6.5-7.75s2.25-3.75,2.25-3.75s-0.75,3.625-5.75,10.375
		s-9.125,11.75-9.625,12s-3.125,0.75-3.125,0.75l-2,0.25C133.352,137.213,136.477,129.713,137.852,128.713z"/>
	<path fill="#5D3119" d="M138.477,136.213c0,0,10.375,3.5,13,3.875s14.125,2.375,16.25,2.25s10.625-0.25,10.625-0.25l0.625-1.625
		c0,0-3-5.75-4.25-7.375s-1.25-1.625-1.25-1.625s-3.125,0.75-8.125,1s-14.75-0.375-16-0.625s-1.25-0.25-1.25-0.25L138.477,136.213z"
		/>
	<path fill="#5D3119" d="M161.352,141.338c0,0-6.625,11-9,14.125s-6.625,8.25-6.625,8.25l1.75-0.25c0,0,8.875-9.125,10.25-10.5
		s11-11.125,11-11.125l-0.875-3l-7,1.75"/>
	<path fill="#5D3119" d="M180.602,165.713c0,0,13.5-15.25,16.25-20.5s5-6.75,3.75-8.625s-5.375-5.5-8.5-7.875s-6.25-5.375-6-10.875
		s0.25-12.625,3.375-19.125s8.5-17.5,8.5-17.5s0.375,5.875,1.5,8.125s1.75,3.25,3.5,3.625s3.75,0.25,4.25-1.375
		s1.125-4.5,1.25-7.375s0.125-9.125,0.125-9.125s1.875,8.375,1.75,10.5s-0.25,10.125-0.625,12.875s-2.25,14.5-3,16.125
		s-1.375,4.25-1.25,5.25s10.25,13.375,10.25,13.375l-32.5,32.625L180.602,165.713z"/>
	<path fill="#FFFFFF" d="M22.79,60.15c0,0-13.688-1.938-17.688-1.625s-5,0.25-5,0.25L1.165,60.9l1.813,2.063l10.813,8.563
		l2.125,1.313l3.813-1.188c0,0-0.5-3.625-0.563-3.813s2.438-5.688,2.438-5.688l1.188-2.25"/>
	<ellipse fill="#FFFFFF" cx="39.258" cy="40.994" rx="12.156" ry="10.406"/>
	<ellipse fill="#FFFFFF" cx="60.883" cy="44.463" rx="14.594" ry="13"/>
	<ellipse fill="#0092FF" cx="51.977" cy="45.244" rx="5.188" ry="5.094"/>
	<ellipse fill="#0092FF" cx="31.665" cy="41.432" rx="4.438" ry="4.344"/>
	<circle fill="#00426B" cx="51.508" cy="45.244" r="2.219"/>
	<ellipse fill="#00426B" cx="31.352" cy="41.369" rx="1.875" ry="1.844"/>
	<ellipse fill="#FFFFFF" cx="53.633" cy="42.588" rx="1.344" ry="1.313"/>
	<circle fill="#FFFFFF" cx="49.696" cy="47.557" r="1.031"/>
	<ellipse fill="#FFFFFF" cx="33.04" cy="39.494" rx="1.125" ry="1.156"/>
	<circle fill="#FFFFFF" cx="29.852" cy="43.838" r="0.875"/>
	<ellipse fill="none" stroke="#000000" stroke-width="0.75" cx="60.852" cy="44.505" rx="14.5" ry="13.042"/>
	<path fill="none" stroke="#000000" stroke-width="0.75" d="M46.855,48.124c-0.485-1.258-0.609-2.637-0.429-3.98
		c-0.082-1.204,0.109-2.545,0.631-3.665c0.24-0.896,0.718-1.756,1.174-2.532c0.429-0.729,0.92-1.384,1.511-1.931
		c-2.032-3.272-6.021-5.512-10.64-5.512c-6.673,0-12.083,4.645-12.083,10.375s5.41,10.375,12.083,10.375
		c3.096,0,5.906-1.015,8.043-2.66c-0.005-0.013-0.014-0.025-0.019-0.039C47.02,48.442,46.924,48.304,46.855,48.124z"/>
	<line fill="none" stroke="#000000" stroke-width="0.75" x1="27.665" y1="44.713" x2="4.227" y2="58.588"/>
	<path fill="none" stroke="#000000" stroke-width="0.75" d="M40.665,30.588c0,0,1.563-2.625,4.688-4.813s12.125-7.625,12.125-7.625
		s-5.875-2.25-7.063-3.063s-1.438-1.125-1.438-1.125s5.625-2.5,13.563-1.875s10.75,1.125,10.75,1.125s-2.125-3.375-2.438-5.125
		S70.54,5.463,70.54,5.463s3.125,1.688,6.438,4.313s7.188,6.25,9.063,6.875s3.125,0.875,3.125,0.875"/>
	<path fill="none" stroke="#000000" stroke-width="0.75" d="M84.602,26.525c0,0,3.75-8.125,7.063-12.5s7-7.313,8.5-7.75
		s5.375-1.375,7.688,1.313s4.438,5.5,5.813,8.688s1.75,4.75,1.875,5.938s0.125,8,0,8.188s-0.813,2.125-5.875,3.625
		s-12,3.188-12,3.188"/>
	<path fill="none" stroke="#000000" stroke-width="0.75" d="M89.415,29.4c0,0,4.313-7.625,9-10.063s4.938-2.5,4.938-2.5"/>
	<path fill="none" stroke="#000000" stroke-width="0.75" d="M100.415,36.463c0,0,2.563,5.938,6.75,10.063s11.938,11.5,11.938,11.5
		s-15.75,2.375-15.688,2.625s10.75,4.563,10.75,4.563l-14.813,1.313l7.313,6.625c0,0-20,2.688-23.063,4.313
		s-6.063,5.375-9.938,7.938s-6.125,4.188-11.5,5.313s-14,0.938-14,0.938s1.938,1.875,3.063,2.375s1.125,0.5,1.125,0.5
		s-5.25,0.813-9.188-0.375s-5.188-2-5.188-2s3.125,3.563,4,4s0.875,0.438,0.875,0.438s-4.438,1.5-7.625,0.125
		s-5.563-4.375-5.563-4.375s-1,3.813-0.563,5.75s0.438,1.938,0.438,1.938s-1.75,0.375-4.25-2.438s-3.25-5.125-3.563-7.125
		s0.063-4.75,0.063-4.75"/>
	<path fill="none" stroke="#000000" stroke-width="0.75" d="M0.602,58.775c0,0,4.063-0.438,10.313-0.125s13.125,1.438,16.125,2.438
		s5.375,2.438,5.375,2.438s-1.25,2.75-5.563,5.125s-11.188,4.25-11.188,4.25S4.227,64.526,2.54,62.775
		C0.852,61.025-0.085,58.963,0.602,58.775z"/>
	<path fill="none" stroke="#000000" stroke-width="0.75" d="M51.102,74.151"/>
	<path fill="none" stroke="#000000" stroke-width="0.75" d="M49.102,76.901"/>
	<path fill="none" stroke="#000000" stroke-width="0.75" d="M2.29,62.775c0,0,0.125,11.125,0.75,14.063s1.625,5.875,3.875,7.063
		s5.438,1.688,10.625,1.938s19.125,0.375,21.813-0.813c0,0,3.916-2.771,4.416-3.271"/>
	<path fill="none" stroke="#000000" stroke-width="0.75" d="M17.29,72.776c0,0-0.063,6.125,0.688,7.813s3.5,5.438,3.5,5.438"/>
	<path fill="none" stroke="#000000" stroke-width="0.75" d="M48.415,23.9c0,0-3.438-4.563-3.875-8.063s0.125-5.438,2-7.063
		s8.313-5.5,11.938-6.625s7.625-1.25,9.875-1s3.063,0.813,3.75,1.688S72.79,6.9,72.79,6.9"/>
	<path fill="none" stroke="#000000" stroke-width="0.75" d="M210.686,85.504c0,0,0.584-4,0.584-7.416c0-3.418,0.5-7.334,0.25-12.75
		c-0.25-5.417-0.417-9.333-1.417-15.417s-1.5-9.5-3.5-14.917s-4.5-10.333-8.417-13.917s-13.5-5.75-20.083-6.167
		s-16.5,1.417-23,2.917s-19.5,7.5-21.084,8s-18.333,0.25-18.333,0.25"/>
	<path fill="none" stroke="#000000" stroke-width="0.75" d="M205.52,64.005c-0.167,0.249,5.583,15.751,4.916,24.417
		s-2.5,21.166-3.25,24.416s-3.582,5.668-0.666,9.75c2.916,4.084,9.083,10.584,9.083,10.584l-32.5,32.916
		c0,0-17.167,0.582-20.167,0.166s-7.667-1.834-7.917-2s3.834-4.332,6.834-5.082s7.416-1.168,9.083-0.668s1.667,0.5,1.667,0.5
		l6.25-18.332c0,0-7.749-13.584-8.833-17.168c-1.084-3.582-3.084-9.25-3.834-14s-1.25-9.664,1.25-14.748s7.333-11.668,7.333-11.668"
		/>
	<path fill="none" stroke="#000000" stroke-width="0.75" d="M137.186,109.672c0,0,0.5,11.25,0.417,14.5s0.167,7.25,0.167,7.25
		l-21.5,31.916c0,0-16.917,3.5-19.334,3.25s-4.833-0.75-4.833-0.75l-6-1.75c0,0,3.083-4.832,6.583-5
		c3.5-0.166,5.833,0.084,5.833,0.084s0.25-0.916,3-1.084c2.75-0.166,5.25,0.75,5.25,0.75"/>
	<path fill="none" stroke="#000000" stroke-width="0.75" d="M97.936,158.672c0,0,4.584-13.084,5.167-18
		c0.583-4.918,0.416-12.418-0.417-17c-0.833-4.584-1.333-8-1.333-8"/>
	<path fill="none" stroke="#000000" stroke-width="0.75" d="M63.103,90.588c0,0,2.667,8.832,4.417,12.416s3.916,6.918,6.583,11.084
		c2.667,4.168,8.833,12.418,12.25,14.918s9.75,6.166,11.667,6.75c1.917,0.582,5.583,1.5,5.583,1.5"/>
	<path fill="none" stroke="#000000" stroke-width="0.75" d="M73.187,156.756l4.166-17.084c0,0-0.666-3.834-1.083-7.418
		s-1.583-17.332-1.583-17.332"/>
	<path fill="none" stroke="#000000" stroke-width="0.75" d="M79.936,156.922c0,0-6.5,0-8.083,0.166s-5.417,0.834-6.917,1.834
		s-2.166,2.582-2.166,2.582s1.583,1.418,2.833,1.584s2.417,0.25,2.417,0.25s-0.083,0.75,4,0.75s7.834-1,10-1.334
		c2.166-0.332,5.333-1,5.333-1s15.75-24.832,15.75-24.582"/>
	<path fill="none" stroke="#000000" stroke-width="0.75" d="M134.269,137.254c0,0,5.334-1.166,8.084-2.332
		c2.75-1.168,7.25-4.416,9.833-7.084c2.583-2.666,6.25-8.332,6.917-11.082s1-3.168,1-3.168"/>
	<path fill="none" stroke="#000000" stroke-width="0.75" d="M137.77,120.254c0,0,3.582-4.25,4.249-6.582
		c0.667-2.334,1.834-9.168,1.334-11.75c-0.5-2.584-2.417-8.25-2.417-8.25"/>
	<path fill="none" stroke="#000000" stroke-width="0.75" d="M138.186,136.506c0,0,12.501,3.334,16.834,4s9.166,1.416,12.083,1.5
		c2.917,0.082,11.5,0.166,11.5,0.166"/>
	<path fill="none" stroke="#000000" stroke-width="0.75" d="M139.769,137.506c0,0,4.5,7.75,4.417,8s-3.833,12.666-3.833,12.666
		s-6.333-0.834-8.583,0.166s-4.667,3.584-4.667,3.584s1.083,0.666,2,1c0.917,0.332,2.916,0.666,4.333,0.75
		c1.417,0.082,2.334-0.168,2.334-0.168s-0.917,0.666,0.583,0.75s10.417-0.25,11-0.832c0.583-0.584,21.583-21.584,21.583-21.584"/>
	<path d="M141.291,93.545c0,0-1.876-4.188-2.604-4.895c-0.729-0.709,1.479,3.791,1.938,5.166"/>
	<path d="M159.758,113.557c0,0,0.75-4.25,0.594-5.156s-0.156-0.906-0.156-0.906s0.719,4.875,0.125,6.406"/>
	<path d="M136.79,109.87c0,0,0.094-1.906-0.156-3.063s-0.281-1.281-0.281-1.281s1.188,3.031,1.219,4.25"/>
	<path d="M101.071,115.932c0,0-1.281-6.188-1.656-7.781s-0.375-1.594-0.375-1.594s2.688,8.063,2.719,9.063"/>
	<path d="M174.31,83.172c0,0,3.667-4.709,4.792-5.625c1.125-0.918,1.917-1.168,1.917-1.168s-5.125,6.166-6.25,7.375"/>
	<path d="M205.269,64.338c0,0-1.916-5.166-2.75-6.25s-0.834-1.083-0.834-1.083s2.583,1.875,4.25,7.333"/>
	<path d="M167.852,166.338c0,0,1.751-2.832,3.292-3.875c1.541-1.041,3.958-1.375,3.958-1.375s-3.708,1.916-4.583,2.959
		c-0.875,1.041-1.459,2.541-1.459,2.541"/>
	<path d="M160.852,165.463c0,0,1.209-3.084,2.542-4.041c1.333-0.959,4.708-1.541,4.708-1.541s-4.458,2.084-5.125,3
		s-1.375,3.291-1.375,3.291"/>
	<path d="M135.602,163.463c0,0,0.707-2.5,2.416-3.166c1.709-0.668,2.667-0.668,2.667-0.668s-3.126,1.166-3.542,2
		s-1.083,2.25-1.083,2.25"/>
	<path d="M130.56,163.047c0,0,0.416-1.707,1.833-2.666s2.959-0.959,2.959-0.959s-2.584,1.041-3.292,2s-1,2-1,2"/>
	<path d="M99.227,166.297c0-0.125,1.083-2.207,2.458-3.291s4.5-2,4.5-2s-4.291,2.332-4.708,3.082s-0.958,2.084-0.958,2.084"/>
	<path d="M91.352,165.547c0,0,1.083-1.832,2.125-2.916s1.749-1.709,2.833-1.875c1.084-0.168,1.667-0.084,1.667-0.084
		s-3.417,1.668-4.042,2.334s-1.75,2.666-1.75,2.666"/>
	<path d="M72.935,163.963c0,0,1.167-2.209,2.667-3.334s3.583-1.582,3.583-1.582s-3.584,2.373-4.292,3.332s-1.041,1.709-1.041,1.709"
		/>
	<path d="M67.56,163.047c0,0,0.75-1.959,1.75-2.875s3.833-1.916,3.833-1.916s-3.125,1.791-3.75,2.666s-0.75,2.541-0.75,2.541"/>
	<path d="M79.602,157.213c0,0,1.125,0.541,1.5,0.875c0.375,0.332,0.375,0.332,0.375,0.332s-0.501-1.957-1.584-1.916"/>
	<path d="M106.435,158.963l2.75,1.375c0,0-1.208-2.125-2.5-2.209"/>
	<path d="M20.352,60.004c0,0-12.583,0.833-12.083,2.25s10.583,9.916,10.583,9.916s9.25-4.332,10.583-5.416s3.458-2.958,2.979-3.229
		s-9.479-4.187-11.979-3.854"/>
	<path fill="#834421" d="M46.477,93.545c0,0,1.875,0.916,2.375,0.875s-1,0.125-2.375-0.083"/>
	<polyline fill="#834421" points="37.393,91.879 37.477,92.837 37.727,92.795 37.977,91.879 37.06,91.295 	"/>
	<path fill="#FF0000" d="M44.81,80.587c0,0-1.875,1.709-2,1.792s-0.833,1.333-0.875,1.458s0.125,1.5,0.25,1.75
		s0.417,0.875,0.625,0.875s1.625-0.875,1.625-0.875l2-1.625l1.75-1.708l1.875-1.917l1.459-1.416l0.167-0.209l-6.625,1.959"/>
	<path fill="none" stroke="#000000" stroke-width="0.75" d="M42.102,83.171c0,0,2.5-2.501,3.833-3.084s6-1.333,6-1.333
		s-5.667,5-6.833,6.25s-4,3.167-6.417,3.917s-7.583,1.083-9.5,0.583s-4.5-2.083-5.083-2.5s-1.083-1-1.083-1"/>
	<path d="M23.393,86.004c0,0,9.292,0.501,11.917-0.083s4.75-0.875,5.5-1.5s1.792-1.5,1.792-1.5s-0.375,1.208-0.125,1.708
		s0.833,1.458,0.833,1.458l0.167,0.292c0,0-2.25,1.624-2.708,1.833s-4.625,1.334-5.083,1.334s-2.708,0.332-2.875,0.291
		s-3.708-0.292-4.25-0.5s-4.167-2.125-4.167-2.125l-1.458-1.375"/>
	<ellipse fill="#FFFFFF" cx="52.518" cy="45.067" rx="5.75" ry="6.813"/>
	<ellipse fill="#FFFFFF" cx="33.768" cy="41.192" rx="6.5" ry="6.313"/>
	<polyline fill="none" stroke="#000000" points="27.393,40.004 46.768,45.067 75.143,45.629 	"/>
</g>
</svg>
