<?xml version="1.0" encoding="utf-8"?>
<!-- Generator: Adobe Illustrator 13.0.0, SVG Export Plug-In . SVG Version: 6.00 Build 14948)  -->
<!DOCTYPE svg PUBLIC "-//W3C//DTD SVG 1.1//EN" "http://www.w3.org/Graphics/SVG/1.1/DTD/svg11.dtd">
<svg version="1.1" xmlns="http://www.w3.org/2000/svg" xmlns:xlink="http://www.w3.org/1999/xlink" x="0px" y="0px"
	 width="263.043px" height="188.296px" viewBox="0 0 263.043 188.296" enable-background="new 0 0 263.043 188.296"
	 xml:space="preserve">
<g id="frame_1">
	<g>
		<g>
			<path fill="none" d="M17.666,55.999c-1.625,0.125-0.625,2.125,0.5,2.375c0.125-1.125-0.625-2.125-1.75-2.375
				c-0.5,1.875,1.875,3.5,3.375,3.875c-0.5-1.5-3.125-2.875-4.625-3.375c1,2,4.125,4,6.25,4.625c-0.625-1.375-3-2.875-4.625-3.25
				c0.625,1.5,2.5,2.75,4,3.5c-0.5-1-2-1.875-3.125-2.25c0.5,1.25,2.125,2.25,3.375,2.875c-0.875-1.25-2.25-2.25-3.625-3.125
				c0.875,0.75,1.625,1.5,2.5,2.25c-0.875-1.125-2.125-2.125-3.25-3.125c0.5,0.625,1.25,1.125,1.875,1.625
				c-1.125-0.375-2.125-1-3.125-1.5c0.375,0.625,0.875,1.25,1.625,1.75c-1-1-1.625-2.125-1.5-3.5c0,0.25,0,0.375,0.125,0.625
				c-0.375-0.75-0.25-1.625,0-2.375l-0.125,0.5c0.125-0.875,0.875-1.5,1.75-1.25c-0.375,0.5-0.5,0.625-1,0.875
				c0.25-1.375,2.875-2.625,4.125-1.75c-0.5,0.375-1.375,0.5-2.125,0.625c1.5-1,4.875-1.125,6.625-0.5c-1,0.5-2.625,0-3.75-0.25
				c1.375,0.5,2.875,0.375,4.375,0.875c-2.625-0.5-6-1-8.25,0.375c2.75,0.625,5.625-0.875,8.375-0.25
				c-2.875,0.375-6.125,0.125-8.875,0.875c2,0.5,4.5,0.375,6.5,0c-1.625-0.375-5.125-1.125-6.375-0.125
				c1.5,2.375,4.625,5.125,6.75,6.875c-0.625-1.875-2.375-4.25-3.875-5.5c-0.125,2.25,2,5.25,3.75,6.625
				c-0.375-0.625-3.25-4-3.5-2.25c-0.25,1.25,2.125,3,2.5,1.125"/>
			<path fill="#FFFFFF" d="M17.551,55.57c-2.049,0.449-2.188,2.486-0.161,3.245c0.466,0.174,1.751-0.037,1.742-0.699
				c-0.02-1.342-0.706-2.126-1.94-2.557c-0.406-0.142-1.66-0.005-1.738,0.576c-0.293,2.178,1.676,3.596,3.561,4.18
				c0.298,0.092,2.024-0.086,1.742-0.699c-0.855-1.858-2.98-2.892-4.815-3.557c-0.283-0.103-2.064,0.137-1.742,0.699
				c1.35,2.352,3.906,3.973,6.44,4.807c0.279,0.092,2.064-0.125,1.742-0.699c-0.983-1.75-2.921-2.899-4.815-3.432
				c-0.28-0.079-2.052,0.098-1.742,0.699c0.897,1.744,2.494,2.792,4.19,3.682c0.397,0.208,2.082-0.177,1.677-0.804
				c-0.76-1.175-1.969-1.84-3.25-2.327c-0.294-0.112-2.042,0.122-1.742,0.699c0.766,1.475,2.13,2.309,3.565,3.057
				c0.38,0.198,2.132-0.217,1.677-0.804c-1.008-1.299-2.256-2.233-3.625-3.125c-0.457-0.297-2.313,0.277-1.802,0.728
				c0.842,0.74,1.658,1.51,2.5,2.25c0.425,0.374,2.261-0.178,1.802-0.728c-0.971-1.163-2.115-2.128-3.25-3.125
				c-0.438-0.385-2.271,0.224-1.802,0.728c0.573,0.616,1.212,1.111,1.875,1.625c0.559-0.268,1.118-0.536,1.677-0.804
				c-1.088-0.415-2.093-0.964-3.125-1.5c-0.396-0.205-2.087,0.179-1.677,0.804c0.464,0.706,0.954,1.236,1.625,1.75
				c0.437,0.334,2.287-0.204,1.802-0.728c-0.959-1.035-1.457-1.987-1.435-3.395c-0.644,0.172-1.288,0.345-1.932,0.518
				c-0.019,0.22,0.023,0.429,0.125,0.625c0.214,0.613,2.124,0.059,1.932-0.518c-0.262-0.788-0.22-1.455-0.004-2.251
				c-0.641,0.09-1.283,0.18-1.924,0.271c-0.042,0.167-0.083,0.333-0.125,0.5c-0.162,0.646,1.751,0.31,1.924-0.271
				c0.062-0.209,0.125-0.419,0.187-0.628c-0.097-0.16-0.194-0.32-0.291-0.48c-0.231,0.209-0.463,0.418-0.695,0.628
				c0.516,0.035,1.033,0.07,1.549,0.105c0.283-1,1.079-1.391,2.387-1.174c0.063-0.227,0.126-0.454,0.189-0.681
				c-0.432,0.233-0.896,0.361-1.392,0.382c0.147,0.241,0.294,0.482,0.441,0.723c1.501-0.855,3.648-0.79,5.262-0.3
				c0.136-0.262,0.272-0.524,0.408-0.786c-0.763,0.258-2.012-0.212-2.781-0.392c-0.453-0.105-2.124,0.709-1.377,0.927
				c1.439,0.42,2.929,0.482,4.375,0.875c0.459-0.309,0.918-0.618,1.377-0.927c-3.184-0.591-6.479-0.96-9.438,0.622
				c-0.375,0.201-0.564,0.636-0.015,0.727c2.828,0.469,5.571-0.715,8.375-0.25c0.249-0.323,0.498-0.646,0.748-0.97
				c-3.058,0.344-6.126,0.205-9.136,0.929c-0.395,0.095-1.358,0.729-0.486,0.916c2.304,0.494,4.644,0.39,6.956-0.004
				c0.371-0.063,1.761-0.739,0.748-0.97c-2.351-0.534-5.363-1.255-7.563,0.122c-0.217,0.136-0.495,0.333-0.314,0.604
				c1.793,2.679,4.286,4.831,6.75,6.875c0.354,0.293,2.1-0.004,1.867-0.623c-0.814-2.157-2.221-4.079-3.94-5.605
				c-0.427-0.379-1.875-0.026-1.867,0.623c0.036,2.63,1.874,5.101,3.815,6.73c0.417,0.35,2.223-0.097,1.802-0.728
				c-0.952-1.427-3.5-4.273-5.217-2.149c-1.392,1.723,3.238,4.229,4.278,1.253c0.203-0.58-1.715-0.327-1.924,0.271
				c0.14,0.041,0.281,0.082,0.421,0.122c-0.4-0.214-0.699-0.526-0.897-0.935c-0.027-0.518-0.357-0.647-0.991-0.387
				c0.263,0.153,0.507,0.333,0.731,0.538c0.677,0.565,1.307,1.281,1.797,2.016c0.601-0.243,1.201-0.485,1.802-0.728
				c-1.912-1.604-3.65-3.936-3.685-6.52c-0.622,0.208-1.245,0.415-1.867,0.623c1.665,1.477,3.021,3.306,3.81,5.395
				c0.622-0.208,1.245-0.415,1.867-0.623c-2.464-2.044-4.958-4.196-6.75-6.875c-0.104,0.201-0.209,0.403-0.314,0.604
				c1.285-0.805,3.813,0.059,5.187,0.372c0.249-0.323,0.498-0.646,0.748-0.97c-2.029,0.346-4.022,0.43-6.044-0.004
				c-0.162,0.306-0.324,0.611-0.486,0.916c2.815-0.676,5.75-0.499,8.614-0.821c0.378-0.042,1.759-0.802,0.748-0.97
				c-2.828-0.469-5.571,0.715-8.375,0.25c-0.005,0.243-0.01,0.485-0.015,0.727c2.129-1.138,4.807-0.547,7.062-0.128
				c0.433,0.08,2.136-0.721,1.377-0.927c-1.443-0.392-2.941-0.456-4.375-0.875c-0.459,0.309-0.918,0.618-1.377,0.927
				c1.657,0.386,3.082,0.662,4.719,0.108c0.211-0.071,0.978-0.613,0.408-0.786c-2.539-0.771-5.653-0.63-7.988,0.7
				c-0.73,0.416-0.18,0.828,0.441,0.723c1.013-0.171,1.952-0.375,2.858-0.868c0.264-0.144,0.582-0.482,0.189-0.681
				c-1.956-0.985-5.157,0.222-5.863,2.326c-0.218,0.65,1.363,0.211,1.549,0.105c0.548-0.313,0.911-0.629,1.305-1.122
				c0.199-0.248-0.033-0.455-0.291-0.48c-1.487-0.147-2.856,0.337-3.313,1.872c0.641-0.09,1.283-0.18,1.924-0.271
				c0.042-0.167,0.083-0.333,0.125-0.5c0.16-0.64-1.763-0.323-1.924,0.271c-0.25,0.92-0.307,1.586-0.004,2.499
				c0.644-0.172,1.288-0.345,1.932-0.518c-0.102-0.197-0.144-0.405-0.125-0.625c-0.028-0.56-1.921-0.147-1.932,0.518
				c-0.023,1.485,0.582,2.544,1.565,3.605c0.601-0.243,1.201-0.485,1.802-0.728c-0.671-0.514-1.162-1.044-1.625-1.75
				c-0.559,0.268-1.118,0.536-1.677,0.804c1.032,0.536,2.037,1.085,3.125,1.5c0.361,0.138,2.23-0.375,1.677-0.804
				c-0.664-0.514-1.302-1.009-1.875-1.625c-0.601,0.243-1.201,0.485-1.802,0.728c1.135,0.997,2.279,1.962,3.25,3.125
				c0.601-0.243,1.201-0.485,1.802-0.728c-0.842-0.74-1.658-1.51-2.5-2.25c-0.601,0.243-1.201,0.485-1.802,0.728
				c1.369,0.892,2.617,1.826,3.625,3.125c0.559-0.268,1.118-0.536,1.677-0.804c-1.26-0.656-2.508-1.391-3.185-2.693
				c-0.581,0.233-1.161,0.466-1.742,0.699c1.208,0.458,2.287,1.071,3,2.173c0.559-0.268,1.118-0.536,1.677-0.804
				c-1.52-0.796-3.002-1.75-3.81-3.318c-0.581,0.233-1.161,0.466-1.742,0.699c1.707,0.479,3.539,1.475,4.435,3.068
				c0.581-0.233,1.161-0.466,1.742-0.699c-2.338-0.769-4.804-2.254-6.06-4.443c-0.581,0.233-1.161,0.466-1.742,0.699
				c1.66,0.602,3.655,1.499,4.435,3.193c0.581-0.233,1.161-0.466,1.742-0.699c-1.578-0.488-3.444-1.674-3.189-3.57
				c-0.579,0.192-1.159,0.384-1.738,0.576c1.117,0.39,1.543,1.07,1.56,2.193c0.581-0.233,1.161-0.466,1.742-0.699
				c-0.176-0.066-1.66-1.396-1.161-1.505C18.952,56.172,18.702,55.317,17.551,55.57L17.551,55.57z"/>
		</g>
	</g>
	<g>
		<g>
			<path fill="none" d="M14.916,55.874c-0.5-0.125-0.625,0.5-0.125,1.25c-0.125-0.125-0.125-0.625-0.125-0.75
				c-0.125,2.5,3.5,4.375,4.875,4.75"/>
			<path fill="#FFFFFF" d="M15.297,55.348c-1.342-0.067-2.169,0.805-1.472,2.035c0.34,0.601,2.197,0.041,1.932-0.518
				c-0.115-0.242-0.122-0.485-0.125-0.75c-0.007-0.575-1.929-0.2-1.932,0.518c-0.01,2.59,3.065,4.362,5.245,4.999
				c0.583,0.17,2.268-0.701,1.192-1.015c-1.947-0.569-4.514-2.253-4.505-4.501c-0.644,0.172-1.288,0.345-1.932,0.518
				c0.003,0.265,0.01,0.508,0.125,0.75c0.644-0.172,1.288-0.345,1.932-0.518c-0.024-0.042-0.334-0.788-0.438-0.735
				c-0.325,0.087-0.65,0.174-0.975,0.261c0.064,0.003,0.127,0.006,0.191,0.009C15.239,56.436,16.603,55.412,15.297,55.348
				L15.297,55.348z"/>
		</g>
	</g>
	<g>
		<g>
			<path fill="none" d="M51.416,41.249c-0.25-0.25-0.375-0.375-0.625-0.375c-1,2.625,1,7.75,3.75,8.625c0-1-3.5-6.375-4.875-5.5
				c-2,1.25,3,6.75,4.25,7c-0.75-2.125-3.125-5.625-5.125-6.5c-0.5,2.125,2,4.75,3.875,5.5c0.25-1.75-2.625-4.375-4-4.875
				c-0.25,1.125,2.75,5.875,4,4.75c1.375-1.375-3.375-5-4.25-5.375c-0.625,2.125,1.5,4,3,5c1,0.5,4.375,2.5,4.125,0.5
				c-0.125-1.125-4.5-4.375-5.5-3.125c-1.625,2,4.5,4.875,5.75,5c2.25,0.25,5.375-1,2.75-3.125c-1.375-1.125-5.875-1.75-5.625,0.875
				c0.375,5.75,17.5,0.75,7-4.875c-2.25-1.25-8-1.5-7.25,2.5c0.625,3.375,6.625,4.125,8.625,1.75c1.75-2.25-0.625-8.375-3.625-8.125
				c-4.25,0.375-1.625,7.375,0.625,8.625c4.125,2.25,6.375-2.375,6.5-5.75c0.125-4.5-2.5-3.875-3.375,0c-0.5,1.875,0,8.625,2.5,4.25
				c0.75-1.25,3.25-8.75,2-10.125c0-0.125-0.125-0.25-0.125-0.375c-2.375,1.25-3.875,6.125-3.875,8.625c0,4.875,3.125-0.5,3.75-2.25
				c0.5-1.75,2-7-1.125-6.625c-2.625,0.375-5,5.875-4.5,8.125c1.375,6.25,9.5-11.125,2.25-8.625c-2.25,0.75-6.5,7.125-5.125,9.625
				c1.625,2.625,5-4.75,5.5-6.125c1.375-4.125-1.5-3.375-3.5-0.875c-1.25,1.5-4,5.875-1.875,7.625c0.25-0.125,0.125-0.25,0.25-0.375
				"/>
			<path fill="#FFFFFF" d="M52.327,40.923c-0.208-0.125-0.417-0.25-0.625-0.375c-0.347-0.208-1.74,0.055-1.863,0.5
				c-0.875,3.172,0.681,7.401,3.791,8.777c0.311,0.137,1.972-0.071,1.877-0.584c-0.461-2.483-3.308-6.471-6.171-5.448
				c-3.41,1.217,1.988,6.885,3.669,7.532c0.271,0.104,2.063-0.122,1.877-0.584c-1.023-2.542-2.727-5.209-5.18-6.567
				c-0.37-0.205-1.843,0.067-1.877,0.584c-0.169,2.555,1.783,4.488,3.93,5.567c0.345,0.173,1.899-0.062,1.877-0.584
				c-0.092-2.174-2.208-4.064-4.055-4.942c-0.361-0.171-1.873,0.052-1.877,0.584c-0.016,2.174,2.514,5.738,4.979,4.857
				c3.46-1.235-1.949-5.32-3.352-6.067c-0.389-0.207-1.813,0.063-1.877,0.584c-0.399,3.263,5.923,8.837,8.921,5.688
				c1.505-1.581-4.943-5.512-7.203-3.493c-1.623,1.451,1.808,3.495,2.68,4.008c1.737,1.024,3.565,1.634,5.576,1.149
				c1.492-0.359,3.701-1.034,2.754-2.946c-0.843-1.701-3.885-1.965-5.487-1.673c-4.135,0.755-2.823,4.624,0.749,5.026
				c2.824,0.318,6.958-0.68,8.567-3.223c2.479-3.919-6.039-5.93-8.419-5.643c-4.88,0.59-4.958,5.587-0.283,6.923
				c2.501,0.715,6.531-0.114,7.426-2.833c1.137-3.452-1.935-7.769-5.528-7.092c-6.853,1.292,0.471,14.374,6.211,8.513
				c1.28-1.308,4.55-9.301,0.485-8.933c-3.386,0.307-3.783,4.425-3.538,7.099c0.224,2.439,2.533,3.567,4.06,1.189
				c1.923-2.994,3.479-7.847,2.334-11.279c-0.144-0.431-1.488,0.096-1.703,0.24c-2.465,1.648-3.448,4.593-3.967,7.397
				c-0.29,1.565-0.508,3.928,1.586,3.524c3.616-0.697,5.085-7.042,4.669-10.076c-0.242-1.762-2.188-1.555-3.435-1.206
				c-2.309,0.645-3.581,3.103-4.373,5.156c-1.041,2.699-0.241,6.375,3.076,4.152c2.387-1.601,4.065-6.161,3.509-8.929
				c-0.701-3.494-5.94,0.028-7.011,1.21c-1.411,1.558-5.791,10.271-0.319,8.317c2.046-0.731,7.169-8.581,4.511-9.998
				c-1.643-0.875-4.116,1.422-5.006,2.426c-1.679,1.896-3.945,5.579-1.914,7.872c0.291,0.328,1.551-0.151,1.784-0.405
				c0.163-0.178,0.238-0.252,0.329-0.47c0.128-0.307-1.701-0.138-1.903,0.348c-0.057,0.093-0.114,0.187-0.171,0.28
				c0.594-0.135,1.189-0.27,1.784-0.405c-1.405-1.585-0.423-3.607,0.402-5.218C59,40.68,61.781,36.72,62.06,38.723
				c0.145,1.041-3.129,7.997-3.696,7.673c-2.472-1.409,2.612-9.721,4.805-9.49c2.088,0.219,0.803,4.264,0.458,5.269
				c-0.316,0.922-0.761,1.796-1.25,2.635c-0.255,0.438-0.561,0.848-0.893,1.229c-0.313,0.362,0.094,0.379-0.237-0.187
				c-0.679-1.162-0.166-2.774,0.19-3.924c0.327-1.053,2.984-6.168,3.972-3.085c0.773,2.413-0.812,5.827-2.065,7.835
				c-1.08,1.729-0.31-2.387-0.205-2.954c0.411-2.215,1.443-4.904,3.389-6.206c-0.568,0.08-1.136,0.16-1.703,0.24
				c1.068,3.205-0.299,7.458-1.861,10.415c0.222,1.013,0.123,1.1-0.299,0.261c-0.128-0.332-0.222-0.673-0.282-1.023
				c-0.18-0.798-0.175-1.645-0.171-2.457c0.004-1.073,0.316-2.054,0.717-3.036c0.724-1.771,0.886,1.702,0.895,2.09
				c0.056,2.423-2.213,7.52-5.377,4.553c-1.53-1.435-2.386-4.26-1.936-6.28c0.504-2.262,2.841,0.333,3.264,0.956
				c0.576,0.846,0.841,1.876,1.054,2.859c1.005,4.642-6.018,4.788-7.198,0.895c-1.353-4.466,10.606-2.187,8.471,2.652
				c-0.833,1.886-3.794,2.285-5.547,2.087c-1.884-0.212-4.2-3.923-0.935-3.47c1.297,0.18,2.331,0.827,2.925,2.028
				c1.206,2.435-3.964,0.49-4.251,0.353c-0.854-0.407-1.632-0.933-2.381-1.504c-0.737-0.564-2.501-2.688-0.328-1.635
				c0.848,0.411,1.586,1.052,2.272,1.685c0.832,0.766,1.911,1.587,0.038,0.784c-2.374-1.018-4.861-2.9-4.515-5.729
				c-0.625,0.195-1.251,0.39-1.877,0.584c1.72,0.916,3.865,2.632,4.431,4.534c0.695,0.256,0.741,0.202,0.136-0.163
				c-0.671-0.495-1.126-1.274-1.57-1.964c-0.445-0.691-0.875-1.529-0.87-2.366c-0.625,0.195-1.251,0.39-1.877,0.584
				c1.85,0.879,3.853,2.647,3.945,4.808c0.625-0.195,1.251-0.39,1.877-0.584c-2.123-1.066-3.986-2.92-3.82-5.433
				c-0.625,0.195-1.251,0.39-1.877,0.584c2.421,1.34,4.057,3.917,5.07,6.433c0.625-0.195,1.251-0.39,1.877-0.584
				c-2.054-0.79-3.812-3.379-4.551-5.347c-0.187-0.497-0.783-1.099,0.046-0.469c0.713,0.542,1.242,1.326,1.767,2.041
				c0.607,0.825,1.295,1.835,1.486,2.86c0.625-0.195,1.251-0.39,1.877-0.584C52.5,47.868,50.9,43.754,51.743,40.7
				c-0.621,0.167-1.242,0.333-1.863,0.5c0.208,0.125,0.417,0.25,0.625,0.375C50.975,41.856,52.561,41.063,52.327,40.923
				L52.327,40.923z"/>
		</g>
	</g>
	<ellipse fill="none" stroke="#FFFFFF" cx="78.416" cy="47.749" rx="14.5" ry="15.25"/>
	<ellipse fill="none" stroke="#FFFFFF" cx="58.604" cy="43.062" rx="11.938" ry="10.188"/>
	<ellipse fill="none" stroke="#FFFFFF" cx="77.291" cy="48.624" rx="15.5" ry="16.625"/>
	<ellipse fill="none" stroke="#FFFFFF" cx="78.041" cy="49.062" rx="16.25" ry="16.438"/>
	<g>
		<g>
			<path fill="none" d="M70.041,53.624c-0.5,0.125,3,3,3.75,3.375c-1.625-1.5-4-2.5-6-3.625c1.875,1.5,4,2.625,5.875,4.125
				c-3.25-2.5-5.875-5.375-8.875-8.125c1.25,3,5.75,7.375,8.75,8.625c0-2-4.875-6.625-7-6.5c0.375,3.75,6.25,5.625,9.25,6
				s7.625-1.125,2.5-2.625c-2-0.625-7.375-0.375-5.25,3c1.75,3,8.875,2.25,11,0"/>
			<path fill="#FFFFFF" d="M69.088,53.795c-0.228,1.117,2.972,3.029,3.792,3.533c0.405,0.249,2.136-0.399,1.82-0.657
				c-1.835-1.501-3.925-2.502-6-3.625c-0.411-0.222-2.139,0.416-1.82,0.657c1.912,1.444,3.963,2.681,5.875,4.125
				c0.415,0.313,2.11-0.426,1.82-0.657c-3.145-2.508-5.937-5.386-8.875-8.125c-0.284-0.265-2.048,0.231-1.876,0.587
				c1.761,3.658,5.157,6.954,8.806,8.695c0.325,0.155,1.958-0.056,1.876-0.587c-0.457-2.967-4.415-6.378-7.339-6.634
				c-0.265-0.023-1.688,0.196-1.593,0.651c0.984,4.724,8.358,6.953,12.622,6.022c0.618-0.135,3.393-0.59,3.33-1.619
				c-0.109-1.786-3.756-1.948-5.097-1.943c-3.318,0.011-7.146,2.72-2.816,5.291c3.12,1.853,8.724,0.581,11.301-1.709
				c0.413-0.366-1.403-0.159-1.748,0.147c-2.283,2.028-7.19,2.299-9.16-0.333c-2.526-3.375,3.831-2.391,5.271-1.606
				c-0.446,0.377-0.893,0.755-1.339,1.133c-0.947,0.038-1.877-0.052-2.792-0.27c-1.108-0.221-2.186-0.616-3.228-1.04
				c-2.09-0.85-3.937-2.308-4.413-4.592c-0.531,0.217-1.062,0.435-1.593,0.651c2.62,0.229,6.275,3.861,6.661,6.366
				c0.625-0.196,1.25-0.392,1.876-0.587c-3.605-1.72-6.963-4.958-8.694-8.555c-0.625,0.196-1.25,0.392-1.876,0.587
				c2.938,2.739,5.729,5.617,8.875,8.125c0.607-0.219,1.213-0.438,1.82-0.657c-1.912-1.444-3.963-2.681-5.875-4.125
				c-0.607,0.219-1.213,0.438-1.82,0.657c2.075,1.122,4.164,2.124,6,3.625c0.607-0.219,1.213-0.438,1.82-0.657
				c-0.619-0.38-3.869-2.428-3.708-3.217C71.083,53.016,69.185,53.323,69.088,53.795L69.088,53.795z"/>
		</g>
	</g>
	<g>
		<g>
			<path fill="none" d="M67.291,43.249c-1.625,0.25-1.25-1.125-0.875-2.125c1.5-3.5,5.5-6.25,9-7.25
				c-1.5,1.25-3.25,2.125-4.625,3.625c-1.375,1.375-2.5,3.125-4.125,4.125c1.875-3.25,9.75-8.875,13.625-7.5
				c-2.25,1.875-7.5,3.875-10.25,4.25c3.25-2.75,13.625-6.25,16.875-2.375c-1.875,1.625-9,0.5-10.5-1.375
				c2.75-1.5,11.875-0.125,13.625,2.75c1.25,2-0.875,1.75-2.25,1.125c-1.625-0.625-3.375-2-4.375-3.375
				c3.375,1.625,7.25,7.125,8.375,10.625c-2.375-1.125-4.375-5.25-5.125-7.75c2.375,2.5,4.875,9.25,3.25,12.375
				c-1.125-1.625-1.25-4.75-0.5-6.625c0.75,3.375-1.625,8.75-4.125,11c-3.5,3.125-7.625,1.5-11.75,1c2.375,1.125,6.25,2,8.875,1.5
				c-1-1.125-11-3-10.375-0.875c0.75,2.75,12,1.25,13.375-0.5c-1.125-1.125-5-1-5.875,0.5c1.125,1.375,3.25,1.125,4.875,1.125
				c-1.25,0-2.875,0-4.125,0.5c1.375,0.375,3.5-0.25,4.5-1.25c-0.5-0.5-0.875-0.5-1.5-0.125c3-0.25,5.5-5.375,6.375-7.75
				c1-3,1.25-6.375-0.125-9.125c0.375,2.625,2.75,4.75,2.375,7.5c-0.375,3-3.375,7.625-6.25,8.75c0.125-1.875,2.5-4.25,3.375-6
				c1-1.875,1.5-4.375,3-5.875c0.875,4.25-3,13.75-8,14.25c0.5-2.125,3.5-4.375,4.75-6.125c1.875-2.875,1.875-3.625,0.125-6.25
				c-2-3.25-6.125-14.875-11.75-12.125c3.25,1.5,8,1.25,10.75,3.5c-1.25,0.625-3.375,0.5-4.875,0.5"/>
			<path fill="#FFFFFF" d="M67.887,42.742c-2.135-0.21,0.564-3.521,0.972-4.079c1.651-2.257,4.383-3.544,6.932-4.416
				c-0.381-0.171-0.763-0.343-1.145-0.514c-3.146,2.39-5.664,5.38-8.75,7.75c0.556,0.05,1.111,0.099,1.666,0.149
				c0.933-1.401,2.099-2.49,3.378-3.562c0.924-0.736,1.898-1.398,2.922-1.986c0.958-0.585,7.17-2.377,1.759,0.087
				c-1.111,0.506-6.102,2.653-1.913,0.616c2.827-1.375,6.177-2.181,9.32-1.897c1.831-0.046,2.18,0.409,1.047,1.366
				c-1.028-0.005-2.043-0.115-3.045-0.33c-4.774-0.838-0.995-1.465,1.407-1.156c1.752,0.226,3.418,0.774,5.006,1.525
				c1.151,0.257,1.524,0.84,1.119,1.75c-1.806-0.645-3.051-1.9-4.248-3.292c-0.557,0.275-1.114,0.551-1.671,0.826
				c3.847,2.211,6.66,6.348,8.181,10.429c0.579-0.238,1.159-0.476,1.738-0.713c-2.649-1.683-3.967-4.689-4.931-7.554
				c-0.622,0.21-1.243,0.42-1.865,0.63c2.564,3.093,4.65,8.145,3.185,12.131c0.643-0.129,1.287-0.258,1.93-0.387
				c-1.048-2.136-1.14-4.171-0.502-6.494c-0.643,0.129-1.287,0.258-1.93,0.387c0.379,3.271-0.758,6.082-2.44,8.827
				c-2.701,4.41-7.73,3.021-11.873,2.408c-0.369-0.055-2.226,0.601-1.368,0.961c3.058,1.287,6.2,1.926,9.509,1.556
				c0.186-0.021,1.543-0.498,1.037-0.882c-1.589-1.205-12.213-4.025-12.24-0.245c-0.028,3.926,13.364,0.973,15.111-0.618
				c0.228-0.208,0.276-0.421,0.002-0.596c-2.175-1.391-5.612-1.048-7.417,0.813c-0.107,0.111-0.332,0.36-0.129,0.513
				c1.728,1.295,3.224,1.309,5.393,1.28c0.254-0.351,0.508-0.702,0.763-1.053c-1.62,0.022-3.059,0.158-4.629,0.568
				c-0.345,0.09-1.402,0.881-0.474,0.965c2.276,0.207,4.012-0.282,5.866-1.616c0.243-0.175,0.269-0.448,0.002-0.596
				c-1.026-0.57-1.273-0.502-2.395-0.128c-1.119,0.373-0.925,1.219,0.245,0.916c6.769-1.75,9.353-11.813,7.093-17.592
				c-0.246-0.628-2.1-0.127-1.932,0.518c0.563,2.163,1.762,4.02,2.355,6.172c0.955,3.465-3.164,8.156-5.858,9.554
				c0.52,0.046,1.039,0.092,1.558,0.137c0.533-2.229,2.162-3.927,3.307-5.864c1.14-1.927,1.585-4.076,3-5.875
				c-0.621,0.083-1.241,0.167-1.862,0.251c0.6,4.541-2.115,12.497-7.157,13.533c0.362,0.11,0.724,0.22,1.086,0.33
				c1.095-2.671,6.681-6.156,6.174-9.475c-0.436-2.853-2.797-5.979-4.151-8.546c-2.133-4.045-5.182-8.591-10.237-6.724
				c-0.246,0.091-0.955,0.615-0.397,0.828c3.552,1.354,7.522,1.379,10.75,3.5c0.216-0.304,0.433-0.608,0.649-0.913
				c-1.443,0.359-2.9,0.503-4.371,0.432c-0.695-0.005-2.068,1.042-0.763,1.053c1.88,0.015,3.582,0.001,5.379-0.568
				c0.333-0.105,1.236-0.527,0.649-0.913c-2.936-1.929-5.915-1.706-9.104-2.698c2.87,0.893,4.764,5.103,6.009,7.464
				c1.159,2.197,2.51,4.454,3.519,6.72c1.376,3.091-4.885,7.289-6.035,10.096c-0.21,0.512,0.916,0.365,1.086,0.33
				c6.032-1.239,9.587-9.335,8.843-14.967c-0.091-0.692-1.639-0.032-1.862,0.251c-1.63,2.072-2.212,4.542-3.545,6.797
				c-1.064,1.8-2.401,3.136-2.897,5.214c-0.17,0.709,1.33,0.255,1.558,0.137c2.388-1.239,4.337-3.335,5.472-5.791
				c2.073-4.486-0.085-6.605-1.225-10.983c-0.644,0.172-1.288,0.345-1.932,0.518c1.191,3.046,1.009,5.885,0.127,8.994
				c-0.819,2.886-4.421,8.798-7.815,8.49c-0.158,0.322-0.315,0.643-0.474,0.965c1.207-0.144,2.414-0.288,3.621-0.432
				c0.69-0.01,2.066-1.07,0.763-1.053c-1.221,0.442-1.715,0.027-1.481-1.247c1.86,0.171-3.029,1.399-2.648,1.331
				c-2.146,0.384-4.59,0.552-6.7-0.098c-3.233-0.996,2.438-0.8,3.014-0.712c1.458,0.223,3.328,0.458,4.534,1.374
				c0.346-0.294,0.691-0.588,1.037-0.882c-2.921,0.327-5.582-0.325-8.241-1.444c-0.456,0.32-0.912,0.641-1.368,0.961
				c3.625,0.537,8.448,1.979,11.775-0.405c3.845-2.756,6.214-7.598,5.662-12.36c-0.077-0.659-1.796-0.102-1.93,0.387
				c-0.659,2.4-0.616,4.486,0.498,6.756c0.31,0.632,1.732,0.152,1.93-0.387c1.545-4.203-0.597-9.339-3.315-12.619
				c-0.343-0.413-2.072,0.015-1.865,0.63c1.039,3.086,2.496,6.153,5.319,7.946c0.35,0.223,1.963-0.109,1.738-0.713
				c-1.607-4.313-4.533-8.501-8.569-10.821c-0.398-0.229-2.17,0.246-1.671,0.826c1.501,1.745,4.265,4.312,6.881,3.964
				c1.278-0.169,2.753-0.944,1.542-2.457c-2.954-3.687-10.728-4.484-14.899-2.751c-0.199,0.083-0.843,0.447-0.524,0.745
				c2.761,2.568,8.74,3.26,11.993,1.269c0.174-0.107,0.55-0.405,0.305-0.637c-4.702-4.441-14.196-0.708-18.544,2.605
				c-0.596,0.455,0.234,0.724,0.632,0.652c3.97-0.725,7.895-2.222,11.158-4.62c0.344-0.253,0.187-0.567-0.174-0.648
				c-5.505-1.23-12.235,3.67-15.117,7.999c-0.533,0.8,1.382,0.367,1.666,0.149c3.097-2.379,5.606-5.362,8.75-7.75
				c0.855-0.65-0.822-0.625-1.145-0.514c-3.64,1.246-6.57,3.228-8.847,6.34c-1.104,1.509-1.831,3.686,0.501,3.915
				C67.271,43.813,68.961,42.848,67.887,42.742L67.887,42.742z"/>
		</g>
	</g>
	<g>
		<g>
			<path fill="none" d="M55.166,37.374c-2,0.125-2.375,8.5-1,9.875c1.25-1.375-0.25-6.75-1.375-8
				c-0.625,1.625-0.875,4.75-0.125,6.375c1.25,2.625,2.375,0,2.375-1.875c0.125-1.5-0.375-4.875-2.375-4
				c-1.625,0.75-1.875,4.25-1.25,5.625c1.5,4.125,4.125-2.875,1-4.875c-3.625-2.5-3.875,5.125-1.125,6.5
				c-0.125-1.375-1.5-3.375-2.75-4.125c-0.5,1.25,0.875,3,1.625,4c-0.75-1.125-1.625-2.25-2.375-3.375c0.25,1,0.75,2,1.25,2.875
				c-0.125-2.375-1.125-4.5-0.125-6.875c0.25,0.875,0,1.875-0.125,2.75c-0.125-1.125,0.25-2.5,0.875-3.625
				c-0.25,1.25-1.125,2.625-2,3.5c0.125-0.875,0.375-1.75,0.625-2.625c-0.375,1.5-0.25,3.125-0.5,4.625
				c-1.625-1.875,2.75-8.75,4.75-8.875c-0.25,1-1.125,1.875-2,2.375c0-1.375,1.5-2.5,2.5-3.125c-1.75,2.125-5.625,7.25-2.375,9.875
				c1.25-1.375,0.625-5,1.375-6.875c-0.125,0.875-0.5,1.875-1.25,2.5c-0.25-3.25,4.75-6.875,7.75-5.625
				c-0.75,1.125-3.375,1-4.25,0.25c1.625-1.5,4.75-1.125,6.75-0.5c-1.125-0.375-2.375-0.375-3.625-0.5c2.625-1,5.625,1.5,6.875,3.5
				c-0.5-0.375-1-0.875-1.5-1.375c0.875,1.375,2,2.625,2.625,4.25"/>
			<path fill="#FFFFFF" d="M55.024,36.844c-3.404,0.969-3.493,8.448-1.751,10.796c0.378,0.509,1.534,0.089,1.799-0.347
				c1.425-2.342,0.099-6.398-1.387-8.435c-0.405-0.556-1.691-0.052-1.863,0.499c-0.509,1.632-1.606,7.806,1.497,7.959
				c2.577,0.127,2.771-3.216,2.669-5.037c-0.376-6.745-8.814-0.954-5.191,4.101c2.419,3.375,6.368-4.106,2.381-6.373
				c-4.846-2.755-6.181,5.15-2.649,7.482c0.442,0.292,1.882-0.05,1.728-0.75c-0.403-1.837-1.462-3.242-2.954-4.357
				c-0.419-0.313-1.663,0.021-1.731,0.6c-0.205,1.729,0.706,2.942,1.701,4.282c0.422,0.568,2.271-0.08,1.787-0.781
				c-0.781-1.132-1.594-2.242-2.375-3.375c-0.355-0.515-2.083-0.036-1.859,0.649c0.333,1.025,0.739,1.926,1.25,2.875
				c0.359,0.668,2.015,0.277,1.932-0.518c-0.242-2.317-0.806-4.417-0.122-6.725c-0.645,0.122-1.29,0.245-1.935,0.367
				c0.101,0.877,0.058,1.744-0.128,2.6c0.646-0.072,1.292-0.145,1.938-0.217c-0.006-1.336,0.214-2.21,0.812-3.473
				c-0.625,0.021-1.25,0.043-1.875,0.064c-0.319,1.229-0.924,2.295-1.814,3.2c0.584,0.028,1.168,0.056,1.753,0.083
				c0.149-0.889,0.357-1.764,0.625-2.625c-0.646,0.072-1.292,0.145-1.938,0.217c-0.27,1.536-0.323,3.078-0.5,4.625
				c0.621-0.166,1.242-0.333,1.863-0.499c-1.194-1.966,1.886-7.469,3.999-7.954c-0.349-0.191-0.699-0.383-1.048-0.574
				c-0.568,0.697-1.136,1.395-1.705,2.092c0.526,0.073,1.053,0.146,1.58,0.219c0.328-1.232,1.042-2.129,2.141-2.689
				c-0.505-0.124-1.011-0.248-1.516-0.371c-2.2,2.717-5.497,7.133-2.363,10.31c0.451,0.458,1.485,0.132,1.799-0.347
				c1.358-2.071,0.755-4.729,1.438-7.027c-0.646,0.072-1.292,0.145-1.938,0.217c-0.354,0.733-0.709,1.466-1.064,2.2
				c0.584,0.028,1.168,0.056,1.753,0.083c0.034-0.99,0.322-1.765,0.839-2.603c0.706-0.952,1.601-1.68,2.687-2.185
				c1.641-0.389,1.563-0.712-0.232-0.971c-0.051,0.273-0.101,0.546-0.152,0.818c1.738-1.231,3.764-0.763,5.557-0.269
				c0.388-0.372,0.777-0.744,1.165-1.116c-1.288-0.297-2.521-0.422-3.843-0.53c-0.074,0.373-0.148,0.746-0.223,1.119
				c2.544-0.601,4.561,1.545,5.839,3.36c0.596-0.26,1.191-0.521,1.787-0.781c-0.531-0.424-1.031-0.883-1.5-1.375
				c-0.477-0.467-2.285,0.043-1.787,0.781c0.916,1.358,1.863,2.616,2.553,4.118c0.331,0.72,2.228,0.126,1.932-0.518
				c-0.727-1.583-1.726-2.941-2.697-4.382c-0.596,0.26-1.191,0.521-1.787,0.781c0.469,0.492,0.969,0.951,1.5,1.375
				c0.485,0.414,2.313-0.035,1.787-0.781c-1.903-2.703-4.588-4.424-7.911-3.64c-0.684,0.162-1.258,1.034-0.223,1.119
				c1.148,0.058,2.284,0.214,3.407,0.47c0.649,0.15,2.301-0.804,1.165-1.116c-2.702-0.744-5.561-0.956-7.943,0.731
				c-0.283,0.2-0.557,0.577-0.152,0.818c1.789,1.067,4.28,0.902,5.796-0.549c0.313-0.299,0.194-0.635-0.201-0.75
				c-3.905-1.136-9.156,2.072-9.302,6.292c-0.028,0.808,1.433,0.455,1.753,0.083c0.782-0.909,1.159-1.633,1.436-2.8
				c0.19-0.803-1.739-0.454-1.938,0.217c-0.642,2.158-0.04,4.783-1.312,6.723c0.6-0.116,1.2-0.231,1.799-0.347
				c-2.864-2.903,0.397-6.982,2.387-9.44c0.595-0.735-1.213-0.575-1.516-0.371c-1.393,0.937-2.509,1.871-2.859,3.561
				c-0.156,0.753,1.296,0.424,1.58,0.219c1.084-0.783,1.735-1.437,2.295-2.658c0.304-0.662-0.646-0.667-1.048-0.574
				c-3.083,0.708-7.33,6.786-5.501,9.796c0.323,0.531,1.797,0.077,1.863-0.499c0.177-1.547,0.23-3.089,0.5-4.625
				c0.147-0.838-1.757-0.446-1.938,0.217c-0.268,0.861-0.476,1.736-0.625,2.625c-0.164,0.812,1.479,0.397,1.753,0.083
				c1.019-1.166,1.726-2.317,2.186-3.8c0.235-0.757-1.631-0.451-1.875,0.064c-0.594,1.253-0.945,2.367-0.938,3.777
				c0.004,0.869,1.829,0.475,1.938-0.217c0.164-1.037,0.243-1.87,0.122-2.9c-0.091-0.774-1.778-0.162-1.935,0.367
				c-0.723,2.437-0.13,4.55,0.128,7.025c0.644-0.172,1.288-0.345,1.932-0.518c-0.51-0.949-0.916-1.85-1.25-2.875
				c-0.62,0.216-1.24,0.433-1.859,0.649c0.781,1.132,1.594,2.242,2.375,3.375c0.596-0.26,1.191-0.521,1.787-0.781
				c-0.851-1.145-1.732-2.18-1.549-3.718c-0.577,0.2-1.154,0.399-1.731,0.6c1.324,0.99,2.191,2.275,2.546,3.893
				c0.576-0.25,1.152-0.5,1.728-0.75c-1.707-1.127-2.057-3.94-1.245-5.696c0.517-1.117,2.023,2.234,2.082,2.598
				c0.042,0.563-0.002,1.118-0.135,1.663c-0.357,1.919-0.384,0.01-0.548-0.487c-0.407-1.234-0.058-2.805,0.48-3.938
				c0.638-1.343,1.33,1.866,1.37,2.15c0.071,0.5,0.137,4.238-0.686,1.789c-0.566-1.683-0.124-3.796,0.39-5.445
				c-0.621,0.166-1.242,0.333-1.863,0.499c1.252,1.716,2.555,5.605,1.363,7.565c0.6-0.116,1.2-0.231,1.799-0.347
				c-0.815-1.099-1.526-8.449,0.249-8.954C56.468,37.574,56.19,36.512,55.024,36.844L55.024,36.844z"/>
		</g>
	</g>
	<g>
		<g>
			<path fill="none" d="M16.541,55.749c2.625,0.125,5.625,0.75,8.125,0c-1.25-0.75-2.625-1.25-4-1.875
				c2-0.125,4.125,0.375,6.125,0.875c-2.125-1.125-4.5-1.75-6.75-2.25c2,0.625,4.25,0,6.375,0.625c-1-0.375-2.125-0.25-3.25-0.25
				c0.875,0.125,1.875,0.25,2.75,0.625"/>
			<path fill="#FFFFFF" d="M16.187,56.378c2.907,0.178,5.762,0.671,8.634-0.052c0.375-0.095,1.262-0.721,0.601-1.092
				c-1.29-0.723-2.649-1.278-4-1.875c-0.288,0.38-0.576,0.76-0.864,1.14c1.936-0.048,3.793,0.381,5.659,0.841
				c0.502,0.124,2.265-0.637,1.33-1.105c-2.207-1.105-4.531-1.781-6.932-2.326c-0.715-0.163-2.299,0.899-1.147,1.182
				c2.107,0.517,4.269,0.136,6.375,0.625c0.703,0.163,2.308-0.86,1.147-1.182c-1.162-0.322-2.271-0.306-3.47-0.288
				c-0.776,0.012-2.072,1.061-0.708,1.258c0.901,0.13,1.679,0.287,2.53,0.587c0.72,0.254,2.271-0.786,1.147-1.182
				c-0.974-0.344-1.952-0.516-2.97-0.663c-0.236,0.419-0.472,0.838-0.708,1.258c1.029-0.015,2.022-0.067,3.03,0.212
				c0.382-0.394,0.765-0.788,1.147-1.182c-2.11-0.49-4.279-0.112-6.375-0.625c-0.382,0.394-0.765,0.788-1.147,1.182
				c2.271,0.516,4.476,1.126,6.568,2.174c0.443-0.369,0.886-0.737,1.33-1.105c-2.192-0.541-4.325-0.966-6.591-0.909
				c-0.376,0.009-1.674,0.781-0.864,1.14c1.351,0.598,2.709,1.152,4,1.875c0.2-0.364,0.401-0.728,0.601-1.092
				c-2.5,0.63-5.087,0.103-7.616-0.052C16.052,55.069,14.876,56.298,16.187,56.378L16.187,56.378z"/>
		</g>
	</g>
	<path fill="#FFFFFF" d="M62.041,48.749c0,6.627,5.373,12,12,12h7.25c6.627,0,12-5.373,12-12v-4.25c0-6.627-5.373-12-12-12h-7.25
		c-6.627,0-12,5.373-12,12V48.749z"/>
	<path fill="#FFFFFF" d="M46.541,43.124c0,5.73,4.645,10.375,10.375,10.375h5c5.73,0,10.375-4.645,10.375-10.375l0,0
		c0-5.73-4.645-10.375-10.375-10.375h-5C51.186,32.749,46.541,37.394,46.541,43.124L46.541,43.124z"/>
	<path fill="#E7EDF2" d="M48.416,48.374c0,0-1,0.625,2,2.375s3.75,2.375,6.625,2s3.75-0.25,5-1.25s2.875-2,2.875-2
		s-0.5,0,0.75,2.125s2.125,3.25,4.25,4.625s3.375,2.625,5.875,2.75s2.25,0.75,5.375-0.125s2.625,0.625,6-2.75s4.375-5.5,4.75-7.375
		s1.125-2.875,0-5.375s-1.375-4.5-3.375-5.75s-2.375-2.375-5-3s-4-1.125-5.125-0.875s-2.5-0.25-4.5,0.75s-2.5,1.25-4,2.125
		s-2.625,2.375-2.625,2.375s-1.5-2-1.75-2.375s-2.375-1.75-3.25-2.25s-2-1.25-3-1.5s-1.625-0.25-1.625-0.25l-0.625-5
		c0,0,1.625-0.5,3.75,0.125s13.875,0.25,13.625,0.625s11.125,0.375,11.125,0.375s9.5,2,9.875,2.625s4.25,13.25,4.375,14.125
		s-0.875,9-0.875,9.625s-1.375,9.625-1.375,9.625s4.75,9,5,9.5s5.625,15,5.625,15.625s-0.5,16.5-0.75,16.875s7.75,11.5,8.625,11.875
		s9.875-0.25,9.875-0.25s15.625-4.125,16.125-3.75s14.375-1.5,14.375-1.5l19.25,1.875l9.125-6.125l19-5.375l9.625-0.75l-0.75-6.375
		l20.375-2.75l9.125-3.5c0,0,7.125,4.875,7.25,5.375s4.25,14.5,4,15.5s-4,17.375-4,17.375l-12.25,9.75l-2.5,1.5
		c0,0,0.875,0.5,2.25-4.625s2.875-11,2.875-12.375s-1.75-6.625-2.875-8.375s-3.375-4.625-3.375-4.625l-0.75-0.125
		c0,0,0.125,5.75,0,6.875s-0.75,5.875-0.75,5.875s-3.75-8.625-4.125-9.375s-2.875-3.125-4-3.5s-3.125-1.5-4.375-1.375
		s-8,1.125-8,1.125l6.125,11.5l-19.625-6.625c0,0-1.25,3.625-2.125,6.625s-1.125,4.375-1.875,6s-2.625,7-2.625,7
		s3.625,6.625,3.875,7s-8,9.875-8,9.875s3.625,3.75,3.375,4.125s-9.625,10.75-9.625,10.75l-10.375,19.75c0,0-3.375,1.125-5.5,1.625
		s-10.75,0.875-10.75,0.875v-0.875l-5.625,0.125l-2.125-0.5l0.375-0.5l-1.5-0.125c0,0-0.25-1,0.75-1.75s2.625-3.125,3.75-3.875
		s2.75-1.875,4.75-2.125s5.5-0.375,7.5-0.375s3.5-0.125,3.5-0.125s3.875-5.75,4.875-8.375s1.5-3.625,3-7.125s2.75-6.375,3.25-8.5
		s2.375-10.125,2.375-10.125s-5.25-1.125-7.125-1.75s-12.625-4.625-12.625-4.625l-1.625,4.375l-4.125,0.375l-2,0.75l3,1.375
		c0,0-2.625,0.75-4.25,1.5s-4.75,1.5-5.75,1.75s-3.625,0.5-3.625,0.5l2,2.625c0,0-1.75,1.25-2.25,1.5s-4.25,0.5-4.25,0.5l-8,3.5
		l-5.375,4.75l-8.875,15.375l-8.375,10.25l-10.875,0.75l0.625-1l-3.25,0.25l-2.625-0.5l-0.875-1l-1.625-0.125l-1.5-1.25
		c0,0,0.25-1.75,2.75-3.75s4.625-3.625,7.625-4.375s4-1.125,6.125-1s3.625,0.375,3.625,0.375s4.625-11,5.375-13
		s4.375-11.625,4.375-11.625s-2-6.125-2.125-6.875s-0.375,1.75-0.375,1.75s-2.25-2.25-3.5-3s-14.25-6.375-15.375-6.875
		s-6.125-2.5-7-3s-2.875-2.75-3.25-3.75c-0.276-0.735-0.687-4.784-0.885-6.874c-0.071-0.752-0.115-1.251-0.115-1.251
		s-0.375,1.125-1.125,1.375s-4.375-0.625-4.375-0.625s-0.375,0.125,2.375-3.375s6.25-8.375,8.125-11.875s3.875-8.125,4-12
		s-0.5-6.5-1.375-8.875c0,0-3.875-3.5-4.5-4.125s-10.125-6.5-10.125-6.5s-0.125,1.25-2.5,4s-2.25,2.625-4.5,4.625
		s-5.75,3.875-7,4.75s-4.125,1.75-4.125,1.75l0.5,4.875c0,0-1,0.875-2.625,0.75s-3-1.375-3.875-1.75s-1.375,0-1.375,0
		s-0.25,1-1,2.125s-1.25,1.75-2.125,1.75s-2.875-2-2.875-2s-0.25-2.25-0.375-3.125s-0.25,2.875-0.25,2.875l-1.25,0.375l-1.125-0.375
		l-1-1.5l-0.5-2.25l-0.125-5.25c0,0-3,0.625-4.75,0.625s-6.875-0.5-8.125-2.25s-1.25-1.75-1.25-1.75s-1.75-0.125-2.375-0.125
		s-5.25-2.125-6.375-2.75s-3.625-4.375-4.25-5.125s-1-2.625-1-2.625l0.625-9l1.75-3.625c0,0,2.5,2,3.625,2.75
		s4.125,1.375,4.125,1.375s1.125,0.25,3.75-1.125s8.875-6,8.875-6l-8.375-3.75l-0.625-0.625h3.875l1.5-0.75L48.416,48.374z"/>
	<path fill="#E7EDF2" d="M109.791,1.999c0,0-3.25,7.875-4.5,10.875s-5.25,11.625-6.375,13.25s-3.125,2.5-3.125,2.5l10,12.625
		l6.75-8.25c0,0,1.375-14.625,1.375-15s-2.125-10-2.125-10l-1.875-6.5"/>
	<path fill="#E7EDF2" d="M70.791,3.499l6.375,4.625c0,0,4.625,3,5.25,4.125s3.75,6,3.75,6s1.125,4.25,1.375,5.125s0.5,4.25,0.5,4.25
		l-15.75-0.125l-2.125-1.125l1.75-4.375c0,0,0.375-4,0.375-5.75s0.25-6.875,0.25-6.875L70.791,3.499z"/>
	<path fill="#737679" d="M57.541,27.999c0,0,2.5,0.25,3.625,1.375s5.875,3.5,5.875,3.5s3.75-1.125,6.625-1.75s3.125-1.25,7.75-1.25
		s8.5,0,10.625,2.125s4.25,5.625,4.75,9.25s0.625,20.75,0.625,20.75l-18.625,0.625c0,0,1.125,0.375,6.375,2s7,2.25,10.125,4.5
		s5.625,5,6.625,8.125s2.625,8.875,2.75,12.5s0.25,4.25-0.5,10.875s-1.375,9.25-0.5,13.625s2.75,8.875,2.75,8.875s-0.5-3.375,0.25-6
		s1.75-3.5,1.75-3.5s-0.375,4,2.625,7.625s11,7.75,11,7.75l-1.25-3.625c0,0,1.625,2.125,4.75,2.25s8.75-0.25,8.75-0.25
		s-2.75-1.75-3.75-3.25s-1-1.5-1-1.5s0.875,0.75,3.875,0.875s6.125,0.125,11.875-1.75s7.375-3,12.625-3.5s5.375-1.25,11.875-0.875
		s14.25,3.125,14.25,3.125s-2.125-3.5-3.25-5.375s-0.875-4.5-1-4.125s-1.125-0.375,3.375,1s5.875,2.375,8.875,4.125
		s4.875,2.625,4.875,2.625s0.25,0.5,0.875-2.375s0.5-5.5,0.5-7s0.125-2.625,0.125-2.625s-3.125,0.5,4-0.75s13.875-2.125,16-2.125
		s-2-2.125-3.75-2.5s-0.625-1.875-0.625-1.875s0.75-1,5.25-1.875s5.5-1.25,10.625-1.125s8.5,1.75,10.875,2.625s3.875,2,3.875,2
		s0.625-1.25-0.625-3.75s-1.875-3.875-1.875-3.875s1.375-0.375,3,2.375s3.75,5.125,4.125,9.25s0.375,8.375,0.125,10.5
		s-1.125,4.5-2.25,7.5s-3.875,7.375-5.75,9.875s-6.5,6.75-6.5,6.75s7.25-4.625,10.625-7s5.5-3.75,7.375-6.125s3.5-5,4.125-7
		s1.25-7.75,1.25-9.875s0.25-3.375,0-5.125s-1.25-7.5-1.25-7.5l-1.25-3.625l6.25,7.875c0,0,0.375-5.375-0.125-8s-1.125-7-2.625-8.75
		s-3.25-4.125-4.75-5.125s-4.375-2.875-6.25-3.75s-5.75-2-6.5-2.125s-2.875-0.25-2.875-0.25s0.625-0.875,2.375-2.25
		s4.875-3.625,4.875-3.625s-3.75-0.375-7.625,0.875s-9.75,3.75-12.25,5.25s-7.125,4.5-10.5,8.25s-5.5,6.75-7.5,8.875
		s-5.5,4-8.625,5.875s-5.5,3-6.375,3.125s-3.25-1.125-5.25-1s-4,0.125-4,0.125s-0.125-0.5,1.875-1.625s5.25-2.875,5.25-2.875
		s-0.75,0-3.25,0.5s-3,0.25-5.625,0.75s-5.375,0.875-6.5,1s-1.125,0.125-1.125,0.125l3-3.875c0,0-1.625-0.25-3.25,0.5
		s-5.25,1.5-6.875,2.875s-2.25,1.875-2.25,1.875s-0.375,0-0.25-1.25s0.25-2,0.25-2s0,0.625-2.125,1.875s-5.625,1.75-6.5,2
		s-0.875,0.25-0.875,0.25s1.75-0.5,3-2.375s2-3.625,2-3.625s-1.25,0.875-4.125,2s-5.125,1.375-6.875,1.875s-4.75,1.125-4.75,1.125
		s1.75-1.375,3-3.125s3.375-6.375,3.375-6.375s-0.625,0.75-3,2.375s-6.75,3.125-9,3.5s-6.875,0.625-6.875,0.625
		s1.125-0.25,2.375-1.375s3.375-4.125,3.375-4.125s-4.875,1-6.375,1.25s-3.5,0.25-3.5,0.25l2-1.75c0,0-2.5-0.375-5.125-1.875
		s-5.25-3.25-6.75-4.125s-5-5-5-5s-0.125-0.375-0.375-2.875s-1-4.875-1.625-5.875s-1.875-3.875-1.875-3.875s2.375,0.75,4.625,2.875
		s4.25,5.25,4.25,5.25s0.125-2.875-0.625-4.75s-1-3.5-2.75-5.625s-4.875-5.75-4.875-5.75s0.875-0.625,4.5-0.125
		s4.875,0.625,6.375,1.25s2.125,1.125,2.125,1.125s-0.875-2.375-2.75-4.25s-3.125-3-5.375-4.5s-4.5-3.125-5.375-3.125
		s-0.875,0-0.875,0s1.25-0.375,2.875-3s2.5-4.875,3.375-7s1.25-3.25,1.25-6s-0.125-16.75-0.125-16.75s-0.625-3.875-2.125-6.75
		s-4.5-7.875-4.5-7.875s-0.75-0.25-0.125,2.5s1.625,7.5,1.625,7.5s0.625,5,0.625,7.25s0,4.375-0.25,6.625s-0.75,5.375-1.625,7.5
		s-0.75,2.625-2.25,4.875s-2.125,3.375-2.125,3.375l-8.125-11.75c0,0-3-1.75-6.375-1.875s-10.875-0.5-13-0.375
		s-10.75-0.625-11.25-0.5S57.541,27.999,57.541,27.999z"/>
	<path fill="#737679" d="M92.416,134.249l4.375,16.375l-8.5,19.875c0,0-5,0.625-6.625,0.875s-4.25,0.75-6,2.125s-6,5.125-6,5.125
		l3,2.125l-0.375,0.75l13.375,0.875c0,0,4.75-4.875,7-5.625s4.625-2,4.625-2s0.75-2.375,1.875-4.75s3.25-6.625,3.625-6.875
		s2.5-1.125,2.5-1.125l7.625-4.5l2.125-5.5c0,0-0.5,0.625-1.25-1.5s-1.75-7-1.75-7s-3.125-3.125-4.25-3.875s-7-3.75-7-3.75
		L92.416,134.249z"/>
	<path fill="#737679" d="M153.541,142.124c0,0,0.75,2.5,0.125,5.625s-4.125,12.125-5.25,14.875s-5.5,10.5-6.125,11.375
		s-0.625,0.875-0.625,0.875s-6.25,0-7.875,0.125s-3.25-0.25-4.375,0.75s-5.5,6-5.5,6l1.375,0.375l-0.125,0.625
		c0,0,2.25,0.125,3.25,0.25s3.75-0.125,3.75-0.125l-0.75,1.375c0,0,3.125,0.125,4.625,0.125s5.375-0.625,6.875-1.125
		s3.125-1.125,3.125-1.125s5-7.125,7.125-10.125s4.375-6,6.625-8.875s3-3.625,5.375-5.875s9.25-9.375,9.25-9.375l-9.125,2
		l8.375-7.625c0,0-6.5-2.25-8.25-3.25s-6.125-4.125-6.125-4.125l-2,1.375l2.375,0.625c0,0-1.25,1.625-2.375,2.625
		s-3.75,2.25-3.75,2.25"/>
	<path fill="#A1A5A9" d="M134.041,130.249c0,0-2.5,1.375-3.875,3.375s-2.625,5.5-2.875,8.625s-0.5,9.25-0.5,9.25l-6.125,0.375
		l4.25,4.375l0.75,1.375c0,0-0.75-0.375-2.375-0.125s-3.875,1.875-5.5,3.25s-3.25,3.875-4.5,7.5s-1.75,7.75-2.875,9.75
		s-1.625,3.75-3.25,5.375s-5.375,3.75-5.375,3.75s8.75-1.625,9.375-2s1.125-0.875,3-4.375s3-5.75,4.75-9s1.625-5.125,3.75-6.375
		s14.75-8.875,14.75-8.875l-4.875-2.5h5.75c0,0-2-1.25-2.75-3.5s-1.875-3.25-1.875-5.25s0-7.25,0-8.125
		S134.041,130.249,134.041,130.249z"/>
	<path fill="#A1A5A9" d="M194.916,117.874c0,0-0.125,0.75-2.25,2.375s-7.375,5.25-8,6.625s-1.75,3.25-1.25,6.25s0.875,4.125,2.5,6
		s4,3.875,4,3.875l-7.25,9.625l3.125,0.125c0,0-3.125,3.375-5,5.875s-3.5,5.25-5.125,8.125s-3.75,7.625-5.125,10.375
		s-5.625,9.375-5.625,9.375l5.125-1.375c0,0,4.5-6.5,6.875-9.75s7-10.375,10.5-13.75s14.625-14.375,14.625-14.375l-10.875,2.875
		l8.5-7.625l-7.5-10.875c0,0,2.5-5.5,3.25-7.5s1.875-4.875,1.875-4.875L194.916,117.874z"/>
	<path d="M18.875,51.916c0.25-0.25,3.667,0,5.667,0.75s2.333,1.833,2.333,1.833s-6.5,0-6.75,0.083s-0.833,0.417-1.583,1.167
		s-0.833,1.333-0.25,2.083s5,4.667,5,4.667s3.167-0.583,5.167-1.667s8.167-5.25,8.167-5.25s-6.417-2.583-7.75-3
		s-2.667-1-3.333-0.917s-6.5-0.167-6.5-0.167"/>
	<ellipse fill="none" stroke="#000000" stroke-width="0.75" cx="78.5" cy="46.457" rx="13.708" ry="12.625"/>
	<path fill="none" stroke="#000000" stroke-width="0.75" d="M47.958,48.582c-0.25,0.083-13.5,2-16.75,2.5s0.5,0.667-4.667,0.667
		c-1.106,0-2.105,0.007-3,0.022c-0.088,0.001-0.175,0.003-0.261,0.004c-0.505,0.009-0.976,0.021-1.413,0.034
		c-2.259,0.069-3.596,0.195-4.077,0.355c-0.75,0.25-2.833,1.167-3.583,2.167s0,4.833,0,4.833s2.334,1.333,3.667,2.333
		s3.917,1.5,3.917,1.5s3.167-0.583,6.917-2.417s7.5-4.917,7.5-4.917s-4.667-2.083-6.917-2.583s-3.5-0.583-4.5-0.75
		s-2.833-0.25-2.833-0.25"/>
	<path fill="none" stroke="#000000" stroke-width="0.75" d="M14.208,59.165c-0.167,0.25-1.833,2.917-2,4.167
		s-0.083,9.167-0.083,9.167s0.833,2.417,2,3.917s3.5,3.583,5.583,4.5s4.083,1.5,6.75,1.5s12.333-0.249,14.917-0.416
		s7.833-1.333,10.917-2.5s7.167-2.916,9.333-4.834c2.167-1.917,4.5-5.583,4.5-6.583s-0.083-1.5-0.083-1.5"/>
	<path fill="none" stroke="#000000" stroke-width="0.75" d="M21.791,62.999c0,0-0.083,7.333,0.333,10.167
		c0.417,2.834,1.5,6.166,2.333,7.5s1.667,3.166,3.75,4.25s5.583,1.584,8.25,1.417s3.583-0.333,3.583-0.333s0.084,3.666,0.167,5.166
		s1.417,3.834,1.917,4.084s1.75-0.417,1.917-0.917s0.083-3.167,0.083-3.167s0.417,3.334,1,3.917s1.25,1.583,2.417,1.5
		s2.5-1.25,2.667-2s0.5-1.667,0.5-1.667s0.917-0.083,1.667,0.417s2.083,1.167,3.5,1.167s2.5-0.25,2.5-0.25l-0.25-5.167
		c0,0,0.5,0,2.75-1s3.917-1.916,5.25-3.083s4.417-3.167,5.5-4.417s2.916-3.084,3.333-3.917s1.083-2.167,1.083-2.167
		s2.75,1.25,5.167,2.833s3.75,2.167,5.75,3.75s5.25,4.917,5.25,5.75s0.084-4.584-0.333-7.167s-1.667-6-1.667-6s2.917,1.583,5.583,4
		s4.584,3.751,6.417,5.834s3.083,5.5,3.083,5.5s0.833-3.001,0.75-6.834s-0.166-8.333-0.916-9.5s3.916,2.083,5.166,3.667
		s2.833,3.251,2.75,4.167s0.334-4.666,0.084-7.083c-0.25-2.417-1.917-5.917-3.167-7.417s3.501,1.833,5.667,4
		s2.916,3.167,2.916,3.167s-0.083-4-1.333-6.667s-6.833-8.917-6.833-8.917s8.666,0.167,10.666,1s2,0.833,2,0.833
		s-3.417-5.583-6-7.417s-6.083-3.75-7.25-4.083s-0.75-0.25-0.75-0.25s3-2.333,4.5-5.75s2.666-6.5,2.583-9.083
		s0.167-16.417,0.167-16.417s-0.501-3.25-2.167-7.583s-4.75-8-4.75-8s-0.832,4-2.749,8.75s-2.583,6.667-4.5,10.083
		s-4,8.083-4.917,8.25s-0.917,0.167-0.917,0.167s-1.5-1-6.417-1.5s-15.667-0.917-18.417-0.833s-3.833-0.167-8.167,0.833
		s-6.25,1.417-6.25,1.417l0.417,4.417"/>
	<path fill="none" stroke="#000000" stroke-width="0.75" d="M70.875,25.499c0,0,1-3.083,1.083-7.25s0.5-8.833,0-10.5
		s-0.5-3.583-1.083-4.333s-0.583-0.75-0.583-0.75s1.417,0.583,5.5,4.083s4.583,2.75,6.75,5.917s3.833,5.583,4.333,7.333
		s0.75,6.5,0.75,6.5"/>
	<path fill="none" stroke="#000000" stroke-width="0.75" d="M90.375,83.999c0,0,1.667,4.667,1.75,7.5s-0.917,7.916-2.083,10.333
		s-4.75,8.667-6.333,11s-6.333,8.083-6.333,8.083s1.25,0.583,2.75,0.5s3.167-0.583,3.167-0.583"/>
	<path fill="none" stroke="#000000" stroke-width="0.75" d="M83.208,119.415c0,0-0.25,4.334,0.083,5.834s0.417,3.666,2.75,5.583
		s2.75,2.75,7.917,4s4.584,0.417,8.167,2.167s3.582,1.417,6.416,3.5s4.5,3.833,4.5,3.833s-0.166-2.917-0.166-3.75
		s-1.584-1.917-1.584-1.917"/>
	<path fill="none" stroke="#000000" stroke-width="0.75" d="M113.416,77.874c0,0,1.25,2.75,4.125,4.625s9.5,5.625,11,6.25
		s1.5,0.625,1.5,0.625s-1,1-1.625,1.375s2.25,0.125,2.25,0.125s2.625-0.125,4.875-0.5s2.25-0.375,2.25-0.375l0,0
		c0,0-2,2.375-2.875,3.375s-1.875,1.625-1.875,1.625s2.125,0.25,4.125-0.25s5.25-1.25,7.75-2.25s6.125-3.25,6.125-3.25
		s-2.5,5.25-3.125,6s-2.625,2.625-2.625,2.625s6.25-1.25,9.5-2.25s5.875-2.125,5.875-2.125s-0.25,1.25-2.125,3.125
		s-2.375,2.25-2.375,2.25s4.375-0.375,6-1.5s2.875-2.375,2.875-2.375s0,2.5,0.125,3.5"/>
	<path fill="none" stroke="#000000" stroke-width="0.75" d="M146.166,185.874l-1.25-0.5c0,0,2-2.125,3.75-4s3.625-2.625,5-3
		s11.75-0.75,11.75-0.75s3.375-5.375,4.875-8.25s3.875-8.875,5.125-12s3.625-13.5,3.625-13.5s-3.875-1-6.125-1.875
		s-6.375-2.375-9.625-4.125s-5.125-3.75-7.5-6.25s-4.25-5.875-4.625-7.375s0.125-8.125,1.75-11.75s4.75-7.375,7.125-9.875
		s6.125-5.25,9.125-7s7.5-2.75,8.125-2.625l-2.875,3.75c0,0,2.125-0.25,6.25-1s10-1.125,10-1.125h0.625c0,0-3.875,1.625-5.375,2.75
		s-2.625,1.75-2.625,1.75s3.25-0.375,5.75,0s3.625,0.625,5,1.5s4,3.25,4.25,5.125s0.25,1.875,0.25,1.875"/>
	<path fill="none" stroke="#000000" stroke-width="0.75" d="M154.041,186.999c0,0-2.75,0.25-4.625,0.25s-3.25-0.75-3.25-0.75
		s1.5-2.25,3.25-3.875s4.125-3,4.125-3"/>
	<path fill="none" stroke="#000000" stroke-width="0.75" d="M159.166,182.124"/>
	<path fill="none" stroke="#000000" stroke-width="0.75" d="M159.166,182.124c0,0-5.5,5.125-5.5,5.625s2.375-0.25,5.125-0.25
		s6.875-0.5,8.5-0.875s3-1,3-1s3.5-5.875,6.625-10.125s7.375-10.75,10.25-13.5s14.25-14.375,14.25-14.375s-2.5,0.25-5,1.125
		s-4.875,1.375-4.875,1.375l8.25-7.75l-7.875-10.375c0,0,2.625-5.375,4.125-10s2.375-9.25,2.5-11.125"/>
	<path fill="none" stroke="#000000" stroke-width="0.75" d="M193.041,99.749c0,0,2.75-1,6.125-2.625s7.875-4.5,10-7.375
		s5.25-6.625,8.875-10s10.125-7.375,13.125-8.5s6.625-2.5,9.375-3s5.875-0.75,5.875-0.75s-3.875,2.375-5.375,3.875s-1.5,1.5-1.5,1.5
		l0,0c0,0-0.5,0.125,3.25,1s3.125,0.625,8,3.25s5.375,4,7.5,6.5s2.875,6.625,3.375,9s0.375,8.375,0.375,8.375s-3-3.625-4-5
		s-2.375-2.75-2.375-2.75s1.375,2.75,1.75,5.375s1.5,10,0.875,15s-2.25,9.875-5.125,13s-8.75,7-11.25,9s-7.25,4.25-7.25,4.25
		s1.75-3.625,3-7.375s2-9,1.875-11.125s-4-10.375-5-11s-1-0.625-1-0.625l-0.625-0.25c0,0-0.5,10.25-0.75,11.375
		s-0.25,1.125-0.25,1.125s-3-7.25-4.25-9.25s-2.625-3.125-4.125-3.75s-4.5-1.375-6.625-1.125s-5.5,1.375-5.5,1.375l6,11.125
		c0,0-9.5-4-11.375-4.625s-7.5-1.75-7.5-1.75"/>
	<path fill="none" stroke="#000000" stroke-width="0.75" d="M111.041,129.499c0,0,1.5,9.875,2.25,12.5s2.25,7.875,2.25,7.875
		s-4.125,11.5-5.125,13.5s-4.75,11-4.75,11s-4.25-0.5-6.625,0s-7.125,2.375-8.875,3.75s-4.5,4.25-4.625,4.875s0.625,1.125,1.125,1.5
		s2.625,0.375,2.625,0.375"/>
	<path fill="none" stroke="#000000" stroke-width="0.75" d="M95.541,185.999c0,0-3.25,0.375-5.125,0s-1.375-1.875-1.375-1.875
		s0.75-1.5,2.25-3.125s4.5-2.625,4.5-2.625"/>
	<path fill="none" stroke="#000000" stroke-width="0.75" d="M101.666,179.874c0,0-2.75,1.75-4,3.125s-3.125,4.125-2.125,4.25
		s6.375-0.125,6.375-0.125s7.625-1.125,9.25-2s6.375-10.125,6.375-10.125s3.25-8.25,5.125-9.625s14.75-8.75,14.75-8.75
		s-4.625-3-4.875-2.625s5.375-0.125,5.375-0.125s-1.375-0.75-2.375-3.375s-1.625-4.875-1.75-6.625s-0.5-8.875-0.25-10"/>
	<path fill="none" stroke="#000000" stroke-width="0.75" d="M92.291,134.374c0,0,2.125,5.625,2.625,9s1.625,7.25,1.625,7.25
		s-3.875,8.75-5.25,12.5s-3,7.5-3,7.5s-6.125,0.375-8.625,1.125s-5.875,2.625-7.25,4s-2.875,3.125-2.875,3.125
		s1.875,1.5,2.625,1.625l0.75,0.75"/>
	<path fill="none" stroke="#000000" stroke-width="0.75" d="M79.291,174.749c0,0-2,0.625-3.5,2.125s-3.5,4.875-3.5,4.875
		s0.875,0,3,0.25s10.375,0.25,10.375,0.25"/>
	<path fill="none" stroke="#000000" stroke-width="0.75" d="M79.041,181.999c0,0,3.375-4.5,4.375-5"/>
	<path fill="none" stroke="#000000" stroke-width="0.75" d="M96.916,175.124c0.125-0.5,1.75-4.625,2.75-6.25
		s3.125-5.625,3.125-5.625l10-5.75l0.25-3.25"/>
	<path fill="none" stroke="#000000" stroke-width="0.75" d="M111.291,154.249"/>
	<path fill="none" stroke="#000000" stroke-width="0.75" d="M111.791,143.499c0,0,1.25,4.5,1.625,5.75s1.5,2.75,1.5,2.75"/>
	<path fill="none" stroke="#000000" stroke-width="0.75" d="M136.916,152.499c0,0,2.875-0.125,4.25-1s2-1.375,2-1.375l-2.375-2.25
		c0,0,3.5-0.625,5.75-1.125s8.125-3,8.125-3l-3.125-1c0,0,3.875-1.75,5.125-2.75s3-3.375,3-3.375l-2.75-0.375l1.875-0.875"/>
	<path fill="none" stroke="#000000" stroke-width="0.75" d="M153.416,141.874l0.75,2c0,0-1.125,6.625-1.875,8.875
		s-4.75,12.375-6,14.875s-4.625,7.5-4.625,7.5s-3.375-0.375-6.25-0.25s-5.25,0.125-6.875,1.5s-5,5.625-5,5.625l1.875,0.375"/>
	<path fill="none" stroke="#000000" stroke-width="0.75" d="M130.666,177.249c0,0-5.875,5-5.5,5.5s4.5,0.375,4.5,0.375l2.375-0.125"
		/>
	<path fill="none" stroke="#000000" stroke-width="0.75" d="M136.291,178.874c0,0-2.75,2.125-3.5,3.125s-1.25,2.25-1.25,2.25
		s6.125,0.25,8.25-0.125s6.125-1.75,6.125-1.75s3.25-4.625,5.75-8.125s7.875-11.5,10.75-14.25s11.875-12,11.875-12l-8.5,1.875
		c0,0,2.5-2.25,4.25-3.875s3.625-3.75,3.625-3.75"/>
	<path fill="none" stroke="#000000" stroke-width="0.5" d="M109.416,2.249c0,0,1.625,7.875,1.75,10.5s0.5,5.75,0.375,10.25
		s-1.75,9.375-2.75,11.875s-3,5.375-3,5.375"/>
	<path fill="none" stroke="#000000" stroke-width="0.75" d="M65.185,48.764c-0.16-1.084-0.366-2.168-0.311-3.266
		c0.024-0.468,0.122-0.915,0.252-1.348c0.053-0.33,0.13-0.653,0.235-0.969c0.005-0.425,0.054-0.85,0.191-1.262
		c0.083-0.25,0.167-0.5,0.25-0.75c0.245-0.735,0.639-1.382,1.123-1.934c-1.518-3.787-5.399-6.487-9.968-6.487
		c-5.891,0-10.667,4.477-10.667,10s4.776,10,10.667,10c3.343,0,6.307-1.458,8.262-3.714C65.206,48.944,65.194,48.854,65.185,48.764z
		"/>
	<ellipse fill="#0092FF" cx="70.416" cy="46.957" rx="5.125" ry="5.208"/>
	<ellipse fill="#0092FF" cx="50.75" cy="43.291" rx="3.958" ry="3.625"/>
	<ellipse fill="#00426B" cx="69.833" cy="47.041" rx="2.125" ry="2.042"/>
	<ellipse fill="#00426B" cx="50.166" cy="43.291" rx="1.458" ry="1.375"/>
	<ellipse fill="#FFFFFF" cx="72.708" cy="44.166" rx="1.333" ry="1.25"/>
	<ellipse fill="#FFFFFF" cx="68.208" cy="49.416" rx="1" ry="0.917"/>
	<circle fill="#FFFFFF" cx="52.125" cy="41.416" r="1.083"/>
	<ellipse fill="#FFFFFF" cx="48.541" cy="44.957" rx="0.667" ry="0.542"/>
</g>
<g id="frame_2">
	<path fill="#E7EDF2" d="M70.125,18.499c0,0,0.25,12.75,0,15.5s-1.5,12.25-2,13s3.75,4,3.75,4l9,6.25l0.25-18l-2.25-9.75l-4.75-8.25
		L70.125,18.499z"/>
	<path fill="#E7EDF2" d="M33.875,33.999c0,0,1.75,1.5,2.75,3s3,5,3.5,6s1.75,3,2,4s1.25,3.75,1,4.75s-0.25,3.5-0.25,3.5l16.5-5.5
		l-2.75-4.25l-4.25-5.75c0,0-2.25-0.5-3.75-1.5s-5.5-2.75-5.5-2.75l-5.75-1.25L33.875,33.999z"/>
	<path fill="#E7EDF2" d="M32.125,62.749l2.75,4l-1.5,12.5l-3,4.5l-14.75,11.5l-11.75,6.25l-0.75,5.25c0,0,0.5,3.75,0.75,4.75
		s0.75,3.25,0.75,3.25l0.5,1.75c0,0,1.25,0.75,2.25,0.75s2.25-0.5,2.25-0.5s-0.25,1,0.75,1.5s2.25,0.75,3,1s0,0.5,0.75,1.75
		s0.5,2.25,1.75,2.75s-1.5-0.5,1.25,0.5s3.5,0.5,6.25,0.5s5.75,0.75,7,0s5-2,5-2l2-1.25c0,0-0.25,1.5,0.75,3.25s2.5,3.75,3.25,4.25
		s2.5,0.5,2.5,0.5l1-1.75c0,0,0,0.25,1.25,0.75s2.5,0.25,2.5,0.25l1.25-1c0,0-0.5-2.75-0.5-3.5s2.5-0.75,2.5-0.75l3-0.25l2.5-1
		l-1.25-2l-1-1.75c0,0,0.25,0,2.5-3.25s6.25-9,7-11.25s3-6,3-6s0.75,0.75,3,0.5s4.25-0.25,5.25,0.5s3.25,2.75,3.25,2.75l0.75,12.25
		l2,0.25c0,0,0,1-1,2.25s-3,3.5-3,3.5s0,0.5,2.25,0.25s3.5-1.25,3.5-1.25s-0.5,0.5,0,3s0.75,3.75,2,5.75s1.5,2.75,3,3.5
		s6.5,2.75,6.5,2.75l4.75,3.25l6.75,2.5l5.25,2.5l2.25,1.25l-2.75-5.75l2.5,1.75l3.25,8.75l-10.25,25.25c0,0-3.5-0.75-5.75,0
		s-5,0.75-6.5,2s-2.5,0.75-4.25,2s-4.75,4.5-4.75,4.5s0.25,0.5,1.5,1.25s2.75,0.5,2.75,0.5l1.75,0.5l3.5,0.25l1.5,0.5h7.25l5-2
		l5.25-8l4-10.75c0,0,5.75-4.25,6.5-4.5s4.5-3,4.5-3l-5-4.5l4.75-1.25l1-8.25l1-5.75l2.25-6v6l0.75,11.5c0,0,1,2.75,2.5,2.75
		s4.75-1,4.75-1l2.75-1.5l-2-2.75c0,0,3-0.5,4.25-0.75s6.75-2.25,6.75-2.25l-1-1.75c0,0,1.25-1.25,3-2s7-3,7-3l5,3.75l5.25,1l8,2
		c0,0-2.5,8.75-3.25,10.75s-3,8.25-4.25,11s-4,6.5-4.75,8.5s-1.75,3.5-1.75,3.5s-6.5,0-8,0s-5.5,0.75-5.5,0.75s-3.5,2.5-4.25,3.5
		s-3.25,3.25-3.25,3.25s0.75,1,2,1.25s5,0,5,0l2.75-0.25l-0.75,1.25c0,0,4.75,0.25,5.75,0s6-1.5,6-1.5s2.75-2.25,3.25-3
		s7.75-14,7.75-14l7.5-7.25l5.25-6.5l-1-6l5.25-8.5l-5.5-5.75l1-6l5.5-7.25l2.75-4l5-3.5l15,6l-5.25-11.5l7.5-1l5.5,1.5
		c0,0,2.25,1.25,4,4.25s3.75,8,3.75,8l1.5-12c0,0,1.25-0.25,2.25,2.75s2.25,4.75,2.5,7.25s1,6.25,0.5,7.75s-0.75,2.75-1.25,5
		s-3.5,7.5-3.5,7.5s0.75,0.75,5.75-3.75s10.75-13.75,10.75-13.75l2.25-15.75l-3.25-7.5l-4-7.25c0,0-6.75-1.25-7.5-0.75
		s-11.25,0.75-12,1.25s-11.75,3.75-12.5,4s-15.5,3.25-15.75,4.25s-13.5,4.5-14.25,5.25s-23-1.5-23-1.5s-21.25,3.5-22,3.25
		s-10.75-5-11.5-5.5s-18.25-10.5-18.75-11.25s-6.75-9-6.75-9s-7-9.75-8-9.5s-9.5-5.5-10.75-5.5s-5.75-7-5.75-7
		s-10.25-11-11.25-10.75s-15.25,4-15.25,4l-12.75,6.5l-5.5,4.25"/>
	<polygon fill="#BF0404" points="27.875,113.749 25.625,117.499 29.375,117.749 30.875,115.999 	"/>
	<path fill="#A1A5A9" d="M197.459,116.832c0,0-3.167,1.999-4.5,2.833s-5.166,3.334-6.333,4.667s-2.834,3.667-2.667,6
		s0.001,3.499,1.667,6.333s4.333,5.667,4.333,5.667l-6.333,9.333l2.5,0.334c0,0-5.001,5.333-6.834,8.333s-5.999,10.667-6.666,12.167
		s-7.334,13.167-7.334,13.167l5.5-0.5c0,0,6.334-9.834,7.334-11.667s5.166-7.501,6.833-9.667s9.167-10.666,10.667-11.833
		s6.166-5.667,6.166-5.667l-9,2.667l7.667-7.333l-8.333-11.334c0,0,3.5-8.499,4.5-9.833S197.459,116.832,197.459,116.832z"/>
	<path fill="#A1A5A9" d="M133.959,138.499c-0.167-0.667,0.833-8,1-8.667c0,0-2.167,0.667-3.5,2.167s-2.5,3.832-3,6.166
		s-1,12.5-1,12.5l-6.333,0.334l4.666,5.333c0,0-3.166,0.667-4.833,1.5s-3.167,2.5-4.5,4.5s-2.167,3.667-3,6
		s-1.166,4.499-1.833,6.833s-1.167,4.166-2.167,5.5s-6,5-6,5l9.167-2l10.333-19.166l15.667-8.834l-5.667-2.666l6-0.167
		c0,0-2.666-1.501-3.333-3.167s-1.667-6.666-1.667-6.666V138.499z"/>
	<ellipse fill="#FFFFFF" cx="58.313" cy="70.437" rx="14.188" ry="12.563"/>
	<ellipse fill="#FFFFFF" cx="36.75" cy="75.562" rx="10.375" ry="10.813"/>
	<path fill="#FFFFFF" d="M0.5,103.499c0,0,3.875-4.75,4.875-5.125s7-2,7-2h2.875l-8.625,6.125l4.875,2.125l3.125,0.625L13,107.624
		c0,0-5.375-1-7.25-1.25s-5.125-1.625-5.125-1.625"/>
	<path fill="#737679" d="M32.625,61.499c0,0,4-0.166,5.167,0.167s5.333,0.5,5.333,0.5s2.167-2,4.5-3.667s6.833-4.166,8.167-4.833
		s4.667-1.667,5.667-1.667s4.167-0.167,6,1.333s5.666,5.667,6.833,7.833s6.833,16.667,6.833,16.667l-16.5,8.167
		c0,0,6.667-1.334,10.833-1.167s5.333-0.167,9.833,1.833s7,3.667,8.5,5.667s3.708,5.042,3.708,5.042s-0.041-2.875-1.375-5.375
		s-4.833-7.834-4.833-7.834s2.166-0.333,5,1.167s6.667,3.5,6.667,3.5s-0.333-2.334-1.333-3.667s-2.5-3.666-2.5-3.666
		s3.666,3,4.666,4.333s1.668,2.999,2.334,4.833s1.166,3.167,0.833,6.167s-0.167,2.499-1.167,5.333s-1.667,3-2,5
		s-0.333,5.668,0.167,7.834s3,7.166,3,7.166s-0.667-2.166-0.167-4.666s2.167-4.334,2.167-4.334s1.333,5.833,2.833,7.5
		s5.501,4.833,6.834,5.5s4.166,1.834,4.166,1.834s-1.5-2-1.5-2.667s1.168-0.001,3.334,0.833s4.667,0.834,6.5,0.834
		s3.5-0.167,3.5-0.167s-3.668-2.666-3.834-3.333s-0.166-1.667-0.166-1.667s1.167,1,4,1s3.833,0.499,7.333-0.667
		s7.501-2.332,10.167-3.166s5.999-1.834,9.666-2.334s3.166-0.999,7.5-0.666s9.334,1.332,10.667,1.666s4.333,1.667,4.333,1.667
		s-1.166-3.001-2.166-4.667s-1.834-3.5-1.834-3.5s0.666-0.832,3-0.166s5.001,1.332,7.334,2.666s7,4.167,7,4.167
		s1.667-1.333,1.5-2.833s0.666-7.667,0.333-8.667s4.833-1.166,8.833-1.833s7.334-0.834,8.834-1.167s4-0.333,4-0.333
		s-2.5-1.5-3.667-2s-3.5-1.667-3.5-1.667s0.001-0.833,3.167-1.333s2.833-0.668,6.833-1.334s2.668-0.833,6.834-0.833
		s5.332,0.167,8.166,1.167s5.334,2.5,5.334,2.5l1,0.166c0,0-0.167-1.999-0.667-3.166s-2.333-4.667-2.333-4.667
		s1.834,1.166,3.5,3.833s2.666,4.168,3.166,6.834s1.334,5.667,1.167,8.5s0,4.999-1,8.166s-2.167,5.501-3.5,7.834
		s-2.833,3.999-4.333,5.666s-6.334,6.167-6.334,6.167s3.5-0.834,6.5-2.667s8.001-5.999,10.834-9.166s5.166-6.334,5.833-8.334
		s1.499-5.999,1.333-9.166s-0.166-7.334-0.666-8.834s-1.5-5.5-2-6.333s-0.5-2.667-0.5-2.667s0.667,0.166,2.5,2.5
		s3.833,5.667,3.833,5.667s0.167-5-0.333-7.5s-0.668-6-1.834-8s-4.5-6.167-5.5-6.667s-5.167-3.167-6.5-3.333
		s-4.666-1.167-5.666-1.167s-3.667-0.833-3.667-0.833l8.667-6.167c0,0-7.5,0.666-9.667,1.333s-7.168,2.333-8.834,3.5
		s-7.5,4-8.833,5.667s-7.167,7.668-8.167,8.834s-6.5,7.333-7.333,7.833s-2.499,1.333-4.333,2.5s-5,2.333-6.167,2.833
		s-5.167-0.333-6-0.333s-3.667,0.167-3.667,0.167s1.833-2.001,3-2.834s4.167-2.166,4.167-2.166s-3.833,0.166-4.833,0.166
		s-3.668,0.168-5.334,0.834s-6.666,2-6.666,2s0.833-1.833,1.5-2.5s1-1.334,1-1.334s-6.333,1-7.833,2.167s-3,2.333-3,2.333
		l-1.167-3.333c0,0-1.333,1.001-2.333,1.667s-5.667,2-5.667,2l3.5-4.667l-15.166,3.5c0,0,2.332-1.667,3.166-3
		s2.334-4.167,2.334-4.167s-2.666,1.834-4,2.834s-3.167,1-6.167,1.5s-6.667,0.666-6.667,0.666l3.833-5.833c0,0,0,0.833-3.5,1.5
		s-6.5,0.333-6.5,0.333l2.334-1.833c0,0-7.833-3.834-10.5-5.667s-10.666-7.333-12.5-8.5s-10.834-6.5-10.834-6.5s1.667-1.834,2.667-2
		s2.834-0.167,2.834-0.167h0.833c0,0-5-3.5-6.167-3.833c-1.167-0.333-3.833-1.167-4.667-1.167s-5.333,0-5.333,0
		s1.167-1.167,1.5-3.333s0-8.833-0.833-11.167s-2.333-7-3.5-10.167s-3-7.667-5-10.167s-9-8.167-9-8.167l-0.667-0.667l3.167,5
		c0,0,2.333,3.667,3.333,6s3.167,7.167,3.333,8.167s1,4.333,1.167,5.667s0.667,6.167,0.667,6.833s0.167,5.333,0,5.833s-0.5,3-0.5,3
		l-8.167-7.667l-3.667-2.667c0,0-6.5,0.667-8.833,1.333s-6.167,1.5-7.667,2.333s-4.833,1.167-7.333,2.5s-5.5,3.5-6.833,4.167
		s-5.167,3.5-5.167,3.5"/>
	<polyline fill="#737679" points="70.292,17.499 77.293,30.833 78.793,29.999 73.793,20.333 	"/>
	<polygon fill="#737679" points="82.626,46.666 79.459,57.499 82.126,58.499 	"/>
	<path fill="#737679" d="M92.959,133.499l4,15.333l-7.666,21.5c0,0-4.5-0.666-5.667-0.333s-4.5,1.667-5.833,2.5
		s-4.667,2.334-5.333,3s-1.5,2.666-1.5,2.666s-0.333,1.167,1.833,1.667s4.833,0.833,6.333,1s6.5,0.167,6.5,0.167s1.333-0.666,3-2
		s3.5-2.833,4.5-3.5s4.167-1.667,4.167-1.667l6.167-12l10.166-5.5l-2.5-4.333l3.5,1l1-1.5c0,0-1.5-3.334-2-4.667
		s-1.5-5.167-1.5-5.167s-4.332-3.334-5.666-4s-8.167-3.333-8.167-3.333l-5.5-1.5"/>
	<path fill="#737679" d="M155.126,139.332c0,0-0.666,5.334-0.833,6.667s-1.667,5.332-2.167,7.166s-2.167,6.5-2.667,7.5
		s-6.833,13-6.833,13s-4-0.167-5,0s-4.667,0.168-5.167,0.334s-3.499,0.833-4.166,1.833s-4.167,4.833-4.167,4.833l1.333,0.5
		l-0.833,0.5l5.333,1c0,0,5,0.334,6.167,0.334s2.167,0.334,3.5,0s4.833-1.334,4.833-1.334l2.334-1c0,0,0.5-1,2.5-4
		s4.666-6.5,5.666-7.833s8.834-10.499,9.834-11.833s10.5-10.834,10.5-10.834l-9,2.167l7.833-6.667c0,0-3.334-1.499-5.667-2.666
		s-5.833-3.167-6.833-3.667s-2-1.167-2-1.167l-2,0.5l2.667,0.667c0,0-1.334,1-2.167,2S155.126,139.332,155.126,139.332z"/>
	<polygon fill="#737679" points="106.46,137.665 110.126,139.332 112.293,142.332 110.959,142.999 	"/>
	<polyline fill="#737679" points="88.126,80.332 93.959,87.332 96.125,91.999 93.459,90.665 	"/>
	<path d="M17.875,95.624c0,0-2.5,1-5.375,2.25s-5.375,2.75-6.375,3.375s-1.5,1-1,1.75s1.75,1.75,2.75,1.875s4.375,1.125,4.375,1.125
		l1.75,0.5l4.5-4.5l3.625-5.5l1-1.5h-4.75"/>
	<path d="M16,95.374c-0.375,0.125-6.375,2.5-7.625,3.5S5,101.999,5,101.999l8.125-2.625l3.875-3L16,95.374z"/>
	<path d="M24.5,111.749v6.25l2.625,0.5c0,0-0.625-0.125-0.25-1.5s1.875-2.625,1.875-2.625L24.5,111.749z"/>
	<path fill="none" stroke="#000000" stroke-width="0.75" d="M33.875,65.499l-2.25-3c0,0,9.5-7.5,13-9s12.25-4.5,14.5-5
		s9.25-1.25,9.25-1.25s0,0,1-5.75s0-24.25,0-24.25s3.875,1.625,7.5,5.875s6.25,9,7.25,11.625s4,12.25,4.375,14.875
		s0.125,6.375-0.375,8s-0.875,3-0.875,3s1.125-0.125,4.25,0s4.75,0.625,6.75,1.5s4.625,3.125,4.625,3.125s-3.125,0.625-5.625,1.75
		s-4.375,2.625-4.375,2.625s0.25-0.125,3.125,1.625s7,6.5,7,6.5h-6.25"/>
	<line fill="none" stroke="#000000" stroke-width="0.75" x1="30.5" y1="84.249" x2="13.5" y2="95.874"/>
	<path fill="none" stroke="#000000" stroke-width="0.75" d="M12.625,107.999c0,0-2.75-0.75-6-1.25s-6.25-1-6.25-2.75s2.5-4.5,5.5-6
		s9.5-3,11.75-2.75s5.5,0,5.5,0s-1,1.75-3.25,5S12.625,107.999,12.625,107.999z"/>
	<path fill="none" stroke="#000000" stroke-width="0.75" d="M3.125,106.249c0,0-0.25,3.25,0.5,5.25s1.25,4.5,1.25,4.5
		s2.5,0.75,4.25,0.5s3-1,4-2.25s1.5-2.5,1.5-2.5l-2-3.75"/>
	<path fill="none" stroke="#000000" stroke-width="0.75" d="M24.375,111.749l0.25,6.25c0,0,3.5,0.25,4.75-0.25s1.25-1,1.5-1.75
		c0.18-0.54-3.273-2.508-5.218-3.566C24.902,112.022,24.375,111.749,24.375,111.749h-9.75"/>
	<path fill="none" stroke="#000000" stroke-width="0.75" d="M94,76.374c0,0,2.125,1.375,4.25,4.125s4.5,8.125,4.5,8.125
		s-5.5-2.625-6.875-3.25s-4-0.875-4-0.875s1,1.125,2.75,3.625s2,5.25,2.375,6.875s0.5,2.375,0.5,2.375s-2.5-1.375-5.375-2.375
		s-6.25-2.125-8.25-2.5s-4-0.75-4-0.75l5.625,8.625c0,0-4.5-1.5-7.625-1.75S67,98.249,67,98.249s-2.375,6.625-3.375,8.625
		s-1.875,3.875-3,5.125s-2.875,3.375-3.625,4.25s-2.125,1.875-2.125,1.875s0.875,1.625,1.625,2.5s1.5,1.25,1.5,1.25
		s-0.375,0.375-1.625,1.125s-5.625,1-5.625,1l-1.25-0.25l0.375,4.125c0,0,0.125,1.125-1.375,1.25s-4.25-2-4.25-2l-1.5-2.25"/>
	<path fill="none" stroke="#000000" stroke-width="0.75" d="M9.125,116.499c0,0,0.5,1.75,2.25,2.375s2.75,1.125,2.75,1.125
		s0,2.375,0.875,3.375s1.75,1.5,3.375,1.75s8.875,0.125,10.5,0.125s6.5-2.25,7.5-3s1-0.75,1-0.75s1.5,4.75,2.5,5.5
		s2,2.375,2.875,2.5s1.75-1.75,1.75-1.75"/>
	<path fill="none" stroke="#000000" stroke-width="0.75" d="M81.875,113.999l-2.125-0.375l-0.5-11.875c0,0-5-3.125-5.375-3.25"/>
	<path fill="none" stroke="#000000" stroke-width="0.75" d="M84.375,109.749"/>
	<path fill="none" stroke="#000000" stroke-width="0.75" d="M84.375,109.749c0,0-2,3.625-2.625,5.125s-2,3.875-3.25,4.875
		s-1.25,1-1.25,1s2.75,0.125,4.375-0.375s2.125-0.5,2.125-0.5"/>
	<path fill="none" stroke="#000000" stroke-width="0.75" d="M83.625,117.749c0,0-0.75,4.5,0,6.75s0.75,2.25,0.75,2.25
		s1.5,3.625,5.5,5.5s2.375,0,9.25,2.5s10,3.5,12.125,5.625s3,3.75,3,3.75s-0.25-4-0.875-4.5s-2-1.625-2-1.625"/>
	<path d="M48.75,76.374c0-0.375-0.5-0.625,0.875-2.625s1.75-2.625,3.125-3.375s3.75-0.625,4.75-0.375s4,2.375,4.5,3.125
		s1,2.25,1,2.25s-1.25-1.25-2.25-2s-2.625-2-3.625-2.125s-2.916-0.25-3.833,0.333s-2.333,1.5-2.75,2.167s-1.5,2.167-1.5,2.167"/>
	<path d="M31.542,78.916"/>
	<path d="M31.542,78.916c0,0,0.228-0.271,0.564-0.667c0.701-0.825,1.873-2.187,2.436-2.75c0.833-0.833,2.333-1.083,3.583-1.167
		s1.917,0.167,2.917,0.417s2.167,1.334,2.833,1.917s1.25,1.75,1.25,1.75s-1.25-0.666-2.167-1.333s-1.917-1.5-2.667-1.667
		s-1.5,0-2.25,0.083s-1.083-0.25-1.833,0.25"/>
	<path fill="none" stroke="#000000" stroke-width="0.75" d="M89.292,183.999c0,0-1.5,0-2.167-0.167s-1.667-1.333-1.667-1.333
		s2.167-2.834,3.167-3.667s3.833-2.333,5.667-3.5s5.333-1.667,7.667-2s4.666-0.333,4.666-0.333l10-24.5
		c0,0-3.333-9.834-3.833-13.167s-1.5-7.5-1.5-7.5"/>
	<path fill="none" stroke="#000000" stroke-width="0.75" d="M96.292,177.165c0,0-4.167,3-5,4s-2.167,3.833-1.167,4s6-0.166,6-0.166"
		/>
	<path fill="none" stroke="#000000" stroke-width="0.75" d="M102.459,179.165c0,0-2.166,0.834-3.5,2.667s-3.167,4-3.167,4
		s4.999,0.167,7.333,0s8-1.667,9-2s1-0.333,1-0.333l9.5-19.167l16-8.5l-5.666-3h5.666c0,0-2.833-2.333-3.333-4.5
		s-0.999-2.166-1.333-5.833s-0.167-9.834-0.167-9.834"/>
	<path fill="none" stroke="#000000" stroke-width="0.75" d="M59.125,48.499c0,0-3.167-5-4.667-6.333s-3.833-3.167-6.333-4.5
		s-7.833-2.833-9-3.167s-6.167-1.167-6.167-1.167s2.333,2,3.667,3.667s3,4.333,3.667,6.5s2.5,7.667,2.667,8.667s0.333,2,0.333,2"/>
	<path fill="none" stroke="#000000" stroke-width="0.75" d="M96.292,67.333c0,0,5.667,3,10.167,6.167s10.333,7.168,13.333,8.834
		s8.501,5,9.667,5.333s1.166,0.333,1.166,0.333l-2.166,1.834c0,0,2.833,0.166,4.333,0.166s5.667-1,5.667-1l-3.834,4.833
		c0,0,1.833,0.5,4.333,0s4.834-0.5,7.167-1.5s5.333-3.333,5.333-3.333s-2.166,3.333-3.166,4.833s-2.5,2.834-2.5,2.834l14.833-3.834
		l-3.166,4.5c0,0,1.666-0.166,3.333-0.833s4.833-2.833,4.833-2.833l0.334,2.833"/>
	<path fill="none" stroke="#000000" stroke-width="0.75" d="M137.459,150.499c0,0,2,0.666,3.5,0.333s3-1.333,3-1.333l-2.334-3
		c0,0,3.333-0.667,5.5-1s7-3,7-3l-2.5-1.333c0,0,3.166-1.334,5-2.334s3.667-3.5,3.667-3.5l-2.833-0.5l2.166-1"/>
	<path fill="none" stroke="#000000" stroke-width="0.75" d="M146.458,184.666l-1.166-0.167c0,0,2.5-2.667,3.666-4s3.5-2.333,4.334-3
		s3.333-0.5,5.666-0.5s7,0.167,7,0.167s3.334-6.167,4.5-8.167s4.334-9.667,5.5-13.333s3.834-13,3.834-13s-3.667-0.667-6.167-1.5
		s-5.5-2-9.333-4.334s-5.5-4.166-8.833-7s-3.5-5-4.167-8.666s0.5-7.334,2-10.334s3.167-5,5.833-7.833s8-6.833,10.834-8.333
		s7.666-2.334,7.666-2.334l-2.667,4.001c0,0,0,0.332,3-0.834s6.333-2,7.5-2s6.667-0.166,6.667-0.166s-3,1.499-4.5,2.666
		s-3.167,2.167-3.167,2.167s1.001-0.167,4.334,0s3.5-0.166,5.333,1.167s3.001,2.5,3.667,4s1.166,3,1.166,3"/>
	<path fill="none" stroke="#000000" stroke-width="0.75" d="M153.958,179.166c0,0-2.999,1.666-4.166,2.833s-3.334,3.5-3.334,3.5
		l4.334,0.333l4.333-0.333"/>
	<path fill="none" stroke="#000000" stroke-width="0.75" d="M159.792,180.666c0,0-1.334,1.167-2.667,2.5s-2.5,3.333-2.5,3.333
		s1.666,0.167,4.333,0.167s6,0,7.667-0.5s4.333-1.167,4.333-1.167s5.668-10.167,7.334-12.167s6.166-9.166,8.666-11.666
		s4.501-4.667,6.834-6.834s7.833-7.833,7.833-7.833l-8.833,1.833l7.667-6.833l-8.334-11.167c0,0,0.501-1.666,2.334-5.333
		s3.666-7.666,4.166-9.5s0.334-6.834,0.334-6.834"/>
	<path fill="none" stroke="#000000" stroke-width="0.75" d="M193.459,98.666c0,0,1.334-0.001,5.834-2.167s7.332-4.666,9.666-7.333
		s9-10.5,11.5-12.5s5.833-4.334,9.833-6.167s9-3.167,11-3.667s6.334-0.667,6.334-0.667s-5.166,4-6.5,5s-1.334,1-1.334,1
		s0.833,0.5,5.167,1.333s4.834,1.167,7.834,2.833s6,4.833,7.333,7.5s1.999,7.168,2.333,9.834s0.167,6.166,0.167,6.166
		s-2.667-4-3.5-5s-3.333-3.166-3.333-3.166s1.666,3.334,2.666,7.5s0.999,7.501,0.833,10.667s0,6.333-1,8.833
		s-2.333,4.166-4.333,6.833s-2.166,2.501-5.833,5.667s-6.001,5-7.834,6s-5,2.166-5,2.166s2.166-5.167,3-7.5s1.334-6.499,1.334-8.666
		s-0.334-6.833-0.834-8s-4-5.334-4-5.334l-2,10.667c0,0-2.5-5.833-3.333-7.333s-3.334-4.5-5.167-5s-8.5-0.666-9.333-0.5
		s-2.833,0.333-2.833,0.333l6.166,12l-9.666-4.5c0,0-4.666-1.333-6-1.333s-3.5,0.5-3.5,0.5"/>
	<path fill="none" stroke="#000000" stroke-width="0.75" d="M155.126,140.166c0,0-1.166,7.166-1.833,9.833s-3.833,10.334-4.5,12.167
		s-6.333,11.666-6.333,11.666s-4.501-0.499-6.334-0.166s-3.832-0.333-5.166,0.5s-4.333,3.167-5,4s-2,2.333-2,2.333l1.5,0.5"/>
	<path fill="none" stroke="#000000" stroke-width="0.75" d="M137.293,177.832"/>
	<path fill="none" stroke="#000000" stroke-width="0.75" d="M138.126,177.666c0,0-3,2.333-4,3.333s-2,1.833-2,1.833
		s-2-0.166-3-0.166s-4.5-0.667-4.5-0.667s1.667-1.833,2.667-2.833s3.833-2.5,3.833-2.5"/>
	<path fill="none" stroke="#000000" stroke-width="0.75" d="M132.126,182.832c0,0,2.666,0.001,4,0.334s5.501-0.166,6.834-0.5
		s4-1.667,4-1.667s2.334-3.667,3.5-5.5s5-6.999,6.5-8.833s7.834-9.5,9.5-11.167s8.5-8.833,8.5-8.833l-8.667,2.166l8-7.166"/>
	<path fill="none" stroke="#000000" stroke-width="0.75" d="M92.792,132.999l4,15.833c0,0-3,8-3.167,9s-4.333,12.333-4.333,12.333
		s-5.833-0.166-7.333,0.334s-5.333,2.333-6.833,3.333s-4.667,3.667-4.667,3.667s0,1.834,2,2.5s5.833,1.166,7.667,1.333
		s6.5-0.167,6.5-0.167"/>
	<path fill="none" stroke="#000000" stroke-width="0.75" d="M72.459,179.999c0,0,1.667-2.501,3-3.334s4.167-2.666,4.167-2.666"/>
	<path fill="none" stroke="#000000" stroke-width="0.75" d="M80.126,181.332c0,0,1.833-3.5,2.333-4s2.5-2.167,2.5-2.167"/>
	<path fill="none" stroke="#000000" stroke-width="0.75" d="M69.375,17.249c0,0,2.917,4.583,4.751,8.416s3.167,4.833,4.333,8.5
		s2.166,6.334,2.333,8.667s0.5,5.167,0.333,7s-0.667,5.333-0.833,6.167"/>
	<path fill="none" stroke="#000000" d="M113.126,142.499"/>
	<path fill="none" stroke="#000000" stroke-width="0.75" d="M112.459,142.332c0,0,1,4.333,1.667,6s1.333,3.5,1.333,3.5"/>
	<polyline fill="none" stroke="#000000" stroke-width="0.75" points="114.959,153.165 111.626,152.665 113.626,155.499 	"/>
	<polyline fill="none" stroke="#000000" stroke-width="0.75" points="113.626,156.499 103.293,161.832 97.793,173.665 	"/>
	<path fill="none" stroke="#000000" stroke-width="0.75" d="M44.625,70.749c0,6.627,5.373,12,12,12h3.5c6.627,0,12-5.373,12-12v-1
		c0-6.627-5.373-12-12-12h-3.5c-6.627,0-12,5.373-12,12V70.749z"/>
	<path fill="none" stroke="#000000" stroke-width="0.75" d="M46.329,76.459c-0.71-0.759-1.125-1.998-1.21-3.154
		c-0.001-0.004-0.003-0.009-0.004-0.014c-0.036-0.114-0.066-0.228-0.099-0.342c-0.016-0.055-0.033-0.107-0.047-0.163
		c-0.436-1.561-0.593-3.046-0.189-3.97c-0.033-0.107-0.071-0.21-0.127-0.292c-0.064-0.096-0.083-0.188-0.085-0.276
		c-1.96-1.941-4.667-3.167-7.692-3.167c-5.983,0-10.833,4.701-10.833,10.5c0,5.799,4.85,10.5,10.833,10.5
		c5.02,0,9.223-3.315,10.453-7.806C46.893,77.813,46.584,77.126,46.329,76.459z"/>
</g>
</svg>
