<?xml version="1.0" encoding="utf-8"?>
<!-- Generator: Adobe Illustrator 13.0.0, SVG Export Plug-In . SVG Version: 6.00 Build 14948)  -->
<!DOCTYPE svg PUBLIC "-//W3C//DTD SVG 1.1//EN" "http://www.w3.org/Graphics/SVG/1.1/DTD/svg11.dtd">
<svg version="1.1" xmlns="http://www.w3.org/2000/svg" xmlns:xlink="http://www.w3.org/1999/xlink" x="0px" y="0px"
	 width="297.854px" height="184.401px" viewBox="0 0 297.854 184.401" enable-background="new 0 0 297.854 184.401"
	 xml:space="preserve">
<g id="frame_1_1_">
	<path fill="#FFA82B" d="M65.934,29.042l7.5-5.333L85.1,8.208l3-2.5c0,0,8.5-3.5,10.5-3.667s7-0.5,7.5-0.5s5.5,1.833,5.5,1.833
		s2.167,2,2.667,2.333s4.5,3.667,5.667,4.5s3.667,4.667,3.667,4.667s-0.666,6.833-0.833,7.833s-0.667,5.167-2.333,9
		s-4.667,8.333-5.5,9s-8.333,2.833-8.833,2.833s-12,0.667-12.5,0.667s-5.5-3.167-6-3.333s-11.333-3.833-12.333-4.5
		s-8.333-4.833-8.333-4.833L65.934,29.042z"/>
	<path fill="#FFA82B" d="M296.6,115.376l-2.5-10.167l-2.834,1l-1,3.5l-0.832,4c0,0,0.666,3.999,0.332,5.833
		c-0.332,1.834-1,4.834-1.5,6.167s-0.5,1.166-1.832,2.833c-1.334,1.667-0.334,2.001-2,2.834c-1.668,0.833-3.166,1.499-6.166,1.666
		s-6,0.001-10-0.666s-7.668-2.5-9.334-3.667s-4.332-3.833-5.666-6.333s-4.002-9-4.334-10.5c-0.334-1.5-2.334-7.332-3.334-10.666
		s-3.166-10.334-4-11.167c-0.832-0.833-3-5.001-4.666-5.667s-4.5-3.833-6.166-4.5c-1.668-0.667-2.666-3.667-5-5
		s-5.002-3.499-6.002-3.667c-1-0.166-7.166,0-8.832,0c-1.668,0-4.5,0-6.5,0.334c-2,0.333-4.834,0.834-8.668,1
		c-3.832,0.166-6.498,0-9.166,0c-2.666,0-8.832-0.334-11.5-1.334c-2.666-1-8.666-2.999-10.666-3.166s-9.334-1.833-10.668-2.333
		c-1.332-0.5-7.832-2.833-8.832-2.833S133.1,59.709,133.1,59.709l-1.832-0.168l-18.5,18.167c0,0,2.667,21.499,2.667,21.999
		s9.667,13.334,9.833,13.834s3.5,6.5,3.5,6.5l3.501,7l0.832,3.667c0,0-10,27.333-10.5,27.5s-12.333,1-14,1.667
		s-4.666,2.833-6.333,4.333s-3.333,4-3.333,4s3.167,1.833,5,2.5s9,1.334,10.833,1.167s9.333-1.667,9.333-1.667
		s5.333-5.333,5.333-5.833s3.668-12.999,4-13.833c0.334-0.834,8.834-9.167,9.334-9.667s6.832-5.166,5.832-5.5
		s-3.166-1.334-2.832-1.834c0.332-0.5,2.998-7.5,2.832-9.333s2.834-10.833,2.834-10.833l1,0.166c0,0,2.834,4.001,3.834,3.834
		s13.832-3.667,13.832-3.667l9.168-1.667l8.609,3.815c0.207-0.202,0.496-0.301,0.854-0.157c1.109,0.446,2.336,0.544,3.354,1.222
		c0.186,0.123,0.301,0.279,0.367,0.446c0.801,0.166,1.537,0.449,1.977,1.272c0.01,0.016,0.008,0.031,0.014,0.047
		c2.111,0.852,5.168,2.081,5.492,2.188c0.5,0.166,6.166,3.667,7.166,4s4,1.833,4,1.833s-1.5,7.333-3,11.333s-3.666,7.5-4.666,10.167
		s-2.5,5.833-3.834,8c-1.332,2.167-4,5.833-4,5.833s-9.166,0.166-11.166,0.5s-4.168,1.334-5.5,2.334
		c-1.334,1-3.166,2.333-3.834,3.333c-0.666,1-2,2.5-2,2.5l2.668,0.667c0,0,0.166,0.666,2,0.833c1.832,0.167,5.832,0.167,5.832,0.167
		l-0.832,0.5c0,0,2.5,0.334,5,0.5s8.5-1.5,8.5-1.5l6-1.167c0,0,7.332-13.167,9.166-16.5s6.5-13.333,7-14s4.666-11.666,4.166-11.833
		s2.5-8,2.5-8s-0.453-1.302-1.053-3.045c-1.352-2.472-2.398-5.067-3.121-7.826c-0.078-0.293,0.014-0.654,0.223-0.902
		c-0.031-0.116-0.049-0.194-0.049-0.227c0-0.5,4-6.334,4.5-7.334c0.299-0.597,1.605-2.318,2.611-3.612
		c0.756-1.247,1.693-2.523,2.883-3.031l1.506-1.356l1.5-3.666c0,0,4.834,9.5,5,11c0.168,1.5,3.166,12.499,3.5,14.666
		s5.5,10.834,6.168,11.334c0.666,0.5,10.998,10.167,11.498,10.5s9.168,2.333,11.168,2.333s8.666,0.834,9.332,0.667
		c0.668-0.167,6.834-0.667,6.834-0.667s2-0.167,5-4.667s3.332-6,4.166-8.333S296.6,115.376,296.6,115.376z"/>
	<path fill="#B2751E" d="M108.225,52.875L111.975,69l5.25,2c0,0,7.5-3.75,7.875-4s4.75-4.625,4.75-4.625l2.25-1.625l-0.375-1
		c0,0-5.75-3.75-7.875-6s-9.75-8.5-10.25-8.5s-1.875,7-1.875,7L108.225,52.875z"/>
	<path fill="#7F5415" d="M166.475,117.25c0,0,4,2.125,6.625,3.5s8.875,3.625,9.25,3.875s3.125,1,3.125,1s-5.5,16.5-5.75,17.375
		s-2.75,5.25-2.75,5.25l-5.875,10.375l-0.375,0.875c0,0-5.125-1.5-7-1.25s-6.625,1.375-7.5,2s-2.5,1.875-3.375,3
		s-2.5,3.875-2.5,3.875l1.75,0.125l-0.125,0.875L160.1,168l-0.75,1.25c0,0,6.5,0.25,7.875-0.125s8-1.875,8-1.875L176.1,167
		c0,0,5.625-9.625,9-14.25s9-10.875,9-10.875l13.75-13.375l-10.625,2.125l8-7.25c0,0-9.625-5.375-10-5.5s-10.25-6-10.25-6
		l-3.5,1.875l-8.75-0.125l-5.75,3.5"/>
	<path fill="#7F5415" d="M108.6,119.5l3.75,11.625l-9.875,23.125c0,0-6.75,0.625-8.25,1s-7.5,4-9.375,5.75s-2.625,2.625-2.625,2.625
		s1.625,1.75,2.25,1.875s1.375,0,1.375,0l0.5,0.5l2.25,0.25l3.125,0.125L92.6,167l0.75,0.25l2.875-0.125l2.875,0.125
		c0,0,3.125-3.625,4.5-4.375s5.625-3,5.625-3l2.625-0.25L118.1,146l12.5-7.75l-0.125-0.75l-3.625-2.5l5.875,0.125l-1.25-2.625
		c0,0-1-1.25-1.25-2.625s0.375-4.625,0.375-4.625l-16.75-5.875L108.6,119.5z"/>
	<path fill="#B2751E" d="M232.225,93.5c0,0-7.875,5.25-10.625,7.625s-5,6.875-5.25,8.875s-1.25,4.25,1.25,7.375s5.75,7,5.75,7
		l-8,10.125l3.25-0.625c0,0-10.875,14.5-12.875,18.875s-6.5,13.625-7,14.125s-3.625,5.5-3.625,5.5l7-1.625c0,0,8-13.25,8.375-14
		s8.25-10.375,9.375-11.875s9.625-10.25,9.625-10.25l6.25-5.875l-10.875,2l9.5-8.625L225.1,110c0,0,4.5-8.125,5.25-9.875
		S232.225,93.5,232.225,93.5z"/>
	<path fill="#B2751E" d="M153.1,111.25l-0.09-1.617L152.975,109c0,0-5.125,4.5-5.875,7s-2.125,10.625-2.375,13.375
		s0.25,3.625,0.25,3.625l-7.25,0.25l5.5,5.375c0,0-2.25,0.125-4.875,2s-5.75,5.25-6.875,7.5c-1.125,2.25-2.375,5.375-2.75,7.625
		s-1,6.375-2.125,8s-5.625,7.375-5.625,7.375l8.5-2.125l11.125-21.125l16.5-9.125l-5.75-2.625l6.5-0.125c0,0-4.5-7.625-4.75-9.375
		s0.375-10.5,0.375-10.5"/>
	<path fill="#B2751E" d="M153.35,113.75c0,0,8.625-2.25,12-3.375s8.75-2.5,10.25-2.875s6.5-1.625,6.5-1.625l3.625,5.125
		c0,0-16.375,4.5-16.75,4.625s-12.25,3.75-12.25,3.75l-3.5,0.375L153.35,113.75z"/>
	<path fill="#B2751E" d="M232.6,87.5c0,0,1.875,1.375,4.625,6.75s4.25,10.125,5.125,13.375s4.75,11.125,7,14.5
		s8.25,10.5,13.125,12.5s6.625,2.75,10.5,3.125s9.75,0.625,10.125,0.625s5.5,0.375,5.5,0.375s-2,1.5-3.25,1.875
		s-8.75,1.5-9.75,1.375s-10.875-1.125-14.25-2.5s-8.125-4-8.625-4.5s-5.375-6.625-5.375-6.625l-4.25-6.625l-1.5-3.25l-3.5-13.125
		l-1.25-4.625l-3.125-6.375l-1.5-0.875L232.6,87.5z"/>
	<ellipse fill="#FFFFFF" cx="96.225" cy="22" rx="10.75" ry="10.5"/>
	<ellipse fill="#FFFFFF" cx="78.6" cy="19.938" rx="8.875" ry="7.688"/>
	<path fill="#FFFFFF" d="M104.225,7.375c0,0-3.25,0.625-6.25,2.25s-7,5-7,5S85.6,24.875,85.1,26.5s-0.375,4.75,0.5,6
		s0.75,1.75,3.5,2.375s8.5,0.625,11.125,0.5s6.125-4,6.125-4l4.5-6c0,0,1.125-3,0.625-5.375s-1.625-9.125-3.125-10.125
		s-3.625-3.125-3.625-3.125"/>
	<path fill="#FFFFFF" d="M85.975,7.25c0,0,0.875,4.375,0,6.625s-4.5,9.5-4.5,9.5s-4.25,5-4.625,5.125s-0.625,0.375-1.625,0.125
		s-4.875-2-4.875-2l3.625-4.5L79.225,14l-2-1.125l0.875-1.25l8.125-4.875"/>
	<path fill="#FFFFFF" d="M124.1,17.125l22.375-7.25c0,0-0.5,4.5-2,6.875s-5,5.625-6.25,6.75s-5.625,3.5-6.875,4.125
		c-1.25,0.625-3.625,1.875-4.625,2.25s-1.5,0.625-1.5,0.625L124.1,17.125z"/>
	<path fill="#FFFFFF" d="M67.225,44.5c0,0-6.875-8.375-7.25-9.5s-0.75-3.25-0.5-3.875s1.25-2,1.25-2l3.5-0.375l5.125,0.5l7.25,2.5
		l2.375,3l-4.125,0.875l-8.125,0.5l1,8.375"/>
	<path fill="#FFFFFF" d="M59.85,34.125c-0.375,0-2,2.375-2.375,3.375s-0.75,3.5-0.875,4.375s0.625,4,0.75,4.625s1.5,3.25,1.5,3.25
		s-0.375,1.875-0.625,3s-1.125,3.875-1.125,5s0,3.75,0.125,4.625s0.25,3.75,0.5,4.5s0.875,2.375,1.25,3s0.75,1.625,1.5,2.25
		s1.5,0.875,1.5,0.875l1.125-1l2.125,1.875c0,0,1.5,1,2,0.875s1.125-0.5,1.25-0.875s0.25-2.375,0.25-2.375l1.125,0.375
		c0,0,2.25,2.5,2.875,2.375s1.375-0.375,1.375-0.375l0.25-2.75l0.875-0.875h3.625l1.625-1l-1-2.625L78.35,64l6.25-5.25l3.625-7.625
		c0,0,8.875-3.5,9.5-3.25s9.125-1.75,9.5-1.5s4-2.25,4-2.25l4-1.375l3.5-7l-0.875-3.375c0,0-5.625,5.75-6.5,6.25
		s-6.75,1.875-7.125,2s-2.875,0.25-7.25-0.25S87.35,38.25,86.1,38s-4-2.125-4-2.125l-5.875-0.125"/>
	<path fill="#FFFFFF" d="M113.475,75.125c-0.375,0.25,1.125,14.5,2.5,20.125s1.875,8,4.625,10.75s8,6.75,8,6.75l1,7.375
		c0,0-9.5-2.5-10.5-2.625s-7.875-3.625-8.5-4.375s-4.875-7.875-5.125-8.5s-0.625-12.25-0.75-13.375s2.75-10.5,2.75-10.5
		s4.25-4.375,4.625-4.625"/>
	<path fill="#B1B1B1" d="M123.1,18.875l-6.125,14.75l-0.75,7.75L110.975,40l-2,0.375l-0.5,3.375c0,0-6.375-0.25-9.25,0.75
		s-8.25,3.125-10.5,5.25s-3.625,2.625-4.5,4.375s-1.375,5.5-1.375,5.75s4.625-3,4.625-3l4-1.875l1.875-0.25l0.375,4.375
		c0,0,1.5,12.375,1.375,15.125s-2.875,13.875-4.125,17.125S81.725,116,81.725,116l9.375-7.625c0,0,4,8.75,7.75,11.875
		s9.75,6.375,9.375,6.25s-4.25-4.5-4.625-6.25s-0.375-4.625-0.375-4.625s3.125,2.875,5.125,4.5s7,4.375,9.5,5.25
		s7.625,1.875,7.625,1.875l6.75-0.125l-2.75-10c0,0,1.125,1.375-7-0.375s-4.375-1.625-6.125-2.375S112.975,112,112.975,112
		l8.375-0.375c0,0-3.5-1.75-6.125-3.625s-4.25-4.625-5.875-8.875s-1.875-6.25-1.75-10.125s1.75-7,2.25-10.125s2.625-7.75,2.625-7.75
		S111.85,65,111.225,63s-2.75-8.375-2.75-8.375l14.5,3.375c0,0-8.625-10.125-8.25-9.875s14.5,10.25,14.5,10.25l-6.25-16.25
		L134.475,55c0,0-6.25-15.25-7.125-16.625s-2.125-8.5-2.125-8.5s-0.75-5.75-0.875-6.875s-0.875-4.75-0.875-4.75"/>
	<path fill="#B1B1B1" d="M153.6,115.375c0,0-0.375,6.5-0.375,7s2.25-0.25,2.25-0.25l9.25-3.875l7.125-2.125
		c0,0,4.5-0.625,4.875-0.75s6.625-0.875,6.625-0.875l4.25,0.875l4.625,1.625c0,0-3.875-3.5-4.5-3.875s-2.25-2.375-2.25-2.375
		s-2.125-0.75-2.5-0.625s-6.375,0.25-6.375,0.25l-5.125,1.125l-8.375,1.875l-6.5,1.5L153.6,115.375z"/>
	<polygon fill="#B1B1B1" points="198.225,120 210.35,128.25 211.6,124.75 	"/>
	<ellipse fill="#0092FF" cx="89.475" cy="23.313" rx="4.25" ry="3.688"/>
	<ellipse fill="#0092FF" cx="73.913" cy="20.188" rx="3.688" ry="3.188"/>
	<circle fill="#00426B" cx="88.975" cy="23.125" r="1.5"/>
	<circle fill="#00426B" cx="73.35" cy="20.25" r="1.25"/>
	<ellipse fill="#FFFFFF" cx="90.85" cy="21.5" rx="1.375" ry="1.125"/>
	<ellipse fill="#FFFFFF" cx="87.35" cy="25.438" rx="1" ry="0.938"/>
	<ellipse fill="#FFFFFF" cx="75.413" cy="19.063" rx="1.188" ry="1.063"/>
	<ellipse fill="#FFFFFF" cx="71.6" cy="22.125" rx="0.75" ry="0.625"/>
	<path fill="none" stroke="#000000" stroke-width="0.75" d="M78.1,11.5c0,0,3.625-2,6.375-3.5s7.125-3.75,10.25-4.75
		s4.625-0.75,7.125-0.875s4.125-0.375,5.75,0s3.375,0.75,6.5,3.125s5.875,4.875,7.625,8s2.375,4.5,2.625,8.125
		s-0.125,4.875,0.875,9.625s0.5,4.625,2.625,8.625s6.625,15.875,6.5,15.5S122.225,42.25,122.225,42.25l7,16.375l-14.75-10.375
		l7.875,9.625c0,0-7-1.5-11.625-2.5s-14-1-16.25-0.75s-7.625,2.375-9.75,4s-6.5,5.25-6.5,5.25s1,3.25,1.5,4.25s0.625,1.75,0,2.25
		S76.85,70.5,76.475,70.5s-2-0.25-2-0.25"/>
	<path fill="none" stroke="#000000" stroke-width="0.75" d="M74.225,68.875l-0.125,5c0,0-0.5,0.625-0.875,0.75
		s-2.375-1.25-2.375-1.25l-3.625-4.25"/>
	<path fill="none" stroke="#000000" stroke-width="0.75" d="M68.225,70.125c0,0,0.625,2.5,0.25,3.5S67.6,75,66.225,74.75
		S63.35,72,63.35,72l-1.375-2.75"/>
	<path fill="none" stroke="#000000" stroke-width="0.75" d="M63.225,71.375c0,0-0.625,1-1.375,1.5s-2.75-0.75-3.625-3.5
		s-1.625-7.25-1.5-9.5s0.75-5.875,1-6.75s0.375-2.75,0.375-3.25s-0.875-2.5-1.375-4.25s-0.25-3.5,0-5.125s2.375-6.125,2.375-6.125"
		/>
	<path fill="none" stroke="#000000" stroke-width="0.75" d="M59.85,30.25c0,0-0.625,0.25-0.5,2.375s-0.125,1.75,1.25,4s6.5,9,6.5,9
		s3-1.75,4.375-2.625s9.625-6,9.625-6l1.125-0.875c0,0-3.25-3.5-6.25-4.75s-8.5-2.5-10.125-2.5s-6,0.75-6,0.75"/>
	<line fill="none" stroke="#000000" stroke-width="0.75" x1="66.35" y1="28.875" x2="71.85" y2="24.875"/>
	<line fill="none" stroke="#000000" stroke-width="0.75" x1="67.1" y1="45.625" x2="66.35" y2="51"/>
	<path d="M59.85,49.875c0,0,0.238,0.015,0.636,0.043c1.62,0.115,5.883,0.456,7.489,0.957c2,0.625,9.875,5.5,9.875,5.5
		S74.1,54.75,73.1,54.25s-4.875-2.25-5.625-2.5"/>
	<path d="M109.6,2.625L122.475,0l-6,7c0,0-5.125-3.375-6-3.875"/>
	<path d="M119.975,10.625l26.875-1.5c0,0,0.125,1-0.625,1.25s-8.375,2.5-9.125,2.75s-6.25,2.125-8.375,3.25S124.1,18.75,124.1,18.75
		s-1.875-4.625-2.375-5.25S119.975,10.625,119.975,10.625z"/>
	<path fill="none" stroke="#020202" stroke-width="0.75" d="M125.225,30.375c0,0,3.875-1.125,6.25-2.5c2.375-1.375,6.375-4,8.5-5.75
		s4.75-5,5.25-6.75s0.75-2.625,1-3.5s0.125-2.25,0.125-2.25"/>
	<path fill="none" stroke="#000000" stroke-width="0.75" d="M63.225,29.25c0,0-3.75-0.125-3.875,1.875"/>
	<ellipse fill="none" stroke="#000000" stroke-width="0.75" cx="95.913" cy="22.25" rx="11.063" ry="10.375"/>
	<path fill="none" stroke="#000000" stroke-width="0.75" d="M85.115,23.876c-0.097-0.151-0.135-0.33-0.237-0.475
		c-0.149-0.212-0.09-0.439,0.056-0.604c0-0.008-0.005-0.013-0.005-0.021v-1.152c0-0.01,0.005-0.016,0.006-0.025
		c-0.003-0.033-0.009-0.063-0.006-0.1c0.02-0.214,0.105-0.416,0.125-0.625c0.003-0.029,0.016-0.05,0.021-0.077
		c0.033-0.625,0.148-1.231,0.373-1.819c0.041-0.107,0.109-0.179,0.185-0.236c0.023-0.057,0.053-0.111,0.079-0.167
		c-0.022-0.11-0.021-0.228,0.041-0.352c0.29-0.579,0.587-1.157,0.96-1.687c-1.408-2.606-4.362-4.412-7.8-4.412
		c-4.798,0-8.688,3.498-8.688,7.813s3.89,7.813,8.688,7.813c2.468,0,4.684-0.935,6.265-2.421
		C85.118,24.858,85.107,24.37,85.115,23.876z"/>
	<line fill="none" stroke="#000000" stroke-width="0.75" x1="76.35" y1="12.375" x2="80.475" y2="10.125"/>
	<path d="M113.35,19.875c0,0-0.136,0.256-0.367,0.688c-1.079,2.018-4.229,7.87-5.258,9.312c-1.25,1.75-5.375,5.125-6.5,5.875
		S96.6,38,96.6,38s6.5-1.125,7.875-1.75s3.5-2.75,4.75-4.625s2.125-3.375,2.5-4.75"/>
	<path d="M115.85,29.375c0,0-1.875,3.875-3,5.375s-5.125,4.625-5.625,4.75s-0.5,0.125-0.5,0.125S111.975,39,113.35,38
		s2.25-2.25,2.375-3.125S115.85,29.375,115.85,29.375z"/>
	<path d="M77.1,32.5c0,0-7.625-0.375-9.625,0s-4.25,1-4,2.625s3,9.125,3,9.125l1.375,1.625l4.875-3.5l9.5-6.25l-4.625-3.75"/>
	<path fill="none" stroke="#000000" stroke-width="0.75" d="M126.1,56.75c0,0,5.125,3.5,12.625,5.25s15.375,4.25,23.625,5.875
		s16.625,4.875,23.5,5.125s10.125,0.125,16.625-0.875s10-0.875,13.5-0.875s4.375,0.875,7.625,2.75s5.125,3.5,6.875,7.75
		s2.25,2.125,2.125,6.25s-0.5,6.625-1.5,10.25s-2.5,5.625-3.5,7.5s-2.625,4.875-2.625,4.875L234.35,122l-9.375,8.875l10.375-2
		c0,0-7,6.875-11.125,11.375s-10.25,11.375-12,14s-10.375,16.625-10.375,16.625s-7.625,1.875-10.625,2.25s-6.875,0.25-7.375,0.125
		s-2.25-0.75-3.75-0.75s-4.5-0.875-4.5-0.875l-2.25-0.875c0,0,0.625-1.625,2.375-3.375s2.5-2.375,4.25-3.25s3.75-1.625,6-1.875
		s10.125-0.125,10.125-0.125s5.5-8.875,7.125-12.625s6.125-16.75,6.125-16.75l2-8.125c0,0-9.625-2.375-12.625-4.25
		s-3.625-1.125-8.5-5.125s-5.5-5.25-7.25-8s-3.25-8.125-3.125-10.5s1.5-7.75,5.125-12.125S194.1,75,194.1,75"/>
	<path fill="none" stroke="#000000" stroke-width="0.75" d="M93.225,54.75c0,0,0.5,5.5,0.875,9.375s1.375,11.5-0.375,18.5
		s-11.875,33.25-11.875,33.25l9.5-7.375c0,0,2.75,7,6.375,10.75s10.375,7.25,10.375,7.25s-3.375-3.25-4.375-5.875
		S103.1,116,103.1,116s5.25,5.125,9.625,7.125s7.125,4,10.875,4.25s8.75,0,8.75,0"/>
	<path fill="none" stroke="#000000" stroke-width="0.75" d="M126.975,107.875L133.1,130.5l-10.875,27.625c0,0-6.75,0.5-9.125,0.875
		s-4.5,0.875-6.625,2.125s-5,3.875-5.75,4.875s-1.75,2.125-1.75,2.125s1.375,1.375,3,1.875s4.125,1.625,8.5,1.875
		s7.25-0.125,10.375-0.5s8.875-2.125,8.875-2.125l10.75-21.25l16.875-9.25L151.1,136l6.75-0.125c0,0-3.375-3-4.125-7
		s-0.5-18.875-0.5-18.875"/>
	<path fill="none" stroke="#000000" stroke-width="0.75" d="M153.6,123c0,0,9.125-3.875,13.125-5.125s6-1.5,9.5-2.125
		s6-0.875,8.75-0.625s7.875,2.125,7.875,2.125"/>
	<path fill="none" stroke="#000000" stroke-width="0.75" d="M166.725,117.875c0,0,8,4.25,10.125,4.875s8.625,3,8.625,3
		s-5,15.125-5.75,17.125S171.1,159.25,171.1,159.25s-7.625-0.875-10-0.5s-5.25,1.5-6.75,3S150.1,167,150.1,167l2,0.25l-0.125,1.125
		h7.875l-0.625,1c0,0,8.375-0.25,11.25-0.875s5.25-1.125,5.25-1.125s2.875-4.25,4.25-6.125s5.75-9.25,8.125-12.5s19-20,19-20
		s-10.5,2.25-10.125,2s7.75-6.25,7.75-6.25"/>
	<path fill="none" stroke="#000000" stroke-width="0.75" d="M210.35,127.75c-0.375,0-7.625-4.375-10.25-5.875
		s-5.75-3.625-5.75-3.625"/>
	<path fill="none" stroke="#000000" stroke-width="0.75" d="M109.6,121.125l2.375,10.125l-9.5,23.375c0,0-6.125,0.25-8.375,0.875
		s-5.625,1.875-6.875,3.125s-5.125,5-5.125,5s1.75,1.75,2.75,1.75s1.625,0.75,1.625,0.75s2.625,0.375,4.25,0.375
		s1.875,0.75,1.875,0.75h6.125"/>
	<polyline fill="none" stroke="#000000" stroke-width="0.75" points="112.1,159 117.975,146 130.225,139.125 	"/>
	<path fill="none" stroke="#000000" stroke-width="0.75" d="M130.475,137.5l-3.125-2.25l4,0.25l0.75-2c0,0-1.75-2.625-1.875-3.625
		s0-2.375,0-2.375"/>
	<path fill="none" stroke="#000000" stroke-width="0.75" d="M232.475,92.75c0,0,1.5,2.125,2.5,4.125s2.875,6.25,3.5,9.125
		s2.625,10.25,3.5,13s2.625,6,4.5,8.375s3.625,6.5,8.5,9.375s6.25,3,11.375,4.125s12.5,1.375,15.375,0.625s5-0.25,9.25-4.625
		s6.625-11.375,6.5-14.25S297.1,111,296.475,107s-1.625-8.5-3.875-9.25s-4.625-0.125-5.375,1.5s0.125,5.625,0.75,8.625
		s1.75,7.5,1.5,10.875s-0.125,2.625-0.75,5.375s-0.061,2.917-2.625,5.25c-4.166,3.792,0.084,0.917-3.082,2.751
		c-3.195,1.851-3.668,1.124-6.293,1.249s-4.125,0.25-7.5-0.5s-4.875-0.25-8-2.375s-2.75-1.125-6-4.875s-3.75-6.125-5.25-10
		s-1.75-6.125-3.375-11.125s-3.625-10.75-4.875-13s-2.375-4.375-4.375-6.125s-2.875-2.5-4.5-3.75s-2.875-1.75-2.875-1.75"/>
	<path d="M129.35,60.875l-19.375,19.5c0,0-0.5-1,1.25-5.75s3.375-6.375,5.125-7.875s4.375-3.5,5.875-4.125
		S129.35,60.875,129.35,60.875z"/>
	<path d="M126.225,57.375c0,0-4,2.375-5.25,3s-7.625,1.875-7.625,1.875s0-0.5,1.25-2.125s3.5-3.25,3.5-3.25l4.25,1l-1.25-1.625
		l3.5-0.125L126.85,57"/>
	<path d="M132.85,64.625l0.125-0.75c0,0-2.75,6.75-4.625,9.25S125.975,75.5,122.6,78s-4.375,2.625-6.5,5.875s-3,3.25-3.875,7.125
		s0,14.125,0,14.125s1.125-3.375,1.5-6s0.25-2.375,1.375-4.75s1.5-3.625,4.875-7.25s3.5-3.25,6.25-6s3.25-2.625,4.375-4.875
		c1.125-2.25,1.5-4.5,1.875-6.125s0.875-5.75,0.875-5.75"/>
	<path d="M143.975,68.25c0,0-6.125,4.125-8.625,6.75s-4.125,5.25-5.25,7.875c-1.125,2.625-2.125,4.75-2.5,8.125
		s0.125,8.125,0.375,10.375s0.875,2.375,0.875,2.375s0.5-2.5,1.25-6.75s1.625-7.125,3.125-11s2.125-5.5,4.125-8.375s6-9.375,6-9.375
		"/>
	<path d="M153.225,70.125c0,0-4.875,5.875-5.875,10.375s-1.125,9.125-0.875,11.25s0.875,4.25,2.125,6.5s3.125,5.25,3.125,5.25
		s-0.625-8.75-0.875-9.5s0.125-8.125,0.375-10.625s1.375-9.125,1.375-9.125L153.225,70.125z"/>
	<path d="M161.6,70.875c0,0-0.5,21.25-0.5,24.5s-0.375,18.875-0.375,18.875s2.375-4.125,3.125-8.375s1.625-11.75,1.625-15.125
		s-0.375-7.5-0.75-10.125s-2.625-9.5-2.625-9.5"/>
	<path d="M175.475,72.875c0,0,0.625,13.75,0.375,20.5s-1.625,19.875-1.625,19.875s2.5-4.625,3.5-7.25s2.25-6.5,2.25-6.5
		s0.25-4.125,0.5-5.5s0-7.75-0.125-9.125s-3.375-10.625-4.125-11.75"/>
	<path d="M188.975,76.125c0,0,0.625,7.25,0.125,12.25s-3,22.25-3,22.25s0.625,0.625,2.625-3.875s3.625-8.25,4-11.75
		s0.625-8.625,0.25-10.5S188.975,76.125,188.975,76.125z"/>
	<path d="M200.1,74.5c0,0,0.625,9.625,0.375,13.375s-0.375,7.75-1.125,11.375S195.725,116,195.725,116l4-5.625
		c0,0,1.5-2.25,2.25-5.125s2.625-10.5,2.625-13.125s0.625-6.625-0.5-9.625S200.1,74.5,200.1,74.5z"/>
	<path d="M218.975,73.75c0,0-5.125,16.5-6.375,19.625s-4.75,13.625-7.25,17.75s-3.75,6.5-3.75,6.5s4-1.875,6.375-4.75
		s3.125-4.125,5.25-8.125s2.875-5.375,3.875-8.5s2.125-6,2.125-9.125S218.975,73.75,218.975,73.75z"/>
	<path d="M236.1,89c0,0,0.25,6.5,0.5,7.875s0.625,1.75,0.75,1.375s0.625-3.375,0.5-4.5S236.1,89,236.1,89z"/>
	<path d="M242.1,100.625c0,0-0.068,0.244-0.182,0.667c-0.191,0.709-0.504,1.923-0.818,3.333c-0.5,2.25-0.25,5.5-0.25,5.5
		s0.875-1.5,1.125-2.25l0.5-6.5"/>
	<path d="M243.85,112.375l0.125,8.5l1.375-3.125c0,0,0.125-0.5-0.125-1.875s-0.75-2.75-0.75-2.75"/>
	<path d="M249.225,122.75c0,0-0.625,1.625-0.75,3.25s0.875,3.875,0.875,3.875s0.875-0.875,0.875-1.75s-0.5-5.5-0.5-5.5"/>
	<path d="M256.6,129.75c0,0-1.25,0.875-1.375,2.5s1.125,3.75,1.125,3.75l1.5,1.375L256.6,129.75z"/>
	<path d="M264.225,134.875c0,0,0.375,2.125,1.875,3.25s4.375,2.125,4.375,2.125l2.125-0.125l-5.5-3.25L265.225,135"/>
	<path d="M275.1,137.375c0,0,1.75,1.625,3.375,2.375s2.375,1.375,3.625,1.125s2.875-0.5,2.875-0.5s-0.875-0.5-2-0.875
		s-3.625-1.25-3.625-1.25l-3.625-1"/>
	<path d="M285.35,133.375c0,0,0.625,1.625,2.25,1.5s4.375-0.125,4.375-0.125l1.125-0.875c0,0-3.375-0.375-3.875-0.375
		S285.35,133.375,285.35,133.375z"/>
	<polyline points="290.725,127.125 294.975,127.625 296.725,127 293.475,126.5 291.35,126.875 	"/>
	<path d="M289.725,117l1-7.5l2.75,6.5v-11.125l2.75,15.375l1-3.625c0,0-0.5-4.375-0.5-6.75s0-4-0.375-5.125s-0.625-3-1-4
		s-0.375-2-1.375-2.625S292.85,97,291.6,96.875s-2.625-0.125-3.125,0.25s-1.25,2.125-1.25,2.125s-0.375,1.375-0.375,2.125
		s0.75,5.5,0.75,5.5s0.875,3.25,0.875,3.625S289.725,117,289.725,117z"/>
	<path d="M183.225,172.5c0,0,1.125-1.375,2.25-2.5s4.125-2.75,4.125-2.75s-3.125,3.125-3.625,3.5s-2.125,2.5-2.125,2.5"/>
	<path d="M175.1,170.625c0.5-0.375,1.625-2.375,2.625-3.125s6.125-3,6.125-3s-4.25,2.625-5,3.375s-3.25,3.75-3.25,3.75l-0.625-0.375
		"/>
	<polyline points="159.35,168.75 164.35,163.5 159.975,169.25 	"/>
	<path d="M152.1,167.75l6.375-5.875c0,0-3.375,2-4.25,2.625s-2.875,2.75-2.875,2.75h0.75"/>
	<path d="M112.1,171.5c0,0,0.625-1.625,1.625-2.875s4.875-3.75,4.875-3.75s-2.625,3-3.375,3.875s-1.5,3-1.5,3"/>
	<path d="M103.1,170.125c0,0,1-2.25,3-3.75s6.625-3.75,6.625-3.75s-4.625,3.5-5.375,4.25s-3.125,3.875-3.125,3.875"/>
	<path d="M92.475,166.25c0,0,0.625-1.625,2-2.875s3.5-2,3.5-2s-2.875,2.5-3.375,3.375S93.85,167,93.85,167l-1.25,0.25L92.475,166.25
		z"/>
	<path d="M85.475,165.125c0,0-0.125-1.375,1.125-2.5s6.75-4.375,6.75-4.375s-5.125,4.25-5.75,4.875s-1.125,3-1.125,3"/>
	<line fill="none" stroke="#000000" stroke-width="0.75" x1="100.1" y1="167" x2="96.6" y2="167.25"/>
</g>
<g id="frame_2">
	<path fill="#FFA82B" d="M24.267,62.875c-0.5,0.167-7.5,2-8.333,2.333s-6.833,3-7.833,4.167s-4.333,5-4.833,6s-2.333,7.5-2.333,8
		s-0.667,7.833-0.667,7.833l0.667,5c0,0,4.834,5.168,5.167,5.834s3.833,9.833,3.833,9.833l1.167,4.167l-0.167,4.666l0.167,2.834
		c0,0,3.833-2.5,4.333-3s6.833-4.667,8-5.667s6.667-4.001,7.5-5.167s6.167-7.167,6.5-8s3.333-6.833,3.333-6.833s0.5-2.666,0.5-3.333
		s0-13.5,0-13.5s0-1.333-0.333-1.833s-4.167-4.667-4.167-4.667"/>
	<path fill="#FFA82B" d="M76.1,115.875l1.833,9.5l-5.667,6.667c0,0-12.5,8.5-14,9.5s-3.5,4.166-4,4.833S51.142,154,51.767,156
		s2.75,6.375,2.75,6.375L56.142,164l3,0.375l3.125-0.875l1.375-1.625L63.017,155l5.5-9.25l16.5-5.75c0,0,18.875-2.125,19.375-2
		s4.375-4.75,4.375-4.75s1.75-2.375,1.375-2.5s-2.5-6.375-2.5-6.375l0.125-4.25l9.625-2.375c0,0,10-0.875,10.625-1
		s13.75,6.625,13.75,6.625s7.625,4.75,8,4.75s2.5,1.125,3,0.875s7,0.5,7,0.5s5.25,1.75,6.625,2.5s5.375,6,6.75,7.75
		s15.5,22.25,15.5,22.25s-7.875,0.5-9.375,1s-3.375,2-3.75,3s-0.75,3.5-0.75,4s6,0.875,6.5,1.125s10.75-0.5,10.75-0.5
		s4.75-1.875,4.75-2.25s-0.875-8-1.25-8.5s-16.25-28-16.25-28s-4.875-8.625-5.25-9s-0.25-11.375-0.125-11.75s9.5-12.5,9.5-12.5
		s3.625,3.25,3.875,4s16.25,34,17.25,34.75s9.375,5.625,10.75,5.75s14.5,3,14.5,3l8.375-1.875l1.125-0.25c0,0,5.125-1.25,6.5-8.25
		s1.5-15.25,1.5-15.25s-0.875-13.375-1.125-14.375s-7.75,3.125-7.75,3.125l1.625,8.5c0,0,0.375,8.375-0.5,10.5s-1.75,5.25-2.875,6.5
		s-2.5,2.5-4.125,3s-3.875,0.5-5.875,0.75s-3.25,0-4.875-0.125s-8.125-1.375-11-2.75s-5.75-4.75-7-6.25s-4.875-14.875-6.125-18.625
		s-2-7.25-2.75-8.625s-4-8.625-5.75-10.5s-6.875-5.5-7.75-5.75s-8.25-8.5-9.125-8.75s-3.5-2.125-14.25-0.75s-15.75,1.5-18,1.75
		s-10.375-1.625-14.25-2.5s-18.5-3.75-18.5-3.75l-27.875-8l-13.5,9l-0.25,27l10.875,15.25"/>
	<path fill="#FFFFFF" d="M36.892,76.125l2.5,6.5c0,0,0.25,1.125-0.25,4.5s-1.5,7.25-3,9.375s-8.5,10.375-11.625,13.5
		s-9,7.125-9,7.125s-4.625,5-5.125,6.25s-1,3.375-0.625,4s2.125,2.125,2.125,2.125l2.375,2.875c0,0,5.5,4.25,6.125,4.5
		s6.375,0.25,6.375,0.25s5,4.75,9.25,6.375s8.375,2.75,10.125,2.625s2.875,0,2.875,0l-2-3.75c0,0,3,0.75,4.25,0.125
		s1.625-1.5,1.625-1.5v-1l-0.375-0.625l-1.125-1.125l-2-0.625c0,0,1.75-0.25,3.875-1.75s2.75-1.75,2.75-1.75l-4.75-2.375
		c0,0,2-0.25,2.25-0.875s1.125-2.5,1.125-2.5l-0.625-2.25l-0.625-0.5l-1.625,0.125h-0.875c0,0,0.25-2.125,2.625-3.125
		s5.125-1.875,5.125-1.875l1.125-6c0,0,6.5,5.75,6.75,6.5s6.125,2.375,7,2.75s6.75,0.875,6.75,0.875L84.392,124
		c0,0-7-11.875-7.625-12.5s-5.375-19-5.625-19.375s-6.25-16.25-6.25-16.25S58.392,76.5,56.767,77s-17.625-1.125-18-1.25"/>
	<path fill="#FFFFFF" d="M28.892,40.625c-0.375,0.25-4.125,22-3.75,22.25s1.125,3.5,1.5,3.625s5.25,2.75,5.75,2.875
		s4.375,1.25,4.375,1.25l1.5,0.375l-0.625-4.25c0,0-0.125-11.625-0.25-12.125s-1.375-6.25-1.375-6.25l-3.375-5.125L28.892,40.625z"
		/>
	
		<ellipse transform="matrix(-0.9986 -0.053 0.053 -0.9986 31.7574 184.842)" fill="#FFFFFF" cx="18.329" cy="92" rx="10.062" ry="11"/>
	
		<ellipse transform="matrix(-0.9162 -0.4008 0.4008 -0.9162 -25.1337 206.3677)" fill="#FFFFFF" cx="9.017" cy="105.813" rx="8.023" ry="8.898"/>
	<path fill="#FFFFFF" d="M16.767,102.75c0,0,2.375,3.75,5.375,2.875s4.75-2,6.125-5.375s4.75-7.375,3.875-10.75s-4.875-11-4.875-11
		s-4.25-2-7.75-2.875s-5-1-7.875,0s-3.25,2.125-3.75,4.125S7.642,90.5,8.267,93.125s2.375,0.375,2.375,0.375l2.75,5.75"/>
	<path fill="#FFFFFF" d="M0.767,93.5c0,0,4.625,2.875,5.5,4.5s-3.25,4.625-3.25,4.625L1.267,105l-0.625-7L0.767,93.5z"/>
	<path fill="#FFFFFF" d="M11.642,115.75c0,0,2.125-0.25,2.875-1.75s0.625-3.625,0.625-3.625l-3.875,2l-0.5,1.375L11.642,115.75z"/>
	<path fill="#FFFFFF" d="M10.767,116.125"/>
	<path fill="#B2751E" d="M82.642,64.625c0,0-7.125,4.875-10.125,7.75s-14,12.75-15,13.625s-7.875,1.375-7.875,1.375
		s-1-1.375-0.375-2.125s0.75-4.875,0.125-4.875s-2.5-2.625-2.125-3.125s5.625-3.125,5.625-3.125l2.25-3.625
		c0,0,4.125-5.25,4.5-5.625s3.5-3.125,4.25-3.5s3.125-1.125,4-1.125S71.517,61,71.517,61l3.25,0.875l4,1.5L82.642,64.625z"/>
	<path fill="#B2751E" d="M121.392,135.625l-10.625-7l2.229-0.769c0.041-0.259,0.175-0.503,0.452-0.661
		c0.209-0.119,0.426-0.217,0.646-0.311l-8.701-14.26l-7.125-6.25c0.375,0.5,7.5,16.25,7.5,16.25s-6,0.625-5.375,1s8,8,8,8h-7.125
		l3.375,3.625c0,0-6.375,0.5-8.875,1.125S66.142,146,66.142,146s0.125,1.375-0.75,2.5s-2.25,1.25-2.875,2.25s-1.5,3.125-1.625,4.125
		s-0.25,3.75-0.25,3.75l0.375,2.75l0.75,1.625l2.125,0.25c0,0,1.625-1.375,1.625-1.75s1.25-2.75,1.25-2.75l0.375-6.875l1.5-3.375
		l3.875-2.5l4.375-1.125l8.875-2l7.25-0.5l24-0.625l-5.875-5.5L121.392,135.625z"/>
	<path fill="#B2751E" d="M107.345,118.289l25.326-8.875l3.837,6.606c0,0-3.23-1.304-6.674-0.938
		c-3.443,0.364-13.362,3.137-13.866,3.408c-0.504,0.272-6.73,2.753-6.73,2.753L107.345,118.289z"/>
	<path fill="#B2751E" d="M183.642,96.875c0,0-1.875,2.5-4.875,5s-6.875,4.813-8.688,6.938s-3.125,4.25-3.25,7.063
		s0.375,4.438,2.438,7s3.625,4.25,6,8.438s18.125,31.75,18.125,31.75s0.938,2,0.25,3.438s-6.125,1.188-6.125,1.188l-4.625,0.438
		l-1.5-0.125l-3.313-0.063c0,0,0.438,0.25-0.875-0.313s-1.313-0.563-1.313-0.563l-0.875,2.188l-0.188,1.625l1.063,1.438l1.625,0.375
		l0.813,0.75l3.25,0.063l0.625,0.688l15.688-0.125l2.313-1.313c0,0,0.813-1.938,0.688-2.25s0.063-6.938,0.063-6.938l-0.688-1.75
		l-16.75-29.438l6.625-0.75l-4.063-1.688l4.375-0.813l0.063-0.563c0,0-4.063-2.313-4.25-2.375s-5.75-4.25-5.75-4.25l-3.438-3.875
		l-1.063-2.188l2.5-5.313l2.25-4.75l2.688-6.875c0,0,1.625,1.75,1.438,1.813s1.938,4.625,2.063,4.875s2.188,5.438,2.75,7.313
		s1.438,5.375,2.063,7.375s2.438,7,3.375,8.75s2.688,5.063,4.438,6.813s1.813,3,7.188,5.813s8.188,3.563,10.063,4.063
		s2.563,0.688,6.188,0.813s5.5,0,7.625-0.125s3,0.25,5-0.625s3.625-1.5,3.625-1.5l-0.188-1c0,0-1.438,0.25-4.563,0.5
		s-10.75,0.875-14.438-0.25s-2.688-0.813-6.938-3.063s-4.375-1.625-7-4.25s-8.063-11.313-8.063-11.313s-3.313-7.625-4.438-10.313
		s-2.688-7.625-3.25-8.75s-4.063-9.563-4.563-10.25s-2-2.5-2-2.5l-0.063,3.438"/>
	<path fill="#7F5415" d="M119.142,123.188c0,0,4.5,3.125,6.313,3.563s3.625,1.188,6.563,2.25s4.063,1.438,5.188,2.563
		s2.625,1.813,3.875,4.563s1.063,2.188,1.875,4.313s2.188,4.563,4.125,9.625s2.563,7.063,2.563,7.063l-0.188,3.25
		c0,0-3.438,0.625-4.688,1.438s-2.688,1.688-3.125,2.25s-1.75,2.875-1.75,2.875l-0.063,2.688l0.188,1.063
		c0,0,4.188,0.688,4.375,0.688s8.813-0.063,10.25-0.25s2.625-1.063,3.25-1.75s1.25-1.063,1.563-2.875s0.063-4.5,0.063-4.5
		l1.938-0.625c0,0,0.438-0.688,0.063-1.375s-2.563-3.563-3.313-4.938s-6.125-17.375-6.125-17.375l6.75-1.813l-4.813-3.75
		c0,0,7.438,0.438,7.188,0.438s-1.625-3.313-1.625-3.313s-5.375-2-8.688-3.625s-7.25-4.188-7.25-4.188l-1.688-0.5l-6.563,0.188
		l-9.5,0.313L119.142,123.188z"/>
	<path fill="#7F5415" d="M82.1,144.042l11.833,16.667c0,0-0.25,0.583-1.167,1.25s-4,1.084-4.417,1.417s-3.167,3.166-3.167,3.166
		s-0.25,0.5-0.417,2s-0.25,3.334-0.25,3.334s2.083,0.582,3.667,0.666s13.25-0.166,13.25-0.166s1.916-0.666,2.083-1.75
		s0.417-4.167,0.417-4.167l-0.25-4.917l-1.417-1.333l2.083-0.417c0,0,0.834-0.583-0.416-1.333s-3.083-3.75-3.5-4
		s-2.084-3.917-2.084-3.917l-1.25-3.5l-1-3.25l-0.25-1.333c0,0-5.5-0.001-5.917,0.083s-8.083,1.167-8.083,1.167"/>
	<path fill="#B2751E" d="M22.892,64.875l14.25,12.375l1.625-0.5l-6.5-9.625l-5.125-1.375l4.375,2.875c0,0-5.875-5.5-6.25-5.375
		s-1.875,1.375-1.875,1.375"/>
	<path fill="#B1B1B1" d="M25.767,65.25L43.392,82.5c0,0-0.625,3-1.5,6s-2.25,11.5-2.25,11.5s4.875,0.125,9.375,3.875
		s6.75,6.125,7.375,8s1.875,3.375,1,5.625s-1.5,4.25-1.5,4.25l0.75,1.5c0,0,5.75,4.5,6.125,4.875s6,2.625,7.125,2.875
		s2.875,0.875,2.875,0.875l11.125-7.5l-1.125-1c0,0-3.5-0.125-8.625-1.25s-10.5-5-10.5-5l8.25-0.625c0,0-8.75-4.75-10.625-9.625
		S58.642,91.25,59.142,88.5s1.5-3.75,1.5-3.75l-9.875,0.875l12-8.25L48.642,76.75l13.5-5.625c0,0-20.375-1.75-20.75-1.625
		s-8.625-3-9.5-3.125S25.767,65.25,25.767,65.25z"/>
	<path fill="#B1B1B1" d="M138.392,118c-1.25-0.875-2.75-2.5-2.75-2.5s-2.125-0.875-8.125,0s-16.625,4.125-17,4.375l-0.25,0.625
		l3.25,5c0,0,0.056-0.023,0.149-0.064c0.082-0.282,0.346-0.529,0.716-0.465c-0.411-0.072-0.238-0.003,0.015-0.089
		c0.193-0.066,0.386-0.135,0.577-0.206c0.277-0.104,0.74-0.28,0.91-0.354c0.186-0.081,0.362-0.063,0.512,0.007
		c1.242-0.481,2.727-1.025,4.121-1.454c3.25-1,9.25-1.125,11-1.375s12-0.375,12-0.375S139.642,118.875,138.392,118z"/>
	<polyline fill="#FF0000" points="35.6,130.126 35.934,130.129 44.6,130.223 40.017,135.292 	"/>
	<path d="M28.642,40.25c0,0-2.875,4.375-4.125,7.375s-4.875,14.5-5,15.25s-0.125,2-0.125,2s1.375-0.25,3.25-0.125s4.5,0.5,4.5,0.5
		s-0.5-8.875-0.25-11s1.375-9.375,1.375-9.375L28.642,40.25z"/>
	<path d="M6.017,70.5c0,0,1.5-7.875,2.125-10.25s0.625-2.375,0.625-2.375s2.875,4.375,3.25,5.875s0.25,2.75,0.25,2.75
		S5.892,69.375,6.017,70.5z"/>
	<path d="M23.399,110.5l-5.104,4.031l-3.403,8.673c0,0,0,2.199,1.178,2.443c1.178,0.244,9.947,0.978,9.947,0.978l-1.047-13.804
		C24.97,112.821,25.755,110.866,23.399,110.5z"/>
	<path d="M23.642,75.375c0,0,2.25,2.875,4.375,6.125s2.875,4.875,3.5,7.375s1.25,9.75,1.25,9.75s1.25-5.375,1-8.25
		s-1.75-7.625-2.375-8.5s-7.875-7-7.875-7"/>
	<path d="M32.642,76.625c0,0,3.875,4.75,4.875,6.75s1.5,6,1.5,6s0.75-2.625,0.625-4.75s-0.375-4-1.625-5.25s-4.75-2.75-4.75-2.75"/>
	<path d="M70.017,61l-5.375,7.25c0,0,6.25-2.25,8-3.25s3.5-2.375,3.5-2.375S70.392,61,70.017,61z"/>
	<path d="M80.017,66.125c0,0-6.25,0.25-8.375,1.875s-5.625,4.75-7.125,7.75s-1.25,4.75-1.375,7s0.375,4.75,0.375,4.75l0.875,0.5
		c0,0,0.375-4.375,2.375-7.75s4.75-7.375,7-9S80.017,66.125,80.017,66.125z"/>
	<path d="M83.767,69c0,0-1.875,5.375-3.75,7.875s-3.875,4.5-6.5,6.25s-4.875,3.625-6.375,5.5s-3.25,4-4.125,7.5s-0.75,7.5-0.5,9.375
		s1,5.125,1,4.75s0.875-8.125,2.125-11s2.5-5.75,4.625-7.625s1.75-2.125,4.625-4.25s3.75-2.625,5-4.375s2.125-2.25,2.75-4.125
		s1.625-9.25,1.625-9.25"/>
	<path d="M94.642,73.125c-0.375,0.25-8.5,6.25-10.25,8.5s-5.125,8.125-5.625,12.25s0.375,15.5,0.375,15.5s1.625-6.125,3.375-12.625
		s3.5-10,5.25-13S94.642,73.125,94.642,73.125z"/>
	<path d="M103.517,75c0,0-4.25,7.5-5,9.75s-1.625,7.125-1.375,9.75s1.5,7.625,2.625,9.25s2.625,4,2.625,4s-1.25-13.25-1-17.5
		S103.517,75,103.517,75z"/>
	<path d="M112.517,75.875c0,0,0,18.125-0.125,22.875s-1,20.25-0.75,19.5s3.875-8.375,4.375-15.875s-0.875-19.25-1.75-21.625
		S112.517,75.875,112.517,75.875z"/>
	<path d="M126.767,77.75c0,0,0,6-0.125,15.5s-2.125,25.125-2.125,25.125s6.125-10.75,6.375-16.75s0.375-11.75-0.25-13.875
		s-3.5-10.5-3.5-10.5"/>
	<path d="M139.642,80.75c-0.25,0-0.75,20.875-1.5,25.625s-2.375,9.875-2.375,9.875s4.625-3.875,6-9.625s2-10.875,1.75-15.25
		S139.642,80.75,139.642,80.75z"/>
	<path d="M150.892,79.25c0,0,0.75,9.5,0.375,14.375s-1.25,10.625-2,14.25S147.142,121,147.142,121s3.375-4.375,5.375-10.375
		s2.25-8.875,2.5-13.125s-0.875-10.75-1.625-12.875S150.892,79.25,150.892,79.25z"/>
	<path d="M169.392,78.75c0,0-5.125,19.375-7.125,23.625s-4.75,11.5-6.75,14.375s-4,6.25-4,6.25s5.5-3.25,9.75-9.875
		s6.25-10.875,7-14.75s1-11.125,1.125-12.75S169.392,78.75,169.392,78.75z"/>
	<path d="M186.642,95.125c0,0,0.625,4.625,0.625,5.875s0,2.25,0,2.25s0.625-4.125,0.625-5.25s-1-3.5-1-3.5"/>
	<path d="M192.267,106.375c0,0-0.75,2.875-0.875,4.625s0,3.875,0,3.875s1.125-0.875,1.25-1.625s0.25-6.625,0.25-6.625"/>
	<path d="M194.642,118.25c0,0-0.125,4.125-0.125,5.625s0,1.5,0,1.5s1.125-2.25,1.125-2.625S194.642,118.25,194.642,118.25z"/>
	<path d="M199.642,127.375c0,0-0.625,3.875-0.375,5.25s0.75,2.75,0.75,2.75s0.5-2.625,0.375-3.375S199.642,127.375,199.642,127.375z
		"/>
	<path d="M206.767,135c0,0-1.125,2.125-1.125,3.375s0.625,3,0.625,3l1.375,1.125L206.767,135z"/>
	<path d="M214.892,139.875c0,0,1.25,2.5,3.375,4.125s3.375,2.125,3.375,2.125l1.5,0.375c0,0-2.25-1.875-3.75-3.25
		S214.892,139.875,214.892,139.875z"/>
	<path d="M225.892,142.375c0,0,1.625,1.375,2.875,2.125s3.875,1.5,3.875,1.5l2-0.25l1.5-0.75c0,0-6.5-1.375-7.375-1.625
		S225.892,142.375,225.892,142.375z"/>
	<path d="M235.517,138.625c0,0,3,1,4.5,1.125s3.75-0.125,3.75-0.125l0.75-1c0,0-3.625,0-4.5,0S235.517,138.625,235.517,138.625z"/>
	<path d="M241.267,132.25c0,0,1.375,1.125,3.25,0.875s1.875-0.25,1.875-0.25l0.25-1.625L241.267,132.25z"/>
	<path fill="none" stroke="#000000" stroke-width="0.75" d="M12.267,129.5c0,0,1.125,2,2,2.625s3.625,3.625,6.125,4.75
		s6.25,0.375,6.25,0.375s3,2.375,4.875,3.75s7,3.875,10.25,4.75s7.25,0,7.25,0l-2-3.125c0,0,2,0.375,3.125,0.25
		s2.375-0.625,2.875-1.375s0-2-0.875-2.625s-3.125-1.25-3.125-1.25s2.125-0.375,3.375-1.125s3.5-2.5,3.5-2.5l-4.5-2.375
		c0,0,1.75-0.5,2.125-0.875s0.875-1.625,0.75-2.375s-0.125-1.5-0.75-2S51.142,126,51.142,126s0.75-1.125,1.875-2s3-1.75,4.5-2.5
		s3.5-2.125,3.75-4.125s-0.125-3.75-1.25-5.5s-3.125-4-5.125-6.375s-2.625-4.75-2.875-6.375s0.25-3.5,0.5-3.875
		s7.875-10.5,7.875-10.5l-9.875,1.5l12.125-8.75c0,0-14.125-0.5-13.75-0.625s13.875-5.75,13.875-5.75l-21.875-1.5
		c0,0-2.875-0.625-5-1.75s-7.25-2.5-11.75-3.125s-9.125,0.75-9.125,0.75s-4.5,1.625-6.875,3.875s-4.375,5-5.625,8.125
		s-2,10.25-2.125,14.375S0.892,102,0.892,102"/>
	<line fill="none" stroke="#000000" stroke-width="0.75" x1="10.392" y1="114.5" x2="10.642" y2="123.75"/>
	<path fill="none" stroke="#000000" stroke-width="0.75" d="M9.767,127c0,0-0.625-2,2-5.5s7.75-7.875,9.125-9.125s3-2,3-2
		s1,1.5,1.25,5.25s0.5,11.5,0.5,11.5s-7.25,2.875-9.75,2.75S10.767,129.375,9.767,127z"/>
	<path fill="none" stroke="#000000" stroke-width="0.75" d="M55.017,70.5c0,0,4.25-4.875,5.875-6.875s5-3.625,10.75-2.5
		s7.75,2.875,16.875,5.5s22.75,6.25,34.125,8.625s16.5,3.625,26,2.25s20.25-3.25,25.125,1.125s8.625,7.75,9.5,12.25
		s0.625,8.625-2.25,14.75s-5.25,10.25-5.25,10.25s1.5,3.875,6.25,7.375s6.875,4.625,8.25,5.25s-2.625,1.625-4.125,1.375
		s3.625,1.875,3.625,1.875l-6.375,0.75l17.25,30.125l0.125,9.125c0,0-0.875,1.75-2.75,2.125s-15.875,0.375-15.875,0.375l-0.625-0.75
		l-3.375-0.125c-0.5-0.75-0.5-0.75-0.5-0.75s-1.375-0.125-1.875-0.5s-1.25-1-0.75-2.75s0.5-5.875,5-6.625s8.75-0.25,8.75-0.25
		s-18.625-27.25-20.625-29.125s-4.25-3-7.625-3.875s-10-3.625-14.25-6.25s-7-4.25-9.75-7.375s-4.875-8.5-5.375-9.625
		s-0.625-7.375,1.125-11.125s6.5-9.375,7.875-10.625"/>
	<path fill="none" stroke="#000000" stroke-width="0.75" d="M105.517,112.375c-0.125,0.375,8.75,14.5,8.75,14.5l-3.25,1.75l10.25,7
		L111.142,136l5.875,5.625c0,0-25.125,0.75-28.75,1.125s-14.75,2.5-17.625,4.5s-3.25,3.5-3.625,5.125s-0.375,6.75-0.375,6.75
		s-1.25,2.875-2.375,3.75s-2.375,0.5-2.375,0.5s0.375,0.375-1,0.75s-3.75,0.125-3.75,0.125l-0.75-0.625c0,0-0.75-0.125-1.5-0.875
		s-2.375-2.375-2.75-5.25s-0.125-6,0.375-7.75s2-4.5,4.125-6.75s27.5-18.625,27.5-18.625V120.5"/>
	<line fill="none" stroke="#000000" stroke-width="0.75" x1="84.142" y1="124.375" x2="75.892" y2="114.625"/>
	<path fill="none" stroke="#000000" stroke-width="0.75" d="M56.017,122.5c0,0,4,4.25,6.875,5.75s10.25,3.5,10.25,3.5"/>
	<path fill="none" stroke="#000000" stroke-width="0.75" d="M113.767,124.875c0,0,7-2.5,11-3.125s19.25-0.5,19.25-0.5"/>
	<path fill="none" stroke="#000000" stroke-width="0.75" d="M119.017,123c0,0,2.75,2.375,7,3.875s7.125,2.125,9.375,3.375
		s2.375,1.125,4.875,4.875s9.375,21.75,9.375,21.75s0.125,3-0.125,3.375s-5.375,1.375-6.875,2.625s-2.5,3.125-2.625,4
		s-0.25,3.375-0.25,3.375s-0.25,1.125,6.25,1s9.875-0.375,9.875-0.375s1.75-0.375,2.875-2.875s0.625-6,0.625-6
		s1.375-0.25,1.75-0.375s0.5-1.125,0.125-2.125s-3.375-4.375-4.25-6.75s-5-15.375-5-15.375l6.75-1.375l-4.875-3.75
		c0,0,7.625,0.25,7.25,0.375s-1.625-3.375-1.625-3.375"/>
	<path fill="none" stroke="#000000" stroke-width="0.75" d="M82.142,143.75c0,0,3.125,4.875,5.875,8.875s5.625,8.25,5.625,8.25
		s0.125,1.25-1.625,1.375s-5.375,1.75-6.5,3.5s-1.125,6.5-1.125,6.5l3.75,0.5l13.5-0.5c0,0,2-1.125,2.25-2.375s0-8.625,0-8.625
		l-1.125-1c0,0,2.25-0.25,1.75-0.75s-3.375-3.75-4.5-5.125s-4.125-10.375-4.25-11.25s-0.125-0.875-0.125-0.875l0,0"/>
	<path d="M34.017,130.25l6,5.125l1.25-1.375c0,0-1.625-1.25-2.375-2.5s-0.75-1.25-0.75-1.25H34.017z"/>
	<path d="M25.142,127.5c0,0,1.875,1.25,3.375,1.5s2.75,0.25,2.75,0.25s-4.25-1.375-4.75-1.75s-0.5-0.875-0.5-0.875"/>
	
		<ellipse transform="matrix(-0.9266 -0.3761 0.3761 -0.9266 0.6679 183.9126)" fill="none" stroke="#000000" stroke-width="0.75" cx="18.285" cy="91.891" rx="9.91" ry="11.186"/>
	<path fill="none" stroke="#000000" stroke-width="0.75" d="M16.917,102.787c-0.455-0.039-0.892-0.127-1.325-0.242
		c-0.445,0.063-0.904-0.054-1.273-0.335c-0.22-0.029-0.429-0.125-0.631-0.255c-0.289-0.107-0.561-0.253-0.811-0.436
		c-0.395-0.111-0.758-0.35-0.99-0.666c-0.139-0.084-0.279-0.166-0.407-0.276c-0.114-0.099-0.2-0.216-0.274-0.34
		c-0.303-0.144-0.567-0.372-0.742-0.67c-0.038-0.064-0.065-0.132-0.09-0.2c-0.218-0.187-0.396-0.423-0.508-0.688
		c-0.052-0.063-0.108-0.121-0.152-0.196c-0.08-0.136-0.13-0.289-0.167-0.446c-0.091-0.121-0.162-0.253-0.212-0.395
		c-0.148-0.217-0.247-0.441-0.292-0.667c-2.978,0.29-5.855,2.317-7.306,5.521c-2.059,4.544-0.47,9.704,3.549,11.525
		c4.019,1.82,8.947-0.388,11.005-4.933C17.246,106.988,17.405,104.761,16.917,102.787z"/>
	<path d="M0.475,101.376c0,0,0.25,1.832,0.375,2.791s0.542-1.125,0.542-1.125s-0.375-3.208-0.458-3.833"/>
	<path fill="none" stroke="#000000" stroke-width="0.75" d="M28.642,40.25c0,0,2.875,1.5,4.625,4s3.188,4.625,3.688,7.938
		s0.938,16.5,0.938,16.5"/>
	<path d="M7.829,62.125c0,0-2.25,9.938-2.313,10.125s4.063-4.125,4.063-4.125l0.438-1.375L7.829,62.125z"/>
	<path fill="none" stroke="#000000" stroke-width="0.75" d="M183.518,98.708c0,0,1.416,1.917,2.833,5.417s2.833,7.083,4,11.5
		s1.584,6.251,3.667,11.084s5.667,10.917,11.5,14.5s6.667,3.251,10,4.167s4.25,1.25,9.583,1.25s10.834-0.001,14.584-3.084
		s4.915-4.167,6.249-8.083s0.834-3.917,1.084-10.75s0.083-10.084-0.417-13.75s-0.666-7.25-3.083-8.5s-4.5-0.75-5,2.167
		s0.667,8.666,1,12.083s0.833,8.833-0.25,12.583s-3.168,7.417-6.834,8.417s-6.583,1.25-11.833,0.5s-9.416-1.833-12.833-4.583
		s-3.583-3.417-5.583-8.5s-2.917-7.25-4.334-12.417s-1.917-7.833-3.75-12.083s-2-5.083-5-8.333s-5.667-5.251-7.5-6.167
		s-0.583-0.333-0.583-0.333"/>
	<path d="M56.392,163.625c0,0-0.563-0.5-1.438-2.188s-0.563-1.813-0.688-3.5s0.375-4,0.375-4s0.063,3.875,0.313,5.063
		s0.25,1.813,0.875,2.938s1.563,2.313,1.563,2.313l0.125,0.313l-1.063-0.5"/>
	<path d="M61.892,163.375c0,0-0.938-1-1.938-2.313s-1.063-2.125-1.25-3.688s-0.188-1.563-0.188-1.563s1.313,3.875,1.875,4.625
		s2.125,2.813,2.125,2.813"/>
	<path d="M88.454,172.563c0,0-0.313-3.875,0.188-4.625s2.188-2.313,2.188-2.313s-1.125,1.813-1.438,2.563s-0.375,2.438-0.375,2.938
		s0.188,1.688,0.188,1.688"/>
	<path d="M143.579,171.313c0,0,0-0.625-0.063-2.813s0-3.25,1.063-4.063s5.063-2.625,5.063-2.625s-3.938,2.438-4.5,3
		s-0.75,1.188-0.813,2.063s0.063,4.25,0.063,4.25"/>
	<path d="M178.142,173.375c0,0-0.125-2.563-0.063-3.375s0.25-2.625,0.563-3.25s2.875-1.625,2.875-1.625s-2,0.188-2.75,0.438
		s-1.25,1.438-1.438,2.688s-0.188,4.188-0.188,4.188"/>
	<path d="M181.267,173.438l-0.063-5.313c0,0,0.938-1.625,1.938-1.813s4.125-0.188,4.125-0.188s-4.25,0.688-4.75,1.563
		s-0.438,2.688-0.375,3.938s0,2.625,0,2.625"/>
	<polyline points="108.725,117.75 109.309,108.583 109.767,118.958 	"/>
	<path d="M106.434,113.333l-3.042-4.75c0,0,1.708,4.167,2.083,4.625"/>
	<path d="M140.267,84.833c0,0,0.542-0.792,2.5-2.25s1.958-1.458,1.958-1.458s-3.626,1.875-4.167,2.5"/>
	<polyline fill="#020202" points="17.767,102.75 21.767,83 16.142,102.625 3.767,108.25 14.319,102.21 	"/>
	<path d="M113.142,124.751c0,0,0.959-0.376,1.5-0.584s-1.042,1.292-1.042,1.292"/>
	<path d="M238.851,103.459c0,0-0.751,3.25-0.667,4.583s2.25,11.917,2.25,11.917l1-6.75l2.667,6.75c0,0-0.167-10.667-0.167-10.417
		s1.834,10.917,1.917,10.667s1-3.667,1-3.667s-0.083-5.25-0.333-7s-0.751-5.25-1.334-5.75s-2.832-2.083-3.416-2
		s-1.501-0.167-1.834,0.25s-0.916,1.083-0.916,1.083"/>
</g>
<g id="frame_3">
	<path fill="#FFA82B" d="M23.018,130l-5.875,4.875c0,0,4.625-0.5,6.375-0.125s7,2.25,7,2.25l4.25,3.875l6,1l12,0.125l6.375-0.75
		l4.875,0.125l2.375-0.875l3-2.5l1.625-3.125l-0.625-4l0.5,0.875l-0.125-9l1.125-4.125l1.25-4.125l-1.75-3.125l-3.875-3.125
		l-5.583-3.875l-6.083-1.584l-5,0.084l-6.75,2.166l-6.75,3.334l-6.25,4.167l-4,2.833"/>
	<path fill="#FFA82B" d="M81.768,122.125c0,0,6.25,4.25,7.25,8s-1.583,14.75-1.583,14.75l0.667,5l-10.167,2.417l-11.75,4.334
		l-9,5.583l-3.417,3.167l-1.583,3.333l-1.083,4.5l0.333,4.917l1.5,3.5l2.5,1.666l3.25,0.584l2.75-0.584l0.667-3.5l4.083-8.833
		l7.333-4.583l14.75-0.75l20-0.333l4.333-3.25l0.667-1.834l4.583,3.667l4.333,0.333l8.75-1.5l1.25,1.417l-0.584,2.666l-0.333,1.5
		l0.667,3.334l1.5,1.833l3.083,0.917l5.333-0.084l3.834-0.75l8.583-0.333l8.834,0.084c0,0,12.084,0.25,13.25,0.583
		s11.417,2.001,16.083,2.167s15.333,0.333,15.333,0.333l-5.167-4.583l11.75,1.5l-9.25-8.917h7.584c0,0-4.751-2.333-8.084-4.25
		s-5.083-3.251-6-4.917s-0.917-1.666-0.917-1.666s2.084-6.084,3.667-9.084s3.083-7.167,3.75-8.75s0.917-3.916,0.917-3.916
		l5.417,12.166l8.25,21.917l11.916,9.5l11.167,7.083l13.916-1.25l7.167-2.083l2.833-3.584l2.084-4.916l0.25-2.5l0.583-7.167
		l-0.5-6.166l-0.333-3.834l-2.667-5.25l-2.667,1.834l-1.416,2.25l-0.084,3.916l0.084,8.25l-1,5l-1.584,3.75l-2.5,2.334l-3.916,2.416
		l-4.917,0.584l-7.25-1.001l-6.5-2.416l-3.083-1.584l-2.084-1.666l-2.333-3.084l-3.083-4.833l-2.417-6.167l-1.25-5.333l-2.167-7
		l-3.333-7.583l-3.333-5.5l-3.833-4.167l-3.667-2.167l-4.417-4.833l-4.583-3.75l-2.584-1.75l-6.5-0.333l-8.333,1.166l-6.333,0.917
		l-9,0.5l-6.25-0.416l-8.084-2.25l-8.166-1.917l-10-2.5l-11.583-2.75l-8-2.25l-7.583-2.083l-3.583,0.583"/>
	<polygon fill="#FFFFFF" points="73.268,116.959 75.851,129.709 82.268,124.209 86.934,120.542 90.018,117.959 93.184,114.292 
		95.101,110.959 96.518,107.792 100.184,103.959 96.768,104.209 85.934,108.292 78.518,111.709 73.184,115.959 	"/>
	<path fill="#FFFFFF" d="M89.768,141.209c0,0-1.917-8.833-2.5-11.833s-2.333-8.833-2.333-8.833l-21.496,17.181
		c-0.049,0.063-0.114,0.12-0.205,0.164l-1.549,1.238l-0.175,0.044c-0.049,0.041-0.1,0.083-0.167,0.11
		c-0.127,0.052-0.255,0.099-0.383,0.149c-3.434,2.408-7.767,2.536-11.858,2.705c-0.199,0.008-0.343-0.067-0.438-0.182
		c-4.17,0.142-8.294-0.339-12.386-1.256c-0.328-0.073-0.441-0.335-0.412-0.592c-0.279-0.083-0.561-0.152-0.838-0.242
		c-0.013-0.004-0.02-0.014-0.033-0.019c-0.46-0.082-0.727-0.136-0.727-0.136l-2-1l-1.583-2.083l-6.917-2.084l-7.5,0.667
		c0,0-2.5,0.167-4.25,0.75s-0.917,1.667-0.75,2.5s0.75,1.833,0.75,1.833s-0.667,1.5-1,2.25s-0.917,2.084-0.917,3.084
		s0.25,5,0.583,6.333s1.917,4.417,1.917,4.417l-0.167,3.333c0,0,0.25,4.75,0.5,6.917s1.667,7.25,1.667,7.25l1.417,3.917l1.417,1.833
		l0.667-0.417l0.917-1.333l1-2l1.333,2.416l2.083,2l1.417-0.416l0.083-2.084l-0.667-2.916l2,1.666c0,0,2.083,1.334,3.917,1.417
		c1.603,0.072,1.741,0.082,1.75,0.083l-0.417-0.833l-0.417-1.5l-0.167-1.417l1.083,0.167l1.417,0.167h2l0.833-0.084
		c0,0,0-1-0.25-2.166s-1.667-3.584-1.667-3.584s1.5,1.75,2.833,2.084s3.667,0.416,3.667,0.416l1.417,1.25l2.333,1.334l2.5,0.583
		l1.75-0.833l2.833-3l1.167-2.834l1.333-1.5c0,0,4.583-4.416,6.333-5.416s20.167-8.333,20.167-8.333l8.583-3.084l-0.083-1.5
		L89.768,141.209z"/>
	<path fill="#FFFFFF" d="M52.518,108.542c0,0-1.75,0.25-4.917,2.25s-5.584,4.667-6.667,5.417s-3.417,3.417-3.417,3.417l-0.25-0.584
		l-1.083-1l-1.083-0.75l-0.333-0.166c0,0,0.5,0.584,0.583-2s-0.083-4.417-0.083-4.417l-0.333-0.5l-4.75,2.917l-3.417,2.75
		l-1.333,0.5l-2.667,1.666l-1.25,1.25l-0.917,1.334l-0.75,2l0.083,1.25l0.25,1.583l0.667,1.583l1,1.334l1,1.5l-0.75,1.25
		c0,0,0.917,1.25,1.75,1.333s3.083,0.667,3.083,0.667l2.083-1l2.75-0.5l2.667-1l1.583-1l0.833-0.834c0,0-0.5,1.833-0.667,3
		s0.333,2.501,1.5,3.834s4.584,2,7.917,2s7.25-0.334,8.417-1.167s5.583-7.333,5.583-7.333l3.167-4.584c0,0-0.917-6.834-2.167-9.75
		s-2.667-4.333-4.667-5.333s-3.75-1.083-3.75-1.083"/>
	<path fill="#B2751E" d="M76.601,107.958l6.833-7.833c0,0,2.917-1.667,3.167-1.75s4.583-0.333,4.583-0.333s4.75,1.167,6.333,1.583
		s7.083,2.25,7.083,2.25l-4.083,2.166l-6.583,1.417"/>
	<path fill="#B2751E" d="M132.684,158.208l-5.25-7.333l-6.917-7.583l7.417,16.25l-5.833,0.5l3.583,3.833l6.417,0.417
		c0,0,1.917-1.666,2.75-2.25s-1-2.75-1-2.75L132.684,158.208z"/>
	<path fill="#B2751E" d="M130.017,155.875c0,0,6.583-2.917,10.833-4.25s13.667-3.5,13.667-3.5l3.666,5.083l-15.833,2.584
		l-10.917,1.166l-1.417-0.416"/>
	<path fill="#B2751E" d="M115.851,159.792l-7.833-3.584l2.5,4.417l-5.25,0.167l1.333,3.5c0,0-14.833-0.333-19.833,0
		s-14.333,0.916-17.75,2.416s-3.833,2.083-5.5,4s-2.417,3-2.75,3.75s-0.333,0.916-1.25,1.583s-1.917,0.417-1.917,0.417l1.417,4.417
		l1,1.666l1.5,0.917c0,0,0.417-0.083,1.667-1.333s2.167-3.5,2.167-3.5l0.583-2l0.417-1.584l-0.083-1.583l0.917-1.917l2.75-2.416
		c0,0,3.75-0.751,6.25-0.834s11.25-0.166,11.25-0.166l7.583,1.083l23.167,3.667l-5.417-6.75l10.833,1.5l-7.75-7.5"/>
	<path fill="#B2751E" d="M205.601,133.708c0,0-2.082,3.167-4.166,4.667s-6.751,4.583-8.584,6.583s-4,5-4.25,7.417
		s-0.25,4.751,1.75,5.667s3.084,1.334,4.917,0.75s4.167-2.084,4.167-2.084l-1.75-3.333c0,0,4.416-9.501,5.083-11.417
		S205.601,133.708,205.601,133.708z"/>
	<path fill="#B2751E" d="M205.851,129.958c0,0,1.417,1,3.667,5.25s3.001,6.666,4.917,12s3.166,11.417,6.666,15.667
		s7.501,9.751,12.167,12.917s9.5,5.083,14.5,4.833s13.582,0.251,16.916-3.083s2.334-2.334,2.334-2.334s-3.416,4.583-5,5.75
		s-5,2.25-5,2.25l-8.75,0.917h-5.417c0,0-2.832-0.251-8.666-2.084s-10.084-6.416-10.084-6.416s-7.166-9.084-8.166-10.667
		s-2.501-7.334-2.584-8.75s-2.25-8.916-3.25-11.666s-3.166-6.083-4.166-7s-1-0.917-1-0.917"/>
	<polyline fill="#B2751E" points="71.601,113.708 69.101,133.208 71.767,129.125 73.767,119.875 73.017,114.125 71.851,113.375 	"/>
	<path fill="#B0B0B1" d="M73.455,118.563c0,0-3.875,10.875-4.125,13.563s-0.688,8.5-0.688,8.5l-6.5,0.188l-0.75,2.375
		c0,0-2.875,0.625-6.313,1.875S50.518,147,50.518,147s1.625,0.563,2.313,3.438s1.063,7.25-0.188,10.563s-3.313,8-5.125,9.625
		s-3.5,2.25-3.5,2.25l1.375,1.188l1.313,0.25L48.268,174l1.438-1.125l1-1.188l0.813-1.438l0.5-0.938l2.438-4.5l1.625-3.75
		l1.688-3.563l1.625-1.75l1.563-1.063l5.438,0.063L69.33,155l2.125,0.5l2.188,0.188l8.875-3.625l-6.188-10.125l11.625,6.688
		l-11.25-18.188c0,0-1.813-10.209-2.688-11.479"/>
	<path fill="#B0B0B1" d="M132.33,156.938c0,0-0.125-0.625,2.5-1.5s7.625-2.125,11.5-2.438s7.688-0.438,9.063-0.313
		s3.063,0.5,3.063,0.5s1.563,2.063,3.938,3.438s4.688,3.125,4.688,3.125l-4.563-0.5L156.08,159l-5.563-0.25l-3.188,0.438
		l-4.063-0.063l-2.625,0.438l-1.375,0.625l-2.25,0.563l-1,0.5l-0.5,0.25l-3-4.292"/>
	<polyline fill="#B0B0B1" points="76.185,128.208 80.935,125.291 81.185,137.708 77.101,136.041 73.935,130.041 76.185,128.208 	"/>
	<path fill="#FF0000" d="M22.934,158.209c0,0,4.021,7.729,4.771,8.354s-3.438,0.375-4.563,0.063"/>
	<path d="M105.268,106.625c0,0-2,7.375-7.375,11.125s-10.5,8.75-12.375,12.75c-1.698,3.622-2.059,9.899-1.277,13.097
		c0.483,0.492,0.858,1.056,1.192,1.646c0.159,0.235,0.332,0.46,0.493,0.692c0.14-3.4,0.818-10.415,3.967-13.935
		c4.25-4.75,7.5-6.625,11-10.75s4.75-8.25,4.625-10.875S105.268,106.625,105.268,106.625z"/>
	<path d="M116.768,109.875c0,0-7.791,5.983-10.25,8.75c-3,3.375-5,8.75-5.875,13.375s0.5,14.25,0.5,14.25s0.125-3.375,2.875-11.875
		S116.768,109.875,116.768,109.875z"/>
	<path d="M125.518,111.75c0,0-4.5,7.125-5.625,12.875s-1.375,10.875,0.5,14.375s4.625,6.25,4.625,6.25s-1.25-4.125-1.75-9.125
		s-0.625-8.375,0.125-11.875S125.518,111.75,125.518,111.75z"/>
	<path d="M134.518,113.125c-0.375,0.25-0.5,15.125-0.5,23.375s-0.125,18.25-0.125,18.25s2.625-5.875,3.5-11s0.625-18.25,0-20.875
		S134.518,113.125,134.518,113.125z"/>
	<path d="M148.643,115.5c0,0,0.125,14.125-0.25,19.125s-0.875,12.5-1,16.125s-0.125,4.375-0.125,4.375s5.875-13.5,5.875-17.125
		s0.5-10.875-0.5-14.125S148.643,115.5,148.643,115.5z"/>
	<path d="M161.768,118.5c0,0-0.5,14.25-1.125,19.25s-2.75,16-2.75,16s4.75-6,6.125-13.125s1.125-13.25,0.625-16
		S161.768,118.5,161.768,118.5z"/>
	<path d="M172.643,116.375c0,0,1,9.5,0.125,17.375s-4.125,23.875-4.25,24.25s4.625-4.375,6.25-10.875s2.875-13.625,2.25-18.125
		S172.643,116.375,172.643,116.375z"/>
	<path d="M191.518,116.375c0,0-4.25,16.125-6.75,21.375s-5.75,13.375-8.25,17.5s-3.625,5.5-3.625,5.5s9.5-7.375,11.875-11.625
		s4.75-9.125,5.75-14.625s1.75-18.375,1.75-18.375"/>
	<path d="M209.143,131.625c0,0-0.5,1.625-0.125,4.625s0.625,4.5,0.625,4.5s1.125-3.125,0.875-4.25S209.143,131.625,209.143,131.625z
		"/>
	<path d="M214.393,144c0,0-1.125,2.375-1.25,4.625s0,3,0,3s1.875-1.625,2-2.75s-0.25-5.25-0.25-5.25"/>
	<path d="M217.018,155.25c0,0-0.75,1.375-0.75,4.5s0.5,3.125,0.5,3.125l0.875-2.875L217.018,155.25z"/>
	<path d="M222.018,164.875c0,0-1.25,1.5-0.875,3.875s0.875,3.125,0.875,3.125l0.75-3.375L222.018,164.875z"/>
	<path d="M228.643,171.875c0,0-0.083,0.158-0.204,0.416c-0.349,0.742-1.014,2.313-0.921,3.334c0.125,1.375,1.625,2.875,1.625,2.875
		l0.75,0.75c0,0-1.625-3.125-1.5-4.5s0.625-3.5,0.625-3.5"/>
	<path d="M236.768,177.125c0,0,2.375,3.625,3.75,4.5s3.375,1.625,3.375,1.625h1.625l-2.875-2.375l-6-4.375"/>
	<path d="M247.018,178.875c0,0,3.25,3.125,5.25,3.5s3.375,1,3.375,1l3-1.25c0,0-2.875-0.75-4.625-1s-6.375-2.25-6.375-2.25"/>
	<path d="M257.893,175.438c0,0,0.5,0.813,2.938,1.188s5.063-0.188,5.063-0.188l0.688-1.25c0,0-5.625,0.313-6.563,0.313
		S257.893,175.438,257.893,175.438z"/>
	<path d="M263.455,169.5c0,0,4.313,0.25,4.75,0.188s0.313-0.875,0.313-0.875s-3.188,0.188-3.813,0.25S263.455,169.5,263.455,169.5z"
		/>
	<path d="M63.185,120.208c0,0-2.5,6.917-4.25,9.917s-9.084,9.25-9.917,9.583s-0.333-0.083-0.333-0.083s5.25-0.166,8.333-3
		s4.5-6,5.25-7.917S63.185,120.208,63.185,120.208z"/>
	<path d="M67.268,128.208c0,0-1.083,4.251-2.5,6.417s-5.417,5.5-5.417,5.5s5-1.333,6.25-2.75s1.916-2.917,2.083-4.667
		S67.268,128.208,67.268,128.208z"/>
	<path d="M69.018,109.958c0.5-0.416,1.75-1.666,13.917-3.833s17.25-2.333,17.25-2.333s-8.667,3.834-12.417,5.75
		s-10.25,5.916-11.667,7.333s-2.083,2.083-2.083,2.083s-1.333-3.833-2.25-5.083S69.018,109.958,69.018,109.958z"/>
	<path d="M56.018,102.791l-0.137,0.274c0.288,0.061,0.573,0.133,0.854,0.217h0.199c0.246,0,0.404,0.128,0.492,0.294
		c0.12,0.012,0.234,0.027,0.341,0.049c0.833,0.167,6.833,2.083,6.833,2.083s1.167-0.917,2.167-2.167s2.917-5.083,2.917-5.083
		S56.518,102.541,56.018,102.791z"/>
	<path d="M28.018,136.958c0,0-5.917,0-8.333,1s-2.667,2.834-1.75,4.834s2.917,7.666,2.917,7.666s4-3.082,6.667-5.166
		s6.5-4.916,6.667-5.5s-4.083-2.5-4.75-2.667S28.018,136.958,28.018,136.958z"/>
	<path d="M21.434,149.292c0,0-0.5,2.583-0.25,3.583s0.667,2.333,0.667,2.333s-2-3.5-1.167-7.583"/>
	<path d="M92.184,135.125c0,0-1.509,1.488-2.333,3.413c-0.824,1.926-1.167,3.238-1.167,4.813c0,1.576,0.206,6.127,0.206,6.127
		l1.029-0.087c0,0-0.137-2.362-0.137-4.552c0-2.188,0.343-4.113,0.755-5.427C90.949,138.101,92.184,135.125,92.184,135.125z"/>
	<polyline points="130.935,154.791 131.268,145.875 132.518,157.208 131.101,155.125 	"/>
	<path d="M126.351,149.208c0.083,0.25,8.083,12.333,8.083,12.333l1.333-0.583L126.351,149.208z"/>
	<path d="M166.935,117.125c-0.25,0.083-3.583,3.083-4.5,3.75s-0.583,1.5-0.583,1.5L166.935,117.125z"/>
	<path d="M175.228,163.51c0,0,6.647,1.121,8.811,1.392c2.162,0.271-3.524-0.85-6.328-1.585c-2.804-0.734-1.602-0.502-1.602-0.502
		l-0.561,0.618"/>
	<path d="M131.436,170.042c0.083-0.25-0.084-0.333,0.833-2s2.584-3.251,3.834-4.084s2.166-0.833,2.166-0.833
		s-2.999,2.333-3.666,3.25s-1.75,1.916-2,3.083s-0.667,2.084-0.667,2.084L131.436,170.042z"/>
	<path d="M136.269,174.042c0,0-0.166-3.334,0.417-4.584s2.333-3,3.333-3.25s3.084-0.333,3.084-0.333s-3.417,0.916-4.167,2.083
		s-1.251,1.583-1.417,2.75s-0.25,3.5-0.25,3.5"/>
	<path d="M54.436,172.375c0,0-0.834,2.249-0.917,3.666s0.167,5.917,0.167,5.917l0.917,1.333c0,0-0.25-3.249-0.333-4.416
		s-0.25-3.25-0.083-4S54.436,172.375,54.436,172.375z"/>
	<path d="M58.769,173.041c0,0-1.417,2.667-1.417,4.167s0.833,4,1.333,4.5s1.667,1.833,1.667,1.833l1.083-0.166l-1.333-1.334
		c0,0-1.167-1.416-1.583-2.916S58.769,173.041,58.769,173.041z"/>
	<path fill="none" stroke="#000000" stroke-width="0.75" d="M100.768,103.5c0,0-3.625,3.25-4.375,4.875s-2.875,6.5-5.625,8.875
		s-5.875,5.25-8.25,7s-6,3.75-6,3.75"/>
	<path fill="none" stroke="#000000" stroke-width="0.75" d="M28.143,114.75c0,0,3.25-2.875,9.375-6.25s11.375-5.25,14.625-5.625
		s7,0.625,8.375,1s8.25,4.25,10.625,8.125s3.875,10.75,4.25,12.875s1.125,5.25,1.125,5.25L87.768,149l-11.625-7.625L82.268,152"/>
	<path d="M80.143,152.75c0,0-2.125,0.5-7-2.375s-5.5-3.625-5.5-3.625s3.5,4.25,5.75,5.125s5.625,1.625,5.625,1.625L80.143,152.75z"
		/>
	<path fill="none" stroke="#000000" stroke-width="0.75" d="M73.018,155.875c0,0-7.375-1.25-9.75-1.25s-3.5,0.25-4.875,2.125
		s-3.375,7.5-4,8.875"/>
	<path fill="none" stroke="#000000" stroke-width="0.75" d="M51.518,170.875c0,0-1.625,2.5-3.25,3.125s-2.25,0.25-4-0.375
		s-3-2.125-4.125-2.375s-2.875-0.25-3.25-0.375s-2-1.25-2-1.25s1.375,3.375,1.375,4.125s0,1-1.125,0.875s-2.875,0.25-3.75-0.25
		s-0.25,2.875,0.125,3.25s1.125,1-0.875,0.625s-4.75-1.75-4.75-1.75l-1.75-2.125c0,0,1.375,4.375,1.125,5s-1.5,1.375-2.75,0.375
		s-2.75-4.25-2.75-4.25s0.25,1.125-0.5,2.125S17.768,180,17.143,179s-1.125,0.875-3.125-7.25s-1.625-14.875-1.375-15.25
		s-1-1.5-1.875-4.25s-0.5-5-0.625-6.75s1.625-4.5,1.625-4.5"/>
	<path fill="none" stroke="#000000" stroke-width="0.75" d="M12.268,136.125c0,0-0.18,0.055-0.395,0.211
		c-0.645,0.469-1.605,1.852,1.02,5.414c3.5,4.75,7.958,8.708,7.958,8.708l13.333-10.666c0,0-4.417-4.542-10.417-4.917
		S12.268,136.125,12.268,136.125z"/>
	<line fill="none" stroke="#000000" stroke-width="0.75" x1="16.768" y1="135.125" x2="23.268" y2="129.875"/>
	<path d="M11.94,140.063c0,0-1.28,2.108-1.482,2.556c-0.202,0.446,0.27,0.319,0.27,0.319l1.415-1.917L11.94,140.063z"/>
	<path d="M94.268,149.25c0,0-3.5-0.625-6,0.375s-1.625,1.625-1.625,1.625s0.375-0.625,2.438-1.125S94.268,149.25,94.268,149.25z"/>
	<path fill="none" stroke="#000000" stroke-width="0.75" d="M89.018,149.875c-0.188,0.063-19.063,6.875-23.063,8.625
		s-7.063,3.063-9.438,5.313s-4,4.188-4.688,6.5s-0.813,6.625,0,8.813s1.313,3.188,3.188,3.813s5.273,1,6.418,0.438
		s2.52-1.375,3.395-3.313s1.188-2.813,1.25-4.813s0.063-2.5,1.25-3.75s2.563-2.375,2.563-2.375s9-1.75,19-0.688
		s28.938,4.25,28.938,4.25s-5.5-6.688-5.313-6.625s11.188,1.313,11,1.313S115.143,159,115.143,159"/>
	<path fill="none" stroke="#000000" stroke-width="0.75" d="M177.33,163.5c-0.188,0.188-10.313-2.875-17.125-8.438
		s-9.25-14.688-7.063-20.688s10-13.688,10-13.688"/>
	<path fill="none" stroke="#000000" stroke-width="0.75" d="M167.518,159.875c0,0-6.688-1.063-14.375-1s-14.875,0.75-17.125,2.375
		s-3.313,2.375-4.25,4.813s-0.25,4.375,0.375,5.813s2,2.75,7.5,2.313s9.313-1.063,15.125-1s18.938,0.063,21.188,0.5
		s3.25,1.625,9.875,2s21.313,0.5,21.313,0.5l-4.438-4.25l11.5,1.188c0,0-9.125-8.938-9.188-8.75s6.813,0,6.813,0
		s-10-5.5-11.688-7.125s-2.5-3.75-2.5-3.75s3.75-8.875,5.5-12.563s3.313-7.625,2.563-11.875s-4.063-8.688-8.063-11.813
		s-4.938-4.625-11.875-4.313s-8.813,1.438-13.938,1.813c0,0-5,0.875-10.438,0.563s-4.875-0.063-12.125-1.938
		s-18.5-4.563-25.625-6.438s-15.625-3.813-15.625-3.813s-6.938-2.438-10.875-3.563s-7-2.063-9.938-1.188s-5.125,3-6.625,4.813
		s-5.063,6.063-5.063,6.063"/>
	<path d="M92.643,98.438c0,0-7,6.438-8.313,8.188s4.188-0.188,4.188-0.188s4.25-3.813,6.938-5.188S92.643,98.438,92.643,98.438z"/>
	<path d="M87.393,120.208c-0.042,0.125-1.375,3.709-1.375,4.209s-1.25-1.875-1.25-1.875"/>
	<path d="M22.934,158.209l-1.167,8.167l1.833,0.333c0,0,0.083-2.083,0.75-3.083s0.833-1.334,0.833-1.334L22.934,158.209z"/>
	<path fill="none" stroke="#000000" stroke-width="0.75" d="M41.643,127.531c0,0,0.625-4.99,3.958-5.073s5.583-0.499,6.333,5.334"/>
	<path fill="none" stroke="#000000" stroke-width="0.75" d="M24.685,125.208c0,0,0-3.417,1.75-4s3.5-0.5,4.833,1.5
		s1.25,2.834,1.25,2.834"/>
	<ellipse fill="none" stroke="#000000" stroke-width="0.75" cx="46.768" cy="124.583" rx="10.917" ry="9.875"/>
	<path fill="none" stroke="#000000" stroke-width="0.75" d="M36.589,128.272c-0.13-0.346-0.366-0.93-0.365-1.418
		c-0.225-0.827-0.337-1.654-0.299-2.354c0.016-0.285,0.056-0.58,0.109-0.878c0.044-0.53,0.15-1.057,0.305-1.557
		c0.119-0.384,0.263-0.837,0.447-1.284c0.177-0.519,0.416-1.006,0.715-1.428c-1.736-2.14-4.648-3.563-7.983-3.563
		c-5.338,0-9.667,3.6-9.667,8.042s4.328,8.042,9.667,8.042c2.956,0,5.578-1.121,7.35-2.86
		C36.772,128.769,36.682,128.519,36.589,128.272z"/>
	<line fill="none" stroke="#000000" stroke-width="0.75" x1="29.101" y1="114.041" x2="25.81" y2="116.583"/>
	<line fill="none" stroke="#000000" stroke-width="0.75" x1="120.268" y1="164.25" x2="132.768" y2="164.333"/>
	<polyline points="134.893,162.167 133.435,159.875 135.976,161.083 	"/>
	<path fill="none" stroke="#000000" stroke-width="0.75" d="M203.351,123.458c0,0,5.999,2.501,9.333,8.417s5.083,10.25,6.75,15.833
		s3.25,12.749,6.167,16.833s3.751,6.251,9.584,8.584s11.917,3.168,15.333,2.751s5.166-1.666,7.666-3.5s3.751-6.334,3.834-10.167
		s0.251-5.5-0.333-9.25s-2.334-10.749-1.584-12.166s3.168-2.918,5.084-1.834s3.333,4.666,3.916,9.833s0.334,13.584,0.167,17.584
		s-1.167,8.666-4.917,12.333s-6.167,4.5-11,5s-12.666,0.501-16.333-0.666s-8.584-2.417-13.334-7.667s-7.083-8.083-8.833-13.75
		s-1.667-7.583-3.25-12.25s-2.083-6.583-3.583-9s-2.917-4.25-2.917-4.25"/>
	<path d="M261.643,152.5c0.063,0.188,2,5.375,2,5.375s-0.25-7.188-0.125-6.938s2.375,6.5,2.313,6.375s-0.125-10.75-0.125-10.75
		l4.063,11.75c0,0-0.688-14.063-2.375-16.75s-3.75-3.25-4.688-2.75s-2.334,1.336-2.604,1.98s0.104,3.457,0.354,4.457
		s0.875,4.625,0.875,4.625"/>
	<polyline points="77.018,128.043 76.309,128.626 76.018,127.918 76.893,127.626 	"/>
	<polyline points="97.184,99.958 89.434,105.541 94.601,99.125 	"/>
	<path fill="none" stroke="#000000" stroke-width="0.75" d="M100.517,103.458c0,0-12.833,1.999-16.5,2.833
		s16.167-2.499,16.167-2.499"/>
</g>
</svg>
