<?xml version="1.0" encoding="utf-8"?>
<!-- Generator: Adobe Illustrator 13.0.0, SVG Export Plug-In . SVG Version: 6.00 Build 14948)  -->
<!DOCTYPE svg PUBLIC "-//W3C//DTD SVG 1.1//EN" "http://www.w3.org/Graphics/SVG/1.1/DTD/svg11.dtd">
<svg version="1.1" xmlns="http://www.w3.org/2000/svg" xmlns:xlink="http://www.w3.org/1999/xlink" x="0px" y="0px"
	 width="227.166px" height="136.789px" viewBox="0 0 227.166 136.789" enable-background="new 0 0 227.166 136.789"
	 xml:space="preserve">
<g id="frame_1">
	<path fill="#D69E3A" d="M36.944,57.485c0,0-4.33,5.268-4.589,5.32c-0.258,0.055-2.429-0.04-2.429-0.04s-8.838-2.58-10.781-2.479
		c-1.942,0.1-4.795,0.091-4.795,0.091s0.996,3.563,1.215,3.84c0.218,0.277,1.264,3.428,1.264,3.428l-4.86,2.014l-1.133,1.037
		l-4.037-1.327l-1.324-0.16l0.741,1.518c0,0,1.814,1.646,2.343,2.13s7.574,4.693,8.901,5.525s15.47,6.739,17.177,7.198
		c1.708,0.458,3.049,2.552,3.049,2.552s5.344,5.096,8.152,6.861c2.809,1.766,9.849,4.633,11.454,5.247
		c1.604,0.614,28.136-2.22,28.136-2.22s10.163-9.768,10.111-10.025c-0.053-0.259,2.183-12.496,2.183-12.496s2.451-7.089,2.492-7.421
		c0.04-0.331-0.194-4.64-0.194-4.64l29.725-3.539c0,0,6.779-5.392,7.95-7.433c1.17-2.041,1.57-8.12,1.562-10.136
		c-0.007-2.016-2.499-9.871-2.499-9.871s-5.264-8.527-7.375-9.118c-2.11-0.591-4.86-0.756-5.294-0.64
		c-0.435,0.115-5.476,3.617-5.476,3.617l-8.952,7.396L98.076,45.491c0,0-9.345-5.998-10.949-6.613
		c-1.605-0.613-7.598-2.43-7.598-2.43s-9.658,1.434-10.608,1.654S60.259,41,59.703,41.436c-0.556,0.437-4.301,2.25-4.301,2.25
		l-0.97,0.387"/>
	<path fill="#D69E3A" d="M81.999,103.479c0.247,0.03,5.65,1.859,5.65,1.859l4.601,0.136l0.859,0.524l-2.896,4.519
		c0,0-6.109-0.151-6.543-0.037c-0.435,0.116-4.077,1.773-4.077,1.773l-3.074,3.909c0,0-0.997,1.307-0.729,1.172
		c0.269-0.135,1.366,0.5,1.366,0.5s-0.265,0.809-0.007,0.755c0.258-0.053,5.017,0.858,5.017,0.858l7.743-2.253
		c0,0,5.476-2.947,6.126-3.455c0.649-0.51,5.725-5.688,6.032-6.153c0.309-0.467,2.854-4.86,2.854-4.86s3.468,1.175,3.716,1.205
		s8.478,0.69,8.478,0.69s7.48-0.773,7.749-0.909c0.268-0.136,10.556-1.913,10.556-1.913s9.85-3.005,10.107-3.058
		c0.259-0.055,10.74-7.598,10.74-7.598l6.573-10.623c0,0,5.742-14.161,5.494-14.192c-0.248-0.029,1.77-9.774,1.571-10.218
		c-0.198-0.444-0.741-9.827-0.96-10.105c-0.217-0.278-3.646-4.554-3.894-4.584c-0.248-0.029-8.44-3.791-9.247-4.058
		c-0.807-0.265-8.244-1.92-8.244-1.92l-6.938-0.251l-2.542,0.195l0.284,14.306l-2.01,4.121l-1.171,2.041l-2.38,1.642l-4.227,3.015
		l-4.41,1.062l-5.938,1.212l-6.808,0.772l-2.903,0.403l0.919,12.534l-0.727,4.613l-2.22,5.859l-5.541,7.64l-5.266,3.979
		l-6.561,3.572l-5.219,0.124l-1.609,0.813L81.999,103.479z"/>
	<path fill="#D69E3A" d="M128.31,112.691l-8.802,6.826l2.857,0.681l3.381,0.493l1.026,0.545l6.039,0.729c0,0,4.79-1.436,5.058-1.571
		c0.269-0.135,4.399-0.979,4.399-0.979s4.645-1.62,5.006-1.828c0.362-0.207,3.462-2.939,3.462-2.939l1.882-2.374l1.047-1.72
		l2.588-1.953c0,0-0.352-2.646-0.673-2.768c-0.32-0.122-7.616,0.507-8.629,0.551c-1.013,0.045-8.467,1.999-9.253,2.239
		c-0.784,0.24-7.245,2.313-7.431,2.457c-0.188,0.146-3.455,2.186-3.455,2.186l-0.298,0.383"/>
	<path fill="#D69E3A" d="M128.197,113.265c-0.496-0.06-8.441,2.127-8.441,2.127l-1.405,1.215l-0.736,1.925l0.669,0.711l1.226,0.275
		l6.625-2.725l2.083-2.644"/>
	<path fill="#956E28" d="M74.869,36.808c-0.247-0.03-3.246-13.404-3.47-15.025c-0.225-1.622-0.984-10.611-0.781-11.595
		c0.205-0.982,1.909-3.966,2.475-4.485c0.566-0.519,2.548-1.622,2.548-1.622l5.01-0.485l8.056,0.723l1.688,0.624l7.479,4.095
		l3.382,3.263l2.85,4.207l1.016,3.396l-0.246,5.51l-0.799,4.521l-0.898,2.576l-1.878,3.719l-1.959,3.709l-2.649,4.548l1.254,0.739
		l-4.128,4.284c0,0-0.23-0.867-1.065-2.981c-0.837-2.116-3.325-6.53-3.572-6.56c-0.248-0.031-3.242-1.651-3.242-1.651l-4.285-1.359
		L77.42,36.53L74.869,36.808z"/>
	<path fill="#956E28" d="M97.747,63.499c0,0-0.196,7.867-0.569,10.256c-0.373,2.388-2.457,10.614-3.845,13.048
		c-1.387,2.437-3.609,4.853-6.342,6.62c-2.732,1.77-3.805,2.31-6.188,3.282c-2.384,0.97-8.195,2.531-10.285,2.447
		c-2.088-0.085-6.812,0.1-9.386-0.129c-2.575-0.226-8.925-1.161-9.411-1.306c-0.486-0.143,0.965,1.041,0.965,1.041l5.817,1.879
		l7.243,1.883l9.369,0.966c0,0,4.715,0.57,4.974,0.519c0.258-0.053,6.322-0.916,6.322-0.916l9.586-4.295l7.508-6.563l3.645-6.526
		l2.26-6.19l-0.042-7.98l-0.223-6.489l-0.707-1.093L97.747,63.499z"/>
	<path fill="#956E28" d="M62.577,82.916c0,0,2.104,1.346,2.779,2.015c0.673,0.668,1.44,1.264,1.424,2.103
		c-0.018,0.838-0.264,1.479-0.728,1.842c-0.464,0.364-0.988,1.225-1.917,1.28c-0.93,0.055-1.714,0.295-1.714,0.295
		s2.637,0.404,3.865-0.034c1.229-0.439,2.951-1.491,3.062-2.4c0.109-0.911,0.177-2.161-1.5-2.869
		C66.17,84.44,62.577,82.916,62.577,82.916z"/>
	<path fill="#956E28" d="M76.095,103.689l-2.374,5.757c0,0-4.634-0.562-5.057-0.527c-0.424,0.031-3.897,2.381-3.897,2.381
		l-2.452,2.223l-0.801,1.078l0.963,0.367l-0.028,0.922l3.888,0.469l-0.576,0.602c0,0,5.53,0.082,6.109,0.151
		c0.578,0.07,2.624-0.186,2.624-0.186l1.918-1.279l1.172-1.369l1.773-1.465l1.288-0.935l1.608-0.813l0.898-0.479l3.103-4.828
		c0,0-7.355-1.645-7.842-1.788s-2.506-0.806-2.506-0.806"/>
	<path fill="#956E28" d="M82.165,119.448l0.46-1.035c0,0,2.069,0.251,3.668-0.479c1.6-0.729,6.672-3.811,9.05-6.124
		c2.38-2.314,4.676-4.64,6.589-7.262c1.912-2.621,1.623-2.322,3.277-4.892c1.654-2.57,1.819-2.551,2.854-4.859
		c1.034-2.309,1.14-1.792,1.372-3.022c0.232-1.231,0.452,4.586-1.146,8.086c-1.598,3.501-6.756,11.438-6.756,11.438l-4.589,5.32
		l-2.05,1.685l-2.354,0.721l-2.417,0.548l-3.473,0.251L82.165,119.448z"/>
	<path fill="#956E28" d="M102.789,109.94l3.91,0.978l-2.71,2.273l-0.109,0.911l2.877,0.514l-0.267,0.809l3.372,0.574l2.118-0.163
		l1.82,0.221l2.181,0.013l2.078,0.166l1.012-0.045l3.565-3.094l10.436-0.921l1.158,0.141l7.553-0.681l5.164-1.054l3.59-1.916
		l3.509-1.255c0,0-1.115,2.3-3.012,4.085c-1.896,1.785-4.779,4.123-4.779,4.123l-2.134,1.671l-2.96,1.573l-2.765,1.345l-1.609,0.813
		c0,0,8.645-2.061,11.298-2.495c2.655-0.434,9.87-0.4,9.87-0.4s2.236-1.829,2.803-2.347c0.566-0.519,1.501-2.001,1.501-2.001
		l-0.091-2.026l-0.378-1.724l-0.97-1.712l-1.058-0.969l-1.071-1.556l-0.301-0.288c0,0,6.98-4.276,8.753-5.74
		c1.772-1.466,4.43-3.998,5.89-5.667c1.462-1.67,4.81-7.141,6.123-9.669c1.313-2.526,2.91-8.797,3.256-10.267
		c0.347-1.468,0.129-9.386-0.426-11.048c-0.555-1.661-2.944-6.903-3.442-7.635c-0.499-0.732-2.297-3.216-2.825-3.7
		c-0.529-0.483-3.707-4.058-3.998-4.429c-0.29-0.37-2.778-2.686-3.329-3.005c-0.55-0.318-1.815-1.646-2.447-1.976
		c-0.633-0.328-1.813-0.974-1.813-0.974s2.166,6.391,2.044,9.481c-0.123,3.09-0.075,4.775-0.518,7.743
		c-0.442,2.969-1.019,6.341-2.082,9.57c-1.061,3.227-0.973,4.582-2.089,7.554c-1.114,2.969-3.646,7.953-5.366,9.675
		c-1.719,1.722-2.879,3.683-6.621,6.167c-3.742,2.483-7.875,3.327-11.083,4.869c-3.208,1.544-8.846,3.044-11.263,3.591
		c-2.417,0.546-6.482,2.238-8.766,2.381c-2.284,0.144-4.145,0.255-5.995,0.282c-1.849,0.028-2.894,0.322-4.061,0.265
		c-1.168-0.058-1.489-0.181-1.489-0.181l-4.375,7.025"/>
	<path fill="#956E28" d="M81.041,103.405c0,0,8.423,1.145,9.941,1.077c1.52-0.068,1.52-0.068,1.52-0.068l-0.747,3.058
		c0,0-11.429-3.354-11.667-3.467C79.848,103.89,81.041,103.405,81.041,103.405z"/>
	<path fill="#956E28" d="M138.038,112.063c0,0-17.677,3.527-18.481,3.934c-0.805,0.405,0.677-1.43,0.677-1.43l2.403-1.471
		l16.359-1.674"/>
	<path fill="#FF5AAD" d="M111.185,40.53L91.324,62.47l7.922,1.126l13.417,0.111c0,0,1.089,0.721,2.907-1.83
		c1.82-2.55,5.312-7.835,5.178-8.103c-0.135-0.269,0.759-4.189,0.634-4.541c-0.126-0.351-1.444-4.036-1.579-4.305
		c-0.135-0.268-1.963-2.504-2.265-2.792c-0.3-0.287-5.226-1.891-5.226-1.891L111.185,40.53z"/>
	<path fill="#C181B9" d="M180.926,80.191c0,0-1.218,3.127-1.351,3.53c-0.133,0.402-1.29,3.033-1.29,3.033l-0.813,1.16
		c0,0,6.656-0.201,8.578-0.137c1.924,0.063,10.702,1.042,12.088,1.379c1.388,0.335,4.833,1.004,5.713,1.361
		c0.879,0.359,3.913,1.649,3.913,1.649l2.662,1.58l2.53,1.985l3.077,4.401l1.308,3.769c0,0,0.475,5.094,0.444,5.342
		c-0.029,0.248-0.526,2.959-0.526,2.959l-1.034,2.309l-2.157,1.166l-3.865,2.135l-5.185,1.219l-7.16,0.897l-8.435-0.349
		l-10.607-0.444l-10.061-0.798c0,0-11.103-0.503-11.36-0.451c-0.26,0.053-9.229,0.647-9.229,0.647l-7.53,1.188l-6.701,1.958
		c0,0-3.672,1.906-3.941,2.042c-0.269,0.136-5.484,3.702-5.484,3.702l-2.504,1.963l-7.724,6.955c0,0,11.65-4.716,14.263-5.491
		s10.048-2.563,10.048-2.563l6.64-1.463l6.167-1.017l7.173-0.308l5.818-0.22l5.635,0.597l9.503,0.563l7.991,0.547l8.558,0.028
		l5.859-0.551l6.044-0.696l5.315-1.623c0,0,2.973-0.984,3.954-1.453c0.979-0.469,4.051-2.952,4.051-2.952l2.81-3.101l1.228-3.209
		l0.487-7.496l-0.578-4.938l-1.16-3.583c0,0-4.084-5.11-4.996-5.893c-0.912-0.781-8.749-6.095-8.997-6.124
		c-0.247-0.031-5.951-2.147-5.951-2.147l-9.794-1.604l-9.092-1.185l-4.457-0.622"/>
	<path fill="#B23F79" d="M111.566,40.156c0,0,8.561-7.61,10.18-8.506c1.619-0.895,3.63-2.247,5.016-1.911
		c1.386,0.335,3.866,2.732,5.664,5.218c1.798,2.483,2.268,4.137,3.098,7.006c0.828,2.87,1.136,5.174,0.65,7.801
		c-0.485,2.628-0.79,3.767-1.53,5.02c-0.74,1.254-1.306,1.773-2.171,2.676c-0.864,0.902-1.173,1.369-1.173,1.369l-2.351,1.394
		l-3.158,1.13l-2.364,0.804l-3.771,0.635l-3.273,0.696l-4.611-0.054c0,0-0.8,1.077,1.847-1.372c2.646-2.45,4.249-4.605,5.026-6.862
		c0.775-2.257,1.026-4.323,0.751-6.204c-0.276-1.881-1.271-4.771-2.907-5.809c-1.638-1.037-6.117-2.168-6.117-2.168L111.566,40.156z
		"/>
	
		<ellipse transform="matrix(-0.9747 -0.2237 0.2237 -0.9747 121.6973 138.7415)" fill="#FFFFFF" cx="68.707" cy="62.478" rx="15.703" ry="13.679"/>
	
		<ellipse transform="matrix(-0.9597 -0.2809 0.2809 -0.9597 79.483 116.772)" fill="#FFFFFF" cx="48.111" cy="52.689" rx="12.665" ry="10.501"/>
	<path fill="#FFFFFF" d="M15.699,61.714l-1.515-1.358l-4.076-0.996l-3.462,0.169l-1.332,0.594l-1.453,0.916l-0.855,0.819
		l-0.651,2.606l-0.21,1.738l1.858,1.987l1.173,1.401l1.635,0.365l2.69,0.66l2.73,0.332c0,0-0.176-2.707-0.229-2.966
		c-0.053-0.259,1.829-2.634,2.035-2.944c0.206-0.31,1.542-2.331,1.542-2.331L15.699,61.714z"/>
	
		<ellipse transform="matrix(-0.9928 -0.1201 0.1201 -0.9928 111.1039 128.0674)" fill="#0090FB" cx="59.41" cy="60.687" rx="5.897" ry="5.229"/>
	
		<ellipse transform="matrix(-0.9928 -0.1201 0.1201 -0.9928 74.4517 106.9601)" fill="#0090FB" cx="40.449" cy="51.236" rx="4.854" ry="4.292"/>
	
		<ellipse transform="matrix(-0.9927 -0.1203 0.1203 -0.9927 74.2754 106.9383)" fill="#003D5F" cx="40.366" cy="51.227" rx="2.021" ry="1.917"/>
	
		<ellipse transform="matrix(-0.9927 -0.1203 0.1203 -0.9927 110.9103 127.6653)" fill="#003D5F" cx="59.308" cy="60.485" rx="2.354" ry="2.251"/>
	
		<ellipse transform="matrix(-0.9927 -0.1202 0.1202 -0.9927 79.598 103.5109)" fill="#FFFFFF" cx="42.922" cy="49.354" rx="1.125" ry="0.958"/>
	
		<ellipse transform="matrix(-0.9928 -0.12 0.12 -0.9928 117.5777 124.1276)" fill="#FFFFFF" cx="62.525" cy="58.524" rx="1.229" ry="1.083"/>
	
		<ellipse transform="matrix(-0.9928 -0.1199 0.1199 -0.9928 105.1993 131.7546)" fill="#FFFFFF" cx="56.562" cy="62.713" rx="1.104" ry="0.959"/>
	<circle fill="#FFFFFF" cx="37.574" cy="52.799" r="0.812"/>
	<path d="M105.313,37.027c-0.202,0.102-16.673,18.129-16.673,18.129l17.334-17.355L105.313,37.027z"/>
	<path d="M55.757,87.063c0,0,1.978-1.774,3.179-1.819c1.202-0.043,3.631,0.691,3.631,0.691s-2.187-0.138-2.899,0.027
		c-0.713,0.166-0.985-0.183-1.75,0.418s-1.12,0.935-1.12,0.935L55.757,87.063z"/>
	
		<ellipse transform="matrix(-0.9727 -0.2321 0.2321 -0.9727 121.1175 139.5889)" fill="none" stroke="#000000" stroke-width="0.75" cx="68.769" cy="62.67" rx="15.774" ry="13.488"/>
	<path fill="none" stroke="#000000" stroke-width="0.75" d="M53.296,59.991c0.117-1.616,0.653-3.141,1.757-4.501
		c0.266-0.566,0.656-1.036,1.122-1.438c0.98-1.258,2.245-2.526,3.71-3.122c-1.13-4.128-5.101-7.597-10.302-8.471
		c-6.763-1.14-13.018,2.526-13.972,8.188c-0.954,5.663,3.757,11.175,10.52,12.313c2.49,0.42,4.909,0.185,7.022-0.56
		C53.059,61.617,53.112,60.787,53.296,59.991z"/>
	<path fill="none" stroke="#000000" stroke-width="0.75" d="M36.941,57.338c0,0-4.112,4.854-4.662,5.229
		c-0.549,0.373-1.177,0.36-1.177,0.36s-5.906-1.659-8.644-1.928c-2.738-0.268-8.042-0.656-8.042-0.656"/>
	<path fill="none" stroke="#000000" stroke-width="0.75" d="M6.306,59.738c0,0-2.135,1.001-3,1.903
		c-0.865,0.903-1.165,3.386-1.17,3.95c-0.006,0.566,0.984,1.756,1.762,2.606c0.779,0.849,1.806,1.729,3.645,2.14
		c1.839,0.411,5.067,1.307,6.78,1.198c1.713-0.107,4.037-0.582,4.917-1.608c0.879-1.026,1.534-2.27,1.304-3.493
		c-0.23-1.224-1.176-3.291-3.662-4.599C14.394,60.527,11.666,58.624,6.306,59.738z"/>
	<path fill="none" stroke="#000000" stroke-width="0.75" d="M5.594,69.788c0,0,1.512,2.071,2.904,3.059s8.31,5.727,14.202,8.014
		c5.894,2.287,14.809,6.136,19.727,7.107c4.918,0.974,7.85,1.202,9.546,0.715c1.696-0.488,4.025-1.528,4.907-2.05"/>
	<path fill="none" stroke="#000000" stroke-width="0.75" d="M35.729,86.089c0,0,4.921,5.631,8.441,7.757
		c3.521,2.126,9.636,5.698,15.262,7.071c5.626,1.373,14.237,3.044,20.321,2.71s9.71-1.155,12.936-2.842
		c3.226-1.688,10.412-7.491,12.491-11.143c2.078-3.653,3.58-8.255,3.979-11.04s0.181-12.947-0.232-13.689
		c-0.414-0.742-0.313-1.045-0.313-1.045"/>
	<path fill="none" stroke="#000000" stroke-width="0.75" d="M104.776,38.348c0,0,6.596-6.128,10.118-9.227
		c3.522-3.1,8.401-6.476,10.742-6.57c2.34-0.095,3.807,0.272,6.665,3.702c2.859,3.432,6.057,8.225,6.497,11.866
		c0.441,3.642,0.226,5.945-0.109,9.241c-0.337,3.296-1.004,5.167-2.521,7.313c-1.519,2.146-4.877,4.236-6.424,5.226
		c-1.548,0.988-7.742,2.925-13.084,3.37s-8.628,0.718-10.395,0.756"/>
	<path d="M106.644,63.672c0,0-5.425-0.257-7.098-0.313c-1.671-0.055-1.62,0.036-1.62,0.036s7.216,1.251,9.503,0.897"/>
	<path fill="none" stroke="#000000" stroke-width="0.75" d="M55.021,44.06c0,0,9.418-4.989,12.175-5.579s8.371-2.598,13.699-1.533
		c5.327,1.065,12.394,5.108,14.331,6.436c1.938,1.326,2.613,1.995,2.613,1.995"/>
	<path fill="none" stroke="#000000" stroke-width="0.75" d="M74.787,36.797c0,0-2.356-10.358-3.104-13.89
		c-0.749-3.532-1.42-11.168-0.622-13.59c0.797-2.422,2.566-4.558,5.075-5.178c2.509-0.62,10.283-0.351,13.76,0.741
		c3.479,1.092,8.213,3.596,10.797,6.51c2.585,2.916,4.768,5.697,4.707,8.963c-0.06,3.267-1.034,9.948-3.138,14.142
		c-2.103,4.195-5.626,9.729-5.626,9.729"/>
	<path fill="none" stroke="#000000" stroke-width="0.75" d="M138.606,35.199c0,0,6.86-0.512,12.801,1.046
		c5.939,1.558,10.682,3.307,15.148,6.616c4.467,3.312,11.327,10.437,13.383,14.966c2.054,4.53,3.673,11.272,1.679,19.426
		c-1.993,8.153-6.193,15.115-10.045,18.511c-3.854,3.396-8.827,7.746-14.143,10.041c-5.313,2.296-5.52,2.605-10.939,4.385
		c-5.418,1.779-8.384,2.008-14.048,2.33c-5.663,0.321-11.285,0.313-16.994-0.378s-8.967-1.505-10.694-1.797
		c-1.728-0.293-2.296-0.445-2.296-0.445"/>
	<path fill="none" stroke="#000000" stroke-width="0.75" d="M91.832,107.521c0,0-10.865-3.159-11.766-3.354
		c-0.899-0.192-0.932-0.616-0.932-0.616"/>
	<path fill="none" stroke="#000000" stroke-width="0.75" d="M92.855,104.624c-0.114,0.237-2.282,5.684-2.282,5.684
		s-5.366-0.062-7.266,0.381c-1.9,0.441-4.253,1.835-5.332,3.132c-1.08,1.297-2.559,3.804-2.559,3.804L77.133,118l-0.523,0.86
		c0,0,5.109,0.784,7.714,0.765c2.605-0.021,6.295,0.007,8.02-0.373c1.726-0.379,2.954-0.816,4.498-2.477
		c1.543-1.661,5.093-6.017,7.138-9.044c2.044-3.025,4.036-6.309,4.822-8.648c0.788-2.34,0.968-3.829,0.968-3.829"/>
	<path fill="none" stroke="#000000" stroke-width="0.75" d="M76.251,103.79l-2.614,5.645c0,0-3.011-0.783-4.55-0.551
		c-1.538,0.233-4.042,2.196-5.352,3.298c-1.309,1.101-2.233,2.499-2.233,2.499l1.542,0.439l-0.596,0.768l3.897,0.387l-0.244,0.643
		c0,0,7.3,0.716,8.651-0.045c1.351-0.76,1.351-0.76,1.351-0.76"/>
	<line fill="none" stroke="#000000" stroke-width="0.75" x1="85.903" y1="105.883" x2="82.873" y2="110.804"/>
	<path fill="none" stroke="#000000" stroke-width="0.75" d="M123.203,112.577c0,0-4.422,3.242-5.244,4.486
		c-0.82,1.242-0.932,2.153-0.932,2.153l1.377,0.418l-0.319,0.549l7.229,0.623l0.621,0.411l7.602,1.003"/>
	<path fill="none" stroke="#000000" stroke-width="0.75" d="M158.153,105.388c0,0,2.635,2.502,3.387,4.608
		c0.753,2.104,0.471,3.75,0.297,4.484c-0.172,0.735-1.602,2.157-1.994,2.613c-0.392,0.456-1.547,0.988-1.547,0.988"/>
	<line fill="none" stroke="#000000" stroke-width="0.75" x1="138.168" y1="35.356" x2="139.409" y2="35.171"/>
	<path fill="none" stroke="#000000" stroke-width="0.75" d="M146.653,71.555c0,0-4.201,0.373-8.155,1.846
		c-3.956,1.474-9.738,5.558-12.275,8.841c-2.538,3.28-3.686,7.045-4.271,10.312c-0.583,3.266,0.802,10.547,3.582,13.591
		c2.779,3.043,7.342,5.924,10.156,6.076"/>
	<path d="M146.488,71.179c0,0,3.75,0.074,6.919,1.109c3.168,1.034,3.4,1.209,4.205,1.664c0.805,0.453,0.906,0.486,0.906,0.486
		s-9.099-2.674-12.033-2.525"/>
	<path fill="none" stroke="#000000" stroke-width="0.75" d="M181.009,80.201c0,0,17.742,1.138,25.435,4.167
		c7.69,3.031,15.1,7.704,17.689,14.062c2.588,6.356,1.436,15.87-0.228,18.522c-1.663,2.653-5.92,5.916-11.763,7.728
		c-5.844,1.811-13.664,2.629-19.092,2.391c-5.427-0.237-13.378-0.443-21.101-1.126c-7.724-0.684-13.896-1.01-22.698,0.275
		c-8.802,1.287-17.248,3.118-26.072,6.667c-8.822,3.55-8.822,3.55-8.822,3.55s9.562-10.344,17.341-13.599
		c7.78-3.255,17.767-5.322,30.69-4.598c12.924,0.724,31.318,2.027,37.331,1.579c6.014-0.449,13.729-1.782,16.381-5.657
		c2.652-3.876,1.635-10.044,0.247-13.149c-1.387-3.106-4.662-7.95-13.334-10.51c-8.671-2.561-22.856-3.27-24.849-2.755"/>
	<line fill="none" stroke="#000000" stroke-width="0.75" x1="177.713" y1="88.029" x2="180.119" y2="87.564"/>
	<path fill="none" stroke="#000000" stroke-width="0.75" d="M106.988,110.615c0,0-2.392,1.726-2.71,2.274s-0.542,1.025,0.265,1.291
		s2.233,0.271,2.233,0.271l-0.193,0.9c0,0,2.618,0.567,3.981,0.396c1.364-0.171,1.757,0.046,1.757,0.046s3.704,0.614,4.809,0.496
		c1.105-0.118,1.582,0.108,1.582,0.108"/>
	<path fill="none" stroke="#000000" stroke-width="0.75" d="M106.776,114.451c0,0,2.003-2.697,2.7-2.906
		c0.698-0.208,0.981-0.134,0.981-0.134"/>
	<path fill="none" stroke="#000000" stroke-width="0.75" d="M112.101,115.514c0,0,0.926-1.398,1.787-1.924
		c0.86-0.526,2.336-1.27,2.336-1.27"/>
	<path d="M62.827,115.178c0,0,0.254-0.726,2.25-2.288c1.994-1.563,2.159-1.543,2.159-1.543s-3.792,3.946-4.189,4.445"/>
	<path d="M65.974,116.23c0,0,2.063-2.479,3.314-3.462c1.252-0.98,1.717-1.008,1.717-1.008s-4.733,4.799-4.904,5.156"/>
	<path d="M77.304,117.979c0.056-0.12,3.36-3.498,4.119-3.868c0.758-0.369,0.758-0.369,0.758-0.369l-5.022,5.436"/>
	<path d="M81.475,119.239c0.057-0.12,0.139-1.16,1.802-2.763c1.664-1.604,3.99-2.792,3.99-2.792s-2.98,2.788-3.63,3.634
		c-0.648,0.845-1.329,2.313-1.329,2.313"/>
	<path d="M118.404,119.635c0,0,2.471-2.387,4.219-3.646c1.745-1.257,4.125-2.187,4.125-2.187s-7.797,6.15-7.992,6.379
		c-0.194,0.228-0.194,0.228-0.194,0.228"/>
	<path d="M125.167,120.62c0,0,1.36-1.891,3.759-3.322c2.399-1.431,5.324-2.377,5.324-2.377s-8.335,5.413-8.574,6.35L125.167,120.62z
		"/>
	<path d="M15.852,61.146c0,0-3.816-0.379-6.2,0.592s-3.351,2.029-3.762,2.65c-0.411,0.623-0.396,1.883,0.725,3.026
		c1.121,1.143,2.357,2.719,4.541,3.402c2.184,0.686,2.64,1.076,2.64,1.076s3.788-0.78,4.615-1.372
		c0.827-0.593,2.098-2.768,2.098-2.768l0.034-1.318l-0.314-1.906l-2.49-2.315l-1.482-0.936"/>
</g>
<g id="frame_2">
	<path fill="#D69E3A" d="M120.455,11.774c0,0,4.375,2.5,4.438,2.688s3.313,1.813,3.313,2.063s2.188,2.063,2.188,2.063
		s1.188,1.875,1.25,2.125s0.875,2.625,0.813,2.875s-3.75-1.75-3.938-1.875"/>
	<path fill="#D69E3A" d="M95.767,99.087l0.188-0.5c0,0-3,1-3.188,1.063s-2.938,0.75-2.938,0.75l-3.313,0.5l-7.688,0.375h-5.313
		H71.58c0,0,4.625,1.625,4.938,1.625s4.563,1.125,4.563,1.125l1.813,0.25l9.438-0.75c0,0,3.25-2.688,3.438-2.75
		s0.438-2.063,0.438-2.063"/>
	<path fill="#D69E3A" d="M93.08,105.399l-1.688,4.188l-5.25,0.438l-3.375,0.563c0,0-2.375,1.688-2.563,1.75s-1.75,1.188-1.75,1.188
		l-0.938,1.688l-1.25,1.875l1.625,0.25l5.313-2.813l6.375-2.125l3.938-1.563l1.313-2.5v-2.063c0,0-1.375-1.375-1.563-1.125"/>
	<path fill="#956E28" d="M86.392,98.212c-0.188,0.063-1.688,2.438-1.688,2.438l2.25,0.375l1.375-1.5l-2.063-1.75"/>
	<path fill="#D69E3A" d="M106.642,50.774c0,0,4.188,13.563,4.188,13.875s16.688,0.063,17.438,0s15-11,15-11l0.25-8.688l-3.563-6.625
		l1.438-2.063l21.063,9.188l4.375-0.75l-1.375-3.25l-0.875-1.5l-4.063-1.938l-9.313-3l-4.688-0.813l-8.25,0.188
		c0,0-4.063,0.5-5,0.75"/>
	<path fill="#D69E3A" d="M33.906,65.604c0,0-2.699,6.261-2.933,6.385c-0.233,0.122-2.347,0.634-2.347,0.634
		s-9.206-0.027-11.044,0.605c-1.839,0.637-4.583,1.419-4.583,1.419s1.946,3.146,2.233,3.353c0.287,0.207,2.164,2.942,2.164,2.942
		l-4.111,3.283l-0.801,1.312l-4.246-0.157l-1.316,0.215l1.133,1.251c0,0,2.199,1.079,2.841,1.396
		c0.643,0.318,8.58,2.411,10.084,2.843c1.506,0.43,16.732,2.185,18.5,2.151c1.768-0.032,3.636,1.606,3.636,1.606
		s6.548,3.413,9.736,4.332c3.187,0.918,10.746,1.72,12.459,1.865c1.71,0.146,26.417-9.937,26.417-9.937s7.055-12.202,6.932-12.436
		c-0.121-0.232-1.367-12.61-1.367-12.61s0.393-7.49,0.338-7.82s-1.473-4.406-1.473-4.406l32.786-10.006c0,0,5.019-7.059,5.578-9.346
		c0.559-2.285-0.744-8.237-1.311-10.171c-0.567-1.935-10.349-10.426-10.349-10.426s-7.421-6.733-9.614-6.716
		c-2.192,0.018-4.879,0.622-5.264,0.853c-0.385,0.232-4.256,4.995-4.256,4.995l-6.552,9.587l-7.862,14.527
		c0,0-10.644-3.171-12.355-3.315c-1.712-0.146-7.972-0.229-7.972-0.229s-8.883,4.057-9.735,4.531
		c-0.852,0.475-7.518,5.185-7.931,5.759c-0.414,0.572-3.509,3.354-3.509,3.354l-0.826,0.64"/>
	<path fill="#D69E3A" d="M82.661,103.847c0.249,0.027,5.671,1.797,5.671,1.797l4.602,0.087l0.865,0.515l-2.847,4.549
		c0,0-6.11-0.085-6.544,0.035c-0.433,0.12-4.057,1.817-4.057,1.817l-3.032,3.942c0,0-0.982,1.316-0.716,1.179
		s1.371,0.486,1.371,0.486s-0.257,0.812,0.001,0.755c0.258-0.056,5.025,0.805,5.025,0.805l7.719-2.338c0,0,5.443-3.007,6.088-3.522
		c0.644-0.516,5.662-5.748,5.966-6.218c0.303-0.47,2.801-4.89,2.801-4.89s3.48,1.137,3.729,1.164
		c0.248,0.027,8.484,0.599,8.484,0.599s7.472-0.854,7.738-0.993c0.268-0.139,10.534-2.027,10.534-2.027s9.816-3.111,10.074-3.168
		c0.257-0.056,10.657-7.714,10.657-7.714l6.457-10.692c0,0,5.589-14.225,5.34-14.252c-0.248-0.027,1.664-9.792,1.461-10.234
		c-0.203-0.441-0.848-9.818-1.068-10.094c-0.222-0.276-3.696-4.515-3.944-4.542c-0.249-0.027-8.48-3.699-9.29-3.956
		c-0.811-0.257-8.266-1.832-8.266-1.832l-6.939-0.176l-2.54,0.224l0.439,14.301l-1.965,4.144l-1.148,2.054l-2.362,1.668l-4.193,3.06
		l-4.397,1.109l-5.926,1.276l-6.799,0.846l-2.899,0.436l1.055,12.523l-0.675,4.62l-2.156,5.884l-5.459,7.699l-5.223,4.036
		l-6.52,3.643l-5.219,0.181l-1.6,0.83L82.661,103.847z"/>
	<path fill="#D69E3A" d="M129.07,111.806l-8.726,6.921l2.863,0.65l3.386,0.456l1.032,0.532l6.047,0.665c0,0,4.774-1.487,5.041-1.625
		s4.389-1.026,4.389-1.026s4.626-1.671,4.985-1.883s3.43-2.977,3.43-2.977l1.856-2.395l1.028-1.73l2.565-1.981
		c0,0-0.379-2.642-0.702-2.761s-7.61,0.59-8.622,0.646c-1.013,0.056-8.446,2.089-9.229,2.338c-0.781,0.249-7.22,2.391-7.404,2.539
		c-0.185,0.147-3.431,2.222-3.431,2.222l-0.294,0.387"/>
	<path fill="#D69E3A" d="M128.963,112.38c-0.497-0.055-8.418,2.218-8.418,2.218l-1.393,1.23l-0.716,1.934l0.678,0.703l1.229,0.262
		l6.595-2.797l2.054-2.666"/>
	<path fill="#956E28" d="M64.61,35.22c-0.245,0.039-6.835-11.979-7.5-13.474c-0.666-1.496-3.89-9.923-3.965-10.923
		c-0.078-1,0.732-4.339,1.132-4.996c0.4-0.655,1.998-2.264,1.998-2.264l4.68-1.856l7.939-1.54l1.794,0.132l8.321,1.86l4.154,2.197
		l3.903,3.251l1.918,2.981l1.291,5.362l0.486,4.565l-0.148,2.725l-0.773,4.093l-0.854,4.105l-1.283,5.105l1.409,0.362l-2.778,5.263
		c0,0-0.46-0.77-1.851-2.57c-1.389-1.801-5.004-5.352-5.25-5.312c-0.247,0.04-3.573-0.688-3.573-0.688l-4.492-0.117l-4.183,0.763
		L64.61,35.22z"/>
	<path fill="#956E28" d="M112.781,60.529l-2.014-6.175l-0.981-0.854l-15.606,0.895c0,0,1.992,7.612,2.296,10.011
		c0.305,2.397,0.583,10.879-0.074,13.603c-0.657,2.725-2.122,5.663-4.258,8.12c-2.134,2.456-3.014,3.274-5.035,4.867
		c-2.021,1.595-1.963,6.342-3.994,6.84c-2.03,0.498-11.728,0.349-14.263,0.845c-2.536,0.495-8.896,1.357-9.403,1.354
		c-0.507-0.001,1.214,0.732,1.214,0.732l6.109,0.192l5.995,0.678c0.104-0.137,0.267-0.229,0.501-0.209
		c4.37,0.365,8.667-0.17,12.95-1.039c0.472-0.096,0.779,0.273,0.812,0.642l1.702-0.307c0,0,4.689-0.76,4.923-0.882
		s5.821-2.632,5.821-2.632l8.019-6.784l5.394-8.388l1.691-7.28l0.455-6.574L112.781,60.529z"/>
	<path fill="#956E28" d="M65.586,82.928c0,0,2.393,0.71,3.228,1.165c0.834,0.456,1.733,0.815,1.95,1.625
		c0.218,0.81,0.158,1.495-0.187,1.973c-0.344,0.478-0.61,1.45-1.487,1.76c-0.878,0.313-1.565,0.761-1.565,0.761
		s2.645-0.343,3.705-1.107c1.058-0.762,2.421-2.248,2.274-3.153c-0.147-0.905-0.429-2.125-2.236-2.338
		C69.46,83.396,65.586,82.928,65.586,82.928z"/>
	<path fill="#956E28" d="M76.762,103.37l-2.313,5.782c0,0-4.64-0.511-5.063-0.474s-3.871,2.424-3.871,2.424l-2.427,2.248
		l-0.79,1.088l0.966,0.357l-0.018,0.921l3.894,0.428l-0.569,0.607c0,0,5.53,0.022,6.11,0.086c0.579,0.063,2.622-0.215,2.622-0.215
		l1.903-1.3l1.158-1.382l1.757-1.483l1.277-0.949l1.601-0.83l0.893-0.488l3.05-4.862c0,0-7.373-1.564-7.861-1.703
		c-0.487-0.138-2.514-0.779-2.514-0.779"/>
	<path fill="#956E28" d="M83,119.063l0.449-1.041c0,0,2.071,0.229,3.663-0.52c1.591-0.747,6.629-3.882,8.983-6.222
		c2.354-2.34,4.623-4.689,6.507-7.333c1.885-2.643,1.6-2.339,3.226-4.927s1.792-2.57,2.801-4.89c1.01-2.319,1.121-1.805,1.341-3.038
		c0.219-1.233,0.501,4.581-1.059,8.099c-1.561,3.518-6.632,11.512-6.632,11.512l-4.531,5.369l-2.031,1.705l-2.346,0.748L90.96,119.1
		l-3.469,0.289L83,119.063z"/>
	<path fill="#956E28" d="M103.521,109.331l3.921,0.935l-2.685,2.303l-0.101,0.912l2.882,0.483l-0.258,0.812l3.379,0.538l2.115-0.186
		l1.822,0.2l2.182-0.012l2.079,0.145l1.013-0.056l3.53-3.133l10.426-1.033l1.16,0.127l7.544-0.763l5.152-1.11l3.569-1.954
		l3.495-1.293c0,0-1.092,2.312-2.968,4.117s-4.734,4.175-4.734,4.175l-2.115,1.694l-2.943,1.605l-2.749,1.374l-1.601,0.83
		c0,0,8.621-2.154,11.271-2.617s9.864-0.508,9.864-0.508s2.216-1.853,2.777-2.378c0.561-0.524,1.479-2.016,1.479-2.016l-0.113-2.025
		l-0.396-1.721l-0.987-1.701l-1.068-0.956l-1.087-1.544l-0.305-0.285c0,0,6.933-4.352,8.689-5.835s4.386-4.046,5.829-5.731
		c1.442-1.685,4.731-7.191,6.017-9.733c1.286-2.541,2.815-8.828,3.146-10.301s0.026-9.388-0.546-11.043
		c-0.573-1.655-3.019-6.872-3.524-7.598c-0.507-0.726-2.333-3.19-2.866-3.668c-0.534-0.479-3.751-4.019-4.045-4.386
		c-0.295-0.367-2.809-2.656-3.362-2.969c-0.553-0.313-1.833-1.627-2.469-1.948s-1.823-0.955-1.823-0.955s2.234,6.366,2.146,9.458
		c-0.088,3.092-0.021,4.776-0.433,7.749c-0.41,2.974-0.95,6.352-1.978,9.592s-0.924,4.594-2.007,7.576s-3.562,7.992-5.262,9.732
		c-1.7,1.741-2.839,3.713-6.554,6.238c-3.716,2.524-7.838,3.412-11.029,4.99c-3.191,1.577-8.812,3.14-11.223,3.712
		c-2.411,0.573-6.458,2.309-8.74,2.477s-4.142,0.299-5.991,0.347c-1.85,0.049-2.89,0.354-4.058,0.309s-1.491-0.164-1.491-0.164
		l-4.299,7.071"/>
	<path fill="#956E28" d="M81.703,103.032c0,0,8.436,1.054,9.953,0.969c1.519-0.084,1.519-0.084,1.519-0.084l-0.714,3.064
		c0,0-11.464-3.229-11.704-3.34C80.516,103.53,81.703,103.032,81.703,103.032z"/>
	<path fill="#956E28" d="M138.791,111.071c0,0-17.637,3.72-18.438,4.135c-0.8,0.415,0.661-1.437,0.661-1.437l2.387-1.497
		l16.342-1.851"/>
	<path fill="#FF5AAD" d="M113.406,52.03c0.418-0.048,0.92-0.229,1.368-0.354c0.352-0.375,0.739-0.989,1.104-2.021
		c1.04-2.955,2.93-9.004,2.725-9.223c-0.203-0.221-0.431-4.233-0.648-4.537c-0.219-0.304-2.507-3.478-2.711-3.698
		c-0.203-0.221-2.582-1.861-2.948-2.056c-0.37-0.193-10.758-2.002-10.758-2.002l-1.003,0.586L87.536,55.312l7.923-1.115
		l13.123-1.432c0.24-0.657,0.985-1.158,1.78-0.717c0.52,0.289,1.254,0.079,1.884,0.026C112.669,51.811,113.082,51.84,113.406,52.03z
		"/>
	<path fill="#C181B9" d="M181.331,78.736c0,0-1.185,3.141-1.313,3.545s-1.257,3.047-1.257,3.047l-0.799,1.17
		c0,0,6.652-0.273,8.576-0.23c1.924,0.044,10.712,0.926,12.103,1.247c1.39,0.32,4.843,0.952,5.726,1.301
		c0.884,0.349,3.932,1.606,3.932,1.606l2.679,1.552l2.552,1.957l3.125,4.368l1.348,3.753c0,0,0.53,5.089,0.503,5.338
		c-0.027,0.248-0.494,2.963-0.494,2.963l-1.01,2.321l-2.143,1.188l-3.845,2.177l-5.17,1.275l-7.149,0.975l-8.438-0.258
		l-10.611-0.329l-10.068-0.688c0,0-11.107-0.383-11.365-0.327c-0.258,0.055-9.221,0.746-9.221,0.746l-7.518,1.269l-6.679,2.032
		c0,0-3.651,1.945-3.918,2.084c-0.268,0.139-5.444,3.762-5.444,3.762l-2.482,1.99l-7.648,7.039c0,0,11.599-4.843,14.202-5.647
		c2.604-0.804,10.02-2.67,10.02-2.67l6.623-1.535l6.155-1.084l7.17-0.386l5.815-0.282l5.642,0.537l9.508,0.459l7.996,0.46
		l8.559-0.064l5.852-0.614l6.037-0.762l5.299-1.681c0,0,2.961-1.017,3.937-1.496c0.976-0.479,4.019-2.994,4.019-2.994l2.776-3.133
		l1.192-3.222l0.406-7.5l-0.632-4.932l-1.2-3.57c0,0-4.138-5.065-5.059-5.838s-8.814-5.999-9.063-6.026
		c-0.249-0.027-5.975-2.083-5.975-2.083l-9.812-1.499l-9.103-1.084l-4.465-0.575"/>
	<path fill="#B23F79" d="M132.312,32.304c-0.263-2.66-1.197-4.787-2.788-7.313c-1.592-2.529-7.712-5.622-10.128-7.509
		c-2.416-1.889-5.465-3.505-6.891-3.444c-1.424,0.062-2.979,1.919-4.287,3.228c-1.308,1.31-7.422,10.996-7.422,10.996l-0.91,1.159
		c0,0,9.827,1.478,11.688,2.021c1.861,0.542,3.617,3.043,4.403,4.774c0.788,1.73,1.121,3.785,1,6.17
		c-0.12,2.383-1.063,4.898-2.926,7.986c-0.392,0.648-0.676,1.098-0.887,1.414c0.173,0.053,0.348,0.099,0.525,0.131l3.411-0.942
		l2.954-1.575l3.447-1.655l2.048-1.431l2.721-1.96l1.872-1.991c0,0,0.167-0.533,0.747-1.64c0.58-1.108,0.981-1.764,1.343-3.173
		C132.597,36.141,132.575,34.963,132.312,32.304z"/>
	
		<ellipse transform="matrix(-0.9985 0.0554 -0.0554 -0.9985 134.9235 119.4447)" fill="#FFFFFF" cx="65.808" cy="61.591" rx="15.702" ry="13.679"/>
	
		<ellipse transform="matrix(-1 -0.0038 0.0038 -1 85.9726 116.21)" fill="#FFFFFF" cx="43.097" cy="58.023" rx="12.666" ry="10.502"/>
	<path fill="#FFFFFF" d="M14.667,75.556l-1.832-0.884l-4.192,0.172l-3.28,1.122l-1.114,0.941l-1.143,1.281l-0.594,1.025L2.609,81.9
		l0.28,1.728l2.337,1.394l1.516,1.021l1.672-0.102l2.768-0.109l2.715-0.441c0,0-0.92-2.551-1.043-2.785
		c-0.122-0.233,1.027-3.038,1.14-3.393c0.111-0.355,0.833-2.667,0.833-2.667L14.667,75.556z"/>
	
		<ellipse transform="matrix(-0.9871 0.1598 -0.1598 -0.9871 122.0132 115.0826)" fill="#0090FB" cx="56.378" cy="62.448" rx="5.896" ry="5.23"/>
	
		<ellipse transform="matrix(-0.9871 0.1599 -0.1599 -0.9871 79.9999 110.8176)" fill="#0090FB" cx="35.541" cy="58.628" rx="4.855" ry="4.292"/>
	
		<ellipse transform="matrix(-0.9871 0.1599 -0.1599 -0.9871 79.839 110.8555)" fill="#003D5F" cx="35.458" cy="58.641" rx="2.021" ry="1.916"/>
	
		<ellipse transform="matrix(-0.9871 0.1601 -0.1601 -0.9871 121.6984 114.7605)" fill="#003D5F" cx="56.225" cy="62.284" rx="2.354" ry="2.25"/>
	
		<ellipse transform="matrix(-0.9872 0.1598 -0.1598 -0.9872 83.2769 105.5689)" fill="#FFFFFF" cx="37.395" cy="56.132" rx="1.125" ry="0.959"/>
	
		<ellipse transform="matrix(-0.9871 0.1601 -0.1601 -0.9871 126.3152 108.8346)" fill="#FFFFFF" cx="58.772" cy="59.507" rx="1.229" ry="1.084"/>
	
		<ellipse transform="matrix(-0.987 0.1605 -0.1605 -0.987 118.1688 120.8277)" fill="#FFFFFF" cx="54.205" cy="65.186" rx="1.104" ry="0.958"/>
	<circle fill="#FFFFFF" cx="33.212" cy="60.926" r="0.812"/>
	<path d="M93.92,26.989c-0.165,0.152-10.992,22.04-10.992,22.04l11.843-21.482L93.92,26.989z"/>
	<path d="M60.183,88.804c0,0,1.408-2.255,2.55-2.629c1.144-0.375,3.681-0.343,3.681-0.343s-2.14,0.472-2.779,0.83
		c-0.638,0.356-0.996,0.099-1.564,0.886c-0.569,0.789-0.817,1.209-0.817,1.209L60.183,88.804z"/>
	
		<ellipse transform="matrix(-0.9989 0.0468 -0.0468 -0.9989 134.6577 120.3678)" fill="none" stroke="#000000" stroke-width="0.75" cx="65.921" cy="61.759" rx="15.775" ry="13.488"/>
	<path fill="none" stroke="#000000" stroke-width="0.75" d="M50.312,63.477c-0.336-1.587-0.243-3.198,0.44-4.812
		c0.098-0.617,0.343-1.178,0.679-1.694c0.594-1.48,1.457-3.05,2.699-4.029c-2.23-3.651-7.007-5.882-12.247-5.281
		c-6.813,0.782-11.806,6.038-11.154,11.742c0.655,5.704,6.708,9.694,13.522,8.913c2.509-0.288,4.768-1.186,6.591-2.485
		C50.534,65.104,50.354,64.291,50.312,63.477z"/>
	<path fill="none" stroke="#000000" stroke-width="0.75" d="M33.863,65.462c0,0-2.606,5.804-3.029,6.316
		c-0.424,0.512-1.031,0.673-1.031,0.673s-6.134,0.044-8.84,0.545c-2.705,0.501-7.908,1.599-7.908,1.599"/>
	<path fill="none" stroke="#000000" stroke-width="0.75" d="M5.094,76.264c0,0-1.774,1.554-2.355,2.66
		c-0.581,1.107-0.18,3.575-0.029,4.12c0.152,0.546,1.433,1.415,2.417,2.016c0.983,0.6,2.214,1.16,4.095,1.046
		c1.881-0.114,5.231-0.151,6.847-0.729c1.615-0.579,3.716-1.68,4.277-2.91c0.561-1.229,0.845-2.605,0.284-3.718
		c-0.56-1.113-2.042-2.835-4.793-3.402C13.085,74.78,9.935,73.706,5.094,76.264z"/>
	<path fill="none" stroke="#000000" stroke-width="0.75" d="M7.197,86.116c0,0,2.027,1.572,3.637,2.135
		c1.611,0.561,9.572,3.196,15.868,3.76C33,92.574,42.631,93.8,47.627,93.37s7.875-1.022,9.37-1.961
		c1.494-0.938,3.444-2.584,4.146-3.331"/>
	<path fill="none" stroke="#000000" stroke-width="0.75" d="M40.67,93.42c0,0,6.291,4.047,10.262,5.112
		c3.972,1.065,10.838,2.804,16.624,2.563c5.786-0.24,19.732,0.613,25.486-1.396c5.753-2.009,9.008-3.803,11.639-6.318
		c2.633-2.516,7.927-10.084,8.911-14.17c0.985-4.085,1.151-8.924,0.763-11.71s-3.416-12.489-4.02-13.089
		c-0.604-0.599-0.592-0.916-0.592-0.916"/>
	<path fill="none" stroke="#000000" stroke-width="0.75" d="M93.77,28.405c0,0,4.64-7.716,7.164-11.67
		c2.525-3.954,6.274-8.551,8.497-9.291c2.224-0.74,3.734-0.795,7.433,1.709c3.697,2.503,13.309,7.857,14.741,11.234
		c1.435,3.377,1.866,5.649,2.457,8.909c0.591,3.261,0.469,5.242-0.396,7.726c-0.862,2.482-3.51,5.423-4.722,6.802
		c-1.212,1.378-6.626,4.956-11.636,6.865c-5.009,1.909-13.3,1.447-14.987,1.974"/>
	<path d="M102.587,52.219c0,0-5.282,1.257-6.905,1.668c-1.622,0.411-1.546,0.482-1.546,0.482s7.278-0.8,9.379-1.771"/>
	<path fill="none" stroke="#000000" stroke-width="0.75" d="M47.551,47.69c0,0,7.666-7.405,10.15-8.735
		c2.486-1.332,7.324-4.818,12.738-5.272c5.413-0.455,13.323,1.472,15.553,2.21c2.229,0.734,3.063,1.192,3.063,1.192"/>
	<path fill="none" stroke="#000000" stroke-width="0.75" d="M64.528,35.232c0,0-5.136-9.299-6.835-12.485s-4.46-10.336-4.366-12.885
		c0.093-2.547,1.203-5.091,3.44-6.382c2.238-1.291,9.783-3.188,13.427-3.103c3.644,0.084,8.887,1.175,12.178,3.26
		c3.292,2.084,6.16,4.151,7.01,7.307c0.847,3.155,1.763,9.844,0.905,14.457C89.43,30.016,87.58,36.31,87.58,36.31"/>
	<path fill="none" stroke="#000000" stroke-width="0.75" d="M138.525,34.207c0,0,6.854-0.587,12.812,0.905
		c5.956,1.493,10.716,3.191,15.22,6.453c4.503,3.262,11.439,10.313,13.544,14.819c2.104,4.507,3.795,11.231,1.89,19.406
		s-6.03,15.181-9.845,18.618s-8.742,7.841-14.031,10.194c-5.289,2.353-5.492,2.665-10.892,4.503s-8.361,2.099-14.021,2.482
		c-5.66,0.383-11.282,0.435-16.998-0.193c-5.715-0.629-8.982-1.408-10.713-1.682s-2.301-0.42-2.301-0.42"/>
	<path fill="none" stroke="#000000" stroke-width="0.75" d="M92.539,107.032c0,0-10.899-3.042-11.802-3.226
		c-0.902-0.185-0.939-0.606-0.939-0.606"/>
	<path fill="none" stroke="#000000" stroke-width="0.75" d="M93.529,104.123c-0.109,0.239-2.22,5.708-2.22,5.708
		s-5.366-0.004-7.261,0.459c-1.896,0.463-4.232,1.882-5.298,3.19c-1.065,1.308-2.517,3.83-2.517,3.83l1.721,0.357l-0.515,0.866
		c0,0,5.117,0.729,7.722,0.682c2.605-0.049,6.295-0.062,8.016-0.46s2.944-0.85,4.47-2.526c1.525-1.678,5.028-6.07,7.039-9.119
		c2.012-3.049,3.969-6.354,4.729-8.701c0.762-2.348,0.926-3.839,0.926-3.839"/>
	<path fill="none" stroke="#000000" stroke-width="0.75" d="M76.917,103.47l-2.552,5.672c0,0-3.02-0.75-4.556-0.501
		c-1.536,0.25-4.02,2.24-5.315,3.355c-1.297,1.114-2.206,2.523-2.206,2.523l1.547,0.422l-0.588,0.774l3.901,0.345l-0.238,0.645
		c0,0,7.308,0.637,8.65-0.138c1.343-0.775,1.343-0.775,1.343-0.775"/>
	<line fill="none" stroke="#000000" stroke-width="0.75" x1="86.591" y1="105.456" x2="83.615" y2="110.41"/>
	<path fill="none" stroke="#000000" stroke-width="0.75" d="M123.962,111.745c0,0-4.388,3.291-5.195,4.544
		c-0.808,1.252-0.908,2.163-0.908,2.163l1.381,0.403l-0.313,0.553l7.233,0.544l0.627,0.404l7.612,0.921"/>
	<path fill="none" stroke="#000000" stroke-width="0.75" d="M158.832,104.179c0,0,2.662,2.474,3.438,4.57
		c0.775,2.098,0.51,3.745,0.346,4.482c-0.165,0.736-1.579,2.173-1.966,2.634c-0.387,0.46-1.536,1.005-1.536,1.005"/>
	<line fill="none" stroke="#000000" stroke-width="0.75" x1="138.09" y1="34.368" x2="139.328" y2="34.169"/>
	<path fill="none" stroke="#000000" stroke-width="0.75" d="M146.965,70.472c0,0-4.195,0.419-8.135,1.935
		c-3.939,1.517-9.678,5.664-12.179,8.973c-2.502,3.309-3.609,7.086-4.157,10.357c-0.549,3.272,0.916,10.538,3.728,13.552
		c2.813,3.013,7.406,5.845,10.222,5.966"/>
	<path d="M146.797,70.098c0,0,3.749,0.034,6.93,1.034s3.414,1.174,4.224,1.618s0.911,0.478,0.911,0.478s-9.128-2.576-12.061-2.396"
		/>
	<path fill="none" stroke="#000000" stroke-width="0.75" d="M181.415,78.746c0,0,17.753,0.945,25.477,3.892
		c7.725,2.945,15.185,7.539,17.841,13.867c2.657,6.328,1.609,15.854-0.025,18.525c-1.635,2.67-5.855,5.979-11.678,7.854
		c-5.823,1.874-13.635,2.776-19.064,2.598c-5.431-0.179-13.382-0.299-21.113-0.897c-7.73-0.599-13.906-0.858-22.692,0.522
		c-8.787,1.381-17.215,3.305-25.999,6.949s-8.784,3.645-8.784,3.645s9.449-10.446,17.193-13.786
		c7.745-3.339,17.708-5.514,30.639-4.93s31.339,1.688,37.347,1.174c6.008-0.513,13.709-1.931,16.318-5.835s1.525-10.06,0.104-13.15
		s-4.749-7.899-13.447-10.365s-22.891-3.021-24.878-2.484"/>
	<line fill="none" stroke="#000000" stroke-width="0.75" x1="178.203" y1="86.608" x2="180.603" y2="86.118"/>
	<path fill="none" stroke="#000000" stroke-width="0.75" d="M107.727,109.961c0,0-2.373,1.751-2.685,2.303
		c-0.313,0.553-0.532,1.031,0.277,1.288c0.81,0.258,2.236,0.246,2.236,0.246l-0.183,0.902c0,0,2.624,0.539,3.985,0.354
		c1.361-0.186,1.758,0.026,1.758,0.026s3.709,0.574,4.813,0.444c1.104-0.13,1.583,0.091,1.583,0.091"/>
	<path fill="none" stroke="#000000" stroke-width="0.75" d="M107.556,113.798c0,0,1.975-2.718,2.669-2.935
		c0.695-0.216,0.979-0.144,0.979-0.144"/>
	<path fill="none" stroke="#000000" stroke-width="0.75" d="M112.893,114.804c0,0,0.91-1.409,1.766-1.943
		c0.855-0.535,2.322-1.295,2.322-1.295"/>
	<path d="M63.619,115.002c0,0,0.247-0.729,2.224-2.313c1.978-1.585,2.144-1.566,2.144-1.566s-3.75,3.988-4.141,4.49"/>
	<path d="M66.776,116.021c0,0,2.036-2.502,3.277-3.497s1.705-1.027,1.705-1.027s-4.681,4.85-4.848,5.209"/>
	<path d="M78.125,117.646c0.056-0.119,3.322-3.534,4.077-3.912c0.755-0.377,0.755-0.377,0.755-0.377l-4.964,5.49"/>
	<path d="M82.309,118.86c0.055-0.12,0.126-1.161,1.772-2.782c1.646-1.62,3.958-2.834,3.958-2.834s-2.949,2.819-3.589,3.672
		c-0.639,0.853-1.304,2.329-1.304,2.329"/>
	<path d="M119.24,118.855c0,0,2.445-2.414,4.178-3.69c1.733-1.275,4.103-2.231,4.103-2.231s-7.729,6.234-7.922,6.465
		s-0.192,0.23-0.192,0.23"/>
	<path d="M126.013,119.769c0,0,1.341-1.905,3.723-3.363c2.383-1.457,5.299-2.435,5.299-2.435s-8.276,5.503-8.506,6.441
		L126.013,119.769z"/>
	<path d="M14.656,74.968c0,0-3.771,0.695-5.792,2.289c-2.021,1.594-2.657,2.878-2.879,3.59s0.142,1.919,1.536,2.705
		c1.394,0.788,3.019,1.96,5.306,2.011c2.288,0.052,2.835,0.301,2.835,0.301s3.422-1.799,4.054-2.598
		c0.629-0.799,1.248-3.241,1.248-3.241l-0.334-1.275l-0.831-1.743l-3.035-1.535l-1.683-0.487"/>
	<path fill="#956E28" d="M86.955,91.212c0,0-15.313,7.125-19.188,7.813s21.313-0.188,21.313-0.188s1.188-4.313,1.063-4.563
		s-3.034-3.278-3.034-3.278"/>
	<path fill="#FFFFFF" d="M50.622,60.607c0,0-0.083,0.916-0.083,1.5s0.042,1.584,0.167,2.042s0.708,2.042,0.708,2.042
		s1.875,0.959,2.208,1.125s2.208,1.333,2.542,1.333s3.167-1.667,3.292-1.75s1.167-0.792,1.333-1s1.042-1.584,1.167-1.792
		s0.875-1.541,0.917-1.666s-0.042-1.917-0.125-2.167s-1.125-1.875-1.292-2.125s-1.583-1.126-1.792-1.167s-2.958-0.959-3.083-1
		s-3.666,1.501-3.833,1.584s-0.958,0.791-0.958,0.791l-1.167,2.084"/>
	<path fill="#FFFFFF" d="M37.746,53.649c0,0,3.042,2.042,3.208,2.375s1.25,3.334,1.208,3.792s-2.708,3.374-2.875,3.541
		s-2.458,1.334-2.458,1.334l-2.792-0.625l-1.333-1.125l-1-1.209c0,0-0.667-1.833-0.667-3.583s1.083-2.833,1.083-2.833l1.792-1.25
		l3.042-0.584"/>
	<path fill="#956E28" d="M108.392,52.618c0,0-5.875,0.188-6.719,0.438s-3.656,0.781-4.438,0.875s-3.156,0.438-3.156,0.438
		l-0.031,0.313c0,0,2.75,0.688,3,0.656s5.313-0.375,5.563-0.375s5.656,0.438,5.938,0.625s0.656-0.063,0.656-0.063l0.5-1l0.125-0.594
		l-0.656-1.188l-0.531-0.156"/>
	<line fill="none" stroke="#000000" stroke-width="0.75" x1="110.486" y1="54.618" x2="108.673" y2="52.087"/>
	<path fill="none" stroke="#000000" stroke-width="0.75" d="M80.642,103.774c0,0-9.375-2.5-11.063-2.625"/>
	<line fill="none" stroke="#000000" stroke-width="0.75" x1="77.205" y1="102.837" x2="76.017" y2="105.462"/>
	<path fill="none" stroke="#000000" stroke-width="0.75" d="M134.205,34.899c0,0,4.313-0.688,5.938-0.875"/>
	<path fill="none" stroke="#000000" stroke-width="0.75" d="M31.08,59.774c-0.5-0.125,19.125,3.625,19.125,3.625l31.625-0.75"/>
</g>
<g id="frame_3">
	<path fill="#D69E3A" d="M88.142,52.642l9,1.5c0,0,10.625,0.875,11.5,1.25s7.125,4.875,7.375,6.375s-1.875,9.125-2.25,10.875
		s-8.75,22.875-8.75,22.875l-5.125,4.625l-6.625,2c0,0-8.875,0.125-9.375,0.125s-4.75-3.75-4.75-3.75s0.25-32.75-0.125-32.875
		s-15.25-9.125-15.875-9.375s-8.5-3.25-9.5-3.75s-4.625-3.75-4.625-5s3.375-3.625,3.625-4s4-1.75,4-1.75"/>
	<path fill="#D69E3A" d="M96.205,99.329l0.188-0.5c0,0-3,1-3.188,1.063s-2.938,0.75-2.938,0.75l-3.313,0.5l-7.688,0.375h-5.313
		h-1.938c0,0,4.625,1.625,4.938,1.625s4.563,1.125,4.563,1.125l1.813,0.25l9.438-0.75c0,0,3.25-2.688,3.438-2.75
		s0.438-2.063,0.438-2.063"/>
	<path fill="#D69E3A" d="M93.517,105.642l-1.688,4.188l-5.25,0.438l-3.375,0.563c0,0-2.375,1.688-2.563,1.75s-1.75,1.188-1.75,1.188
		l-0.938,1.688l-1.25,1.875l1.625,0.25l5.313-2.813l6.375-2.125l3.938-1.563l1.313-2.5v-2.063c0,0-1.375-1.375-1.563-1.125"/>
	<path fill="#956E28" d="M86.83,98.454c-0.188,0.063-1.688,2.438-1.688,2.438l2.25,0.375l1.375-1.5l-2.063-1.75"/>
	<path fill="#D69E3A" d="M107.08,51.017c0,0,4.188,13.563,4.188,13.875s16.688,0.063,17.438,0s15-11,15-11l0.25-8.688l-3.563-6.625
		l1.438-2.063l21.063,9.188l4.375-0.75l-1.375-3.25l-0.875-1.5l-4.063-1.938l-9.313-3l-4.688-0.813l-8.25,0.188
		c0,0-4.063,0.5-5,0.75"/>
	<path fill="#D69E3A" d="M83.098,104.089c0.249,0.027,5.671,1.797,5.671,1.797l4.602,0.087l0.865,0.515l-2.847,4.549
		c0,0-6.11-0.085-6.544,0.035c-0.433,0.12-4.057,1.817-4.057,1.817l-3.032,3.942c0,0-0.982,1.316-0.716,1.179
		s1.371,0.486,1.371,0.486s-0.257,0.812,0.001,0.755c0.258-0.056,5.025,0.805,5.025,0.805l7.719-2.338c0,0,5.443-3.007,6.088-3.522
		c0.644-0.516,5.662-5.748,5.966-6.218c0.303-0.47,2.801-4.89,2.801-4.89s3.48,1.137,3.729,1.164
		c0.248,0.027,8.484,0.599,8.484,0.599s7.472-0.854,7.738-0.993c0.268-0.139,10.534-2.027,10.534-2.027s9.816-3.111,10.074-3.168
		c0.257-0.056,10.657-7.714,10.657-7.714l6.457-10.692c0,0,5.589-14.225,5.34-14.252c-0.248-0.027,1.664-9.792,1.461-10.234
		c-0.203-0.441-0.848-9.818-1.068-10.094c-0.222-0.276-3.696-4.515-3.944-4.542c-0.249-0.027-8.48-3.699-9.29-3.956
		c-0.811-0.257-8.266-1.832-8.266-1.832l-6.939-0.176l-2.54,0.224l0.439,14.301l-1.965,4.144l-1.148,2.054l-2.362,1.668l-4.193,3.06
		l-4.397,1.109l-5.926,1.276l-6.799,0.846l-2.899,0.436l1.055,12.523l-0.675,4.62l-2.156,5.884l-5.459,7.699l-5.223,4.036
		l-6.52,3.643l-5.219,0.181l-1.6,0.83L83.098,104.089z"/>
	<path fill="#D69E3A" d="M129.507,112.048l-8.726,6.921l2.863,0.65l3.386,0.456l1.032,0.532l6.047,0.665
		c0,0,4.774-1.487,5.041-1.625s4.389-1.026,4.389-1.026s4.626-1.671,4.985-1.883s3.43-2.977,3.43-2.977l1.856-2.395l1.028-1.73
		l2.565-1.981c0,0-0.379-2.642-0.702-2.761s-7.61,0.59-8.622,0.646c-1.013,0.056-8.446,2.089-9.229,2.338
		c-0.781,0.249-7.22,2.391-7.404,2.539c-0.185,0.147-3.431,2.222-3.431,2.222l-0.294,0.387"/>
	<path fill="#D69E3A" d="M129.401,112.622c-0.497-0.055-8.418,2.218-8.418,2.218l-1.393,1.23l-0.716,1.934l0.678,0.703l1.229,0.262
		l6.595-2.797l2.054-2.666"/>
	<path fill="#956E28" d="M77.2,103.612l-2.313,5.782c0,0-4.64-0.511-5.063-0.474s-3.871,2.424-3.871,2.424l-2.427,2.248l-0.79,1.088
		l0.966,0.357l-0.018,0.921l3.894,0.428l-0.569,0.607c0,0,5.53,0.022,6.11,0.086c0.579,0.063,2.622-0.215,2.622-0.215l1.903-1.3
		l1.158-1.382l1.757-1.483l1.277-0.949l1.601-0.83l0.893-0.488l3.05-4.862c0,0-7.373-1.564-7.861-1.703
		c-0.487-0.138-2.514-0.779-2.514-0.779"/>
	<path fill="#956E28" d="M83.438,119.306l0.449-1.041c0,0,2.071,0.229,3.663-0.52c1.591-0.747,6.629-3.882,8.983-6.222
		c2.354-2.34,4.623-4.689,6.507-7.333c1.885-2.643,1.6-2.339,3.226-4.927s1.792-2.57,2.801-4.89c1.01-2.319,1.121-1.805,1.341-3.038
		c0.219-1.233,0.501,4.581-1.059,8.099c-1.561,3.518-6.632,11.512-6.632,11.512l-4.531,5.369l-2.031,1.705l-2.346,0.748
		l-2.411,0.573l-3.469,0.289L83.438,119.306z"/>
	<path fill="#956E28" d="M103.958,109.573l3.921,0.935l-2.685,2.303l-0.101,0.912l2.882,0.483l-0.258,0.812l3.379,0.538l2.115-0.186
		l1.822,0.2l2.182-0.012l2.079,0.145l1.013-0.056l3.53-3.133l10.426-1.033l1.16,0.127l7.544-0.763l5.152-1.11l3.569-1.954
		l3.495-1.293c0,0-1.092,2.312-2.968,4.117s-4.734,4.175-4.734,4.175l-2.115,1.694l-2.943,1.605l-2.749,1.374l-1.601,0.83
		c0,0,8.621-2.154,11.271-2.617s9.864-0.508,9.864-0.508s2.216-1.853,2.777-2.378c0.561-0.524,1.479-2.016,1.479-2.016l-0.113-2.025
		l-0.396-1.721l-0.987-1.701l-1.068-0.956l-1.087-1.544l-0.305-0.285c0,0,6.933-4.352,8.689-5.835s4.386-4.046,5.829-5.731
		c1.442-1.685,4.731-7.191,6.017-9.733c1.286-2.541,2.815-8.828,3.146-10.301s0.026-9.388-0.546-11.043
		c-0.573-1.655-3.019-6.872-3.524-7.598c-0.507-0.726-2.333-3.19-2.866-3.668c-0.534-0.479-3.751-4.019-4.045-4.386
		c-0.295-0.367-2.809-2.656-3.362-2.969c-0.553-0.313-1.833-1.627-2.469-1.948s-1.823-0.955-1.823-0.955s2.234,6.366,2.146,9.458
		c-0.088,3.092-0.021,4.776-0.433,7.749c-0.41,2.974-0.95,6.352-1.978,9.592s-0.924,4.594-2.007,7.576s-3.562,7.992-5.262,9.732
		c-1.7,1.741-2.839,3.713-6.554,6.238c-3.716,2.524-7.838,3.412-11.029,4.99c-3.191,1.577-8.812,3.14-11.223,3.712
		c-2.411,0.573-6.458,2.309-8.74,2.477s-4.142,0.299-5.991,0.347c-1.85,0.049-2.89,0.354-4.058,0.309s-1.491-0.164-1.491-0.164
		l-4.299,7.071"/>
	<path fill="#956E28" d="M82.14,103.274c0,0,8.436,1.054,9.953,0.969c1.519-0.084,1.519-0.084,1.519-0.084l-0.714,3.064
		c0,0-11.464-3.229-11.704-3.34C80.954,103.772,82.14,103.274,82.14,103.274z"/>
	<path fill="#956E28" d="M139.228,111.313c0,0-17.637,3.72-18.438,4.135c-0.8,0.415,0.661-1.437,0.661-1.437l2.387-1.497
		l16.342-1.851"/>
	<path fill="#C181B9" d="M181.768,78.979c0,0-1.185,3.141-1.313,3.545s-1.257,3.047-1.257,3.047l-0.799,1.17
		c0,0,6.652-0.273,8.576-0.23c1.924,0.044,10.712,0.926,12.103,1.247c1.39,0.32,4.843,0.952,5.726,1.301
		c0.884,0.349,3.932,1.606,3.932,1.606l2.679,1.552l2.552,1.957l3.125,4.368l1.348,3.753c0,0,0.53,5.089,0.503,5.338
		c-0.027,0.248-0.494,2.963-0.494,2.963l-1.01,2.321l-2.143,1.188l-3.845,2.177l-5.17,1.275l-7.149,0.975l-8.438-0.258
		l-10.611-0.329l-10.068-0.688c0,0-11.107-0.383-11.365-0.327c-0.258,0.055-9.221,0.746-9.221,0.746l-7.518,1.269l-6.679,2.032
		c0,0-3.651,1.945-3.918,2.084c-0.268,0.139-5.444,3.762-5.444,3.762l-2.482,1.99l-7.648,7.039c0,0,11.599-4.843,14.202-5.647
		c2.604-0.804,10.02-2.67,10.02-2.67l6.623-1.535l6.155-1.084l7.17-0.386l5.815-0.282l5.642,0.537l9.508,0.459l7.996,0.46
		l8.559-0.064l5.852-0.614l6.037-0.762l5.299-1.681c0,0,2.961-1.017,3.937-1.496c0.976-0.479,4.019-2.994,4.019-2.994l2.776-3.133
		l1.192-3.222l0.406-7.5l-0.632-4.932l-1.2-3.57c0,0-4.138-5.065-5.059-5.838s-8.814-5.999-9.063-6.026
		c-0.249-0.027-5.975-2.083-5.975-2.083l-9.812-1.499l-9.103-1.084l-4.465-0.575"/>
	
		<ellipse transform="matrix(-0.9872 0.1598 -0.1598 -0.9872 84.185 105.9803)" fill="#FFFFFF" cx="37.833" cy="56.374" rx="1.125" ry="0.959"/>
	
		<ellipse transform="matrix(-0.987 0.1605 -0.1605 -0.987 119.077 121.2388)" fill="#FFFFFF" cx="54.642" cy="65.428" rx="1.104" ry="0.958"/>
	<path fill="none" stroke="#000000" stroke-width="0.75" d="M138.962,34.449c0,0,6.854-0.587,12.812,0.905
		c5.956,1.493,10.716,3.191,15.22,6.453c4.503,3.262,11.439,10.313,13.544,14.819c2.104,4.507,3.795,11.231,1.89,19.406
		s-6.03,15.181-9.845,18.618s-8.742,7.841-14.031,10.194c-5.289,2.353-5.492,2.665-10.892,4.503s-8.361,2.099-14.021,2.482
		c-5.66,0.383-11.282,0.435-16.998-0.193c-5.715-0.629-8.982-1.408-10.713-1.682s-2.301-0.42-2.301-0.42"/>
	<path fill="none" stroke="#000000" stroke-width="0.75" d="M92.976,107.274c0,0-10.899-3.042-11.802-3.226
		c-0.902-0.185-0.939-0.606-0.939-0.606"/>
	<path fill="none" stroke="#000000" stroke-width="0.75" d="M93.966,104.365c-0.109,0.239-2.22,5.708-2.22,5.708
		s-5.366-0.004-7.261,0.459c-1.896,0.463-4.232,1.882-5.298,3.19c-1.065,1.308-2.517,3.83-2.517,3.83l1.721,0.357l-0.515,0.866
		c0,0,5.117,0.729,7.722,0.682c2.605-0.049,6.295-0.062,8.016-0.46s2.944-0.85,4.47-2.526c1.525-1.678,5.028-6.07,7.039-9.119
		c2.012-3.049,3.969-6.354,4.729-8.701c0.762-2.348,0.926-3.839,0.926-3.839"/>
	<path fill="none" stroke="#000000" stroke-width="0.75" d="M77.355,103.712l-2.552,5.672c0,0-3.02-0.75-4.556-0.501
		c-1.536,0.25-4.02,2.24-5.315,3.355c-1.297,1.114-2.206,2.523-2.206,2.523l1.547,0.422l-0.588,0.774l3.901,0.345l-0.238,0.645
		c0,0,7.308,0.637,8.65-0.138c1.343-0.775,1.343-0.775,1.343-0.775"/>
	<line fill="none" stroke="#000000" stroke-width="0.75" x1="87.029" y1="105.698" x2="84.052" y2="110.652"/>
	<path fill="none" stroke="#000000" stroke-width="0.75" d="M124.4,111.987c0,0-4.388,3.291-5.195,4.544
		c-0.808,1.252-0.908,2.163-0.908,2.163l1.381,0.403l-0.313,0.553l7.233,0.544l0.627,0.404l7.612,0.921"/>
	<path fill="none" stroke="#000000" stroke-width="0.75" d="M159.269,104.421c0,0,2.662,2.474,3.438,4.57
		c0.775,2.098,0.51,3.745,0.346,4.482c-0.165,0.736-1.579,2.173-1.966,2.634c-0.387,0.46-1.536,1.005-1.536,1.005"/>
	<line fill="none" stroke="#000000" stroke-width="0.75" x1="138.528" y1="34.61" x2="139.765" y2="34.411"/>
	<path fill="none" stroke="#000000" stroke-width="0.75" d="M147.403,70.714c0,0-4.195,0.419-8.135,1.935
		c-3.939,1.517-9.678,5.664-12.179,8.973c-2.502,3.309-3.609,7.086-4.157,10.357c-0.549,3.272,0.916,10.538,3.728,13.552
		c2.813,3.013,7.406,5.845,10.222,5.966"/>
	<path d="M147.235,70.34c0,0,3.749,0.034,6.93,1.034s3.414,1.174,4.224,1.618s0.911,0.478,0.911,0.478s-9.128-2.576-12.061-2.396"/>
	<path fill="none" stroke="#000000" stroke-width="0.75" d="M181.852,78.988c0,0,17.753,0.945,25.477,3.892
		c7.725,2.945,15.185,7.539,17.841,13.867c2.657,6.328,1.609,15.854-0.025,18.525c-1.635,2.67-5.855,5.979-11.678,7.854
		c-5.823,1.874-13.635,2.776-19.064,2.598c-5.431-0.179-13.382-0.299-21.113-0.897c-7.73-0.599-13.906-0.858-22.692,0.522
		c-8.787,1.381-17.215,3.305-25.999,6.949s-8.784,3.645-8.784,3.645s9.449-10.446,17.193-13.786
		c7.745-3.339,17.708-5.514,30.639-4.93s31.339,1.688,37.347,1.174c6.008-0.513,13.709-1.931,16.318-5.835s1.525-10.06,0.104-13.15
		s-4.749-7.899-13.447-10.365s-22.891-3.021-24.878-2.484"/>
	<line fill="none" stroke="#000000" stroke-width="0.75" x1="178.64" y1="86.851" x2="181.041" y2="86.36"/>
	<path fill="none" stroke="#000000" stroke-width="0.75" d="M108.165,110.203c0,0-2.373,1.751-2.685,2.303
		c-0.313,0.553-0.532,1.031,0.277,1.288c0.81,0.258,2.236,0.246,2.236,0.246l-0.183,0.902c0,0,2.624,0.539,3.985,0.354
		c1.361-0.186,1.758,0.026,1.758,0.026s3.709,0.574,4.813,0.444c1.104-0.13,1.583,0.091,1.583,0.091"/>
	<path fill="none" stroke="#000000" stroke-width="0.75" d="M107.994,114.04c0,0,1.975-2.718,2.669-2.935
		c0.695-0.216,0.979-0.144,0.979-0.144"/>
	<path fill="none" stroke="#000000" stroke-width="0.75" d="M113.331,115.046c0,0,0.91-1.409,1.766-1.943
		c0.855-0.535,2.322-1.295,2.322-1.295"/>
	<path d="M64.056,115.244c0,0,0.247-0.729,2.224-2.313c1.978-1.585,2.144-1.566,2.144-1.566s-3.75,3.988-4.141,4.49"/>
	<path d="M67.213,116.263c0,0,2.036-2.502,3.277-3.497s1.705-1.027,1.705-1.027s-4.681,4.85-4.848,5.209"/>
	<path d="M78.562,117.888c0.056-0.119,3.322-3.534,4.077-3.912c0.755-0.377,0.755-0.377,0.755-0.377l-4.964,5.49"/>
	<path d="M82.747,119.103c0.055-0.12,0.126-1.161,1.772-2.782c1.646-1.62,3.958-2.834,3.958-2.834s-2.949,2.819-3.589,3.672
		c-0.639,0.853-1.304,2.329-1.304,2.329"/>
	<path d="M119.677,119.098c0,0,2.445-2.414,4.178-3.69c1.733-1.275,4.103-2.231,4.103-2.231s-7.729,6.234-7.922,6.465
		s-0.192,0.23-0.192,0.23"/>
	<path d="M126.451,120.011c0,0,1.341-1.905,3.723-3.363c2.383-1.457,5.299-2.435,5.299-2.435s-8.276,5.503-8.506,6.441
		L126.451,120.011z"/>
	<path fill="#956E28" d="M87.392,91.454c0,0-15.313,7.125-19.188,7.813s21.313-0.188,21.313-0.188s1.188-4.313,1.063-4.563
		s-3.034-3.278-3.034-3.278"/>
	<path fill="none" stroke="#000000" stroke-width="0.75" d="M81.08,104.017c0,0-9.375-2.5-11.063-2.625"/>
	<line fill="none" stroke="#000000" stroke-width="0.75" x1="77.642" y1="103.079" x2="76.455" y2="105.704"/>
	<path fill="none" stroke="#000000" stroke-width="0.75" d="M134.642,35.142c0,0,4.313-0.688,5.938-0.875"/>
	<path fill="#D69E3A" d="M98.138,60.621l29.594-4.498c0,0,6.602-5.606,7.706-7.685s1.307-8.166,1.233-10.182
		c-0.073-2.014-2.817-9.785-2.817-9.785s-5.535-8.353-7.665-8.875c-2.129-0.523-4.882-0.599-5.312-0.469s-5.354,3.793-5.354,3.793
		l-8.71,7.68L95.618,42.746c0,0-9.535-5.692-11.16-6.255c-1.623-0.562-7.67-2.183-7.67-2.183s-9.607,1.745-10.551,1.996
		c-0.942,0.25-8.562,3.175-9.104,3.629s-4.227,2.388-4.227,2.388l-0.957,0.417"/>
	<path fill="#D69E3A" d="M34.716,56.96c0,0-4.158,5.404-4.415,5.466s-2.43,0.037-2.43,0.037s-8.917-2.293-10.855-2.129
		c-1.938,0.162-4.79,0.246-4.79,0.246s1.111,3.527,1.338,3.798c0.227,0.271,1.375,3.385,1.375,3.385l-4.793,2.17l-1.098,1.073
		l-4.077-1.195l-1.329-0.117l0.789,1.491c0,0,1.867,1.587,2.412,2.054s7.722,4.447,9.075,5.236c1.353,0.787,15.679,6.235,17.4,6.639
		s3.129,2.451,3.129,2.451s5.505,4.921,8.369,6.595c2.864,1.675,9.993,4.313,11.616,4.874c1.624,0.563,28.05-3.127,28.05-3.127
		s9.843-10.091,9.781-10.348C94.204,85.303,96.043,73,96.043,73s2.222-7.165,2.251-7.498c0.028-0.332-0.344-4.631-0.344-4.631"/>
	<path fill="#956E28" d="M72.142,34.818c-0.25-0.022-3.679-13.292-3.955-14.906c-0.275-1.613-1.325-10.574-1.154-11.563
		c0.172-0.989,1.779-4.026,2.328-4.563s2.493-1.704,2.493-1.704l4.993-0.646l8.073,0.462l1.708,0.569l7.605,3.851l3.487,3.152
		l2.983,4.112l1.125,3.362l-0.069,5.515l-0.652,4.544l-0.814,2.604l-1.756,3.778l-1.839,3.769l-2.501,4.632l1.277,0.698
		l-3.988,4.416c0,0-0.258-0.859-1.161-2.946c-0.904-2.088-3.533-6.419-3.782-6.44c-0.249-0.022-3.293-1.547-3.293-1.547
		l-4.326-1.219l-4.241-0.291L72.142,34.818z"/>
	<path fill="#956E28" d="M95.869,60.755c0,0,0.058,7.87-0.237,10.27c-0.296,2.399-2.113,10.688-3.421,13.166
		s-3.451,4.967-6.125,6.821c-2.673,1.855-3.729,2.432-6.079,3.479c-2.352,1.047-8.109,2.796-10.2,2.779
		c-2.091-0.018-6.806,0.319-9.385,0.175c-2.581-0.144-8.958-0.874-9.449-1.001c-0.49-0.128,0.998,1.008,0.998,1.008l5.875,1.69
		l7.3,1.648l9.395,0.662c0,0,4.732,0.418,4.988,0.357c0.257-0.062,6.29-1.118,6.29-1.118l9.441-4.604l7.292-6.802l3.432-6.64
		l2.059-6.261l-0.3-7.975l-0.432-6.479l-0.741-1.069L95.869,60.755z"/>
	<path fill="#956E28" d="M61.345,81.299c0,0,2.146,1.276,2.842,1.924c0.696,0.646,1.48,1.218,1.491,2.056s-0.216,1.486-0.667,1.865
		s-0.948,1.254-1.875,1.341c-0.928,0.085-1.703,0.351-1.703,0.351s2.647,0.318,3.862-0.161c1.213-0.478,2.9-1.584,2.98-2.497
		s0.108-2.166-1.591-2.818C64.986,82.707,61.345,81.299,61.345,81.299z"/>
	<path fill="#FF5AAD" d="M108.559,37.364l-19.143,22.57l7.955,0.869l13.412-0.321c0,0,1.111,0.685,2.847-1.923
		c1.736-2.607,5.057-8.004,4.913-8.267c-0.144-0.265,0.624-4.211,0.486-4.559c-0.136-0.347-1.573-3.987-1.717-4.251
		s-2.043-2.439-2.353-2.718s-5.286-1.722-5.286-1.722L108.559,37.364z"/>
	<path fill="#B23F79" d="M108.927,36.979c0,0,8.31-7.883,9.899-8.829c1.59-0.948,3.556-2.364,4.951-2.073
		c1.396,0.29,3.952,2.608,5.83,5.032c1.877,2.425,2.401,4.061,3.321,6.903c0.921,2.841,1.303,5.134,0.902,7.775
		c-0.399,2.642-0.668,3.79-1.366,5.066c-0.699,1.276-1.248,1.814-2.084,2.744c-0.835,0.93-1.128,1.405-1.128,1.405l-2.304,1.471
		l-3.121,1.229l-2.336,0.881l-3.748,0.756l-3.25,0.802l-4.609,0.095c0,0-0.766,1.103,1.8-1.431c2.565-2.535,4.099-4.74,4.803-7.021
		c0.702-2.28,0.887-4.354,0.55-6.226s-1.424-4.728-3.093-5.711c-1.67-0.983-6.184-1.969-6.184-1.969L108.927,36.979z"/>
	
		<ellipse transform="matrix(-0.9814 -0.1921 0.1921 -0.9814 120.7236 133.0505)" fill="#FFFFFF" cx="66.812" cy="60.673" rx="15.703" ry="13.679"/>
	
		<ellipse transform="matrix(-0.9683 -0.2498 0.2498 -0.9683 77.4896 112.9435)" fill="#FFFFFF" cx="45.911" cy="51.555" rx="12.666" ry="10.501"/>
	<path fill="#FFFFFF" d="M13.807,61.623l-1.558-1.311l-4.106-0.864l-3.455,0.281l-1.312,0.638l-1.423,0.962l-0.828,0.847
		l-0.567,2.626l-0.154,1.743l1.921,1.927l1.218,1.363l1.646,0.313L7.9,70.722l2.739,0.241c0,0-0.263-2.699-0.324-2.956
		c-0.061-0.256,1.743-2.69,1.938-3.008s1.465-2.381,1.465-2.381L13.807,61.623z"/>
	
		<ellipse transform="matrix(-0.9961 -0.0879 0.0879 -0.9961 109.4963 123.1913)" fill="#0090FB" cx="57.462" cy="59.184" rx="5.896" ry="5.229"/>
	
		<ellipse transform="matrix(-0.9961 -0.088 0.088 -0.9961 71.8305 103.8695)" fill="#0090FB" cx="38.205" cy="50.351" rx="4.854" ry="4.292"/>
	
		<ellipse transform="matrix(-0.9961 -0.0882 0.0882 -0.9961 71.656 103.8529)" fill="#003D5F" cx="38.123" cy="50.343" rx="2.021" ry="1.917"/>
	
		<ellipse transform="matrix(-0.9961 -0.0881 0.0881 -0.9961 109.2847 122.7974)" fill="#003D5F" cx="57.354" cy="58.986" rx="2.354" ry="2.25"/>
	
		<ellipse transform="matrix(-0.9961 -0.0881 0.0881 -0.9961 76.8109 100.1688)" fill="#FFFFFF" cx="40.616" cy="48.389" rx="1.125" ry="0.958"/>
	
		<ellipse transform="matrix(-0.9961 -0.0878 0.0878 -0.9961 115.7769 118.9389)" fill="#FFFFFF" cx="60.505" cy="56.922" rx="1.229" ry="1.083"/>
	
		<ellipse transform="matrix(-0.9961 -0.0884 0.0884 -0.9961 103.7259 127.1994)" fill="#FFFFFF" cx="54.681" cy="61.302" rx="1.104" ry="0.958"/>
	<circle fill="#FFFFFF" cx="35.383" cy="52.006" r="0.812"/>
	<path d="M102.577,34.054c-0.198,0.108-16.079,18.658-16.079,18.658l16.765-17.908L102.577,34.054z"/>
	<path d="M54.663,85.664c0,0,1.919-1.838,3.119-1.92c1.2-0.083,3.651,0.573,3.651,0.573s-2.19-0.069-2.897,0.119
		s-0.99-0.149-1.736,0.475c-0.746,0.625-1.089,0.971-1.089,0.971L54.663,85.664z"/>
	
		<ellipse transform="matrix(-0.9797 -0.2005 0.2005 -0.9797 120.1979 133.901)" fill="none" stroke="#000000" stroke-width="0.75" cx="66.88" cy="60.863" rx="15.775" ry="13.489"/>
	<path fill="none" stroke="#000000" stroke-width="0.75" d="M51.328,58.686c0.065-1.619,0.552-3.159,1.612-4.555
		c0.247-0.575,0.622-1.057,1.075-1.475c0.938-1.289,2.162-2.599,3.607-3.241c-1.263-4.089-5.343-7.426-10.571-8.133
		c-6.796-0.92-12.93,2.946-13.699,8.635c-0.771,5.691,4.115,11.048,10.912,11.968c2.502,0.338,4.912,0.025,7-0.787
		C51.144,60.317,51.17,59.487,51.328,58.686z"/>
	<path fill="none" stroke="#000000" stroke-width="0.75" d="M34.896,56.563c0,0-3.954,4.983-4.491,5.376
		c-0.537,0.391-1.165,0.399-1.165,0.399s-5.957-1.468-8.702-1.647c-2.745-0.18-8.058-0.397-8.058-0.397"/>
	<path fill="none" stroke="#000000" stroke-width="0.75" d="M4.355,59.951c0,0-2.103,1.069-2.938,1.999
		c-0.835,0.932-1.055,3.421-1.042,3.987c0.012,0.565,1.04,1.723,1.845,2.547c0.806,0.823,1.86,1.67,3.712,2.021
		c1.851,0.353,5.106,1.142,6.815,0.979c1.708-0.163,4.016-0.712,4.861-1.767c0.846-1.055,1.46-2.317,1.191-3.534
		c-0.27-1.216-1.282-3.25-3.809-4.478C12.465,60.479,9.676,58.665,4.355,59.951z"/>
	<path fill="none" stroke="#000000" stroke-width="0.75" d="M3.967,70.019c3.743,4.694,10.518,7.77,15.945,9.943
		c6.733,2.697,13.833,5.901,20.979,7.242"/>
	<path fill="none" stroke="#000000" stroke-width="0.75" d="M34.614,85.336c0,0,5.101,5.47,8.688,7.481
		c3.587,2.011,9.814,5.384,15.481,6.574c5.667,1.191,14.328,2.583,20.398,2.053c6.07-0.531,9.666-1.468,12.837-3.258
		c3.17-1.791,10.165-7.824,12.124-11.542c1.96-3.716,3.312-8.365,3.621-11.161c0.31-2.797-0.236-12.946-0.675-13.676
		c-0.438-0.729-0.348-1.034-0.348-1.034"/>
	<path fill="none" stroke="#000000" stroke-width="0.75" d="M136.268,43.303c-0.229,3.305-0.836,5.197-2.284,7.391
		s-4.736,4.392-6.251,5.431c-1.514,1.037-7.643,3.174-12.968,3.79c-5.325,0.617-8.601,0.997-10.365,1.092"/>
	<path fill="none" stroke="#000000" stroke-width="0.75" d="M102.082,35.39c0,0,6.395-6.337,9.815-9.548
		c3.421-3.212,8.188-6.744,10.524-6.914c2.336-0.17,3.813,0.148,6.781,3.485c2.969,3.336,6.319,8.024,6.877,11.649
		c0.559,3.627,0.418,5.936,0.188,9.24"/>
	<path d="M104.767,60.642c0,0-5.43-0.082-7.104-0.084c-1.673-0.001-1.618,0.088-1.618,0.088s7.252,1.017,9.527,0.591"/>
	<path fill="none" stroke="#000000" stroke-width="0.75" d="M52.538,42.706c0,0,9.252-5.289,11.988-5.969
		c2.736-0.679,8.284-2.866,13.644-1.975c5.358,0.893,12.552,4.705,14.53,5.968c1.98,1.264,2.676,1.91,2.676,1.91"/>
	<path fill="none" stroke="#000000" stroke-width="0.75" d="M72.058,34.81c0,0-2.689-10.277-3.551-13.783
		C67.645,17.52,66.728,9.91,67.446,7.464c0.719-2.447,2.418-4.639,4.905-5.339c2.487-0.7,10.268-0.682,13.777,0.296
		c3.511,0.979,8.323,3.328,11.001,6.158c2.678,2.83,4.949,5.54,4.995,8.807s-0.713,9.976-2.68,14.236
		c-1.967,4.261-5.309,9.905-5.309,9.905"/>
	<path fill="none" stroke="#000000" stroke-width="0.75" d="M103.526,104.765"/>
	<path fill="none" stroke="#000000" stroke-width="0.75" d="M135.361,31.322"/>
	<path d="M13.941,61.049c0,0-3.826-0.255-6.178,0.792c-2.351,1.048-3.283,2.136-3.674,2.771c-0.391,0.636-0.335,1.896,0.822,3.002
		c1.157,1.106,2.444,2.641,4.648,3.255c2.205,0.612,2.673,0.988,2.673,0.988s3.76-0.901,4.568-1.52
		c0.808-0.619,2.007-2.835,2.007-2.835L18.8,66.184l-0.376-1.895l-2.563-2.234l-1.511-0.887"/>
	<path fill="#D69E3A" d="M60.267,80.642c0,0,2.625,3.625,2.875,3.688s1.625,1.125,1.313,1.313s-3.125,2.25-3.125,2.25
		s-0.313,2.75,0,2.875s7.688-0.563,8.688-0.813s3.063-6.938,3.063-6.938s-5.438-3.688-6.25-3.688s-6.875,1.875-6.875,1.875"/>
	<line fill="#D69E3A" x1="34.58" y1="97.017" x2="46.517" y2="87.329"/>
	<path fill="#FFFFFF" d="M44.684,88.267c0,0,0.625,1.583,0.875,2s1.375,2.083,1.375,2.083l1.083,0.959c0,0,1.833,1.083,2,1.083
		s1.75,0.126,1.958,0.167s1.75-0.5,1.958-0.75s0.417-3.833,0.417-4s-0.458-2.375-0.458-2.375s-0.375-0.584-0.5-0.584
		s-1.375,0.167-1.375,0.167l-2.125,0.542l-3.042,0.375c0,0-2.084,0.084-2.167,0.125"/>
	<path fill="none" stroke="#000000" stroke-width="0.75" d="M44.101,88.058c0,0,1.917,3.666,3.583,5s3.083,1.667,3.083,1.667
		s1.25,0.25,1.5,0.333s2.333,0,3.417-0.666s2-2.25,2.417-3.417s1.583-3.917,1.583-3.917s0.667-2,0.083-2.416s-2,0.083-3,0.416
		s-3,1.584-6.417,2.5s-6.583,0.5-7.833,0.334s-5.813-1.813-5.813-1.813"/>
	<path fill="none" stroke="#000000" stroke-width="0.75" d="M52.601,86.975c0,0,0.333,1.5,0.333,3.5s-0.583,3.667-0.583,3.667
		l-0.583,0.833"/>
	<path fill="#956E28" d="M61.767,82.058c0.25,0.084,2.249,1.084,2.833,2.084s1,1.75,0.75,2.5s-0.083,1.249-1.083,1.416
		s-2.167,0.75-2.167,0.75s3.583,0.584,4.25,0.167s1.416-1.667,1.5-1.917s0-2.166,0-2.166l-1.25-1.667L61.767,82.058z"/>
	<path d="M52.892,87.142c0,0,0.333,1.499,0.375,2.208s-0.125,1.001-0.208,1.834s-0.25,2.249-0.458,2.666s-0.583,0.959-0.583,0.959
		s0.875,0.167,1.958,0s2.375-1.208,2.792-1.75s1.083-2.459,1.25-2.792s0.958-2.333,0.958-2.333l0.625-1.667l0.292-0.75l-0.042-0.625
		l-0.333-0.25l-1.25-0.042l-1.542,0.625l-2.25,1l-1.667,0.667"/>
	<path fill="#FFFFFF" d="M44.684,88.267"/>
</g>
<g id="frame_4">
	<path fill="#D69E3A" d="M120.309,12.517c0,0,4.375,2.5,4.438,2.688s3.313,1.813,3.313,2.063s2.188,2.063,2.188,2.063
		s1.188,1.875,1.25,2.125s0.875,2.625,0.813,2.875s-3.75-1.75-3.938-1.875"/>
	<path fill="#D69E3A" d="M95.622,99.829l0.188-0.5c0,0-3,1-3.188,1.063s-2.938,0.75-2.938,0.75l-3.313,0.5l-7.688,0.375h-5.313
		h-1.938c0,0,4.625,1.625,4.938,1.625s4.563,1.125,4.563,1.125l1.813,0.25l9.438-0.75c0,0,3.25-2.688,3.438-2.75
		s0.438-2.063,0.438-2.063"/>
	<path fill="#D69E3A" d="M92.934,106.142l-1.688,4.188l-5.25,0.438l-3.375,0.563c0,0-2.375,1.688-2.563,1.75s-1.75,1.188-1.75,1.188
		l-0.938,1.688l-1.25,1.875l1.625,0.25l5.313-2.813l6.375-2.125l3.938-1.563l1.313-2.5v-2.063c0,0-1.375-1.375-1.563-1.125"/>
	<path fill="#956E28" d="M86.247,98.954c-0.188,0.063-1.688,2.438-1.688,2.438l2.25,0.375l1.375-1.5l-2.063-1.75"/>
	<path fill="#D69E3A" d="M106.497,51.517c0,0,4.188,13.563,4.188,13.875s16.688,0.063,17.438,0s15-11,15-11l0.25-8.688l-3.563-6.625
		l1.438-2.063l21.063,9.188l4.375-0.75l-1.375-3.25l-0.875-1.5l-4.063-1.938l-9.313-3l-4.688-0.813l-8.25,0.188
		c0,0-4.063,0.5-5,0.75"/>
	<path fill="#D69E3A" d="M33.76,66.346c0,0-2.699,6.261-2.933,6.385c-0.233,0.122-2.347,0.634-2.347,0.634
		s-9.206-0.027-11.044,0.605c-1.839,0.637-4.583,1.419-4.583,1.419s1.946,3.146,2.233,3.353c0.287,0.207,2.164,2.942,2.164,2.942
		l-4.111,3.283l-0.801,1.312l-4.246-0.157l-1.316,0.215l1.133,1.251c0,0,2.199,1.079,2.841,1.396
		c0.643,0.318,8.58,2.411,10.084,2.843c1.506,0.43,16.732,2.185,18.5,2.151c1.768-0.032,3.636,1.606,3.636,1.606
		s6.548,3.413,9.736,4.332c3.187,0.918,10.746,1.72,12.459,1.865c1.71,0.146,26.417-9.937,26.417-9.937s7.055-12.202,6.932-12.436
		c-0.121-0.232-1.367-12.61-1.367-12.61s0.393-7.49,0.338-7.82s-1.473-4.406-1.473-4.406l32.786-10.006c0,0,5.019-7.059,5.578-9.346
		c0.559-2.285-0.744-8.237-1.311-10.171c-0.567-1.935-10.349-10.426-10.349-10.426s-7.421-6.733-9.614-6.716
		c-2.192,0.018-4.879,0.622-5.264,0.853c-0.385,0.232-4.256,4.995-4.256,4.995l-6.552,9.587l-7.862,14.527
		c0,0-10.644-3.171-12.355-3.315c-1.712-0.146-7.972-0.229-7.972-0.229s-8.883,4.057-9.735,4.531
		c-0.852,0.475-7.518,5.185-7.931,5.759c-0.414,0.572-3.509,3.354-3.509,3.354l-0.826,0.64"/>
	<path fill="#D69E3A" d="M82.515,104.589c0.249,0.027,5.671,1.797,5.671,1.797l4.602,0.087l0.865,0.515l-2.847,4.549
		c0,0-6.11-0.085-6.544,0.035c-0.433,0.12-4.057,1.817-4.057,1.817l-3.032,3.942c0,0-0.982,1.316-0.716,1.179
		s1.371,0.486,1.371,0.486s-0.257,0.812,0.001,0.755c0.258-0.056,5.025,0.805,5.025,0.805l7.719-2.338c0,0,5.443-3.007,6.088-3.522
		c0.644-0.516,5.662-5.748,5.966-6.218c0.303-0.47,2.801-4.89,2.801-4.89s3.48,1.137,3.729,1.164
		c0.248,0.027,8.484,0.599,8.484,0.599s7.472-0.854,7.738-0.993c0.268-0.139,10.534-2.027,10.534-2.027s9.816-3.111,10.074-3.168
		c0.257-0.056,10.657-7.714,10.657-7.714l6.457-10.692c0,0,5.589-14.225,5.34-14.252c-0.248-0.027,1.664-9.792,1.461-10.234
		c-0.203-0.441-0.848-9.818-1.068-10.094c-0.222-0.276-3.696-4.515-3.944-4.542c-0.249-0.027-8.48-3.699-9.29-3.956
		c-0.811-0.257-8.266-1.832-8.266-1.832l-6.939-0.176l-2.54,0.224l0.439,14.301l-1.965,4.144l-1.148,2.054l-2.362,1.668l-4.193,3.06
		l-4.397,1.109l-5.926,1.276l-6.799,0.846l-2.899,0.436l1.055,12.523l-0.675,4.62l-2.156,5.884l-5.459,7.699l-5.223,4.036
		l-6.52,3.643l-5.219,0.181l-1.6,0.83L82.515,104.589z"/>
	<path fill="#D69E3A" d="M128.924,112.548l-8.726,6.921l2.863,0.65l3.386,0.456l1.032,0.532l6.047,0.665
		c0,0,4.774-1.487,5.041-1.625s4.389-1.026,4.389-1.026s4.626-1.671,4.985-1.883s3.43-2.977,3.43-2.977l1.856-2.395l1.028-1.73
		l2.565-1.981c0,0-0.379-2.642-0.702-2.761s-7.61,0.59-8.622,0.646c-1.013,0.056-8.446,2.089-9.229,2.338
		c-0.781,0.249-7.22,2.391-7.404,2.539c-0.185,0.147-3.431,2.222-3.431,2.222l-0.294,0.387"/>
	<path fill="#D69E3A" d="M128.818,113.122c-0.497-0.055-8.418,2.218-8.418,2.218l-1.393,1.23l-0.716,1.934l0.678,0.703l1.229,0.262
		l6.595-2.797l2.054-2.666"/>
	<path fill="#956E28" d="M64.464,35.962c-0.245,0.039-6.835-11.979-7.5-13.474c-0.666-1.496-3.89-9.923-3.965-10.923
		c-0.078-1,0.732-4.339,1.132-4.996c0.4-0.655,1.998-2.264,1.998-2.264l4.68-1.856l7.939-1.54l1.794,0.132l8.321,1.86l4.154,2.197
		l3.903,3.251l1.918,2.981l1.291,5.362l0.486,4.565l-0.148,2.725l-0.773,4.093l-0.854,4.105l-1.283,5.105l1.409,0.362l-2.778,5.263
		c0,0-0.46-0.77-1.851-2.57c-1.389-1.801-5.004-5.352-5.25-5.312c-0.247,0.04-3.573-0.688-3.573-0.688l-4.492-0.117l-4.183,0.763
		L64.464,35.962z"/>
	<path fill="#956E28" d="M112.635,61.271l-2.014-6.175l-0.981-0.854l-15.606,0.895c0,0,1.992,7.612,2.296,10.011
		c0.305,2.397,0.583,10.879-0.074,13.603c-0.657,2.725-2.122,5.663-4.258,8.12c-2.134,2.456-3.014,3.274-5.035,4.867
		c-2.021,1.595-1.963,6.342-3.994,6.84c-2.03,0.498-11.728,0.349-14.263,0.845c-2.536,0.495-8.896,1.357-9.403,1.354
		c-0.507-0.001,1.214,0.732,1.214,0.732l6.109,0.192l5.995,0.678c0.104-0.137,0.267-0.229,0.501-0.209
		c4.37,0.365,8.667-0.17,12.95-1.039c0.472-0.096,0.779,0.273,0.812,0.642l1.702-0.307c0,0,4.689-0.76,4.923-0.882
		s5.821-2.632,5.821-2.632l8.019-6.784l5.394-8.388l1.691-7.28l0.455-6.574L112.635,61.271z"/>
	<path fill="#956E28" d="M65.441,83.67c0,0,2.393,0.71,3.228,1.165c0.834,0.456,1.733,0.815,1.95,1.625
		c0.218,0.81,0.158,1.495-0.187,1.973c-0.344,0.478-0.61,1.45-1.487,1.76c-0.878,0.313-1.565,0.761-1.565,0.761
		s2.645-0.343,3.705-1.107c1.058-0.762,2.421-2.248,2.274-3.153c-0.147-0.905-0.429-2.125-2.236-2.338
		C69.315,84.139,65.441,83.67,65.441,83.67z"/>
	<path fill="#956E28" d="M76.617,104.112l-2.313,5.782c0,0-4.64-0.511-5.063-0.474s-3.871,2.424-3.871,2.424l-2.427,2.248
		l-0.79,1.088l0.966,0.357l-0.018,0.921l3.894,0.428l-0.569,0.607c0,0,5.53,0.022,6.11,0.086c0.579,0.063,2.622-0.215,2.622-0.215
		l1.903-1.3l1.158-1.382l1.757-1.483l1.277-0.949l1.601-0.83l0.893-0.488l3.05-4.862c0,0-7.373-1.564-7.861-1.703
		c-0.487-0.138-2.514-0.779-2.514-0.779"/>
	<path fill="#956E28" d="M82.855,119.806l0.449-1.041c0,0,2.071,0.229,3.663-0.52c1.591-0.747,6.629-3.882,8.983-6.222
		c2.354-2.34,4.623-4.689,6.507-7.333c1.885-2.643,1.6-2.339,3.226-4.927s1.792-2.57,2.801-4.89c1.01-2.319,1.121-1.805,1.341-3.038
		c0.219-1.233,0.501,4.581-1.059,8.099c-1.561,3.518-6.632,11.512-6.632,11.512l-4.531,5.369l-2.031,1.705l-2.346,0.748
		l-2.411,0.573l-3.469,0.289L82.855,119.806z"/>
	<path fill="#956E28" d="M103.375,110.073l3.921,0.935l-2.685,2.303l-0.101,0.912l2.882,0.483l-0.258,0.812l3.379,0.538l2.115-0.186
		l1.822,0.2l2.182-0.012l2.079,0.145l1.013-0.056l3.53-3.133l10.426-1.033l1.16,0.127l7.544-0.763l5.152-1.11l3.569-1.954
		l3.495-1.293c0,0-1.092,2.312-2.968,4.117s-4.734,4.175-4.734,4.175l-2.115,1.694l-2.943,1.605l-2.749,1.374l-1.601,0.83
		c0,0,8.621-2.154,11.271-2.617s9.864-0.508,9.864-0.508s2.216-1.853,2.777-2.378c0.561-0.524,1.479-2.016,1.479-2.016l-0.113-2.025
		l-0.396-1.721l-0.987-1.701l-1.068-0.956l-1.087-1.544l-0.305-0.285c0,0,6.933-4.352,8.689-5.835s4.386-4.046,5.829-5.731
		c1.442-1.685,4.731-7.191,6.017-9.733c1.286-2.541,2.815-8.828,3.146-10.301s0.026-9.388-0.546-11.043
		c-0.573-1.655-3.019-6.872-3.524-7.598c-0.507-0.726-2.333-3.19-2.866-3.668c-0.534-0.479-3.751-4.019-4.045-4.386
		c-0.295-0.367-2.809-2.656-3.362-2.969c-0.553-0.313-1.833-1.627-2.469-1.948s-1.823-0.955-1.823-0.955s2.234,6.366,2.146,9.458
		c-0.088,3.092-0.021,4.776-0.433,7.749c-0.41,2.974-0.95,6.352-1.978,9.592s-0.924,4.594-2.007,7.576s-3.562,7.992-5.262,9.732
		c-1.7,1.741-2.839,3.713-6.554,6.238c-3.716,2.524-7.838,3.412-11.029,4.99c-3.191,1.577-8.812,3.14-11.223,3.712
		c-2.411,0.573-6.458,2.309-8.74,2.477s-4.142,0.299-5.991,0.347c-1.85,0.049-2.89,0.354-4.058,0.309s-1.491-0.164-1.491-0.164
		l-4.299,7.071"/>
	<path fill="#956E28" d="M81.557,103.774c0,0,8.436,1.054,9.953,0.969c1.519-0.084,1.519-0.084,1.519-0.084l-0.714,3.064
		c0,0-11.464-3.229-11.704-3.34C80.371,104.272,81.557,103.774,81.557,103.774z"/>
	<path fill="#956E28" d="M138.645,111.813c0,0-17.637,3.72-18.438,4.135c-0.8,0.415,0.661-1.437,0.661-1.437l2.387-1.497
		l16.342-1.851"/>
	<path fill="#FF5AAD" d="M113.26,52.772c0.418-0.048,0.92-0.229,1.368-0.354c0.352-0.375,0.739-0.989,1.104-2.021
		c1.04-2.955,2.93-9.004,2.725-9.223c-0.203-0.221-0.431-4.233-0.648-4.537c-0.219-0.304-2.507-3.478-2.711-3.698
		c-0.203-0.221-2.582-1.861-2.948-2.056c-0.37-0.193-10.758-2.002-10.758-2.002l-1.003,0.586L87.39,56.054l7.923-1.115l13.123-1.432
		c0.24-0.657,0.985-1.158,1.78-0.717c0.52,0.289,1.254,0.079,1.884,0.026C112.524,52.553,112.936,52.582,113.26,52.772z"/>
	<path fill="#C181B9" d="M181.185,79.479c0,0-1.185,3.141-1.313,3.545s-1.257,3.047-1.257,3.047l-0.799,1.17
		c0,0,6.652-0.273,8.576-0.23c1.924,0.044,10.712,0.926,12.103,1.247c1.39,0.32,4.843,0.952,5.726,1.301
		c0.884,0.349,3.932,1.606,3.932,1.606l2.679,1.552l2.552,1.957l3.125,4.368l1.348,3.753c0,0,0.53,5.089,0.503,5.338
		c-0.027,0.248-0.494,2.963-0.494,2.963l-1.01,2.321l-2.143,1.188l-3.845,2.177l-5.17,1.275l-7.149,0.975l-8.438-0.258
		l-10.611-0.329l-10.068-0.688c0,0-11.107-0.383-11.365-0.327c-0.258,0.055-9.221,0.746-9.221,0.746l-7.518,1.269l-6.679,2.032
		c0,0-3.651,1.945-3.918,2.084c-0.268,0.139-5.444,3.762-5.444,3.762l-2.482,1.99l-7.648,7.039c0,0,11.599-4.843,14.202-5.647
		c2.604-0.804,10.02-2.67,10.02-2.67l6.623-1.535l6.155-1.084l7.17-0.386l5.815-0.282l5.642,0.537l9.508,0.459l7.996,0.46
		l8.559-0.064l5.852-0.614l6.037-0.762l5.299-1.681c0,0,2.961-1.017,3.937-1.496c0.976-0.479,4.019-2.994,4.019-2.994l2.776-3.133
		l1.192-3.222l0.406-7.5l-0.632-4.932l-1.2-3.57c0,0-4.138-5.065-5.059-5.838s-8.814-5.999-9.063-6.026
		c-0.249-0.027-5.975-2.083-5.975-2.083l-9.812-1.499l-9.103-1.084l-4.465-0.575"/>
	<path fill="#B23F79" d="M132.167,33.046c-0.263-2.66-1.197-4.787-2.788-7.313c-1.592-2.529-7.712-5.622-10.128-7.509
		c-2.416-1.889-5.465-3.505-6.891-3.444c-1.424,0.062-2.979,1.919-4.287,3.228c-1.308,1.31-7.422,10.996-7.422,10.996l-0.91,1.159
		c0,0,9.827,1.478,11.688,2.021c1.861,0.542,3.617,3.043,4.403,4.774c0.788,1.73,1.121,3.785,1,6.17
		c-0.12,2.383-1.063,4.898-2.926,7.986c-0.392,0.648-0.676,1.098-0.887,1.414c0.173,0.053,0.348,0.099,0.525,0.131l3.411-0.942
		l2.954-1.575l3.447-1.655l2.048-1.431l2.721-1.96l1.872-1.991c0,0,0.167-0.533,0.747-1.64c0.58-1.108,0.981-1.764,1.343-3.173
		C132.452,36.883,132.429,35.705,132.167,33.046z"/>
	
		<ellipse transform="matrix(-0.9985 0.0554 -0.0554 -0.9985 134.6738 120.936)" fill="#FFFFFF" cx="65.662" cy="62.333" rx="15.702" ry="13.679"/>
	
		<ellipse transform="matrix(-1 -0.0038 0.0038 -1 85.6787 117.6938)" fill="#FFFFFF" cx="42.952" cy="58.765" rx="12.666" ry="10.502"/>
	<path fill="#FFFFFF" d="M14.521,76.298l-1.832-0.884l-4.192,0.172l-3.28,1.122l-1.114,0.941l-1.143,1.281l-0.594,1.025l0.097,2.687
		l0.28,1.728l2.337,1.394l1.516,1.021l1.672-0.102l2.768-0.109l2.715-0.441c0,0-0.92-2.551-1.043-2.785
		c-0.122-0.233,1.027-3.038,1.14-3.393c0.111-0.355,0.833-2.667,0.833-2.667L14.521,76.298z"/>
	
		<ellipse transform="matrix(-0.9871 0.1598 -0.1598 -0.9871 121.8427 116.5807)" fill="#0090FB" cx="56.233" cy="63.19" rx="5.896" ry="5.23"/>
	
		<ellipse transform="matrix(-0.9871 0.1599 -0.1599 -0.9871 79.8295 112.3157)" fill="#0090FB" cx="35.395" cy="59.37" rx="4.855" ry="4.292"/>
	
		<ellipse transform="matrix(-0.9871 0.1599 -0.1599 -0.9871 79.6686 112.3536)" fill="#003D5F" cx="35.313" cy="59.383" rx="2.021" ry="1.916"/>
	
		<ellipse transform="matrix(-0.9871 0.1601 -0.1601 -0.9871 121.5281 116.2586)" fill="#003D5F" cx="56.079" cy="63.026" rx="2.354" ry="2.25"/>
	
		<ellipse transform="matrix(-0.9872 0.1598 -0.1598 -0.9872 83.1063 107.067)" fill="#FFFFFF" cx="37.25" cy="56.874" rx="1.125" ry="0.959"/>
	
		<ellipse transform="matrix(-0.9871 0.1601 -0.1601 -0.9871 126.1449 110.3327)" fill="#FFFFFF" cx="58.626" cy="60.25" rx="1.229" ry="1.084"/>
	
		<ellipse transform="matrix(-0.987 0.1605 -0.1605 -0.987 117.9987 122.3259)" fill="#FFFFFF" cx="54.059" cy="65.928" rx="1.104" ry="0.958"/>
	<circle fill="#FFFFFF" cx="33.066" cy="61.668" r="0.812"/>
	<path d="M93.775,27.731c-0.165,0.152-10.992,22.04-10.992,22.04l11.843-21.482L93.775,27.731z"/>
	<path d="M60.038,89.546c0,0,1.408-2.255,2.55-2.629c1.144-0.375,3.681-0.343,3.681-0.343s-2.14,0.472-2.779,0.83
		c-0.638,0.356-0.996,0.099-1.564,0.886c-0.569,0.789-0.817,1.209-0.817,1.209L60.038,89.546z"/>
	
		<ellipse transform="matrix(-0.9989 0.0468 -0.0468 -0.9989 134.4015 121.8582)" fill="none" stroke="#000000" stroke-width="0.75" cx="65.775" cy="62.501" rx="15.775" ry="13.488"/>
	<path fill="none" stroke="#000000" stroke-width="0.75" d="M50.166,64.219c-0.336-1.587-0.243-3.198,0.44-4.812
		c0.098-0.617,0.343-1.178,0.679-1.694c0.594-1.48,1.457-3.05,2.699-4.029c-2.23-3.651-7.007-5.882-12.247-5.281
		c-6.813,0.782-11.806,6.038-11.154,11.742c0.655,5.704,6.708,9.694,13.522,8.913c2.509-0.288,4.768-1.186,6.591-2.485
		C50.388,65.846,50.209,65.033,50.166,64.219z"/>
	<path fill="none" stroke="#000000" stroke-width="0.75" d="M33.717,66.204c0,0-2.606,5.804-3.029,6.316
		c-0.424,0.512-1.031,0.673-1.031,0.673s-6.134,0.044-8.84,0.545c-2.705,0.501-7.908,1.599-7.908,1.599"/>
	<path fill="none" stroke="#000000" stroke-width="0.75" d="M4.949,77.006c0,0-1.774,1.554-2.355,2.66
		c-0.581,1.107-0.18,3.575-0.029,4.12c0.152,0.546,1.433,1.415,2.417,2.016c0.983,0.6,2.214,1.16,4.095,1.046
		c1.881-0.114,5.231-0.151,6.847-0.729c1.615-0.579,3.716-1.68,4.277-2.91c0.561-1.229,0.845-2.605,0.284-3.718
		c-0.56-1.113-2.042-2.835-4.793-3.402C12.939,75.522,9.79,74.448,4.949,77.006z"/>
	<path fill="none" stroke="#000000" stroke-width="0.75" d="M7.052,86.858c0,0,2.027,1.572,3.637,2.135
		c1.611,0.561,9.572,3.196,15.868,3.76c6.297,0.563,15.929,1.789,20.924,1.359s7.875-1.022,9.37-1.961
		c1.494-0.938,3.444-2.584,4.146-3.331"/>
	<path fill="none" stroke="#000000" stroke-width="0.75" d="M40.525,94.162c0,0,6.291,4.047,10.262,5.112
		c3.972,1.065,10.838,2.804,16.624,2.563c5.786-0.24,19.732,0.613,25.486-1.396c5.753-2.009,9.008-3.803,11.639-6.318
		c2.633-2.516,7.927-10.084,8.911-14.17c0.985-4.085,1.151-8.924,0.763-11.71s-3.416-12.489-4.02-13.089
		c-0.604-0.599-0.592-0.916-0.592-0.916"/>
	<path fill="none" stroke="#000000" stroke-width="0.75" d="M93.625,29.147c0,0,4.64-7.716,7.164-11.67
		c2.525-3.954,6.274-8.551,8.497-9.291c2.224-0.74,3.734-0.795,7.433,1.709c3.697,2.503,13.309,7.857,14.741,11.234
		c1.435,3.377,1.866,5.649,2.457,8.909c0.591,3.261,0.469,5.242-0.396,7.726c-0.862,2.482-3.51,5.423-4.722,6.802
		c-1.212,1.378-6.626,4.956-11.636,6.865c-5.009,1.909-13.3,1.447-14.987,1.974"/>
	<path d="M102.442,52.961c0,0-5.282,1.257-6.905,1.668c-1.622,0.411-1.546,0.482-1.546,0.482s7.278-0.8,9.379-1.771"/>
	<path fill="none" stroke="#000000" stroke-width="0.75" d="M47.405,48.433c0,0,7.666-7.405,10.15-8.735
		c2.486-1.332,7.324-4.818,12.738-5.272c5.413-0.455,13.323,1.472,15.553,2.21c2.229,0.734,3.063,1.192,3.063,1.192"/>
	<path fill="none" stroke="#000000" stroke-width="0.75" d="M64.382,35.975c0,0-5.136-9.299-6.835-12.485s-4.46-10.336-4.366-12.885
		c0.093-2.547,1.203-5.091,3.44-6.382c2.238-1.291,9.783-3.188,13.427-3.103c3.644,0.084,8.887,1.175,12.178,3.26
		c3.292,2.084,6.16,4.151,7.01,7.307c0.847,3.155,1.763,9.844,0.905,14.457c-0.856,4.613-2.707,10.907-2.707,10.907"/>
	<path fill="none" stroke="#000000" stroke-width="0.75" d="M138.379,34.949c0,0,6.854-0.587,12.812,0.905
		c5.956,1.493,10.716,3.191,15.22,6.453c4.503,3.262,11.439,10.313,13.544,14.819c2.104,4.507,3.795,11.231,1.89,19.406
		s-6.03,15.181-9.845,18.618s-8.742,7.841-14.031,10.194c-5.289,2.353-5.492,2.665-10.892,4.503s-8.361,2.099-14.021,2.482
		c-5.66,0.383-11.282,0.435-16.998-0.193c-5.715-0.629-8.982-1.408-10.713-1.682s-2.301-0.42-2.301-0.42"/>
	<path fill="none" stroke="#000000" stroke-width="0.75" d="M92.393,107.774c0,0-10.899-3.042-11.802-3.226
		c-0.902-0.185-0.939-0.606-0.939-0.606"/>
	<path fill="none" stroke="#000000" stroke-width="0.75" d="M93.383,104.865c-0.109,0.239-2.22,5.708-2.22,5.708
		s-5.366-0.004-7.261,0.459c-1.896,0.463-4.232,1.882-5.298,3.19c-1.065,1.308-2.517,3.83-2.517,3.83l1.721,0.357l-0.515,0.866
		c0,0,5.117,0.729,7.722,0.682c2.605-0.049,6.295-0.062,8.016-0.46s2.944-0.85,4.47-2.526c1.525-1.678,5.028-6.07,7.039-9.119
		c2.012-3.049,3.969-6.354,4.729-8.701c0.762-2.348,0.926-3.839,0.926-3.839"/>
	<path fill="none" stroke="#000000" stroke-width="0.75" d="M76.772,104.212l-2.552,5.672c0,0-3.02-0.75-4.556-0.501
		c-1.536,0.25-4.02,2.24-5.315,3.355c-1.297,1.114-2.206,2.523-2.206,2.523l1.547,0.422l-0.588,0.774l3.901,0.345l-0.238,0.645
		c0,0,7.308,0.637,8.65-0.138c1.343-0.775,1.343-0.775,1.343-0.775"/>
	<line fill="none" stroke="#000000" stroke-width="0.75" x1="86.446" y1="106.198" x2="83.469" y2="111.152"/>
	<path fill="none" stroke="#000000" stroke-width="0.75" d="M123.817,112.487c0,0-4.388,3.291-5.195,4.544
		c-0.808,1.252-0.908,2.163-0.908,2.163l1.381,0.403l-0.313,0.553l7.233,0.544l0.627,0.404l7.612,0.921"/>
	<path fill="none" stroke="#000000" stroke-width="0.75" d="M158.686,104.921c0,0,2.662,2.474,3.438,4.57
		c0.775,2.098,0.51,3.745,0.346,4.482c-0.165,0.736-1.579,2.173-1.966,2.634c-0.387,0.46-1.536,1.005-1.536,1.005"/>
	<line fill="none" stroke="#000000" stroke-width="0.75" x1="137.945" y1="35.11" x2="139.182" y2="34.911"/>
	<path fill="none" stroke="#000000" stroke-width="0.75" d="M146.82,71.214c0,0-4.195,0.419-8.135,1.935
		c-3.939,1.517-9.678,5.664-12.179,8.973c-2.502,3.309-3.609,7.086-4.157,10.357c-0.549,3.272,0.916,10.538,3.728,13.552
		c2.813,3.013,7.406,5.845,10.222,5.966"/>
	<path d="M146.652,70.84c0,0,3.749,0.034,6.93,1.034s3.414,1.174,4.224,1.618s0.911,0.478,0.911,0.478s-9.128-2.576-12.061-2.396"/>
	<path fill="none" stroke="#000000" stroke-width="0.75" d="M181.269,79.488c0,0,17.753,0.945,25.477,3.892
		c7.725,2.945,15.185,7.539,17.841,13.867c2.657,6.328,1.609,15.854-0.025,18.525c-1.635,2.67-5.855,5.979-11.678,7.854
		c-5.823,1.874-13.635,2.776-19.064,2.598c-5.431-0.179-13.382-0.299-21.113-0.897c-7.73-0.599-13.906-0.858-22.692,0.522
		c-8.787,1.381-17.215,3.305-25.999,6.949s-8.784,3.645-8.784,3.645s9.449-10.446,17.193-13.786
		c7.745-3.339,17.708-5.514,30.639-4.93s31.339,1.688,37.347,1.174c6.008-0.513,13.709-1.931,16.318-5.835s1.525-10.06,0.104-13.15
		s-4.749-7.899-13.447-10.365s-22.891-3.021-24.878-2.484"/>
	<line fill="none" stroke="#000000" stroke-width="0.75" x1="178.057" y1="87.351" x2="180.458" y2="86.86"/>
	<path fill="none" stroke="#000000" stroke-width="0.75" d="M107.582,110.703c0,0-2.373,1.751-2.685,2.303
		c-0.313,0.553-0.532,1.031,0.277,1.288c0.81,0.258,2.236,0.246,2.236,0.246l-0.183,0.902c0,0,2.624,0.539,3.985,0.354
		c1.361-0.186,1.758,0.026,1.758,0.026s3.709,0.574,4.813,0.444c1.104-0.13,1.583,0.091,1.583,0.091"/>
	<path fill="none" stroke="#000000" stroke-width="0.75" d="M107.411,114.54c0,0,1.975-2.718,2.669-2.935
		c0.695-0.216,0.979-0.144,0.979-0.144"/>
	<path fill="none" stroke="#000000" stroke-width="0.75" d="M112.748,115.546c0,0,0.91-1.409,1.766-1.943
		c0.855-0.535,2.322-1.295,2.322-1.295"/>
	<path d="M63.473,115.744c0,0,0.247-0.729,2.224-2.313c1.978-1.585,2.144-1.566,2.144-1.566s-3.75,3.988-4.141,4.49"/>
	<path d="M66.63,116.763c0,0,2.036-2.502,3.277-3.497s1.705-1.027,1.705-1.027s-4.681,4.85-4.848,5.209"/>
	<path d="M77.979,118.388c0.056-0.119,3.322-3.534,4.077-3.912c0.755-0.377,0.755-0.377,0.755-0.377l-4.964,5.49"/>
	<path d="M82.164,119.603c0.055-0.12,0.126-1.161,1.772-2.782c1.646-1.62,3.958-2.834,3.958-2.834s-2.949,2.819-3.589,3.672
		c-0.639,0.853-1.304,2.329-1.304,2.329"/>
	<path d="M119.094,119.598c0,0,2.445-2.414,4.178-3.69c1.733-1.275,4.103-2.231,4.103-2.231s-7.729,6.234-7.922,6.465
		s-0.192,0.23-0.192,0.23"/>
	<path d="M125.868,120.511c0,0,1.341-1.905,3.723-3.363c2.383-1.457,5.299-2.435,5.299-2.435s-8.276,5.503-8.506,6.441
		L125.868,120.511z"/>
	<path d="M14.51,75.71c0,0-3.771,0.695-5.792,2.289c-2.021,1.594-2.657,2.878-2.879,3.59s0.142,1.919,1.536,2.705
		c1.394,0.788,3.019,1.96,5.306,2.011c2.288,0.052,2.835,0.301,2.835,0.301s3.422-1.799,4.054-2.598
		c0.629-0.799,1.248-3.241,1.248-3.241l-0.334-1.275l-0.831-1.743l-3.035-1.535l-1.683-0.487"/>
	<path fill="#956E28" d="M86.809,91.954c0,0-15.313,7.125-19.188,7.813s21.313-0.188,21.313-0.188s1.188-4.313,1.063-4.563
		s-3.034-3.278-3.034-3.278"/>
	<path fill="#FFFFFF" d="M50.476,61.35c0,0-0.083,0.916-0.083,1.5s0.042,1.584,0.167,2.042s0.708,2.042,0.708,2.042
		s1.875,0.959,2.208,1.125s2.208,1.333,2.542,1.333s3.167-1.667,3.292-1.75s1.167-0.792,1.333-1s1.042-1.584,1.167-1.792
		s0.875-1.541,0.917-1.666s-0.042-1.917-0.125-2.167s-1.125-1.875-1.292-2.125s-1.583-1.126-1.792-1.167s-2.958-0.959-3.083-1
		s-3.666,1.501-3.833,1.584S51.643,59.1,51.643,59.1l-1.167,2.084"/>
	<path fill="#FFFFFF" d="M37.601,54.392c0,0,3.042,2.042,3.208,2.375s1.25,3.334,1.208,3.792s-2.708,3.374-2.875,3.541
		s-2.458,1.334-2.458,1.334l-2.792-0.625l-1.333-1.125l-1-1.209c0,0-0.667-1.833-0.667-3.583s1.083-2.833,1.083-2.833l1.792-1.25
		l3.042-0.584"/>
	<path fill="#956E28" d="M108.247,53.36c0,0-5.875,0.188-6.719,0.438s-3.656,0.781-4.438,0.875s-3.156,0.438-3.156,0.438
		l-0.031,0.313c0,0,2.75,0.688,3,0.656s5.313-0.375,5.563-0.375s5.656,0.438,5.938,0.625s0.656-0.063,0.656-0.063l0.5-1l0.125-0.594
		l-0.656-1.188l-0.531-0.156"/>
	<line fill="none" stroke="#000000" stroke-width="0.75" x1="110.34" y1="55.36" x2="108.528" y2="52.829"/>
	<path fill="none" stroke="#000000" stroke-width="0.75" d="M80.497,104.517c0,0-9.375-2.5-11.063-2.625"/>
	<line fill="none" stroke="#000000" stroke-width="0.75" x1="77.059" y1="103.579" x2="75.872" y2="106.204"/>
	<path fill="none" stroke="#000000" stroke-width="0.75" d="M134.059,35.642c0,0,4.313-0.688,5.938-0.875"/>
	<path fill="none" stroke="#000000" stroke-width="0.75" d="M30.934,60.517c-0.5-0.125,19.125,3.625,19.125,3.625l31.625-0.75"/>
</g>
</svg>
