<?xml version="1.0" encoding="utf-8"?>
<!-- Generator: Adobe Illustrator 13.0.0, SVG Export Plug-In . SVG Version: 6.00 Build 14948)  -->
<!DOCTYPE svg PUBLIC "-//W3C//DTD SVG 1.1//EN" "http://www.w3.org/Graphics/SVG/1.1/DTD/svg11.dtd">
<svg version="1.1" xmlns="http://www.w3.org/2000/svg" xmlns:xlink="http://www.w3.org/1999/xlink" x="0px" y="0px"
	 width="302.984px" height="191.958px" viewBox="0 0 302.984 191.958" enable-background="new 0 0 302.984 191.958"
	 xml:space="preserve">
<g id="frame_1">
	<ellipse fill="#FFFFFF" cx="163.784" cy="26.636" rx="10.5" ry="9.813"/>
	<ellipse fill="#FFFFFF" cx="148.752" cy="23.542" rx="10.156" ry="8.281"/>
	<path fill="#FFFFFF" d="M151.034,17.511c0.063-0.188,7.875-5.25,8.125-5.25s6.625-0.5,8.125-0.313s3.875,0.5,4.063,1.25
		s-2.938,6.063-3.125,6.75s-3.688,3.25-3.688,3.25l-8.313,11.688c0,0-4.625,7.25-4.5,7.813s0.625,3.438,0.5,4.375
		s-1.563,4.5-1.563,4.5l-1.438,1.375l-0.813,0.438l-5.063,1.125l-8.063-0.188l-3.188-0.375l-2.313-0.688l-2.188-0.438l-0.938-0.625
		l-0.75-0.375l-2.25-0.875l-2.5-1.75l-0.875-1.688l-0.75-3.125l0.125-1.313l0.75-1.375l1.125-0.813l1.875-0.438l1.5-0.188
		l1.938-1.375l6.875-4.375c0,0,6.938-3.5,7.125-3.563s1.625-0.75,1.625-0.75l5.938-5.438l3.125-7.25"/>
	<path fill="#FFFFFF" d="M169.471,56.136c-0.75,0.75-5.25,20.5-5.25,20.5s2.5,10.5,2.25,11.75s2.75,13.5,3,14.25s4.5,6.5,5,7.25
		s4,6.5,4.75,7s1.125,2.375,1.125,2.375l1.25,3.75l1.938,5.75l0.563,2.5l1.563,5.313l0.375,4.375l0.313,5.125l0.063,4.125
		l0.063,5.75l-0.75,6.438c0,0-0.875,5.875-0.938,6.063s-0.625,3.688-0.625,3.688l-0.438,3.375c0,0-0.563,1.813-0.625,2.063
		s-0.25,1.688-0.313,2.063s-0.563,2.25-0.563,2.25l-5.438,2l-0.563,1.375l-0.563,1.188l-0.688,0.938l-0.313,1.438
		c0,0,0.438,0.188,0.688,0.188s2.188,0.375,2.188,0.375h1.063l0.688,0.25l2.125,0.313c0,0,0.438-0.063,0.375,0.125
		s0.25,0.5,0.25,0.5s7.188-0.125,7.375-0.188s3.5-0.313,3.5-0.313l2.438-0.75l1.063-0.938l0.813-1.688v-1.5l-0.813-5.063
		l-0.563-6.875l-0.563-6.438l-0.625-9.125v-5.625l0.375-5.5l0.625-6.375l1.313-8l3.25-14.813c0,0,5.375-0.688,5.688-1.063
		s6.125-5.938,6.125-5.938s2.438-2.313,3.438-3.313s11.813-8.188,12.188-8.5s5.625-2.5,5.625-2.5s-0.875-4.25-1.313-4.688
		s-28-8.813-28-8.813l-12.125-11.688l-1.125-2.125l-1.563-1.688c0,0-1.563-2.438-1.563-2.625s-1.313-3.813-1.313-3.813l-1-2.625
		l-0.563-2.063l-0.313-1.75l-0.625-1.938c0,0-0.688-1.375-1.125-1.25s-6.125,1.5-6.563,1.625s-6.625,3.063-6.625,3.063"/>
	<path fill="#FFFFFF" d="M243.221,114.011c0,0,8.125,10.75,8.5,11s13.125,4.75,13.75,5.125s8.5,1.75,8.875,1.875
		s3.375,2.125,3.375,2.125s0,11.25-0.125,11.625s-1,12-1,12.75s0.5,9.625,0,9.875s-7,5.5-7,5.5l-2.5,2.25l-0.875,0.75l-1.625,2.813
		l-1.063,1.25l-1.063,0.938l-1.75,1.313l-2.438,1.563l-1.313,1.188l-0.625,1.375v1.625c0,0,0.313,0.688,0.5,0.688
		s1.813,0.125,1.813,0.125l0.5,0.188l-0.125,0.625c0,0,0.563,0.5,0.813,0.5s1.875-0.063,1.875-0.063l1,0.063l1.25,0.125l3.125,0.25
		c0,0,2.5-0.438,2.75-0.438s1.75-0.5,1.938-0.563s1.875-0.688,1.875-0.688l1.438-0.938l1.063-1.063l0.75-1.438l1.688-3.25
		l2.125-5.688l1.125-3.625l1.5-6.75l0.938-4.125l0.813-4.438l0.313-4.625l0.063-8.563l-0.563-7.5v-4.5l-0.875-7.375l-0.5-1.563
		l-1.5-0.25l-2.688-1.375l-2.438-1.875c0,0-2.313-1.5-2.688-1.5s-14.188-6-14.875-6.25s-11.938,0-11.625,0s-4.5,0.25-4.688,0.375"/>
	<path fill="#B2B2B2" d="M165.659,46.824l-0.375,2.75c0,0-0.063,4.25-0.188,4.438s-1.063,2.063-1.125,2.25s-0.625,2.5-0.625,2.5
		s-2.063,4.938-2.75,6.813s-2.438,9.188-2.75,10.688s-0.688,3.75-0.938,5.375s-0.5,3.938-0.438,6s0.063,2.75,0.313,4.625
		s0.688,4.688,1.375,6.375s2.063,4.688,3.875,7.5s3.375,4.75,4.125,5.75s0.875,2.125,0.875,2.125l0.813,3.688
		c0,0,1.25,5.188,2,7.063s1.313,3.563,2.063,6.313s1.5,5.5,1.75,7.25s0.625,6.625,0.625,8s0.188,5.188,0.063,7.25
		s-0.125,6.188-0.438,8.063s-0.813,4.75-1.25,6.625s-0.563,1.563-1.063,3.813s-0.688,2.75-1,4s-0.625,2.875-0.625,2.875
		l-2.813,1.188l-2.75,1.563l-1.313,1.75l-0.188,1.25l0.688,1c0,0,1.125,0.25,1.313,0.25s1.375,0.063,1.375,0.063l0.438-0.125
		l-0.438,0.5l3.188,0.063v0.5l2.813,0.188h2.188l0.5-0.125l0.938-2.188c0,0,1.5-1.313,3.063-1.75s3.063-0.938,3.063-0.938
		l1.625-7.688l0.563-3.813c0,0-1.875-8.438-1.75-10.875s-0.25-14.625-0.25-14.625s1.375-8.5,1.438-8.688s1.188-2.625,1.188-2.625
		l-2.188-8.188l-2.688-8.25l-2.563-8.563c0,0-0.938-0.875-2.438-3.688s-4.313-10.438-5.375-15.5s-0.625-11.5-0.5-14.813
		s0.875-8.875,2.313-12.313s3.563-6.188,5.625-7.188s3.313-1,4-1.063s3.313,0.063,3.313,0.063s-0.063-1.875-0.188-2.125
		s-0.5-1.813-0.5-1.813l-0.125-1.5l0.063-0.813v-1.5l-0.25-1.188c0,0-1.313-0.813-1.813-0.625s-1.5,0.063-2.063,0.125
		s-6.75,0.5-6.75,0.5l-6.5-0.938l-0.438,2"/>
	<path fill="#B2B2B2" d="M193.137,107.219c0,0-1.167,2.668-1.5,4.584s-0.666,5.75,0.667,7.833s2.5,3.583,2.5,3.583
		s-1.501,9.417-2.167,14.417s-1.249,9.334-1.416,14s-0.333,7,0.667,10.75s3.416,8.083,3.416,8.083s-0.332-7.583-0.416-7.833
		s-0.25-5.917-0.25-5.917s0.334-8.167,0.25-8.5s0.833-8.083,0.833-8.083s2.166-10.167,2.083-10.5s0.917-4.417,0.917-4.417
		l2.583-1.083l2.75-1.667c0,0,6.666-5.5,6.833-5.75s6.833-6,7.75-7s4.501-4.833,4.501-4.833l3.333-2.5l2.167-1.667l1.583-0.75
		l1.833-0.75l0.5-0.167l-0.25-2.583l0.167-2c0,0-1.501-0.667-5.417,2s-3.333,2.084-8.083,5.417s-11.083,9.5-13.75,11.333
		s-4.667,3-4.667,3"/>
	<path fill="#B2B2B2" d="M232.721,98.136l-0.167,3.666c0,0,0.334,4.75,1.167,6.667s3.583,5.666,5.083,7.583s4.5,5.167,4.5,5.167
		s-2-0.5-2.5-0.583s-6.751-2.583-7.167-2.75s-6.249-1.583-6.666-1.75s-2.084-1.749-2.334-1.833s5.834,7.084,12.167,10.25
		s8.416,3.834,9.083,4s4.417,0.333,4.417,0.333l2.917,0.583l2.666,1.583l2.667,1c0,0,0.583,2.751,1.083,6.334
		s0.751,6.999,0.751,11.333s0.415,7.001-0.001,10.334s-0.75,7.25-3.75,10.333s-5.166,4.333-6.916,5.083s-3.417,0.917-3.417,0.917
		l-1.5,3.333c0,0-3.999,1.666-4.666,2.583s-2.667,3.167-2.667,3.167l-0.25,1.333l1.333,0.334h1.25l-0.083,0.583l2.833,0.667
		l1.584,0.166c0,0-0.417,0.584,0.083,0.667s3.167,0.417,3.167,0.417l1.916-0.084l2-0.75l1.834-0.833l2.333-1l1.583-1.667
		l0.917-1.333c0,0,2.417-7,3-9.5s2.667-10.833,3.25-12.75s0.999-2.5,1.166-7.25s-0.084-12.832-0.25-13.916s-1.417-6.667-1.5-6.917
		s8,1,8,1s1.251,7.75,1.084,12.5s-0.333,7.999-0.75,10.333s-1.001,5.918-1.667,8.084s-1.166,3.834-1.916,5.25
		s-0.75,2.416-1.167,3.666s-1.333,2.5-1.333,2.5s2.249,0.666,4.666-0.75s5.5-3.75,6.667-6.583s2.75-6.917,2.75-10.5
		s0.082-11.083-0.834-17.833s-1.916-11.834-1.916-11.834s-7.333,0.668-10.75-0.166s-11.751-4.75-15.167-7.667
		s-7.583-8.334-7.583-8.334"/>
	<path fill="#B2B2B2" d="M238.096,123.762c0,0,5.208,6.083,5.458,6.333s5.042,0.667,5.792,0.875s3.709,0.042,3.917,0.125
		s0.5-0.209,0.625-0.292s0.166-0.916,0.083-1.041s-3-2.376-3.25-2.459s-10.166-2.958-10.333-2.958s-2.125-0.75-2.125-0.75"/>
	<path fill="#7C7C7C" d="M182.388,124.636c0,0-0.022,0.119-0.063,0.339c-0.352,1.904-2.082,11.37-2.604,16.078
		c-0.583,5.25-1.334,9.749-1,13.999s-0.083,5.168,0.917,7.834s4,8.666,4,8.666l0.75-0.75l-0.917-2.75l-0.916-5.833v-9.833v-7.334
		l0.083-3.416l1.083-4.917l1-2.583l-2.167-9.917"/>
	<path fill="#7C7C7C" d="M217.222,110.802c0,0,1.416,3.251,2.083,4.334s2.667,4.417,3.667,5.25s4.75,4.75,5.75,5.333
		s4.332,2.749,5.666,3.583s4.501,2.918,5.334,3.334s4.499,0.75,5.416,1s5.167,0.75,5.167,0.75l2.833,0.333
		c0,0,0.334,9.833,0.417,12.333s-0.083,5.084-0.333,6.834s-1.166,5.75-1.5,7.083s-0.416,3.333-1,4.833s-1.417,3.334-1.917,4.834
		s-2.5,5.5-2.5,5.5s3.667-0.751,4-0.834s2.917-1.25,4-2.583s3.917-4.916,4.667-7.833s1.166-8.417,1.083-11.417s0.333-9.833-0.167-13
		s-1-6.75-1-6.75l-0.5-2.083l-4.333-1.833c0,0-6.833-0.667-9.25-1.417s-6.667-3.25-8.167-4.25s-3.749-2.333-6.416-4.833"/>
	<path fill="#574C3F" d="M190.137,68.303c0,0-1.25,3.583-1.5,5.75c-0.25,2.167-1.167,7.167-0.5,12.083s1.667,7.167,3.417,10.5
		s5.166,6.667,8.583,7.167s3.916,0.166,8-1.584s5.334-2.75,8.834-4.5s6.667-3.5,8.667-3.583s6.583,0.167,6.583,0.167l0.416,4.083
		c0,0,0.334,1.25,1.834,4.667s3.916,6.583,6.333,9s4.666,4.5,9,6.083s6.167,2.75,13.25,2.917s13.583,0,13.583,0l-3.166-3.75
		l-1.917-2.334l-1.667-2.333l-1.833-3l-0.833-2.417l-1-2.5l-1.5-4.083l-0.667-2.166l-0.666-2.5l-0.584-2.084l-0.416-0.916
		l3.249,0.833l2.834,0.583l2.416,0.5l4.25,0.167l4.334,0.166h4.166l5.417-2l4.75-2.416l4.167-2.834l2.333-2.749l1.917-4.167
		l0.5-2.917l-0.25-4.417l-1.084-5.75l-1.25-3.75l-2-5l-2.25-3.75l-1.666-3.167l-2.334-2.833c0,0,0.918,4.583,1.334,6.333
		s1.25,4.5,1.25,4.5l0.25,2.75l0.5,3.25c0,0,0.25,2.5,0.25,2.75s0.083,3.25,0.083,3.25l-0.166,3.5l-0.917,2.667l-1.167,1.5
		l-0.833,1.25l-1,1.083l-1.167,1.25l-3.416,1.667l-3.084,0.333l-3.333,0.25l-5.75-0.333l-3.333-0.584l-3.917-1l-5.25-1.5
		l-2.167-1.416l-1.25-0.584l-1.25-4l-2-3.417l-3.083-3.667l-4.334-2.333l-3.666-1h-4.167l-4.166,0.417l-5.584,0.917l-5.75,1.25
		l-9.75,1.917l-7.75,1.5h-5.417h-2.666l-2.417-0.167l-3.333-0.75l-1.667-1.417L190.137,68.303z"/>
	<path fill="#574C3F" d="M147.971,15.553c0,0,1.667,0.417,2.333,0.667s2,1.25,2,1.25l0.5,0.25c0,0,0.75-0.417,2.25-1.667
		s2.749-1.833,5.083-2.333s5.584-0.417,6.667-0.25s1.667,0.417,1.667,0.417l-0.417,3.583l2.667,1.833l2,1.333
		c0,0,0.834,1.833,1,2.167s0.249,1.5,0.416,1.75s0.416,1.167,0.5,1.5s0.083,1.25,0,1.833s-0.417,1.417-0.5,1.667
		s-0.5,1.167-0.583,1.417s-0.75,1.25-0.75,1.25l-2.75,2.5l-2,0.833l-2.583,0.583l-2,0.167l-3.75-0.667l-1.584-0.75
		c0,0-1.166-0.833-1.416-1.083s-1.084-1-1.334-1.083s-1.083-1.167-1.083-1.167s-1.5,2-2.667,3.667s-1.167,3.25-1.25,5.5
		s0.333,4.333,0.333,5.75s0.583,2.25-0.417,3.75s-2.583,3.417-2.583,3.417l10.25-4.25c0,0,7.416-4.417,8.416-4.917
		s8.168-5.667,8.834-6.167s7.833-9.084,7.583-8.917s-1.334-1.5-1.417-2.083s2.75-5.333,2.75-5.333s2.084-0.083,2.417-0.25
		s1.583-0.833,1.583-0.833s1.918,0.667,3.084,1.167s6,0.917,6,0.917l1.916-0.167l4.667-0.25l2.583-0.25l2.5-0.333l2.75-0.667l3.25-1
		l1.167-0.5l-3.75-3.25l-3.5-2.583l-3.417-2.083l-4.25-2.5l-4.916-2.417l-3.5-1.417l-0.834-0.583l2.167-2l1.5-1.417l-4.667-0.583
		l-4.833-0.75h-7.5l-4.417,0.333l-3.166-0.083l-4.167,1.417l-3.583,1.917l-2.167,2.083l-1.833,1.833l-0.917,1.417l-3,1.333
		l-4.083,2.5L147.971,15.553z"/>
	<path fill="#3D352C" d="M182.721,18.074c0,0-1.563-1.25-1.875-1.5s-0.438-0.5-0.438-0.5s-2.063,8.313-4.313,12.313
		s-3.313,5.813-6.063,8.5s-7.938,7.563-11.063,9.875s-8.875,6.25-8.875,6.25s5.625-2.188,6.313-2.625s3.938-1.938,3.938-1.938
		l3.438-1.25l2-0.563l3.063,0.5c0,0,3.438,0.375,3.75,0.375s2.75,0.188,2.75,0.188s2.625,0,2.813,0s2.063-0.25,2.313-0.313
		s1.813-1.063,1.813-1.063l1.875-1.375l1.813-2.375l0.813-1.375l0.875-1.813l0.813-2l0.938-3.438l0.375-3.563l-0.063-3.438
		l-0.313-2.875l-0.563-1.563l-0.5-1.375l-0.125-0.438l-2-1.125l-1.688-0.625l-1.563-1L182.721,18.074z"/>
	<path fill="#3D352C" d="M219.242,108.969c0,0,1.688,3.75,4.625,5.938s5.5,4,7.938,4.938s4.625,1.188,6.375,1.313
		s4.813,0.125,4.813,0.125s-2.75-2.438-3.313-3.063s-3.75-4.875-3.75-4.875l-1.063-1.938l-0.813-1.625l-0.688-1.688l-0.688-2.688
		l-0.5-3.063l-0.063-1.188l-0.063-1l0.063-0.875l-1.313,0.188l-2.313,1.375l-2.063,1.25l-1.813,1.375l-1,1.25l-1.438,1.125
		l-2.063,1.813L219.242,108.969z"/>
	<ellipse fill="#20A0FF" cx="157.065" cy="26.761" rx="3.781" ry="3.75"/>
	<ellipse fill="#004774" cx="156.565" cy="26.574" rx="1.531" ry="1.5"/>
	<ellipse fill="#20A0FF" cx="142.346" cy="24.136" rx="3.125" ry="3"/>
	<ellipse fill="#004774" cx="142.065" cy="24.074" rx="1.094" ry="1.063"/>
	<ellipse fill="#FFFFFF" cx="158.409" cy="24.667" rx="1" ry="0.906"/>
	<ellipse fill="#FFFFFF" cx="154.877" cy="28.324" rx="0.719" ry="0.688"/>
	<ellipse fill="#FFFFFF" cx="143.534" cy="22.73" rx="0.813" ry="0.781"/>
	<ellipse fill="#FFFFFF" cx="140.877" cy="25.699" rx="0.656" ry="0.625"/>
	<path fill="none" stroke="#020202" stroke-width="0.75" d="M147.471,15.636c0,0,6.75-5.313,9.938-5.875s10.125-0.875,13.188-0.438
		s6.188,1,6.188,1s2.5-2.75,4.375-3.688s8-1.875,10.375-1.313s6.625,2.063,13.313,6.188s11.438,8.25,11.438,8.25
		s-6.75,2.125-8.375,2.375s-7.063,0.813-11.125,0.688s-6.688-1.25-7.563-1.5s-0.875-0.25-0.875-0.25s1.125,3.438,1.25,5.563
		s0.125,7.188-0.938,10.25s-2.5,5.625-4.125,7.5s-1.75,2.313-5,3.063s-3.938,0.438-6.563,0.313s-5.75-1-7.25-0.938
		s-3.063,0.625-6.063,2.063s-2.375,1.375-7.375,3.188s-6.625,2.313-10.375,2.5s-6.063,0.188-8.813-0.313s-5.188-1.25-5.938-1.688
		s-0.938-0.688-0.938-0.688"/>
	<path fill="none" stroke="#020202" stroke-width="0.75" d="M124.32,40.596c5.709-4.239,11.776-7.286,18.151-10.397"/>
	<path fill="none" stroke="#020202" stroke-width="0.75" d="M120.659,41.824c0,0-0.239,0.226-0.497,0.605
		c-0.317,0.466-0.663,1.165-0.628,1.958c0.063,1.438,0.438,3.875,2.375,5.25s3.563,2.563,5.813,2.063s3.875-1.125,5.75-2.75
		s3.063-2.688,3-4.5s-1.063-3-2.75-3.5s-9.938-0.375-10.938-0.313S121.221,41.449,120.659,41.824z"/>
	<path fill="#020202" d="M177.127,10.449c0,0-0.344,0.313-0.844,1.328s-0.5,1.016-0.5,1.016s0.125-2.266,1.156-3.016"/>
	<path fill="#020202" d="M188.627,21.636c0,0-3.406-1.531-5-2.875s-1.688-1.5-1.688-1.5s7.938,4,8.75,4.219"/>
	<path fill="#020202" d="M131.846,41.167c0,0-4.625,0.844-6.344,1.969s-2.375,1.875-2.094,3s0.219,0.594,1.375,2.156
		s3.094,3.406,3.094,3.406s4.219-1.656,4.875-2.094s3.688-3.969,3.719-4.75s-0.25-2.906-0.375-2.75S133.659,40.449,131.846,41.167z"
		/>
	<path fill="#020202" d="M121.206,40.917c0,0-0.703,0.484-0.969,0.781s0.141,0.328,0.141,0.328l0.547-0.391l0.563-0.766"/>
	<ellipse fill="none" stroke="#020202" stroke-width="0.75" cx="163.721" cy="26.595" rx="10.75" ry="9.708"/>
	<path fill="none" stroke="#020202" stroke-width="0.75" d="M153.055,23.898c0.007-0.038,0.028-0.061,0.04-0.094
		c0.257-1.128,0.942-2.146,1.824-2.95c-1.174-2.988-4.194-5.135-7.78-5.135c-4.603,0-8.333,3.507-8.333,7.833
		s3.731,7.833,8.333,7.833c2.387,0,4.524-0.958,6.043-2.473C152.641,27.322,152.798,25.197,153.055,23.898z"/>
	<path fill="none" stroke="#020202" stroke-width="0.75" d="M158.055,9.553c0,0,2.833-4.5,5.333-5.917s4.833-2.417,7.833-2.917
		s12.25-0.333,15.667-0.25s8.833,1.25,8.833,1.25l-4.188,3.604"/>
	<path fill="none" stroke="#020202" stroke-width="0.75" d="M165.388,46.97c0,0,0.084,6-1.083,8.833s-3.834,9.75-5.084,14.417
		s-2.75,13.584-2.583,18s0.416,8.917,2.833,13.75s6.251,9.999,10.334,13.666s10.083,7.334,11.083,7.834s1.333,0.666,1.333,0.666
		s0.563,1.875,1.188,4.688s2.063,5.563,2.563,11.063s0.563,14.5,0.188,18.938s-1.063,7.188-1.938,12.063s-2.125,11.188-2.125,11.188
		s-4.75,1.375-6,2.938s-1.625,4-1.625,4l3.813,0.125l-0.125,0.688h3.5v0.688c0,0,5.25-0.125,7.813-0.188s5.188-0.5,6.313-1.5
		s1.438-1.188,1.5-2.938s-0.688-4.875-0.875-6.938s-0.688-5.688-1-9.563s-0.813-11-0.75-15.125s0.188-6.188,0.688-11.063
		s0.938-6.625,1.75-11s2.063-9.313,2.5-11.813s1.063-4.813,1.063-4.813"/>
	<path fill="none" stroke="#020202" stroke-width="0.75" d="M198.471,125.469c0,0,4.25-1.582,7.25-4.166s5.916-5.251,9.833-9.001
		s7.668-7.499,10.334-9.666s4.249-3.083,5.166-3.25s1.25-0.167,1.25-0.167s-0.084,3.917,0.5,6.167s2.416,6.75,4.333,9.25
		s5.25,6.582,9.667,9.916s8.5,7,15.75,8.5s9.333,1.834,9.333,1.834s1,12.667,0.667,17.75s-2.083,13.167-4,17.75s-2.25,6.416-4,9.166
		s-3.001,3.168-4.667,4.334s-3.082,2.082-3.416,3.166s-0.25,2.084,0.25,2.417s2.416,0.417,2.416,0.417s-0.416,0.75-0.083,1.083
		s3.334,0.167,3.667,0.25s0.333,0.083,0.333,0.083s2.999,0.5,5.333,0.167s5.416-1.749,7.25-3.333s4.917-10.168,5.917-13.584
		s2.25-8.916,2.917-12.333s0.834-8.084,0.917-12.25s-0.417-13.834-0.667-17.417s-1.25-8-1.25-8s-3.668-0.583-6.584-3.583
		s-6.5-6.666-8.5-11.083s-3.499-8.333-4.499-11.5s-1.667-6.5-2.584-10.25s-4.001-12.334-5.667-14.917
		c-1.666-2.583-4-5.25-8.083-6.333s-7.999-0.917-12.916-0.167s-11.25,2.167-17.417,3.417s-9.916,2.25-14.833,2
		s-8.333-0.167-11.5-3.167s-3.5-4.75-4.75-8.5s-1.833-6.833-2.25-9.583s-0.584-4.833-0.584-4.833"/>
	<path fill="none" stroke="#020202" stroke-width="0.75" d="M166.971,112.699c0,0,1.563,8.75,3.125,12.688s2.688,9.563,3.438,12.563
		s0.688,6.75,0.75,10.875s0.125,7.375-0.375,12.125s-0.813,4.875-1.75,9.438s-2.375,8.625-2.375,8.625s-3.625,1.375-4.813,2.375
		s-1.688,2.125-1.813,2.75s-0.125,0.625-0.125,0.625s0.375,1,1.063,1.063s2.625,0.125,2.625,0.125l-0.438,0.5l3.563,0.063
		l-0.438,0.625h5.625"/>
	<path fill="none" stroke="#020202" stroke-width="0.75" d="M184.221,170.886c0,0-1.625-5.188-1.688-9.688
		s0.063-13.625,0.063-16.563s0.188-2.813,0.813-6.25s1.375-4.438,1.375-4.438"/>
	<path fill="none" stroke="#020202" stroke-width="0.75" d="M217.137,110.969c0,0,3.001,6.999,7.334,11.083
		s13.25,10.084,17.25,11.167s11.25,1.583,11.25,1.583s0.584,14.5,0.25,17.75s-1.834,11.083-3.167,14.75s-3.332,7.917-4.166,9.917
		s-1.084,2.584-1.084,2.584s-3.416,1.166-4.416,2.166s-2.918,3.416-3.084,4s0.167,1.25,0.167,1.25l2.583,0.084l-0.083,0.666
		c0,0,2.75,0.667,3.25,0.667s0.833,0,0.833,0l-0.166,0.667c0,0,4.834,0.417,6,0s3.332-1.084,4.916-2.167s2.584-1.916,3.167-3.083
		s1.333-2.834,2.833-8.834s3.834-14.499,4.167-16.666s0.249-12.75,0.333-16.167s-1.583-8.917-1.583-8.917"/>
	<path fill="none" stroke="#020202" stroke-width="0.75" d="M258.721,80.636c0,0,7,3.625,14.25,4.5s13.75,1.5,17.75-2
		s5.625-7.625,4.625-15.875s-3.625-18-3.625-18s7,9.125,9.125,17.25s3.25,16-2.125,20.625s-10.875,7.75-16.5,8.125
		s-16.125-1.25-17.125-1.5s-2.625-0.75-2.625-0.75"/>
	<path fill="#020202" d="M232.627,99.199c0,0-0.188-7.719,0.344-9.938s0.688-2.625,0.688-2.625s-1.469,3.188-1.625,5.5
		s-0.156,7.5-0.156,7.5"/>
	<polyline fill="#020202" points="182.471,123.97 174.679,100.428 181.846,124.345 	"/>
	<path fill="#020202" d="M200.971,115.678c0,0-2.583-2.209-4.25-4s-3.543-4.542-3.834-6s-0.291-3.375-0.291-3.375
		s-1.084,3.125,0.208,5.25s6.291,7.834,6.833,8.459s0.542,0.625,0.542,0.625"/>
	<path fill="#050505" d="M166.097,186.304c0.084-0.167,0.876-2.584,2.334-3.709s1.625-1.208,1.625-1.208s-3.042,4.708-3.167,4.958"
		/>
	<path fill="#050505" d="M169.556,186.22c0,0,1.75-3.041,2.75-3.958s1-0.917,1-0.917l-3.375,5.792"/>
	<path fill="#050505" d="M178.014,189.012c0,0,0.458-1.584,1.458-2.834s1.375-1.416,1.375-1.416s-2.334,4.625-2.417,5"/>
	<path fill="#050505" d="M181.514,189.762c0,0,0.959-3.126,1.875-4.084s1.166-1.166,1.166-1.166l-2.333,6"/>
	<path fill="#020202" d="M239.763,187.179c0,0,0.25-1.938,0.958-2.979s1.917-1.792,1.917-1.792s-2.126,4.626-2.209,5.084
		s-0.166,0.521-0.166,0.521"/>
	<path fill="#020202" d="M243.659,188.554c-0.021-0.063,0.604-3.666,1.625-4.625s1.521-1.042,1.521-1.042s-1.146,1.396-1.708,2.667
		s-0.625,3.438-0.625,3.438"/>
	<path fill="#020202" d="M258.971,189.742c0,0-0.042-1.958,1.333-3.313s1.375-1.354,1.375-1.354s-2.583,5.374-2.396,5.771"/>
	<path fill="#020202" d="M262.784,191.117c0,0-0.209-3.146,0.604-4.313s2.5-2.375,2.5-2.375s-1.167,1.688-1.688,2.625
		s-0.791,2.604-0.833,3.313s0,0.854,0,0.854"/>
</g>
<g id="frame_2">
	<path fill="#FFFFFF" d="M205.784,120.824c0,0,16.875,14.063,17.063,14.125s18.188,2.188,18.5,2.125s7.625,0,7.813,0.063
		s12,3.438,12,3.438l9.938,5.75l5.5,4.688l0.438,1.938c0,0,2.125,1.5,2.313,1.625s0.875,1.875,0.875,1.875l0.313,2.375l0.75,1.625
		l1.563,2l2.375,1.688c0,0,1.688-2.375,1.813-2.625s1.25-2.125,1.25-2.125l0.875-2.063l0.75-3.063l-0.375-3.688l-1.25-5.313
		l-1.375-2.938c0,0-11.063-6.125-15.875-8.313s-16.125-6.125-18.625-6.5s-10.563-1.313-11.563-1.438s-9.5-0.688-9.5-0.688
		s-6-2.25-6.313-2.375s-10.875-2.313-11.188-2.5s-5.938-0.688-6.313-0.75s0.125,4.563,0.625,5.063s7.313,5.5,7.938,5.813
		s3,0.875,3.188,0.875s2.625-11.625,2.625-11.625"/>
	<path fill="#FFFFFF" d="M106.971,63.886c0,0,15.167,15.833,15.5,16.5s7.5,17.834,7,18.334s1.667,10.833,1.667,10.833
		s0.25,1.833-0.917,3.583s-2.333,2.666-4.083,4.583s-10.083,8.917-11.167,9.917s-11.917,8.75-13.917,10s-11.667,7.916-13,8.583
		s-10,5.501-11.25,6.667s-4.167,4.583-4.667,6s-1.333,3.083-1.5,3.75s-0.083,3.5-0.083,3.5l1.083,2.333l1.417,1.25l2,0.834
		l2.083,0.083l2.083-0.667l5.333-2.666c0,0,2.5-2.25,2.75-2.5s2.5-1.5,2.5-1.5l9.75-12.667c0,0,8.333-6.584,8.833-6.834
		s7.167-4.25,7.167-4.25l4.667-2.25l2.083-1.583c0,0,6.833-2.417,8.417-2.917s10.584-2.75,11.834-3.083s4.582-1.333,4.582-1.333
		l4.418-0.334l6.082-6.583l7.5-3.667c0,0,6.251-4.5,6.584-5.083s9-8.25,9.5-8.5s5.917-2.916,6.167-3.083s2.916-4.001,2.666-4.084
		s-9.666-1.833-10.333-1.833s-26-9.833-26-9.833l-2.916-6.584l-3.084-2.833c0,0-9.167-3.249-12.834-6.083
		c-3.666-2.834-8.583-6.5-10.666-8.25s-10.75-8.75-10.917-8.75s-3,1-3.083,1.25s-4.25,9.167-4.25,9.167"/>
	<path fill="#B2B2B2" d="M110.784,64.886c0,0,0.136,0.133,0.377,0.372c1.246,1.237,5.287,5.318,7.748,8.565
		c2.938,3.875,3.688,5.188,6,10.25s2.938,5.375,3.938,10.375s1.188,5.688,1.875,8.188s1.438,4.875,1.438,4.875s-0.75,3.75-0.875,4
		s-1.938,3.063-1.938,3.063l-2.438,2.5l-1.688-0.563l-3.438-3.813l-3.5-5l-1.688-3.25l-1.188-4l-0.688-3.063
		c0,0-0.313-5.75-0.375-6.063s-0.438-4.563-0.438-4.563l0.125-4.313l-0.125-4l-5.75-7.938c0,0-0.125,0.125,0.688-0.938
		s2.125-3.938,2.125-3.938"/>
	<path fill="#B2B2B2" d="M145.784,129.011c0,0,2.625,1.063,3.25,1.063s4.688,0.063,4.688,0.063l2.938-0.125l2.063-0.75l3.938-2.5
		l3.625-2.75l4.75-4.75l2.625-2.813l1.563-1.438l2.938-2.938l2.563-2.125l2.75-2.563l1.813-1.625l2.625-1.688l3.25-1.25
		l-0.375-3.313l0.125-1.313c0,0-1.5,0.125-2.813,0.75s-10.313,5.75-12.375,7.438s-5.75,5.188-7.563,6.938s-2.688,2.688-4.313,3.375
		s-3.813,1.125-4.063,1.125s-1.5-0.063-1.5-0.063s-1.75,1.188-2.313,1.875s-2.813,4.188-2.813,4.188l-1.375,2l-1.25,1.188l-2.75,1
		L145.784,129.011z"/>
	<path fill="#B2B2B2" d="M191.159,102.324c0,0-0.5,4-0.063,5.688s1.063,3.25,1.563,4.5s3.688,6.375,5.438,8.5s4.125,5.75,6.5,7.688
		s5.375,3.688,6.625,4.5s7.875,3.75,9.25,4.063s7.563,1.375,8.75,1.438s5.563,0.438,5.75,0.5s8.563,0.313,10,0.5
		s7.063,1.125,8.188,1.375s7.688,3,8.438,3.25s6.938,3.688,8.938,4.75s5.438,3.688,5.438,3.688l0.938,0.563
		c0,0,1.438-1.438-1.5-4.938s-8-6.75-10.813-8.5s-9.563-4.313-12-4.438s-5.563-0.313-7.75-0.438s-7.125,0.125-11.75-0.75
		s-5.875-1.125-10.75-2.438s-9.25-3.938-11.125-5.438s-5.5-6.813-5.5-6.813"/>
	<path fill="#B2B2B2" d="M245.221,140.449c0,0,5.25,4.375,6.688,6.438s2.75,5.25,2.75,5.25l0.438,0.938l2.5,0.75l1.125,0.063
		l0.75-0.875l0.063-0.625l0.375-0.25l0.188-1.875l-0.188-0.938c0,0-0.25-0.625,0-0.625s1.563,0.125,1.563,0.125
		s-0.063-0.563-0.125-0.75s-0.25-2.563-0.25-2.563l-0.063-1.625c0,0-9.5-3.25-10.375-3.5s-5.938-0.875-5.938-0.875l-0.625,0.063
		L245.221,140.449z"/>
	<path fill="#B2B2B2" d="M123.284,135.699c0,0-4.875,3.25-5.563,3.813s-5.813,3.938-6.25,4.438s-3.813,3.938-4.313,4.375
		s-2.125,2.5-2.5,3s-1.5,2.813-2.063,3.875s-1.25,2.375-1.938,3.375s-2.25,2.375-3,3.063s-4,2.563-4.438,2.813
		s-3.625,0.938-3.625,0.938l-2.313,0.188l-0.688,0.188c0,0,1.813-1.563,2.125-2.188s0.813-2.438,0.813-2.438l0.813-2.188l2-2.75
		l3.875-4l3.688-3.438l5.188-4l5.438-3.75l6-3.25l7-2.375"/>
	<path fill="#B2B2B2" d="M186.409,120.824c-0.063,0.063,5.375,8.063,6.125,8.875s9.563,5.063,9.875,5.25s5.375,0,5.375,0
		s3.125-0.875,3.375-1s0.563-1.625,0.563-1.625l-4.625-4.375c0,0-4.125-4.25-4.313-4.438s-11.25-1.5-11.625-1.563
		s-4.813-1.5-4.813-1.5"/>
	<path fill="#7C7C7C" d="M175.721,114.761c0,0,1.063,2.75,1.813,4s4.438,6.313,5.375,7s5.313,4.938,5.938,5.313s5.938,4,6.5,4.188
		s6.125,2.125,6.125,2.125l6.188,1.313l4.625-0.125l4.375-0.563l4.063-0.563c0,0-4.5-2.438-4.688-2.375s-6-0.813-7.563-1
		s-5.625-0.438-8.438-1.813s-8-4.813-9.813-6.5s-4.688-6.625-4.688-6.625s-5.313-5.063-5.375-5.25s-1.875-1.875-1.875-1.875
		l-2.563,2.313"/>
	<path fill="#7C7C7C" d="M230.784,139.074c0.25,0,12.813,3.938,13.938,4.688s4.75,2.563,4.75,2.563l1.625,1.063l0.813,1.5l1.625,2.5
		l1.188,1c0,0-2.063-4.875-3.063-6s-7.125-6.625-7.125-6.625l-13.938-0.938"/>
	<path fill="#574C3F" d="M147.596,75.886c0,0-0.875,8-0.625,11.125s0.125,7.375,2.125,11.625s5.625,8.25,7.625,9
		s3.25,1.75,6.125,0.625s3.25-1.625,7-3.5s3.75-2.25,6.875-3.5s4.25-2.875,6.125-2.875s8,0,8,0s-0.375,2.125,0.875,5.313
		s4.938,10.688,8.313,13.25s6.75,4.875,10.625,6.063s5.313,1.625,8.313,1.813s9.313,0.625,9.313,0.625l4.625,0.125h2.563
		c0,0-4.375-5-5.688-7.313s-5-8.688-6-11.125s-2.688-9-3-10s-0.5-2.313-0.563-2.188s2.625,1.875,4.938,2.563s8.5,1.188,8.5,1.188
		h7.375l5.813-1.688l5.875-3.063l4.313-3.375l2.625-3.5l1.375-4.25l0.188-6l-2-8.188l-4.813-8l-3.875-5.938
		c0,0,1.625,6.313,1.75,6.5s1.125,5.5,1.25,6.938s0.313,6.063,0.313,8s-0.375,3.813-0.875,5.375s-2,4.25-2.625,5
		s-2.688,2.25-3.875,2.5s-11.688,0.625-12.875,0.5s-8-1.125-9.125-1.563s-6-3-6-3l-1.25-0.813l-2.688-5.813
		c0,0-2.063-3.625-3.125-4.438s-4.5-3.125-5.375-3.438s-8.625-0.5-9.563-0.438s-8.438,0.688-10.375,1.438s-8,2-9.125,2.25
		s-10.688,1.813-10.688,1.813s-7.188,0.938-7.75,0.938s-9-0.5-9-0.5L147.596,75.886z"/>
	<path fill="#3D352C" d="M190.534,102.886c-7.451,4.57-7.179,4.246-8,5.25c-0.563,0.688-4.75,4.75-4.75,4.75s0.688,2.313,2.313,4
		s6.438,5.188,8.813,6.125s7.5,2.438,9.25,2.563s3.5-0.188,3.5-0.188l-2.688-2.688l-2.75-3.875l-3.188-5.188l-1.563-3.688
		l-0.25-3.313C191.221,106.636,190.784,102.886,190.534,102.886z"/>
	<path fill="#3D352C" d="M189.221,103.199c-0.188,0.188-4.75,2.875-4.75,2.875l-0.688,1.563l4.563-0.813l1.25-1.875L189.221,103.199
		z"/>
	<path fill="none" stroke="#000000" stroke-width="0.75" d="M112.805,52.552c0,0,12.167,9.667,14.333,11.334s7.667,6.167,10.5,7.667
		s6.999,4,10.833,4.5s9.833,0.667,16.834-0.5c7-1.167,7.165-0.666,14.499-2.5s11.833-2.833,16.5-3s8.166-0.5,11.5,1.333
		s5,3.667,7.667,9s3.5,10.5,5,15.667s2.668,10.334,5.334,15.167s6.167,10.832,8,12.666s1.833,1.834,1.833,1.834"/>
	<path fill="none" stroke="#000000" stroke-width="0.75" d="M231.055,125.469c0,0,11,0.666,14.667,1.25s11.416,1.667,16.166,3.5
		s15.75,6.833,19.417,8.75s5.834,3.833,5.834,3.833s1.916,3.417,2.416,6.667s0.166,3.667,0,5.667s-0.75,3.249-1.333,4.416
		s-3.083,4.667-3.083,4.667s-4.251-3.5-4.584-5.25s-0.334-2.417-0.5-3.25s-10.5-7.251-13.75-9.167s-12-5.832-18-6.499
		s-13-0.918-17.5-1.334s-9.084-0.833-13.5-2.833s-7.833-3.166-11.666-6.5s-9.167-9.666-11.417-13.833s-3.083-5.167-3.25-10.834
		s-0.083-8.583-0.083-8.583"/>
	<path fill="none" stroke="#000000" stroke-width="0.75" d="M191.055,102.802c0,0-4.416,1.251-6.666,3.584
		s-6.084,5.417-10.917,10.25s-8.083,8.166-11.083,10.333s-3.833,2.416-5.75,2.833s-8.084,0.417-9.584-0.083s-2-0.917-2-0.917"/>
	<path fill="none" stroke="#000000" stroke-width="0.75" d="M175.639,114.553c0,0,1.582,4.584,3.916,7.25s10.001,11.084,16.334,13.5
		s9.917,3.5,14.917,3.333s9.084-1.333,10-1.333s0.916,0,0.916,0"/>
	<path fill="none" stroke="#000000" stroke-width="0.75" d="M133.722,99.719c0,0,0.584,1.5-1.333,7s0,5.417-6.333,11.167
		s-12.083,11.25-20.75,17s-13.417,9.166-19.667,12.583s-8.834,4.918-10.917,7.584s-3.75,5.916-4.083,8.166s0,3.166,0.417,4.333
		s1.083,2.25,2.75,2.917s5,0.334,8.083-1.583s6-4.25,6.917-5.5s0.25-2.083,2.083-5s4.084-4.917,7.417-8s5.083-4.751,9.333-7.417
		s7.166-4.749,12.833-6.666s9.833-3.75,15-4.917s11.667-3.084,13-3.417s2.084-0.667,3.417-2.417s2.5-4.167,4.083-5.833
		s2.5-2.416,2.5-2.416"/>
	<path fill="none" stroke="#000000" stroke-width="0.75" d="M124.306,134.969c0,0-10.333,6.749-13.833,10.083s-6,6.25-6.917,8.167
		s-1.667,4-3.5,6s-4.083,3.918-6.5,5.084s-7,1.333-7,1.333"/>
	<path fill="none" stroke="#000000" stroke-width="0.75" d="M217.138,84.136c0,0,5.583,4,11.25,4.833s16.667,0.751,19.167-0.333
		s4.583-4.25,5.583-6.917s0.833-6.917,0.667-11s-0.832-7.417-1.916-11.083c-1.084-3.667-1.584-5.667-1.584-5.667
		s7.584,11.749,9.084,15.333s2.25,10.001,1.5,13.834s-2.584,7.332-7.834,10.666s-9.666,4.751-13.333,5.001
		s-10.417-0.166-12.667-0.75c0,0-6.396-2.292-6.834-2.729"/>
	<path fill="none" stroke="#000000" stroke-width="0.75" d="M106.596,68.636l7.375,9.875c0,0,0,15.375,1.125,20s2.5,8.625,5,11.875
		s6.625,7.25,6.625,7.25"/>
	<path fill="none" stroke="#000000" stroke-width="0.75" d="M230.596,138.949c0,0,10.813,2.625,16,5.625s4.375,2.25,5.25,3.75
		s0.875,3,2.75,4.25s3.5,1.5,4,1.5s0.75-0.875,0.813-1.375s0.5-0.563,0.688-0.75s0-3.063,0-3.063s1.125,0.125,1.313,0.063
		s-0.313-4.625-0.313-4.625"/>
	<path d="M72.659,169.324c0,0-0.188-2.563,0.375-4.563s4.188-6.313,4.188-6.313s-3.688,7.063-3.875,8.75s-0.063,2.875-0.063,2.875"
		/>
	<path d="M77.534,170.261c0,0-0.375-2.563,0.188-4.188s1.938-3.5,2.813-4.75s1.688-1.688,1.688-1.688s-2.313,4-2.813,5.125
		s-0.875,2.5-0.938,3.375s0.063,2.25,0.063,2.25"/>
	<path d="M89.909,164.949c0,0,0.625-4.125,1.688-5.813s4-4.875,4-4.875s-3.375,4.813-3.875,6.438s-0.5,4.125-0.5,4.125"/>
	<path d="M231.221,125.136l-6.063-0.188c0,0,5.031,0.844,6.313,0.875"/>
	<path d="M259.284,152.511c0,0-2.563-0.406-3.344-1.781s-0.969-1.844-0.969-1.844s1.031,1.844,2.406,2.438s2.438,0.875,2.438,0.875"
		/>
	<path d="M259.846,149.074c0,0-1.25-0.5-2.75-1.781s-2-2.156-2-2.156s2.563,2.344,3.625,2.875s1.656,0.656,1.656,0.656"/>
	<path d="M287.034,161.199c0,0-2.594-0.906-3.5-2.156s-1.156-2.031-1.156-2.031s1.219,1.844,2.031,2.375s3.156,1.438,3.156,1.438"/>
	<path d="M283.627,154.011c0,0,1.031,2.188,1.875,2.75s3.188,1.406,3.188,1.406l0.344-0.438c0,0-2.031-0.75-2.688-1.094
		s-2.688-2.781-2.688-2.781"/>
	<path d="M157.94,117.355c0,0-0.031-0.531,3.438-2s3.781-1.531,3.781-1.531s-6.313,3.594-6.906,4.125"/>
	<path d="M133.409,100.011c0,0-0.344-0.156-0.438-2.625s-0.094-2.469-0.094-2.469s1.125,4.188,1.188,4.875"/>
	<path d="M190.554,96.219c0,0-0.25-3.792,1-5.125s1.375-1.5,1.375-1.5s-1.709,4.959-1.667,6.792"/>
	
		<ellipse transform="matrix(-0.991 0.134 -0.134 -0.991 180.0214 94.4497)" fill="#FFFFFF" cx="86.832" cy="53.283" rx="10.5" ry="9.813"/>
	
		<ellipse transform="matrix(0.991 -0.1339 0.1339 0.991 -6.3514 10.0505)" fill="#FFFFFF" cx="71.522" cy="52.23" rx="10.156" ry="8.281"/>
	<path fill="#FFFFFF" d="M72.976,45.949c0.036-0.195,7.1-6.258,7.348-6.292c0.249-0.033,6.499-1.383,8.011-1.397
		c1.511-0.016,3.906-0.024,4.192,0.694c0.286,0.718-2.099,6.401-2.192,7.106c-0.094,0.708-3.219,3.716-3.219,3.716l-6.672,12.696
		c0,0-3.613,7.805-3.413,8.345c0.199,0.54,1.081,3.323,1.082,4.27c0,0.945-0.946,4.668-0.946,4.668l-1.24,1.556l-0.747,0.543
		l-4.866,1.792l-8.015,0.894l-3.209,0.056l-2.383-0.371l-2.228-0.14l-1.011-0.496l-0.794-0.27l-2.346-0.567l-2.712-1.396
		l-1.093-1.558L45.359,76.8l-0.052-1.316l0.558-1.463l1.007-0.958l1.798-0.682l1.461-0.387l1.736-1.624l6.227-5.257
		c0,0,6.406-4.397,6.583-4.483c0.177-0.088,1.511-0.961,1.511-0.961l5.155-6.185l2.125-7.603"/>
	<path fill="#B2B2B2" d="M109.138,70.386l-0.407-1.144c0,0-1.411-0.629-1.88-0.376c-0.469,0.252-1.479,0.264-2.028,0.4
		c-0.548,0.136-6.622,1.399-6.622,1.399l-6.566-0.059l-0.167,2.041"/>
	<path fill="#574C3F" d="M69.677,44.417c0,0,1.708,0.19,2.402,0.348c0.695,0.158,2.148,0.972,2.148,0.972l0.53,0.18
		c0,0,0.688-0.514,2.006-1.953c1.319-1.44,2.479-2.184,4.725-2.993c2.246-0.808,5.479-1.161,6.574-1.141
		c1.095,0.021,1.707,0.189,1.707,0.189l0.067,3.607l2.889,1.46l2.159,1.053c0,0,1.072,1.705,1.281,2.013
		c0.211,0.309,0.449,1.455,0.648,1.678c0.199,0.227,0.567,1.1,0.696,1.421c0.128,0.319,0.25,1.227,0.246,1.816
		s-0.223,1.46-0.272,1.718s-0.338,1.224-0.387,1.483c-0.049,0.259-0.577,1.338-0.577,1.338l-2.39,2.846l-1.871,1.094l-2.482,0.924
		l-1.958,0.434l-3.807-0.158l-1.67-0.531c0,0-1.267-0.67-1.547-0.883c-0.281-0.215-1.208-0.847-1.467-0.895
		c-0.26-0.05-1.23-1.012-1.23-1.012s-1.219,2.184-2.152,3.991c-0.933,1.808-0.72,3.376-0.501,5.617
		c0.22,2.241,0.912,4.251,1.101,5.653c0.189,1.405,0.88,2.154,0.091,3.772c-0.792,1.622-2.103,3.731-2.103,3.731l9.588-5.584
		c0,0,6.758-5.368,7.682-5.999c0.924-0.632,7.336-6.711,7.928-7.296c0.594-0.584,6.546-10.051,6.322-9.853
		c-0.227,0.2-1.524-1.307-1.685-1.874c-0.16-0.567,2.012-5.653,2.012-5.653s2.054-0.362,2.361-0.572
		c0.308-0.209,1.457-1.038,1.457-1.038s1.99,0.402,3.212,0.743c1.223,0.339,6.068,0.104,6.068,0.104l1.877-0.422l4.591-0.872
		l2.525-0.595l2.434-0.664l2.636-1.03l3.087-1.426l1.089-0.652l-4.151-2.717l-3.815-2.093l-3.664-1.605l-4.548-1.909l-5.196-1.735
		l-3.658-0.936l-0.905-0.466l1.88-2.271l1.296-1.605l-4.703,0.047l-4.891-0.095l-7.432,1.004l-4.332,0.922l-3.149,0.34l-3.94,1.963
		l-3.293,2.379l-1.869,2.355l-1.57,2.062l-0.719,1.526l-2.795,1.724l-3.711,3.024L69.677,44.417z"/>
	<path fill="#3D352C" d="M91.495,72.834l3.102,0.086c0,0,3.455-0.091,3.766-0.131c0.31-0.043,2.75-0.183,2.75-0.183
		s2.601-0.352,2.788-0.379c0.185-0.024,2.009-0.522,2.25-0.618c0.239-0.096,1.654-1.294,1.654-1.294l1.673-1.615l1.478-2.597
		l0.621-1.471l0.624-1.913l0.538-2.092l0.468-3.532l-0.105-3.58l-0.522-3.398l-0.695-2.809l-0.766-1.473l-0.68-1.295l-0.183-0.417
		l-2.133-0.846l-1.756-0.395l-1.682-0.781l-0.231,0.156c0,0-1.714-1.028-2.059-1.234c-0.343-0.207-0.5-0.438-0.5-0.438
		s-0.93,8.514-2.625,12.78c-1.693,4.267-2.504,6.204-4.869,9.235c-2.367,3.032-6.853,8.559-9.641,11.268
		c-2.788,2.712-7.957,7.383-7.957,7.383s5.28-2.92,5.903-3.447c0.623-0.525,3.643-2.446,3.643-2.446l3.238-1.7"/>
	
		<ellipse transform="matrix(-0.991 0.134 -0.134 -0.991 166.9341 97.3818)" fill="#20A0FF" cx="80.191" cy="54.307" rx="3.782" ry="3.75"/>
	
		<ellipse transform="matrix(-0.991 0.1341 -0.1341 -0.991 165.8886 97.2018)" fill="#004774" cx="79.67" cy="54.188" rx="1.531" ry="1.499"/>
	
		<ellipse transform="matrix(-0.991 0.1339 -0.1339 -0.991 137.1072 98.1334)" fill="#20A0FF" cx="65.254" cy="53.677" rx="3.125" ry="3"/>
	
		<ellipse transform="matrix(-0.991 0.1338 -0.1338 -0.991 136.5254 98.1343)" fill="#004774" cx="64.966" cy="53.653" rx="1.093" ry="1.063"/>
	
		<ellipse transform="matrix(-0.991 0.1338 -0.1338 -0.991 168.7177 92.7658)" fill="#FFFFFF" cx="81.242" cy="52.052" rx="1" ry="0.906"/>
	
		<ellipse transform="matrix(-0.991 0.1338 -0.1338 -0.991 163.2719 101.3266)" fill="#FFFFFF" cx="78.232" cy="56.148" rx="0.719" ry="0.687"/>
	
		<ellipse transform="matrix(-0.991 0.134 -0.134 -0.991 138.87 94.9044)" fill="#FFFFFF" cx="66.242" cy="52.125" rx="0.813" ry="0.782"/>
	
		<ellipse transform="matrix(-0.991 0.1336 -0.1336 -0.991 134.842 101.7995)" fill="#FFFFFF" cx="64.007" cy="55.422" rx="0.656" ry="0.626"/>
	<path fill="none" stroke="#020202" stroke-width="0.75" d="M91.457,73.029c-1.479,0.264-2.95,1.03-5.73,2.855
		c-2.782,1.827-2.17,1.682-6.883,4.146c-4.712,2.469-6.254,3.181-9.946,3.868c-3.692,0.689-5.983,0.997-8.776,0.872
		c-2.792-0.127-5.308-0.545-6.11-0.878c-0.802-0.332-1.022-0.555-1.022-0.555"/>
	<path fill="none" stroke="#020202" stroke-width="0.75" d="M69.193,44.566c0,0,5.978-6.167,9.061-7.152
		c3.083-0.984,9.916-2.224,13.01-2.201c3.093,0.023,6.266,0.162,6.266,0.162s2.109-3.061,3.842-4.24
		c1.732-1.181,7.676-2.931,10.105-2.691c2.43,0.24,6.841,1.156,14.021,4.349c7.18,3.191,12.44,6.643,12.44,6.643
		s-6.405,3.01-7.98,3.475c-1.578,0.467-6.891,1.751-10.934,2.172s-6.795-0.342-7.695-0.473c-0.899-0.13-0.899-0.13-0.899-0.13
		s1.574,3.255,1.984,5.345c0.407,2.089,1.086,7.105,0.444,10.284c-0.644,3.178-1.724,5.908-3.084,7.983
		c-1.359,2.076-1.424,2.526-4.544,3.706c-3.119,1.177-3.843,0.96-6.46,1.188c-2.618,0.227-5.833-0.222-7.311,0.042"/>
	<path fill="none" stroke="#020202" stroke-width="0.75" d="M49.594,72.403c5.09-4.966,10.694-8.798,16.595-12.733"/>
	<path fill="none" stroke="#020202" stroke-width="0.75" d="M46.131,74.11c0,0-0.207,0.258-0.412,0.666
		c-0.251,0.507-0.501,1.243-0.36,2.024c0.254,1.417,0.952,3.782,3.057,4.886c2.104,1.104,3.873,2.063,6.038,1.263
		c2.162-0.794,3.688-1.632,5.329-3.493c1.64-1.861,2.674-3.074,2.37-4.861c-0.305-1.789-1.456-2.83-3.194-3.102
		c-1.739-0.268-9.898,0.961-10.882,1.157C47.095,72.845,46.638,73.665,46.131,74.11z"/>
	<path fill="#020202" d="M97.887,35.454c0,0-0.298,0.355-0.659,1.429c-0.358,1.074-0.358,1.074-0.358,1.074
		s-0.181-2.261,0.742-3.143"/>
	<path fill="#020202" d="M110.782,44.999c0,0-3.58-1.061-5.339-2.179c-1.76-1.118-1.875-1.26-1.875-1.26s8.402,2.899,9.237,3.008"/>
	<path fill="#020202" d="M57.129,71.961c0,0-4.47,1.457-6.023,2.802c-1.552,1.345-2.103,2.176-1.672,3.253
		c0.429,1.076,0.295,0.561,1.65,1.953c1.356,1.393,3.523,2.96,3.523,2.96s3.958-2.206,4.55-2.729
		c0.591-0.521,3.123-4.426,3.049-5.204c-0.073-0.778-0.637-2.846-0.74-2.676C61.363,72.493,58.829,71.006,57.129,71.961z"/>
	<path fill="#020202" d="M46.552,73.139c0,0-0.633,0.574-0.856,0.904c-0.224,0.33,0.183,0.307,0.183,0.307l0.49-0.462l0.455-0.833"
		/>
	
		<ellipse transform="matrix(-0.991 0.134 -0.134 -0.991 179.8821 94.397)" fill="none" stroke="#020202" stroke-width="0.75" cx="86.765" cy="53.251" rx="10.751" ry="9.707"/>
	<path fill="none" stroke="#020202" stroke-width="0.75" d="M75.833,52.007c0.003-0.038,0.02-0.064,0.027-0.099
		c0.104-1.152,0.646-2.253,1.412-3.167c-1.563-2.804-4.844-4.527-8.398-4.046c-4.561,0.616-7.788,4.592-7.208,8.879
		c0.58,4.287,4.746,7.263,9.307,6.646c2.366-0.32,4.356-1.557,5.658-3.261C75.882,55.456,75.753,53.328,75.833,52.007z"/>
	<path fill="none" stroke="#020202" stroke-width="0.75" d="M78.867,37.121c0,0,2.204-4.839,4.492-6.578
		c2.288-1.739,4.466-3.042,7.373-3.939c2.906-0.897,12.095-1.972,15.492-2.347c3.396-0.376,8.921,0.055,8.921,0.055l-3.668,4.132"/>
	<path fill="none" stroke="#000000" stroke-width="0.75" d="M112.805,52.553"/>
</g>
<g id="frame_3">
	<path fill="#FFFFFF" d="M68.201,48.741c0,0-2.375,9.688-2.5,9.938s2.688,6.75,3,7.25s5.625,5.375,5.875,5.875
		s2.688,8.375,2.688,8.375s2,8.625,1.813,8.688s0.563,7.313,0.75,8.063s6.5,11.938,6.875,12.188s5.875,7.313,6.375,8
		s6.188,10.688,6.375,10.875s2.125,7.438,2.125,7.438s11.688,7.375,11.625,7.563s6.625,7.5,6.625,7.5l1.063,1.75
		c0,0-14,5.125-14.188,5.188s-3.938,5.875-3.938,5.875l-2.063,4.063l0.313,0.375l-0.5,1.5l0.25,0.688l1.813,0.063l3.313,0.063
		l1.75,0.063l0.063,0.625c0,0,3.688-0.063,4.375-0.188s5.625-2,5.625-2l7.875-4.438l3.438-2.188l0.938,2.75l6.5,5.875l2.938,1.313
		c0,0,2.563,1.25,2.75,1.188s3.188,0.938,3.188,0.938l3.75,0.063l2.938-2l1.625-2.5l-0.188-2.188l-2.938-5.313
		c0,0-5.438-2.125-6.125-2.563s-6.25-3.313-6.25-3.313l6.75-4.5l12.25-5.813l4.563-1.938l7-2.938l1.75-2.688l0.25-3.688
		l-0.813-6.375l0.625-3.375c0,0-3.563-3.563-3.938-3.688s-10.75-14.438-10.75-14.438l-6-4.875l-5.625-5.938l-2.313,4.875l0.563,3.75
		c0,0,1.063,11.563,1.063,11.75s2.438,4.125,2.438,4.125l8.688,9.813l2.625,4.375l0.063,1.75l-7.813,4l-20.313,8.25l-6.875-7.688
		c0,0-2.875-5.563-3-6.313s0.188-6.125,0.188-6.125l-0.375-8.688l-0.375-2.875c0,0,2.188-4.063,2.313-4.313s14-8.813,14-8.813
		l3.438-2.125l3.625-2.5c0,0,0.313-3.688-0.063-3.938s-25.438-9.125-25.5-9.5s-11.375-7.688-11.375-7.688l-3.438-4.313
		c0,0-5.063-2.5-6.188-3s-8.438-6.75-8.438-6.75l-8.688-8.313c0,0-6.75-6.125-6.938-6.188s-3.125-1.313-3.125-1.313"/>
	<path fill="#B2B2B2" d="M66.763,59.178c0,0,3.25,4.313,5.563,8.063s5.688,9.375,6.938,14.813s1.188,4.75,1.75,9.25
		s0.188,4.375,1.25,6.313s2.063,3.438,2.063,3.438l6.938,10.563l5.5,9l3.188,4.688l1.188,2.188l0.625,1.125c0,0,1,5.188,2,5.875
		s3.375,1.375,4.563,2.063s6,5.938,6.625,6.563s2.625,3.25,2.813,3.5s3.063,3.313,3.063,3.313l1.25,1.25l-2.875,1.75
		c0,0-2.75-3.563-3.25-4s-4.563-5.188-5.438-5.813s-3.875-2.938-4.5-3.25s-3.25-1.5-4.125-2s-1.813-1.188-2.438-1.875
		s-2.313-3.75-2.813-4.438s-3.5-4.125-4.125-4.625s-1.563-1.5-1.563-1.5l-1.563-0.875c0,0-2.875-1.563-4.313-2.875
		s-5.188-4.688-6.875-6.25s-3.313-2.813-4.313-4.813s-4.875-9.563-5.688-11.375s-0.25-0.813-0.313-2.25s-0.5-8.875-0.5-8.875
		l0.375-12.438l-0.125-3.688l-5.438-7.563l0.063-2.313L66.763,59.178z"/>
	<path fill="#B2B2B2" d="M119.138,120.428c0.125-0.313,4.313-3.938,6.5-5.938s6.563-5.313,6.563-5.313l3.813-2.813l4.313-2
		l1.375-0.5l-0.063-4.375c0,0,1.688-1.938-5,1.625s-13.188,7.875-15.438,9.375s-3,2.563-3,2.563"/>
	<path fill="#B2B2B2" d="M144.763,96.803c0,0-0.125,11.688,2.688,16.375s8.063,10.938,8.188,11.125s3.25,4.625,3.75,5.688
		s1.563,3,1.313,4.313s-0.25,1.688-1.313,2.25s-3.438,0.938-3.438,0.938l1.688-2.125l-0.875-1.75l-5.438-6.938l-3.375-3.813
		c0,0-0.063,3.313,0.125,3.938s0.625,1.875,0.625,1.875l0.188,1.75c0,0-9.5,6.75-11.063,7.813s-5.063,3.563-5.813,4.688
		s-2.563,3.813-2.563,3.813l-0.813,1.125l-3.188-3.75c0,0,5.938-5.938,10.063-8.75s6.188-5.375,4.875-7.25s-9-11.938-9-11.938
		l8.563-7.938l1.438-4.375l0.5-3l0.063-2.188l1.625-3.5l2.313,0.063"/>
	<path fill="#B2B2B2" d="M115.951,148.928c0,0-9.438,3.625-11.125,4.438s-3.625,2.438-3.625,2.438l-1.875,1.438l-0.938,1.875
		l-0.75,1.875l1.375,1.188l1.438,0.938l-0.938,4l1.125,0.688v1.688l2.063,0.375c0,0,0.688-6.563,1.313-7.25s7.25-6.5,7.25-6.5
		l5.875-2.5l2.063-0.688l-2.75-3.25L115.951,148.928z"/>
	<path fill="#B2B2B2" d="M126.119,163.824c-0.042,0.063,4.666,5.709,5.208,6.042s3.792,2.021,3.854,2.042s2.458,0.52,2.583,0.541
		s2.209,0.063,2.209,0.063l0.125-0.354l-2.854-2.25l-3.75-3.709c0,0-3.542-3.458-3.667-3.521s-0.916-1.229-0.916-1.229
		s-2.834,2.354-2.896,2.375"/>
	<path fill="#464646" d="M125.138,114.616c0,0,3,6.625,4,8.063s3.375,3.625,4.75,4.625s2.188,1.563,2.375,2.438s-0.125,2-0.5,2.5
		s-4.125,3.313-4.688,3.625s-4.688,2.313-4.688,2.313l-2.563,1.625l-1.25,0.625l2.813,3.625c0,0,8.625-7.313,10.688-9
		s4.188-3.313,4.625-4.438s0.813-1.875,0-2.938s-8.125-10.75-8.125-10.75l-3.688-5.125l-3.563,2.438"/>
	<path fill="#464646" d="M113.388,145.991c0,0-8.188,2.5-9.25,2.938s-4.125,2.063-4.688,2.563s-1.938,1.813-1.938,1.813
		l-0.875,2.188l0.313,2.375l0.5,1.938l0.625,0.375l2.063-3.563l3.563-2.5l12.25-5.188l-2.25-2.938"/>
	<path fill="#574C3F" d="M101.638,73.553c0,0-1.875,8.938-1.688,13.125s-0.063,7.563,2.313,11.688s4.75,7.063,8.5,7.438
		s7-0.313,10.938-2.25s6.125-3.438,9-4.188s6.188-1.25,8.25-1.125s2.875,0.75,2.875,0.75l0.938-2.188l1.063-0.125
		c0,0,3.125,7.938,4.875,10.75s6.563,9.938,11.063,12.813s5.875,3.938,7.375,4.313s3.563,1.188,3.563,1.188s1.438-3.5,1.438-3.813
		s0.875-3.25,0.875-3.25l0.75-7.125l-0.188-3.375l-0.063-3.063l0.188-4.375l-0.125-1.313c0,0,4,2.313,4.938,2.75
		s6.25,1.875,11.813,1.625s8.313-0.188,11.5-1.438s8.938-5.313,10-6.813s2-1.625,2.125-7.188s-0.375-12.063-1.313-14.188
		s-6.563-11.563-6.563-11.563s1.188,9.625,1.375,13.125s-0.125,9.938-0.563,11.5s-1.438,4.25-2.563,5.375s-2.125,2.313-7.313,2.875
		s-6.875,0.813-10.875-0.188s-15.75-5.688-15.75-5.688s-2.875-8.375-3.938-9.625s-3.5-4.625-4.625-5.125s-5.75-1.625-7-1.875
		s-7.625-0.688-8.813-0.5s-4.563,0.438-5.125,0.625s-11.625,1.375-13.5,1.563s-12.5,0.25-14,0.313s-11.438-1.438-11.438-1.438"/>
	<path fill="#3D352C" d="M128.451,112.553c0,0,1.25,2.563,2.375,4.188s2.625,2.688,3.438,3.188s2.188,0.313,4.563-0.188
		s2.563-0.875,3.375-1.375s1.5-1.5,1.5-1.5l-0.813-2.438l-0.813-1.563l-0.438-1.563l-0.125-2.125v-3l0.063-1.625l-0.125-0.438
		l-4.438,1.625l-4.375,3.125l-2.875,2.375l-1.625,1L128.451,112.553z"/>
	<path fill="none" stroke="#020202" stroke-width="0.75" d="M61.638,63.72c0,0,5.5,7,5.833,8.333s0,7.999,0,10.333s0,13,0.5,15.5
		s6,13.167,7.167,14.667s10.5,10.334,14,11.834s12,3.833,12,3.833l0.667,0.167"/>
	<path fill="none" stroke="#020202" stroke-width="0.75" d="M83.138,99.178c0,0,17.75,27.25,18.625,29.75s1,5,1.875,5.625
		s4.625,1.875,6.25,3.5s3.25,3.25,5.5,5.75s6.625,7.625,6.625,7.625"/>
	<path fill="none" stroke="#020202" stroke-width="0.75" d="M117.888,112.053c0,0,0.75,4.625,1.25,9.25s0.625,7.25,0.375,9.125
		s-0.25,4.375-0.25,4.375s1.625,4,3.75,6.75s6.125,7.25,6.125,7.25"/>
	<path fill="none" stroke="#020202" stroke-width="0.75" d="M119.263,120.053c0,0,2.875-2.625,5.125-4.625s5.5-4.5,8.125-6.5
		s5.625-3.75,6.5-4.125s2.5-0.875,2.5-0.875"/>
	<path fill="none" stroke="#020202" stroke-width="0.75" d="M141.888,98.553c0,0-0.625,11,0.25,13.875s3.875,8.625,6.625,11.25
		s4.75,5.25,6.375,7.75s2.5,3.25,2.25,4.5s-5.375,3.25-8.75,4.75s-29,11.875-33,13.75s-10.5,3.375-12.125,4.875
		s-3.375,3.625-3.625,4.75s-0.875,2.75-0.25,3.25s1.25,0.75,1.25,0.75s-0.75,1.625-0.125,1.875s6.375,0.125,6.375,0.125l0.5,0.5
		c0,0,4,0.125,7.125-0.875s5.625-2.375,9-4.5s6-4,12.875-8.375s10.5-6.5,15.625-8.625s9.625-4.25,12.75-5.5s4.75-2.125,5.25-4
		s0.5-2.75,0.125-6.25s-1-3.25,0.125-6.375s2.875-7.5,3-15.5s0.25-11,0.25-11s4.875,3.375,8.75,3.875s13.125,0.75,17.25-0.5
		s7-2.75,9-4.5s5.125-3.75,5.375-9s-0.375-11.375-1.625-15.125s-6.75-12.625-6.75-12.625s1.625,9.5,1.625,16.625
		s-0.5,11.375-2.375,13.375s-2.75,2.625-4.75,3.375s-9.125,1.25-11.75,0.75s-11.75-3.375-13.625-4.25s-4.625-2.25-4.625-2.25
		s-3.125-8.625-4.625-10.5s-4.125-4.5-6.625-5.125s-11.25-1.125-13.75-1s-11.25,1.625-17,1.875s-19.875,1-25-0.5
		s-9.375-3.75-13.875-7.875s-13.25-12.625-16-15s-6.25-4.25-6.25-4.25"/>
	<path fill="none" stroke="#020202" stroke-width="0.75" d="M125.138,115.116c0,0,2.938,7,5.188,9s4.313,3.875,5.188,4.625
		s0.875,1.813,0.688,2.75s-1.625,1.75-5.125,4s-8.375,5.125-8.375,5.125"/>
	<path fill="none" stroke="#020202" stroke-width="0.75" d="M128.513,148.178c0,0,0.063-0.563,2.188-3.438s3.063-3.875,6.75-6.375
		s7.063-4.813,8.625-5.813s2.875-1.563,2.75-3.188s-0.75-3.188-0.813-4.063s0.125-2.188,0.125-2.188"/>
	<path fill="none" stroke="#020202" stroke-width="0.75" d="M89.951,124.928c0,0,5.125,4,6.5,6.125s2.375,4.625,3.75,5.75
		s2.188,1.375,4.75,2.563s5.875,4.125,8.25,6.313s3.188,3.875,3.938,4.688s1.75,2.625,1.75,2.625"/>
	<path fill="none" stroke="#020202" stroke-width="0.75" d="M113.326,146.178c0,0-3.938,1-5.813,1.625s-5,1.75-6.188,2.563
		s-3.5,2.188-4,3.188s-1.063,2.75-0.75,4.375s1,2.188,1,2.188l0.188,1.188c0,0,1.75,1.438,2.313,1.563s0.563,0.125,0.563,0.125"/>
	<path fill="none" stroke="#020202" stroke-width="0.75" d="M129.263,161.866c0,0,7.688,8.688,10.063,9.938s5.125,2.125,6.563,2.313
		s2.813,0.25,4.5-0.813s3.438-2.375,3.25-4.375s-2.063-5.813-3.313-6.688s-5.375-2.375-6.625-3.125s-5.563-3.188-5.563-3.188"/>
	<path fill="none" stroke="#020202" stroke-width="0.75" d="M126.263,164.053c0,0,2.75,3.938,4.188,5.188s4.5,2.875,6,3.125
		s4.25,0.188,4.25,0.188"/>
	<path fill="#020202" d="M97.576,160.116c0,0,0.5-1.813,1.5-3s4.25-3,4.938-3.375s-4.5,3.75-4.875,4.375s-1.188,3.438-1.188,3.438"
		/>
	<path fill="#020202" d="M100.576,167.741c0,0,2.063-5,3.813-6.125s4.375-2,4.375-2s-4,2.813-4.688,3.688s-3,5.188-3,5.188"/>
	<path fill="#020202" d="M107.138,170.053c0,0,1.188-3,2.5-4.625s4.375-3.188,4.375-3.188s-3.813,3.438-4.688,4.813
		s-1.688,3.5-1.688,3.5"/>
	<path fill="#020202" d="M149.326,173.553c0,0-3-0.375-5.375-1.375s-4.125-2.625-4.125-2.625s8.563,3.25,9.688,3.438
		s1.375,0.063,1.375,0.063"/>
	<path fill="#020202" d="M153.638,169.866c0,0-2.375-0.125-5.188-1.313s-4.375-2.625-4.375-2.625s8.063,3.313,9.75,3.313"/>
	
		<ellipse transform="matrix(-0.998 0.0633 -0.0633 -0.998 89.6333 87.7207)" fill="#FFFFFF" cx="43.428" cy="45.28" rx="10.5" ry="9.812"/>
	
		<ellipse transform="matrix(0.998 -0.0632 0.0632 0.998 -2.672 1.8718)" fill="#FFFFFF" cx="28.231" cy="43.143" rx="10.156" ry="8.281"/>
	<path fill="#FFFFFF" d="M30.127,36.979c0.05-0.192,7.526-5.738,7.776-5.754c0.25-0.016,6.58-0.918,8.09-0.825
		c1.508,0.091,3.898,0.253,4.132,0.99c0.234,0.736-2.548,6.236-2.691,6.933c-0.144,0.699-3.475,3.479-3.475,3.479l-7.557,12.189
		c0,0-4.158,7.528-3.997,8.081c0.16,0.552,0.842,3.392,0.776,4.336c-0.067,0.943-1.275,4.589-1.275,4.589l-1.348,1.463l-0.783,0.489
		l-4.981,1.442l-8.058,0.321l-3.205-0.172l-2.351-0.539l-2.212-0.299l-0.974-0.566l-0.773-0.325l-2.3-0.731l-2.606-1.586
		l-0.979-1.632L0.39,65.792l0.042-1.316l0.661-1.419l1.073-0.883l1.842-0.552l1.485-0.282l1.847-1.498l6.585-4.801
		c0,0,6.702-3.932,6.885-4.004c0.183-0.075,1.575-0.852,1.575-0.852l5.581-5.804l2.66-7.433"/>
	<path fill="#B2B2B2" d="M64.462,63.923l-0.325-1.17c0,0-1.363-0.728-1.849-0.508c-0.486,0.218-1.494,0.158-2.051,0.255
		c-0.557,0.097-6.704,0.926-6.704,0.926l-6.546-0.525l-0.311,2.025"/>
	<path fill="#574C3F" d="M26.946,35.218c0,0,1.69,0.311,2.371,0.518c0.682,0.207,2.074,1.122,2.074,1.122l0.516,0.217
		c0,0,0.722-0.463,2.14-1.806c1.418-1.342,2.627-2.002,4.925-2.649c2.298-0.646,5.547-0.769,6.639-0.671
		c1.091,0.099,1.689,0.31,1.689,0.31L47.11,35.86l2.778,1.662l2.079,1.204c0,0,0.948,1.776,1.135,2.098
		c0.188,0.323,0.345,1.483,0.527,1.721c0.182,0.24,0.488,1.138,0.593,1.467c0.105,0.328,0.163,1.241,0.116,1.829
		c-0.046,0.587-0.326,1.439-0.394,1.694c-0.067,0.255-0.424,1.197-0.492,1.452c-0.067,0.254-0.67,1.294-0.67,1.294l-2.586,2.668
		l-1.944,0.958l-2.542,0.745l-1.984,0.293l-3.786-0.428l-1.628-0.648c0,0-1.216-0.758-1.481-0.99
		c-0.265-0.234-1.145-0.931-1.399-0.997c-0.255-0.068-1.155-1.097-1.155-1.097s-1.372,2.092-2.431,3.829
		c-1.059,1.737-0.958,3.316-0.899,5.567c0.06,2.25,0.607,4.304,0.696,5.716c0.089,1.416,0.725,2.212-0.177,3.771
		c-0.905,1.561-2.363,3.572-2.363,3.572l9.96-4.89c0,0,7.122-4.874,8.088-5.438c0.967-0.564,7.794-6.173,8.426-6.714
		c0.634-0.54,7.244-9.561,7.006-9.379c-0.241,0.184-1.427-1.412-1.548-1.989c-0.119-0.577,2.408-5.496,2.408-5.496
		s2.075-0.215,2.396-0.403C66.164,38.745,67.369,38,67.369,38s1.957,0.543,3.151,0.969c1.196,0.425,6.046,0.535,6.046,0.535
		l1.902-0.288l4.642-0.544l2.561-0.415l2.475-0.489l2.703-0.84l3.18-1.203l1.133-0.573l-3.948-3.005l-3.657-2.358l-3.541-1.862
		l-4.401-2.227l-5.06-2.1l-3.582-1.193l-0.869-0.529l2.037-2.132l1.407-1.509l-4.694-0.287l-4.872-0.442l-7.484,0.474l-4.387,0.612
		l-3.166,0.116l-4.069,1.679l-3.454,2.139l-2.032,2.216l-1.713,1.945l-0.826,1.472l-2.91,1.521l-3.917,2.753L26.946,35.218z"/>
	<path fill="#3D352C" d="M46.69,65.113l3.088,0.306c0,0,3.453,0.154,3.766,0.138c0.312-0.021,2.756,0.012,2.756,0.012
		s2.619-0.166,2.807-0.18c0.186-0.011,2.042-0.378,2.288-0.456c0.246-0.078,1.742-1.174,1.742-1.174l1.783-1.492l1.659-2.485
		l0.724-1.423l0.758-1.864l0.685-2.048l0.718-3.49l0.149-3.578l-0.279-3.427L68.84,41.1l-0.66-1.524l-0.586-1.34l-0.153-0.428
		l-2.067-0.996l-1.723-0.518l-1.623-0.899l-0.242,0.14c0,0-1.637-1.147-1.966-1.377c-0.327-0.231-0.468-0.473-0.468-0.473
		s-1.532,8.427-3.525,12.561c-1.992,4.136-2.938,6.011-5.512,8.867c-2.576,2.856-7.443,8.05-10.417,10.554
		c-2.973,2.508-8.461,6.799-8.461,6.799s5.474-2.537,6.133-3.02c0.658-0.479,3.808-2.181,3.808-2.181l3.351-1.467"/>
	
		<ellipse transform="matrix(-0.998 0.0633 -0.0633 -0.998 76.2898 89.2404)" fill="#20A0FF" cx="36.73" cy="45.829" rx="3.782" ry="3.749"/>
	
		<ellipse transform="matrix(-0.998 0.0635 -0.0635 -0.998 75.2654 88.9567)" fill="#004774" cx="36.22" cy="45.674" rx="1.531" ry="1.499"/>
	
		<ellipse transform="matrix(-0.998 0.063 -0.063 -0.998 46.4908 86.8138)" fill="#20A0FF" cx="21.876" cy="44.14" rx="3.125" ry="3"/>
	
		<ellipse transform="matrix(-0.998 0.0628 -0.0628 -0.998 45.9058 86.7501)" fill="#004774" cx="21.591" cy="44.096" rx="1.093" ry="1.063"/>
	
		<ellipse transform="matrix(-0.998 0.0632 -0.0632 -0.998 78.5622 84.8209)" fill="#FFFFFF" cx="37.939" cy="43.654" rx="1" ry="0.907"/>
	
		<ellipse transform="matrix(-0.998 0.0625 -0.0625 -0.998 72.193 92.7958)" fill="#FFFFFF" cx="34.646" cy="47.526" rx="0.719" ry="0.688"/>
	
		<ellipse transform="matrix(-0.998 0.0637 -0.0637 -0.998 48.6137 83.7736)" fill="#FFFFFF" cx="22.972" cy="42.662" rx="0.813" ry="0.782"/>
	
		<ellipse transform="matrix(-0.998 0.0625 -0.0625 -0.998 43.8377 90.2128)" fill="#FFFFFF" cx="20.508" cy="45.792" rx="0.656" ry="0.626"/>
	<path fill="none" stroke="#020202" stroke-width="0.75" d="M46.639,65.303c-1.493,0.158-3.016,0.819-5.918,2.441
		c-2.905,1.626-2.284,1.523-7.16,3.647c-4.875,2.128-6.464,2.729-10.195,3.152c-3.732,0.426-6.039,0.569-8.815,0.246
		c-2.775-0.325-5.256-0.92-6.032-1.309c-0.777-0.388-0.98-0.626-0.98-0.626"/>
	<path fill="none" stroke="#020202" stroke-width="0.75" d="M26.452,35.332c0,0,6.401-5.727,9.546-6.49
		c3.146-0.763,10.049-1.515,13.133-1.271c3.084,0.243,6.239,0.607,6.239,0.607s2.322-2.903,4.133-3.957
		c1.812-1.055,7.865-2.378,10.271-1.967c2.407,0.412,6.742,1.639,13.677,5.333c6.936,3.693,11.938,7.509,11.938,7.509
		s-6.603,2.548-8.208,2.899c-1.607,0.354-6.998,1.258-11.06,1.39c-4.063,0.132-6.753-0.823-7.643-1.018
		c-0.888-0.194-0.888-0.194-0.888-0.194s1.339,3.359,1.599,5.473c0.258,2.112,0.579,7.164-0.288,10.289
		c-0.867,3.124-2.139,5.771-3.643,7.744c-1.503,1.975-1.6,2.419-4.796,3.373c-3.195,0.954-3.902,0.686-6.529,0.729
		c-2.627,0.04-5.803-0.637-7.295-0.479"/>
	<path fill="none" stroke="#020202" stroke-width="0.75" d="M4.926,61.707c5.43-4.592,11.292-8.017,17.458-11.523"/>
	<path fill="none" stroke="#020202" stroke-width="0.75" d="M1.35,63.164c0,0-0.225,0.242-0.458,0.635
		c-0.287,0.486-0.589,1.203-0.503,1.992c0.153,1.433,0.681,3.842,2.702,5.092c2.02,1.25,3.717,2.332,5.933,1.688
		c2.212-0.638,3.794-1.365,5.563-3.105c1.768-1.74,2.886-2.876,2.709-4.681c-0.177-1.806-1.251-2.926-2.966-3.32
		c-1.716-0.391-9.941,0.255-10.936,0.38C2.401,61.97,1.887,62.756,1.35,63.164z"/>
	<path fill="#020202" d="M55.721,28.28c0,0-0.322,0.333-0.758,1.378c-0.434,1.046-0.434,1.046-0.434,1.046s-0.02-2.268,0.963-3.083"
		/>
	<path fill="#020202" d="M67.905,38.717c0,0-3.496-1.313-5.17-2.552c-1.676-1.24-1.78-1.39-1.78-1.39s8.175,3.489,9,3.656"/>
	<path fill="#020202" d="M12.474,61.802c0,0-4.562,1.136-6.207,2.366c-1.644,1.232-2.252,2.021-1.899,3.127
		c0.352,1.104,0.255,0.58,1.507,2.065c1.254,1.485,3.305,3.202,3.305,3.202s4.104-1.919,4.732-2.398
		c0.627-0.477,3.43-4.193,3.411-4.974c-0.017-0.782-0.434-2.884-0.548-2.722C16.659,62.632,14.237,60.969,12.474,61.802z"/>
	<path fill="#020202" d="M1.839,62.226c0,0-0.672,0.528-0.918,0.841c-0.247,0.313,0.161,0.319,0.161,0.319l0.521-0.427l0.513-0.797"
		/>
	
		<ellipse transform="matrix(-0.998 0.0633 -0.0633 -0.998 89.501 87.6503)" fill="none" stroke="#020202" stroke-width="0.75" cx="43.363" cy="45.242" rx="10.751" ry="9.707"/>
	<path fill="none" stroke="#020202" stroke-width="0.75" d="M32.547,43.226c0.006-0.038,0.024-0.063,0.034-0.096
		c0.185-1.142,0.805-2.202,1.633-3.059c-1.36-2.908-4.51-4.86-8.089-4.633c-4.593,0.291-8.094,4.027-7.82,8.345
		s4.219,7.583,8.812,7.291c2.383-0.151,4.456-1.243,5.875-2.851C32.351,46.67,32.374,44.537,32.547,43.226z"/>
	<path fill="none" stroke="#020202" stroke-width="0.75" d="M36.63,28.592c0,0,2.542-4.67,4.948-6.242
		c2.406-1.573,4.671-2.718,7.634-3.406c2.962-0.689,12.204-1.108,15.62-1.241c3.415-0.134,8.895,0.688,8.895,0.688l-3.952,3.862"/>
	<path fill="none" stroke="#000000" stroke-width="0.75" d="M69.387,46.395"/>
</g>
</svg>
