<?xml version="1.0" encoding="utf-8"?>
<!-- Generator: Adobe Illustrator 13.0.0, SVG Export Plug-In . SVG Version: 6.00 Build 14948)  -->
<!DOCTYPE svg PUBLIC "-//W3C//DTD SVG 1.1//EN" "http://www.w3.org/Graphics/SVG/1.1/DTD/svg11.dtd">
<svg version="1.1" xmlns="http://www.w3.org/2000/svg" xmlns:xlink="http://www.w3.org/1999/xlink" x="0px" y="0px"
	 width="365.584px" height="197.475px" viewBox="0 0 365.584 197.475" enable-background="new 0 0 365.584 197.475"
	 xml:space="preserve">
<g id="frame_1">
	<path fill="#19CF53" d="M132.351,42.38c0,0-7.417,7.125-8.417,8.375s-4.875,6-5.5,7.375s-1.625,5.5-1.875,6.875
		s-0.875,6.25-0.875,6.25s3.625-1,5.25-1.75s6-1.625,6-1.625s0.375,2.625,0.625,3.75s2,4.125,2.625,4.625s5.625,5,6.375,5.5
		s2.625,1.25,2.625,1.25s1.625-1.125,3.25-2.375s5.75-2.5,7.5-3.375s3.75-1.5,5.75-2.125s7.5-0.625,7.5-0.625l7,1.5l4,2.375
		l5.625,2.75l2,11.375c0,0-4.375,4.625-6.5,6.75s-8.5,9.625-9.25,10.75s-4.875,6.5-5.25,7.25s-1.25,3.125-1.25,3.125l5.875-2
		c0,0,9.125-0.75,9.75-0.375s10,20,10.625,20.5s12.75,10.375,14.125,10.875s9.75,1.75,9.75,1.75l3,1.75c0,0-0.125,4.875-0.5,6.375
		s-3.25,12.125-3.25,12.125s-7.75-0.5-9.375,0.125s-4.75,1.875-5.5,2.5s-4,4.375-4,4.375l-1.375,3.75l2.25,0.375l-0.25,0.625h6.25
		l-0.5,1.375l5.75,0.125l14.5-8c0,0,4-3.625,4.625-4.625s11.75-17.5,11.75-17.5l2.875-2.75l28.125-14l9-2l7.5,13.75l3.75,4.25
		l2.125,4l-5.375,17.375c0,0-10.25-0.125-11.25,0.5s-4.5,2.875-5.125,3.5s-2,2.625-2,2.625s4.25,1.625,4.75,1.75
		s1.25,0.25,1.25,0.25l7.5,0.25l-0.25,0.875c0,0,9.5-0.625,10.875-0.75s4.375-1.75,4.375-1.75l9.375-10.125
		c0,0,9.625-14.25,9.625-14.625s2.125-6.875,1.875-7.75s-4.25-16.375-5.125-17.25s7.375-16.625,7.375-16.625l4.125,10.125
		c0,0,7.125,1.5,7.5,1.5s8.75-2.375,8.75-2.375l11.75-8.875l1.125-3.375c0,0,0.375-4.375-1.25-7.875s-7.5-15.75-7.5-15.75
		s12.375-13.625,15.375-17s7.25-8,8.75-10.75s2.375-4.25,2.25-5s-3.625-5.375-4.625-6.25s-4.5-4.25-6.375-5.25
		s-8.375-4.75-8.375-4.75l11,16.25c0,0-22.875,18.125-24.125,19.375s-5.75,7.125-5.75,7.125s-0.75,6.25-0.25,8.75
		s3.25,15.5,3.25,15.5l-11.125,3c0,0,0.125-7.5-0.5-10.625s-0.875-6.125-0.875-6.125l0.125-4.625c0,0,0.5-5.875-1-10.625
		s-1.875-9.25-6.25-13.25s-9.875-8.125-12.25-8.5s-1.75-1.25-1.75-1.25l3.625-2c0,0,4-1,4.875-1s0.875,0,0.875,0
		s-3.875-4.75-4.625-7s-0.625-7,0.125-9.125s2.375-4.875,3.75-5.75s5.125-2.25,5.125-2.25s-10.375-3.25-12.75-3.625
		s-13.125-1-14.5-0.625s-11.375,2.5-12.625,3s-8.25,3.375-8.25,3.375s1,8.75,0.875,9.875s-1.75,6.5-2.375,8.625
		s-3.875,7.625-4.625,8.875s-3.875,4.625-3.875,4.625s-3.125,0.75-5,1.75s-10.125,6.375-11,7.375s-1.5-4.25-0.375-8.375
		s5.25-11.625,6.75-13.5s8.625-7.375,8.625-7.375s0.125-3-1.375-5.375s-5.375-6.75-5.375-6.75s-2.25,1.375-3.75,2
		s-4.5,1.375-5.875,1.875s-5.792,0.625-5.792,0.625l-2.25-0.167l-0.083,11.417c0,0,3.125,1.75,4.75,3.375s6.125,6.5,6.125,6.5
		s-7,2.25-7.375,2.25s-10-0.875-11-1.125s-3.625-0.625-3.625-0.625l0.125,3.5c0,0,3.625,1.25,4.875,2.375s3.875,3.75,5,5
		s2.25,4.125,3,5.625s1.25,3.875,1.25,3.875s-6.5,6-7.875,7.125s-6,5.25-7,6.5s-5.75,6.75-6.875,8.5s-6.5,8.75-6.5,8.75
		s-1.75-6.25-2.75-8.125s-2.5-5.125-2.5-5.125s0.5-1.625,1.5-2.875s14.625-26.125,14.625-26.125l0.875-2.5l4.25-3.5l13,0.5
		l6.125-2.375l1.5-5.125c0,0-1.625-4-2.375-4.125s-13.875-10.75-14.25-10.75s-8.75-1.625-8.75-1.625l-6.25-1l3.25-4.75
		c0,0,1.25-3.125,0.5-3.25s-18.625-0.875-18.625-0.875l-12.375,7c0,0-3.25,5.25-3.125,5.625s-6.5,6.25-6.5,6.25l-0.625-0.5
		c0,0-2.75,3.375-4.375,4.5s-6.5,3.25-9.625,3.5s-6,0-7-0.375s-5.5-2-6.375-2.625s-3.375-1.75-4.625-3.125
		S132.351,42.38,132.351,42.38z"/>
	<path fill="#13923B" d="M176.31,53.63c0,0,0.053-0.032,0.151-0.089c0.984-0.586,6.501-3.848,7.412-3.848
		c1,0,2.25-0.063,2.688,0.375s1,1.938,0.813,3.5s-1.188,4.5-2.25,6.375s-4.813,5.875-4.813,5.875s2.875-4.875,3.813-7.313
		s1.25-4.875,1.125-5.625s-0.938-1.625-2.938-1.125"/>
	<path fill="#13923B" d="M172.81,77.318c0,0,8.5,3.063,11.625,3.313s6.563,1.188,12.313-3.563s18.688-17.438,18.688-17.438l-1.875,5
		l-4.75,9.25l-5.625,8.75l-5.438,8.375l-1.5,3.125c0,0-2.375-2.688-3.438-3.25s-5.25-1.063-6.688-0.625s-4.188,2.25-4.188,2.25
		l-0.688-3.25l-4.063-7.063L172.81,77.318z"/>
	<path fill="#13923B" d="M317.185,94.463c0,0-0.25,4.667-0.5,7.917s-1.334,6.332-1.917,7.166s-1.417,1.416-2.5,1.5
		s-3-1.832-3.833-3.166s-2.917-8.417-2.917-8.417s-5.416,10.417-6.916,14.5s-4.25,14-4.667,17.75s1.332,9.834,2.916,11.834
		s7.167,6.166,8.917,7.666s2.666,2.083,2.833,3.5s0.001,3.501-1.916,6.167s-13.25,17.25-13.25,17.25l-5,5.833l2.666-0.5
		l32.667-33.25c0,0-6.749-6.501-7.833-7.917s-2.083-3.167-2.083-4.5s0.75-7.333,1.083-8.333s2.083-8.166,2.333-9.583
		s1.251-9.168,1.334-11.084S317.185,94.463,317.185,94.463z"/>
	<path fill="#13923B" d="M279.268,156.046l-24.916,25.417c0,0-9.667,0.583-10.584,0.833s-4,0.25-4,0.25l-2.667-0.083l1-1
		c0,0-2.833,0.166-3.083,0.083s-2.667-1.5-2.667-1.5s2.417-2.166,3.167-2.666s3.001-1.668,3.417-1.834s3.166-0.166,3.166-0.166
		l3.834,0.583l4.333-15.5c0,0,12.334-1.5,12.917-1.583s11.25-1.834,11.25-1.834L279.268,156.046z"/>
	<path fill="#13923B" d="M235.352,140.88c0,0-2.333,6.751-4.5,10.917s-6.917,13.415-13.917,19.749s-10.999,8.75-12.833,9.917
		s-5.834,3-5.834,3h5.5l5.5-0.416l5-1.25l2-1.167l2.917-3.167l3.667-4.666l5.583-9.5l6-9.917l1.416-4.5v-6.834L235.352,140.88z"/>
	<path fill="#13923B" d="M206.351,157.63l-8.416,14.75c0,0-3.417,1.916-4.167,2.666s-2.833,3.5-2.833,3.5l-1.334,1.75l-10.75-0.083
		l0.834-0.583l-4.834-0.167l0.5-0.417l-1.75-0.416v-1l1.583-2.084c0,0,4.5-3.916,5.333-4.083s7.083-0.417,7.083-0.417
		s2.25-5.25,2.417-6.5s0.333-8.082,0.333-8.916s-0.416-3-0.416-3s4.75,1.75,5.75,2.083s4.416,1.251,5.583,1.417s5.5,1.25,5.5,1.25"
		/>
	<path fill="#077606" d="M265.268,36.214c0,0,12.333,15.75,15.583,20s10.917,14.833,10.917,14.833s-4.916-10.417-8.333-15.5
		s-11.334-14-12.667-15.167S265.268,36.214,265.268,36.214z"/>
	<path fill="#077606" d="M266.601,32.38c0,0,8.584,2.5,12.417,4.25s7.999,3.417,11.583,6s10.167,8.167,10.167,8.167
		s-5.833-9.833-13.833-13.25s-14.918-4.5-16.084-4.75S266.601,32.38,266.601,32.38z"/>
	<path fill="#0C6729" d="M253.31,74.005c0,0-3.125,1.875-5.125,4s-4.749,6.626-5.416,8.459s-1.001,5.332-0.417,6.416
		s2.333,2.667,4,2.5s5.25-0.5,8-3.25s4.833-5.916,5.25-8.333s0.583-5.751,0.5-7.334s-0.249-3.167-1.416-3.167
		s-5.417,0.417-5.417,0.417"/>
	<path fill="#0C6729" d="M266.603,72.88c0,0-1.418,1.417-1.834,2.5s-0.167,2.334,0.75,3.167s1.084,1.167,3.584,1.25
		s2.166,0.417,4.166,0.75s2.501,0.916,3.834,0.416s2.5-0.584,2.583-2.25s-0.25-3.416-1-4.249c-0.75-0.834-2.833-2.251-4.333-2.417
		s-5.751-0.333-7.334,0.583"/>
	<path fill="#0C6729" d="M265.685,82.505c0,0-1.5,1.188-2,2.688s-0.75,4.875-0.75,5.938s0.188,2.063,1.375,2.438
		s2.25,0.875,4.25-0.063s3.313-1.813,3.938-2.625s1.25-3.25-0.25-4.5s-4.188-3.938-6.25-3.813"/>
	<path fill="#0C6729" d="M284.497,107.818c0,0-1.188,1.125-1.438,2s0,2.563,1,3.063s1.938,0.313,2.938-0.313s1.625-1.188,2.563-1.75
		s2.125-1.25,2.125-1.875s-0.563-2.25-1.688-2.563S285.935,106.818,284.497,107.818z"/>
	<path fill="#0C6729" d="M287.435,114.568c0,0,1.438-0.688,2.688-0.813s2.75,0.125,3,0.438s0.188,1.375-0.125,2.5
		s-1.125,3.188-2,3.063s-2.5-1.563-2.75-2.063S286.622,115.818,287.435,114.568z"/>
	<path fill="#0C6729" d="M278.997,114.755c0,0-1.25,1.875-1.313,4.438s0.5,5.125,1.125,6.563s1.688,2.563,2.438,2.938
		s1.313,0.563,2.25,0.125s2-1.938,2.188-3.375s-0.063-5.5-1-7.25s-2.25-3-2.875-3.313S280.622,114.005,278.997,114.755z"/>
	<path fill="#0C6729" d="M218.747,136.88c-0.191,0.048-1.438,1.125-1.688,1.875s0,1.813,0.188,2.25s0.688,0.5,1.375,0.5
		s1-0.875,2.063-1.375s1.938-0.75,2-1.25s0.125-1.875-1.063-2.063S219.747,136.63,218.747,136.88z"/>
	<path fill="#0C6729" d="M223.726,142.047c0,0-2.082,0.126-2.791,0.459s-1.126,0.707-1.084,1.166s1.292,1.709,1.542,1.959
		s0.791,0.582,1.083,0.541s1.375-1.707,1.5-2.166S224.476,142.38,223.726,142.047z"/>
	<path fill="#0C6729" d="M214.393,143.297c0,0-0.958,1.459-0.958,2.542s0.5,2.624,0.75,3.583s0.874,2.083,1.541,2.625
		s1.043,0.875,1.709,0.625s1.583-1.5,1.708-2.75s-0.001-3.791-0.917-4.833s-1.417-2.708-3.75-2"/>
	<path fill="#077606" d="M231.686,37.38c0,0,7.417,0.667,11.417,1.833s5.916,2.25,5.916,2.25s-9.666-2.167-11.333-2.25
		s-4.25,0-4.25,0L231.686,37.38z"/>
	<path fill="#077606" d="M228.853,47.63l2.666-0.917c0,0,8.584-2.417,11.084-2.5s2.5-0.083,2.5-0.083s-13.75,4.25-14.417,4.583"/>
	<path fill="#E2E20E" d="M159.768,120.547c0,0,0.833-1.5,3.25-2.75s5.167-2.334,7.667-2.25s5.25-0.584,8.25,3
		s5.083,7.084,7.583,11.834s4.333,8.166,7.917,11.583s4.251,4.084,7.334,4.917s10.25,0.833,10.25,0.833s0,3.751,0.083,4.667
		s0.25,4.083,0.25,4.083l-0.417,2.083l-1.833-0.333c0,0-10.251-2.166-11.501-2.583s-11.249-4.084-13.916-5.334
		s-9.75-6.166-10.583-6.583s-4-3.25-5-4.333s-6.417-8.167-6.417-8.167l-2.5-4.417l-0.667-2.083v-2.75L159.768,120.547z"/>
	<path fill="#E2E20E" d="M235.768,141.131c0.25-0.083,9.334-4.834,14.167-8.167s14.832-9.833,16.916-11.083s7.25-3.917,7.25-3.917
		s-0.416,3.833-0.416,4.5s0.832,4.834,0.916,5.084s2.668,9.25,3.834,12.333s6.5,14.5,6.5,14.5s-7,1.75-8,2s-6.668,1.583-8.334,1.833
		s-12.417,1.418-13.75,1.584s-10.082,0.417-11.249,0.5s-12.667,0.5-12.667,0.5s0.917-2,1.417-2.75s2.583-5.166,2.916-6
		s0.75-2.834,0.75-2.834l-0.167-6.583v-1.833"/>
	<path fill="#E2E20E" d="M317.06,121.755c0,0,1.75,2.875,4.375,3.5s6.625,1.125,9.375,0.125s5.75-2.5,8-4.5s5.5-6.25,6.375-7.625
		s2.25-5,2.25-5s1.5,3,1.375,4s-0.625,3.375-0.625,3.375s-2.25,2.625-3.25,4.125s-8.5,8.625-9.375,9s-4,3.25-5.375,4.125
		s-8.25,5.625-8.875,6s-4.875,3.5-4.875,3.5s-1.584-1.332-2.167-3.499s-0.333-3.417-0.25-4.5s2.083-9.083,2.083-9.083
		L317.06,121.755z"/>
	<path fill="#5C3396" d="M216.935,1.505c0,0-1.499,6.959-1.749,8.042s-0.583,1.416-1,2.333s-2,2.917-2,2.917l-2.167,1.833
		l-1.833,0.333c0,0-2.917-1.083-3.417-1.417s-2.416-1.5-2.416-1.5l-1.834-0.333c0,0-2.583,0.333-3.5,1s-2.333,1.167-2.833,1.833
		s-4.084,4.917-4.084,4.917l8.834,0.833c0,0-0.416,2.834-0.5,3.167s5.582,0.583,5.916,0.417s5.834-1.917,6.167-2.083
		s3.583-2.917,3.583-2.917l5.167-5.417l0.583-1.833l0.25-3.25l0.334-1.167c0,0-2.167-6.334-2.417-6.667s-1-1.5-1-1.5"/>
	<path fill="#5C3396" d="M203.018,36.547c0,0,2.251,0.167,2.834,0.25s4.666,1.167,4.916,1.25s3.667-1.417,3.667-1.417l8.5-6.5
		c0,0,3.916,0,4.166,0.083s7.917,1.417,7.917,1.417l6.333-2.833l3.167-3l1.75-3.417l0.5-3.25c0,0-0.666-7.417-1.083-9
		s-0.334-2.083-0.334-2.083s-1.832,5-2.416,6.583s-2.417,4.833-2.417,4.833l-4.75,4.417l-0.916,0.583l-2.917-0.083l-2.5-1.75
		l-2.417-1.917c0,0-1.917-1.25-2.167-1.25s-2.75-0.25-2.75-0.25s-4.333,1.5-4.583,1.75s-5.083,3.417-5.083,3.417l-3.083,3.667
		l-3.584,4.583L203.018,36.547z"/>
	<path fill="#42256A" d="M210.435,37.88c0,0,3.375-4.875,4.25-6.125s3.875-3.25,4.875-3.625s4-0.125,5.5,0.375s3.875,2.5,5.625,2.5
		s3.875,0.125,5.625-0.875s3.125-1.375,5-3.25s4.875-5.75,4.875-5.75l0.375-1.125c0,0,0.125,3.625-0.125,4.875s-1,3.375-1.625,4.125
		s-1.875,1.75-2.75,2.5s-3.5,1.5-4.125,1.75s-4,1-4.375,1.125s-3.75,0.5-4.125,0.5s-2.875-0.375-2.875-0.375l-5.5,8.25
		C221.06,42.755,211.56,38.005,210.435,37.88z"/>
	<path fill="#42256A" d="M219.935,8.13c-0.125,0.375-0.5,4.75-1.375,7.125s-3.375,3.75-4.375,5s-2.75,2.125-2.75,2.125l3.75,0.25
		l2.125-1.5l1.875-1.125c0,0,0.625-1.5,0.625-1.875s0.875-5.5,0.875-5.5l-0.75-5.125"/>
	<path fill="#42256A" d="M201.06,22.005c0,0,2.5,1.5,3.625,1.375s0.625,0.375,0.625,0.375s-4.625,0.75-5.375,1.375
		s-0.5,0.125-0.5,0.125l1.25-3.875"/>
	<path fill="#830000" d="M223.851,44.214c0,0,6.584,2,7.167,2.167s7,2.5,7,2.5s-1.501-5.083-2.917-7.167s-6.333-7.083-6.333-7.083
		l-2.25-0.167l-5.583,7.917l2.416,1.5"/>
	<path fill="#830000" d="M195.102,27.88c0,0,4.917-0.25,6.25-0.25s7.416,0.667,7.416,0.667s1.834-1.75,2.584-2.417
		s4.166-3.5,4.166-3.5s-12.166,1.25-13.583,1.833s-7.5,3.917-7.5,3.917"/>
	<path fill="#830000" d="M179.935,31.63c0,0,4.25-5.917,6.25-7.417s4.416-2.5,4.416-2.5l12.167-4.417l-3.083,8.083
		c0,0-4.916,2.333-5.25,2.417s-3.584,1.333-3.584,1.333s-4.416-0.5-5.333-0.167S179.935,31.63,179.935,31.63z"/>
	<path fill="#830000" d="M330.601,23.715c0,0-0.249,4-0.166,4.833s0.334,5.167,0.5,5.75s1.082,2.25,1.416,2.917
		s2.751,4.333,4.584,5.25s6.083,2.583,6.083,2.583l4.667,0.75l1.666,0.25l-3.583-5.75c0,0,6.333,3.417,6.75,3.75
		s0.917,0.417,0.917,0.417s0.249-1.083,0.416-2s0.833-4.083,0.75-4.583s0-3.25-1.75-5s-4.25-3-4.25-3s-2.082-0.083-2.666,0.333
		s-2.584,1.5-3.167,1.917s-2,1-2.75,1s-2.167-0.5-2.75-0.75s-3.333-2.833-3.75-3.583S330.601,23.715,330.601,23.715z"/>
	<ellipse fill="#FFFFFF" cx="187.903" cy="39.568" rx="11.219" ry="10.563"/>
	<ellipse fill="#FFFFFF" cx="171.185" cy="36.63" rx="9.25" ry="8.083"/>
	<ellipse fill="#0092FF" cx="165.56" cy="36.922" rx="3.25" ry="3.042"/>
	<ellipse fill="#0092FF" cx="180.956" cy="39.651" rx="4.021" ry="3.521"/>
	<ellipse fill="#00426B" cx="180.633" cy="39.672" rx="1.406" ry="1.271"/>
	<ellipse fill="#00426B" cx="165.289" cy="36.797" rx="1.271" ry="1.167"/>
	<ellipse fill="#FFFFFF" cx="166.872" cy="35.38" rx="0.813" ry="0.75"/>
	<ellipse fill="#FFFFFF" cx="163.778" cy="38.224" rx="0.656" ry="0.531"/>
	<circle fill="#FFFFFF" cx="182.435" cy="37.693" r="0.875"/>
	<circle fill="#FFFFFF" cx="179.216" cy="41.287" r="0.656"/>
	<path fill="none" stroke="#000000" stroke-width="0.75" d="M168.602,44.63c0,0-1.917,2.417-3.667,3.917s-5.917,3.5-11.167,3.917
		s-10-2.083-13.25-3.833s-7.917-6.75-7.917-6.75s-10.667,10.333-13.5,15s-3.583,14.583-3.583,14.583s6.917-2.75,12-4.167
		s18.833-5.583,23.5-5.583s11.167,0,16.25,0.25s7.083,0.333,9.5-0.5c2.417-0.833,2.501-1.333,2.501-1.333"/>
	<path d="M178.872,60.13c0,0,2-2.594,2.563-4.188s0.563-1.594,0.563-1.594s-1.25,5.156-2.531,6.094"/>
	<path fill="none" stroke="#000000" stroke-width="0.75" d="M126.497,67.818c0,0,1.125,4.313,2.688,6.75s5.75,5.75,7.125,6.688
		s2.688,1.813,2.688,1.813s2.5-2.375,6.313-4.125s11.188-4.313,15.125-4.188s9.563,0.375,13,3.25s7.75,10.563,8.063,12.188
		s0.375,2.375,0.375,2.375s-8,7.75-11.875,12.438s-9,11.938-9.688,13.438s-1.75,5.688,0.313,9.25s7.25,12.688,15.75,17.688
		s12.063,6.938,17.563,8.75s16.063,4.063,17.25,4.125s1.188,0.063,1.188,0.063"/>
	<path fill="none" stroke="#000000" stroke-width="0.75" d="M213.872,136.568c-0.063,0.188-1.813,4-1.688,9.125
		s0.313,11.25-0.375,14.563s-3,10.938-3,10.938s-8.25,0.313-10.375,0.938s-5.188,2.938-7,5.438s-2.875,4.625-2.875,4.625l2.75,0.313
		l-0.563,0.938l6-0.063l-0.188,0.938c0,0,8.438,0.313,13.063-0.313s6.75-1.5,10.25-6.188s12.938-20.063,14.188-22.938
		s1.75-4.938,1.75-4.938s0.125-4.813,0-6.75s-0.25-2.688-0.25-2.688"/>
	<path fill="none" stroke="#000000" stroke-width="0.75" d="M231.122,160.568c0,0,21.188-0.188,26.313-0.938
		s9.938-1.188,13.688-1.875s13.188-3.375,13.188-3.375"/>
	<path fill="none" stroke="#000000" stroke-width="0.75" d="M282.685,100.505c0,0-3.625,4.375-5.875,8.875
		s-3.313,9.125-3.063,13.438s2.688,12.25,4.625,16.938s8,17.875,8,17.875s-5.375,17.375-5.438,17.563s-9.063-0.125-11.563,0.813
		s-6.813,5.813-6.813,5.813s1.688,0.75,3.063,1.063s3.25,0.188,3.25,0.188l-0.188,0.875l7.75-0.188l-0.625,0.75
		c0,0,8.563-0.125,11.563-0.5s3.813-0.5,3.813-0.5l32.625-33.25c0,0-9.563-8.438-9.875-12.188s1.063-8.813,1.875-11.625
		s1.188-4.938,1.75-8.25s1.125-8,1.125-11.688s-0.938-10.875-2.938-17.875s-3.063-10-3.063-10"/>
	<path fill="none" stroke="#000000" stroke-width="0.75" d="M317.372,95.693c0,0,0.375-9.688-0.188-13.25s-1.75-10.125-4.375-13.938
		s-9.25-9.375-11.375-10.563s-4.875-1.75-4.875-1.75"/>
	<path fill="none" stroke="#000000" stroke-width="0.75" d="M243.685,69.63c0,0,6.625-4.625,10.75-9.75s8.75-15.5,8.375-21.375
		s-0.75-8-0.75-8s12.625-6,19.75-6.375s14.75,0,19.125,1s8.75,3.125,8.75,3.125s-7.375,2.875-8.125,6.125s-2,8.75,0,12.375
		s4,5.375,4,5.375s-8.25,1-10.5,4.875s-2.75,10.375-1.375,13.25s1.875,3.625,1.875,3.625s-12.875-3.875-20.5-3.625
		s-14.625-0.25-21.5,2.625s-8.625,3.625-8.625,3.625"/>
	<path fill="none" stroke="#000000" stroke-width="0.75" d="M252.685,62.005c0,0-4.375,0.875-10.375,5.125
		s-23.375,17.75-29.5,25.375s-11.25,15-11.25,15l-5.25-13.5c0,0-0.125-1.125,1.25-2.75s9.625-14.625,10.875-16.75
		s6.375-12,6.75-13.875s0.375-4.5,0.375-4.5"/>
	<path fill="none" stroke="#000000" stroke-width="0.75" d="M204.31,47.88c0,0,7.125,7.5,14,9.125s11.125,1.125,13.5,0.625
		s5.625-1.625,5.625-1.625s-4.875-6.125-10.125-9.625s-17.125-8.875-20.375-9.375s-3.25-0.5-3.25-0.5"/>
	<path d="M203.789,36.172c0,0-1.021,0.104-1.458,0.375s-1.042,1.313-1.042,1.313s1.605-1.021,2.396-1"/>
	<path fill="none" stroke="#000000" stroke-width="0.75" d="M203.019,36.63c0,0,6.751-9.792,10.042-12.417s7.584-5.167,10-5
		s4.458,1.583,6,2.833s1.792,2.125,3.417,2.167s2.29,0.833,4.499-1.125s3.709-3.542,4.917-5.875s3.5-9.042,3.5-9.042
		s1.626,7.5,1.209,12.792s-1.584,8.583-4.292,10.25s-8.833,3.25-11.208,3.333s-4.709,0.042-4.709,0.042s-5.457,7.958-5.541,8.083"/>
	<path fill="none" stroke="#000000" stroke-width="0.75" d="M228.644,34.714c0,0,4.833,3.875,6.875,7.75s2.542,6.25,2.542,6.25
		s-14.376-4.792-15.542-5.042"/>
	<path fill="none" stroke="#000000" stroke-width="0.75" d="M244.186,29.797c0,0,4.916,6.083,5.833,8.5s1,3.917,1,3.917
		s-5.832,3.833-7.916,6.583s-4.918,6.417-6.084,10.083s-2,5.333-2,8.333s0.334,5,0.334,5"/>
	<path fill="none" stroke="#000000" stroke-width="0.75" d="M215.602,59.964c0,0,2.083,0.25,5.5,3.083s4.75,4.416,6,7.083
		s2.667,6.75,2.667,6.75"/>
	<path d="M243.518,69.339l-6.583,4.438c0,0,6.563-3.542,7.063-3.938"/>
	<path d="M244.851,76.152c0,0-5.521,3.041-6.708,4.083s-1.188,1.042-1.188,1.042s7.271-4.021,8.104-4.438"/>
	<path d="M204.122,48.255c0,0-2.313-2.375-2.938-3.156s-0.625-0.781-0.625-0.781s3.625,2.969,4.125,3.438"/>
	<path d="M235.205,140.63c0,0-0.104-0.896-0.604-1.729s-0.5-0.833-0.5-0.833s1.541,1.416,1.791,2.458"/>
	<path d="M282.288,100.423c0,0,4.896-5.479,6.125-6.188s1.229-0.709,1.229-0.709s-6.396,6.916-6.896,7.5"/>
	<path d="M312.403,78.912c0,0-0.781-2.094-1.625-3.844s-0.844-1.75-0.844-1.75s2.656,3.719,3.094,5.281"/>
	<path fill="none" stroke="#000000" stroke-width="0.75" d="M318.852,110.381l10.917-2.417c0,0-3.167-14.333-3.25-18.083
		s0.333-6.5,0.333-6.5s2.75-4.583,9.417-10.167s20.667-16.25,20.667-16.25l-11.583-17.167c0,0,12.917,7,16.583,11.833
		s4,4.333,2.25,8s-4.501,6.75-11.584,14.75s-14,15.25-14,15.25s4.667,8.249,7.167,13.833s3.083,8.501,2.75,10.584
		s0.001,2.249-5.416,7.749s-9.085,8.168-13.501,11.584s-13.416,8.75-13.416,8.75"/>
	<path fill="none" stroke="#000000" stroke-width="0.75" d="M349.186,45.88c0,0-5.5-0.25-8.917-1.667s-5.833-3.583-8.25-7.417
		s-1.416-13.417-1.416-13.417s2.582,5.417,4.249,7.083s4.334,3.583,7.084,2.167s4.332-3.5,6.666-2.667s3,1.083,4.5,3.417
		s1.5,3.083,1.417,5.25s-1.25,5.583-1.25,5.583"/>
	<path fill="none" stroke="#000000" stroke-width="0.75" d="M179.747,31.568c0,0,4.875-6.75,8.875-8.938s14.063-5.313,14.063-5.313
		s-3.125,8.063-3.313,8.125"/>
	<path fill="none" stroke="#000000" d="M215.622,22.38c0,0-6.125,0.313-11.25,1.375s-10.688,4.438-10.688,4.438"/>
	<path fill="none" stroke="#000000" stroke-width="0.75" d="M189.81,22.068c0,0,3.625-4.938,4.938-5.938s5.438-3.375,7.688-2
		s4.563,2.938,6.063,2.813s4.625-2.375,5.875-5.625s2.75-10.25,2.75-10.25s3.438,6.313,3.375,10.188s-0.563,8-1,8.625"/>
	<path d="M213.519,136.506c0,0,0.708-1.396,1.833-2.542s3.126-1.896,3.396-1.938s-3.979,3.604-4.563,4.75"/>
	<path fill="none" stroke="#000000" stroke-width="0.75" d="M206.56,157.443c-0.125,0.188-8.063,14.25-8.5,14.625
		s-0.438,0.375-0.438,0.375"/>
	<path fill="none" stroke="#000000" stroke-width="0.75" d="M190.185,152.818c0,0,0.438,6.188,0.063,9.438s-1.25,5.875-1.875,7.125
		s-0.938,1.813-0.938,1.813s-5.688,0-6.688,0.25s-2.875,1.438-4.25,2.688s-3,3.938-3,3.938s0.25,0.625,0.688,0.75
		s1.063,0.125,1.063,0.125l-0.438,0.563l4.625,0.063l-0.5,0.625h10.938"/>
	<path d="M196.591,183.287c0,0,3.875-4.938,5.781-6.094s1.906-1.156,1.906-1.156s-7.406,7.969-7.531,8.188"/>
	<path d="M191.153,182.287c0,0,1.375-2.313,3.938-4.438s2.719-2.156,2.719-2.156s-6.531,7.406-6.656,7.594"/>
	<path d="M179.278,179.474c0,0,2.875-3.156,4.281-3.969s1.406-0.813,1.406-0.813l-5.5,5.594"/>
	<path d="M174.997,179.068c0,0,2.563-3.219,3.875-3.969s1.438-0.844,1.438-0.844l-4.844,5.156"/>
	<path fill="none" stroke="#000000" stroke-width="0.75" d="M250.268,160.381l-4.416,15.666c0,0-5.25-1.416-8.25,0.167
		s-5.334,3.75-5.334,3.75s1.916,1.417,3.25,1.417s2.167,0.083,2.167,0.083l-0.5,0.75l5.417,0.083c0,0,10.916-0.499,11.333-0.666
		s25.75-25.833,25.75-25.833"/>
	<path d="M268.872,183.068c0,0,1.25-2.75,2.625-3.875s3.938-1.875,3.938-1.875s-3.75,2.438-4.563,3.375s-1.688,3.188-1.688,3.188"/>
	<path d="M276.06,183.943c0,0,1-2.188,2.125-3.188s4.063-2.563,4.063-2.563s-3.188,2.313-4,3.375s-1.813,2.75-1.813,2.75"/>
	<path d="M242.602,182.297c0,0,0.271-1.604,1.771-2.729s2.75-1.438,2.75-1.438s-2.313,1.813-2.875,2.563s-0.688,1.938-0.688,1.938"
		/>
	<path d="M237.685,181.464c0,0,0.875-1.584,2.125-2.709s2.188-1.25,2.188-1.25l-4.313,4.625"/>
	<ellipse fill="none" stroke="#000000" stroke-width="0.75" cx="187.872" cy="39.443" rx="11.219" ry="10.438"/>
	<path fill="none" stroke="#000000" stroke-width="0.75" d="M177.239,42.088c-0.179-0.438-0.272-0.908-0.312-1.392
		c-0.176-0.623-0.223-1.281-0.159-1.922c-0.028-0.393-0.005-0.788,0.124-1.124c0.051-0.464,0.178-0.918,0.397-1.34
		c0.09-0.296,0.219-0.592,0.375-0.876c0.229-0.581,0.545-1.115,0.924-1.597c0.179-0.376,0.391-0.728,0.656-1.048
		c-1.577-2.474-4.616-4.158-8.123-4.158c-5.126,0-9.281,3.582-9.281,8s4.155,8,9.281,8c2.401,0,4.579-0.795,6.227-2.085
		c-0.016-0.077-0.03-0.154-0.045-0.231C177.282,42.238,177.257,42.165,177.239,42.088z"/>
	<polyline points="179.497,31.287 178.997,32.193 179.122,32.505 179.935,31.787 180.247,30.912 	"/>
	<path fill="none" stroke="#000000" d="M190.685,29.297c0,0,2.332-1.584,9.166-1.667s9.584,0.583,9.584,0.583"/>
</g>
<g id="frame_2">
	<path fill="#19CF53" d="M235.56,87.63c-0.5,0.75-18.25,28.625-18.5,29.75s5.5,17.875,5.5,17.875l11.125,10.875
		c0,0,10.375,3.25,11,3.375s6.375-1.375,7.625-1.625s8.375,1.5,8.375,1.5s11,0,11.375,0.375s10.875,9.625,10.625,10.125
		s2.625,8.5,2.625,8.5l2.375-0.25l2.25,0.75l4.5,0.125l3.25-1l1.5-2.25l-1.125-3c0,0-3.5-6.875-3.875-8.5s-1.75-6.625-1.75-6.625
		l-1-5l-2.875-6c0,0-0.25-2-2-2.125s-7.625-2.125-8.625-2s-16.5-6.5-17.25-6.875s-0.75-8.125-0.5-8.75s10.125,0.875,10,1.25
		s3.25,1.5,4.375,2s4.625,1.75,4.625,1.75l2.75-0.25c0,0,1.75-1.125,2.125-1.25s4.5-4.625,4.875-4.875s2.25-3.375,2.25-3.375
		l-0.75-3c0,0-3.75-1.875-4.125-1.875s-2.5-2.75-2.5-2.75l-0.5-0.5l-10.875,3.625l-0.375-0.625c0,0-0.25-4.625-0.375-5.375
		s-1-5.5-1-5.5l-0.625-2.875l-1.25-1.125l0.125-2.25l-1.25-3.625l-17.125-2.75l-15.125,3.625"/>
	<path fill="#19CF53" d="M128.185,151.505l-1.25,1.125c0,0-1.125,0-1.5,0.125s-8.25,3-8.25,3s-1.75,1.625-2.375,2.375
		s-2.25,3.5-2.375,3.875s-0.75,3.375-0.75,3.375l-0.25,4.25l0.875,1.625l2.75,0.125l2.125-0.125c0,0,4.375-4.125,4.75-4.625
		s2.625-3.125,3-3.5s4-2.625,4.5-2.625s4.125,0.375,4.125,0.375l2.25-0.5l1.5-1l-2-5L128.185,151.505z"/>
	<path fill="#19CF53" d="M129.81,171.505l-0.125,4.5l0.125,1.875l2,1l3.25-0.75l4.125-2.5l3.75-3.625c0,0,2.25-2.625,2.75-2.75
		s4.375-1.625,5.25-1.75s4.75-1.75,5.125-1.875s-2-3.25-2.625-3.5s-4.375-1.875-5.5-1.875s-8.125,0.125-8.125,0.125l-0.375,0.625
		l-6.875,5.875l-1.375,1.875l-1.25,1.75"/>
	<path fill="#19CF53" d="M133.685,97.63c0,0.375,0,6,4.125,9.875s10.5,8.875,11.125,9.125s3.5,1,3.875,1.125s2.375,0,2.375,0
		l2.125-1.25c0,0,1.75-1.75,2.5-1s2.875,9.125,3,10.375s-4.5,4.25-6.5,5.125s-12.75-1-14.875-1.625s-6.125-2.875-7.375-2.75
		s-2.625-0.25-3.25,0.125s-2.5,0.125-2.875,0.25s-6.25,5.25-6.625,5.375s-4.625,1.625-4.625,1.625l-0.375-1l1.625-5.125l2.5-4.5
		l1-3.375l0.75-2.75l0.125-3.25l-1.375-4.625l-1.25-3.25l-1.875-3.75l-0.625-4.25"/>
	<path fill="#E2E20E" d="M272.56,118.63c0,0,3.875,3.125,7.25,3.125s5-0.125,6.375-0.75s2.25,0.25,2.25,0.25l-0.5,4.375v1.375l-3,3
		l-1.875,0.375l-3.375-0.75l-2.75-1.125l-1.625-1l-1.25-1.625l-0.75-2l-0.875-2.875L272.56,118.63z"/>
	<path fill="#E2E20E" d="M228.56,120.88l1.125-0.75c0,0-0.125,4.625-0.125,5.125s0.75,5.375,1.125,6s2.125,3.5,2.625,4.125
		s3.125,4,3.5,4.25s3.625,3.125,4,3.25s4.25,2.875,4.875,2.875s4.75,0.875,5.125,0.875s3.75,0.875,4.25,0.875s2.75,0,2.75,0
		l0.375,0.625l-2.25,1.25l-7.5,3c0,0-4.75,0-6.5,0.125s-6.125-0.125-7.625-0.625s-4.125-2.375-5.125-3.75s-2.875-5.125-3.125-5.625
		s-0.875-1.875-1-2.625s0-4.25,0.125-5s0.125-3.75,0.125-3.75l1.75-6.25"/>
	<path fill="#E2E20E" d="M244.435,150.13c-0.375,0.25-5.5,3.375-5.5,3.375l1.875,2l1.625,0.375l2-0.875l5.75-3.25
		c0,0,0.5-2.5-0.125-2.625"/>
	<path fill="#E2E20E" d="M180.06,167.63c0,0,7.125,0.25,7.5,0.25s5-0.375,5-0.375l2.875-1.5c0,0-2-2.875-2.375-3
		s-5.25,1.375-5.25,1.375"/>
	<path fill="#13923B" d="M268.935,92.005c0,0,0.375,5.375,0.5,6.875s0.5,4.375-0.25,5.875s-0.625,2.875-1.875,3.125
		s-4.125,0.125-5.25-1.75s-2.5-5.375-3-6.125s-1.375-3.25-1.375-3.25s-2.625,10.5-3.375,12.625s-2.75,9.5-3,11.5
		s-0.375,6.125,0.25,7.75s1.25,3.25,2.75,4.5s4.625,2.5,6.5,2.625s7.75,0.375,9.75,0.375s3.625,0.125,5.875-0.125
		s4.375-0.25,6.25-0.125s3.375,1,4.25,2.375s0.625,2,2.25,3.75s2.375,2.875,2.375,2.875l-0.75-5.75l-2-5.5l-1.25-2.375l-2.625-1
		h-2.75l-4.375-0.875c0,0-2.375-1.5-2.875-2.125s-2.5-5.25-2.625-6.5s-0.25-12.375-0.25-12.875s-0.125-4.625-0.125-4.625
		l-0.75-3.125l-0.75-4.125L268.935,92.005z"/>
	<path fill="#14A241" d="M252.435,151.13c0,0,3.125-0.125,3.625-0.125s3.5-0.5,3.875-0.5s3.125,0.125,3.125,0.125
		s2.625,1.75,3.375,2.5s3.625,3.75,4.25,4.5s2.25,3,2.375,3.5s1,4.375,1,5s1.125,3.375,1.125,3.375s3.125,2,3.875,2.25
		s3.75,1.125,4.125,0.875s2.125-0.625,2.125-0.625l2-0.75l0.5-0.875l0.375-1.875c0,0-2.125-2.125-2.5-2.125
		s-1.375-4.125-1.375-4.125s-0.5-2-0.625-2.75s-0.5-2-0.5-2s-2.5-3.625-2.75-4s-3.125-3.625-3.125-3.625s-4.375-1.5-4.875-1.5
		s-10,0.125-10.875,0.125s-3.5-0.875-3.5-0.875l-6.25,3.25"/>
	<path fill="#13923B" d="M134.56,178.505c0,0,3.625-3.625,4.875-5.375s2.75-3.625,3.625-4.25s2.5-2.125,2.875-2.25
		s3.875-0.75,3.875-0.75l2.375-0.125h15.125c0,0,5.875,0.75,6.375,0.875s2.375-0.125,2.375-0.125l1.125,0.625l-1.625,1.125
		c0,0-7.25,2.375-8.125,2.5s-7.625,0.125-8.125,0.125s-8.5-0.5-8.875-0.5s-3.75-0.5-3.75-0.5l-0.25,1.625c0,0-3.5,4.375-3.875,4.625
		s-6.25,2.5-6.25,2.5L134.56,178.505z"/>
	<path fill="#13923B" d="M116.31,171.88c0,0,4.125-4.625,4.625-5.25s3.5-5,4.75-5.625s3-1.375,3.5-1.375s7.125,0.25,7.125,0.25
		l2.75,0.875l0.625,0.75l-2.375,1.375h-8.375l-0.875,2.25c0,0-3.375,3.375-3.75,3.75s-4.5,2.5-4.5,2.5L116.31,171.88z"/>
	<path fill="#19CF53" d="M158.547,25.23c0,0,3.859,7.677,4.187,8.31c0.328,0.632,0.524,2.959,0.524,2.959l-0.358,1.217l-0.717,1.01
		l-4.527,2.137c0,0,4.624,7.755,5.421,9.505c0.799,1.751,1.386,4.534,1.392,5.289s-0.221,3.047-0.804,3.789
		c-0.582,0.742-6.473,4.807-6.473,4.807s8.408,3.605,10.893,4.736c2.484,1.128,3.863,2.137,4.86,3.443s2.741,3.95,3.84,5.414
		c1.099,1.463,3.559,7.965,3.559,7.965l4.659-5.93l-0.335-3.486c0,0,0.061-5.798,0.104-6.811c0.048-1.014,1.593-8.416,2.852-10.499
		c1.262-2.081,3.783-6.245,4.554-7.513c0.771-1.268,5.123-5.566,5.123-5.566s-3.73-6.603-4.833-7.393
		c-1.102-0.792-8.821-5.656-8.821-5.656s-9.364-4.583-11.881-5.288c-2.52-0.705-12.795-2.408-12.795-2.408"/>
	<path fill="#19CF53" d="M176.821,87.244c0,0,9.695-10.816,10.765-11.701c1.067-0.884,7.42-6.011,7.42-6.011l5.565-3.271l1.51-0.014
		c0,0-9.477,14.734-9.768,15.107c-0.292,0.369-11.182,8.225-12.509,9.055c-1.328,0.83-2.82-2.514-2.82-2.514"/>
	<path fill="#19CF53" d="M242.05,55.908c0,0,8.506,2.336,9.701,3.201c1.194,0.861,6.076,4.472,6.076,4.472s1.286,1.608,1.315,1.856
		c0.03,0.248-13.247-3.361-13.679-3.477c-0.434-0.115-7.169-3.084-7.169-3.084"/>
	<path fill="#19CF53" d="M312.017,49.378c-0.214-0.729-4.24-4.905-5.339-5.654c-1.097-0.75-4.974-3.683-6.954-4.452
		c-1.98-0.769-8.882-3.717-8.882-3.717l12.859,14.822c0,0-20.551,20.724-21.642,22.114c-1.093,1.391-4.86,7.759-4.86,7.759
		s0.001,6.295,0.795,8.719c0.795,2.422,5.075,15,5.075,15l-10.688,4.307c0,0-0.074-0.718-0.206-1.797
		c-0.153,0.17-0.319,0.326-0.502,0.466c0.099,1.515,0.2,3.028,0.372,4.533c2.4,1.157,4.024,3.682,3.901,6.611
		c-0.037,0.891-0.274,1.646-0.641,2.282c0.126,0.013,0.252,0.025,0.378,0.039c1.335,0.144,2.443,0.437,3.426,1.42
		c0.725,0.724,1.184,1.666,1.345,2.669c0.572,0.04,0.979,0.063,1.059,0.054c0.372-0.043,8.402-3.4,8.402-3.4l10.607-10.213
		l0.717-3.486c0,0-0.15-4.389-2.181-7.67c-2.031-3.279-9.323-14.742-9.323-14.742s10.661-15.004,13.236-18.713
		c2.576-3.709,6.244-8.807,7.407-11.717C311.54,51.702,312.229,50.109,312.017,49.378z"/>
	<path fill="#19CF53" d="M255.438,139.887c-8.035-2.538-8.431-11.948-6.088-18.827c0.677-1.988,1.366-4.195,2.202-6.372
		c-3.177-3.831-2.994-11.634-2.209-15.701c0.229-1.188,0.647-2.469,1.28-3.582c-0.275,0.084-0.549,0.174-0.817,0.278
		c-0.048,0.019-0.07,0.027-0.11,0.043c-0.272,0.125-0.542,0.254-0.809,0.39c-0.356,0.186-0.709,0.379-1.057,0.58
		c-0.187,1.678-1.136,3.237-2.849,3.862c-0.916,1.546-2.771,2.426-4.594,2.377c-0.122,0.114-0.25,0.222-0.368,0.341
		c-0.477,0.483-0.951,0.972-1.384,1.495c-0.023,0.028-0.04,0.048-0.061,0.072c0.279,1.159,0.156,2.386-0.583,3.357
		c-1.054,1.387-1.952,2.967-2.495,4.624c-0.501,1.526-0.849,3.028-0.641,3.768c0.642,2.284-0.303,4.067-1.814,5.078
		c1.469,5.153,2.969,10.391,7.212,13.401c1.989,1.411,2.441,3.568,1.952,5.446c3.306,1.317,6.386,3.348,8.612,5.437
		c0.068,0.064,0.127,0.132,0.19,0.197c0.269-0.007,0.537-0.013,0.806-0.034c0.628-0.712,1.238-1.392,1.834-1.996
		c1.294-1.314,2.584-2.713,3.944-4.033C256.941,140.185,256.22,140.134,255.438,139.887z"/>
	<path fill="#19CF53" d="M268.218,87.326c0,0-0.205-5.891-2.26-10.428c-2.057-4.539-2.966-8.963-7.786-12.411l-13.177-6.979
		c-2.402-0.089-1.886-1.032-1.886-1.032l3.36-2.418c0,0,1.66-0.633,3.047-1.099c0.01-0.278,0.171-0.55,0.528-0.599
		c0.554-0.076,1.094-0.209,1.631-0.357c-1.092-1.084-4.213-4.262-5.043-6.022c-1.014-2.145-1.456-6.875-0.964-9.075
		c0.49-2.2,1.775-5.123,3.037-6.156c1.262-1.033,4.821-2.846,4.821-2.846s-10.69-1.99-13.093-2.079
		c-2.401-0.089-13.15,0.573-14.472,1.109c-1.321,0.537-10.995,3.838-12.177,4.484c-1.181,0.646-7.788,4.335-7.788,4.335
		s2.036,8.567,2.046,9.699c0.011,1.132-0.962,6.664-1.33,8.847c-0.366,2.185-2.938,8.033-3.533,9.363
		c-0.595,1.33-3.297,5.055-3.297,5.055s-3.012,1.117-4.755,2.334c-1.405,0.982-6.595,5.289-8.938,7.488
		c-0.07,0.227-0.2,0.455-0.417,0.674c-1.911,1.92-3.861,3.801-5.823,5.666c0.024,0.201-0.037,0.412-0.251,0.568
		c-3.018,2.248-5.378,5.182-8.068,7.785c-0.297,0.354-0.591,0.711-0.889,1.064c0.026,0.123,0.01,0.262-0.071,0.398
		c-0.415,0.686-0.91,1.328-1.435,1.951c-0.066,0.105-0.137,0.207-0.202,0.309c-0.403,0.672-0.82,1.338-1.253,1.99
		c-0.175,0.264-0.443,0.25-0.636,0.109c-0.142,0.164-0.273,0.334-0.41,0.504c0.147,0.156,0.213,0.396,0.063,0.639
		c-0.766,1.236-1.62,2.402-2.525,3.527c-0.041,0.061-0.08,0.121-0.12,0.18c-0.818,1.412-1.807,2.727-2.711,4.111
		c-0.047,0.07-0.109,0.107-0.175,0.139c-0.189,0.311-0.399,0.609-0.641,0.896c-0.407,0.902-0.862,1.738-1.457,2.512
		c-0.374,0.566-0.786,1.102-1.245,1.604c-0.438,1.003-0.88,2.008-1.257,3.034c0.23,0.497,0.411,1.007,0.519,1.521
		c0.587,0.832,1.189,1.653,1.804,2.473c2.248,2.994-2.521,5.866-4.928,3.329c-3.626,1.615-7.681-0.333-10.07-3.171
		c-0.843-1.001-1.765-2.259-2.591-3.634c-0.234-0.061-0.468-0.136-0.693-0.242c-1.723-0.809-3.361-2.255-4.707-3.575
		c-1.475-1.447-2.801-3.152-2.735-5.123c-1.136,1.524-3.654,4.894-5.062,6.687c-1.857,2.365-7.292,10.572-7.902,11.777
		c-0.61,1.207-4.065,7.033-4.347,7.824c-0.283,0.789-0.869,3.252-0.869,3.252l5.595-2.688c0,0,8.971-1.832,9.636-1.535
		c0.665,0.301,12.313,18.666,12.992,19.088c0.681,0.424,13.897,8.781,15.321,9.111c1.426,0.334,9.89,0.576,9.89,0.576l3.188,1.381
		c0,0,0.221,2.363,0.289,4.314c0.254-0.127,0.524-0.219,0.83-0.244c1.507-0.119,2.856,0.102,4.266,0.537
		c0.157-0.047,0.318-0.082,0.486-0.1c0.142-0.014,0.28-0.008,0.422-0.014c0.531-0.557,1.28-0.924,2.23-0.875
		c3.143,0.152,6.283,0.369,9.429,0.385c1.41-2.754,2.471-4.822,2.471-4.822l2.525-3.072l26.256-17.254l5.134-1.806
		c-0.232-0.304-0.438-0.647-0.605-1.037c0.056,0.264,0.021,0.205-0.22-0.598c0.063,0.211,0.139,0.407,0.22,0.598
		c-0.106-0.501-0.541-2.181-0.541-2.306c0-0.461,0.072-0.893,0.193-1.309c-4.347-6.055-5.752-14.466-4.206-21.685
		c0.536-2.5,2.848-3.648,5.062-3.45c0.52-1.683,1.256-3.293,2.096-4.765c-0.032-0.505-0.016-1.02,0.093-1.535
		c0.687-3.268,3.353-6.351,5.781-8.505c1.058-0.938,2.217-1.879,3.461-2.667c1.104-1.518,2.626-2.813,4.138-3.828
		c2.773-1.862,6.47-3.815,9.918-3.683c3.896,0.15,5.364,4.001,4.387,6.803c1.322,0.047,2.618,0.55,3.528,1.599
		c0.803,0.925,1.547,1.928,2.222,2.984c0.121-0.167,0.25-0.328,0.392-0.478c-0.976-2.354-0.56-5.02,1.818-6.412
		c1.335-0.782,3.204-0.833,4.673-0.154L268.218,87.326z"/>
	<path fill="#13923B" d="M192.986,147.748c0,0-1.511,6.98-3.166,11.375c-0.611,1.625-1.492,3.984-2.672,6.67
		c1.454-0.039,2.922,0.051,4.404,0.189l2.132-4.721l0.871-4.639l-0.815-6.783L192.986,147.748z"/>
	<path fill="#077606" d="M210.207,40.26c0,0,14.123,14.168,17.856,17.999c3.733,3.834,12.609,13.426,12.609,13.426
		s-6.124-9.756-10.123-14.395c-4-4.641-12.923-12.55-14.385-13.548C214.702,42.742,210.207,40.26,210.207,40.26z"/>
	<path fill="#077606" d="M211.073,36.296c0,0,8.82,1.458,12.834,2.738c4.016,1.281,8.352,2.438,12.219,4.576
		c3.863,2.137,11.067,6.896,11.067,6.896s-6.965-9.067-15.315-11.505c-8.35-2.439-15.347-2.689-16.535-2.798
		C214.155,36.094,211.073,36.296,211.073,36.296z"/>
	<path fill="#0C6729" d="M202.842,79.208c0,0-2.88,2.234-4.612,4.582c-1.731,2.35-3.925,7.145-4.369,9.045
		c-0.442,1.9-0.357,5.412,0.352,6.42c0.71,1.008,2.635,2.369,4.269,2.006c1.637-0.365,5.153-1.123,7.556-4.18
		c2.402-3.061,4.095-6.451,4.22-8.9s-0.107-5.781-0.379-7.342c-0.271-1.563-0.626-3.113-1.783-2.975
		c-1.158,0.139-5.329,1.061-5.329,1.061"/>
	<path fill="#0C6729" d="M215.905,76.506c0,0-1.239,1.577-1.521,2.702c-0.286,1.123,0.11,2.336,1.12,3.053
		c1.011,0.719,1.216,1.029,3.708,0.814c2.491-0.215,2.201,0.156,4.225,0.248c2.026,0.092,2.593,0.611,3.858-0.045
		c1.264-0.654,2.411-0.875,2.296-2.541c-0.118-1.666-0.656-3.363-1.499-4.1c-0.846-0.738-3.082-1.896-4.591-1.883
		c-1.511,0.012-5.751,0.354-7.213,1.453"/>
	<path fill="#0C6729" d="M216.142,86.173c0,0-1.349,1.357-1.666,2.908c-0.316,1.545-0.163,4.928-0.036,5.982
		c0.127,1.053,0.433,2.023,1.656,2.256c1.224,0.23,2.337,0.6,4.212-0.568c1.873-1.17,3.072-2.195,3.597-3.076
		c0.523-0.881,0.854-3.377-0.786-4.438c-1.638-1.063-4.628-3.41-6.659-3.041"/>
	<path fill="#0C6729" d="M237.839,109.06c0,0-1.046,1.26-1.19,2.158c-0.143,0.898,0.308,2.543,1.359,2.92
		c1.053,0.377,1.961,0.08,2.881-0.66c0.916-0.74,1.471-1.371,2.334-2.043c0.864-0.67,1.96-1.494,1.885-2.115
		c-0.073-0.621-0.824-2.168-1.98-2.342C241.974,106.802,239.146,107.896,237.839,109.06z"/>
	<path fill="#0C6729" d="M241.56,115.412c0,0,1.346-0.854,2.572-1.127c1.226-0.273,2.745-0.203,3.029,0.076
		c0.286,0.281,0.351,1.344,0.174,2.498c-0.176,1.154-0.737,3.299-1.62,3.277c-0.884-0.018-2.669-1.252-2.975-1.719
		C242.432,117.951,240.902,116.75,241.56,115.412z"/>
	<path fill="#0C6729" d="M233.204,116.603c0,0-1.018,2.012-0.772,4.564c0.243,2.553,1.107,5.027,1.899,6.381s1.98,2.342,2.77,2.625
		c0.79,0.283,1.371,0.402,2.249-0.145c0.879-0.543,1.753-2.162,1.77-3.611c0.015-1.447-0.718-5.453-1.857-7.078
		s-2.593-2.711-3.25-2.947C235.354,116.158,234.729,115.666,233.204,116.603z"/>
	<path fill="#E2E20E" d="M171.148,162.314c-0.19-0.898-0.639-4.625-0.639-4.625s-7.115,0.857-10.276,0.396
		c-3.16-0.457-3.901-1.041-7.868-4.006c-3.966-2.967-6.192-6.139-9.241-10.557s-5.535-7.645-8.941-10.846
		c-3.406-3.201-6.056-2.209-8.549-1.994c-2.492,0.213-5.093,1.617-7.343,3.146c-2.25,1.529-2.898,3.119-2.898,3.119l-0.081,1.438
		l0.252,2.096c0.225,0.008,0.442,0.146,0.47,0.391c0.013,0.018,0.024,0.037,0.037,0.057c0.096,0.025,0.187,0.078,0.256,0.186
		l0.308,0.465c0.066,0.101,0.082,0.2,0.078,0.297c1.324,1.872,2.636,3.755,3.969,5.621c0.275,0.337,0.545,0.682,0.817,1.023
		c0.698,0.506,1.353,1.072,1.98,1.669c0.73,0.517,1.43,1.074,2.025,1.746c0.135,0.153,0.229,0.313,0.301,0.477
		c2.346,2.096,5.002,3.797,7.449,5.773c0.267,0.216,0.425,0.456,0.507,0.702c2.537,1.25,7.715,3.899,9.917,4.625
		c2.797,0.926,13.161,3.373,14.454,3.639c1.289,0.264,11.726,1.191,11.726,1.191l1.86,0.113l0.166-2.117
		C171.885,166.339,171.341,163.214,171.148,162.314z"/>
	<path fill="#E2E20E" d="M235.893,141.992c-0.211-0.404-0.465-0.924-0.741-1.509c-3.043-0.897-5.718-3.62-7.232-6.186
		c-1.033-1.75-1.993-3.962-1.789-6.046c0.203-2.063,1.186-4.045,2.885-5.138c-0.025-1.172-0.04-2.364-0.04-2.364
		s-4.81,3.264-6.729,4.754c-1.921,1.49-11.073,9.135-15.474,13.02c-4.247,3.749-12.245,9.267-13.015,9.751l0.184,1.526l0.951,6.516
		c0,0-0.176,2.037-0.406,2.904c-0.232,0.869-1.772,5.502-2.18,6.305c-0.408,0.807-1.079,2.9-1.079,2.9s11.366-1.785,12.518-2.006
		c1.147-0.223,9.805-1.516,11.107-1.838c1.304-0.326,11.84-2.768,13.463-3.213c1.624-0.447,7.094-2.447,8.056-2.814
		c0.964-0.367,7.706-2.939,7.706-2.939S237.419,144.914,235.893,141.992z"/>
	<path fill="#E2E20E" d="M300.379,101.99c0,0-0.933,3.764-1.638,5.23c-0.706,1.471-3.424,6.078-5.421,8.332
		c-1.996,2.254-4.795,4.104-7.407,5.422c-2.609,1.32-6.64,1.303-9.32,0.996c-0.072-0.009-0.143-0.025-0.214-0.037
		c-0.396,1.944-0.006,3.573,0.838,4.995c0.031-0.005,0.062-0.015,0.093-0.019c3.041-0.401,6.054,0.554,8.93,1.54
		c1.284-1.075,3.98-4.22,4.795-4.69c0.822-0.477,7.421-8.445,8.232-10.053c0.815-1.609,2.736-4.484,2.736-4.484
		s0.213-2.418,0.218-3.426C302.227,104.789,300.379,101.99,300.379,101.99z"/>
	<path fill="#830000" d="M273.583,20.06c0,0,0.229,4,0.411,4.818s0.948,5.09,1.182,5.649c0.237,0.56,1.345,2.105,1.755,2.727
		c0.411,0.622,3.248,3.975,5.177,4.667s6.349,1.839,6.349,1.839l4.723,0.188l1.684,0.05l-4.244-5.282c0,0,6.697,2.636,7.151,2.918
		c0.454,0.282,0.959,0.304,0.959,0.304s0.119-1.104,0.175-2.035c0.056-0.93,0.339-4.154,0.197-4.64
		c-0.143-0.486-0.387-3.227-2.334-4.756c-1.945-1.528-4.576-2.471-4.576-2.471s-2.077,0.167-2.608,0.648
		c-0.529,0.483-2.385,1.798-2.915,2.281c-0.529,0.483-1.867,1.231-2.612,1.321c-0.743,0.089-2.21-0.238-2.818-0.417
		c-0.609-0.179-3.647-2.417-4.151-3.112C276.582,24.063,273.583,20.06,273.583,20.06z"/>
	<path fill="none" stroke="#000000" stroke-width="0.75" d="M127.493,100.775c-2.386-15.043-18.908-10.037-28.097-5.49"/>
	<path fill="none" stroke="#000000" stroke-width="0.75" d="M172.251,167.8c-21.995,1.529-46.382-8.635-56.949-29.525
		c0.278-6.076,3.653-11.516,6.092-17.09c0,0,1.04-3.804,0.79-6.138s-1.833-8.084-2.917-9.667"/>
	<path fill="none" stroke="#000000" stroke-width="0.75" d="M191.134,167.8c0,0,21.016-2.713,26.014-4.07
		c4.999-1.355,9.724-2.363,13.366-3.492c3.642-1.131,12.69-4.924,12.69-4.924s13.98-6.809,14.855-7.184"/>
	<path fill="none" stroke="#000000" stroke-width="0.75" d="M243.657,56.367c0,0,2.799,0.23,5.05,1.154
		c2.251,0.926,9.493,5.659,12.554,9.131c3.062,3.474,5.023,9.847,6.006,13.314c0.854,3.014,1.557,10.695,1.728,12.667
		c0.025,0.3,0.039,0.468,0.039,0.468"/>
	<path fill="none" stroke="#000000" stroke-width="0.75" d="M192.764,76.013c0,0,6.024-5.383,9.51-10.963
		c3.484-5.58,6.838-16.434,5.766-22.221c-1.073-5.788-1.697-7.854-1.697-7.854s11.818-7.462,18.849-8.684
		c7.028-1.223,14.644-1.759,19.107-1.288c4.463,0.471,9.06,2.059,9.06,2.059s-6.979,3.734-7.337,7.05
		c-0.356,3.316-0.941,8.926,1.477,12.287c2.417,3.36,4.613,4.86,4.613,4.86s-8.073,1.977-9.845,6.092
		c-1.772,4.115-1.493,10.629,0.215,13.319s2.295,3.376,2.295,3.376s-13.246-2.312-20.787-1.154s-14.551,1.494-21.034,5.17
		c-6.482,3.674-8.13,4.627-8.13,4.627"/>
	<path fill="none" stroke="#000000" stroke-width="0.75" d="M201.509,66.023c-10.374,3.824-17.435,13.014-24.472,21.057
		c-8.096,9.254-15.074,19.367-20.863,30.217c0,0-1.614,1.334-5.302-0.041s-12.188-8.313-13.75-10.438s-2.5-4-2.813-5.438"/>
	<path fill="none" stroke="#000000" stroke-width="0.75" d="M179.811,84.871"/>
	<path d="M192.562,75.744l-6.007,5.189c0,0,6.095-4.299,6.543-4.75"/>
	<path d="M194.698,82.349c0,0-5.118,3.678-6.174,4.854c-1.054,1.176-1.054,1.176-1.054,1.176s6.739-4.857,7.517-5.371"/>
	<path fill="none" stroke="#000000" stroke-width="0.75" d="M286.06,128.755c0,0-3.359,3.193-1.25,1.375
		c4.227-3.644,8.16-8.072,12.883-14.18c4.723-6.105,4.371-6.232,4.453-8.34c0.083-2.107-0.845-4.934-3.993-10.18
		c-3.146-5.246-8.765-12.879-8.765-12.879s6.003-8.023,12.082-16.812c6.078-8.788,8.44-12.176,9.743-16.026
		c1.299-3.85,1.027-3.313-3.19-7.674c-4.216-4.362-17.876-9.771-17.876-9.771l13.548,15.662c0,0-12.627,12.26-18.581,18.6
		c-5.952,6.338-8.137,11.217-8.137,11.217s-0.087,2.779,0.445,6.494c0.528,3.713,5.382,17.564,5.382,17.564l-10.551,3.703
		l-0.568,0.246"/>
	<path fill="none" stroke="#000000" stroke-width="0.75" d="M294.678,39.851c0,0-5.49,0.408-9.051-0.591
		c-3.562-0.999-6.219-2.863-9.076-6.38c-2.855-3.517-3.006-13.152-3.006-13.152s3.211,5.07,5.063,6.526
		c1.854,1.457,4.729,3.041,7.292,1.306c2.561-1.734,3.883-3.991,6.301-3.442c2.417,0.549,3.107,0.717,4.875,2.855
		c1.767,2.139,1.856,2.882,2.033,5.043c0.177,2.162-0.575,5.694-0.575,5.694"/>
	<path fill="none" stroke="#000000" stroke-width="0.75" d="M159.291,183.585"/>
	<path fill="none" stroke="#000000" stroke-width="0.75" d="M166.375,167.626"/>
	<path fill="none" stroke="#000000" stroke-width="0.75" d="M184.799,78.9c0,0-0.813-10.982,1.182-16.384
		c1.994-5.401,7.082-12.308,8.547-13.742c1.464-1.435,2.835-2.606,2.835-2.606s-3.289-6.404-6.069-8.588s-16.592-9.211-22.568-10.76
		c-5.978-1.548-10.023-1.691-10.023-1.691s3.193,6.667,3.943,8.716c0.749,2.051,0.885,3.167-0.237,4.31s-5.055,2.999-5.055,2.999
		s2.682,3.455,4.985,7.962s2.359,6.012,2.006,8.32c-0.352,2.308-2.436,3.817-4.412,5.188c-1.976,1.371-2.814,1.724-2.814,1.724
		s3.931,1.29,9.283,3.921s3.67,1.195,7.309,5.291c3.64,4.096,6.123,10.092,6.123,10.092"/>
	<path fill="#077606" d="M162.321,42.696c0,0,8.843,2.337,17.928,2.505c9.085,0.167,15.255,0.181,15.255,0.181
		S166.805,42.284,162.321,42.696z"/>
	<path fill="#077606" d="M164.116,62.876c0,0,23.327-11.238,24.945-12.438c1.618-1.202,1.618-1.202,1.618-1.202
		s-9.346,9.18-26.036,13.829"/>
	<path fill="#020202" d="M242.786,56.785c0,0,1.133-0.01,1.427-0.004c0.293,0.006,0.177-0.609,0.177-0.609l-1.363-0.17"/>
	<path fill="none" stroke="#000000" stroke-width="0.75" d="M172.251,167.8c0,0,16.753-0.102,21.095-0.289"/>
	<path fill="#19CF53" d="M191.944,192.189"/>
	<path fill="#E2E20E" d="M169.476,157.453c0,0,21.206-7.92,25.272-10.42c4.063-2.504,0.794,15.012,0.794,15.012l-3.434,4.945
		l-22.763,0.551"/>
	<path fill="#E2E20E" d="M145.458,162.941l1.342,0.678c0,0,0.087,0.049,0.253,0.131c1.087,0.535,5.566,2.555,11.32,2.592
		c6.636,0.043-4.413-4.588-4.651-4.479c-0.237,0.113-5.693,0.098-5.693,0.098s10.157,4.908,12.937,4.992
		c2.78,0.086-0.325-3.402-0.325-3.402l-4.968-5.025"/>
	<path fill="#19CF53" d="M87.254,85.746c0,0-2.376,1.881-3.941,2.826c-1.565,0.941-8.863,3.078-11.686,3.332
		c-2.823,0.256-9.247-0.818-9.247-0.818l-0.152,1.527c0,0,11.405,1.316,11.931,1.504c0.527,0.189,7.695-0.924,8.439-1.012
		c0.745-0.09,4.53-2.811,4.759-3.006c0.228-0.195,2.676-4.268,2.676-4.268"/>
	<path fill="none" stroke="#000000" stroke-width="0.75" d="M240.06,95.755c0,0-7.5,11.375-8.5,13.875s-1.625,3.875-1.875,7.5
		s-0.375,11.875,1.25,15.125s10,12.875,16.125,14s14.5,2.125,20.875,2.25s7.625,0.125,9.375,1.375s3.5,3.875,5.125,6.5
		s1,3.625,1.875,6.125s0.125,3.625,2.75,5s3.125,1.875,6,1.625s3.375,0,4.5-0.875s1.875-1.375,1.625-2.5s-2.375-5-3-6.25
		s-3.5-10-4-12.25s-1.75-9.125-2.5-11s-1.625-4.375-2-4.875s-2-1.125-4.25-1.125s-3.375-0.375-5.25-1s-2.75-1.125-3.875-3.25
		s-1.75-3.75-2-7.125s-0.25-7.375-0.5-10.125s0-5.125-0.5-8s-0.875-5.625-1.375-6.875s-1.875-2.875-2.5-3.25"/>
	<path fill="none" stroke="#000000" stroke-width="0.75" d="M251.685,151.505c0,0,9.625-1.375,11.625-0.75s5.75,4.75,7,6.25
		s2.875,4.375,2.875,4.75s0.375,5.125,1.125,6.375s1.625,2.5,3.375,3s4,1,4,1s3.125,0.125,4.25-0.25s2-1.25,2-1.25v-2.625"/>
	<path fill="none" stroke="#000000" stroke-width="0.75" d="M139.56,161.38c0,0-7.125,4.625-8.5,7.125s-1.625,4.125-1.5,5.5
		s0.125,3.25,0.5,3.75s1.375,1.5,4.625,1s7-2.125,8.375-3.5s2.625-2.5,2.875-2.875s0.25-2.375,0.25-2.375s1.875,0.375,4,0.375
		s8.625,0.75,13.625,0.5s8.5-0.875,9.625-1.5s3.658-1.52,3.658-1.52"/>
	<path fill="none" stroke="#000000" stroke-width="0.75" d="M126.56,152.88c0,0-7.375,1.125-9.875,3.375s-4,5.375-4.625,6.375
		s-0.75,4.25-0.75,5.5s0.5,2.875,0.5,2.875s0.75,0.375,2.25,0.625s3.75,0,5.375-0.375s4-2,4.875-2.5s3.25-2.625,3.5-3.125
		s0.75-2.75,0.75-2.75s2.75-0.125,4-0.125s5.125,0.125,5.125,0.125"/>
	<path d="M288.06,169.88c0,0-6.25,0.25-7.375-0.125s-2.75-2.625-2.75-2.625s3.25,2.125,4,2.25s6-0.25,6-0.25"/>
	<path d="M298.81,166.88c0,0-5.5-0.25-6.625-0.375s-3.625-2.5-3.625-2.5s3.75,2,4.625,2s6-0.25,6-0.25"/>
	<path d="M129.935,171.63c0,0,2.125-2.625,3.25-3.375s1.375-0.25,1.375-0.25s-4.75,4.125-4.875,4.75"/>
	<path d="M132.935,178.755c0,0,0.625-3.875,1.5-5s2.875-2.625,2.875-2.625s-2.5,3.25-2.75,3.875s-0.625,4-0.625,4"/>
	<path d="M115.06,171.755c0,0,0.125-2.875,0.5-3.625s3.25-4.625,3.25-4.625s-2.25,4.625-2.375,5.75s0,2.125,0,2.125"/>
	<path d="M111.81,164.88c0,0,2-3.125,2.875-3.5s0.875-0.375,0.875-0.375l0.5,0.125c0,0-2.125,1.375-3.125,3.125
		s-1.25,2.75-1.25,2.75"/>
	<path fill="#19CF53" d="M186.685,184.505"/>
	<path fill="#12983D" d="M196.185,145.63c0,0-5.75,6.625-9,9.5s-11,6.375-13.75,6.875s-16,3.375-18.625,3.625s-4.875,0-6.5,0.375
		s-3.375,1.125-3.375,1.125l-0.125,1.875l1.625,0.75c0,0,5,0.625,5.875,0.625s6.25,0,6.25,0l5.875,0.375l5.875-0.75
		c0,0,5.5-1.125,6.375-1.5s5.5-2.5,5.5-2.5s3.875-2.875,4.375-3.125s4.75-4.75,5.75-6.5s2.75-5.5,2.75-5.5l0.875-4l0.5-1.75"/>
	<path fill="#19CF53" d="M158.81,155.755l-0.75,1.125c0,0-11.625,1.625-15.5,3.375s-3.875,1.75-3.875,1.75l1.75,2.75l2.625,1.25
		l2.875,0.375c0,0,7.75-0.5,12.125-1.375s14.125-2.125,17-3.375s11.553-4.644,15.125-9s5.75-5.75,5.75-5.75l-0.5-2.375"/>
	<path fill="none" stroke="#000000" stroke-width="0.75" d="M136.81,162.755c0,0,4.375-2.125,7.375-3s14-3.25,14-3.25
		s6.125-8,9.125-11.625s10-10.75,10-10.75"/>
	<path fill="none" stroke="#000000" stroke-width="0.75" d="M145.935,169.63c0,0,10.125,0.75,10.875,0.75s8.25,0.125,9.5,0
		s5.5-0.875,6.25-0.875s5.375-1.625,6.75-2.25s5.75-3.125,7-4.25s5.25-5.5,5.875-6.625s2.875-4.5,3-5.75s1.625-7.75,1.625-7.75"/>
	<path fill="#19CF53" d="M157.768,50.188c-0.016-0.006-0.031-0.01-0.046-0.016c-0.137,0.153-0.339,0.239-0.57,0.157
		c-1.594-0.566-3.076-1.313-4.506-2.178c-0.144-0.05-0.289-0.1-0.432-0.15c-0.529-0.188-1.861-0.764-2.738-1.035
		c-3.01-0.201-6.317-0.41-8.212-2.415c-0.526-0.558,0.313-1.401,0.842-0.842c0.309,0.327,0.665,0.599,1.057,0.829
		c0.104-0.245,0.345-0.434,0.681-0.357c0.795,0.183,1.594,0.344,2.395,0.499c-0.549-0.31-1.088-0.646-1.604-1.035
		c-0.491-0.371-0.225-1.351,0.459-1.088c1.277,0.491,2.552,1.051,3.833,1.607c-0.181-0.132-0.364-0.257-0.542-0.394
		c-0.191-0.147-0.27-0.373-0.256-0.583c-4.955-1.388-11.411-3.292-11.629-3.203c-0.348,0.141-8.719,1.784-8.719,1.784l-6.167,1.424
		l1.225-5.624c0,0-0.017-3.366-0.758-3.2c-0.743,0.167-17.588,6.192-17.588,6.192L95.658,51.7c0,0-1.038,6.087-0.781,6.388
		s-3.673,8.235-3.673,8.235l-0.767-0.229c0,0-1.279,4.161-2.362,5.815c-1.083,1.653-4.801,5.455-7.603,6.861
		c-2.802,1.408-5.56,2.256-6.627,2.285c-1.067,0.027-5.849,0.215-6.894-0.035c-1.046-0.25-3.785-0.353-5.461-1.157
		c-1.675-0.804-5.541-1.798-5.541-1.798s-4.193,9.39-4.65,10.925c-0.457,1.534-2.261,7.394-2.323,8.901
		c-0.063,1.51,0.562,5.708,0.848,7.076s1.54,6.12,1.54,6.12s2.983-2.289,4.207-3.595c1.224-1.308,4.949-3.763,4.949-3.763
		s1.334,2.291,1.989,3.239c0.655,0.949,3.404,3.071,4.171,3.3c0.768,0.228,7.092,2.518,7.975,2.699
		c0.883,0.182,2.903,0.171,2.903,0.171s1.083-1.653,2.118-3.424c1.036-1.769,4.388-4.478,5.681-5.946s2.911-2.801,4.529-4.131
		c1.618-1.332,6.714-3.399,6.714-3.399l7.05-1.242l4.599,0.697l6.247,0.433l4.898,7.821c0.58-0.51,0.804-0.676,1.548-1.193
		c0.875-1.005,1.93-1.878,3.105-2.592c0.838-1.266,1.798-2.429,3.074-3.321c0.537-0.375,1.137,0.339,0.853,0.853
		c-0.172,0.31-0.336,0.624-0.506,0.935c2.438-0.745,5.051-0.868,7.439-0.225c0.723-4.226,3.618-29.161,3.618-29.161l-0.129-2.646
		l0.849-1.567c-0.058-0.063-0.105-0.141-0.134-0.242c-0.142-0.585-0.257-1.18-0.271-1.783c-0.005-0.221,0.129-0.409,0.313-0.512
		c-0.119-0.271-0.234-0.543-0.356-0.813c-0.067-0.15-0.064-0.293-0.029-0.423c-0.009-0.032-0.022-0.063-0.031-0.095
		c-0.017-0.057-0.001-0.106-0.001-0.16c-0.057-0.072-0.089-0.146-0.108-0.222c-0.026-0.035-0.056-0.063-0.08-0.101
		c-0.28-0.443,0.108-0.85,0.512-0.865c0.146-0.128,0.338-0.199,0.535-0.135c0.141,0.047,0.277,0.088,0.416,0.126
		c0.022-0.005,0.047-0.007,0.072-0.009c0.108-0.152,0.279-0.258,0.479-0.264c0.834-0.02,1.645-0.107,2.464-0.05
		c0.074-0.017,0.148-0.03,0.223-0.048c0.03-0.218,0.161-0.426,0.405-0.506c1.32-0.434,2.663-0.688,4.017-0.954
		c0.114-0.038,0.231-0.066,0.35-0.091c0.057-0.147,0.176-0.274,0.384-0.33c0.764-0.204,1.47-0.459,2.176-0.745
		c0.055-0.052,0.119-0.098,0.199-0.13c0.224-0.09,0.451-0.17,0.676-0.256c0.045-0.066,0.104-0.129,0.182-0.184
		c1.868-1.328,3.795-2.555,5.754-3.737c0.187-0.159,0.371-0.317,0.566-0.468L157.768,50.188z"/>
	<path fill="#13923B" d="M100.912,71.96c0,0,0.037-0.048,0.106-0.139c0.691-0.913,4.577-6.01,5.421-6.353
		c0.927-0.376,2.062-0.903,2.631-0.663c0.57,0.241,1.655,1.42,2.069,2.938c0.414,1.519,0.592,4.617,0.313,6.754
		s-2.25,7.253-2.25,7.253s0.831-5.599,0.783-8.21c-0.048-2.61-0.675-4.986-1.072-5.635c-0.398-0.648-1.48-1.153-3.146,0.063"/>
	<path fill="#13923B" d="M106.575,95.227c0,0,9.027-0.358,12.017-1.302c2.99-0.944,6.528-1.367,10.069-7.932
		c3.542-6.563,10.759-23.184,10.759-23.184l0.144,5.338l-0.924,10.357l-1.922,10.223l-1.89,9.806l-0.215,3.459
		c0,0-3.21-1.598-4.407-1.719c-1.196-0.122-5.265,0.989-6.432,1.936c-1.168,0.945-3.034,3.659-3.034,3.659l-1.859-2.753l-6.42-5.017
		L106.575,95.227z"/>
	<path fill="#5C3396" d="M118.956,8.386c0,0,1.228,7.012,1.404,8.11c0.175,1.097-0.008,1.531-0.05,2.538
		c-0.042,1.007-0.756,3.456-0.756,3.456l-1.319,2.513L116.661,26c0,0-3.109,0.093-3.699-0.028c-0.589-0.121-2.803-0.481-2.803-0.481
		l-1.825,0.38c0,0-2.268,1.28-2.867,2.243s-1.723,1.959-1.936,2.765c-0.213,0.805-1.936,6.091-1.936,6.091l8.499-2.55
		c0,0,0.68,2.783,0.727,3.123c0.047,0.34,5.392-1.559,5.639-1.839c0.247-0.28,4.685-3.97,4.93-4.25
		c0.247-0.28,2.224-4.05,2.224-4.05l2.751-6.961l-0.149-1.918l-0.99-3.105l-0.129-1.207c0,0-4.39-5.054-4.746-5.269
		c-0.357-0.214-1.491-1.014-1.491-1.014"/>
	<path fill="#5C3396" d="M119.236,46.089c0,0,2.148-0.691,2.719-0.833c0.572-0.143,4.763-0.673,5.025-0.69
		c0.264-0.018,2.865-2.692,2.865-2.692l5.433-9.219c0,0,3.628-1.472,3.892-1.49c0.262-0.017,7.868-1.664,7.868-1.664l4.805-5.007
		l1.806-3.971l0.337-3.824l-0.759-3.199c0,0-3.405-6.622-4.388-7.933c-0.981-1.311-1.092-1.805-1.092-1.805s0.182,5.322,0.235,7.008
		c0.055,1.687-0.422,5.388-0.422,5.388l-2.741,5.879l-0.629,0.885l-2.734,1.019l-2.974-0.681l-2.961-0.868
		c0,0-2.246-0.438-2.478-0.343s-2.642,0.802-2.642,0.802s-3.451,3.019-3.589,3.345s-3.426,5.077-3.426,5.077l-1.477,4.557
		l-1.598,5.595L119.236,46.089z"/>
	<path fill="#42256A" d="M126.61,44.536c0,0,1.294-5.786,1.635-7.273c0.341-1.487,2.368-4.469,3.154-5.192
		c0.785-0.724,3.659-1.62,5.238-1.72c1.578-0.101,4.53,0.859,6.152,0.201c1.622-0.658,3.638-1.341,4.884-2.926
		c1.245-1.585,2.378-2.449,3.41-4.892s2.355-7.161,2.355-7.161l-0.076-1.184c0,0,1.479,3.312,1.718,4.564
		c0.238,1.252,0.343,3.503,0.045,4.433c-0.296,0.93-1.079,2.327-1.607,3.351c-0.529,1.024-2.68,2.706-3.164,3.173
		c-0.486,0.467-3.331,2.431-3.632,2.687c-0.301,0.257-3.287,1.874-3.635,2.014c-0.347,0.142-2.805,0.734-2.805,0.734l-1.994,9.713
		C138.289,45.058,127.699,44.229,126.61,44.536z"/>
	<path fill="#42256A" d="M124.227,13.397c0.025,0.395,1.323,4.589,1.405,7.119c0.082,2.53-1.717,4.744-2.174,6.278
		c-0.457,1.534-1.75,3.003-1.75,3.003l3.569-1.178l1.405-2.189l1.314-1.747c0,0,0.015-1.625-0.126-1.973s-1.257-5.425-1.257-5.425
		l-2.622-4.467"/>
	<path fill="#42256A" d="M111.954,33.351c0,0,2.88,0.45,3.876-0.089c0.995-0.539,0.72,0.113,0.72,0.113s-4.003,2.434-4.463,3.295
		c-0.46,0.861-0.417,0.304-0.417,0.304l-0.298-4.061"/>
	<path fill="#830000" d="M141.423,45.36c0,0,6.854-0.622,7.456-0.688c0.603-0.065,7.427-0.315,7.427-0.315s-3.303-4.146-5.398-5.544
		s-8.531-4.183-8.531-4.183l-2.148,0.692l-2.195,9.435l2.803,0.481"/>
	<path fill="#830000" d="M108.642,41.035c0,0,4.462-2.081,5.697-2.582c1.235-0.501,7.123-2.171,7.123-2.171s1.041-2.312,1.485-3.211
		c0.445-0.899,2.545-4.809,2.545-4.809s-10.803,5.733-11.897,6.806c-1.094,1.073-5.477,6.449-5.477,6.449"/>
	<path fill="#830000" d="M95.999,50.212c0,0,1.713-7.08,3.002-9.222c1.289-2.142,3.151-3.977,3.151-3.977l9.614-8.668l0.183,8.65
		c0,0-3.678,4.01-3.956,4.213c-0.278,0.203-2.819,2.583-2.819,2.583s-4.28,1.198-5.004,1.851
		C99.444,46.296,95.999,50.212,95.999,50.212z"/>
	
		<ellipse transform="matrix(-0.9266 0.376 -0.376 -0.9266 225.448 65.1411)" fill="#FFFFFF" cx="106.367" cy="54.572" rx="11.219" ry="10.562"/>
	
		<ellipse transform="matrix(-0.9266 0.376 -0.376 -0.9266 194.8131 78.2496)" fill="#FFFFFF" cx="89.771" cy="58.136" rx="9.25" ry="8.084"/>
	
		<ellipse transform="matrix(-0.9266 0.3761 -0.3761 -0.9266 185.881 84.7586)" fill="#0092FF" cx="84.668" cy="60.521" rx="3.25" ry="3.041"/>
	
		<ellipse transform="matrix(-0.9266 0.3761 -0.3761 -0.9266 214.1166 72.7253)" fill="#0092FF" cx="99.96" cy="57.261" rx="4.021" ry="3.521"/>
	
		<ellipse transform="matrix(-0.9265 0.3764 -0.3764 -0.9265 213.6128 73.0726)" fill="#00426B" cx="99.669" cy="57.402" rx="1.406" ry="1.27"/>
	
		<ellipse transform="matrix(-0.9266 0.3762 -0.3762 -0.9266 185.3037 84.8355)" fill="#00426B" cx="84.37" cy="60.508" rx="1.271" ry="1.166"/>
	
		<ellipse transform="matrix(-0.9265 0.3763 -0.3763 -0.9265 186.3886 80.7958)" fill="#FFFFFF" cx="85.304" cy="58.599" rx="0.812" ry="0.75"/>
	
		<ellipse transform="matrix(-0.9268 0.3756 -0.3756 -0.9268 184.3365 88.8591)" fill="#FFFFFF" cx="83.507" cy="62.397" rx="0.656" ry="0.532"/>
	<circle fill="#FFFFFF" cx="100.594" cy="54.89" r="0.875"/>
	<circle fill="#FFFFFF" cx="98.963" cy="59.431" r="0.656"/>
	<path fill="none" stroke="#000000" stroke-width="0.75" d="M90.385,66.52c0,0-0.868,2.96-1.925,5.008
		c-1.058,2.048-4.167,5.468-8.874,7.828c-4.708,2.36-10.05,1.829-13.72,1.431c-3.669-0.4-9.874-3.278-9.874-3.278
		s-5.999,13.586-6.869,18.976c-0.871,5.389,2.164,14.86,2.164,14.86s5.374-5.148,9.552-8.374
		c4.178-3.224,15.352-12.253,19.676-14.009c4.324-1.754,10.347-4.198,15.151-5.878c4.804-1.68,6.689-2.355,8.615-4.036
		c1.925-1.681,1.815-2.175,1.815-2.175"/>
	<path d="M105.73,77.021c0,0,0.878-3.156,0.8-4.844c-0.078-1.688-0.078-1.688-0.078-1.688s0.78,5.248-0.055,6.599"/>
	<path fill="none" stroke="#000000" stroke-width="0.75" d="M60.089,103.837c3.096,6.043,10.096,9.043,17.096,9.043
		c7-10,21-23,34-16c1.283,1.283,3.943,2.842,4.75,3.75c2,2.25,1.5,1.25,4,6.167"/>
	<path fill="none" stroke="#000000" stroke-width="0.75" d="M138.221,59.519c3.964,14.361-2.036,26.361-4.036,40.361
		c0,1-0.002,1.369,0.5,2.625"/>
	<path fill="none" stroke="#000000" stroke-width="0.75" d="M124.695,56.105c0,0,9.422,4.271,16.404,3.191s10.73-3.141,12.744-4.497
		c2.013-1.356,4.601-3.621,4.601-3.621s-6.82-3.843-13-5.111c-6.182-1.269-19.206-1.785-22.406-1.026
		c-3.199,0.759-3.199,0.759-3.199,0.759"/>
	<path d="M119.81,45.451c0,0-0.906,0.48-1.21,0.896s-0.472,1.607-0.472,1.607s1.104-1.549,1.844-1.827"/>
	<path fill="none" stroke="#000000" stroke-width="0.75" d="M119.269,46.166c0,0,2.573-11.611,4.636-15.28
		c2.062-3.67,5.084-7.64,7.386-8.394c2.301-0.754,4.727-0.209,6.625,0.369c1.899,0.579,2.459,1.296,3.981,0.723
		c1.521-0.572,2.436-0.088,3.747-2.733c1.31-2.646,2.104-4.677,2.346-7.293s-0.156-9.695-0.156-9.695s4.327,6.339,5.931,11.399
		s1.759,8.549-0.124,11.111c-1.882,2.563-6.962,6.333-9.132,7.304c-2.169,0.97-4.347,1.809-4.347,1.809s-2.065,9.426-2.096,9.574"/>
	<path fill="none" stroke="#000000" stroke-width="0.75" d="M142.292,34.755c0,0,5.936,1.773,9.284,4.596
		c3.35,2.823,4.706,4.835,4.706,4.835s-15.123,0.965-16.297,1.173"/>
	<path d="M124.662,56.523c0,0-3.036-1.331-3.909-1.82c-0.872-0.488-0.872-0.488-0.872-0.488s4.475,1.388,5.114,1.634"/>
	<path fill="none" stroke="#000000" stroke-width="0.75" d="M95.801,50.226c0,0,1.979-8.088,4.863-11.62
		c2.884-3.531,11.033-10.21,11.033-10.21s0.136,8.646-0.014,8.775"/>
	<path fill="none" stroke="#000000" d="M125.589,28.223c0,0-5.559,2.592-9.908,5.504c-4.349,2.912-8.234,8.13-8.234,8.13"/>
	<path fill="none" stroke="#000000" stroke-width="0.75" d="M101.553,37.639c0,0,1.503-5.938,2.343-7.358
		c0.84-1.42,3.77-5.172,6.371-4.744c2.603,0.428,5.332,1.006,6.675,0.326c1.343-0.679,3.393-3.939,3.329-7.421
		c-0.063-3.481-1.306-10.532-1.306-10.532s5.559,4.557,6.958,8.171s2.487,7.625,2.317,8.368"/>
	
		<ellipse transform="matrix(-0.9266 0.376 -0.376 -0.9266 225.2617 64.977)" fill="none" stroke="#000000" stroke-width="0.75" cx="106.291" cy="54.467" rx="11.219" ry="10.438"/>
	<path fill="none" stroke="#000000" stroke-width="0.75" d="M97.433,60.916c-0.33-0.338-0.593-0.738-0.812-1.172
		c-0.397-0.512-0.687-1.104-0.871-1.722c-0.173-0.353-0.301-0.728-0.308-1.087c-0.126-0.45-0.18-0.918-0.135-1.393
		c-0.028-0.309-0.02-0.631,0.018-0.952c-0.005-0.624,0.086-1.237,0.255-1.827c0.024-0.416,0.088-0.821,0.214-1.219
		c-2.392-1.699-5.84-2.117-9.09-0.798c-4.75,1.927-7.253,6.808-5.592,10.902s6.858,5.851,11.608,3.923
		c2.225-0.902,3.944-2.458,4.985-4.273c-0.043-0.065-0.086-0.131-0.128-0.197C97.529,61.04,97.478,60.981,97.433,60.916z"/>
	<polyline points="95.463,50.058 95.341,51.086 95.575,51.329 96.057,50.357 96.018,49.429 	"/>
	<path fill="none" stroke="#000000" d="M105.082,44.009c0,0,1.565-2.345,7.867-4.991c6.3-2.647,9.099-3.063,9.099-3.063"/>
	<path fill="#E2E20E" d="M230.803,113.696c0.066,0.132,0.146,0.256,0.191,0.397c0.461,0.789,0.539,1.749,0.018,2.641
		c-0.59,1.007-1.85,1.56-2.988,1.239c-0.191-0.001-0.389-0.013-0.602-0.051c-0.547-0.098-1.139-0.479-1.494-0.896
		c-0.209-0.246-0.373-0.518-0.5-0.801c-0.25-0.28-0.453-0.604-0.564-1.006c-0.066-0.245-0.086-0.502-0.082-0.759
		c-0.941,1.76-2.033,4.721-2.209,5.421c-0.25,1-1.375,11.875-1.25,13.25s-0.625,7.5-0.5,8.125s1-0.75,1-0.75l6-3.875
		c0,0,3.125-3.875,3.375-4.375s5.125-12,5.5-12.75s0.375-4.875,0.375-4.875S233.82,114.122,230.803,113.696z"/>
	<path fill="#13923B" d="M89.198,82.256l-1.75,16.375l1.25,5.5l-1.75,1.375c0,0-1.625-1.5-2-2s-1.125-2.625-1.625-3.75
		s-0.375-4.5-0.375-5.25s5-17.75,5-17.75"/>
	<path fill="#19CF53" d="M81.823,104.131h6.875l1.125,2.5l3.375,3.25l3.875,2.875l4.875,2.625l3.125,1.125l4,0.5l1.5-0.125
		c0,0,0.875,1.625,0.375,2.5s-5.125,5.25-6.125,5.625s-6.75-0.375-8-0.25s-5.75-0.125-6.375,0s-7.375,2.375-8.375,2.75
		s-4.375,3.5-5,3.375s-4.375,0.125-4.625,0.5s-1.125,0.875-1.125,0.875l2.125-5.625l2.125-4.75l0.875-2.125l-0.25-3.5l-1.625-4.875
		l3.625-18.5"/>
	<path fill="#19CF53" d="M110.386,24.916c0,0,4.035,7.587,4.378,8.211c0.342,0.624,0.592,2.946,0.592,2.946l-0.33,1.226
		l-0.693,1.025l-4.477,2.243c0,0,4.802,7.645,5.64,9.377c0.838,1.73,1.489,4.5,1.513,5.254c0.023,0.755-0.15,3.053-0.717,3.807
		c-0.564,0.756-6.359,4.955-6.359,4.955s8.487,3.412,10.998,4.482c2.511,1.071,3.913,2.048,4.94,3.332
		c1.026,1.284,2.832,3.886,3.964,5.323s3.741,7.882,3.741,7.882l4.521-6.037l-0.414-3.477c0,0-0.076-5.798-0.053-6.812
		s1.396-8.451,2.608-10.562c1.212-2.11,3.637-6.332,4.378-7.616c0.742-1.284,4.993-5.684,4.993-5.684s-3.883-6.514-5.003-7.28
		s-8.948-5.45-8.948-5.45s-9.468-4.365-12.001-5.012c-2.534-0.646-12.847-2.111-12.847-2.111"/>
	<path fill="#19CF53" d="M130.088,86.491c0,0,9.442-11.039,10.491-11.947s7.279-6.18,7.279-6.18l5.489-3.398l1.508-0.049
		c0,0-9.133,14.949-9.416,15.327c-0.283,0.379-10.988,8.481-12.297,9.344c-1.308,0.861-2.877-2.449-2.877-2.449"/>
	<path fill="#19CF53" d="M194.576,53.657c0,0,8.557,2.139,9.771,2.975s6.178,4.332,6.178,4.332s1.322,1.578,1.357,1.825
		c0.037,0.247-13.318-3.054-13.756-3.159c-0.436-0.106-7.238-2.918-7.238-2.918"/>
	<path fill="#19CF53" d="M264.113,45.144c-0.23-0.725-4.352-4.805-5.467-5.529c-1.113-0.724-5.059-3.567-7.057-4.291
		c-1.998-0.723-8.965-3.511-8.965-3.511l13.199,14.521c0,0-20.066,21.193-21.127,22.608c-1.059,1.415-4.678,7.87-4.678,7.87
		s0.146,6.293,0.996,8.696s5.42,14.881,5.42,14.881l-10.586,4.551c0,0-0.941-7.441-2.004-10.446
		c-1.063-3.004-1.738-5.938-1.738-5.938l-0.533-4.596c0,0-0.34-5.886-2.5-10.375c-2.16-4.488-3.17-8.889-8.07-12.227l-13.334-6.672
		c-2.404-0.034-1.91-0.988-1.91-0.988l3.305-2.496c0,0,1.646-0.671,3.021-1.168c0.004-0.278,0.158-0.553,0.512-0.609
		c0.555-0.09,1.09-0.234,1.623-0.397c-1.115-1.057-4.307-4.162-5.18-5.903c-1.063-2.121-1.613-6.84-1.174-9.05
		s1.658-5.163,2.895-6.225s4.754-2.956,4.754-2.956s-10.732-1.742-13.137-1.776s-13.133,0.876-14.441,1.443
		c-1.309,0.566-10.904,4.091-12.071,4.764c-1.166,0.672-7.686,4.513-7.686,4.513s2.233,8.519,2.27,9.65s-0.809,6.683-1.125,8.875
		s-2.752,8.099-3.316,9.442s-3.178,5.129-3.178,5.129s-2.987,1.187-4.701,2.443c-1.383,1.014-6.472,5.439-8.763,7.694
		c-0.063,0.229-0.188,0.459-0.4,0.683c-1.866,1.964-3.772,3.889-5.692,5.799c0.028,0.2-0.027,0.411-0.236,0.574
		c-2.965,2.315-5.258,5.304-7.886,7.969c-0.29,0.36-0.576,0.724-0.864,1.085c0.029,0.123,0.015,0.263-0.064,0.4
		c-0.397,0.694-0.877,1.348-1.387,1.985c-0.065,0.104-0.131,0.208-0.195,0.313c-0.388,0.681-0.788,1.354-1.208,2.018
		c-0.168,0.268-0.436,0.26-0.632,0.122c-0.137,0.169-0.266,0.343-0.398,0.516c0.151,0.152,0.222,0.392,0.077,0.636
		c-0.736,1.254-1.563,2.439-2.444,3.586c-0.038,0.061-0.076,0.122-0.114,0.182c-0.785,1.431-1.743,2.768-2.615,4.174
		c-0.045,0.071-0.107,0.108-0.171,0.142c-0.183,0.313-0.386,0.619-0.621,0.911c-0.387,0.911-0.822,1.758-1.399,2.546
		c-0.358,0.573-0.759,1.119-1.207,1.631c-0.63,1.538-1.283,3.075-1.674,4.694c-0.153,0.636-1.026,0.63-1.194,0.158
		c-0.181-0.049-0.336-0.165-0.414-0.358c-0.068,0.187-0.138,0.372-0.22,0.557c-0.161,0.362-0.402,0.644-0.687,0.863
		c-0.28,1.461-1.542,2.86-3.372,2.773c-0.738,0.103-1.497-0.085-2.119-0.488c-4.84-1.707-13.519-7.355-15.38-12.617
		c-1.195,1.683-3.364,4.723-4.623,6.404c-1.802,2.405-7.045,10.735-7.628,11.955c-0.583,1.221-3.902,7.127-4.166,7.923
		c-0.265,0.796-0.793,3.271-0.793,3.271l5.531-2.815c0,0,8.926-2.039,9.598-1.757S97.51,151.28,98.2,151.686
		s14.095,8.457,15.527,8.757c1.432,0.299,9.899,0.346,9.899,0.346l3.219,1.306c0,0,0.275,2.359,0.388,4.307
		c0.251-0.13,0.521-0.229,0.825-0.261c1.505-0.154,2.857,0.035,4.276,0.438c0.156-0.052,0.317-0.091,0.484-0.111
		c0.142-0.017,0.28-0.014,0.422-0.024c0.518-0.567,1.259-0.95,2.209-0.927c3.146,0.08,6.29,0.226,9.437,0.169
		c1.345-2.785,2.357-4.877,2.357-4.877l2.455-3.131l25.85-17.856l8.623-3.259l9.379,12.544l4.316,3.674l0.09,0.122
		c0.301-0.215,0.615-0.412,0.92-0.621c0.029-0.117,0.064-0.237,0.111-0.361c0.295-0.783,0.576-1.428,1.021-2.14
		c0.527-0.846,1.387-1.243,2.246-1.264c0.059-0.051,0.113-0.103,0.172-0.153c0.824-0.714,1.775-0.85,2.594-0.609
		c2.453-2.152,5.033-4.152,7.689-6.077c1.123-0.815,2.266-1.63,3.453-2.337c1.24-1,2.492-2.282,3.816-3.449
		c0.176-0.259,0.352-0.518,0.527-0.777c-1.455-3.26-2.824-6.143-3.248-6.46c-0.992-0.741,4.936-17.504,4.936-17.504l5.523,9.436
		c0,0,7.266,0.472,7.637,0.419c0.371-0.054,8.324-3.595,8.324-3.595l10.369-10.456l0.633-3.5c0,0-0.25-4.384-2.357-7.617
		c-2.105-3.233-9.662-14.524-9.662-14.524s10.313-15.245,12.803-19.013c2.488-3.768,6.039-8.949,7.133-11.885
		S264.344,45.868,264.113,45.144z"/>
	<path fill="#13923B" d="M147.646,146.605c0,0-1.35,7.015-2.902,11.446c-0.573,1.638-1.4,4.018-2.517,6.729
		c1.453-0.071,2.921-0.017,4.407,0.087l2.023-4.769l0.762-4.655l-0.972-6.765L147.646,146.605z"/>
	<path fill="#077606" d="M162.379,38.749c0,0,14.447,13.837,18.267,17.582c3.822,3.746,12.916,13.131,12.916,13.131
		s-6.348-9.612-10.451-14.158c-4.105-4.545-13.21-12.247-14.696-13.212C166.931,41.127,162.379,38.749,162.379,38.749z"/>
	<path fill="#077606" d="M163.154,34.765c0,0,8.853,1.254,12.895,2.441c4.043,1.188,8.404,2.244,12.318,4.292
		c3.916,2.048,11.225,6.639,11.225,6.639s-7.172-8.904-15.576-11.149s-15.406-2.333-16.595-2.415
		C166.23,34.492,163.154,34.765,163.154,34.765z"/>
	<path fill="#0C6729" d="M155.916,77.857c0,0-2.827,2.3-4.505,4.688s-3.759,7.234-4.158,9.144s-0.232,5.42,0.499,6.41
		c0.732,0.989,2.688,2.308,4.315,1.905c1.626-0.402,5.125-1.241,7.456-4.354c2.331-3.113,3.943-6.543,4.013-8.995
		c0.068-2.452-0.241-5.775-0.548-7.33c-0.308-1.556-0.696-3.1-1.852-2.934s-5.303,1.184-5.303,1.184"/>
	<path fill="#0C6729" d="M168.914,74.854c0,0-1.202,1.604-1.46,2.734c-0.258,1.132,0.166,2.334,1.192,3.028s1.239,1.001,3.726,0.729
		c2.486-0.273,2.203,0.104,4.23,0.149c2.027,0.046,2.605,0.552,3.854-0.133s2.393-0.934,2.238-2.595
		c-0.156-1.66-0.734-3.346-1.594-4.063c-0.861-0.719-3.125-1.825-4.633-1.776c-1.51,0.048-5.741,0.487-7.177,1.62"/>
	<path fill="#0C6729" d="M169.373,84.511c0,0-1.315,1.389-1.598,2.944c-0.281,1.556-0.049,4.933,0.102,5.984
		c0.151,1.052,0.479,2.015,1.708,2.217s2.352,0.546,4.199-0.666c1.846-1.212,3.02-2.265,3.523-3.158
		c0.504-0.893,0.775-3.395-0.887-4.419c-1.662-1.023-4.705-3.302-6.729-2.885"/>
	<path fill="#0C6729" d="M191.592,106.892c0,0-1.016,1.282-1.139,2.185c-0.123,0.901,0.365,2.536,1.426,2.889
		c1.061,0.354,1.963,0.034,2.863-0.727s1.439-1.406,2.287-2.097c0.85-0.69,1.926-1.539,1.838-2.158
		c-0.09-0.618-0.877-2.146-2.035-2.296S192.873,105.698,191.592,106.892z"/>
	<path fill="#E2E20E" d="M126.642,161.294c-0.212-0.895-0.745-4.607-0.745-4.607s-7.095,1.019-10.265,0.633
		c-3.17-0.387-3.925-0.952-7.958-3.825c-4.034-2.872-6.334-5.993-9.483-10.34c-3.149-4.346-5.71-7.515-9.188-10.636
		c-3.479-3.121-6.106-2.069-8.593-1.797c-2.486,0.272-5.055,1.736-7.269,3.317c-2.214,1.581-2.826,3.184-2.826,3.184l-0.046,1.438
		l0.3,2.091c0.225,0.002,0.445,0.136,0.479,0.378c0.013,0.02,0.025,0.038,0.039,0.057c0.096,0.023,0.188,0.075,0.26,0.179
		l0.319,0.46c0.074,0.106,0.092,0.215,0.085,0.32c0.02,0.025,0.036,0.055,0.056,0.08c0.117,0.151,0.121,0.337,0.053,0.493
		c0.122,0.08,0.243,0.164,0.358,0.268c1.871,1.67,2.899,4.003,4.236,6.075c0.545,0.53,1.167,1.134,1.806,1.75
		c0.031-0.025,0.066-0.043,0.102-0.061c0.195-0.168,0.511-0.219,0.734,0.025c0.655,0.712,1.301,1.458,1.969,2.182
		c0.979,0.818,2.015,1.571,3.017,2.386c0.73,0.594,1.42,1.234,2.13,1.847c0.205,0.146,0.413,0.289,0.616,0.438
		c0.418,0.24,0.766,0.421,0.968,0.488c0.885,0.294,8.595,4.153,11.412,5.012s13.236,3.066,14.533,3.302
		c1.296,0.234,11.751,0.922,11.751,0.922l1.862,0.068l0.116-2.121C127.47,165.3,126.855,162.19,126.642,161.294z"/>
	<path fill="#E2E20E" d="M148.093,146.794c0.236-0.117,8.553-6.111,12.862-10.098c4.311-3.986,13.285-11.842,15.169-13.375
		c1.885-1.534,6.619-4.908,6.619-4.908s0.133,3.854,0.229,4.514c0.094,0.66,1.51,4.666,1.629,4.902
		c0.119,0.235,3.955,8.776,5.549,11.662c1.592,2.886,8.494,13.429,8.494,13.429s-6.68,2.728-7.635,3.117
		c-0.953,0.39-6.375,2.515-7.988,2.999s-12.089,3.169-13.385,3.522c-1.296,0.354-9.92,1.846-11.063,2.094
		c-1.144,0.249-12.467,2.296-12.467,2.296s0.623-2.109,1.012-2.923c0.388-0.813,1.822-5.481,2.033-6.354
		c0.211-0.872,0.339-2.911,0.339-2.911l-1.101-6.492l-0.261-1.814"/>
	<path fill="#E2E20E" d="M225.807,116.059c0,0,2.141,2.598,4.828,2.843c2.686,0.245,6.717,0.172,9.297-1.209
		s5.336-3.292,7.279-5.592c1.941-2.299,4.555-6.968,5.227-8.453c0.67-1.485,1.516-5.27,1.516-5.27s1.912,2.757,1.93,3.764
		c0.018,1.008-0.139,3.43-0.139,3.43s-1.854,2.918-2.631,4.545s-7.188,9.746-8,10.241c-0.813,0.496-3.498,3.786-4.734,4.848
		s-7.367,6.74-7.932,7.201c-0.566,0.46-4.328,4.157-4.328,4.157s-1.758-1.094-2.643-3.155c-0.885-2.063-0.814-3.335-0.887-4.419
		s0.77-9.287,0.77-9.287L225.807,116.059z"/>
	<path fill="#830000" d="M225.271,17.089c0,0,0.322,3.995,0.523,4.808c0.201,0.813,1.064,5.066,1.313,5.621s1.391,2.074,1.816,2.686
		s3.338,3.898,5.283,4.544c1.945,0.647,6.389,1.693,6.389,1.693l4.727,0.079l1.684,0.011l-4.363-5.182c0,0,6.754,2.481,7.215,2.752
		c0.459,0.27,0.967,0.281,0.967,0.281s0.092-1.106,0.127-2.039c0.035-0.931,0.244-4.16,0.092-4.643
		c-0.154-0.483-0.463-3.217-2.443-4.701s-4.633-2.365-4.633-2.365s-2.074,0.214-2.592,0.709c-0.52,0.495-2.346,1.852-2.863,2.347
		s-1.838,1.274-2.58,1.381s-2.215-0.187-2.828-0.352s-3.701-2.331-4.221-3.014S225.271,17.089,225.271,17.089z"/>
	<path fill="none" stroke="#000000" stroke-width="0.75" d="M127.379,167.132c-21.954,2.036-46.569-7.563-57.615-28.201
		c0.137-6.082,3.874-12.422,6.184-18.05"/>
	<path fill="none" stroke="#000000" stroke-width="0.75" d="M146.258,166.694c0,0,20.945-3.197,25.912-4.668
		c4.966-1.471,9.667-2.588,13.283-3.802c3.613-1.214,12.572-5.216,12.572-5.216"/>
	<path fill="none" stroke="#000000" stroke-width="0.75" d="M222.41,90.217c0,0-1.006-9.643-2.068-13.089
		c-1.064-3.446-3.172-9.773-6.313-13.175c-3.141-3.4-10.488-7.965-12.762-8.838c-2.271-0.873-5.074-1.039-5.074-1.039"/>
	<path fill="none" stroke="#000000" stroke-width="0.75" d="M145.766,74.895c0,0,5.9-5.521,9.255-11.18
		c3.354-5.66,6.458-16.586,5.251-22.349c-1.206-5.762-1.879-7.812-1.879-7.812s11.644-7.734,18.642-9.118
		c7-1.384,14.602-2.097,19.074-1.729c4.473,0.368,9.105,1.849,9.105,1.849s-6.893,3.895-7.172,7.218
		c-0.281,3.324-0.736,8.946,1.758,12.25c2.496,3.304,4.725,4.751,4.725,4.751s-8.025,2.163-9.701,6.318
		c-1.676,4.156-1.246,10.66,0.523,13.311s2.371,3.322,2.371,3.322s-13.295-2.006-20.807-0.674
		c-7.513,1.331-14.513,1.831-20.91,5.654s-8.021,4.814-8.021,4.814"/>
	<path fill="none" stroke="#000000" stroke-width="0.75" d="M154.279,64.706c-10.282,4.063-17.129,13.413-23.979,21.617
		c-7.88,9.438-14.622,19.71-20.159,30.688"/>
	<path fill="none" stroke="#000000" stroke-width="0.75" d="M133.022,84.049"/>
	<path d="M145.559,74.629l-5.885,5.329c0,0,5.992-4.438,6.431-4.901"/>
	<path d="M147.847,81.184c0,0-5.032,3.795-6.06,4.995s-1.027,1.2-1.027,1.2s6.626-5.014,7.392-5.545"/>
	<path fill="none" stroke="#000000" stroke-width="0.75" d="M227.838,136.353c0,0,0.027-0.022,0.082-0.065
		c0.068-0.055,0.178-0.143,0.322-0.261c1.688-1.373,8.262-6.767,11.631-10.242c3.885-4.01,7.137-7.172,11.717-13.386
		c4.58-6.215,4.227-6.331,4.26-8.44s-0.959-4.914-4.227-10.086S242.563,81.2,242.563,81.2s5.816-8.16,11.689-17.086
		c5.875-8.926,8.158-12.368,9.369-16.247c1.211-3.879,0.953-3.336-3.363-7.599s-18.098-9.355-18.098-9.355l13.906,15.345
		c0,0-12.342,12.549-18.146,19.024c-5.807,6.475-7.877,11.401-7.877,11.401s-0.021,2.781,0.594,6.481s5.789,17.438,5.789,17.438
		l-10.463,3.944l-1.641,0.585"/>
	<path fill="none" stroke="#000000" stroke-width="0.75" d="M246.82,36.388c0,0-5.48,0.534-9.064-0.382
		c-3.584-0.917-6.283-2.718-9.221-6.169c-2.938-3.45-3.309-13.079-3.309-13.079s3.326,4.995,5.213,6.407s4.799,2.931,7.32,1.138
		c2.52-1.793,3.791-4.08,6.219-3.587c2.43,0.493,3.123,0.646,4.939,2.742c1.816,2.096,1.924,2.838,2.15,4.995
		c0.225,2.157-0.443,5.705-0.443,5.705"/>
	<path fill="none" stroke="#000000" stroke-width="0.75" d="M114.787,183.21"/>
	<path fill="none" stroke="#000000" stroke-width="0.75" d="M121.501,167.092"/>
	<path fill="none" stroke="#000000" stroke-width="0.75" d="M137.873,77.963c0,0-1.069-10.959,0.801-16.405
		s6.797-12.468,8.228-13.936s2.773-2.671,2.773-2.671s-3.435-6.326-6.265-8.445s-16.8-8.826-22.812-10.236
		c-6.012-1.41-10.06-1.46-10.06-1.46s3.346,6.591,4.143,8.624s0.957,3.146-0.138,4.313c-1.096,1.167-4.983,3.115-4.983,3.115
		s2.761,3.392,5.168,7.845s2.497,5.956,2.198,8.271s-2.349,3.873-4.292,5.289c-1.943,1.415-2.773,1.788-2.773,1.788
		s3.96,1.198,9.371,3.705c5.412,2.506,3.696,1.11,7.429,5.121c3.733,4.01,6.354,9.947,6.354,9.947"/>
	<path fill="#077606" d="M114.564,42.29c0,0,8.894,2.133,17.98,2.09c9.086-0.042,15.255-0.17,15.255-0.17
		S119.037,41.774,114.564,42.29z"/>
	<path fill="#077606" d="M116.825,62.422c0,0,23.061-11.771,24.65-13.011c1.59-1.239,1.59-1.239,1.59-1.239
		s-9.133,9.394-25.71,14.426"/>
	<path fill="#020202" d="M195.332,54.516c0,0,1.131-0.036,1.426-0.037c0.293,0,0.164-0.613,0.164-0.613l-1.367-0.139"/>
	<path fill="none" stroke="#000000" stroke-width="0.75" d="M127.379,167.132c0,0,16.745-0.491,21.083-0.777"/>
	<path fill="#19CF53" d="M147.632,191.058"/>
	<path fill="#E2E20E" d="M149.389,145.849c-0.562,0.364-1.465,0.845-2.59,1.397c0.026,0.153,0.042,0.31,0.037,0.469
		c-0.025,0.818-0.173,1.605-0.43,2.379c-0.104,0.312-0.259,0.594-0.445,0.846c-0.018,0.106-0.038,0.213-0.055,0.32
		c-0.067,0.439-0.29,0.807-0.588,1.11c-0.417,0.619-1.057,1.092-1.783,1.262c-1.422,0.333-2.898-0.423-3.297-1.872
		c-0.14-0.508-0.113-1.046,0.049-1.54c-7.263,3.167-15.921,6.631-15.921,6.631l0.102,10.088l22.744-1.077l3.319-5.023
		C150.532,160.838,153.395,143.253,149.389,145.849z"/>
	<path fill="#E2E20E" d="M100.482,162.891l1.356,0.648c0,0,0.088,0.045,0.257,0.124c1.099,0.51,5.623,2.426,11.377,2.33
		c6.635-0.111-4.518-4.486-4.753-4.369c-0.236,0.118-5.691,0.229-5.691,0.229s10.269,4.672,13.05,4.692
		c2.781,0.021-0.404-3.394-0.404-3.394l-5.082-4.911"/>
	<path fill="#19CF53" d="M40.51,87.063c0,0-2.332,1.935-3.875,2.914s-8.79,3.282-11.605,3.603c-2.816,0.32-9.263-0.605-9.263-0.605
		l-0.117,1.532c0,0,11.432,1.052,11.963,1.228c0.53,0.177,7.671-1.102,8.414-1.208c0.742-0.106,4.464-2.914,4.688-3.114
		c0.224-0.2,2.577-4.328,2.577-4.328"/>
	<line fill="none" stroke="#000000" stroke-width="0.75" x1="222.947" y1="140.006" x2="228.242" y2="136.027"/>
	<path fill="#19CF53" d="M109.64,49.944c-1.442-0.646-2.833-1.362-4.18-2.197c-0.072-0.038-0.144-0.077-0.214-0.116
		c-0.457-0.132-0.909-0.266-1.358-0.406c-0.092,0.006-0.186,0.01-0.282-0.015c-1.366-0.35-2.667-0.801-3.976-1.327
		c-0.202-0.082-0.344-0.209-0.449-0.353c-2.014-0.305-4.024-0.633-6.024-1.021c-1.035-0.201-0.765-1.972,0.285-1.84
		c1.051,0.133,2.098,0.213,3.147,0.268c0.149-0.122,0.347-0.201,0.602-0.196c0.149,0.003,0.296,0.012,0.444,0.016
		c-0.119-0.334-0.083-0.715,0.104-0.97c-4.439-1.303-9.126-2.712-9.313-2.638c-0.349,0.138-8.734,1.707-8.734,1.707l-6.18,1.369
		l1.275-5.612c0,0,0.013-3.366-0.73-3.207c-0.743,0.16-17.642,6.036-17.642,6.036L47.483,50.5c0,0-1.092,6.078-0.838,6.381
		s-3.746,8.203-3.746,8.203l-0.765-0.236c0,0-1.317,4.15-2.414,5.795c-1.097,1.643-4.849,5.411-7.663,6.795
		c-2.814,1.38-5.58,2.206-6.647,2.225c-1.067,0.02-5.851,0.162-6.894-0.097c-1.044-0.26-3.782-0.387-5.45-1.205
		c-1.668-0.819-5.525-1.848-5.525-1.848s-4.276,9.354-4.747,10.883c-0.47,1.529-2.326,7.373-2.402,8.881
		c-0.076,1.509,0.511,5.713,0.785,7.082c0.272,1.371,1.485,6.135,1.485,6.135s3.003-2.263,4.238-3.559
		c1.235-1.294,4.981-3.717,4.981-3.717s1.314,2.303,1.96,3.258c0.646,0.954,3.377,3.1,4.142,3.335
		c0.765,0.235,7.069,2.581,7.951,2.77c0.881,0.189,2.9,0.197,2.9,0.197s1.098-1.644,2.149-3.404
		c1.051-1.759,4.427-4.438,5.732-5.896c1.306-1.457,2.936-2.773,4.565-4.091c1.631-1.316,6.745-3.339,6.745-3.339l7.061-1.179
		l4.593,0.737l6.242,0.488l6.043,9.842c0,0-0.075,0.188-0.199,0.496c0.517,1.005,0.977,2.036,1.419,3.074
		c0.219,0.391,0.444,0.778,0.647,1.177c0.291,0.473,0.531,0.978,0.76,1.512l14.518-5.651c-0.183-0.345-0.311-0.72-0.373-1.074
		c-0.031-0.176-0.048-0.35-0.054-0.522c-1.397-1.264-2.823-2.624-2.823-2.624s-0.133-1.695,0.338-3.225
		c0.47-1.53,3.992-29.672,3.992-29.672l-0.105-2.647l1.39-2.513c-0.354-0.473-0.648-0.987-0.964-1.487
		c-0.254-0.401-0.122-0.809,0.156-1.08c-0.654-0.878,0.447-2.028,1.2-1.419c0.111-0.155,0.269-0.287,0.511-0.346
		c1.956-0.478,3.915-0.744,5.899-0.939c0.05-0.033,0.085-0.074,0.147-0.1c0.005-0.002,0.01-0.004,0.016-0.006
		c0.109-0.141,0.251-0.264,0.465-0.33c0.483-0.149,0.965-0.301,1.446-0.453c1.642-0.674,3.282-1.346,4.947-1.957
		c1.39-1.399,2.859-2.618,4.477-3.732L109.64,49.944z"/>
	<path fill="#13923B" d="M52.556,70.809c0,0,0.038-0.049,0.108-0.141c0.699-0.905,4.63-5.968,5.477-6.303
		c0.929-0.367,2.069-0.886,2.637-0.64c0.567,0.246,1.642,1.435,2.042,2.956c0.4,1.522,0.55,4.621,0.252,6.756
		c-0.299,2.134-2.314,7.232-2.314,7.232s0.88-5.59,0.855-8.201c-0.024-2.612-0.63-4.994-1.022-5.645
		c-0.392-0.652-1.469-1.167-3.146,0.033"/>
	<path fill="#13923B" d="M58.013,94.124c0,0,9.03-0.278,12.029-1.194c2.998-0.917,6.539-1.311,10.139-7.842S91.146,62,91.146,62
		l0.095,5.338l-1.016,10.349l-2.013,10.206l-1.977,9.787l-0.245,3.458c0,0-3.198-1.626-4.392-1.758
		c-1.196-0.133-5.273,0.942-6.449,1.878s-3.066,3.632-3.066,3.632l-1.835-2.77l-6.375-5.073L58.013,94.124z"/>
	<path fill="#5C3396" d="M71.165,7.396c0,0,1.165,7.022,1.331,8.122c0.166,1.099-0.021,1.531-0.072,2.537
		c-0.05,1.006-0.787,3.448-0.787,3.448l-1.341,2.501l-1.582,0.984c0,0-3.111,0.065-3.699-0.061
		c-0.587-0.126-2.798-0.506-2.798-0.506l-1.828,0.364c0,0-2.28,1.259-2.887,2.217c-0.608,0.957-1.741,1.943-1.96,2.747
		c-0.22,0.804-1.99,6.074-1.99,6.074l8.521-2.475c0,0,0.656,2.788,0.7,3.129c0.044,0.34,5.405-1.511,5.655-1.789
		c0.249-0.278,4.72-3.928,4.969-4.206s2.259-4.03,2.259-4.03l2.813-6.937l-0.132-1.92l-0.963-3.114l-0.118-1.208
		c0,0-4.345-5.093-4.699-5.311c-0.355-0.218-1.482-1.027-1.482-1.027"/>
	<path fill="#5C3396" d="M71.11,45.1c0,0,2.155-0.672,2.727-0.81c0.573-0.137,4.769-0.631,5.032-0.645
		c0.263-0.015,2.889-2.666,2.889-2.666l5.514-9.17c0,0,3.642-1.44,3.905-1.455c0.263-0.015,7.884-1.595,7.884-1.595l4.847-4.963
		l1.842-3.955l0.37-3.821l-0.73-3.206c0,0-3.347-6.652-4.316-7.971c-0.97-1.319-1.077-1.815-1.077-1.815s0.135,5.324,0.175,7.011
		c0.039,1.687-0.47,5.384-0.47,5.384l-2.793,5.854l-0.637,0.879l-2.744,0.995l-2.968-0.708l-2.953-0.893
		c0,0-2.243-0.458-2.475-0.366c-0.232,0.092-2.649,0.779-2.649,0.779s-3.478,2.988-3.618,3.313c-0.141,0.324-3.47,5.046-3.47,5.046
		l-1.519,4.543l-1.647,5.58L71.11,45.1z"/>
	<path fill="#42256A" d="M78.497,43.613c0,0,1.346-5.774,1.7-7.259c0.354-1.484,2.408-4.447,3.2-5.164
		c0.792-0.716,3.674-1.587,5.252-1.674c1.579-0.086,4.522,0.9,6.149,0.257c1.628-0.644,3.65-1.309,4.91-2.882
		c1.26-1.574,2.399-2.428,3.453-4.861c1.055-2.433,2.42-7.14,2.42-7.14l-0.065-1.184c0,0,1.449,3.325,1.677,4.58
		c0.227,1.255,0.312,3.507,0.006,4.434c-0.306,0.927-1.1,2.317-1.639,3.336c-0.537,1.019-2.702,2.682-3.19,3.144
		c-0.49,0.463-3.353,2.401-3.656,2.655c-0.302,0.254-3.303,1.844-3.652,1.982c-0.348,0.138-2.812,0.708-2.812,0.708l-2.08,9.695
		C90.17,44.239,79.589,43.315,78.497,43.613z"/>
	<path fill="#42256A" d="M76.391,12.454c0.021,0.395,1.281,4.601,1.341,7.131c0.06,2.53-1.759,4.729-2.229,6.259
		c-0.471,1.53-1.776,2.987-1.776,2.987l3.579-1.146l1.424-2.176l1.33-1.736c0,0,0.029-1.624-0.108-1.973s-1.209-5.437-1.209-5.437
		l-2.582-4.49"/>
	<path fill="#42256A" d="M63.941,32.297c0,0,2.876,0.476,3.876-0.054c1-0.529,0.719,0.119,0.719,0.119s-4.024,2.398-4.492,3.255
		s-0.419,0.3-0.419,0.3l-0.263-4.063"/>
	<path fill="#830000" d="M93.303,44.568c0,0,6.857-0.561,7.461-0.621c0.604-0.06,7.429-0.25,7.429-0.25s-3.266-4.175-5.348-5.591
		c-2.083-1.417-8.495-4.258-8.495-4.258l-2.153,0.672l-2.28,9.416l2.799,0.506"/>
	<path fill="#830000" d="M60.561,39.952c0,0,4.481-2.041,5.721-2.531c1.239-0.491,7.141-2.107,7.141-2.107s1.063-2.302,1.515-3.198
		c0.453-0.895,2.587-4.786,2.587-4.786s-10.854,5.636-11.957,6.7s-5.534,6.4-5.534,6.4"/>
	<path fill="#830000" d="M47.836,49.018c0,0,1.776-7.065,3.084-9.196c1.308-2.13,3.187-3.949,3.187-3.949l9.69-8.582l0.106,8.651
		c0,0-3.714,3.977-3.994,4.178c-0.279,0.201-2.842,2.558-2.842,2.558s-4.291,1.16-5.021,1.807
		C51.317,45.131,47.836,49.018,47.836,49.018z"/>
	
		<ellipse transform="matrix(-0.9299 0.3677 -0.3677 -0.9299 131.9171 81.7992)" fill="#FFFFFF" cx="58.165" cy="53.468" rx="11.218" ry="10.562"/>
	
		<ellipse transform="matrix(-0.9299 0.3677 -0.3677 -0.9299 101.0847 94.5079)" fill="#FFFFFF" cx="41.539" cy="56.884" rx="9.25" ry="8.083"/>
	
		<ellipse transform="matrix(-0.93 0.3677 -0.3677 -0.93 92.0551 100.9114)" fill="#0092FF" cx="36.415" cy="59.225" rx="3.25" ry="3.042"/>
	
		<ellipse transform="matrix(-0.9299 0.3677 -0.3677 -0.9299 120.4757 89.2452)" fill="#0092FF" cx="51.736" cy="56.1" rx="4.021" ry="3.52"/>
	
		<ellipse transform="matrix(-0.93 0.3674 -0.3674 -0.93 119.951 89.6398)" fill="#00426B" cx="51.443" cy="56.238" rx="1.406" ry="1.272"/>
	
		<ellipse transform="matrix(-0.9299 0.3677 -0.3677 -0.9299 91.4769 100.9853)" fill="#00426B" cx="36.117" cy="59.208" rx="1.271" ry="1.167"/>
	
		<ellipse transform="matrix(-0.9301 0.3672 -0.3672 -0.9301 92.5919 96.9979)" fill="#FFFFFF" cx="37.068" cy="57.308" rx="0.812" ry="0.751"/>
	
		<ellipse transform="matrix(-0.9298 0.3681 -0.3681 -0.9298 90.4851 104.9222)" fill="#FFFFFF" cx="35.237" cy="61.09" rx="0.657" ry="0.532"/>
	<circle fill="#FFFFFF" cx="52.391" cy="53.735" r="0.875"/>
	<circle fill="#FFFFFF" cx="50.719" cy="58.261" r="0.656"/>
	<path fill="none" stroke="#000000" stroke-width="0.75" d="M42.079,65.274c0,0-0.894,2.951-1.97,4.99
		c-1.076,2.037-4.215,5.431-8.943,7.75c-4.729,2.317-10.065,1.74-13.732,1.307c-3.666-0.432-9.844-3.365-9.844-3.365
		S1.471,89.489,0.552,94.87s2.031,14.879,2.031,14.879s5.42-5.102,9.626-8.287c4.207-3.188,15.461-12.119,19.8-13.834
		c4.34-1.716,10.384-4.106,15.204-5.744c4.818-1.637,6.709-2.295,8.65-3.958c1.94-1.664,1.835-2.16,1.835-2.16"/>
	<path d="M57.33,75.911c0,0,0.906-3.147,0.842-4.836c-0.063-1.689-0.063-1.689-0.063-1.689s0.734,5.255-0.113,6.598"/>
	<path fill="none" stroke="#000000" stroke-width="0.75" d="M11.452,102.321c0,0,2.632,3.596,4.981,5.289
		c2.35,1.691,7.462,3.231,9.085,3.599c1.624,0.365,3.166,0.697,3.166,0.697s1.452-3.128,4.353-6.158
		c2.902-3.029,8.818-8.124,12.525-9.457c3.708-1.331,9.03-3.167,13.284-1.758c4.254,1.409,11.091,6.972,11.979,8.369
		c0.889,1.396,1.223,2.069,1.223,2.069s5.654,10.501,3.774,16.285"/>
	<path fill="none" stroke="#000000" stroke-width="0.75" d="M89.975,58.699c0,0,0.965,2.441,1.306,4.323
		c0.341,1.881-0.793,12.949-1.173,15.385c-0.381,2.436-2.694,18.222-2.659,20.35c0.044,2.649,2.5,8.75,2.5,8.75l8.875,6.625
		c0,0,4.625,2.5,6.25,2.625s4.75,0.5,5.25,0"/>
	<path fill="none" stroke="#000000" stroke-width="0.75" d="M76.479,55.165c0,0,9.383,4.354,16.375,3.337
		c6.99-1.018,10.759-3.046,12.783-4.384c2.025-1.338,4.633-3.58,4.633-3.58s-6.784-3.902-12.954-5.227
		c-6.169-1.324-19.189-1.956-22.395-1.225s-3.206,0.73-3.206,0.73"/>
	<path d="M71.689,44.467c0,0-0.911,0.473-1.218,0.885c-0.307,0.413-0.486,1.604-0.486,1.604s1.118-1.539,1.861-1.811"/>
	<path fill="none" stroke="#000000" stroke-width="0.75" d="M71.141,45.177c0,0,2.678-11.587,4.772-15.239
		c2.095-3.651,5.153-7.594,7.461-8.327c2.308-0.734,4.728-0.168,6.621,0.428c1.894,0.596,2.448,1.318,3.974,0.759
		c1.527-0.56,2.437-0.067,3.771-2.701c1.333-2.634,2.146-4.657,2.41-7.272c0.266-2.614-0.07-9.695-0.07-9.695
		s4.271,6.377,5.829,11.451s1.683,8.564-0.222,11.11c-1.905,2.546-7.019,6.271-9.197,7.222c-2.178,0.951-4.363,1.77-4.363,1.77
		s-2.147,9.408-2.18,9.555"/>
	<path fill="none" stroke="#000000" stroke-width="0.75" d="M94.265,33.971c0,0,5.919,1.826,9.245,4.68
		c3.323,2.852,4.661,4.876,4.661,4.876s-15.13,0.831-16.307,1.027"/>
	<path d="M76.443,55.582c0,0-3.023-1.357-3.892-1.854c-0.869-0.496-0.869-0.496-0.869-0.496s4.462,1.428,5.1,1.68"/>
	<path fill="none" stroke="#000000" stroke-width="0.75" d="M47.639,49.028c0,0,2.051-8.07,4.966-11.575
		c2.916-3.505,11.123-10.112,11.123-10.112s0.059,8.647-0.092,8.774"/>
	<path fill="none" stroke="#000000" d="M77.621,27.291c0,0-5.581,2.543-9.956,5.417c-4.375,2.873-8.307,8.057-8.307,8.057"/>
	<path fill="none" stroke="#000000" stroke-width="0.75" d="M53.502,36.493c0,0,1.555-5.924,2.408-7.336
		c0.853-1.413,3.815-5.138,6.413-4.687c2.598,0.451,5.323,1.053,6.672,0.385c1.349-0.667,3.428-3.909,3.395-7.391
		C72.357,13.982,71.178,6.92,71.178,6.92s5.519,4.606,6.885,8.232c1.367,3.626,2.419,7.646,2.242,8.389"/>
	
		<ellipse transform="matrix(-0.9299 0.3678 -0.3678 -0.9299 131.7355 81.6211)" fill="none" stroke="#000000" stroke-width="0.75" cx="58.091" cy="53.363" rx="11.219" ry="10.438"/>
	<path fill="none" stroke="#000000" stroke-width="0.75" d="M49.175,59.733c-0.327-0.342-0.587-0.744-0.802-1.18
		c-0.392-0.514-0.677-1.109-0.855-1.729c-0.17-0.354-0.294-0.73-0.297-1.09c-0.124-0.451-0.173-0.919-0.123-1.392
		c-0.026-0.311-0.015-0.632,0.026-0.955c0-0.623,0.097-1.235,0.272-1.824c0.027-0.416,0.096-0.82,0.225-1.215
		c-2.376-1.721-5.822-2.17-9.083-0.88c-4.767,1.886-7.314,6.743-5.689,10.853c1.624,4.108,6.806,5.911,11.573,4.025
		c2.233-0.882,3.966-2.423,5.023-4.229c-0.042-0.065-0.084-0.131-0.126-0.197C49.271,59.856,49.22,59.798,49.175,59.733z"/>
	<polyline points="47.303,48.858 47.172,49.885 47.403,50.129 47.894,49.163 47.863,48.234 	"/>
	<path fill="none" stroke="#000000" d="M56.975,42.894c0,0,1.586-2.331,7.911-4.921c6.325-2.59,9.127-2.982,9.127-2.982"/>
	<path fill="#19CF53" d="M185.197,117.006l-10.625,6.625l-1.75,3.875l-2.875,6.125l-2.25,6.25l-1.75,5.5l-1,3.75
		c0,0-2.125,2.25-2.5,2.5s-2,1.875-2,1.875l-4.25,1.5l-5.25,0.75h-5.125l-2.875,0.375l-2.25,2l-1.625,2.875l-0.75,1.5v3.875
		l0.125,1.25l1.875,0.5l1.25,0.75l3.625-1l5.375-1l4.375-0.125l5.75,0.25c0,0,7.125-1.25,7.625-1.375s5.125-1.875,5.125-1.875
		l15-13.875c0,0,9.75-2.75,10.25-2.875s2.75-6.125,2.25-6.625s-4-5.25-4.625-5.625"/>
	<path fill="#19CF53" d="M186.072,147.631c0,0,5.5,3.875,8.125,3.625s16.5-3.625,17.5-3.75s3.875-5,4.375-5.5
		s6.75-26.125,6.375-26.5s0.625-12,0.625-12.375s0.375-6.5,0.375-6.5s-2-9.875-2.375-9.875s-13.5,9.625-14,10.625
		s-15.875,40.125-15.875,40.125l-6.25,8.625"/>
	<path fill="#19CF53" d="M115.323,157.256l3.375,3.125l3.625,1.875l7.625,4.75l4.25,2.625l1.25,1.125c0,0,2.875,12.5,3.375,13.25
		s2.25,5.75,2.75,6.375s3.5,3.625,4,3.875s3.5,2,4,2.25s4.25,0.75,5.125,0.5s3.875-0.5,3.875-0.5l0.75-3.375l-0.75-2.375
		c0,0-3.375-4.375-3.75-4.75s-4.875-4.5-5.625-5s-4.5-7.5-4.5-7.5l1.25-1.75l-1.875-5.375l-3.125-2.875l3.75-2.75l-4.25-12.125
		l-3.375-5.375l-3.375-1.75l-6.125-5l-2.75-1.875"/>
	<path fill="#19CF53" d="M111.573,166.881l0.528,0.226l3.847,1.649c0,0,1.375,5.75,1.625,6.375s1.875,6.375,2.125,6.75
		s2.125,4.75,2.625,5.375s3.75,4.75,4.375,5.25s3.75,2.625,4.125,2.75s2.625,0.75,2.625,0.75h2l2.25-0.375l1.625-0.25l0.75-3
		l-0.25-1.625l-1.375-2.875l-3.625-4.375c0,0-4.125-3.125-4.75-3.625s-3.375-2.625-3.5-3s0.25-4.375,0.25-4.375v-2.25l-0.375-2.375
		l-1.25,0.125c0,0-1.875-0.125-2.25-0.125s-5.375-0.125-6-0.25"/>
	<path fill="#E2E20E" d="M228.572,116.131"/>
	<path fill="#138F3A" d="M220.99,87.214c0,0,0.332,7.833,0.332,11s-0.334,15.667-0.5,18.167s-1,8.332-2,12.166s-1.332,4.666-2.332,8
		s-2.334,5.666-3.668,7c-1.332,1.334-2.166,2.334-5.5,2.667c-3.332,0.333-13.332-0.667-16.666-0.667s-6.168,0.666-8.334,2.5
		s-4.166,5-5.332,7c-1.168,2-2.834,6.501-4.833,7.834c-2,1.333-4.834,2.001-6.834,2.167s-8.166,1.166-8.166,1.166l-2.334,0.334
		l8,0.333l7.75,0.375l5.5,0.25l2.625-0.875l0.625-3l0.875-3.625l2.625-2.625l2.5-0.875l24.125,0.25c0,0,7.875-6.625,8.5-7.375
		s5-5.75,5-6.375s-0.125-7.875-0.125-8.375s0-3.875,0.375-5s1.25-8.125,1.25-8.125l0.25-10.5l-0.5-8.875l-1.375-9.375l-1.375-5.875"
		/>
	<path fill="#138F3A" d="M120.948,133.506c0,0,7.625,4.5,9.75,6.875s3.625,4.375,4.375,5.75s2.375,4.25,3.125,6
		s1.875,6.75,1.875,6.75l2.875-2.875l3.5-0.125c0,0-1.375-5.5-1.625-5.875s-4.125-6.875-4.5-7.125s-3.25-4.25-7.5-6
		S120.948,133.506,120.948,133.506z"/>
	<path fill="#138F3A" d="M143.073,168.381c0,0,1.5,9.125,1.875,10.375s0.875,4.5,2.25,5.375s3.75,2.625,5.125,3.375
		s2.75,1.375,3.875,2.625s2.75,3,2.75,3l-0.25-2.625c0,0-2.625-5-3-5.25s-3.25-2.75-3.75-2.875s-3.125-1.625-3.125-1.625
		l-0.25-8.125l-0.5-5.25c0,0-1.75-0.25-2.125,0S143.073,168.381,143.073,168.381z"/>
	<path fill="#138F3A" d="M138.448,186.131l-2.125-3.125l-1.125-1.875l-1-0.5l-2-0.75l-2-0.625l-0.484-11.836
		c-0.207,0.062-0.42,0.112-0.641,0.141c0.992-0.129-0.757,0.104-0.995,0.127c-0.278,0.027-0.561,0.056-0.841,0.047
		c-0.443-0.014-0.852-0.071-1.251-0.158c-0.728,0.121-1.468,0.209-2.194,0.243c0.561,1.645,1.328,4.042,1.406,5.062
		c0.125,1.625,1.375,6.5,2.5,7.875s2.125,2.75,3.75,3.75s2.25,1.75,4,2.875s3.5,2.375,3.5,2.375l0.75,0.25L138.448,186.131z"/>
	<path fill="none" stroke="#000000" stroke-width="0.75" d="M213.572,71.631c0,0,3.25,4.5,4.75,8.125s2.875,7,4,11.5
		s2.5,14.75,2.375,23.125s-1.125,14.375-1.625,16.375s-0.375,7.125-0.25,9.5s-0.25,3.875-2.75,6.75s-7.5,7.375-8.875,8.25
		s-1,1.625-3.5,1.625s-20.75,0-22.25-0.125s-2.5,0.125-3.375,1.125s-1.625,1.5-2.125,3.375s-0.75,2.875-1,3.875s1.375,2-3.875,2.125
		c-5.25,0.125-21.5-0.75-24.75-0.375s-4.25,0.5-5.75,1.125s-3.375,0.75-3.625,0.5s-2.625-0.75-2.625-0.75s-0.125-5.375,0.5-6.375
		s3.25-5.25,4.875-5.375s7.25-0.25,9.25-0.5s6.75-1.375,8.75-3.125s3.125-2.125,3.5-4.375s4.125-13.5,6.25-18.25
		c2.125-4.75,5.375-9.875,8.75-11.625s7.25-3.75,7.25-3.75l2.625-1.5"/>
	<path fill="none" stroke="#000000" stroke-width="0.75" d="M182.697,116.756c0,0,0.125-3.875,1.125-7.25s3.375-7.375,4.375-8.875
		s1-1.5,1-1.5"/>
	<path fill="none" stroke="#000000" stroke-width="0.75" d="M146.573,155.756c0,0-1.125-3.75-2-5.625s-1.75-3.75-6.375-9.375
		s-20.625-7.75-20.625-7.75"/>
	<path fill="none" stroke="#000000" stroke-width="0.75" d="M148.198,167.256l0.625,13.625c0,0,5.625,2.5,7.25,4.625
		s2.25,4.125,2.625,5.375s0.375,3,0.125,3.875s-0.375,1.75-0.375,1.75s-5.375,0.875-7.375,0.5s-4.875-2.25-7-3.875
		s-3.25-4.125-4.25-6.375s-2.125-7.25-2.75-9.375s-1.875-6.875-1.875-6.875s-14.375-9.5-16-10.25s-7.375-5.75-7.375-5.75"/>
	<path fill="none" stroke="#000000" stroke-width="0.75" d="M111.698,166.881l4,2.125c0,0,2.125,6.5,2.875,9.375
		s2.25,6.25,3.875,9.125s4.25,5.25,7,6.75s3.625,1.875,5.5,1.625s3.875-0.25,4.25-0.5s0.875-4.875,0-7.25s-2.875-6.5-4.75-7.5
		s-4.125-1.25-4.125-1.25l-0.625-12.5"/>
	<path d="M145.698,152.131c0,0,0.813-2.313,0.813-3.563s-1.125-4.75-1.125-4.75s1.938,2.625,1.875,4.375s-1.125,4.625-1.125,4.625"
		/>
	<path d="M140.323,168.069c0,0,0.375-3.313,0.688-4.313s4.25-4.438,4.25-4.438s-3.063,3.875-3.438,4.75s-0.563,4.25-0.563,4.25"/>
	<path d="M159.01,193.819c0,0-3.688-0.688-5.063-1.375s-3.563-2.688-3.563-2.688s4.563,2.438,5.5,2.688s3.25,0.25,3.25,0.25"/>
	<path d="M151.76,197.131c0,0-2.938-2-3.563-2.875s-0.688-1.438-0.688-1.438s4.563,4.188,5.188,4.313"/>
	<path d="M139.51,191.944c0,0-3.875-0.563-4.875-1.25s-3.563-2.813-3.563-2.813s4.313,2.25,5.188,2.625s3.563,0.438,3.563,0.438"/>
	<path d="M133.135,195.819c0,0-2.688-2.063-3.375-2.813s-1.188-1.688-1.188-1.688s2.875,2.5,3.938,3.25s2.063,1.313,2.063,1.313"/>
	<path d="M188.656,99.381c0,0,3.334-4.084,4.166-4.667c0.834-0.583,0.834-0.583,0.834-0.583s-4.166,5.082-4.834,6.166"/>
</g>
<g id="frame_3">
</g>
</svg>
