<?xml version="1.0" encoding="utf-8"?>
<!-- Generator: Adobe Illustrator 13.0.0, SVG Export Plug-In . SVG Version: 6.00 Build 14948)  -->
<!DOCTYPE svg PUBLIC "-//W3C//DTD SVG 1.1//EN" "http://www.w3.org/Graphics/SVG/1.1/DTD/svg11.dtd">
<svg version="1.1" xmlns="http://www.w3.org/2000/svg" xmlns:xlink="http://www.w3.org/1999/xlink" x="0px" y="0px"
	 width="364.389px" height="188.296px" viewBox="0 0 364.389 188.296" enable-background="new 0 0 364.389 188.296"
	 xml:space="preserve">
<g id="frame_1">
	<g>
		<g>
			<path fill="none" d="M119.625,55.999c-1.625,0.125-0.625,2.125,0.5,2.375c0.125-1.125-0.625-2.125-1.75-2.375
				c-0.5,1.875,1.875,3.5,3.375,3.875c-0.5-1.5-3.125-2.875-4.625-3.375c1,2,4.125,4,6.25,4.625c-0.625-1.375-3-2.875-4.625-3.25
				c0.625,1.5,2.5,2.75,4,3.5c-0.5-1-2-1.875-3.125-2.25c0.5,1.25,2.125,2.25,3.375,2.875c-0.875-1.25-2.25-2.25-3.625-3.125
				c0.875,0.75,1.625,1.5,2.5,2.25c-0.875-1.125-2.125-2.125-3.25-3.125c0.5,0.625,1.25,1.125,1.875,1.625
				c-1.125-0.375-2.125-1-3.125-1.5c0.375,0.625,0.875,1.25,1.625,1.75c-1-1-1.625-2.125-1.5-3.5c0,0.25,0,0.375,0.125,0.625
				c-0.375-0.75-0.25-1.625,0-2.375l-0.125,0.5c0.125-0.875,0.875-1.5,1.75-1.25c-0.375,0.5-0.5,0.625-1,0.875
				c0.25-1.375,2.875-2.625,4.125-1.75c-0.5,0.375-1.375,0.5-2.125,0.625c1.5-1,4.875-1.125,6.625-0.5c-1,0.5-2.625,0-3.75-0.25
				c1.375,0.5,2.875,0.375,4.375,0.875c-2.625-0.5-6-1-8.25,0.375c2.75,0.625,5.625-0.875,8.375-0.25
				c-2.875,0.375-6.125,0.125-8.875,0.875c2,0.5,4.5,0.375,6.5,0c-1.625-0.375-5.125-1.125-6.375-0.125
				c1.5,2.375,4.625,5.125,6.75,6.875c-0.625-1.875-2.375-4.25-3.875-5.5c-0.125,2.25,2,5.25,3.75,6.625
				c-0.375-0.625-3.25-4-3.5-2.25c-0.25,1.25,2.125,3,2.5,1.125"/>
			<path fill="#FFFFFF" d="M119.444,55.323c-2.354,0.516-1.827,2.981,0.126,3.711c0.471,0.176,1.544-0.072,1.535-0.73
				c-0.022-1.515-0.745-2.467-2.174-2.966c-0.542-0.189-1.447,0.077-1.535,0.73c-0.311,2.307,1.811,3.85,3.799,4.466
				c0.44,0.136,1.868-0.166,1.521-0.919c-0.913-1.983-3.067-3.063-5.036-3.777c-0.612-0.222-1.9,0.285-1.438,1.09
				c1.364,2.377,4.026,4.017,6.578,4.856c0.615,0.202,1.898-0.271,1.438-1.09c-0.998-1.775-3.041-2.944-4.953-3.481
				c-0.634-0.178-1.873,0.246-1.438,1.09c0.877,1.704,2.482,2.766,4.141,3.635c0.583,0.306,2.208-0.094,1.626-0.994
				c-0.808-1.249-2.091-1.964-3.453-2.481c-0.639-0.243-1.857,0.285-1.438,1.09c0.747,1.438,2.116,2.281,3.516,3.01
				c0.549,0.286,2.288-0.141,1.626-0.994c-1.045-1.347-2.343-2.333-3.766-3.26c-0.703-0.458-2.358,0.362-1.485,1.129
				c0.842,0.74,1.658,1.51,2.5,2.25c0.556,0.489,2.241-0.257,1.626-0.994c-1.013-1.213-2.207-2.22-3.391-3.26
				c-0.562-0.493-2.269,0.303-1.626,0.994c0.617,0.664,1.299,1.205,2.016,1.76c0.433-0.408,0.865-0.817,1.298-1.225
				c-1.021-0.389-1.97-0.902-2.938-1.404c-0.579-0.301-2.216,0.095-1.626,0.994c0.497,0.757,1.051,1.338,1.766,1.885
				c0.568,0.435,2.286-0.281,1.626-0.994c-0.866-0.935-1.424-1.826-1.404-3.141c-0.653,0.046-1.306,0.093-1.959,0.14
				c0.016,0.327,0.03,0.503,0.139,0.814c0.313,0.894,2.227,0.37,1.932-0.518c-0.29-0.872-0.212-1.354,0.014-2.186
				c-0.653,0.046-1.306,0.093-1.959,0.14c-0.042,0.167-0.083,0.333-0.125,0.5c-0.224,0.897,1.686,0.782,1.905,0.048
				c0.165-0.218,0.329-0.436,0.494-0.654c-0.16-0.336-0.32-0.672-0.48-1.009c-0.207,0.196-0.414,0.392-0.62,0.587
				c0.452,0.233,0.904,0.467,1.356,0.7c0.359-1.071,1.589-1.738,2.645-1.207c0.042-0.415,0.083-0.829,0.124-1.243
				c-0.5,0.28-1.038,0.442-1.612,0.487c0.117,0.434,0.233,0.869,0.349,1.303c1.634-0.931,3.865-0.96,5.639-0.422
				c0.125-0.445,0.25-0.891,0.374-1.336c-1.066,0.361-2.196-0.045-3.238-0.288c-0.772-0.18-1.972,1.058-0.886,1.375
				c1.439,0.42,2.93,0.482,4.375,0.875c0.295-0.458,0.591-0.917,0.886-1.375c-2.995-0.556-6.216-0.989-9.012,0.506
				c-0.659,0.352-0.749,1.156,0.1,1.296c2.827,0.469,5.565-0.716,8.375-0.25c0.138-0.478,0.275-0.956,0.413-1.434
				c-3.052,0.343-6.134,0.198-9.138,0.919c-0.831,0.2-1.122,1.182-0.15,1.39c2.335,0.501,4.672,0.36,7.012-0.038
				c0.875-0.149,1.079-1.179,0.15-1.39c-2.335-0.531-5.181-1.222-7.35,0.136c-0.293,0.184-0.439,0.583-0.239,0.882
				c1.825,2.728,4.382,4.929,6.891,7.01c0.483,0.401,2.005-0.038,1.708-0.823c-0.852-2.255-2.301-4.211-4.098-5.806
				c-0.449-0.398-1.731-0.051-1.722,0.634c0.039,2.829,1.89,5.36,3.987,7.12c0.572,0.479,2.166-0.185,1.626-0.994
				c-0.726-1.089-4.015-4.825-5.232-2.208c-1.124,2.417,3.301,4.416,4.274,1.63c0.373-1.066-1.562-1.063-1.851-0.235
				c-0.241,0.688-0.588-1.467-0.595-1.077c-0.017,0.906-1.013,0.039-0.019,0.869c0.625,0.522,1.204,1.202,1.656,1.88
				c0.542-0.331,1.084-0.663,1.626-0.994c-1.754-1.472-3.481-3.747-3.513-6.13c-0.574,0.211-1.148,0.423-1.722,0.634
				c1.586,1.407,2.901,3.207,3.652,5.194c0.569-0.274,1.139-0.549,1.708-0.823c-2.418-2.006-4.85-4.11-6.609-6.74
				c-0.08,0.294-0.16,0.588-0.239,0.882c1.323-0.828,3.992,0.066,5.4,0.386c0.05-0.463,0.1-0.926,0.15-1.39
				c-1.999,0.341-4,0.388-5.988-0.038c-0.05,0.463-0.1,0.926-0.15,1.39c2.821-0.678,5.744-0.508,8.612-0.831
				c0.835-0.094,1.625-1.233,0.413-1.434c-2.827-0.469-5.565,0.716-8.375,0.25c0.034,0.432,0.067,0.864,0.1,1.296
				c2.306-1.233,5.036-0.699,7.488-0.244c0.759,0.141,1.989-1.075,0.886-1.375c-1.443-0.392-2.941-0.456-4.375-0.875
				c-0.295,0.458-0.591,0.917-0.886,1.375c1.43,0.333,2.83,0.696,4.262,0.212c0.523-0.177,1.3-1.056,0.374-1.336
				c-2.39-0.726-5.4-0.682-7.611,0.578c-0.738,0.42-0.648,1.471,0.349,1.303c0.927-0.157,1.805-0.309,2.638-0.763
				c0.561-0.305,0.777-0.914,0.124-1.243c-1.93-0.972-4.914,0.232-5.605,2.293c-0.27,0.805,0.812,1.011,1.356,0.7
				c0.573-0.326,0.967-0.647,1.38-1.163c0.357-0.447,0.063-0.955-0.48-1.009c-1.417-0.14-2.582,0.422-3.006,1.846
				c0.635,0.016,1.27,0.032,1.905,0.048c0.042-0.167,0.083-0.333,0.125-0.5c0.24-0.961-1.729-0.707-1.959,0.14
				c-0.251,0.923-0.286,1.664,0.014,2.564c0.644-0.172,1.288-0.345,1.932-0.518c-0.037-0.146-0.074-0.291-0.111-0.436
				c-0.051-1.021-1.945-0.755-1.959,0.14c-0.024,1.572,0.538,2.717,1.596,3.859c0.542-0.331,1.084-0.663,1.626-0.994
				c-0.659-0.505-1.044-0.945-1.484-1.615c-0.542,0.331-1.084,0.663-1.626,0.994c1.095,0.568,2.158,1.156,3.313,1.596
				c0.655,0.25,2.171-0.548,1.298-1.225c-0.611-0.474-1.203-0.918-1.734-1.49c-0.542,0.331-1.084,0.663-1.626,0.994
				c1.085,0.953,2.181,1.877,3.109,2.99c0.542-0.331,1.084-0.663,1.626-0.994c-0.842-0.74-1.658-1.51-2.5-2.25
				c-0.495,0.376-0.99,0.752-1.485,1.129c1.314,0.856,2.513,1.738,3.484,2.99c0.542-0.331,1.084-0.663,1.626-0.994
				c-1.292-0.673-2.542-1.407-3.234-2.74c-0.479,0.363-0.959,0.727-1.438,1.09c1.128,0.428,2.128,0.985,2.797,2.019
				c0.542-0.331,1.084-0.663,1.626-0.994c-1.556-0.815-3.033-1.759-3.859-3.365c-0.479,0.363-0.959,0.727-1.438,1.09
				c1.685,0.474,3.417,1.454,4.297,3.019c0.479-0.363,0.959-0.727,1.438-1.09c-2.321-0.764-4.682-2.233-5.922-4.394
				c-0.479,0.363-0.959,0.727-1.438,1.09c1.51,0.547,3.498,1.417,4.214,2.973c0.507-0.307,1.014-0.613,1.521-0.919
				c-1.469-0.455-3.188-1.519-2.951-3.284c-0.512,0.244-1.023,0.487-1.535,0.73c0.914,0.244,1.355,0.839,1.326,1.784
				c0.512-0.244,1.023-0.487,1.535-0.73c0.082,0.03-1.326-0.94-0.874-1.039C121.022,56.408,120.644,55.061,119.444,55.323
				L119.444,55.323z"/>
		</g>
	</g>
	<g>
		<g>
			<path fill="none" d="M116.875,55.874c-0.5-0.125-0.625,0.5-0.125,1.25c-0.125-0.125-0.125-0.625-0.125-0.75
				c-0.125,2.5,3.5,4.375,4.875,4.75"/>
			<path fill="#FFFFFF" d="M117.489,55.432c-1.317-0.066-2.484,0.575-1.705,1.951c0.293,0.518,2.135-0.089,1.932-0.518
				c-0.115-0.242-0.122-0.485-0.125-0.75c-0.005-0.433-1.929-0.104-1.932,0.518c-0.01,2.495,2.935,4.28,5.056,4.899
				c0.432,0.126,0.971-0.021,1.357-0.223c0.186-0.097,0.65-0.466,0.212-0.594c-2.006-0.586-4.703-2.256-4.694-4.601
				c-0.644,0.172-1.288,0.345-1.932,0.518c0.003,0.265,0.01,0.508,0.125,0.75c0.644-0.172,1.288-0.345,1.932-0.518
				c-0.187-0.33-0.438-0.712-0.214-1.082c-0.128,0.113-0.257,0.226-0.385,0.338c0.047-0.023,0.094-0.047,0.141-0.071
				c-0.396,0.085-0.791,0.171-1.186,0.256c0.063,0.003,0.127,0.006,0.19,0.009c0.466,0.023,0.982-0.089,1.366-0.366
				C117.924,55.737,117.881,55.451,117.489,55.432L117.489,55.432z"/>
		</g>
	</g>
	<g>
		<g>
			<path fill="none" d="M153.375,41.249c-0.25-0.25-0.375-0.375-0.625-0.375c-1,2.625,1,7.75,3.75,8.625c0-1-3.5-6.375-4.875-5.5
				c-2,1.25,3,6.75,4.25,7c-0.75-2.125-3.125-5.625-5.125-6.5c-0.5,2.125,2,4.75,3.875,5.5c0.25-1.75-2.625-4.375-4-4.875
				c-0.25,1.125,2.75,5.875,4,4.75c1.375-1.375-3.375-5-4.25-5.375c-0.625,2.125,1.5,4,3,5c1,0.5,4.375,2.5,4.125,0.5
				c-0.125-1.125-4.5-4.375-5.5-3.125c-1.625,2,4.5,4.875,5.75,5c2.25,0.25,5.375-1,2.75-3.125c-1.375-1.125-5.875-1.75-5.625,0.875
				c0.375,5.75,17.5,0.75,7-4.875c-2.25-1.25-8-1.5-7.25,2.5c0.625,3.375,6.625,4.125,8.625,1.75c1.75-2.25-0.625-8.375-3.625-8.125
				c-4.25,0.375-1.625,7.375,0.625,8.625c4.125,2.25,6.375-2.375,6.5-5.75c0.125-4.5-2.5-3.875-3.375,0c-0.5,1.875,0,8.625,2.5,4.25
				c0.75-1.25,3.25-8.75,2-10.125c0-0.125-0.125-0.25-0.125-0.375c-2.375,1.25-3.875,6.125-3.875,8.625c0,4.875,3.125-0.5,3.75-2.25
				c0.5-1.75,2-7-1.125-6.625c-2.625,0.375-5,5.875-4.5,8.125c1.375,6.25,9.5-11.125,2.25-8.625c-2.25,0.75-6.5,7.125-5.125,9.625
				c1.625,2.625,5-4.75,5.5-6.125c1.375-4.125-1.5-3.375-3.5-0.875c-1.25,1.5-4,5.875-1.875,7.625c0.25-0.125,0.125-0.25,0.25-0.375
				"/>
			<path fill="#FFFFFF" d="M154.134,40.745c-0.208-0.125-0.417-0.25-0.625-0.375c-0.52-0.312-1.562-0.005-1.73,0.605
				c-0.901,3.268,0.784,7.622,3.962,9.027c0.49,0.217,1.871,0.027,1.725-0.763c-0.393-2.114-3.736-7.4-6.457-5.591
				c-2.908,1.935,2.365,7.186,4.289,7.926c0.385,0.148,1.803-0.192,1.543-0.835c-1.065-2.646-2.785-5.335-5.332-6.745
				c-0.445-0.247-1.687-0.051-1.73,0.605c-0.179,2.708,1.787,4.746,4.087,5.902c0.558,0.28,1.757-0.001,1.725-0.763
				c-0.096-2.264-2.276-4.203-4.207-5.12c-0.427-0.203-1.725-0.077-1.73,0.605c-0.013,1.896,2.613,6.504,5.054,5.275
				c3.337-1.68-1.874-5.601-3.574-6.506c-0.47-0.25-1.649-0.052-1.73,0.605c-0.391,3.195,5.837,9.291,8.842,6.135
				c1.747-1.835-4.848-6.252-7.034-4.071c-2.965,2.957,5.922,5.969,7.982,5.766c0.884-0.087,4-1.131,3.243-2.66
				c-0.941-1.9-3.16-2.787-5.246-2.595c-3.916,0.361-4.251,4.372-0.504,5.413c2.984,0.829,7.526-0.361,9.235-3.062
				c2.299-3.633-4.938-6.267-7.415-6.195c-1.817,0.053-3.511,0.494-4.594,2.038c-1.482,2.112,0.942,4.414,2.683,5.143
				c2.79,1.167,7.078,0.446,8.113-2.696c0.964-2.928-1.751-8.153-5.233-7.497c-7.153,1.348-0.122,15.195,6.313,8.625
				c1.667-1.702,3.646-8.451,0.008-8.946c-3.366-0.458-3.665,5.271-3.475,7.333c0.315,3.432,2.87,3.207,4.463,0.726
				c1.813-2.824,2.989-7.643,1.932-10.816c-0.2-0.601-1.217-0.334-1.582-0.091c-2.327,1.556-3.319,4.228-3.958,6.85
				c-0.275,1.131-0.942,4.949,1.221,4.722c3.479-0.366,5.372-6.998,4.982-9.832c-0.216-1.571-1.331-2.669-3.027-2.196
				c-2.278,0.636-3.758,2.608-4.587,4.758c-0.82,2.126-1.194,7.906,2.684,5.306c2.464-1.652,3.968-6.1,3.698-8.922
				c-0.388-4.051-5.697-0.848-6.995,0.584c-1.242,1.371-5.988,10.616-0.585,8.955c2.656-0.817,6.549-7.684,5.011-10.239
				c-1.687-2.802-10.761,6.264-7.219,10.261c0.39,0.44,1.335,0.188,1.68-0.188c0.164-0.179,0.278-0.305,0.371-0.528
				c0.392-0.941-1.542-0.777-1.818-0.114c-0.043,0.074-0.086,0.148-0.129,0.222c0.56-0.063,1.12-0.125,1.68-0.188
				c-1.331-1.501-0.404-3.388,0.379-4.916c0.329-0.643,0.755-1.236,1.174-1.823c0.88-1.231,2.463-1.365,1.959,0.488
				c-0.245,0.901-0.801,1.8-1.225,2.624c-0.26,0.505-2.034,3.924-2.523,2.662c-0.946-2.441,2.725-8.059,5.165-8.508
				c2-0.368,0.893,3.732,0.657,4.505c-0.09,0.296-2.174,4.64-2.445,4.337c-0.719-0.802-0.305-2.324-0.096-3.227
				c0.204-0.884,3.188-7.005,4.183-3.9c0.673,2.1-0.659,5.251-1.669,7.038c-1.615,2.854-0.86-0.582-0.582-2.085
				c0.399-2.154,1.364-4.688,3.249-5.947c-0.527-0.03-1.055-0.061-1.582-0.091c1.017,3.051-0.313,6.605-1.49,9.503
				c-0.808,1.989-0.979,0.232-1.098-1.073c-0.066-0.715-0.013-1.427,0.068-2.136c0.216-1.886,1.447-3.13,1.515-0.202
				c0.054,2.335-2.15,7.677-5.391,4.639c-1.207-1.132-1.771-2.952-2.026-4.535c-0.202-1.252,0.32-3.653,2.572-1.718
				c0.902,0.776,1.349,2.026,1.694,3.117c1.381,4.357-4.079,5.614-6.597,2.707c-1.221-1.41-0.305-3.27,1.605-3.501
				c1.163-0.141,2.439,0.192,3.48,0.693c1.363,0.657,3.282,1.9,3.164,3.631c-0.199,2.912-6.271,3.321-7.917,1.784
				c-0.696-0.649-0.843-2.317,1.001-2.255c0.695,0.064,1.353,0.254,1.973,0.571c-0.121,1.882-0.701,2.59-1.739,2.126
				c-1.675-0.51-3.459-1.594-4.592-2.916c-1.949-2.273,3.89,2.025,3.784,2.008c-2.587-0.428-5.777-3.076-5.443-5.805
				c-0.577,0.202-1.153,0.404-1.73,0.605c1.547,0.824,2.908,2.114,3.938,3.521c1.623,2.217-0.469-0.41-0.798-0.856
				c-0.524-0.711-1.167-1.717-1.16-2.645c-0.577,0.202-1.153,0.404-1.73,0.605c1.757,0.835,3.705,2.563,3.793,4.63
				c0.575-0.254,1.15-0.509,1.725-0.763c-1.953-0.981-3.82-2.719-3.663-5.098c-0.577,0.202-1.153,0.404-1.73,0.605
				c2.322,1.286,3.949,3.851,4.918,6.255c0.515-0.278,1.029-0.557,1.543-0.835c-1.805-0.694-3.58-3.399-4.217-5.097
				c-0.619-1.647,1.576,1.288,1.887,1.71c0.586,0.798,1.229,1.736,1.412,2.722c0.575-0.254,1.15-0.509,1.725-0.763
				c-2.887-1.277-4.351-5.276-3.538-8.223c-0.577,0.202-1.153,0.404-1.73,0.605c0.208,0.125,0.417,0.25,0.625,0.375
				C153.232,42.122,154.989,41.258,154.134,40.745L154.134,40.745z"/>
		</g>
	</g>
	<ellipse fill="none" stroke="#FFFFFF" cx="180.375" cy="47.749" rx="14.5" ry="15.25"/>
	<ellipse fill="none" stroke="#FFFFFF" cx="160.563" cy="43.062" rx="11.938" ry="10.188"/>
	<ellipse fill="none" stroke="#FFFFFF" cx="179.25" cy="48.624" rx="15.5" ry="16.625"/>
	<ellipse fill="none" stroke="#FFFFFF" cx="180" cy="49.062" rx="16.25" ry="16.438"/>
	<g>
		<g>
			<path fill="none" d="M172,53.624c-0.5,0.125,3,3,3.75,3.375c-1.625-1.5-4-2.5-6-3.625c1.875,1.5,4,2.625,5.875,4.125
				c-3.25-2.5-5.875-5.375-8.875-8.125c1.25,3,5.75,7.375,8.75,8.625c0-2-4.875-6.625-7-6.5c0.375,3.75,6.25,5.625,9.25,6
				s7.625-1.125,2.5-2.625c-2-0.625-7.375-0.375-5.25,3c1.75,3,8.875,2.25,11,0"/>
			<path fill="#FFFFFF" d="M171.026,53.713c-0.252,1.237,3.13,3.296,3.972,3.813c0.63,0.387,2.355-0.36,1.505-1.055
				c-1.835-1.501-3.925-2.502-6-3.625c-0.626-0.339-2.392,0.385-1.505,1.055c1.912,1.444,3.963,2.681,5.875,4.125
				c0.617,0.466,2.341-0.388,1.505-1.055c-3.098-2.471-5.845-5.31-8.739-8.007c-0.436-0.406-2.235-0.122-1.854,0.668
				c1.795,3.73,5.223,7.109,8.963,8.894c0.542,0.258,1.846,0.042,1.718-0.786c-0.468-3.035-4.587-6.627-7.618-6.892
				c-0.474-0.042-1.449,0.264-1.314,0.909c1,4.798,7.59,6.553,11.844,6.42c1.019-0.032,3.898-0.437,4.117-1.848
				c0.259-1.673-2.911-2.16-4.02-2.325c-3.241-0.483-8.446,1.777-4.476,5.232c2.996,2.607,9.106,1.271,11.797-1.121
				c0.88-0.782-1.018-0.998-1.594-0.485c-1.936,1.719-5.102,1.859-7.476,1.216c-1.009-0.273-4.037-2.943-0.765-3.528
				c0.884-0.158,1.855-0.049,2.719,0.164c4.022,0.994-1.118,1.397-1.583,1.366c-0.961-0.065-1.94-0.386-2.859-0.656
				c-2.513-0.738-5.2-2.202-5.773-4.953c-0.438,0.303-0.876,0.606-1.314,0.909c2.498,0.218,6.001,3.64,6.382,6.108
				c0.573-0.262,1.146-0.524,1.718-0.786c-3.514-1.676-6.837-4.825-8.537-8.356c-0.618,0.223-1.236,0.446-1.854,0.668
				c2.982,2.78,5.819,5.697,9.011,8.243c0.501-0.352,1.003-0.703,1.505-1.055c-1.912-1.444-3.963-2.681-5.875-4.125
				c-0.501,0.352-1.003,0.703-1.505,1.055c2.075,1.123,4.164,2.124,6,3.625c0.501-0.352,1.003-0.703,1.505-1.055
				c-0.627-0.385-3.653-2.323-3.528-2.937C173.156,52.646,171.188,52.921,171.026,53.713L171.026,53.713z"/>
		</g>
	</g>
	<g>
		<g>
			<path fill="none" d="M169.25,43.249c-1.625,0.25-1.25-1.125-0.875-2.125c1.5-3.5,5.5-6.25,9-7.25
				c-1.5,1.25-3.25,2.125-4.625,3.625c-1.375,1.375-2.5,3.125-4.125,4.125c1.875-3.25,9.75-8.875,13.625-7.5
				c-2.25,1.875-7.5,3.875-10.25,4.25c3.25-2.75,13.625-6.25,16.875-2.375c-1.875,1.625-9,0.5-10.5-1.375
				c2.75-1.5,11.875-0.125,13.625,2.75c1.25,2-0.875,1.75-2.25,1.125c-1.625-0.625-3.375-2-4.375-3.375
				c3.375,1.625,7.25,7.125,8.375,10.625c-2.375-1.125-4.375-5.25-5.125-7.75c2.375,2.5,4.875,9.25,3.25,12.375
				c-1.125-1.625-1.25-4.75-0.5-6.625c0.75,3.375-1.625,8.75-4.125,11c-3.5,3.125-7.625,1.5-11.75,1c2.375,1.125,6.25,2,8.875,1.5
				c-1-1.125-11-3-10.375-0.875c0.75,2.75,12,1.25,13.375-0.5c-1.125-1.125-5-1-5.875,0.5c1.125,1.375,3.25,1.125,4.875,1.125
				c-1.25,0-2.875,0-4.125,0.5c1.375,0.375,3.5-0.25,4.5-1.25c-0.5-0.5-0.875-0.5-1.5-0.125c3-0.25,5.5-5.375,6.375-7.75
				c1-3,1.25-6.375-0.125-9.125c0.375,2.625,2.75,4.75,2.375,7.5c-0.375,3-3.375,7.625-6.25,8.75c0.125-1.875,2.5-4.25,3.375-6
				c1-1.875,1.5-4.375,3-5.875c0.875,4.25-3,13.75-8,14.25c0.5-2.125,3.5-4.375,4.75-6.125c1.875-2.875,1.875-3.625,0.125-6.25
				c-2-3.25-6.125-14.875-11.75-12.125c3.25,1.5,8,1.25,10.75,3.5c-1.25,0.625-3.375,0.5-4.875,0.5"/>
			<path fill="#FFFFFF" d="M169.628,42.709c-2.316-0.228,2.245-5.15,2.104-5.001c1.613-1.71,3.849-2.702,6.022-3.445
				c-0.384-0.181-0.768-0.361-1.152-0.541c-3.144,2.389-5.663,5.379-8.75,7.75c0.557,0.056,1.114,0.112,1.671,0.168
				c0.932-1.399,2.101-2.487,3.379-3.558c0.926-0.735,1.9-1.396,2.923-1.983c0.941-0.575,7.178-2.414,1.75,0.057
				c-1.131,0.515-6.085,2.68-1.904,0.647c2.618-1.273,5.569-1.955,8.472-1.976c2.573-0.238,3.202,0.233,1.888,1.414
				c-1.028-0.003-2.042-0.112-3.044-0.327c-4.782-0.839-0.975-1.441,1.413-1.133c1.742,0.225,3.424,0.774,5.006,1.522
				c1.15,0.254,1.521,0.832,1.115,1.733c-1.735-0.62-3.073-1.923-4.248-3.288c-0.556,0.279-1.111,0.559-1.667,0.838
				c3.846,2.21,6.658,6.34,8.179,10.421c0.579-0.241,1.157-0.481,1.736-0.722c-2.648-1.682-3.965-4.681-4.929-7.546
				c-0.621,0.211-1.242,0.423-1.863,0.634c2.564,3.093,4.647,8.137,3.182,12.123c0.644-0.127,1.288-0.255,1.931-0.382
				c-1.048-2.136-1.138-4.168-0.5-6.49c-0.644,0.127-1.288,0.255-1.931,0.382c0.328,2.824-0.46,5.118-1.71,7.624
				c-2.752,5.516-8.001,4.281-12.606,3.599c-0.378-0.056-2.24,0.612-1.363,0.981c3.057,1.286,6.201,1.933,9.511,1.563
				c0.194-0.021,1.55-0.508,1.032-0.901c-1.29-0.979-13.633-2.917-12.238-0.241c1.999,3.835,12.52,1.755,15.114-0.606
				c0.229-0.209,0.272-0.439-0.003-0.615c-2.19-1.4-5.602-1.063-7.418,0.811c-0.11,0.113-0.329,0.375-0.125,0.528
				c1.732,1.299,3.219,1.319,5.395,1.29c0.252-0.36,0.504-0.72,0.756-1.08c-1.621,0.022-3.06,0.156-4.63,0.566
				c-0.65,0.169-1.285,0.92-0.251,1.014c2.101,0.19,3.764-0.281,5.475-1.511c0.257-0.185,0.583-0.514,0.173-0.742
				c-1.029-0.571-1.272-0.511-2.397-0.136c-1.122,0.374-0.92,1.252,0.254,0.948c6.77-1.75,9.347-11.834,7.089-17.608
				c-0.253-0.646-2.105-0.149-1.932,0.518c0.563,2.163,1.762,4.02,2.355,6.172c0.955,3.465-3.17,8.144-5.862,9.541
				c0.521,0.052,1.042,0.104,1.563,0.155c0.539-2.256,2.158-3.916,3.308-5.861c1.139-1.927,1.584-4.075,3-5.875
				c-0.622,0.081-1.243,0.162-1.864,0.243c0.599,4.534-2.103,12.478-7.161,13.517c0.364,0.117,0.728,0.234,1.092,0.351
				c1.055-2.574,6.678-6.171,6.172-9.479c-0.436-2.853-2.797-5.979-4.151-8.546c-2.139-4.056-5.168-8.614-10.241-6.74
				c-0.252,0.094-0.953,0.637-0.391,0.852c3.549,1.353,7.52,1.377,10.75,3.5c0.214-0.313,0.429-0.625,0.643-0.937
				c-1.442,0.361-2.899,0.506-4.37,0.434c-0.714-0.006-2.062,1.07-0.756,1.08c1.88,0.015,3.583,0.004,5.38-0.566
				c0.341-0.108,1.237-0.546,0.643-0.937c-1.3-0.854-2.462-1.311-3.93-1.756c-0.477-0.145-5.824-1.54-3.847-0.113
				c2.407,1.738,3.856,5.018,5.152,7.564c1.032,2.027,3.43,5.229,3.019,7.452c-0.596,3.219-4.739,5.353-6.005,8.44
				c-0.214,0.521,0.913,0.388,1.092,0.351c6.03-1.239,9.583-9.349,8.839-14.983c-0.094-0.714-1.635-0.048-1.864,0.243
				c-1.629,2.071-2.212,4.543-3.545,6.797c-1.051,1.777-2.407,3.166-2.897,5.217c-0.174,0.728,1.328,0.277,1.563,0.155
				c2.391-1.24,4.335-3.344,5.47-5.8c2.073-4.487-0.086-6.609-1.226-10.987c-0.644,0.172-1.288,0.345-1.932,0.518
				c1.19,3.045,1.008,5.882,0.125,8.99c-0.858,3.021-4.467,8.784-8.032,8.461c-0.083,0.338-0.167,0.676-0.251,1.014
				c1.207-0.145,2.414-0.29,3.62-0.434c0.708-0.01,2.06-1.098,0.756-1.08c-1.885,0.025-1.975-0.304-4.13,0.082
				c-2.04,0.365-4.158,0.441-6.198,0.063c-1.807-1.012-1.826-1.393-0.059-1.143c0.866,0.048,1.725,0.147,2.578,0.297
				c1.42,0.217,3.365,0.481,4.533,1.367c0.344-0.3,0.688-0.601,1.032-0.901c-2.921,0.326-5.579-0.317-8.239-1.437
				c-0.455,0.327-0.909,0.654-1.363,0.981c4.742,0.702,8.822,1.712,12.94-1.24c3.293-2.36,4.938-7.711,4.494-11.538
				c-0.079-0.684-1.794-0.118-1.931,0.382c-0.659,2.4-0.615,4.49,0.5,6.76c0.319,0.65,1.727,0.172,1.931-0.382
				c1.545-4.204-0.599-9.347-3.318-12.627c-0.352-0.425-2.078-0.002-1.863,0.634c1.039,3.086,2.498,6.161,5.321,7.954
				c0.36,0.229,1.968-0.099,1.736-0.722c-1.607-4.313-4.534-8.508-8.571-10.829c-0.408-0.234-2.183,0.24-1.667,0.838
				c1.548,1.8,4.242,4.314,6.884,3.976c1.29-0.166,2.744-0.969,1.536-2.477c-2.966-3.704-10.714-4.502-14.902-2.763
				c-0.206,0.086-0.842,0.463-0.518,0.764c2.764,2.571,8.737,3.273,11.995,1.278c0.18-0.11,0.548-0.421,0.3-0.654
				c-4.714-4.453-14.18-0.73-18.545,2.598c-0.597,0.456,0.234,0.752,0.639,0.678c3.973-0.725,7.892-2.224,11.157-4.624
				c0.345-0.254,0.183-0.59-0.18-0.671c-5.513-1.232-12.229,3.667-15.116,8.003c-0.545,0.818,1.38,0.391,1.671,0.168
				c3.101-2.381,5.6-5.356,8.75-7.75c0.863-0.655-0.821-0.654-1.152-0.541c-3.633,1.243-6.57,3.238-8.845,6.348
				c-1.291,1.763-1.701,3.718,0.721,3.956C169.602,43.861,170.93,42.837,169.628,42.709L169.628,42.709z"/>
		</g>
	</g>
	<g>
		<g>
			<path fill="none" d="M157.125,37.374c-2,0.125-2.375,8.5-1,9.875c1.25-1.375-0.25-6.75-1.375-8
				c-0.625,1.625-0.875,4.75-0.125,6.375c1.25,2.625,2.375,0,2.375-1.875c0.125-1.5-0.375-4.875-2.375-4
				c-1.625,0.75-1.875,4.25-1.25,5.625c1.5,4.125,4.125-2.875,1-4.875c-3.625-2.5-3.875,5.125-1.125,6.5
				c-0.125-1.375-1.5-3.375-2.75-4.125c-0.5,1.25,0.875,3,1.625,4c-0.75-1.125-1.625-2.25-2.375-3.375c0.25,1,0.75,2,1.25,2.875
				c-0.125-2.375-1.125-4.5-0.125-6.875c0.25,0.875,0,1.875-0.125,2.75c-0.125-1.125,0.25-2.5,0.875-3.625
				c-0.25,1.25-1.125,2.625-2,3.5c0.125-0.875,0.375-1.75,0.625-2.625c-0.375,1.5-0.25,3.125-0.5,4.625
				c-1.625-1.875,2.75-8.75,4.75-8.875c-0.25,1-1.125,1.875-2,2.375c0-1.375,1.5-2.5,2.5-3.125c-1.75,2.125-5.625,7.25-2.375,9.875
				c1.25-1.375,0.625-5,1.375-6.875c-0.125,0.875-0.5,1.875-1.25,2.5c-0.25-3.25,4.75-6.875,7.75-5.625
				c-0.75,1.125-3.375,1-4.25,0.25c1.625-1.5,4.75-1.125,6.75-0.5c-1.125-0.375-2.375-0.375-3.625-0.5c2.625-1,5.625,1.5,6.875,3.5
				c-0.5-0.375-1-0.875-1.5-1.375c0.875,1.375,2,2.625,2.625,4.25"/>
			<path fill="#FFFFFF" d="M156.985,36.851c-3.404,0.969-3.497,8.438-1.754,10.787c0.374,0.504,1.537,0.083,1.799-0.348
				c1.425-2.342,0.1-6.393-1.386-8.43c-0.401-0.549-1.693-0.046-1.863,0.499c-0.506,1.624-1.607,7.81,1.495,7.952
				c2.577,0.118,2.773-3.201,2.671-5.031c-0.375-6.735-8.812-0.951-5.191,4.099c2.414,3.367,6.371-4.1,2.382-6.367
				c-4.842-2.752-6.183,5.144-2.651,7.476c0.438,0.289,1.881-0.054,1.729-0.747c-0.403-1.836-1.461-3.239-2.953-4.354
				c-0.415-0.31-1.664,0.024-1.732,0.598c-0.205,1.728,0.705,2.939,1.7,4.278c0.417,0.562,2.267-0.083,1.788-0.777
				c-0.781-1.133-1.594-2.243-2.375-3.375c-0.351-0.509-2.081-0.03-1.86,0.647c0.333,1.025,0.739,1.926,1.25,2.875
				c0.355,0.661,2.014,0.268,1.932-0.518c-0.242-2.317-0.807-4.418-0.122-6.727c-0.645,0.123-1.29,0.246-1.935,0.369
				c0.102,0.878,0.059,1.745-0.128,2.602c0.646-0.074,1.292-0.147,1.938-0.221c-0.006-1.335,0.214-2.212,0.811-3.474
				c-0.625,0.023-1.249,0.046-1.874,0.069c-0.319,1.23-0.923,2.297-1.813,3.203c0.583,0.025,1.167,0.051,1.751,0.077
				c0.149-0.889,0.357-1.764,0.625-2.625c-0.646,0.074-1.292,0.147-1.938,0.221c-0.27,1.536-0.323,3.078-0.5,4.625
				c0.621-0.167,1.242-0.333,1.863-0.499c-1.194-1.966,1.882-7.477,3.996-7.963c-0.348-0.188-0.697-0.376-1.045-0.564
				c-0.568,0.698-1.136,1.396-1.704,2.095c0.526,0.07,1.052,0.141,1.578,0.211c0.327-1.234,1.04-2.131,2.14-2.693
				c-0.505-0.121-1.009-0.241-1.514-0.362c-2.199,2.717-5.497,7.129-2.364,10.305c0.447,0.453,1.488,0.125,1.799-0.348
				c1.359-2.072,0.755-4.728,1.439-7.026c-0.646,0.074-1.292,0.147-1.938,0.221c-0.354,0.734-0.709,1.468-1.063,2.203
				c0.583,0.025,1.167,0.051,1.751,0.077c0.034-0.99,0.321-1.766,0.838-2.604c0.705-0.953,1.6-1.682,2.686-2.188
				c1.645-0.376,1.568-0.696-0.229-0.961c-0.051,0.27-0.103,0.54-0.154,0.809c1.74-1.232,3.763-0.762,5.557-0.268
				c0.389-0.369,0.779-0.738,1.168-1.106c-1.288-0.297-2.521-0.421-3.843-0.529c-0.075,0.369-0.15,0.737-0.226,1.106
				c2.543-0.6,4.563,1.551,5.841,3.365c0.596-0.259,1.192-0.518,1.788-0.777c-0.531-0.424-1.031-0.883-1.5-1.375
				c-0.472-0.462-2.28,0.048-1.788,0.777c0.917,1.359,1.863,2.617,2.553,4.12c0.327,0.713,2.224,0.117,1.932-0.518
				c-0.727-1.582-1.726-2.94-2.697-4.38c-0.596,0.259-1.192,0.518-1.788,0.777c0.469,0.492,0.969,0.951,1.5,1.375
				c0.48,0.41,2.308-0.04,1.788-0.777c-1.904-2.704-4.587-4.419-7.909-3.635c-0.681,0.161-1.261,1.021-0.226,1.106
				c1.148,0.058,2.284,0.214,3.407,0.471c0.642,0.148,2.3-0.795,1.168-1.106c-2.701-0.743-5.563-0.954-7.943,0.732
				c-0.281,0.199-0.559,0.568-0.154,0.809c1.785,1.065,4.282,0.898,5.795-0.551c0.313-0.299,0.196-0.625-0.198-0.74
				c-3.901-1.135-9.157,2.072-9.303,6.289c-0.027,0.801,1.435,0.444,1.751,0.077c0.782-0.908,1.16-1.631,1.437-2.797
				c0.188-0.793-1.74-0.443-1.938,0.221c-0.642,2.158-0.039,4.785-1.311,6.724c0.6-0.116,1.199-0.232,1.799-0.348
				c-2.866-2.905,0.395-6.986,2.386-9.445c0.591-0.73-1.214-0.564-1.514-0.362c-1.392,0.936-2.511,1.868-2.86,3.557
				c-0.154,0.746,1.298,0.413,1.578,0.211c1.083-0.783,1.736-1.434,2.296-2.655c0.302-0.659-0.646-0.656-1.045-0.564
				c-3.082,0.708-7.333,6.777-5.504,9.787c0.319,0.525,1.798,0.071,1.863-0.499c0.177-1.547,0.23-3.089,0.5-4.625
				c0.146-0.829-1.758-0.436-1.938,0.221c-0.268,0.861-0.476,1.736-0.625,2.625c-0.163,0.804,1.48,0.387,1.751,0.077
				c1.018-1.166,1.727-2.315,2.187-3.797c0.232-0.749-1.632-0.44-1.874,0.069c-0.594,1.254-0.945,2.365-0.939,3.776
				c0.004,0.86,1.83,0.463,1.938-0.221c0.164-1.036,0.243-1.868,0.122-2.898c-0.089-0.764-1.779-0.155-1.935,0.369
				c-0.722,2.436-0.131,4.549,0.128,7.023c0.644-0.172,1.288-0.345,1.932-0.518c-0.51-0.949-0.916-1.85-1.25-2.875
				c-0.62,0.216-1.24,0.432-1.86,0.647c0.781,1.133,1.594,2.243,2.375,3.375c0.596-0.259,1.192-0.518,1.788-0.777
				c-0.851-1.146-1.733-2.183-1.55-3.722c-0.577,0.199-1.155,0.399-1.732,0.598c1.325,0.991,2.192,2.278,2.547,3.896
				c0.576-0.249,1.153-0.498,1.729-0.747c-1.708-1.127-2.06-3.947-1.247-5.703c0.516-1.116,2.024,2.237,2.083,2.602
				c0.043,0.564-0.001,1.119-0.135,1.665c-0.358,1.922-0.384,0.01-0.549-0.489c-0.408-1.234-0.059-2.808,0.479-3.941
				c0.637-1.341,1.331,1.87,1.371,2.154c0.071,0.501,0.139,4.242-0.686,1.789c-0.566-1.684-0.125-3.797,0.39-5.447
				c-0.621,0.167-1.242,0.333-1.863,0.499c1.252,1.716,2.557,5.611,1.364,7.57c0.6-0.116,1.199-0.232,1.799-0.348
				c-0.815-1.099-1.527-8.458,0.246-8.963C158.424,37.568,158.15,36.519,156.985,36.851L156.985,36.851z"/>
		</g>
	</g>
	<g>
		<g>
			<path fill="none" d="M118.5,55.749c2.625,0.125,5.625,0.75,8.125,0c-1.25-0.75-2.625-1.25-4-1.875
				c2-0.125,4.125,0.375,6.125,0.875c-2.125-1.125-4.5-1.75-6.75-2.25c2,0.625,4.25,0,6.375,0.625c-1-0.375-2.125-0.25-3.25-0.25
				c0.875,0.125,1.875,0.25,2.75,0.625"/>
			<path fill="#FFFFFF" d="M118.146,56.378c2.907,0.178,5.762,0.671,8.634-0.052c0.375-0.095,1.262-0.721,0.601-1.092
				c-1.29-0.723-2.649-1.278-4-1.875c-0.288,0.38-0.576,0.76-0.864,1.14c1.936-0.048,3.793,0.381,5.659,0.841
				c0.502,0.124,2.265-0.637,1.33-1.105c-2.207-1.105-4.531-1.781-6.932-2.326c-0.715-0.163-2.299,0.899-1.147,1.182
				c2.107,0.517,4.269,0.136,6.375,0.625c0.703,0.163,2.308-0.86,1.147-1.182c-1.162-0.322-2.271-0.306-3.47-0.288
				c-0.776,0.012-2.072,1.061-0.708,1.258c0.901,0.13,1.679,0.287,2.53,0.587c0.72,0.254,2.271-0.786,1.147-1.182
				c-0.974-0.344-1.952-0.516-2.97-0.663c-0.236,0.419-0.472,0.838-0.708,1.258c1.029-0.015,2.022-0.067,3.03,0.212
				c0.382-0.394,0.765-0.788,1.147-1.182c-2.11-0.49-4.279-0.112-6.375-0.625c-0.382,0.394-0.765,0.788-1.147,1.182
				c2.271,0.516,4.476,1.126,6.568,2.174c0.443-0.369,0.886-0.737,1.33-1.105c-2.192-0.541-4.325-0.966-6.591-0.909
				c-0.376,0.009-1.674,0.781-0.864,1.14c1.351,0.598,2.709,1.152,4,1.875c0.2-0.364,0.401-0.728,0.601-1.092
				c-2.5,0.63-5.087,0.103-7.616-0.052C118.011,55.069,116.836,56.298,118.146,56.378L118.146,56.378z"/>
		</g>
	</g>
	<path fill="#FFFFFF" d="M164,48.749c0,6.627,5.373,12,12,12h7.25c6.627,0,12-5.373,12-12v-4.25c0-6.627-5.373-12-12-12H176
		c-6.627,0-12,5.373-12,12V48.749z"/>
	<path fill="#FFFFFF" d="M148.5,43.124c0,5.73,4.645,10.375,10.375,10.375h5c5.73,0,10.375-4.645,10.375-10.375l0,0
		c0-5.73-4.645-10.375-10.375-10.375h-5C153.146,32.749,148.5,37.394,148.5,43.124L148.5,43.124z"/>
	<path fill="#E7EDF2" d="M150.375,48.374c0,0-1,0.625,2,2.375s3.75,2.375,6.625,2s3.75-0.25,5-1.25s2.875-2,2.875-2
		s-0.5,0,0.75,2.125s2.125,3.25,4.25,4.625s3.375,2.625,5.875,2.75s2.25,0.75,5.375-0.125s2.625,0.625,6-2.75s4.375-5.5,4.75-7.375
		s1.125-2.875,0-5.375s-1.375-4.5-3.375-5.75s-2.375-2.375-5-3s-4-1.125-5.125-0.875s-2.5-0.25-4.5,0.75s-2.5,1.25-4,2.125
		s-2.625,2.375-2.625,2.375s-1.5-2-1.75-2.375s-2.375-1.75-3.25-2.25s-2-1.25-3-1.5s-1.625-0.25-1.625-0.25l-0.625-5
		c0,0,1.625-0.5,3.75,0.125s13.875,0.25,13.625,0.625s11.125,0.375,11.125,0.375s9.5,2,9.875,2.625s4.25,13.25,4.375,14.125
		s-0.875,9-0.875,9.625s-1.375,9.625-1.375,9.625s4.75,9,5,9.5s5.625,15,5.625,15.625s-0.5,16.5-0.75,16.875s7.75,11.5,8.625,11.875
		s9.875-0.25,9.875-0.25s15.625-4.125,16.125-3.75s14.375-1.5,14.375-1.5l19.25,1.875l9.125-6.125l19-5.375l9.625-0.75l-0.75-6.375
		L335,93.624l9.125-3.5c0,0,7.125,4.875,7.25,5.375s4.25,14.5,4,15.5s-4,17.375-4,17.375l-12.25,9.75l-2.5,1.5
		c0,0,0.875,0.5,2.25-4.625s2.875-11,2.875-12.375s-1.75-6.625-2.875-8.375s-3.375-4.625-3.375-4.625l-0.75-0.125
		c0,0,0.125,5.75,0,6.875s-0.75,5.875-0.75,5.875s-3.75-8.625-4.125-9.375s-2.875-3.125-4-3.5s-3.125-1.5-4.375-1.375
		s-8,1.125-8,1.125l6.125,11.5L300,113.999c0,0-1.25,3.625-2.125,6.625s-1.125,4.375-1.875,6s-2.625,7-2.625,7s3.625,6.625,3.875,7
		s-8,9.875-8,9.875s3.625,3.75,3.375,4.125S283,165.374,283,165.374l-10.375,19.75c0,0-3.375,1.125-5.5,1.625
		s-10.75,0.875-10.75,0.875v-0.875l-5.625,0.125l-2.125-0.5l0.375-0.5l-1.5-0.125c0,0-0.25-1,0.75-1.75s2.625-3.125,3.75-3.875
		s2.75-1.875,4.75-2.125s5.5-0.375,7.5-0.375s3.5-0.125,3.5-0.125s3.875-5.75,4.875-8.375s1.5-3.625,3-7.125s2.75-6.375,3.25-8.5
		s2.375-10.125,2.375-10.125s-5.25-1.125-7.125-1.75s-12.625-4.625-12.625-4.625l-1.625,4.375l-4.125,0.375l-2,0.75l3,1.375
		c0,0-2.625,0.75-4.25,1.5s-4.75,1.5-5.75,1.75s-3.625,0.5-3.625,0.5l2,2.625c0,0-1.75,1.25-2.25,1.5s-4.25,0.5-4.25,0.5l-8,3.5
		l-5.375,4.75l-8.875,15.375L208,186.124l-10.875,0.75l0.625-1l-3.25,0.25l-2.625-0.5l-0.875-1l-1.625-0.125l-1.5-1.25
		c0,0,0.25-1.75,2.75-3.75s4.625-3.625,7.625-4.375s4-1.125,6.125-1s3.625,0.375,3.625,0.375s4.625-11,5.375-13
		s4.375-11.625,4.375-11.625s-2-6.125-2.125-6.875s-0.375,1.75-0.375,1.75s-2.25-2.25-3.5-3s-14.25-6.375-15.375-6.875
		s-6.125-2.5-7-3s-2.875-2.75-3.25-3.75c-0.276-0.735-0.687-4.784-0.885-6.874c-0.071-0.752-0.115-1.251-0.115-1.251
		s-0.375,1.125-1.125,1.375s-4.375-0.625-4.375-0.625s-0.375,0.125,2.375-3.375s6.25-8.375,8.125-11.875s3.875-8.125,4-12
		s-0.5-6.5-1.375-8.875c0,0-3.875-3.5-4.5-4.125s-10.125-6.5-10.125-6.5s-0.125,1.25-2.5,4s-2.25,2.625-4.5,4.625
		s-5.75,3.875-7,4.75S160,89.124,160,89.124l0.5,4.875c0,0-1,0.875-2.625,0.75s-3-1.375-3.875-1.75s-1.375,0-1.375,0
		s-0.25,1-1,2.125s-1.25,1.75-2.125,1.75s-2.875-2-2.875-2s-0.25-2.25-0.375-3.125S146,94.624,146,94.624l-1.25,0.375l-1.125-0.375
		l-1-1.5l-0.5-2.25L142,85.624c0,0-3,0.625-4.75,0.625s-6.875-0.5-8.125-2.25s-1.25-1.75-1.25-1.75s-1.75-0.125-2.375-0.125
		s-5.25-2.125-6.375-2.75s-3.625-4.375-4.25-5.125s-1-2.625-1-2.625l0.625-9l1.75-3.625c0,0,2.5,2,3.625,2.75S124,63.124,124,63.124
		s1.125,0.25,3.75-1.125s8.875-6,8.875-6l-8.375-3.75l-0.625-0.625h3.875l1.5-0.75L150.375,48.374z"/>
	<path fill="#E7EDF2" d="M211.75,1.999c0,0-3.25,7.875-4.5,10.875s-5.25,11.625-6.375,13.25s-3.125,2.5-3.125,2.5l10,12.625
		l6.75-8.25c0,0,1.375-14.625,1.375-15s-2.125-10-2.125-10l-1.875-6.5"/>
	<path fill="#E7EDF2" d="M172.75,3.499l6.375,4.625c0,0,4.625,3,5.25,4.125s3.75,6,3.75,6s1.125,4.25,1.375,5.125s0.5,4.25,0.5,4.25
		l-15.75-0.125l-2.125-1.125l1.75-4.375c0,0,0.375-4,0.375-5.75s0.25-6.875,0.25-6.875L172.75,3.499z"/>
	<path fill="#737679" d="M159.5,27.999c0,0,2.5,0.25,3.625,1.375s5.875,3.5,5.875,3.5s3.75-1.125,6.625-1.75s3.125-1.25,7.75-1.25
		s8.5,0,10.625,2.125s4.25,5.625,4.75,9.25s0.625,20.75,0.625,20.75l-18.625,0.625c0,0,1.125,0.375,6.375,2s7,2.25,10.125,4.5
		s5.625,5,6.625,8.125s2.625,8.875,2.75,12.5s0.25,4.25-0.5,10.875s-1.375,9.25-0.5,13.625s2.75,8.875,2.75,8.875s-0.5-3.375,0.25-6
		s1.75-3.5,1.75-3.5s-0.375,4,2.625,7.625s11,7.75,11,7.75l-1.25-3.625c0,0,1.625,2.125,4.75,2.25s8.75-0.25,8.75-0.25
		s-2.75-1.75-3.75-3.25s-1-1.5-1-1.5s0.875,0.75,3.875,0.875s6.125,0.125,11.875-1.75s7.375-3,12.625-3.5s5.375-1.25,11.875-0.875
		s14.25,3.125,14.25,3.125s-2.125-3.5-3.25-5.375s-0.875-4.5-1-4.125s-1.125-0.375,3.375,1s5.875,2.375,8.875,4.125
		s4.875,2.625,4.875,2.625s0.25,0.5,0.875-2.375s0.5-5.5,0.5-7s0.125-2.625,0.125-2.625s-3.125,0.5,4-0.75s13.875-2.125,16-2.125
		s-2-2.125-3.75-2.5S316,99.499,316,99.499s0.75-1,5.25-1.875s5.5-1.25,10.625-1.125s8.5,1.75,10.875,2.625s3.875,2,3.875,2
		s0.625-1.25-0.625-3.75s-1.875-3.875-1.875-3.875s1.375-0.375,3,2.375s3.75,5.125,4.125,9.25s0.375,8.375,0.125,10.5
		s-1.125,4.5-2.25,7.5s-3.875,7.375-5.75,9.875s-6.5,6.75-6.5,6.75s7.25-4.625,10.625-7s5.5-3.75,7.375-6.125s3.5-5,4.125-7
		s1.25-7.75,1.25-9.875s0.25-3.375,0-5.125s-1.25-7.5-1.25-7.5l-1.25-3.625l6.25,7.875c0,0,0.375-5.375-0.125-8s-1.125-7-2.625-8.75
		s-3.25-4.125-4.75-5.125s-4.375-2.875-6.25-3.75s-5.75-2-6.5-2.125s-2.875-0.25-2.875-0.25s0.625-0.875,2.375-2.25
		s4.875-3.625,4.875-3.625s-3.75-0.375-7.625,0.875s-9.75,3.75-12.25,5.25s-7.125,4.5-10.5,8.25s-5.5,6.75-7.5,8.875
		s-5.5,4-8.625,5.875s-5.5,3-6.375,3.125s-3.25-1.125-5.25-1s-4,0.125-4,0.125s-0.125-0.5,1.875-1.625s5.25-2.875,5.25-2.875
		s-0.75,0-3.25,0.5s-3,0.25-5.625,0.75s-5.375,0.875-6.5,1s-1.125,0.125-1.125,0.125l3-3.875c0,0-1.625-0.25-3.25,0.5
		s-5.25,1.5-6.875,2.875s-2.25,1.875-2.25,1.875s-0.375,0-0.25-1.25s0.25-2,0.25-2s0,0.625-2.125,1.875s-5.625,1.75-6.5,2
		s-0.875,0.25-0.875,0.25s1.75-0.5,3-2.375s2-3.625,2-3.625s-1.25,0.875-4.125,2s-5.125,1.375-6.875,1.875S247,97.999,247,97.999
		s1.75-1.375,3-3.125s3.375-6.375,3.375-6.375s-0.625,0.75-3,2.375s-6.75,3.125-9,3.5s-6.875,0.625-6.875,0.625
		s1.125-0.25,2.375-1.375s3.375-4.125,3.375-4.125s-4.875,1-6.375,1.25s-3.5,0.25-3.5,0.25l2-1.75c0,0-2.5-0.375-5.125-1.875
		s-5.25-3.25-6.75-4.125s-5-5-5-5s-0.125-0.375-0.375-2.875s-1-4.875-1.625-5.875s-1.875-3.875-1.875-3.875s2.375,0.75,4.625,2.875
		s4.25,5.25,4.25,5.25s0.125-2.875-0.625-4.75s-1-3.5-2.75-5.625s-4.875-5.75-4.875-5.75s0.875-0.625,4.5-0.125
		s4.875,0.625,6.375,1.25s2.125,1.125,2.125,1.125s-0.875-2.375-2.75-4.25s-3.125-3-5.375-4.5s-4.5-3.125-5.375-3.125
		s-0.875,0-0.875,0s1.25-0.375,2.875-3s2.5-4.875,3.375-7s1.25-3.25,1.25-6s-0.125-16.75-0.125-16.75s-0.625-3.875-2.125-6.75
		s-4.5-7.875-4.5-7.875s-0.75-0.25-0.125,2.5s1.625,7.5,1.625,7.5s0.625,5,0.625,7.25s0,4.375-0.25,6.625s-0.75,5.375-1.625,7.5
		s-0.75,2.625-2.25,4.875s-2.125,3.375-2.125,3.375l-8.125-11.75c0,0-3-1.75-6.375-1.875s-10.875-0.5-13-0.375
		s-10.75-0.625-11.25-0.5S159.5,27.999,159.5,27.999z"/>
	<path fill="#737679" d="M194.375,134.249l4.375,16.375l-8.5,19.875c0,0-5,0.625-6.625,0.875s-4.25,0.75-6,2.125s-6,5.125-6,5.125
		l3,2.125l-0.375,0.75l13.375,0.875c0,0,4.75-4.875,7-5.625s4.625-2,4.625-2s0.75-2.375,1.875-4.75s3.25-6.625,3.625-6.875
		s2.5-1.125,2.5-1.125l7.625-4.5l2.125-5.5c0,0-0.5,0.625-1.25-1.5s-1.75-7-1.75-7s-3.125-3.125-4.25-3.875s-7-3.75-7-3.75
		L194.375,134.249z"/>
	<path fill="#737679" d="M255.5,142.124c0,0,0.75,2.5,0.125,5.625s-4.125,12.125-5.25,14.875s-5.5,10.5-6.125,11.375
		s-0.625,0.875-0.625,0.875s-6.25,0-7.875,0.125s-3.25-0.25-4.375,0.75s-5.5,6-5.5,6l1.375,0.375l-0.125,0.625
		c0,0,2.25,0.125,3.25,0.25s3.75-0.125,3.75-0.125l-0.75,1.375c0,0,3.125,0.125,4.625,0.125s5.375-0.625,6.875-1.125
		s3.125-1.125,3.125-1.125s5-7.125,7.125-10.125s4.375-6,6.625-8.875s3-3.625,5.375-5.875s9.25-9.375,9.25-9.375l-9.125,2
		l8.375-7.625c0,0-6.5-2.25-8.25-3.25s-6.125-4.125-6.125-4.125l-2,1.375l2.375,0.625c0,0-1.25,1.625-2.375,2.625
		s-3.75,2.25-3.75,2.25"/>
	<path fill="#A1A5A9" d="M236,130.249c0,0-2.5,1.375-3.875,3.375s-2.625,5.5-2.875,8.625s-0.5,9.25-0.5,9.25l-6.125,0.375
		l4.25,4.375l0.75,1.375c0,0-0.75-0.375-2.375-0.125s-3.875,1.875-5.5,3.25s-3.25,3.875-4.5,7.5s-1.75,7.75-2.875,9.75
		s-1.625,3.75-3.25,5.375s-5.375,3.75-5.375,3.75s8.75-1.625,9.375-2s1.125-0.875,3-4.375s3-5.75,4.75-9s1.625-5.125,3.75-6.375
		s14.75-8.875,14.75-8.875l-4.875-2.5h5.75c0,0-2-1.25-2.75-3.5s-1.875-3.25-1.875-5.25s0-7.25,0-8.125S236,130.249,236,130.249z"/>
	<path fill="#A1A5A9" d="M296.875,117.874c0,0-0.125,0.75-2.25,2.375s-7.375,5.25-8,6.625s-1.75,3.25-1.25,6.25s0.875,4.125,2.5,6
		s4,3.875,4,3.875l-7.25,9.625l3.125,0.125c0,0-3.125,3.375-5,5.875s-3.5,5.25-5.125,8.125s-3.75,7.625-5.125,10.375
		s-5.625,9.375-5.625,9.375l5.125-1.375c0,0,4.5-6.5,6.875-9.75s7-10.375,10.5-13.75S304,147.249,304,147.249l-10.875,2.875
		l8.5-7.625l-7.5-10.875c0,0,2.5-5.5,3.25-7.5s1.875-4.875,1.875-4.875L296.875,117.874z"/>
	<path d="M120.834,51.916c0.25-0.25,3.667,0,5.667,0.75s2.333,1.833,2.333,1.833s-6.5,0-6.75,0.083s-0.833,0.417-1.583,1.167
		s-0.833,1.333-0.25,2.083s5,4.667,5,4.667s3.167-0.583,5.167-1.667s8.167-5.25,8.167-5.25s-6.417-2.583-7.75-3
		s-2.667-1-3.333-0.917s-6.5-0.167-6.5-0.167"/>
	<ellipse fill="none" stroke="#000000" stroke-width="0.75" cx="180.459" cy="46.457" rx="13.708" ry="12.625"/>
	<path fill="none" stroke="#000000" stroke-width="0.75" d="M149.917,48.582c-0.25,0.083-13.5,2-16.75,2.5s0.5,0.667-4.667,0.667
		c-1.106,0-2.105,0.007-3,0.022c-0.088,0.001-0.175,0.003-0.261,0.004c-0.505,0.009-0.976,0.021-1.413,0.034
		c-2.259,0.069-3.596,0.195-4.077,0.355c-0.75,0.25-2.833,1.167-3.583,2.167s0,4.833,0,4.833s2.334,1.333,3.667,2.333
		s3.917,1.5,3.917,1.5s3.167-0.583,6.917-2.417s7.5-4.917,7.5-4.917s-4.667-2.083-6.917-2.583s-3.5-0.583-4.5-0.75
		s-2.833-0.25-2.833-0.25"/>
	<path fill="none" stroke="#000000" stroke-width="0.75" d="M116.167,59.165c-0.167,0.25-1.833,2.917-2,4.167
		s-0.083,9.167-0.083,9.167s0.833,2.417,2,3.917s3.5,3.583,5.583,4.5s4.083,1.5,6.75,1.5s12.333-0.249,14.917-0.416
		s7.833-1.333,10.917-2.5s7.167-2.916,9.333-4.834c2.167-1.917,4.5-5.583,4.5-6.583s-0.083-1.5-0.083-1.5"/>
	<path fill="none" stroke="#000000" stroke-width="0.75" d="M123.75,62.999c0,0-0.083,7.333,0.333,10.167
		c0.417,2.834,1.5,6.166,2.333,7.5s1.667,3.166,3.75,4.25s5.583,1.584,8.25,1.417S142,85.999,142,85.999s0.084,3.666,0.167,5.166
		s1.417,3.834,1.917,4.084s1.75-0.417,1.917-0.917s0.083-3.167,0.083-3.167s0.417,3.334,1,3.917s1.25,1.583,2.417,1.5
		s2.5-1.25,2.667-2s0.5-1.667,0.5-1.667s0.917-0.083,1.667,0.417s2.083,1.167,3.5,1.167s2.5-0.25,2.5-0.25l-0.25-5.167
		c0,0,0.5,0,2.75-1s3.917-1.916,5.25-3.083s4.417-3.167,5.5-4.417s2.916-3.084,3.333-3.917S178,74.499,178,74.499
		s2.75,1.25,5.167,2.833s3.75,2.167,5.75,3.75s5.25,4.917,5.25,5.75s0.084-4.584-0.333-7.167s-1.667-6-1.667-6s2.917,1.583,5.583,4
		s4.584,3.751,6.417,5.834s3.083,5.5,3.083,5.5s0.833-3.001,0.75-6.834s-0.166-8.333-0.916-9.5s3.916,2.083,5.166,3.667
		s2.833,3.251,2.75,4.167s0.334-4.666,0.084-7.083c-0.25-2.417-1.917-5.917-3.167-7.417s3.501,1.833,5.667,4
		s2.916,3.167,2.916,3.167s-0.083-4-1.333-6.667s-6.833-8.917-6.833-8.917s8.666,0.167,10.666,1s2,0.833,2,0.833
		s-3.417-5.583-6-7.417s-6.083-3.75-7.25-4.083s-0.75-0.25-0.75-0.25s3-2.333,4.5-5.75s2.666-6.5,2.583-9.083
		s0.167-16.417,0.167-16.417s-0.501-3.25-2.167-7.583s-4.75-8-4.75-8s-0.832,4-2.749,8.75s-2.583,6.667-4.5,10.083
		s-4,8.083-4.917,8.25s-0.917,0.167-0.917,0.167s-1.5-1-6.417-1.5s-15.667-0.917-18.417-0.833s-3.833-0.167-8.167,0.833
		S159,27.999,159,27.999l0.417,4.417"/>
	<path fill="none" stroke="#000000" stroke-width="0.75" d="M172.834,25.499c0,0,1-3.083,1.083-7.25s0.5-8.833,0-10.5
		s-0.5-3.583-1.083-4.333s-0.583-0.75-0.583-0.75s1.417,0.583,5.5,4.083s4.583,2.75,6.75,5.917s3.833,5.583,4.333,7.333
		s0.75,6.5,0.75,6.5"/>
	<path fill="none" stroke="#000000" stroke-width="0.75" d="M192.334,83.999c0,0,1.667,4.667,1.75,7.5s-0.917,7.916-2.083,10.333
		s-4.75,8.667-6.333,11s-6.333,8.083-6.333,8.083s1.25,0.583,2.75,0.5s3.167-0.583,3.167-0.583"/>
	<path fill="none" stroke="#000000" stroke-width="0.75" d="M185.167,119.415c0,0-0.25,4.334,0.083,5.834s0.417,3.666,2.75,5.583
		s2.75,2.75,7.917,4s4.584,0.417,8.167,2.167s3.582,1.417,6.416,3.5s4.5,3.833,4.5,3.833s-0.166-2.917-0.166-3.75
		s-1.584-1.917-1.584-1.917"/>
	<path fill="none" stroke="#000000" stroke-width="0.75" d="M215.375,77.874c0,0,1.25,2.75,4.125,4.625s9.5,5.625,11,6.25
		s1.5,0.625,1.5,0.625s-1,1-1.625,1.375s2.25,0.125,2.25,0.125s2.625-0.125,4.875-0.5s2.25-0.375,2.25-0.375l0,0
		c0,0-2,2.375-2.875,3.375S235,94.999,235,94.999s2.125,0.25,4.125-0.25s5.25-1.25,7.75-2.25s6.125-3.25,6.125-3.25
		s-2.5,5.25-3.125,6s-2.625,2.625-2.625,2.625s6.25-1.25,9.5-2.25s5.875-2.125,5.875-2.125s-0.25,1.25-2.125,3.125
		s-2.375,2.25-2.375,2.25s4.375-0.375,6-1.5S267,94.999,267,94.999s0,2.5,0.125,3.5"/>
	<path fill="none" stroke="#000000" stroke-width="0.75" d="M248.125,185.874l-1.25-0.5c0,0,2-2.125,3.75-4s3.625-2.625,5-3
		s11.75-0.75,11.75-0.75s3.375-5.375,4.875-8.25s3.875-8.875,5.125-12s3.625-13.5,3.625-13.5s-3.875-1-6.125-1.875
		s-6.375-2.375-9.625-4.125s-5.125-3.75-7.5-6.25s-4.25-5.875-4.625-7.375s0.125-8.125,1.75-11.75s4.75-7.375,7.125-9.875
		s6.125-5.25,9.125-7s7.5-2.75,8.125-2.625l-2.875,3.75c0,0,2.125-0.25,6.25-1s10-1.125,10-1.125h0.625c0,0-3.875,1.625-5.375,2.75
		s-2.625,1.75-2.625,1.75s3.25-0.375,5.75,0s3.625,0.625,5,1.5s4,3.25,4.25,5.125s0.25,1.875,0.25,1.875"/>
	<path fill="none" stroke="#000000" stroke-width="0.75" d="M256,186.999c0,0-2.75,0.25-4.625,0.25s-3.25-0.75-3.25-0.75
		s1.5-2.25,3.25-3.875s4.125-3,4.125-3"/>
	<path fill="none" stroke="#000000" stroke-width="0.75" d="M261.125,182.124"/>
	<path fill="none" stroke="#000000" stroke-width="0.75" d="M261.125,182.124c0,0-5.5,5.125-5.5,5.625s2.375-0.25,5.125-0.25
		s6.875-0.5,8.5-0.875s3-1,3-1s3.5-5.875,6.625-10.125s7.375-10.75,10.25-13.5s14.25-14.375,14.25-14.375s-2.5,0.25-5,1.125
		s-4.875,1.375-4.875,1.375l8.25-7.75l-7.875-10.375c0,0,2.625-5.375,4.125-10s2.375-9.25,2.5-11.125"/>
	<path fill="none" stroke="#000000" stroke-width="0.75" d="M295,99.749c0,0,2.75-1,6.125-2.625s7.875-4.5,10-7.375
		s5.25-6.625,8.875-10s10.125-7.375,13.125-8.5s6.625-2.5,9.375-3s5.875-0.75,5.875-0.75S344.5,69.874,343,71.374s-1.5,1.5-1.5,1.5
		l0,0c0,0-0.5,0.125,3.25,1s3.125,0.625,8,3.25s5.375,4,7.5,6.5s2.875,6.625,3.375,9s0.375,8.375,0.375,8.375s-3-3.625-4-5
		s-2.375-2.75-2.375-2.75s1.375,2.75,1.75,5.375s1.5,10,0.875,15s-2.25,9.875-5.125,13s-8.75,7-11.25,9s-7.25,4.25-7.25,4.25
		s1.75-3.625,3-7.375s2-9,1.875-11.125s-4-10.375-5-11s-1-0.625-1-0.625l-0.625-0.25c0,0-0.5,10.25-0.75,11.375
		s-0.25,1.125-0.25,1.125s-3-7.25-4.25-9.25s-2.625-3.125-4.125-3.75s-4.5-1.375-6.625-1.125s-5.5,1.375-5.5,1.375l6,11.125
		c0,0-9.5-4-11.375-4.625s-7.5-1.75-7.5-1.75"/>
	<path fill="none" stroke="#000000" stroke-width="0.75" d="M213,129.499c0,0,1.5,9.875,2.25,12.5s2.25,7.875,2.25,7.875
		s-4.125,11.5-5.125,13.5s-4.75,11-4.75,11s-4.25-0.5-6.625,0s-7.125,2.375-8.875,3.75s-4.5,4.25-4.625,4.875s0.625,1.125,1.125,1.5
		s2.625,0.375,2.625,0.375"/>
	<path fill="none" stroke="#000000" stroke-width="0.75" d="M197.5,185.999c0,0-3.25,0.375-5.125,0S191,184.124,191,184.124
		s0.75-1.5,2.25-3.125s4.5-2.625,4.5-2.625"/>
	<path fill="none" stroke="#000000" stroke-width="0.75" d="M203.625,179.874c0,0-2.75,1.75-4,3.125s-3.125,4.125-2.125,4.25
		s6.375-0.125,6.375-0.125s7.625-1.125,9.25-2s6.375-10.125,6.375-10.125s3.25-8.25,5.125-9.625s14.75-8.75,14.75-8.75
		s-4.625-3-4.875-2.625s5.375-0.125,5.375-0.125s-1.375-0.75-2.375-3.375s-1.625-4.875-1.75-6.625s-0.5-8.875-0.25-10"/>
	<path fill="none" stroke="#000000" stroke-width="0.75" d="M194.25,134.374c0,0,2.125,5.625,2.625,9s1.625,7.25,1.625,7.25
		s-3.875,8.75-5.25,12.5s-3,7.5-3,7.5s-6.125,0.375-8.625,1.125s-5.875,2.625-7.25,4s-2.875,3.125-2.875,3.125
		s1.875,1.5,2.625,1.625l0.75,0.75"/>
	<path fill="none" stroke="#000000" stroke-width="0.75" d="M181.25,174.749c0,0-2,0.625-3.5,2.125s-3.5,4.875-3.5,4.875
		s0.875,0,3,0.25s10.375,0.25,10.375,0.25"/>
	<path fill="none" stroke="#000000" stroke-width="0.75" d="M181,181.999c0,0,3.375-4.5,4.375-5"/>
	<path fill="none" stroke="#000000" stroke-width="0.75" d="M198.875,175.124c0.125-0.5,1.75-4.625,2.75-6.25
		s3.125-5.625,3.125-5.625l10-5.75l0.25-3.25"/>
	<path fill="none" stroke="#000000" stroke-width="0.75" d="M213.25,154.249"/>
	<path fill="none" stroke="#000000" stroke-width="0.75" d="M213.75,143.499c0,0,1.25,4.5,1.625,5.75s1.5,2.75,1.5,2.75"/>
	<path fill="none" stroke="#000000" stroke-width="0.75" d="M238.875,152.499c0,0,2.875-0.125,4.25-1s2-1.375,2-1.375l-2.375-2.25
		c0,0,3.5-0.625,5.75-1.125s8.125-3,8.125-3l-3.125-1c0,0,3.875-1.75,5.125-2.75s3-3.375,3-3.375l-2.75-0.375l1.875-0.875"/>
	<path fill="none" stroke="#000000" stroke-width="0.75" d="M255.375,141.874l0.75,2c0,0-1.125,6.625-1.875,8.875
		s-4.75,12.375-6,14.875s-4.625,7.5-4.625,7.5s-3.375-0.375-6.25-0.25s-5.25,0.125-6.875,1.5s-5,5.625-5,5.625l1.875,0.375"/>
	<path fill="none" stroke="#000000" stroke-width="0.75" d="M232.625,177.249c0,0-5.875,5-5.5,5.5s4.5,0.375,4.5,0.375l2.375-0.125"
		/>
	<path fill="none" stroke="#000000" stroke-width="0.75" d="M238.25,178.874c0,0-2.75,2.125-3.5,3.125s-1.25,2.25-1.25,2.25
		s6.125,0.25,8.25-0.125s6.125-1.75,6.125-1.75s3.25-4.625,5.75-8.125s7.875-11.5,10.75-14.25s11.875-12,11.875-12l-8.5,1.875
		c0,0,2.5-2.25,4.25-3.875s3.625-3.75,3.625-3.75"/>
	<path fill="none" stroke="#000000" stroke-width="0.5" d="M211.375,2.249c0,0,1.625,7.875,1.75,10.5s0.5,5.75,0.375,10.25
		s-1.75,9.375-2.75,11.875s-3,5.375-3,5.375"/>
	<path fill="none" stroke="#000000" stroke-width="0.75" d="M167.145,48.764c-0.16-1.084-0.366-2.168-0.311-3.266
		c0.024-0.468,0.122-0.915,0.252-1.348c0.053-0.33,0.13-0.653,0.235-0.969c0.005-0.425,0.054-0.85,0.191-1.262
		c0.083-0.25,0.167-0.5,0.25-0.75c0.245-0.735,0.639-1.382,1.123-1.934c-1.518-3.787-5.399-6.487-9.968-6.487
		c-5.891,0-10.667,4.477-10.667,10s4.776,10,10.667,10c3.343,0,6.307-1.458,8.262-3.714
		C167.166,48.944,167.153,48.854,167.145,48.764z"/>
	<ellipse fill="#0092FF" cx="172.375" cy="46.957" rx="5.125" ry="5.208"/>
	<ellipse fill="#0092FF" cx="152.709" cy="43.291" rx="3.958" ry="3.625"/>
	<ellipse fill="#00426B" cx="171.792" cy="47.041" rx="2.125" ry="2.042"/>
	<ellipse fill="#00426B" cx="152.126" cy="43.291" rx="1.458" ry="1.375"/>
	<ellipse fill="#FFFFFF" cx="174.667" cy="44.166" rx="1.333" ry="1.25"/>
	<ellipse fill="#FFFFFF" cx="170.167" cy="49.416" rx="1" ry="0.917"/>
	<circle fill="#FFFFFF" cx="154.084" cy="41.416" r="1.083"/>
	<ellipse fill="#FFFFFF" cx="150.501" cy="44.957" rx="0.667" ry="0.542"/>
</g>
<g id="frame2">
	<path fill="#E7EDF2" d="M90.375,78.249l-19,13.375L62.5,101.749c0,0-1.125,6.5,0.375,9.125s5.5,8.375,8.875,9
		s9.875-0.25,9.875-0.25s-1.125-0.25,0.5,0.375s6,1.5,7.875,0.875s4.625-2.75,4.625-2.75L97,115.749c0,0,0.125,2.25,0.625,3.75
		s1.125,2.125,1.75,3.625s1.25,2.375,2,2.5s1.875-0.75,2-1.375s0.125-0.625,0.125-0.625s0.125,0,1.25,0.375s2.875,0.875,2.875,0.875
		s0.625-0.375,1.125-1.125s0.5-1.625,0.5-1.625l-0.125-3c0,0,0.875,0.375,2.875,0.25s4-1.25,4-1.25l-1.875-4.75c0,0,0.375,0,3-3
		s5.375-6.875,6-8.5s2.625-8.5,2.625-8.5l8.125,0.5l4.75,3.5v12l2.25,0.125c0,0-0.25,2-1.25,3.375s-3.5,2.75-3.5,2.75l6.375-0.25
		c0,0-0.125,1.5,0.125,3.625s0.875,3.5,1.375,4.5s0.875,1.625,0.875,1.625s-13.75,10.75-14.125,11s-8.375,7.625-8.375,7.625
		l-0.875,3l0.625,1.5l-1.375,2.125c0,0,0,4.75,0.25,6.75s-0.375,3.625,1.875,4s4.25,0.125,6.375-1.125s5.625-6.875,5.625-6.875l6-8
		c0,0,7-0.375,7.75,0.125s15.375,4.25,16,4.125s22.125,3,22.125,3l5.5-5.25l4.875-0.625l5.875-2.375l-2.75-2.125
		c0,0,3.625-0.125,6.625-1.25s6.75-2.875,6.75-2.875l-3.25-0.25l9.375-6.125c0,0,11.25,5.75,11.625,6s16.125,4.75,16.5,5.125
		s19.75,16.25,20.125,16.625s9.625,6.25,9.625,6.25l3.875,0.5c0,0,2.625,7,7.25,8.625s5.375,2.5,7.375,1.375s1.875-0.75,2.25-3
		s0.25-4.5-2.25-8.25s-6.75-8.625-8.625-9.625s-8.375-3.875-9.75-4s-7.75-5.5-9.625-7.75s-3.125-3.875-2.875-5.5
		s1.25-3.125,2.125-3.625s0.875-0.5,0.875-0.5l-2.25-1.5l3.25-2.875l-8.375-0.125l3.75-4.125c0,0-9.25,1.125-10.75,0.5
		s-2,0.125-1.75-1.5s3-6.125,3-6.125l2.25-5.625l0.375-4.25l18.625,6.875l-5-11.5c0,0,4.375-1.125,5.625-1.25
		s4.375-0.125,5.375,0.375s3.5,2.125,4.625,4s4.5,8.75,4.5,8.75s1.125-4.5,1.25-6.375s0.625-4.875,0.625-4.875s2.625,3.5,3.5,5.375
		s2.375,5,2.125,8.25s-0.625,3.625-1.25,5.75s-0.5,2.875-1.625,5s-2.375,5.375-2.375,5.375l10.125-8l4.75-10.125l4.25-17.875
		c0,0-4.125-13.375-5.625-14.25s-17.375-1.5-20.25-0.75s-25.375,14-26,14.125s-19.375,1.625-19.375,1.625l-20.75,3.25
		c0,0-19.625-0.25-20.375-0.5s-25-9.5-25.375-10s-7.5-11.375-7.5-11.375s-6.625-6.875-7.25-6.75s-15.5-7.875-15.5-7.875
		s-9.75-11.25-10.125-11.25s6.375-5.125,6.375-5.125l-0.75-15.75L133.5,18.374l-2-0.625l-3-3c0,0,0.375,11.875,0.125,15
		s-0.75,11.125-1.5,11.75s-9.125,2.5-9.125,2.5s-3.125-6.25-5.75-7.625s-6.75-5-8.875-5.5s-8-2.125-9.25-2.125s-1.75,0-1.75,0
		s3.375,3.875,4.75,6.25s2.75,5.875,3.5,7.875s1.75,4.125,1.5,5.75s-0.75,2.5-0.75,2.5l-8.125,4.625l-1.875,1.75l1.5,3.125"/>
	<path fill="#A1A5A9" d="M256,111.499c-0.5,0.125-10.625,7.625-12.125,10.625s-1.875,2.625-0.125,3.375s3.125,1,4.75,0.625
		s3.375-1,3.375-1s0.25-2,1-3.25s3-5,3-5l1.125-4.125"/>
	<path fill="#A1A5A9" d="M200.5,127.499c0,0-3.25,0.25-5.5,1.125s-8,4-8.125,4.625s-0.125-0.25,1.125,2.375s3.125,8.375,3.125,8.375
		l-5,0.125l1,5.875c0,0-39.25-6.5-42.5-6.875s-4.25,0.375-5.875,1.875s-3,3.25-4,5.375s-2.25,4.375-3.375,5.375
		s-2.25,1.75-2.25,1.75l0.25,2.25c0,0,1.75-0.5,3.125-1.375s4.25-3,5-4.125s4.625-5.875,4.625-5.875l50.25,9.375l-3.375-2.75
		l12.75,0.25l-7.875-6.875l4.125,0.125c0,0-3.125-6-3.875-7.625s-1.125-2.75,0-4.5s0.625-2.25,1.75-3.5S200.5,127.499,200.5,127.499
		z"/>
	<path fill="#737679" d="M128.625,12.624c0,0,4.375,7.125,5.375,9.5s3.875,8.75,4.625,12s2,7.125,1.875,9.875
		s-0.125,5.875-0.375,6.875s-12.5-8.75-12.5-8.75l-11,2.25c-1.375,0.5-6.125,2.125-8,3.125s-9.25,4.375-10.375,5s-6.25,4.5-6.25,4.5
		l9.875,0.875c0,0,6-4.375,7.875-5.625s5.25-3.5,8.25-4.25s4.75-1,6.125-0.5s4.5,2.75,6.625,5.75s9.625,20.375,9.625,20.375
		s-18.25,8-17.875,7.75s4.125-1,10.5-1s5.875-0.25,10.125,1.25s6,2.625,8.25,5.125s5.125,6.875,5.125,6.875s-0.75-5.5-1.25-6.25
		s-5.625-7.375-5.625-7.375s2-0.125,3.625,0.375s8.5,3.5,8.5,3.5l-2.375-5.75c0,0,2.375,1.25,3.625,3.625s3.125,9.25,2.375,12.5
		s-2.125,5.25-2.75,8.25s-1.125,5,0.125,8.5s3.375,6,3.375,6s-0.75-3.5-0.125-5.5s1.5-3.125,1.5-3.125s0.125,2.375,1.625,5.125
		s2.875,4.25,5.875,6.125s6.75,3.5,6.75,3.5l-1.125-3c0,0,1.5,1.375,5.375,1.75s7.5,0.125,7.5,0.125s-3.875-3-4.375-4.25
		s0.5-0.375,4.625,0s5,0.5,10.75-1.25s4-1.375,10.125-2.75s6.125-1.75,12.875-1.625s15.75,2.875,15.75,2.875s0.25-2.75-2-5.125
		s-2.375-3.625-2.375-3.625s1.375-1.125,5.25,0.375s12.75,6.625,12.75,6.625s1.25-2.125,1-5.375s0-6,0-6s5.625-1.5,10.375-2.375
		s12.5-1.25,12.5-1.25l-8.625-3.375c0,0,1.875-1.375,6.125-2.25s2-1.125,8.625-1.375s8.75,0,11.875,1s5.25,2.375,5.25,2.375
		s0.25-3.375-1-4.875s-1.25-2-1.25-2s3,2.875,4.5,5.375s2.5,5.625,2.375,10.75s0.75,5.875-0.875,10.875s-0.25,3.375-3.625,7.875
		S294,133.999,294,133.999l10.875-5.625c0,0,6.375-5.125,7.75-7.25s3.5-6.25,4.25-7.875s1.75-9.875,1.375-12.375
		s-2.625-13.875-2.625-13.875l6.25,8.75c0,0-1.875-12.625-2.25-14s-2.875-6.25-6.125-8.5s-8.375-5.375-11.25-5.5s-4.375,0-4.375,0
		l8.625-5.5c0,0-7.75,0.875-10.125,1.625s-12.625,4.375-14.125,5.75s-5.5,4.625-7.75,7.375s-7.875,8.875-9.625,10.25
		s-12.375,7.25-12.375,7.25s-4.5-1.875-5.875-1.625s-3.25,0.75-3.25,0.75l6.125-4.875c0,0-7.125,0.375-8.25,0.75
		s-6.75,1.75-6.75,1.75l3.375-4.25c0,0-7.625,2-9,2.75s-4.375,2.5-4.375,2.5l0.875-3.75c0,0-2,2.125-3.5,3s-4,1.875-4.875,1.875
		s3.75-6.125,3.75-6.125l-16,5.125l5.625-8c0,0-2.75,2.125-4.25,2.875s-12.25,2.375-13,2.5S197,84.624,197,84.624
		s-2.25,0.375-5.625,0.625s-4.125,0.5-4.125,0.5l2.375-2.5c0,0-5.625-1.625-8.375-3.75s-8.25-6-11.75-8s-8.75-5.125-11.375-6.75
		s-3.5-1.875-3.5-1.875l7-2.25c0,0-3.375-2.875-5.625-3.5s-6.875-1.375-7.75-1.25s-2.375,0-2.375,0s1.875-3.5,1.75-6
		s0.25-7.625-0.875-10.5s-4.5-12.875-7.625-16.25S128.625,12.624,128.625,12.624z"/>
	<path fill="#737679" d="M144.75,124.999l-11.625,8.25c0,0-33.125,9.375-34.5,9.875s-5.5,4.375-6.375,5.25s-3.625,4.625-4,5.5
		s-0.75,3.25-0.75,5.5s0.125,4.25,1,4.875s1.625,0.75,4.25,0.375s4.625-1.125,6.25-2s3.875-2.75,5.375-4.5s4.375-8.375,4.375-8.375
		l13.125-1.25c0,0,4.25-6.75,6-8.25s5-4.375,6.125-4.5s13.75,0.125,15.125,0.125S165,136.249,165,136.249l0.875-2.25
		c0,0-0.375-1.125-2.625-1.75s-7.5-3.125-9.375-3.25s-5.75-1.5-6.625-1.875s-2-2.125-2-2.125"/>
	<path fill="#737679" d="M218.125,129.124l-2.125,1.5l3.25,0.5l-4.875,3.75L225,141.499l16,0.375c0,0,26.125,26.875,26.875,27.375
		s2-0.25,3.125,0.25s2.625,0.875,4.25,0.75s3.625,0.5,4.25-0.5s1.875-2.875,1.875-2.875s-2.625-4-6.875-6.75s-12.75-9.75-12.75-9.75
		l-11.5-8.5c0,0-4.375-0.625-7.75-1.75s-9.625-3.625-12.5-4.625s-10.125-4.75-11.25-6"/>
	<ellipse fill="#FFFFFF" cx="117.125" cy="66.374" rx="13.625" ry="13"/>
	<ellipse fill="#FFFFFF" cx="96.188" cy="71.249" rx="11.063" ry="10.125"/>
	<path fill="#FFFFFF" d="M77.5,90.874c0,0-5.125,0.125-6.375,0.375s-4.75,1-5.75,2s-4,3.125-4.625,4.25s-1.375,2.125,0.25,3.125
		s4,1.5,5,1.875s4.125,0.75,4.125,0.75l4.375-3l1.75-4.375L77.5,90.874z"/>
	<ellipse fill="#0091FF" cx="110" cy="69.937" rx="5.375" ry="5.188"/>
	<ellipse fill="#0091FF" cx="90.313" cy="73.937" rx="4.438" ry="4.063"/>
	<ellipse fill="#00446F" cx="89.813" cy="74.249" rx="1.563" ry="1.375"/>
	<ellipse fill="#00446F" cx="109.063" cy="70.374" rx="1.938" ry="1.875"/>
	<ellipse fill="#FFFFFF" cx="110.813" cy="67.187" rx="1.938" ry="1.813"/>
	<ellipse fill="#FFFFFF" cx="107.375" cy="73.124" rx="1" ry="0.875"/>
	<ellipse fill="#FFFFFF" cx="90.938" cy="71.812" rx="1.438" ry="1.313"/>
	<ellipse fill="#FFFFFF" cx="88.313" cy="76.562" rx="0.938" ry="0.813"/>
	<path d="M128.875,14.874c0,0,1.25,1.75,2.625,4.125s2,3.125,3.875,7.5s3,7.375,3.75,11.5s1.25,12.875,1.25,12.875l0.25-10
		c0,0-2.25-10.25-2.625-11.25s-4.875-10-4.875-10l-4.5-5.625"/>
	<polyline points="164.625,135.749 167.125,121.999 166,135.874 	"/>
	<path d="M193.375,134.749c0,0,4-4.625,6.25-6.875s3.75-3.25,3.75-3.25s-5.5,6-6.75,7.875s-1.25,1.875-1.25,1.875L195,135.249"/>
	<path d="M244.375,93.124c0.375-0.125,4.75-0.25,7,0.625s2.5,1.25,4.25,3s2.125,2.5,2.25,3.875s-0.25,2-0.25,2s-0.25-2.875-0.75-3.5
		s-2.25-3-3.75-3.75s-4.75-1.875-4.75-1.875l-4,0.25V93.124z"/>
	<path d="M257.25,103.999c0,0,0.125,4.125-0.25,6s0.75,1.625,0.75,1.625s0.375-3.125,0.25-3.875s-0.375-4.25-0.375-4.25"/>
	<path d="M121,156.999c0-0.625,0-2.125,0.875-4.125s4.25-5.25,4.25-5.25s-2,3.25-2.75,5s-1.875,4.875-1.875,4.875L121,156.999z"/>
	<path d="M128.25,161.249c0,0-0.375-0.75,0-3s3.125-6,3.125-6L130,156.124l-0.75,4.5"/>
	<path d="M93.375,164.499c0,0-0.625-3.625-0.25-5.25s3.625-5.875,3.625-5.875s-2,4.125-2.5,5.875s0.25,4.875,0.25,4.875"/>
	<path d="M88,162.624c0,0,0.125-2.875,0.875-5s2.75-5.5,2.75-5.5s-2.875,4.375-3.25,5.25s-1,4-1,4L88,162.624z"/>
	<path d="M267.375,165.374c0,0,2.375,3.25,3.375,4s2.625,0.875,2.625,0.875L271,168.124l-3-2.875"/>
	<path d="M271.375,163.499c0,0,1.125,2.125,2.5,3.25s4.875,2.25,5.5,2.375s1.125,0.125,1.125,0.125v-0.625c0,0-2.75-0.75-3.75-1.25
		s-2.875-1.75-2.875-1.75L271.375,163.499z"/>
	<path d="M284.75,168.124c0,0,1.75,3.375,2.875,5s2.25,1.875,2.25,1.875l-2-2.75l-2.25-3.75"/>
	<path d="M289.25,166.249c0,0,0.102,0.195,0.27,0.506c0.504,0.932,1.605,2.9,2.355,3.744c1,1.125,2.375,1.75,3,2
		s2.75,1.375,2.75,1.375l0.375-0.625l-2.875-1.5l-2.25-1.625"/>
	<path d="M113,89.374c0,0,0.375,1.75,0,4.625s-1.375,4-1.375,4l1,0.25c0,0,1.125-3.375,1-4.5S113,89.374,113,89.374z"/>
	<path fill="none" stroke="#000000" stroke-width="0.75" d="M62.25,101.374c0,0-0.75,3.375-0.125,6s0.375,3.75,2.375,6.5
		s4.875,5.75,7.875,6.125s5.75,0.375,9.25-0.5s11.25-4,18.125-9.125s10.75-8.875,11.5-10.125s1.125-2.25,1.625-4"/>
	<path fill="none" stroke="#000000" stroke-width="0.75" d="M71.25,103.499c-0.125,0.375,0.625,3.75,2.375,6.75
		s4.875,6.625,6.625,8.125s1.375,1.125,1.375,1.125"/>
	<path fill="none" stroke="#000000" stroke-width="0.75" d="M80.75,119.624c0,0-0.125,0.5,2.5,0.875s5.75,0.625,8.125-0.375
		s5.25-3.625,5.25-3.625s0.125,2,1.5,4.375s2.125,4.375,3,4.5s2.25-0.75,2-1.5s-0.75-2.75-0.75-2.75s1,2.5,2.375,3
		s2.875,0.625,2.875,0.625l1.375-1.75l-0.125-3.75c0,0,3,0.5,4.625,0.125s2.75-0.5,2.5-1.75s-2-4.125-2-4.125
		s1.625-1.125,3.25-3.125s4-5,5.625-8.375s2.75-8.25,2.75-8.25s6.75,0,9.875,0.5s8.625,1.875,8.625,1.875l-5.875-8.625
		c0,0,4.25,0.375,8.375,1.75s9.75,4.25,9.75,4.25s-0.25-3.625-1.125-6.125s-5.375-7.125-5.375-7.125s1.625-0.125,4.875,0.625
		s6.75,3,6.75,3s-1.625-4.625-3.5-6.875s-4.25-4.125-4.25-4.125s3.875,0.125,5.875,0.5s2.625,0.25,2.625,0.25s-3.25-4.25-5.25-5.75
		s-6.25-3.125-6.25-3.125s2-1.25,4.625-2.125s6.125-2.125,6.125-2.125s-2.75-2.125-4.875-3s-5.25-1.875-7.125-1.75
		s-3.75,0.125-3.75,0.125s1.25-1.625,1.5-5.875s0.5-6.25-1-10.875s-2.625-8.75-5.5-13.375S128.5,12.374,128.5,12.374
		s0.125,6.875,0,12.75s0,11.5-0.375,13.75S127,41.999,127,41.999s-3.625,1.125-7.625,2s-7.625,2-12.375,4.375s-10.5,5-12.25,6.25
		s-3.875,3.375-3.875,3.375L93,61.249"/>
	<line fill="none" stroke="#000000" stroke-width="0.75" x1="71.375" y1="90.999" x2="89.375" y2="79.124"/>
	<path fill="none" stroke="#000000" stroke-width="0.75" d="M62.25,95.499l-2.125,2.875c0,0-0.313,0.375-0.312,0.906
		c0,0.531,0.313,1.219,1.562,1.844c2.5,1.25,8.5,2.375,8.5,2.375s2.5-0.75,4.5-3.125s5.5-6.625,6.25-7.875s1-2.125,1-2.125
		s-6.25,0.25-8.875,0.75s-3.75,0.625-5.875,1.625S63,94.874,62.25,95.499c-0.246,0.204-0.504,0.516-0.742,0.842
		c-0.487,0.672-0.883,1.408-0.883,1.408"/>
	<path fill="none" stroke="#000000" stroke-width="0.75" d="M101.25,51.249c0,0,0.875-1.125,0.25-4.625s-1.25-6.75-2.625-8.875
		s-5.5-7.875-6.25-8.25S92.5,28.874,92.5,28.874s3.5,0.125,7.75,1.25s4.25,1.125,8.5,3.875s5.625,4.5,6.875,6.25
		s2.125,3.875,2.125,3.875"/>
	<path fill="none" stroke="#000000" stroke-width="0.75" d="M154.375,62.874c0,0,19.875,11.125,23,13.625s8,5.875,9.875,6.375
		s1.875,0.5,1.875,0.5l-1.875,2c0,0,6.25,0.375,7.625,0.125s1.375-0.25,1.375-0.25l-3.875,4.375c0,0,1,0.125,5.25-0.5
		s7.875-1.625,7.875-1.625l5-3.125l-6.125,8.125l15.875-4.5l-4.25,5.25c0,0,2.25,0.375,3.875-0.625S225,88.999,225,88.999
		l-0.625,3.25c0,0,2.625-1.25,4.625-2.25s8.375-2.375,8.375-2.375L234,91.374c0,0-1,0.25,4.25-1s3.75-1,7.375-1.125
		s3.625-0.125,3.625-0.125l-5.625,4.25l1.625-0.125"/>
	<path fill="none" stroke="#000000" stroke-width="0.75" d="M224.375,92.249c0,0-4.375,4.125-7,7.125s-4.75,5.875-6,9.875
		s-0.875,10,0.875,13s3.625,6,8.875,9.125s6.375,3.5,11.5,5.25s11,3.75,13.875,4.375s3.625,0.875,3.625,0.875
		s17.125,12.75,20.25,15.25s7.5,5.125,9.125,7s4.625,7.125,6.5,8.75s3.25,2.875,6.25,3.25s3.875,0.625,5-1.125
		s1.75-3.625,1.125-5.75s-2.25-5.625-5.125-8.5s-5.5-5.5-5.5-5.5s-4.125-1.875-6.5-2.625s-4-1.25-4-1.25s-3.625-2.25-5.75-4.625
		s-4.875-5.125-5.625-6.75s-1-3.25-0.125-4.25s2-1.75,2-1.75l-2-1.75l3.125-2.5l-8-0.625l4-3.75c0,0-6.5,0.375-9.125,0.375
		s-3.375-0.375-3.375-0.375s-0.875,0.125-0.25-2s2-2.75,3-5.5s2.5-5.125,2.5-8.5"/>
	<path fill="none" stroke="#000000" stroke-width="0.75" d="M257.75,108.499c0,0,3.125,0.625,7.875,2.25s10.75,4.375,10.75,4.375
		l-5.25-11.625c0,0,7.125-1.5,10-1s5.75,4.125,7.375,6.875s3,6.5,3,6.5l1.625-11.5c0,0,2.75,2,4.25,6.5s1.25,10,0.375,13.125
		s-4.125,10.375-4.125,10.375s7-3.5,11-6.25s7.625-5.375,10.25-10.375s3.5-9.125,3.25-14s-0.5-8.625-1.25-11.625
		s-1.125-4.5-1.125-4.5l6,8.25c0,0-1-10.375-1.5-12.375s-1.625-5.5-4.5-8.25s-6.875-5.125-10.25-6.25s-7.5-1.5-7.5-1.5l8.5-5.25
		c0,0-8.5,0.5-15.125,3s-11,5.625-14,9s-5.875,6.5-9.25,10s-4.25,4.25-8.375,6.375s-8,4.125-8,4.125"/>
	<polyline fill="none" stroke="#000000" stroke-width="0.75" points="140.625,109.749 138.75,109.374 138.625,97.374 
		133.375,93.624 	"/>
	<path fill="none" stroke="#000000" stroke-width="0.75" d="M143.625,104.999c0,0-3.25,5.5-3.625,6.75s-3.5,3.875-3.5,3.875
		l5.5-0.375"/>
	<path fill="none" stroke="#000000" stroke-width="0.75" d="M165.25,133.749c0,0-1.125-1-2.625-1.625s-2-0.875-5.25-1.875
		s-4-0.875-7.875-2.25s-4.125-2.375-5.375-4.25s-1.625-4.25-1.625-5.125s0.125-6.375,0.125-6.375"/>
	<path fill="none" stroke="#000000" stroke-width="0.75" d="M144.75,124.874c0,0-1.625,1.75-4.875,3.875s-7.125,4.875-7.125,4.875
		s-16.625,4.625-20.625,6s-8.875,2.375-11.375,3.125s-3.625,1.125-5.25,2.5s-2.375,2.5-4.625,5.125s-2.875,3.625-3.25,5.5
		s-0.75,5.625,0.125,7.25s2.625,2.125,7.75,0.75s7.75-3.875,9-5.875s4.75-8.5,4.75-8.5l12.875-1.375"/>
	<path fill="none" stroke="#000000" stroke-width="0.75" d="M165.75,133.999"/>
	<path fill="none" stroke="#000000" stroke-width="0.75" d="M166.125,131.624l-1,4.625c0,0-28.75-1-30.875-0.5
		s-4.75,2.75-7.125,5.375s-6.625,9.5-6.75,10c0,0,0.375,9.125,1.875,9.875s6.125,0.125,9-1.375s4.75-3.25,6.875-5.75
		s3.875-5.5,3.875-5.5l49.875,9.375L189,154.874l12.625,0.5l-7.75-6.875l4-0.125c0,0-1.375-2.375-2.75-5s-2.125-4.875-1.75-6.125
		s1.625-3.375,2.5-4.5"/>
	<path fill="none" stroke="#000000" stroke-width="0.75" d="M196.875,146.374c0.625-0.25,3.125-0.125,4.5-1s1.375-0.875,1.375-0.875
		l-2.25-2.375c0,0,5-0.75,7-1.375s5.375-2.75,5.375-2.75l-2.625-0.375c0,0,4.5-2.625,6.125-4s2.75-2.125,2.75-2.125
		s-3.375-0.375-3-0.625s1.875-1.625,1.875-1.625"/>
	<path fill="none" stroke="#000000" stroke-width="0.75" d="M214.25,135.874c0,0,3.125,2.25,6.75,3.625s1.875,2.25,8.625,2.125
		s11.25,0.375,11.25,0.375s22.875,23.25,24.5,24.875s1.5,2.125,4.75,2.75s6.5,0.75,8.25,0.375s2.875-3.375,2.875-3.375"/>
	<path d="M68,92.374c0,0,3.125,0,4,0.125s-5.375,2.625-6.125,3.375s-1.875,2.625-1,3.125s1.875,1.875,3.75,1.875
		s5.375,0.25,5.375,0.25s5.125-6.375,6-7.75s1.625-3,1.625-3s-7.625,0.25-8.875,0.75s-4.125,1-4.125,1"/>
	<ellipse fill="none" stroke="#000000" stroke-width="0.75" cx="117.25" cy="66.124" rx="13.875" ry="13"/>
	<path fill="none" stroke="#000000" stroke-width="0.75" d="M106.079,73.69c-0.063-0.04-0.123-0.094-0.176-0.165
		c-0.125-0.167-0.25-0.334-0.375-0.5c-0.109-0.146-0.11-0.297-0.058-0.433c-0.004-0.009-0.008-0.018-0.012-0.025
		c-0.738-0.76-1.231-1.762-1.255-2.744c-0.154-0.436-0.305-0.873-0.48-1.304c-0.044-0.107-0.038-0.206-0.008-0.296
		c0-0.026,0.002-0.052,0.002-0.078c-0.232-0.913-0.299-1.861-0.185-2.798c0.018-0.509,0.078-1.019,0.179-1.52
		c-1.988-1.67-4.649-2.703-7.585-2.703c-6.145,0-11.125,4.477-11.125,10c0,5.522,4.98,10,11.125,10
		c4.884,0,9.022-2.832,10.519-6.766C106.463,74.129,106.269,73.911,106.079,73.69z"/>
</g>
<g id="frame_3">
	<path fill="#E7EDF2" d="M209.5,132.083l5-1.875l-11-1.5l5.625-2.75c0,0-8,0.375-12,0s-5-0.25-5.375-2s-0.5-1.625,0.75-4.375
		s3.375-5.875,3.375-5.875l2.125-5.25c0,0-3.125-4.875-3.75-5s-18.125-2.625-18.75-2.5s0.5,6.375,0.375,6.75
		S172,106.583,172,106.583l-17.5,3.25l-2.875,0.875c0,0-0.155,0.82-0.141,2.001L150,110.708c0,0-9.125-1.125-11.375-1.25
		s-12.25,0.125-13.25,0.25s-13.25-10.875-14-11s-4.75-18.75-5.875-20.25s-10.875-9.625-12.375-9.75s-10.375-10-10.625-10.375
		s2.375-13.5,2-13.875s-4-13.5-4.25-13.875s-5.5-16.25-5.5-16.25l-5.25-4.75c0,0,0.625,9.875,0.625,12s-0.5,13.75-0.625,15.125
		s-1.375,2.875-1.375,2.875l-8.75,2.25L59,40.458c0,0-3.25-6-5.75-7.5S46,27.583,42.625,27.083s-9.875-1.625-9.875-1.625
		s2.5,2.375,5,5.75s1.25,2.25,2,4s1.75,4,2.125,6.25s0.625,6,0.625,6l-5.25,3.375l-3.25,1.5v0.5l-2.125,1.5l1.625,3.625l-3,18.5
		l-15.875,11.25L3.875,98.833c0,0-0.625,9.375,0.875,11.375s3.375,3.875,5,4.75s3.125,1.375,5.5,1.875s2.375,0.75,4.75,0.25
		s3.625-0.75,3.625-0.75s1.625,1.125,3.375,1.25s2.375,0.5,4.875-0.25s3.125-1.25,4.375-2.125s1.75-1,1.75-1s1.5,3.5,2.625,5.25
		s2.125,2.125,2.75,2.25s1.5-0.625,1.5-1.125s0.25-1,0.25-1s0.75,1.125,1.75,1.375s1.625,0.25,2.125,0s1-1.25,0.875-1.875
		c-0.103-0.514,0.216-2.63,0.264-3.158c0.108,0.321,1.343,0.522,2.486,0.408c1.25-0.125,2.5,0.125,3-0.25s1.5-1.625,1.25-2.125
		s-1.75-2.25-1.75-2.25l-1-1.25c0,0,2.875-2.625,5.125-5.5s4.75-5.625,5.5-7.875s1.5-2.625,1.75-4.125s0.125-2.5,0.125-2.5
		s8.25,0.625,8.625,0.75s4.625,3,4.625,3l-0.25,11.5l2,0.25c0,0-0.125,1.125-0.625,2.5s-1.5,2.875-2.5,3.5s-1,0.625-1,0.625
		l5.875-0.375c0,0,0.125,3.375,1,5.75s1,5,3.375,6s12.75,5.375,13.25,5.875s9.125,4.375,9.75,5s6.5,6,6.5,6s8.875,11.75,9,12.375
		s5.25,7.125,5.375,7.5s1.25,5.625,1.625,6s7.75,5.875,7.75,5.875s3.25,2.875,3.625,2.875s3.25,1.375,3.25,1.375s2.75,0.375,4,0.5
		s6.125-0.5,6.125-0.5s1.125-0.5,1.25-2.25s-0.125-3.875-0.875-4.5s-4.75-4-4.75-4l-1.527-1.323
		c0.117-0.191,0.246-0.405,0.402-0.677c1.875-3.25,5.875-8.375,7.625-9s8.375-3.5,9.5-3.625s34.125-11.875,36.5-12.5
		s9.25-1.5,9.25-1.5L209.5,132.083z M158.875,144.208c0,0-9.625,4-11.625,4.5s-4.25,1.125-5.875,2.5s-5.5-1.625-5.5-1.625l3.75-0.25
		l-2.75-2l4.5-1.375l-1.875-2.25l3.875-2l-1.125-2.5c0,0,4.125-1.125,7-2.25c2.337-0.914,3.271-1.821,4.276-2.333
		c-0.501-0.075-0.601-0.842-0.047-1.069c0.136-0.056,0.267-0.121,0.4-0.179c0.039-0.1,0.102-0.194,0.219-0.267
		c0.627-0.385,1.224-0.787,1.765-1.289c0.156-0.145,0.331-0.166,0.49-0.126c0.121-0.07,0.237-0.149,0.367-0.208
		c0.309-0.335,0.805-0.16,0.92,0.196c0.045,0.001,0.08-0.015,0.13-0.003c0.605,0.146,1.184,0.307,1.756,0.555
		c0.127,0.056,0.203,0.156,0.239,0.273c0.137,0.098,0.206,0.238,0.229,0.384c0.46-0.112,0.756-0.185,0.756-0.185
		s4-1.625,3.625-1.625c-0.282,0-1.979-3.043-2.803-4.55c1.532,0.9,3.146,1.758,4.553,2.675c2.875,1.875,4.375,2.75,6.375,3.5
		s8.5,2.875,8.5,2.875l1.25,0.125L158.875,144.208z"/>
	<path fill="#E7EDF2" d="M197.875,105.083c0,0,2.75,0.375,5,1.25s14.75,5.875,14.75,5.875l-5.5-12c0,0,5.375-1.25,6.875-1.125
		s6.375,0.625,7,1.875s6.375,11.875,6.375,11.875s2.75-11.625,2.375-11.5s2.625,3,3.375,5s1.25,3.125,1.5,5.5
		s0.625,5.625-0.125,8.25s-2.875,7.375-2.875,7.375l-1.625,2.75l-0.25,0.875l6-4l6-6.25c0,0,7.125-9.375,7-10.25
		s-1.25-14.125-1.625-15.25s-4-12.625-4.875-12.875s-7.875-2.625-9-2s-14.25,5.25-16.125,5.75s-17,2.75-17.75,3
		s-6.25,5.625-6.5,6.125S195,100.958,195,100.958L197.875,105.083z"/>
	<ellipse fill="#FFFFFF" cx="58.188" cy="63.333" rx="13.813" ry="13.75"/>
	<ellipse fill="#FFFFFF" cx="37.563" cy="67.771" rx="11.438" ry="10.813"/>
	<path fill="#737679" d="M32.5,53.208l9.75,1.25c0,0,6.875-5.25,9.375-6.625s9-4.125,11.125-3.75s3.375-1.25,6.25,2.5
		s6.75,10.5,7.875,13.125s4.5,10.625,4.5,10.625l-17,7.75c0,0,2.875-1.125,8.625-1.25s7.375-0.25,10.375,1s5.75,3,8.125,5.75
		s4.5,5,4.5,5l1.5,1.125c0,0-1-4.75-1.875-6.125s-4.375-6.75-4.375-6.75s2,0.5,3.75,1s4.125,1,5.375,1.75s2.125,1.5,2.125,1.5l-4-7
		c0,0,0.5-0.375,3.25,2.5s3.625,3.875,4.25,7.875s0.625,5,0,7.75s-1.25,3.25-2.125,6.375s-1,5.375-0.125,8.125
		s3.25,7.125,3.25,7.125s-0.375-2.25,0.25-4.75s1.625-3.875,1.625-3.875s1.125,5.75,3,8s6.5,5.5,8,6.375s3.125,1.5,3.125,1.5
		l-1.5-4.125c0,0,0.25,0.5,3,1.25s7,1.125,8.5,1s2-0.375,2-0.375s-3.625-1.5-4.5-2.75s0-2.25,0-2.25s-0.25,0.75,4.375,0.875
		s5.625-0.125,9.375-1s7.25-2,10.75-3.375s5.25-1.125,11-1.5s7.125-0.375,9.75,0.25s8.25,2.875,8.25,2.875s-0.625-3.5-2-5.625
		s-2.25-3.25-2.25-3.25s1.875-1,6.875,1.125S197,110.333,197,110.333s1.625-3.5,1.625-5.5s-0.25-6.25-0.25-6.25
		s4.125-1.125,10-2.125s13.25-1.375,13.25-1.375L214,91.458c0,0,3.625-1.875,9.5-2.625s9.5-0.875,13.125-0.375
		s8.625,3.125,8.625,3.125s0.375-1.125-0.75-3.625s-1.375-3.25-1.375-3.25s2.75,2,4.375,5.875s2.375,7.375,2.125,13.5
		s-1.875,11.75-4.25,15.625s-10.5,11.75-10.5,11.75s9.25-5,11.75-7.125s5.125-4.25,6.5-6s3.375-4.125,4.125-6.125
		s1.875-7.375,1.75-9.5s-1-12.5-1.125-13s-1-5.75-1-5.75l5.5,8c0,0-0.25-8.625-0.875-10.875s-4.25-8-5.25-8.5s-7-5.875-10.375-6.625
		s-6.75-1.625-6.75-1.625l8-5.375c0,0-12,1.5-15.25,2.875s-7.625,3.5-9.625,5.5s-4.5,4.5-7.5,7.375s-4.75,5.25-6.375,7.125
		s-10.75,7-13.125,8s-2.375,1-2.375,1s-3.125-0.875-5.25-1s-3.125,0.125-3.125,0.125l7.125-3.75c0,0-6.125-0.25-8.25,0.25
		S175,88.333,175,88.333l3.25-4.875c0,0-2.75,0.625-4.25,1.375s-5.5,2.625-6.5,3.5s-1.875,1.25-1.875,1.25s-0.5-1.625-0.375-2.625
		s0.25-1.625,0.25-1.625s-2.25,2-3.875,3.125s-4.75,1.875-4.75,1.875l5.375-6c0,0-8.875,2.625-10.875,3.5S146,88.958,146,88.958
		l6-7.875c0,0-0.125-0.75-3.25,1.125s-5.875,2.625-8.625,3.25s-6.25,0.5-6.25,0.5s-0.125,0.75,1.75-1.5s2.875-3.375,2.875-3.375
		s-3.25,0.875-5.5,1.125s-4.25-0.125-4.25-0.125l1.625-2.125c0,0-4.875-1.75-7.875-3.75s-6.125-4.75-8.375-6.125s-5-3.875-7.25-4.75
		s-6.375-3.25-7.625-3.875s-3.5-1.75-3.5-1.75s0.25,0,2.375-0.75s4.625-1.5,4.625-1.5s-1-1.625-3.375-2.625s-4-2.375-5.5-2.375
		s-4.625,0.25-4.625,0.25L87,53.333c0,0,0.625-1.125,1.125-3.75s0.75-6.625,0-10.125s-1.125-4.625-2.5-8.5s-3.25-7.375-4.375-9.25
		s-2.875-5.375-4.625-7s-3.5-3-4.5-3.5S69,8.708,69,8.708s0,0.625,2,3.5s3.75,5.75,4.75,8.25s2.875,5.375,3.375,8.25
		s1.375,4.625,1.5,7.25s0.625,6.625,0.625,8.25s0,1.625,0,1.625l-0.5,2.5L69,39.208c0,0-3.5,0.25-4.75,0.625s-8.375,2.125-9.5,2.625
		s-8.875,3.125-9.625,3.625s-3.5,2-4.5,2.5S32.5,53.208,32.5,53.208z"/>
	<path fill="#737679" d="M159.875,125.583l-2.5,1.875h2.875l-3.375,3.125l4,1.625l-7.75,2.375l1.375,0.375c0,0-1.125,0.5-3,1.5
		s-9.5,2.625-9.5,2.625l1.625,2.625l-4.5,1.25l2.375,2.625l-3.75,1.5l1.25,2l-2.375,0.75l2,2.5c0,0,1.375-1.5,2.625-2.75
		s4.375-3.25,6.25-3.875s3.375-0.75,8.5-2.875s13-5.25,14.75-6s6.375-2.375,6.375-2.375s-3.25-2.125-6.75-3.125s-7-3.25-8.125-3.875
		S159.875,125.583,159.875,125.583z"/>
	<path fill="#737679" d="M91.625,125.708c0,0,5.25,5.25,8.875,7.75s7.125,5.125,9.875,7.25s3.625,2.625,6,5s3.25,3.375,3.25,3.375
		s-0.875,2.25-1,3.25s-0.75,1.875,0.125,3.5s1.125,2.125,2.875,2.625s2.5,0.875,3.875,0.5s1.375-0.375,1.375-0.375
		s2.75,3.125,4.125,5.875s2.125,3.875,3.875,6.25s2.875,2.75,4.875,4.375s2.125,1.375,3.75,1.5s4.375,0.25,4.375,0.25l-3.625-3.375
		l-3.625-4.5c0,0,0.125-0.625-1.5-0.375s-4.25-0.5-4.25-0.5l-1.125-1.25c0,0,0.125-2,0.125-3.375s0-2,0-2s-7.625-11.375-10.875-15
		s-7.375-10-7.375-10s-6.125-5.5-8-5.875s-9.375-3.375-9.375-3.375l-6.125-1.75"/>
	<path fill="#FFFFFF" d="M17.75,88.833l-9.125,6l5.875,2.25l-1,2.125l-1.625,1c0,0-2.625,0.25-3.125,0.125s-4.125-1-4.125-1
		l-2-1.125L0.5,95.833l0.625-2.875l5-3.375l5.375-1.75l3.75,1"/>
	<ellipse fill="#0089EE" cx="50.938" cy="66.833" rx="5.188" ry="5.125"/>
	<circle fill="#0089EE" cx="30.938" cy="70.771" r="4.063"/>
	<ellipse fill="#004169" cx="50.25" cy="66.896" rx="2" ry="1.813"/>
	<circle fill="#004169" cx="30.625" cy="71.083" r="1.375"/>
	<circle fill="#FFFFFF" cx="51.188" cy="63.646" r="1.313"/>
	<ellipse fill="#FFFFFF" cx="49.188" cy="70.021" rx="0.938" ry="0.813"/>
	<ellipse fill="#FFFFFF" cx="31.875" cy="68.583" rx="1.25" ry="1.125"/>
	<ellipse fill="#FFFFFF" cx="29.563" cy="73.583" rx="0.938" ry="0.75"/>
	<path fill="#020202" d="M53.938,86.583c0,0,0.75,1.813,0.063,4.313s-0.438,2.25-0.438,2.25l0.813-0.25c0,0,0.313-1.625,0.375-2.375
		s-0.063-1.813-0.125-2.125S53.938,86.583,53.938,86.583z"/>
	<path fill="#020202" d="M101.313,122.396c0,0,0.081,0.061,0.319,0.255c0.489,0.396,1.641,1.354,4.118,3.495
		c3.688,3.188,6.375,6.313,6.375,6.313l0.563-0.438c0,0-6.938-6.875-7.938-7.688"/>
	<path fill="#020202" d="M135.313,125.708c0,0-0.125,1.313,0,5.063s0.188,4.188,0.188,4.188l0.688-0.063L135.313,125.708z"/>
	<path fill="#020202" d="M198.125,100.896c0,0,0.012,0.164,0.028,0.438c0.058,0.979,0.167,3.354-0.028,4.624
		c-0.25,1.625-0.25,1.625-0.25,1.625l0.813,0.063c0,0,0.188-2.938,0.063-3.438"/>
	<path fill="#020202" d="M193.563,91.958c0,0,0.688,0.313,2,2s1.313,1.375,1.813,2.625S198,98.708,198,98.708s-0.063-2.563-0.313-3
		s-1.188-1.938-1.563-2.313s-1.75-1.625-1.75-1.625l-0.813-0.25"/>
	<path fill="#020202" d="M69.334,9.667L70,9.917l3.417,5.167c0,0,3.667,7.5,4.75,9.333s2.667,8.667,2.667,8.667s0,0.5,0.167,1.417
		s0.167,12.167,0.167,12.167s-0.5-3.75-0.667-6.833s-0.25-4.25-0.833-7.667s-2.417-6.583-4.25-10.75S69.25,10.25,69.25,10.25"/>
	<path fill="none" stroke="#020202" stroke-width="0.75" d="M33,57.208"/>
	<path fill="none" stroke="#020202" stroke-width="0.75" d="M33,57.208c0,0-1.875-2.25-1.75-2.625s6.375-5.125,8.5-5.875
		s7.125-3.125,11.375-4.75s7.625-2.5,10.625-3.5s7.375-1.625,7.375-1.625S70,24.708,69.75,21.333S69,9.208,69,9.208
		s3.25,1.875,6.5,4.875s7.75,11,9.625,15.375s2.25,6.75,2.875,10.625s0.5,5.125,0.25,7.625s-1.375,5.625-1.375,5.625
		s2.875-0.75,5.375-0.5s5.25,0.875,6.875,1.875S103,57.583,103,57.583s-0.25-0.125-3.25,0.75s-7.125,3.125-7.125,3.125
		s0.75-0.125,3.125,1.5s8.5,8.5,8.5,8.5s-1.875-1-4.25-1.25s-4.875-0.5-4.875-0.5s2.5,3.125,3.875,5.375s3.125,5.75,3.125,5.75
		s-3.375-2.25-5.75-2.875s-5.25-1.125-5.25-1.125s3.125,3.375,4.125,5.875s2.25,7.25,2.25,7.25s-4-2.25-6.75-3.25
		s-7.125-2.25-8.625-2.375s-3.375-0.375-3.375-0.375l6.5,8.75c0,0-7.5-2.125-10.5-2s-8-0.25-8-0.25s-0.625,4-2.625,7.875
		s-9.875,12.375-9.875,12.375l2.375,3.25c0,0,0.25,1-0.5,1.75s-2.625,0.5-3.25,0.75s-3.125-0.125-3.125-0.125s0,2.5-0.25,3.5
		s0.25,1.375-1.125,1.375s-3-0.875-3.5-1.25s-1.25-2.375-1.25-2.375"/>
	<path fill="none" stroke="#020202" stroke-width="0.75" d="M44.375,119.958c0,0,0.125,1.375-0.625,1.75s-1.75-0.25-2.875-1.375
		S38,114.708,38,114.708l-0.5-0.625c0,0-1.75,1.5-3.75,2.5s-4.125,1.75-7.875,0.75s-4.75-2.125-6.875-4.5s-3.125-4.75-4.5-7
		s-3-5.625-3-5.625"/>
	<path fill="none" stroke="#020202" stroke-width="0.75" d="M0.625,95.833c0,0,1.125,2.25,3,3s6,1.375,6,1.375l2.625-0.375
		c0,0,4-2.75,6.5-6.125S23,87.583,23,87.583s-3.5-0.125-7.25,0s-7,0.875-8.5,1.625s-5.25,3-5.75,3.625S-0.125,95.083,0.625,95.833z"
		/>
	<path fill="none" stroke="#020202" stroke-width="0.75" d="M3.625,98.833c0,0-0.5,4.625-0.125,6.625s1.25,5,2.875,6.625
		s3.125,3.25,5.625,4.125s8,1.875,13.625-0.5s10.125-5.125,13.75-7.125s7.25-4.75,9.125-6.875s4-5,4.625-6.125s1.375-6,1.375-6"/>
	<line fill="none" stroke="#020202" stroke-width="0.75" x1="13.625" y1="87.708" x2="30.625" y2="76.833"/>
	<path fill="none" stroke="#020202" stroke-width="0.75" d="M42.375,47.583c0,0-0.375-8-1.75-11s-5.5-8.75-6.625-9.625
		s-1.125-0.875-1.125-0.875s3.875,0.25,8.25,1.125s7.5,2.625,10.875,4.875s7.25,9.125,7.25,9.125"/>
	<polyline fill="none" stroke="#020202" stroke-width="0.75" points="74.75,90.708 79.75,94.208 79.625,106.208 82.125,106.208 	"/>
	<path fill="none" stroke="#020202" stroke-width="0.75" d="M84.5,102.458c0,0-2.5,2.75-3,4.625s-0.625,2.125-1.75,3.5
		S78,112.458,78,112.458l4.875-0.25"/>
	<path fill="none" stroke="#020202" stroke-width="0.75" d="M83.375,110.083c0,0,0.25,9,1.875,10.875s2.25,3.75,6.375,4.75
		s10.375,2.625,14.75,4.625s7.5,4.625,7.5,4.625"/>
	<path fill="none" stroke="#020202" stroke-width="0.75" d="M133.75,161.583c-0.375-0.125-20.375-28.375-22.125-30.25"/>
	<line fill="none" stroke="#020202" stroke-width="0.75" x1="111.875" y1="133.458" x2="115.375" y2="136.458"/>
	<path fill="none" stroke="#020202" stroke-width="0.75" d="M91.625,125.708c0,0,7,6,9.625,8.125s9.375,7,11.875,9s11,11,12.5,13.25
		s5.25,7.375,6.625,9.875s3.75,6.125,5.625,7.875s3.625,2.5,5,2.625s4.625,0.25,5.375,0.25"/>
	<path fill="none" stroke="#020202" stroke-width="0.75" d="M140.5,169.083c0,0,2.125,3,4.125,4.875s2.75,2.875,6,3.25
		s7.125,0,7.125,0s1.125-0.625,1.375-2.375s0.375-4.625-1.875-6.25s-5.125-4-5.125-4"/>
	<path fill="none" stroke="#020202" stroke-width="0.75" d="M138.063,152.021l-1.688-2.063l3.063-0.5l-2.063-2.063l4.125-1.313
		c0,0-4.438-4-5.063-7.125s-0.938-8.688-0.938-8.688"/>
	<path fill="none" stroke="#020202" stroke-width="0.75" d="M139.375,143.333c0,0,3.125-0.875,3.5-1.25s0.375-0.375,0.375-0.375
		l-1.5-2.25c0,0,4.375-0.875,6.875-1.75s5.625-2.875,5.625-2.875l-2.75-0.25c0,0,3.125-1.875,4.375-3s4-4,4-4l-2.375-0.125l1.625-1"
		/>
	<path fill="none" stroke="#020202" stroke-width="0.75" d="M95.75,59.833c0,0,10.25,5.375,13,7.125s10.375,7,12.875,8.75
		s5.5,3.5,7,4s1.5,0.5,1.5,0.5l-1.625,2.25c0,0,2.375-0.125,4.625-0.25s4.625-0.875,4.625-0.875l-3.625,4.625c0,0,1.5,0.625,6-0.375
		s11.375-4.375,11.375-4.375l-5.375,7.75c0,0,2.875-0.125,6.25-1.25s9.375-2.875,9.375-2.875l-4.5,5.5c0,0,1.875-0.375,3.75-1.375
		s4.375-3.25,4.375-3.25l-0.125,3.5"/>
	<path fill="none" stroke="#020202" stroke-width="0.75" d="M194.375,92.333c-0.375-0.25-1.063-0.688-1.984-1.125
		s-2.078-0.875-3.391-1.125c-2.625-0.5-5.125,0-5.125,0l7.875-3.875c0,0-4.75,0-10.25,0.625s-6.875,1.625-6.875,1.625l3.25-4.625
		c0,0-4.625,1.125-6.25,1.875s-6.875,4.375-9.125,6.625s-5.25,4.875-7.875,8.75s-3.75,9.625-3.125,12.875s2.625,7,5.375,9.5
		s6.25,4.75,10.625,6.875s14.25,5.625,14.25,5.625s-15.375,5.875-21.25,8s-16.375,5.75-16.375,5.75s-4.375,2.625-6.5,4.75
		s-2.75,3.75-3.5,6.125s-0.5,6.5-0.5,6.5s0.875,1,2.25,1.5s6.25,0,7.25,0.125s5.375-0.875,7.625-2.75s2.625-3.5,4.25-5.625
		s4-4.625,4-4.625s42.125-15.375,46.375-16.5s10-1.5,10-1.5l-6-5.25l4.5-2l-10.125-1.625l5-2.875L197,126.083
		c0,0-3.125-0.125-4-0.625s-1.25-2-1.25-3s0.125-2.375,1.375-4s2.5-4.125,3.75-7.125s1.875-5.625,1.875-5.625s3.125,0.25,7.5,1.875
		s11.375,4.375,11,4.25s-5-11.625-5-11.625s4.5-1.25,7.75-1s6.25,2,6.25,2l6.25,11.25l1.75-10.75c0,0,3.125,3.5,3.875,5.5
		s2,8,1.375,11s-1.375,5.25-2.125,7.125s-3,6.375-3,6.375s7.625-3,13.375-8.25s9.75-8.875,10.625-14.5s0.625-12.625-0.125-16.5
		s-1.625-8.625-1.625-8.625l5.625,8.375c0,0,0.125-9.5-1.5-13.5s-6.75-9-11.25-11.125s-10.125-3.25-10.125-3.25l7.875-5.375
		c0,0-13.5,1.875-17.5,3.625s-10.625,7.25-13.875,10.75s-7.75,9.5-9.875,11s-8.5,4.75-8.5,4.75l-4.625,2"/>
	<line fill="none" stroke="#020202" stroke-width="0.75" x1="139.125" y1="153.333" x2="136.375" y2="149.958"/>
	<polyline fill="none" stroke="#020202" stroke-width="0.75" points="156.5,131.083 160.625,132.333 153.625,134.458 	"/>
	<path fill="none" stroke="#020202" stroke-width="0.75" d="M138.75,152.208c0,0,3.875-3.875,5.5-4.75s33.125-13.125,33.125-13.125"
		/>
	<path fill="none" stroke="#020202" stroke-width="0.75" d="M119.875,149.083c0,0-1.75,3.125-1.75,4.75s0.625,2.75,1.75,3.75
		s2.5,1.5,3.75,1.375s3.125-0.625,3.125-0.625"/>
	<path d="M137.125,168.646c0-0.25-0.125-4.938,0.188-6.063s3.438-4.75,3.438-4.75s-1.938,3.375-2.313,4.25s-0.313,6.188-0.375,6.438
		"/>
	<path d="M141.938,168.146c0,0,0.375-2.938,1.75-5s3-3.125,3-3.125s-1,1.563-2,3.188s-1.563,5.5-1.563,5.5"/>
	<path d="M158.563,175.958c0,0-5.563,0-6.5-0.313s-3.313-2.563-3.75-3.25s2.25,1.563,3.063,1.938s1.813,0.75,3.313,0.813
		s4.313,0,4.313,0"/>
	<path d="M139.25,172.083c0,0,0.125,0.688,1.75,2.25s2.625,2.063,2.625,2.063l2.313,0.125c0,0-1.688-0.563-2.5-1.125
		s-3.75-3.375-3.75-3.375"/>
	<path d="M118.813,155.518c0.071-0.175,3.336-3.435,3.336-3.435l0.852,0.874l-3.69,3.376"/>
	<path d="M121.438,158.208c0.125-0.188,2.75-3.438,2.75-3.438l0.688,0.875l-2.5,2.813"/>
	<line fill="none" stroke="#000000" stroke-width="0.75" x1="160.25" y1="125.708" x2="157.5" y2="127.458"/>
	<path d="M8.5,88.958c0,0,3.75,0.25,4.625,0.375s-3.375,1.875-4.5,2.5s-3,2-3.125,2.875s0.25,1.625,1.75,2.125s5.875,2,5.875,2
		s0.625-0.25,1.875-1.125s3.25-3.375,4.25-4.625s3.75-5.5,3.75-5.5s-5.75,0-7.25,0S8.5,88.958,8.5,88.958z"/>
	<ellipse fill="none" stroke="#020202" cx="58.188" cy="63.146" rx="13.813" ry="13.313"/>
	<path fill="none" stroke="#020202" d="M47.579,71.484c-0.192,0.037-0.404-0.029-0.551-0.25c-0.778-1.176-1.773-2.604-1.831-4.079
		c-0.101-0.062-0.187-0.15-0.224-0.302c-0.268-1.081-0.497-2.166-0.645-3.271c-0.023-0.171,0.052-0.306,0.171-0.399
		c-0.016-0.158-0.038-0.313-0.046-0.476c-0.008-0.169,0.058-0.292,0.154-0.379c0-0.012,0.001-0.024,0.001-0.036
		c-0.018-0.071-0.031-0.144-0.011-0.23c0.004-0.02,0.005-0.04,0.009-0.059c-0.015-0.053-0.03-0.105-0.028-0.17
		c0.013-0.461,0.111-0.914,0.125-1.375c0.004-0.149,0.064-0.254,0.142-0.339c0.013-0.083,0.024-0.167,0.038-0.25
		c-2.033-1.793-4.75-2.911-7.758-2.911c-6.282,0-11.375,4.785-11.375,10.688s5.093,10.688,11.375,10.688
		c4.789,0,8.85-2.796,10.521-6.734C47.617,71.563,47.601,71.522,47.579,71.484z"/>
</g>
</svg>
