<?xml version="1.0" encoding="utf-8"?>
<!-- Generator: Adobe Illustrator 13.0.0, SVG Export Plug-In . SVG Version: 6.00 Build 14948)  -->
<!DOCTYPE svg PUBLIC "-//W3C//DTD SVG 1.1//EN" "http://www.w3.org/Graphics/SVG/1.1/DTD/svg11.dtd">
<svg version="1.1" xmlns="http://www.w3.org/2000/svg" xmlns:xlink="http://www.w3.org/1999/xlink" x="0px" y="0px"
	 width="388.118px" height="184.892px" viewBox="0 0 388.118 184.892" enable-background="new 0 0 388.118 184.892"
	 xml:space="preserve">
<g id="frame_1">
	<path fill="#19CF53" d="M154.385,42.38c0,0-7.417,7.125-8.417,8.375s-4.875,6-5.5,7.375s-1.625,5.5-1.875,6.875
		s-0.875,6.25-0.875,6.25s3.625-1,5.25-1.75s6-1.625,6-1.625s0.375,2.625,0.625,3.75s2,4.125,2.625,4.625s5.625,5,6.375,5.5
		s2.625,1.25,2.625,1.25s1.625-1.125,3.25-2.375s5.75-2.5,7.5-3.375s3.75-1.5,5.75-2.125s7.5-0.625,7.5-0.625l7,1.5l4,2.375
		l5.625,2.75l2,11.375c0,0-4.375,4.625-6.5,6.75s-8.5,9.625-9.25,10.75s-4.875,6.5-5.25,7.25s-1.25,3.125-1.25,3.125l5.875-2
		c0,0,9.125-0.75,9.75-0.375s10,20,10.625,20.5s12.75,10.375,14.125,10.875s9.75,1.75,9.75,1.75l3,1.75c0,0-0.125,4.875-0.5,6.375
		s-3.25,12.125-3.25,12.125s-7.75-0.5-9.375,0.125s-4.75,1.875-5.5,2.5s-4,4.375-4,4.375l-1.375,3.75l2.25,0.375l-0.25,0.625h6.25
		l-0.5,1.375l5.75,0.125l14.5-8c0,0,4-3.625,4.625-4.625s11.75-17.5,11.75-17.5l2.875-2.75l28.125-14l9-2l7.5,13.75l3.75,4.25
		l2.125,4l-5.375,17.375c0,0-10.25-0.125-11.25,0.5s-4.5,2.875-5.125,3.5s-2,2.625-2,2.625s4.25,1.625,4.75,1.75
		s1.25,0.25,1.25,0.25l7.5,0.25l-0.25,0.875c0,0,9.5-0.625,10.875-0.75s4.375-1.75,4.375-1.75l9.375-10.125
		c0,0,9.625-14.25,9.625-14.625s2.125-6.875,1.875-7.75s-4.25-16.375-5.125-17.25s7.375-16.625,7.375-16.625l4.125,10.125
		c0,0,7.125,1.5,7.5,1.5s8.75-2.375,8.75-2.375l11.75-8.875l1.125-3.375c0,0,0.375-4.375-1.25-7.875s-7.5-15.75-7.5-15.75
		s12.375-13.625,15.375-17s7.25-8,8.75-10.75s2.375-4.25,2.25-5s-3.625-5.375-4.625-6.25s-4.5-4.25-6.375-5.25
		s-8.375-4.75-8.375-4.75l11,16.25c0,0-22.875,18.125-24.125,19.375s-5.75,7.125-5.75,7.125s-0.75,6.25-0.25,8.75
		s3.25,15.5,3.25,15.5l-11.125,3c0,0,0.125-7.5-0.5-10.625s-0.875-6.125-0.875-6.125l0.125-4.625c0,0,0.5-5.875-1-10.625
		s-1.875-9.25-6.25-13.25s-9.875-8.125-12.25-8.5s-1.75-1.25-1.75-1.25l3.625-2c0,0,4-1,4.875-1s0.875,0,0.875,0
		s-3.875-4.75-4.625-7s-0.625-7,0.125-9.125s2.375-4.875,3.75-5.75s5.125-2.25,5.125-2.25s-10.375-3.25-12.75-3.625
		s-13.125-1-14.5-0.625s-11.375,2.5-12.625,3s-8.25,3.375-8.25,3.375s1,8.75,0.875,9.875s-1.75,6.5-2.375,8.625
		s-3.875,7.625-4.625,8.875s-3.875,4.625-3.875,4.625s-3.125,0.75-5,1.75s-10.125,6.375-11,7.375s-1.5-4.25-0.375-8.375
		s5.25-11.625,6.75-13.5s8.625-7.375,8.625-7.375s0.125-3-1.375-5.375s-5.375-6.75-5.375-6.75s-2.25,1.375-3.75,2
		s-4.5,1.375-5.875,1.875s-5.792,0.625-5.792,0.625l-2.25-0.167l-0.083,11.417c0,0,3.125,1.75,4.75,3.375s6.125,6.5,6.125,6.5
		s-7,2.25-7.375,2.25s-10-0.875-11-1.125s-3.625-0.625-3.625-0.625l0.125,3.5c0,0,3.625,1.25,4.875,2.375s3.875,3.75,5,5
		s2.25,4.125,3,5.625s1.25,3.875,1.25,3.875s-6.5,6-7.875,7.125s-6,5.25-7,6.5s-5.75,6.75-6.875,8.5s-6.5,8.75-6.5,8.75
		s-1.75-6.25-2.75-8.125s-2.5-5.125-2.5-5.125s0.5-1.625,1.5-2.875s14.625-26.125,14.625-26.125l0.875-2.5l4.25-3.5l13,0.5
		l6.125-2.375l1.5-5.125c0,0-1.625-4-2.375-4.125s-13.875-10.75-14.25-10.75s-8.75-1.625-8.75-1.625l-6.25-1l3.25-4.75
		c0,0,1.25-3.125,0.5-3.25s-18.625-0.875-18.625-0.875l-12.375,7c0,0-3.25,5.25-3.125,5.625s-6.5,6.25-6.5,6.25l-0.625-0.5
		c0,0-2.75,3.375-4.375,4.5s-6.5,3.25-9.625,3.5s-6,0-7-0.375s-5.5-2-6.375-2.625s-3.375-1.75-4.625-3.125
		S154.385,42.38,154.385,42.38z"/>
	<path fill="#13923B" d="M198.344,53.63c0,0,0.053-0.032,0.151-0.089c0.984-0.586,6.501-3.848,7.412-3.848
		c1,0,2.25-0.063,2.688,0.375s1,1.938,0.813,3.5s-1.188,4.5-2.25,6.375s-4.813,5.875-4.813,5.875s2.875-4.875,3.813-7.313
		s1.25-4.875,1.125-5.625s-0.938-1.625-2.938-1.125"/>
	<path fill="#13923B" d="M194.844,77.318c0,0,8.5,3.063,11.625,3.313s6.563,1.188,12.313-3.563s18.688-17.438,18.688-17.438
		l-1.875,5l-4.75,9.25l-5.625,8.75l-5.438,8.375l-1.5,3.125c0,0-2.375-2.688-3.438-3.25s-5.25-1.063-6.688-0.625
		s-4.188,2.25-4.188,2.25l-0.688-3.25l-4.063-7.063L194.844,77.318z"/>
	<path fill="#13923B" d="M339.219,94.463c0,0-0.25,4.667-0.5,7.917s-1.334,6.332-1.917,7.166s-1.417,1.416-2.5,1.5
		s-3-1.832-3.833-3.166s-2.917-8.417-2.917-8.417s-5.416,10.417-6.916,14.5s-4.25,14-4.667,17.75s1.332,9.834,2.916,11.834
		s7.167,6.166,8.917,7.666s2.666,2.083,2.833,3.5s0.001,3.501-1.916,6.167s-13.25,17.25-13.25,17.25l-5,5.833l2.666-0.5
		l32.667-33.25c0,0-6.749-6.501-7.833-7.917s-2.083-3.167-2.083-4.5s0.75-7.333,1.083-8.333s2.083-8.166,2.333-9.583
		s1.251-9.168,1.334-11.084S339.219,94.463,339.219,94.463z"/>
	<path fill="#13923B" d="M301.302,156.046l-24.916,25.417c0,0-9.667,0.583-10.584,0.833s-4,0.25-4,0.25l-2.667-0.083l1-1
		c0,0-2.833,0.166-3.083,0.083s-2.667-1.5-2.667-1.5s2.417-2.166,3.167-2.666s3.001-1.668,3.417-1.834s3.166-0.166,3.166-0.166
		l3.834,0.583l4.333-15.5c0,0,12.334-1.5,12.917-1.583s11.25-1.834,11.25-1.834L301.302,156.046z"/>
	<path fill="#13923B" d="M257.386,140.88c0,0-2.333,6.751-4.5,10.917s-6.917,13.415-13.917,19.749s-10.999,8.75-12.833,9.917
		s-5.834,3-5.834,3h5.5l5.5-0.416l5-1.25l2-1.167l2.917-3.167l3.667-4.666l5.583-9.5l6-9.917l1.416-4.5v-6.834L257.386,140.88z"/>
	<path fill="#13923B" d="M228.385,157.63l-8.416,14.75c0,0-3.417,1.916-4.167,2.666s-2.833,3.5-2.833,3.5l-1.334,1.75l-10.75-0.083
		l0.834-0.583l-4.834-0.167l0.5-0.417l-1.75-0.416v-1l1.583-2.084c0,0,4.5-3.916,5.333-4.083s7.083-0.417,7.083-0.417
		s2.25-5.25,2.417-6.5s0.333-8.082,0.333-8.916s-0.416-3-0.416-3s4.75,1.75,5.75,2.083s4.416,1.251,5.583,1.417s5.5,1.25,5.5,1.25"
		/>
	<path fill="#077606" d="M287.302,36.214c0,0,12.333,15.75,15.583,20s10.917,14.833,10.917,14.833s-4.916-10.417-8.333-15.5
		s-11.334-14-12.667-15.167S287.302,36.214,287.302,36.214z"/>
	<path fill="#077606" d="M288.635,32.38c0,0,8.584,2.5,12.417,4.25s7.999,3.417,11.583,6s10.167,8.167,10.167,8.167
		s-5.833-9.833-13.833-13.25s-14.918-4.5-16.084-4.75S288.635,32.38,288.635,32.38z"/>
	<path fill="#0C6729" d="M275.344,74.005c0,0-3.125,1.875-5.125,4s-4.749,6.626-5.416,8.459s-1.001,5.332-0.417,6.416
		s2.333,2.667,4,2.5s5.25-0.5,8-3.25s4.833-5.916,5.25-8.333s0.583-5.751,0.5-7.334s-0.249-3.167-1.416-3.167
		s-5.417,0.417-5.417,0.417"/>
	<path fill="#0C6729" d="M288.637,72.88c0,0-1.418,1.417-1.834,2.5s-0.167,2.334,0.75,3.167s1.084,1.167,3.584,1.25
		s2.166,0.417,4.166,0.75s2.501,0.916,3.834,0.416s2.5-0.584,2.583-2.25s-0.25-3.416-1-4.249c-0.75-0.834-2.833-2.251-4.333-2.417
		s-5.751-0.333-7.334,0.583"/>
	<path fill="#0C6729" d="M287.719,82.505c0,0-1.5,1.188-2,2.688s-0.75,4.875-0.75,5.938s0.188,2.063,1.375,2.438
		s2.25,0.875,4.25-0.063s3.313-1.813,3.938-2.625s1.25-3.25-0.25-4.5s-4.188-3.938-6.25-3.813"/>
	<path fill="#0C6729" d="M306.531,107.818c0,0-1.188,1.125-1.438,2s0,2.563,1,3.063s1.938,0.313,2.938-0.313s1.625-1.188,2.563-1.75
		s2.125-1.25,2.125-1.875s-0.563-2.25-1.688-2.563S307.969,106.818,306.531,107.818z"/>
	<path fill="#0C6729" d="M309.469,114.568c0,0,1.438-0.688,2.688-0.813s2.75,0.125,3,0.438s0.188,1.375-0.125,2.5
		s-1.125,3.188-2,3.063s-2.5-1.563-2.75-2.063S308.656,115.818,309.469,114.568z"/>
	<path fill="#0C6729" d="M301.031,114.755c0,0-1.25,1.875-1.313,4.438s0.5,5.125,1.125,6.563s1.688,2.563,2.438,2.938
		s1.313,0.563,2.25,0.125s2-1.938,2.188-3.375s-0.063-5.5-1-7.25s-2.25-3-2.875-3.313S302.656,114.005,301.031,114.755z"/>
	<path fill="#0C6729" d="M240.781,136.88c-0.191,0.048-1.438,1.125-1.688,1.875s0,1.813,0.188,2.25s0.688,0.5,1.375,0.5
		s1-0.875,2.063-1.375s1.938-0.75,2-1.25s0.125-1.875-1.063-2.063S241.781,136.63,240.781,136.88z"/>
	<path fill="#0C6729" d="M245.76,142.047c0,0-2.082,0.126-2.791,0.459s-1.126,0.707-1.084,1.166s1.292,1.709,1.542,1.959
		s0.791,0.582,1.083,0.541s1.375-1.707,1.5-2.166S246.51,142.38,245.76,142.047z"/>
	<path fill="#0C6729" d="M236.427,143.297c0,0-0.958,1.459-0.958,2.542s0.5,2.624,0.75,3.583s0.874,2.083,1.541,2.625
		s1.043,0.875,1.709,0.625s1.583-1.5,1.708-2.75s-0.001-3.791-0.917-4.833s-1.417-2.708-3.75-2"/>
	<path fill="#077606" d="M253.72,37.38c0,0,7.417,0.667,11.417,1.833s5.916,2.25,5.916,2.25s-9.666-2.167-11.333-2.25
		s-4.25,0-4.25,0L253.72,37.38z"/>
	<path fill="#077606" d="M250.887,47.63l2.666-0.917c0,0,8.584-2.417,11.084-2.5s2.5-0.083,2.5-0.083s-13.75,4.25-14.417,4.583"/>
	<path fill="#E2E20E" d="M181.802,120.547c0,0,0.833-1.5,3.25-2.75s5.167-2.334,7.667-2.25s5.25-0.584,8.25,3
		s5.083,7.084,7.583,11.834s4.333,8.166,7.917,11.583s4.251,4.084,7.334,4.917s10.25,0.833,10.25,0.833s0,3.751,0.083,4.667
		s0.25,4.083,0.25,4.083l-0.417,2.083l-1.833-0.333c0,0-10.251-2.166-11.501-2.583s-11.249-4.084-13.916-5.334
		s-9.75-6.166-10.583-6.583s-4-3.25-5-4.333s-6.417-8.167-6.417-8.167l-2.5-4.417l-0.667-2.083v-2.75L181.802,120.547z"/>
	<path fill="#E2E20E" d="M257.802,141.131c0.25-0.083,9.334-4.834,14.167-8.167s14.832-9.833,16.916-11.083s7.25-3.917,7.25-3.917
		s-0.416,3.833-0.416,4.5s0.832,4.834,0.916,5.084s2.668,9.25,3.834,12.333s6.5,14.5,6.5,14.5s-7,1.75-8,2s-6.668,1.583-8.334,1.833
		s-12.417,1.418-13.75,1.584s-10.082,0.417-11.249,0.5s-12.667,0.5-12.667,0.5s0.917-2,1.417-2.75s2.583-5.166,2.916-6
		s0.75-2.834,0.75-2.834l-0.167-6.583v-1.833"/>
	<path fill="#E2E20E" d="M339.094,121.755c0,0,1.75,2.875,4.375,3.5s6.625,1.125,9.375,0.125s5.75-2.5,8-4.5s5.5-6.25,6.375-7.625
		s2.25-5,2.25-5s1.5,3,1.375,4s-0.625,3.375-0.625,3.375s-2.25,2.625-3.25,4.125s-8.5,8.625-9.375,9s-4,3.25-5.375,4.125
		s-8.25,5.625-8.875,6s-4.875,3.5-4.875,3.5s-1.584-1.332-2.167-3.499s-0.333-3.417-0.25-4.5s2.083-9.083,2.083-9.083
		L339.094,121.755z"/>
	<path fill="#5C3396" d="M238.969,1.505c0,0-1.499,6.959-1.749,8.042s-0.583,1.416-1,2.333s-2,2.917-2,2.917l-2.167,1.833
		l-1.833,0.333c0,0-2.917-1.083-3.417-1.417s-2.416-1.5-2.416-1.5l-1.834-0.333c0,0-2.583,0.333-3.5,1s-2.333,1.167-2.833,1.833
		s-4.084,4.917-4.084,4.917l8.834,0.833c0,0-0.416,2.834-0.5,3.167s5.582,0.583,5.916,0.417s5.834-1.917,6.167-2.083
		s3.583-2.917,3.583-2.917l5.167-5.417l0.583-1.833l0.25-3.25l0.334-1.167c0,0-2.167-6.334-2.417-6.667s-1-1.5-1-1.5"/>
	<path fill="#5C3396" d="M225.052,36.547c0,0,2.251,0.167,2.834,0.25s4.666,1.167,4.916,1.25s3.667-1.417,3.667-1.417l8.5-6.5
		c0,0,3.916,0,4.166,0.083s7.917,1.417,7.917,1.417l6.333-2.833l3.167-3l1.75-3.417l0.5-3.25c0,0-0.666-7.417-1.083-9
		s-0.334-2.083-0.334-2.083s-1.832,5-2.416,6.583s-2.417,4.833-2.417,4.833l-4.75,4.417l-0.916,0.583l-2.917-0.083l-2.5-1.75
		l-2.417-1.917c0,0-1.917-1.25-2.167-1.25s-2.75-0.25-2.75-0.25s-4.333,1.5-4.583,1.75s-5.083,3.417-5.083,3.417l-3.083,3.667
		l-3.584,4.583L225.052,36.547z"/>
	<path fill="#42256A" d="M232.469,37.88c0,0,3.375-4.875,4.25-6.125s3.875-3.25,4.875-3.625s4-0.125,5.5,0.375s3.875,2.5,5.625,2.5
		s3.875,0.125,5.625-0.875s3.125-1.375,5-3.25s4.875-5.75,4.875-5.75l0.375-1.125c0,0,0.125,3.625-0.125,4.875s-1,3.375-1.625,4.125
		s-1.875,1.75-2.75,2.5s-3.5,1.5-4.125,1.75s-4,1-4.375,1.125s-3.75,0.5-4.125,0.5s-2.875-0.375-2.875-0.375l-5.5,8.25
		C243.094,42.755,233.594,38.005,232.469,37.88z"/>
	<path fill="#42256A" d="M241.969,8.13c-0.125,0.375-0.5,4.75-1.375,7.125s-3.375,3.75-4.375,5s-2.75,2.125-2.75,2.125l3.75,0.25
		l2.125-1.5l1.875-1.125c0,0,0.625-1.5,0.625-1.875s0.875-5.5,0.875-5.5l-0.75-5.125"/>
	<path fill="#42256A" d="M223.094,22.005c0,0,2.5,1.5,3.625,1.375s0.625,0.375,0.625,0.375s-4.625,0.75-5.375,1.375
		s-0.5,0.125-0.5,0.125l1.25-3.875"/>
	<path fill="#830000" d="M245.885,44.214c0,0,6.584,2,7.167,2.167s7,2.5,7,2.5s-1.501-5.083-2.917-7.167s-6.333-7.083-6.333-7.083
		l-2.25-0.167l-5.583,7.917l2.416,1.5"/>
	<path fill="#830000" d="M217.136,27.88c0,0,4.917-0.25,6.25-0.25s7.416,0.667,7.416,0.667s1.834-1.75,2.584-2.417
		s4.166-3.5,4.166-3.5s-12.166,1.25-13.583,1.833s-7.5,3.917-7.5,3.917"/>
	<path fill="#830000" d="M201.969,31.63c0,0,4.25-5.917,6.25-7.417s4.416-2.5,4.416-2.5l12.167-4.417l-3.083,8.083
		c0,0-4.916,2.333-5.25,2.417s-3.584,1.333-3.584,1.333s-4.416-0.5-5.333-0.167S201.969,31.63,201.969,31.63z"/>
	<path fill="#830000" d="M352.635,23.715c0,0-0.249,4-0.166,4.833s0.334,5.167,0.5,5.75s1.082,2.25,1.416,2.917
		s2.751,4.333,4.584,5.25s6.083,2.583,6.083,2.583l4.667,0.75l1.666,0.25l-3.583-5.75c0,0,6.333,3.417,6.75,3.75
		s0.917,0.417,0.917,0.417s0.249-1.083,0.416-2s0.833-4.083,0.75-4.583s0-3.25-1.75-5s-4.25-3-4.25-3s-2.082-0.083-2.666,0.333
		s-2.584,1.5-3.167,1.917s-2,1-2.75,1s-2.167-0.5-2.75-0.75s-3.333-2.833-3.75-3.583S352.635,23.715,352.635,23.715z"/>
	<ellipse fill="#FFFFFF" cx="209.938" cy="39.568" rx="11.219" ry="10.563"/>
	<ellipse fill="#FFFFFF" cx="193.219" cy="36.63" rx="9.25" ry="8.083"/>
	<ellipse fill="#0092FF" cx="187.594" cy="36.922" rx="3.25" ry="3.042"/>
	<ellipse fill="#0092FF" cx="202.99" cy="39.651" rx="4.021" ry="3.521"/>
	<ellipse fill="#00426B" cx="202.667" cy="39.672" rx="1.406" ry="1.271"/>
	<ellipse fill="#00426B" cx="187.323" cy="36.797" rx="1.271" ry="1.167"/>
	<ellipse fill="#FFFFFF" cx="188.906" cy="35.38" rx="0.813" ry="0.75"/>
	<ellipse fill="#FFFFFF" cx="185.813" cy="38.224" rx="0.656" ry="0.531"/>
	<circle fill="#FFFFFF" cx="204.469" cy="37.693" r="0.875"/>
	<circle fill="#FFFFFF" cx="201.25" cy="41.287" r="0.656"/>
	<path fill="none" stroke="#000000" stroke-width="0.75" d="M190.636,44.63c0,0-1.917,2.417-3.667,3.917s-5.917,3.5-11.167,3.917
		s-10-2.083-13.25-3.833s-7.917-6.75-7.917-6.75s-10.667,10.333-13.5,15s-3.583,14.583-3.583,14.583s6.917-2.75,12-4.167
		s18.833-5.583,23.5-5.583s11.167,0,16.25,0.25s7.083,0.333,9.5-0.5s2.5-1.333,2.5-1.333"/>
	<path d="M200.906,60.13c0,0,2-2.594,2.563-4.188s0.563-1.594,0.563-1.594s-1.25,5.156-2.531,6.094"/>
	<path fill="none" stroke="#000000" stroke-width="0.75" d="M148.531,67.818c0,0,1.125,4.313,2.688,6.75s5.75,5.75,7.125,6.688
		s2.688,1.813,2.688,1.813s2.5-2.375,6.313-4.125s11.188-4.313,15.125-4.188s9.563,0.375,13,3.25s7.75,10.563,8.063,12.188
		s0.375,2.375,0.375,2.375s-8,7.75-11.875,12.438s-9,11.938-9.688,13.438s-1.75,5.688,0.313,9.25s7.25,12.688,15.75,17.688
		s12.063,6.938,17.563,8.75s16.063,4.063,17.25,4.125s1.188,0.063,1.188,0.063"/>
	<path fill="none" stroke="#000000" stroke-width="0.75" d="M235.906,136.568c-0.063,0.188-1.813,4-1.688,9.125
		s0.313,11.25-0.375,14.563s-3,10.938-3,10.938s-8.25,0.313-10.375,0.938s-5.188,2.938-7,5.438s-2.875,4.625-2.875,4.625l2.75,0.313
		l-0.563,0.938l6-0.063l-0.188,0.938c0,0,8.438,0.313,13.063-0.313s6.75-1.5,10.25-6.188s12.938-20.063,14.188-22.938
		s1.75-4.938,1.75-4.938s0.125-4.813,0-6.75s-0.25-2.688-0.25-2.688"/>
	<path fill="none" stroke="#000000" stroke-width="0.75" d="M253.156,160.568c0,0,21.188-0.188,26.313-0.938
		s9.938-1.188,13.688-1.875s13.188-3.375,13.188-3.375"/>
	<path fill="none" stroke="#000000" stroke-width="0.75" d="M304.719,100.505c0,0-3.625,4.375-5.875,8.875
		s-3.313,9.125-3.063,13.438s2.688,12.25,4.625,16.938s8,17.875,8,17.875s-5.375,17.375-5.438,17.563s-9.063-0.125-11.563,0.813
		s-6.813,5.813-6.813,5.813s1.688,0.75,3.063,1.063s3.25,0.188,3.25,0.188l-0.188,0.875l7.75-0.188l-0.625,0.75
		c0,0,8.563-0.125,11.563-0.5s3.813-0.5,3.813-0.5l32.625-33.25c0,0-9.563-8.438-9.875-12.188s1.063-8.813,1.875-11.625
		s1.188-4.938,1.75-8.25s1.125-8,1.125-11.688s-0.938-10.875-2.938-17.875s-3.063-10-3.063-10"/>
	<path fill="none" stroke="#000000" stroke-width="0.75" d="M339.406,95.693c0,0,0.375-9.688-0.188-13.25s-1.75-10.125-4.375-13.938
		s-9.25-9.375-11.375-10.563s-4.875-1.75-4.875-1.75"/>
	<path fill="none" stroke="#000000" stroke-width="0.75" d="M265.719,69.63c0,0,6.625-4.625,10.75-9.75s8.75-15.5,8.375-21.375
		s-0.75-8-0.75-8s12.625-6,19.75-6.375s14.75,0,19.125,1s8.75,3.125,8.75,3.125s-7.375,2.875-8.125,6.125s-2,8.75,0,12.375
		s4,5.375,4,5.375s-8.25,1-10.5,4.875s-2.75,10.375-1.375,13.25s1.875,3.625,1.875,3.625s-12.875-3.875-20.5-3.625
		s-14.625-0.25-21.5,2.625s-8.625,3.625-8.625,3.625"/>
	<path fill="none" stroke="#000000" stroke-width="0.75" d="M274.719,62.005c0,0-4.375,0.875-10.375,5.125
		s-23.375,17.75-29.5,25.375s-11.25,15-11.25,15l-5.25-13.5c0,0-0.125-1.125,1.25-2.75s9.625-14.625,10.875-16.75
		s6.375-12,6.75-13.875s0.375-4.5,0.375-4.5"/>
	<path fill="none" stroke="#000000" stroke-width="0.75" d="M226.344,47.88c0,0,7.125,7.5,14,9.125s11.125,1.125,13.5,0.625
		s5.625-1.625,5.625-1.625s-4.875-6.125-10.125-9.625s-17.125-8.875-20.375-9.375s-3.25-0.5-3.25-0.5"/>
	<path d="M225.823,36.172c0,0-1.021,0.104-1.458,0.375s-1.042,1.313-1.042,1.313s1.605-1.021,2.396-1"/>
	<path fill="none" stroke="#000000" stroke-width="0.75" d="M225.053,36.63c0,0,6.751-9.792,10.042-12.417s7.584-5.167,10-5
		s4.458,1.583,6,2.833s1.792,2.125,3.417,2.167s2.29,0.833,4.499-1.125s3.709-3.542,4.917-5.875s3.5-9.042,3.5-9.042
		s1.626,7.5,1.209,12.792s-1.584,8.583-4.292,10.25s-8.833,3.25-11.208,3.333s-4.709,0.042-4.709,0.042s-5.457,7.958-5.541,8.083"/>
	<path fill="none" stroke="#000000" stroke-width="0.75" d="M250.678,34.714c0,0,4.833,3.875,6.875,7.75s2.542,6.25,2.542,6.25
		s-14.376-4.792-15.542-5.042"/>
	<path fill="none" stroke="#000000" stroke-width="0.75" d="M266.22,29.797c0,0,4.916,6.083,5.833,8.5s1,3.917,1,3.917
		s-5.832,3.833-7.916,6.583s-4.918,6.417-6.084,10.083s-2,5.333-2,8.333s0.334,5,0.334,5"/>
	<path fill="none" stroke="#000000" stroke-width="0.75" d="M237.636,59.964c0,0,2.083,0.25,5.5,3.083s4.75,4.416,6,7.083
		s2.667,6.75,2.667,6.75"/>
	<path d="M265.552,69.339l-6.583,4.438c0,0,6.563-3.542,7.063-3.938"/>
	<path d="M266.885,76.152c0,0-5.521,3.041-6.708,4.083s-1.188,1.042-1.188,1.042s7.271-4.021,8.104-4.438"/>
	<path d="M226.156,48.255c0,0-2.313-2.375-2.938-3.156s-0.625-0.781-0.625-0.781s3.625,2.969,4.125,3.438"/>
	<path d="M257.239,140.63c0,0-0.104-0.896-0.604-1.729s-0.5-0.833-0.5-0.833s1.541,1.416,1.791,2.458"/>
	<path d="M304.322,100.423c0,0,4.896-5.479,6.125-6.188s1.229-0.709,1.229-0.709s-6.396,6.916-6.896,7.5"/>
	<path d="M334.438,78.912c0,0-0.781-2.094-1.625-3.844s-0.844-1.75-0.844-1.75s2.656,3.719,3.094,5.281"/>
	<path fill="none" stroke="#000000" stroke-width="0.75" d="M340.886,110.381l10.917-2.417c0,0-3.167-14.333-3.25-18.083
		s0.333-6.5,0.333-6.5s2.75-4.583,9.417-10.167s20.667-16.25,20.667-16.25l-11.583-17.167c0,0,12.917,7,16.583,11.833
		s4,4.333,2.25,8s-4.501,6.75-11.584,14.75s-14,15.25-14,15.25s4.667,8.249,7.167,13.833s3.083,8.501,2.75,10.584
		s0.001,2.249-5.416,7.749s-9.085,8.168-13.501,11.584s-13.416,8.75-13.416,8.75"/>
	<path fill="none" stroke="#000000" stroke-width="0.75" d="M371.22,45.88c0,0-5.5-0.25-8.917-1.667s-5.833-3.583-8.25-7.417
		s-1.416-13.417-1.416-13.417s2.582,5.417,4.249,7.083s4.334,3.583,7.084,2.167s4.332-3.5,6.666-2.667s3,1.083,4.5,3.417
		s1.5,3.083,1.417,5.25s-1.25,5.583-1.25,5.583"/>
	<path fill="none" stroke="#000000" stroke-width="0.75" d="M201.781,31.568c0,0,4.875-6.75,8.875-8.938s14.063-5.313,14.063-5.313
		s-3.125,8.063-3.313,8.125"/>
	<path fill="none" stroke="#000000" d="M237.656,22.38c0,0-6.125,0.313-11.25,1.375s-10.688,4.438-10.688,4.438"/>
	<path fill="none" stroke="#000000" stroke-width="0.75" d="M211.844,22.068c0,0,3.625-4.938,4.938-5.938s5.438-3.375,7.688-2
		s4.563,2.938,6.063,2.813s4.625-2.375,5.875-5.625s2.75-10.25,2.75-10.25s3.438,6.313,3.375,10.188s-0.563,8-1,8.625"/>
	<path d="M235.553,136.506c0,0,0.708-1.396,1.833-2.542s3.126-1.896,3.396-1.938s-3.979,3.604-4.563,4.75"/>
	<path fill="none" stroke="#000000" stroke-width="0.75" d="M228.594,157.443c-0.125,0.188-8.063,14.25-8.5,14.625
		s-0.438,0.375-0.438,0.375"/>
	<path fill="none" stroke="#000000" stroke-width="0.75" d="M212.219,152.818c0,0,0.438,6.188,0.063,9.438s-1.25,5.875-1.875,7.125
		s-0.938,1.813-0.938,1.813s-5.688,0-6.688,0.25s-2.875,1.438-4.25,2.688s-3,3.938-3,3.938s0.25,0.625,0.688,0.75
		s1.063,0.125,1.063,0.125l-0.438,0.563l4.625,0.063l-0.5,0.625h10.938"/>
	<path d="M218.625,183.287c0,0,3.875-4.938,5.781-6.094s1.906-1.156,1.906-1.156s-7.406,7.969-7.531,8.188"/>
	<path d="M213.188,182.287c0,0,1.375-2.313,3.938-4.438s2.719-2.156,2.719-2.156s-6.531,7.406-6.656,7.594"/>
	<path d="M201.313,179.474c0,0,2.875-3.156,4.281-3.969s1.406-0.813,1.406-0.813l-5.5,5.594"/>
	<path d="M197.031,179.068c0,0,2.563-3.219,3.875-3.969s1.438-0.844,1.438-0.844l-4.844,5.156"/>
	<path fill="none" stroke="#000000" stroke-width="0.75" d="M272.302,160.381l-4.416,15.666c0,0-5.25-1.416-8.25,0.167
		s-5.334,3.75-5.334,3.75s1.916,1.417,3.25,1.417s2.167,0.083,2.167,0.083l-0.5,0.75l5.417,0.083c0,0,10.916-0.499,11.333-0.666
		s25.75-25.833,25.75-25.833"/>
	<path d="M290.906,183.068c0,0,1.25-2.75,2.625-3.875s3.938-1.875,3.938-1.875s-3.75,2.438-4.563,3.375s-1.688,3.188-1.688,3.188"/>
	<path d="M298.094,183.943c0,0,1-2.188,2.125-3.188s4.063-2.563,4.063-2.563s-3.188,2.313-4,3.375s-1.813,2.75-1.813,2.75"/>
	<path d="M264.636,182.297c0,0,0.271-1.604,1.771-2.729s2.75-1.438,2.75-1.438s-2.313,1.813-2.875,2.563s-0.688,1.938-0.688,1.938"
		/>
	<path d="M259.719,181.464c0,0,0.875-1.584,2.125-2.709s2.188-1.25,2.188-1.25l-4.313,4.625"/>
	<ellipse fill="none" stroke="#000000" stroke-width="0.75" cx="209.906" cy="39.443" rx="11.219" ry="10.438"/>
	<path fill="none" stroke="#000000" stroke-width="0.75" d="M199.273,42.088c-0.179-0.438-0.272-0.908-0.312-1.392
		c-0.175-0.623-0.222-1.281-0.159-1.922c-0.028-0.393-0.005-0.788,0.124-1.124c0.051-0.464,0.177-0.918,0.397-1.34
		c0.09-0.296,0.219-0.592,0.375-0.876c0.229-0.581,0.545-1.115,0.924-1.597c0.179-0.376,0.391-0.728,0.656-1.048
		c-1.577-2.474-4.616-4.158-8.123-4.158c-5.126,0-9.281,3.582-9.281,8s4.155,8,9.281,8c2.401,0,4.579-0.795,6.227-2.085
		c-0.016-0.077-0.03-0.154-0.045-0.231C199.316,42.238,199.291,42.165,199.273,42.088z"/>
	<polyline points="201.531,31.287 201.031,32.193 201.156,32.505 201.969,31.787 202.281,30.912 	"/>
	<path fill="none" stroke="#000000" d="M212.719,29.297c0,0,2.332-1.584,9.166-1.667s9.584,0.583,9.584,0.583"/>
	<path fill="#19CF53" d="M187.969,52.548l16.417,9l3.667,2.5l1,0.917l7.25,14.083c0,0,3.417,8.917,3.5,9.167
		s5.166,17.332,5.166,17.332s-0.417,5.918-0.75,6.334s-10.167-2.418-11-2.584s-10.833-19.332-10.833-19.332
		s-0.667-12.583-0.917-12.5s-10.5-5.083-11-5.167s-14.167,0-14.167,0s0.417-0.667,0.083-0.333s0.917-9.667,0.917-9.667"/>
	<path fill="#19CF53" d="M130.969,75.381c0.083,0.334,3.5,4.416,5,5s3.167,1.5,3.167,1.5l3.25-3.583c0,0,0.083-4.5,0.083-4.75
		s-0.417-5.417-0.667-5.583s-1.167-2.75-1.167-2.75l-2.5-2.917c0,0-3.5-0.917-3.75-0.917s-1.083-0.083-1.083-0.083l-26.167,24.833
		c0,0,2.583,2.499,4.083,3.083s7.25,2,7.917,2s3.25,0.25,3.75,0.167s4-1.167,4-1.167l-0.167-5.75l0.167-3.833l1.083-2.917l2.417-3
		l0.667,0.25"/>
	<polyline fill="#19CF53" points="137.302,42.965 136.386,44.465 138.052,45.298 140.386,43.881 	"/>
	<path fill="#19CF53" d="M238.303,14.465c0,0,2.916,8.083,3.166,8.75s0.167,3,0.167,3l-0.5,1.167l-0.833,0.917l-4.75,1.583
		c0,0,3.667,8.25,4.25,10.083s0.834,4.667,0.75,5.417s-0.583,3-1.25,3.667s-7,4-7,4s7.917,4.584,10.25,6s3.582,2.583,4.416,4
		s2.251,4.25,3.167,5.833s2.583,8.333,2.583,8.333l5.333-5.333l0.084-3.5c0,0,0.749-5.75,0.916-6.75s2.583-8.167,4.083-10.083
		s4.5-5.75,5.417-6.917s5.75-4.917,5.75-4.917s-2.917-7-3.917-7.917s-8.083-6.667-8.083-6.667s-8.751-5.667-11.167-6.667
		s-12.416-3.917-12.416-3.917"/>
	<path fill="#19CF53" d="M249.052,78.215c0,0,10.916-9.584,12.083-10.334s8.084-5.083,8.084-5.083l5.916-2.583l1.5,0.167
		c0,0-11.165,13.499-11.499,13.833s-12.083,6.833-13.5,7.5s-2.5-2.833-2.5-2.833"/>
	<path fill="#19CF53" d="M317.552,54.881c0,0,8.166,3.333,9.25,4.333s5.5,5.167,5.5,5.167s1.084,1.75,1.084,2
		s-12.75-4.916-13.167-5.083s-6.75-3.917-6.75-3.917"/>
	<path fill="#19CF53" d="M84.969,47.465c0,0,7.75-6.75,8.917-7.583s8.25-5.75,8.25-5.75s1.75,2.833,2.083,3.583
		s3.667,4.333,4.167,4.75s3.833,2.75,3.833,2.75s2.5,1.75,3.667,2.167s4.25,1.167,4.583,1.167s3,0,3,0h3.25l1.667,0.167
		c0,0-1.584,1.917-2.167,2s-8.417,0.167-9.75,0.167s-7.5-1.583-9.5-1.417s-10.417-0.75-10.417-0.75s-7.667,1.083-8.083,1.167
		s-3.167-3-3.167-3"/>
	<path fill="#14A241" d="M177.469,69.506c0,0,1.5-2.875,10.375-1.125s13.125,3.875,13.75,4.25s4.125,2.875,4.625,4.5
		s0.25,4.625,0.25,6s-0.625,4-1.25,6.5s-1.75,5.125-2.375,6.25s-3.75,5.125-4.25,5.75s-2,2.75-2.375,3.125s-3.625,2.5-3.625,2.5
		s-2.625,2-3.375,2.5s-3.25,2.25-3.25,2.25s3.625-6.125,5-7.875s4.625-9.125,4.625-9.125l2.125-4.5l0.875-4.125l0.125-3.875
		l-1.375-3.75l-2.875-3l-6.875-2.25l-5,0.875l-5.5,1.375l-4.25,1.25L177.469,69.506z"/>
	<path fill="#19CF53" d="M387.594,56.34c-0.125-0.75-3.625-5.375-4.625-6.25s-4.5-4.25-6.375-5.25s-8.375-4.75-8.375-4.75l11,16.25
		c0,0-22.875,18.125-24.125,19.375s-5.75,7.125-5.75,7.125s-0.75,6.25-0.25,8.75s3.25,15.5,3.25,15.5l-11.125,3
		c0,0,0.125-7.5-0.5-10.625s-0.875-6.125-0.875-6.125l0.125-4.625c0,0,0.5-5.875-1-10.625s-1.875-9.25-6.25-13.25l-12.25-8.5
		c-2.375-0.375-1.75-1.25-1.75-1.25l3.625-2c0,0,1.725-0.431,3.157-0.727c0.043-0.275,0.235-0.525,0.594-0.531
		c0.561-0.009,1.112-0.077,1.663-0.161c-0.954-1.205-3.673-4.733-4.289-6.581c-0.75-2.25-0.625-7,0.125-9.125s2.375-4.875,3.75-5.75
		s5.125-2.25,5.125-2.25s-10.375-3.25-12.75-3.625s-13.125-1-14.5-0.625s-11.375,2.5-12.625,3s-8.25,3.375-8.25,3.375
		s1,8.75,0.875,9.875s-1.75,6.5-2.375,8.625s-3.875,7.625-4.625,8.875s-3.875,4.625-3.875,4.625s-3.125,0.75-5,1.75
		c-1.514,0.808-7.18,4.464-9.768,6.371c-0.096,0.217-0.252,0.428-0.493,0.618c-2.127,1.679-4.287,3.314-6.459,4.931
		c-0.001,0.202-0.086,0.403-0.316,0.535c-3.264,1.87-5.958,4.502-8.938,6.767c-1.66,1.552-3.314,3.108-4.919,4.717
		c-0.972,1.079-1.936,2.166-3.006,3.162c-0.071,0.066-0.145,0.106-0.22,0.137c-1.776,2.686-3.788,5.265-5.787,7.461
		c-0.453,0.639-0.914,1.271-1.389,1.891c-0.103,0.134-0.232,0.202-0.366,0.242c-0.04,0.06-0.081,0.12-0.121,0.18
		c-0.012,0.057-0.031,0.114-0.065,0.173c-0.877,1.498-1.793,2.986-2.438,4.604c-0.242,0.607-1.105,0.478-1.204-0.013
		c-0.222-0.096-0.39-0.291-0.383-0.604c-0.008-0.016-0.021-0.023-0.028-0.04c-0.807-1.883-1.634-3.769-1.951-5.806
		c-0.001-0.008,0.001-0.015,0-0.022c-0.011-0.016-0.024-0.026-0.035-0.043c-0.191-0.307-0.377-0.616-0.565-0.925
		c-0.492-0.626-0.855-1.316-1.185-2.075c-0.195-0.45-0.191-0.883-0.077-1.27c-0.83-0.804-0.762-2.71-0.852-3.772
		c-0.117-1.377-0.098-2.693,0.127-4.059c0.037-0.226,0.127-0.41,0.237-0.574l-14.923,5.79c0,0-4.375,4.625-6.5,6.75
		s-8.5,9.625-9.25,10.75s-4.875,6.5-5.25,7.25s-1.25,3.125-1.25,3.125l5.875-2c0,0,9.125-0.75,9.75-0.375s10,20,10.625,20.5
		s12.75,10.375,14.125,10.875s9.75,1.75,9.75,1.75l3,1.75c0,0-0.125,4.875-0.5,6.375s-3.25,12.125-3.25,12.125
		s-7.75-0.5-9.375,0.125s-4.75,1.875-5.5,2.5s-4,4.375-4,4.375l-1.375,3.75l2.25,0.375l-0.25,0.625h6.25l-0.5,1.375l5.75,0.125
		l14.5-8c0,0,4-3.625,4.625-4.625s11.75-17.5,11.75-17.5l2.875-2.75l28.125-14l9-2l7.5,13.75l3.75,4.25l2.125,4l-5.375,17.375
		c0,0-10.25-0.125-11.25,0.5s-4.5,2.875-5.125,3.5s-2,2.625-2,2.625s4.25,1.625,4.75,1.75s1.25,0.25,1.25,0.25l7.5,0.25l-0.25,0.875
		c0,0,9.5-0.625,10.875-0.75s4.375-1.75,4.375-1.75l9.375-10.125c0,0,9.625-14.25,9.625-14.625s2.125-6.875,1.875-7.75
		s-4.25-16.375-5.125-17.25s7.375-16.625,7.375-16.625l4.125,10.125c0,0,7.125,1.5,7.5,1.5s8.75-2.375,8.75-2.375l11.75-8.875
		l1.125-3.375c0,0,0.375-4.375-1.25-7.875s-7.5-15.75-7.5-15.75s12.375-13.625,15.375-17s7.25-8,8.75-10.75
		S387.719,57.09,387.594,56.34z"/>
	<path fill="#13923B" d="M339.719,93.798c0,0-0.25,4.667-0.5,7.917s-1.334,6.332-1.917,7.166s-1.417,1.416-2.5,1.5
		s-3-1.832-3.833-3.166s-2.917-8.417-2.917-8.417s-5.416,10.417-6.916,14.5s-4.25,14-4.667,17.75s1.332,9.834,2.916,11.834
		s7.167,6.166,8.917,7.666s2.666,2.083,2.833,3.5s0.001,3.501-1.916,6.167s-13.25,17.25-13.25,17.25l-5,5.833l2.666-0.5
		l32.667-33.25c0,0-6.749-6.501-7.833-7.917s-2.083-3.167-2.083-4.5s0.75-7.333,1.083-8.333s2.083-8.166,2.333-9.583
		s1.251-9.168,1.334-11.084S339.719,93.798,339.719,93.798z"/>
	<path fill="#13923B" d="M301.802,155.381l-24.916,25.417c0,0-9.667,0.583-10.584,0.833s-4,0.25-4,0.25l-2.667-0.083l1-1
		c0,0-2.833,0.166-3.083,0.083s-2.667-1.5-2.667-1.5s2.417-2.166,3.167-2.666s3.001-1.668,3.417-1.834s3.166-0.166,3.166-0.166
		l3.834,0.583l4.333-15.5c0,0,12.334-1.5,12.917-1.583s11.25-1.834,11.25-1.834L301.802,155.381z"/>
	<path fill="#13923B" d="M257.886,140.215c0,0-2.333,6.751-4.5,10.917s-6.917,13.415-13.917,19.749s-10.999,8.75-12.833,9.917
		s-5.834,3-5.834,3h5.5l5.5-0.416l5-1.25l2-1.167l2.917-3.167l3.667-4.666l5.583-9.5l6-9.917l1.416-4.5v-6.834L257.886,140.215z"/>
	<path fill="#13923B" d="M228.885,156.965l-8.416,14.75c0,0-3.417,1.916-4.167,2.666s-2.833,3.5-2.833,3.5l-1.334,1.75l-10.75-0.083
		l0.834-0.583l-4.834-0.167l0.5-0.417l-1.75-0.416v-1l1.584-2.084c0,0,4.5-3.916,5.333-4.083s7.083-0.417,7.083-0.417
		s2.25-5.25,2.417-6.5s0.333-8.082,0.333-8.916s-0.416-3-0.416-3s4.75,1.75,5.75,2.083s4.416,1.251,5.583,1.417s5.5,1.25,5.5,1.25"
		/>
	<path fill="#077606" d="M287.802,35.549c0,0,12.333,15.75,15.583,20s10.917,14.833,10.917,14.833s-4.916-10.417-8.333-15.5
		s-11.334-14-12.667-15.167S287.802,35.549,287.802,35.549z"/>
	<path fill="#077606" d="M289.135,31.715c0,0,8.584,2.5,12.417,4.25s7.999,3.417,11.583,6s10.167,8.167,10.167,8.167
		s-5.833-9.833-13.833-13.25s-14.918-4.5-16.084-4.75S289.135,31.715,289.135,31.715z"/>
	<path fill="#0C6729" d="M275.844,73.34c0,0-3.125,1.875-5.125,4s-4.749,6.626-5.416,8.459s-1.001,5.332-0.417,6.416
		s2.333,2.667,4,2.5s5.25-0.5,8-3.25s4.833-5.916,5.25-8.333s0.583-5.751,0.5-7.334s-0.249-3.166-1.416-3.166
		s-5.417,0.417-5.417,0.417"/>
	<path fill="#0C6729" d="M289.137,72.215c0,0-1.418,1.417-1.834,2.5s-0.167,2.334,0.75,3.167s1.084,1.167,3.584,1.25
		s2.166,0.417,4.166,0.75s2.501,0.916,3.834,0.416s2.5-0.584,2.583-2.25s-0.25-3.416-1-4.249c-0.75-0.834-2.833-2.251-4.333-2.417
		s-5.751-0.333-7.334,0.583"/>
	<path fill="#0C6729" d="M288.219,81.84c0,0-1.5,1.188-2,2.688s-0.75,4.875-0.75,5.938s0.188,2.063,1.375,2.438
		s2.25,0.875,4.25-0.063s3.313-1.813,3.938-2.625s1.25-3.25-0.25-4.5s-4.188-3.938-6.25-3.813"/>
	<path fill="#0C6729" d="M307.031,107.153c0,0-1.188,1.125-1.438,2s0,2.563,1,3.063s1.938,0.313,2.938-0.313s1.625-1.188,2.563-1.75
		s2.125-1.25,2.125-1.875s-0.563-2.25-1.688-2.563S308.469,106.153,307.031,107.153z"/>
	<path fill="#0C6729" d="M309.969,113.903c0,0,1.438-0.688,2.688-0.813s2.75,0.125,3,0.438s0.188,1.375-0.125,2.5
		s-1.125,3.188-2,3.063s-2.5-1.563-2.75-2.063S309.156,115.153,309.969,113.903z"/>
	<path fill="#0C6729" d="M301.531,114.09c0,0-1.25,1.875-1.313,4.438s0.5,5.125,1.125,6.563s1.688,2.563,2.438,2.938
		s1.313,0.563,2.25,0.125s2-1.938,2.188-3.375s-0.063-5.5-1-7.25s-2.25-3-2.875-3.313S303.156,113.34,301.531,114.09z"/>
	<path fill="#0C6729" d="M241.281,136.215c-0.191,0.048-1.438,1.125-1.688,1.875s0,1.813,0.188,2.25s0.688,0.5,1.375,0.5
		s1-0.875,2.063-1.375s1.938-0.75,2-1.25s0.125-1.875-1.063-2.063S242.281,135.965,241.281,136.215z"/>
	<path fill="#0C6729" d="M246.26,141.382c0,0-2.082,0.126-2.791,0.459s-1.126,0.707-1.084,1.166s1.292,1.709,1.542,1.959
		s0.791,0.582,1.083,0.541s1.375-1.707,1.5-2.166S247.01,141.715,246.26,141.382z"/>
	<path fill="#0C6729" d="M236.927,142.632c0,0-0.958,1.459-0.958,2.542s0.5,2.624,0.75,3.583s0.874,2.083,1.541,2.625
		s1.043,0.875,1.709,0.625s1.583-1.5,1.708-2.75s-0.001-3.791-0.917-4.833s-1.417-2.708-3.75-2"/>
	<path fill="#E2E20E" d="M182.302,119.882c0,0,0.833-1.5,3.25-2.75s5.167-2.334,7.667-2.25s5.25-0.584,8.25,3
		s5.083,7.084,7.583,11.834s4.333,8.166,7.917,11.583s4.251,4.084,7.334,4.917s10.25,0.833,10.25,0.833s0,3.751,0.083,4.667
		s0.25,4.083,0.25,4.083l-0.417,2.083l-1.833-0.333c0,0-10.251-2.166-11.501-2.583s-11.249-4.084-13.916-5.334
		s-9.75-6.166-10.584-6.583c-0.833-0.417-4-3.25-5-4.333s-6.417-8.167-6.417-8.167l-2.5-4.417l-0.667-2.083v-2.75L182.302,119.882z"
		/>
	<path fill="#E2E20E" d="M258.302,140.466c0.25-0.083,9.334-4.834,14.167-8.167s14.832-9.833,16.916-11.083s7.25-3.917,7.25-3.917
		s-0.416,3.833-0.416,4.5s0.832,4.834,0.916,5.084s2.668,9.25,3.834,12.333s6.5,14.5,6.5,14.5s-7,1.75-8,2s-6.668,1.583-8.334,1.833
		s-12.417,1.418-13.75,1.584s-10.082,0.417-11.249,0.5s-12.667,0.5-12.667,0.5s0.917-2,1.417-2.75s2.583-5.166,2.916-6
		s0.75-2.834,0.75-2.834l-0.167-6.583v-1.833"/>
	<path fill="#E2E20E" d="M339.594,121.09c0,0,1.75,2.875,4.375,3.5s6.625,1.125,9.375,0.125s5.75-2.5,8-4.5s5.5-6.25,6.375-7.625
		s2.25-5,2.25-5s1.5,3,1.375,4s-0.625,3.375-0.625,3.375s-2.25,2.625-3.25,4.125s-8.5,8.625-9.375,9s-4,3.25-5.375,4.125
		s-8.25,5.625-8.875,6s-4.875,3.5-4.875,3.5s-1.584-1.332-2.167-3.499s-0.333-3.417-0.25-4.5s2.083-9.083,2.083-9.083
		L339.594,121.09z"/>
	<path fill="#830000" d="M353.135,23.05c0,0-0.249,4-0.166,4.833s0.334,5.167,0.5,5.75s1.082,2.25,1.416,2.917
		s2.751,4.333,4.584,5.25s6.083,2.583,6.083,2.583l4.667,0.75l1.666,0.25l-3.583-5.75c0,0,6.333,3.417,6.75,3.75
		s0.917,0.417,0.917,0.417s0.249-1.083,0.416-2s0.833-4.083,0.75-4.583s0-3.25-1.75-5s-4.25-3-4.25-3s-2.082-0.083-2.666,0.333
		s-2.584,1.5-3.167,1.917s-2,1-2.75,1s-2.167-0.5-2.75-0.75s-3.333-2.833-3.75-3.583S353.135,23.05,353.135,23.05z"/>
	<path fill="none" stroke="#000000" stroke-width="0.75" d="M234.906,157.653c-15.688-0.938-29.688-6.938-41.688-17.938
		c-6-5-14-13-9.763-23.008c0,0,4.138-7.867,7.638-13.242s5.125-8.875,6.5-13.25s1.125-8.5-0.25-11.125s-7-5.375-10.5-5.125
		s-15.625,3-15.625,3"/>
	<path fill="none" stroke="#000000" stroke-width="0.75" d="M236.406,135.903c-0.063,0.188-1.813,4-1.688,9.125
		s0.313,11.25-0.375,14.563s-3,10.938-3,10.938s-8.25,0.313-10.375,0.938s-5.188,2.938-7,5.438s-2.875,4.625-2.875,4.625l2.75,0.313
		l-0.563,0.938l6-0.063l-0.188,0.938c0,0,8.438,0.313,13.063-0.313s6.75-1.5,10.25-6.188s12.938-20.063,14.188-22.938
		s1.75-4.938,1.75-4.938s0.125-4.813,0-6.75s-0.25-2.688-0.25-2.688"/>
	<path fill="none" stroke="#000000" stroke-width="0.75" d="M253.656,159.903c0,0,21.188-0.188,26.313-0.938
		s9.938-1.188,13.688-1.875s13.188-3.375,13.188-3.375"/>
	<path fill="none" stroke="#000000" stroke-width="0.75" d="M305.219,99.84c0,0-3.625,4.375-5.875,8.875s-3.313,9.125-3.063,13.438
		s2.688,12.25,4.625,16.938s8,17.875,8,17.875s-5.375,17.375-5.438,17.563s-9.063-0.125-11.563,0.813s-6.813,5.813-6.813,5.813
		s1.688,0.75,3.063,1.063s3.25,0.188,3.25,0.188l-0.188,0.875l7.75-0.188l-0.625,0.75c0,0,8.563-0.125,11.563-0.5
		s3.813-0.5,3.813-0.5l32.625-33.25c0,0-9.563-8.438-9.875-12.188s1.063-8.813,1.875-11.625s1.188-4.938,1.75-8.25
		s1.125-8,1.125-11.688s-0.938-10.875-2.938-17.875s-3.063-10-3.063-10"/>
	<path fill="none" stroke="#000000" stroke-width="0.75" d="M339.906,95.028c0,0,0.375-9.688-0.188-13.25s-1.75-10.125-4.375-13.938
		s-9.25-9.375-11.375-10.563s-4.875-1.75-4.875-1.75"/>
	<path fill="none" stroke="#000000" stroke-width="0.75" d="M266.219,68.965c0,0,6.625-4.625,10.75-9.75s8.75-15.5,8.375-21.375
		s-0.75-8-0.75-8s12.625-6,19.75-6.375s14.75,0,19.125,1s8.75,3.125,8.75,3.125s-7.375,2.875-8.125,6.125s-2,8.75,0,12.375
		s4,5.375,4,5.375s-8.25,1-10.5,4.875s-2.75,10.375-1.375,13.25s1.875,3.625,1.875,3.625s-12.875-3.875-20.5-3.625
		s-14.625-0.25-21.5,2.625s-8.625,3.625-8.625,3.625"/>
	<path fill="none" stroke="#000000" stroke-width="0.75" d="M276.094,60.09c-10.72,2.546-18.802,10.983-26.809,17.988
		c-9.281,8.121-17.26,17.41-24.316,27.512c0,0-3.279-11.705-5.827-19.165s-9.173-20.46-10.548-21.71s-19.75-13.875-19.75-13.875"/>
	<path fill="none" stroke="#000000" stroke-width="0.75" d="M252.303,76.215"/>
	<path d="M266.052,68.674l-6.583,4.438c0,0,6.563-3.542,7.063-3.938"/>
	<path d="M267.385,75.487c0,0-5.521,3.041-6.708,4.083s-1.188,1.042-1.188,1.042s7.271-4.021,8.104-4.438"/>
	<path d="M257.739,139.965c0,0-0.104-0.896-0.604-1.729s-0.5-0.833-0.5-0.833s1.541,1.416,1.791,2.458"/>
	<path d="M304.822,99.758c0,0,4.896-5.479,6.125-6.188s1.229-0.709,1.229-0.709s-6.396,6.916-6.896,7.5"/>
	<path d="M334.938,78.247c0,0-0.781-2.094-1.625-3.844s-0.844-1.75-0.844-1.75s2.656,3.719,3.094,5.281"/>
	<path fill="none" stroke="#000000" stroke-width="0.75" d="M341.386,109.716l10.917-2.417c0,0-3.167-14.333-3.25-18.083
		s0.333-6.5,0.333-6.5s2.75-4.583,9.417-10.166c6.667-5.584,20.667-16.25,20.667-16.25l-11.583-17.167c0,0,12.917,7,16.583,11.833
		s4,4.333,2.25,8s-4.501,6.75-11.584,14.75s-14,15.25-14,15.25s4.667,8.249,7.167,13.833s3.083,8.501,2.75,10.584
		s0.001,2.249-5.416,7.749s-9.085,8.168-13.501,11.584s-13.416,8.75-13.416,8.75"/>
	<path fill="none" stroke="#000000" stroke-width="0.75" d="M371.72,45.215c0,0-5.5-0.25-8.917-1.667s-5.833-3.583-8.25-7.417
		s-1.416-13.417-1.416-13.417s2.582,5.417,4.249,7.083s4.334,3.583,7.084,2.167s4.332-3.5,6.666-2.667s3,1.083,4.5,3.417
		s1.5,3.083,1.417,5.25s-1.25,5.583-1.25,5.583"/>
	<path d="M236.053,135.841c0,0,0.708-1.396,1.833-2.542s3.126-1.896,3.396-1.938s-3.979,3.604-4.563,4.75"/>
	<path fill="none" stroke="#000000" stroke-width="0.75" d="M229.094,156.778c-0.125,0.188-8.063,14.25-8.5,14.625
		s-0.438,0.375-0.438,0.375"/>
	<path fill="none" stroke="#000000" stroke-width="0.75" d="M212.719,152.153c0,0,0.438,6.188,0.063,9.438s-1.25,5.875-1.875,7.125
		s-0.938,1.813-0.938,1.813s-5.688,0-6.688,0.25s-2.875,1.438-4.25,2.688s-3,3.938-3,3.938s0.25,0.625,0.688,0.75
		s1.063,0.125,1.063,0.125l-0.438,0.563l4.625,0.063l-0.5,0.625h10.938"/>
	<path d="M219.125,182.622c0,0,3.875-4.938,5.781-6.094s1.906-1.156,1.906-1.156s-7.406,7.969-7.531,8.188"/>
	<path d="M213.688,181.622c0,0,1.375-2.313,3.938-4.438s2.719-2.156,2.719-2.156s-6.531,7.406-6.656,7.594"/>
	<path d="M201.813,178.809c0,0,2.875-3.156,4.281-3.969s1.406-0.813,1.406-0.813l-5.5,5.594"/>
	<path d="M197.531,178.403c0,0,2.563-3.219,3.875-3.969s1.438-0.844,1.438-0.844L198,178.747"/>
	<path fill="none" stroke="#000000" stroke-width="0.75" d="M272.802,159.716l-4.416,15.666c0,0-5.25-1.416-8.25,0.167
		s-5.334,3.75-5.334,3.75s1.916,1.417,3.25,1.417s2.167,0.083,2.167,0.083l-0.5,0.75l5.417,0.083c0,0,10.916-0.499,11.333-0.666
		s25.75-25.833,25.75-25.833"/>
	<path d="M291.406,182.403c0,0,1.25-2.75,2.625-3.875s3.938-1.875,3.938-1.875s-3.75,2.438-4.563,3.375s-1.688,3.188-1.688,3.188"/>
	<path d="M298.594,183.278c0,0,1-2.188,2.125-3.188s4.063-2.563,4.063-2.563s-3.188,2.313-4,3.375s-1.813,2.75-1.813,2.75"/>
	<path d="M265.136,181.632c0,0,0.271-1.604,1.771-2.729s2.75-1.438,2.75-1.438s-2.313,1.813-2.875,2.563s-0.688,1.938-0.688,1.938"
		/>
	<path d="M260.219,180.799c0,0,0.875-1.584,2.125-2.709s2.188-1.25,2.188-1.25l-4.313,4.625"/>
	<path fill="none" stroke="#000000" stroke-width="0.75" d="M257.969,70.881c0,0,0.5-11,3.125-16.125s8.5-11.375,10.125-12.625
		s3.125-2.25,3.125-2.25s-2.5-6.75-5-9.25s-15.375-11.125-21.125-13.375s-9.75-2.875-9.75-2.875s2.375,7,2.875,9.125
		s0.5,3.25-0.75,4.25s-5.375,2.375-5.375,2.375s2.25,3.75,4,8.5s1.625,6.25,1,8.5s-2.875,3.5-5,4.625s-3,1.375-3,1.375
		s3.75,1.75,8.75,5s3.5,1.625,6.625,6.125s4.875,10.75,4.875,10.75"/>
	<path fill="#077606" d="M239.969,32.256c0,0,8.5,3.375,17.5,4.625s15.125,2,15.125,2S244.469,32.381,239.969,32.256z"/>
	<path fill="#077606" d="M239.344,52.506c0,0,24.5-8.375,26.25-9.375s1.75-1,1.75-1s-10.375,8-27.5,10.625"/>
	<path fill="#020202" d="M318.178,55.84c0,0,1.126,0.125,1.417,0.167s0.25-0.583,0.25-0.583l-1.334-0.333"/>
	<path fill="#19CF53" d="M202.109,67c-0.208-0.383-0.418-0.764-0.635-1.141c-1.482-1.834-2.869-3.739-4.035-5.795
		c-0.698-0.645-1.405-1.276-2.066-1.921c-1.525-1.488-3.082-2.92-4.746-4.254c-1.198-0.96,0.498-2.634,1.684-1.684
		c1.887,1.512,3.958,3.194,5.871,5.007c0.068-0.054,0.148-0.088,0.228-0.126c-3.466-3.913-8.469-9.776-8.717-9.824
		c-0.368-0.071-8.284-3.253-8.284-3.253l-5.947-2.166l4.091-4.048c0,0,1.819-2.833,1.106-3.096
		c-0.713-0.266-18.122-4.389-18.122-4.389L149.06,34.84c0,0-4.186,4.539-4.134,4.931c0.052,0.391-7.566,4.905-7.566,4.905
		l-0.519-0.609c0,0-3.34,2.792-5.148,3.59c-1.809,0.796-6.998,1.959-10.113,1.612c-3.116-0.347-5.891-1.137-6.803-1.694
		c-0.911-0.558-5.021-3.005-5.762-3.785c-0.74-0.78-2.982-2.358-3.949-3.944c-0.967-1.587-3.667-4.527-3.667-4.527
		s-8.632,5.591-9.851,6.628c-1.218,1.038-5.923,4.968-6.798,6.2c-0.874,1.231-2.637,5.092-3.143,6.395
		c-0.461,1.187-1.773,5.155-2.004,5.855c1.945-0.342,3.759-1.278,5.699-1.542c1.516-0.207,2.985-0.225,4.517-0.204
		c3.661,0.05,7.33-0.989,11.021-1.13c1.951-0.075,3.849-0.062,5.753,0.009c0.271-0.001,0.544-0.008,0.814-0.007
		c0.182-0.321,0.507-0.562,0.979-0.582c6.178-0.26,11.946,0.991,17.79,2.682c1.854,0.155,4.042-0.015,5.505,1.03
		c0.082-0.042,0.176-0.071,0.289-0.071h0.167c0.549,0,0.719,0.568,0.53,0.942c0.293,0.282,0.397,0.741,0.007,1.102
		c-0.471,0.435-0.961,0.843-1.459,1.241c-0.046,0.087-0.089,0.174-0.17,0.255c-1.914,1.905-4.203,3.343-6.133,5.223
		c-1.004,0.978-2.005,1.91-3.078,2.759c1.934,0.249,3.755,0.599,3.755,0.599l6.589,2.8l1.83,1.625
		c0.614-0.292,1.374-0.272,1.952,0.306c0.167,0.167,0.333,0.334,0.5,0.5c0.319,0.319,0.471,0.674,0.504,1.024
		c0.225,0.366,0.446,0.742,0.667,1.121l3.026,2.278l-0.003,0.22c1.081,0.387,2.185,0.699,3.289,1.01
		c0.248-0.044,0.5-0.054,0.744,0.021c0.519,0.16,0.966,0.359,1.377,0.586c0.206-0.071,0.449-0.069,0.724,0.038
		c0.271,0.106,0.544,0.199,0.82,0.285c0.216-0.093,0.472-0.118,0.763-0.035c1.452,0.412,2.867,0.336,4.35,0.458
		c0.63,0.052,1.267,0.146,1.904,0.214c2.423-0.271,4.801-0.81,7.035-1.63c0.021-0.021,0.028-0.047,0.052-0.068
		c0.83-0.739,2.461-1.979,3.688-1.931c0.259-0.136,0.519-0.271,0.773-0.418c0.03-0.018,0.062-0.029,0.091-0.047
		c0.09-0.113,0.203-0.216,0.356-0.291c0.093-0.045,0.192-0.074,0.285-0.118l0-0.001c0.008-0.003,0.015-0.005,0.023-0.008
		c0.457-0.211,0.917-0.414,1.394-0.576c0.041-0.014,0.078-0.016,0.117-0.024c0.348-0.136,0.69-0.28,1.049-0.392
		c0.144-0.045,0.277-0.056,0.403-0.052c3.133-3.763,5.562-6.694,5.562-6.694l1.333-2.29l0.116-0.063
		c0.004-0.125,0.028-0.259,0.087-0.403c0.451-1.091,1.052-1.947,1.746-2.836c0.022-0.047,0.047-0.095,0.07-0.143
		c0.028-0.107,0.068-0.212,0.138-0.306c0.021-0.028,0.038-0.062,0.058-0.092c0.084-0.174,0.172-0.35,0.258-0.525
		c0.058-0.175,0.088-0.342,0.064-0.466c-0.125-0.636,0.171-1.283,0.832-1.464c0.455-0.125,1.002,0.061,1.288,0.444
		c0.035,0.019,0.076,0.023,0.109,0.047c0.167,0.006,0.342,0.045,0.521,0.129c1.884,0.884,3.657,1.697,5.463,2.39
		c1.297,0.375,2.591,0.761,3.891,1.127c1.055,0.021,2.079,0.095,3.095,0.226c1.464,0.028,2.92-0.028,4.38-0.14
		c0.907-0.36,1.8-0.498,2.749-0.506l0.498-0.968C202.133,67.044,202.121,67.022,202.109,67z"/>
	<path fill="#13923B" d="M142.595,54.068c0,0,0.059-0.021,0.166-0.06c1.077-0.388,7.113-2.546,8.005-2.374
		c0.982,0.189,2.222,0.365,2.568,0.877c0.347,0.512,0.615,2.092,0.135,3.59c-0.479,1.5-2.018,4.194-3.417,5.833
		c-1.398,1.64-5.838,4.857-5.838,4.857s3.746-4.242,5.128-6.458c1.382-2.216,2.151-4.55,2.17-5.31
		c0.019-0.76-0.613-1.773-2.671-1.661"/>
	<path fill="#13923B" d="M157.973,81.203c-6.546,3.575-9.744,2.004-12.765,1.165c-1.944-0.539-5.846-2.639-8.386-4.07
		c0.028,0.096,0.047,0.19,0.057,0.286c0.621,1.015,1.214,2.092,1.782,3.194c0.213-0.089,0.449-0.126,0.708-0.045
		c0.342,0.116,0.688,0.223,1.034,0.323c0.42,0.098,0.847,0.211,1.299,0.345c0.321,0.095,0.537,0.278,0.672,0.5
		c2.334,0.813,4.83,1.447,7.328,1.815c0.063-0.006,0.115-0.029,0.184-0.025c2.144,0.113,4.281,0.086,6.417,0.333
		c0.283,0.032,0.497,0.146,0.676,0.289c0.296-0.066,0.552-0.163,0.777-0.279c0.09-0.342,0.341-0.63,0.813-0.717
		c1.749-0.322,3.009-1.689,4.781-1.99c1.178-0.519,2.356-1.015,3.549-1.463c0.136-0.211,0.355-0.379,0.669-0.463
		c1.046-0.278,2.031-0.741,3.083-1c0.194-0.048,0.372-0.05,0.533-0.02l1.95-2.486c0.019-0.038,0.032-0.076,0.055-0.114
		c0.379-0.622,0.78-1.237,1.149-1.868c0.262-0.804,0.643-1.545,1.101-2.298c0.164-0.27,0.404-0.43,0.666-0.502
		c0.336-0.746,0.722-1.457,1.143-2.145c0.095-0.263,0.176-0.534,0.239-0.819c0.013-0.061,0.04-0.106,0.06-0.16
		C173.181,71.85,163.027,78.443,157.973,81.203z"/>
	<path fill="#5C3396" d="M192.359,10.584c0,0-2.79,6.549-3.24,7.565c-0.451,1.016-0.841,1.28-1.424,2.102
		c-0.584,0.821-2.516,2.485-2.516,2.485l-2.476,1.39l-1.863-0.02c0,0-2.659-1.616-3.087-2.039c-0.428-0.422-2.088-1.931-2.088-1.931
		l-1.738-0.675c0,0-2.6-0.161-3.626,0.319c-1.026,0.481-2.512,0.704-3.129,1.264c-0.618,0.56-4.942,4.054-4.942,4.054l8.517,2.492
		c0,0-0.946,2.704-1.091,3.015c-0.145,0.311,5.37,1.63,5.73,1.529c0.359-0.1,6.091-0.777,6.449-0.877
		c0.359-0.1,4.071-2.185,4.071-2.185l6.099-4.339l0.92-1.69l0.861-3.144l0.548-1.082c0,0-0.927-6.63-1.109-7.004
		c-0.182-0.375-0.697-1.663-0.697-1.663"/>
	<path fill="#5C3396" d="M172.057,42.354c0,0,2.178,0.591,2.735,0.783c0.557,0.191,4.36,2.029,4.59,2.159
		c0.229,0.129,3.869-0.696,3.869-0.696l9.578-4.772c0,0,3.845,0.743,4.074,0.872c0.23,0.128,7.506,2.891,7.506,2.891l6.756-1.583
		l3.678-2.346l2.365-3.022l1.105-3.098c0,0,0.752-7.408,0.643-9.042s0.066-2.109,0.066-2.109s-2.746,4.563-3.619,6.007
		c-0.873,1.444-3.289,4.288-3.289,4.288l-5.5,3.437l-1.01,0.399l-2.848-0.634l-2.125-2.192l-2.01-2.339c0,0-1.646-1.59-1.891-1.638
		c-0.245-0.047-2.652-0.767-2.652-0.767s-4.539,0.652-4.832,0.851c-0.293,0.197-5.638,2.392-5.638,2.392l-3.722,3.015l-4.387,3.822
		L172.057,42.354z"/>
	<path fill="#42256A" d="M179.086,45.068c0,0,4.237-4.147,5.333-5.208c1.096-1.062,4.42-2.458,5.474-2.637
		c1.052-0.178,3.95,0.636,5.329,1.411c1.378,0.775,3.332,3.189,5.049,3.521c1.719,0.331,3.781,0.856,5.689,0.206
		s3.33-0.758,5.523-2.244c2.199-1.486,5.877-4.722,5.877-4.722l0.582-1.034c0,0-0.564,3.583-1.047,4.763
		c-0.482,1.18-1.621,3.125-2.375,3.743c-0.758,0.618-2.174,1.363-3.176,1.933c-1,0.571-3.721,0.81-4.381,0.937
		c-0.662,0.127-4.117,0.224-4.51,0.275c-0.393,0.052-3.775-0.219-4.145-0.29c-0.368-0.071-2.752-0.913-2.752-0.913l-6.964,7.059
		C188.595,51.869,180.167,45.404,179.086,45.068z"/>
	<path fill="#42256A" d="M194.051,17.657c-0.193,0.345-1.391,4.57-2.7,6.736c-1.31,2.165-4.024,3.042-5.244,4.08
		c-1.218,1.039-3.103,1.566-3.103,1.566l3.635,0.956l2.37-1.07l2.055-0.75c0,0,0.897-1.354,0.969-1.723
		c0.07-0.368,1.9-5.234,1.9-5.234l0.235-5.174"/>
	<path fill="#42256A" d="M172.888,27.705c0,0,2.171,1.946,3.299,2.036c1.128,0.091,0.542,0.487,0.542,0.487s-4.683-0.14-5.539,0.332
		c-0.855,0.472-0.514,0.027-0.514,0.027l1.962-3.568"/>
	<path fill="#830000" d="M191.059,53.83c0,0,6.086,3.21,6.628,3.484c0.541,0.274,6.399,3.781,6.399,3.781s-0.512-5.275-1.508-7.59
		c-0.994-2.313-4.875-8.155-4.875-8.155l-2.178-0.59l-6.982,6.716l2.089,1.93"/>
	<path fill="#830000" d="M165.925,32.345c0,0,4.876,0.686,6.185,0.938c1.309,0.252,7.155,2.059,7.155,2.059s2.132-1.371,2.995-1.883
		c0.863-0.512,4.753-2.646,4.753-2.646s-12.183-1.078-13.684-0.774c-1.502,0.305-8.106,2.425-8.106,2.425"/>
	<path fill="#830000" d="M150.322,33.154c0,0,5.294-5.005,7.542-6.099c2.248-1.094,4.81-1.619,4.81-1.619l12.784-2.032l-4.56,7.354
		c0,0-5.269,1.359-5.612,1.378c-0.344,0.019-3.772,0.631-3.772,0.631s-4.242-1.327-5.205-1.174
		C155.347,31.746,150.322,33.154,150.322,33.154z"/>
	
		<ellipse transform="matrix(-0.9819 -0.1895 0.1895 -0.9819 302.4063 113.8224)" fill="#FFFFFF" cx="156.644" cy="42.457" rx="11.219" ry="10.562"/>
	
		<ellipse transform="matrix(-0.9819 -0.1895 0.1895 -0.9819 272.1193 98.8267)" fill="#FFFFFF" cx="140.784" cy="36.405" rx="9.25" ry="8.083"/>
	<path fill="#FFFFFF" d="M133.311,36.045c-0.356-0.068-0.689,0.11-0.745,0.397c-0.056,0.288,0.188,0.577,0.543,0.646
		s0.69-0.109,0.745-0.397"/>
	<circle fill="#FFFFFF" cx="151.629" cy="39.58" r="0.875"/>
	<circle fill="#FFFFFF" cx="147.788" cy="42.499" r="0.656"/>
	<path fill="none" stroke="#000000" stroke-width="0.75" d="M136.732,43.771c0,0-2.341,2.009-4.343,3.151
		c-2.003,1.141-6.473,2.315-11.707,1.731c-5.234-0.586-9.424-3.941-12.284-6.275c-2.86-2.334-6.494-8.128-6.494-8.128
		s-12.432,8.125-16.097,12.171c-3.667,4.045-6.282,13.641-6.282,13.641s7.313-1.391,12.573-1.819
		c5.26-0.428,19.55-1.914,24.132-1.029c4.582,0.884,10.964,2.115,15.908,3.324s6.892,1.669,9.423,1.309
		c2.53-0.361,2.707-0.835,2.707-0.835"/>
	<path d="M143.88,60.937c0,0,2.455-2.168,3.31-3.627c0.854-1.458,0.854-1.458,0.854-1.458s-2.204,4.825-3.64,5.503"/>
	<path fill="none" stroke="#000000" stroke-width="0.75" d="M171.177,53.727c0,0,5.575,8.714,12.018,11.612
		c6.442,2.899,10.71,3.213,13.137,3.171c2.428-0.041,5.832-0.53,5.832-0.53s-3.627-6.937-8.119-11.369
		c-4.492-4.431-15.133-11.959-18.229-13.065c-3.097-1.107-3.097-1.107-3.097-1.107"/>
	<path d="M172.884,42.132c0,0-1.021-0.091-1.502,0.092c-0.481,0.183-1.272,1.092-1.272,1.092s1.77-0.699,2.542-0.528"/>
	<path fill="none" stroke="#000000" stroke-width="0.75" d="M172.042,42.436c0,0,8.483-8.335,12.212-10.289
		c3.729-1.955,8.426-3.636,10.766-3.016c2.342,0.622,4.078,2.399,5.355,3.919c1.277,1.519,1.355,2.426,2.943,2.775
		c1.59,0.348,2.092,1.252,4.633-0.253c2.539-1.504,4.311-2.774,5.939-4.836c1.629-2.063,5.15-8.215,5.15-8.215
		s0.176,7.673-1.236,12.789c-1.412,5.117-3.182,8.128-6.156,9.251s-9.289,1.518-11.637,1.15c-2.348-0.369-4.633-0.852-4.633-0.852
		s-6.865,6.781-6.971,6.888"/>
	<path fill="none" stroke="#000000" stroke-width="0.75" d="M197.565,45.41c0,0,4.011,4.72,5.282,8.912
		c1.27,4.191,1.311,6.618,1.311,6.618s-13.207-7.428-14.305-7.895"/>
	<path d="M170.923,54.06c0,0-1.821-2.77-2.287-3.656s-0.466-0.886-0.466-0.886s2.998,3.602,3.4,4.157"/>
	<path fill="none" stroke="#000000" stroke-width="0.75" d="M150.151,33.057c0,0,6.065-5.704,10.407-7.094
		c4.342-1.39,14.815-2.552,14.815-2.552s-4.596,7.324-4.792,7.351"/>
	<path fill="none" stroke="#000000" d="M187.115,30.832c0,0-6.072-0.853-11.306-0.781c-5.233,0.072-11.334,2.333-11.334,2.333"/>
	<path fill="none" stroke="#000000" stroke-width="0.75" d="M161.831,25.635c0,0,4.495-4.162,5.973-4.895
		c1.479-0.733,5.979-2.283,7.927-0.507c1.949,1.776,3.924,3.749,5.42,3.91s4.991-1.456,6.833-4.41
		c1.844-2.954,4.643-9.543,4.643-9.543s2.18,6.85,1.385,10.643c-0.797,3.792-2.068,7.748-2.617,8.278"/>
	
		<ellipse transform="matrix(-0.9819 -0.1895 0.1895 -0.9819 302.4154 113.5661)" fill="none" stroke="#000000" stroke-width="0.75" cx="156.636" cy="42.328" rx="11.219" ry="10.438"/>
	<path fill="none" stroke="#000000" stroke-width="0.75" d="M145.695,42.911c-0.092-0.463-0.095-0.943-0.042-1.426
		c-0.054-0.645,0.024-1.3,0.208-1.918c0.047-0.391,0.144-0.775,0.334-1.08c0.139-0.446,0.348-0.868,0.645-1.241
		c0.145-0.273,0.327-0.539,0.534-0.789c0.335-0.527,0.746-0.992,1.21-1.394c0.247-0.335,0.521-0.64,0.843-0.904
		c-1.08-2.729-3.744-4.958-7.188-5.622c-5.034-0.971-9.792,1.757-10.629,6.096c-0.837,4.339,2.564,8.643,7.598,9.614
		c2.357,0.455,4.646,0.087,6.509-0.868c-0.001-0.079-0.001-0.157-0.001-0.236C145.708,43.066,145.697,42.99,145.695,42.911z"/>
	<polyline points="149.958,32.733 149.296,33.528 149.359,33.859 150.293,33.307 150.766,32.507 	"/>
	<path fill="none" stroke="#000000" d="M161.32,32.899c0,0,2.59-1.113,9.316,0.101c6.727,1.213,9.3,2.388,9.3,2.388"/>
	<path fill="#5C3396" d="M198.406,41.194c0,0,1.563,1.188,3.125,1.313s1.063-0.875,1.063-0.875s-2.375-1.563-2.625-1.625
		s-2.25-0.5-2.25-0.5"/>
	<path fill="#FFFFFF" d="M145.695,42.911"/>
	<polygon fill="#020202" points="160.219,41.465 145.386,42.798 145.552,44.465 	"/>
	<polygon points="143.052,43.965 138.469,34.548 144.719,43.548 	"/>
	<path fill="none" stroke="#000000" stroke-width="0.75" d="M137.552,72.422c0,0-3.875,0.75-6,1.375s-3.125,2.875-4.25,5.5
		s-0.375,10.75-0.375,10.75s-1.5,0.375-3.75,0.75s-9.375-1.125-11.375-1.75s-4.875-3-4.875-3s24.875-23.625,25.375-24l1.375-1.375"
		/>
	<path fill="none" stroke="#000000" stroke-width="0.75" d="M130.385,74.38c0,0,4.125,4.75,6,5.875s8.25,3.625,12.125,4
		s7.5,0.875,10,0s8.375-4,10.125-4.5s3.125-1.375,3.125-1.375l7.625-12.75"/>
	<path fill="#020202" d="M179.042,65.443c0,0,0.563-0.875,0.656-1.125s0.281,1.031-0.094,1.563"/>
	<path fill="#FF6005" d="M118.469,67.881c0,0-10.5,4.668-11.583,5.334s-3.834,2.417-4.417,3s-2.166,2.334-2.583,3
		s-1.667,1.916-1.667,1.916l-2.083,1.834l-3.667,2.25c0,0-0.417-3.416-0.167-4.5s1.667-3.084,2.083-3.917s3-4.083,3-4.083
		s-26.083,6.084-27.5,6.75s-5.917,2.25-7.75,3.25s-6.917,3.166-8.167,3.666s-3.667,0.917-4.5,1s-8.25-0.083-9.417,0
		s-9-0.667-9-0.667l22.833-11.166c0,0-17.75-0.584-19.5-0.584s-13.917-0.584-14.917-0.5S8.385,73.132,7.385,73.048s-6-0.917-6-0.917
		s4.333-2.667,5.833-2.917s6-1.083,6-1.083l5-1.167l4.75-1.167c0,0-9.083-4.166-9.833-4.333s-9.167-1.083-9.417-1s1.917-1.5,3-1.833
		s7.167-1.667,7.917-1.667s8.583,0.833,8.583,0.833l4.083,1.083l1.833,1.167l2.167,0.417l8.917-0.833c0,0-4.5-2.25-6.333-3.333
		s-7.667-4.167-7.667-4.167l-6.417-2.333l-2.833-1.833c0,0,5.167-0.917,6.917-1s8.25,1.583,9.583,1.75s8.417,2.666,9.5,3.333
		s7.167,4.667,8.917,5.667s8.417,4.583,10.333,4.833s9.417,2.916,11.917,3.083s9.166,0.833,10.75,0.75s9.667,0.167,11.75,0.25
		s9.5,0.167,11.083,0.25s10.75,0.5,10.75,0.5"/>
	<path fill="#FF6005" d="M50.802,52.548c0,0,3.25,3.917,4.667,4.75s5.417,1.917,6.417,2.167s9.417,0.917,9.417,0.917
		s-3.333-3.167-4.417-4.083s-4.417-2.083-4.833-2.167S50.802,52.548,50.802,52.548z"/>
	<path fill="#FF6005" d="M7.302,79.465c0,0,8.5,3.167,9.167,3.5s2.75,0.5,3.167,0.333s2.583-0.999,2.75-1.583
		s2.333-2.084,2.333-2.084l0.833-0.25C25.552,79.381,13.302,78.299,7.302,79.465z"/>
	<path fill="none" stroke="#000000" stroke-width="0.75" d="M117.552,67.048c0,0-22.833-0.167-31.833-0.5s-18.333-1.5-27.167-5.333
		s-11.333-7.334-17.833-10.167s-17.333-4.333-19.833-3.833s-4.833,0.833-4.833,0.833s6.833,2.833,12,5s6.333,3.333,8.667,4.833
		s3.167,2,3.167,2s-6,0.5-8,0.667s-3.833-1-5.667-2s-11.333-2-14.333-1.333s-9.167,3.167-9.167,3.167s8.5,0.333,12.167,1.833
		s7.833,3.667,7.833,3.667s-3.667,1.333-10.5,2.5s-11.167,3.5-11.167,3.5s9.333,2.167,19,2.5s33.167,1.5,33.167,1.5l-22.167,11
		c0,0,10.833,1.001,15.167,0.667s10.167-1.334,14.333-3.834s5.5-2.834,8.5-4s16.333-4.333,19-4.833s9-1.833,9-1.833
		s-3.667,4.666-4.333,6.666s-0.333,5.667-0.333,5.667s4-2.499,6.5-4.833s3-4.667,6.167-6.5c3.167-1.833,12.5-5.667,13.167-6
		S117.552,67.048,117.552,67.048z"/>
	<path fill="none" stroke="#000000" stroke-width="0.75" d="M50.719,52.715c0,0,3.667,4.833,7.833,6.167s12.667,1.667,12.667,1.667
		s-4.667-5.166-7-5.833S50.719,52.715,50.719,52.715z"/>
	<path fill="none" stroke="#000000" stroke-width="0.75" d="M6.719,79.381c0,0,0.396,0.139,1.043,0.363
		c2.679,0.93,9.651,3.335,10.457,3.47c1,0.167,2.5,0.167,3.833-1.333s3.167-2.667,3.167-2.667S10.552,78.381,6.719,79.381z"/>
</g>
<g id="frame_2">
</g>
</svg>
