<?xml version="1.0" encoding="utf-8"?>
<!-- Generator: Adobe Illustrator 13.0.0, SVG Export Plug-In . SVG Version: 6.00 Build 14948)  -->
<!DOCTYPE svg PUBLIC "-//W3C//DTD SVG 1.1//EN" "http://www.w3.org/Graphics/SVG/1.1/DTD/svg11.dtd">
<svg version="1.1" xmlns="http://www.w3.org/2000/svg" xmlns:xlink="http://www.w3.org/1999/xlink" x="0px" y="0px"
	 width="242.46px" height="174.417px" viewBox="0 0 242.46 174.417" enable-background="new 0 0 242.46 174.417"
	 xml:space="preserve">
<g id="frame_1">
	<path fill="#FFA82B" d="M9.872,29.709l7.5-5.333l11.667-15.5l3-2.5c0,0,8.5-3.5,10.5-3.667s7-0.5,7.5-0.5s5.5,1.833,5.5,1.833
		s2.167,2,2.667,2.333s4.5,3.667,5.667,4.5s3.667,4.667,3.667,4.667s-0.666,6.833-0.833,7.833s-0.667,5.167-2.333,9
		s-4.667,8.333-5.5,9s-8.333,2.833-8.833,2.833s-12,0.667-12.5,0.667s-5.5-3.167-6-3.333s-11.333-3.833-12.333-4.5
		s-8.333-4.833-8.333-4.833L9.872,29.709z"/>
	<path fill="#FFA82B" d="M240.539,116.043l-2.5-10.167l-2.834,1l-1,3.5l-0.833,4c0,0,0.666,3.999,0.333,5.833s-1,4.834-1.5,6.167
		s-0.5,1.166-1.833,2.833s-0.333,2.001-2,2.834s-3.166,1.499-6.166,1.666s-6,0.001-10-0.666s-7.668-2.5-9.334-3.667
		s-4.332-3.833-5.666-6.333s-4.001-9-4.334-10.5s-2.333-7.332-3.333-10.666s-3.167-10.334-4-11.167s-3.001-5.001-4.667-5.667
		s-4.499-3.833-6.166-4.5s-2.666-3.667-5-5s-5.001-3.499-6.001-3.667c-1-0.166-7.166,0-8.833,0s-4.5,0-6.5,0.334
		c-2,0.333-4.834,0.834-8.667,1s-6.499,0-9.166,0s-8.833-0.334-11.5-1.334s-8.667-2.999-10.667-3.166s-9.334-1.833-10.667-2.333
		s-7.833-2.833-8.833-2.833s-11.833-3.167-11.833-3.167l-1.833-0.168l-18.5,18.167c0,0,2.667,21.499,2.667,21.999
		s9.667,13.334,9.833,13.834s3.5,6.5,3.5,6.5l3.5,7l0.833,3.667c0,0-10,27.333-10.5,27.5s-12.333,1-14,1.667
		s-4.666,2.833-6.333,4.333s-3.333,4-3.333,4s3.167,1.833,5,2.5s9,1.334,10.833,1.167s9.333-1.667,9.333-1.667
		s5.333-5.333,5.333-5.833s3.667-12.999,4-13.833s8.833-9.167,9.333-9.667s6.833-5.166,5.833-5.5s-3.166-1.334-2.833-1.834
		s2.999-7.5,2.833-9.333s2.834-10.833,2.834-10.833l0.999,0.166c0,0,2.834,4.001,3.834,3.834s13.833-3.667,13.833-3.667l9.167-1.667
		l8.61,3.815c0.206-0.202,0.496-0.301,0.853-0.157c1.11,0.446,2.337,0.544,3.354,1.222c0.186,0.123,0.301,0.279,0.367,0.446
		c0.801,0.166,1.536,0.449,1.977,1.272c0.009,0.016,0.007,0.031,0.014,0.047c2.11,0.852,5.168,2.081,5.492,2.188
		c0.5,0.166,6.166,3.667,7.166,4s4,1.833,4,1.833s-1.5,7.333-3,11.333s-3.667,7.5-4.667,10.167s-2.5,5.833-3.833,8s-4,5.833-4,5.833
		s-9.167,0.166-11.167,0.5s-4.167,1.334-5.5,2.334s-3.166,2.333-3.833,3.333s-2,2.5-2,2.5l2.667,0.667c0,0,0.167,0.666,2,0.833
		s5.833,0.167,5.833,0.167l-0.833,0.5c0,0,2.5,0.334,5,0.5s8.5-1.5,8.5-1.5l6-1.167c0,0,7.332-13.167,9.166-16.5s6.5-13.333,7-14
		s4.667-11.666,4.167-11.833s2.5-8,2.5-8s-0.453-1.302-1.053-3.045c-1.352-2.472-2.398-5.067-3.122-7.826
		c-0.077-0.293,0.015-0.654,0.223-0.902c-0.031-0.116-0.048-0.194-0.048-0.227c0-0.5,4-6.334,4.5-7.334
		c0.299-0.597,1.604-2.318,2.61-3.612c0.756-1.247,1.694-2.523,2.883-3.031l1.507-1.356l1.5-3.666c0,0,4.833,9.5,5,11
		s3.166,12.499,3.5,14.666s5.5,10.834,6.167,11.334s10.999,10.167,11.499,10.5s9.167,2.333,11.167,2.333s8.666,0.834,9.333,0.667
		s6.834-0.667,6.834-0.667s2-0.167,5-4.667s3.332-6,4.166-8.333S240.539,116.043,240.539,116.043z"/>
	<path fill="#B2751E" d="M52.164,53.542l3.75,16.125l5.25,2c0,0,7.5-3.75,7.875-4s4.75-4.625,4.75-4.625l2.25-1.625l-0.375-1
		c0,0-5.75-3.75-7.875-6s-9.75-8.5-10.25-8.5s-1.875,7-1.875,7L52.164,53.542z"/>
	<path fill="#7F5415" d="M110.414,117.917c0,0,4,2.125,6.625,3.5s8.875,3.625,9.25,3.875s3.125,1,3.125,1s-5.5,16.5-5.75,17.375
		s-2.75,5.25-2.75,5.25l-5.875,10.375l-0.375,0.875c0,0-5.125-1.5-7-1.25s-6.625,1.375-7.5,2s-2.5,1.875-3.375,3
		s-2.5,3.875-2.5,3.875l1.75,0.125l-0.125,0.875l8.125-0.125l-0.75,1.25c0,0,6.5,0.25,7.875-0.125s8-1.875,8-1.875l0.875-0.25
		c0,0,5.625-9.625,9-14.25s9-10.875,9-10.875l13.75-13.375l-10.625,2.125l8-7.25c0,0-9.625-5.375-10-5.5s-10.25-6-10.25-6
		l-3.5,1.875l-8.75-0.125l-5.75,3.5"/>
	<path fill="#7F5415" d="M52.539,120.167l3.75,11.625l-9.875,23.125c0,0-6.75,0.625-8.25,1s-7.5,4-9.375,5.75
		s-2.625,2.625-2.625,2.625s1.625,1.75,2.25,1.875s1.375,0,1.375,0l0.5,0.5l2.25,0.25l3.125,0.125l0.875,0.625l0.75,0.25
		l2.875-0.125l2.875,0.125c0,0,3.125-3.625,4.5-4.375s5.625-3,5.625-3l2.625-0.25l6.25-13.625l12.5-7.75l-0.125-0.75l-3.625-2.5
		l5.875,0.125l-1.25-2.625c0,0-1-1.25-1.25-2.625s0.375-4.625,0.375-4.625l-16.75-5.875L52.539,120.167z"/>
	<path fill="#B2751E" d="M176.164,94.167c0,0-7.875,5.25-10.625,7.625s-5,6.875-5.25,8.875s-1.25,4.25,1.25,7.375s5.75,7,5.75,7
		l-8,10.125l3.25-0.625c0,0-10.875,14.5-12.875,18.875s-6.5,13.625-7,14.125s-3.625,5.5-3.625,5.5l7-1.625c0,0,8-13.25,8.375-14
		s8.25-10.375,9.375-11.875s9.625-10.25,9.625-10.25l6.25-5.875l-10.875,2l9.5-8.625l-9.25-12.125c0,0,4.5-8.125,5.25-9.875
		S176.164,94.167,176.164,94.167z"/>
	<path fill="#B2751E" d="M97.039,111.917l-0.09-1.617l-0.035-0.633c0,0-5.125,4.5-5.875,7s-2.125,10.625-2.375,13.375
		s0.25,3.625,0.25,3.625l-7.25,0.25l5.5,5.375c0,0-2.25,0.125-4.875,2s-5.75,5.25-6.875,7.5s-2.375,5.375-2.75,7.625
		s-1,6.375-2.125,8s-5.625,7.375-5.625,7.375l8.5-2.125l11.125-21.125l16.5-9.125l-5.75-2.625l6.5-0.125c0,0-4.5-7.625-4.75-9.375
		s0.375-10.5,0.375-10.5"/>
	<path fill="#B2751E" d="M97.289,114.417c0,0,8.625-2.25,12-3.375s8.75-2.5,10.25-2.875s6.5-1.625,6.5-1.625l3.625,5.125
		c0,0-16.375,4.5-16.75,4.625s-12.25,3.75-12.25,3.75l-3.5,0.375L97.289,114.417z"/>
	<path fill="#B2751E" d="M176.539,88.167c0,0,1.875,1.375,4.625,6.75s4.25,10.125,5.125,13.375s4.75,11.125,7,14.5
		s8.25,10.5,13.125,12.5s6.625,2.75,10.5,3.125s9.75,0.625,10.125,0.625s5.5,0.375,5.5,0.375s-2,1.5-3.25,1.875
		s-8.75,1.5-9.75,1.375s-10.875-1.125-14.25-2.5s-8.125-4-8.625-4.5s-5.375-6.625-5.375-6.625l-4.25-6.625l-1.5-3.25l-3.5-13.125
		l-1.25-4.625l-3.125-6.375l-1.5-0.875L176.539,88.167z"/>
	<ellipse fill="#FFFFFF" cx="40.164" cy="22.667" rx="10.75" ry="10.5"/>
	<ellipse fill="#FFFFFF" cx="22.539" cy="20.604" rx="8.875" ry="7.688"/>
	<path fill="#FFFFFF" d="M48.164,8.042c0,0-3.25,0.625-6.25,2.25s-7,5-7,5s-5.375,10.25-5.875,11.875s-0.375,4.75,0.5,6
		s0.75,1.75,3.5,2.375s8.5,0.625,11.125,0.5s6.125-4,6.125-4l4.5-6c0,0,1.125-3,0.625-5.375s-1.625-9.125-3.125-10.125
		s-3.625-3.125-3.625-3.125"/>
	<path fill="#FFFFFF" d="M29.914,7.917c0,0,0.875,4.375,0,6.625s-4.5,9.5-4.5,9.5s-4.25,5-4.625,5.125s-0.625,0.375-1.625,0.125
		s-4.875-2-4.875-2l3.625-4.5l5.25-8.125l-2-1.125l0.875-1.25l8.125-4.875"/>
	<path fill="#FFFFFF" d="M68.039,17.792l22.375-7.25c0,0-0.5,4.5-2,6.875s-5,5.625-6.25,6.75s-5.625,3.5-6.875,4.125
		s-3.625,1.875-4.625,2.25s-1.5,0.625-1.5,0.625L68.039,17.792z"/>
	<path fill="#FFFFFF" d="M11.164,45.167c0,0-6.875-8.375-7.25-9.5s-0.75-3.25-0.5-3.875s1.25-2,1.25-2l3.5-0.375l5.125,0.5l7.25,2.5
		l2.375,3l-4.125,0.875l-8.125,0.5l1,8.375"/>
	<path fill="#FFFFFF" d="M3.789,34.792c-0.375,0-2,2.375-2.375,3.375s-0.75,3.5-0.875,4.375s0.625,4,0.75,4.625s1.5,3.25,1.5,3.25
		s-0.375,1.875-0.625,3s-1.125,3.875-1.125,5s0,3.75,0.125,4.625s0.25,3.75,0.5,4.5s0.875,2.375,1.25,3s0.75,1.625,1.5,2.25
		s1.5,0.875,1.5,0.875l1.125-1l2.125,1.875c0,0,1.5,1,2,0.875s1.125-0.5,1.25-0.875s0.25-2.375,0.25-2.375l1.125,0.375
		c0,0,2.25,2.5,2.875,2.375s1.375-0.375,1.375-0.375l0.25-2.75l0.875-0.875h3.625l1.625-1l-1-2.625l-1.125-2.625l6.25-5.25
		l3.625-7.625c0,0,8.875-3.5,9.5-3.25s9.125-1.75,9.5-1.5s4-2.25,4-2.25l4-1.375l3.5-7l-0.875-3.375c0,0-5.625,5.75-6.5,6.25
		s-6.75,1.875-7.125,2s-2.875,0.25-7.25-0.25s-9.625-2.125-10.875-2.375s-4-2.125-4-2.125l-5.875-0.125"/>
	<path fill="#FFFFFF" d="M57.414,75.792c-0.375,0.25,1.125,14.5,2.5,20.125s1.875,8,4.625,10.75s8,6.75,8,6.75l1,7.375
		c0,0-9.5-2.5-10.5-2.625s-7.875-3.625-8.5-4.375s-4.875-7.875-5.125-8.5s-0.625-12.25-0.75-13.375s2.75-10.5,2.75-10.5
		s4.25-4.375,4.625-4.625"/>
	<path fill="#B1B1B1" d="M67.039,19.542l-6.125,14.75l-0.75,7.75l-5.25-1.375l-2,0.375l-0.5,3.375c0,0-6.375-0.25-9.25,0.75
		s-8.25,3.125-10.5,5.25s-3.625,2.625-4.5,4.375s-1.375,5.5-1.375,5.75s4.625-3,4.625-3l4-1.875l1.875-0.25l0.375,4.375
		c0,0,1.5,12.375,1.375,15.125s-2.875,13.875-4.125,17.125s-9.25,24.625-9.25,24.625l9.375-7.625c0,0,4,8.75,7.75,11.875
		s9.75,6.375,9.375,6.25s-4.25-4.5-4.625-6.25s-0.375-4.625-0.375-4.625s3.125,2.875,5.125,4.5s7,4.375,9.5,5.25
		s7.625,1.875,7.625,1.875l6.75-0.125l-2.75-10c0,0,1.125,1.375-7-0.375s-4.375-1.625-6.125-2.375s-3.375-2.375-3.375-2.375
		l8.375-0.375c0,0-3.5-1.75-6.125-3.625s-4.25-4.625-5.875-8.875s-1.875-6.25-1.75-10.125s1.75-7,2.25-10.125s2.625-7.75,2.625-7.75
		s-0.625-6.125-1.25-8.125s-2.75-8.375-2.75-8.375l14.5,3.375c0,0-8.625-10.125-8.25-9.875s14.5,10.25,14.5,10.25l-6.25-16.25
		l11.5,12.875c0,0-6.25-15.25-7.125-16.625s-2.125-8.5-2.125-8.5s-0.75-5.75-0.875-6.875s-0.875-4.75-0.875-4.75"/>
	<path fill="#B1B1B1" d="M97.539,116.042c0,0-0.375,6.5-0.375,7s2.25-0.25,2.25-0.25l9.25-3.875l7.125-2.125
		c0,0,4.5-0.625,4.875-0.75s6.625-0.875,6.625-0.875l4.25,0.875l4.625,1.625c0,0-3.875-3.5-4.5-3.875s-2.25-2.375-2.25-2.375
		s-2.125-0.75-2.5-0.625s-6.375,0.25-6.375,0.25l-5.125,1.125l-8.375,1.875l-6.5,1.5L97.539,116.042z"/>
	<polygon fill="#B1B1B1" points="142.164,120.667 154.289,128.917 155.539,125.417 	"/>
	<ellipse fill="#0092FF" cx="33.414" cy="23.979" rx="4.25" ry="3.688"/>
	<ellipse fill="#0092FF" cx="17.851" cy="20.854" rx="3.688" ry="3.188"/>
	<circle fill="#00426B" cx="32.914" cy="23.792" r="1.5"/>
	<circle fill="#00426B" cx="17.289" cy="20.917" r="1.25"/>
	<ellipse fill="#FFFFFF" cx="34.789" cy="22.167" rx="1.375" ry="1.125"/>
	<ellipse fill="#FFFFFF" cx="31.289" cy="26.104" rx="1" ry="0.938"/>
	<ellipse fill="#FFFFFF" cx="19.351" cy="19.729" rx="1.188" ry="1.063"/>
	<ellipse fill="#FFFFFF" cx="15.539" cy="22.792" rx="0.75" ry="0.625"/>
	<path fill="none" stroke="#000000" stroke-width="0.75" d="M22.039,12.167c0,0,3.625-2,6.375-3.5s7.125-3.75,10.25-4.75
		s4.625-0.75,7.125-0.875s4.125-0.375,5.75,0s3.375,0.75,6.5,3.125s5.875,4.875,7.625,8s2.375,4.5,2.625,8.125
		s-0.125,4.875,0.875,9.625s0.5,4.625,2.625,8.625s6.625,15.875,6.5,15.5S66.164,42.917,66.164,42.917l7,16.375l-14.75-10.375
		l7.875,9.625c0,0-7-1.5-11.625-2.5s-14-1-16.25-0.75s-7.625,2.375-9.75,4s-6.5,5.25-6.5,5.25s1,3.25,1.5,4.25s0.625,1.75,0,2.25
		s-2.875,0.125-3.25,0.125s-2-0.25-2-0.25"/>
	<path fill="none" stroke="#000000" stroke-width="0.75" d="M18.164,69.542l-0.125,5c0,0-0.5,0.625-0.875,0.75
		s-2.375-1.25-2.375-1.25l-3.625-4.25"/>
	<path fill="none" stroke="#000000" stroke-width="0.75" d="M12.164,70.792c0,0,0.625,2.5,0.25,3.5s-0.875,1.375-2.25,1.125
		s-2.875-2.75-2.875-2.75l-1.375-2.75"/>
	<path fill="none" stroke="#000000" stroke-width="0.75" d="M7.164,72.042c0,0-0.625,1-1.375,1.5s-2.75-0.75-3.625-3.5
		s-1.625-7.25-1.5-9.5s0.75-5.875,1-6.75s0.375-2.75,0.375-3.25s-0.875-2.5-1.375-4.25s-0.25-3.5,0-5.125s2.375-6.125,2.375-6.125"
		/>
	<path fill="none" stroke="#000000" stroke-width="0.75" d="M3.789,30.917c0,0-0.625,0.25-0.5,2.375s-0.125,1.75,1.25,4s6.5,9,6.5,9
		s3-1.75,4.375-2.625s9.625-6,9.625-6l1.125-0.875c0,0-3.25-3.5-6.25-4.75s-8.5-2.5-10.125-2.5s-6,0.75-6,0.75"/>
	<line fill="none" stroke="#000000" stroke-width="0.75" x1="10.289" y1="29.542" x2="15.789" y2="25.542"/>
	<line fill="none" stroke="#000000" stroke-width="0.75" x1="11.039" y1="46.292" x2="10.289" y2="51.667"/>
	<path d="M3.789,50.542c0,0,0.238,0.015,0.636,0.043c1.62,0.115,5.883,0.456,7.489,0.957c2,0.625,9.875,5.5,9.875,5.5
		s-3.75-1.625-4.75-2.125s-4.875-2.25-5.625-2.5"/>
	<path d="M53.539,3.292l12.875-2.625l-6,7c0,0-5.125-3.375-6-3.875"/>
	<path d="M63.914,11.292l26.875-1.5c0,0,0.125,1-0.625,1.25s-8.375,2.5-9.125,2.75s-6.25,2.125-8.375,3.25s-4.625,2.375-4.625,2.375
		s-1.875-4.625-2.375-5.25S63.914,11.292,63.914,11.292z"/>
	<path fill="none" stroke="#020202" stroke-width="0.75" d="M69.164,31.042c0,0,3.875-1.125,6.25-2.5s6.375-4,8.5-5.75
		s4.75-5,5.25-6.75s0.75-2.625,1-3.5s0.125-2.25,0.125-2.25"/>
	<path fill="none" stroke="#000000" stroke-width="0.75" d="M7.164,29.917c0,0-3.75-0.125-3.875,1.875"/>
	<ellipse fill="none" stroke="#000000" stroke-width="0.75" cx="39.851" cy="22.917" rx="11.063" ry="10.375"/>
	<path fill="none" stroke="#000000" stroke-width="0.75" d="M29.053,24.543c-0.097-0.151-0.135-0.33-0.237-0.475
		c-0.149-0.212-0.09-0.439,0.056-0.604c0-0.008-0.005-0.013-0.005-0.021v-1.152c0-0.01,0.005-0.016,0.006-0.025
		c-0.003-0.033-0.009-0.063-0.006-0.1c0.02-0.214,0.105-0.416,0.125-0.625c0.003-0.029,0.016-0.05,0.021-0.077
		c0.033-0.625,0.148-1.231,0.373-1.819c0.041-0.107,0.109-0.179,0.185-0.236c0.023-0.057,0.053-0.111,0.079-0.167
		c-0.022-0.11-0.021-0.228,0.041-0.352c0.29-0.579,0.587-1.157,0.96-1.687c-1.408-2.606-4.362-4.412-7.8-4.412
		c-4.798,0-8.688,3.498-8.688,7.813s3.89,7.813,8.688,7.813c2.468,0,4.684-0.935,6.265-2.421
		C29.056,25.525,29.045,25.037,29.053,24.543z"/>
	<line fill="none" stroke="#000000" stroke-width="0.75" x1="20.289" y1="13.042" x2="24.414" y2="10.792"/>
	<path d="M57.289,20.542c0,0-0.136,0.256-0.367,0.688c-1.079,2.018-4.229,7.87-5.258,9.312c-1.25,1.75-5.375,5.125-6.5,5.875
		s-4.625,2.25-4.625,2.25s6.5-1.125,7.875-1.75s3.5-2.75,4.75-4.625s2.125-3.375,2.5-4.75"/>
	<path d="M59.789,30.042c0,0-1.875,3.875-3,5.375s-5.125,4.625-5.625,4.75s-0.5,0.125-0.5,0.125s5.25-0.625,6.625-1.625
		s2.25-2.25,2.375-3.125S59.789,30.042,59.789,30.042z"/>
	<path d="M21.039,33.167c0,0-7.625-0.375-9.625,0s-4.25,1-4,2.625s3,9.125,3,9.125l1.375,1.625l4.875-3.5l9.5-6.25l-4.625-3.75"/>
	<path fill="none" stroke="#000000" stroke-width="0.75" d="M70.039,57.417c0,0,5.125,3.5,12.625,5.25s15.375,4.25,23.625,5.875
		s16.625,4.875,23.5,5.125s10.125,0.125,16.625-0.875s10-0.875,13.5-0.875s4.375,0.875,7.625,2.75s5.125,3.5,6.875,7.75
		s2.25,2.125,2.125,6.25s-0.5,6.625-1.5,10.25s-2.5,5.625-3.5,7.5s-2.625,4.875-2.625,4.875l9.375,11.375l-9.375,8.875l10.375-2
		c0,0-7,6.875-11.125,11.375s-10.25,11.375-12,14s-10.375,16.625-10.375,16.625s-7.625,1.875-10.625,2.25s-6.875,0.25-7.375,0.125
		s-2.25-0.75-3.75-0.75s-4.5-0.875-4.5-0.875l-2.25-0.875c0,0,0.625-1.625,2.375-3.375s2.5-2.375,4.25-3.25s3.75-1.625,6-1.875
		s10.125-0.125,10.125-0.125s5.5-8.875,7.125-12.625s6.125-16.75,6.125-16.75l2-8.125c0,0-9.625-2.375-12.625-4.25
		s-3.625-1.125-8.5-5.125s-5.5-5.25-7.25-8s-3.25-8.125-3.125-10.5s1.5-7.75,5.125-12.125s9.125-9.625,9.125-9.625"/>
	<path fill="none" stroke="#000000" stroke-width="0.75" d="M37.164,55.417c0,0,0.5,5.5,0.875,9.375s1.375,11.5-0.375,18.5
		s-11.875,33.25-11.875,33.25l9.5-7.375c0,0,2.75,7,6.375,10.75s10.375,7.25,10.375,7.25s-3.375-3.25-4.375-5.875
		s-0.625-4.625-0.625-4.625s5.25,5.125,9.625,7.125s7.125,4,10.875,4.25s8.75,0,8.75,0"/>
	<path fill="none" stroke="#000000" stroke-width="0.75" d="M70.914,108.542l6.125,22.625l-10.875,27.625c0,0-6.75,0.5-9.125,0.875
		s-4.5,0.875-6.625,2.125s-5,3.875-5.75,4.875s-1.75,2.125-1.75,2.125s1.375,1.375,3,1.875s4.125,1.625,8.5,1.875
		s7.25-0.125,10.375-0.5s8.875-2.125,8.875-2.125l10.75-21.25l16.875-9.25l-6.25-2.75l6.75-0.125c0,0-3.375-3-4.125-7
		s-0.5-18.875-0.5-18.875"/>
	<path fill="none" stroke="#000000" stroke-width="0.75" d="M97.539,123.667c0,0,9.125-3.875,13.125-5.125s6-1.5,9.5-2.125
		s6-0.875,8.75-0.625s7.875,2.125,7.875,2.125"/>
	<path fill="none" stroke="#000000" stroke-width="0.75" d="M110.664,118.542c0,0,8,4.25,10.125,4.875s8.625,3,8.625,3
		s-5,15.125-5.75,17.125s-8.625,16.375-8.625,16.375s-7.625-0.875-10-0.5s-5.25,1.5-6.75,3s-4.25,5.25-4.25,5.25l2,0.25
		l-0.125,1.125h7.875l-0.625,1c0,0,8.375-0.25,11.25-0.875s5.25-1.125,5.25-1.125s2.875-4.25,4.25-6.125s5.75-9.25,8.125-12.5
		s19-20,19-20s-10.5,2.25-10.125,2s7.75-6.25,7.75-6.25"/>
	<path fill="none" stroke="#000000" stroke-width="0.75" d="M154.289,128.417c-0.375,0-7.625-4.375-10.25-5.875
		s-5.75-3.625-5.75-3.625"/>
	<path fill="none" stroke="#000000" stroke-width="0.75" d="M53.539,121.792l2.375,10.125l-9.5,23.375c0,0-6.125,0.25-8.375,0.875
		s-5.625,1.875-6.875,3.125s-5.125,5-5.125,5s1.75,1.75,2.75,1.75s1.625,0.75,1.625,0.75s2.625,0.375,4.25,0.375
		s1.875,0.75,1.875,0.75h6.125"/>
	<polyline fill="none" stroke="#000000" stroke-width="0.75" points="56.039,159.667 61.914,146.667 74.164,139.792 	"/>
	<path fill="none" stroke="#000000" stroke-width="0.75" d="M74.414,138.167l-3.125-2.25l4,0.25l0.75-2c0,0-1.75-2.625-1.875-3.625
		s0-2.375,0-2.375"/>
	<path fill="none" stroke="#000000" stroke-width="0.75" d="M176.414,93.417c0,0,1.5,2.125,2.5,4.125s2.875,6.25,3.5,9.125
		s2.625,10.25,3.5,13s2.625,6,4.5,8.375s3.625,6.5,8.5,9.375s6.25,3,11.375,4.125s12.5,1.375,15.375,0.625s5-0.25,9.25-4.625
		s6.625-11.375,6.5-14.25s-0.375-11.625-1-15.625s-1.625-8.5-3.875-9.25s-4.625-0.125-5.375,1.5s0.125,5.625,0.75,8.625
		s1.75,7.5,1.5,10.875s-0.125,2.625-0.75,5.375s-0.061,2.917-2.625,5.25c-4.167,3.792,0.083,0.917-3.083,2.751
		c-3.194,1.851-3.667,1.124-6.292,1.249s-4.125,0.25-7.5-0.5s-4.875-0.25-8-2.375s-2.75-1.125-6-4.875s-3.75-6.125-5.25-10
		s-1.75-6.125-3.375-11.125s-3.625-10.75-4.875-13s-2.375-4.375-4.375-6.125s-2.875-2.5-4.5-3.75s-2.875-1.75-2.875-1.75"/>
	<path d="M73.289,61.542l-19.375,19.5c0,0-0.5-1,1.25-5.75s3.375-6.375,5.125-7.875s4.375-3.5,5.875-4.125
		S73.289,61.542,73.289,61.542z"/>
	<path d="M70.164,58.042c0,0-4,2.375-5.25,3s-7.625,1.875-7.625,1.875s0-0.5,1.25-2.125s3.5-3.25,3.5-3.25l4.25,1l-1.25-1.625
		l3.5-0.125l2.25,0.875"/>
	<path d="M76.789,65.292l0.125-0.75c0,0-2.75,6.75-4.625,9.25s-2.375,2.375-5.75,4.875s-4.375,2.625-6.5,5.875s-3,3.25-3.875,7.125
		s0,14.125,0,14.125s1.125-3.375,1.5-6s0.25-2.375,1.375-4.75s1.5-3.625,4.875-7.25s3.5-3.25,6.25-6s3.25-2.625,4.375-4.875
		s1.5-4.5,1.875-6.125s0.875-5.75,0.875-5.75"/>
	<path d="M87.914,68.917c0,0-6.125,4.125-8.625,6.75s-4.125,5.25-5.25,7.875s-2.125,4.75-2.5,8.125s0.125,8.125,0.375,10.375
		s0.875,2.375,0.875,2.375s0.5-2.5,1.25-6.75s1.625-7.125,3.125-11s2.125-5.5,4.125-8.375s6-9.375,6-9.375"/>
	<path d="M97.164,70.792c0,0-4.875,5.875-5.875,10.375s-1.125,9.125-0.875,11.25s0.875,4.25,2.125,6.5s3.125,5.25,3.125,5.25
		s-0.625-8.75-0.875-9.5s0.125-8.125,0.375-10.625s1.375-9.125,1.375-9.125L97.164,70.792z"/>
	<path d="M105.539,71.542c0,0-0.5,21.25-0.5,24.5s-0.375,18.875-0.375,18.875s2.375-4.125,3.125-8.375s1.625-11.75,1.625-15.125
		s-0.375-7.5-0.75-10.125s-2.625-9.5-2.625-9.5"/>
	<path d="M119.414,73.542c0,0,0.625,13.75,0.375,20.5s-1.625,19.875-1.625,19.875s2.5-4.625,3.5-7.25s2.25-6.5,2.25-6.5
		s0.25-4.125,0.5-5.5s0-7.75-0.125-9.125s-3.375-10.625-4.125-11.75"/>
	<path d="M132.914,76.792c0,0,0.625,7.25,0.125,12.25s-3,22.25-3,22.25s0.625,0.625,2.625-3.875s3.625-8.25,4-11.75
		s0.625-8.625,0.25-10.5S132.914,76.792,132.914,76.792z"/>
	<path d="M144.039,75.167c0,0,0.625,9.625,0.375,13.375s-0.375,7.75-1.125,11.375s-3.625,16.75-3.625,16.75l4-5.625
		c0,0,1.5-2.25,2.25-5.125s2.625-10.5,2.625-13.125s0.625-6.625-0.5-9.625S144.039,75.167,144.039,75.167z"/>
	<path d="M162.914,74.417c0,0-5.125,16.5-6.375,19.625s-4.75,13.625-7.25,17.75s-3.75,6.5-3.75,6.5s4-1.875,6.375-4.75
		s3.125-4.125,5.25-8.125s2.875-5.375,3.875-8.5s2.125-6,2.125-9.125S162.914,74.417,162.914,74.417z"/>
	<path d="M180.039,89.667c0,0,0.25,6.5,0.5,7.875s0.625,1.75,0.75,1.375s0.625-3.375,0.5-4.5S180.039,89.667,180.039,89.667z"/>
	<path d="M186.039,101.292c0,0-0.069,0.244-0.183,0.667c-0.19,0.709-0.504,1.923-0.817,3.333c-0.5,2.25-0.25,5.5-0.25,5.5
		s0.875-1.5,1.125-2.25l0.5-6.5"/>
	<path d="M187.789,113.042l0.125,8.5l1.375-3.125c0,0,0.125-0.5-0.125-1.875s-0.75-2.75-0.75-2.75"/>
	<path d="M193.164,123.417c0,0-0.625,1.625-0.75,3.25s0.875,3.875,0.875,3.875s0.875-0.875,0.875-1.75s-0.5-5.5-0.5-5.5"/>
	<path d="M200.539,130.417c0,0-1.25,0.875-1.375,2.5s1.125,3.75,1.125,3.75l1.5,1.375L200.539,130.417z"/>
	<path d="M208.164,135.542c0,0,0.375,2.125,1.875,3.25s4.375,2.125,4.375,2.125l2.125-0.125l-5.5-3.25l-1.875-1.875"/>
	<path d="M219.039,138.042c0,0,1.75,1.625,3.375,2.375s2.375,1.375,3.625,1.125s2.875-0.5,2.875-0.5s-0.875-0.5-2-0.875
		s-3.625-1.25-3.625-1.25l-3.625-1"/>
	<path d="M229.289,134.042c0,0,0.625,1.625,2.25,1.5s4.375-0.125,4.375-0.125l1.125-0.875c0,0-3.375-0.375-3.875-0.375
		S229.289,134.042,229.289,134.042z"/>
	<polyline points="234.664,127.792 238.914,128.292 240.664,127.667 237.414,127.167 235.289,127.542 	"/>
	<path d="M233.664,117.667l1-7.5l2.75,6.5v-11.125l2.75,15.375l1-3.625c0,0-0.5-4.375-0.5-6.75s0-4-0.375-5.125s-0.625-3-1-4
		s-0.375-2-1.375-2.625s-1.125-1.125-2.375-1.25s-2.625-0.125-3.125,0.25s-1.25,2.125-1.25,2.125s-0.375,1.375-0.375,2.125
		s0.75,5.5,0.75,5.5s0.875,3.25,0.875,3.625S233.664,117.667,233.664,117.667z"/>
	<path d="M127.164,173.167c0,0,1.125-1.375,2.25-2.5s4.125-2.75,4.125-2.75s-3.125,3.125-3.625,3.5s-2.125,2.5-2.125,2.5"/>
	<path d="M119.039,171.292c0.5-0.375,1.625-2.375,2.625-3.125s6.125-3,6.125-3s-4.25,2.625-5,3.375s-3.25,3.75-3.25,3.75
		l-0.625-0.375"/>
	<polyline points="103.289,169.417 108.289,164.167 103.914,169.917 	"/>
	<path d="M96.039,168.417l6.375-5.875c0,0-3.375,2-4.25,2.625s-2.875,2.75-2.875,2.75h0.75"/>
	<path d="M56.039,172.167c0,0,0.625-1.625,1.625-2.875s4.875-3.75,4.875-3.75s-2.625,3-3.375,3.875s-1.5,3-1.5,3"/>
	<path d="M47.039,170.792c0,0,1-2.25,3-3.75s6.625-3.75,6.625-3.75s-4.625,3.5-5.375,4.25s-3.125,3.875-3.125,3.875"/>
	<path d="M36.414,166.917c0,0,0.625-1.625,2-2.875s3.5-2,3.5-2s-2.875,2.5-3.375,3.375s-0.75,2.25-0.75,2.25l-1.25,0.25
		L36.414,166.917z"/>
	<path d="M29.414,165.792c0,0-0.125-1.375,1.125-2.5s6.75-4.375,6.75-4.375s-5.125,4.25-5.75,4.875s-1.125,3-1.125,3"/>
	<line fill="none" stroke="#000000" stroke-width="0.75" x1="44.039" y1="167.667" x2="40.539" y2="167.917"/>
</g>
<g id="frame_2">
	<path fill="#FFA82B" d="M10.539,29.042l7.5-5.333l11.667-15.5l3-2.5c0,0,8.5-3.5,10.5-3.667s7-0.5,7.5-0.5s5.5,1.833,5.5,1.833
		s2.167,2,2.667,2.333s4.5,3.667,5.667,4.5s3.667,4.667,3.667,4.667s-0.666,6.833-0.833,7.833s-0.667,5.167-2.333,9
		s-4.667,8.333-5.5,9s-8.333,2.833-8.833,2.833s-12,0.667-12.5,0.667s-5.5-3.167-6-3.333s-11.333-3.833-12.333-4.5
		s-8.333-4.833-8.333-4.833L10.539,29.042z"/>
	<path fill="#FFA82B" d="M241.206,115.376l-2.5-10.167l-2.834,1l-1,3.5l-0.833,4c0,0,0.666,3.999,0.333,5.833s-1,4.834-1.5,6.167
		s-0.5,1.166-1.833,2.833s-0.333,2.001-2,2.834s-3.166,1.499-6.166,1.666s-6,0.001-10-0.666s-7.668-2.5-9.334-3.667
		s-4.332-3.833-5.666-6.333s-4.001-9-4.334-10.5s-2.333-7.332-3.333-10.666s-3.167-10.334-4-11.167s-3.001-5.001-4.667-5.667
		s-4.499-3.833-6.166-4.5s-2.666-3.667-5-5s-5.001-3.499-6.001-3.667c-1-0.166-7.166,0-8.833,0s-4.5,0-6.5,0.334
		c-2,0.333-4.834,0.834-8.667,1s-6.499,0-9.166,0s-8.833-0.334-11.5-1.334s-8.667-2.999-10.667-3.166s-9.334-1.833-10.667-2.333
		c-0.369-0.138-1.142-0.419-2.074-0.75c-0.612-0.142-1.219-0.305-1.822-0.476c-0.076,0.135-0.203,0.245-0.395,0.266
		c-1.621,0.177-3.146-0.65-4.502-1.443c-0.09-0.052-0.145-0.117-0.186-0.186c-1.015-0.189-2.031-0.383-3.063-0.496
		c-0.209-0.023-0.342-0.149-0.414-0.303c-0.125,0.106-0.288,0.168-0.493,0.124c-2.405-0.515-4.777-1.142-7.125-1.875
		c-0.065-0.021-0.112-0.057-0.161-0.09c-0.192-0.018-0.382-0.053-0.564-0.125c-0.26-0.102-0.407-0.437-0.336-0.686
		c-0.02-0.003-0.039-0.007-0.059-0.01l-1.306-0.12l-18.5,18.167c0,0,2.667,21.499,2.667,21.999s9.667,13.334,9.833,13.834
		s3.5,6.5,3.5,6.5l3.5,7l0.833,3.667c0,0-10,27.333-10.5,27.5s-12.333,1-14,1.667s-4.666,2.833-6.333,4.333s-3.333,4-3.333,4
		s3.167,1.833,5,2.5s9,1.334,10.833,1.167s9.333-1.667,9.333-1.667s5.333-5.333,5.333-5.833s3.667-12.999,4-13.833
		s8.833-9.167,9.333-9.667s6.833-5.166,5.833-5.5s-3.166-1.334-2.833-1.834s2.999-7.5,2.833-9.333s2.834-10.833,2.834-10.833
		l0.999,0.166c0,0,2.834,4.001,3.834,3.834s13.833-3.667,13.833-3.667l9.167-1.667l8.61,3.815c0.206-0.202,0.496-0.301,0.853-0.157
		c1.11,0.446,2.337,0.544,3.354,1.222c0.186,0.123,0.301,0.279,0.367,0.446c0.801,0.166,1.536,0.449,1.977,1.272
		c0.009,0.016,0.007,0.031,0.014,0.047c2.11,0.852,5.168,2.081,5.492,2.188c0.5,0.166,6.166,3.667,7.166,4s4,1.833,4,1.833
		s-1.5,7.333-3,11.333s-3.667,7.5-4.667,10.167s-2.5,5.833-3.833,8s-4,5.833-4,5.833s-9.167,0.166-11.167,0.5
		s-4.167,1.334-5.5,2.334s-3.166,2.333-3.833,3.333s-2,2.5-2,2.5l2.667,0.667c0,0,0.167,0.666,2,0.833s5.833,0.167,5.833,0.167
		l-0.833,0.5c0,0,2.5,0.334,5,0.5s8.5-1.5,8.5-1.5l6-1.167c0,0,7.332-13.167,9.166-16.5s6.5-13.333,7-14s4.667-11.666,4.167-11.833
		s2.5-8,2.5-8s-0.453-1.302-1.053-3.045c-1.352-2.472-2.398-5.067-3.122-7.826c-0.077-0.293,0.015-0.654,0.223-0.902
		c-0.031-0.116-0.048-0.194-0.048-0.227c0-0.5,4-6.334,4.5-7.334c0.299-0.597,1.604-2.318,2.61-3.612
		c0.756-1.247,1.694-2.523,2.883-3.031l1.507-1.356l1.5-3.666c0,0,4.833,9.5,5,11s3.166,12.499,3.5,14.666s5.5,10.834,6.167,11.334
		s10.999,10.167,11.499,10.5s9.167,2.333,11.167,2.333s8.666,0.834,9.333,0.667s6.834-0.667,6.834-0.667s2-0.167,5-4.667
		s3.332-6,4.166-8.333S241.206,115.376,241.206,115.376z"/>
	<path fill="#B2751E" d="M52.831,52.875L56.581,69l5.25,2c0,0,7.5-3.75,7.875-4s4.75-4.625,4.75-4.625l2.25-1.625l-0.375-1
		c0,0-5.75-3.75-7.875-6s-9.75-8.5-10.25-8.5s-1.875,7-1.875,7L52.831,52.875z"/>
	<path fill="#7F5415" d="M111.081,117.25c0,0,4,2.125,6.625,3.5s8.875,3.625,9.25,3.875s3.125,1,3.125,1s-5.5,16.5-5.75,17.375
		s-2.75,5.25-2.75,5.25l-5.875,10.375l-0.375,0.875c0,0-5.125-1.5-7-1.25s-6.625,1.375-7.5,2s-2.5,1.875-3.375,3
		s-2.5,3.875-2.5,3.875l1.75,0.125l-0.125,0.875l8.125-0.125l-0.75,1.25c0,0,6.5,0.25,7.875-0.125s8-1.875,8-1.875l0.875-0.25
		c0,0,5.625-9.625,9-14.25s9-10.875,9-10.875l13.75-13.375l-10.625,2.125l8-7.25c0,0-9.625-5.375-10-5.5s-10.25-6-10.25-6
		l-3.5,1.875l-8.75-0.125l-5.75,3.5"/>
	<path fill="#7F5415" d="M53.206,119.5l3.75,11.625l-9.875,23.125c0,0-6.75,0.625-8.25,1s-7.5,4-9.375,5.75
		s-2.625,2.625-2.625,2.625s1.625,1.75,2.25,1.875s1.375,0,1.375,0l0.5,0.5l2.25,0.25l3.125,0.125L37.206,167l0.75,0.25l2.875-0.125
		l2.875,0.125c0,0,3.125-3.625,4.5-4.375s5.625-3,5.625-3l2.625-0.25L62.706,146l12.5-7.75l-0.125-0.75l-3.625-2.5l5.875,0.125
		l-1.25-2.625c0,0-1-1.25-1.25-2.625s0.375-4.625,0.375-4.625l-16.75-5.875L53.206,119.5z"/>
	<path fill="#B2751E" d="M176.831,93.5c0,0-7.875,5.25-10.625,7.625s-5,6.875-5.25,8.875s-1.25,4.25,1.25,7.375s5.75,7,5.75,7
		l-8,10.125l3.25-0.625c0,0-10.875,14.5-12.875,18.875s-6.5,13.625-7,14.125s-3.625,5.5-3.625,5.5l7-1.625c0,0,8-13.25,8.375-14
		s8.25-10.375,9.375-11.875s9.625-10.25,9.625-10.25l6.25-5.875l-10.875,2l9.5-8.625L169.706,110c0,0,4.5-8.125,5.25-9.875
		S176.831,93.5,176.831,93.5z"/>
	<path fill="#B2751E" d="M97.706,111.25l-0.09-1.617L97.581,109c0,0-5.125,4.5-5.875,7s-2.125,10.625-2.375,13.375
		s0.25,3.625,0.25,3.625l-7.25,0.25l5.5,5.375c0,0-2.25,0.125-4.875,2s-5.75,5.25-6.875,7.5s-2.375,5.375-2.75,7.625
		s-1,6.375-2.125,8s-5.625,7.375-5.625,7.375l8.5-2.125l11.125-21.125l16.5-9.125l-5.75-2.625l6.5-0.125c0,0-4.5-7.625-4.75-9.375
		s0.375-10.5,0.375-10.5"/>
	<path fill="#B2751E" d="M97.956,113.75c0,0,8.625-2.25,12-3.375s8.75-2.5,10.25-2.875s6.5-1.625,6.5-1.625l3.625,5.125
		c0,0-16.375,4.5-16.75,4.625s-12.25,3.75-12.25,3.75l-3.5,0.375L97.956,113.75z"/>
	<path fill="#B2751E" d="M177.206,87.5c0,0,1.875,1.375,4.625,6.75s4.25,10.125,5.125,13.375s4.75,11.125,7,14.5
		s8.25,10.5,13.125,12.5s6.625,2.75,10.5,3.125s9.75,0.625,10.125,0.625s5.5,0.375,5.5,0.375s-2,1.5-3.25,1.875
		s-8.75,1.5-9.75,1.375s-10.875-1.125-14.25-2.5s-8.125-4-8.625-4.5s-5.375-6.625-5.375-6.625l-4.25-6.625l-1.5-3.25l-3.5-13.125
		l-1.25-4.625l-3.125-6.375l-1.5-0.875L177.206,87.5z"/>
	<ellipse fill="#FFFFFF" cx="40.831" cy="22" rx="10.75" ry="10.5"/>
	<ellipse fill="#FFFFFF" cx="23.206" cy="19.938" rx="8.875" ry="7.688"/>
	<path fill="#FFFFFF" d="M48.831,7.375c0,0-3.25,0.625-6.25,2.25s-7,5-7,5s-5.375,10.25-5.875,11.875s-0.375,4.75,0.5,6
		s0.75,1.75,3.5,2.375s8.5,0.625,11.125,0.5s6.125-4,6.125-4l4.5-6c0,0,1.125-3,0.625-5.375s-1.625-9.125-3.125-10.125
		S49.331,6.75,49.331,6.75"/>
	<path fill="#FFFFFF" d="M30.581,7.25c0,0,0.875,4.375,0,6.625s-4.5,9.5-4.5,9.5s-4.25,5-4.625,5.125s-0.625,0.375-1.625,0.125
		s-4.875-2-4.875-2l3.625-4.5L23.831,14l-2-1.125l0.875-1.25l8.125-4.875"/>
	<path fill="#FFFFFF" d="M68.706,17.125l22.375-7.25c0,0-0.5,4.5-2,6.875s-5,5.625-6.25,6.75s-5.625,3.5-6.875,4.125
		s-3.625,1.875-4.625,2.25s-1.5,0.625-1.5,0.625L68.706,17.125z"/>
	<path fill="#FFFFFF" d="M11.831,44.5c0,0-6.875-8.375-7.25-9.5s-0.75-3.25-0.5-3.875s1.25-2,1.25-2l3.5-0.375l5.125,0.5l7.25,2.5
		l2.375,3l-4.125,0.875l-8.125,0.5l1,8.375"/>
	<path fill="#FFFFFF" d="M4.456,34.125c-0.375,0-2,2.375-2.375,3.375s-0.75,3.5-0.875,4.375s0.625,4,0.75,4.625s1.5,3.25,1.5,3.25
		s-0.375,1.875-0.625,3s-1.125,3.875-1.125,5s0,3.75,0.125,4.625s0.25,3.75,0.5,4.5s0.875,2.375,1.25,3s0.75,1.625,1.5,2.25
		S6.581,73,6.581,73l1.125-1l2.125,1.875c0,0,1.5,1,2,0.875s1.125-0.5,1.25-0.875s0.25-2.375,0.25-2.375l1.125,0.375
		c0,0,2.25,2.5,2.875,2.375s1.375-0.375,1.375-0.375l0.25-2.75l0.875-0.875h3.625l1.625-1l-1-2.625L22.956,64l6.25-5.25l3.625-7.625
		c0,0,8.875-3.5,9.5-3.25s9.125-1.75,9.5-1.5s4-2.25,4-2.25l4-1.375l3.5-7l-0.875-3.375c0,0-5.625,5.75-6.5,6.25
		s-6.75,1.875-7.125,2s-2.875,0.25-7.25-0.25S31.956,38.25,30.706,38s-4-2.125-4-2.125l-5.875-0.125"/>
	<path fill="#FFFFFF" d="M58.081,75.125c-0.375,0.25,1.125,14.5,2.5,20.125s1.875,8,4.625,10.75s8,6.75,8,6.75l1,7.375
		c0,0-9.5-2.5-10.5-2.625s-7.875-3.625-8.5-4.375s-4.875-7.875-5.125-8.5s-0.625-12.25-0.75-13.375s2.75-10.5,2.75-10.5
		s4.25-4.375,4.625-4.625"/>
	<path fill="#B1B1B1" d="M67.081,116.75c-8.125-1.75-4.375-1.625-6.125-2.375S57.581,112,57.581,112l8.375-0.375
		c0,0-3.5-1.75-6.125-3.625s-4.25-4.625-5.875-8.875s-1.875-6.25-1.75-10.125s1.75-7,2.25-10.125s2.625-7.75,2.625-7.75
		S56.456,65,55.831,63s-2.75-8.375-2.75-8.375L67.581,58c0,0-8.625-10.125-8.25-9.875s14.5,10.25,14.5,10.25l-3.241-8.426
		c-0.308-0.444-0.619-0.887-0.94-1.321c-0.108-0.146-0.112-0.287-0.06-0.406c-0.674-0.929-1.333-1.868-1.94-2.844
		c-0.216-0.348,0.051-0.674,0.363-0.73c0.094-0.142,0.265-0.239,0.445-0.244l-0.876-2.278L79.081,55c0,0-6.25-15.25-7.125-16.625
		s-2.125-8.5-2.125-8.5s-0.75-5.75-0.875-6.875s-0.875-4.75-0.875-4.75l-0.375,0.625l-6.125,14.75l-0.75,7.75L55.581,40l-2,0.375
		l-0.5,3.375c0,0-6.375-0.25-9.25,0.75s-8.25,3.125-10.5,5.25s-3.625,2.625-4.5,4.375s-1.375,5.5-1.375,5.75s4.625-3,4.625-3
		l4-1.875l1.875-0.25l0.375,4.375c0,0,1.5,12.375,1.375,15.125s-2.875,13.875-4.125,17.125S26.331,116,26.331,116l9.375-7.625
		c0,0,4,8.75,7.75,11.875c3.267,2.723,8.237,5.537,9.217,6.136c-0.815-0.694-4.122-4.524-4.467-6.136
		c-0.375-1.75-0.375-4.625-0.375-4.625s3.125,2.875,5.125,4.5s7,4.375,9.5,5.25s7.625,1.875,7.625,1.875l6.75-0.125l-2.701-9.822
		C74.082,117.607,73.24,118.076,67.081,116.75z"/>
	<path fill="#B1B1B1" d="M98.206,115.375c0,0-0.375,6.5-0.375,7s2.25-0.25,2.25-0.25l9.25-3.875l7.125-2.125
		c0,0,4.5-0.625,4.875-0.75s6.625-0.875,6.625-0.875l4.25,0.875l4.625,1.625c0,0-3.875-3.5-4.5-3.875s-2.25-2.375-2.25-2.375
		s-2.125-0.75-2.5-0.625s-6.375,0.25-6.375,0.25l-5.125,1.125l-8.375,1.875l-6.5,1.5L98.206,115.375z"/>
	<polygon fill="#B1B1B1" points="142.831,120 154.956,128.25 156.206,124.75 	"/>
	<path fill="#FC0000" d="M16.372,52.208c0,0,3.583,3.583,3.583,4s0,0.417,0,0.417s-4.833-1.083-6.167-1.25"/>
	<path fill="none" stroke="#000000" stroke-width="0.75" d="M22.706,11.5c0,0,3.625-2,6.375-3.5s7.125-3.75,10.25-4.75
		s4.625-0.75,7.125-0.875s4.125-0.375,5.75,0s3.375,0.75,6.5,3.125s5.875,4.875,7.625,8s2.375,4.5,2.625,8.125
		s-0.125,4.875,0.875,9.625s0.5,4.625,2.625,8.625s6.625,15.875,6.5,15.5S66.831,42.25,66.831,42.25l7,16.375L59.081,48.25
		l7.875,9.625c0,0-7-1.5-11.625-2.5s-14-1-16.25-0.75s-7.625,2.375-9.75,4s-6.5,5.25-6.5,5.25s1,3.25,1.5,4.25s0.625,1.75,0,2.25
		s-2.875,0.125-3.25,0.125s-2-0.25-2-0.25"/>
	<path fill="none" stroke="#000000" stroke-width="0.75" d="M18.831,68.875l-0.125,5c0,0-0.5,0.625-0.875,0.75
		s-2.375-1.25-2.375-1.25l-3.625-4.25"/>
	<path fill="none" stroke="#000000" stroke-width="0.75" d="M12.831,70.125c0,0,0.625,2.5,0.25,3.5S12.206,75,10.831,74.75
		S7.956,72,7.956,72l-1.375-2.75"/>
	<path fill="none" stroke="#000000" stroke-width="0.75" d="M7.831,71.375c0,0-0.625,1-1.375,1.5s-2.75-0.75-3.625-3.5
		s-1.625-7.25-1.5-9.5s0.75-5.875,1-6.75s0.375-2.75,0.375-3.25s-0.875-2.5-1.375-4.25s-0.25-3.5,0-5.125s2.375-6.125,2.375-6.125"
		/>
	<path fill="none" stroke="#000000" stroke-width="0.75" d="M4.456,30.25c0,0-0.625,0.25-0.5,2.375s-0.125,1.75,1.25,4s6.5,9,6.5,9
		s3-1.75,4.375-2.625s9.625-6,9.625-6l1.125-0.875c0,0-3.25-3.5-6.25-4.75s-8.5-2.5-10.125-2.5s-6,0.75-6,0.75"/>
	<line fill="none" stroke="#000000" stroke-width="0.75" x1="10.956" y1="28.875" x2="16.456" y2="24.875"/>
	<path fill="none" stroke="#000000" stroke-width="0.75" d="M11.706,45.625c-0.231,1.659-0.463,3.318-0.694,4.977"/>
	<path d="M54.206,2.625L67.081,0l-6,7c0,0-5.125-3.375-6-3.875"/>
	<path d="M64.581,10.625l26.875-1.5c0,0,0.125,1-0.625,1.25s-8.375,2.5-9.125,2.75s-6.25,2.125-8.375,3.25s-4.625,2.375-4.625,2.375
		s-1.875-4.625-2.375-5.25S64.581,10.625,64.581,10.625z"/>
	<path fill="none" stroke="#020202" stroke-width="0.75" d="M69.831,30.375c0,0,3.875-1.125,6.25-2.5s6.375-4,8.5-5.75
		s4.75-5,5.25-6.75s0.75-2.625,1-3.5s0.125-2.25,0.125-2.25"/>
	<path fill="none" stroke="#000000" stroke-width="0.75" d="M7.831,29.25c0,0-3.75-0.125-3.875,1.875"/>
	<ellipse fill="none" stroke="#000000" stroke-width="0.75" cx="40.518" cy="22.25" rx="11.063" ry="10.375"/>
	<path fill="none" stroke="#000000" stroke-width="0.75" d="M29.72,23.876c-0.097-0.151-0.135-0.33-0.237-0.475
		c-0.149-0.212-0.09-0.439,0.056-0.604c0-0.008-0.005-0.013-0.005-0.021v-1.152c0-0.01,0.005-0.016,0.006-0.025
		c-0.003-0.033-0.009-0.063-0.006-0.1c0.02-0.214,0.105-0.416,0.125-0.625c0.003-0.029,0.016-0.05,0.021-0.077
		c0.033-0.625,0.148-1.231,0.373-1.819c0.041-0.107,0.109-0.179,0.185-0.236c0.023-0.057,0.053-0.111,0.079-0.167
		c-0.022-0.11-0.021-0.228,0.041-0.352c0.29-0.579,0.587-1.157,0.96-1.687c-1.408-2.606-4.362-4.412-7.8-4.412
		c-4.798,0-8.688,3.498-8.688,7.813s3.89,7.813,8.688,7.813c2.468,0,4.684-0.935,6.265-2.421
		C29.723,24.858,29.712,24.37,29.72,23.876z"/>
	<line fill="none" stroke="#000000" stroke-width="0.75" x1="20.956" y1="12.375" x2="25.081" y2="10.125"/>
	<path d="M57.956,19.875c0,0-0.136,0.256-0.367,0.688c-1.079,2.018-4.229,7.87-5.258,9.312c-1.25,1.75-5.375,5.125-6.5,5.875
		S41.206,38,41.206,38s6.5-1.125,7.875-1.75s3.5-2.75,4.75-4.625s2.125-3.375,2.5-4.75"/>
	<path d="M60.456,29.375c0,0-1.875,3.875-3,5.375s-5.125,4.625-5.625,4.75s-0.5,0.125-0.5,0.125S56.581,39,57.956,38
		s2.25-2.25,2.375-3.125S60.456,29.375,60.456,29.375z"/>
	<path d="M21.706,32.5c0,0-7.625-0.375-9.625,0s-4.25,1-4,2.625s3,9.125,3,9.125l1.375,1.625l4.875-3.5l9.5-6.25l-4.625-3.75"/>
	<path fill="none" stroke="#000000" stroke-width="0.75" d="M70.706,56.75c0,0,5.125,3.5,12.625,5.25s15.375,4.25,23.625,5.875
		s16.625,4.875,23.5,5.125s10.125,0.125,16.625-0.875s10-0.875,13.5-0.875s4.375,0.875,7.625,2.75s5.125,3.5,6.875,7.75
		s2.25,2.125,2.125,6.25s-0.5,6.625-1.5,10.25s-2.5,5.625-3.5,7.5s-2.625,4.875-2.625,4.875L178.956,122l-9.375,8.875l10.375-2
		c0,0-7,6.875-11.125,11.375s-10.25,11.375-12,14s-10.375,16.625-10.375,16.625s-7.625,1.875-10.625,2.25s-6.875,0.25-7.375,0.125
		s-2.25-0.75-3.75-0.75s-4.5-0.875-4.5-0.875l-2.25-0.875c0,0,0.625-1.625,2.375-3.375s2.5-2.375,4.25-3.25s3.75-1.625,6-1.875
		s10.125-0.125,10.125-0.125s5.5-8.875,7.125-12.625s6.125-16.75,6.125-16.75l2-8.125c0,0-9.625-2.375-12.625-4.25
		s-3.625-1.125-8.5-5.125s-5.5-5.25-7.25-8s-3.25-8.125-3.125-10.5s1.5-7.75,5.125-12.125S138.706,75,138.706,75"/>
	<path fill="none" stroke="#000000" stroke-width="0.75" d="M37.831,54.75c0,0,0.5,5.5,0.875,9.375s1.375,11.5-0.375,18.5
		s-11.875,33.25-11.875,33.25l9.5-7.375c0,0,2.75,7,6.375,10.75s10.375,7.25,10.375,7.25s-3.375-3.25-4.375-5.875
		S47.706,116,47.706,116s5.25,5.125,9.625,7.125s7.125,4,10.875,4.25s8.75,0,8.75,0"/>
	<path fill="none" stroke="#000000" stroke-width="0.75" d="M71.581,107.875l6.125,22.625l-10.875,27.625c0,0-6.75,0.5-9.125,0.875
		s-4.5,0.875-6.625,2.125s-5,3.875-5.75,4.875s-1.75,2.125-1.75,2.125s1.375,1.375,3,1.875s4.125,1.625,8.5,1.875
		s7.25-0.125,10.375-0.5s8.875-2.125,8.875-2.125L85.081,148l16.875-9.25l-6.25-2.75l6.75-0.125c0,0-3.375-3-4.125-7
		S97.831,110,97.831,110"/>
	<path fill="none" stroke="#000000" stroke-width="0.75" d="M98.206,123c0,0,9.125-3.875,13.125-5.125s6-1.5,9.5-2.125
		s6-0.875,8.75-0.625s7.875,2.125,7.875,2.125"/>
	<path fill="none" stroke="#000000" stroke-width="0.75" d="M111.331,117.875c0,0,8,4.25,10.125,4.875s8.625,3,8.625,3
		s-5,15.125-5.75,17.125s-8.625,16.375-8.625,16.375s-7.625-0.875-10-0.5s-5.25,1.5-6.75,3s-4.25,5.25-4.25,5.25l2,0.25
		l-0.125,1.125h7.875l-0.625,1c0,0,8.375-0.25,11.25-0.875s5.25-1.125,5.25-1.125s2.875-4.25,4.25-6.125s5.75-9.25,8.125-12.5
		s19-20,19-20s-10.5,2.25-10.125,2s7.75-6.25,7.75-6.25"/>
	<path fill="none" stroke="#000000" stroke-width="0.75" d="M154.956,127.75c-0.375,0-7.625-4.375-10.25-5.875
		s-5.75-3.625-5.75-3.625"/>
	<path fill="none" stroke="#000000" stroke-width="0.75" d="M54.206,121.125l2.375,10.125l-9.5,23.375c0,0-6.125,0.25-8.375,0.875
		s-5.625,1.875-6.875,3.125s-5.125,5-5.125,5s1.75,1.75,2.75,1.75s1.625,0.75,1.625,0.75s2.625,0.375,4.25,0.375
		s1.875,0.75,1.875,0.75h6.125"/>
	<polyline fill="none" stroke="#000000" stroke-width="0.75" points="56.706,159 62.581,146 74.831,139.125 	"/>
	<path fill="none" stroke="#000000" stroke-width="0.75" d="M75.081,137.5l-3.125-2.25l4,0.25l0.75-2c0,0-1.75-2.625-1.875-3.625
		s0-2.375,0-2.375"/>
	<path fill="none" stroke="#000000" stroke-width="0.75" d="M177.081,92.75c0,0,1.5,2.125,2.5,4.125s2.875,6.25,3.5,9.125
		s2.625,10.25,3.5,13s2.625,6,4.5,8.375s3.625,6.5,8.5,9.375s6.25,3,11.375,4.125s12.5,1.375,15.375,0.625s5-0.25,9.25-4.625
		s6.625-11.375,6.5-14.25s-0.375-11.625-1-15.625s-1.625-8.5-3.875-9.25s-4.625-0.125-5.375,1.5s0.125,5.625,0.75,8.625
		s1.75,7.5,1.5,10.875s-0.125,2.625-0.75,5.375s-0.061,2.917-2.625,5.25c-4.167,3.792,0.083,0.917-3.083,2.751
		c-3.194,1.851-3.667,1.124-6.292,1.249s-4.125,0.25-7.5-0.5s-4.875-0.25-8-2.375s-2.75-1.125-6-4.875s-3.75-6.125-5.25-10
		s-1.75-6.125-3.375-11.125s-3.625-10.75-4.875-13s-2.375-4.375-4.375-6.125s-2.875-2.5-4.5-3.75s-2.875-1.75-2.875-1.75"/>
	<path d="M73.956,60.875l-19.375,19.5c0,0-0.5-1,1.25-5.75s3.375-6.375,5.125-7.875s4.375-3.5,5.875-4.125
		S73.956,60.875,73.956,60.875z"/>
	<path d="M70.831,57.375c0,0-4,2.375-5.25,3s-7.625,1.875-7.625,1.875s0-0.5,1.25-2.125s3.5-3.25,3.5-3.25l4.25,1l-1.25-1.625
		l3.5-0.125L71.456,57"/>
	<path d="M77.456,64.625l0.125-0.75c0,0-2.75,6.75-4.625,9.25S70.581,75.5,67.206,78s-4.375,2.625-6.5,5.875s-3,3.25-3.875,7.125
		s0,14.125,0,14.125s1.125-3.375,1.5-6s0.25-2.375,1.375-4.75s1.5-3.625,4.875-7.25s3.5-3.25,6.25-6s3.25-2.625,4.375-4.875
		s1.5-4.5,1.875-6.125s0.875-5.75,0.875-5.75"/>
	<path d="M88.581,68.25c0,0-6.125,4.125-8.625,6.75s-4.125,5.25-5.25,7.875s-2.125,4.75-2.5,8.125s0.125,8.125,0.375,10.375
		s0.875,2.375,0.875,2.375s0.5-2.5,1.25-6.75s1.625-7.125,3.125-11s2.125-5.5,4.125-8.375s6-9.375,6-9.375"/>
	<path d="M97.831,70.125c0,0-4.875,5.875-5.875,10.375s-1.125,9.125-0.875,11.25s0.875,4.25,2.125,6.5s3.125,5.25,3.125,5.25
		s-0.625-8.75-0.875-9.5s0.125-8.125,0.375-10.625s1.375-9.125,1.375-9.125L97.831,70.125z"/>
	<path d="M106.206,70.875c0,0-0.5,21.25-0.5,24.5s-0.375,18.875-0.375,18.875s2.375-4.125,3.125-8.375s1.625-11.75,1.625-15.125
		s-0.375-7.5-0.75-10.125s-2.625-9.5-2.625-9.5"/>
	<path d="M120.081,72.875c0,0,0.625,13.75,0.375,20.5s-1.625,19.875-1.625,19.875s2.5-4.625,3.5-7.25s2.25-6.5,2.25-6.5
		s0.25-4.125,0.5-5.5s0-7.75-0.125-9.125s-3.375-10.625-4.125-11.75"/>
	<path d="M133.581,76.125c0,0,0.625,7.25,0.125,12.25s-3,22.25-3,22.25s0.625,0.625,2.625-3.875s3.625-8.25,4-11.75
		s0.625-8.625,0.25-10.5S133.581,76.125,133.581,76.125z"/>
	<path d="M144.706,74.5c0,0,0.625,9.625,0.375,13.375s-0.375,7.75-1.125,11.375S140.331,116,140.331,116l4-5.625
		c0,0,1.5-2.25,2.25-5.125s2.625-10.5,2.625-13.125s0.625-6.625-0.5-9.625S144.706,74.5,144.706,74.5z"/>
	<path d="M163.581,73.75c0,0-5.125,16.5-6.375,19.625s-4.75,13.625-7.25,17.75s-3.75,6.5-3.75,6.5s4-1.875,6.375-4.75
		s3.125-4.125,5.25-8.125s2.875-5.375,3.875-8.5s2.125-6,2.125-9.125S163.581,73.75,163.581,73.75z"/>
	<path d="M180.706,89c0,0,0.25,6.5,0.5,7.875s0.625,1.75,0.75,1.375s0.625-3.375,0.5-4.5S180.706,89,180.706,89z"/>
	<path d="M186.706,100.625c0,0-0.069,0.244-0.183,0.667c-0.19,0.709-0.504,1.923-0.817,3.333c-0.5,2.25-0.25,5.5-0.25,5.5
		s0.875-1.5,1.125-2.25l0.5-6.5"/>
	<path d="M188.456,112.375l0.125,8.5l1.375-3.125c0,0,0.125-0.5-0.125-1.875s-0.75-2.75-0.75-2.75"/>
	<path d="M193.831,122.75c0,0-0.625,1.625-0.75,3.25s0.875,3.875,0.875,3.875s0.875-0.875,0.875-1.75s-0.5-5.5-0.5-5.5"/>
	<path d="M201.206,129.75c0,0-1.25,0.875-1.375,2.5s1.125,3.75,1.125,3.75l1.5,1.375L201.206,129.75z"/>
	<path d="M208.831,134.875c0,0,0.375,2.125,1.875,3.25s4.375,2.125,4.375,2.125l2.125-0.125l-5.5-3.25L209.831,135"/>
	<path d="M219.706,137.375c0,0,1.75,1.625,3.375,2.375s2.375,1.375,3.625,1.125s2.875-0.5,2.875-0.5s-0.875-0.5-2-0.875
		s-3.625-1.25-3.625-1.25l-3.625-1"/>
	<path d="M229.956,133.375c0,0,0.625,1.625,2.25,1.5s4.375-0.125,4.375-0.125l1.125-0.875c0,0-3.375-0.375-3.875-0.375
		S229.956,133.375,229.956,133.375z"/>
	<polyline points="235.331,127.125 239.581,127.625 241.331,127 238.081,126.5 235.956,126.875 	"/>
	<path d="M234.331,117l1-7.5l2.75,6.5v-11.125l2.75,15.375l1-3.625c0,0-0.5-4.375-0.5-6.75s0-4-0.375-5.125s-0.625-3-1-4
		s-0.375-2-1.375-2.625s-1.125-1.125-2.375-1.25s-2.625-0.125-3.125,0.25s-1.25,2.125-1.25,2.125s-0.375,1.375-0.375,2.125
		s0.75,5.5,0.75,5.5s0.875,3.25,0.875,3.625S234.331,117,234.331,117z"/>
	<path d="M127.831,172.5c0,0,1.125-1.375,2.25-2.5s4.125-2.75,4.125-2.75s-3.125,3.125-3.625,3.5s-2.125,2.5-2.125,2.5"/>
	<path d="M119.706,170.625c0.5-0.375,1.625-2.375,2.625-3.125s6.125-3,6.125-3s-4.25,2.625-5,3.375s-3.25,3.75-3.25,3.75
		l-0.625-0.375"/>
	<polyline points="103.956,168.75 108.956,163.5 104.581,169.25 	"/>
	<path d="M96.706,167.75l6.375-5.875c0,0-3.375,2-4.25,2.625s-2.875,2.75-2.875,2.75h0.75"/>
	<path d="M56.706,171.5c0,0,0.625-1.625,1.625-2.875s4.875-3.75,4.875-3.75s-2.625,3-3.375,3.875s-1.5,3-1.5,3"/>
	<path d="M47.706,170.125c0,0,1-2.25,3-3.75s6.625-3.75,6.625-3.75s-4.625,3.5-5.375,4.25s-3.125,3.875-3.125,3.875"/>
	<path d="M37.081,166.25c0,0,0.625-1.625,2-2.875s3.5-2,3.5-2s-2.875,2.5-3.375,3.375s-0.75,2.25-0.75,2.25l-1.25,0.25
		L37.081,166.25z"/>
	<path d="M30.081,165.125c0,0-0.125-1.375,1.125-2.5s6.75-4.375,6.75-4.375s-5.125,4.25-5.75,4.875s-1.125,3-1.125,3"/>
	<line fill="none" stroke="#000000" stroke-width="0.75" x1="44.706" y1="167" x2="41.206" y2="167.25"/>
	<polyline fill="none" stroke="#000000" points="15.206,20.625 29.456,22.25 51.581,22.25 	"/>
	<path d="M5.289,49.542c0,0,0.273-0.026,0.75-0.036c1.227-0.026,3.799,0.052,6.5,0.953c3.75,1.25,4.833,2.167,4.833,2.167
		s-1.333,0.584-1.833,1.167s-0.417,1.833-0.417,1.833l-3.917-0.167c0,0,0-1.5,0.333-2.417s0.667-1.833,0.667-1.833"/>
</g>
</svg>
