<?xml version="1.0" encoding="utf-8"?>
<!-- Generator: Adobe Illustrator 13.0.0, SVG Export Plug-In . SVG Version: 6.00 Build 14948)  -->
<!DOCTYPE svg PUBLIC "-//W3C//DTD SVG 1.1//EN" "http://www.w3.org/Graphics/SVG/1.1/DTD/svg11.dtd">
<svg version="1.1" xmlns="http://www.w3.org/2000/svg" xmlns:xlink="http://www.w3.org/1999/xlink" x="0px" y="0px"
	 width="304.627px" height="173.75px" viewBox="0 0 304.627 173.75" enable-background="new 0 0 304.627 173.75"
	 xml:space="preserve">
<g id="frame_1">
	<path fill="#FFA82B" d="M72.706,29.042l7.5-5.333l11.667-15.5l3-2.5c0,0,8.5-3.5,10.5-3.667s7-0.5,7.5-0.5s5.5,1.833,5.5,1.833
		s2.167,2,2.667,2.333s4.5,3.667,5.667,4.5s3.667,4.667,3.667,4.667s-0.666,6.833-0.833,7.833s-0.667,5.167-2.333,9
		s-4.667,8.333-5.5,9s-8.333,2.833-8.833,2.833s-12,0.667-12.5,0.667s-5.5-3.167-6-3.333s-11.333-3.833-12.333-4.5
		s-8.333-4.833-8.333-4.833L72.706,29.042z"/>
	<path fill="#FFA82B" d="M303.372,115.376l-2.5-10.167l-2.834,1l-1,3.5l-0.833,4c0,0,0.666,3.999,0.333,5.833s-1,4.834-1.5,6.167
		s-0.5,1.166-1.833,2.833s-0.333,2.001-2,2.834s-3.166,1.499-6.166,1.666s-6,0.001-10-0.666s-7.668-2.5-9.334-3.667
		s-4.332-3.833-5.666-6.333s-4.001-9-4.334-10.5s-2.333-7.332-3.333-10.666s-3.167-10.334-4-11.167s-3.001-5.001-4.667-5.667
		s-4.499-3.833-6.166-4.5s-2.666-3.667-5-5s-5.001-3.499-6.001-3.667c-1-0.166-7.166,0-8.833,0s-4.5,0-6.5,0.334
		c-2,0.333-4.834,0.834-8.667,1s-6.499,0-9.166,0s-8.833-0.334-11.5-1.334s-8.667-2.999-10.667-3.166s-9.334-1.833-10.667-2.333
		s-7.833-2.833-8.833-2.833s-11.833-3.167-11.833-3.167l-1.833-0.168l-18.5,18.167c0,0,2.667,21.499,2.667,21.999
		s9.667,13.334,9.833,13.834s3.5,6.5,3.5,6.5l3.5,7l0.833,3.667c0,0-10,27.333-10.5,27.5s-12.333,1-14,1.667
		s-4.666,2.833-6.333,4.333s-3.333,4-3.333,4s3.167,1.833,5,2.5s9,1.334,10.833,1.167s9.333-1.667,9.333-1.667
		s5.333-5.333,5.333-5.833s3.667-12.999,4-13.833s8.833-9.167,9.333-9.667s6.833-5.166,5.833-5.5s-3.166-1.334-2.833-1.834
		s2.999-7.5,2.833-9.333s2.834-10.833,2.834-10.833l0.999,0.166c0,0,2.834,4.001,3.834,3.834s13.833-3.667,13.833-3.667l9.167-1.667
		l8.61,3.815c0.206-0.202,0.496-0.301,0.853-0.157c1.11,0.446,2.337,0.544,3.354,1.222c0.186,0.123,0.301,0.279,0.367,0.446
		c0.801,0.166,1.536,0.449,1.977,1.272c0.009,0.016,0.007,0.031,0.014,0.047c2.11,0.852,5.168,2.081,5.492,2.188
		c0.5,0.166,6.166,3.667,7.166,4s4,1.833,4,1.833s-1.5,7.333-3,11.333s-3.667,7.5-4.667,10.167s-2.5,5.833-3.833,8s-4,5.833-4,5.833
		s-9.167,0.166-11.167,0.5s-4.167,1.334-5.5,2.334s-3.166,2.333-3.833,3.333s-2,2.5-2,2.5l2.667,0.667c0,0,0.167,0.666,2,0.833
		s5.833,0.167,5.833,0.167l-0.833,0.5c0,0,2.5,0.334,5,0.5s8.5-1.5,8.5-1.5l6-1.167c0,0,7.332-13.167,9.166-16.5s6.5-13.333,7-14
		s4.667-11.666,4.167-11.833s2.5-8,2.5-8s-0.453-1.302-1.053-3.045c-1.352-2.472-2.398-5.067-3.122-7.826
		c-0.077-0.293,0.015-0.654,0.223-0.902c-0.031-0.116-0.048-0.194-0.048-0.227c0-0.5,4-6.334,4.5-7.334
		c0.299-0.597,1.604-2.318,2.61-3.612c0.756-1.247,1.694-2.523,2.883-3.031l1.507-1.356l1.5-3.666c0,0,4.833,9.5,5,11
		s3.166,12.499,3.5,14.666s5.5,10.834,6.167,11.334s10.999,10.167,11.499,10.5s9.167,2.333,11.167,2.333s8.666,0.834,9.333,0.667
		s6.834-0.667,6.834-0.667s2-0.167,5-4.667s3.332-6,4.166-8.333S303.372,115.376,303.372,115.376z"/>
	<path fill="#B2751E" d="M114.997,52.875L118.747,69l5.25,2c0,0,7.5-3.75,7.875-4s4.75-4.625,4.75-4.625l2.25-1.625l-0.375-1
		c0,0-5.75-3.75-7.875-6s-9.75-8.5-10.25-8.5s-1.875,7-1.875,7L114.997,52.875z"/>
	<path fill="#7F5415" d="M173.247,117.25c0,0,4,2.125,6.625,3.5s8.875,3.625,9.25,3.875s3.125,1,3.125,1s-5.5,16.5-5.75,17.375
		s-2.75,5.25-2.75,5.25l-5.875,10.375l-0.375,0.875c0,0-5.125-1.5-7-1.25s-6.625,1.375-7.5,2s-2.5,1.875-3.375,3
		s-2.5,3.875-2.5,3.875l1.75,0.125l-0.125,0.875l8.125-0.125l-0.75,1.25c0,0,6.5,0.25,7.875-0.125s8-1.875,8-1.875l0.875-0.25
		c0,0,5.625-9.625,9-14.25s9-10.875,9-10.875l13.75-13.375l-10.625,2.125l8-7.25c0,0-9.625-5.375-10-5.5s-10.25-6-10.25-6
		l-3.5,1.875l-8.75-0.125l-5.75,3.5"/>
	<path fill="#7F5415" d="M115.372,119.5l3.75,11.625l-9.875,23.125c0,0-6.75,0.625-8.25,1s-7.5,4-9.375,5.75
		s-2.625,2.625-2.625,2.625s1.625,1.75,2.25,1.875s1.375,0,1.375,0l0.5,0.5l2.25,0.25l3.125,0.125L99.372,167l0.75,0.25l2.875-0.125
		l2.875,0.125c0,0,3.125-3.625,4.5-4.375s5.625-3,5.625-3l2.625-0.25l6.25-13.625l12.5-7.75l-0.125-0.75l-3.625-2.5l5.875,0.125
		l-1.25-2.625c0,0-1-1.25-1.25-2.625s0.375-4.625,0.375-4.625l-16.75-5.875L115.372,119.5z"/>
	<path fill="#B2751E" d="M238.997,93.5c0,0-7.875,5.25-10.625,7.625s-5,6.875-5.25,8.875s-1.25,4.25,1.25,7.375s5.75,7,5.75,7
		l-8,10.125l3.25-0.625c0,0-10.875,14.5-12.875,18.875s-6.5,13.625-7,14.125s-3.625,5.5-3.625,5.5l7-1.625c0,0,8-13.25,8.375-14
		s8.25-10.375,9.375-11.875s9.625-10.25,9.625-10.25l6.25-5.875l-10.875,2l9.5-8.625L231.872,110c0,0,4.5-8.125,5.25-9.875
		S238.997,93.5,238.997,93.5z"/>
	<path fill="#B2751E" d="M159.872,111.25l-0.09-1.617L159.747,109c0,0-5.125,4.5-5.875,7s-2.125,10.625-2.375,13.375
		s0.25,3.625,0.25,3.625l-7.25,0.25l5.5,5.375c0,0-2.25,0.125-4.875,2s-5.75,5.25-6.875,7.5s-2.375,5.375-2.75,7.625
		s-1,6.375-2.125,8s-5.625,7.375-5.625,7.375l8.5-2.125l11.125-21.125l16.5-9.125l-5.75-2.625l6.5-0.125c0,0-4.5-7.625-4.75-9.375
		s0.375-10.5,0.375-10.5"/>
	<path fill="#B2751E" d="M160.122,113.75c0,0,8.625-2.25,12-3.375s8.75-2.5,10.25-2.875s6.5-1.625,6.5-1.625l3.625,5.125
		c0,0-16.375,4.5-16.75,4.625s-12.25,3.75-12.25,3.75l-3.5,0.375L160.122,113.75z"/>
	<path fill="#B2751E" d="M239.372,87.5c0,0,1.875,1.375,4.625,6.75s4.25,10.125,5.125,13.375s4.75,11.125,7,14.5
		s8.25,10.5,13.125,12.5s6.625,2.75,10.5,3.125s9.75,0.625,10.125,0.625s5.5,0.375,5.5,0.375s-2,1.5-3.25,1.875
		s-8.75,1.5-9.75,1.375s-10.875-1.125-14.25-2.5s-8.125-4-8.625-4.5s-5.375-6.625-5.375-6.625l-4.25-6.625l-1.5-3.25l-3.5-13.125
		l-1.25-4.625l-3.125-6.375l-1.5-0.875L239.372,87.5z"/>
	<ellipse fill="#FFFFFF" cx="102.997" cy="22" rx="10.75" ry="10.5"/>
	<ellipse fill="#FFFFFF" cx="85.372" cy="19.938" rx="8.875" ry="7.688"/>
	<path fill="#FFFFFF" d="M110.997,7.375c0,0-3.25,0.625-6.25,2.25s-7,5-7,5s-5.375,10.25-5.875,11.875s-0.375,4.75,0.5,6
		s0.75,1.75,3.5,2.375s8.5,0.625,11.125,0.5s6.125-4,6.125-4l4.5-6c0,0,1.125-3,0.625-5.375s-1.625-9.125-3.125-10.125
		s-3.625-3.125-3.625-3.125"/>
	<path fill="#FFFFFF" d="M92.747,7.25c0,0,0.875,4.375,0,6.625s-4.5,9.5-4.5,9.5s-4.25,5-4.625,5.125s-0.625,0.375-1.625,0.125
		s-4.875-2-4.875-2l3.625-4.5L85.997,14l-2-1.125l0.875-1.25l8.125-4.875"/>
	<path fill="#FFFFFF" d="M130.872,17.125l22.375-7.25c0,0-0.5,4.5-2,6.875s-5,5.625-6.25,6.75s-5.625,3.5-6.875,4.125
		s-3.625,1.875-4.625,2.25s-1.5,0.625-1.5,0.625L130.872,17.125z"/>
	<path fill="#FFFFFF" d="M73.997,44.5c0,0-6.875-8.375-7.25-9.5s-0.75-3.25-0.5-3.875s1.25-2,1.25-2l3.5-0.375l5.125,0.5l7.25,2.5
		l2.375,3l-4.125,0.875l-8.125,0.5l1,8.375"/>
	<path fill="#FFFFFF" d="M66.622,34.125c-0.375,0-2,2.375-2.375,3.375s-0.75,3.5-0.875,4.375s0.625,4,0.75,4.625s1.5,3.25,1.5,3.25
		s-0.375,1.875-0.625,3s-1.125,3.875-1.125,5s0,3.75,0.125,4.625s0.25,3.75,0.5,4.5s0.875,2.375,1.25,3s0.75,1.625,1.5,2.25
		s1.5,0.875,1.5,0.875l1.125-1l2.125,1.875c0,0,1.5,1,2,0.875s1.125-0.5,1.25-0.875s0.25-2.375,0.25-2.375l1.125,0.375
		c0,0,2.25,2.5,2.875,2.375s1.375-0.375,1.375-0.375l0.25-2.75l0.875-0.875h3.625l1.625-1l-1-2.625L85.122,64l6.25-5.25l3.625-7.625
		c0,0,8.875-3.5,9.5-3.25s9.125-1.75,9.5-1.5s4-2.25,4-2.25l4-1.375l3.5-7l-0.875-3.375c0,0-5.625,5.75-6.5,6.25
		s-6.75,1.875-7.125,2s-2.875,0.25-7.25-0.25S94.122,38.25,92.872,38s-4-2.125-4-2.125l-5.875-0.125"/>
	<path fill="#FFFFFF" d="M120.247,75.125c-0.375,0.25,1.125,14.5,2.5,20.125s1.875,8,4.625,10.75s8,6.75,8,6.75l1,7.375
		c0,0-9.5-2.5-10.5-2.625s-7.875-3.625-8.5-4.375s-4.875-7.875-5.125-8.5s-0.625-12.25-0.75-13.375s2.75-10.5,2.75-10.5
		s4.25-4.375,4.625-4.625"/>
	<path fill="#B1B1B1" d="M129.872,18.875l-6.125,14.75l-0.75,7.75L117.747,40l-2,0.375l-0.5,3.375c0,0-6.375-0.25-9.25,0.75
		s-8.25,3.125-10.5,5.25s-3.625,2.625-4.5,4.375s-1.375,5.5-1.375,5.75s4.625-3,4.625-3l4-1.875l1.875-0.25l0.375,4.375
		c0,0,1.5,12.375,1.375,15.125s-2.875,13.875-4.125,17.125S88.497,116,88.497,116l9.375-7.625c0,0,4,8.75,7.75,11.875
		s9.75,6.375,9.375,6.25s-4.25-4.5-4.625-6.25s-0.375-4.625-0.375-4.625s3.125,2.875,5.125,4.5s7,4.375,9.5,5.25
		s7.625,1.875,7.625,1.875l6.75-0.125l-2.75-10c0,0,1.125,1.375-7-0.375s-4.375-1.625-6.125-2.375S119.747,112,119.747,112
		l8.375-0.375c0,0-3.5-1.75-6.125-3.625s-4.25-4.625-5.875-8.875s-1.875-6.25-1.75-10.125s1.75-7,2.25-10.125s2.625-7.75,2.625-7.75
		S118.622,65,117.997,63s-2.75-8.375-2.75-8.375l14.5,3.375c0,0-8.625-10.125-8.25-9.875s14.5,10.25,14.5,10.25l-6.25-16.25
		L141.247,55c0,0-6.25-15.25-7.125-16.625s-2.125-8.5-2.125-8.5s-0.75-5.75-0.875-6.875s-0.875-4.75-0.875-4.75"/>
	<path fill="#B1B1B1" d="M160.372,115.375c0,0-0.375,6.5-0.375,7s2.25-0.25,2.25-0.25l9.25-3.875l7.125-2.125
		c0,0,4.5-0.625,4.875-0.75s6.625-0.875,6.625-0.875l4.25,0.875l4.625,1.625c0,0-3.875-3.5-4.5-3.875s-2.25-2.375-2.25-2.375
		s-2.125-0.75-2.5-0.625s-6.375,0.25-6.375,0.25l-5.125,1.125l-8.375,1.875l-6.5,1.5L160.372,115.375z"/>
	<polygon fill="#B1B1B1" points="204.997,120 217.122,128.25 218.372,124.75 	"/>
	<ellipse fill="#0092FF" cx="96.247" cy="23.313" rx="4.25" ry="3.688"/>
	<ellipse fill="#0092FF" cx="80.685" cy="20.188" rx="3.688" ry="3.188"/>
	<circle fill="#00426B" cx="95.747" cy="23.125" r="1.5"/>
	<circle fill="#00426B" cx="80.122" cy="20.25" r="1.25"/>
	<ellipse fill="#FFFFFF" cx="97.622" cy="21.5" rx="1.375" ry="1.125"/>
	<ellipse fill="#FFFFFF" cx="94.122" cy="25.438" rx="1" ry="0.938"/>
	<ellipse fill="#FFFFFF" cx="82.185" cy="19.063" rx="1.188" ry="1.063"/>
	<ellipse fill="#FFFFFF" cx="78.372" cy="22.125" rx="0.75" ry="0.625"/>
	<path fill="none" stroke="#000000" stroke-width="0.75" d="M84.872,11.5c0,0,3.625-2,6.375-3.5s7.125-3.75,10.25-4.75
		s4.625-0.75,7.125-0.875s4.125-0.375,5.75,0s3.375,0.75,6.5,3.125s5.875,4.875,7.625,8s2.375,4.5,2.625,8.125
		s-0.125,4.875,0.875,9.625s0.5,4.625,2.625,8.625s6.625,15.875,6.5,15.5S128.997,42.25,128.997,42.25l7,16.375l-14.75-10.375
		l7.875,9.625c0,0-7-1.5-11.625-2.5s-14-1-16.25-0.75s-7.625,2.375-9.75,4s-6.5,5.25-6.5,5.25s1,3.25,1.5,4.25s0.625,1.75,0,2.25
		s-2.875,0.125-3.25,0.125s-2-0.25-2-0.25"/>
	<path fill="none" stroke="#000000" stroke-width="0.75" d="M80.997,68.875l-0.125,5c0,0-0.5,0.625-0.875,0.75
		s-2.375-1.25-2.375-1.25l-3.625-4.25"/>
	<path fill="none" stroke="#000000" stroke-width="0.75" d="M74.997,70.125c0,0,0.625,2.5,0.25,3.5S74.372,75,72.997,74.75
		S70.122,72,70.122,72l-1.375-2.75"/>
	<path fill="none" stroke="#000000" stroke-width="0.75" d="M69.997,71.375c0,0-0.625,1-1.375,1.5s-2.75-0.75-3.625-3.5
		s-1.625-7.25-1.5-9.5s0.75-5.875,1-6.75s0.375-2.75,0.375-3.25s-0.875-2.5-1.375-4.25s-0.25-3.5,0-5.125s2.375-6.125,2.375-6.125"
		/>
	<path fill="none" stroke="#000000" stroke-width="0.75" d="M66.622,30.25c0,0-0.625,0.25-0.5,2.375s-0.125,1.75,1.25,4s6.5,9,6.5,9
		s3-1.75,4.375-2.625s9.625-6,9.625-6l1.125-0.875c0,0-3.25-3.5-6.25-4.75s-8.5-2.5-10.125-2.5s-6,0.75-6,0.75"/>
	<line fill="none" stroke="#000000" stroke-width="0.75" x1="73.122" y1="28.875" x2="78.622" y2="24.875"/>
	<line fill="none" stroke="#000000" stroke-width="0.75" x1="73.872" y1="45.625" x2="73.122" y2="51"/>
	<path d="M66.622,49.875c0,0,0.238,0.015,0.636,0.043c1.62,0.115,5.883,0.456,7.489,0.957c2,0.625,9.875,5.5,9.875,5.5
		s-3.75-1.625-4.75-2.125s-4.875-2.25-5.625-2.5"/>
	<path d="M116.372,2.625L129.247,0l-6,7c0,0-5.125-3.375-6-3.875"/>
	<path d="M126.747,10.625l26.875-1.5c0,0,0.125,1-0.625,1.25s-8.375,2.5-9.125,2.75s-6.25,2.125-8.375,3.25
		s-4.625,2.375-4.625,2.375s-1.875-4.625-2.375-5.25S126.747,10.625,126.747,10.625z"/>
	<path fill="none" stroke="#020202" stroke-width="0.75" d="M131.997,30.375c0,0,3.875-1.125,6.25-2.5s6.375-4,8.5-5.75
		s4.75-5,5.25-6.75s0.75-2.625,1-3.5s0.125-2.25,0.125-2.25"/>
	<path fill="none" stroke="#000000" stroke-width="0.75" d="M69.997,29.25c0,0-3.75-0.125-3.875,1.875"/>
	<ellipse fill="none" stroke="#000000" stroke-width="0.75" cx="102.685" cy="22.25" rx="11.063" ry="10.375"/>
	<path fill="none" stroke="#000000" stroke-width="0.75" d="M91.887,23.876c-0.097-0.151-0.135-0.33-0.237-0.475
		c-0.149-0.212-0.09-0.439,0.056-0.604c0-0.008-0.005-0.013-0.005-0.021v-1.152c0-0.01,0.005-0.016,0.006-0.025
		c-0.003-0.033-0.009-0.063-0.006-0.1c0.02-0.214,0.105-0.416,0.125-0.625c0.003-0.029,0.016-0.05,0.021-0.077
		c0.033-0.625,0.148-1.231,0.373-1.819c0.041-0.107,0.109-0.179,0.185-0.236c0.023-0.057,0.053-0.111,0.079-0.167
		c-0.022-0.11-0.021-0.228,0.041-0.352c0.29-0.579,0.587-1.157,0.96-1.687c-1.408-2.606-4.362-4.412-7.8-4.412
		c-4.798,0-8.688,3.498-8.688,7.813s3.89,7.813,8.688,7.813c2.468,0,4.684-0.935,6.265-2.421
		C91.89,24.858,91.879,24.37,91.887,23.876z"/>
	<line fill="none" stroke="#000000" stroke-width="0.75" x1="83.122" y1="12.375" x2="87.247" y2="10.125"/>
	<path d="M120.122,19.875c0,0-0.136,0.256-0.367,0.688c-1.079,2.018-4.229,7.87-5.258,9.312c-1.25,1.75-5.375,5.125-6.5,5.875
		S103.372,38,103.372,38s6.5-1.125,7.875-1.75s3.5-2.75,4.75-4.625s2.125-3.375,2.5-4.75"/>
	<path d="M122.622,29.375c0,0-1.875,3.875-3,5.375s-5.125,4.625-5.625,4.75s-0.5,0.125-0.5,0.125S118.747,39,120.122,38
		s2.25-2.25,2.375-3.125S122.622,29.375,122.622,29.375z"/>
	<path d="M83.872,32.5c0,0-7.625-0.375-9.625,0s-4.25,1-4,2.625s3,9.125,3,9.125l1.375,1.625l4.875-3.5l9.5-6.25l-4.625-3.75"/>
	<path fill="none" stroke="#000000" stroke-width="0.75" d="M132.872,56.75c0,0,5.125,3.5,12.625,5.25s15.375,4.25,23.625,5.875
		s16.625,4.875,23.5,5.125s10.125,0.125,16.625-0.875s10-0.875,13.5-0.875s4.375,0.875,7.625,2.75s5.125,3.5,6.875,7.75
		s2.25,2.125,2.125,6.25s-0.5,6.625-1.5,10.25s-2.5,5.625-3.5,7.5s-2.625,4.875-2.625,4.875L241.122,122l-9.375,8.875l10.375-2
		c0,0-7,6.875-11.125,11.375s-10.25,11.375-12,14s-10.375,16.625-10.375,16.625s-7.625,1.875-10.625,2.25s-6.875,0.25-7.375,0.125
		s-2.25-0.75-3.75-0.75s-4.5-0.875-4.5-0.875l-2.25-0.875c0,0,0.625-1.625,2.375-3.375s2.5-2.375,4.25-3.25s3.75-1.625,6-1.875
		s10.125-0.125,10.125-0.125s5.5-8.875,7.125-12.625s6.125-16.75,6.125-16.75l2-8.125c0,0-9.625-2.375-12.625-4.25
		s-3.625-1.125-8.5-5.125s-5.5-5.25-7.25-8s-3.25-8.125-3.125-10.5s1.5-7.75,5.125-12.125S200.872,75,200.872,75"/>
	<path fill="none" stroke="#000000" stroke-width="0.75" d="M99.997,54.75c0,0,0.5,5.5,0.875,9.375s1.375,11.5-0.375,18.5
		s-11.875,33.25-11.875,33.25l9.5-7.375c0,0,2.75,7,6.375,10.75s10.375,7.25,10.375,7.25s-3.375-3.25-4.375-5.875
		S109.872,116,109.872,116s5.25,5.125,9.625,7.125s7.125,4,10.875,4.25s8.75,0,8.75,0"/>
	<path fill="none" stroke="#000000" stroke-width="0.75" d="M133.747,107.875l6.125,22.625l-10.875,27.625c0,0-6.75,0.5-9.125,0.875
		s-4.5,0.875-6.625,2.125s-5,3.875-5.75,4.875s-1.75,2.125-1.75,2.125s1.375,1.375,3,1.875s4.125,1.625,8.5,1.875
		s7.25-0.125,10.375-0.5s8.875-2.125,8.875-2.125l10.75-21.25l16.875-9.25l-6.25-2.75l6.75-0.125c0,0-3.375-3-4.125-7
		s-0.5-18.875-0.5-18.875"/>
	<path fill="none" stroke="#000000" stroke-width="0.75" d="M160.372,123c0,0,9.125-3.875,13.125-5.125s6-1.5,9.5-2.125
		s6-0.875,8.75-0.625s7.875,2.125,7.875,2.125"/>
	<path fill="none" stroke="#000000" stroke-width="0.75" d="M173.497,117.875c0,0,8,4.25,10.125,4.875s8.625,3,8.625,3
		s-5,15.125-5.75,17.125s-8.625,16.375-8.625,16.375s-7.625-0.875-10-0.5s-5.25,1.5-6.75,3s-4.25,5.25-4.25,5.25l2,0.25
		l-0.125,1.125h7.875l-0.625,1c0,0,8.375-0.25,11.25-0.875s5.25-1.125,5.25-1.125s2.875-4.25,4.25-6.125s5.75-9.25,8.125-12.5
		s19-20,19-20s-10.5,2.25-10.125,2s7.75-6.25,7.75-6.25"/>
	<path fill="none" stroke="#000000" stroke-width="0.75" d="M217.122,127.75c-0.375,0-7.625-4.375-10.25-5.875
		s-5.75-3.625-5.75-3.625"/>
	<path fill="none" stroke="#000000" stroke-width="0.75" d="M116.372,121.125l2.375,10.125l-9.5,23.375c0,0-6.125,0.25-8.375,0.875
		s-5.625,1.875-6.875,3.125s-5.125,5-5.125,5s1.75,1.75,2.75,1.75s1.625,0.75,1.625,0.75s2.625,0.375,4.25,0.375
		s1.875,0.75,1.875,0.75h6.125"/>
	<polyline fill="none" stroke="#000000" stroke-width="0.75" points="118.872,159 124.747,146 136.997,139.125 	"/>
	<path fill="none" stroke="#000000" stroke-width="0.75" d="M137.247,137.5l-3.125-2.25l4,0.25l0.75-2c0,0-1.75-2.625-1.875-3.625
		s0-2.375,0-2.375"/>
	<path fill="none" stroke="#000000" stroke-width="0.75" d="M239.247,92.75c0,0,1.5,2.125,2.5,4.125s2.875,6.25,3.5,9.125
		s2.625,10.25,3.5,13s2.625,6,4.5,8.375s3.625,6.5,8.5,9.375s6.25,3,11.375,4.125s12.5,1.375,15.375,0.625s5-0.25,9.25-4.625
		s6.625-11.375,6.5-14.25s-0.375-11.625-1-15.625s-1.625-8.5-3.875-9.25s-4.625-0.125-5.375,1.5s0.125,5.625,0.75,8.625
		s1.75,7.5,1.5,10.875s-0.125,2.625-0.75,5.375s-0.061,2.917-2.625,5.25c-4.167,3.792,0.083,0.917-3.083,2.751
		c-3.194,1.851-3.667,1.124-6.292,1.249s-4.125,0.25-7.5-0.5s-4.875-0.25-8-2.375s-2.75-1.125-6-4.875s-3.75-6.125-5.25-10
		s-1.75-6.125-3.375-11.125s-3.625-10.75-4.875-13s-2.375-4.375-4.375-6.125s-2.875-2.5-4.5-3.75s-2.875-1.75-2.875-1.75"/>
	<path d="M136.122,60.875l-19.375,19.5c0,0-0.5-1,1.25-5.75s3.375-6.375,5.125-7.875s4.375-3.5,5.875-4.125
		S136.122,60.875,136.122,60.875z"/>
	<path d="M132.997,57.375c0,0-4,2.375-5.25,3s-7.625,1.875-7.625,1.875s0-0.5,1.25-2.125s3.5-3.25,3.5-3.25l4.25,1l-1.25-1.625
		l3.5-0.125l2.25,0.875"/>
	<path d="M139.622,64.625l0.125-0.75c0,0-2.75,6.75-4.625,9.25s-2.375,2.375-5.75,4.875s-4.375,2.625-6.5,5.875s-3,3.25-3.875,7.125
		s0,14.125,0,14.125s1.125-3.375,1.5-6s0.25-2.375,1.375-4.75s1.5-3.625,4.875-7.25s3.5-3.25,6.25-6s3.25-2.625,4.375-4.875
		s1.5-4.5,1.875-6.125s0.875-5.75,0.875-5.75"/>
	<path d="M150.747,68.25c0,0-6.125,4.125-8.625,6.75s-4.125,5.25-5.25,7.875s-2.125,4.75-2.5,8.125s0.125,8.125,0.375,10.375
		s0.875,2.375,0.875,2.375s0.5-2.5,1.25-6.75s1.625-7.125,3.125-11s2.125-5.5,4.125-8.375s6-9.375,6-9.375"/>
	<path d="M159.997,70.125c0,0-4.875,5.875-5.875,10.375s-1.125,9.125-0.875,11.25s0.875,4.25,2.125,6.5s3.125,5.25,3.125,5.25
		s-0.625-8.75-0.875-9.5s0.125-8.125,0.375-10.625s1.375-9.125,1.375-9.125L159.997,70.125z"/>
	<path d="M168.372,70.875c0,0-0.5,21.25-0.5,24.5s-0.375,18.875-0.375,18.875s2.375-4.125,3.125-8.375s1.625-11.75,1.625-15.125
		s-0.375-7.5-0.75-10.125s-2.625-9.5-2.625-9.5"/>
	<path d="M182.247,72.875c0,0,0.625,13.75,0.375,20.5s-1.625,19.875-1.625,19.875s2.5-4.625,3.5-7.25s2.25-6.5,2.25-6.5
		s0.25-4.125,0.5-5.5s0-7.75-0.125-9.125s-3.375-10.625-4.125-11.75"/>
	<path d="M195.747,76.125c0,0,0.625,7.25,0.125,12.25s-3,22.25-3,22.25s0.625,0.625,2.625-3.875s3.625-8.25,4-11.75
		s0.625-8.625,0.25-10.5S195.747,76.125,195.747,76.125z"/>
	<path d="M206.872,74.5c0,0,0.625,9.625,0.375,13.375s-0.375,7.75-1.125,11.375S202.497,116,202.497,116l4-5.625
		c0,0,1.5-2.25,2.25-5.125s2.625-10.5,2.625-13.125s0.625-6.625-0.5-9.625S206.872,74.5,206.872,74.5z"/>
	<path d="M225.747,73.75c0,0-5.125,16.5-6.375,19.625s-4.75,13.625-7.25,17.75s-3.75,6.5-3.75,6.5s4-1.875,6.375-4.75
		s3.125-4.125,5.25-8.125s2.875-5.375,3.875-8.5s2.125-6,2.125-9.125S225.747,73.75,225.747,73.75z"/>
	<path d="M242.872,89c0,0,0.25,6.5,0.5,7.875s0.625,1.75,0.75,1.375s0.625-3.375,0.5-4.5S242.872,89,242.872,89z"/>
	<path d="M248.872,100.625c0,0-0.069,0.244-0.183,0.667c-0.19,0.709-0.504,1.923-0.817,3.333c-0.5,2.25-0.25,5.5-0.25,5.5
		s0.875-1.5,1.125-2.25l0.5-6.5"/>
	<path d="M250.622,112.375l0.125,8.5l1.375-3.125c0,0,0.125-0.5-0.125-1.875s-0.75-2.75-0.75-2.75"/>
	<path d="M255.997,122.75c0,0-0.625,1.625-0.75,3.25s0.875,3.875,0.875,3.875s0.875-0.875,0.875-1.75s-0.5-5.5-0.5-5.5"/>
	<path d="M263.372,129.75c0,0-1.25,0.875-1.375,2.5s1.125,3.75,1.125,3.75l1.5,1.375L263.372,129.75z"/>
	<path d="M270.997,134.875c0,0,0.375,2.125,1.875,3.25s4.375,2.125,4.375,2.125l2.125-0.125l-5.5-3.25L271.997,135"/>
	<path d="M281.872,137.375c0,0,1.75,1.625,3.375,2.375s2.375,1.375,3.625,1.125s2.875-0.5,2.875-0.5s-0.875-0.5-2-0.875
		s-3.625-1.25-3.625-1.25l-3.625-1"/>
	<path d="M292.122,133.375c0,0,0.625,1.625,2.25,1.5s4.375-0.125,4.375-0.125l1.125-0.875c0,0-3.375-0.375-3.875-0.375
		S292.122,133.375,292.122,133.375z"/>
	<polyline points="297.497,127.125 301.747,127.625 303.497,127 300.247,126.5 298.122,126.875 	"/>
	<path d="M296.497,117l1-7.5l2.75,6.5v-11.125l2.75,15.375l1-3.625c0,0-0.5-4.375-0.5-6.75s0-4-0.375-5.125s-0.625-3-1-4
		s-0.375-2-1.375-2.625s-1.125-1.125-2.375-1.25s-2.625-0.125-3.125,0.25s-1.25,2.125-1.25,2.125s-0.375,1.375-0.375,2.125
		s0.75,5.5,0.75,5.5s0.875,3.25,0.875,3.625S296.497,117,296.497,117z"/>
	<path d="M189.997,172.5c0,0,1.125-1.375,2.25-2.5s4.125-2.75,4.125-2.75s-3.125,3.125-3.625,3.5s-2.125,2.5-2.125,2.5"/>
	<path d="M181.872,170.625c0.5-0.375,1.625-2.375,2.625-3.125s6.125-3,6.125-3s-4.25,2.625-5,3.375s-3.25,3.75-3.25,3.75
		l-0.625-0.375"/>
	<polyline points="166.122,168.75 171.122,163.5 166.747,169.25 	"/>
	<path d="M158.872,167.75l6.375-5.875c0,0-3.375,2-4.25,2.625s-2.875,2.75-2.875,2.75h0.75"/>
	<path d="M118.872,171.5c0,0,0.625-1.625,1.625-2.875s4.875-3.75,4.875-3.75s-2.625,3-3.375,3.875s-1.5,3-1.5,3"/>
	<path d="M109.872,170.125c0,0,1-2.25,3-3.75s6.625-3.75,6.625-3.75s-4.625,3.5-5.375,4.25s-3.125,3.875-3.125,3.875"/>
	<path d="M99.247,166.25c0,0,0.625-1.625,2-2.875s3.5-2,3.5-2s-2.875,2.5-3.375,3.375s-0.75,2.25-0.75,2.25l-1.25,0.25
		L99.247,166.25z"/>
	<path d="M92.247,165.125c0,0-0.125-1.375,1.125-2.5s6.75-4.375,6.75-4.375s-5.125,4.25-5.75,4.875s-1.125,3-1.125,3"/>
	<line fill="none" stroke="#000000" stroke-width="0.75" x1="106.872" y1="167" x2="103.372" y2="167.25"/>
</g>
<g id="frame_2">
	<path fill="#FF0000" d="M48.997,68c-0.375,0.125-10.25,3.375-10.25,3.375s-3.125,6.5-3.125,7.5s-0.375,5.5,0.625,7.125
		s5.375,3.75,5.375,3.75s5.375-3.875,5.375-4.25s2.125-6.5,2-6.875s-0.125-10-0.125-10"/>
	<path fill="#B1B1B1" d="M43.247,61.875c0,0,2.625,4.75,3.25,6.625s0.125,6.125-0.375,8.125s-2.625,6.625-3.5,7.875
		S40.247,87,40.247,87s-3.375,2.875-3.875,3.5s-2,2.5-2.375,2.875s-3.5,0.375-4.25,0.25s-4.125-1.5-4.625-1.75
		s-2.375-2.25-2.375-2.25l-3-0.875l-5.125-0.5c0,0-0.375,4.5-0.125,5.25s1,3.25,1.625,3.5s2.375,1,2.375,1l1-0.125
		c0,0,0.5,1.75,1.5,2.375s1.625,1.625,2.5,2s2.75,0.625,2.75,0.625l1.125-0.5l0.375-0.875l0.25-0.625l-0.5-1.75
		c0,0,0.875,1.125,1.5,1.375s1.625,0.875,2.125,1s2.625-0.125,2.625-0.125l1.125-0.5l1-0.125L33.747,98c0,0,0.875,0.5,1.5,0.625
		s1.75-0.25,2.25-0.375s1.625-0.625,1.625-0.625l1.375-1.125l0.5-1.125l0.25-1.75l1-1.125c0,0,1.25-1.25,1.625-1.625
		s3.125-3.5,3.125-3.5l2.125-3.75l1.75-3.25l1.25-2.25c0,0-0.5,2.75-0.75,4.5s-1,4.75-1,4.75s-1.875,8.5-2.75,11.25
		S40.247,119,40.247,119l7.875-6.875c0,0,3.75,6.375,5.75,8.875s5.25,4.75,5.25,4.75l3.125,1.875l2.5,1.125
		c0,0-2.875-3.625-3.25-5.125s-0.875-4.125-0.875-4.125s3.5,3.875,4.625,4.625s8.375,4.375,8.375,4.375s1.75,0.875,2.125,1
		s4,1.375,4.5,1.125s7.375-0.875,8.25-0.875s4.625,1.25,4.875,1.625s1.875,1,1.875,1l-0.375-5.25l-2.375-4.625l-4.625-0.875
		c0,0-7.375-6.75-7.75-6.875s-6.875-8.125-7.125-8.5s-6.25-18.125-6.375-18.5s0-2.25,0.125-2.75s0.875-3.875,0.875-3.875
		l0.625-1.375l2,3.25V73l0.75-12.625l2.625-3.875l1.875-5.375l-0.625-4.25l-4.625-0.25c0,0-7.5,7.875-8,8.125s-7.625,4.5-8,4.5
		s-4.875,1.875-4.875,1.875"/>
	<path fill="#B2751E" d="M70.247,73.625c0,0,0-12.5,0.125-13s0.75-2.375,0.75-2.375l3-0.5c0,0,14.375,4.625,15.375,5.125
		S88.122,66,88.122,66l-8.5,8.625c0,0-4.75,5.875-5.125,6s-4,2.375-4,2.375v-0.875L70.247,73.625z"/>
	<path fill="#7F5415" d="M78.747,130l22,29.75c0,0-5.75,1.625-6.375,2s-2.625,2.625-3,3.25s-0.75,2.375-0.875,3.125
		s-0.125,3.125-0.125,3.125l9.625,0.25c0,0,1.125-3.5,2-4.75s3.375-3,3.375-3l2.875-1.375l1.125-0.25"/>
	<path fill="#7F5415" d="M109.622,158.375l0.875,0.25c0,0-5-8.375-5.875-9.75s-5.375-10.75-5.375-10.75l-0.125-1.5l-2.625-4.375
		l-1.125-1.375l-1.5-0.25l-13.875,0.25l6,8.125l7.5,10.25c0,0,7.375,10.625,7.75,10.625"/>
	<path fill="#B2751E" d="M100.997,172.375c0,0-1.375-1.125,0.25-3.875s4.125-4.75,4.125-4.75s2.25,0.5,2.625,0.5s6.25-0.75,7-0.75
		s3.25,0.125,3.5-0.25s-1.375-3.5-1.375-3.5s-0.25-1.875-0.5-2.375s-5.5-9.75-5.5-10.125s-1.625-6.5-1.875-7s-1.25-6.875-1-7.25
		s4.125,0.875,4.125,0.875l-5.375-5.625l5.875-0.25l-7.75-6.125l4.25-2c0,0-0.875-3.75-0.625-3.875s-3.625-11.625-3.75-12.5
		s9.25,11.125,9.25,11.125l6.875,10.875l-3.75,0.875L127.497,134l-10.375-0.125l6.375,4.875l-6,0.5l8.125,24.625
		c0,0,0.125,3.5-0.5,4.625s-1.25,2.375-2,3s-2.625,1.75-3.75,1.625s-9.375-0.5-9.375-0.5L100.997,172.375z"/>
	<path fill="#B2751E" d="M113.497,115.5l25.75-6.75l3.5,4.875c0,0,1.375,1.625-0.5,1.125s-4.375-0.875-8.75-0.375
		s-8.25,1.125-10.125,1.75s-6.5,3.25-6.5,3.25h-2.75L113.497,115.5z"/>
	<path fill="#7F5415" d="M125.997,122.125c0,0,13.5,5.625,16,6.625s5.25,5.625,6,6.875s3.875,8.625,4.875,11s2.375,5.25,3,6.75
		s0.625,2.25,0.5,3.25s-0.25,1.25-1.125,2s-4.125,1.625-5,2.375s-2,1-2.625,2.125s-1.5,3.25-1.375,4.125s0.25,2.625,0.25,2.625
		s5,0.25,7.125,0.375s6-0.125,6.875-0.25s3.125-1,3.125-1l1.75-1.25l0.875-1.375l0.5-1V164l0.125-1.625l-0.125-1.125l-0.25-1.375
		l1.75,0.25c0,0-3.25-6.25-4.875-10.25s-4.75-15.25-4.75-15.25l6.75-0.125l-4.5-4.375l5.5,0.375l-2.25-4.5l-6.375-3.875
		l-4.375-0.875l-3-1l-1.375,0.125c0,0-8.125-0.5-10.125-0.5s-6.75,0.125-7.875,0.5s-5,1.125-5,1.125"/>
	<path fill="#B2751E" d="M189.247,93.125c0,0-16,14.375-16.625,15s-3.875,13.125-3.5,13.875s12.625,11.5,13.75,12.5
		s9.625,13.75,9.625,13.75s4.5,8.125,5,8.75s2.25,7.125,2.25,7.125s-9.75-0.875-10.375-1s-4,0.625-4.5,0.75s-2.375,0.25-2.375,0.25
		s-1.375,4.25-1.125,4.75s2.75,2.375,3.875,2.625s5.25,0.625,6.125,0.625s8.125,0.375,10.625,0.25s3.25-0.875,4-1.375
		s1.5-1.5,1.5-1.5l0.125-7.125c0,0-1.125-3.125-1.5-3.5s-17-28.125-17-28.125s0.625-0.125,2,0.125s3.25,0.125,4.125-0.125
		s1.5-0.625,1.5-0.625l-3.32-1.011l-2.43-0.739c0,0,3.125,0.25,4.625,0s3.375-0.75,3.375-0.75s-4.25-2.625-7.25-4.125
		s-5.5-3.875-5.5-3.875l-2.25-2.25l-1.375-1.875l-0.75-0.875c0,0,2.75-3.75,3.625-4.875s2.625-4.75,2.625-4.75l1.375-3.75l1-3.75
		v-2.375l-1-2.75"/>
	<path fill="#B2751E" d="M189.997,91.375l5,1.5l4.5,17.375l3.125,7.5c0,0,8.125,11.875,8.375,12.375s7.375,5.625,8.25,6.125
		s5,1.375,6.25,2s9.375,1.125,10.5,1.375s7.25,0,7.875,0.375s4.125,0.75,4.125,0.75l-6,4.25l-5.875,1.25l-4.75-0.25l-4-0.5
		l-4.25-0.625l-4-0.875l-3.375-1.5l-3.375-2.25l-3.25-2.75c0,0-2.875-3-3.375-3.5s-2.875-4.5-2.875-4.5l-2.25-4l-2-4.5l-1.25-5.5
		l-1.125-4.375l-1.25-3.75l-1.875-4.875l-1.375-2.625l-1.625-1.25L189.997,91.375z"/>
	<path fill="#FFA82B" d="M16.997,34.625l2.688-0.563l5.188-0.875l4.875,3.625l5.75-0.75l1.188,0.875c0,0,1.188,3.063,1.188,3.25
		s-1.313,3.813-1.5,4s-0.313,2.75,0.188,3.25s6.438,3.188,7.438,3.438s8.938-0.75,9.563-1s5.313-4.625,5.438-4.813
		s-0.063-6.625-0.125-6.875s-2.75-6-2.875-6.375S52.372,29.5,52.372,29.5H50.06l-4.813,2.063c0,0-3.688,1.063-3.875,0.938
		s-1.688-0.938-2-1.438s-0.75-4.813-0.625-5s2-1.438,2-1.438l2.438-1.875l0.75-0.75l1.875-0.438l2.563-0.188h2.188h3l4.438,1.063
		l2.688,0.875l3.188,1.5c0,0,1.563,1.063,1.75,1.125s1.5,1.063,1.688,1.25s3.25,3.438,3.313,3.625s1.125,2.75,1.125,2.75
		l1.188,2.375c0,0,0.688,2.875,0.75,3.063s0.875,3.938,0.875,3.938l-1,3c0,0-0.313,1.688-2.25,4.188s-2.313,3.25-3.938,4.563
		s-3.25,3-4.063,3.313s-2.563,1.188-2.563,1.188l-7.375,1c0,0-3.688,0.938-3.875,0.938s-9.125-2.5-9.625-2.563
		s-5.188-2.688-5.438-2.875s-4.438-5.313-4.438-5.313s-1.25-1.25-1.5-1.438s-1.313-3.813-1.313-3.813s-5.75-5.25-6.188-5.375
		s-4.938-4.438-4.938-4.438L16.997,34.625z"/>
	<path fill="#FFA82B" d="M254.497,125.125l-0.125-9.5l-3.25-8.875l-3.25,2.5l-1.125,3.75v5.75c0,0,0.125,3.875,0,4.75
		s-0.5,5.5-1,6.375s-2.5,4.375-3.25,4.75s-2.375,1.375-2.875,1.5s-7.75,0.875-8.125,1s-9.375-1.625-10.375-2s-4.125-1.5-4.125-1.5
		s-4.625-4-5.375-4.75S208.747,124,208.747,124s-2.75-7-3-7.75s-1.75-7.125-1.75-7.125l-2.625-6.625l-1.375-3.875l-2.375-4.25
		l-1.375-2.125l-1.5-2.125L192.872,88l-1.75-1.375l-2.25-0.75l-2-2.625l-2.625-3.375l-4-3.125l-4.875-1.625l-3-0.75h-3.75
		l-3.25,0.25l-7,1.375c0,0-6.25,0.125-6.625,0.25S146.622,76,146.622,76l-8-0.75l-7.375-1.5c0,0-19.875-4.625-21.75-5.125
		s-18.125-5.25-18.125-5.25l-1.625-0.188c0,0-6.563,3.75-6.688,3.938s-12.125,11.75-12.125,11.75s-0.438,11.813-0.438,12
		s7.25,19.875,7.25,19.875s6.25,7.375,6.875,7.875c0.095,0.076,0.398,0.393,0.82,0.844c0.219-0.079,0.449-0.066,0.683,0.005
		c0.413-0.412,1.13-0.503,1.451,0.167c1.125,2.352,3.195,4.015,4.5,6.25c0.192,0.33,0.154,0.641,0.01,0.895
		c0.009,0.025,0.022,0.05,0.031,0.075c1.238,1.386,2.13,2.39,2.13,2.39l4.5,7.125l9.25,15l4,5.375l2.5,4.5c0,0-6,1.125-6.75,1.375
		s-3.125,1.125-3.125,1.125s-0.25,0.75-0.5,1.5s0.625,1.625,0.875,1.25s1.625-1.125,1.625-1.125l1.5-1.125c0,0,0.125,1.125,0.75,1.5
		s1.625,0.5,1.625,0.5l2-1c0,0,1.625,0.625,2,0.625s3-0.375,3-0.375l1.5-0.5v-3.5l-1-4.375l-8.25-20.875l5.5-0.25l-7-6.375
		l7.25-0.125l-7.75-7.75l4.75-0.125l-7.375-17.375l7.125,7.125l1.25,2.125l1.75,2.625c0,0,0.25,0.5,4.625-1.125
		s13.125-4.25,13.125-4.25l6-1l4.5,4.75c0,0,0.625,1.125,3,3.125s2.875,2.875,4.75,3.625s1.875,1.25,3.875,1.75s4,1.375,5.25,1.75
		s1.5,1.125,3.375,1.5s2.5,1,4,1.375s2.875,0.5,4.25,1.75s3.375,3.5,5.375,6.125s8.75,12.625,10,14.25s4,5.5,4,5.5l2.375,3.375
		l1.25,2.125c0,0-8.125,0.25-8.875,0.625s-2.75,2-2.75,2l-1.125,2c0,0,1.5,0.75,2,1s1.875,0.375,3.125,0.25s2.125,0.375,5.25,0
		s5.875,0.125,7.125-0.625s2.375-0.375,1.5-2.875s-15.125-26.25-15.125-26.25l-7-12.125c0,0-2.875-3.5-3.875-4.125
		s-2.5-4.25-1.875-7s1.375-4.125,3.75-6.875s5.875-4.375,8-6.25s5.375-5.75,5.375-5.75l0.375-2.375c0,0,1-0.75,2,0.75
		s1.125,2.25,2.25,5.625s2.125,5.5,3.375,9.875s3,8.625,5.75,13.125s4.125,7.75,8,11.25s5.625,5.375,8.875,6.625s6.25,2.5,9.625,3
		s8.625,0.75,11.5,0.5s4.25-0.75,4.25-0.75l3.125-2.875l1.75-2.875l1.375-1.5l0.875-2c0,0,0.25-1.625,0.5-2s0.75-2.125,0.75-2.125
		L254.497,125.125z"/>
	<path fill="#FFA82B" d="M74.247,94l-4.125,2.75l0.625,8.125c0,0,4,5.5,4.5,6.25s4.75,3.375,4.75,3.375s0.125-7.125-0.125-7.875
		s-1.875-13.25-2.5-13.875s-4.125-1.375-4.125-1.375"/>
	<path fill="#FFFFFF" d="M39.706,32.292c0,0,4-2.583,5.167-2.667s4.333-0.333,4.333-0.333l3-0.167l6.833-0.083
		c0,0,1.333,0.583,2.333,1.75s1.667,1.333,2,3.417s0.417,5.25-0.167,7.583s-1.333,5-3.333,6.667s-4.583,3.5-5.833,4.333
		s-2.417,1.25-4.917,1.167s-5.083-0.75-8.083-2.333s-6-3.666-6.667-4.833s-0.833-2.584-0.167-4.167s2-3.167,2-3.167l0.5-2.083
		l1.167-3.167L39.706,32.292z"/>
	<path fill="#FFFFFF" d="M23.622,33.625c0,0-0.417,1.167,0.583,2.167s1.917,2,2.75,2.083s2.583-0.083,2.583-0.083l1.5,0.5
		l2.083-0.167l1.667-0.25l1.417-0.5l0.667,0.5l2.333-1.083l2.833-3.417l-0.833-2.083l-0.083-1.917l-0.417-1.25
		c0,0,1.75-1.417,2.333-2.667s1.083-3.583,1.083-3.583l-7.083,1.333c0,0-2.667-1-3.5-1.083s-2.834-0.25-3.417,0.083
		s-2.25,0.667-2.833,1.25s-1.417,1.417-1.917,1.917s-1.333,2.083-1.417,2.75s-0.5,1.583-0.083,2.75s0.417,2.167,0.417,2.167
		L23.622,33.625z"/>
	<path fill="#FFFFFF" d="M9.289,34.875l-0.417,1.583c0,0-2.917,2.583-3.5,3.333s-2.083,2.5-2.333,3.167s-0.75,2.417-0.75,3
		s0.167,2.833,0.75,3.917s0.417,2.583,0.417,2.583l-0.417,3.583l3.917-3c0,0,0.75,0.083,1.5,0.167s1.167,0.167,1.167,0.167
		s0.333,1.25,1.25,2.333s3.167,3.667,3.167,3.667s2.167,2.75,2.417,2.917s3.167,2.833,3.167,2.833l0.75,0.667l0.917,3.5l0.667,0.667
		l1.333-0.167l0.917-0.917l1.167-1.5l0.833-1.75l0.333-0.667c0,0,0.917-0.417,1.167-0.5s2.916,0,3.583-0.25s4.417,7.167,4.25,7.583
		s-2.083,8.499-2.25,8.833s-6.584,2.668-6.917,2.834s-5.417,2.333-5.417,2.333l-2.333,1.083l-1.917-0.25l-1.5-5.083l-0.75,6.583
		c0,0-0.167,1.5,2,2.5s5.75,2.834,5.75,2.834l3,0.75c0,0,1.833,0.416,2.083,0.416s2.333,0.168,2.75,0.084s3.833-0.75,3.833-0.75
		l1.167-0.834l-3-4.666l7.167-16.084l-0.583-5.083c0,0-1.417-2.667-1.5-2.917s3.25-2,3.25-2l2.583-0.167c0,0-0.167-0.5,1.583,0.25
		s4.583,0.667,4.583,0.667s2.167-0.583,2.417-0.667s1.083-0.667,1.083-0.667l-1.083-1.417c0,0,0.416,0.833-2.917,0
		s-7.583-3.5-8.75-4.333s-6.417-4.25-6.417-4.25l-5.083-4.833l-3.583-6.667l-3.333-3l-1.917-2l-2.083-0.917l-2.25-0.75l-2.583-0.5
		l-1.417,0.25l-1.667,1.167"/>
	<path fill="#FFFFFF" d="M53.456,60.875c0,0.25,2.333,3.167,3,3.583s1.75,0.583,1.75,0.583l1.583-2.333c0,0,1.583-2.167,1.667-2.417
		s0.167-2.5,0.167-2.5l-8.25,2.75"/>
	<path fill="#FFFFFF" d="M67.789,78.459c0,0-1.917,5.332-2,11.166s0,11.167,2.917,15.667s9.833,9.833,9.833,9.833h-7.833
		c0,0,3.583,4.001,7.167,5.084s7.167,1.416,7.417,1.333s3.667-0.083,3.667-0.083l-9.75-10.334l-2.25-2.416
		c0,0-1.583-2.833-2.917-6.75s-1.75-4.334-2-5.834s-0.917-4.75-0.917-4.75l-0.833-8.333L67.789,78.459z"/>
	<path fill="#FFFFFF" d="M71.122,58.208l7.083-0.5l3.25,0.083l4.75-0.583l3.417-0.167l1.75-0.417l4.167-3.917l4.333-4.583
		l-2.417-1.167c0,0-9.5-2.333-10.25-2.333s-4.917,0.083-5.667,0s-6.667,1.083-6.667,1.083l-1,0.583l-0.25,2.25l-0.583,3.5l-0.833,2
		l-0.75,2.417L71.122,58.208z"/>
	<path d="M77.789,109.209c0,0,3.75,4.499,5.667,6.333s1.917,1.834,1.917,1.834l0.5-0.584L77.789,109.209z"/>
	<polygon points="120.956,125.959 110.956,110.293 121.706,125.626 	"/>
	<path d="M137.372,104.292c0.083,0.334,1.084,5.416,4.5,9.5s5.583,5.584,5.583,5.584l0.583-0.667c0,0-5.75-5.749-7.5-8.583
		s-2.916-6.25-2.916-6.25"/>
	<polygon points="151.622,78.376 143.622,85.876 144.456,86.126 	"/>
	<path fill="none" stroke="#000000" stroke-width="0.75" d="M12.539,33.125c0,0-2.417,0.417-3,1.417s-0.333,5.75,0,7.5
		s2.083,7.5,2.083,7.5s6.667-0.166,8.917-0.583s8-2.167,8-2.167s0.667-0.833,0.25-1.917s-7.416-7.917-9.083-9.167
		S12.539,33.125,12.539,33.125z"/>
	<path fill="none" stroke="#000000" stroke-width="0.75" d="M8.956,36.292c0,0-1.917,1.333-3.417,3.25s-2.667,3.25-3.083,4.917
		s-0.083,3.833,0.417,5.167s1.584,2.417,2.917,3s3.917,0.75,3.917,0.75s0.083,1.417,2.083,3.583s4.666,5.083,5.333,5.833
		s2.917,2.5,2.917,2.5l1.25,4.333c0,0,1.166,0.75,2.333-0.25s2.75-4.833,2.5-4.667s2-0.417,3.583-0.917s2.917-1,4.417-1.5
		s4.417-2.25,6.333-1.75s4.583,2.75,5.333,5.167s1.5,5.5,0.5,9.417s-3.25,8.833-4.5,10.5s-6.5,8-7.583,8.5s-7.25,0.749-9.667,0.083
		s-8.75-3.916-9.5-4.916s-0.75-1.417-0.75-1.417s0.084,5.667,0.417,6.917s1.25,2.166,2,2.666s2.75,0.75,2.75,0.75"/>
	<path fill="none" stroke="#000000" stroke-width="0.75" d="M19.206,95.875c0,0-0.25,2.584,1.5,4.167s2.833,2.332,4.25,2.666
		s2.75,0,2.917-0.75s-0.75-3.083-0.75-3.083s1.667,2.417,3.75,2.667s4.667-0.166,4.833-0.5s-2-3.168-2.25-3.084
		s2.583,0.751,4.667,0.334s2.667-1.251,3-3.084s0.333-1.833,0.333-1.833s3.417-3.417,5.167-5.75s6-10.083,6-10.083"/>
	<polyline fill="none" stroke="#000000" stroke-width="0.75" points="52.206,78.791 57.706,83.708 57.706,76.208 	"/>
	<polyline fill="none" stroke="#000000" stroke-width="0.75" points="54.539,71.708 64.206,85.709 64.539,68.375 	"/>
	<path fill="none" stroke="#000000" stroke-width="0.75" d="M64.206,71.458l6.167,12.333c0,0-0.333-20.917,0-23.417
		s2.333-6.75,2.833-10.167s0.917-10.417,0.417-12.667s-4.583-8.5-6.667-10.583s-6.5-4.167-10.083-5s-12.166-0.25-14.833,0
		s-5.083,1-5.083,1"/>
	<path fill="none" stroke="#000000" stroke-width="0.75" d="M70.872,58.208c0,0,3.167-0.333,6.667-0.417s11.75-0.25,13.667-1.333
		s8.667-8.167,8.667-8.167s-1.917-1.75-7.167-3.583s-19-6.167-19-6.167"/>
	<path fill="none" stroke="#000000" stroke-width="0.75" d="M73.706,57.792c0,0,11.083,4.083,22.5,7.333s30.667,8.25,37.917,9.5
		s9.999,1.75,15.333,1.833s6.833-0.333,11-1.083s9.501-1.25,13.417-0.583s6.832,1.834,11.166,6.5s4.168,4.834,5.084,6.917
		s0.832,4.584,0.666,7s-3.083,10.498-4.083,12.332s-4.416,7.167-4.416,7.167s1.665,4.084,6.249,7.167s10.25,5.583,10.25,5.583
		s-4.334,1.584-6.5,0.917s-0.833-0.167-0.833-0.167s4.001,1.583,4.917,2s-5.501,0.917-6.334,0.75s-0.833-0.167-0.833-0.167
		s13.999,23.333,15.583,25.75s2.167,4.418,2.417,5.334s0.083,8.25,0.083,8.25s-1.166,1.249-2.583,1.916s-16.166,0.084-16.333,0.084
		s-0.75-0.417-0.75-0.417s-2.501-0.251-2.834-0.417s-0.333-0.166-0.333-0.166s-2.749-0.918-2.833-1.584s-0.417,0.001-0.167-1.666
		s0.5-3.084,2.25-4.917s2.749-1.833,5.333-2s6-0.167,6-0.167l-21.083-29.499c0,0-3.166-2.416-5.666-3.25s-7.75-2.585-11.917-4.251
		s-7.75-3.999-9.167-5.166"/>
	<path fill="none" stroke="#000000" stroke-width="0.75" d="M121.289,125.459l-3.917,1.25c0,0,10.334,6.834,10.417,7.084
		s-10.417,0-10.417,0l5.834,5l-5.917,0.75l4.166,11.333c0,0,2.501,7.167,3.334,9.917s0.5,7.166-0.167,8.416s-1.333,3.584-4,3.667
		s-19.583-0.417-19.583-0.417s-0.75-0.916-0.417-2.583s2.333-5.501,5.583-6.917s5.25-1.25,6.417-1.5s1.833-0.25,1.833-0.25
		l-19.75-31.5c0,0-5.333-7.666-6.833-9.666s-2.667-3.334-2.667-3.334"/>
	<path fill="none" stroke="#000000" stroke-width="0.75" d="M80.039,130.959l20.833,28.917c0,0-3.667,0.083-5.417,1
		s-4,3.167-4.583,5.5s-0.333,4.833-0.333,4.833h9.667"/>
	<path fill="none" stroke="#000000" stroke-width="0.75" d="M109.706,161.543c0,0,0.332-1.583-0.084-2.25s-0.416-0.667-0.416-0.667
		l1.583-0.167c0,0-1.167-0.417-3.167-3.5s-8.167-17.75-8.167-17.75"/>
	<path fill="none" stroke="#000000" stroke-width="0.75" d="M95.456,130.959c0,0-12.417,0.251-16.167-0.333
		s-10.666-4.418-13.333-6.334s-5.5-4.75-5.5-4.75s0.75,2.916,1.667,5.25s2.75,4.417,2.75,4.417s-8-4.334-9.75-6.417
		s-5.167-7.417-5.667-8.25s-1.083-2.666-1.083-2.666l-8.5,7.583l6.583-17.417c0,0,2.583-6.667,3.167-10s1.583-8.999,1.5-10.416
		s-0.083-1.417-0.083-1.417"/>
	<path fill="none" stroke="#000000" stroke-width="0.75" d="M14.289,87.875l0.583-6.833l2.083,5.667l1.667,0.417l0.917,1.333
		l1.083-0.083l0.583,1.916l4.75,0.417l1.417,1l2.667-3.833c0,0,0.667,2.667,1.5,3.75s2.833,2.083,2.833,2.083"/>
	<path fill="none" stroke="#000000" stroke-width="0.75" d="M119.789,123.876c0,0,5.584-2.167,8.25-2.75s5.25-1.334,8.583-1.417
		s13.167,0.75,13.167,0.75"/>
	<polyline fill="none" stroke="#000000" stroke-width="0.75" points="3.456,50.709 3.122,56.042 6.872,52.959 	"/>
	<path fill="none" stroke="#000000" stroke-width="0.75" d="M26.622,65.042c0,0,2.75,0.833,3.583,2.083s1.5,3.833,1.333,5.583
		s0.5,1.667-1.083,3.75c-1.583,2.084-8.417,7.584-9.417,8.417s-3.25,2.25-3.25,2.25"/>
	<path fill="none" stroke="#000000" stroke-width="0.75" d="M40.872,87.042"/>
	<ellipse fill="none" stroke="#000000" stroke-width="0.75" cx="47.164" cy="39.626" rx="10.958" ry="10.25"/>
	<path fill="none" stroke="#000000" stroke-width="0.75" d="M32.372,21.959c-4.833,0-8.75,3.693-8.75,8.25
		c0,4.556,3.917,8.25,8.75,8.25c1.568,0,3.037-0.394,4.31-1.076c0.001-0.002,0.001-0.005,0.003-0.007
		c0.005-0.03,0.002-0.057,0.012-0.088c0.056-0.167,0.111-0.333,0.167-0.5c0.043-0.129,0.104-0.227,0.175-0.31
		c0.228-0.958,0.723-1.852,1.388-2.58c0.62-0.944,1.409-1.786,2.294-2.434c0.095-0.07,0.199-0.106,0.305-0.127
		c0.056-0.37,0.096-0.744,0.096-1.128C41.122,25.652,37.205,21.959,32.372,21.959z"/>
	<line fill="none" stroke="#000000" stroke-width="0.75" x1="24.289" y1="33.375" x2="17.372" y2="34.459"/>
	<path fill="none" stroke="#000000" stroke-width="0.75" d="M71.372,32.875c0,0,3.417-0.333,6.083-1.583s3.667-2.333,3.667-2.333
		l-14.667-2.5"/>
	<path fill="none" stroke="#000000" stroke-width="0.75" d="M138.747,107.625c0,0-2.5-6.375-1.375-10.875s7.75-12,7.75-12"/>
	<path fill="none" stroke="#000000" stroke-width="0.75" d="M188.622,85.375c0,0,2.75,1.375,4.125,2.5s2.875,2.75,4.75,5.875
		s4.25,9.25,5.75,13.125s2.625,10.5,4.375,14.5s3.5,7.875,6,9.625s3.25,3,7.5,4.25s13.5,3.25,18.875,0.75s6.5-8.25,6.625-12.375
		s-0.625-10.5-1-13.25s-1.5-6.375-0.75-7.875s3.75-2.5,5.375-1.125s3.25,5,3.75,9.625s1,15.75,0.375,19.125s-3.75,9-7.375,11.75
		s-7.25,4.125-12.375,4s-12.375-0.875-15.5-2s-9.75-5.75-12.25-8.375s-6.75-10.5-8.25-15s-1.25-6.375-2.875-10.75
		s-3-8.375-3.625-9.25s-1.875-2.5-1.875-2.5"/>
	<path fill="none" stroke="#000000" stroke-width="0.75" d="M125.622,122c0,0,4.875,2.75,7.875,3.625s5.875,1.875,8.25,3
		s4.75,3.875,5.5,5.625s8.625,19.5,8.625,19.5s0.625,2.625,0.375,3.75s-0.5,1.125-1.875,1.625s-4.875,1.5-6.375,3.375
		s-1.875,3.5-1.875,4.875s0.25,2.375,0.25,2.375s12.25,0.625,14.5,0.125s4.875-1.625,5.5-3.5s0.125-6.25,0.125-6.25l1.5-0.125
		c0,0-1.5-3.375-2.25-4.75s-3.25-6.875-3.25-6.875l-4.125-13.875h6.625l-4-4h5.625l-1.875-3.625"/>
	<path d="M41.372,55c0,0,5.5,1.75,9.875,0.75s4.625-1.375,7.375-3.875S63.747,45,63.747,45s-5.125,4.375-7.75,5.875
		s-4.375,2.875-7.25,3.5S41.372,55,41.372,55z"/>
	<path d="M51.247,60.125c0,0,4.5-0.5,6.625-1.25s5.25-3.75,5.25-3.75S62.497,58,61.122,59s-2.375,2-5,2.125
		S51.247,60.125,51.247,60.125z"/>
	<path d="M77.622,59.375c0,0-4.125,3-5.25,4.125s-2,2.75-2,2.75s3.75-0.125,5.5-0.875s6.75-4.25,6.75-4.25"/>
	<polyline points="68.247,79.625 67.372,83.875 69.622,82.5 68.747,80.125 	"/>
	<path d="M70.372,80.625c0,0,7.25-7.5,10-10.25s6.125-5.625,6.125-5.625s-6.375,0.875-8.375,2.25s-7.75,7-7.75,7V80.625z"/>
	<path d="M69.122,108.125c0,0-0.875-10-0.25-12.125s1.375-3.5,3.375-6.5s3.625-4.5,6.25-6.625s3.125-1.5,5.5-4.375
		s4.625-6.25,5.125-8s0.75-2.375,0.75-2.375s0.125,6.25-0.875,8.625s-1.625,3.375-4.375,6.125s-4.25,4.375-6.375,6.875
		s-4.625,4.375-6,7.875s-2.625,12.25-2.625,12.25L69.122,108.125z"/>
	<path d="M85.372,107.875c0,0-1.125-9.875-0.375-14.375s1.875-6.875,4.625-10.875S100.747,72.5,100.747,72.5s-6,10.25-7.75,13.625
		S88.122,97,87.372,100S85.372,107.875,85.372,107.875z"/>
	<path d="M110.247,73.5c0,0-0.077,0.134-0.215,0.374c-1.008,1.756-5.235,9.207-5.785,11.626c-0.625,2.75-1.125,6.25-0.125,10.25
		s4.75,11.25,4.75,11.25s-0.625-8-1-11.75s0-5.25,0.375-9s1.923-12.616,1.923-12.616"/>
	<path d="M118.747,74.625c0,0,0,19.75-0.125,23s-0.375,18.875-0.375,18.875s2.625-6.25,3.5-9.625s1.375-15.125,1-18.375
		s-1.625-8.75-1.875-9.5S118.747,74.625,118.747,74.625z"/>
	<path d="M133.622,76.5c0,0-0.002,0.317-0.007,0.872c-0.028,3.442-0.136,16.027-0.243,18.503c-0.125,2.875-1.75,20.375-1.75,20.375
		s5.375-11.125,5.5-12.875s0.875-9.75,0.75-11.625s-1.75-8.5-2-9.25s-2.252-5.683-2.252-5.683"/>
	<path d="M146.747,79.75c0,0-0.25,10.875-0.75,15.25s-3,19.375-3,19.375s5-8.5,5.75-12.125s1.75-11,1.5-13
		S146.747,79.75,146.747,79.75z"/>
	<path d="M157.372,78.375c0,0,0.5,5.875,0.375,9.5s-0.625,11.5-1,14s-0.5,5.25-1.375,9s-2.25,9.125-2.25,9.125s3.75-5.625,5-8.625
		s3-7.75,3.375-10.875s0.75-9.5,0.5-10.75s-1-5.375-1.625-6.5S157.372,78.375,157.372,78.375z"/>
	<path d="M176.122,77.5c0,0-3.625,12.25-4.625,15.625s-3.75,9.625-5.125,13.25s-3.625,8.625-5.375,11.375s-2.875,4.125-2.875,4.125
		s5.625-3.5,8.25-7s4.625-7.25,6-10.75s2.875-8.625,3.375-12S176.122,77.5,176.122,77.5z"/>
	<polyline points="36.122,40.25 53.747,40.875 36.497,38.125 	"/>
	<polyline points="34.997,38.125 29.247,28.75 36.682,37.383 	"/>
	<path d="M74.039,39.042l-0.5,8.25l25.083,0.417c0,0-5.333-3-6.5-3.333"/>
	<path d="M65.622,25.708c0,0,4.333,5.333,5,6.167s2.25,1.584,5,0.167s5.583-3.333,5.583-3.333"/>
	<path d="M46.81,69.688c0,0-3.125,0.813-4.125,2s-3.063,3.625-3.5,4.75s-0.438,4.313-0.25,5.375s0.938,3.188,1.438,3.813
		s0.875,0.938,0.875,0.938l-6.313,7.188c0,0-2.25-0.938-3.125-2s-1.771-3.874-1.771-3.874l-2.354,3.562l-1.729-0.729l-4.646-0.646
		l-0.688-1.687l-0.813-0.001l-1.5-1.563l6.063-4.375l4.75-4.375l2.188-2.875l0.375-2.25l-0.813-5l-1.188-1.688l-1.875-0.938
		l-1.75-0.063l0.5-0.75c0,0,3.188-0.813,3.375-0.813s5.875-2.25,5.875-2.25l2.813-0.688l2.688,0.063l2.813,2.125l1.563,2.375
		L46.81,69.688z"/>
	<path d="M102.956,172.459c0,0,0.083-2.334,0.833-3.667s3.333-3.5,3.333-3.5s-1.418,1.917-1.917,2.917c-0.5,1-0.916,2.083-1,2.75
		s-0.167,1.25-0.167,1.25"/>
	<path d="M108.205,172.542c-0.083-0.25-0.084-2.666,0.25-3.583s0.918-1.584,1.584-2.167s2.582-1.25,2.916-1.333
		s-1.667,1.084-2.25,1.917s-1.5,2.167-1.583,2.75s-0.167,2.75-0.167,2.75"/>
	<path d="M149.956,169.709c0,0-0.083-4.999,0.167-5.583s1.667-2.168,2.5-2.584s4.416-0.833,4.416-0.833s-2.916,1.083-3.583,1.5
		s-1.249,0.583-1.833,1.583s-0.584,2.917-0.667,3.417s-0.167,2.417-0.167,2.417l0.334,0.583"/>
	<path d="M184.123,170.626v-4.75c0,0,0.666-1.667,1.416-2s3.334-0.333,3.334-0.333s-2.583,0.833-3,1.333s-0.916,3.333-1,4.333
		s-0.085,2.082-0.085,2.082"/>
	<path d="M187.956,171.793v-5.584c0,0,0.583-1.166,1.25-1.416s5.583-0.417,5.583-0.417s-5.416,1.333-5.666,2.083
		s-0.084,5.75-0.084,5.75"/>
	<path d="M193.456,102.293c0,0,0.583-5.25,0.333-6.667s-0.333-2.333-0.333-2.333s1.333,4.75,1.25,6.5s-1.333,3.166-1.333,3.166"/>
	<path d="M199.039,104.626c0,0-0.166,1.416-0.583,3.583s-0.75,6.084-0.75,6.084s0.917-1.667,1.25-2.167s0.584-2.249,0.667-3.083
		S199.039,104.626,199.039,104.626z"/>
	<path d="M200.79,116.709c0,0,0.249,2.251,0.166,3.667s-0.416,4-0.416,4s1.5-1.5,1.583-2.5S200.79,116.709,200.79,116.709z"/>
	<path d="M205.873,126.376c0,0-0.334,2.999-0.167,4.916s0.333,3.334,0.333,3.334l0.833,0.874c0,0-0.249-3.875-0.249-4.708
		s-0.5-4.083-0.5-4.083"/>
	<path d="M213.123,133.293c0,0-1.167,1.582-1.25,2.916s1.25,4.334,1.25,4.334l0.75,0.666c0,0-0.749-3-0.833-3.5
		s0.083-3.916,0.083-3.916"/>
	<path d="M221.623,138.709c0,0,0.75,2.916,3.25,4.25s4.5,2.084,4.5,2.084l-3.084-2.584c0,0-2.334-1.582-3-2.416
		S221.623,138.709,221.623,138.709z"/>
	<path d="M232.456,140.959c0,0,1.583,1.584,3.25,2.167s4.417,1,4.417,1l2.417-0.25c0,0-4.25-1.167-5.417-1.667
		S232.456,140.959,232.456,140.959z"/>
	<path d="M242.706,137.293c0,0,1.084,0.75,3.167,0.833s4.333-0.583,4.333-0.583l-7.75-0.584"/>
	<path d="M248.206,130.209c0,0,0.239,0.103,0.604,0.253c0.771,0.319,2.104,0.854,2.896,1.081c1.167,0.333,2.25,0.583,2.25,0.583
		l0.5-1.417l-5.75-0.583"/>
	<path d="M246.956,120.376l1.167-8.417l2.25,7.584l0.083-9.917c0,0,0.583,0.917,1.333,4.417s1.417,7.166,1.417,7.166l1.417-4.25
		c0,0-1.168-10.084-1.584-11s-3.083-5.083-3.083-5.083l-2.833,0.083l-2.251,1.541l0.084,3.293l0.666,4.582l1.251,9.418"/>
	<path d="M25.122,40.958c0,0-8.917-3.084-10.167-2.667s-1.833,2-1.917,3.5s-0.5,7.917-0.5,7.667s5.249,0.083,8-0.5
		s7.167-1.917,7.167-1.917l1.167-0.583l0.167-1.167l-3.5-4.417"/>
</g>
<g id="frame_3">
	<path fill="#FFA82B" d="M15.789,48.5c-0.25,0.167-5.833,4.5-5.833,4.5s7.583,4.5,7.667,4.833s9.25,6.333,10.417,7
		s10.083,1.5,10.083,1.5s5.833,0.917,6.083,1s15.25-2.167,15.5-2.083s3.833-4.167,4.167-5.083s-2-3.917-2-3.917
		s-0.25,0.167,0.083-1.25s1-3.167,1.583-4.75s1.5-4.417,1.667-5.25s1.167-4,1.167-4l0.167-3.833l-1.5-2.333l-2.583-2.417
		l-2.333-2.167l-4-2.833c0,0-2.083-1.417-3.333-1.417s-4.5-0.083-4.75-0.083s-7.083,0-7.333,0.167s-5.667,1.833-5.667,1.833
		L30.622,30l-1.25,2.083l-1.333,4.5l-6.333,5.75L15.789,48.5z"/>
	<path fill="#FFA82B" d="M89.039,62.249l-14.25,11.75l-3.083,4.583c0,0-3.25,4-3.333,4.25s1.333,6.667,1.583,6.917
		s1.75,4.083,1.75,4.083s0.5,11.751,0.75,12.584s5.417,7.499,6,7.666s8.083,9.667,8.083,9.667l8.333,5.417
		c0,0,5.333,9.916,6.333,11.333s10.917,16.833,10.917,16.833l1.583,2.667c0,0-6.082,0.583-7.166,1.25s-4.083,3.667-4.083,3.667
		l-0.75,2.583c0,0,3.333,0.834,3.583,0.917s5.25-0.751,6-0.584s5.167,0.916,5.75,0.75s3.5-1.082,3.583-1.416s1.499-4.75,1.333-5
		s-5.666-23.334-5.666-23.334l-1.083-4.5c0,0,0.666-6.584,0.416-6.5s-0.999-5.916-1.166-6.166s2.166-2.333,2.166-2.333l1.25-1.917
		l7.084-1.667l14.916-2.666l3.583,0.333c0,0,3.667,4.001,5.167,4.917s12.917,6.749,13.917,7.166s5.749,2.083,6.666,2.25
		s2.167,0.751,3.167,1.417s7.917,9.333,9,11.083s13.167,19.167,13.167,19.167s-5,0.251-6.25,0.417s-2.584,0.666-3.167,1.166
		s-2.084,1.75-2.417,2.167s-0.666,2.583-0.666,2.583s5.667,1.333,6,1.5s6.916,1.5,7.166,1.5s6.834-1.666,6.834-1.666
		s1.416-7.334,1.166-7.417s-7.5-11.251-7.833-11.417s-8.083-15.501-8.5-15.667s-5.334-8.334-5.917-8.75s-4.083-6.166-4.333-6.583
		s-1.333-6.917-1.083-7.167s7.083-7.667,6.916-7.5s3.333-3.416,3.333-3.416l2.167-2l1.833-1.75c0,0,0.334-2.584,0.334-3.417
		s-0.167-1.833-0.167-1.833s2.167,1.833,3.167,3.083s1.916,3.417,2.916,6.917s2.084,8.416,3.334,10.833s3.667,7.333,5.75,10.75
		s5.584,9.251,7.417,10.917s3.666,3.5,5.166,4.25s4.583,2.332,5.75,2.666s3.334,1.167,9.167,1.417s11.417,0.333,13.167,0.083
		s3.75-1.25,3.75-1.25l2.499-3.666l1.25-3.167l0.584-3.166l0.25-2.25l0.083-5.167l0.083-4l-1-4.417l-1.333-4.833
		c0,0-0.501-0.417-0.917-0.417s-2.166,3.584-2.166,3.584l-2,0.5l-0.75,2c0,0,0,5.5,0,6.833s-0.417,4.833-0.417,5.083
		s-0.5,3.084-0.5,3.084l-2,2.416l-2.416,1.75l-3.667,1.667l-4.417,0.5l-5.083-0.5l-5.667-1.084c0,0-3.666-1.166-4.583-1.833
		s-5.25-4.417-5.25-4.417l-4.083-6.833l-2.167-6.333l-1.917-5.084l-2.166-7.583c0,0-2.167-5.249-2.667-6.583s-2.75-4.75-2.75-4.75
		l-3.75-3.584c0,0-2.833-2.916-3.5-3.166s-1.75-1.417-1.75-1.417l-2.583-2.833c0,0-4.418-3.917-5.001-4.333s-5-2.25-5-2.25
		l-4.583-0.25l-4.333,0.417l-8.75,1.25l-1.583,0.5l-14.167-0.583l-11.75-2.5l-10.75-2.583l-9.75-2.25l-5.25-1.167l-5.167-1
		l-4.583-1.333L89.039,62.249z"/>
	<path fill="#FFA82B" d="M230.456,140.416c0,0,1.333,0.75,3.083,1s12.416,0.667,14.25-0.583S230.456,140.416,230.456,140.416z"/>
	<path fill="#FFA82B" d="M245.873,138.749c-0.334,0.084-16,3.917-16,3.917s12.416,0.333,12.666,0.333s4.667-5.416,4.667-5.416"/>
	<path fill="#FFA82B" d="M203.373,114.166"/>
	<path fill="#FFA82B" d="M186.706,86.916c0.25,0.083,10.084,7.167,10.084,7.167s2.5,10.416,2.583,11.083s5.167,12.917,5,13.25
		s5.582,9.917,5.916,10.417s0.75,5.333,0.75,5.333s-9-11.749-9-12.083s-6.749-16.751-6.749-16.751l-2-9.666
		c0,0-2.416-2.667-2.75-2.667s-3.5-6.167-3.5-6.167"/>
	<path fill="#B2751E" d="M68.706,39.416c-0.055-0.165-1.193-1.303-2.083-2.063c-0.651,2.855-1.183,5.628-2.066,8.376
		c-0.523,3-1.48,6.002-2.918,8.697c-0.235,0.631-0.485,1.256-0.764,1.87l-0.335,1.37c0,0,3.417-0.167,3.417-0.417
		S67.706,46,67.706,46S68.789,39.666,68.706,39.416z"/>
	<path fill="#B2751E" d="M78.369,70.533c1.457-1.662,2.858-3.375,4.426-4.944c0.754-0.754,1.706-0.571,2.311-0.008
		c1.31-0.99,2.544-2.259,3.845-3.419l-0.246-0.246l-4-1.583l-2.917-0.75l-2.667-0.917l-2.583-0.417l-4.5,0.083L69.872,59l-1.25,0.5
		c0,0,0.083,1,0.167,1.667s1.667,4,2.083,5s2.583,5.083,3.083,6c0.277,0.508,0.958,0.959,1.516,1.265
		C76.361,72.37,77.333,71.412,78.369,70.533z"/>
	<path fill="#B2751E" d="M111.997,110.416l-7.25-6.625l7.75,16.75l-4.75,0.625l7.875,7c0,0-7.75,0-7.375,0.375
		s6.75,6.625,6.75,6.625l-5.625,0.25c0,0,5.25,11.5,6.875,15.875s2.125,7,2.5,8.5s-0.375,4.625-0.375,4.625l-3.625,0.375
		c-0.75-0.375-4,0.625-4,0.625l-2-0.25l-0.125-1.25l-2.875,1.25l-2-0.125l-0.25-1.125c0,0-2.5,4-2.75,4.75s0,2.5,0,2.5l1.125,0.375
		l3.375,0.125l2.375,0.25l3.25-0.125l7,0.375l2.875-0.875l2.125-1l1.5-1.5l1.125-2l0.25-2.625l-0.375-2.375l-8.375-22.875
		l5.625-0.875l-6-5.625l11.375,0.75l-10.875-7.75l4.375-0.25l-9.25-14.25"/>
	<path fill="#B2751E" d="M116.122,117.416c0,0,1.75-0.5,4.875-1.625s8.625-2.25,10-2.375s5.625-0.75,7.75-0.75s3.75,0.5,3.75,0.5
		l-2.5-4c0,0-5.75-0.25-8.125,0.25s-17.25,7.625-17.25,7.625"/>
	<path fill="#B2751E" d="M189.747,95.166c0,0-2.75,2.875-4.875,4.75s-5.5,3.875-6.75,5.25s-4.5,4.375-4.75,7.375s0.5,4.5,1.25,5.625
		s3,3.25,5.25,7s4.625,7.875,6.5,11.5s8.25,14.5,8.25,14.5l4,5.75c0,0,2.5,4.125,2.5,4.5s0.375,1.25-0.625,2.625
		s-3.625,1.625-3.625,1.625l-5-0.125h-2.75l-2.75-0.125l-1.625-0.375h-1.875c0,0-1.125,1.875-1.125,2.625s0.375,2,0.375,2l2.125,0.5
		l1.25,0.5l1.75,0.25h1.375l-0.125,0.625l5.125,0.125l11.75-0.375c0,0,1.625-1.875,1.75-3s0.25-4.875,0.25-4.875l-0.625-4.5
		l-16.25-29h5.375l-3.875-2.5l6.375-0.875c0,0-5.125-1.75-9.75-5.75s-6.625-7.375-6.625-7.375s4.5-8,5.25-9.625
		s2.375-9.125,2.375-9.125"/>
	<path fill="#B2751E" d="M189.872,90.041c0,0-0.25-1.5,2.375,2.25s2.25,4.75,4.125,10.25s4.25,11.125,6.125,15.25s6.625,12,10,14.5
		s3.375,4.75,12,7.125s12.375,2.625,15.25,2.5s8.125-1,8.125-1l-4.5,2.75l-3,0.625h-5.25l-5.875,0.25c0,0-5.375-0.5-7.875-1.125
		s-7-2.125-7-2.125l-4.25-3.5l-3.625-3.375l-2.5-4.375l-4.5-8.625l-1.75-5.5l-1.375-5.25l-1.5-4.625l-1.25-3.5l-0.875-2l-1.25-1.75
		l-1-1.75l-1.25-0.125v-1.375L189.872,90.041z"/>
	<path fill="#B2751E" d="M116.372,118.416c0,0,1.375-1.625,3.75-2.5s14.875-2.625,18.25-2.75s5.375,0.125,5.375,0.125l-5.875-2.25
		l-14.125,2.75l-7.125,2.875L116.372,118.416z"/>
	<path fill="#7F5415" d="M126.122,120.666c0,0,2,2.125,3.125,2.625s6.125,2.25,6.125,2.25l3.375,1l3.875,1.375
		c0,0,4.75,6.25,7.125,11.375s6.625,15.25,6.625,15.25s0.125,1.625,0,2.375s-3.625,1.125-4.625,1.625s-1.375,1.125-2.25,1.75
		s-2.5,1.875-2.75,2.5s-0.5,2.5-0.5,2.5v3.375c0,0,4.125,0.625,7.125,0.5s6.75-0.5,6.75-0.5l4.125-1.25l1.75-2l0.625-2.25v-3.875
		l1.375-0.375c0,0,0.375-1.375-1.125-3.5s-5.375-13.125-5.5-13.75s-2.25-7.5-2.25-7.5l5.75-0.25l-3.625-4.125h5.25v-3
		c0,0-10.5-3.875-11.625-4.5s-5.75-3.25-5.75-3.25l-1-0.5c0,0-11.5-0.5-14,0s-8,1.625-8,1.625"/>
	<path fill="#7F5415" d="M79.497,129.166l21.125,29.625c0,0-5.5,0.875-6.625,1.75s-3.125,4-3.25,4.375s-0.75,3-0.75,3.5
		s0.5,2.125,0.5,2.125l2.5,0.375h6.5l1.125-0.25l0.125-3l2.75-3.75l2.25-2.25l1.5-0.625l1.75-0.375l0.5-0.625l-0.125-2.5
		l1.875,0.125c0,0-1.25-0.25-3.75-4.25s-3.625-7-3.625-7l-0.125-1.75l-9.25-15.5c0,0-10.375,0.625-11.5,0.375
		S79.497,129.166,79.497,129.166z"/>
	<ellipse fill="#F9F7F7" cx="40.122" cy="46.354" rx="11.375" ry="10.313"/>
	<ellipse fill="#F9F7F7" cx="23.372" cy="43.541" rx="9.167" ry="7.708"/>
	<path fill="#F9F7F7" d="M36.039,36.583c0,0,3.5-2.416,5.417-3.333s4.25-1.833,5.833-1.833s4.417,0.833,5.417,2.167
		s1.75,3.5,2.25,6.083s0.333,6.75,0.083,8.75s-4.917,8.417-4.917,8.417l-2.917,2c0,0-5.5,0.667-7.917,0.75s-7.25-1.667-8.167-2.583
		s-2.083-3.5-2.083-4.75s0.833-5.083,0.833-5.083L36.039,36.583z"/>
	<path fill="#F9F7F7" d="M31.122,29.833c0,0-0.167,4-0.583,5.333s-1.667,5.417-1.667,5.417l-4.25,8.167c0,0-2.833,2.667-3.833,3.167
		s-4-0.583-4-0.583s-1.5-2-1.333-2.417s4.583-8.25,4.583-8.25l0.417-2.583c0,0,0.333-1.833,0.667-2.25s4.167-2.917,4.167-2.917
		L31.122,29.833z"/>
	<path fill="#F9F7F7" d="M3.372,55.916L3.789,57.5c0,0-1,0.667-1.25,1.25s-1.083,2.583-1.083,2.583L0.289,64.5v1.917l0.25,2l1,3.083
		l1.167,2.417c0,0-1,2.25-1.083,2.583s-0.25,2.167-0.25,2.167l0.083,2l0.333,2.584L1.456,84.5l0.417,4.166l0.5,2.917l0.75,2.666
		l0.75,1.5l1.417,1.084l0.917-0.25l1-1.334L8.289,96.5l1.5,2.083l1.167,0.5l0.917-0.667l0.333-0.666l0.167-1.334v-1.583L14.039,96
		l1.583,1.083l1.667,0.667l1.167-0.667v-1.167L18.539,94h0.583l1.583,0.333l1.417,0.167l1.333-0.25l0.917-0.584l-0.5-1l-0.417-1
		l-0.083-0.416l1.417-0.334l1.083,0.25l2.167,0.917l2.5,1.666l1.667,1.417c0,0-1.833-4.083-2.5-4.583s-1.583-1.916-1.917-2.25
		s-0.667-1-0.667-1l2.917,1.5l1.917,0.75l1.167,0.5l1.917-0.084l2.583-1.916l1-2l1.167-1.917l0.75-1.917l-0.417-6.166l-2-5.667
		c0,0,0.5-0.25,1.75-0.833s4.084-1.5,5.167-1.75s4.333-0.667,4.333-0.667l3-0.417l0.75-0.25l-0.5-2.25c0,0-2.667,0.5-5.667,0.333
		s-6.083-0.416-7.667-0.833s-13.333-3.917-13.333-3.917l-4.333-3l-0.917-1.167l-3.167-1.333l-2.75-0.75l-2.417-0.75l-2.667-0.167
		L6.789,53.25l-2.5,0.667L3.456,55.25L3.372,55.916z"/>
	<path fill="#F9F7F7" d="M60.289,57.916c0,0-1.666,2.75-3.333,4s-6.583,2.667-8.083,2.75s5.417,0.75,5.417,0.75
		s7.333,0.583,7.25,0.833s1.833-6.5,1.583-6.5S60.289,57.916,60.289,57.916z"/>
	<path fill="#FFFFFF" d="M70.206,39.583l-1.583,2.25c0,0-0.75-1.583-0.583,3s0.084,9.083-0.083,9.583s0.833,0.083,0.833,0.083
		l1.583-0.917L77.289,50l4.333-3l2.75-2.5l3.833-3.667l1.667-1.917l1.083-3.333l0.333-1.833l-1.417-0.667l-9.75,1.583L73.206,38
		L70.206,39.583z"/>
	<path fill="#B1B1B1" d="M68.039,42.416c0,0-2.5,5.583-3.417,7.833s-4.333,7.5-4.333,7.5s0.5,2.333,0.25,3.75s-1,3.583-1,3.583
		l-4.75-1.417c0,0-1.667,0.417-2.583,0.917s-9.167,2.583-9.167,2.583l-4.5,2.5l-0.75,0.667l2.083,1.833l1.083,2.083l0.75,3
		c0,0-0.25,3.25-0.75,4.5s-2,3.833-2,3.833l-2.25,3.666l-1.833,0.667l-1.583-0.167l-2.417-0.833l-2.75-1.25l-1.083-0.75
		c0,0,2.833,3.999,3.5,5.333s1.75,3.167,1.75,3.167l1.167,0.833l2.167-0.166l1.25-0.75l1.667-1.417l1.667-2.25l2-3.25l4.25-6.75
		l2.25-2.417l2-1.167L51.956,78v2l-0.5,3.583l-1.25,5.167l-1.667,5.5l-0.917,3.583l-1.333,3.75l-7,17.417l8.75-8.167
		c0,0,2.667,5,3,6s3.083,4.083,3.083,4.083l2.917,2.917l2.75,1.833l4.583,2.5c0,0-1.25-2.001-2-3.334s-1.5-4.582-1.583-4.916
		s-0.25-1.417-0.25-1.417s4.667,3.833,5.5,4.583s6.833,4.084,7.167,4.334s4.5,1.082,4.833,1.166s2.166,0.75,3.5,0.917
		s4.833,0.083,4.833,0.083l3.25-0.083l4.75-0.167c0,0-4.083-6.833-5.167-8.166s-4.417-5.167-4.417-5.167l-6.583-7.25
		c0,0-2-3-2.917-4.75s-2.417-8.5-2.417-9.5s-1.833-7.999-2.167-9.833s-0.583-4.334-0.583-4.334l0.25-1.083l2.333,1.5l-6.333-14.833
		l12,12.417l-9.083-20.75l-0.583-9.333l-0.333-5.667"/>
	<path fill="#B1B1B1" d="M66.789,65.083c0,0,1.333,6.917,1.25,7.167s2.167,3.25,2.167,3.25s2.417-2.167,2.25-2.417
		s-1.167-4.5-1.417-4.75s-4.25-4.667-4.25-4.667"/>
	<path fill="#B1B1B1" d="M117.247,117.916c0,0,0.5-0.875,3-1.875s6.25-1.625,9.375-2s8.375-0.75,8.375-0.75h4.5l1.75,1.125
		l2.125,2.625l2,1.25l1.5,0.625c0,0-5.5-0.625-7-0.625s-8.25-0.125-8.75,0s-3,0.5-4.375,1s-4.5,1.5-5.5,1.75s-4,1.5-4,1.5
		L117.247,117.916z"/>
	<path fill="#050505" d="M52.372,26.166l14.125-3.375c0,0-0.25,2.75-1.875,4.125s-4.5,2.875-4.5,2.875S53.747,26.416,52.372,26.166z
		"/>
	<path fill="#050505" d="M64.247,34.541c0,0,19.25-2,22.625-2s4.5,0.875,4.5,0.875s-10,2.875-12.75,4s-10.125,5.625-10.125,5.625
		S65.747,35.916,64.247,34.541z"/>
	<path fill="#050505" d="M77.997,108.416c0,0,0.156,0.166,0.429,0.457c1.679,1.796,7.781,8.357,9.071,10.293
		c1.5,2.25,1.5,2.25,1.5,2.25l1-0.5"/>
	<path fill="#050505" d="M121.497,125.666c0,0-5.375-8.75-6.375-10.375s-3.875-6.125-3.875-6.125l11,16.5H121.497z"/>
	<path fill="#050505" d="M115.122,115.291c0,0,0.375-1.75,0.438-3.25s0.25-5.563,0.25-5.563s0.063,6.813,0,7.688
		s-0.25,1.813-0.25,1.813"/>
	<path fill="#050505" d="M151.706,77.499c0,0-3.788,2.666-5.248,4.125s-1.46,1.459-1.46,1.459l0.365,0.25L151.706,77.499z"/>
	<polyline fill="#050505" points="29.372,48.75 49.706,45.583 30.122,50 	"/>
	<polygon fill="#050505" points="28.789,48.583 19.706,40.583 29.039,47.166 	"/>
	<ellipse fill="none" stroke="#050505" stroke-width="0.75" cx="40.122" cy="46.25" rx="11.167" ry="10.25"/>
	<path fill="none" stroke="#050505" stroke-width="0.75" d="M29.229,48.233c-0.015-0.109-0.027-0.217-0.036-0.327
		c-0.068-0.628-0.038-1.267-0.03-1.907c0-0.033,0.016-0.055,0.019-0.086c0.004-0.023,0-0.048,0.006-0.07
		c-0.007-0.06-0.02-0.116-0.024-0.177c-0.011-0.144,0.025-0.277,0.085-0.4c0-0.006-0.002-0.01-0.001-0.016
		c0.138-1.055,0.41-2.068,0.844-2.994c0.01-0.06,0.001-0.114,0.024-0.178c0.281-0.807,0.702-1.687,1.38-2.237
		c-1.575-2.43-4.648-4.092-8.205-4.092c-5.155,0-9.333,3.47-9.333,7.75s4.179,7.75,9.333,7.75c2.378,0,4.536-0.75,6.184-1.967
		c-0.112-0.32-0.186-0.657-0.235-0.997C29.234,48.268,29.232,48.25,29.229,48.233z"/>
	<path fill="none" stroke="#050505" stroke-width="0.75" d="M20.872,35.916c0,0,8.084-5.083,11.417-6.75s6.666-3,10.333-3.25
		s9.5-0.083,11.333,0.583s9.417,5.667,11.5,9.167s3.083,5.583,3.25,9.75s0.667,12.167,0.667,12.167l9,20.833L66.289,65.583
		L72.872,81l-13.583-8.5l6.167,8.333c0,0-12.917-3.25-14.25-2.917s-2.833,0.918-4.75,3.584s-5.5,8.75-6.833,10.833
		S36.705,95.75,35.789,96s-1.917,0.5-3.167-0.25s-1.5-1.75-2.75-2.5s-3.417-1.918-4.333-2.084s-1.667,0-1.667,0"/>
	<path fill="none" stroke="#050505" stroke-width="0.75" d="M23.206,89.916c0,0,0.5,2.417,0.75,2.917s0.666,0.749-0.167,1.333
		s-2.5,0.25-3.167,0.167S18.789,94,18.789,94"/>
	<path fill="none" stroke="#050505" stroke-width="0.75" d="M18.456,93.083l-0.083,3.833c0,0,0.25,0.5-0.833,0.667
		s-3-1.25-3.667-1.75s-2.417-2.25-2.417-2.25"/>
	<path fill="none" stroke="#050505" stroke-width="0.75" d="M12.456,94.666c0,0,0,3.167-0.417,3.667s-1.25,0.834-1.917,0.417
		s-3.833-5.417-3.833-5.417"/>
	<path fill="none" stroke="#050505" stroke-width="0.75" d="M7.289,94.75c0,0-0.75,1.666-1.333,1.916s-1.917-0.25-2.583-2
		s-1.333-4.5-1.333-4.5s-0.583-4.5-0.583-5s0.167-2.25,0.167-2.25s7.667-0.416,12.5,0.334s11.417,2.999,13.667,4.166
		s4.083,2.667,5.75,2.667s2.333,0.334,3.833-2.083s3.667-6.166,3.833-7.25s0.583-4.917-0.75-7.334s-5.167-5.75-6.75-6.75
		s-3.167-1.417-3.917-0.583s-4.75,8.333-5.333,9.333s-2,2.167-2.667,2.333s-2.5,0.333-3.333-0.083s-3.5-1.833-4.333-2.167
		s-4.167-1.5-5.75-1.583s-5.417,0-5.417,0s-1.75-2.833-2.167-4.417s-0.5-4.417-0.333-5.083S1.539,61,2.206,59.583s1.5-2,1.5-2"/>
	<path fill="none" stroke="#050505" stroke-width="0.75" d="M4.289,54c0,0-0.917,1.5-1,2.25s0.75,2.583,1.417,3.75
		s6.667,8.583,6.667,8.583s7.75-4.833,9.5-5.833s5.583-2.917,5.583-2.917s-5.417-4.25-7.583-5.083s-7.167-2.084-9.167-1.917
		S4.789,53.583,4.289,54z"/>
	<line fill="none" stroke="#050505" stroke-width="0.75" x1="9.706" y1="52.833" x2="15.872" y2="48.416"/>
	<path fill="none" stroke="#050505" stroke-width="0.75" d="M90.792,33.25c0,0,0.569,1.848-0.404,4.284
		c-0.975,2.437-2.678,4.032-4.22,5.544s-6.167,5.208-8.844,6.889c-2.678,1.68-7.951,4.116-7.951,4.116"/>
	<path fill="none" stroke="#050505" stroke-width="0.75" d="M2.622,74c0,0-1.417,3.25-1.417,5.083s0.417,3.833,0.417,3.833"/>
	<path fill="none" stroke="#050505" stroke-width="0.75" d="M1.206,79.083l3-0.083l2.583-2.25l2.583,2.5L11.456,78l1.5,1.917
		L15.539,79l1.583,2.083c0,0,1.833,0.083,2.25-0.417s1.417-2.417,1.417-2.417"/>
	<path fill="none" stroke="#050505" stroke-width="0.75" d="M40.706,82.083l-1.714-1.09l-5.369-3.41l-2,0.833l-3-2.333
		c0,0-0.167,1.167-0.167,2c0,0.833-0.25,4.167-0.667,4.583s-1.083,0.5-1.083,0.5s-0.583-0.583-0.833-1.583s-1.5-1.917-1.5-1.917
		l-1.833,2.084c0,0-0.917,0.25-1.25,0.083s-1.583-1.75-1.583-1.75"/>
	<path fill="none" stroke="#050505" stroke-width="0.75" d="M35.956,79.166c0,0,0.5-0.833,0.667-1.417s0.167-5.333,0.167-5.333
		l-1.583-4.5"/>
	<path fill="none" stroke="#050505" stroke-width="0.75" d="M52.039,77.916c0,0-0.416,5.917-1.333,9.417s-4.167,13.916-5.167,16.333
		s-6.333,15.333-6.333,15.333l9-8.166c0,0,2.75,6.167,4.25,8s5.75,6.082,8.25,7.416s3.583,1.75,3.583,1.75s-2.667-4.084-3.167-5.75
		s-0.583-3.583-0.583-3.583s5.917,5.333,9.583,7.083s7.167,3.583,12.333,3.833s12.583-0.166,12.583-0.166"/>
	<path fill="none" stroke="#050505" stroke-width="0.75" d="M88.622,119.999c0,0,8.684,13.357,10.917,17.5
		s14.083,22.667,14.083,22.667s-6.334,0.25-7.75,1.25c-1.417,1-4.917,5.332-5.167,6.666s-0.167,3.334-0.167,3.334
		s1.583,0.501,2.833,0.417s16.834,0,16.834,0s1.584-0.5,2.75-1.667s2.249-2.917,2.416-4.167s-0.417-5-0.417-5
		s-7.916-22.5-8.083-22.25s5.75-0.583,5.75-0.583l-5.5-5.417l10.584,0.417l-10.167-7.5l4.333-0.417"/>
	<path fill="none" stroke="#050505" stroke-width="0.75" d="M69.789,59c0,0,1.5-0.583,4.417-0.667s5.417,0.333,8.917,1.5
		s9.917,4.333,14.75,5.333s36.417,8.5,40.167,9.25s16,1.167,17.75,0.917s5.584-1,9.834-1.417s10-1.584,14.75,2.167
		s7.166,7.417,8.416,9.833s1.416,6.251,1,9.584s-3.582,10.917-4.916,13s-2.917,5-2.917,5s2.166,3.916,5.25,6.416
		s6.5,4.833,8.667,5.833s2.167,1,2.167,1s-5.5,0.75-6.167,0.75s-0.667,0-0.667,0l4.75,2.083l-5.917,0.417l16.5,29.167
		c0,0,1.25,5.832,0.75,8.166s-0.582,3.834-2.166,4.084s-16.75,0.083-16.75,0.083l-0.167-0.75c0,0-3,0.251-3.5-0.083
		s-0.5-0.334-0.5-0.334s-2.333-0.167-2.5-1s0-3.083,0-3.083s0.666-2.333,1.833-3.75s3.584-2.667,5.084-2.75s6.166-0.083,6.166-0.083
		l-18.083-25.667c0,0-2.417-3.333-4-4.583s-10.167-4.001-11.917-4.667s-9.167-4.249-11-5.416s-5.499-4.667-7.916-7.584
		s-4.25-6.583-4.75-9s0.333-6.5,1.333-9.25s5.167-8.083,5.167-8.083l2.75-3.334"/>
	<path fill="none" stroke="#050505" stroke-width="0.75" d="M119.872,122.666c0,0,3.375-1.375,6.25-2.125s7-1.875,10.75-2.125
		s11.5,0.25,11.5,0.25"/>
	<path fill="none" stroke="#050505" stroke-width="0.75" d="M126.122,120.541c0,0,2.25,2.125,4,2.875s7.375,3,9.625,3.5
		s3.375,1.5,4.875,3s7.375,13.375,8.5,16.125s3.5,8.625,3.5,8.625l-0.5,3c0,0-2.625,0.25-4.5,1.125s-4.25,3.125-4.875,4.625
		s-0.625,5-0.625,5s1.875,0.375,4,0.375s9.375,0,10.875-0.25s3-1,3.875-1.75s1.75-3.5,1.625-4.25s-0.125-3.125-0.125-3.125
		l1.5-0.375c0,0,0.5-1.25-0.25-2.625s-2.375-3.625-3.375-5.625s-5.375-16.875-5.375-16.875l5.75-0.25l-3.375-4l5.5,0.125l-0.5-3.25"
		/>
	<path fill="none" stroke="#050505" stroke-width="0.75" d="M79.622,129.416l20.875,29.375c0,0-5.25,1-6.625,2s-3,4-3.375,5
		s-0.375,4-0.375,4s0.5,0.875,1,1s8.875-0.125,8.875-0.125"/>
	<path fill="none" stroke="#050505" stroke-width="0.75" d="M103.206,143.417c0,0,1.417,5.582,2.917,8.166s4.75,5.75,4.75,5.75
		l-1.75,0.167l0.417,2.833"/>
	<path fill="none" stroke="#050505" stroke-width="0.75" d="M187.372,83.416c0,0,0.938,0.188,4,2.875s5.625,5.5,7.938,10.063
		s2.375,5.875,4.375,12.438s5.313,15.313,6.938,17.563s4.5,5.75,9.875,7.813s12.188,2.188,15.625,1.688s6.938-2.938,8.563-5.313
		s1.625-9.875,1.625-12.938s-0.375-5.125-0.875-8.125s-0.813-5.438-0.813-5.438s-0.688-3.813,2.313-4.625s5.625,1.313,6.313,7.438
		s1,14.313,0.938,17.125s-0.375,9.875-2.938,13.563s-6.063,5.438-8.563,6.188s-13.625,0.813-16.688,0.5s-10.063-1.813-12.5-3.563
		s-5.938-4.75-9.313-10.125s-5.375-10.75-6.313-14.5s-2.125-7.438-2.938-9.75s-1.813-5.438-2.563-6.625s-2.688-3.5-2.688-3.5"/>
	<path fill="none" stroke="#050505" stroke-width="0.75" d="M245.997,113.354l1.563,5.25l0.75-7.438l2.125,6.688v-10.938
		l2.75,11.625c0,0,0.625-6.25,0.563-6.063"/>
	<path fill="#050505" d="M22.497,56.854c0,0-11.5-0.563-12.813-0.125s-2.063,1.625-1.625,2.563s3.813,9.125,3.813,9.125
		l14.583-8.583L22.497,56.854z"/>
	<path fill="#050505" d="M57.372,43.354c0,0-0.072,0.188-0.199,0.508c-0.513,1.285-1.925,4.69-3.176,6.492
		c-1.563,2.25-4.875,6.063-7,7.813s-6.75,3.563-6.75,3.563s4.688,0.063,7.125-1s6.188-4.438,7.188-6.563s1.938-3.938,2.188-5.313
		S57.372,43.354,57.372,43.354z"/>
	<path fill="#050505" d="M60.372,52.604c0,0-0.188,1.313-1.375,2.938s-4.313,4.813-5,5.438s-2.688,1.75-2.938,1.75
		s4.125,0.375,5.563-0.5s3.125-2.875,3.5-4.375S60.372,52.604,60.372,52.604z"/>
	<path fill="#050505" d="M71.747,63.104c0,0,2.188-1.688,3.313-2.563s3.688-2.125,3.688-2.125s2.063,0.563,2.438,0.688
		s1.938,0.729,1.938,0.729l0.75,0.146c0,0-6.563,3-7.875,3.875s-2.813,2.313-2.813,2.313"/>
	<path fill="#050505" d="M69.685,68.854c0,0-1.375,1.125-1.438,1.438s-0.375-0.5-0.375-0.5l-0.375-1l1.188-0.875"/>
	<path fill="#050505" d="M74.372,68.666c0,0,2.875-2.25,4.938-3.313s7.438-1.813,7.438-1.813L76.435,73.666L74.372,68.666z"/>
	<path fill="#050505" d="M71.247,70.854c0,0-2,2.188-1.813,2.75s2.688,5.25,2.688,5.25s0.813-2.188,1.438-3s1.25-1.5,1.25-1.5"/>
	<path fill="#050505" d="M71.185,80.166c0,0-2.313,4.625-2.875,5.875s-0.813,2.688-0.813,2.688s0-6.438,0.25-7.625
		s0.625-2.813,0.625-2.813L71.185,80.166z"/>
	<path fill="#050505" d="M90.372,66.916c0,0-2.313,5.688-4.375,8.063s-4,4.375-7,6.875s-6.125,5.938-7.25,7.688
		s-1.938,4-2.313,5.688s-0.313,9.813-0.125,10.688s0.188,0.875,0.188,0.875s0.625-4.375,1.438-6.625s1.625-4.375,2.688-5.938
		s3.75-5.063,5.313-6.5s4.563-3.813,5.75-5.188s3.125-4.063,3.688-5.188s1.25-3.375,1.438-4.813S90.372,66.916,90.372,66.916z"/>
	<path fill="#050505" d="M100.747,71.041c0,0-3.438,2.188-5.688,4.313s-5.438,6.313-6.688,8.625s-2.563,6.063-3.063,8.75
		s-0.313,7.688-0.188,9.375s1,4.5,1,4.5s1.125-8.625,1.875-10.813s2.063-6.563,3.188-8.5s4-7.25,4.938-8.875
		S100.747,71.041,100.747,71.041z"/>
	<path fill="#050505" d="M110.56,72.479c0,0-3.938,5.438-4.688,7.563s-2.125,6.563-2.188,9.125s1.313,8.625,2.25,10.75
		s3.063,6.188,3.063,6.188s-1.188-6.938-1.313-9.625s-0.25-4.625-0.063-6.25s0.75-6.688,1.188-8.75S110.56,72.479,110.56,72.479z"/>
	<path fill="#050505" d="M119.122,73.729c0,0,0,15.313-0.125,19.813s-0.875,22-0.875,22s2.813-7.5,3.438-10.813
		s1.375-11.813,1.25-14s-1.188-8.188-1.813-10.75S119.122,73.729,119.122,73.729z"/>
	<path fill="#050505" d="M133.56,76.166c0,0-0.563,13.813-0.563,17.063s-0.625,16.125-0.688,17.188s-0.813,5.688-0.75,5.5
		s3.188-7.5,3.875-9.313s1.688-8.188,1.938-9.438s0.5-6.063,0.313-7.938S133.56,76.166,133.56,76.166z"/>
	<path fill="#050505" d="M146.622,78.791c0,0,0.063,8.063-0.188,11.563s-1.438,12.438-1.688,14s-1.875,9.063-1.875,9.063
		l0.875,0.188c0,0,1.125-1.438,1.938-3.563s3.125-9.313,3.375-11.313s0.5-7.75,0.438-9.375s-1.313-6.313-1.563-7.125
		S146.622,78.791,146.622,78.791z"/>
	<path fill="#050505" d="M157.81,77.666c0,0,0.063,9.063-0.125,12.875s-1.875,14.313-2.25,16.875s-2.625,11.75-2.625,11.75
		s5.813-11.188,6.188-12.375s1.75-6.563,1.875-8.125s0.563-9.688,0.375-10.938S157.81,77.666,157.81,77.666z"/>
	<path fill="#050505" d="M176.372,76.541c0,0.25-3.188,10.75-4.313,14s-4.875,13.313-5.813,15.813s-4.5,8.625-5.25,10.188
		s-2.813,4.688-2.813,4.688s5.125-3.875,7.875-7.438s6-9.188,6.875-11.625s2.563-8.813,2.75-10.125s0.5-3.313,0.75-5.313
		S176.372,76.541,176.372,76.541z"/>
	<path fill="#050505" d="M193.122,92.229c0,0,0.25,1.938,0.313,3.938s0.5,4.625,0.5,4.625s0.688-3.188,0.625-4.063
		S193.122,92.229,193.122,92.229z"/>
	<path fill="#050505" d="M199.372,103.916c0,0-1.25,3.25-1.375,4.125s0.25,4.375,0.25,4.375s0.875-2.563,1-3.25
		S199.372,103.916,199.372,103.916z"/>
	<path fill="#050505" d="M201.435,115.354c0,0-0.5,4-0.5,4.938s0,2.938,0,2.938s1.063-2.625,1.063-3.063
		S201.435,115.354,201.435,115.354z"/>
	<path fill="#050505" d="M206.122,125.291c0,0-0.188,0.875-0.25,2.563s0.688,5.063,0.688,5.063s0.313-3.75,0.313-4.25
		S206.122,125.291,206.122,125.291z"/>
	<path fill="#050505" d="M213.06,132.979c0,0-0.438,2.313-0.375,3.25s1.313,4,1.313,4L213.06,132.979z"/>
	<path fill="#050505" d="M221.247,137.916c0,0,2,2.875,3.563,3.625s4.625,1.813,4.625,1.813s-2.875-2.25-3.063-2.25
		S221.247,137.916,221.247,137.916z"/>
	<path fill="#050505" d="M232.247,139.854c0,0,1.875,1.5,3.375,2.125s4.563,1.188,5.25,1.188s1.063-0.188,1.063-0.188
		s-6.188-2.125-6.813-2.25s-2.625-1-2.625-1"/>
	<path fill="#050505" d="M241.935,136.416c0,0,3.25,0.875,4.375,0.875s4.25-0.563,4.25-0.563L241.935,136.416z"/>
	<path fill="#050505" d="M248.185,129.791c0,0,2.625,0.813,3.563,0.688s2-0.875,2-0.875L248.185,129.791z"/>
	<path fill="#050505" d="M246.372,114.854l1.063,2.75l1-5.938l1.938,5.375l0.188-8.938l2.438,9.5l0.75-4.875
		c0,0-0.688-7.688-0.875-8.188s-1.375-3.375-1.688-3.688s-1.875-1.375-2.25-1.375s-2.313,0-2.5,0.063s-1.5,1.5-1.5,1.5l-0.25,2.375
		L246.372,114.854z"/>
	<path fill="#050505" d="M37.789,73.416"/>
	<path fill="#050505" d="M38.456,73.583c0,0-1.5,0.417-1.583,1.25s-0.25,2.167-0.25,2.917s-0.702,1.089,0.833,2.167
		s3.583,3.332,3.667,0.416c0.083-2.917-1.167-6.25-2.25-6.917"/>
	<path fill="#050505" d="M93.122,170.791c0,0,0-3.125,0.25-4.188s1-2.563,1.625-3.25s1.688-1.063,1.688-1.063
		s-1.688,2.563-2.188,3.938s-0.5,4.563-0.5,4.563"/>
	<path fill="#050505" d="M107.935,163.604c0,0-2.563,1.938-3.688,3.313s-1.5,2.875-1.563,3.688s0,1.313,0,1.313l0.938-0.063
		c0,0-0.125-1.188,0-1.813s0.625-2.063,1.125-2.688S107.935,163.604,107.935,163.604z"/>
	<polyline fill="#050505" points="99.956,170.293 100.643,170.249 100.643,170.975 99.935,171.041 	"/>
	<path fill="#050505" d="M107.81,171.572c0,0-0.156-1.969,0.219-2.844s1.188-2.063,1.75-2.563s3.063-1.969,3.063-1.969
		s-2.563,2.469-2.938,2.938s-0.844,1.219-0.969,1.594s-0.281,1.313-0.281,1.688s0.094,1.313,0.094,1.313"/>
	<path fill="#050505" d="M149.966,168.697c0-0.188-0.438-4.656,0.344-5.656s4.813-3.188,4.813-3.188s-4.156,3.188-4.313,3.688
		s-0.156,5.25-0.156,5.25"/>
	<path fill="#050505" d="M183.747,170.229c0,0-0.063-3.375,0-4.125s0.719-1.594,1.281-2.188s1.813-1.094,2.25-1.219
		s1.219-0.188,1.219-0.188s-2.531,1.438-2.844,1.781s-0.719,0.969-0.938,1.688s-0.219,1.219-0.25,1.813s0.063,2.781,0.063,2.781"/>
	<path fill="#050505" d="M187.935,170.916c0-0.094-0.031-5.344,0.469-5.938s2.313-1.344,2.969-1.5s-1.906,0.969-2.281,1.844
		s-0.469,6.25-0.469,6.25"/>
	<path fill="#050505" d="M40.456,73.416c0,0-2.417-3.5-3.333-4.167s-3.333-2.833-3.333-2.833s2.25,3.333,2.583,4.583
		s0.75,2.167,0.583,3.417s4.5,0.834,4.333,1.917s0.417,2.25,0.167,3.333l-0.917-1.75c0,0-1.583-3.25-1.333-3.333
		s1.667-0.833,1.667-0.833l-2-0.667l2.5,2.25l-0.583,0.917l-1.833-2.333"/>
	<path fill="#050505" d="M37.622,71.833l3.75,2.667c0,0-1.25,1.833-1.5,2s-2.5-4.333-2.5-4.333"/>
</g>
<g id="frame_4">
</g>
</svg>
