<?xml version="1.0" encoding="utf-8"?>
<!-- Generator: Adobe Illustrator 13.0.0, SVG Export Plug-In . SVG Version: 6.00 Build 14948)  -->
<!DOCTYPE svg PUBLIC "-//W3C//DTD SVG 1.1//EN" "http://www.w3.org/Graphics/SVG/1.1/DTD/svg11.dtd">
<svg version="1.1" xmlns="http://www.w3.org/2000/svg" xmlns:xlink="http://www.w3.org/1999/xlink" x="0px" y="0px"
	 width="218.825px" height="192.5px" viewBox="0 0 218.825 192.5" enable-background="new 0 0 218.825 192.5" xml:space="preserve">
<g id="frame_1">
	<ellipse fill="#FFFFFF" cx="79.459" cy="26.636" rx="10.5" ry="9.813"/>
	<ellipse fill="#FFFFFF" cx="64.428" cy="23.542" rx="10.156" ry="8.281"/>
	<path fill="#FFFFFF" d="M66.709,17.511c0.063-0.188,7.875-5.25,8.125-5.25s6.625-0.5,8.125-0.313s3.875,0.5,4.063,1.25
		s-2.938,6.063-3.125,6.75s-3.688,3.25-3.688,3.25l-8.313,11.688c0,0-4.625,7.25-4.5,7.813s0.625,3.438,0.5,4.375
		s-1.563,4.5-1.563,4.5l-1.438,1.375l-0.813,0.438l-5.063,1.125l-8.063-0.188l-3.188-0.375l-2.313-0.688l-2.188-0.438l-0.938-0.625
		l-0.75-0.375l-2.25-0.875l-2.5-1.75l-0.875-1.688l-0.75-3.125l0.125-1.313l0.75-1.375l1.125-0.813l1.875-0.438l1.5-0.188
		l1.938-1.375l6.875-4.375c0,0,6.938-3.5,7.125-3.563s1.625-0.75,1.625-0.75l5.938-5.438l3.125-7.25"/>
	<path fill="#FFFFFF" d="M85.146,56.136c-0.75,0.75-5.25,20.5-5.25,20.5s2.5,10.5,2.25,11.75s2.75,13.5,3,14.25s4.5,6.5,5,7.25
		s4,6.5,4.75,7s1.125,2.375,1.125,2.375l1.25,3.75l1.938,5.75l0.563,2.5l1.563,5.313l0.375,4.375l0.313,5.125l0.063,4.125
		l0.063,5.75l-0.75,6.438c0,0-0.875,5.875-0.938,6.063s-0.625,3.688-0.625,3.688l-0.438,3.375c0,0-0.563,1.813-0.625,2.063
		s-0.25,1.688-0.313,2.063s-0.563,2.25-0.563,2.25l-5.438,2l-0.563,1.375l-0.563,1.188l-0.688,0.938l-0.313,1.438
		c0,0,0.438,0.188,0.688,0.188s2.188,0.375,2.188,0.375h1.063l0.688,0.25l2.125,0.313c0,0,0.438-0.063,0.375,0.125
		s0.25,0.5,0.25,0.5s7.188-0.125,7.375-0.188s3.5-0.313,3.5-0.313l2.438-0.75l1.063-0.938l0.813-1.688v-1.5l-0.813-5.063
		l-0.563-6.875l-0.563-6.438l-0.625-9.125v-5.625l0.375-5.5l0.625-6.375l1.313-8l3.25-14.813c0,0,5.375-0.688,5.688-1.063
		s6.125-5.938,6.125-5.938s2.438-2.313,3.438-3.313s11.813-8.188,12.188-8.5s5.625-2.5,5.625-2.5s-0.875-4.25-1.313-4.688
		s-28-8.813-28-8.813l-12.125-11.688l-1.125-2.125l-1.563-1.688c0,0-1.563-2.438-1.563-2.625s-1.313-3.813-1.313-3.813l-1-2.625
		l-0.563-2.063l-0.313-1.75l-0.625-1.938c0,0-0.688-1.375-1.125-1.25s-6.125,1.5-6.563,1.625s-6.625,3.063-6.625,3.063"/>
	<path fill="#FFFFFF" d="M158.896,114.011c0,0,8.125,10.75,8.5,11s13.125,4.75,13.75,5.125s8.5,1.75,8.875,1.875
		s3.375,2.125,3.375,2.125s0,11.25-0.125,11.625s-1,12-1,12.75s0.5,9.625,0,9.875s-7,5.5-7,5.5l-2.5,2.25l-0.875,0.75l-1.625,2.813
		l-1.063,1.25l-1.063,0.938l-1.75,1.313l-2.438,1.563l-1.313,1.188l-0.625,1.375v1.625c0,0,0.313,0.688,0.5,0.688
		s1.813,0.125,1.813,0.125l0.5,0.188l-0.125,0.625c0,0,0.563,0.5,0.813,0.5s1.875-0.063,1.875-0.063l1,0.063l1.25,0.125l3.125,0.25
		c0,0,2.5-0.438,2.75-0.438s1.75-0.5,1.938-0.563s1.875-0.688,1.875-0.688l1.438-0.938l1.063-1.063l0.75-1.438l1.688-3.25
		l2.125-5.688l1.125-3.625l1.5-6.75l0.938-4.125l0.813-4.438l0.313-4.625l0.063-8.563l-0.563-7.5v-4.5l-0.875-7.375l-0.5-1.563
		l-1.5-0.25l-2.688-1.375l-2.438-1.875c0,0-2.313-1.5-2.688-1.5s-14.188-6-14.875-6.25s-11.938,0-11.625,0s-4.5,0.25-4.688,0.375"/>
	<path fill="#B2B2B2" d="M81.334,46.824l-0.375,2.75c0,0-0.063,4.25-0.188,4.438s-1.063,2.063-1.125,2.25s-0.625,2.5-0.625,2.5
		s-2.063,4.938-2.75,6.813s-2.438,9.188-2.75,10.688s-0.688,3.75-0.938,5.375s-0.5,3.938-0.438,6s0.063,2.75,0.313,4.625
		s0.688,4.688,1.375,6.375s2.063,4.688,3.875,7.5s3.375,4.75,4.125,5.75s0.875,2.125,0.875,2.125l0.813,3.688
		c0,0,1.25,5.188,2,7.063s1.313,3.563,2.063,6.313s1.5,5.5,1.75,7.25s0.625,6.625,0.625,8s0.188,5.188,0.063,7.25
		s-0.125,6.188-0.438,8.063s-0.813,4.75-1.25,6.625s-0.563,1.563-1.063,3.813s-0.688,2.75-1,4s-0.625,2.875-0.625,2.875
		l-2.813,1.188l-2.75,1.563l-1.313,1.75l-0.188,1.25l0.688,1c0,0,1.125,0.25,1.313,0.25s1.375,0.063,1.375,0.063l0.438-0.125
		l-0.438,0.5l3.188,0.063v0.5l2.813,0.188h2.188l0.5-0.125l0.938-2.188c0,0,1.5-1.313,3.063-1.75s3.063-0.938,3.063-0.938
		l1.625-7.688l0.563-3.813c0,0-1.875-8.438-1.75-10.875s-0.25-14.625-0.25-14.625s1.375-8.5,1.438-8.688s1.188-2.625,1.188-2.625
		l-2.188-8.188l-2.688-8.25l-2.563-8.563c0,0-0.938-0.875-2.438-3.688s-4.313-10.438-5.375-15.5s-0.625-11.5-0.5-14.813
		s0.875-8.875,2.313-12.313s3.563-6.188,5.625-7.188s3.313-1,4-1.063s3.313,0.063,3.313,0.063s-0.063-1.875-0.188-2.125
		s-0.5-1.813-0.5-1.813l-0.125-1.5l0.063-0.813v-1.5l-0.25-1.188c0,0-1.313-0.813-1.813-0.625s-1.5,0.063-2.063,0.125
		s-6.75,0.5-6.75,0.5l-6.5-0.938l-0.438,2"/>
	<path fill="#B2B2B2" d="M108.813,107.219c0,0-1.167,2.668-1.5,4.584s-0.666,5.75,0.667,7.833s2.5,3.583,2.5,3.583
		s-1.501,9.417-2.167,14.417s-1.249,9.334-1.416,14s-0.333,7,0.667,10.75s3.416,8.083,3.416,8.083s-0.332-7.583-0.416-7.833
		s-0.25-5.917-0.25-5.917s0.334-8.167,0.25-8.5s0.833-8.083,0.833-8.083s2.166-10.167,2.083-10.5s0.917-4.417,0.917-4.417
		l2.583-1.083l2.75-1.667c0,0,6.666-5.5,6.833-5.75s6.833-6,7.75-7s4.501-4.833,4.501-4.833l3.333-2.5l2.167-1.667l1.583-0.75
		l1.833-0.75l0.5-0.167l-0.25-2.583l0.167-2c0,0-1.501-0.667-5.417,2s-3.333,2.084-8.083,5.417s-11.083,9.5-13.75,11.333
		s-4.667,3-4.667,3"/>
	<path fill="#B2B2B2" d="M148.396,98.136l-0.167,3.666c0,0,0.334,4.75,1.167,6.667s3.583,5.666,5.083,7.583s4.5,5.167,4.5,5.167
		s-2-0.5-2.5-0.583s-6.751-2.583-7.167-2.75s-6.249-1.583-6.666-1.75s-2.084-1.749-2.334-1.833s5.834,7.084,12.167,10.25
		s8.416,3.834,9.083,4s4.417,0.333,4.417,0.333l2.917,0.583l2.666,1.583l2.667,1c0,0,0.583,2.751,1.083,6.334
		s0.751,6.999,0.751,11.333s0.415,7.001-0.001,10.334s-0.75,7.25-3.75,10.333s-5.166,4.333-6.916,5.083s-3.417,0.917-3.417,0.917
		l-1.5,3.333c0,0-3.999,1.666-4.666,2.583s-2.667,3.167-2.667,3.167l-0.25,1.333l1.333,0.334h1.25l-0.083,0.583l2.833,0.667
		l1.584,0.166c0,0-0.417,0.584,0.083,0.667s3.167,0.417,3.167,0.417l1.916-0.084l2-0.75l1.834-0.833l2.333-1l1.583-1.667
		l0.917-1.333c0,0,2.417-7,3-9.5s2.667-10.833,3.25-12.75s0.999-2.5,1.166-7.25s-0.084-12.832-0.25-13.916s-1.417-6.667-1.5-6.917
		s8,1,8,1s1.251,7.75,1.084,12.5s-0.333,7.999-0.75,10.333s-1.001,5.918-1.667,8.084s-1.166,3.834-1.916,5.25
		s-0.75,2.416-1.167,3.666s-1.333,2.5-1.333,2.5s2.249,0.666,4.666-0.75s5.5-3.75,6.667-6.583s2.75-6.917,2.75-10.5
		s0.082-11.083-0.834-17.833s-1.916-11.834-1.916-11.834s-7.333,0.668-10.75-0.166s-11.751-4.75-15.167-7.667
		s-7.583-8.334-7.583-8.334"/>
	<path fill="#B2B2B2" d="M153.771,123.762c0,0,5.208,6.083,5.458,6.333s5.042,0.667,5.792,0.875s3.709,0.042,3.917,0.125
		s0.5-0.209,0.625-0.292s0.166-0.916,0.083-1.041s-3-2.376-3.25-2.459s-10.166-2.958-10.333-2.958s-2.125-0.75-2.125-0.75"/>
	<path fill="#7C7C7C" d="M98.063,124.636c0,0-0.022,0.119-0.063,0.339c-0.352,1.904-2.082,11.37-2.604,16.078
		c-0.583,5.25-1.334,9.749-1,13.999s-0.083,5.168,0.917,7.834s4,8.666,4,8.666l0.75-0.75l-0.917-2.75l-0.916-5.833v-9.833v-7.334
		l0.083-3.416l1.083-4.917l1-2.583l-2.167-9.917"/>
	<path fill="#7C7C7C" d="M132.897,110.802c0,0,1.416,3.251,2.083,4.334s2.667,4.417,3.667,5.25s4.75,4.75,5.75,5.333
		s4.332,2.749,5.666,3.583s4.501,2.918,5.334,3.334s4.499,0.75,5.416,1s5.167,0.75,5.167,0.75l2.833,0.333
		c0,0,0.334,9.833,0.417,12.333s-0.083,5.084-0.333,6.834s-1.166,5.75-1.5,7.083s-0.416,3.333-1,4.833s-1.417,3.334-1.917,4.834
		s-2.5,5.5-2.5,5.5s3.667-0.751,4-0.834s2.917-1.25,4-2.583s3.917-4.916,4.667-7.833s1.166-8.417,1.083-11.417s0.333-9.833-0.167-13
		s-1-6.75-1-6.75l-0.5-2.083l-4.333-1.833c0,0-6.833-0.667-9.25-1.417s-6.667-3.25-8.167-4.25s-3.749-2.333-6.416-4.833"/>
	<path fill="#574C3F" d="M105.813,68.303c0,0-1.25,3.583-1.5,5.75s-1.167,7.167-0.5,12.083s1.667,7.167,3.417,10.5
		s5.166,6.667,8.583,7.167s3.916,0.166,8-1.584s5.334-2.75,8.834-4.5s6.667-3.5,8.667-3.583s6.583,0.167,6.583,0.167l0.416,4.083
		c0,0,0.334,1.25,1.834,4.667s3.916,6.583,6.333,9s4.666,4.5,9,6.083s6.167,2.75,13.25,2.917s13.583,0,13.583,0l-3.166-3.75
		l-1.917-2.334l-1.667-2.333l-1.833-3l-0.833-2.417l-1-2.5l-1.5-4.083l-0.667-2.166l-0.666-2.5l-0.584-2.084l-0.416-0.916
		l3.249,0.833l2.834,0.583l2.416,0.5l4.25,0.167l4.334,0.166h4.166l5.417-2l4.75-2.416l4.167-2.834l2.333-2.749l1.917-4.167
		l0.5-2.917l-0.25-4.417l-1.084-5.75l-1.25-3.75l-2-5l-2.25-3.75l-1.666-3.167l-2.334-2.833c0,0,0.918,4.583,1.334,6.333
		s1.25,4.5,1.25,4.5l0.25,2.75l0.5,3.25c0,0,0.25,2.5,0.25,2.75s0.083,3.25,0.083,3.25l-0.166,3.5l-0.917,2.667l-1.167,1.5
		l-0.833,1.25l-1,1.083l-1.167,1.25l-3.416,1.667l-3.084,0.333l-3.333,0.25l-5.75-0.333l-3.333-0.584l-3.917-1l-5.25-1.5
		l-2.167-1.416l-1.25-0.584l-1.25-4l-2-3.417l-3.083-3.667l-4.334-2.333l-3.666-1h-4.167l-4.166,0.417l-5.584,0.917l-5.75,1.25
		l-9.75,1.917l-7.75,1.5h-5.417h-2.666l-2.417-0.167l-3.333-0.75l-1.667-1.417L105.813,68.303z"/>
	<path fill="#574C3F" d="M63.646,15.553c0,0,1.667,0.417,2.333,0.667s2,1.25,2,1.25l0.5,0.25c0,0,0.75-0.417,2.25-1.667
		s2.749-1.833,5.083-2.333s5.584-0.417,6.667-0.25s1.667,0.417,1.667,0.417l-0.417,3.583l2.667,1.833l2,1.333
		c0,0,0.834,1.833,1,2.167s0.249,1.5,0.416,1.75s0.416,1.167,0.5,1.5s0.083,1.25,0,1.833s-0.417,1.417-0.5,1.667
		s-0.5,1.167-0.583,1.417s-0.75,1.25-0.75,1.25l-2.75,2.5l-2,0.833l-2.583,0.583l-2,0.167l-3.75-0.667l-1.584-0.75
		c0,0-1.166-0.833-1.416-1.083s-1.084-1-1.334-1.083s-1.083-1.167-1.083-1.167s-1.5,2-2.667,3.667s-1.167,3.25-1.25,5.5
		s0.333,4.333,0.333,5.75s0.583,2.25-0.417,3.75s-2.583,3.417-2.583,3.417l10.25-4.25c0,0,7.416-4.417,8.416-4.917
		s8.168-5.667,8.834-6.167s7.833-9.084,7.583-8.917s-1.334-1.5-1.417-2.083s2.75-5.333,2.75-5.333s2.084-0.083,2.417-0.25
		s1.583-0.833,1.583-0.833s1.918,0.667,3.084,1.167s6,0.917,6,0.917l1.916-0.167l4.667-0.25l2.583-0.25l2.5-0.333l2.75-0.667l3.25-1
		l1.167-0.5l-3.75-3.25l-3.5-2.583l-3.417-2.083l-4.25-2.5l-4.916-2.417l-3.5-1.417l-0.834-0.583l2.167-2l1.5-1.417l-4.667-0.583
		l-4.833-0.75h-7.5l-4.417,0.333L86.646,0.47l-4.167,1.417l-3.583,1.917l-2.167,2.083L74.896,7.72l-0.917,1.417l-3,1.333l-4.083,2.5
		L63.646,15.553z"/>
	<path fill="#3D352C" d="M98.396,18.074c0,0-1.563-1.25-1.875-1.5s-0.438-0.5-0.438-0.5s-2.063,8.313-4.313,12.313
		s-3.313,5.813-6.063,8.5s-7.938,7.563-11.063,9.875s-8.875,6.25-8.875,6.25s5.625-2.188,6.313-2.625s3.938-1.938,3.938-1.938
		l3.438-1.25l2-0.563l3.063,0.5c0,0,3.438,0.375,3.75,0.375s2.75,0.188,2.75,0.188s2.625,0,2.813,0s2.063-0.25,2.313-0.313
		s1.813-1.063,1.813-1.063l1.875-1.375l1.813-2.375l0.813-1.375l0.875-1.813l0.813-2l0.938-3.438l0.375-3.563l-0.063-3.438
		l-0.313-2.875l-0.563-1.563l-0.5-1.375l-0.125-0.438l-2-1.125l-1.688-0.625l-1.563-1L98.396,18.074z"/>
	<path fill="#3D352C" d="M134.917,108.969c0,0,1.688,3.75,4.625,5.938s5.5,4,7.938,4.938s4.625,1.188,6.375,1.313
		s4.813,0.125,4.813,0.125s-2.75-2.438-3.313-3.063s-3.75-4.875-3.75-4.875l-1.063-1.938l-0.813-1.625l-0.688-1.688l-0.688-2.688
		l-0.5-3.063l-0.063-1.188l-0.063-1l0.063-0.875l-1.313,0.188l-2.313,1.375l-2.063,1.25l-1.813,1.375l-1,1.25l-1.438,1.125
		l-2.063,1.813L134.917,108.969z"/>
	<ellipse fill="#20A0FF" cx="72.74" cy="26.761" rx="3.781" ry="3.75"/>
	<ellipse fill="#004774" cx="72.24" cy="26.574" rx="1.531" ry="1.5"/>
	<ellipse fill="#20A0FF" cx="58.021" cy="24.136" rx="3.125" ry="3"/>
	<ellipse fill="#004774" cx="57.74" cy="24.074" rx="1.094" ry="1.063"/>
	<ellipse fill="#FFFFFF" cx="74.084" cy="24.667" rx="1" ry="0.906"/>
	<ellipse fill="#FFFFFF" cx="70.553" cy="28.324" rx="0.719" ry="0.688"/>
	<ellipse fill="#FFFFFF" cx="59.209" cy="22.73" rx="0.813" ry="0.781"/>
	<ellipse fill="#FFFFFF" cx="56.553" cy="25.699" rx="0.656" ry="0.625"/>
	<path fill="none" stroke="#020202" stroke-width="0.75" d="M63.146,15.636c0,0,6.75-5.313,9.938-5.875s10.125-0.875,13.188-0.438
		s6.188,1,6.188,1s2.5-2.75,4.375-3.688s8-1.875,10.375-1.313s6.625,2.063,13.313,6.188s11.438,8.25,11.438,8.25
		s-6.75,2.125-8.375,2.375s-7.063,0.813-11.125,0.688s-6.688-1.25-7.563-1.5s-0.875-0.25-0.875-0.25s1.125,3.438,1.25,5.563
		s0.125,7.188-0.938,10.25s-2.5,5.625-4.125,7.5s-1.75,2.313-5,3.063s-3.938,0.438-6.563,0.313s-5.75-1-7.25-0.938
		s-3.063,0.625-6.063,2.063s-2.375,1.375-7.375,3.188s-6.625,2.313-10.375,2.5s-6.063,0.188-8.813-0.313s-5.188-1.25-5.938-1.688
		s-0.938-0.688-0.938-0.688"/>
	<path fill="none" stroke="#020202" stroke-width="0.75" d="M39.995,40.596c5.709-4.239,11.776-7.286,18.151-10.397"/>
	<path fill="none" stroke="#020202" stroke-width="0.75" d="M36.334,41.824c0,0-0.239,0.226-0.497,0.605
		c-0.317,0.466-0.663,1.165-0.628,1.958c0.063,1.438,0.438,3.875,2.375,5.25s3.563,2.563,5.813,2.063s3.875-1.125,5.75-2.75
		s3.063-2.688,3-4.5s-1.063-3-2.75-3.5s-9.938-0.375-10.938-0.313S36.896,41.449,36.334,41.824z"/>
	<path fill="#020202" d="M92.803,10.449c0,0-0.344,0.313-0.844,1.328s-0.5,1.016-0.5,1.016s0.125-2.266,1.156-3.016"/>
	<path fill="#020202" d="M104.303,21.636c0,0-3.406-1.531-5-2.875s-1.688-1.5-1.688-1.5s7.938,4,8.75,4.219"/>
	<path fill="#020202" d="M47.521,41.167c0,0-4.625,0.844-6.344,1.969s-2.375,1.875-2.094,3s0.219,0.594,1.375,2.156
		s3.094,3.406,3.094,3.406s4.219-1.656,4.875-2.094s3.688-3.969,3.719-4.75s-0.25-2.906-0.375-2.75S49.334,40.449,47.521,41.167z"/>
	<path fill="#020202" d="M36.881,40.917c0,0-0.703,0.484-0.969,0.781s0.141,0.328,0.141,0.328l0.547-0.391l0.563-0.766"/>
	<ellipse fill="none" stroke="#020202" stroke-width="0.75" cx="79.396" cy="26.595" rx="10.75" ry="9.708"/>
	<path fill="none" stroke="#020202" stroke-width="0.75" d="M68.73,23.898c0.007-0.038,0.028-0.061,0.04-0.094
		c0.257-1.128,0.942-2.146,1.824-2.95c-1.174-2.988-4.194-5.135-7.78-5.135c-4.603,0-8.333,3.507-8.333,7.833
		s3.731,7.833,8.333,7.833c2.387,0,4.524-0.958,6.043-2.473C68.316,27.322,68.474,25.197,68.73,23.898z"/>
	<path fill="none" stroke="#020202" stroke-width="0.75" d="M73.73,9.553c0,0,2.833-4.5,5.333-5.917s4.833-2.417,7.833-2.917
		s12.25-0.333,15.667-0.25s8.833,1.25,8.833,1.25l-4.188,3.604"/>
	<path fill="none" stroke="#020202" stroke-width="0.75" d="M81.063,46.97c0,0,0.084,6-1.083,8.833s-3.834,9.75-5.084,14.417
		s-2.75,13.584-2.583,18s0.416,8.917,2.833,13.75s6.251,9.999,10.334,13.666s10.083,7.334,11.083,7.834s1.333,0.666,1.333,0.666
		s0.563,1.875,1.188,4.688s2.063,5.563,2.563,11.063s0.563,14.5,0.188,18.938s-1.063,7.188-1.938,12.063s-2.125,11.188-2.125,11.188
		s-4.75,1.375-6,2.938s-1.625,4-1.625,4l3.813,0.125l-0.125,0.688h3.5v0.688c0,0,5.25-0.125,7.813-0.188s5.188-0.5,6.313-1.5
		s1.438-1.188,1.5-2.938s-0.688-4.875-0.875-6.938s-0.688-5.688-1-9.563s-0.813-11-0.75-15.125s0.188-6.188,0.688-11.063
		s0.938-6.625,1.75-11s2.063-9.313,2.5-11.813s1.063-4.813,1.063-4.813"/>
	<path fill="none" stroke="#020202" stroke-width="0.75" d="M114.146,125.469c0,0,4.25-1.582,7.25-4.166s5.916-5.251,9.833-9.001
		s7.668-7.499,10.334-9.666s4.249-3.083,5.166-3.25s1.25-0.167,1.25-0.167s-0.084,3.917,0.5,6.167s2.416,6.75,4.333,9.25
		s5.25,6.582,9.667,9.916s8.5,7,15.75,8.5s9.333,1.834,9.333,1.834s1,12.667,0.667,17.75s-2.083,13.167-4,17.75s-2.25,6.416-4,9.166
		s-3.001,3.168-4.667,4.334s-3.082,2.082-3.416,3.166s-0.25,2.084,0.25,2.417s2.416,0.417,2.416,0.417s-0.416,0.75-0.083,1.083
		s3.334,0.167,3.667,0.25s0.333,0.083,0.333,0.083s2.999,0.5,5.333,0.167s5.416-1.749,7.25-3.333s4.917-10.168,5.917-13.584
		s2.25-8.916,2.917-12.333s0.834-8.084,0.917-12.25s-0.417-13.834-0.667-17.417s-1.25-8-1.25-8s-3.668-0.583-6.584-3.583
		s-6.5-6.666-8.5-11.083s-3.499-8.333-4.499-11.5s-1.667-6.5-2.584-10.25s-4.001-12.333-5.667-14.917s-4-5.25-8.083-6.333
		s-7.999-0.917-12.916-0.167s-11.25,2.167-17.417,3.417s-9.916,2.25-14.833,2s-8.333-0.167-11.5-3.167s-3.5-4.75-4.75-8.5
		s-1.833-6.833-2.25-9.583s-0.584-4.833-0.584-4.833"/>
	<path fill="none" stroke="#020202" stroke-width="0.75" d="M82.646,112.699c0,0,1.563,8.75,3.125,12.688s2.688,9.563,3.438,12.563
		s0.688,6.75,0.75,10.875s0.125,7.375-0.375,12.125s-0.813,4.875-1.75,9.438s-2.375,8.625-2.375,8.625s-3.625,1.375-4.813,2.375
		s-1.688,2.125-1.813,2.75s-0.125,0.625-0.125,0.625s0.375,1,1.063,1.063s2.625,0.125,2.625,0.125l-0.438,0.5l3.563,0.063
		l-0.438,0.625h5.625"/>
	<path fill="none" stroke="#020202" stroke-width="0.75" d="M99.896,170.886c0,0-1.625-5.188-1.688-9.688s0.063-13.625,0.063-16.563
		s0.188-2.813,0.813-6.25s1.375-4.438,1.375-4.438"/>
	<path fill="none" stroke="#020202" stroke-width="0.75" d="M132.813,110.969c0,0,3.001,6.999,7.334,11.083
		s13.25,10.084,17.25,11.167s11.25,1.583,11.25,1.583s0.584,14.5,0.25,17.75s-1.834,11.083-3.167,14.75s-3.332,7.917-4.166,9.917
		s-1.084,2.584-1.084,2.584s-3.416,1.166-4.416,2.166s-2.918,3.416-3.084,4s0.167,1.25,0.167,1.25l2.583,0.084l-0.083,0.666
		c0,0,2.75,0.667,3.25,0.667s0.833,0,0.833,0l-0.166,0.667c0,0,4.834,0.417,6,0s3.332-1.084,4.916-2.167s2.584-1.916,3.167-3.083
		s1.333-2.834,2.833-8.834s3.834-14.499,4.167-16.666s0.249-12.75,0.333-16.167s-1.583-8.917-1.583-8.917"/>
	<path fill="none" stroke="#020202" stroke-width="0.75" d="M174.396,80.636c0,0,7,3.625,14.25,4.5s13.75,1.5,17.75-2
		s5.625-7.625,4.625-15.875s-3.625-18-3.625-18s7,9.125,9.125,17.25s3.25,16-2.125,20.625s-10.875,7.75-16.5,8.125
		s-16.125-1.25-17.125-1.5s-2.625-0.75-2.625-0.75"/>
	<path fill="#020202" d="M148.303,99.199c0,0-0.188-7.719,0.344-9.938s0.688-2.625,0.688-2.625s-1.469,3.188-1.625,5.5
		s-0.156,7.5-0.156,7.5"/>
	<polyline fill="#020202" points="98.146,123.97 90.354,100.428 97.521,124.345 	"/>
	<path fill="#020202" d="M116.646,115.678c0,0-2.583-2.209-4.25-4s-3.543-4.542-3.834-6s-0.291-3.375-0.291-3.375
		s-1.084,3.125,0.208,5.25s6.291,7.834,6.833,8.459s0.542,0.625,0.542,0.625"/>
	<path fill="#050505" d="M81.772,186.304c0.084-0.167,0.876-2.584,2.334-3.709s1.625-1.208,1.625-1.208s-3.042,4.708-3.167,4.958"/>
	<path fill="#050505" d="M85.231,186.22c0,0,1.75-3.041,2.75-3.958s1-0.917,1-0.917l-3.375,5.792"/>
	<path fill="#050505" d="M93.689,189.012c0,0,0.458-1.584,1.458-2.834s1.375-1.416,1.375-1.416s-2.334,4.625-2.417,5"/>
	<path fill="#050505" d="M97.189,189.762c0,0,0.959-3.126,1.875-4.084s1.166-1.166,1.166-1.166l-2.333,6"/>
	<path fill="#020202" d="M155.438,187.179c0,0,0.25-1.938,0.958-2.979s1.917-1.792,1.917-1.792s-2.126,4.626-2.209,5.084
		s-0.166,0.521-0.166,0.521"/>
	<path fill="#020202" d="M159.334,188.554c-0.021-0.063,0.604-3.666,1.625-4.625s1.521-1.042,1.521-1.042s-1.146,1.396-1.708,2.667
		s-0.625,3.438-0.625,3.438"/>
	<path fill="#020202" d="M174.646,189.742c0,0-0.042-1.958,1.333-3.313s1.375-1.354,1.375-1.354s-2.583,5.374-2.396,5.771"/>
	<path fill="#020202" d="M178.459,191.117c0,0-0.209-3.146,0.604-4.313s2.5-2.375,2.5-2.375s-1.167,1.688-1.688,2.625
		s-0.791,2.604-0.833,3.313s0,0.854,0,0.854"/>
</g>
<g id="frame_2">
	<path fill="#FFFFFF" d="M147.646,91.386c-0.438-0.438-28-8.813-28-8.813l-12.125-11.688l-1.125-2.125l-1.563-1.688
		c0,0-1.236-1.929-1.508-2.484c-0.999-1.13-1.89-2.352-2.561-3.708c-0.07-0.142-0.086-0.274-0.081-0.398
		c-0.102-0.162-0.197-0.327-0.294-0.491c-0.125-0.025-0.246-0.075-0.344-0.172c-0.069-0.069-0.14-0.139-0.209-0.208
		c-0.184-0.183-0.231-0.392-0.201-0.588c-0.92-1.887-2.704-3.215-4.09-4.746c-0.143-0.157-0.19-0.331-0.188-0.499
		c-0.126-0.094-0.246-0.196-0.373-0.287c-0.53-0.377-1.07-0.762-1.434-1.302c-0.913,0.224-1.637,0.403-1.781,0.445
		c-0.438,0.125-6.625,3.063-6.625,3.063v0.438c-0.75,0.75-5.25,20.5-5.25,20.5s2.5,10.5,2.25,11.75s2.75,13.5,3,14.25
		s4.5,6.5,5,7.25s4,6.5,4.75,7s1.125,2.375,1.125,2.375l1.25,3.75l1.938,5.75l0.563,2.5l1.563,5.313l0.375,4.375l0.313,5.125
		l0.063,4.125l0.063,5.75l-0.75,6.438c0,0-0.875,5.875-0.938,6.063s-0.625,3.688-0.625,3.688l-0.438,3.375
		c0,0-0.563,1.813-0.625,2.063s-0.25,1.688-0.313,2.063s-0.563,2.25-0.563,2.25l-5.438,2l-0.563,1.375l-0.563,1.188l-0.688,0.938
		l-0.313,1.438c0,0,0.438,0.188,0.688,0.188s2.188,0.375,2.188,0.375h1.063l0.688,0.25l2.125,0.313c0,0,0.438-0.063,0.375,0.125
		s0.25,0.5,0.25,0.5s7.188-0.125,7.375-0.188s3.5-0.313,3.5-0.313l2.438-0.75l1.063-0.938l0.813-1.688v-1.5l-0.813-5.063
		l-0.563-6.875l-0.563-6.438l-0.625-9.125v-5.625l0.375-5.5l0.625-6.375l1.313-8l3.25-14.813c0,0,5.375-0.688,5.688-1.063
		s6.125-5.938,6.125-5.938s2.438-2.313,3.438-3.313s11.813-8.188,12.188-8.5s5.625-2.5,5.625-2.5S148.084,91.824,147.646,91.386z"/>
	<path fill="#FFFFFF" d="M158.896,114.011c0,0,8.125,10.75,8.5,11s13.125,4.75,13.75,5.125s8.5,1.75,8.875,1.875
		s3.375,2.125,3.375,2.125s0,11.25-0.125,11.625s-1,12-1,12.75s0.5,9.625,0,9.875s-7,5.5-7,5.5l-2.5,2.25l-0.875,0.75l-1.625,2.813
		l-1.063,1.25l-1.063,0.938l-1.75,1.313l-2.438,1.563l-1.313,1.188l-0.625,1.375v1.625c0,0,0.313,0.688,0.5,0.688
		s1.813,0.125,1.813,0.125l0.5,0.188l-0.125,0.625c0,0,0.563,0.5,0.813,0.5s1.875-0.063,1.875-0.063l1,0.063l1.25,0.125l3.125,0.25
		c0,0,2.5-0.438,2.75-0.438s1.75-0.5,1.938-0.563s1.875-0.688,1.875-0.688l1.438-0.938l1.063-1.063l0.75-1.438l1.688-3.25
		l2.125-5.688l1.125-3.625l1.5-6.75l0.938-4.125l0.813-4.438l0.313-4.625l0.063-8.563l-0.563-7.5v-4.5l-0.875-7.375l-0.5-1.563
		l-1.5-0.25l-2.688-1.375l-2.438-1.875c0,0-2.313-1.5-2.688-1.5s-14.188-6-14.875-6.25s-11.938,0-11.625,0s-4.5,0.25-4.688,0.375"/>
	<path fill="#B2B2B2" d="M98.146,159.761c0.125-2.438-0.25-14.625-0.25-14.625s1.375-8.5,1.438-8.688s1.188-2.625,1.188-2.625
		l-2.188-8.188l-2.688-8.25l-2.563-8.563c0,0-0.938-0.875-2.438-3.688s-4.313-10.438-5.375-15.5s-0.625-11.5-0.5-14.813
		c0.077-2.046,0.395-4.95,0.964-7.682c-1.229-1.407-2.475-2.799-3.723-4.189c-1.085-1.208-2.092-2.543-3.153-3.802
		c-0.496,1.192-2.016,4.863-2.588,6.423c-0.688,1.875-2.438,9.188-2.75,10.688s-0.688,3.75-0.938,5.375s-0.5,3.938-0.438,6
		s0.063,2.75,0.313,4.625s0.688,4.688,1.375,6.375s2.063,4.688,3.875,7.5s3.375,4.75,4.125,5.75s0.875,2.125,0.875,2.125
		l0.813,3.688c0,0,1.25,5.188,2,7.063s1.313,3.563,2.063,6.313s1.5,5.5,1.75,7.25s0.625,6.625,0.625,8s0.188,5.188,0.063,7.25
		s-0.125,6.188-0.438,8.063s-0.813,4.75-1.25,6.625s-0.563,1.563-1.063,3.813s-0.688,2.75-1,4s-0.625,2.875-0.625,2.875
		l-2.813,1.188l-2.75,1.563l-1.313,1.75l-0.188,1.25l0.688,1c0,0,1.125,0.25,1.313,0.25s1.375,0.063,1.375,0.063l0.438-0.125
		l-0.438,0.5l3.188,0.063v0.5l2.813,0.188h2.188l0.5-0.125l0.938-2.188c0,0,1.5-1.313,3.063-1.75s3.063-0.938,3.063-0.938
		l1.625-7.688l0.563-3.813C99.896,170.636,98.021,162.199,98.146,159.761z"/>
	<path fill="#B2B2B2" d="M108.813,107.219c0,0-1.167,2.668-1.5,4.584s-0.666,5.75,0.667,7.833s2.5,3.583,2.5,3.583
		s-1.501,9.417-2.167,14.417s-1.249,9.334-1.416,14s-0.333,7,0.667,10.75s3.416,8.083,3.416,8.083s-0.332-7.583-0.416-7.833
		s-0.25-5.917-0.25-5.917s0.334-8.167,0.25-8.5s0.833-8.083,0.833-8.083s2.166-10.167,2.083-10.5s0.917-4.417,0.917-4.417
		l2.583-1.083l2.75-1.667c0,0,6.666-5.5,6.833-5.75s6.833-6,7.75-7s4.501-4.833,4.501-4.833l3.333-2.5l2.167-1.667l1.583-0.75
		l1.833-0.75l0.5-0.167l-0.25-2.583l0.167-2c0,0-1.501-0.667-5.417,2s-3.333,2.084-8.083,5.417s-11.083,9.5-13.75,11.333
		s-4.667,3-4.667,3"/>
	<path fill="#B2B2B2" d="M148.396,98.136l-0.167,3.666c0,0,0.334,4.75,1.167,6.667s3.583,5.666,5.083,7.583s4.5,5.167,4.5,5.167
		s-2-0.5-2.5-0.583s-6.751-2.583-7.167-2.75s-6.249-1.583-6.666-1.75s-2.084-1.749-2.334-1.833s5.834,7.084,12.167,10.25
		s8.416,3.834,9.083,4s4.417,0.333,4.417,0.333l2.917,0.583l2.666,1.583l2.667,1c0,0,0.583,2.751,1.083,6.334
		s0.751,6.999,0.751,11.333s0.415,7.001-0.001,10.334s-0.75,7.25-3.75,10.333s-5.166,4.333-6.916,5.083s-3.417,0.917-3.417,0.917
		l-1.5,3.333c0,0-3.999,1.666-4.666,2.583s-2.667,3.167-2.667,3.167l-0.25,1.333l1.333,0.334h1.25l-0.083,0.583l2.833,0.667
		l1.584,0.166c0,0-0.417,0.584,0.083,0.667s3.167,0.417,3.167,0.417l1.916-0.084l2-0.75l1.834-0.833l2.333-1l1.583-1.667
		l0.917-1.333c0,0,2.417-7,3-9.5s2.667-10.833,3.25-12.75s0.999-2.5,1.166-7.25s-0.084-12.832-0.25-13.916s-1.417-6.667-1.5-6.917
		s8,1,8,1s1.251,7.75,1.084,12.5s-0.333,7.999-0.75,10.333s-1.001,5.918-1.667,8.084s-1.166,3.834-1.916,5.25
		s-0.75,2.416-1.167,3.666s-1.333,2.5-1.333,2.5s2.249,0.666,4.666-0.75s5.5-3.75,6.667-6.583s2.75-6.917,2.75-10.5
		s0.082-11.083-0.834-17.833s-1.916-11.834-1.916-11.834s-7.333,0.668-10.75-0.166s-11.751-4.75-15.167-7.667
		s-7.583-8.334-7.583-8.334"/>
	<path fill="#B2B2B2" d="M153.771,123.762c0,0,5.208,6.083,5.458,6.333s5.042,0.667,5.792,0.875s3.709,0.042,3.917,0.125
		s0.5-0.209,0.625-0.292s0.166-0.916,0.083-1.041s-3-2.376-3.25-2.459s-10.166-2.958-10.333-2.958s-2.125-0.75-2.125-0.75"/>
	<path fill="#7C7C7C" d="M98.063,124.636c0,0-0.022,0.119-0.063,0.339c-0.352,1.904-2.082,11.37-2.604,16.078
		c-0.583,5.25-1.334,9.749-1,13.999s-0.083,5.168,0.917,7.834s4,8.666,4,8.666l0.75-0.75l-0.917-2.75l-0.916-5.833v-9.833v-7.334
		l0.083-3.416l1.083-4.917l1-2.583l-2.167-9.917"/>
	<path fill="#7C7C7C" d="M132.897,110.802c0,0,1.416,3.251,2.083,4.334s2.667,4.417,3.667,5.25s4.75,4.75,5.75,5.333
		s4.332,2.749,5.666,3.583s4.501,2.918,5.334,3.334s4.499,0.75,5.416,1s5.167,0.75,5.167,0.75l2.833,0.333
		c0,0,0.334,9.833,0.417,12.333s-0.083,5.084-0.333,6.834s-1.166,5.75-1.5,7.083s-0.416,3.333-1,4.833s-1.417,3.334-1.917,4.834
		s-2.5,5.5-2.5,5.5s3.667-0.751,4-0.834s2.917-1.25,4-2.583s3.917-4.916,4.667-7.833s1.166-8.417,1.083-11.417s0.333-9.833-0.167-13
		s-1-6.75-1-6.75l-0.5-2.083l-4.333-1.833c0,0-6.833-0.667-9.25-1.417s-6.667-3.25-8.167-4.25s-3.749-2.333-6.416-4.833"/>
	<path fill="#574C3F" d="M105.813,68.303c0,0-1.25,3.583-1.5,5.75s-1.167,7.167-0.5,12.083s1.667,7.167,3.417,10.5
		s5.166,6.667,8.583,7.167s3.916,0.166,8-1.584s5.334-2.75,8.834-4.5s6.667-3.5,8.667-3.583s6.583,0.167,6.583,0.167l0.416,4.083
		c0,0,0.334,1.25,1.834,4.667s3.916,6.583,6.333,9s4.666,4.5,9,6.083s6.167,2.75,13.25,2.917s13.583,0,13.583,0l-3.166-3.75
		l-1.917-2.334l-1.667-2.333l-1.833-3l-0.833-2.417l-1-2.5l-1.5-4.083l-0.667-2.166l-0.666-2.5l-0.584-2.084l-0.416-0.916
		l3.249,0.833l2.834,0.583l2.416,0.5l4.25,0.167l4.334,0.166h4.166l5.417-2l4.75-2.416l4.167-2.834l2.333-2.749l1.917-4.167
		l0.5-2.917l-0.25-4.417l-1.084-5.75l-1.25-3.75l-2-5l-2.25-3.75l-1.666-3.167l-2.334-2.833c0,0,0.918,4.583,1.334,6.333
		s1.25,4.5,1.25,4.5l0.25,2.75l0.5,3.25c0,0,0.25,2.5,0.25,2.75s0.083,3.25,0.083,3.25l-0.166,3.5l-0.917,2.667l-1.167,1.5
		l-0.833,1.25l-1,1.083l-1.167,1.25l-3.416,1.667l-3.084,0.333l-3.333,0.25l-5.75-0.333l-3.333-0.584l-3.917-1l-5.25-1.5
		l-2.167-1.417l-1.25-0.583l-1.25-4l-2-3.417l-3.083-3.667l-4.334-2.333l-3.666-1h-4.167l-4.166,0.417l-5.584,0.917l-5.75,1.25
		l-9.75,1.917l-7.75,1.5h-5.417h-2.666l-2.417-0.167l-3.333-0.75l-1.667-1.417L105.813,68.303z"/>
	<path fill="#3D352C" d="M134.917,108.969c0,0,1.688,3.75,4.625,5.938s5.5,4,7.938,4.938s4.625,1.188,6.375,1.313
		s4.813,0.125,4.813,0.125s-2.75-2.438-3.313-3.063s-3.75-4.875-3.75-4.875l-1.063-1.938l-0.813-1.625l-0.688-1.688l-0.688-2.688
		l-0.5-3.063l-0.063-1.188l-0.063-1l0.063-0.875l-1.313,0.188l-2.313,1.375l-2.063,1.25l-1.813,1.375l-1,1.25l-1.438,1.125
		l-2.063,1.813L134.917,108.969z"/>
	<path fill="none" stroke="#020202" stroke-width="0.75" d="M79.98,55.803"/>
	<path fill="none" stroke="#020202" stroke-width="0.75" d="M116.334,115.574c0,0-0.625,2.313-1.063,4.813s-1.688,7.438-2.5,11.813
		s-1.25,6.125-1.75,11s-0.625,6.938-0.688,11.063s0.438,11.25,0.75,15.125s0.813,7.5,1,9.563s0.938,5.188,0.875,6.938
		s-0.375,1.938-1.5,2.938s-3.75,1.438-6.313,1.5s-7.813,0.188-7.813,0.188v-0.688h-3.5l0.125-0.688l-3.813-0.125
		c0,0,0.375-2.438,1.625-4s6-2.938,6-2.938s1.25-6.313,2.125-11.188s1.563-7.625,1.938-12.063s0.313-13.438-0.188-18.938
		s-1.938-8.25-2.563-11.063s-1.188-4.688-1.188-4.688s-0.333-0.166-1.333-0.666s-7-4.167-11.083-7.834s-7.917-8.833-10.334-13.666
		s-2.666-9.334-2.833-13.75s1.08-13.409,2.583-18"/>
	<path fill="none" stroke="#020202" stroke-width="0.75" d="M65.022,60.303"/>
	<path fill="none" stroke="#020202" stroke-width="0.75" d="M114.146,125.469c0,0,4.25-1.582,7.25-4.166s5.916-5.251,9.833-9.001
		s7.668-7.499,10.334-9.666s4.249-3.083,5.166-3.25s1.25-0.167,1.25-0.167s-0.084,3.917,0.5,6.167s2.416,6.75,4.333,9.25
		s5.25,6.582,9.667,9.916s8.5,7,15.75,8.5s9.333,1.834,9.333,1.834s1,12.667,0.667,17.75s-2.083,13.167-4,17.75s-2.25,6.416-4,9.166
		s-3.001,3.168-4.667,4.334s-3.082,2.082-3.416,3.166s-0.25,2.084,0.25,2.417s2.416,0.417,2.416,0.417s-0.416,0.75-0.083,1.083
		s3.334,0.167,3.667,0.25s0.333,0.083,0.333,0.083s2.999,0.5,5.333,0.167s5.416-1.749,7.25-3.333s4.917-10.168,5.917-13.584
		s2.25-8.916,2.917-12.333s0.834-8.084,0.917-12.25s-0.417-13.834-0.667-17.417s-1.25-8-1.25-8s-3.668-0.583-6.584-3.583
		s-6.5-6.666-8.5-11.083s-3.499-8.333-4.499-11.5s-1.667-6.5-2.584-10.25s-4.001-12.333-5.667-14.917s-4-5.25-8.083-6.333
		s-7.999-0.917-12.916-0.167s-11.25,2.167-17.417,3.417s-9.916,2.25-14.833,2s-8.333-0.167-11.5-3.167s-4.019-5.419-6.333-8.625
		c-2.708-3.75-4.291-5.792-6.416-7.708c-2.611-2.355-3.792-3.125-3.792-3.125"/>
	<path fill="none" stroke="#020202" stroke-width="0.75" d="M82.646,112.699c0,0,1.563,8.75,3.125,12.688s2.688,9.563,3.438,12.563
		s0.688,6.75,0.75,10.875s0.125,7.375-0.375,12.125s-0.813,4.875-1.75,9.438s-2.375,8.625-2.375,8.625s-3.625,1.375-4.813,2.375
		s-1.688,2.125-1.813,2.75s-0.125,0.625-0.125,0.625s0.375,1,1.063,1.063s2.625,0.125,2.625,0.125l-0.438,0.5l3.563,0.063
		l-0.438,0.625h5.625"/>
	<path fill="none" stroke="#020202" stroke-width="0.75" d="M99.896,170.886c0,0-1.625-5.188-1.688-9.688s0.063-13.625,0.063-16.563
		s0.188-2.813,0.813-6.25s1.375-4.438,1.375-4.438"/>
	<path fill="none" stroke="#020202" stroke-width="0.75" d="M132.813,110.969c0,0,3.001,6.999,7.334,11.083
		s13.25,10.084,17.25,11.167s11.25,1.583,11.25,1.583s0.584,14.5,0.25,17.75s-1.834,11.083-3.167,14.75s-3.332,7.917-4.166,9.917
		s-1.084,2.584-1.084,2.584s-3.416,1.166-4.416,2.166s-2.918,3.416-3.084,4s0.167,1.25,0.167,1.25l2.583,0.084l-0.083,0.666
		c0,0,2.75,0.667,3.25,0.667s0.833,0,0.833,0l-0.166,0.667c0,0,4.834,0.417,6,0s3.332-1.084,4.916-2.167s2.584-1.916,3.167-3.083
		s1.333-2.834,2.833-8.834s3.834-14.499,4.167-16.666s0.249-12.75,0.333-16.167s-1.583-8.917-1.583-8.917"/>
	<path fill="none" stroke="#020202" stroke-width="0.75" d="M174.396,80.636c0,0,7,3.625,14.25,4.5s13.75,1.5,17.75-2
		s5.625-7.625,4.625-15.875s-3.625-18-3.625-18s7,9.125,9.125,17.25s3.25,16-2.125,20.625s-10.875,7.75-16.5,8.125
		s-16.125-1.25-17.125-1.5s-2.625-0.75-2.625-0.75"/>
	<path fill="#020202" d="M148.303,99.199c0,0-0.188-7.719,0.344-9.938s0.688-2.625,0.688-2.625s-1.469,3.188-1.625,5.5
		s-0.156,7.5-0.156,7.5"/>
	<polyline fill="#020202" points="98.146,123.97 90.354,100.428 97.521,124.345 	"/>
	<path fill="#020202" d="M116.646,115.678c0,0-2.583-2.209-4.25-4s-3.543-4.542-3.834-6s-0.291-3.375-0.291-3.375
		s-1.084,3.125,0.208,5.25s6.291,7.834,6.833,8.459s0.542,0.625,0.542,0.625"/>
	<path fill="#050505" d="M81.772,186.304c0.084-0.167,0.876-2.584,2.334-3.709s1.625-1.208,1.625-1.208s-3.042,4.708-3.167,4.958"/>
	<path fill="#050505" d="M85.231,186.22c0,0,1.75-3.041,2.75-3.958s1-0.917,1-0.917l-3.375,5.792"/>
	<path fill="#050505" d="M93.689,189.012c0,0,0.458-1.584,1.458-2.834s1.375-1.416,1.375-1.416s-2.334,4.625-2.417,5"/>
	<path fill="#050505" d="M97.189,189.762c0,0,0.959-3.126,1.875-4.084s1.166-1.166,1.166-1.166l-2.333,6"/>
	<path fill="#020202" d="M155.438,187.179c0,0,0.25-1.938,0.958-2.979s1.917-1.792,1.917-1.792s-2.126,4.626-2.209,5.084
		s-0.166,0.521-0.166,0.521"/>
	<path fill="#020202" d="M159.334,188.554c-0.021-0.063,0.604-3.666,1.625-4.625s1.521-1.042,1.521-1.042s-1.146,1.396-1.708,2.667
		s-0.625,3.438-0.625,3.438"/>
	<path fill="#020202" d="M174.646,189.742c0,0-0.042-1.958,1.333-3.313s1.375-1.354,1.375-1.354s-2.583,5.374-2.396,5.771"/>
	<path fill="#020202" d="M178.459,191.117c0,0-0.209-3.146,0.604-4.313s2.5-2.375,2.5-2.375s-1.167,1.688-1.688,2.625
		s-0.791,2.604-0.833,3.313s0,0.854,0,0.854"/>
	<path fill="#FFFFFF" d="M96.063,57.136c-0.25-0.25-1.916-4.417-1.916-4.417l-6.001-4.667l-2.666-1.75c0,0-1.334-1.083-1.584-1.333
		s-1.917-1.583-2.25-1.75s-3.333-3.417-3.583-3.667s-1.333-1.417-2-1.75s-0.667-0.333-0.667-0.333l-3.083,8.917l-3.083,5.417
		l0.833-0.333c0,0,5.084,6.559,8.711,11.254c0.955-0.896,2.733-0.919,3.341,0.49c0.212,0.155,0.41,0.359,0.585,0.618
		c0.359,0.532,0.687,1.098,0.978,1.683c0.009,0.012,0.017,0.024,0.025,0.036c0.745,1.039,1.292,2.302,1.366,3.585
		c0.003,0.057-0.008,0.11-0.011,0.165c1.653,0.888,3.437,1.55,3.922,1.502c0.833-0.083,6.251-7.583,6.167-7.833
		S96.313,57.386,96.063,57.136z"/>
	<path fill="#B2B2B2" d="M82.397,63.72c0,0-7.833-9.583-10.25-11.333s-6.917,3.667-6.917,3.667l-1.417,1.583l0.75,1.333l0.667,1
		l1.417,1.667l1.833,1.667l1.75,1.583l1.583,1.667l1,1.417l2,2.667l1,0.833l3.917-0.917"/>
	
		<ellipse transform="matrix(-0.93 -0.3675 0.3675 -0.93 85.7547 88.0196)" fill="#FFFFFF" cx="51.257" cy="35.846" rx="10.5" ry="9.813"/>
	
		<ellipse transform="matrix(0.9301 0.3674 -0.3674 0.9301 12.7709 -12.1942)" fill="#FFFFFF" cx="38.413" cy="27.446" rx="10.156" ry="8.282"/>
	<path fill="#FFFFFF" d="M42.751,22.674c0.127-0.152,9.253-1.989,9.486-1.897c0.233,0.092,6.345,1.969,7.672,2.694
		c1.326,0.727,3.42,1.89,3.319,2.655c-0.101,0.767-4.96,4.559-5.386,5.13c-0.427,0.57-4.624,1.667-4.624,1.667L41.192,40.74
		c0,0-6.965,5.043-7.056,5.612c-0.091,0.569-0.682,3.426-1.143,4.252c-0.461,0.826-3.106,3.611-3.106,3.611l-1.842,0.751
		l-0.916,0.109l-5.122-0.813l-7.43-3.138l-2.826-1.52l-1.898-1.489l-1.875-1.211l-0.642-0.926l-0.56-0.624l-1.771-1.642
		l-1.682-2.545l-0.193-1.892l0.45-3.182l0.599-1.175l1.203-1.003l1.345-0.342l1.904,0.282l1.464,0.377l2.307-0.566l8.001-1.543
		c0,0,7.738-0.706,7.936-0.695s1.787-0.101,1.787-0.101l7.52-2.875l5.57-5.595"/>
	<path fill="#574C3F" d="M40.622,19.727c0,0,1.397,1,1.925,1.478c0.527,0.478,1.401,1.898,1.401,1.898l0.373,0.417
		c0,0,0.851-0.112,2.706-0.724c1.854-0.611,3.23-0.695,5.584-0.302c2.354,0.392,5.346,1.664,6.292,2.217
		c0.947,0.553,1.397,1,1.397,1l-1.704,3.18l1.807,2.685l1.371,1.975c0,0,0.102,2.011,0.133,2.382
		c0.033,0.371-0.319,1.487-0.256,1.78c0.063,0.293-0.042,1.238-0.087,1.58c-0.043,0.341-0.381,1.192-0.673,1.705
		c-0.292,0.513-0.908,1.165-1.078,1.366c-0.168,0.203-0.894,0.902-1.062,1.104c-0.17,0.202-1.157,0.887-1.157,0.887l-3.477,1.314
		l-2.166,0.04l-2.617-0.407l-1.921-0.58l-3.243-1.998l-1.198-1.28c0,0-0.778-1.204-0.919-1.528
		c-0.141-0.324-0.641-1.328-0.842-1.498c-0.202-0.169-0.579-1.483-0.579-1.483s-2.131,1.31-3.828,2.43
		c-1.697,1.122-2.279,2.594-3.183,4.656c-0.904,2.062-1.283,4.153-1.803,5.47c-0.521,1.318-0.283,2.307-1.765,3.335
		c-1.481,1.028-3.659,2.229-3.659,2.229l11.095-0.187c0,0,8.52-1.383,9.634-1.48c1.114-0.098,9.679-2.269,10.482-2.489
		c0.804-0.221,10.623-5.57,10.33-5.506c-0.294,0.063-0.69-1.885-0.553-2.458c0.137-0.574,4.517-3.95,4.517-3.95
		s1.968,0.688,2.34,0.655c0.372-0.032,1.779-0.193,1.779-0.193s1.539,1.325,2.439,2.218c0.9,0.893,5.242,3.057,5.242,3.057
		l1.844,0.549l4.433,1.482l2.495,0.717l2.447,0.609l2.803,0.39l3.391,0.264l1.269-0.036l-2.294-4.4l-2.305-3.688l-2.414-3.193
		l-3.033-3.887l-3.685-4.054l-2.735-2.603l-0.561-0.849l2.749-1.064l1.917-0.767l-4.128-2.257l-4.219-2.473l-6.974-2.756
		l-4.231-1.313l-2.914-1.242l-4.396-0.213l-4.037,0.466l-2.781,1.141l-2.378,1.032l-1.373,0.979l-3.28,0.139l-4.716,0.824
		L40.622,19.727z"/>
	<path fill="#3D352C" d="M72.016,34.84c0,0-0.993-1.736-1.193-2.083c-0.198-0.348-0.224-0.626-0.224-0.626s-4.972,6.973-8.534,9.867
		c-3.563,2.894-5.217,4.188-8.762,5.677c-3.545,1.489-10.161,4.117-13.917,5.12c-3.756,1.002-10.55,2.553-10.55,2.553
		s6.035,0.032,6.835-0.123c0.783-0.151,0.789-0.154,4.374-0.355l3.656,0.101l2.067,0.211l2.664,1.591c0,0,3.06,1.611,3.35,1.727
		c0.291,0.115,2.488,1.185,2.488,1.185s2.442,0.964,2.617,1.034c0.174,0.069,2.009,0.524,2.265,0.559
		c0.256,0.034,2.077-0.322,2.077-0.322l2.249-0.59l2.558-1.543l1.261-0.98l1.481-1.364l1.489-1.562l2.136-2.853l1.658-3.175
		l1.205-3.221l0.765-2.788l0.051-1.66l0.04-1.463l0.044-0.453l-1.446-1.781L73.38,36.32l-1.086-1.504L72.016,34.84z"/>
	
		<ellipse transform="matrix(-0.93 -0.3675 0.3675 -0.93 74.47 81.165)" fill="#20A0FF" cx="44.961" cy="33.493" rx="3.781" ry="3.749"/>
	
		<ellipse transform="matrix(-0.93 -0.3675 0.3675 -0.93 73.8351 80.3296)" fill="#004774" cx="44.566" cy="33.135" rx="1.531" ry="1.501"/>
	
		<ellipse transform="matrix(-0.93 -0.3675 0.3675 -0.93 52.7954 61.3395)" fill="#20A0FF" cx="32.237" cy="25.644" rx="3.125" ry="3"/>
	
		<ellipse transform="matrix(-0.9301 -0.3674 0.3674 -0.9301 52.398 60.9387)" fill="#004774" cx="31.999" cy="25.482" rx="1.094" ry="1.062"/>
	
		<ellipse transform="matrix(-0.93 -0.3675 0.3675 -0.93 78.9007 79.102)" fill="#FFFFFF" cx="46.981" cy="32.04" rx="1" ry="0.906"/>
	
		<ellipse transform="matrix(-0.9301 -0.3673 0.3673 -0.9301 69.2032 81.4568)" fill="#FFFFFF" cx="42.353" cy="34.143" rx="0.718" ry="0.687"/>
	
		<ellipse transform="matrix(-0.93 -0.3675 0.3675 -0.93 56.2441 60.2541)" fill="#FFFFFF" cx="33.859" cy="24.772" rx="0.812" ry="0.781"/>
	
		<ellipse transform="matrix(-0.9301 -0.3673 0.3673 -0.9301 48.7203 62.3875)" fill="#FFFFFF" cx="30.297" cy="26.557" rx="0.656" ry="0.625"/>
	<path fill="none" stroke="#020202" stroke-width="0.75" d="M40.127,19.622c0,0,8.229-2.461,11.401-1.813
		c3.171,0.647,9.738,2.906,12.425,4.438c2.687,1.532,5.388,3.203,5.388,3.203s3.334-1.639,5.423-1.822s8.13,1.196,10.131,2.592
		c2.003,1.396,5.404,4.353,10.109,10.646c4.703,6.294,7.605,11.875,7.605,11.875s-7.059-0.503-8.662-0.868
		c-1.603-0.364-6.867-1.839-10.6-3.448c-3.732-1.609-5.76-3.621-6.481-4.174c-0.722-0.554-0.722-0.554-0.722-0.554
		s-0.218,3.611-0.881,5.633c-0.665,2.022-2.526,6.73-4.64,9.188c-2.114,2.458-4.392,4.313-6.593,5.46
		c-2.2,1.147-2.477,1.507-5.774,1.011c-3.298-0.497-3.823-1.04-6.218-2.12c-2.396-1.081-4.981-3.043-6.399-3.536
		c-1.417-0.494-3.077-0.544-6.396-0.31c-3.318,0.235-2.714,0.407-8.03,0.255c-5.316-0.151-7.011-0.284-10.568-1.487
		c-3.556-1.203-5.708-2.053-8.082-3.528c-2.374-1.475-4.365-3.068-4.902-3.751c-0.537-0.682-0.619-0.983-0.619-0.983"/>
	<path fill="none" stroke="#020202" stroke-width="0.75" d="M9.424,34.328c6.868-1.845,13.63-2.449,20.702-3"/>
	<path fill="none" stroke="#020202" stroke-width="0.75" d="M5.567,34.125c0,0-0.305,0.123-0.684,0.38
		c-0.467,0.317-1.044,0.839-1.304,1.59c-0.47,1.36-1.017,3.765,0.28,5.755c1.297,1.991,2.372,3.692,4.648,4.054
		c2.276,0.361,4.018,0.376,6.358-0.445c2.341-0.823,3.835-1.374,4.443-3.083c0.608-1.708,0.114-3.18-1.271-4.265
		c-1.386-1.086-9.104-4.001-10.058-4.31C7.027,33.492,6.229,33.983,5.567,34.125z"/>
	<path fill="#020202" d="M69.614,25.693c0,0-0.435,0.165-1.272,0.925c-0.838,0.761-0.838,0.761-0.838,0.761s0.949-2.061,2.184-2.38"
		/>
	<path fill="#020202" d="M76.201,40.324c0,0-2.606-2.676-3.596-4.512c-0.988-1.835-1.018-2.015-1.018-2.015s5.911,6.637,6.587,7.139
		"/>
	<path fill="#020202" d="M16.214,37.625c0,0-4.612-0.915-6.624-0.5c-2.012,0.415-2.898,0.872-3.049,2.021
		c-0.153,1.149-0.015,0.633,0.486,2.511c0.501,1.878,1.625,4.305,1.625,4.305s4.532,0.01,5.303-0.156
		c0.771-0.166,4.888-2.337,5.205-3.052c0.316-0.715,0.835-2.795,0.661-2.695C19.648,40.158,18.163,37.623,16.214,37.625z"/>
	<path fill="#020202" d="M6.409,33.483c0,0-0.832,0.192-1.188,0.371c-0.356,0.178,0.01,0.357,0.01,0.357l0.652-0.163l0.805-0.505"/>
	
		<ellipse transform="matrix(-0.93 -0.3674 0.3674 -0.93 85.6955 87.8843)" fill="none" stroke="#020202" stroke-width="0.75" cx="51.214" cy="35.785" rx="10.75" ry="9.708"/>
	<path fill="none" stroke="#020202" stroke-width="0.75" d="M42.284,29.357c0.021-0.032,0.049-0.046,0.071-0.073
		c0.653-0.955,1.666-1.65,2.781-2.073c0.006-3.211-2.015-6.317-5.35-7.635c-4.281-1.691-9.04,0.2-10.629,4.224
		c-1.59,4.023,0.592,8.655,4.872,10.346c2.22,0.878,4.561,0.771,6.529-0.079C40.641,32.39,41.568,30.471,42.284,29.357z"/>
	<path fill="none" stroke="#020202" stroke-width="0.75" d="M52.206,17.853c0,0,4.288-3.145,7.134-3.543
		c2.845-0.399,5.383-0.472,8.357,0.166c2.974,0.637,11.515,4.191,14.662,5.524c3.147,1.332,7.755,4.408,7.755,4.408l-5.219,1.813"/>
	<path fill="#3D352C" d="M54.73,57.803c-0.333,0.25,0.333,5.083,0.333,5.083l-1.667,0.75l-2.167,1.5c0,0-10.917,4.25-13.167,4.5
		s-4.083-1.083-4.083-1.083l-1.667-0.167l-1.25,0.583l-0.333,1.167l-0.25,1.833l0.333,1.667l1.833,0.583l3.167,0.833
		c0,0,2.417-0.083,2.667-0.083s3.5-1.5,3.5-1.5s15.333-7.667,16.5-8.667s6.916-5.917,7.833-7s-4.083-2.25-4.333-2.167
		s-6.25,2.25-6.583,2.417"/>
	<path fill="#FCFCFC" d="M23.626,54.699l7,6.875l0.625,3.313l0.875,2.5l0.688,1.375l-0.063,0.438c0,0,2.375,1.313,5.813,0.875
		s7.625-2.313,7.625-2.313s2.5-1.188,2.75-1.313s2.313-1.313,2.625-1.375s2.25-1.375,2.25-1.375l0.75-0.313l0.438-2.313l0.063-1.813
		c0,0-0.188-2.188-0.313-2.375s-0.563-1.313-0.688-1.5s-1.188-1.813-1.188-1.813l-0.625-0.938l-1.375-1.25l-2.5-1.125l-3.438-1
		l-4.688,1.313l-2.125,1.438l-1,0.75l-7.25,2h-3.125l-2.938,0.406l0.656,0.844c0,0,2.5,2.781,2.625,2.844s1.531-1.219,1.531-1.219"
		/>
	<path fill="#FFFFFF" d="M41.397,32.928l8.625,0.458l-0.625-2.5c0,0-2.917-2.167-3.042-2.167s-2.125,0.417-2.125,0.417
		s-1.688,1.187-1.875,1.417s-0.375,0.458-0.458,0.646s-0.625,1.708-0.625,1.708L41.397,32.928z"/>
	<path fill="#FFFFFF" d="M30.751,21.907l4.688,6.229c0,0,1.375-0.25,1.438-0.271s-0.021-2.438-0.125-2.646s-1.458-2.208-1.688-2.5
		s-1.104-1.208-1.271-1.313s-0.875-0.167-0.958-0.167s-1.979,0.646-1.979,0.646"/>
	<path fill="none" stroke="#000000" stroke-width="0.75" d="M80.376,43.074c0,0,7.813,4.5,11.563,8s5.188,4.75,7.125,7.813
		s3.625,5.5,4.625,6.813s1.938,2.188,1.938,2.188"/>
	<path fill="none" stroke="#000000" stroke-width="0.75" d="M32.063,69.136c0,0,0,0,0.688,0.375s4.813,0.563,6.938,0.25
		s5.563-1.438,7.375-2.25s7.313-4.375,7.313-4.375s0.313-1.063,0.438-2.25s-0.063-2.875-0.375-4.375s-1.25-2.813-2.625-4.063
		s-3.813-2.313-6.938-3s-6.25,2.313-7.5,3.125s-5.375,1.688-5.375,1.688s-2.125,0.688-3.938,0.75s-4.938,0-5.125-0.063"/>
	<path fill="none" stroke="#000000" stroke-width="0.75" d="M32.563,68.261c0,0-1.688,0.188-1.875,1s-0.063,3.313-0.063,3.688
		s0.563,0.438,1.563,1.125s4.875,1.313,7.188,0.375s5.75-2.188,8.5-3.75s9.313-4.813,11.813-6.563s4.938-3.875,4.938-3.875
		s4.125,3.125,5.813,4.75s3.092,4.044,3.896,5.354c0.456,0.743,0.366,0.698,0.292,0.354"/>
	<path fill="none" stroke="#000000" stroke-width="0.75" d="M30.563,61.386c0,0,0.188,2.25,0.375,3.313s2.125,5,2.125,5"/>
	<path fill="none" stroke="#000000" stroke-width="0.75" d="M22.563,54.574l8.313,7.125c0,0,1.75-2.063,1.75-1.969
		s2.031,1.563,2.031,1.563l0.531-2.563l3.656,1.313l0.281-2.531l4.938,2.719l-0.125-7.531l5.813,4.219l0.031-3.438l3.563,0.375"/>
</g>
<g id="frame_3">
	<path fill="#FFFFFF" d="M147.479,91.136c-0.438-0.438-28-8.813-28-8.813l-12.125-11.688l-1.125-2.125l-1.563-1.688
		c0,0-1.236-1.929-1.508-2.484c-0.999-1.13-1.89-2.352-2.561-3.708c-0.07-0.142-0.086-0.274-0.081-0.398
		c-0.102-0.162-0.197-0.327-0.294-0.491c-0.125-0.025-0.246-0.075-0.344-0.172c-0.069-0.069-0.14-0.139-0.209-0.208
		c-0.184-0.183-0.231-0.392-0.201-0.588c-0.92-1.887-2.704-3.215-4.09-4.746c-0.143-0.157-0.19-0.331-0.188-0.499
		c-0.126-0.094-0.246-0.196-0.373-0.287c-0.53-0.377-1.07-0.762-1.434-1.302c-0.913,0.224-1.637,0.403-1.781,0.445
		c-0.438,0.125-6.625,3.063-6.625,3.063v0.438c-0.75,0.75-5.25,20.5-5.25,20.5s2.5,10.5,2.25,11.75s2.75,13.5,3,14.25
		s4.5,6.5,5,7.25s4,6.5,4.75,7s1.125,2.375,1.125,2.375l1.25,3.75l1.938,5.75l0.563,2.5l1.563,5.313l0.375,4.375l0.313,5.125
		l0.063,4.125l0.063,5.75l-0.75,6.438c0,0-0.875,5.875-0.938,6.063s-0.625,3.688-0.625,3.688l-0.438,3.375
		c0,0-0.563,1.813-0.625,2.063s-0.25,1.688-0.313,2.063s-0.563,2.25-0.563,2.25l-5.438,2l-0.563,1.375l-0.563,1.188l-0.688,0.938
		l-0.313,1.438c0,0,0.438,0.188,0.688,0.188s2.188,0.375,2.188,0.375h1.063l0.688,0.25l2.125,0.313c0,0,0.438-0.063,0.375,0.125
		s0.25,0.5,0.25,0.5s7.188-0.125,7.375-0.188s3.5-0.313,3.5-0.313l2.438-0.75l1.063-0.938l0.813-1.688v-1.5l-0.813-5.063
		l-0.563-6.875l-0.563-6.438l-0.625-9.125v-5.625l0.375-5.5l0.625-6.375l1.313-8l3.25-14.813c0,0,5.375-0.688,5.688-1.063
		s6.125-5.938,6.125-5.938s2.438-2.313,3.438-3.313s11.813-8.188,12.188-8.5s5.625-2.5,5.625-2.5S147.917,91.574,147.479,91.136z"/>
	<path fill="#FFFFFF" d="M158.729,113.761c0,0,8.125,10.75,8.5,11s13.125,4.75,13.75,5.125s8.5,1.75,8.875,1.875
		s3.375,2.125,3.375,2.125s0,11.25-0.125,11.625s-1,12-1,12.75s0.5,9.625,0,9.875s-7,5.5-7,5.5l-2.5,2.25l-0.875,0.75l-1.625,2.813
		l-1.063,1.25l-1.063,0.938l-1.75,1.313l-2.438,1.563l-1.313,1.188l-0.625,1.375v1.625c0,0,0.313,0.688,0.5,0.688
		s1.813,0.125,1.813,0.125l0.5,0.188l-0.125,0.625c0,0,0.563,0.5,0.813,0.5s1.875-0.063,1.875-0.063l1,0.063l1.25,0.125l3.125,0.25
		c0,0,2.5-0.438,2.75-0.438s1.75-0.5,1.938-0.563s1.875-0.688,1.875-0.688l1.438-0.938l1.063-1.063l0.75-1.438l1.688-3.25
		l2.125-5.688l1.125-3.625l1.5-6.75l0.938-4.125l0.813-4.438l0.313-4.625l0.063-8.563l-0.563-7.5v-4.5l-0.875-7.375l-0.5-1.563
		l-1.5-0.25l-2.688-1.375l-2.438-1.875c0,0-2.313-1.5-2.688-1.5s-14.188-6-14.875-6.25s-11.938,0-11.625,0s-4.5,0.25-4.688,0.375"/>
	<path fill="#B2B2B2" d="M97.979,159.511c0.125-2.438-0.25-14.625-0.25-14.625s1.375-8.5,1.438-8.688s1.188-2.625,1.188-2.625
		l-2.188-8.188l-2.688-8.25l-2.563-8.563c0,0-0.938-0.875-2.438-3.688s-4.313-10.438-5.375-15.5s-0.625-11.5-0.5-14.813
		c0.077-2.046,0.395-4.95,0.964-7.682c-1.229-1.407-2.475-2.799-3.723-4.189c-1.085-1.208-2.092-2.543-3.153-3.802
		c-0.496,1.192-2.016,4.863-2.588,6.423c-0.688,1.875-2.438,9.188-2.75,10.688s-0.688,3.75-0.938,5.375s-0.5,3.938-0.438,6
		s0.063,2.75,0.313,4.625s0.688,4.688,1.375,6.375s2.063,4.688,3.875,7.5s3.375,4.75,4.125,5.75s0.875,2.125,0.875,2.125
		l0.813,3.688c0,0,1.25,5.188,2,7.063s1.313,3.563,2.063,6.313s1.5,5.5,1.75,7.25s0.625,6.625,0.625,8s0.188,5.188,0.063,7.25
		s-0.125,6.188-0.438,8.063s-0.813,4.75-1.25,6.625s-0.563,1.563-1.063,3.813s-0.688,2.75-1,4s-0.625,2.875-0.625,2.875
		l-2.813,1.188l-2.75,1.563l-1.313,1.75l-0.188,1.25l0.688,1c0,0,1.125,0.25,1.313,0.25s1.375,0.063,1.375,0.063l0.438-0.125
		l-0.438,0.5l3.188,0.063v0.5l2.813,0.188h2.188l0.5-0.125l0.938-2.188c0,0,1.5-1.313,3.063-1.75s3.063-0.938,3.063-0.938
		l1.625-7.688l0.563-3.813C99.729,170.386,97.854,161.949,97.979,159.511z"/>
	<path fill="#B2B2B2" d="M108.646,106.969c0,0-1.167,2.668-1.5,4.584s-0.666,5.75,0.667,7.833s2.5,3.583,2.5,3.583
		s-1.501,9.417-2.167,14.417s-1.249,9.334-1.416,14s-0.333,7,0.667,10.75s3.416,8.083,3.416,8.083s-0.332-7.583-0.416-7.833
		s-0.25-5.917-0.25-5.917s0.334-8.167,0.25-8.5s0.833-8.083,0.833-8.083s2.166-10.167,2.083-10.5s0.917-4.417,0.917-4.417
		l2.583-1.083l2.75-1.667c0,0,6.666-5.5,6.833-5.75s6.833-6,7.75-7s4.501-4.833,4.501-4.833l3.333-2.5l2.167-1.667l1.583-0.75
		l1.833-0.75l0.5-0.167l-0.25-2.583l0.167-2c0,0-1.501-0.667-5.417,2s-3.333,2.084-8.083,5.417s-11.083,9.5-13.75,11.333
		s-4.667,3-4.667,3"/>
	<path fill="#B2B2B2" d="M148.229,97.886l-0.167,3.666c0,0,0.334,4.75,1.167,6.667s3.583,5.666,5.083,7.583s4.5,5.167,4.5,5.167
		s-2-0.5-2.5-0.583s-6.751-2.583-7.167-2.75s-6.249-1.583-6.666-1.75s-2.084-1.749-2.334-1.833s5.834,7.084,12.167,10.25
		s8.416,3.834,9.083,4s4.417,0.333,4.417,0.333l2.917,0.583l2.666,1.583l2.667,1c0,0,0.583,2.751,1.083,6.334
		s0.751,6.999,0.751,11.333s0.415,7.001-0.001,10.334s-0.75,7.25-3.75,10.333s-5.166,4.333-6.916,5.083s-3.417,0.917-3.417,0.917
		l-1.5,3.333c0,0-3.999,1.666-4.666,2.583s-2.667,3.167-2.667,3.167l-0.25,1.333l1.333,0.334h1.25l-0.083,0.583l2.833,0.667
		l1.584,0.166c0,0-0.417,0.584,0.083,0.667s3.167,0.417,3.167,0.417l1.916-0.084l2-0.75l1.834-0.833l2.333-1l1.583-1.667
		l0.917-1.333c0,0,2.417-7,3-9.5s2.667-10.833,3.25-12.75s0.999-2.5,1.166-7.25s-0.084-12.832-0.25-13.916s-1.417-6.667-1.5-6.917
		s8,1,8,1s1.251,7.75,1.084,12.5s-0.333,7.999-0.75,10.333s-1.001,5.918-1.667,8.084s-1.166,3.834-1.916,5.25
		s-0.75,2.416-1.167,3.666s-1.333,2.5-1.333,2.5s2.249,0.666,4.666-0.75s5.5-3.75,6.667-6.583s2.75-6.917,2.75-10.5
		s0.082-11.083-0.834-17.833s-1.916-11.834-1.916-11.834s-7.333,0.668-10.75-0.166s-11.751-4.75-15.167-7.667
		s-7.583-8.334-7.583-8.334"/>
	<path fill="#B2B2B2" d="M153.604,123.512c0,0,5.208,6.083,5.458,6.333s5.042,0.667,5.792,0.875s3.709,0.042,3.917,0.125
		s0.5-0.209,0.625-0.292s0.166-0.916,0.083-1.041s-3-2.376-3.25-2.459s-10.166-2.958-10.333-2.958s-2.125-0.75-2.125-0.75"/>
	<path fill="#7C7C7C" d="M97.896,124.386c0,0-0.022,0.119-0.063,0.339c-0.352,1.904-2.082,11.37-2.604,16.078
		c-0.583,5.25-1.334,9.749-1,13.999s-0.083,5.168,0.917,7.834s4,8.666,4,8.666l0.75-0.75l-0.917-2.75l-0.916-5.833v-9.833v-7.334
		l0.083-3.416l1.083-4.917l1-2.583l-2.167-9.917"/>
	<path fill="#7C7C7C" d="M132.73,110.552c0,0,1.416,3.251,2.083,4.334s2.667,4.417,3.667,5.25s4.75,4.75,5.75,5.333
		s4.332,2.749,5.666,3.583s4.501,2.918,5.334,3.334s4.499,0.75,5.416,1s5.167,0.75,5.167,0.75l2.833,0.333
		c0,0,0.334,9.833,0.417,12.333s-0.083,5.084-0.333,6.834s-1.166,5.75-1.5,7.083s-0.416,3.333-1,4.833s-1.417,3.334-1.917,4.834
		s-2.5,5.5-2.5,5.5s3.667-0.751,4-0.834s2.917-1.25,4-2.583s3.917-4.916,4.667-7.833s1.166-8.417,1.083-11.417s0.333-9.833-0.167-13
		s-1-6.75-1-6.75l-0.5-2.083l-4.333-1.833c0,0-6.833-0.667-9.25-1.417s-6.667-3.25-8.167-4.25s-3.749-2.333-6.416-4.833"/>
	<path fill="#574C3F" d="M105.646,68.053c0,0-1.25,3.583-1.5,5.75s-1.167,7.167-0.5,12.083s1.667,7.167,3.417,10.5
		s5.166,6.667,8.583,7.167s3.916,0.166,8-1.584s5.334-2.75,8.834-4.5s6.667-3.5,8.667-3.583s6.583,0.167,6.583,0.167l0.416,4.083
		c0,0,0.334,1.25,1.834,4.667s3.916,6.583,6.333,9s4.666,4.5,9,6.083s6.167,2.75,13.25,2.917s13.583,0,13.583,0l-3.166-3.75
		l-1.917-2.334l-1.667-2.333l-1.833-3l-0.833-2.417l-1-2.5l-1.5-4.083l-0.667-2.166l-0.666-2.5l-0.584-2.084l-0.416-0.916
		l3.249,0.833l2.834,0.583l2.416,0.5l4.25,0.167l4.334,0.166h4.166l5.417-2l4.75-2.416l4.167-2.834l2.333-2.749l1.917-4.167
		l0.5-2.917l-0.25-4.417l-1.084-5.75l-1.25-3.75l-2-5l-2.25-3.75l-1.666-3.167l-2.334-2.833c0,0,0.918,4.583,1.334,6.333
		s1.25,4.5,1.25,4.5l0.25,2.75l0.5,3.25c0,0,0.25,2.5,0.25,2.75s0.083,3.25,0.083,3.25l-0.166,3.5l-0.917,2.667l-1.167,1.5
		l-0.833,1.25l-1,1.083l-1.167,1.25l-3.416,1.667l-3.084,0.333l-3.333,0.25l-5.75-0.333l-3.333-0.584l-3.917-1l-5.25-1.5
		l-2.167-1.417l-1.25-0.583l-1.25-4l-2-3.417l-3.083-3.667l-4.334-2.333l-3.666-1h-4.167l-4.166,0.417l-5.584,0.917l-5.75,1.25
		l-9.75,1.917l-7.75,1.5h-5.417h-2.666l-2.417-0.167l-3.333-0.75l-1.667-1.417L105.646,68.053z"/>
	<path fill="#3D352C" d="M134.75,108.719c0,0,1.688,3.75,4.625,5.938s5.5,4,7.938,4.938s4.625,1.188,6.375,1.313
		s4.813,0.125,4.813,0.125s-2.75-2.438-3.313-3.063s-3.75-4.875-3.75-4.875l-1.063-1.938l-0.813-1.625l-0.688-1.688l-0.688-2.688
		l-0.5-3.063l-0.063-1.188l-0.063-1l0.063-0.875l-1.313,0.188L144,100.594l-2.063,1.25l-1.813,1.375l-1,1.25l-1.438,1.125
		l-2.063,1.813L134.75,108.719z"/>
	<path fill="none" stroke="#020202" stroke-width="0.75" d="M79.813,55.553"/>
	<path fill="none" stroke="#020202" stroke-width="0.75" d="M116.167,115.324c0,0-0.625,2.313-1.063,4.813s-1.688,7.438-2.5,11.813
		s-1.25,6.125-1.75,11s-0.625,6.938-0.688,11.063s0.438,11.25,0.75,15.125s0.813,7.5,1,9.563s0.938,5.188,0.875,6.938
		s-0.375,1.938-1.5,2.938s-3.75,1.438-6.313,1.5s-7.813,0.188-7.813,0.188v-0.688h-3.5l0.125-0.688l-3.813-0.125
		c0,0,0.375-2.438,1.625-4s6-2.938,6-2.938s1.25-6.313,2.125-11.188s1.563-7.625,1.938-12.063s0.313-13.438-0.188-18.938
		s-1.938-8.25-2.563-11.063s-1.188-4.688-1.188-4.688s-0.333-0.166-1.333-0.666s-7-4.167-11.083-7.834s-7.917-8.833-10.334-13.666
		s-2.666-9.334-2.833-13.75s1.08-13.409,2.583-18"/>
	<path fill="none" stroke="#020202" stroke-width="0.75" d="M64.855,60.053"/>
	<path fill="none" stroke="#020202" stroke-width="0.75" d="M113.979,125.219c0,0,4.25-1.582,7.25-4.166s5.916-5.251,9.833-9.001
		s7.668-7.499,10.334-9.666s4.249-3.083,5.166-3.25s1.25-0.167,1.25-0.167s-0.084,3.917,0.5,6.167s2.416,6.75,4.333,9.25
		s5.25,6.582,9.667,9.916s8.5,7,15.75,8.5s9.333,1.834,9.333,1.834s1,12.667,0.667,17.75s-2.083,13.167-4,17.75s-2.25,6.416-4,9.166
		s-3.001,3.168-4.667,4.334s-3.082,2.082-3.416,3.166s-0.25,2.084,0.25,2.417s2.416,0.417,2.416,0.417s-0.416,0.75-0.083,1.083
		s3.334,0.167,3.667,0.25s0.333,0.083,0.333,0.083s2.999,0.5,5.333,0.167s5.416-1.749,7.25-3.333s4.917-10.168,5.917-13.584
		s2.25-8.916,2.917-12.333s0.834-8.084,0.917-12.25s-0.417-13.834-0.667-17.417s-1.25-8-1.25-8s-3.668-0.583-6.584-3.583
		s-6.5-6.666-8.5-11.083s-3.499-8.333-4.499-11.5s-1.667-6.5-2.584-10.25s-4.001-12.333-5.667-14.917s-4-5.25-8.083-6.333
		s-7.999-0.917-12.916-0.167s-11.25,2.167-17.417,3.417s-9.916,2.25-14.833,2s-8.333-0.167-11.5-3.167s-4.019-5.419-6.333-8.625
		c-2.708-3.75-4.291-5.792-6.416-7.708c-2.611-2.355-3.792-3.125-3.792-3.125"/>
	<path fill="none" stroke="#020202" stroke-width="0.75" d="M82.479,112.449c0,0,1.563,8.75,3.125,12.688s2.688,9.563,3.438,12.563
		s0.688,6.75,0.75,10.875s0.125,7.375-0.375,12.125s-0.813,4.875-1.75,9.438s-2.375,8.625-2.375,8.625s-3.625,1.375-4.813,2.375
		s-1.688,2.125-1.813,2.75s-0.125,0.625-0.125,0.625s0.375,1,1.063,1.063s2.625,0.125,2.625,0.125l-0.438,0.5l3.563,0.063
		l-0.438,0.625h5.625"/>
	<path fill="none" stroke="#020202" stroke-width="0.75" d="M99.729,170.636c0,0-1.625-5.188-1.688-9.688s0.063-13.625,0.063-16.563
		s0.188-2.813,0.813-6.25s1.375-4.438,1.375-4.438"/>
	<path fill="none" stroke="#020202" stroke-width="0.75" d="M133.313,116.886c0,0,2.333,0.832,6.666,4.916
		s13.25,10.084,17.25,11.167s11.25,1.583,11.25,1.583s0.584,14.5,0.25,17.75s-1.834,11.083-3.167,14.75s-3.332,7.917-4.166,9.917
		s-1.084,2.584-1.084,2.584s-3.416,1.166-4.416,2.166s-2.918,3.416-3.084,4s0.167,1.25,0.167,1.25l2.583,0.084l-0.083,0.666
		c0,0,2.75,0.667,3.25,0.667s0.833,0,0.833,0l-0.166,0.667c0,0,4.834,0.417,6,0s3.332-1.084,4.916-2.167s2.584-1.916,3.167-3.083
		s1.333-2.834,2.833-8.834s3.834-14.499,4.167-16.666s0.249-12.75,0.333-16.167s-1.583-8.917-1.583-8.917"/>
	<path fill="none" stroke="#020202" stroke-width="0.75" d="M174.229,80.386c0,0,7,3.625,14.25,4.5s13.75,1.5,17.75-2
		s5.625-7.625,4.625-15.875s-3.625-18-3.625-18s7,9.125,9.125,17.25s3.25,16-2.125,20.625s-10.875,7.75-16.5,8.125
		s-16.125-1.25-17.125-1.5s-2.625-0.75-2.625-0.75"/>
	<path fill="#020202" d="M148.136,98.949c0,0-0.188-7.719,0.344-9.938s0.688-2.625,0.688-2.625s-1.469,3.188-1.625,5.5
		s-0.156,7.5-0.156,7.5"/>
	<polyline fill="#020202" points="97.979,123.72 90.188,100.178 97.354,124.095 	"/>
	<path fill="#020202" d="M116.479,115.428c0,0-2.583-2.209-4.25-4s-3.543-4.542-3.834-6s-0.291-3.375-0.291-3.375
		s-1.084,3.125,0.208,5.25s6.291,7.834,6.833,8.459s0.542,0.625,0.542,0.625"/>
	<path fill="#050505" d="M81.605,186.054c0.084-0.167,0.876-2.584,2.334-3.709s1.625-1.208,1.625-1.208s-3.042,4.708-3.167,4.958"/>
	<path fill="#050505" d="M85.064,185.97c0,0,1.75-3.041,2.75-3.958s1-0.917,1-0.917l-3.375,5.792"/>
	<path fill="#050505" d="M93.522,188.762c0,0,0.458-1.584,1.458-2.834s1.375-1.416,1.375-1.416s-2.334,4.625-2.417,5"/>
	<path fill="#050505" d="M97.022,189.512c0,0,0.959-3.126,1.875-4.084s1.166-1.166,1.166-1.166l-2.333,6"/>
	<path fill="#020202" d="M155.271,186.929c0,0,0.25-1.938,0.958-2.979s1.917-1.792,1.917-1.792s-2.126,4.626-2.209,5.084
		s-0.166,0.521-0.166,0.521"/>
	<path fill="#020202" d="M159.167,188.304c-0.021-0.063,0.604-3.666,1.625-4.625s1.521-1.042,1.521-1.042s-1.146,1.396-1.708,2.667
		s-0.625,3.438-0.625,3.438"/>
	<path fill="#020202" d="M174.479,189.492c0,0-0.042-1.958,1.333-3.313s1.375-1.354,1.375-1.354s-2.583,5.374-2.396,5.771"/>
	<path fill="#020202" d="M178.292,190.867c0,0-0.209-3.146,0.604-4.313s2.5-2.375,2.5-2.375s-1.167,1.688-1.688,2.625
		s-0.791,2.604-0.833,3.313s0,0.854,0,0.854"/>
	<path fill="#FFFFFF" d="M95.896,56.886c-0.25-0.25-1.916-4.417-1.916-4.417l-6.001-4.667l-2.666-1.75c0,0-1.334-1.083-1.584-1.333
		s-1.917-1.583-2.25-1.75s-3.333-3.417-3.583-3.667s-1.333-1.417-2-1.75s-0.667-0.333-0.667-0.333l-3.083,8.917l-3.084,5.417
		l0.834-0.333c0,0,5.084,6.559,8.711,11.254c0.955-0.896,2.733-0.919,3.341,0.49c0.212,0.155,0.41,0.359,0.585,0.618
		c0.359,0.532,0.687,1.098,0.978,1.683c0.009,0.012,0.017,0.024,0.025,0.036c0.745,1.039,1.292,2.302,1.366,3.585
		c0.003,0.057-0.008,0.11-0.011,0.165c1.653,0.888,3.437,1.55,3.922,1.502c0.833-0.083,6.251-7.583,6.167-7.833
		S96.146,57.136,95.896,56.886z"/>
	<path fill="#B2B2B2" d="M82.23,63.47c0,0-7.833-9.583-10.25-11.333s-6.917,3.667-6.917,3.667l-1.417,1.583l0.75,1.333l0.667,1
		l1.417,1.667l1.833,1.667l1.75,1.583l1.583,1.667l1,1.417l2,2.667l1,0.833l3.917-0.917"/>
	
		<ellipse transform="matrix(-0.93 -0.3675 0.3675 -0.93 85.5243 87.4757)" fill="#FFFFFF" cx="51.09" cy="35.596" rx="10.5" ry="9.813"/>
	
		<ellipse transform="matrix(0.9301 0.3674 -0.3674 0.9301 12.6674 -12.1503)" fill="#FFFFFF" cx="38.246" cy="27.196" rx="10.156" ry="8.282"/>
	<path fill="#FFFFFF" d="M42.584,22.424c0.127-0.152,9.253-1.989,9.486-1.897c0.233,0.092,6.344,1.969,7.672,2.694
		c1.325,0.727,3.42,1.89,3.318,2.655c-0.102,0.767-4.96,4.559-5.387,5.13c-0.427,0.57-4.624,1.667-4.624,1.667L41.025,40.49
		c0,0-6.965,5.043-7.056,5.612c-0.091,0.569-0.682,3.426-1.143,4.252c-0.461,0.826-3.106,3.611-3.106,3.611l-1.842,0.751
		l-0.916,0.109l-5.122-0.813l-7.43-3.138l-2.826-1.52l-1.898-1.489l-1.875-1.211l-0.642-0.926l-0.56-0.624l-1.771-1.642
		l-1.682-2.545l-0.193-1.892l0.45-3.182l0.599-1.175l1.203-1.003l1.345-0.342l1.904,0.282l1.464,0.377l2.307-0.566l8.001-1.543
		c0,0,7.738-0.706,7.936-0.695s1.787-0.101,1.787-0.101l7.52-2.875l5.57-5.595"/>
	<path fill="#574C3F" d="M40.455,19.477c0,0,1.397,1,1.925,1.478c0.527,0.478,1.401,1.898,1.401,1.898l0.373,0.417
		c0,0,0.851-0.112,2.706-0.724c1.854-0.611,3.23-0.695,5.584-0.302c2.354,0.392,5.347,1.664,6.292,2.217
		c0.947,0.553,1.397,1,1.397,1l-1.704,3.18l1.807,2.685l1.371,1.975c0,0,0.102,2.011,0.133,2.382
		c0.033,0.371-0.319,1.487-0.256,1.78c0.063,0.293-0.043,1.238-0.087,1.58c-0.044,0.341-0.382,1.192-0.673,1.705
		c-0.291,0.513-0.908,1.165-1.078,1.366c-0.168,0.203-0.894,0.902-1.062,1.104c-0.17,0.202-1.157,0.887-1.157,0.887l-3.477,1.314
		l-2.166,0.04l-2.617-0.407l-1.921-0.58l-3.243-1.998l-1.198-1.28c0,0-0.778-1.204-0.919-1.528
		c-0.141-0.324-0.641-1.328-0.842-1.498c-0.202-0.169-0.579-1.483-0.579-1.483s-2.131,1.31-3.828,2.43
		c-1.697,1.122-2.279,2.594-3.183,4.656c-0.904,2.062-1.283,4.153-1.803,5.47c-0.521,1.318-0.283,2.307-1.765,3.335
		c-1.481,1.028-3.659,2.229-3.659,2.229l11.095-0.187c0,0,8.52-1.383,9.634-1.48c1.114-0.098,9.679-2.269,10.481-2.489
		c0.805-0.221,10.623-5.57,10.33-5.506c-0.295,0.063-0.69-1.885-0.553-2.458c0.137-0.574,4.517-3.95,4.517-3.95
		s1.968,0.688,2.34,0.655c0.372-0.032,1.779-0.193,1.779-0.193s1.539,1.325,2.439,2.218c0.9,0.893,5.242,3.057,5.242,3.057
		l1.844,0.549l4.433,1.482l2.495,0.717l2.447,0.609l2.803,0.39l3.391,0.264l1.269-0.036l-2.294-4.4l-2.305-3.688l-2.414-3.193
		l-3.033-3.887l-3.685-4.054l-2.735-2.603l-0.561-0.849l2.749-1.064l1.917-0.767l-4.128-2.257l-4.219-2.473l-6.974-2.756
		l-4.231-1.313L67.389,13.9l-4.396-0.213l-4.036,0.466l-2.781,1.141l-2.378,1.032l-1.373,0.979l-3.28,0.139l-4.716,0.824
		L40.455,19.477z"/>
	<path fill="#3D352C" d="M71.786,34.559c0,0-0.993-1.736-1.193-2.083c-0.198-0.348-0.224-0.626-0.224-0.626
		s-4.972,6.973-8.533,9.867c-3.563,2.894-5.217,4.188-8.762,5.677c-3.545,1.489-10.161,4.117-13.917,5.12
		c-3.756,1.002-10.55,2.553-10.55,2.553s6.035,0.032,6.835-0.123c0.783-0.151,0.789-0.154,4.374-0.355l3.656,0.101l2.067,0.211
		l2.664,1.591c0,0,3.06,1.611,3.35,1.727c0.291,0.115,2.488,1.185,2.488,1.185s2.442,0.964,2.617,1.034
		c0.174,0.069,2.009,0.524,2.265,0.559C59.179,61.028,61,60.673,61,60.673l2.248-0.59l2.559-1.543l1.26-0.98l1.481-1.364
		l1.489-1.562l2.136-2.853l1.658-3.175l1.205-3.221l0.765-2.788l0.051-1.66l0.04-1.463l0.044-0.453l-1.446-1.781l-1.339-1.201
		l-1.086-1.504L71.786,34.559z"/>
	
		<ellipse transform="matrix(-0.93 -0.3675 0.3675 -0.93 74.2395 80.6212)" fill="#20A0FF" cx="44.794" cy="33.243" rx="3.781" ry="3.749"/>
	
		<ellipse transform="matrix(-0.93 -0.3675 0.3675 -0.93 73.6047 79.7857)" fill="#004774" cx="44.399" cy="32.885" rx="1.531" ry="1.501"/>
	
		<ellipse transform="matrix(-0.93 -0.3675 0.3675 -0.93 52.565 60.7957)" fill="#20A0FF" cx="32.07" cy="25.394" rx="3.125" ry="3"/>
	
		<ellipse transform="matrix(-0.9301 -0.3674 0.3674 -0.9301 52.1675 60.3948)" fill="#004774" cx="31.832" cy="25.232" rx="1.094" ry="1.062"/>
	
		<ellipse transform="matrix(-0.93 -0.3675 0.3675 -0.93 78.6702 78.5582)" fill="#FFFFFF" cx="46.814" cy="31.79" rx="1" ry="0.906"/>
	
		<ellipse transform="matrix(-0.9301 -0.3673 0.3673 -0.9301 68.9728 80.9129)" fill="#FFFFFF" cx="42.186" cy="33.893" rx="0.718" ry="0.687"/>
	
		<ellipse transform="matrix(-0.93 -0.3675 0.3675 -0.93 56.0137 59.7102)" fill="#FFFFFF" cx="33.692" cy="24.522" rx="0.812" ry="0.781"/>
	
		<ellipse transform="matrix(-0.9301 -0.3673 0.3673 -0.9301 48.4898 61.8436)" fill="#FFFFFF" cx="30.13" cy="26.307" rx="0.656" ry="0.625"/>
	<path fill="none" stroke="#020202" stroke-width="0.75" d="M39.96,19.372c0,0,8.229-2.461,11.401-1.813
		c3.171,0.647,9.738,2.906,12.426,4.438c2.687,1.532,5.387,3.203,5.387,3.203s3.335-1.639,5.424-1.822s8.13,1.196,10.131,2.592
		c2.003,1.396,5.404,4.353,10.109,10.646c4.703,6.294,7.605,11.875,7.605,11.875s-7.059-0.503-8.662-0.868
		c-1.603-0.364-6.867-1.839-10.6-3.448c-3.732-1.609-5.76-3.621-6.481-4.174c-0.722-0.554-0.722-0.554-0.722-0.554
		s-0.218,3.611-0.881,5.633c-0.665,2.022-2.526,6.73-4.64,9.188c-2.114,2.458-4.392,4.313-6.593,5.46
		c-2.199,1.147-2.477,1.507-5.774,1.011c-3.298-0.497-3.823-1.04-6.218-2.12c-2.396-1.081-4.981-3.043-6.399-3.536
		c-1.417-0.494-3.077-0.544-6.396-0.31c-3.318,0.235-2.714,0.407-8.03,0.255c-5.316-0.151-7.011-0.284-10.568-1.487
		c-0.389-0.131-0.761-0.259-1.119-0.383c-2.911-1.013-4.849-1.831-6.963-3.145c-2.374-1.475-4.365-3.068-4.902-3.751
		c-0.537-0.682-0.619-0.983-0.619-0.983"/>
	<path fill="none" stroke="#020202" stroke-width="0.75" d="M9.257,34.078c6.868-1.845,13.63-2.449,20.702-3"/>
	<path fill="none" stroke="#020202" stroke-width="0.75" d="M5.4,33.875c0,0-0.305,0.123-0.684,0.38
		c-0.467,0.317-1.044,0.839-1.304,1.59c-0.47,1.36-1.017,3.765,0.28,5.755c1.297,1.991,2.372,3.692,4.648,4.054
		c2.276,0.361,4.018,0.376,6.358-0.445c2.341-0.823,3.835-1.374,4.443-3.083c0.608-1.708,0.114-3.18-1.271-4.265
		c-1.386-1.086-9.104-4.001-10.058-4.31C6.86,33.242,6.062,33.733,5.4,33.875z"/>
	<path fill="#020202" d="M69.447,25.443c0,0-0.435,0.165-1.272,0.925c-0.839,0.761-0.839,0.761-0.839,0.761s0.949-2.061,2.184-2.38"
		/>
	<path fill="#020202" d="M76.034,40.074c0,0-2.606-2.676-3.596-4.512c-0.988-1.835-1.018-2.015-1.018-2.015s5.911,6.637,6.587,7.139
		"/>
	<path fill="#020202" d="M16.047,37.375c0,0-4.612-0.915-6.624-0.5c-2.012,0.415-2.898,0.872-3.049,2.021
		c-0.153,1.149-0.015,0.633,0.486,2.511c0.501,1.878,1.625,4.305,1.625,4.305s4.532,0.01,5.303-0.156
		c0.771-0.166,4.888-2.337,5.205-3.052c0.316-0.715,0.835-2.795,0.661-2.695C19.481,39.908,17.996,37.373,16.047,37.375z"/>
	<path fill="#020202" d="M6.242,33.233c0,0-0.832,0.192-1.188,0.371c-0.356,0.178,0.01,0.357,0.01,0.357l0.652-0.163l0.805-0.505"/>
	
		<ellipse transform="matrix(-0.93 -0.3674 0.3674 -0.93 85.4651 87.3405)" fill="none" stroke="#020202" stroke-width="0.75" cx="51.047" cy="35.535" rx="10.75" ry="9.708"/>
	<path fill="none" stroke="#020202" stroke-width="0.75" d="M42.117,29.107c0.021-0.032,0.049-0.046,0.071-0.073
		c0.653-0.955,1.666-1.65,2.781-2.073c0.006-3.211-2.015-6.317-5.35-7.635c-4.281-1.691-9.04,0.2-10.629,4.224
		c-1.59,4.023,0.592,8.655,4.872,10.346c2.22,0.878,4.561,0.771,6.529-0.079C40.474,32.14,41.401,30.221,42.117,29.107z"/>
	<path fill="none" stroke="#020202" stroke-width="0.75" d="M52.039,17.603c0,0,4.288-3.145,7.134-3.543
		c2.845-0.399,5.383-0.472,8.357,0.166c2.974,0.637,11.515,4.191,14.662,5.524c3.147,1.332,7.755,4.408,7.755,4.408l-5.219,1.813"/>
	<path fill="#3D352C" d="M54.563,57.553c-0.333,0.25,0.333,5.083,0.333,5.083l-1.667,0.75l-2.167,1.5c0,0-10.917,4.25-13.167,4.5
		s-4.083-1.083-4.083-1.083l-1.667-0.167l-1.25,0.583l-0.333,1.167l-0.25,1.833l0.333,1.667l1.833,0.583l3.167,0.833
		c0,0,2.417-0.083,2.667-0.083s3.5-1.5,3.5-1.5s15.333-7.667,16.5-8.667s6.916-5.917,7.833-7s-4.083-2.25-4.333-2.167
		s-6.25,2.25-6.583,2.417"/>
	<path fill="#FCFCFC" d="M54.542,56.761c-0.125-0.188-0.563-1.313-0.688-1.5s-1.188-1.813-1.188-1.813l-0.625-0.938l-1.375-1.25
		l-2.5-1.125l-3.438-1l-4.688,1.313l-2.125,1.438l-1,0.75l-7.25,2h-3.125l-2.443,0.338l-0.682-0.4l0.441,0.434l-0.254,0.035
		l0.656,0.844c0,0,1.056,1.175,1.83,2.015c0.007-0.163,0.043-0.329,0.139-0.491c0.241-0.412,0.785-0.668,1.253-0.51
		c0.098,0.033,0.175,0.082,0.261,0.123c0.001-0.004,0.003-0.007,0.004-0.011c0.022,0.016,0.045,0.029,0.067,0.044
		c0.115,0.061,0.228,0.136,0.33,0.218c0.458,0.295,0.933,0.564,1.404,0.837c0.011-0.015,0.012-0.031,0.024-0.046
		c0.069-0.083,0.139-0.167,0.208-0.25c0.237-0.284,0.557-0.305,0.831-0.184c0.015-0.008,0.027-0.018,0.042-0.025
		c0.295-0.153,0.582-0.119,0.803,0.019c0.047-0.016,0.094-0.029,0.141-0.044c0.231-0.157,0.471-0.288,0.749-0.39
		c0.286-0.105,0.533-0.027,0.712,0.136c0.124-0.091,0.277-0.145,0.462-0.124c0.258,0.03,0.53,0.102,0.803,0.196
		c0.667,0.087,1.314,0.236,1.954,0.475c0.003-0.004,0.007-0.008,0.01-0.011c0.137-0.193,0.277-0.384,0.413-0.577
		c0.37-0.706,0.506-1.506,1.206-2.054c0.552-0.432,1.689-0.061,1.353,0.788c-0.063,0.158-0.127,0.314-0.189,0.472
		c0.008,0.129-0.002,0.261-0.059,0.388c-0.106,0.281-0.245,0.545-0.417,0.792c-0.024,0.039-0.059,0.061-0.087,0.094
		c-0.027,0.051-0.042,0.104-0.081,0.154c-0.232,0.299-0.447,0.61-0.659,0.923c-0.011,0.096-0.038,0.193-0.089,0.288
		c-0.263,0.488-0.57,0.787-0.904,0.966c-0.008,0.003-0.015,0.008-0.022,0.012c-0.002,0.001-0.003,0.002-0.005,0.003
		c0.129,0.144,0.205,0.327,0.178,0.529c0.247,0.315,0.315,0.776-0.04,1.071c-0.417,0.346-0.792,0.738-1.208,1.083
		c-0.195,0.162-0.457,0.211-0.701,0.178c-0.235,0.103-0.46,0.088-0.651,0.004c-0.187,0.296-0.392,0.577-0.647,0.818
		c-0.294,0.277-0.862,0.351-1.145,0c-0.127-0.182-0.277-0.343-0.447-0.487c-0.012-0.002-0.023-0.007-0.036-0.009
		c0.01,0.044,0.028,0.085,0.03,0.132c0.042,0.854-0.061,1.639-0.279,2.465c-0.02,0.076-0.05,0.139-0.085,0.197
		c-0.004,0.168-0.011,0.335-0.011,0.504c0,0.015-0.008,0.023-0.008,0.037l0.22,0.63l0.688,1.375l-0.063,0.438
		c0,0,2.375,1.313,5.813,0.875s7.625-2.313,7.625-2.313s2.5-1.188,2.75-1.313s2.313-1.313,2.625-1.375s2.25-1.375,2.25-1.375
		l0.75-0.313l0.438-2.313l0.063-1.813C54.855,59.136,54.667,56.949,54.542,56.761z"/>
	<path fill="#FFFFFF" d="M41.23,32.678l8.625,0.458l-0.625-2.5c0,0-2.917-2.167-3.042-2.167s-2.125,0.417-2.125,0.417
		s-1.688,1.187-1.875,1.417s-0.375,0.458-0.458,0.646s-0.625,1.708-0.625,1.708L41.23,32.678z"/>
	<path fill="#FFFFFF" d="M30.584,21.657l4.688,6.229c0,0,1.375-0.25,1.438-0.271s-0.021-2.438-0.125-2.646s-1.458-2.208-1.688-2.5
		s-1.104-1.208-1.271-1.313s-0.875-0.167-0.958-0.167s-1.979,0.646-1.979,0.646"/>
	<path fill="none" stroke="#000000" stroke-width="0.75" d="M80.209,42.824c0,0,7.813,4.5,11.563,8s5.188,4.75,7.125,7.813
		s3.625,5.5,4.625,6.813s1.938,2.188,1.938,2.188"/>
	<path fill="none" stroke="#000000" stroke-width="0.75" d="M31.896,68.886c0,0,0,0,0.688,0.375s4.813,0.563,6.938,0.25
		s5.563-1.438,7.375-2.25s7.313-4.375,7.313-4.375s0.313-1.063,0.438-2.25s-0.063-2.875-0.375-4.375s-1.25-2.813-2.625-4.063
		s-3.813-2.313-6.938-3s-6.25,2.313-7.5,3.125s-5.375,1.688-5.375,1.688s-2.125,0.688-3.938,0.75s-4.938,0-5.125-0.063"/>
	<path fill="none" stroke="#000000" stroke-width="0.75" d="M32.396,68.011c0,0-1.688,0.188-1.875,1s-0.063,3.313-0.063,3.688
		s0.563,0.438,1.563,1.125s4.875,1.313,7.188,0.375s5.75-2.188,8.5-3.75s9.313-4.813,11.813-6.563s4.938-3.875,4.938-3.875
		s4.125,3.125,5.813,4.75s3.092,4.044,3.896,5.354c0.456,0.743,0.366,0.698,0.292,0.354"/>
	<path fill="none" stroke="#000000" stroke-width="0.75" d="M22.396,54.324c1.165,0.999,2.331,1.998,3.496,2.996"/>
	<polyline fill="#3D352C" points="54.865,61.636 54.49,63.667 55.615,62.699 55.459,61.417 	"/>
	<path fill="#3D352C" d="M58.99,63.48c0,0,0.063,0.281,1.031-0.406s3.219-2.438,3.438-2.656s1.5-2.031,1.688-2.219
		s-3,2.063-3.156,2.094s-3.406,3.188-3.406,3.188"/>
	<polygon fill="#B2B2B2" points="65.49,59.261 64.615,59.761 65.959,60.699 66.428,60.261 	"/>
	<path fill="#FF0000" d="M50.146,55.449l-0.563,5.875l1.063,0.938l1.125-0.25l2.25,0.188c0,0,0,0.625,0.188-0.688
		s0.031-2.813-0.125-3.969s-0.375-2.125-0.594-2.531"/>
	<path fill="#FF0000" d="M52.959,55.105l0.469-0.313c0,0,0.531,1.438,0.656,2.25s0.281,2.063,0.281,2.594s-0.125,2.063-0.125,2.063
		l-0.813-0.281c0,0-0.719-1.813-0.75-1.906"/>
	<path fill="#FFFFFF" d="M19.313,53.303c0,0,0.041,0.045,0.114,0.127c0.784,0.873,5.351,5.946,5.427,5.832
		c0.083-0.125,1.75-2.208,1.75-2.208s3.25,0.542,3.292,0.667s3.75-1.042,3.75-1.042l2.333,1.208l1.75-2.833l3.167-0.333l0.667-1.458
		l1.958,0.167l0.167-1.125l0.708,0.583l0.917-3.083c0,0-2.25-0.333-2.833-0.083s-6.25,4.542-6.25,4.542l-3.958,1.292l-3.042,0.125
		h-2.792c0,0-1.042-0.583-1.417-0.542s-3.416-0.75-5.458-1.792"/>
	<path fill="none" stroke="#020202" stroke-width="0.75" d="M19.146,53.053"/>
	<polyline fill="none" stroke="#020202" stroke-width="0.75" points="18.396,52.553 24.73,59.22 26.23,56.97 29.98,57.803 
		33.48,56.803 35.896,57.886 37.646,54.97 40.98,55.053 41.563,53.303 44.396,53.636 45.813,49.47 	"/>
	<path fill="none" stroke="#020202" stroke-width="0.75" d="M33.23,64.47c0,0,1-1.083,1.833-1.833s2-2.583,2.583-3.667
		s1.5-3.667,1.5-3.667"/>
	<path fill="none" stroke="#020202" stroke-width="0.75" d="M31.896,67.886c-0.083-0.25,0.333-4.083,0.333-4.083l3.833,3.167
		l1.25-1.667l1.417,1.583l1.917-2.833l3.417,1.083l1.583-2.5l3.083,1l2.167-1.583h3.5"/>
	<path fill="#020202" d="M54.563,54.428c0,0-1.959,0.75-2.542,1.542s-0.916,1.333-1.083,2.5s-0.083,2.5-0.083,2.5l0.042,1.083
		l-1.167,0.833l-1,0.75l-3.083-1l-1.583,2.5l-3.167-1.167l-2.167,2.917l-1.417-1.583l-1.261,1.271l-2.5-2.031
		c0,0,1.188-1.344,1.469-1.656s1.125-1.031,1.438-1.594s2.031-3.719,2.156-4s0.563-1.438,0.656-1.625s0.281-0.531,0.281-0.531
		l1.656-0.094l0.563-1.531l2.719,0.25c0,0,1.344-3.875,1.375-3.969s4.125,1.313,4.531,1.656s1.625,1.063,2.063,1.688
		s1.031,1.688,1.031,1.688"/>
	<line fill="none" stroke="#000000" stroke-width="0.75" x1="31.896" y1="67.511" x2="32.605" y2="69.178"/>
</g>
<g id="frame_4">
	<path fill="#B2B2B2" d="M67.568,62.574l-0.266,0.781c0,0,6.531,6.531,6.578,6.609s0.234-1.719,0.172-1.828
		s-1.016-2.281-1.266-2.609s-1.984-1.922-2.234-2.078"/>
	<path fill="#FFFFFF" d="M147.813,91.928c-0.438-0.438-28-8.813-28-8.813l-12.125-11.688l-1.125-2.125L105,67.616
		c0,0-1.236-1.929-1.508-2.484c-0.999-1.13-1.89-2.352-2.561-3.708c-0.07-0.142-0.086-0.274-0.081-0.398
		c-0.102-0.162-0.197-0.327-0.294-0.491c-0.125-0.025-0.246-0.075-0.344-0.172c-0.069-0.069-0.14-0.139-0.209-0.208
		c-0.184-0.183-0.231-0.392-0.201-0.588c-0.92-1.887-2.704-3.215-4.09-4.746c-0.143-0.157-0.19-0.331-0.188-0.499
		c-0.126-0.094-0.246-0.196-0.373-0.287c-0.53-0.377-1.07-0.762-1.434-1.302c-0.913,0.224-1.637,0.403-1.781,0.445
		c-0.438,0.125-6.625,3.063-6.625,3.063v0.438c-0.75,0.75-5.25,20.5-5.25,20.5s2.5,10.5,2.25,11.75s2.75,13.5,3,14.25
		s4.5,6.5,5,7.25s4,6.5,4.75,7s1.125,2.375,1.125,2.375l1.25,3.75l1.938,5.75l0.563,2.5l1.563,5.313l0.375,4.375l0.313,5.125
		l0.063,4.125l0.063,5.75l-0.75,6.438c0,0-0.875,5.875-0.938,6.063S100,172.678,100,172.678l-0.438,3.375
		c0,0-0.563,1.813-0.625,2.063s-0.25,1.688-0.313,2.063s-0.563,2.25-0.563,2.25l-5.438,2l-0.563,1.375l-0.563,1.188l-0.688,0.938
		l-0.313,1.438c0,0,0.438,0.188,0.688,0.188s2.188,0.375,2.188,0.375h1.063l0.688,0.25l2.125,0.313c0,0,0.438-0.063,0.375,0.125
		s0.25,0.5,0.25,0.5s7.188-0.125,7.375-0.188s3.5-0.313,3.5-0.313l2.438-0.75l1.063-0.938l0.813-1.688v-1.5l-0.813-5.063
		l-0.563-6.875l-0.563-6.438l-0.625-9.125v-5.625l0.375-5.5l0.625-6.375l1.313-8l3.25-14.813c0,0,5.375-0.688,5.688-1.063
		s6.125-5.938,6.125-5.938s2.438-2.313,3.438-3.313s11.813-8.188,12.188-8.5s5.625-2.5,5.625-2.5S148.25,92.366,147.813,91.928z"/>
	<path fill="#FFFFFF" d="M159.063,114.553c0,0,8.125,10.75,8.5,11s13.125,4.75,13.75,5.125s8.5,1.75,8.875,1.875
		s3.375,2.125,3.375,2.125s0,11.25-0.125,11.625s-1,12-1,12.75s0.5,9.625,0,9.875s-7,5.5-7,5.5l-2.5,2.25l-0.875,0.75l-1.625,2.813
		l-1.063,1.25l-1.063,0.938l-1.75,1.313l-2.438,1.563l-1.313,1.188l-0.625,1.375v1.625c0,0,0.313,0.688,0.5,0.688
		s1.813,0.125,1.813,0.125l0.5,0.188l-0.125,0.625c0,0,0.563,0.5,0.813,0.5s1.875-0.063,1.875-0.063l1,0.063l1.25,0.125l3.125,0.25
		c0,0,2.5-0.438,2.75-0.438s1.75-0.5,1.938-0.563s1.875-0.688,1.875-0.688l1.438-0.938l1.063-1.063l0.75-1.438l1.688-3.25
		l2.125-5.688l1.125-3.625l1.5-6.75l0.938-4.125l0.813-4.438l0.313-4.625l0.063-8.563l-0.563-7.5v-4.5l-0.875-7.375l-0.5-1.563
		l-1.5-0.25l-2.688-1.375l-2.438-1.875c0,0-2.313-1.5-2.688-1.5s-14.188-6-14.875-6.25s-11.938,0-11.625,0s-4.5,0.25-4.688,0.375"/>
	<path fill="#B2B2B2" d="M98.313,160.303c0.125-2.438-0.25-14.625-0.25-14.625s1.375-8.5,1.438-8.688s1.188-2.625,1.188-2.625
		l-2.188-8.188l-2.688-8.25l-2.563-8.563c0,0-0.938-0.875-2.438-3.688s-4.313-10.438-5.375-15.5s-0.625-11.5-0.5-14.813
		c0.077-2.046,0.395-4.95,0.964-7.682c-1.229-1.407-2.475-2.799-3.723-4.189c-1.085-1.208-2.092-2.543-3.153-3.802
		c-0.496,1.192-2.016,4.863-2.588,6.423c-0.688,1.875-2.438,9.188-2.75,10.688S73,80.553,72.75,82.178s-0.5,3.938-0.438,6
		s0.063,2.75,0.313,4.625s0.688,4.688,1.375,6.375s2.063,4.688,3.875,7.5s3.375,4.75,4.125,5.75s0.875,2.125,0.875,2.125
		l0.813,3.688c0,0,1.25,5.188,2,7.063s1.313,3.563,2.063,6.313s1.5,5.5,1.75,7.25s0.625,6.625,0.625,8s0.188,5.188,0.063,7.25
		s-0.125,6.188-0.438,8.063s-0.813,4.75-1.25,6.625s-0.563,1.563-1.063,3.813s-0.688,2.75-1,4s-0.625,2.875-0.625,2.875L83,180.678
		l-2.75,1.563l-1.313,1.75l-0.188,1.25l0.688,1c0,0,1.125,0.25,1.313,0.25s1.375,0.063,1.375,0.063l0.438-0.125l-0.438,0.5
		l3.188,0.063v0.5l2.813,0.188h2.188l0.5-0.125l0.938-2.188c0,0,1.5-1.313,3.063-1.75s3.063-0.938,3.063-0.938l1.625-7.688
		l0.563-3.813C100.063,171.178,98.188,162.741,98.313,160.303z"/>
	<path fill="#B2B2B2" d="M108.979,107.761c0,0-1.167,2.668-1.5,4.584s-0.666,5.75,0.667,7.833s2.5,3.583,2.5,3.583
		s-1.501,9.417-2.167,14.417s-1.249,9.334-1.416,14s-0.333,7,0.667,10.75s3.416,8.083,3.416,8.083s-0.332-7.583-0.416-7.833
		s-0.25-5.917-0.25-5.917s0.334-8.167,0.25-8.5s0.833-8.083,0.833-8.083s2.166-10.167,2.083-10.5s0.917-4.417,0.917-4.417
		l2.583-1.083l2.75-1.667c0,0,6.666-5.5,6.833-5.75s6.833-6,7.75-7s4.501-4.833,4.501-4.833l3.333-2.5l2.167-1.667l1.583-0.75
		l1.833-0.75l0.5-0.167l-0.25-2.583l0.167-2c0,0-1.501-0.667-5.417,2s-3.333,2.084-8.083,5.417s-11.083,9.5-13.75,11.333
		s-4.667,3-4.667,3"/>
	<path fill="#B2B2B2" d="M148.563,98.678l-0.167,3.666c0,0,0.334,4.75,1.167,6.667s3.583,5.666,5.083,7.583s4.5,5.167,4.5,5.167
		s-2-0.5-2.5-0.583s-6.751-2.583-7.167-2.75s-6.249-1.583-6.666-1.75s-2.084-1.749-2.334-1.833s5.834,7.084,12.167,10.25
		s8.416,3.834,9.083,4s4.417,0.333,4.417,0.333l2.917,0.583l2.666,1.583l2.667,1c0,0,0.583,2.751,1.083,6.334
		s0.751,6.999,0.751,11.333s0.415,7.001-0.001,10.334s-0.75,7.25-3.75,10.333s-5.166,4.333-6.916,5.083s-3.417,0.917-3.417,0.917
		l-1.5,3.333c0,0-3.999,1.666-4.666,2.583s-2.667,3.167-2.667,3.167l-0.25,1.333l1.333,0.334h1.25l-0.083,0.583l2.833,0.667
		l1.584,0.166c0,0-0.417,0.584,0.083,0.667s3.167,0.417,3.167,0.417l1.916-0.084l2-0.75l1.834-0.833l2.333-1l1.583-1.667
		l0.917-1.333c0,0,2.417-7,3-9.5s2.667-10.833,3.25-12.75s0.999-2.5,1.166-7.25s-0.084-12.832-0.25-13.916s-1.417-6.667-1.5-6.917
		s8,1,8,1s1.251,7.75,1.084,12.5s-0.333,7.999-0.75,10.333s-1.001,5.918-1.667,8.084s-1.166,3.834-1.916,5.25
		s-0.75,2.416-1.167,3.666s-1.333,2.5-1.333,2.5s2.249,0.666,4.666-0.75s5.5-3.75,6.667-6.583s2.75-6.917,2.75-10.5
		s0.082-11.083-0.834-17.833s-1.916-11.834-1.916-11.834s-7.333,0.668-10.75-0.166s-11.751-4.75-15.167-7.667
		s-7.583-8.334-7.583-8.334"/>
	<path fill="#B2B2B2" d="M153.938,124.304c0,0,5.208,6.083,5.458,6.333s5.042,0.667,5.792,0.875s3.709,0.042,3.917,0.125
		s0.5-0.209,0.625-0.292s0.166-0.916,0.083-1.041s-3-2.376-3.25-2.459s-10.166-2.958-10.333-2.958s-2.125-0.75-2.125-0.75"/>
	<path fill="#7C7C7C" d="M98.229,125.178c0,0-0.022,0.119-0.063,0.339c-0.352,1.904-2.082,11.37-2.604,16.078
		c-0.583,5.25-1.334,9.749-1,13.999s-0.083,5.168,0.917,7.834s4,8.666,4,8.666l0.75-0.75l-0.917-2.75l-0.916-5.833v-9.833v-7.334
		l0.083-3.416l1.083-4.917l1-2.583l-2.167-9.917"/>
	<path fill="#7C7C7C" d="M133.063,111.344c0,0,1.416,3.251,2.083,4.334s2.667,4.417,3.667,5.25s4.75,4.75,5.75,5.333
		s4.332,2.749,5.666,3.583s4.501,2.918,5.334,3.334s4.499,0.75,5.416,1s5.167,0.75,5.167,0.75l2.833,0.333
		c0,0,0.334,9.833,0.417,12.333s-0.083,5.084-0.333,6.834s-1.166,5.75-1.5,7.083s-0.416,3.333-1,4.833s-1.417,3.334-1.917,4.834
		s-2.5,5.5-2.5,5.5s3.667-0.751,4-0.834s2.917-1.25,4-2.583s3.917-4.916,4.667-7.833s1.166-8.417,1.083-11.417s0.333-9.833-0.167-13
		s-1-6.75-1-6.75l-0.5-2.083l-4.333-1.833c0,0-6.833-0.667-9.25-1.417s-6.667-3.25-8.167-4.25s-3.749-2.333-6.416-4.833"/>
	<path fill="#574C3F" d="M105.979,68.845c0,0-1.25,3.583-1.5,5.75s-1.167,7.167-0.5,12.083s1.667,7.167,3.417,10.5
		s5.166,6.667,8.583,7.167s3.916,0.166,8-1.584s5.334-2.75,8.834-4.5s6.667-3.5,8.667-3.583s6.583,0.167,6.583,0.167l0.416,4.083
		c0,0,0.334,1.25,1.834,4.667s3.916,6.583,6.333,9s4.666,4.5,9,6.083s6.167,2.75,13.25,2.917s13.583,0,13.583,0l-3.166-3.75
		l-1.917-2.334l-1.667-2.333l-1.833-3l-0.833-2.417l-1-2.5l-1.5-4.083l-0.667-2.166l-0.666-2.5l-0.584-2.084l-0.416-0.916
		l3.249,0.833l2.834,0.583l2.416,0.5l4.25,0.167l4.334,0.166h4.166l5.417-2l4.75-2.416l4.167-2.834l2.333-2.749l1.917-4.167
		l0.5-2.917l-0.25-4.417l-1.084-5.75l-1.25-3.75l-2-5l-2.25-3.75l-1.666-3.167l-2.334-2.833c0,0,0.918,4.583,1.334,6.333
		s1.25,4.5,1.25,4.5l0.25,2.75l0.5,3.25c0,0,0.25,2.5,0.25,2.75s0.083,3.25,0.083,3.25l-0.166,3.5l-0.917,2.667l-1.167,1.5
		l-0.833,1.25l-1,1.083l-1.167,1.25l-3.416,1.667l-3.084,0.333l-3.333,0.25l-5.75-0.333l-3.333-0.584l-3.917-1l-5.25-1.5
		l-2.167-1.417l-1.25-0.583l-1.25-4l-2-3.417l-3.083-3.667l-4.334-2.333l-3.666-1h-4.167l-4.166,0.417l-5.584,0.917l-5.75,1.25
		l-9.75,1.917l-7.75,1.5h-5.417h-2.666l-2.417-0.167l-3.333-0.75l-1.667-1.417L105.979,68.845z"/>
	<path fill="#3D352C" d="M135.083,109.511c0,0,1.688,3.75,4.625,5.938s5.5,4,7.938,4.938s4.625,1.188,6.375,1.313
		s4.813,0.125,4.813,0.125s-2.75-2.438-3.313-3.063s-3.75-4.875-3.75-4.875l-1.063-1.938l-0.813-1.625l-0.688-1.688l-0.688-2.688
		l-0.5-3.063l-0.063-1.188l-0.063-1l0.063-0.875l-1.313,0.188l-2.313,1.375l-2.063,1.25l-1.813,1.375l-1,1.25l-1.438,1.125
		l-2.063,1.813L135.083,109.511z"/>
	<path fill="none" stroke="#020202" stroke-width="0.75" d="M80.146,56.345"/>
	<path fill="none" stroke="#020202" stroke-width="0.75" d="M116.5,116.116c0,0-0.625,2.313-1.063,4.813s-1.688,7.438-2.5,11.813
		s-1.25,6.125-1.75,11s-0.625,6.938-0.688,11.063s0.438,11.25,0.75,15.125s0.813,7.5,1,9.563s0.938,5.188,0.875,6.938
		s-0.375,1.938-1.5,2.938s-3.75,1.438-6.313,1.5s-7.813,0.188-7.813,0.188v-0.688H94l0.125-0.688l-3.813-0.125
		c0,0,0.375-2.438,1.625-4s6-2.938,6-2.938s1.25-6.313,2.125-11.188s1.563-7.625,1.938-12.063s0.313-13.438-0.188-18.938
		s-1.938-8.25-2.563-11.063s-1.188-4.688-1.188-4.688s-0.333-0.166-1.333-0.666s-7-4.167-11.083-7.834s-7.917-8.833-10.334-13.666
		s-2.666-9.334-2.833-13.75s1.08-13.409,2.583-18"/>
	<path fill="none" stroke="#020202" stroke-width="0.75" d="M65.188,60.845"/>
	<path fill="none" stroke="#020202" stroke-width="0.75" d="M114.313,126.011c0,0,4.25-1.582,7.25-4.166s5.916-5.251,9.833-9.001
		s7.668-7.499,10.334-9.666s4.249-3.083,5.166-3.25s1.25-0.167,1.25-0.167s-0.084,3.917,0.5,6.167s2.416,6.75,4.333,9.25
		s5.25,6.582,9.667,9.916s8.5,7,15.75,8.5s9.333,1.834,9.333,1.834s1,12.667,0.667,17.75s-2.083,13.167-4,17.75s-2.25,6.416-4,9.166
		s-3.001,3.168-4.667,4.334s-3.082,2.082-3.416,3.166s-0.25,2.084,0.25,2.417s2.416,0.417,2.416,0.417s-0.416,0.75-0.083,1.083
		s3.334,0.167,3.667,0.25s0.333,0.083,0.333,0.083s2.999,0.5,5.333,0.167s5.416-1.749,7.25-3.333s4.917-10.168,5.917-13.584
		s2.25-8.916,2.917-12.333s0.834-8.084,0.917-12.25s-0.417-13.834-0.667-17.417s-1.25-8-1.25-8s-3.668-0.583-6.584-3.583
		s-6.5-6.666-8.5-11.083s-3.499-8.333-4.499-11.5s-1.667-6.5-2.584-10.25s-4.001-12.333-5.667-14.917s-4-5.25-8.083-6.333
		s-7.999-0.917-12.916-0.167s-11.25,2.167-17.417,3.417s-9.916,2.25-14.833,2s-8.333-0.167-11.5-3.167s-4.019-5.419-6.333-8.625
		c-2.708-3.75-4.291-5.792-6.416-7.708c-2.611-2.355-3.792-3.125-3.792-3.125"/>
	<path fill="none" stroke="#020202" stroke-width="0.75" d="M82.813,113.241c0,0,1.563,8.75,3.125,12.688s2.688,9.563,3.438,12.563
		s0.688,6.75,0.75,10.875s0.125,7.375-0.375,12.125s-0.813,4.875-1.75,9.438s-2.375,8.625-2.375,8.625s-3.625,1.375-4.813,2.375
		s-1.688,2.125-1.813,2.75s-0.125,0.625-0.125,0.625s0.375,1,1.063,1.063s2.625,0.125,2.625,0.125l-0.438,0.5l3.563,0.063
		l-0.438,0.625h5.625"/>
	<path fill="none" stroke="#020202" stroke-width="0.75" d="M100.063,171.428c0,0-1.625-5.188-1.688-9.688
		s0.063-13.625,0.063-16.563s0.188-2.813,0.813-6.25s1.375-4.438,1.375-4.438"/>
	<path fill="none" stroke="#020202" stroke-width="0.75" d="M132.979,111.511c0,0,3.001,6.999,7.334,11.083
		s13.25,10.084,17.25,11.167s11.25,1.583,11.25,1.583s0.584,14.5,0.25,17.75s-1.834,11.083-3.167,14.75s-3.332,7.917-4.166,9.917
		s-1.084,2.584-1.084,2.584s-3.416,1.166-4.416,2.166s-2.918,3.416-3.084,4s0.167,1.25,0.167,1.25l2.583,0.084l-0.083,0.666
		c0,0,2.75,0.667,3.25,0.667s0.833,0,0.833,0l-0.166,0.667c0,0,4.834,0.417,6,0s3.332-1.084,4.916-2.167s2.584-1.916,3.167-3.083
		s1.333-2.834,2.833-8.834s3.834-14.499,4.167-16.666s0.249-12.75,0.333-16.167s-1.583-8.917-1.583-8.917"/>
	<path fill="none" stroke="#020202" stroke-width="0.75" d="M174.563,81.178c0,0,7,3.625,14.25,4.5s13.75,1.5,17.75-2
		s5.625-7.625,4.625-15.875s-3.625-18-3.625-18s7,9.125,9.125,17.25s3.25,16-2.125,20.625s-10.875,7.75-16.5,8.125
		s-16.125-1.25-17.125-1.5s-2.625-0.75-2.625-0.75"/>
	<path fill="#020202" d="M148.469,99.741c0,0-0.188-7.719,0.344-9.938s0.688-2.625,0.688-2.625s-1.469,3.188-1.625,5.5
		s-0.156,7.5-0.156,7.5"/>
	<polyline fill="#020202" points="98.313,124.512 90.521,100.97 97.688,124.887 	"/>
	<path fill="#020202" d="M116.813,116.22c0,0-2.583-2.209-4.25-4s-3.543-4.542-3.834-6s-0.291-3.375-0.291-3.375
		s-1.084,3.125,0.208,5.25s6.291,7.834,6.833,8.459s0.542,0.625,0.542,0.625"/>
	<path fill="#050505" d="M81.938,186.846c0.084-0.167,0.876-2.584,2.334-3.709s1.625-1.208,1.625-1.208s-3.042,4.708-3.167,4.958"/>
	<path fill="#050505" d="M85.397,186.762c0,0,1.75-3.041,2.75-3.958s1-0.917,1-0.917l-3.375,5.792"/>
	<path fill="#050505" d="M93.855,189.554c0,0,0.458-1.584,1.458-2.834s1.375-1.416,1.375-1.416s-2.334,4.625-2.417,5"/>
	<path fill="#050505" d="M97.355,190.304c0,0,0.959-3.126,1.875-4.084s1.166-1.166,1.166-1.166l-2.333,6"/>
	<path fill="#020202" d="M155.604,187.721c0,0,0.25-1.938,0.958-2.979s1.917-1.792,1.917-1.792s-2.126,4.626-2.209,5.084
		s-0.166,0.521-0.166,0.521"/>
	<path fill="#020202" d="M159.5,189.096c-0.021-0.063,0.604-3.666,1.625-4.625s1.521-1.042,1.521-1.042s-1.146,1.396-1.708,2.667
		s-0.625,3.438-0.625,3.438"/>
	<path fill="#020202" d="M174.813,190.284c0,0-0.042-1.958,1.333-3.313s1.375-1.354,1.375-1.354s-2.583,5.374-2.396,5.771"/>
	<path fill="#020202" d="M178.625,191.659c0,0-0.209-3.146,0.604-4.313s2.5-2.375,2.5-2.375s-1.167,1.688-1.688,2.625
		s-0.791,2.604-0.833,3.313s0,0.854,0,0.854"/>
	<path fill="#FFFFFF" d="M96.229,57.678c-0.25-0.25-1.916-4.417-1.916-4.417l-6.001-4.667l-2.666-1.75c0,0-1.334-1.083-1.584-1.333
		s-1.917-1.583-2.25-1.75s-3.333-3.417-3.583-3.667s-1.333-1.417-2-1.75s-0.667-0.333-0.667-0.333l-3.083,8.917l-3.083,5.417
		l0.833-0.333c0,0,5.084,6.559,8.711,11.254c0.955-0.896,2.733-0.919,3.341,0.49c0.212,0.155,0.41,0.359,0.585,0.618
		c0.359,0.532,0.687,1.098,0.978,1.683c0.009,0.012,0.017,0.024,0.025,0.036c0.745,1.039,1.292,2.302,1.366,3.585
		c0.003,0.057-0.008,0.11-0.011,0.165c1.653,0.888,3.437,1.55,3.922,1.502c0.833-0.083,6.251-7.583,6.167-7.833
		S96.479,57.928,96.229,57.678z"/>
	<path fill="#B2B2B2" d="M82.563,64.262c0,0-7.833-9.583-10.25-11.333s-6.917,3.667-6.917,3.667l-1.417,1.583l0.75,1.333l0.667,1
		l1.417,1.667l1.833,1.667l1.75,1.583l1.583,1.667l1,1.417l2,2.667l1,0.833l3.917-0.917"/>
	<path fill="none" stroke="#000000" stroke-width="0.75" d="M80.542,43.616c0,0,7.813,4.5,11.563,8s5.188,4.75,7.125,7.813
		s3.625,5.5,4.625,6.813s1.938,2.188,1.938,2.188"/>
	<path fill="none" stroke="#000000" stroke-width="0.75" d="M64.646,60.386C67.642,64.363,64.529,60.507,64.646,60.386
		c2.996,3.977,7.006,7.024,10.146,10.875"/>
	
		<ellipse transform="matrix(-0.9999 -0.0125 0.0125 -0.9999 89.0945 95.3931)" fill="#FFFFFF" cx="44.844" cy="47.419" rx="10.5" ry="9.813"/>
	
		<ellipse transform="matrix(0.9999 0.0125 -0.0125 0.9999 0.5541 -0.3697)" fill="#FFFFFF" cx="29.853" cy="44.138" rx="10.156" ry="8.282"/>
	<path fill="#FFFFFF" d="M32.209,38.135c0.065-0.186,7.94-5.151,8.19-5.148c0.25,0.003,6.63-0.417,8.128-0.212
		c1.497,0.208,3.868,0.55,4.046,1.301c0.178,0.753-3.014,6.025-3.209,6.711c-0.195,0.686-3.727,3.204-3.727,3.204l-8.458,11.583
		c0,0-4.715,7.19-4.596,7.756c0.117,0.563,0.581,3.445,0.444,4.381c-0.137,0.936-1.618,4.48-1.618,4.48l-1.456,1.357l-0.817,0.427
		l-5.076,1.063l-8.06-0.289l-3.182-0.415l-2.304-0.716l-2.183-0.465l-0.93-0.638l-0.746-0.383l-2.239-0.904l-2.477-1.78
		l-0.854-1.699l-0.711-3.133l0.141-1.312l0.768-1.365L2.42,61.14l1.88-0.413l1.503-0.169l1.954-1.351l6.929-4.29
		c0,0,6.98-3.413,7.169-3.473c0.188-0.061,1.634-0.73,1.634-0.73l6.004-5.362l3.215-7.21"/>
	<path fill="#574C3F" d="M29.17,36.139c0,0,1.662,0.438,2.325,0.695c0.664,0.261,1.985,1.276,1.985,1.276l0.497,0.256
		c0,0,0.755-0.407,2.271-1.639c1.515-1.231,2.771-1.798,5.111-2.269s5.589-0.347,6.669-0.167c1.082,0.18,1.662,0.438,1.662,0.438
		l-0.461,3.578l2.643,1.865l1.985,1.359c0,0,0.81,1.843,0.971,2.178c0.163,0.335,0.23,1.504,0.395,1.756
		c0.163,0.252,0.4,1.172,0.48,1.507c0.081,0.333,0.067,1.25-0.022,1.832c-0.088,0.584-0.433,1.414-0.521,1.662
		c-0.085,0.249-0.515,1.161-0.6,1.409c-0.087,0.248-0.765,1.24-0.765,1.24l-2.781,2.466l-2.011,0.809l-2.59,0.55l-2.001,0.142
		l-3.741-0.713l-1.576-0.77c0,0-1.156-0.849-1.403-1.102c-0.247-0.252-1.072-1.013-1.32-1.099c-0.249-0.086-1.068-1.181-1.068-1.181
		s-1.525,1.983-2.713,3.634c-1.186,1.652-1.207,3.235-1.318,5.483c-0.111,2.249,0.279,4.338,0.261,5.754
		c-0.017,1.417,0.556,2.256-0.462,3.744c-1.019,1.488-2.627,3.385-2.627,3.385l10.303-4.123c0,0,7.471-4.323,8.477-4.811
		c1.007-0.487,8.238-5.563,8.91-6.055c0.674-0.493,7.946-8.986,7.694-8.822c-0.253,0.165-1.316-1.516-1.391-2.1
		c-0.076-0.585,2.816-5.299,2.816-5.299s2.084-0.057,2.42-0.219c0.336-0.163,1.594-0.814,1.594-0.814s1.909,0.69,3.069,1.204
		c1.158,0.514,5.986,0.993,5.986,0.993l1.918-0.143l4.67-0.192l2.588-0.216l2.502-0.302l2.76-0.633l3.262-0.96l1.172-0.484
		l-3.709-3.296l-3.467-2.627l-3.391-2.125l-4.219-2.555l-4.885-2.477l-3.482-1.458l-0.828-0.595l2.191-1.974l1.52-1.397l-4.66-0.641
		l-4.824-0.81l-7.498-0.095l-4.421,0.279l-3.165-0.124l-4.184,1.366l-3.607,1.872l-2.192,2.056l-1.855,1.811l-0.936,1.405
		l-3.016,1.296l-4.115,2.449L29.17,36.139z"/>
	<path fill="#3D352C" d="M63.887,39.093c0,0-1.546-1.269-1.857-1.522c-0.309-0.255-0.432-0.507-0.432-0.507
		s-2.165,8.287-4.464,12.258c-2.299,3.971-3.385,5.77-6.167,8.423c-2.784,2.652-8.032,7.464-11.186,9.737
		c-3.154,2.273-8.952,6.139-8.952,6.139s5.651-2.118,6.344-2.547c0.678-0.419,0.683-0.424,3.961-1.887l3.453-1.208l2.007-0.538
		l3.055,0.539c0,0,3.432,0.417,3.745,0.421c0.313,0.003,2.748,0.222,2.748,0.222s2.625,0.033,2.813,0.035
		c0.188,0.003,2.064-0.224,2.315-0.283s1.826-1.04,1.826-1.04l1.892-1.351l1.842-2.354l0.829-1.364l0.899-1.803l0.836-1.987
		l0.981-3.427l0.418-3.557l-0.02-3.438L70.5,45.176l-0.544-1.569l-0.483-1.381l-0.12-0.439l-1.985-1.15l-1.678-0.646l-1.551-1.019
		L63.887,39.093z"/>
	
		<ellipse transform="matrix(-0.9999 -0.0125 0.0125 -0.9999 75.6495 95.3938)" fill="#20A0FF" cx="38.124" cy="47.46" rx="3.781" ry="3.749"/>
	
		<ellipse transform="matrix(-0.9999 -0.0131 0.0131 -0.9999 74.6318 95.0191)" fill="#004774" cx="37.626" cy="47.266" rx="1.531" ry="1.501"/>
	
		<ellipse transform="matrix(-0.9999 -0.0125 0.0125 -0.9999 46.3189 89.5932)" fill="#20A0FF" cx="23.439" cy="44.652" rx="3.125" ry="2.999"/>
	
		<ellipse transform="matrix(-0.9999 -0.0121 0.0121 -0.9999 45.7803 89.4458)" fill="#004774" cx="23.16" cy="44.585" rx="1.094" ry="1.063"/>
	
		<ellipse transform="matrix(-0.9999 -0.0122 0.0122 -0.9999 78.432 91.2452)" fill="#FFFFFF" cx="39.494" cy="45.383" rx="1" ry="0.905"/>
	
		<ellipse transform="matrix(-0.9999 -0.0126 0.0126 -0.9999 71.2167 98.4374)" fill="#FFFFFF" cx="35.918" cy="48.995" rx="0.719" ry="0.687"/>
	
		<ellipse transform="matrix(-0.9999 -0.012 0.012 -0.9999 48.7683 86.8126)" fill="#FFFFFF" cx="24.645" cy="43.26" rx="0.813" ry="0.782"/>
	
		<ellipse transform="matrix(-0.9999 -0.013 0.013 -0.9999 43.2993 92.6721)" fill="#FFFFFF" cx="21.951" cy="46.195" rx="0.656" ry="0.624"/>
	<path fill="none" stroke="#020202" stroke-width="0.75" d="M28.67,36.216c0,0,6.815-5.229,10.01-5.751
		c3.194-0.523,10.135-0.748,13.192-0.273c3.055,0.475,6.174,1.077,6.174,1.077s2.534-2.718,4.42-3.633
		c1.887-0.914,8.023-1.775,10.388-1.182c2.371,0.592,6.6,2.146,13.238,6.353c6.635,4.208,11.332,8.391,11.332,8.391
		s-6.775,2.041-8.404,2.271c-1.627,0.23-7.072,0.725-11.133,0.549s-6.67-1.334-7.542-1.594c-0.871-0.262-0.871-0.262-0.871-0.262
		s1.081,3.453,1.181,5.578c0.098,2.127,0.033,7.189-1.067,10.239c-1.101,3.048-2.569,5.592-4.219,7.448
		c-1.647,1.854-1.778,2.29-5.037,3s-3.942,0.389-6.565,0.229c-2.624-0.156-5.738-1.07-7.238-1.026
		c-1.5,0.043-3.07,0.586-6.089,1.986c-3.018,1.4-2.392,1.346-7.414,3.096s-6.653,2.229-10.405,2.37
		c-3.751,0.141-6.065,0.112-8.808-0.421c-2.743-0.534-5.171-1.314-5.916-1.762c-0.744-0.446-0.929-0.698-0.929-0.698"/>
	<path fill="none" stroke="#020202" stroke-width="0.75" d="M5.209,60.884c5.762-4.167,11.867-7.139,18.28-10.17"/>
	<path fill="none" stroke="#020202" stroke-width="0.75" d="M1.533,62.066c0,0-0.242,0.223-0.504,0.6
		c-0.323,0.462-0.677,1.157-0.652,1.95c0.044,1.438,0.389,3.88,2.309,5.279c1.92,1.399,3.53,2.606,5.786,2.134
		c2.256-0.472,3.889-1.078,5.784-2.677c1.895-1.604,3.096-2.65,3.056-4.463c-0.04-1.814-1.024-3.012-2.706-3.534
		c-1.682-0.521-9.932-0.499-10.933-0.448C2.672,60.956,2.1,61.699,1.533,62.066z"/>
	<path fill="#020202" d="M58.389,31.398c0,0-0.348,0.309-0.861,1.318c-0.513,1.01-0.513,1.01-0.513,1.01s0.155-2.264,1.194-3.002"/>
	<path fill="#020202" d="M69.75,42.728c0,0-3.388-1.573-4.966-2.937c-1.576-1.362-1.668-1.52-1.668-1.52s7.886,4.1,8.696,4.328"/>
	<path fill="#020202" d="M12.728,61.55c0,0-4.635,0.786-6.368,1.89c-1.733,1.103-2.398,1.846-2.131,2.973
		c0.267,1.129,0.211,0.596,1.348,2.174c1.137,1.576,3.051,3.445,3.051,3.445s4.239-1.604,4.9-2.033s3.737-3.924,3.779-4.704
		c0.04-0.781-0.215-2.909-0.342-2.754C16.838,62.695,14.548,60.854,12.728,61.55z"/>
	<path fill="#020202" d="M2.091,61.167c0,0-0.709,0.476-0.978,0.769c-0.27,0.293,0.136,0.331,0.136,0.331l0.552-0.385l0.572-0.758"
		/>
	
		<ellipse transform="matrix(-0.9999 -0.0125 0.0125 -0.9999 88.9703 95.3081)" fill="none" stroke="#020202" stroke-width="0.75" cx="44.782" cy="47.377" rx="10.75" ry="9.709"/>
	<path fill="none" stroke="#020202" stroke-width="0.75" d="M34.15,44.546c0.009-0.036,0.029-0.059,0.041-0.092
		c0.271-1.125,0.969-2.135,1.861-2.927c-1.137-3.003-4.131-5.187-7.716-5.231c-4.602-0.058-8.377,3.403-8.431,7.729
		c-0.054,4.326,3.633,7.879,8.235,7.936c2.388,0.031,4.537-0.903,6.074-2.397C33.694,47.966,33.877,45.842,34.15,44.546z"/>
	<path fill="none" stroke="#020202" stroke-width="0.75" d="M39.33,30.265c0,0,2.888-4.464,5.406-5.849
		c2.517-1.385,4.862-2.356,7.87-2.819c3.006-0.463,12.252-0.181,15.668-0.054c3.416,0.125,8.816,1.361,8.816,1.361l-4.234,3.55"/>
	<path fill="#F9F7F7" d="M48.771,62.667c0,0-2.641,0.422-4.172,1.875s-6.734,6.25-6.734,6.25l-0.453,0.313l3.797-0.641
		c0,0,3.359-0.781,3.406-0.813s3.609-0.891,3.656-0.906s4.188-0.047,4.281-0.078s3.063-0.031,3.063-0.031s0.578-0.375,0.563-0.438
		s-0.078-1.625-0.125-1.703s-0.328-0.672-0.5-0.75s-2.344-0.641-2.5-0.703s-4.203-2.375-4.203-2.375"/>
	<path fill="#FFFFFF" d="M34.975,49.709c1.758-0.969,7.496-4.136,7.39-4.136c-0.125,0-2.469-1.875-2.625-1.875
		s-3.594,0.938-3.719,1.031c-0.084,0.063-0.973,1.806-1.546,2.941c0.103,0.624,0.155,1.268,0.27,1.892
		C34.822,49.612,34.901,49.658,34.975,49.709z"/>
	<path fill="#FFFFFF" d="M39.74,43.011l-3.344,0.469l-1.141,1.125l-0.406,0.531c0,0-0.359,1-0.391,1.313s-0.063,0.938-0.047,1.25
		s0.078,1.016,0.141,1.188s0.391,0.188,0.391,0.188l0.328-0.859"/>
	<path fill="#FFFFFF" d="M39.6,42.652c-0.047,0-1.438,1.75-1.438,1.75s1.594-0.203,1.656-0.188s0.578-1.734,0.578-1.734"/>
	<path fill="#FFFFFF" d="M20.678,42.152l6.063,4.438l2.547-1.734l-1.328-3.641l-5.875-0.25c0,0-0.875,1.031-0.922,1.047"/>
	<path fill="none" stroke="#000000" stroke-width="0.75" d="M36.646,71.553c0,0,6.5-6,7.667-7s3.167-2,4.667-2.083
		s4.583-0.083,5.5,0.917s1.917,2.417,1.917,3.25s-0.167,2.25-0.167,2.25s-7.75-0.25-8.833,0s-4.833,1.167-5.417,1.333
		S36.646,71.553,36.646,71.553z"/>
	<polyline fill="none" stroke="#000000" stroke-width="0.75" points="42.48,69.886 45.063,68.636 46.063,66.636 48.563,66.636 
		50.146,64.886 48.98,62.47 	"/>
	<line fill="none" stroke="#000000" stroke-width="0.75" x1="50.146" y1="64.886" x2="56.48" y2="66.261"/>
	<path d="M49.428,62.73l0.953,1.906l5.484,1.172c0,0-0.328-1.219-0.672-1.563s-1.297-1.297-1.906-1.406s-3.797-0.219-3.797-0.219"/>
	<path fill="#020202" d="M74.756,70.667c0,0,0.547,0.547,0.484,0.75s-0.297,0.313-0.297,0.313l-0.266-0.609"/>
</g>
</svg>
