<?xml version="1.0" encoding="utf-8"?>
<!-- Generator: Adobe Illustrator 13.0.0, SVG Export Plug-In . SVG Version: 6.00 Build 14948)  -->
<!DOCTYPE svg PUBLIC "-//W3C//DTD SVG 1.1//EN" "http://www.w3.org/Graphics/SVG/1.1/DTD/svg11.dtd">
<svg version="1.1" xmlns="http://www.w3.org/2000/svg" xmlns:xlink="http://www.w3.org/1999/xlink" x="0px" y="0px"
	 width="285.273px" height="202.183px" viewBox="0 0 285.273 202.183" enable-background="new 0 0 285.273 202.183"
	 xml:space="preserve">
<g id="frame_1">
	<path fill="#19CF53" d="M50.541,59.671c0,0-7.417,7.125-8.417,8.375s-4.875,6-5.5,7.375s-1.625,5.5-1.875,6.875
		s-0.875,6.25-0.875,6.25s3.625-1,5.25-1.75s6-1.625,6-1.625s0.375,2.625,0.625,3.75s2,4.125,2.625,4.625s5.625,5,6.375,5.5
		s2.625,1.25,2.625,1.25s1.625-1.125,3.25-2.375s5.75-2.5,7.5-3.375s3.75-1.5,5.75-2.125s7.5-0.625,7.5-0.625l7,1.5l4,2.375
		L98,98.421l2,11.375c0,0-4.375,4.625-6.5,6.75s-8.5,9.625-9.25,10.75s-4.875,6.5-5.25,7.25s-1.25,3.125-1.25,3.125l5.875-2
		c0,0,9.125-0.75,9.75-0.375s10,20,10.625,20.5s12.75,10.375,14.125,10.875s9.75,1.75,9.75,1.75l3,1.75c0,0-0.125,4.875-0.5,6.375
		s-3.25,12.125-3.25,12.125s-7.75-0.5-9.375,0.125s-4.75,1.875-5.5,2.5s-4,4.375-4,4.375l-1.375,3.75l2.25,0.375l-0.25,0.625h6.25
		l-0.5,1.375l5.75,0.125l14.5-8c0,0,4-3.625,4.625-4.625s11.75-17.5,11.75-17.5l2.875-2.75l28.125-14l9-2l7.5,13.75l3.75,4.25
		l2.125,4l-5.375,17.375c0,0-10.25-0.125-11.25,0.5s-4.5,2.875-5.125,3.5s-2,2.625-2,2.625s4.25,1.625,4.75,1.75
		s1.25,0.25,1.25,0.25l7.5,0.25l-0.25,0.875c0,0,9.5-0.625,10.875-0.75s4.375-1.75,4.375-1.75l9.375-10.125
		c0,0,9.625-14.25,9.625-14.625s2.125-6.875,1.875-7.75s-4.25-16.375-5.125-17.25s7.375-16.625,7.375-16.625l4.125,10.125
		c0,0,7.125,1.5,7.5,1.5s8.75-2.375,8.75-2.375l11.75-8.875l1.125-3.375c0,0,0.375-4.375-1.25-7.875s-7.5-15.75-7.5-15.75
		s12.375-13.625,15.375-17s7.25-8,8.75-10.75s2.375-4.25,2.25-5s-3.625-5.375-4.625-6.25s-4.5-4.25-6.375-5.25
		S264,57.671,264,57.671l11,16.25c0,0-22.875,18.125-24.125,19.375s-5.75,7.125-5.75,7.125s-0.75,6.25-0.25,8.75
		s3.25,15.5,3.25,15.5l-11.125,3c0,0,0.125-7.5-0.5-10.625s-0.875-6.125-0.875-6.125l0.125-4.625c0,0,0.5-5.875-1-10.625
		s-1.875-9.25-6.25-13.25s-9.875-8.125-12.25-8.5s-1.75-1.25-1.75-1.25l3.625-2c0,0,4-1,4.875-1s0.875,0,0.875,0
		s-3.875-4.75-4.625-7s-0.625-7,0.125-9.125s2.375-4.875,3.75-5.75s5.125-2.25,5.125-2.25s-10.375-3.25-12.75-3.625
		s-13.125-1-14.5-0.625s-11.375,2.5-12.625,3s-8.25,3.375-8.25,3.375s1,8.75,0.875,9.875s-1.75,6.5-2.375,8.625
		s-3.875,7.625-4.625,8.875s-3.875,4.625-3.875,4.625s-3.125,0.75-5,1.75s-10.125,6.375-11,7.375s-1.5-4.25-0.375-8.375
		s5.25-11.625,6.75-13.5s8.625-7.375,8.625-7.375s0.125-3-1.375-5.375s-5.375-6.75-5.375-6.75s-2.25,1.375-3.75,2
		s-4.5,1.375-5.875,1.875s-5.792,0.625-5.792,0.625l-2.25-0.167l-0.083,11.417c0,0,3.125,1.75,4.75,3.375s6.125,6.5,6.125,6.5
		s-7,2.25-7.375,2.25s-10-0.875-11-1.125s-3.625-0.625-3.625-0.625l0.125,3.5c0,0,3.625,1.25,4.875,2.375s3.875,3.75,5,5
		s2.25,4.125,3,5.625s1.25,3.875,1.25,3.875s-6.5,6-7.875,7.125s-6,5.25-7,6.5s-5.75,6.75-6.875,8.5s-6.5,8.75-6.5,8.75
		s-1.75-6.25-2.75-8.125s-2.5-5.125-2.5-5.125s0.5-1.625,1.5-2.875s14.625-26.125,14.625-26.125l0.875-2.5l4.25-3.5l13,0.5
		l6.125-2.375l1.5-5.125c0,0-1.625-4-2.375-4.125s-13.875-10.75-14.25-10.75s-8.75-1.625-8.75-1.625l-6.25-1l3.25-4.75
		c0,0,1.25-3.125,0.5-3.25s-18.625-0.875-18.625-0.875l-12.375,7c0,0-3.25,5.25-3.125,5.625s-6.5,6.25-6.5,6.25L87,61.546
		c0,0-2.75,3.375-4.375,4.5s-6.5,3.25-9.625,3.5s-6,0-7-0.375s-5.5-2-6.375-2.625S56.25,64.796,55,63.421
		S50.541,59.671,50.541,59.671z"/>
	<path fill="#13923B" d="M94.5,70.921c0,0,0.053-0.032,0.151-0.089c0.984-0.586,6.501-3.848,7.412-3.848c1,0,2.25-0.063,2.688,0.375
		s1,1.938,0.813,3.5s-1.188,4.5-2.25,6.375S98.5,83.108,98.5,83.108s2.875-4.875,3.813-7.313s1.25-4.875,1.125-5.625
		s-0.938-1.625-2.938-1.125"/>
	<path fill="#13923B" d="M91,94.608c0,0,8.5,3.063,11.625,3.313s6.563,1.188,12.313-3.563s18.688-17.438,18.688-17.438l-1.875,5
		l-4.75,9.25l-5.625,8.75l-5.438,8.375l-1.5,3.125c0,0-2.375-2.688-3.438-3.25s-5.25-1.063-6.688-0.625s-4.188,2.25-4.188,2.25
		l-0.688-3.25l-4.063-7.063L91,94.608z"/>
	<path fill="#13923B" d="M235.375,111.754c0,0-0.25,4.667-0.5,7.917s-1.334,6.332-1.917,7.166s-1.417,1.416-2.5,1.5
		s-3-1.832-3.833-3.166s-2.917-8.417-2.917-8.417s-5.416,10.417-6.916,14.5s-4.25,14-4.667,17.75s1.332,9.834,2.916,11.834
		s7.167,6.166,8.917,7.666s2.666,2.083,2.833,3.5s0.001,3.501-1.916,6.167s-13.25,17.25-13.25,17.25l-5,5.833l2.666-0.5
		l32.667-33.25c0,0-6.749-6.501-7.833-7.917s-2.083-3.167-2.083-4.5s0.75-7.333,1.083-8.333s2.083-8.166,2.333-9.583
		s1.251-9.168,1.334-11.084S235.375,111.754,235.375,111.754z"/>
	<path fill="#13923B" d="M197.458,173.337l-24.916,25.417c0,0-9.667,0.583-10.584,0.833s-4,0.25-4,0.25l-2.667-0.083l1-1
		c0,0-2.833,0.166-3.083,0.083s-2.667-1.5-2.667-1.5s2.417-2.166,3.167-2.666s3.001-1.668,3.417-1.834s3.166-0.166,3.166-0.166
		l3.834,0.583l4.333-15.5c0,0,12.334-1.5,12.917-1.583s11.25-1.834,11.25-1.834L197.458,173.337z"/>
	<path fill="#13923B" d="M153.542,158.171c0,0-2.333,6.751-4.5,10.917s-6.917,13.415-13.917,19.749s-10.999,8.75-12.833,9.917
		s-5.834,3-5.834,3h5.5l5.5-0.416l5-1.25l2-1.167l2.917-3.167l3.667-4.666l5.583-9.5l6-9.917l1.416-4.5v-6.834L153.542,158.171z"/>
	<path fill="#13923B" d="M124.541,174.921l-8.416,14.75c0,0-3.417,1.916-4.167,2.666s-2.833,3.5-2.833,3.5l-1.334,1.75l-10.75-0.083
		l0.834-0.583l-4.834-0.167l0.5-0.417l-1.75-0.416v-1l1.583-2.084c0,0,4.5-3.916,5.333-4.083s7.083-0.417,7.083-0.417
		s2.25-5.25,2.417-6.5s0.333-8.082,0.333-8.916s-0.416-3-0.416-3s4.75,1.75,5.75,2.083s4.416,1.251,5.583,1.417s5.5,1.25,5.5,1.25"
		/>
	<path fill="#077606" d="M183.458,53.504c0,0,12.333,15.75,15.583,20s10.917,14.833,10.917,14.833s-4.916-10.417-8.333-15.5
		s-11.334-14-12.667-15.167S183.458,53.504,183.458,53.504z"/>
	<path fill="#077606" d="M184.791,49.671c0,0,8.584,2.5,12.417,4.25s7.999,3.417,11.583,6s10.167,8.167,10.167,8.167
		s-5.833-9.833-13.833-13.25s-14.918-4.5-16.084-4.75S184.791,49.671,184.791,49.671z"/>
	<path fill="#0C6729" d="M171.5,91.296c0,0-3.125,1.875-5.125,4s-4.749,6.626-5.416,8.459s-1.001,5.332-0.417,6.416
		s2.333,2.667,4,2.5s5.25-0.5,8-3.25s4.833-5.916,5.25-8.333s0.583-5.751,0.5-7.334s-0.249-3.167-1.416-3.167
		s-5.417,0.417-5.417,0.417"/>
	<path fill="#0C6729" d="M184.792,90.171c0,0-1.418,1.417-1.834,2.5s-0.167,2.334,0.75,3.167s1.084,1.167,3.584,1.25
		s2.166,0.417,4.166,0.75s2.501,0.916,3.834,0.416s2.5-0.584,2.583-2.25s-0.25-3.416-1-4.249c-0.75-0.834-2.833-2.251-4.333-2.417
		s-5.751-0.333-7.334,0.583"/>
	<path fill="#0C6729" d="M183.875,99.796c0,0-1.5,1.188-2,2.688s-0.75,4.875-0.75,5.938s0.188,2.063,1.375,2.438
		s2.25,0.875,4.25-0.063s3.313-1.813,3.938-2.625s1.25-3.25-0.25-4.5s-4.188-3.938-6.25-3.813"/>
	<path fill="#0C6729" d="M202.687,125.108c0,0-1.188,1.125-1.438,2s0,2.563,1,3.063s1.938,0.313,2.938-0.313s1.625-1.188,2.563-1.75
		s2.125-1.25,2.125-1.875s-0.563-2.25-1.688-2.563S204.125,124.108,202.687,125.108z"/>
	<path fill="#0C6729" d="M205.625,131.858c0,0,1.438-0.688,2.688-0.813s2.75,0.125,3,0.438s0.188,1.375-0.125,2.5
		s-1.125,3.188-2,3.063s-2.5-1.563-2.75-2.063S204.812,133.108,205.625,131.858z"/>
	<path fill="#0C6729" d="M197.187,132.046c0,0-1.25,1.875-1.313,4.438s0.5,5.125,1.125,6.563s1.688,2.563,2.438,2.938
		s1.313,0.563,2.25,0.125s2-1.938,2.188-3.375s-0.063-5.5-1-7.25s-2.25-3-2.875-3.313S198.812,131.296,197.187,132.046z"/>
	<path fill="#0C6729" d="M136.937,154.171c-0.191,0.048-1.438,1.125-1.688,1.875s0,1.813,0.188,2.25s0.688,0.5,1.375,0.5
		s1-0.875,2.063-1.375s1.938-0.75,2-1.25s0.125-1.875-1.063-2.063S137.937,153.921,136.937,154.171z"/>
	<path fill="#0C6729" d="M141.916,159.338c0,0-2.082,0.126-2.791,0.459s-1.126,0.707-1.084,1.166s1.292,1.709,1.542,1.959
		s0.791,0.582,1.083,0.541s1.375-1.707,1.5-2.166S142.666,159.671,141.916,159.338z"/>
	<path fill="#0C6729" d="M132.583,160.588c0,0-0.958,1.459-0.958,2.542s0.5,2.624,0.75,3.583s0.874,2.083,1.541,2.625
		s1.043,0.875,1.709,0.625s1.583-1.5,1.708-2.75s-0.001-3.791-0.917-4.833s-1.417-2.708-3.75-2"/>
	<path fill="#077606" d="M149.875,54.671c0,0,7.417,0.667,11.417,1.833s5.916,2.25,5.916,2.25s-9.666-2.167-11.333-2.25
		s-4.25,0-4.25,0L149.875,54.671z"/>
	<path fill="#077606" d="M147.042,64.921l2.666-0.917c0,0,8.584-2.417,11.084-2.5s2.5-0.083,2.5-0.083s-13.75,4.25-14.417,4.583"/>
	<path fill="#E2E20E" d="M77.958,137.838c0,0,0.833-1.5,3.25-2.75s5.167-2.334,7.667-2.25s5.25-0.584,8.25,3
		s5.083,7.084,7.583,11.834s4.333,8.166,7.917,11.583s4.251,4.084,7.334,4.917s10.25,0.833,10.25,0.833s0,3.751,0.083,4.667
		s0.25,4.083,0.25,4.083l-0.417,2.083l-1.833-0.333c0,0-10.251-2.166-11.501-2.583s-11.249-4.084-13.916-5.334
		s-9.75-6.166-10.583-6.583s-4-3.25-5-4.333s-6.417-8.167-6.417-8.167l-2.5-4.417l-0.667-2.083v-2.75L77.958,137.838z"/>
	<path fill="#E2E20E" d="M153.958,158.422c0.25-0.083,9.334-4.834,14.167-8.167s14.832-9.833,16.916-11.083s7.25-3.917,7.25-3.917
		s-0.416,3.833-0.416,4.5s0.832,4.834,0.916,5.084s2.668,9.25,3.834,12.333s6.5,14.5,6.5,14.5s-7,1.75-8,2s-6.668,1.583-8.334,1.833
		s-12.417,1.418-13.75,1.584s-10.082,0.417-11.249,0.5s-12.667,0.5-12.667,0.5s0.917-2,1.417-2.75s2.583-5.166,2.916-6
		s0.75-2.834,0.75-2.834l-0.167-6.583v-1.833"/>
	<path fill="#E2E20E" d="M235.25,139.046c0,0,1.75,2.875,4.375,3.5s6.625,1.125,9.375,0.125s5.75-2.5,8-4.5s5.5-6.25,6.375-7.625
		s2.25-5,2.25-5s1.5,3,1.375,4s-0.625,3.375-0.625,3.375s-2.25,2.625-3.25,4.125s-8.5,8.625-9.375,9s-4,3.25-5.375,4.125
		s-8.25,5.625-8.875,6s-4.875,3.5-4.875,3.5s-1.584-1.332-2.167-3.499s-0.333-3.417-0.25-4.5s2.083-9.083,2.083-9.083
		L235.25,139.046z"/>
	<path fill="#5C3396" d="M135.125,18.796c0,0-1.499,6.959-1.749,8.042s-0.583,1.416-1,2.333s-2,2.917-2,2.917l-2.167,1.833
		l-1.833,0.333c0,0-2.917-1.083-3.417-1.417s-2.416-1.5-2.416-1.5l-1.834-0.333c0,0-2.583,0.333-3.5,1s-2.333,1.167-2.833,1.833
		s-4.084,4.917-4.084,4.917l8.834,0.833c0,0-0.416,2.834-0.5,3.167s5.582,0.583,5.916,0.417s5.834-1.917,6.167-2.083
		s3.583-2.917,3.583-2.917l5.167-5.417l0.583-1.833l0.25-3.25l0.334-1.167c0,0-2.167-6.334-2.417-6.667s-1-1.5-1-1.5"/>
	<path fill="#5C3396" d="M121.208,53.838c0,0,2.251,0.167,2.834,0.25s4.666,1.167,4.916,1.25s3.667-1.417,3.667-1.417l8.5-6.5
		c0,0,3.916,0,4.166,0.083s7.917,1.417,7.917,1.417l6.333-2.833l3.167-3l1.75-3.417l0.5-3.25c0,0-0.666-7.417-1.083-9
		s-0.334-2.083-0.334-2.083s-1.832,5-2.416,6.583s-2.417,4.833-2.417,4.833l-4.75,4.417l-0.916,0.583l-2.917-0.083l-2.5-1.75
		l-2.417-1.917c0,0-1.917-1.25-2.167-1.25s-2.75-0.25-2.75-0.25s-4.333,1.5-4.583,1.75s-5.083,3.417-5.083,3.417l-3.083,3.667
		l-3.584,4.583L121.208,53.838z"/>
	<path fill="#42256A" d="M128.625,55.171c0,0,3.375-4.875,4.25-6.125s3.875-3.25,4.875-3.625s4-0.125,5.5,0.375s3.875,2.5,5.625,2.5
		s3.875,0.125,5.625-0.875s3.125-1.375,5-3.25s4.875-5.75,4.875-5.75l0.375-1.125c0,0,0.125,3.625-0.125,4.875s-1,3.375-1.625,4.125
		s-1.875,1.75-2.75,2.5s-3.5,1.5-4.125,1.75s-4,1-4.375,1.125s-3.75,0.5-4.125,0.5s-2.875-0.375-2.875-0.375l-5.5,8.25
		C139.25,60.046,129.75,55.296,128.625,55.171z"/>
	<path fill="#42256A" d="M138.125,25.421c-0.125,0.375-0.5,4.75-1.375,7.125s-3.375,3.75-4.375,5s-2.75,2.125-2.75,2.125l3.75,0.25
		l2.125-1.5l1.875-1.125c0,0,0.625-1.5,0.625-1.875s0.875-5.5,0.875-5.5l-0.75-5.125"/>
	<path fill="#42256A" d="M119.25,39.296c0,0,2.5,1.5,3.625,1.375s0.625,0.375,0.625,0.375s-4.625,0.75-5.375,1.375
		s-0.5,0.125-0.5,0.125l1.25-3.875"/>
	<path fill="#830000" d="M142.041,61.504c0,0,6.584,2,7.167,2.167s7,2.5,7,2.5s-1.501-5.083-2.917-7.167s-6.333-7.083-6.333-7.083
		l-2.25-0.167l-5.583,7.917l2.416,1.5"/>
	<path fill="#830000" d="M113.292,45.171c0,0,4.917-0.25,6.25-0.25s7.416,0.667,7.416,0.667s1.834-1.75,2.584-2.417
		s4.166-3.5,4.166-3.5s-12.166,1.25-13.583,1.833s-7.5,3.917-7.5,3.917"/>
	<path fill="#830000" d="M98.125,48.921c0,0,4.25-5.917,6.25-7.417s4.416-2.5,4.416-2.5l12.167-4.417l-3.083,8.083
		c0,0-4.916,2.333-5.25,2.417s-3.584,1.333-3.584,1.333s-4.416-0.5-5.333-0.167S98.125,48.921,98.125,48.921z"/>
	<path fill="#830000" d="M248.791,41.005c0,0-0.249,4-0.166,4.833s0.334,5.167,0.5,5.75s1.082,2.25,1.416,2.917
		s2.751,4.333,4.584,5.25s6.083,2.583,6.083,2.583l4.667,0.75l1.666,0.25l-3.583-5.75c0,0,6.333,3.417,6.75,3.75
		s0.917,0.417,0.917,0.417s0.249-1.083,0.416-2s0.833-4.083,0.75-4.583s0-3.25-1.75-5s-4.25-3-4.25-3s-2.082-0.083-2.666,0.333
		s-2.584,1.5-3.167,1.917s-2,1-2.75,1s-2.167-0.5-2.75-0.75s-3.333-2.833-3.75-3.583S248.791,41.005,248.791,41.005z"/>
	<ellipse fill="#FFFFFF" cx="106.093" cy="56.858" rx="11.219" ry="10.563"/>
	<ellipse fill="#FFFFFF" cx="89.375" cy="53.921" rx="9.25" ry="8.083"/>
	<ellipse fill="#0092FF" cx="83.75" cy="54.213" rx="3.25" ry="3.042"/>
	<ellipse fill="#0092FF" cx="99.146" cy="56.941" rx="4.021" ry="3.521"/>
	<ellipse fill="#00426B" cx="98.823" cy="56.962" rx="1.406" ry="1.271"/>
	<ellipse fill="#00426B" cx="83.479" cy="54.088" rx="1.271" ry="1.167"/>
	<ellipse fill="#FFFFFF" cx="85.062" cy="52.671" rx="0.813" ry="0.75"/>
	<ellipse fill="#FFFFFF" cx="81.968" cy="55.515" rx="0.656" ry="0.531"/>
	<circle fill="#FFFFFF" cx="100.625" cy="54.983" r="0.875"/>
	<circle fill="#FFFFFF" cx="97.406" cy="58.577" r="0.656"/>
	<path fill="none" stroke="#000000" stroke-width="0.75" d="M86.792,61.921c0,0-1.917,2.417-3.667,3.917s-5.917,3.5-11.167,3.917
		s-10-2.083-13.25-3.833s-7.917-6.75-7.917-6.75s-10.667,10.333-13.5,15s-3.583,14.583-3.583,14.583s6.917-2.75,12-4.167
		s18.833-5.583,23.5-5.583s11.167,0,16.25,0.25s7.083,0.333,9.5-0.5c2.417-0.833,2.501-1.333,2.501-1.333"/>
	<path d="M97.062,77.421c0,0,2-2.594,2.563-4.188s0.563-1.594,0.563-1.594s-1.25,5.156-2.531,6.094"/>
	<path fill="none" stroke="#000000" stroke-width="0.75" d="M44.687,85.108c0,0,1.125,4.313,2.688,6.75s5.75,5.75,7.125,6.688
		s2.688,1.813,2.688,1.813s2.5-2.375,6.313-4.125s11.188-4.313,15.125-4.188s9.563,0.375,13,3.25s7.75,10.563,8.063,12.188
		s0.375,2.375,0.375,2.375s-8,7.75-11.875,12.438s-9,11.938-9.688,13.438s-1.75,5.688,0.313,9.25s7.25,12.688,15.75,17.688
		s12.063,6.938,17.563,8.75s16.063,4.063,17.25,4.125s1.188,0.063,1.188,0.063"/>
	<path fill="none" stroke="#000000" stroke-width="0.75" d="M132.062,153.858c-0.063,0.188-1.813,4-1.688,9.125
		s0.313,11.25-0.375,14.563s-3,10.938-3,10.938s-8.25,0.313-10.375,0.938s-5.188,2.938-7,5.438s-2.875,4.625-2.875,4.625l2.75,0.313
		l-0.563,0.938l6-0.063l-0.188,0.938c0,0,8.438,0.313,13.063-0.313s6.75-1.5,10.25-6.188S151,175.046,152.25,172.171
		s1.75-4.938,1.75-4.938s0.125-4.813,0-6.75s-0.25-2.688-0.25-2.688"/>
	<path fill="none" stroke="#000000" stroke-width="0.75" d="M149.312,177.858c0,0,21.188-0.188,26.313-0.938
		s9.938-1.188,13.688-1.875s13.188-3.375,13.188-3.375"/>
	<path fill="none" stroke="#000000" stroke-width="0.75" d="M200.875,117.796c0,0-3.625,4.375-5.875,8.875
		s-3.313,9.125-3.063,13.438s2.688,12.25,4.625,16.938s8,17.875,8,17.875s-5.375,17.375-5.438,17.563s-9.063-0.125-11.563,0.813
		s-6.813,5.813-6.813,5.813s1.688,0.75,3.063,1.063s3.25,0.188,3.25,0.188l-0.188,0.875l7.75-0.188l-0.625,0.75
		c0,0,8.563-0.125,11.563-0.5s3.813-0.5,3.813-0.5L242,167.546c0,0-9.563-8.438-9.875-12.188s1.063-8.813,1.875-11.625
		s1.188-4.938,1.75-8.25s1.125-8,1.125-11.688s-0.938-10.875-2.938-17.875s-3.063-10-3.063-10"/>
	<path fill="none" stroke="#000000" stroke-width="0.75" d="M235.562,112.983c0,0,0.375-9.688-0.188-13.25
		s-1.75-10.125-4.375-13.938s-9.25-9.375-11.375-10.563s-4.875-1.75-4.875-1.75"/>
	<path fill="none" stroke="#000000" stroke-width="0.75" d="M161.875,86.921c0,0,6.625-4.625,10.75-9.75s8.75-15.5,8.375-21.375
		s-0.75-8-0.75-8s12.625-6,19.75-6.375s14.75,0,19.125,1s8.75,3.125,8.75,3.125s-7.375,2.875-8.125,6.125s-2,8.75,0,12.375
		s4,5.375,4,5.375s-8.25,1-10.5,4.875s-2.75,10.375-1.375,13.25s1.875,3.625,1.875,3.625s-12.875-3.875-20.5-3.625
		s-14.625-0.25-21.5,2.625s-8.625,3.625-8.625,3.625"/>
	<path fill="none" stroke="#000000" stroke-width="0.75" d="M170.875,79.296c0,0-4.375,0.875-10.375,5.125
		s-23.375,17.75-29.5,25.375s-11.25,15-11.25,15l-5.25-13.5c0,0-0.125-1.125,1.25-2.75s9.625-14.625,10.875-16.75
		s6.375-12,6.75-13.875s0.375-4.5,0.375-4.5"/>
	<path fill="none" stroke="#000000" stroke-width="0.75" d="M122.5,65.171c0,0,7.125,7.5,14,9.125s11.125,1.125,13.5,0.625
		s5.625-1.625,5.625-1.625s-4.875-6.125-10.125-9.625s-17.125-8.875-20.375-9.375s-3.25-0.5-3.25-0.5"/>
	<path d="M121.979,53.462c0,0-1.021,0.104-1.458,0.375s-1.042,1.313-1.042,1.313s1.605-1.021,2.396-1"/>
	<path fill="none" stroke="#000000" stroke-width="0.75" d="M121.208,53.921c0,0,6.751-9.792,10.042-12.417s7.584-5.167,10-5
		s4.458,1.583,6,2.833s1.792,2.125,3.417,2.167s2.29,0.833,4.499-1.125s3.709-3.542,4.917-5.875s3.5-9.042,3.5-9.042
		s1.626,7.5,1.209,12.792s-1.584,8.583-4.292,10.25s-8.833,3.25-11.208,3.333s-4.709,0.042-4.709,0.042s-5.457,7.958-5.541,8.083"/>
	<path fill="none" stroke="#000000" stroke-width="0.75" d="M146.833,52.004c0,0,4.833,3.875,6.875,7.75s2.542,6.25,2.542,6.25
		s-14.376-4.792-15.542-5.042"/>
	<path fill="none" stroke="#000000" stroke-width="0.75" d="M162.375,47.087c0,0,4.916,6.083,5.833,8.5s1,3.917,1,3.917
		s-5.832,3.833-7.916,6.583s-4.918,6.417-6.084,10.083s-2,5.333-2,8.333s0.334,5,0.334,5"/>
	<path fill="none" stroke="#000000" stroke-width="0.75" d="M133.792,77.254c0,0,2.083,0.25,5.5,3.083s4.75,4.416,6,7.083
		s2.667,6.75,2.667,6.75"/>
	<path d="M161.708,86.629l-6.583,4.438c0,0,6.563-3.542,7.063-3.938"/>
	<path d="M163.041,93.442c0,0-5.521,3.041-6.708,4.083s-1.188,1.042-1.188,1.042s7.271-4.021,8.104-4.438"/>
	<path d="M122.312,65.546c0,0-2.313-2.375-2.938-3.156s-0.625-0.781-0.625-0.781s3.625,2.969,4.125,3.438"/>
	<path d="M153.395,157.921c0,0-0.104-0.896-0.604-1.729s-0.5-0.833-0.5-0.833s1.541,1.416,1.791,2.458"/>
	<path d="M200.478,117.714c0,0,4.896-5.479,6.125-6.188s1.229-0.709,1.229-0.709s-6.396,6.916-6.896,7.5"/>
	<path d="M230.593,96.202c0,0-0.781-2.094-1.625-3.844s-0.844-1.75-0.844-1.75s2.656,3.719,3.094,5.281"/>
	<path fill="none" stroke="#000000" stroke-width="0.75" d="M237.042,127.672l10.917-2.417c0,0-3.167-14.333-3.25-18.083
		s0.333-6.5,0.333-6.5s2.75-4.583,9.417-10.167s20.667-16.25,20.667-16.25l-11.583-17.167c0,0,12.917,7,16.583,11.833
		s4,4.333,2.25,8s-4.501,6.75-11.584,14.75s-14,15.25-14,15.25s4.667,8.249,7.167,13.833s3.083,8.501,2.75,10.584
		s0.001,2.249-5.416,7.749s-9.085,8.168-13.501,11.584s-13.416,8.75-13.416,8.75"/>
	<path fill="none" stroke="#000000" stroke-width="0.75" d="M267.375,63.171c0,0-5.5-0.25-8.917-1.667s-5.833-3.583-8.25-7.417
		s-1.416-13.417-1.416-13.417s2.582,5.417,4.249,7.083s4.334,3.583,7.084,2.167s4.332-3.5,6.666-2.667s3,1.083,4.5,3.417
		s1.5,3.083,1.417,5.25s-1.25,5.583-1.25,5.583"/>
	<path fill="none" stroke="#000000" stroke-width="0.75" d="M97.937,48.858c0,0,4.875-6.75,8.875-8.938s14.063-5.313,14.063-5.313
		s-3.125,8.063-3.313,8.125"/>
	<path fill="none" stroke="#000000" d="M133.812,39.671c0,0-6.125,0.313-11.25,1.375s-10.688,4.438-10.688,4.438"/>
	<path fill="none" stroke="#000000" stroke-width="0.75" d="M108,39.358c0,0,3.625-4.938,4.938-5.938s5.438-3.375,7.688-2
		s4.563,2.938,6.063,2.813s4.625-2.375,5.875-5.625s2.75-10.25,2.75-10.25s3.438,6.313,3.375,10.188s-0.563,8-1,8.625"/>
	<path d="M131.708,153.797c0,0,0.708-1.396,1.833-2.542s3.126-1.896,3.396-1.938s-3.979,3.604-4.563,4.75"/>
	<path fill="none" stroke="#000000" stroke-width="0.75" d="M124.75,174.733c-0.125,0.188-8.063,14.25-8.5,14.625
		s-0.438,0.375-0.438,0.375"/>
	<path fill="none" stroke="#000000" stroke-width="0.75" d="M108.375,170.108c0,0,0.438,6.188,0.063,9.438s-1.25,5.875-1.875,7.125
		s-0.938,1.813-0.938,1.813s-5.688,0-6.688,0.25s-2.875,1.438-4.25,2.688s-3,3.938-3,3.938s0.25,0.625,0.688,0.75
		s1.063,0.125,1.063,0.125L93,196.796l4.625,0.063l-0.5,0.625h10.938"/>
	<path d="M114.781,200.577c0,0,3.875-4.938,5.781-6.094s1.906-1.156,1.906-1.156s-7.406,7.969-7.531,8.188"/>
	<path d="M109.343,199.577c0,0,1.375-2.313,3.938-4.438s2.719-2.156,2.719-2.156s-6.531,7.406-6.656,7.594"/>
	<path d="M97.468,196.765c0,0,2.875-3.156,4.281-3.969s1.406-0.813,1.406-0.813l-5.5,5.594"/>
	<path d="M93.187,196.358c0,0,2.563-3.219,3.875-3.969s1.438-0.844,1.438-0.844l-4.844,5.156"/>
	<path fill="none" stroke="#000000" stroke-width="0.75" d="M168.458,177.672l-4.416,15.666c0,0-5.25-1.416-8.25,0.167
		s-5.334,3.75-5.334,3.75s1.916,1.417,3.25,1.417s2.167,0.083,2.167,0.083l-0.5,0.75l5.417,0.083c0,0,10.916-0.499,11.333-0.666
		s25.75-25.833,25.75-25.833"/>
	<path d="M187.062,200.358c0,0,1.25-2.75,2.625-3.875s3.938-1.875,3.938-1.875s-3.75,2.438-4.563,3.375s-1.688,3.188-1.688,3.188"/>
	<path d="M194.25,201.233c0,0,1-2.188,2.125-3.188s4.063-2.563,4.063-2.563s-3.188,2.313-4,3.375s-1.813,2.75-1.813,2.75"/>
	<path d="M160.792,199.588c0,0,0.271-1.604,1.771-2.729s2.75-1.438,2.75-1.438s-2.313,1.813-2.875,2.563s-0.688,1.938-0.688,1.938"
		/>
	<path d="M155.875,198.755c0,0,0.875-1.584,2.125-2.709s2.188-1.25,2.188-1.25l-4.313,4.625"/>
	<ellipse fill="none" stroke="#000000" stroke-width="0.75" cx="106.062" cy="56.733" rx="11.219" ry="10.438"/>
	<path fill="none" stroke="#000000" stroke-width="0.75" d="M95.429,59.378c-0.179-0.438-0.272-0.908-0.312-1.392
		c-0.176-0.623-0.223-1.281-0.159-1.922c-0.028-0.393-0.005-0.788,0.124-1.124c0.051-0.464,0.178-0.918,0.397-1.34
		c0.09-0.296,0.219-0.592,0.375-0.876c0.229-0.581,0.545-1.115,0.924-1.597c0.179-0.376,0.391-0.728,0.656-1.048
		c-1.577-2.474-4.616-4.158-8.123-4.158c-5.126,0-9.281,3.582-9.281,8s4.155,8,9.281,8c2.401,0,4.579-0.795,6.227-2.085
		c-0.016-0.077-0.03-0.154-0.045-0.231C95.472,59.529,95.447,59.456,95.429,59.378z"/>
	<polyline points="97.687,48.577 97.187,49.483 97.312,49.796 98.125,49.077 98.437,48.202 	"/>
	<path fill="none" stroke="#000000" d="M108.875,46.588c0,0,2.332-1.584,9.166-1.667s9.584,0.583,9.584,0.583"/>
</g>
<g id="frame_2">
	<path fill="#19CF53" d="M121.75,121.8c-0.237,0.227-0.678,0.214-0.817-0.204c-0.083-0.25-0.166-0.5-0.25-0.75
		c-0.057-0.17-0.019-0.309,0.063-0.414c-0.014-0.113-0.026-0.235-0.039-0.368c-0.062-0.167-0.122-0.334-0.179-0.503
		c-0.194,0.072-0.416,0.029-0.545-0.221c-1.188-2.298-1.766-4.791-2.35-7.286c-0.22,0.036-0.468-0.058-0.576-0.333
		c-0.037-0.095-0.066-0.191-0.103-0.287c-0.064-0.055-0.119-0.121-0.147-0.213c-0.226-0.739-0.453-1.488-0.672-2.242
		c-0.049-0.164-0.104-0.326-0.15-0.491c-0.063-0.153-0.124-0.3-0.186-0.455c-0.049-0.05-0.089-0.111-0.117-0.187
		c-1.109-2.958-1.746-6.082-1.765-9.242c-0.087-0.071-0.165-0.155-0.22-0.273c-0.275-0.601-0.584-1.674-0.435-2.468
		c-0.036-0.096-0.057-0.148-0.057-0.148l-7.25-14.083l-1-0.917l-3.667-2.5l-16.417-9l-10.667,9.75c0,0-1.25,10-0.917,9.666
		c0.333-0.333-0.083,0.334-0.083,0.334s13.667-0.084,14.167,0s10.75,5.25,11,5.167c0.188-0.063,0.613,7.057,0.812,10.577
		c0.11,0.169,0.229,0.334,0.322,0.513c0.246,0.47,0.079,0.906-0.229,1.182c0.008,0.143,0.013,0.229,0.013,0.229
		s10,19.166,10.833,19.332s10.667,3,11,2.584s0.75-6.334,0.75-6.334S121.83,122.063,121.75,121.8z"/>
	<path fill="#19CF53" d="M135.458,30.755c0,0,2.916,8.083,3.166,8.75s0.167,3,0.167,3l-0.5,1.167l-0.833,0.917l-4.75,1.583
		c0,0,3.667,8.25,4.25,10.083s0.834,4.667,0.75,5.417s-0.583,3-1.25,3.667s-7,4-7,4s7.917,4.584,10.25,6s3.582,2.583,4.416,4
		s2.251,4.249,3.167,5.833c0.916,1.583,2.583,8.333,2.583,8.333l5.333-5.333l0.084-3.5c0,0,0.749-5.75,0.916-6.75
		s2.583-8.167,4.083-10.083s4.5-5.75,5.417-6.917s5.75-4.917,5.75-4.917s-2.917-7-3.917-7.917s-8.083-6.667-8.083-6.667
		s-8.751-5.667-11.167-6.667s-12.416-3.917-12.416-3.917"/>
	<path fill="#19CF53" d="M146.207,94.506c0,0,10.916-9.584,12.083-10.334s8.084-5.083,8.084-5.083l5.916-2.583l1.5,0.167
		c0,0-11.165,13.499-11.499,13.833s-12.083,6.833-13.5,7.5s-2.5-2.833-2.5-2.833"/>
	<path fill="#19CF53" d="M214.707,71.172c0,0,8.166,3.333,9.25,4.333s5.5,5.167,5.5,5.167s1.084,1.75,1.084,2
		s-12.75-4.916-13.167-5.083s-6.75-3.917-6.75-3.917"/>
	<path fill="#14A241" d="M103.374,93.422c-0.5-1.625-4-4.125-4.625-4.5s-4.875-2.5-13.75-4.25s-10.375,1.125-10.375,1.125
		l-4.625,7.5l4.25-1.25l5.5-1.375l5-0.875l6.875,2.25l2.875,3l1.375,3.75l-0.125,3.875l-0.076,0.361
		c0.094,0.035,0.183,0.079,0.275,0.116c0.14-0.08,0.31-0.1,0.47,0.007c0.003,0.002,0.006,0.005,0.01,0.007
		c0.168-0.222,0.482-0.323,0.717-0.054c0.092,0.104,0.191,0.2,0.288,0.299c0.307-0.092,0.651-0.04,0.923,0.24
		c0.453,0.469,0.849,0.995,1.152,1.572c0.081,0.155,0.11,0.306,0.112,0.451c0.019,0.029,0.045,0.057,0.063,0.086
		c0.028,0.035,0.06,0.066,0.087,0.102c-0.002,0.001-0.003,0.002-0.004,0.003c0.025,0.035,0.057,0.063,0.082,0.099
		c0.036,0.048,0.058,0.098,0.069,0.147c0.667-0.94,1.351-1.868,2.085-2.749c0.446-0.633,0.908-1.255,1.379-1.87
		c0.149-0.821,0.243-1.538,0.243-2.067C103.624,98.047,103.874,95.047,103.374,93.422z"/>
	<path fill="#19CF53" d="M284.749,72.631c-0.125-0.75-3.625-5.375-4.625-6.25s-4.5-4.25-6.375-5.25s-8.375-4.75-8.375-4.75l11,16.25
		c0,0-22.875,18.125-24.125,19.375s-5.75,7.125-5.75,7.125s-0.75,6.25-0.25,8.75s3.25,15.5,3.25,15.5l-11.125,3
		c0,0,0.125-7.5-0.5-10.625s-0.875-6.125-0.875-6.125l0.125-4.625c0,0,0.5-5.875-1-10.625s-1.875-9.25-6.25-13.25l-12.25-8.5
		c-2.375-0.375-1.75-1.25-1.75-1.25l3.625-2c0,0,1.725-0.431,3.157-0.727c0.043-0.275,0.235-0.525,0.594-0.531
		c0.561-0.009,1.112-0.077,1.663-0.161c-0.954-1.205-3.673-4.733-4.289-6.581c-0.75-2.25-0.625-7,0.125-9.125s2.375-4.875,3.75-5.75
		s5.125-2.25,5.125-2.25s-10.375-3.25-12.75-3.625s-13.125-1-14.5-0.625s-11.375,2.5-12.625,3s-8.25,3.375-8.25,3.375
		s1,8.75,0.875,9.875s-1.75,6.5-2.375,8.625s-3.875,7.625-4.625,8.875s-3.875,4.625-3.875,4.625s-3.125,0.75-5,1.75
		c-1.514,0.808-7.18,4.465-9.768,6.371c-0.096,0.217-0.252,0.427-0.493,0.618c-2.127,1.679-4.287,3.313-6.459,4.931
		c-0.001,0.202-0.086,0.403-0.316,0.535c-3.264,1.87-5.958,4.502-8.938,6.767c-0.338,0.315-0.673,0.635-1.01,0.951
		c0.012,0.126-0.022,0.263-0.12,0.388c-0.492,0.63-1.06,1.209-1.655,1.768c-0.079,0.094-0.159,0.188-0.237,0.281
		c-0.48,0.619-0.973,1.229-1.482,1.826c-0.204,0.24-0.469,0.194-0.643,0.03c-0.16,0.148-0.313,0.302-0.468,0.454
		c0.128,0.172,0.163,0.419-0.015,0.641c-0.907,1.136-1.895,2.192-2.929,3.202c-0.047,0.054-0.093,0.109-0.14,0.163
		c-0.98,1.305-2.118,2.491-3.182,3.76c-0.055,0.064-0.122,0.092-0.189,0.115c-0.226,0.285-0.47,0.559-0.744,0.814
		c-0.513,0.847-1.063,1.623-1.747,2.32c-0.437,0.517-0.91,1-1.427,1.443c-0.842,1.433-1.707,2.861-2.324,4.408
		c-0.242,0.607-1.105,0.478-1.204-0.013c-0.222-0.096-0.39-0.291-0.383-0.604c-0.008-0.016-0.021-0.023-0.028-0.04
		c-0.807-1.883-1.634-3.769-1.951-5.806c-0.001-0.008,0.001-0.015,0-0.022c-0.011-0.016-0.024-0.026-0.035-0.043
		c-0.191-0.307-0.377-0.616-0.565-0.925c-0.492-0.626-0.855-1.316-1.185-2.075c-0.195-0.45-0.191-0.883-0.077-1.27
		c-0.595-0.575-0.727-1.714-0.787-2.705c-0.139-0.04-0.263-0.129-0.313-0.32c-0.408-1.559-0.965-3.07-1.29-4.642l-13.02,5.052
		c0,0-4.375,4.625-6.5,6.75s-8.5,9.625-9.25,10.75s-4.875,6.5-5.25,7.25s-1.25,3.125-1.25,3.125l5.875-2c0,0,9.125-0.75,9.75-0.375
		s10,20,10.625,20.5s12.75,10.375,14.125,10.875s9.75,1.75,9.75,1.75l3,1.75c0,0-0.063,2.374-0.228,4.317
		c0.267-0.093,0.548-0.153,0.854-0.141c1.512,0.062,2.823,0.441,4.171,1.041c0.162-0.029,0.327-0.045,0.495-0.041
		c0.143,0.003,0.279,0.026,0.421,0.035c0.593-0.487,1.381-0.762,2.318-0.603c3.103,0.526,6.194,1.117,9.316,1.508
		c1.728-2.565,3.027-4.492,3.027-4.492l2.875-2.75l28.125-14l9-2l7.5,13.75l3.75,4.25l2.125,4l-5.375,17.375
		c0,0-10.25-0.125-11.25,0.5s-4.5,2.875-5.125,3.5s-2,2.625-2,2.625s4.25,1.625,4.75,1.75s1.25,0.25,1.25,0.25l7.5,0.25l-0.25,0.875
		c0,0,9.5-0.625,10.875-0.75s4.375-1.75,4.375-1.75l9.375-10.125c0,0,9.625-14.25,9.625-14.625s2.125-6.875,1.875-7.75
		s-4.25-16.375-5.125-17.25s7.375-16.625,7.375-16.625l4.125,10.125c0,0,7.125,1.5,7.5,1.5s8.75-2.375,8.75-2.375l11.75-8.875
		l1.125-3.375c0,0,0.375-4.375-1.25-7.875s-7.5-15.75-7.5-15.75s12.375-13.625,15.375-17s7.25-8,8.75-10.75
		S284.874,73.381,284.749,72.631z"/>
	<path fill="#13923B" d="M236.874,110.089c0,0-0.25,4.667-0.5,7.917s-1.334,6.332-1.917,7.166s-1.417,1.416-2.5,1.5
		s-3-1.832-3.833-3.166s-2.917-8.417-2.917-8.417s-5.416,10.417-6.916,14.5s-4.25,14-4.667,17.75s1.332,9.834,2.916,11.834
		s7.167,6.166,8.917,7.666s2.666,2.083,2.833,3.5s0.001,3.501-1.916,6.167s-13.25,17.25-13.25,17.25l-5,5.833l2.666-0.5
		l32.667-33.25c0,0-6.749-6.501-7.833-7.917s-2.083-3.167-2.083-4.5s0.75-7.333,1.083-8.333s2.083-8.166,2.333-9.583
		s1.251-9.168,1.334-11.084S236.874,110.089,236.874,110.089z"/>
	<path fill="#13923B" d="M198.957,171.672l-24.916,25.417c0,0-9.667,0.583-10.584,0.833s-4,0.25-4,0.25l-2.667-0.083l1-1
		c0,0-2.833,0.166-3.083,0.083s-2.667-1.5-2.667-1.5s2.417-2.166,3.167-2.666s3.001-1.668,3.417-1.834s3.166-0.166,3.166-0.166
		l3.834,0.583l4.333-15.5c0,0,12.334-1.5,12.917-1.583s11.25-1.834,11.25-1.834L198.957,171.672z"/>
	<path fill="#13923B" d="M155.041,156.506c0,0-2.333,6.751-4.5,10.917c-0.801,1.54-1.957,3.777-3.448,6.303
		c1.449,0.136,2.895,0.398,4.351,0.712l2.681-4.432l1.416-4.5v-6.834L155.041,156.506z"/>
	<path fill="#077606" d="M184.957,51.839c0,0,12.333,15.75,15.583,20s10.917,14.833,10.917,14.833s-4.916-10.417-8.333-15.5
		s-11.334-14-12.667-15.167S184.957,51.839,184.957,51.839z"/>
	<path fill="#077606" d="M186.29,48.006c0,0,8.584,2.5,12.417,4.25s7.999,3.417,11.583,6s10.167,8.167,10.167,8.167
		s-5.833-9.833-13.833-13.25s-14.918-4.5-16.084-4.75S186.29,48.006,186.29,48.006z"/>
	<path fill="#0C6729" d="M172.999,89.631c0,0-3.125,1.875-5.125,4s-4.749,6.626-5.416,8.459s-1.001,5.332-0.417,6.416
		s2.333,2.667,4,2.5s5.25-0.5,8-3.25s4.833-5.916,5.25-8.333s0.583-5.751,0.5-7.334s-0.249-3.166-1.416-3.166
		s-5.417,0.417-5.417,0.417"/>
	<path fill="#0C6729" d="M186.292,88.506c0,0-1.418,1.417-1.834,2.5s-0.167,2.334,0.75,3.167s1.084,1.167,3.584,1.25
		s2.166,0.417,4.166,0.75s2.501,0.916,3.834,0.416s2.5-0.584,2.583-2.25s-0.25-3.416-1-4.249c-0.75-0.834-2.833-2.251-4.333-2.417
		c-1.5-0.167-5.751-0.334-7.334,0.583"/>
	<path fill="#0C6729" d="M185.374,98.131c0,0-1.5,1.188-2,2.688s-0.75,4.875-0.75,5.938s0.188,2.063,1.375,2.438
		s2.25,0.875,4.25-0.063s3.313-1.813,3.938-2.625s1.25-3.25-0.25-4.5s-4.188-3.938-6.25-3.813"/>
	<path fill="#0C6729" d="M204.186,123.443c0,0-1.188,1.125-1.438,2s0,2.563,1,3.063s1.938,0.313,2.938-0.313s1.625-1.188,2.563-1.75
		s2.125-1.25,2.125-1.875s-0.563-2.25-1.688-2.563S205.624,122.443,204.186,123.443z"/>
	<path fill="#0C6729" d="M207.124,130.193c0,0,1.438-0.688,2.688-0.813s2.75,0.125,3,0.438s0.188,1.375-0.125,2.5
		s-1.125,3.188-2,3.063s-2.5-1.563-2.75-2.063S206.311,131.443,207.124,130.193z"/>
	<path fill="#0C6729" d="M198.686,130.381c0,0-1.25,1.875-1.313,4.438s0.5,5.125,1.125,6.563s1.688,2.563,2.438,2.938
		s1.313,0.563,2.25,0.125s2-1.938,2.188-3.375s-0.063-5.5-1-7.25s-2.25-3-2.875-3.313S200.311,129.631,198.686,130.381z"/>
	<path fill="#E2E20E" d="M131.791,168.007c-0.083-0.916-0.083-4.667-0.083-4.667s-7.167,0-10.25-0.833s-3.75-1.5-7.334-4.917
		s-5.417-6.833-7.917-11.583s-4.583-8.25-7.583-11.834s-5.75-2.916-8.25-3s-5.25,1-7.667,2.25s-3.25,2.75-3.25,2.75l-0.25,1.417
		v2.112c0.223,0.034,0.422,0.197,0.42,0.442c0.01,0.021,0.02,0.041,0.03,0.062c0.092,0.036,0.176,0.101,0.232,0.214l0.25,0.5
		c0.059,0.116,0.061,0.227,0.039,0.329c0.016,0.028,0.028,0.06,0.044,0.088c0.122,0.215,0.052,0.46-0.11,0.611
		c0.03,0.158,0.074,0.312,0.095,0.474c0.02,0.149-0.042,0.266-0.137,0.35l2.303,4.068c0,0,1.468,1.92,3.017,3.913
		c0.034-0.021,0.072-0.033,0.109-0.046c0.217-0.139,0.537-0.144,0.724,0.13c0.547,0.798,1.08,1.628,1.639,2.439
		c0.854,0.949,1.771,1.842,2.647,2.79c0.638,0.691,1.23,1.424,1.846,2.131c0.182,0.174,0.368,0.345,0.547,0.521
		c0.38,0.298,0.698,0.525,0.889,0.621c0.833,0.417,7.917,5.333,10.583,6.583s12.666,4.917,13.916,5.334s11.501,2.583,11.501,2.583
		l1.833,0.333l0.417-2.083C132.041,172.09,131.874,168.923,131.791,168.007z"/>
	<path fill="#E2E20E" d="M155.457,156.757c0.25-0.083,9.334-4.834,14.167-8.167s14.832-9.833,16.916-11.083s7.25-3.917,7.25-3.917
		s-0.416,3.833-0.416,4.5s0.832,4.834,0.916,5.084s2.668,9.25,3.834,12.333s6.5,14.5,6.5,14.5s-7,1.75-8,2s-6.668,1.583-8.334,1.833
		s-12.417,1.418-13.75,1.584s-10.082,0.417-11.249,0.5s-12.667,0.5-12.667,0.5s0.917-2,1.417-2.75s2.583-5.166,2.916-6
		s0.75-2.834,0.75-2.834l-0.167-6.583v-1.833"/>
	<path fill="#E2E20E" d="M236.749,137.381c0,0,1.75,2.875,4.375,3.5s6.625,1.125,9.375,0.125s5.75-2.5,8-4.5s5.5-6.25,6.375-7.625
		s2.25-5,2.25-5s1.5,3,1.375,4s-0.625,3.375-0.625,3.375s-2.25,2.625-3.25,4.125s-8.5,8.625-9.375,9s-4,3.25-5.375,4.125
		s-8.25,5.625-8.875,6s-4.875,3.5-4.875,3.5s-1.584-1.332-2.167-3.499s-0.333-3.417-0.25-4.5s2.083-9.083,2.083-9.083
		L236.749,137.381z"/>
	<path fill="#830000" d="M250.29,39.34c0,0-0.249,4-0.166,4.833s0.334,5.167,0.5,5.75s1.082,2.25,1.416,2.917
		s2.751,4.333,4.584,5.25s6.083,2.583,6.083,2.583l4.667,0.75l1.666,0.25l-3.583-5.75c0,0,6.333,3.417,6.75,3.75
		s0.917,0.417,0.917,0.417s0.249-1.083,0.416-2s0.833-4.083,0.75-4.583s0-3.25-1.75-5s-4.25-3-4.25-3s-2.082-0.083-2.666,0.333
		s-2.584,1.5-3.167,1.917s-2,1-2.75,1s-2.167-0.5-2.75-0.75s-3.333-2.833-3.75-3.583S250.29,39.34,250.29,39.34z"/>
	<path fill="none" stroke="#000000" stroke-width="0.75" d="M95.617,102.058c-0.576-15.22-17.576-12.22-27.243-8.802"/>
	<path fill="none" stroke="#000000" stroke-width="0.75" d="M132.061,173.943c-22.021-1.105-45.021-14.105-53.021-36.105
		c1-6,5-11,8.086-16.242"/>
	<path fill="none" stroke="#000000" stroke-width="0.75" d="M150.811,176.193c0,0,21.188-0.188,26.313-0.938
		s9.938-1.188,13.688-1.875s13.188-3.375,13.188-3.375"/>
	<path fill="none" stroke="#000000" stroke-width="0.75" d="M202.374,116.131c0,0-3.625,4.375-5.875,8.875
		s-3.313,9.125-3.063,13.438s2.688,12.25,4.625,16.938s8,17.875,8,17.875s-5.375,17.375-5.438,17.563s-9.063-0.125-11.563,0.813
		s-6.813,5.813-6.813,5.813s1.688,0.75,3.063,1.063s3.25,0.188,3.25,0.188l-0.188,0.875l7.75-0.188l-0.625,0.75
		c0,0,8.563-0.125,11.563-0.5s3.813-0.5,3.813-0.5l32.625-33.25c0,0-9.563-8.438-9.875-12.188s1.063-8.813,1.875-11.625
		s1.188-4.938,1.75-8.25s1.125-8,1.125-11.688s-0.938-10.875-2.938-17.875s-3.063-10-3.063-10"/>
	<path fill="none" stroke="#000000" stroke-width="0.75" d="M237.061,111.318c0,0,0.375-9.688-0.188-13.25
		s-1.75-10.125-4.375-13.938s-9.25-9.375-11.375-10.563s-4.875-1.75-4.875-1.75"/>
	<path fill="none" stroke="#000000" stroke-width="0.75" d="M163.374,85.256c0,0,6.625-4.625,10.75-9.75s8.75-15.5,8.375-21.375
		s-0.75-8-0.75-8s12.625-6,19.75-6.375s14.75,0,19.125,1s8.75,3.125,8.75,3.125s-7.375,2.875-8.125,6.125s-2,8.75,0,12.375
		s4,5.375,4,5.375s-8.25,1-10.5,4.875s-2.75,10.375-1.375,13.25s1.875,3.625,1.875,3.625s-12.875-3.875-20.5-3.625
		s-14.625-0.25-21.5,2.625s-8.625,3.625-8.625,3.625"/>
	<path fill="none" stroke="#000000" stroke-width="0.75" d="M111.096,90.579c-3.056-12.741-16.056-15.741-25.098-23.448"/>
	<path fill="none" stroke="#000000" stroke-width="0.75" d="M173.249,76.381c-10.756,2.561-18.862,10.842-26.809,17.988
		c-9.141,8.222-17.275,17.432-24.316,27.512"/>
	<path fill="none" stroke="#000000" stroke-width="0.75" d="M149.458,92.506"/>
	<path d="M163.207,84.965l-6.583,4.438c0,0,6.563-3.542,7.063-3.938"/>
	<path d="M164.54,91.777c0,0-5.521,3.041-6.708,4.083s-1.188,1.042-1.188,1.042s7.271-4.021,8.104-4.438"/>
	<path d="M201.977,116.049c0,0,4.896-5.479,6.125-6.188s1.229-0.709,1.229-0.709s-6.396,6.916-6.896,7.5"/>
	<path d="M232.092,94.537c0,0-0.781-2.094-1.625-3.844s-0.844-1.75-0.844-1.75s2.656,3.719,3.094,5.281"/>
	<path fill="none" stroke="#000000" stroke-width="0.75" d="M238.541,126.007l10.917-2.417c0,0-3.167-14.333-3.25-18.083
		s0.333-6.5,0.333-6.5s2.75-4.583,9.417-10.166c6.667-5.584,20.667-16.25,20.667-16.25l-11.583-17.167c0,0,12.917,7,16.583,11.833
		s4,4.333,2.25,8s-4.501,6.75-11.584,14.75s-14,15.25-14,15.25s4.667,8.249,7.167,13.833s3.083,8.501,2.75,10.584
		s0.001,2.249-5.416,7.749s-9.085,8.168-13.501,11.584s-13.416,8.75-13.416,8.75"/>
	<path fill="none" stroke="#000000" stroke-width="0.75" d="M268.875,61.506c0,0-5.5-0.25-8.917-1.667s-5.833-3.583-8.25-7.417
		s-1.416-13.417-1.416-13.417s2.582,5.417,4.249,7.083s4.334,3.583,7.084,2.167s4.332-3.5,6.666-2.667s3,1.083,4.5,3.417
		s1.5,3.083,1.417,5.25s-1.25,5.583-1.25,5.583"/>
	<path fill="none" stroke="#000000" stroke-width="0.75" d="M117.311,188.068"/>
	<path fill="none" stroke="#000000" stroke-width="0.75" d="M126.249,173.068"/>
	<path fill="none" stroke="#000000" stroke-width="0.75" d="M169.957,176.007l-4.416,15.666c0,0-5.25-1.416-8.25,0.167
		s-5.334,3.75-5.334,3.75s1.916,1.417,3.25,1.417s2.167,0.083,2.167,0.083l-0.5,0.75l5.417,0.083c0,0,10.916-0.499,11.333-0.666
		s25.75-25.833,25.75-25.833"/>
	<path d="M188.561,198.693c0,0,1.25-2.75,2.625-3.875s3.938-1.875,3.938-1.875s-3.75,2.438-4.563,3.375s-1.688,3.188-1.688,3.188"/>
	<path d="M195.749,199.568c0,0,1-2.188,2.125-3.188s4.063-2.563,4.063-2.563s-3.188,2.313-4,3.375s-1.813,2.75-1.813,2.75"/>
	<path d="M162.291,197.923c0,0,0.271-1.604,1.771-2.729s2.75-1.438,2.75-1.438s-2.313,1.813-2.875,2.563s-0.688,1.938-0.688,1.938"
		/>
	<path d="M157.374,197.09c0,0,0.875-1.584,2.125-2.709s2.188-1.25,2.188-1.25l-4.313,4.625"/>
	<path fill="none" stroke="#000000" stroke-width="0.75" d="M155.124,87.172c0,0,0.5-11,3.125-16.125s8.5-11.375,10.125-12.625
		s3.125-2.25,3.125-2.25s-2.5-6.75-5-9.25s-15.375-11.125-21.125-13.375s-9.75-2.875-9.75-2.875s2.375,7,2.875,9.125
		s0.5,3.25-0.75,4.25s-5.375,2.375-5.375,2.375s2.25,3.75,4,8.5s1.625,6.25,1,8.5s-2.875,3.5-5,4.625s-3,1.375-3,1.375
		s3.75,1.75,8.75,5s3.5,1.625,6.625,6.125s4.875,10.75,4.875,10.75"/>
	<path fill="#077606" d="M137.124,48.547c0,0,8.5,3.375,17.5,4.625s15.125,2,15.125,2S141.624,48.672,137.124,48.547z"/>
	<path fill="#077606" d="M136.499,68.797c0,0,24.5-8.375,26.25-9.375s1.75-1,1.75-1s-10.375,8-27.5,10.625"/>
	<path fill="#020202" d="M215.333,72.13c0,0,1.126,0.125,1.417,0.167s0.25-0.583,0.25-0.583l-1.334-0.333"/>
	<path fill="none" stroke="#000000" stroke-width="0.75" d="M132.061,173.943c0,0,16.646,1.895,20.979,2.228"/>
	<path fill="#19CF53" d="M148.708,200.505"/>
	<path fill="#E2E20E" d="M130.541,163.338c0,0,21.999-5.333,26.333-7.333s-1,15-1,15l-4,4.5l-22.666-2.167"/>
	<path fill="#E2E20E" d="M106.041,165.922l1.25,0.834c0,0,0.081,0.058,0.236,0.159c1.016,0.661,5.222,3.201,10.931,3.924
		c6.583,0.833-3.834-5.083-4.084-5s-5.666-0.583-5.666-0.583s9.5,6.084,12.25,6.5s0.083-3.417,0.083-3.417l-4.333-5.583"/>
	<path fill="#19CF53" d="M57.457,82.338c0,0-2.583,1.584-4.25,2.334s-9.167,1.999-12,1.916s-9.083-1.916-9.083-1.916l-0.333,1.5
		c0,0,11.167,2.666,11.667,2.916s7.75,0,8.5,0s4.833-2.25,5.083-2.416c0.25-0.167,3.167-3.918,3.167-3.918"/>
	<path fill="#19CF53" d="M129.546,46.541c-1.512-0.459-3.004-0.978-4.477-1.55c-0.182-0.037-0.361-0.075-0.545-0.105
		c-0.105,0.083-0.244,0.129-0.408,0.1c-0.309-0.025-0.6-0.108-0.875-0.25c-0.021-0.009-0.037-0.024-0.059-0.035
		c-2.814-0.639-5.748-0.572-8.566-1.215c-0.119-0.027-0.195-0.088-0.254-0.16c-0.457,0.088-0.912,0.184-1.355,0.285
		c-0.629,0.143-0.895-0.821-0.266-0.964c1.859-0.424,3.84-0.78,5.771-0.672c0.037-0.232,0.217-0.458,0.486-0.471
		c0.732-0.036,1.506-0.071,2.295-0.08c-5.117-0.795-13.689-2.335-13.926-2.208c-0.33,0.179-8.465,2.745-8.465,2.745l-5.971,2.102
		l0.591-5.725c0,0-0.392-3.343-1.109-3.095c-0.72,0.248-16.788,8.114-16.788,8.114l-7.538,12.055c0,0-0.353,6.165-0.063,6.434
		c0.289,0.27-2.732,8.594-2.732,8.594L64.504,70.3c0,0-0.807,4.278-1.699,6.042c-0.892,1.764-4.163,5.957-6.791,7.667
		c-2.627,1.71-5.273,2.862-6.331,3.009c-1.058,0.147-5.788,0.865-6.855,0.733c-1.067-0.132-3.801,0.071-5.556-0.54
		c-1.754-0.613-5.707-1.17-5.707-1.17s-3.12,9.799-3.403,11.375s-1.423,7.6-1.316,9.105s1.195,5.609,1.631,6.938
		s2.212,5.91,2.212,5.91s2.709-2.607,3.78-4.043c0.554-0.742,1.733-1.857,2.747-2.768c-0.019-0.13,0.014-0.272,0.137-0.407
		c0.084-0.092,0.159-0.21,0.236-0.328c0.008-0.023,0.007-0.046,0.02-0.07c0.086-0.17,0.24-0.264,0.392-0.369
		c0.132-0.064,0.255-0.068,0.363-0.041c0.08-0.063,0.16-0.128,0.24-0.191c0.026-0.021,0.055-0.02,0.082-0.035
		c0.009-0.007,0.014-0.018,0.023-0.023c0.142-0.233,0.456-0.341,0.714-0.142c0.023-0.01,0.044-0.024,0.067-0.032
		c0.726-0.23,1.111,0.347,1.134,1.003c0.002,0.065-0.011,0.12-0.028,0.172c0.406,0.412,0.804,0.831,1.181,1.271
		c0.177-0.115,0.416-0.142,0.617,0.037c0.931,0.823,2.011,1.441,3.065,2.089c0.137,0.084,0.201,0.215,0.219,0.352
		c0.691,0.268,1.375,0.558,2.065,0.843c0.016-0.003,0.03-0.011,0.046-0.013c2.27-0.279,4.247,0.472,6.298,1.351c0,0,0,0,0,0
		c0.017,0.008,0.034,0.014,0.05,0.021c1.06-0.01,2.099-0.078,3.1-0.145c0.33-0.671,0.892-1.832,1.432-3.05
		c0.833-1.873,3.862-4.939,4.983-6.543c1.121-1.604,2.581-3.107,4.04-4.609c1.46-1.504,6.294-4.127,6.294-4.127l6.633-1.952
		c0.056-0.11,0.146-0.208,0.286-0.263c0.662-0.257,1.343-0.367,2.031-0.4c0.08-0.081,0.195-0.13,0.352-0.117
		c0.408,0.034,0.803,0.074,1.192,0.133l1.058,0.117c0.204,0.022,0.336,0.145,0.409,0.294c0.086,0.038,0.174,0.063,0.26,0.108
		c0.099,0.052,0.158,0.123,0.198,0.2l5.354-0.228l3.871,4.874c0.12,0.045,0.238,0.118,0.348,0.228
		c0.22,0.217,0.451,0.418,0.677,0.628c0.013,0.002,0.025,0.004,0.039,0.006c0.29-0.09,0.604-0.051,0.847,0.187
		c0.619,0.179,1.215,0.44,1.691,0.787c0.017,0.012,0.033,0.023,0.049,0.035c0.235,0.177,0.437,0.375,0.599,0.593l14.582-26.552
		c-0.164-1.945-0.135-3.882,0.152-5.814c-0.039-0.606-0.09-1.213-0.174-1.819c-0.029-0.212-0.014-0.41,0.035-0.59
		c-0.066-0.309-0.141-0.616-0.219-0.923c-0.248-0.267-0.389-0.632-0.332-1.07c-0.002-0.36,0.117-0.668,0.32-0.903
		c-0.037-0.292-0.074-0.583-0.109-0.875c-0.021-0.162,0.004-0.298,0.051-0.419c-0.016-0.634,0.02-1.256,0.189-1.913
		c-0.104-0.054-0.193-0.138-0.234-0.285c-0.322-1.239-0.977-2.361-1.479-3.534c-0.125-0.288-0.205-0.572-0.273-0.874
		c-0.387-0.114-0.588-0.71-0.143-0.907c0.23-0.103,0.486-0.153,0.723-0.069c0.068,0,0.137,0.002,0.205,0
		c0.053-0.045,0.113-0.084,0.191-0.106c0.734-0.208,1.455-0.35,2.203-0.47c0.055-0.126,0.148-0.234,0.297-0.28
		c1.027-0.322,2.035-0.667,3.029-1.064c0.492-0.207,0.984-0.414,1.477-0.636c0.117-0.054,0.23-0.052,0.334-0.027
		c1.279-0.888,2.648-1.601,4.049-2.292c0.352-0.249,0.689-0.519,1.035-0.776c0.74-1,1.635-1.816,2.707-2.53
		c0.186-0.125,0.369-0.1,0.508,0c0.346-0.411,0.693-0.82,1.037-1.233L129.546,46.541z"/>
	<path fill="#13923B" d="M114.221,66.073l-0.736-5.289c0,0-5.32,17.322-8.109,24.24c-2.787,6.916-6.256,7.732-9.121,9.002
		c-2.866,1.271-11.798,2.635-11.798,2.635l6.17,2.197l6.94,4.27l0.775,0.91c0.032-0.045,0.061-0.092,0.095-0.136
		c0.354-0.449,0.941,0.06,0.797,0.53c0.134,0.109,0.262,0.234,0.377,0.378c0.104,0.049,0.188,0.143,0.23,0.282
		c0.045,0.048,0.09,0.095,0.136,0.143c0.013,0.014,0.013,0.031,0.023,0.046l13.688-18.438l0.77-10.374L114.221,66.073z"/>
	<path fill="#5C3396" d="M87.079,8.981c0,0,2.001,6.831,2.298,7.902c0.297,1.071,0.163,1.522,0.234,2.527
		c0.07,1.005-0.367,3.518-0.367,3.518l-1.03,2.645l-1.452,1.167c0,0-3.08,0.439-3.679,0.385c-0.599-0.054-2.838-0.166-2.838-0.166
		l-1.771,0.582c0,0-2.111,1.525-2.599,2.548c-0.488,1.023-1.495,2.138-1.616,2.962c-0.122,0.825-1.245,6.269-1.245,6.269
		l8.162-3.481c0,0,0.986,2.689,1.071,3.022s5.184-2.15,5.399-2.456c0.214-0.305,4.213-4.467,4.426-4.772
		c0.214-0.306,1.758-4.272,1.758-4.272l1.959-7.226l-0.362-1.889l-1.331-2.976l-0.262-1.185c0,0-4.926-4.534-5.306-4.707
		c-0.378-0.173-1.594-0.841-1.594-0.841"/>
	<path fill="#5C3396" d="M91.561,46.418c0,0,2.058-0.927,2.609-1.132c0.553-0.205,4.658-1.199,4.918-1.246s2.547-2.995,2.547-2.995
		l4.371-9.767c0,0,3.441-1.868,3.701-1.913c0.26-0.047,7.633-2.532,7.633-2.532l4.215-5.511l1.354-4.147l-0.092-3.838l-1.111-3.095
		c0,0-4.121-6.201-5.244-7.394c-1.121-1.193-1.287-1.672-1.287-1.672s0.775,5.269,1.018,6.939s0.18,5.401,0.18,5.401l-2.066,6.147
		l-0.527,0.95l-2.604,1.318l-3.033-0.346l-3.037-0.532c0,0-2.283-0.184-2.502-0.065c-0.219,0.12-2.535,1.092-2.535,1.092
		s-3.094,3.385-3.195,3.724c-0.1,0.339-2.838,5.427-2.838,5.427l-0.961,4.693l-0.963,5.738L91.561,46.418z"/>
	<path fill="#42256A" d="M98.717,44.052c0,0,0.639-5.894,0.813-7.411c0.172-1.516,1.855-4.704,2.557-5.511
		c0.699-0.807,3.455-2.018,5.012-2.293c1.557-0.276,4.6,0.349,6.137-0.485c1.539-0.835,3.465-1.739,4.527-3.452
		c1.061-1.714,2.09-2.699,2.844-5.241c0.754-2.542,1.543-7.379,1.543-7.379l-0.209-1.167c0,0,1.84,3.126,2.217,4.344
		c0.377,1.218,0.73,3.443,0.539,4.401s-0.813,2.433-1.225,3.509c-0.412,1.077-2.361,2.988-2.791,3.505
		c-0.43,0.518-3.039,2.787-3.309,3.076c-0.27,0.289-3.057,2.228-3.387,2.407c-0.33,0.179-2.705,1.042-2.705,1.042l-0.9,9.875
		C110.379,43.269,99.764,43.625,98.717,44.052z"/>
	<path fill="#42256A" d="M92.875,13.373c0.069,0.39,1.826,4.414,2.189,6.918c0.364,2.504-1.178,4.906-1.46,6.481
		c-0.283,1.576-1.403,3.179-1.403,3.179l3.415-1.569l1.153-2.332l1.111-1.883c0,0-0.166-1.617-0.346-1.946s-1.854-5.251-1.854-5.251
		l-3.104-4.147"/>
	<path fill="#42256A" d="M82.904,34.571c0,0,2.912,0.126,3.841-0.521c0.93-0.646,0.729,0.032,0.729,0.032s-3.708,2.865-4.069,3.772
		c-0.361,0.907-0.38,0.348-0.38,0.348L82.276,34.2"/>
	<path fill="#830000" d="M113.53,43.22c0,0,6.74-1.382,7.332-1.515c0.592-0.132,7.344-1.141,7.344-1.141s-3.744-3.752-5.98-4.907
		c-2.24-1.156-8.947-3.205-8.947-3.205l-2.057,0.927l-1.131,9.62l2.84,0.166"/>
	<path fill="#830000" d="M80.469,42.576c0,0,4.202-2.565,5.374-3.201c1.172-0.635,6.836-2.952,6.836-2.952s0.777-2.413,1.118-3.355
		c0.342-0.944,1.993-5.064,1.993-5.064s-10.097,6.902-11.064,8.09s-4.724,7.02-4.724,7.02"/>
	<path fill="#830000" d="M68.927,53.106c0,0,0.914-7.228,1.956-9.5c1.043-2.272,2.689-4.303,2.689-4.303l8.587-9.686l1.146,8.575
		c0,0-3.208,4.395-3.462,4.627c-0.254,0.233-2.514,2.882-2.514,2.882s-4.12,1.667-4.766,2.397
		C71.916,48.829,68.927,53.106,68.927,53.106z"/>
	
		<ellipse transform="matrix(-0.8789 0.477 -0.477 -0.8789 176.6271 67.7255)" fill="#FFFFFF" cx="79.717" cy="56.282" rx="11.219" ry="10.562"/>
	
		<ellipse transform="matrix(-0.8789 0.477 -0.477 -0.8789 148.9572 85.5342)" fill="#FFFFFF" cx="63.622" cy="61.674" rx="9.25" ry="8.084"/>
	
		<ellipse transform="matrix(-0.8789 0.477 -0.477 -0.8789 141.3303 93.3515)" fill="#0092FF" cx="58.817" cy="64.614" rx="3.25" ry="3.042"/>
	
		<ellipse transform="matrix(-0.8789 0.477 -0.477 -0.8789 166.8424 76.985)" fill="#0092FF" cx="73.65" cy="59.668" rx="4.021" ry="3.521"/>
	
		<ellipse transform="matrix(-0.8789 0.477 -0.477 -0.8789 166.4112 77.4309)" fill="#00426B" cx="73.376" cy="59.84" rx="1.406" ry="1.272"/>
	
		<ellipse transform="matrix(-0.879 0.4769 -0.4769 -0.879 140.7775 93.5392)" fill="#00426B" cx="58.519" cy="64.633" rx="1.271" ry="1.167"/>
	
		<ellipse transform="matrix(-0.879 0.4769 -0.4769 -0.879 141.1695 89.4354)" fill="#FFFFFF" cx="59.235" cy="62.633" rx="0.812" ry="0.75"/>
	
		<ellipse transform="matrix(-0.879 0.4769 -0.4769 -0.879 140.5037 97.556)" fill="#FFFFFF" cx="57.872" cy="66.607" rx="0.656" ry="0.531"/>
	<circle fill="#FFFFFF" cx="74.016" cy="57.242" r="0.875"/>
	<circle fill="#FFFFFF" cx="72.901" cy="61.936" r="0.656"/>
	<path fill="none" stroke="#000000" stroke-width="0.75" d="M64.834,70.104c-2.855,15.7-19.701,19.084-32.953,14.754
		c-1.759,5.651-3.786,11.537-4.44,17.447c-0.643,5.81,1.226,11.452,3.535,16.701c6.685-7.965,14.203-15.941,22.359-22.423
		c7.472-5.937,24.766-4.41,24.766-13.924"/>
	<path fill="none" stroke="#000000" stroke-width="0.75" d="M39.22,110.4c0,0,3.045,3.252,5.582,4.65
		c2.536,1.396,7.796,2.311,9.452,2.479s3.227,0.311,3.227,0.311s1.064-3.279,3.581-6.635c2.516-3.357,7.776-9.127,11.296-10.895
		c3.521-1.77,8.583-4.232,12.976-3.344c4.393,0.887,11.851,5.586,12.899,6.865"/>
	<path fill="none" stroke="#000000" stroke-width="0.75" d="M112.858,97.104c0.434-2.082,1.484-17.443,1.568-19.907
		c0.086-2.464-0.119-13.588-0.684-15.415c-0.566-1.827-1.818-4.134-1.818-4.134"/>
	<path fill="none" stroke="#000000" stroke-width="0.75" d="M98.102,55.763c0,0,9.84,3.193,16.658,1.342
		c6.816-1.851,10.314-4.317,12.162-5.89c1.85-1.572,4.17-4.111,4.17-4.111s-7.207-3.058-13.49-3.63s-19.285,0.367-22.38,1.478
		c-3.096,1.111-3.096,1.111-3.096,1.111"/>
	<path d="M92.06,45.72c0,0-0.848,0.579-1.104,1.025c-0.255,0.447-0.29,1.651-0.29,1.651s0.926-1.663,1.63-2.022"/>
	<path fill="none" stroke="#000000" stroke-width="0.75" d="M91.601,46.49c0,0,1.264-11.826,2.904-15.703
		c1.642-3.877,4.202-8.158,6.405-9.165c2.201-1.006,4.674-0.735,6.625-0.371c1.951,0.363,2.588,1.013,4.037,0.274
		c1.447-0.738,2.41-0.36,3.416-3.135c1.008-2.775,1.57-4.881,1.52-7.509c-0.051-2.627-1.236-9.617-1.236-9.617
		s5.008,5.817,7.164,10.667c2.158,4.85,2.701,8.3,1.117,11.057c-1.586,2.756-6.213,7.07-8.262,8.275s-4.117,2.283-4.117,2.283
		s-1.002,9.598-1.016,9.747"/>
	<path fill="none" stroke="#000000" stroke-width="0.75" d="M113.209,32.584c0,0,6.096,1.1,9.74,3.532
		c3.643,2.432,5.215,4.281,5.215,4.281s-14.922,2.645-16.064,2.981"/>
	<path d="M98.116,56.182c0,0-3.165-0.984-4.087-1.373s-0.922-0.389-0.922-0.389s4.603,0.88,5.265,1.054"/>
	<path fill="none" stroke="#000000" stroke-width="0.75" d="M68.733,53.141c0,0,1.065-8.258,3.538-12.089
		c2.472-3.83,9.826-11.376,9.826-11.376s1.099,8.576,0.964,8.721"/>
	<path fill="none" stroke="#000000" d="M95.882,27.955c0,0-5.234,3.196-9.232,6.574c-3.998,3.378-7.277,8.998-7.277,8.998"/>
	<path fill="none" stroke="#000000" stroke-width="0.75" d="M73.046,39.992c0,0,0.831-6.069,1.508-7.574
		c0.676-1.505,3.169-5.561,5.802-5.424c2.633,0.135,5.412,0.405,6.67-0.42c1.258-0.826,2.932-4.293,2.48-7.747
		c-0.451-3.452-2.471-10.32-2.471-10.32s6.031,3.909,7.825,7.344c1.794,3.436,3.321,7.3,3.235,8.058"/>
	
		<ellipse transform="matrix(-0.8789 0.477 -0.477 -0.8789 176.4171 67.5897)" fill="none" stroke="#000000" stroke-width="0.75" cx="79.63" cy="56.187" rx="11.218" ry="10.438"/>
	<path fill="none" stroke="#000000" stroke-width="0.75" d="M71.546,63.583c-0.366-0.299-0.672-0.667-0.938-1.074
		c-0.45-0.464-0.805-1.021-1.056-1.615c-0.211-0.332-0.38-0.688-0.426-1.046c-0.177-0.433-0.283-0.891-0.29-1.367
		c-0.063-0.304-0.09-0.624-0.088-0.949c-0.075-0.62-0.053-1.24,0.05-1.844c-0.022-0.416-0.003-0.826,0.078-1.234
		c-2.567-1.423-6.041-1.453-9.123,0.22c-4.505,2.444-6.449,7.575-4.342,11.458c2.107,3.884,7.468,5.05,11.973,2.605
		c2.11-1.146,3.646-2.883,4.478-4.803c-0.05-0.059-0.1-0.12-0.15-0.181C71.656,63.694,71.599,63.643,71.546,63.583z"/>
	<polyline points="68.379,53.013 68.372,54.047 68.631,54.263 69.001,53.243 68.859,52.326 	"/>
	<path fill="none" stroke="#000000" d="M77.263,45.928c0,0,1.294-2.504,7.261-5.837c5.967-3.332,8.702-4.058,8.702-4.058"/>
	<path fill="#FFFFFF" d="M69.249,57.588c0,0.125,0.333,2.917,0.833,3.708s1.292,1.667,2,2.042s1.167,1.542,3.542-0.375
		s2.583-3,2.583-3l-0.583-5.125c0,0-2.75-1.25-3.125-1.125s-2.167,0.958-2.333,1.125s-2.875,2.583-2.875,2.583"/>
	<path fill="#FFFFFF" d="M57.208,60.838c-0.125,0.083-1.834,2.25-1.917,2.708s0.375,3.25,1.833,3.958s4.458,0.25,4.625,0.25
		s1.875-1.958,1.875-1.958s0.25-0.958,0.167-1.083s-0.75-3.208-0.917-3.375s-2.417-1.042-2.667-1S57.208,60.838,57.208,60.838z"/>
	<path fill="#13923B" d="M111.666,87.588l-10.25,12.5c0,0,6,0.5,6.375,0.375s4.375-2.875,4.375-2.875l0.375-1l0.25-3.625
		L111.666,87.588z"/>
	<path fill="#DF0100" d="M79.572,82.65c-0.125,0.031-2.594,2.25-2.719,2.469s0.156,1.969,0.281,2.219s0.656,0.969,0.75,0.969
		s1.969,0.156,2.094,0.156s2.375-0.031,2.469-0.031s2.75-0.375,2.75-0.375l1.281,0.031l-0.344-0.594L82.603,84.4l-1.125-1.313
		c0,0-1.469-0.469-1.594-0.469"/>
	<path fill="#19CF53" d="M101.541,135.838l-24,6.333c0,0-0.667-7.166-1.167-8.333s-3.333-6.5-3.333-6.5l-0.5,4.666l-5.667-1.5
		c0,0,0.833,3.168,0.833,3.834s0,0.666,0,0.666l-4-0.333c0,0,2.5,4.001,2.667,4.667s0.667,2,0.667,2l-4.167,0.166
		c0,0,9,6.668,10.5,7.334s12.166,1.167,13.333,1.5s25.833,6.5,25.833,6.5l3.334-2.834l-7.667-16L101.541,135.838z"/>
	<path fill="#0F7F33" d="M79.707,139.339l-2.5,0.333c0,0,0-3.416-0.25-4.333s-0.5-1.917-0.5-1.917l-2.833-3.917l8.75-1.583
		c0,0-0.75,1.083-1.583,3.083s-2,5.168-1.917,6.334s0.167,1.75,0.167,1.75"/>
	<polyline fill="#0F7F33" points="72.291,130.339 69.374,131.339 72.207,132.589 72.624,130.255 	"/>
	<path fill="#0F7F33" d="M60.541,118.339c0.167,0.25,3.25,3.166,3.667,4.333s1.417,7.334,1.417,7.334l1.167,1.083l0.583,2.917
		l-0.667,0.916l-3-0.251c0,0,1.25,1.917,1.667,2.751s0.583,1.5,0.583,1.5l-4.583-0.166c0,0-4.25-1.751-5.417-2.834s-4.5-4.5-4.5-4.5
		h3.25l-0.75-2.666c0,0-2.084-3.166-2.667-3.5s-0.833-0.75-0.833-0.75s2.083-0.5,3-0.167s2.167,1,2.167,1s-1.5-5.334-1.75-5.167
		s1.5,0.166,1.917,0.25s4.5,1.667,4.5,1.667L60.541,118.339z"/>
	<path fill="#0F7F33" d="M80.708,128.422c0,0,2.5-1.583,2.083-0.583s-2.5,4.25-3.167,6.333"/>
	<polyline fill="#19CF53" points="67.291,131.755 66.374,136.422 69.208,135.505 	"/>
	<path fill="#19CF53" d="M81.374,132.255c0.25-0.416,5.25-10.75,8.083-13.416s9.167-9.25,9.167-9.25l2.666-0.666
		c0,0-5.833,8.417-6.083,8.75"/>
	<path fill="#13923B" d="M99.403,105.503c0,0,1.638,0.585,0.763,1.835s-2.875,3-2.875,3s5-1,7.125-0.5s7.375,4.125,7.875,4.375
		s7.5,5.75,7.5,5.75l-3.125-8.375l-3.875-15.375l-12.875,3.875l-1,4.625"/>
	<path fill="#13A040" d="M147.541,139.172c0,0-7.666-0.166-12.666,1.5s-11.5,4.332-16.667,5.166s-10.668,1.666-14.834,1.5
		s-15.833-0.5-18.166-0.333s-7.5,0.833-9,1s-4.167,0.167-4.167,0.167s2.667,1.667,4.333,1.5s4.167-0.167,4.167-0.167
		s12.833,2.333,16,3s15.667,4.167,15.667,4.167s13.001-6.168,14.667-7.001S147.541,139.172,147.541,139.172z"/>
	<path fill="#13923B" d="M111.541,86.339c0,0-1.5,10.917-1.25,10.917s2.083-0.25,2.083-0.25s1.416-8,1-10.667s-1.5-1.917-1.5-1.917"
		/>
	<path fill="#0D6F2C" d="M118.666,133.213c0,0-4.75,2.25-2.875,3.25s4.5,1.625,5.5,1.125s1.875-2.25,1.875-2.25
		s-0.375-1.75-0.75-1.75s-3.875-0.875-3.875-0.875"/>
	<ellipse fill="#0D6F2C" cx="126.228" cy="131.838" rx="1.313" ry="1.125"/>
	<ellipse fill="#0D6F2C" cx="111.791" cy="138.15" rx="1.25" ry="0.813"/>
	<path fill="none" stroke="#000000" stroke-width="0.75" d="M55.291,95.588c0,0,14.75-8.333,19.25-10.583s4.917-2.834,6.25-2.167
		s5.75,5.334,5.75,5.334s-9.25,0.416-11.167,0.5c-1.917,0.083-3.667,1.166-4.75,2.083s-3.833,4.75-3.833,4.75L55.291,95.588z"/>
	<path d="M80.634,82.807c0,0-1.844,1.156-2.125,1.813s-0.313,2.156-0.125,2.563s0.719,0.969,0.719,0.969s-5.031,0.563-5.344,0.688
		s-2.094,0.875-2.406,1.156s-1.25,1.031-1.719,1.625s-1.813,2.156-2.125,2.688S66.822,95.4,66.822,95.4l-10.875,0.125l4.594-2.813
		l6.969-3.969l5.875-3.188l4.219-2.125c0,0,2.156-1.344,3.125-0.75"/>
	<path fill="none" stroke="#000000" d="M69.499,61.588l0.583-0.542c0,0,2.583-1.75,4.125-2.333s5.792-1.167,7.417-1.083
		s5.208,0.583,5.208,0.583l2.542,0.417l0.708,0.458"/>
	<path fill="none" stroke="#000000" d="M54.749,62.005c0.125-0.125,2.75-1.208,5.042-1.333s6.25,0.25,6.958,0.333s3,0.5,3,0.5"/>
	<path fill="none" stroke="#000000" stroke-width="0.75" d="M97.916,103.213c4.125,1.625,2.125,4.625,0.125,6.625
		c-6,6-11,11-15.25,17.875"/>
	<path fill="none" stroke="#000000" stroke-width="0.75" d="M112.916,96.088c0,0,1.25,6.75,2.125,10.25s6.125,16.5,6.125,16.5
		l3.75-4.875"/>
	<path fill="none" stroke="#000000" stroke-width="0.75" d="M147.541,139.588l-35,17.25c0,0-29-7.25-32.5-7.5s-6.333,0.333-9-1.5
		s-8.167-6.166-8.167-6.166l3.667-0.334c0,0-0.5-3.5-2-5s-1.5-1.5-1.5-1.5l3.667,0.167c0,0,0.834-2.001,0.167-3.167
		s-0.667-1.166-0.667-1.166l6,1.5l0.5-4.334c0,0,3.667,4.334,4,6.834s1,7.333,1,7.333l42.5-11.5"/>
	<line fill="none" stroke="#000000" stroke-width="0.75" x1="82.791" y1="127.713" x2="73.874" y2="129.338"/>
	<line fill="none" stroke="#000000" stroke-width="0.75" x1="69.208" y1="131.504" x2="72.041" y2="130.338"/>
	<path fill="none" stroke="#000000" stroke-width="0.75" d="M66.708,131.004c0,0-1-0.166-1.167-2.166s-0.667-5.501-2-6.834
		s-3.167-4-3.167-4v4.5c0,0-3.833-2.333-5.167-2.333s-1.333,0-1.333,0l1.5,5c0,0-2.833-1.333-3.833-1s-1,0.333-1,0.333
		s2.667,2.5,3.333,4s1,3,1,3l-4-0.333c0,0,6.167,5.833,8.333,6.833s2.167,1,2.167,1l4.833,0.167"/>
	<path fill="none" stroke="#000000" stroke-width="0.75" d="M59.541,126.338c0,0,0.167,5.166,0.5,6.333s3,2.167,3,2.167"/>
	<path fill="none" stroke="#000000" stroke-width="0.75" d="M71.541,137.004c0,0,0.5,4.501,0.5,5.334s2.167,2,2.167,2"/>
	<line fill="none" stroke="#000000" stroke-width="0.75" x1="80.041" y1="139.338" x2="77.708" y2="139.504"/>
</g>
<g id="frame_3">
	<path fill="#19CF53" d="M121.043,122.383c-0.237,0.227-0.678,0.214-0.817-0.204c-0.083-0.25-0.166-0.5-0.25-0.75
		c-0.057-0.17-0.019-0.309,0.063-0.414c-0.014-0.113-0.026-0.235-0.039-0.368c-0.062-0.167-0.122-0.334-0.179-0.503
		c-0.194,0.072-0.416,0.029-0.545-0.221c-1.188-2.298-1.766-4.791-2.35-7.286c-0.22,0.036-0.468-0.058-0.576-0.333
		c-0.037-0.095-0.066-0.191-0.103-0.287c-0.064-0.055-0.119-0.121-0.147-0.213c-0.226-0.739-0.453-1.488-0.672-2.242
		c-0.049-0.164-0.104-0.326-0.15-0.491c-0.063-0.153-0.124-0.3-0.186-0.455c-0.049-0.05-0.089-0.111-0.117-0.187
		c-1.109-2.958-1.746-6.082-1.765-9.242c-0.087-0.071-0.165-0.155-0.22-0.273c-0.275-0.601-0.584-1.674-0.435-2.468
		c-0.036-0.096-0.057-0.148-0.057-0.148l-7.25-14.083l-1-0.918l-3.667-2.5l-16.417-9L73.5,79.547c0,0-1.25,10-0.917,9.666
		c0.333-0.333-0.083,0.334-0.083,0.334s13.667-0.084,14.167,0s10.75,5.25,11,5.167c0.188-0.063,0.613,7.057,0.812,10.577
		c0.11,0.169,0.229,0.334,0.322,0.513c0.246,0.47,0.079,0.906-0.229,1.182c0.008,0.143,0.013,0.229,0.013,0.229
		s10,19.166,10.833,19.332s10.667,3,11,2.584s0.75-6.334,0.75-6.334S121.123,122.646,121.043,122.383z"/>
	<path fill="#19CF53" d="M134.75,31.338c0,0,2.916,8.083,3.166,8.75s0.167,3,0.167,3l-0.5,1.167l-0.833,0.917L132,46.755
		c0,0,3.667,8.25,4.25,10.083s0.834,4.667,0.75,5.417s-0.583,3-1.25,3.667s-7,4-7,4s7.917,4.584,10.25,6
		c2.333,1.417,3.582,2.583,4.416,4s2.251,4.249,3.167,5.833c0.916,1.583,2.583,8.333,2.583,8.333l5.333-5.333l0.084-3.5
		c0,0,0.749-5.75,0.916-6.75s2.583-8.167,4.083-10.083s4.5-5.75,5.417-6.917s5.75-4.917,5.75-4.917s-2.917-7-3.917-7.917
		s-8.083-6.667-8.083-6.667s-8.751-5.667-11.167-6.667s-12.416-3.917-12.416-3.917"/>
	<path fill="#19CF53" d="M145.5,95.089c0,0,10.916-9.584,12.083-10.334s8.084-5.083,8.084-5.083l5.916-2.583l1.5,0.166
		c0,0-11.165,13.499-11.499,13.833s-12.083,6.833-13.5,7.5s-2.5-2.833-2.5-2.833"/>
	<path fill="#19CF53" d="M214,71.755c0,0,8.166,3.333,9.25,4.333c1.084,1,5.5,5.167,5.5,5.167s1.084,1.75,1.084,2
		s-12.75-4.916-13.167-5.083s-6.75-3.917-6.75-3.917"/>
	<path fill="#14A241" d="M102.667,94.005c-0.5-1.625-4-4.125-4.625-4.5s-4.875-2.5-13.75-4.25S73.917,86.38,73.917,86.38l-4.625,7.5
		l4.25-1.25l5.5-1.375l5-0.875l6.875,2.25l2.875,3l1.375,3.75l-0.125,3.875l-0.076,0.361c0.094,0.035,0.183,0.079,0.275,0.116
		c0.14-0.08,0.31-0.1,0.47,0.007c0.003,0.002,0.006,0.005,0.01,0.007c0.168-0.222,0.482-0.323,0.717-0.054
		c0.092,0.104,0.191,0.2,0.288,0.299c0.307-0.092,0.651-0.04,0.923,0.24c0.453,0.469,0.849,0.995,1.152,1.572
		c0.081,0.155,0.11,0.306,0.112,0.451c0.019,0.029,0.045,0.057,0.063,0.086c0.028,0.035,0.06,0.066,0.087,0.102
		c-0.002,0.001-0.003,0.002-0.004,0.003c0.025,0.035,0.057,0.063,0.082,0.099c0.036,0.048,0.058,0.098,0.069,0.147
		c0.667-0.94,1.351-1.868,2.085-2.749c0.446-0.633,0.908-1.255,1.379-1.87c0.149-0.821,0.243-1.538,0.243-2.067
		C102.917,98.63,103.167,95.63,102.667,94.005z"/>
	<path fill="#19CF53" d="M284.042,73.214c-0.125-0.75-3.625-5.375-4.625-6.25s-4.5-4.25-6.375-5.25s-8.375-4.75-8.375-4.75l11,16.25
		c0,0-22.875,18.125-24.125,19.375s-5.75,7.125-5.75,7.125s-0.75,6.25-0.25,8.75s3.25,15.5,3.25,15.5l-11.125,3
		c0,0,0.125-7.5-0.5-10.625s-0.875-6.125-0.875-6.125l0.125-4.625c0,0,0.5-5.875-1-10.625s-1.875-9.25-6.25-13.25l-12.25-8.5
		c-2.375-0.375-1.75-1.25-1.75-1.25l3.625-2c0,0,1.725-0.431,3.157-0.727c0.043-0.275,0.235-0.525,0.594-0.531
		c0.561-0.009,1.112-0.077,1.663-0.161c-0.954-1.205-3.673-4.733-4.289-6.581c-0.75-2.25-0.625-7,0.125-9.125s2.375-4.875,3.75-5.75
		s5.125-2.25,5.125-2.25s-10.375-3.25-12.75-3.625s-13.125-1-14.5-0.625s-11.375,2.5-12.625,3s-8.25,3.375-8.25,3.375
		s1,8.75,0.875,9.875s-1.75,6.5-2.375,8.625s-3.875,7.625-4.625,8.875s-3.875,4.625-3.875,4.625s-3.125,0.75-5,1.75
		c-1.514,0.808-7.18,4.465-9.768,6.371c-0.096,0.217-0.252,0.427-0.493,0.618c-2.127,1.679-4.287,3.313-6.459,4.931
		c-0.001,0.202-0.086,0.403-0.316,0.535c-3.264,1.87-5.958,4.502-8.938,6.767c-0.338,0.315-0.673,0.635-1.01,0.951
		c0.012,0.126-0.022,0.263-0.12,0.388c-0.492,0.63-1.06,1.209-1.655,1.768c-0.079,0.094-0.159,0.188-0.237,0.281
		c-0.48,0.619-0.973,1.229-1.482,1.826c-0.204,0.24-0.469,0.194-0.643,0.03c-0.16,0.148-0.313,0.302-0.468,0.454
		c0.128,0.172,0.163,0.419-0.015,0.641c-0.907,1.136-1.895,2.192-2.929,3.202c-0.047,0.054-0.093,0.109-0.14,0.163
		c-0.98,1.305-2.118,2.491-3.182,3.76c-0.055,0.064-0.122,0.092-0.189,0.115c-0.226,0.285-0.47,0.559-0.744,0.814
		c-0.513,0.847-1.063,1.623-1.747,2.32c-0.437,0.517-0.91,1-1.427,1.443c-0.842,1.433-1.707,2.861-2.324,4.408
		c-0.242,0.607-1.105,0.478-1.204-0.013c-0.222-0.096-0.39-0.291-0.383-0.604c-0.008-0.016-0.021-0.023-0.028-0.04
		c-0.807-1.883-1.634-3.769-1.951-5.806c-0.001-0.008,0.001-0.015,0-0.022c-0.011-0.016-0.024-0.026-0.035-0.043
		c-0.191-0.307-0.377-0.616-0.565-0.925c-0.492-0.626-0.855-1.316-1.185-2.075c-0.195-0.45-0.191-0.883-0.077-1.27
		c-0.595-0.575-0.727-1.714-0.787-2.705c-0.139-0.04-0.263-0.129-0.313-0.32c-0.408-1.559-0.965-3.07-1.29-4.642l-13.02,5.052
		c0,0-4.375,4.625-6.5,6.75s-8.5,9.625-9.25,10.75s-4.875,6.5-5.25,7.25s-1.25,3.125-1.25,3.125l5.875-2c0,0,9.125-0.75,9.75-0.375
		s10,20,10.625,20.5s12.75,10.375,14.125,10.875s9.75,1.75,9.75,1.75l3,1.75c0,0-0.063,2.374-0.228,4.317
		c0.267-0.093,0.548-0.153,0.854-0.141c1.512,0.062,2.823,0.441,4.171,1.041c0.162-0.029,0.327-0.045,0.495-0.041
		c0.143,0.003,0.279,0.026,0.421,0.035c0.593-0.487,1.381-0.762,2.318-0.603c3.103,0.526,6.194,1.117,9.316,1.508
		c1.728-2.565,3.027-4.492,3.027-4.492l2.875-2.75l28.125-14l9-2l7.5,13.75l3.75,4.25l2.125,4l-5.375,17.375
		c0,0-10.25-0.125-11.25,0.5s-4.5,2.875-5.125,3.5s-2,2.625-2,2.625s4.25,1.625,4.75,1.75s1.25,0.25,1.25,0.25l7.5,0.25l-0.25,0.875
		c0,0,9.5-0.625,10.875-0.75s4.375-1.75,4.375-1.75l9.375-10.125c0,0,9.625-14.25,9.625-14.625s2.125-6.875,1.875-7.75
		s-4.25-16.375-5.125-17.25s7.375-16.625,7.375-16.625l4.125,10.125c0,0,7.125,1.5,7.5,1.5s8.75-2.375,8.75-2.375l11.75-8.875
		l1.125-3.375c0,0,0.375-4.375-1.25-7.875s-7.5-15.75-7.5-15.75s12.375-13.625,15.375-17s7.25-8,8.75-10.75
		S284.167,73.964,284.042,73.214z"/>
	<path fill="#13923B" d="M236.167,110.672c0,0-0.25,4.667-0.5,7.917s-1.334,6.332-1.917,7.166s-1.417,1.416-2.5,1.5
		s-3-1.832-3.833-3.166s-2.917-8.417-2.917-8.417s-5.416,10.417-6.916,14.5s-4.25,14-4.667,17.75s1.332,9.834,2.916,11.834
		s7.167,6.166,8.917,7.666s2.666,2.083,2.833,3.5s0.001,3.501-1.916,6.167s-13.25,17.25-13.25,17.25l-5,5.833l2.666-0.5
		l32.667-33.25c0,0-6.749-6.501-7.833-7.917s-2.083-3.167-2.083-4.5s0.75-7.333,1.083-8.333s2.083-8.166,2.333-9.583
		s1.251-9.168,1.334-11.084S236.167,110.672,236.167,110.672z"/>
	<path fill="#13923B" d="M198.25,172.255l-24.916,25.417c0,0-9.667,0.583-10.584,0.833s-4,0.25-4,0.25l-2.667-0.083l1-1
		c0,0-2.833,0.166-3.083,0.083s-2.667-1.5-2.667-1.5s2.417-2.166,3.167-2.666s3.001-1.668,3.417-1.834s3.166-0.166,3.166-0.166
		l3.834,0.583l4.333-15.5c0,0,12.334-1.5,12.917-1.583s11.25-1.834,11.25-1.834L198.25,172.255z"/>
	<path fill="#13923B" d="M154.333,157.089c0,0-2.333,6.751-4.5,10.917c-0.801,1.54-1.957,3.777-3.448,6.303
		c1.449,0.136,2.895,0.398,4.351,0.712l2.681-4.432l1.416-4.5v-6.834L154.333,157.089z"/>
	<path fill="#077606" d="M184.25,52.422c0,0,12.333,15.75,15.583,20c3.25,4.25,10.917,14.833,10.917,14.833
		s-4.916-10.417-8.333-15.5c-3.417-5.083-11.334-14-12.667-15.167S184.25,52.422,184.25,52.422z"/>
	<path fill="#077606" d="M185.583,48.589c0,0,8.584,2.5,12.417,4.25s7.999,3.417,11.583,6s10.167,8.167,10.167,8.167
		s-5.833-9.833-13.833-13.25s-14.918-4.5-16.084-4.75S185.583,48.589,185.583,48.589z"/>
	<path fill="#0C6729" d="M172.292,90.214c0,0-3.125,1.875-5.125,4s-4.749,6.626-5.416,8.459s-1.001,5.332-0.417,6.416
		s2.333,2.667,4,2.5s5.25-0.5,8-3.25s4.833-5.916,5.25-8.333s0.583-5.751,0.5-7.334s-0.249-3.166-1.416-3.166
		s-5.417,0.417-5.417,0.417"/>
	<path fill="#0C6729" d="M185.584,89.089c0,0-1.418,1.417-1.834,2.5s-0.167,2.334,0.75,3.167s1.084,1.167,3.584,1.25
		s2.166,0.417,4.166,0.75s2.501,0.916,3.834,0.416s2.5-0.584,2.583-2.25s-0.25-3.416-1-4.249c-0.75-0.834-2.833-2.251-4.333-2.417
		c-1.5-0.167-5.751-0.334-7.334,0.583"/>
	<path fill="#0C6729" d="M184.667,98.714c0,0-1.5,1.188-2,2.688s-0.75,4.875-0.75,5.938s0.188,2.063,1.375,2.438
		s2.25,0.875,4.25-0.063s3.313-1.813,3.938-2.625s1.25-3.25-0.25-4.5s-4.188-3.938-6.25-3.813"/>
	<path fill="#0C6729" d="M203.479,124.026c0,0-1.188,1.125-1.438,2s0,2.563,1,3.063s1.938,0.313,2.938-0.313s1.625-1.188,2.563-1.75
		s2.125-1.25,2.125-1.875s-0.563-2.25-1.688-2.563S204.917,123.026,203.479,124.026z"/>
	<path fill="#0C6729" d="M206.417,130.776c0,0,1.438-0.688,2.688-0.813s2.75,0.125,3,0.438s0.188,1.375-0.125,2.5
		s-1.125,3.188-2,3.063s-2.5-1.563-2.75-2.063S205.604,132.026,206.417,130.776z"/>
	<path fill="#0C6729" d="M197.979,130.964c0,0-1.25,1.875-1.313,4.438s0.5,5.125,1.125,6.563s1.688,2.563,2.438,2.938
		s1.313,0.563,2.25,0.125s2-1.938,2.188-3.375s-0.063-5.5-1-7.25s-2.25-3-2.875-3.313S199.604,130.214,197.979,130.964z"/>
	<path fill="#E2E20E" d="M131.083,168.59C131,167.674,131,163.923,131,163.923s-7.167,0-10.25-0.833s-3.75-1.5-7.334-4.917
		S108,151.34,105.5,146.59s-4.583-8.25-7.583-11.834s-5.75-2.916-8.25-3s-5.25,1-7.667,2.25s-3.25,2.75-3.25,2.75l-0.25,1.417v2.112
		c0.223,0.034,0.422,0.197,0.42,0.442c0.01,0.021,0.02,0.041,0.03,0.062c0.092,0.036,0.176,0.101,0.232,0.214l0.25,0.5
		c0.059,0.116,0.061,0.227,0.039,0.329c0.016,0.028,0.028,0.06,0.044,0.088c0.122,0.215,0.052,0.46-0.11,0.611
		c0.03,0.158,0.074,0.312,0.095,0.474c0.02,0.149-0.042,0.266-0.137,0.35l2.303,4.068c0,0,1.468,1.92,3.017,3.913
		c0.034-0.021,0.072-0.033,0.109-0.046c0.217-0.139,0.537-0.144,0.724,0.13c0.547,0.798,1.08,1.628,1.639,2.439
		c0.854,0.949,1.771,1.842,2.647,2.79c0.638,0.691,1.23,1.424,1.846,2.131c0.182,0.174,0.368,0.345,0.547,0.521
		c0.38,0.298,0.698,0.525,0.888,0.621c0.834,0.417,7.917,5.333,10.584,6.583s12.666,4.917,13.916,5.334s11.501,2.583,11.501,2.583
		l1.833,0.333l0.417-2.083C131.333,172.673,131.167,169.506,131.083,168.59z"/>
	<path fill="#E2E20E" d="M154.75,157.34c0.25-0.083,9.334-4.834,14.167-8.167s14.832-9.833,16.916-11.083s7.25-3.917,7.25-3.917
		s-0.416,3.833-0.416,4.5s0.832,4.834,0.916,5.084s2.668,9.25,3.834,12.333s6.5,14.5,6.5,14.5s-7,1.75-8,2s-6.668,1.583-8.334,1.833
		s-12.417,1.418-13.75,1.584s-10.082,0.417-11.249,0.5s-12.667,0.5-12.667,0.5s0.917-2,1.417-2.75s2.583-5.166,2.916-6
		s0.75-2.834,0.75-2.834l-0.167-6.583v-1.833"/>
	<path fill="#E2E20E" d="M236.042,137.964c0,0,1.75,2.875,4.375,3.5s6.625,1.125,9.375,0.125s5.75-2.5,8-4.5s5.5-6.25,6.375-7.625
		s2.25-5,2.25-5s1.5,3,1.375,4s-0.625,3.375-0.625,3.375s-2.25,2.625-3.25,4.125s-8.5,8.625-9.375,9s-4,3.25-5.375,4.125
		s-8.25,5.625-8.875,6s-4.875,3.5-4.875,3.5s-1.584-1.332-2.167-3.499s-0.333-3.417-0.25-4.5s2.083-9.083,2.083-9.083
		L236.042,137.964z"/>
	<path fill="#830000" d="M249.583,39.923c0,0-0.249,4-0.166,4.833s0.334,5.167,0.5,5.75s1.082,2.25,1.416,2.917
		s2.751,4.333,4.584,5.25S262,61.256,262,61.256l4.667,0.75l1.666,0.25l-3.583-5.75c0,0,6.333,3.417,6.75,3.75
		s0.917,0.417,0.917,0.417s0.249-1.083,0.416-2s0.833-4.083,0.75-4.583s0-3.25-1.75-5s-4.25-3-4.25-3s-2.082-0.083-2.666,0.333
		s-2.584,1.5-3.167,1.917s-2,1-2.75,1s-2.167-0.5-2.75-0.75s-3.333-2.833-3.75-3.583S249.583,39.923,249.583,39.923z"/>
	<path fill="none" stroke="#000000" stroke-width="0.75" d="M94.91,102.641c-0.576-15.22-17.576-12.22-27.243-8.802"/>
	<path fill="none" stroke="#000000" stroke-width="0.75" d="M131.354,174.526c-22.021-1.105-45.021-14.105-53.021-36.105
		c1-6,5-11,8.086-16.242"/>
	<path fill="none" stroke="#000000" stroke-width="0.75" d="M150.104,176.776c0,0,21.188-0.188,26.313-0.938
		s9.938-1.188,13.688-1.875s13.188-3.375,13.188-3.375"/>
	<path fill="none" stroke="#000000" stroke-width="0.75" d="M201.667,116.714c0,0-3.625,4.375-5.875,8.875
		s-3.313,9.125-3.063,13.438s2.688,12.25,4.625,16.938s8,17.875,8,17.875s-5.375,17.375-5.438,17.563s-9.063-0.125-11.563,0.813
		s-6.813,5.813-6.813,5.813s1.688,0.75,3.063,1.063s3.25,0.188,3.25,0.188l-0.188,0.875l7.75-0.188l-0.625,0.75
		c0,0,8.563-0.125,11.563-0.5s3.813-0.5,3.813-0.5l32.625-33.25c0,0-9.563-8.438-9.875-12.188s1.063-8.813,1.875-11.625
		s1.188-4.938,1.75-8.25s1.125-8,1.125-11.688s-0.938-10.875-2.938-17.875s-3.063-10-3.063-10"/>
	<path fill="none" stroke="#000000" stroke-width="0.75" d="M236.354,111.901c0,0,0.375-9.688-0.188-13.25
		s-1.75-10.125-4.375-13.938s-9.25-9.375-11.375-10.563s-4.875-1.75-4.875-1.75"/>
	<path fill="none" stroke="#000000" stroke-width="0.75" d="M162.667,85.839c0,0,6.625-4.625,10.75-9.75s8.75-15.5,8.375-21.375
		s-0.75-8-0.75-8s12.625-6,19.75-6.375s14.75,0,19.125,1s8.75,3.125,8.75,3.125s-7.375,2.875-8.125,6.125s-2,8.75,0,12.375
		s4,5.375,4,5.375s-8.25,1-10.5,4.875s-2.75,10.375-1.375,13.25s1.875,3.625,1.875,3.625s-12.875-3.875-20.5-3.625
		s-14.625-0.25-21.5,2.625s-8.625,3.625-8.625,3.625"/>
	<path fill="none" stroke="#000000" stroke-width="0.75" d="M110.389,91.162c-3.056-12.741-16.056-15.741-25.098-23.448"/>
	<path fill="none" stroke="#000000" stroke-width="0.75" d="M172.542,76.964c-10.756,2.561-18.862,10.842-26.809,17.988
		c-9.141,8.222-17.275,17.432-24.316,27.512"/>
	<path fill="none" stroke="#000000" stroke-width="0.75" d="M148.75,93.089"/>
	<path d="M162.5,85.548l-6.583,4.438c0,0,6.563-3.542,7.063-3.938"/>
	<path d="M163.833,92.36c0,0-5.521,3.041-6.708,4.083s-1.188,1.042-1.188,1.042s7.271-4.021,8.104-4.438"/>
	<path d="M201.27,116.632c0,0,4.896-5.479,6.125-6.188s1.229-0.709,1.229-0.709s-6.396,6.916-6.896,7.5"/>
	<path d="M231.385,95.12c0,0-0.781-2.094-1.625-3.844s-0.844-1.75-0.844-1.75s2.656,3.719,3.094,5.281"/>
	<path fill="none" stroke="#000000" stroke-width="0.75" d="M237.833,126.59l10.917-2.417c0,0-3.167-14.333-3.25-18.083
		s0.333-6.5,0.333-6.5s2.75-4.583,9.417-10.166c6.667-5.584,20.667-16.25,20.667-16.25l-11.583-17.167c0,0,12.917,7,16.583,11.833
		s4,4.333,2.25,8c-1.75,3.667-4.501,6.75-11.584,14.75s-14,15.25-14,15.25s4.667,8.249,7.167,13.833s3.083,8.501,2.75,10.584
		s0.001,2.249-5.416,7.749s-9.085,8.168-13.501,11.584s-13.416,8.75-13.416,8.75"/>
	<path fill="none" stroke="#000000" stroke-width="0.75" d="M268.167,62.089c0,0-5.5-0.25-8.917-1.667s-5.833-3.583-8.25-7.417
		s-1.416-13.417-1.416-13.417s2.582,5.417,4.249,7.083s4.334,3.583,7.084,2.167s4.332-3.5,6.666-2.667s3,1.083,4.5,3.417
		s1.5,3.083,1.417,5.25s-1.25,5.583-1.25,5.583"/>
	<path fill="none" stroke="#000000" stroke-width="0.75" d="M116.604,188.651"/>
	<path fill="none" stroke="#000000" stroke-width="0.75" d="M125.542,173.651"/>
	<path fill="none" stroke="#000000" stroke-width="0.75" d="M169.25,176.59l-4.416,15.666c0,0-5.25-1.416-8.25,0.167
		s-5.334,3.75-5.334,3.75s1.916,1.417,3.25,1.417s2.167,0.083,2.167,0.083l-0.5,0.75l5.417,0.083c0,0,10.916-0.499,11.333-0.666
		s25.75-25.833,25.75-25.833"/>
	<path d="M187.854,199.276c0,0,1.25-2.75,2.625-3.875s3.938-1.875,3.938-1.875s-3.75,2.438-4.563,3.375s-1.688,3.188-1.688,3.188"/>
	<path d="M195.042,200.151c0,0,1-2.188,2.125-3.188s4.063-2.563,4.063-2.563s-3.188,2.313-4,3.375s-1.813,2.75-1.813,2.75"/>
	<path d="M161.583,198.506c0,0,0.271-1.604,1.771-2.729s2.75-1.438,2.75-1.438s-2.313,1.813-2.875,2.563s-0.688,1.938-0.688,1.938"
		/>
	<path d="M156.667,197.673c0,0,0.875-1.584,2.125-2.709s2.188-1.25,2.188-1.25l-4.313,4.625"/>
	<path fill="none" stroke="#000000" stroke-width="0.75" d="M154.417,87.755c0,0,0.5-11,3.125-16.125s8.5-11.375,10.125-12.625
		s3.125-2.25,3.125-2.25s-2.5-6.75-5-9.25S150.417,36.38,144.667,34.13s-9.75-2.875-9.75-2.875s2.375,7,2.875,9.125
		s0.5,3.25-0.75,4.25s-5.375,2.375-5.375,2.375s2.25,3.75,4,8.5s1.625,6.25,1,8.5s-2.875,3.5-5,4.625s-3,1.375-3,1.375
		s3.75,1.75,8.75,5s3.5,1.625,6.625,6.125s4.875,10.75,4.875,10.75"/>
	<path fill="#077606" d="M136.417,49.13c0,0,8.5,3.375,17.5,4.625s15.125,2,15.125,2S140.917,49.255,136.417,49.13z"/>
	<path fill="#077606" d="M135.792,69.38c0,0,24.5-8.375,26.25-9.375s1.75-1,1.75-1s-10.375,8-27.5,10.625"/>
	<path fill="#020202" d="M214.625,72.713c0,0,1.126,0.125,1.417,0.167s0.25-0.583,0.25-0.583l-1.334-0.333"/>
	<path fill="none" stroke="#000000" stroke-width="0.75" d="M131.354,174.526c0,0,16.646,1.895,20.979,2.228"/>
	<path fill="#19CF53" d="M148,201.088"/>
	<path fill="#E2E20E" d="M129.833,163.921c0,0,21.999-5.333,26.333-7.333s-1,15-1,15l-4,4.5l-22.666-2.167"/>
	<path fill="#E2E20E" d="M105.333,166.505l1.25,0.834c0,0,0.081,0.058,0.236,0.159c1.016,0.661,5.222,3.201,10.931,3.924
		c6.583,0.833-3.834-5.083-4.084-5S108,165.839,108,165.839s9.5,6.084,12.25,6.5s0.083-3.417,0.083-3.417L116,163.339"/>
	<path fill="#19CF53" d="M56.75,82.921c0,0-2.583,1.584-4.25,2.334s-9.167,1.999-12,1.916s-9.083-1.916-9.083-1.916l-0.333,1.5
		c0,0,11.167,2.666,11.667,2.916s7.75,0,8.5,0s4.833-2.25,5.083-2.416c0.25-0.167,3.167-3.918,3.167-3.918"/>
	<path fill="#19CF53" d="M128.839,47.124c-1.512-0.459-3.004-0.978-4.477-1.55c-0.182-0.037-0.361-0.075-0.545-0.105
		c-0.105,0.083-0.244,0.129-0.408,0.1c-0.309-0.025-0.6-0.108-0.875-0.25c-0.021-0.009-0.037-0.024-0.059-0.035
		c-2.814-0.639-5.748-0.572-8.566-1.215c-0.119-0.027-0.195-0.088-0.254-0.16c-0.457,0.088-0.912,0.184-1.355,0.285
		c-0.629,0.143-0.895-0.821-0.266-0.964c1.859-0.424,3.84-0.78,5.771-0.672c0.037-0.232,0.217-0.458,0.486-0.471
		c0.732-0.036,1.506-0.071,2.295-0.08c-5.117-0.795-13.689-2.335-13.926-2.208c-0.33,0.179-8.465,2.745-8.465,2.745l-5.971,2.102
		l0.591-5.725c0,0-0.392-3.343-1.11-3.095c-0.72,0.248-16.788,8.114-16.788,8.114l-7.538,12.055c0,0-0.353,6.165-0.063,6.434
		c0.289,0.27-2.732,8.594-2.732,8.594l-0.788-0.141c0,0-0.807,4.278-1.699,6.042c-0.892,1.764-4.163,5.957-6.791,7.667
		c-2.627,1.71-5.273,2.862-6.331,3.009c-1.058,0.147-5.788,0.865-6.855,0.733c-1.067-0.132-3.801,0.071-5.556-0.54
		c-1.754-0.613-5.707-1.17-5.707-1.17s-3.12,9.799-3.403,11.375s-1.423,7.6-1.316,9.105s1.195,5.609,1.631,6.938
		s2.212,5.91,2.212,5.91s2.709-2.607,3.78-4.043c0.554-0.742,1.733-1.857,2.747-2.768c-0.019-0.13,0.014-0.272,0.137-0.407
		c0.084-0.092,0.159-0.21,0.236-0.328c0.008-0.023,0.007-0.046,0.02-0.07c0.086-0.17,0.24-0.264,0.392-0.369
		c0.132-0.064,0.255-0.068,0.363-0.041c0.08-0.063,0.16-0.128,0.24-0.191c0.026-0.021,0.055-0.02,0.082-0.035
		c0.009-0.007,0.014-0.018,0.023-0.023c0.142-0.233,0.456-0.341,0.714-0.142c0.023-0.01,0.044-0.024,0.067-0.032
		c0.726-0.23,1.111,0.347,1.134,1.003c0.002,0.065-0.011,0.12-0.028,0.172c0.406,0.412,0.804,0.831,1.181,1.271
		c0.177-0.115,0.416-0.142,0.617,0.037c0.931,0.823,2.011,1.441,3.065,2.089c0.137,0.084,0.201,0.215,0.219,0.352
		c0.691,0.268,1.375,0.558,2.065,0.843c0.016-0.003,0.03-0.011,0.046-0.013c2.27-0.279,4.247,0.472,6.298,1.351c0,0,0,0,0,0
		c0.017,0.008,0.034,0.014,0.05,0.021c1.06-0.01,2.099-0.078,3.1-0.145c0.33-0.671,0.892-1.832,1.432-3.05
		c0.833-1.873,3.862-4.939,4.983-6.543c1.121-1.604,2.581-3.107,4.04-4.609c1.46-1.504,6.294-4.127,6.294-4.127l6.633-1.952
		c0.056-0.11,0.146-0.208,0.286-0.263c0.662-0.257,1.343-0.367,2.031-0.4c0.08-0.081,0.195-0.13,0.352-0.117
		c0.408,0.034,0.803,0.074,1.192,0.133l1.058,0.117c0.204,0.022,0.336,0.145,0.409,0.294c0.086,0.038,0.174,0.063,0.26,0.108
		c0.099,0.052,0.158,0.123,0.198,0.2l5.354-0.228l3.871,4.874c0.12,0.045,0.238,0.118,0.348,0.228
		c0.22,0.217,0.451,0.418,0.677,0.628c0.013,0.002,0.025,0.004,0.039,0.006c0.29-0.09,0.604-0.051,0.847,0.187
		c0.619,0.179,1.215,0.44,1.691,0.787c0.017,0.012,0.033,0.023,0.049,0.035c0.235,0.177,0.437,0.375,0.599,0.593l14.582-26.552
		c-0.164-1.945-0.135-3.882,0.152-5.815c-0.039-0.606-0.09-1.213-0.174-1.819c-0.029-0.212-0.014-0.41,0.035-0.59
		c-0.066-0.309-0.141-0.616-0.219-0.923c-0.248-0.267-0.389-0.632-0.332-1.07c-0.002-0.36,0.117-0.668,0.32-0.903
		c-0.037-0.292-0.074-0.583-0.109-0.875c-0.021-0.162,0.004-0.298,0.051-0.419c-0.016-0.634,0.02-1.256,0.189-1.913
		c-0.104-0.054-0.193-0.138-0.234-0.285c-0.322-1.239-0.977-2.361-1.479-3.534c-0.125-0.288-0.205-0.572-0.273-0.874
		c-0.387-0.114-0.588-0.71-0.143-0.907c0.23-0.103,0.486-0.153,0.723-0.069c0.068,0,0.137,0.002,0.205,0
		c0.053-0.045,0.113-0.084,0.191-0.106c0.734-0.208,1.455-0.35,2.203-0.47c0.055-0.126,0.148-0.234,0.297-0.28
		c1.027-0.322,2.035-0.667,3.029-1.064c0.492-0.207,0.984-0.414,1.477-0.636c0.117-0.054,0.23-0.052,0.334-0.027
		c1.279-0.888,2.648-1.601,4.049-2.292c0.352-0.249,0.689-0.519,1.035-0.776c0.74-1,1.635-1.816,2.707-2.53
		c0.186-0.125,0.369-0.1,0.508,0c0.346-0.411,0.693-0.82,1.037-1.233L128.839,47.124z"/>
	<path fill="#13923B" d="M113.514,66.656l-0.736-5.289c0,0-5.32,17.322-8.109,24.24c-2.787,6.916-6.256,7.732-9.121,9.002
		c-2.866,1.271-11.798,2.635-11.798,2.635l6.17,2.197l6.94,4.27l0.775,0.91c0.032-0.045,0.061-0.092,0.095-0.136
		c0.354-0.449,0.941,0.06,0.797,0.53c0.134,0.109,0.262,0.234,0.377,0.378c0.104,0.049,0.188,0.143,0.23,0.282
		c0.045,0.048,0.09,0.095,0.136,0.143c0.013,0.014,0.013,0.031,0.023,0.046l13.688-18.438l0.77-10.373L113.514,66.656z"/>
	<path fill="#5C3396" d="M86.372,9.564c0,0,2.001,6.831,2.298,7.902c0.297,1.071,0.163,1.522,0.234,2.527
		c0.07,1.005-0.367,3.518-0.367,3.518l-1.03,2.645l-1.452,1.167c0,0-3.08,0.439-3.679,0.385c-0.599-0.054-2.838-0.166-2.838-0.166
		l-1.771,0.582c0,0-2.111,1.525-2.599,2.548c-0.488,1.023-1.495,2.138-1.616,2.962c-0.122,0.825-1.245,6.269-1.245,6.269
		l8.162-3.481c0,0,0.986,2.689,1.071,3.022s5.184-2.15,5.399-2.456c0.214-0.305,4.213-4.467,4.426-4.772
		c0.214-0.306,1.758-4.272,1.758-4.272l1.959-7.226l-0.362-1.889l-1.331-2.976l-0.262-1.185c0,0-4.926-4.534-5.306-4.707
		c-0.378-0.173-1.594-0.841-1.594-0.841"/>
	<path fill="#5C3396" d="M90.854,47.001c0,0,2.058-0.927,2.609-1.132c0.553-0.205,4.658-1.199,4.918-1.246s2.547-2.995,2.547-2.995
		l4.371-9.767c0,0,3.441-1.868,3.701-1.913c0.26-0.047,7.633-2.532,7.633-2.532l4.215-5.511l1.354-4.147l-0.092-3.838l-1.111-3.095
		c0,0-4.121-6.201-5.244-7.394c-1.121-1.193-1.287-1.672-1.287-1.672s0.775,5.269,1.018,6.939s0.18,5.401,0.18,5.401l-2.066,6.147
		l-0.527,0.95l-2.604,1.318l-3.033-0.346l-3.037-0.532c0,0-2.283-0.184-2.502-0.065c-0.219,0.12-2.535,1.092-2.535,1.092
		s-3.094,3.385-3.195,3.724c-0.1,0.339-2.838,5.427-2.838,5.427l-0.961,4.693l-0.963,5.738L90.854,47.001z"/>
	<path fill="#42256A" d="M98.01,44.635c0,0,0.639-5.894,0.813-7.411c0.172-1.516,1.855-4.704,2.557-5.511
		c0.699-0.807,3.455-2.018,5.012-2.293c1.557-0.276,4.6,0.349,6.137-0.485c1.539-0.835,3.465-1.739,4.527-3.452
		c1.061-1.714,2.09-2.699,2.844-5.241c0.754-2.542,1.543-7.379,1.543-7.379l-0.209-1.167c0,0,1.84,3.126,2.217,4.344
		c0.377,1.218,0.73,3.443,0.539,4.401s-0.813,2.433-1.225,3.509c-0.412,1.077-2.361,2.988-2.791,3.505
		c-0.43,0.518-3.039,2.787-3.309,3.076c-0.27,0.289-3.057,2.228-3.387,2.407c-0.33,0.179-2.705,1.042-2.705,1.042l-0.9,9.875
		C109.672,43.852,99.057,44.208,98.01,44.635z"/>
	<path fill="#42256A" d="M92.168,13.956c0.069,0.39,1.826,4.414,2.189,6.918c0.364,2.504-1.178,4.906-1.46,6.481
		c-0.283,1.576-1.403,3.179-1.403,3.179l3.415-1.569l1.153-2.332l1.111-1.883c0,0-0.166-1.617-0.346-1.946s-1.854-5.251-1.854-5.251
		l-3.104-4.147"/>
	<path fill="#42256A" d="M82.197,35.154c0,0,2.912,0.126,3.841-0.521c0.93-0.646,0.729,0.032,0.729,0.032s-3.708,2.865-4.069,3.772
		c-0.361,0.907-0.38,0.348-0.38,0.348l-0.749-4.002"/>
	<path fill="#830000" d="M112.823,43.803c0,0,6.74-1.382,7.332-1.515c0.592-0.132,7.344-1.141,7.344-1.141s-3.744-3.752-5.98-4.907
		c-2.24-1.156-8.947-3.205-8.947-3.205l-2.057,0.927l-1.131,9.62l2.84,0.166"/>
	<path fill="#830000" d="M79.762,43.159c0,0,4.202-2.565,5.374-3.201c1.172-0.635,6.836-2.952,6.836-2.952s0.777-2.413,1.118-3.355
		c0.342-0.944,1.993-5.064,1.993-5.064s-10.097,6.902-11.064,8.09s-4.724,7.02-4.724,7.02"/>
	<path fill="#830000" d="M68.22,53.689c0,0,0.914-7.228,1.956-9.5c1.043-2.272,2.689-4.303,2.689-4.303l8.587-9.686l1.146,8.575
		c0,0-3.208,4.395-3.462,4.627c-0.254,0.233-2.514,2.882-2.514,2.882s-4.12,1.667-4.766,2.397
		C71.208,49.412,68.22,53.689,68.22,53.689z"/>
	
		<ellipse transform="matrix(-0.8789 0.477 -0.477 -0.8789 175.5768 69.1581)" fill="#FFFFFF" cx="79.01" cy="56.865" rx="11.219" ry="10.562"/>
	
		<ellipse transform="matrix(-0.8789 0.477 -0.477 -0.8789 147.9068 86.9668)" fill="#FFFFFF" cx="62.915" cy="62.257" rx="9.25" ry="8.084"/>
	
		<ellipse transform="matrix(-0.8789 0.477 -0.477 -0.8789 140.2799 94.7842)" fill="#0092FF" cx="58.11" cy="65.197" rx="3.25" ry="3.042"/>
	
		<ellipse transform="matrix(-0.8789 0.477 -0.477 -0.8789 165.7921 78.4177)" fill="#0092FF" cx="72.943" cy="60.251" rx="4.021" ry="3.521"/>
	
		<ellipse transform="matrix(-0.8789 0.477 -0.477 -0.8789 165.3609 78.8636)" fill="#00426B" cx="72.669" cy="60.423" rx="1.406" ry="1.272"/>
	
		<ellipse transform="matrix(-0.879 0.4769 -0.4769 -0.879 139.727 94.9719)" fill="#00426B" cx="57.812" cy="65.216" rx="1.271" ry="1.167"/>
	
		<ellipse transform="matrix(-0.879 0.4769 -0.4769 -0.879 140.119 90.868)" fill="#FFFFFF" cx="58.528" cy="63.216" rx="0.812" ry="0.75"/>
	
		<ellipse transform="matrix(-0.879 0.4769 -0.4769 -0.879 139.4532 98.9886)" fill="#FFFFFF" cx="57.165" cy="67.19" rx="0.656" ry="0.531"/>
	<circle fill="#FFFFFF" cx="73.309" cy="57.825" r="0.875"/>
	<circle fill="#FFFFFF" cx="72.194" cy="62.519" r="0.656"/>
	<path fill="none" stroke="#000000" stroke-width="0.75" d="M64.127,70.687c-2.855,15.7-19.701,19.084-32.953,14.754
		c-1.759,5.651-3.786,11.537-4.44,17.447c-0.643,5.81,1.226,11.452,3.535,16.701c6.685-7.965,14.203-15.941,22.359-22.423
		c7.472-5.937,24.766-4.41,24.766-13.924"/>
	<path fill="none" stroke="#000000" stroke-width="0.75" d="M38.513,110.983c0,0,3.045,3.252,5.582,4.65
		c2.536,1.396,7.796,2.311,9.452,2.479s3.227,0.311,3.227,0.311s1.064-3.279,3.581-6.635c2.516-3.357,7.776-9.127,11.296-10.895
		c3.521-1.77,8.583-4.232,12.976-3.344c4.393,0.887,11.851,5.586,12.899,6.865"/>
	<path fill="none" stroke="#000000" stroke-width="0.75" d="M112.151,97.687c0.434-2.082,1.484-17.443,1.568-19.907
		c0.086-2.464-0.119-13.588-0.684-15.415c-0.566-1.827-1.818-4.134-1.818-4.134"/>
	<path fill="none" stroke="#000000" stroke-width="0.75" d="M97.395,56.346c0,0,9.84,3.193,16.658,1.342
		c6.816-1.851,10.314-4.317,12.162-5.89c1.85-1.572,4.17-4.111,4.17-4.111s-7.207-3.058-13.49-3.63s-19.285,0.367-22.38,1.478
		c-3.096,1.111-3.096,1.111-3.096,1.111"/>
	<path d="M91.353,46.303c0,0-0.848,0.579-1.104,1.025c-0.255,0.447-0.29,1.651-0.29,1.651s0.926-1.663,1.63-2.022"/>
	<path fill="none" stroke="#000000" stroke-width="0.75" d="M90.894,47.073c0,0,1.264-11.826,2.904-15.703
		c1.642-3.877,4.202-8.158,6.405-9.165c2.201-1.006,4.674-0.735,6.625-0.371c1.951,0.363,2.588,1.013,4.037,0.274
		c1.447-0.738,2.41-0.36,3.416-3.135c1.008-2.775,1.57-4.881,1.52-7.509c-0.051-2.627-1.236-9.617-1.236-9.617
		s5.008,5.817,7.164,10.667c2.158,4.85,2.701,8.3,1.117,11.057c-1.586,2.756-6.213,7.07-8.262,8.275s-4.117,2.283-4.117,2.283
		s-1.002,9.598-1.016,9.747"/>
	<path fill="none" stroke="#000000" stroke-width="0.75" d="M112.502,33.167c0,0,6.096,1.1,9.74,3.532
		c3.643,2.432,5.215,4.281,5.215,4.281s-14.922,2.645-16.064,2.981"/>
	<path d="M97.409,56.765c0,0-3.165-0.984-4.087-1.373S92.4,55.003,92.4,55.003s4.603,0.88,5.265,1.054"/>
	<path fill="none" stroke="#000000" stroke-width="0.75" d="M68.026,53.724c0,0,1.065-8.258,3.538-12.089
		c2.472-3.83,9.826-11.376,9.826-11.376s1.099,8.576,0.964,8.721"/>
	<path fill="none" stroke="#000000" d="M95.175,28.538c0,0-5.234,3.196-9.232,6.574c-3.998,3.378-7.277,8.998-7.277,8.998"/>
	<path fill="none" stroke="#000000" stroke-width="0.75" d="M72.339,40.575c0,0,0.831-6.069,1.508-7.574
		c0.676-1.505,3.169-5.561,5.802-5.424c2.633,0.135,5.412,0.405,6.67-0.42c1.258-0.826,2.932-4.293,2.48-7.747
		c-0.451-3.452-2.471-10.32-2.471-10.32s6.031,3.909,7.825,7.344c1.794,3.436,3.321,7.3,3.235,8.058"/>
	
		<ellipse transform="matrix(-0.8789 0.477 -0.477 -0.8789 175.3667 69.0223)" fill="none" stroke="#000000" stroke-width="0.75" cx="78.923" cy="56.77" rx="11.218" ry="10.438"/>
	<path fill="none" stroke="#000000" stroke-width="0.75" d="M70.839,64.166c-0.366-0.299-0.672-0.667-0.938-1.074
		c-0.45-0.464-0.805-1.021-1.056-1.615c-0.211-0.332-0.38-0.688-0.426-1.046c-0.177-0.433-0.283-0.891-0.29-1.367
		c-0.063-0.304-0.09-0.624-0.088-0.949c-0.075-0.62-0.053-1.24,0.05-1.844c-0.022-0.416-0.003-0.826,0.078-1.234
		c-2.567-1.423-6.041-1.453-9.123,0.22c-4.505,2.444-6.449,7.575-4.342,11.458c2.107,3.884,7.468,5.05,11.973,2.605
		c2.11-1.146,3.646-2.883,4.478-4.803c-0.05-0.059-0.1-0.12-0.15-0.181C70.949,64.277,70.892,64.226,70.839,64.166z"/>
	<polyline points="67.672,53.596 67.665,54.63 67.924,54.846 68.294,53.826 68.152,52.909 	"/>
	<path fill="none" stroke="#000000" d="M76.556,46.511c0,0,1.294-2.504,7.261-5.837c5.967-3.332,8.702-4.058,8.702-4.058"/>
	<path fill="#FFFFFF" d="M68.542,58.171c0,0.125,0.333,2.917,0.833,3.708s1.292,1.667,2,2.042s1.167,1.542,3.542-0.375
		s2.583-3,2.583-3l-0.583-5.125c0,0-2.75-1.25-3.125-1.125s-2.167,0.958-2.333,1.125s-2.875,2.583-2.875,2.583"/>
	<path fill="#FFFFFF" d="M56.5,61.421c-0.125,0.083-1.834,2.25-1.917,2.708s0.375,3.25,1.833,3.958s4.458,0.25,4.625,0.25
		s1.875-1.958,1.875-1.958s0.25-0.958,0.167-1.083s-0.75-3.208-0.917-3.375s-2.417-1.042-2.667-1S56.5,61.421,56.5,61.421z"/>
	<path fill="#13923B" d="M110.958,88.171l-10.25,12.5c0,0,6,0.5,6.375,0.375s4.375-2.875,4.375-2.875l0.375-1l0.25-3.625
		L110.958,88.171z"/>
	<path fill="#DF0100" d="M78.865,83.233c-0.125,0.031-2.594,2.25-2.719,2.469s0.156,1.969,0.281,2.219s0.656,0.969,0.75,0.969
		s1.969,0.156,2.094,0.156s2.375-0.031,2.469-0.031s2.75-0.375,2.75-0.375l1.281,0.031l-0.344-0.594l-3.531-3.094l-1.125-1.313
		c0,0-1.469-0.469-1.594-0.469"/>
	<path fill="#19CF53" d="M100.833,136.421l-24,6.333c0,0-0.667-7.166-1.167-8.333s-3.333-6.5-3.333-6.5l-0.5,4.666l-5.667-1.5
		c0,0,0.833,3.168,0.833,3.834s0,0.666,0,0.666l-4-0.333c0,0,2.5,4.001,2.667,4.667s0.667,2,0.667,2l-4.167,0.166
		c0,0,9,6.668,10.5,7.334s12.166,1.167,13.333,1.5s25.833,6.5,25.833,6.5l3.334-2.834l-7.667-16L100.833,136.421z"/>
	<path fill="#0F7F33" d="M79,139.922l-2.5,0.333c0,0,0-3.416-0.25-4.333s-0.5-1.917-0.5-1.917l-2.833-3.917l8.75-1.583
		c0,0-0.75,1.083-1.583,3.083s-2,5.168-1.917,6.334s0.167,1.75,0.167,1.75"/>
	<polyline fill="#0F7F33" points="71.583,130.922 68.667,131.922 71.5,133.172 71.917,130.838 	"/>
	<path fill="#0F7F33" d="M59.833,118.922c0.167,0.25,3.25,3.166,3.667,4.333s1.417,7.334,1.417,7.334l1.167,1.083l0.583,2.917
		L66,135.505l-3-0.251c0,0,1.25,1.917,1.667,2.751s0.583,1.5,0.583,1.5l-4.583-0.166c0,0-4.25-1.751-5.417-2.834s-4.5-4.5-4.5-4.5
		H54l-0.75-2.666c0,0-2.084-3.166-2.667-3.5s-0.833-0.75-0.833-0.75s2.083-0.5,3-0.167s2.167,1,2.167,1s-1.5-5.334-1.75-5.167
		s1.5,0.166,1.917,0.25s4.5,1.667,4.5,1.667L59.833,118.922z"/>
	<path fill="#0F7F33" d="M80,129.005c0,0,2.5-1.583,2.083-0.583s-2.5,4.25-3.167,6.333"/>
	<polyline fill="#19CF53" points="66.583,132.338 65.667,137.005 68.5,136.088 	"/>
	<path fill="#19CF53" d="M80.667,132.838c0.25-0.416,5.25-10.75,8.083-13.416s9.167-9.25,9.167-9.25l2.666-0.666
		c0,0-5.833,8.417-6.083,8.75"/>
	<path fill="#13923B" d="M98.696,106.086c0,0,1.638,0.585,0.763,1.835s-2.875,3-2.875,3s5-1,7.125-0.5s7.375,4.125,7.875,4.375
		s7.5,5.75,7.5,5.75l-3.125-8.375l-3.875-15.375l-12.875,3.875l-1,4.625"/>
	<path fill="#13A040" d="M146.833,139.755c0,0-7.666-0.166-12.666,1.5s-11.5,4.332-16.667,5.166s-10.668,1.666-14.834,1.5
		s-15.833-0.5-18.166-0.333s-7.5,0.833-9,1s-4.167,0.167-4.167,0.167s2.667,1.667,4.333,1.5s4.167-0.167,4.167-0.167
		s12.833,2.333,16,3s15.667,4.167,15.667,4.167s13.001-6.168,14.667-7.001S146.833,139.755,146.833,139.755z"/>
	<path fill="#13923B" d="M110.833,86.922c0,0-1.5,10.917-1.25,10.917s2.083-0.25,2.083-0.25s1.416-8,1-10.667s-1.5-1.917-1.5-1.917"
		/>
	<path fill="#0D6F2C" d="M117.958,133.796c0,0-4.75,2.25-2.875,3.25s4.5,1.625,5.5,1.125s1.875-2.25,1.875-2.25
		s-0.375-1.75-0.75-1.75s-3.875-0.875-3.875-0.875"/>
	<ellipse fill="#0D6F2C" cx="125.521" cy="132.421" rx="1.313" ry="1.125"/>
	<ellipse fill="#0D6F2C" cx="111.083" cy="138.733" rx="1.25" ry="0.813"/>
	<path fill="none" stroke="#000000" stroke-width="0.75" d="M54.583,96.171c0,0,14.75-8.333,19.25-10.583s4.917-2.834,6.25-2.167
		s5.75,5.334,5.75,5.334s-9.25,0.416-11.167,0.5c-1.917,0.083-3.667,1.166-4.75,2.083s-3.833,4.75-3.833,4.75L54.583,96.171z"/>
	<path d="M79.927,83.39c0,0-1.844,1.156-2.125,1.813s-0.313,2.156-0.125,2.563s0.719,0.969,0.719,0.969s-5.031,0.563-5.344,0.688
		s-2.094,0.875-2.406,1.156s-1.25,1.031-1.719,1.625s-1.813,2.156-2.125,2.688s-0.688,1.094-0.688,1.094L55.24,96.108l4.594-2.813
		l6.969-3.969l5.875-3.188l4.219-2.125c0,0,2.156-1.344,3.125-0.75"/>
	<path fill="none" stroke="#000000" d="M68.792,62.171l0.583-0.542c0,0,2.583-1.75,4.125-2.333s5.792-1.167,7.417-1.083
		s5.208,0.583,5.208,0.583l2.542,0.417l0.708,0.458"/>
	<path fill="none" stroke="#000000" d="M54.042,62.588c0.125-0.125,2.75-1.208,5.042-1.333s6.25,0.25,6.958,0.333s3,0.5,3,0.5"/>
	<path fill="none" stroke="#000000" stroke-width="0.75" d="M97.208,103.796c4.125,1.625,2.125,4.625,0.125,6.625
		c-6,6-11,11-15.25,17.875"/>
	<path fill="none" stroke="#000000" stroke-width="0.75" d="M112.208,96.671c0,0,1.25,6.75,2.125,10.25s6.125,16.5,6.125,16.5
		l3.75-4.875"/>
	<path fill="none" stroke="#000000" stroke-width="0.75" d="M146.833,140.171l-35,17.25c0,0-29-7.25-32.5-7.5s-6.333,0.333-9-1.5
		s-8.167-6.166-8.167-6.166l3.667-0.334c0,0-0.5-3.5-2-5s-1.5-1.5-1.5-1.5L66,135.588c0,0,0.834-2.001,0.167-3.167
		s-0.667-1.166-0.667-1.166l6,1.5l0.5-4.334c0,0,3.667,4.334,4,6.834s1,7.333,1,7.333l42.5-11.5"/>
	<line fill="none" stroke="#000000" stroke-width="0.75" x1="82.083" y1="128.296" x2="73.167" y2="129.921"/>
	<line fill="none" stroke="#000000" stroke-width="0.75" x1="68.5" y1="132.087" x2="71.333" y2="130.921"/>
	<path fill="none" stroke="#000000" stroke-width="0.75" d="M66,131.587c0,0-1-0.166-1.167-2.166s-0.667-5.501-2-6.834
		s-3.167-4-3.167-4v4.5c0,0-3.833-2.333-5.167-2.333s-1.333,0-1.333,0l1.5,5c0,0-2.833-1.333-3.833-1s-1,0.333-1,0.333
		s2.667,2.5,3.333,4s1,3,1,3l-4-0.333c0,0,6.167,5.833,8.333,6.833s2.167,1,2.167,1l4.833,0.167"/>
	<path fill="none" stroke="#000000" stroke-width="0.75" d="M58.833,126.921c0,0,0.167,5.166,0.5,6.333s3,2.167,3,2.167"/>
	<path fill="none" stroke="#000000" stroke-width="0.75" d="M70.833,137.587c0,0,0.5,4.501,0.5,5.334s2.167,2,2.167,2"/>
	<line fill="none" stroke="#000000" stroke-width="0.75" x1="79.333" y1="139.921" x2="77" y2="140.087"/>
	<ellipse fill="none" stroke="#000000" stroke-width="0.75" cx="34.125" cy="132.005" rx="6.583" ry="6.667"/>
	<ellipse fill="none" stroke="#000000" stroke-width="0.75" cx="46.875" cy="136.589" rx="2.833" ry="2.25"/>
	<ellipse fill="none" stroke="#000000" stroke-width="0.75" cx="50.042" cy="144.089" rx="2.167" ry="2.083"/>
	<ellipse fill="none" stroke="#000000" stroke-width="0.75" cx="30.458" cy="142.922" rx="2.25" ry="2.083"/>
	<ellipse fill="none" stroke="#000000" stroke-width="0.75" cx="19.125" cy="139.922" rx="3.083" ry="2.917"/>
	<ellipse fill="none" stroke="#000000" stroke-width="0.75" cx="6.375" cy="137.839" rx="6" ry="5.166"/>
	<ellipse fill="none" stroke="#000000" stroke-width="0.75" cx="13.542" cy="146.005" rx="2" ry="1.667"/>
</g>
</svg>
