<?xml version="1.0" encoding="utf-8"?>
<!-- Generator: Adobe Illustrator 13.0.0, SVG Export Plug-In . SVG Version: 6.00 Build 14948)  -->
<!DOCTYPE svg PUBLIC "-//W3C//DTD SVG 1.1//EN" "http://www.w3.org/Graphics/SVG/1.1/DTD/svg11.dtd">
<svg version="1.1" xmlns="http://www.w3.org/2000/svg" xmlns:xlink="http://www.w3.org/1999/xlink" x="0px" y="0px"
	 width="288.166px" height="163.247px" viewBox="0 0 288.166 163.247" enable-background="new 0 0 288.166 163.247"
	 xml:space="preserve">
<g id="frame_1">
	<path fill="#D69E3A" d="M97.739,86.157c0,0-4.181,5.388-4.438,5.448c-0.257,0.06-2.43,0.026-2.43,0.026s-8.906-2.331-10.845-2.176
		c-1.939,0.156-4.792,0.227-4.792,0.227s1.096,3.533,1.322,3.805c0.226,0.271,1.36,3.389,1.36,3.389l-4.802,2.151l-1.104,1.068
		l-4.072-1.214l-1.328-0.122l0.783,1.495c0,0,1.86,1.595,2.403,2.063c0.542,0.47,7.703,4.48,9.052,5.273
		c1.35,0.794,15.653,6.303,17.373,6.714c1.72,0.41,3.119,2.465,3.119,2.465s5.484,4.942,8.341,6.63
		c2.857,1.687,9.975,4.354,11.596,4.923c1.621,0.568,28.063-3.01,28.063-3.01s9.885-10.048,9.825-10.306
		c-0.06-0.256,1.831-12.551,1.831-12.551s2.252-7.155,2.283-7.488c0.03-0.332-0.324-4.633-0.324-4.633l29.613-4.372
		c0,0,6.625-5.579,7.737-7.652c1.114-2.073,1.342-8.161,1.277-10.176s-2.776-9.798-2.776-9.798s-5.5-8.376-7.627-8.907
		c-2.127-0.533-4.88-0.619-5.311-0.492s-5.371,3.77-5.371,3.77l-8.74,7.645l-11.247,12.098c0,0-9.512-5.733-11.134-6.302
		c-1.621-0.569-7.661-2.216-7.661-2.216s-9.615,1.704-10.559,1.951s-8.576,3.139-9.12,3.591c-0.544,0.451-4.236,2.369-4.236,2.369
		l-0.959,0.414"/>
	<path fill="#D69E3A" d="M144.067,130.868c0.249,0.022,5.7,1.7,5.7,1.7l4.603,0.007l0.874,0.5l-2.768,4.598
		c0,0-6.111,0.02-6.542,0.147s-4.025,1.888-4.025,1.888l-2.964,3.993c0,0-0.96,1.333-0.696,1.19c0.266-0.142,1.38,0.464,1.38,0.464
		s-0.242,0.815,0.015,0.754c0.257-0.061,5.038,0.718,5.038,0.718l7.678-2.47c0,0,5.391-3.101,6.026-3.628
		c0.635-0.526,5.563-5.844,5.856-6.319c0.295-0.475,2.718-4.938,2.718-4.938s3.499,1.077,3.748,1.101
		c0.248,0.022,8.493,0.451,8.493,0.451s7.456-0.982,7.722-1.126c0.264-0.144,10.496-2.209,10.496-2.209s9.762-3.28,10.019-3.341
		c0.256-0.061,10.522-7.897,10.522-7.897l6.272-10.801c0,0,5.342-14.319,5.093-14.342s1.494-9.82,1.284-10.259
		c-0.21-0.438-1.017-9.802-1.243-10.073c-0.226-0.272-3.772-4.45-4.021-4.474c-0.248-0.023-8.542-3.552-9.356-3.796
		c-0.814-0.243-8.296-1.688-8.296-1.688l-6.941-0.056l-2.535,0.267l0.686,14.291l-1.893,4.177l-1.114,2.073l-2.332,1.708
		l-4.141,3.132l-4.379,1.186l-5.901,1.378l-6.784,0.963l-2.891,0.486l1.271,12.503l-0.596,4.63l-2.055,5.921l-5.325,7.792
		l-5.151,4.126l-6.457,3.754l-5.215,0.271l-1.586,0.858L144.067,130.868z"/>
	<path fill="#D69E3A" d="M190.619,138.775l-8.605,7.071l2.874,0.601l3.395,0.397l1.041,0.516l6.057,0.561
		c0,0,4.748-1.57,5.013-1.712c0.264-0.143,4.369-1.103,4.369-1.103s4.598-1.75,4.953-1.968s3.378-3.035,3.378-3.035l1.814-2.427
		l0.998-1.748l2.532-2.025c0,0-0.426-2.635-0.751-2.748c-0.324-0.113-7.599,0.721-8.608,0.794c-1.012,0.073-8.409,2.234-9.188,2.497
		c-0.776,0.263-7.178,2.516-7.36,2.666c-0.181,0.15-3.392,2.281-3.392,2.281l-0.286,0.391"/>
	<path fill="#D69E3A" d="M190.523,139.353c-0.498-0.046-8.379,2.362-8.379,2.362l-1.371,1.255l-0.683,1.945l0.689,0.691l1.233,0.24
		l6.546-2.909l2.008-2.702"/>
	<path fill="#956E28" d="M135.069,64.423c-0.249-0.022-3.622-13.307-3.892-14.922c-0.269-1.615-1.281-10.579-1.104-11.567
		c0.176-0.988,1.795-4.019,2.347-4.553s2.5-1.693,2.5-1.693l4.995-0.626l8.072,0.496l1.704,0.576l7.591,3.883l3.473,3.167
		l2.966,4.125l1.11,3.367l-0.091,5.514l-0.671,4.542l-0.826,2.602l-1.772,3.77l-1.855,3.762l-2.52,4.62l1.274,0.704l-4.007,4.399
		c0,0-0.254-0.861-1.148-2.952c-0.896-2.091-3.506-6.433-3.755-6.456s-3.287-1.56-3.287-1.56l-4.321-1.238l-4.239-0.308
		L135.069,64.423z"/>
	<path fill="#956E28" d="M158.687,90.461c0,0,0.022,7.87-0.282,10.268c-0.306,2.398-2.158,10.68-3.476,13.152
		c-1.318,2.472-3.473,4.952-6.154,6.795c-2.681,1.845-3.738,2.416-6.094,3.453c-2.356,1.037-8.121,2.762-10.212,2.736
		s-6.807,0.29-9.387,0.136c-2.58-0.154-8.954-0.911-9.443-1.041c-0.49-0.13,0.994,1.012,0.994,1.012l5.868,1.716l7.292,1.679
		l9.393,0.702c0,0,4.729,0.438,4.986,0.378s6.295-1.091,6.295-1.091l9.46-4.563l7.321-6.771l3.46-6.626l2.085-6.251l-0.267-7.975
		l-0.403-6.482l-0.737-1.072L158.687,90.461z"/>
	<path fill="#956E28" d="M124.076,110.857c0,0,2.141,1.287,2.833,1.937c0.693,0.65,1.476,1.224,1.482,2.062
		s-0.222,1.486-0.675,1.863s-0.953,1.25-1.881,1.332c-0.927,0.082-1.705,0.344-1.705,0.344s2.647,0.328,3.862-0.144
		c1.217-0.474,2.908-1.572,2.993-2.485c0.084-0.913,0.116-2.165-1.581-2.825C127.709,112.282,124.076,110.857,124.076,110.857z"/>
	<path fill="#956E28" d="M138.172,131.244l-2.212,5.821c0,0-4.647-0.431-5.069-0.387s-3.829,2.491-3.829,2.491l-2.388,2.289
		l-0.771,1.101l0.972,0.342l-0.001,0.92l3.9,0.361l-0.56,0.617c0,0,5.53-0.073,6.11-0.02c0.581,0.053,2.618-0.26,2.618-0.26
		l1.881-1.333l1.134-1.401l1.731-1.514l1.261-0.971l1.586-0.857l0.884-0.504l2.966-4.915c0,0-7.399-1.437-7.89-1.566
		s-2.526-0.736-2.526-0.736"/>
	<path fill="#956E28" d="M144.681,146.827l0.433-1.049c0,0,2.074,0.193,3.652-0.582c1.578-0.774,6.562-3.996,8.874-6.375
		c2.313-2.381,4.542-4.77,6.381-7.444s1.559-2.367,3.14-4.981c1.58-2.616,1.747-2.602,2.717-4.938
		c0.969-2.338,1.09-1.823,1.287-3.062c0.197-1.236,0.58,4.572-0.919,8.116c-1.499,3.545-6.432,11.623-6.432,11.623l-4.438,5.448
		l-2.002,1.739l-2.332,0.789l-2.401,0.614l-3.462,0.349L144.681,146.827z"/>
	<path fill="#956E28" d="M165.031,136.743l3.937,0.866l-2.645,2.35l-0.084,0.913l2.889,0.434l-0.243,0.814l3.387,0.481l2.112-0.223
		l1.826,0.169l2.181-0.049l2.081,0.108l1.012-0.074l3.477-3.192l10.405-1.213l1.162,0.107l7.53-0.893l5.133-1.199l3.535-2.016
		l3.472-1.353c0,0-1.052,2.329-2.896,4.167c-1.844,1.838-4.662,4.256-4.662,4.256l-2.086,1.73l-2.914,1.656l-2.726,1.422
		l-1.586,0.857c0,0,8.582-2.303,11.224-2.812s9.854-0.678,9.854-0.678s2.184-1.891,2.735-2.426c0.552-0.534,1.444-2.041,1.444-2.041
		l-0.148-2.022l-0.427-1.713l-1.016-1.684l-1.084-0.939l-1.114-1.524l-0.311-0.28c0,0,6.858-4.47,8.589-5.983s4.315-4.12,5.729-5.83
		s4.607-7.272,5.849-9.837c1.241-2.563,2.662-8.875,2.967-10.354c0.305-1.478-0.135-9.387-0.736-11.031
		c-0.601-1.646-3.136-6.819-3.655-7.536c-0.519-0.717-2.387-3.149-2.929-3.618s-3.819-3.953-4.119-4.314
		c-0.302-0.363-2.854-2.608-3.413-2.911s-1.86-1.595-2.502-1.905c-0.641-0.311-1.84-0.924-1.84-0.924s2.344,6.327,2.31,9.421
		c-0.036,3.092,0.06,4.774-0.3,7.755c-0.358,2.979-0.841,6.367-1.813,9.624c-0.971,3.257-0.845,4.608-1.876,7.609
		c-1.031,3-3.422,8.053-5.093,9.822c-1.67,1.77-2.774,3.762-6.445,6.35c-3.671,2.589-7.777,3.548-10.94,5.18
		c-3.165,1.633-8.758,3.291-11.158,3.905c-2.401,0.614-6.418,2.42-8.695,2.627c-2.279,0.207-4.137,0.37-5.985,0.45
		c-1.848,0.08-2.883,0.402-4.052,0.379c-1.168-0.025-1.493-0.139-1.493-0.139l-4.177,7.145"/>
	<path fill="#956E28" d="M143.107,130.82c0,0,8.452,0.908,9.969,0.798c1.517-0.111,1.517-0.111,1.517-0.111l-0.661,3.077
		c0,0-11.519-3.031-11.76-3.138C141.929,131.339,143.107,130.82,143.107,130.82z"/>
	<path fill="#956E28" d="M200.326,137.875c0,0-17.57,4.022-18.363,4.451c-0.793,0.43,0.636-1.447,0.636-1.447l2.361-1.538
		l16.307-2.133"/>
	<path fill="#FF5AAD" d="M171.474,67.124l-19.237,22.489l7.95,0.902l13.415-0.265c0,0,1.108,0.689,2.855-1.911
		c1.747-2.6,5.09-7.982,4.947-8.246c-0.142-0.264,0.642-4.207,0.506-4.556s-1.557-3.994-1.699-4.259
		c-0.142-0.265-2.032-2.447-2.342-2.728c-0.308-0.279-5.278-1.744-5.278-1.744L171.474,67.124z"/>
	<path fill="#C181B9" d="M242.301,104.811c0,0-1.13,3.161-1.251,3.567c-0.121,0.407-1.203,3.068-1.203,3.068l-0.779,1.184
		c0,0,6.646-0.389,8.571-0.378c1.924,0.01,10.726,0.741,12.122,1.037c1.395,0.297,4.858,0.869,5.747,1.202
		c0.89,0.334,3.958,1.539,3.958,1.539l2.706,1.505l2.585,1.913l3.199,4.313l1.413,3.73c0,0,0.617,5.079,0.595,5.327
		c-0.024,0.249-0.443,2.972-0.443,2.972l-0.97,2.339l-2.122,1.225l-3.807,2.243l-5.146,1.364l-7.132,1.098l-8.441-0.112
		l-10.616-0.146l-10.078-0.514c0,0-11.113-0.192-11.369-0.132c-0.257,0.059-9.207,0.905-9.207,0.905l-7.494,1.397l-6.643,2.147
		c0,0-3.618,2.008-3.882,2.151s-5.379,3.854-5.379,3.854l-2.447,2.032l-7.526,7.17c0,0,11.515-5.042,14.104-5.891
		c2.59-0.849,9.971-2.843,9.971-2.843l6.597-1.648l6.136-1.19l7.161-0.509l5.811-0.384l5.649,0.44l9.515,0.295l8.003,0.322
		l8.556-0.212l5.841-0.715l6.022-0.866l5.27-1.771c0,0,2.943-1.067,3.911-1.563c0.966-0.496,3.966-3.063,3.966-3.063l2.721-3.18
		l1.137-3.242l0.277-7.507l-0.716-4.919l-1.263-3.549c0,0-4.224-4.993-5.158-5.75s-8.916-5.847-9.165-5.87
		c-0.249-0.022-6.009-1.979-6.009-1.979l-9.836-1.33l-9.121-0.927l-4.474-0.498"/>
	<path fill="#B23F79" d="M171.845,66.739c0,0,8.343-7.848,9.936-8.787c1.594-0.941,3.566-2.35,4.96-2.053
		c1.396,0.297,3.942,2.625,5.81,5.058c1.867,2.432,2.384,4.07,3.292,6.917c0.908,2.846,1.281,5.139,0.87,7.779
		c-0.412,2.64-0.685,3.787-1.389,5.06c-0.705,1.274-1.257,1.81-2.095,2.736c-0.84,0.926-1.134,1.401-1.134,1.401l-2.312,1.46
		l-3.125,1.217l-2.34,0.87l-3.751,0.741l-3.253,0.787l-4.61,0.075c0,0-0.771,1.1,1.806-1.424c2.576-2.522,4.118-4.722,4.832-7
		c0.713-2.277,0.905-4.352,0.576-6.224s-1.403-4.733-3.069-5.724c-1.665-0.991-6.175-1.995-6.175-1.995L171.845,66.739z"/>
	
		<ellipse transform="matrix(-0.9806 -0.1962 0.1962 -0.9806 239.028 204.1939)" fill="#FFFFFF" cx="129.63" cy="90.255" rx="15.703" ry="13.679"/>
	
		<ellipse transform="matrix(-0.9672 -0.2539 0.2539 -0.9672 193.3921 187.0595)" fill="#FFFFFF" cx="108.767" cy="81.05" rx="12.666" ry="10.501"/>
	<path fill="#FFFFFF" d="M76.621,90.981l-1.552-1.315l-4.103-0.882L67.51,89.05l-1.314,0.632l-1.427,0.956l-0.832,0.844
		l-0.578,2.624l-0.162,1.742l1.914,1.935l1.212,1.368l1.645,0.319l2.708,0.585l2.738,0.254c0,0-0.252-2.7-0.312-2.958
		c-0.06-0.257,1.754-2.684,1.951-2.999c0.197-0.316,1.475-2.375,1.475-2.375L76.621,90.981z"/>
	
		<ellipse transform="matrix(-0.9957 -0.0922 0.0922 -0.9957 231.8814 188.1617)" fill="#0090FB" cx="120.286" cy="88.726" rx="5.896" ry="5.23"/>
	
		<ellipse transform="matrix(-0.9957 -0.0921 0.0921 -0.9957 194.3499 168.5983)" fill="#0090FB" cx="101.067" cy="79.813" rx="4.854" ry="4.292"/>
	
		<ellipse transform="matrix(-0.9957 -0.0923 0.0923 -0.9957 194.1721 168.5905)" fill="#003D5F" cx="100.984" cy="79.806" rx="2.021" ry="1.917"/>
	
		<ellipse transform="matrix(-0.9958 -0.0921 0.0921 -0.9958 231.6929 187.7485)" fill="#003D5F" cx="120.178" cy="88.528" rx="2.354" ry="2.25"/>
	
		<ellipse transform="matrix(-0.9958 -0.092 0.092 -0.9958 199.3685 164.9154)" fill="#FFFFFF" cx="103.486" cy="77.861" rx="1.125" ry="0.958"/>
	
		<ellipse transform="matrix(-0.9957 -0.0926 0.0926 -0.9957 238.1444 184.001)" fill="#FFFFFF" cx="123.339" cy="86.478" rx="1.229" ry="1.082"/>
	
		<ellipse transform="matrix(-0.9958 -0.092 0.092 -0.9958 226.1386 192.0895)" fill="#FFFFFF" cx="117.496" cy="90.833" rx="1.104" ry="0.958"/>
	<circle fill="#FFFFFF" cx="98.237" cy="81.455" r="0.812"/>
	<path d="M165.506,63.788c-0.198,0.106-16.157,18.59-16.157,18.59l16.841-17.837L165.506,63.788z"/>
	<path d="M117.375,115.195c0,0,1.927-1.831,3.127-1.908s3.648,0.59,3.648,0.59s-2.19-0.077-2.897,0.107
		c-0.708,0.187-0.99-0.154-1.738,0.467c-0.748,0.621-1.094,0.966-1.094,0.966L117.375,115.195z"/>
	
		<ellipse transform="matrix(-0.9788 -0.2046 0.2046 -0.9788 238.1417 205.5203)" fill="none" stroke="#000000" stroke-width="0.75" cx="129.698" cy="90.447" rx="15.774" ry="13.488"/>
	<path fill="none" stroke="#000000" stroke-width="0.75" d="M114.154,88.203c0.072-1.62,0.565-3.156,1.631-4.547
		c0.25-0.575,0.627-1.056,1.082-1.471c0.944-1.286,2.172-2.59,3.621-3.226c-1.245-4.096-5.312-7.449-10.536-8.179
		c-6.792-0.947-12.942,2.892-13.736,8.577c-0.794,5.688,4.068,11.065,10.861,12.014c2.5,0.35,4.912,0.046,7.004-0.758
		C113.963,89.834,113.993,89.003,114.154,88.203z"/>
	<path fill="none" stroke="#000000" stroke-width="0.75" d="M97.732,86.01c0,0-3.975,4.968-4.514,5.357
		c-0.538,0.39-1.166,0.394-1.166,0.394s-5.95-1.492-8.694-1.684c-2.744-0.19-8.057-0.432-8.057-0.432"/>
	<path fill="none" stroke="#000000" stroke-width="0.75" d="M67.176,89.271c0,0-2.107,1.061-2.946,1.986
		c-0.839,0.927-1.069,3.416-1.059,3.981c0.01,0.566,1.033,1.729,1.835,2.556c0.802,0.828,1.853,1.678,3.703,2.038
		c1.85,0.359,5.102,1.162,6.811,1.006c1.709-0.155,4.019-0.694,4.87-1.745c0.85-1.052,1.469-2.312,1.205-3.529
		c-0.264-1.217-1.268-3.256-3.789-4.493C75.284,89.833,72.503,88.006,67.176,89.271z"/>
	<path fill="none" stroke="#000000" stroke-width="0.75" d="M66.746,99.336c0,0,1.57,2.028,2.989,2.976s8.467,5.491,14.422,7.611
		c5.955,2.121,14.975,5.718,19.918,6.552c4.944,0.835,7.88,0.98,9.562,0.445c1.682-0.534,3.981-1.64,4.847-2.187"/>
	<path fill="none" stroke="#000000" stroke-width="0.75" d="M97.328,114.783c0,0,5.079,5.491,8.656,7.518
		c3.579,2.025,9.792,5.425,15.454,6.641c5.662,1.214,14.317,2.643,20.39,2.138c6.073-0.506,9.673-1.427,12.851-3.204
		c3.177-1.777,10.197-7.781,12.173-11.489c1.976-3.709,3.347-8.353,3.668-11.146c0.321-2.795-0.183-12.947-0.617-13.678
		c-0.434-0.73-0.343-1.037-0.343-1.037"/>
	<path fill="none" stroke="#000000" stroke-width="0.75" d="M165.006,65.122c0,0,6.421-6.311,9.855-9.507
		c3.434-3.197,8.216-6.709,10.553-6.869c2.338-0.16,3.813,0.165,6.768,3.514c2.953,3.35,6.284,8.051,6.828,11.68
		c0.542,3.628,0.392,5.937,0.148,9.239c-0.243,3.305-0.857,5.194-2.314,7.381c-1.459,2.188-4.756,4.373-6.274,5.404
		s-7.656,3.142-12.983,3.735c-5.328,0.595-8.605,0.961-10.371,1.049"/>
	<path d="M167.585,90.384c0,0-5.43-0.104-7.104-0.112c-1.673-0.01-1.618,0.081-1.618,0.081s7.247,1.047,9.523,0.63"/>
	<path fill="none" stroke="#000000" stroke-width="0.75" d="M115.432,72.229c0,0,9.275-5.251,12.014-5.918
		c2.738-0.667,8.295-2.831,13.65-1.917s12.532,4.759,14.506,6.03c1.975,1.271,2.668,1.921,2.668,1.921"/>
	<path fill="none" stroke="#000000" stroke-width="0.75" d="M134.986,64.415c0,0-2.647-10.288-3.493-13.798
		c-0.848-3.511-1.732-11.125-1.004-13.568c0.728-2.443,2.438-4.628,4.928-5.318s10.27-0.639,13.775,0.355
		c3.507,0.993,8.311,3.363,10.976,6.204s4.925,5.561,4.957,8.827c0.032,3.268-0.755,9.973-2.739,14.225
		c-1.984,4.253-5.351,9.883-5.351,9.883"/>
	<path fill="none" stroke="#000000" stroke-width="0.75" d="M198.735,61.026c0,0,6.843-0.705,12.824,0.685s10.771,3.006,15.33,6.189
		c4.558,3.184,11.615,10.113,13.797,14.583c2.182,4.471,3.987,11.165,2.224,19.371c-1.764,8.207-5.768,15.282-9.521,18.786
		c-3.756,3.502-8.606,7.99-13.854,10.435c-5.248,2.442-5.445,2.759-10.813,4.689s-8.324,2.242-13.976,2.723
		c-5.653,0.481-11.274,0.631-16.999,0.101c-5.726-0.53-9.006-1.252-10.74-1.496c-1.735-0.244-2.309-0.38-2.309-0.38"/>
	<path fill="none" stroke="#000000" stroke-width="0.75" d="M154.01,134.633c0,0-10.95-2.854-11.855-3.021
		c-0.905-0.169-0.95-0.591-0.95-0.591"/>
	<path fill="none" stroke="#000000" stroke-width="0.75" d="M154.951,131.708c-0.106,0.241-2.121,5.745-2.121,5.745
		s-5.365,0.089-7.252,0.584c-1.888,0.495-4.199,1.955-5.242,3.281s-2.45,3.874-2.45,3.874l1.728,0.327l-0.5,0.874
		c0,0,5.129,0.642,7.732,0.548c2.604-0.093,6.293-0.17,8.006-0.597c1.714-0.428,2.93-0.9,4.426-2.604
		c1.497-1.703,4.923-6.156,6.881-9.239c1.959-3.082,3.858-6.421,4.578-8.781c0.722-2.36,0.859-3.854,0.859-3.854"/>
	<path fill="none" stroke="#000000" stroke-width="0.75" d="M138.331,131.341l-2.453,5.715c0,0-3.032-0.698-4.564-0.422
		c-1.531,0.276-3.979,2.309-5.257,3.446c-1.277,1.137-2.163,2.562-2.163,2.562l1.554,0.395l-0.574,0.784l3.906,0.277l-0.227,0.649
		c0,0,7.317,0.51,8.646-0.288c1.329-0.797,1.329-0.797,1.329-0.797"/>
	<line fill="none" stroke="#000000" stroke-width="0.75" x1="148.038" y1="133.16" x2="145.147" y2="138.165"/>
	<path fill="none" stroke="#000000" stroke-width="0.75" d="M185.51,138.804c0,0-4.329,3.367-5.115,4.633s-0.871,2.179-0.871,2.179
		l1.388,0.38l-0.303,0.557l7.241,0.42l0.635,0.394l7.626,0.789"/>
	<path fill="none" stroke="#000000" stroke-width="0.75" d="M220.244,130.638c0,0,2.705,2.427,3.517,4.511
		c0.813,2.083,0.574,3.735,0.423,4.476c-0.151,0.738-1.542,2.2-1.92,2.667c-0.379,0.467-1.52,1.031-1.52,1.031"/>
	<line fill="none" stroke="#000000" stroke-width="0.75" x1="198.302" y1="61.195" x2="199.536" y2="60.975"/>
	<path fill="none" stroke="#000000" stroke-width="0.75" d="M207.799,97.141c0,0-4.188,0.49-8.101,2.074
		c-3.913,1.583-9.578,5.829-12.022,9.181c-2.444,3.353-3.486,7.146-3.979,10.429c-0.492,3.28,1.099,10.521,3.961,13.484
		c2.864,2.964,7.506,5.716,10.324,5.788"/>
	<path d="M207.625,96.769c0,0,3.748-0.03,6.946,0.915c3.196,0.945,3.433,1.114,4.249,1.546c0.818,0.43,0.92,0.461,0.92,0.461
		s-9.171-2.418-12.1-2.187"/>
	<path fill="none" stroke="#000000" stroke-width="0.75" d="M242.385,104.819c0,0,17.767,0.64,25.54,3.451
		c7.774,2.813,15.313,7.276,18.078,13.559c2.766,6.281,1.882,15.825,0.293,18.522c-1.588,2.698-5.751,6.078-11.54,8.054
		c-5.791,1.975-13.586,3.012-19.018,2.927s-13.385-0.068-21.125-0.534c-7.739-0.465-13.919-0.618-22.68,0.913
		c-8.763,1.533-17.155,3.602-25.876,7.397c-8.72,3.795-8.72,3.795-8.72,3.795s9.268-10.607,16.954-14.08
		c7.685-3.473,17.609-5.818,30.548-5.457c12.938,0.36,31.363,1.146,37.361,0.529c5.999-0.617,13.674-2.167,16.216-6.115
		s1.352-10.085-0.122-13.149c-1.474-3.066-4.885-7.817-13.624-10.133c-8.74-2.315-22.94-2.626-24.917-2.056"/>
	<line fill="none" stroke="#000000" stroke-width="0.75" x1="239.309" y1="112.736" x2="241.702" y2="112.204"/>
	<path fill="none" stroke="#000000" stroke-width="0.75" d="M169.248,137.3c0,0-2.343,1.792-2.646,2.349
		c-0.302,0.558-0.514,1.04,0.3,1.284c0.814,0.242,2.24,0.207,2.24,0.207l-0.166,0.905c0,0,2.632,0.493,3.989,0.285
		c1.358-0.209,1.759-0.004,1.759-0.004s3.719,0.511,4.819,0.362c1.103-0.149,1.585,0.063,1.585,0.063"/>
	<path fill="none" stroke="#000000" stroke-width="0.75" d="M169.142,141.14c0,0,1.928-2.752,2.619-2.98
		c0.69-0.229,0.976-0.16,0.976-0.16"/>
	<path fill="none" stroke="#000000" stroke-width="0.75" d="M174.497,142.053c0,0,0.885-1.425,1.73-1.974
		c0.847-0.549,2.301-1.335,2.301-1.335"/>
	<path d="M125.232,143.101c0,0,0.234-0.732,2.183-2.351c1.95-1.618,2.116-1.603,2.116-1.603s-3.68,4.052-4.063,4.561"/>
	<path d="M128.407,144.063c0,0,1.992-2.535,3.217-3.552c1.224-1.017,1.687-1.058,1.687-1.058s-4.597,4.931-4.757,5.293"/>
	<path d="M139.782,145.493c0.053-0.12,3.261-3.59,4.009-3.98s0.748-0.391,0.748-0.391l-4.868,5.574"/>
	<path d="M143.987,146.636c0.053-0.12,0.105-1.163,1.725-2.812c1.617-1.648,3.908-2.901,3.908-2.901s-2.9,2.869-3.525,3.731
		c-0.624,0.864-1.264,2.353-1.264,2.353"/>
	<path d="M180.912,145.995c0,0,2.403-2.456,4.114-3.762c1.71-1.306,4.062-2.303,4.062-2.303s-7.62,6.366-7.808,6.601
		c-0.188,0.233-0.188,0.233-0.188,0.233"/>
	<path d="M187.7,146.791c0,0,1.308-1.929,3.665-3.427s5.255-2.526,5.255-2.526s-8.18,5.646-8.394,6.588L187.7,146.791z"/>
	<path d="M76.758,90.408c0,0-3.825-0.271-6.181,0.767c-2.355,1.038-3.292,2.121-3.687,2.756c-0.394,0.633-0.343,1.893,0.81,3.004
		c1.152,1.111,2.433,2.651,4.635,3.273c2.202,0.623,2.669,1.001,2.669,1.001s3.764-0.886,4.574-1.501
		c0.81-0.615,2.019-2.826,2.019-2.826l-0.004-1.318l-0.368-1.896l-2.554-2.245l-1.507-0.893"/>
</g>
<g id="frame_2">
	<path fill="#D69E3A" d="M180.012,61.586l-2.125,2c0,0-2,10.625-2.375,11.375s-9.375,8.75-10.125,8.75s-13.125,1.375-13.625,1.375
		s-4.25,2.375-4.25,2.375l-0.125,19.25c0,0-5.875,7-6.125,7.375s-10,11.875-10,11.875s-2.5,1.375-2.25,1.75s3.875,2.25,4.625,2.625
		s10.25,2.375,10.25,2.375l14.625,1.75l11-2.625l5.75,5l4.375,2.125c0,0,6.125,1.875,6.5,1.875s4.75,1,4.75,1l6-0.25l2.75-0.5
		l3.5-0.75l6-2.75l2.5-1c0,0,5.5,3.125,6.125,3.625s6.125,2.75,6.125,2.75l7,2.25l7.75,1.625l3.75-0.125l2.25-0.125l2.75-1.25
		l2.25-1.125l1-1.25c0,0-5-2.875-5.75-3s-6-2.875-6-2.875l-11.25-10.125l-5.125-3.375l-5-1.75l-0.125-0.5
		c0,0,0.375-7.75-0.125-7.375s-3.375-19.125-3.375-19.125l0.25-8.5l-0.125-10.25l-2.25-6.25l-1.125-2l-1.375-1.125l-6.625-3.25
		l-4.375-1.375l-3.75-1h-7.75L180.012,61.586z"/>
	<path fill="#D69E3A" d="M116.262,126.711l-9,7.5l3.75,4.75l4.25-0.5l8.75-2c0,0,9.25-0.5,10,0s7.5,1,7.5,1s6.25-2,6.75-3
		s1.5-5.5,1-6.25s-6-6.75-6.75-6.75"/>
	<path fill="#956E28" d="M208.596,66.461c0,0,1.5,2.75,1.75,4.5s0.917,10.333,0.417,14.333s-0.916,5.751-1.25,7.834
		s-0.416,3.5-0.75,4.75s-0.5,2.75-0.5,4.333s0.166,2.751,0.666,4.167s1.75,4.667,1.917,5.083s2.917,6.166,2.917,6.166l3.166,3.834
		l4.584,2.833l3.5,1.5c0,0,1.833,1.416,2.083,1.583s5.5,6.418,6.25,7.584s1.5,2.166,1.5,2.166l2.583,0.417c0,0,1.5,0.583,1.75,0.583
		s2.084,0.417,2.084,0.417l2.5,0.833l1.416,0.25l-0.333-1.083l-0.083-0.75l-1.25-1.083l-1.667-1l-4.75-2.584l-3.667-2.416
		l-3.583-3.5l-3.25-3.417l-2.583-3.666l-1.083-0.917l-3.334-0.083l3.084-4l2.416-4.5l1.833-5.334l0.584-4.417l0.25-9.416
		l-1.75-7.667l-3.083-6l-2.834-3.333l-5.583-4.334l-3.667-3.166L208.596,66.461z"/>
	<path fill="#956E28" d="M169.013,127.127c0,0-4.166,1.166-6.333,1.5s-8.084,0.834-8.084,0.834l1.084-2.167l3.166-3.333l2.667-2.834
		c0,0-8.666,5.001-12.833,9.084s-6,5.667-6,5.667s-21.5-0.916-23.167-0.5s-3.75,1.166-3.75,1.166s-1.5,1.499-2.75,1.833
		s-2.917,0.75-3.333,0.667s-0.917-1.417-0.917-1.417l2.5-3.25l0.083-1.666l2.5-1.917l3.417-1.167l9.583-0.75l4.167-0.583
		l-1.083-0.75l-16.917,0.583c0,0-8.25,1.418-9.25,2.001s-4.333,3.166-5,3.833s-2.167,2.583-2.167,2.583l-0.917,1.417l-0.417,2.417
		l0.75,0.75l1,0.5l1.667-0.084l1.25,0.167c0,0,1.5-0.249,1.75-0.333s0.75,0,0.75,0l1-0.084l2.667-0.583c0,0,1.583,0.25,1.833,0.25
		s6.167,0.166,6.583,0.083s4.417-2.083,4.417-2.083l4.25,0.917l4.417,1l3.083,0.583l3.083,0.75l1-0.5l0.25-1.667
		c0,0,2.834,0.249,3.084,0.333s7.166,1.251,7.166,1.251s4.333-5.5,4.25-5.25s6.334,1.666,8.334,2.166s6.332,1.001,8.249,0.834
		s10.25,0.166,10.5,0.083s3.75-0.667,3.75-0.667s-4.333-2.332-5.333-3.166s-4.001-5-4.417-5.5S169.013,127.127,169.013,127.127z"/>
	<path fill="#C181B9" d="M245.013,25.294l-3.167,6.333l-1.583,4.917l-0.917,4.083l-0.166,6.333l1.249,8.75l3.084,9.084l3.666,8.166
		l2.667,4.334c0,0,4.084,7.5,4.167,7.833s5.5,10.666,5.5,10.666l2.5,5.917l3.083,7.416l1.75,6.417c0,0,0.25,3.584,0.25,3.917
		s-0.167,3.167-0.25,3.417s-1.333,2.833-1.333,2.833l-3.667,3.333l-2.25,1.5l-3.416,0.25l-3.084-0.583l-4.833-2l-4.917-3l-4.25-4.25
		l-5.166-6.834l-4-6.583l-2-3.333l-0.5-1.084l-1,3.667l-1,2.833l-0.667,2l-1.083,1.75l4.583,8l1.75,2.667l4,4.167
		c0,0,1.667,2.082,2,2.416s3.25,2.584,3.25,2.584s4.75,2.334,5,2.25s5.417,2.333,5.417,2.333l5.5,1.25l5.083-0.416l4.833-2.084
		l3.167-2.333l3.75-4.167l2.166-3.167l1.25-4.166l-0.083-4.5l-1.667-6.833l-3.416-9.584l-3.083-6.5l-4.167-8.167l-2.5-6.166
		l-2.75-4.75l-3.167-6.167l-2.833-7.083l-3.667-10.667l-1.416-8.083l-0.917-8.417L245.013,25.294z"/>
	<path fill="#D69E3A" d="M78.354,83.102c0,0-4.21,5.362-4.467,5.422s-2.43,0.015-2.43,0.015s-8.893-2.38-10.833-2.235
		c-1.94,0.145-4.793,0.2-4.793,0.2s1.077,3.537,1.301,3.811c0.225,0.273,1.341,3.397,1.341,3.397l-4.813,2.124l-1.109,1.063
		l-4.065-1.235l-1.327-0.13l0.774,1.5c0,0,1.852,1.604,2.392,2.076c0.541,0.472,7.678,4.521,9.023,5.323
		c1.345,0.801,15.618,6.389,17.335,6.808c1.717,0.419,3.105,2.482,3.105,2.482s5.458,4.973,8.305,6.676
		c2.848,1.701,9.951,4.408,11.569,4.985c1.618,0.578,28.08-2.855,28.08-2.855s9.938-9.994,9.881-10.25
		c-0.06-0.258,1.899-12.542,1.899-12.542s2.291-7.143,2.324-7.476c0.032-0.332-0.299-4.635-0.299-4.635l29.637-4.21
		c0,0,6.654-5.544,7.779-7.61c1.123-2.067,1.385-8.154,1.331-10.168c-0.052-2.016-2.72-9.813-2.72-9.813s-5.456-8.406-7.58-8.949
		c-2.124-0.544-4.875-0.646-5.308-0.521c-0.43,0.125-5.392,3.74-5.392,3.74l-8.783,7.596L139.2,69.728c0,0-9.479-5.786-11.096-6.363
		c-1.62-0.578-7.65-2.258-7.65-2.258S110.83,62.759,109.884,63c-0.945,0.242-8.593,3.092-9.139,3.54
		c-0.546,0.45-4.249,2.347-4.249,2.347l-0.961,0.408"/>
	<path fill="#956E28" d="M115.803,61.57c-0.248-0.023-3.549-13.326-3.81-14.942c-0.26-1.617-1.223-10.587-1.042-11.574
		c0.181-0.987,1.817-4.008,2.372-4.54c0.554-0.532,2.51-1.68,2.51-1.68l4.998-0.599l8.069,0.541l1.7,0.585l7.569,3.924l3.455,3.186
		l2.944,4.141l1.094,3.374l-0.121,5.513l-0.698,4.538l-0.841,2.597l-1.791,3.76l-1.876,3.752l-2.545,4.606l1.27,0.71l-4.031,4.377
		c0,0-0.248-0.86-1.131-2.958c-0.885-2.095-3.473-6.451-3.72-6.476c-0.25-0.024-3.278-1.578-3.278-1.578l-4.313-1.261l-4.239-0.332
		L115.803,61.57z"/>
	<path fill="#956E28" d="M139.279,87.738c0,0-0.021,7.869-0.337,10.265c-0.321,2.397-2.218,10.667-3.55,13.133
		c-1.331,2.466-3.499,4.934-6.19,6.763c-2.691,1.828-3.751,2.396-6.114,3.419c-2.36,1.024-8.135,2.718-10.226,2.681
		c-2.09-0.037-6.808,0.253-9.387,0.084c-2.579-0.168-8.949-0.961-9.438-1.093s0.988,1.018,0.988,1.018l5.858,1.747l7.283,1.72
		l9.389,0.753c0,0,4.727,0.463,4.983,0.404c0.257-0.057,6.301-1.056,6.301-1.056l9.486-4.512l7.357-6.73l3.495-6.606l2.12-6.24
		l-0.223-7.977l-0.367-6.483l-0.732-1.077L139.279,87.738z"/>
	<path fill="#956E28" d="M104.557,107.944c0,0,2.133,1.299,2.822,1.952c0.689,0.653,1.469,1.231,1.471,2.069
		c0.002,0.839-0.23,1.485-0.685,1.859c-0.454,0.374-0.96,1.245-1.888,1.321c-0.928,0.078-1.707,0.336-1.707,0.336
		s2.645,0.343,3.863-0.124c1.219-0.466,2.916-1.556,3.005-2.468c0.089-0.914,0.129-2.165-1.563-2.834
		C108.183,109.389,104.557,107.944,104.557,107.944z"/>
	<path fill="#FF5AAD" d="M152.194,64.472l-19.36,22.383l7.946,0.946l13.414-0.191c0,0,1.105,0.695,2.866-1.896
		c1.763-2.591,5.134-7.953,4.994-8.218c-0.141-0.266,0.664-4.205,0.53-4.554c-0.136-0.349-1.534-4.003-1.676-4.268
		c-0.141-0.266-2.02-2.459-2.327-2.74c-0.307-0.281-5.269-1.772-5.269-1.772L152.194,64.472z"/>
	<path fill="#B23F79" d="M152.567,64.089c0,0,8.385-7.802,9.983-8.734c1.599-0.931,3.58-2.327,4.973-2.023s3.925,2.646,5.779,5.088
		c1.853,2.442,2.363,4.084,3.256,6.936c0.891,2.852,1.252,5.145,0.826,7.784c-0.426,2.638-0.706,3.783-1.417,5.052
		c-0.711,1.27-1.267,1.802-2.109,2.724c-0.845,0.923-1.141,1.396-1.141,1.396l-2.318,1.447l-3.132,1.199l-2.346,0.858l-3.755,0.72
		l-3.259,0.77l-4.609,0.05c0,0-0.775,1.096,1.813-1.414c2.592-2.508,4.146-4.699,4.87-6.974s0.928-4.346,0.61-6.221
		c-0.318-1.874-1.375-4.74-3.036-5.74c-1.662-1-6.166-2.027-6.166-2.027L152.567,64.089z"/>
	
		<ellipse transform="matrix(-0.9795 -0.2016 0.2016 -0.9795 200.5657 195.1753)" fill="#FFFFFF" cx="110.223" cy="87.373" rx="15.703" ry="13.681"/>
	
		<ellipse transform="matrix(-0.9658 -0.2591 0.2591 -0.9658 155.5408 176.6095)" fill="#FFFFFF" cx="89.411" cy="78.053" rx="12.666" ry="10.502"/>
	<path fill="#FFFFFF" d="M57.211,87.809l-1.544-1.323l-4.098-0.905l-3.458,0.247l-1.317,0.624l-1.433,0.948l-0.836,0.84
		l-0.592,2.621l-0.171,1.74l1.903,1.946l1.205,1.374l1.643,0.328l2.705,0.601l2.736,0.269c0,0-0.237-2.702-0.296-2.96
		c-0.059-0.256,1.769-2.674,1.968-2.988c0.199-0.315,1.488-2.367,1.488-2.367L57.211,87.809z"/>
	
		<ellipse transform="matrix(-0.9952 -0.0976 0.0976 -0.9952 192.9241 181.0193)" fill="#0090FB" cx="100.888" cy="85.793" rx="5.896" ry="5.23"/>
	
		<ellipse transform="matrix(-0.9952 -0.0976 0.0976 -0.9952 155.5548 161.1566)" fill="#0090FB" cx="81.718" cy="76.774" rx="4.854" ry="4.291"/>
	
		<ellipse transform="matrix(-0.9952 -0.0976 0.0976 -0.9952 155.3873 161.1334)" fill="#003D5F" cx="81.635" cy="76.766" rx="2.021" ry="1.917"/>
	
		<ellipse transform="matrix(-0.9952 -0.0977 0.0977 -0.9952 192.7201 180.6231)" fill="#003D5F" cx="100.781" cy="85.594" rx="2.355" ry="2.25"/>
	<path fill="#FFFFFF" d="M83.028,74.726c-0.052,0.527,0.408,1.003,1.026,1.063c0.618,0.062,1.161-0.315,1.213-0.843
		c0.052-0.529-0.408-1.004-1.026-1.065C83.624,73.82,83.08,74.199,83.028,74.726z"/>
	
		<ellipse transform="matrix(-0.9952 -0.0981 0.0981 -0.9952 199.205 176.9194)" fill="#FFFFFF" cx="103.953" cy="83.561" rx="1.229" ry="1.084"/>
	
		<ellipse transform="matrix(-0.9952 -0.0978 0.0978 -0.9952 187.1132 184.9358)" fill="#FFFFFF" cx="98.087" cy="87.884" rx="1.104" ry="0.958"/>
	<circle fill="#FFFFFF" cx="78.879" cy="78.401" r="0.813"/>
	<path d="M146.244,61.102c-0.199,0.106-16.259,18.501-16.259,18.501l16.939-17.743L146.244,61.102z"/>
	<path d="M97.832,112.244c0,0,1.937-1.819,3.137-1.889c1.2-0.07,3.646,0.608,3.646,0.608s-2.189-0.089-2.898,0.092
		c-0.708,0.183-0.989-0.158-1.741,0.458c-0.751,0.617-1.099,0.96-1.099,0.96L97.832,112.244z"/>
	
		<ellipse transform="matrix(-0.9777 -0.21 0.21 -0.9777 199.7308 196.3371)" fill="none" stroke="#000000" stroke-width="0.75" cx="110.289" cy="87.564" rx="15.774" ry="13.487"/>
	<path fill="none" stroke="#000000" stroke-width="0.75" d="M94.759,85.236c0.081-1.619,0.582-3.153,1.656-4.539
		c0.252-0.572,0.632-1.051,1.089-1.464c0.951-1.28,2.187-2.577,3.639-3.206c-1.223-4.102-5.271-7.478-10.491-8.236
		c-6.787-0.985-12.958,2.822-13.783,8.502c-0.825,5.685,4.008,11.088,10.795,12.073c2.499,0.363,4.911,0.072,7.008-0.719
		C94.559,86.866,94.594,86.035,94.759,85.236z"/>
	<path fill="none" stroke="#000000" stroke-width="0.75" d="M78.349,82.954c0,0-4.002,4.944-4.542,5.33
		c-0.541,0.388-1.168,0.39-1.168,0.39s-5.942-1.526-8.686-1.732c-2.743-0.206-8.054-0.476-8.054-0.476"/>
	<path fill="none" stroke="#000000" stroke-width="0.75" d="M47.775,86.045c0,0-2.112,1.05-2.957,1.973
		c-0.844,0.922-1.088,3.409-1.081,3.975c0.007,0.566,1.023,1.733,1.821,2.565c0.797,0.832,1.844,1.688,3.691,2.058
		c1.848,0.37,5.096,1.19,6.806,1.045c1.71-0.146,4.022-0.674,4.878-1.721c0.856-1.045,1.482-2.303,1.225-3.521
		c-0.257-1.22-1.25-3.264-3.765-4.515C55.88,86.652,53.109,84.811,47.775,86.045z"/>
	<path fill="none" stroke="#000000" stroke-width="0.75" d="M47.291,96.108c0,0,1.559,2.037,2.972,2.992
		c1.414,0.955,8.437,5.538,14.38,7.691c5.943,2.152,14.943,5.799,19.883,6.66c4.94,0.861,7.875,1.023,9.559,0.497
		c1.685-0.524,3.99-1.617,4.859-2.16"/>
	<path fill="none" stroke="#000000" stroke-width="0.75" d="M77.787,111.724c0,0,5.048,5.52,8.615,7.563
		c3.567,2.046,9.762,5.48,15.417,6.726c5.656,1.246,14.302,2.722,20.377,2.25c6.076-0.472,9.681-1.374,12.868-3.134
		c3.188-1.759,10.241-7.725,12.237-11.423c1.993-3.697,3.391-8.333,3.729-11.126c0.336-2.793-0.112-12.947-0.544-13.681
		c-0.431-0.733-0.337-1.038-0.337-1.038"/>
	<path fill="none" stroke="#000000" stroke-width="0.75" d="M145.737,62.434c0,0,6.456-6.274,9.908-9.452
		c3.45-3.179,8.251-6.664,10.59-6.812c2.338-0.147,3.813,0.186,6.748,3.551c2.936,3.364,6.241,8.086,6.765,11.717
		c0.521,3.63,0.359,5.937,0.096,9.241c-0.259,3.303-0.884,5.188-2.354,7.367c-1.469,2.179-4.78,4.347-6.305,5.369
		c-1.522,1.023-7.675,3.1-13.005,3.665c-5.329,0.565-8.607,0.912-10.373,0.99"/>
	<path d="M148.177,87.71c0,0-5.428-0.134-7.102-0.151s-1.619,0.071-1.619,0.071s7.241,1.087,9.52,0.683"/>
	<path fill="none" stroke="#000000" stroke-width="0.75" d="M96.124,69.269c0,0,9.303-5.2,12.046-5.853
		c2.743-0.651,8.311-2.785,13.661-1.842c5.35,0.944,12.505,4.826,14.474,6.109c1.966,1.282,2.656,1.936,2.656,1.936"/>
	<path fill="none" stroke="#000000" stroke-width="0.75" d="M115.719,61.562c0,0-2.589-10.302-3.417-13.816
		c-0.827-3.515-1.67-11.133-0.929-13.573c0.742-2.439,2.463-4.615,4.958-5.292c2.494-0.676,10.272-0.583,13.773,0.431
		c3.5,1.013,8.291,3.409,10.94,6.265c2.65,2.856,4.896,5.587,4.909,8.854c0.013,3.268-0.81,9.969-2.818,14.21
		c-2.006,4.241-5.403,9.854-5.403,9.854"/>
	<path d="M57.352,87.236c0,0-3.824-0.291-6.185,0.732c-2.361,1.025-3.304,2.104-3.701,2.735c-0.397,0.631-0.354,1.891,0.793,3.009
		c1.146,1.117,2.419,2.664,4.618,3.299c2.198,0.636,2.664,1.016,2.664,1.016s3.768-0.865,4.582-1.477
		c0.813-0.611,2.035-2.813,2.035-2.813l0.004-1.318l-0.358-1.899l-2.542-2.26l-1.503-0.9"/>
	<path fill="none" stroke="#000000" stroke-width="0.75" d="M180.262,61.628c0,0,7.501-0.499,10.167-0.333s5.834,0.166,11.167,1.833
		s11,4.999,14.833,8.333s7.167,5.999,9.5,12.333s2.167,15.334,1.167,20.334s-3.335,9.667-6.001,13s-4.333,4.5-4.333,4.5"/>
	<path fill="none" stroke="#000000" stroke-width="0.75" d="M193.596,97.794c0,0-8,0.666-10.5,2s-9.5,5.833-12.167,10
		s-3.833,11.334-3,14.667s5.834,11.834,12.5,14.667s16.5,3.499,22,1.666s9.333-4.166,9.333-4.166s5.501,3.5,9.334,5.333
		s11.499,4,15.666,4.5s6.334,0.666,8.834-0.167s5.334-2.166,5-3.166s-5.5-3.666-9-4.5s-6.5-1.334-6.5-1.334
		s-7.001-9.499-8.834-10.666s-5.666-3-7.333-3.667s-4.499-4.001-6.333-7.667s-2.167-5-2.167-5"/>
	<path fill="none" stroke="#000000" stroke-width="0.75" d="M157.929,104.794c0,0-8.834,10.668-11.667,14.334
		s-6.334,8.166-6.667,8.666s-11.5,0.834-14.333,1.167s-10.5,0.999-12.833,2.666c-2.333,1.667-5.167,5.834-5.5,6.334
		s-0.333,1.833-0.333,1.833"/>
	<path fill="none" stroke="#000000" stroke-width="0.75" d="M110.929,134.961c0,0-4.167,5.333-3.5,5.833s3.167,0.333,3.167,0.333
		h2.5"/>
	<path fill="none" stroke="#000000" stroke-width="0.75" d="M116.762,134.961c0,0-2.666,3.332-2.833,4.166s-1.333,2.834,1.5,1.834
		s6.667-3.667,6.667-3.667l22.333,4.5c0,0,0.334,0.833,1.667-1.167s8.666-12.499,10.833-14.666"/>
	<path fill="none" stroke="#000000" stroke-width="0.75" d="M148.929,136.461c0,0,10.5,3,16.5,3s15-0.333,15-0.333"/>
	<path fill="none" stroke="#000000" stroke-width="0.75" d="M135.012,140.211c0,0-0.375,1.75-0.875,1.875s-2.5,0-2.5,0
		s-11.75-3.125-12.625-2.875s-0.875,0.25-0.875,0.25"/>
	<path fill="none" stroke="#000000" stroke-width="0.75" d="M113.387,128.336c0,0-8.5,1.375-10.375,2.375s-5.125,4.375-6,5.25
		s-2,4.5-1.5,5s2.25,0.75,2.25,0.75"/>
	<path fill="none" stroke="#000000" stroke-width="0.75" d="M101.387,141.461c0,0-1.625,0.25-2.875,0.25s-0.75-2-0.25-3.25s2-3,2-3"
		/>
	<path fill="none" stroke="#000000" stroke-width="0.75" d="M105.512,134.461c0,0-3,2.5-3.5,3.75s-1.375,4.25,1.375,3.375
		s2.75-0.875,2.75-0.875"/>
	<path fill="none" stroke="#000000" stroke-width="0.75" d="M219.137,119.211c0,0,3.5-0.375,4.125,0.375s3.25,3.875,5.125,6
		s4.5,5,7.75,6.875s5.25,2.875,6.875,4s1.875,0.875,2,2.125s0.125,1.25,0.125,1.25"/>
	<path fill="none" stroke="#000000" stroke-width="0.75" d="M223.762,113.711c0,0,5.25,8.5,6.375,10.125s6,7,8.125,8.5
		s12,6,14.625,6.375s8,0.75,13.25-2.875s9.875-9.75,9.125-16.25s-4.125-16.625-7-22.25s-9.25-19.375-12.25-24.625
		s-6.875-16.375-7.875-20s-3.375-23.25-2.875-26.375s0.5-3.125,0.5-3.125s-5.625,11.25-6.25,16.625s0.25,14.375,2.125,19.5
		s5.875,13.5,8.375,18.125s7.875,15,11,21.625s5.75,14.25,6,18.875s-0.25,6.75-2.75,9.125s-4.875,4.375-9.375,3.5
		s-11.5-4.25-15.75-9.5s-11.125-16.5-11.5-18s-0.375-1.5-0.375-1.5"/>
	<path d="M157.465,104.805c0,0,1.25-1.484,1.438-1.688s-0.391,1.531-0.859,2.078"/>
	<path d="M193.116,97.481c0,0,3.688-0.27,4.792-0.041s3.98,1.437,5.021,2.354s1.041,0.917,1.041,0.917s-4.457-2.124-6.291-2.333
		s-4.668-0.334-5.334-0.167"/>
	<path d="M210.388,110.919c0,0,0.416,1.876-0.792-2.166s-1.208-4.334-1.208-4.334s2.167,5.416,2.875,7.25"/>
	<path d="M156.43,125.981c0,0,4.478-4.375,5.062-4.938s0.584-0.563,0.584-0.563s-5.562,6.437-5.646,6.583"/>
	<polyline points="113.793,141.492 112.7,141.492 112.606,140.773 113.512,140.711 	"/>
	<path d="M116.825,135.481c0,0-0.188-0.187,1.125-0.791s1.313-0.604,1.313-0.604s-2.459,0.208-3,0.958"/>
	<path d="M110.992,135.44c0,0,0.937-1,2.021-1.688c1.084-0.688,1.084-0.688,1.084-0.688s-3.271,1.438-3.563,1.771"/>
	<path d="M105.554,134.836c0,0,1.062-0.625,2.187-1.042s1.125-0.417,1.125-0.417s-3.312,0.584-3.646,0.896"/>
	<path d="M100.429,135.836c0,0,1-1.124,1.833-1.521s0.833-0.396,0.833-0.396s-2.896,1-3.292,1.5"/>
	<path d="M106.304,139.587c0,0-0.25,1.041,0.125,1.291s1.083,0.167,1.083,0.167l-0.333-0.667c0,0-0.125-0.292-0.25-0.75"/>
	<polyline points="107.054,140.795 105.387,141.295 105.387,140.67 106.679,140.045 	"/>
</g>
<g id="frame_3">
	<path fill="#D69E3A" d="M99.929,85.294l3.5,20.667c0,0-4.334,11.166-4.667,11.666s-5.166,8-5.166,8l-6.667,3.167
		c0,0-1.166,3.999-0.5,4.333s10.166,2.501,10.666,2.834s3.834,4.832,4.334,5.166s9.167,1.167,9.5,1.667s3.334,5.834,4,6.167
		s8.333,1.5,8.333,1.5l5.333,0.833l4.667-0.167l0.75-0.499l-1.166-1.916l-2.834-2.167l-3.416-1.583l-3.584-1l-2.75-1.25
		l-1.583-1.417l-1-1.75l-0.583-2.583l-0.167-1.75v-1.25l0.25-2.75c0,0,0.5-0.917,0.75-0.917s1.917-0.251,2.5-0.167
		s13.5,0.001,13.5,0.001s3.499-1.084,3.833-1.167s5.25-0.5,5.5-0.5s12.584,0.75,12.834,0.75s6-1.416,6.25-1.5s2.417-4.25,2.417-4.25
		s0.751-4.5,0.917-4.917s3.583-7,3.583-7l2.167-1.5l1.083-1.333l0.917-1.084l3.916-6.666c0,0,0.583-10.167,0.25-10.417
		s-11.583-10.333-11.583-10.333s-2.75-13.417-2.917-13.667s-2.417-7.5-2.417-7.5l-1.416-2.5l-3.25-3.833l-2.25-1.417l-1.5-0.666
		l-6.917-0.25l-7.583,0.333l-7.833,1.917l-4.584,1.666l-1.583,0.917l-0.75,15.25l-6.333,5l-10.917,8.666l-5,1.25"/>
	<path fill="#956E28" d="M152.512,51.295c0,0,2.167,1.083,4.5,6.333s3.416,13,3.083,16.917s-0.833,7.167-0.833,7.167l0.25,2.5
		c0,0,2.749,0.749,4.166,1.416s3.5,1.5,5.417,3.25s3.75,3.584,5.417,6.584s2.583,6.5,2.583,6.5s2-4.583,2.25-5.5s1-5.417,1-5.417
		l0.417-3.333l0.166-2.5l0.334-3.333l-1.667-7.001l-2.333-7.166l-3.917-5.5l-4-4l-4.583-2.833l-2.667-1.25l-5-1.917L152.512,51.295z
		"/>
	<path fill="#956E28" d="M173.595,107.129c0,0-6.499,7.083-8.083,8.833s-2.168,3.751-2.334,5.417s-0.666,3.5-2.666,3.75
		s-28.5-0.001-28.5-0.001s-18.75,0.001-19,0.084s-4.917,0.083-6.417,0.083s-2.75-0.5-3.25-0.583s-0.667-0.667-0.667-0.667
		l-1.083,1.167l-0.5,1.416l-0.167,1.25l0.667,1.5l1.083,0.25v1.334c0,0,1.501,1.416,2.084,1.583s1.833,0.167,1.833,0.167
		l2.167-0.667l5.666-1.917l2.084-0.583l0.5,2.583v2.084v0.75l3.333-0.334c0,0,2.834-0.167,3.667-0.083s4.583-0.416,4.583-0.416
		s2.084-0.333,3.167-0.75s4.833-1.834,4.833-1.834l2.333-1.166c0,0,3.25,0,3.5,0s8.584,0.416,8.584,0.416l7.667-0.083l5.166-0.334
		l1.334-0.75l1.916-1.583l0.083-3.583l-0.166-2.917l0.083-3.083l1-1.584L173.595,107.129z"/>
	<path fill="#664B1C" d="M90.428,135.712"/>
	<path fill="#8A6625" d="M87.825,132.711c0,0,5.188,0.938,7,0.75s4.125-0.5,4.125-0.5l2.625-1.313l1-0.313
		c0,0,2.313,1.813,4.563,4.313s6.25,7.563,7.375,8.438s3.875,4.25,5.688,4.688s6.438,0.688,7.563,0.875s4.438,0.125,4.438,0.125
		h1.25l0.563,0.563l-0.188,0.75l-1,0.563l-1.125,0.188l-0.688,0.563l-0.875,0.375l-4.938,0.063l-4.313,0.188l-5.563-2.5
		l-4.313,1.063l-8.25-4.063c0,0-9.438-10.25-9.375-9.938s-3.375-1.813-3.375-1.813s-4.563-0.5-5.375-0.688s-2.375-0.75-2.375-0.75
		s-0.75-0.313-0.438-0.375s6-1.688,6-1.688"/>
	<path fill="#664B1C" d="M90.095,135.795l5,5.75c0,0,5.667,6.084,5.917,6.167s4.583,3.333,4.583,3.333l4.917,1.917h3l3.833-0.25
		l-0.583-0.75l-1.584-1.584c0,0-0.75,0.416-3.583-0.75s-8.166-5-9.333-6.333s-6.584-7.417-6.584-7.417l-5.25-0.25"/>
	<path fill="#C181B9" d="M181.262,82.462l-0.167,4.333l-0.333,1.75l-0.417,2.417l-0.333,1.916l0.75,1.167
		c0,0,6.25,4.751,6.833,5.084s8.333,5.583,8.333,5.583l7.001,3.333l3.916,1.25l3.75,0.334c0,0,4.834,0.249,7.084-0.584
		s3.75-2.083,4-2.083s3.583-2.667,3.583-2.667l2.5-2.583l2.25-3.583l1.5-4.417l0.083-4.583l-1.666-5.75l-2.751-6.667l-5-7.417
		l-5.666-6.417l-6.917-7.666l-7-8.166l-5.25-5.917c0,0-4.666-6.083-5.583-7.333s-4.75-8-4.75-8l-4.5-8.417l-2.667-8.167
		l-2.083-8.667c0,0-1.501,11.583-1.167,14.25s1.834,10.417,1.834,10.417l3.166,7.75l6.417,8.917l5.833,7.083l5.167,5.417
		l6.333,7.417l3.417,3.749l4.583,4.667l4.917,6.583l2.833,4.167l1.917,3.833l0.75,4l0.167,2.25l-0.584,1.917c0,0-0.917,1.917-1,2.25
		s-1.583,2.666-1.583,2.666s-2.417,1.75-2.5,2s-4.417,1.834-4.417,1.834l-7.083-0.5l-4.917-1.834l-5.25-3.416l-9.167-7.167
		l-2.583-2.917l-3.25-3.25"/>
	<path fill="none" stroke="#000000" stroke-width="0.75" d="M124.429,54.962c0,0,7.833-3.501,11.333-3.917s14.667-0.5,17.25-0.083
		s12.167,4.084,15.75,6.917s7.082,7.5,8.666,10.75s3.417,9.167,3.667,13.833s-1.749,14.583-3.083,17.333s-4.168,7.083-5.334,9
		s-3.25,5.666-4.25,7.5s-1.416,2.917-1.416,4.917s0.25,5.749,0.083,6.666s-1.417,2.001-3.75,2.501s-10.166,0.499-12.916,0.499
		s-10.166-0.583-15-1.083s-6.416-0.999-11.25-1.083s-7.418,0.416-10.084,1.583s-7.417,2.833-8.583,2.333s-4.416-1.667-2.333-3.25
		s3.75-2.666,4.75-3.083"/>
	<path fill="none" stroke="#000000" stroke-width="0.75" d="M102.679,129.878c0,0-1.417-0.167-1.75-1.5s0.083-3.166,1.333-4.083
		s3.667-1.5,3.667-1.5"/>
	<path fill="none" stroke="#000000" stroke-width="0.75" d="M103.596,123.462c0,0,1.332-2.5,3.416-3.417s3.668-1.167,7.584-0.917
		s11.249,0.501,13.916,0.584s4.167-0.084,4.167-0.084"/>
	<path fill="none" stroke="#000000" stroke-width="0.75" d="M129.429,119.462c0,0-1.667-2.667-2.417-6.417
		s-0.75-10.999,2.167-14.583s9-9.416,13.25-11s9.916-2.418,12.666-2.584s6.583,0.084,6.583,0.084"/>
	<path fill="none" stroke="#000000" stroke-width="0.75" d="M116.762,129.462c0,0,0.25,6.5,0.583,8s1.083,3.583,2.583,4.833
		s3.001,1.5,5.584,2.417s3.25,0.916,5.25,2.333s2.916,2.584,3.166,3.334s-0.499,1.332-2.166,1.499s-3.25,0.084-3.25,0.084
		l-0.834-0.5"/>
	<path fill="none" stroke="#000000" stroke-width="0.75" d="M131.762,151.878c0,0-0.251,1.084-3.084,1.084s-5.416,0.084-6.916,0
		s-3.667-0.584-3.667-0.584s-3.916-2.249-7.833-6.166s-8.084-9.5-9.334-10.75s-1.916-2.084-1.916-2.084"/>
	<path fill="none" stroke="#000000" stroke-width="0.75" d="M82.178,134.545c0,0,6.084,0.999,8.917,1.083s10.25-0.083,10.25-0.083"
		/>
	<path fill="none" stroke="#000000" stroke-width="0.75" d="M90.178,135.962c0,0,7.583,9.083,8.75,10.083s6.668,5.334,8.584,5.917
		s4.25,0.833,4.25,0.833l6.916-0.166"/>
	<path fill="none" stroke="#000000" stroke-width="0.75" d="M117.262,134.795c0,0,9.25-0.249,11.833-0.666s7.501-2.334,8.417-2.834
		s1.333-1.083,1.333-1.083"/>
	<path fill="none" stroke="#000000" stroke-width="0.75" d="M181.095,82.462v3.5l-0.083,2.166l-0.417,1.584l-0.417,2l-0.041,1.624
		c0,0,2.125,2,4.25,3.5s8.5,6.125,14.375,9.25s10.25,3.875,15,3.625s9.875-3.625,13.125-6.75s4.875-8.875,4.75-12
		s-1.375-8.125-3.875-12.875s-7.5-11.5-11.875-15.875s-14.5-16.625-18.25-20.5s-13.125-19.5-15.25-24.25s-4.75-17.375-4.75-17.375
		s-0.5,2.125-0.875,5.5s-0.25,10.125,0.375,14.5s4.375,13,5.875,15.25s8.75,11.75,14.25,17.25s10.625,12.5,15.125,16.875
		s8.25,11.125,9.5,13s2.25,6.125,2,8.375s-3.25,7.125-3.25,7.125c-1,1.625-5.375,3.75-7.5,3.875s-7.625-0.75-10.25-1.875
		s-12.375-8.125-14.375-10.25s-7.5-7.75-7.5-7.75"/>
	<path d="M161.2,85.273c0,0,2.625,0.469,3.563,0.969s1.063,0.438,1.063,0.438s-2.719-1.844-4.438-2.063"/>
	<path d="M132.418,119.992c0,0,1.313-0.031,2.219-0.25s1.063-0.281,1.063-0.281s-1.688-0.094-3.25-0.156"/>
	<path d="M112.043,118.898c0,0-0.969-2.438-1.406-3s-0.5-0.688-0.5-0.688s2.219,2.5,2.625,3.219s0.406,0.719,0.406,0.719"/>
	<path d="M107.637,126.805c0,0,1.313-0.656,2.375-0.781s1.063-0.125,1.063-0.125s-2.344-0.344-3.813,0.406"/>
	<path d="M105.543,123.211c0,0,2.188-0.5,2.906-0.344s0.719,0.156,0.719,0.156s-2-0.938-3.531-0.531"/>
	<path d="M127.825,151.961c0,0-1.563-1.063-1.969-1.438s-0.406-0.375-0.406-0.375s2.094,0.875,2.781,1.219"/>
	<polygon points="89.137,135.648 90.512,136.711 90.793,136.461 90.356,135.773 	"/>
	<path fill="#D69E3A" d="M31.724,101.279c0,0-2.65,6.282-2.882,6.408c-0.232,0.124-2.34,0.653-2.34,0.653s-9.206,0.046-11.04,0.695
		c-1.834,0.65-4.571,1.455-4.571,1.455s1.97,3.129,2.259,3.333c0.289,0.205,2.188,2.925,2.188,2.925l-4.085,3.316l-0.791,1.317
		l-4.247-0.122l-1.314,0.224l1.142,1.244c0,0,2.209,1.06,2.854,1.373c0.646,0.313,8.598,2.34,10.107,2.761
		c1.508,0.417,16.749,2.051,18.515,2.003c1.768-0.048,3.65,1.577,3.65,1.577s6.575,3.36,9.77,4.254
		c3.195,0.892,10.76,1.634,12.473,1.764c1.713,0.132,26.338-10.147,26.338-10.147s6.957-12.258,6.834-12.489
		c-0.126-0.233-1.47-12.6-1.47-12.6s0.33-7.494,0.274-7.823c-0.057-0.33-1.509-4.394-1.509-4.394l27.482-11.863
		c0,0,4.96-7.101,5.502-9.39c0.54-2.29-0.811-8.231-1.393-10.16c-0.58-1.931-5.207-8.75-5.207-8.75s-7.477-6.674-9.669-6.639
		s-4.873,0.66-5.258,0.896c-0.382,0.234-4.216,5.028-4.216,5.028l-6.475,9.639l-7.745,14.592c0,0-10.667-3.087-12.38-3.218
		c-1.715-0.131-7.974-0.164-7.974-0.164s-8.85,4.128-9.699,4.609c-0.847,0.482-7.475,5.245-7.884,5.821
		c-0.409,0.578-3.481,3.382-3.481,3.382l-0.82,0.647"/>
	<path fill="#956E28" d="M62.184,70.649c-0.247,0.043-6.933-11.922-7.61-13.413c-0.676-1.49-3.967-9.891-4.051-10.891
		c-0.086-1,0.697-4.346,1.092-5.005s1.979-2.281,1.979-2.281l4.664-1.892l7.928-1.603l1.793,0.116l8.335,1.794l4.173,2.165
		l3.93,3.219l1.943,2.967l1.335,5.351l0.521,4.561l-0.128,2.727l-0.738,4.099l-0.822,4.113l-1.243,5.114l1.412,0.351l-2.736,5.284
		c0,0-0.466-0.765-1.869-2.557c-1.405-1.787-5.049-5.31-5.293-5.268c-0.248,0.042-3.579-0.659-3.579-0.659l-4.493-0.081
		l-4.176,0.796L62.184,70.649z"/>
	<path fill="#956E28" d="M91.719,89.714c0,0,2.052,7.598,2.378,9.991c0.321,2.397,0.668,10.874,0.032,13.604
		c-0.635,2.729-2.076,5.681-4.191,8.155c-2.115,2.472-2.988,3.298-4.998,4.907c-2.008,1.609-7.133,4.764-9.159,5.277
		c-2.026,0.515-6.501,2.037-9.033,2.554c-2.533,0.517-8.886,1.429-9.393,1.43c-0.507,0.002,1.222,0.722,1.222,0.722l6.111,0.144
		l7.479-0.259l9.254-1.745c0,0,4.684-0.798,4.916-0.922c0.232-0.123,5.8-2.678,5.8-2.678l7.964-6.85l5.326-8.43l1.632-7.294
		l0.403-6.578l-2.315-7.637l-2.061-6.158l-0.99-0.846L91.719,89.714z"/>
	<path fill="#956E28" d="M63.542,118.349c0,0,2.4,0.691,3.237,1.14c0.837,0.449,1.742,0.801,1.964,1.609
		c0.223,0.809,0.168,1.493-0.172,1.975c-0.339,0.479-0.598,1.453-1.473,1.771c-0.875,0.32-1.558,0.774-1.558,0.774
		s2.642-0.365,3.694-1.138c1.053-0.771,2.402-2.268,2.25-3.172c-0.154-0.905-0.446-2.122-2.255-2.321
		C67.42,118.787,63.542,118.349,63.542,118.349z"/>
	<path fill="#FF5AAD" d="M98.053,63.868L85.27,90.558l7.914-1.178l12.891-3.717c0,0,1.25,0.379,2.267-2.583
		c1.019-2.964,2.858-9.024,2.654-9.243c-0.205-0.219-0.467-4.231-0.688-4.532c-0.223-0.301-2.534-3.459-2.74-3.677
		c-0.205-0.219-2.596-1.84-2.967-2.03c-0.369-0.19-5.55-0.322-5.55-0.322L98.053,63.868z"/>
	<path fill="#B23F79" d="M98.313,63.4c0,0,6.035-9.733,7.332-11.055c1.297-1.318,2.841-3.188,4.265-3.262
		c1.423-0.073,4.482,1.52,6.915,3.388c2.43,1.869,3.354,3.317,4.967,5.834c1.609,2.517,2.562,4.633,2.846,7.292
		c0.283,2.657,0.315,3.836-0.036,5.247s-0.748,2.071-1.318,3.183c-0.572,1.112-0.733,1.647-0.733,1.647l-1.854,2.006l-2.707,1.982
		l-2.036,1.444l-3.433,1.684l-2.942,1.601l-4.433,1.261c0,0-0.46,1.262,1.377-1.841c1.841-3.102,2.763-5.625,2.862-8.011
		c0.101-2.385-0.249-4.436-1.049-6.161c-0.8-1.725-2.574-4.211-4.44-4.738s-6.481-0.333-6.481-0.333L98.313,63.4z"/>
	
		<ellipse transform="matrix(-0.998 0.0634 -0.0634 -0.998 133.206 189.7964)" fill="#FFFFFF" cx="63.593" cy="97.011" rx="15.703" ry="13.681"/>
	
		<ellipse transform="matrix(-1 0.0043 -0.0043 -1 82.5223 186.8205)" fill="#FFFFFF" cx="41.061" cy="93.499" rx="12.665" ry="10.503"/>
	<path fill="#FFFFFF" d="M12.565,111.388l-1.838-0.87l-4.191,0.206l-3.271,1.148l-1.106,0.948l-1.132,1.292l-0.585,1.03l0.119,2.685
		l0.293,1.724l2.348,1.377l1.523,1.009l1.672-0.116l2.767-0.133l2.71-0.461c0,0-0.94-2.545-1.064-2.778
		c-0.124-0.231,1.002-3.045,1.111-3.4c0.109-0.357,0.813-2.676,0.813-2.676L12.565,111.388z"/>
	
		<ellipse transform="matrix(-0.9858 0.1679 -0.1679 -0.9858 124.0153 185.4041)" fill="#0090FB" cx="54.171" cy="97.944" rx="5.896" ry="5.231"/>
	
		<ellipse transform="matrix(-0.9858 0.1679 -0.1679 -0.9858 81.9668 181.6502)" fill="#0090FB" cx="33.303" cy="94.291" rx="4.853" ry="4.292"/>
	
		<ellipse transform="matrix(-0.9858 0.1679 -0.1679 -0.9858 81.8056 181.6907)" fill="#003D5F" cx="33.221" cy="94.304" rx="2.021" ry="1.917"/>
	
		<ellipse transform="matrix(-0.9858 0.168 -0.168 -0.9858 123.6893 185.0976)" fill="#003D5F" cx="54.016" cy="97.78" rx="2.355" ry="2.251"/>
	<path fill="#FFFFFF" d="M34.028,91.97c0.089,0.521,0.658,0.859,1.27,0.756c0.612-0.104,1.037-0.611,0.948-1.133
		c-0.089-0.524-0.658-0.861-1.27-0.758C34.364,90.939,33.939,91.447,34.028,91.97z"/>
	
		<ellipse transform="matrix(-0.9858 0.1677 -0.1677 -0.9858 128.2056 179.1452)" fill="#FFFFFF" cx="56.541" cy="94.984" rx="1.229" ry="1.084"/>
	
		<ellipse transform="matrix(-0.9858 0.1681 -0.1681 -0.9858 120.229 191.219)" fill="#FFFFFF" cx="52.02" cy="100.699" rx="1.104" ry="0.958"/>
	<circle fill="#FFFFFF" cx="30.992" cy="96.607" r="0.812"/>
	<path d="M91.426,62.184c-0.164,0.155-10.814,22.128-10.814,22.128l11.671-21.576L91.426,62.184z"/>
	<path d="M58.187,124.268c0,0,1.389-2.267,2.529-2.648c1.139-0.384,3.677-0.373,3.677-0.373s-2.135,0.49-2.771,0.852
		c-0.635,0.363-0.996,0.108-1.559,0.9c-0.562,0.793-0.807,1.215-0.807,1.215L58.187,124.268z"/>
	
		<ellipse transform="matrix(-0.9985 0.0548 -0.0548 -0.9985 132.6462 190.7178)" fill="none" stroke="#000000" stroke-width="0.75" cx="63.707" cy="97.178" rx="15.774" ry="13.487"/>
	<path fill="none" stroke="#000000" stroke-width="0.75" d="M48.112,99.021c-0.349-1.583-0.269-3.194,0.402-4.814
		c0.093-0.618,0.333-1.18,0.666-1.699c0.581-1.485,1.432-3.062,2.667-4.051c-2.26-3.635-7.055-5.825-12.29-5.184
		c-6.808,0.836-11.758,6.134-11.059,11.83c0.7,5.701,6.785,9.643,13.593,8.806c2.506-0.308,4.757-1.223,6.571-2.538
		C48.348,100.646,48.163,99.835,48.112,99.021z"/>
	<path fill="none" stroke="#000000" stroke-width="0.75" d="M31.68,101.14c0,0-2.559,5.823-2.979,6.338
		c-0.419,0.517-1.024,0.684-1.024,0.684s-6.135,0.092-8.835,0.615c-2.7,0.522-7.896,1.661-7.896,1.661"/>
	<path fill="none" stroke="#000000" stroke-width="0.75" d="M2.999,112.17c0,0-1.761,1.569-2.333,2.682
		c-0.571,1.111-0.152,3.575,0.004,4.119c0.156,0.544,1.444,1.402,2.433,1.995c0.988,0.593,2.223,1.143,4.103,1.014
		c1.88-0.13,5.229-0.193,6.841-0.783c1.611-0.593,3.703-1.71,4.253-2.944c0.551-1.234,0.824-2.613,0.255-3.72
		c-0.569-1.109-2.066-2.819-4.821-3.364C10.978,110.622,7.819,109.575,2.999,112.17z"/>
	<path fill="none" stroke="#000000" stroke-width="0.75" d="M5.181,122.006c0,0,2.04,1.556,3.655,2.104s9.597,3.122,15.897,3.634
		c6.301,0.512,15.943,1.661,20.935,1.191c4.993-0.47,7.867-1.086,9.353-2.037c1.487-0.95,3.423-2.61,4.119-3.363"/>
	<path fill="none" stroke="#000000" stroke-width="0.75" d="M38.712,129.042c0,0,6.323,3.996,10.302,5.028
		c3.98,1.035,10.861,2.717,16.645,2.43s14.515-1.14,20.25-3.194c5.738-2.055,8.978-3.874,11.589-6.411
		c2.613-2.535,7.847-10.148,8.799-14.241c0.949-4.092,1.078-8.932,0.669-11.715c-0.411-2.783-3.517-12.461-4.127-13.056
		c-0.607-0.594-0.598-0.913-0.598-0.913"/>
	<path fill="none" stroke="#000000" stroke-width="0.75" d="M91.289,63.603c0,0,4.576-7.754,7.07-11.729
		c2.49-3.975,6.205-8.601,8.423-9.358c2.217-0.758,3.728-0.825,7.444,1.648c3.718,2.474,8.15,6.158,9.61,9.522
		c1.459,3.365,1.91,5.633,2.525,8.891c0.62,3.254,0.514,5.236-0.33,7.727c-0.844,2.489-3.468,5.451-4.67,6.84
		c-1.199,1.388-6.587,5.011-11.58,6.959c-4.992,1.948-8.064,3.146-9.747,3.687"/>
	<path d="M100.297,87.344c0,0-5.272,1.3-6.892,1.724s-1.543,0.495-1.543,0.495s7.272-0.858,9.363-1.848"/>
	<path fill="none" stroke="#000000" stroke-width="0.75" d="M45.225,83.258c0,0,7.606-7.467,10.081-8.818
		c2.475-1.351,7.284-4.874,12.694-5.373c5.409-0.498,13.334,1.363,15.571,2.083c2.234,0.72,3.072,1.169,3.072,1.169"/>
	<path fill="none" stroke="#000000" stroke-width="0.75" d="M62.101,70.663c0,0-5.21-9.257-6.935-12.43
		c-1.723-3.172-4.542-10.302-4.47-12.85c0.074-2.548,1.162-5.1,3.389-6.409c2.229-1.309,9.757-3.267,13.401-3.211
		c3.643,0.056,8.896,1.106,12.204,3.164c3.309,2.057,6.193,4.101,7.066,7.25c0.873,3.149,1.844,9.831,1.022,14.45
		c-0.818,4.621-2.619,10.93-2.619,10.93"/>
	<path d="M12.55,110.798c0,0-3.765,0.727-5.773,2.335c-2.008,1.611-2.633,2.899-2.851,3.613c-0.217,0.713,0.157,1.918,1.557,2.694
		c1.4,0.775,3.035,1.934,5.323,1.967c2.289,0.034,2.837,0.279,2.837,0.279s3.407-1.827,4.032-2.632
		c0.624-0.803,1.222-3.249,1.222-3.249l-0.343-1.273l-0.846-1.738l-3.047-1.511l-1.687-0.473"/>
</g>
</svg>
