<?xml version="1.0" encoding="utf-8"?>
<!-- Generator: Adobe Illustrator 13.0.0, SVG Export Plug-In . SVG Version: 6.00 Build 14948)  -->
<!DOCTYPE svg PUBLIC "-//W3C//DTD SVG 1.1//EN" "http://www.w3.org/Graphics/SVG/1.1/DTD/svg11.dtd">
<svg version="1.1" xmlns="http://www.w3.org/2000/svg" xmlns:xlink="http://www.w3.org/1999/xlink" x="0px" y="0px"
	 width="228.921px" height="129.035px" viewBox="0 0 228.921 129.035" enable-background="new 0 0 228.921 129.035"
	 xml:space="preserve">
<g id="frame_1">
	<path fill="#D69E3A" d="M33.983,59.625c0,0-3.667,5.749-3.917,5.833s-2.417,0.251-2.417,0.251s-9.083-1.5-11-1.167
		s-4.75,0.667-4.75,0.667s1.417,3.416,1.667,3.666s1.667,3.25,1.667,3.25l-4.583,2.584l-1,1.166l-4.167-0.833H4.149l0.917,1.417
		c0,0,2,1.416,2.583,1.833s8.083,3.751,9.5,4.417s16.167,4.833,17.917,5.083s3.333,2.167,3.333,2.167s5.917,4.417,8.917,5.833
		s10.333,3.416,12,3.833s27.667-5.583,27.667-5.583s8.916-10.917,8.833-11.167s0.667-12.667,0.667-12.667s1.583-7.332,1.583-7.666
		s-0.75-4.584-0.75-4.584l29.084-7.083c0,0,6.083-6.166,7-8.333s0.583-8.25,0.333-10.25s-3.667-9.5-3.667-9.5
		s-6.249-7.833-8.416-8.167s-4.916-0.167-5.333,0s-5,4.25-5,4.25l-8,8.417L93.233,40.375c0,0-9.999-4.832-11.666-5.249
		s-7.833-1.5-7.833-1.5s-9.417,2.583-10.334,2.916s-8.25,3.916-8.75,4.416s-4,2.75-4,2.75l-0.917,0.5"/>
	<path fill="#D69E3A" d="M84.235,99.875c0.25,0,5.833,1.167,5.833,1.167l4.583-0.417l0.917,0.417l-2.333,4.833
		c0,0-6.083,0.583-6.5,0.75s-3.834,2.25-3.834,2.25l-2.583,4.25c0,0-0.833,1.416-0.583,1.25s1.416,0.334,1.416,0.334
		s-0.166,0.834,0.084,0.75s5.083,0.25,5.083,0.25l7.417-3.167c0,0,5.082-3.584,5.666-4.167s5-6.333,5.25-6.833
		s2.25-5.167,2.25-5.167s3.584,0.75,3.834,0.75s8.499-0.333,8.499-0.333s7.334-1.666,7.584-1.833s10.249-3.167,10.249-3.167
		s9.417-4.166,9.667-4.25s9.75-8.833,9.75-8.833l5.25-11.334c0,0,4-14.75,3.75-14.75s0.583-9.916,0.333-10.333
		s-1.916-9.667-2.166-9.917s-4.167-4.083-4.417-4.083s-8.834-2.75-9.667-2.917s-8.416-0.917-8.416-0.917l-6.917,0.584l-2.5,0.5
		l2,14.167l-1.5,4.333l-0.917,2.167l-2.166,1.916l-3.834,3.5l-4.25,1.584l-5.75,1.916l-6.666,1.584l-2.834,0.75l2.417,12.333
		l-0.166,4.666l-1.5,6.084l-4.584,8.25l-4.75,4.583l-6.083,4.334l-5.167,0.75l-1.5,1L84.235,99.875z"/>
	<path fill="#D69E3A" d="M131.318,103.458l-7.917,7.834l2.917,0.333l3.416,0.083l1.084,0.417h6.083c0,0,4.583-2.001,4.833-2.167
		s4.25-1.5,4.25-1.5s4.416-2.166,4.75-2.416s3.084-3.334,3.084-3.334l1.583-2.583l0.833-1.833l2.334-2.25c0,0-0.666-2.584-1-2.667
		s-7.5,1.418-8.5,1.584s-8.167,3-8.917,3.333s-6.916,3.166-7.083,3.333s-3.167,2.584-3.167,2.584l-0.25,0.416"/>
	<path fill="#D69E3A" d="M131.275,104.041c-0.5,0-8.125,3.125-8.125,3.125l-1.25,1.375l-0.5,2l0.75,0.625l1.251,0.126l6.249-3.501
		l1.75-2.875"/>
	<path fill="#956E28" d="M69.151,34.542c-0.25,0-4.833-12.917-5.25-14.5S61.65,9.625,61.734,8.625s1.417-4.167,1.917-4.75
		s2.334-1.917,2.334-1.917l4.916-1.083l8.084-0.25l1.75,0.417l7.916,3.167l3.75,2.833l3.334,3.833l1.416,3.25l0.417,5.5l-0.25,4.584
		l-0.583,2.666l-1.417,3.917l-1.5,3.917l-2.084,4.833l1.334,0.583l-3.584,4.75c0,0-0.332-0.833-1.416-2.833
		s-4.084-6.083-4.334-6.083s-3.416-1.25-3.416-1.25l-4.417-0.834l-4.25,0.084L69.151,34.542z"/>
	<path fill="#956E28" d="M95.068,58.292c0,0,0.749,7.834,0.666,10.25s-1.165,10.832-2.249,13.416s-3.001,5.251-5.501,7.334
		s-3.5,2.75-5.75,4s-7.832,3.499-9.916,3.666s-6.751,0.916-9.334,1s-9-0.082-9.5-0.166s1.083,0.916,1.083,0.916l6,1.167l7.416,1
		l9.417-0.167c0,0,4.75,0,5-0.083s6.167-1.667,6.167-1.667l9-5.416l6.666-7.417l2.834-6.916l1.5-6.417l-1-7.917l-1-6.417l-0.833-1
		L95.068,58.292z"/>
	<path fill="#956E28" d="M62.485,81.792c0,0,2.25,1.084,3,1.667s1.582,1.082,1.666,1.916s-0.084,1.5-0.5,1.917
		s-0.834,1.333-1.75,1.5s-1.666,0.5-1.666,0.5s2.666,0.083,3.833-0.5s2.75-1.833,2.75-2.75s-0.083-2.167-1.833-2.667
		S62.485,81.792,62.485,81.792z"/>
	<path fill="#956E28" d="M78.401,100.792l-1.666,6c0,0-4.668,0-5.084,0.083s-3.583,2.833-3.583,2.833l-2.167,2.5l-0.666,1.167
		l1,0.25l0.083,0.917h3.917l-0.5,0.666c0,0,5.5-0.583,6.083-0.583s2.583-0.5,2.583-0.5l1.75-1.5l1-1.5l1.584-1.667l1.166-1.083
		l1.5-1l0.834-0.583l2.5-5.167c0,0-7.5-0.749-8-0.833s-2.584-0.5-2.584-0.5"/>
	<path fill="#956E28" d="M86.318,115.709l0.333-1.084c0,0,2.084,0.001,3.584-0.916s6.165-4.584,8.249-7.167s4.083-5.167,5.667-8
		s1.334-2.5,2.667-5.25s1.5-2.751,2.25-5.167s0.917-1.916,1-3.166s0.999,4.499-0.167,8.166s-5.333,12.167-5.333,12.167l-3.917,5.833
		l-1.833,1.917l-2.25,1l-2.334,0.833l-3.416,0.667L86.318,115.709z"/>
	<path fill="#956E28" d="M105.651,103.792l4,0.5l-2.417,2.583v0.917l2.917,0.166l-0.167,0.834l3.417,0.166l2.083-0.416h1.833
		l2.167-0.25l2.083-0.084l1-0.166l3.167-3.5l10.25-2.167h1.167l7.416-1.583l5-1.667l3.334-2.333l3.333-1.667
		c0,0-0.833,2.417-2.5,4.417s-4.25,4.667-4.25,4.667l-1.917,1.916l-2.75,1.917l-2.583,1.667l-1.5,1c0,0,8.334-3.084,10.917-3.834
		s9.75-1.583,9.75-1.583s2-2.084,2.5-2.667s1.25-2.166,1.25-2.166l-0.334-2l-0.583-1.667l-1.167-1.583l-1.166-0.834l-1.25-1.416
		l-0.334-0.25c0,0,6.416-5.083,8-6.75s3.917-4.501,5.167-6.334s3.917-7.666,4.917-10.333s1.833-9.083,2-10.583s-1-9.334-1.75-10.917
		s-3.751-6.501-4.334-7.167s-2.667-2.916-3.25-3.333s-4.167-3.584-4.5-3.917s-3.082-2.333-3.666-2.583s-2-1.417-2.667-1.667
		s-1.917-0.75-1.917-0.75s2.917,6.084,3.167,9.167s0.5,4.75,0.417,7.75s-0.25,6.417-0.917,9.75s-0.417,4.667-1.167,7.75
		s-2.666,8.334-4.166,10.25s-2.416,4.001-5.833,6.917s-7.417,4.249-10.417,6.166s-8.416,4.084-10.75,4.917s-6.167,3.001-8.417,3.417
		s-4.084,0.75-5.917,1s-2.834,0.667-4,0.75s-1.5,0-1.5,0l-3.5,7.499"/>
	<path fill="#956E28" d="M83.275,99.916c0,0,8.5,0.125,10-0.125s1.5-0.25,1.5-0.25l-0.375,3.125c0,0-11.748-1.957-11.999-2.041
		S83.275,99.916,83.275,99.916z"/>
	<path fill="#956E28" d="M140.9,101.666c0,0-17.125,5.625-17.875,6.125s0.5-1.5,0.5-1.5l2.209-1.749l16.041-3.626"/>
	<path fill="#FF5AAD" d="M105.651,33.876L88.568,58.042l8,0.166l13.333-1.5c0,0,1.167,0.584,2.667-2.166s4.332-8.417,4.166-8.667
		s0.251-4.249,0.084-4.583s-1.918-3.834-2.084-4.084s-2.25-2.25-2.583-2.5s-5.417-1.25-5.417-1.25L105.651,33.876z"/>
	<path fill="#C181B9" d="M179.65,64.874c0,0-0.834,3.251-0.917,3.667s-0.916,3.166-0.916,3.166l-0.667,1.25
		c0,0,6.583-0.999,8.5-1.166s10.749-0.251,12.166-0.084s4.918,0.417,5.834,0.667s4.083,1.167,4.083,1.167l2.833,1.25l2.75,1.666
		l3.584,4l1.75,3.584c0,0,1.083,5,1.083,5.25s-0.167,3-0.167,3l-0.75,2.417l-2,1.416l-3.583,2.584l-5,1.833l-7,1.75l-8.416,0.667
		l-10.584,0.833l-10.083,0.416c0,0-11.083,0.834-11.333,0.917s-9.084,1.75-9.084,1.75l-7.333,2.083l-6.417,2.75
		c0,0-3.417,2.333-3.667,2.5s-5,4.334-5,4.334l-2.25,2.25l-6.833,7.833c0,0,11-6.082,13.5-7.166s9.667-3.75,9.667-3.75l6.416-2.25
		l6-1.75l7.084-1.167l5.75-0.917l5.666-0.083l9.501-0.583l7.999-0.417l8.5-1l5.75-1.25l5.917-1.417l5.083-2.25
		c0,0,2.833-1.334,3.75-1.917s3.667-3.416,3.667-3.416l2.417-3.417l0.833-3.333l-0.416-7.5l-1.167-4.833l-1.583-3.417
		c0,0-4.667-4.583-5.667-5.25s-9.417-5-9.667-5s-6.166-1.417-6.166-1.417l-9.917-0.417l-9.167-0.083l-4.5-0.083"/>
	<path fill="#B23F79" d="M105.984,33.459c0,0,7.584-8.584,9.084-9.667s3.334-2.667,4.75-2.5s4.167,2.25,6.25,4.5
		s2.749,3.834,3.916,6.584s1.749,4.999,1.583,7.666s-0.332,3.834-0.916,5.167s-1.084,1.917-1.834,2.917s-1,1.5-1,1.5l-2.166,1.666
		l-3,1.5l-2.25,1.083l-3.667,1.083l-3.167,1.084l-4.583,0.5c0,0-0.666,1.166,1.667-1.584s3.666-5.082,4.166-7.416s0.5-4.416,0-6.25
		s-1.833-4.584-3.583-5.417s-6.333-1.417-6.333-1.417L105.984,33.459z"/>
	
		<ellipse transform="matrix(-0.9945 -0.105 0.105 -0.9945 125.4834 128.1399)" fill="#FFFFFF" cx="66.116" cy="60.766" rx="15.703" ry="13.679"/>
	
		<ellipse transform="matrix(-0.9865 -0.1637 0.1637 -0.9865 79.629 113.6039)" fill="#FFFFFF" cx="44.494" cy="53.522" rx="12.666" ry="10.501"/>
	<path fill="#FFFFFF" d="M13.4,66.374l-1.667-1.167l-4.167-0.5L4.15,65.291l-1.25,0.75l-1.333,1.083l-0.75,0.917l-0.333,2.666v1.75
		l2.083,1.75l1.333,1.25l1.667,0.167l2.75,0.333h2.75c0,0-0.5-2.666-0.583-2.916s1.5-2.834,1.667-3.167s1.25-2.5,1.25-2.5V66.374z"
		/>
	<ellipse fill="#0090FB" cx="56.671" cy="60.104" rx="5.896" ry="5.229"/>
	<ellipse fill="#0090FB" cx="36.712" cy="53" rx="4.854" ry="4.292"/>
	<ellipse fill="#003D5F" cx="36.629" cy="53" rx="2.021" ry="1.917"/>
	<ellipse fill="#003D5F" cx="56.546" cy="59.917" rx="2.354" ry="2.25"/>
	<ellipse fill="#FFFFFF" cx="38.941" cy="50.834" rx="1.125" ry="0.958"/>
	<ellipse fill="#FFFFFF" cx="59.504" cy="57.584" rx="1.229" ry="1.083"/>
	<ellipse fill="#FFFFFF" cx="54.087" cy="62.459" rx="1.104" ry="0.958"/>
	<circle fill="#FFFFFF" cx="34.046" cy="54.896" r="0.813"/>
	<path d="M99.4,31.104c-0.188,0.125-14.375,20-14.375,20l15.125-19.313L99.4,31.104z"/>
	<path d="M56.212,86.729c0,0,1.75-2,2.938-2.188s3.688,0.25,3.688,0.25s-2.188,0.125-2.875,0.375s-1-0.063-1.688,0.625
		s-1,1.063-1,1.063L56.212,86.729z"/>
	
		<ellipse transform="matrix(-0.9935 -0.1136 0.1136 -0.9935 125.0516 129.0234)" fill="none" stroke="#000000" stroke-width="0.75" cx="66.201" cy="60.95" rx="15.775" ry="13.488"/>
	<path fill="none" stroke="#000000" stroke-width="0.75" d="M50.517,60.148c-0.078-1.619,0.271-3.195,1.205-4.679
		c0.195-0.595,0.527-1.107,0.941-1.563c0.822-1.367,1.925-2.778,3.309-3.546c-1.618-3.963-5.976-6.928-11.245-7.172
		c-6.851-0.318-12.621,4.072-12.887,9.807c-0.267,5.736,5.071,10.643,11.922,10.961c2.522,0.117,4.895-0.407,6.904-1.399
		C50.478,61.79,50.431,60.96,50.517,60.148z"/>
	<path fill="none" stroke="#000000" stroke-width="0.75" d="M33.962,59.479c0,0-3.5,5.313-4,5.75s-1.125,0.5-1.125,0.5
		s-6.063-0.938-8.813-0.875s-8.063,0.313-8.063,0.313"/>
	<path fill="none" stroke="#000000" stroke-width="0.75" d="M3.837,65.541c0,0-2,1.25-2.75,2.25s-0.75,3.5-0.688,4.063
		s1.188,1.625,2.063,2.375s2,1.5,3.875,1.688s5.188,0.688,6.875,0.375s3.938-1.063,4.688-2.188s1.25-2.438,0.875-3.625
		s-1.563-3.125-4.188-4.125S9.025,63.791,3.837,65.541z"/>
	<path fill="none" stroke="#000000" stroke-width="0.75" d="M4.337,75.604c0,0,1.75,1.875,3.25,2.688s8.938,4.688,15.063,6.25
		s15.438,4.313,20.438,4.688s7.938,0.25,9.563-0.438s3.813-2,4.625-2.625"/>
	<path fill="none" stroke="#000000" stroke-width="0.75" d="M36.212,88.166c0,0,5.563,5,9.313,6.688s10.25,4.5,16,5.188
		s14.5,1.313,20.5,0.25s9.5-2.313,12.5-4.375s9.438-8.688,11.063-12.563s2.563-8.625,2.625-11.438s-1.375-12.875-1.875-13.563
		s-0.438-1-0.438-1"/>
	<path fill="none" stroke="#000000" stroke-width="0.75" d="M99.025,32.479c0,0,5.813-6.875,8.938-10.375s7.563-7.438,9.875-7.813
		s3.813-0.188,7.063,2.875s7,7.438,7.875,11s0.938,5.875,1,9.188s-0.375,5.25-1.625,7.563s-4.332,4.792-5.749,5.959
		s-7.334,3.834-12.584,4.917s-8.479,1.749-10.229,1.999"/>
	<path d="M103.921,57.396c0,0-5.416,0.396-7.083,0.542s-1.604,0.229-1.604,0.229s7.313,0.375,9.542-0.25"/>
	<path fill="none" stroke="#000000" stroke-width="0.75" d="M50.317,44.124c0,0,8.751-6.083,11.417-7s7.999-3.584,13.416-3.167
		s12.917,3.583,15,4.667s2.833,1.667,2.833,1.667"/>
	<path fill="none" stroke="#000000" stroke-width="0.75" d="M69.067,34.541c0,0-3.583-10-4.75-13.417s-2.75-10.917-2.25-13.417
		s2.001-4.833,4.417-5.75s10.167-1.583,13.75-0.917s8.584,2.583,11.5,5.167s5.417,5.083,5.75,8.333s0.167,10-1.417,14.417
		S91.65,39.291,91.65,39.291"/>
	<path fill="none" stroke="#000000" stroke-width="0.75" d="M132.233,25.291c0,0,6.749-1.333,12.833-0.5s11.001,2,15.834,4.75
		s12.499,9,15.083,13.25s5,10.749,4,19.083s-4.334,15.749-7.75,19.583s-7.833,8.75-12.833,11.667s-5.168,3.25-10.334,5.667
		s-8.082,3-13.666,4s-11.167,1.666-16.917,1.666s-9.083-0.417-10.833-0.5s-2.333-0.166-2.333-0.166"/>
	<path fill="none" stroke="#000000" stroke-width="0.75" d="M94.483,102.707c0,0-11.166-1.832-12.083-1.916s-1-0.5-1-0.5"/>
	<path fill="none" stroke="#000000" stroke-width="0.75" d="M95.15,99.707c-0.083,0.25-1.583,5.917-1.583,5.917
		s-5.334,0.583-7.167,1.25s-4.001,2.333-4.917,3.75s-2.083,4.083-2.083,4.083l1.75,0.167l-0.417,0.917c0,0,5.166,0.166,7.75-0.167
		s6.25-0.749,7.917-1.333s2.834-1.166,4.167-3s4.334-6.584,6-9.834s3.25-6.749,3.75-9.166s0.5-3.917,0.5-3.917"/>
	<path fill="none" stroke="#000000" stroke-width="0.75" d="M78.567,100.874l-1.917,5.917c0,0-3.083-0.416-4.583,0
		s-3.75,2.666-4.917,3.916s-1.917,2.75-1.917,2.75l1.584,0.25l-0.5,0.834l3.916-0.084l-0.166,0.667c0,0,7.333-0.166,8.583-1.083
		s1.25-0.917,1.25-0.917"/>
	<line fill="none" stroke="#000000" stroke-width="0.75" x1="88.4" y1="101.791" x2="85.983" y2="107.041"/>
	<path fill="none" stroke="#000000" stroke-width="0.75" d="M126.234,103.957c0,0-4.001,3.751-4.667,5.084s-0.666,2.25-0.666,2.25
		l1.416,0.25l-0.25,0.583l7.25-0.25l0.667,0.333l7.667,0.084"/>
	<path fill="none" stroke="#000000" stroke-width="0.75" d="M160.067,92.624c0,0,2.917,2.167,3.917,4.167s0.916,3.667,0.833,4.417
		s-1.332,2.333-1.666,2.833s-1.417,1.167-1.417,1.167"/>
	<line fill="none" stroke="#000000" stroke-width="0.75" x1="131.818" y1="25.499" x2="133.026" y2="25.166"/>
	<path fill="none" stroke="#000000" stroke-width="0.75" d="M144.587,60.416c0,0-4.125,0.875-7.875,2.813s-9,6.688-11.125,10.25
		s-2.813,7.438-3,10.75s2.063,10.375,5.188,13.063s8,5,10.813,4.813"/>
	<path d="M144.379,60.063c0,0,3.73-0.376,7.001,0.271s3.521,0.793,4.375,1.146s0.958,0.375,0.958,0.375s-9.354-1.563-12.25-1.063"/>
	<path fill="none" stroke="#000000" stroke-width="0.75" d="M179.734,64.874c0,0,17.75-1.001,25.75,1.083s15.917,5.834,19.25,11.834
		s3.333,15.584,2,18.417s-5.167,6.583-10.75,9.083s-13.249,4.251-18.666,4.667s-13.334,1.166-21.084,1.416s-13.917,0.667-22.5,3
		s-16.75,5.167-25.083,9.75s-8.333,4.583-8.333,4.583s8.25-11.417,15.583-15.583s16.999-7.417,29.916-8.25
		s31.335-1.749,37.251-2.916s13.416-3.418,15.583-7.584s0.416-10.166-1.334-13.083s-5.584-7.333-14.5-8.833s-23.084-0.5-25,0.25"/>
	<line fill="none" stroke="#000000" stroke-width="0.75" x1="177.401" y1="73.041" x2="179.734" y2="72.291"/>
	<path fill="none" stroke="#000000" stroke-width="0.75" d="M109.901,103.958c0,0-2.167,2-2.417,2.583s-0.416,1.083,0.417,1.25
		s2.25,0,2.25,0l-0.083,0.917c0,0,2.667,0.249,4-0.084s1.75-0.166,1.75-0.166s3.75,0.166,4.833-0.084s1.583-0.083,1.583-0.083"/>
	<path fill="none" stroke="#000000" stroke-width="0.75" d="M110.151,107.791c0,0,1.665-2.918,2.332-3.209s0.958-0.25,0.958-0.25"/>
	<path fill="none" stroke="#000000" stroke-width="0.75" d="M115.566,108.207c0,0,0.75-1.5,1.542-2.125s2.167-1.541,2.167-1.541"/>
	<path d="M66.608,113.791c0,0,0.166-0.751,1.958-2.542s1.959-1.791,1.959-1.791s-3.291,4.374-3.625,4.916"/>
	<path d="M69.858,114.458c0,0,1.75-2.709,2.875-3.834s1.583-1.208,1.583-1.208s-4.123,5.333-4.249,5.708"/>
	<path d="M81.316,114.833c0.042-0.125,2.916-3.876,3.625-4.334s0.709-0.458,0.709-0.458l-4.334,6"/>
	<path d="M85.608,115.583c0.042-0.125-0.001-1.168,1.458-2.959s3.625-3.25,3.625-3.25s-2.624,3.125-3.166,4.042
		s-1.042,2.458-1.042,2.458"/>
	<path d="M122.317,111.541c0,0,2.167-2.667,3.75-4.125s3.833-2.667,3.833-2.667s-7.001,7.042-7.167,7.292s-0.166,0.25-0.166,0.25"/>
	<path d="M129.15,111.708c0,0,1.124-2.041,3.333-3.75s5-3,5-3s-7.625,6.375-7.75,7.333L129.15,111.708z"/>
	<path d="M13.483,65.791c0,0-3.833,0.083-6.083,1.333s-3.083,2.416-3.417,3.083s-0.167,1.917,1.083,2.917s2.667,2.416,4.917,2.833
		s2.75,0.75,2.75,0.75s3.667-1.229,4.417-1.916s1.75-3,1.75-3l-0.125-1.313l-0.542-1.854l-2.75-2l-1.583-0.75"/>
</g>
<g id="frame_2">
	<path fill="#956E28" d="M68.984,99.209c0,0-4.75,2.563-4.938,2.625s-3.125,1.375-3.125,1.375l-1.313-0.313l-0.625-0.188
		l-1.125,1.375l0.188,1.625l1.813,1.313l0.188,0.625l2.313,0.063l1.688-0.438l1.125-0.75l1.188-1.625l2.125-1.5l2.938-1.563
		l2.375-1.188l1.438-0.75l-0.375-1.25l-4.5-1.313"/>
	<path fill="#D69E3A" d="M134.712,32.147c-0.25-2-3.667-9.5-3.667-9.5s-6.249-7.833-8.416-8.167c-2.167-0.333-4.916-0.166-5.333,0
		c-0.417,0.167-5,4.25-5,4.25l-8,8.417L94.212,40.23c0,0-9.999-4.832-11.666-5.249s-7.833-1.5-7.833-1.5s-9.417,2.583-10.334,2.916
		s-8.25,3.916-8.75,4.416s-4,2.75-4,2.75l-0.917,0.5L34.962,59.48c0,0-3.667,5.749-3.917,5.833s-2.417,0.251-2.417,0.251
		s-9.083-1.5-11-1.167s-4.75,0.667-4.75,0.667s1.417,3.416,1.667,3.666s1.667,3.25,1.667,3.25l-4.583,2.584l-1,1.166l-4.167-0.833
		H5.129l0.917,1.417c0,0,2,1.416,2.583,1.833s8.083,3.751,9.5,4.417s16.167,4.833,17.917,5.083c0.815,0.116,1.586,0.595,2.186,1.072
		c0.128-0.02,0.253-0.024,0.379-0.036c0-0.005-0.001-0.01-0.002-0.015c0.036,0.001,0.073,0.003,0.109,0.004
		c0.55-0.042,1.086-0.012,1.612,0.077c0.82,0.052,1.633,0.146,2.441,0.262c0.238-0.301,0.599-0.512,1.088-0.53
		c1.164-0.044,2.351,0.062,3.482-0.26c1.621-0.459,2.415,1.703,1.323,2.576c0.169,0.199,0.259,0.43,0.267,0.673
		c0.834,0.289,1.748,0.611,2.603,1.008c0.08-0.371,0.333-0.769,0.681-0.935c0.494-0.235,1.024-0.338,1.562-0.339
		c0.077-0.034,0.151-0.074,0.229-0.104c1.042-0.4,2.172-0.54,3.242-0.42c2.271-0.68,4.752-0.12,5.597,2.668
		c0.182,0.599,0.256,1.213,0.243,1.817c0.859-0.114,1.723-0.208,2.583-0.311c0.413-0.05,0.744,0.083,0.984,0.314
		c0.346,0.142,0.6,0.417,0.766,0.737c0.084-0.035,0.171-0.063,0.254-0.1c1.467-0.643,2.765,1.091,2.063,2.097
		c8.029-1.655,18.225-4.008,18.225-4.008s8.916-10.917,8.833-11.167s0.667-12.667,0.667-12.667s1.583-7.332,1.583-7.666
		s-0.75-4.584-0.75-4.584l29.084-7.083c0,0,6.083-6.166,7-8.333S134.962,34.147,134.712,32.147z"/>
	<path fill="#D69E3A" d="M85.214,99.73c0.25,0,5.833,1.167,5.833,1.167l4.583-0.417l0.917,0.417l-2.333,4.833
		c0,0-6.083,0.583-6.5,0.75s-3.834,2.25-3.834,2.25l-2.583,4.25c0,0-0.833,1.416-0.583,1.25s1.416,0.334,1.416,0.334
		s-0.166,0.834,0.084,0.75s5.083,0.25,5.083,0.25l7.417-3.167c0,0,5.082-3.584,5.666-4.167s5-6.333,5.25-6.833
		s2.25-5.167,2.25-5.167s3.584,0.75,3.834,0.75s8.499-0.333,8.499-0.333s7.334-1.666,7.584-1.833s10.249-3.167,10.249-3.167
		s9.417-4.166,9.667-4.25s9.75-8.833,9.75-8.833l5.25-11.334c0,0,4-14.75,3.75-14.75s0.583-9.916,0.333-10.333
		s-1.916-9.667-2.166-9.917s-4.167-4.083-4.417-4.083s-8.834-2.75-9.667-2.917s-8.416-0.917-8.416-0.917l-6.917,0.584l-2.5,0.5
		l2,14.167l-1.5,4.333l-0.917,2.167l-2.166,1.916l-3.834,3.5l-4.25,1.584l-5.75,1.916l-6.666,1.584l-2.834,0.75l2.417,12.333
		l-0.166,4.666l-1.5,6.084l-4.584,8.25l-4.75,4.583l-6.083,4.334l-5.167,0.75l-1.5,1L85.214,99.73z"/>
	<path fill="#D69E3A" d="M132.297,103.313l-7.917,7.834l2.917,0.333l3.416,0.083l1.084,0.417h6.083c0,0,4.583-2.001,4.833-2.167
		s4.25-1.5,4.25-1.5s4.416-2.166,4.75-2.416s3.084-3.334,3.084-3.334l1.583-2.583l0.833-1.833l2.334-2.25c0,0-0.666-2.584-1-2.667
		s-7.5,1.418-8.5,1.584s-8.167,3-8.917,3.333s-6.916,3.166-7.083,3.333s-3.167,2.584-3.167,2.584l-0.25,0.416"/>
	<path fill="#D69E3A" d="M132.254,103.896c-0.5,0-8.125,3.125-8.125,3.125l-1.25,1.375l-0.5,2l0.75,0.625l1.251,0.126l6.249-3.501
		l1.75-2.875"/>
	<path fill="#956E28" d="M70.13,34.397c-0.25,0-4.833-12.917-5.25-14.5S62.629,9.481,62.713,8.481s1.417-4.167,1.917-4.75
		s2.334-1.917,2.334-1.917l4.916-1.083l8.084-0.25l1.75,0.417l7.916,3.167l3.75,2.833l3.334,3.833l1.416,3.25l0.417,5.5l-0.25,4.584
		l-0.583,2.666l-1.417,3.917l-1.5,3.917l-2.084,4.833l1.334,0.583l-3.584,4.75c0,0-0.332-0.833-1.416-2.833
		s-4.084-6.083-4.334-6.083s-3.416-1.25-3.416-1.25L76.88,33.73l-4.25,0.084L70.13,34.397z"/>
	<path fill="#956E28" d="M108.735,64.73l-1-6.417l-0.833-1l-10.667,0.834c0,0,0.749,7.834,0.666,10.25s-1.165,10.832-2.249,13.416
		s-3.001,5.251-5.501,7.334s-3.5,2.75-5.75,4s-7.832,3.499-9.916,3.666s-6.751,0.916-9.334,1c-0.229,0.008-0.497,0.013-0.78,0.016
		c-0.099,0.327-0.283,0.632-0.578,0.843c-0.432,0.31-0.908,0.552-1.406,0.747c-0.058,0.072-0.122,0.138-0.183,0.208l0.531,0.104
		l7.416,1l9.417-0.167c0,0,4.75,0,5-0.083s6.167-1.667,6.167-1.667l9-5.416l6.666-7.417l2.834-6.916l1.5-6.417L108.735,64.73z"/>
	<path fill="#956E28" d="M63.464,81.647c0,0,2.25,1.084,3,1.667s1.582,1.082,1.666,1.916s-0.084,1.5-0.5,1.917
		s-0.834,1.333-1.75,1.5s-1.666,0.5-1.666,0.5s2.666,0.083,3.833-0.5s2.75-1.833,2.75-2.75s-0.083-2.167-1.833-2.667
		S63.464,81.647,63.464,81.647z"/>
	<path fill="#956E28" d="M79.38,100.647l-1.666,6c0,0-4.668,0-5.084,0.083s-3.583,2.833-3.583,2.833l-2.167,2.5l-0.666,1.167l1,0.25
		l0.083,0.917h3.917l-0.5,0.666c0,0,5.5-0.583,6.083-0.583s2.583-0.5,2.583-0.5l1.75-1.5l1-1.5l1.584-1.667l1.166-1.083l1.5-1
		l0.834-0.583l2.5-5.167c0,0-7.5-0.749-8-0.833s-2.584-0.5-2.584-0.5"/>
	<path fill="#956E28" d="M87.297,115.564l0.333-1.084c0,0,2.084,0.001,3.584-0.916s6.165-4.584,8.249-7.167s4.083-5.167,5.667-8
		s1.334-2.5,2.667-5.25s1.5-2.751,2.25-5.167s0.917-1.916,1-3.166s0.999,4.499-0.167,8.166s-5.333,12.167-5.333,12.167l-3.917,5.833
		l-1.833,1.917l-2.25,1l-2.334,0.833l-3.416,0.667L87.297,115.564z"/>
	<path fill="#956E28" d="M106.63,103.647l4,0.5l-2.417,2.583v0.917l2.917,0.166l-0.167,0.834l3.417,0.166l2.083-0.416h1.833
		l2.167-0.25l2.083-0.084l1-0.166l3.167-3.5l10.25-2.167h1.167l7.416-1.583l5-1.667l3.334-2.333l3.333-1.667
		c0,0-0.833,2.417-2.5,4.417s-4.25,4.667-4.25,4.667l-1.917,1.916l-2.75,1.917l-2.583,1.667l-1.5,1c0,0,8.334-3.084,10.917-3.834
		s9.75-1.583,9.75-1.583s2-2.084,2.5-2.667s1.25-2.166,1.25-2.166l-0.334-2l-0.583-1.667l-1.167-1.583l-1.166-0.834l-1.25-1.416
		l-0.334-0.25c0,0,6.416-5.083,8-6.75s3.917-4.501,5.167-6.334s3.917-7.666,4.917-10.333s1.833-9.083,2-10.583s-1-9.334-1.75-10.917
		s-3.751-6.501-4.334-7.167s-2.667-2.916-3.25-3.333s-4.167-3.584-4.5-3.917s-3.082-2.333-3.666-2.583s-2-1.417-2.667-1.667
		s-1.917-0.75-1.917-0.75s2.917,6.084,3.167,9.167s0.5,4.75,0.417,7.75s-0.25,6.417-0.917,9.75s-0.417,4.667-1.167,7.75
		s-2.666,8.334-4.166,10.25s-2.416,4.001-5.833,6.917s-7.417,4.249-10.417,6.166s-8.416,4.084-10.75,4.917s-6.167,3.001-8.417,3.417
		s-4.084,0.75-5.917,1s-2.834,0.667-4,0.75s-1.5,0-1.5,0l-3.5,7.499"/>
	<path fill="#956E28" d="M84.254,99.771c0,0,8.5,0.125,10-0.125s1.5-0.25,1.5-0.25l-0.375,3.125c0,0-11.748-1.957-11.999-2.041
		S84.254,99.771,84.254,99.771z"/>
	<path fill="#956E28" d="M141.879,101.521c0,0-17.125,5.625-17.875,6.125s0.5-1.5,0.5-1.5l2.209-1.749l16.041-3.626"/>
	<path fill="#FF5AAD" d="M106.63,33.731L89.547,57.897l8,0.166l13.333-1.5c0,0,1.167,0.584,2.667-2.166s4.332-8.417,4.166-8.667
		s0.251-4.249,0.084-4.583s-1.918-3.834-2.084-4.084s-2.25-2.25-2.583-2.5s-5.417-1.25-5.417-1.25L106.63,33.731z"/>
	<path fill="#C181B9" d="M180.629,64.729c0,0-0.834,3.251-0.917,3.667s-0.916,3.166-0.916,3.166l-0.667,1.25
		c0,0,6.583-0.999,8.5-1.166s10.749-0.251,12.166-0.084s4.918,0.417,5.834,0.667s4.083,1.167,4.083,1.167l2.833,1.25l2.75,1.666
		l3.584,4l1.75,3.584c0,0,1.083,5,1.083,5.25s-0.167,3-0.167,3l-0.75,2.417l-2,1.416l-3.583,2.584l-5,1.833l-7,1.75l-8.416,0.667
		l-10.584,0.833l-10.083,0.416c0,0-11.083,0.834-11.333,0.917s-9.084,1.75-9.084,1.75l-7.333,2.083l-6.417,2.75
		c0,0-3.417,2.333-3.667,2.5s-5,4.334-5,4.334l-2.25,2.25l-6.833,7.833c0,0,11-6.082,13.5-7.166s9.667-3.75,9.667-3.75l6.416-2.25
		l6-1.75l7.084-1.167l5.75-0.917l5.666-0.083l9.501-0.583l7.999-0.417l8.5-1l5.75-1.25l5.917-1.417l5.083-2.25
		c0,0,2.833-1.334,3.75-1.917s3.667-3.416,3.667-3.416l2.417-3.417l0.833-3.333l-0.416-7.5l-1.167-4.833l-1.583-3.417
		c0,0-4.667-4.583-5.667-5.25s-9.417-5-9.667-5s-6.166-1.417-6.166-1.417l-9.917-0.417l-9.167-0.083l-4.5-0.083"/>
	<path fill="#B23F79" d="M106.963,33.314c0,0,7.584-8.584,9.084-9.667s3.334-2.667,4.75-2.5s4.167,2.25,6.25,4.5
		s2.749,3.834,3.916,6.584s1.749,4.999,1.583,7.666s-0.332,3.834-0.916,5.167s-1.084,1.917-1.834,2.917s-1,1.5-1,1.5l-2.166,1.666
		l-3,1.5l-2.25,1.083l-3.667,1.083l-3.167,1.084l-4.583,0.5c0,0-0.666,1.166,1.667-1.584s3.666-5.082,4.166-7.416s0.5-4.416,0-6.25
		s-1.833-4.584-3.583-5.417s-6.333-1.417-6.333-1.417L106.963,33.314z"/>
	
		<ellipse transform="matrix(-0.9945 -0.105 0.105 -0.9945 127.4522 127.9545)" fill="#FFFFFF" cx="67.095" cy="60.621" rx="15.703" ry="13.679"/>
	
		<ellipse transform="matrix(-0.9865 -0.1637 0.1637 -0.9865 81.5984 113.4771)" fill="#FFFFFF" cx="45.473" cy="53.377" rx="12.666" ry="10.501"/>
	<path fill="#FFFFFF" d="M14.379,66.229l-1.667-1.167l-4.167-0.5l-3.417,0.584l-1.25,0.75l-1.333,1.083l-0.75,0.917l-0.333,2.666
		v1.75l2.083,1.75l1.333,1.25l1.667,0.167l2.75,0.333h2.75c0,0-0.5-2.666-0.583-2.916s1.5-2.834,1.667-3.167s1.25-2.5,1.25-2.5
		V66.229z"/>
	<ellipse fill="#0090FB" cx="57.65" cy="59.96" rx="5.896" ry="5.229"/>
	<ellipse fill="#0090FB" cx="37.692" cy="52.855" rx="4.854" ry="4.292"/>
	<ellipse fill="#003D5F" cx="37.609" cy="52.855" rx="2.021" ry="1.917"/>
	<ellipse fill="#003D5F" cx="57.525" cy="59.772" rx="2.354" ry="2.25"/>
	<ellipse fill="#FFFFFF" cx="39.921" cy="50.689" rx="1.125" ry="0.958"/>
	<ellipse fill="#FFFFFF" cx="60.483" cy="57.439" rx="1.229" ry="1.083"/>
	<ellipse fill="#FFFFFF" cx="55.067" cy="62.314" rx="1.104" ry="0.958"/>
	<circle fill="#FFFFFF" cx="35.025" cy="54.752" r="0.813"/>
	<path d="M100.379,30.959c-0.188,0.125-14.375,20-14.375,20l15.125-19.313L100.379,30.959z"/>
	<path d="M57.192,86.584c0,0,1.75-2,2.938-2.188s3.688,0.25,3.688,0.25s-2.188,0.125-2.875,0.375s-1-0.063-1.688,0.625
		s-1,1.063-1,1.063L57.192,86.584z"/>
	
		<ellipse transform="matrix(-0.9935 -0.1136 0.1136 -0.9935 127.0206 128.8465)" fill="none" stroke="#000000" stroke-width="0.75" cx="67.18" cy="60.805" rx="15.775" ry="13.488"/>
	<path fill="none" stroke="#000000" stroke-width="0.75" d="M51.497,60.004c-0.078-1.619,0.271-3.195,1.205-4.679
		c0.195-0.595,0.527-1.107,0.941-1.563c0.822-1.367,1.925-2.778,3.309-3.546c-1.618-3.963-5.976-6.928-11.245-7.172
		c-6.851-0.318-12.621,4.072-12.887,9.807c-0.267,5.736,5.071,10.643,11.922,10.961c2.522,0.117,4.895-0.407,6.904-1.399
		C51.457,61.646,51.41,60.815,51.497,60.004z"/>
	<path fill="none" stroke="#000000" stroke-width="0.75" d="M34.942,59.334c0,0-3.5,5.313-4,5.75s-1.125,0.5-1.125,0.5
		s-6.063-0.938-8.813-0.875s-8.063,0.313-8.063,0.313"/>
	<path fill="none" stroke="#000000" stroke-width="0.75" d="M4.817,65.396c0,0-2,1.25-2.75,2.25s-0.75,3.5-0.688,4.063
		s1.188,1.625,2.063,2.375s2,1.5,3.875,1.688s5.188,0.688,6.875,0.375s3.938-1.063,4.688-2.188s1.25-2.438,0.875-3.625
		s-1.563-3.125-4.188-4.125S10.004,63.646,4.817,65.396z"/>
	<path fill="none" stroke="#000000" stroke-width="0.75" d="M5.317,75.459c0,0,1.75,1.875,3.25,2.688s8.938,4.688,15.063,6.25
		s15.438,4.313,20.438,4.688s7.938,0.25,9.563-0.438s3.813-2,4.625-2.625"/>
	<path fill="none" stroke="#000000" stroke-width="0.75" d="M74.249,100.803c10.133,0.938,20.526-2.852,27.44-10.37
		c8.956-9.737,8.386-21.191,5.19-33.224"/>
	<path fill="none" stroke="#000000" stroke-width="0.75" d="M100.004,32.334c0,0,5.813-6.875,8.938-10.375s7.563-7.438,9.875-7.813
		s3.813-0.188,7.063,2.875s7,7.438,7.875,11s0.938,5.875,1,9.188s-0.375,5.25-1.625,7.563s-4.332,4.792-5.749,5.959
		s-7.334,3.834-12.584,4.917s-8.479,1.749-10.229,1.999"/>
	<path d="M104.901,57.251c0,0-5.416,0.396-7.083,0.542s-1.604,0.229-1.604,0.229s7.313,0.375,9.542-0.25"/>
	<path fill="none" stroke="#000000" stroke-width="0.75" d="M51.296,43.979c0,0,8.751-6.083,11.417-7s7.999-3.584,13.416-3.167
		s12.917,3.583,15,4.667s2.833,1.667,2.833,1.667"/>
	<path fill="none" stroke="#000000" stroke-width="0.75" d="M70.046,34.396c0,0-3.583-10-4.75-13.417s-2.75-10.917-2.25-13.417
		s2.001-4.833,4.417-5.75s10.167-1.583,13.75-0.917s8.584,2.583,11.5,5.167s5.417,5.083,5.75,8.334
		c0.333,3.25,0.167,9.999-1.417,14.416s-4.417,10.334-4.417,10.334"/>
	<path fill="none" stroke="#000000" stroke-width="0.75" d="M133.212,25.146c0,0,6.749-1.333,12.833-0.5s11.001,2,15.834,4.75
		s12.499,9,15.083,13.25s5,10.749,4,19.083s-4.334,15.749-7.75,19.583s-7.833,8.75-12.833,11.667s-5.168,3.25-10.334,5.667
		s-8.082,3-13.666,4s-11.167,1.666-16.917,1.666s-9.083-0.417-10.833-0.5s-2.333-0.166-2.333-0.166"/>
	<path fill="none" stroke="#000000" stroke-width="0.75" d="M95.462,102.563c0,0-11.166-1.832-12.083-1.916s-1-0.5-1-0.5"/>
	<path fill="none" stroke="#000000" stroke-width="0.75" d="M96.129,99.563c-0.083,0.25-1.583,5.917-1.583,5.917
		s-5.334,0.583-7.167,1.25s-4.001,2.333-4.917,3.75s-2.083,4.083-2.083,4.083l1.75,0.167l-0.417,0.917c0,0,5.166,0.166,7.75-0.167
		s6.25-0.749,7.917-1.333s2.834-1.166,4.167-3s4.334-6.584,6-9.834s3.25-6.749,3.75-9.166s0.5-3.917,0.5-3.917"/>
	<path fill="none" stroke="#000000" stroke-width="0.75" d="M79.546,100.729l-1.917,5.917c0,0-3.083-0.416-4.583,0
		s-3.75,2.666-4.917,3.916s-1.917,2.75-1.917,2.75l1.584,0.25l-0.5,0.834l3.916-0.084l-0.166,0.667c0,0,7.333-0.166,8.583-1.083
		s1.25-0.917,1.25-0.917"/>
	<line fill="none" stroke="#000000" stroke-width="0.75" x1="89.379" y1="101.646" x2="86.962" y2="106.896"/>
	<path fill="none" stroke="#000000" stroke-width="0.75" d="M127.213,103.813c0,0-4.001,3.751-4.667,5.084s-0.666,2.25-0.666,2.25
		l1.416,0.25l-0.25,0.583l7.25-0.25l0.667,0.333l7.667,0.084"/>
	<path fill="none" stroke="#000000" stroke-width="0.75" d="M161.046,92.479c0,0,2.917,2.167,3.917,4.167s0.916,3.667,0.833,4.417
		s-1.332,2.333-1.666,2.833s-1.417,1.167-1.417,1.167"/>
	<line fill="none" stroke="#000000" stroke-width="0.75" x1="132.797" y1="25.354" x2="134.005" y2="25.021"/>
	<path fill="none" stroke="#000000" stroke-width="0.75" d="M145.567,60.271c0,0-4.125,0.875-7.875,2.813s-9,6.688-11.125,10.25
		s-2.813,7.438-3,10.75s2.063,10.375,5.188,13.063s8,5,10.813,4.813"/>
	<path d="M145.359,59.918c0,0,3.73-0.376,7.001,0.271s3.521,0.793,4.375,1.146s0.958,0.375,0.958,0.375s-9.354-1.563-12.25-1.063"/>
	<path fill="none" stroke="#000000" stroke-width="0.75" d="M180.713,64.729c0,0,17.75-1.001,25.75,1.083s15.917,5.834,19.25,11.834
		s3.333,15.584,2,18.417s-5.167,6.583-10.75,9.083s-13.249,4.251-18.666,4.667s-13.334,1.166-21.084,1.416s-13.917,0.667-22.5,3
		s-16.75,5.167-25.083,9.75s-8.333,4.583-8.333,4.583s8.25-11.417,15.583-15.583s16.999-7.417,29.916-8.25
		s31.335-1.749,37.251-2.916s13.416-3.418,15.583-7.584s0.416-10.166-1.334-13.083s-5.584-7.333-14.5-8.833s-23.084-0.5-25,0.25"/>
	<line fill="none" stroke="#000000" stroke-width="0.75" x1="178.38" y1="72.896" x2="180.713" y2="72.146"/>
	<path fill="none" stroke="#000000" stroke-width="0.75" d="M110.88,103.813c0,0-2.167,2-2.417,2.583s-0.416,1.083,0.417,1.25
		s2.25,0,2.25,0l-0.083,0.917c0,0,2.667,0.249,4-0.084s1.75-0.166,1.75-0.166s3.75,0.166,4.833-0.084s1.583-0.083,1.583-0.083"/>
	<path fill="none" stroke="#000000" stroke-width="0.75" d="M111.13,107.646c0,0,1.665-2.918,2.332-3.209s0.958-0.25,0.958-0.25"/>
	<path fill="none" stroke="#000000" stroke-width="0.75" d="M116.545,108.063c0,0,0.75-1.5,1.542-2.125s2.167-1.541,2.167-1.541"/>
	<path d="M67.587,113.646c0,0,0.166-0.751,1.958-2.542s1.959-1.791,1.959-1.791s-3.291,4.374-3.625,4.916"/>
	<path d="M70.837,114.313c0,0,1.75-2.709,2.875-3.834s1.583-1.208,1.583-1.208s-4.123,5.333-4.249,5.708"/>
	<path d="M82.295,114.688c0.042-0.125,2.916-3.876,3.625-4.334s0.709-0.458,0.709-0.458l-4.334,6"/>
	<path d="M86.587,115.438c0.042-0.125-0.001-1.168,1.458-2.959s3.625-3.25,3.625-3.25s-2.624,3.125-3.166,4.042
		s-1.042,2.458-1.042,2.458"/>
	<path d="M123.296,111.396c0,0,2.167-2.667,3.75-4.125s3.833-2.667,3.833-2.667s-7.001,7.042-7.167,7.292s-0.166,0.25-0.166,0.25"/>
	<path d="M130.129,111.563c0,0,1.124-2.041,3.333-3.75s5-3,5-3s-7.625,6.375-7.75,7.333L130.129,111.563z"/>
	<path d="M14.463,65.646c0,0-3.833,0.083-6.083,1.333s-3.083,2.416-3.417,3.083s-0.167,1.917,1.083,2.917s2.667,2.416,4.917,2.833
		s2.75,0.75,2.75,0.75s3.667-1.229,4.417-1.916s1.75-3,1.75-3l-0.125-1.313l-0.542-1.854l-2.75-2l-1.583-0.75"/>
	<path fill="#FFFFFF" d="M47.13,88.479l0.167,2.834c0,0,4,4.916,4.583,5.166s2.833,0.75,2.833,0.75l1.417-0.583l0.75-0.917
		l0.333-4.666l-0.25-3.25l-0.167-0.5l-0.917-1.084l-1.583-0.083l-1.75,0.333l-5.083,1.334"/>
	<polyline fill="#FFFFFF" points="56.88,86.146 57.054,85.38 57.296,84.313 53.38,85.896 56.13,87.563 56.88,86.979 	"/>
	<path fill="#FE0000" d="M74.921,84.521l-5.688,1.313c0,0-3.188,3.75-3.375,4s-1.25,4-1.375,4.5s0.188,5.625,0.125,5.813
		s0.625,1.25,0.625,1.25l0.563,0.188l0.75-0.125l2-1.375l1.5-1.063l2.125-0.875l1.875-1.313l1.25-1.875l0.313-2.563l0.313-2.688
		l-0.375-1.813l-0.25-1.688l-0.375-1.438"/>
	<path fill="none" stroke="#000000" stroke-width="0.75" d="M57.796,91.479c0,0,1.667,0.084,2.5,0.167s0.75,1.25,1.084,2.25
		s0.333,3.667,0.333,4.833s-1,2.084-2.167,2.917s-0.083,2.083,1.5,2.25s2.334-0.083,3.334-0.917s1.583-1.333,3.75-2.666
		s1.583-0.917,2.583-1.334s2.833-2,3.667-2.75s1.25-3.916,1.333-5.416s-0.25-4.5-0.917-6.417s-1.333-2.5-2.333-2.75
		s-5.75,0.167-7.75,0.333s-9.25,3.333-12,4.583s-9.917,2.167-9.917,2.167l4,0.917"/>
	<path fill="none" stroke="#000000" stroke-width="0.75" d="M54.88,85.813c0.833-0.083,2.25,1.75,2.25,1.75v8.416
		c0,0-0.75,0.917-1.333,1.084s-2.5-0.084-3.417-0.417s-1.25-1.083-2.333-2s-2.667-3.167-2.75-3.417s-0.167-3.083-0.167-3.083"/>
	<path fill="none" stroke="#000000" stroke-width="0.75" d="M58.796,102.063c0,0-1.583,2.25-1,3.25s1.583,2.166,3.25,2.5
		s2.916,0,4-0.75s-0.5-1.166,3.25-3.416s9.917-4.334,9.917-4.334"/>
	<path d="M57.213,91.396c0,0,2.75,0.416,3.166,0.833c0.417,0.417,1.25,2.167,1.167,4.167s-0.333,3.084-0.583,3.667
		s-2.417,2.166-1.667,2.916s3.084,1.333,4.417,0.5s2.75-2.083,2.75-2.083s-0.999-3.417-0.833-6s1.666-5.833,2.416-6.75
		s3.417-2.499,4.167-2.833s2.583-0.417,2.583-0.417l0.584,0.083c0,0-1.418-3.249-2.084-3.666s-8.499-0.417-9.166-0.167"/>
	<path d="M57.546,84.646c-2.167,0.917-5.75,2.083-5.75,2.083s0.882-0.105,1.751-0.179c0.229-0.435,0.781-0.694,1.249-0.694
		c0.709,0,1.346,0.416,1.713,1.005c0.14,0.225,0.188,0.465,0.199,0.706c0.142,0.169,0.26,0.34,0.338,0.496
		c0.333,0.667,0.25,3.75,0.5,3.75s2.667-3.25,2.667-3.25l4-6.25C64.213,82.313,59.713,83.729,57.546,84.646z"/>
	<path d="M51.005,87.438c-0.042,0.125-0.084,1.459,0.083,1.875s0.75,0.958,0.75,0.958s-0.125-0.958-0.125-1.5
		s0.417-1.792,0.417-1.792"/>
	<path fill="#FFFFFF" d="M53.463,56.564c0,0-1.083,0.25-1.25,0.833s0.084,3.917-0.083,4.25l28-5.667c0,0-3.084-4.334-5-5.25
		s-3.833-2.583-5.083-2.583s-8.333,0.916-9.667,1.583c-1.333,0.667-4.583,3.917-4.583,3.917l-2.083,1.5l-1,1.5"/>
	<path fill="#FFFFFF" d="M51.88,61.813c0,0,0-3.542,0.292-4.167s0.292,3.75,0.292,3.75L51.88,61.813z"/>
	<polygon fill="#FFFFFF" points="34.255,49.188 43.671,56.646 46.13,51.688 37.588,47.396 	"/>
</g>
<g id="frame_3">
	<path fill="#D69E3A" d="M134.212,31.896c-0.25-2-3.667-9.5-3.667-9.5s-6.249-7.833-8.416-8.167s-4.916-0.167-5.333,0
		s-5,4.25-5,4.25l-8,8.417L93.712,39.979c0,0-9.999-4.832-11.666-5.249s-7.833-1.5-7.833-1.5s-9.417,2.583-10.334,2.916
		s-8.25,3.916-8.75,4.416s-4,2.75-4,2.75l-0.917,0.5l-15.75,15.417c0,0-3.667,5.749-3.917,5.833s-2.417,0.251-2.417,0.251
		s-9.083-1.5-11-1.167s-4.75,0.667-4.75,0.667s1.417,3.416,1.667,3.666s1.667,3.25,1.667,3.25l-4.583,2.584l-1,1.166l-4.167-0.833
		H4.629l0.917,1.417c0,0,2,1.416,2.583,1.833s8.083,3.751,9.5,4.417s16.167,4.833,17.917,5.083s3.333,2.167,3.333,2.167
		s3.42,2.552,6.379,4.398c0.298-0.438,0.754-0.714,1.257-0.841c0.386-0.306,0.884-0.501,1.365-0.536
		c0.422-0.031,0.783,0.138,1.055,0.409c0.154-0.035,0.309-0.07,0.466-0.095c0.615-0.097,1.398-0.096,1.857,0.41
		c0.116,0.127,0.194,0.255,0.262,0.385c0.329,0.256,0.546,0.635,0.546,1.118c0,0.069-0.011,0.138-0.022,0.207
		c0.828,0.662,2.528,0.997,3.26,1.217c2.002,0.601,4.002,1.209,5.959,1.943c0.311,0.018,0.627,0.141,0.912,0.422
		c0.027,0.028,0.056,0.056,0.084,0.083c0.083,0.082,0.147,0.174,0.204,0.269c7.002-1.153,25-5.307,25-5.307
		s8.916-10.917,8.833-11.167s0.667-12.667,0.667-12.667s1.583-7.332,1.583-7.666s-0.75-4.584-0.75-4.584l29.084-7.083
		c0,0,6.083-6.166,7-8.333S134.462,33.896,134.212,31.896z"/>
	<path fill="#D69E3A" d="M84.714,99.479c0.25,0,5.833,1.167,5.833,1.167l4.583-0.417l0.917,0.417l-2.333,4.833
		c0,0-6.083,0.583-6.5,0.75s-3.834,2.25-3.834,2.25l-2.583,4.25c0,0-0.833,1.416-0.583,1.25s1.416,0.334,1.416,0.334
		s-0.166,0.834,0.084,0.75s5.083,0.25,5.083,0.25l7.417-3.167c0,0,5.082-3.584,5.666-4.167s5-6.333,5.25-6.833
		s2.25-5.167,2.25-5.167s3.584,0.75,3.834,0.75s8.499-0.333,8.499-0.333s7.334-1.666,7.584-1.833s10.249-3.167,10.249-3.167
		s9.417-4.166,9.667-4.25s9.75-8.833,9.75-8.833l5.25-11.334c0,0,4-14.75,3.75-14.75s0.583-9.916,0.333-10.333
		s-1.916-9.667-2.166-9.917s-4.167-4.083-4.417-4.083s-8.834-2.75-9.667-2.917s-8.416-0.917-8.416-0.917l-6.917,0.584l-2.5,0.5
		l2,14.167l-1.5,4.333l-0.917,2.167l-2.166,1.916l-3.834,3.5l-4.25,1.584l-5.75,1.916l-6.666,1.584l-2.834,0.75l2.417,12.333
		l-0.166,4.666l-1.5,6.084l-4.584,8.25l-4.75,4.583l-6.083,4.334l-5.167,0.75l-1.5,1L84.714,99.479z"/>
	<path fill="#D69E3A" d="M131.797,103.063l-7.917,7.834l2.917,0.333l3.416,0.083l1.084,0.417h6.083c0,0,4.583-2.001,4.833-2.167
		s4.25-1.5,4.25-1.5s4.416-2.166,4.75-2.416s3.084-3.334,3.084-3.334l1.583-2.583l0.833-1.833l2.334-2.25c0,0-0.666-2.584-1-2.667
		s-7.5,1.418-8.5,1.584s-8.167,3-8.917,3.333s-6.916,3.166-7.083,3.333s-3.167,2.584-3.167,2.584l-0.25,0.416"/>
	<path fill="#D69E3A" d="M131.754,103.646c-0.5,0-8.125,3.125-8.125,3.125l-1.25,1.375l-0.5,2l0.75,0.625l1.251,0.126l6.249-3.501
		l1.75-2.875"/>
	<path fill="#956E28" d="M69.63,34.146c-0.25,0-4.833-12.917-5.25-14.5S62.129,9.23,62.213,8.23s1.417-4.167,1.917-4.75
		s2.334-1.917,2.334-1.917L71.38,0.48l8.084-0.25l1.75,0.417l7.916,3.167l3.75,2.833l3.334,3.833l1.416,3.25l0.417,5.5l-0.25,4.584
		l-0.583,2.666l-1.417,3.917l-1.5,3.917l-2.084,4.833l1.334,0.583l-3.584,4.75c0,0-0.332-0.833-1.416-2.833
		s-4.084-6.083-4.334-6.083s-3.416-1.25-3.416-1.25l-4.417-0.834l-4.25,0.084L69.63,34.146z"/>
	<path fill="#956E28" d="M108.047,64.479l-1-6.417l-0.833-1l-10.667,0.834c0,0,0.749,7.834,0.666,10.25s-1.165,10.832-2.249,13.416
		s-3.001,5.251-5.501,7.334s-3.5,2.75-5.75,4s-7.832,3.499-9.916,3.666s-6.751,0.916-9.334,1c-0.244,0.008-0.53,0.013-0.834,0.017
		c0.02,0.008,0.04,0.01,0.06,0.018c0.04,0.016,0.073,0.037,0.11,0.055c1.313-0.007,2.64,0.064,3.923,0.196
		c0.037-0.004,0.078-0.006,0.115-0.01c1.505-0.147,3.134-0.006,4.566-0.533c0.689-0.253,1.222,0.018,1.521,0.479
		c0.11-0.01,0.22-0.025,0.33-0.032c1.548-0.103,1.828,1.834,0.861,2.628l3.765-0.067c0,0,4.75,0,5-0.083s6.167-1.667,6.167-1.667
		l9-5.416l6.666-7.417l2.834-6.916l1.5-6.417L108.047,64.479z"/>
	<path fill="#956E28" d="M62.964,81.396c0,0,2.25,1.084,3,1.667s1.582,1.082,1.666,1.916s-0.084,1.5-0.5,1.917
		s-0.834,1.333-1.75,1.5s-1.666,0.5-1.666,0.5s2.666,0.083,3.833-0.5s2.75-1.833,2.75-2.75s-0.083-2.167-1.833-2.667
		S62.964,81.396,62.964,81.396z"/>
	<path fill="#956E28" d="M78.88,100.396l-1.666,6c0,0-4.668,0-5.084,0.083s-3.583,2.833-3.583,2.833l-2.167,2.5l-0.666,1.167l1,0.25
		l0.083,0.917h3.917l-0.5,0.666c0,0,5.5-0.583,6.083-0.583s2.583-0.5,2.583-0.5l1.75-1.5l1-1.5l1.584-1.667l1.166-1.083l1.5-1
		l0.834-0.583l2.5-5.167c0,0-7.5-0.749-8-0.833s-2.584-0.5-2.584-0.5"/>
	<path fill="#956E28" d="M86.797,115.313l0.333-1.084c0,0,2.084,0.001,3.584-0.916s6.165-4.584,8.249-7.167s4.083-5.167,5.667-8
		s1.334-2.5,2.667-5.25s1.5-2.751,2.25-5.167s0.917-1.916,1-3.166s0.999,4.499-0.167,8.166s-5.333,12.167-5.333,12.167l-3.917,5.833
		l-1.833,1.917l-2.25,1l-2.334,0.833l-3.416,0.667L86.797,115.313z"/>
	<path fill="#956E28" d="M106.13,103.396l4,0.5l-2.417,2.583v0.917l2.917,0.166l-0.167,0.834l3.417,0.166l2.083-0.416h1.833
		l2.167-0.25l2.083-0.084l1-0.166l3.167-3.5l10.25-2.167h1.167l7.416-1.583l5-1.667l3.334-2.333l3.333-1.667
		c0,0-0.833,2.417-2.5,4.417s-4.25,4.667-4.25,4.667l-1.917,1.916l-2.75,1.917l-2.583,1.667l-1.5,1c0,0,8.334-3.084,10.917-3.834
		s9.75-1.583,9.75-1.583s2-2.084,2.5-2.667s1.25-2.166,1.25-2.166l-0.334-2l-0.583-1.667l-1.167-1.583l-1.166-0.834l-1.25-1.416
		l-0.334-0.25c0,0,6.416-5.083,8-6.75s3.917-4.501,5.167-6.334s3.917-7.666,4.917-10.333s1.833-9.083,2-10.583s-1-9.334-1.75-10.917
		s-3.751-6.501-4.334-7.167s-2.667-2.916-3.25-3.333s-4.167-3.584-4.5-3.917s-3.082-2.333-3.666-2.583s-2-1.417-2.667-1.667
		s-1.917-0.75-1.917-0.75s2.917,6.084,3.167,9.167s0.5,4.75,0.417,7.75s-0.25,6.417-0.917,9.75s-0.417,4.667-1.167,7.75
		s-2.666,8.334-4.166,10.25s-2.416,4.001-5.833,6.917s-7.417,4.249-10.417,6.166s-8.416,4.084-10.75,4.917s-6.167,3.001-8.417,3.417
		s-4.084,0.75-5.917,1s-2.834,0.667-4,0.75s-1.5,0-1.5,0l-3.5,7.499"/>
	<path fill="#956E28" d="M83.754,99.521c0,0,8.5,0.125,10-0.125s1.5-0.25,1.5-0.25l-0.375,3.125c0,0-11.748-1.957-11.999-2.041
		S83.754,99.521,83.754,99.521z"/>
	<path fill="#956E28" d="M141.379,101.271c0,0-17.125,5.625-17.875,6.125s0.5-1.5,0.5-1.5l2.209-1.749l16.041-3.626"/>
	<path fill="#FF5AAD" d="M106.13,33.48L89.047,57.646l8,0.166l13.333-1.5c0,0,1.167,0.584,2.667-2.166s4.332-8.417,4.166-8.667
		s0.251-4.249,0.084-4.583s-1.918-3.834-2.084-4.084s-2.25-2.25-2.583-2.5s-5.417-1.25-5.417-1.25L106.13,33.48z"/>
	<path fill="#C181B9" d="M180.129,64.479c0,0-0.834,3.251-0.917,3.667s-0.916,3.166-0.916,3.166l-0.667,1.25
		c0,0,6.583-0.999,8.5-1.166s10.749-0.251,12.166-0.084s4.918,0.417,5.834,0.667s4.083,1.167,4.083,1.167l2.833,1.25l2.75,1.666
		l3.584,4l1.75,3.584c0,0,1.083,5,1.083,5.25s-0.167,3-0.167,3l-0.75,2.417l-2,1.416l-3.583,2.584l-5,1.833l-7,1.75l-8.416,0.667
		l-10.584,0.833l-10.083,0.416c0,0-11.083,0.834-11.333,0.917s-9.084,1.75-9.084,1.75l-7.333,2.083l-6.417,2.75
		c0,0-3.417,2.333-3.667,2.5s-5,4.334-5,4.334l-2.25,2.25l-6.833,7.833c0,0,11-6.082,13.5-7.166s9.667-3.75,9.667-3.75l6.416-2.25
		l6-1.75l7.084-1.167l5.75-0.917l5.666-0.083l9.501-0.583l7.999-0.417l8.5-1l5.75-1.25l5.917-1.417l5.083-2.25
		c0,0,2.833-1.334,3.75-1.917s3.667-3.416,3.667-3.416l2.417-3.417l0.833-3.333l-0.416-7.5l-1.167-4.833l-1.583-3.417
		c0,0-4.667-4.583-5.667-5.25s-9.417-5-9.667-5s-6.166-1.417-6.166-1.417l-9.917-0.417l-9.167-0.083l-4.5-0.083"/>
	<path fill="#B23F79" d="M106.463,33.063c0,0,7.584-8.584,9.084-9.667s3.334-2.667,4.75-2.5s4.167,2.25,6.25,4.5
		s2.749,3.834,3.916,6.584s1.749,4.999,1.583,7.666s-0.332,3.834-0.916,5.167s-1.084,1.917-1.834,2.917s-1,1.5-1,1.5l-2.166,1.666
		l-3,1.5l-2.25,1.083l-3.667,1.083l-3.167,1.084l-4.583,0.5c0,0-0.666,1.166,1.667-1.584s3.666-5.082,4.166-7.416s0.5-4.416,0-6.25
		s-1.833-4.584-3.583-5.417s-6.333-1.417-6.333-1.417L106.463,33.063z"/>
	
		<ellipse transform="matrix(-0.9945 -0.105 0.105 -0.9945 126.4813 127.4014)" fill="#FFFFFF" cx="66.595" cy="60.37" rx="15.703" ry="13.679"/>
	
		<ellipse transform="matrix(-0.9865 -0.1637 0.1637 -0.9865 80.6462 112.8967)" fill="#FFFFFF" cx="44.973" cy="53.126" rx="12.666" ry="10.501"/>
	<path fill="#FFFFFF" d="M13.879,65.979l-1.667-1.167l-4.167-0.5l-3.417,0.584l-1.25,0.75l-1.333,1.083l-0.75,0.917l-0.333,2.666
		v1.75l2.083,1.75l1.333,1.25l1.667,0.167l2.75,0.333h2.75c0,0-0.5-2.666-0.583-2.916s1.5-2.834,1.667-3.167s1.25-2.5,1.25-2.5
		V65.979z"/>
	<ellipse fill="#0090FB" cx="57.15" cy="59.709" rx="5.896" ry="5.229"/>
	<ellipse fill="#0090FB" cx="37.192" cy="52.604" rx="4.854" ry="4.292"/>
	<ellipse fill="#003D5F" cx="37.109" cy="52.604" rx="2.021" ry="1.917"/>
	<ellipse fill="#003D5F" cx="57.025" cy="59.521" rx="2.354" ry="2.25"/>
	<ellipse fill="#FFFFFF" cx="39.421" cy="50.438" rx="1.125" ry="0.958"/>
	<ellipse fill="#FFFFFF" cx="59.983" cy="57.188" rx="1.229" ry="1.083"/>
	<ellipse fill="#FFFFFF" cx="54.567" cy="62.063" rx="1.104" ry="0.958"/>
	<circle fill="#FFFFFF" cx="34.525" cy="54.501" r="0.813"/>
	<path d="M99.879,30.708c-0.188,0.125-14.375,20-14.375,20l15.125-19.313L99.879,30.708z"/>
	<path d="M56.692,86.333c0,0,1.75-2,2.938-2.188s3.688,0.25,3.688,0.25s-2.188,0.125-2.875,0.375s-1-0.063-1.688,0.625
		s-1,1.063-1,1.063L56.692,86.333z"/>
	
		<ellipse transform="matrix(-0.9935 -0.1136 0.1136 -0.9935 126.0524 128.2894)" fill="none" stroke="#000000" stroke-width="0.75" cx="66.68" cy="60.554" rx="15.775" ry="13.488"/>
	<path fill="none" stroke="#000000" stroke-width="0.75" d="M50.997,59.753c-0.078-1.619,0.271-3.195,1.205-4.679
		c0.195-0.595,0.527-1.107,0.941-1.563c0.822-1.367,1.925-2.778,3.309-3.546c-1.618-3.963-5.976-6.928-11.245-7.172
		c-6.851-0.318-12.621,4.072-12.887,9.807c-0.267,5.736,5.071,10.643,11.922,10.961c2.522,0.117,4.895-0.407,6.904-1.399
		C50.957,61.395,50.91,60.564,50.997,59.753z"/>
	<path fill="none" stroke="#000000" stroke-width="0.75" d="M34.442,59.083c0,0-3.5,5.313-4,5.75s-1.125,0.5-1.125,0.5
		s-6.063-0.938-8.813-0.875s-8.063,0.313-8.063,0.313"/>
	<path fill="none" stroke="#000000" stroke-width="0.75" d="M4.317,65.146c0,0-2,1.25-2.75,2.25s-0.75,3.5-0.688,4.063
		s1.188,1.625,2.063,2.375s2,1.5,3.875,1.688s5.188,0.688,6.875,0.375s3.938-1.063,4.688-2.188s1.25-2.438,0.875-3.625
		s-1.563-3.125-4.188-4.125S9.504,63.396,4.317,65.146z"/>
	<path fill="none" stroke="#000000" stroke-width="0.75" d="M4.817,75.208c0,0,1.75,1.875,3.25,2.688s8.938,4.688,15.063,6.25
		s15.438,4.313,20.438,4.688s7.938,0.25,9.563-0.438s3.813-2,4.625-2.625"/>
	<path fill="none" stroke="#000000" stroke-width="0.75" d="M71.681,100.58c11.254,0.375,23.501-2.367,30.778-11.638
		c6.981-8.894,8.212-21.644,3.92-31.984"/>
	<path fill="none" stroke="#000000" stroke-width="0.75" d="M99.504,32.083c0,0,5.813-6.875,8.938-10.375s7.563-7.438,9.875-7.813
		s3.813-0.188,7.063,2.875s7,7.438,7.875,11s0.938,5.875,1,9.188s-0.375,5.25-1.625,7.563s-4.332,4.792-5.749,5.959
		s-7.334,3.834-12.584,4.917s-8.479,1.749-10.229,1.999"/>
	<path d="M104.401,57c0,0-5.416,0.396-7.083,0.542s-1.604,0.229-1.604,0.229s7.313,0.375,9.542-0.25"/>
	<path fill="none" stroke="#000000" stroke-width="0.75" d="M50.796,43.729c0,0,8.751-6.083,11.417-7s7.999-3.584,13.416-3.167
		s12.917,3.583,15,4.667s2.833,1.667,2.833,1.667"/>
	<path fill="none" stroke="#000000" stroke-width="0.75" d="M69.546,34.146c0,0-3.583-10-4.75-13.417s-2.75-10.917-2.25-13.417
		s2.001-4.833,4.417-5.75s10.167-1.583,13.75-0.917s8.584,2.583,11.5,5.167s5.417,5.083,5.75,8.333s0.167,10-1.417,14.417
		s-4.417,10.334-4.417,10.334"/>
	<path fill="none" stroke="#000000" stroke-width="0.75" d="M132.712,24.896c0,0,6.749-1.333,12.833-0.5s11.001,2,15.834,4.75
		s12.499,9,15.083,13.25s5,10.749,4,19.083s-4.334,15.749-7.75,19.583s-7.833,8.75-12.833,11.667s-5.168,3.25-10.334,5.667
		s-8.082,3-13.666,4s-11.167,1.666-16.917,1.666s-9.083-0.417-10.833-0.5s-2.333-0.166-2.333-0.166"/>
	<path fill="none" stroke="#000000" stroke-width="0.75" d="M94.962,102.312c0,0-11.166-1.832-12.083-1.916s-1-0.5-1-0.5"/>
	<path fill="none" stroke="#000000" stroke-width="0.75" d="M95.629,99.312c-0.083,0.25-1.583,5.917-1.583,5.917
		s-5.334,0.583-7.167,1.25s-4.001,2.333-4.917,3.75s-2.083,4.083-2.083,4.083l1.75,0.167l-0.417,0.917c0,0,5.166,0.166,7.75-0.167
		s6.25-0.749,7.917-1.333s2.834-1.166,4.167-3s4.334-6.584,6-9.834s3.25-6.749,3.75-9.166s0.5-3.917,0.5-3.917"/>
	<path fill="none" stroke="#000000" stroke-width="0.75" d="M79.046,100.479l-1.917,5.917c0,0-3.083-0.416-4.583,0
		s-3.75,2.666-4.917,3.916s-1.917,2.75-1.917,2.75l1.584,0.25l-0.5,0.834l3.916-0.084l-0.166,0.667c0,0,7.333-0.166,8.583-1.083
		s1.25-0.917,1.25-0.917"/>
	<line fill="none" stroke="#000000" stroke-width="0.75" x1="88.879" y1="101.396" x2="86.462" y2="106.646"/>
	<path fill="none" stroke="#000000" stroke-width="0.75" d="M126.713,103.562c0,0-4.001,3.751-4.667,5.084s-0.666,2.25-0.666,2.25
		l1.416,0.25l-0.25,0.583l7.25-0.25l0.667,0.333l7.667,0.084"/>
	<path fill="none" stroke="#000000" stroke-width="0.75" d="M160.546,92.229c0,0,2.917,2.167,3.917,4.167s0.916,3.667,0.833,4.417
		s-1.332,2.333-1.666,2.833s-1.417,1.167-1.417,1.167"/>
	<line fill="none" stroke="#000000" stroke-width="0.75" x1="132.297" y1="25.104" x2="133.505" y2="24.771"/>
	<path fill="none" stroke="#000000" stroke-width="0.75" d="M145.067,60.021c0,0-4.125,0.875-7.875,2.813s-9,6.688-11.125,10.25
		s-2.813,7.438-3,10.75s2.063,10.375,5.188,13.063s8,5,10.813,4.813"/>
	<path d="M144.859,59.667c0,0,3.73-0.376,7.001,0.271s3.521,0.793,4.375,1.146s0.958,0.375,0.958,0.375s-9.354-1.563-12.25-1.063"/>
	<path fill="none" stroke="#000000" stroke-width="0.75" d="M180.213,64.479c0,0,17.75-1.001,25.75,1.083s15.917,5.834,19.25,11.834
		s3.333,15.584,2,18.417s-5.167,6.583-10.75,9.083s-13.249,4.251-18.666,4.667s-13.334,1.166-21.084,1.416s-13.917,0.667-22.5,3
		s-16.75,5.167-25.083,9.75s-8.333,4.583-8.333,4.583s8.25-11.417,15.583-15.583s16.999-7.417,29.916-8.25
		s31.335-1.749,37.251-2.916s13.416-3.418,15.583-7.584s0.416-10.166-1.334-13.083s-5.584-7.333-14.5-8.833s-23.084-0.5-25,0.25"/>
	<line fill="none" stroke="#000000" stroke-width="0.75" x1="177.88" y1="72.646" x2="180.213" y2="71.896"/>
	<path fill="none" stroke="#000000" stroke-width="0.75" d="M110.38,103.563c0,0-2.167,2-2.417,2.583s-0.416,1.083,0.417,1.25
		s2.25,0,2.25,0l-0.083,0.917c0,0,2.667,0.249,4-0.084s1.75-0.166,1.75-0.166s3.75,0.166,4.833-0.084s1.583-0.083,1.583-0.083"/>
	<path fill="none" stroke="#000000" stroke-width="0.75" d="M110.63,107.396c0,0,1.665-2.918,2.332-3.209s0.958-0.25,0.958-0.25"/>
	<path fill="none" stroke="#000000" stroke-width="0.75" d="M116.045,107.812c0,0,0.75-1.5,1.542-2.125s2.167-1.541,2.167-1.541"/>
	<path d="M67.087,113.396c0,0,0.166-0.751,1.958-2.542s1.959-1.791,1.959-1.791s-3.291,4.374-3.625,4.916"/>
	<path d="M70.337,114.063c0,0,1.75-2.709,2.875-3.834s1.583-1.208,1.583-1.208s-4.123,5.333-4.249,5.708"/>
	<path d="M81.795,114.438c0.042-0.125,2.916-3.876,3.625-4.334s0.709-0.458,0.709-0.458l-4.334,6"/>
	<path d="M86.087,115.188c0.042-0.125-0.001-1.168,1.458-2.959s3.625-3.25,3.625-3.25s-2.624,3.125-3.166,4.042
		s-1.042,2.458-1.042,2.458"/>
	<path d="M122.796,111.146c0,0,2.167-2.667,3.75-4.125s3.833-2.667,3.833-2.667s-7.001,7.042-7.167,7.292s-0.166,0.25-0.166,0.25"/>
	<path d="M129.629,111.313c0,0,1.124-2.041,3.333-3.75s5-3,5-3s-7.625,6.375-7.75,7.333L129.629,111.313z"/>
	<path d="M13.963,65.396c0,0-3.833,0.083-6.083,1.333s-3.083,2.416-3.417,3.083s-0.167,1.917,1.083,2.917s2.667,2.416,4.917,2.833
		s2.75,0.75,2.75,0.75s3.667-1.229,4.417-1.916s1.75-3,1.75-3l-0.125-1.313l-0.542-1.854l-2.75-2l-1.583-0.75"/>
	<path fill="#FFFFFF" d="M52.629,55.333c0,0-2.625,4.813-0.688,7.563s6.313,3.438,6.313,3.438s3.625-2,3.938-2.25
		s2.438-4.375,2.375-4.563s-3.125-4.938-3.313-5.063s-2.125-1.313-2.563-1.438s-2.438,0.125-2.625,0.125s-3.188,2-3.188,2"/>
	<path fill="#FFFFFF" d="M33.608,49.354c0,0-0.542,0.854-0.688,1.813s0.104,3.813,0.104,3.813s0.875,1.396,1,1.521
		s4.5,1.459,4.771,1.5s2.563-0.688,3.146-1.188s0.938-2.73,0.875-3.021s-1.146-4.833-1.146-4.833s-0.896-0.771-0.958-0.792
		s-2.625-0.188-2.688-0.188s-3.104,0.646-3.104,0.646L33.65,49.25"/>
	<path fill="#FFFFFF" d="M33.025,51.021c-0.208,0.646-0.563,3.104-0.042,3.875S33.025,51.021,33.025,51.021z"/>
	<path fill="#FFFFFF" d="M34.025,50.854c0,0-0.688-0.082-0.875,0.146s-0.229,0.166-0.229,0.166s-0.438,2.063-0.042,3.063
		s1.313-1.021,1.313-1.021l0.271-1.792L34.025,50.854z"/>
	<line fill="none" stroke="#070707" stroke-width="0.75" x1="37.213" y1="44.562" x2="49.629" y2="62.937"/>
	<line fill="none" stroke="#070707" stroke-width="0.75" x1="51.963" y1="64.979" x2="74.504" y2="53.062"/>
	<path fill="#956E28" d="M93.921,81.989c0,0-4,5.667-6.833,7.875s-10.292,7.958-10.292,7.958l-2.75,2.334l2.958-0.042
		c0,0,7.209-3.541,7.334-3.583s11.25-10.334,11.208-10.584S93.921,81.989,93.921,81.989z"/>
	<path fill="#956E28" d="M103.379,86.604"/>
	<path fill="#956E28" d="M103.545,85.354l-5.208,6.125l-1.042,1.959c0,0,2.419-1.96,2.772-2.335s1.479-1.646,2.021-2.333
		s0.125-0.771,0.313-0.75s0.251,0.063,0.229,0.063"/>
	<path fill="#956E28" d="M102.546,87.854l-0.458,0.604l0.208,0.083c0,0,0.416-0.479,0.5-0.75s-0.125-0.438-0.125-0.438"/>
	<path fill="#D69E3A" d="M74.317,100.052"/>
	<path fill="#D69E3A" d="M73.098,100.271c0,0,3.094-1.25,4.656-2.688s4.531-3.813,5.781-4.844s4.094-3.844,4.906-4.875
		s-12.375,6.594-12.375,6.594s-4.094,2.063-4.125,2.156s-3.594,0.563-3.781,0.531s-2.656-1.063-2.75-1.063s-2.75,0.219-2.75,0.219
		h-1.531l-5.031-1.281l-3.344-1.125l-3.375-1.594c0,0-0.125-0.188-0.25-0.188s-1.656,0.125-1.656,0.125l-0.969,0.375
		c0,0-0.844,1.125-0.875,1.219s-0.656,0.969-0.656,0.969l-0.219,0.594c0,0,1,0.438,1.125,0.469s1.469,0.25,1.469,0.25
		s1.719-0.219,1.813-0.219s2.031-0.375,2.031-0.375l0.25,0.469c0,0,4.469,1.531,4.563,1.5s3.844,1.094,3.844,1.094l6,1.219
		c0,0,2.906,0.75,3.063,0.719s2.938,0.094,2.938,0.094s0.219-0.031,0.813-0.094s2.719-1,3.5-2.094"/>
	<path fill="#D69E3A" d="M71.254,95.739l-4.656,1.563c0,0,0.875,0.938,1.156,0.938s4.688-0.531,4.938-0.625s0.563-2.063,0.438-2.125
		"/>
	<path fill="#FCFAFA" d="M37.42,88.166l7.604,5.917c0,0,1.542-1.751,2-1.959s2.083-0.541,2.479-0.646s2.438-0.042,2.938,0
		s3.688,0.375,4.229,0.5s1.978,0.438,2.437,0.688s2.834,1.354,2.896,1.354s1.854,0.583,1.854,0.583s1.688,0.249,1.771,0.271
		s1.708,0,1.833,0s2.229-0.104,2.292-0.104s1.707-0.438,1.791-0.479s2.167-1.063,2.167-1.063s0.521-0.979,0.521-1.083
		s0.167-1.25,0.167-1.25l-0.229-2.084c0,0-1.25-1.709-1.438-1.813s-1.708-1.063-1.833-1.125s-1.417-2.541-1.417-2.541
		s-0.729-1.292-0.813-1.375s-0.938-0.75-0.938-0.75s-1.688-0.084-1.75-0.104s-5.979,1.604-5.979,1.604s-4.896,1.937-5,1.979
		s-3.063,1.063-3.063,1.063s-2.375,0.666-2.438,0.708s-2.833,1-2.833,1l-2.708,0.354l-3.708,0.188L37.4,88.083"/>
	<path fill="none" stroke="#020202" stroke-width="0.75" d="M36.879,87.896c0,0,8.375,0.375,12.875-1.375s9.75-3.875,12.625-4.625
		s5.125-1,8.625-0.25s3.5,2.25,4,5.625s0.5,4.75-1.125,6s-3.625,1.5-6.125,1.625s-5.125-0.125-6.5-1s-2.375-1.5-4.75-1.75
		s-4.875-0.625-6.25-0.625s-2.125,0.375-3,0.625s-2.25,2.25-2.25,2.25L36.879,87.896z"/>
	<path fill="none" stroke="#020202" stroke-width="0.75" d="M45.004,94.396c0,0-0.875,0.625-0.375,1.25s4,0.625,5.125,0.375
		s2.75-1.125,2.75-1.125"/>
	<path fill="none" stroke="#020202" stroke-width="0.75" d="M50.504,95.896c0,0,16.375,4.875,19.5,4.75s4.125,0,5.125-0.5"/>
	<path fill="none" stroke="#020202" stroke-width="0.75" d="M51.254,89.896l3.625-0.5l1.25-2.125l2.125,1.125l1.875,0.5l2.25-1.875
		c0,0,2,1,2.375,0.875s1.125,0.5,2.125,0.125s2.625-1.5,2.625-1.5s-0.125-2.625-0.5-3.375s-2-2-2-2"/>
	<path fill="none" stroke="#020202" stroke-width="0.75" d="M69.504,86.521c0,0,1.75,0,2.375,0.375s1.625,1.375,2,1.75
		s0.375,2.375,0.375,2.375l-0.375,2.25"/>
	<path fill="#020202" d="M68.004,81.541c0,0,1.125,1.374,1.188,1.521s0.187,0.584,0.271,1.104s0.313,2.146,0.313,2.146
		s0.917,0.126,1.479,0.209s1.104,0.667,1.479,0.875s1.125,0.958,1.125,0.958l0.313,0.458l0.292,0.854c0,0,0.104,0.959,0.083,1.042
		s-0.125,1.041-0.125,1.041l-0.083,0.646l0.729-0.667c0,0,0.124-1.208,0.104-1.271s-0.084-1.375-0.125-1.438
		s-0.229-1.417-0.229-1.417s-0.104-1.334-0.125-1.417s-0.313-1.688-0.313-1.688l-0.584-1.458l-0.479-0.5l-0.896-0.479L70.4,81.583
		L68.004,81.541z"/>
</g>
</svg>
