<?xml version="1.0" encoding="utf-8"?>
<!-- Generator: Adobe Illustrator 13.0.0, SVG Export Plug-In . SVG Version: 6.00 Build 14948)  -->
<!DOCTYPE svg PUBLIC "-//W3C//DTD SVG 1.1//EN" "http://www.w3.org/Graphics/SVG/1.1/DTD/svg11.dtd">
<svg version="1.1" xmlns="http://www.w3.org/2000/svg" xmlns:xlink="http://www.w3.org/1999/xlink" x="0px" y="0px"
	 width="227.128px" height="166.563px" viewBox="0 0 227.128 166.563" enable-background="new 0 0 227.128 166.563"
	 xml:space="preserve">
<g id="frame_1">
	<path fill="#834421" d="M12.938,62.421c0,0,0.5,16.5,1.75,18s5.25,4,6.5,4.25s10.75,0.5,10.75,0.5s1,8.125,1.625,9.125
		s4.125,4.5,4.625,4.75s2,0.375,2,0.375s-0.5-2.5-0.5-4.25s0.375-3.625,0.375-3.625s2.75,3.125,4.625,4s4.75,1.125,5.875,1
		s3.125-0.5,3.125-0.5s-4-2.75-4.75-3.625s-0.75-0.875-0.75-0.875s6.25,1.875,7.625,2.25s3-1.25,3-1.25l-1.375-2.75l8.625-2
		c0,0,7.625,0.5,7.875,2.375s3.75,11.375,4.375,12.875s5.625,9,6.25,10.25s1.125,3.125,1.125,5s0.75,12.875,1.375,15.25
		s1.125,4.75,1,5.125s-4,17.25-4,17.25s-6.625,1-7.875,1.875s-2.875,2.875-2.875,2.875s0.75,0.875,1.375,1.375
		s3.125,0.625,3.125,0.625l0.75-0.125l1.125,0.625h4c0,0,4.5,0,5.25-0.375s6.75-1.5,6.75-1.5l7-12.5l6-11.75l5.375-0.875
		c0,0-0.75,6.375-1.375,8.25s-3.625,13-4,13.375s-4,0.5-5.25,0.75s-3.75,1.5-4.25,2.125s-2,2.25-2,2.25s1.5,1.125,3.25,1.625
		s4.375,1.375,7.125,1.375s9.125-1.25,9.125-1.25l8.625-2.75c0,0,10.75-17.375,10.875-17.75s4.25-10.5,4.25-10.5l6.5,1.875
		c0,0,2.5-0.25,3.5,1.125s4.375,8,4.375,8l-3.375,12.25c0,0-7.125,0.125-8.375,0.625s-3.75,1.625-4.25,2.125s-1.125,1.5-1.125,1.5
		s1.625,1.625,3,1.625s5.375,0.25,5.375,0.25l0.25,0.625c0,0,9.5,0.5,10.625-0.375s4.875-5.75,4.875-5.75l8-12.375l4.5-4.875
		l12.25,0.5l2.5,0.375l-5.75,17.125c0,0-4.75-1-6.125-0.75s-5.75,0.875-7,1.625s-4.625,4.25-4.625,4.25s1.875,0.5,3.125,1
		s4.5,1.5,6,1.375s6.375-0.5,7.25-0.375s10-0.375,10-0.375s21.25-25.75,21.375-26.125s-1.5-12.125-1.875-12.375s7-29.75,7-29.75
		l2.375-12.625c0,0,1.25-6.125,1.375-7.75s-0.25-14.75-0.375-16.875s-1.5-15.25-2-16.625s-3.875-12.75-4.625-13.875
		s-3.875-5.875-5.25-7.5s-6.75-4.625-11-5.625s-10.375-3.125-19.5-1.75s-18.75,4.375-21.25,5.125s-13.375,6-13.375,6l-18.625-0.125
		c0,0,0.75-3.75-0.375-5.875s-1.5-5.125-2.875-6.875s-3.875-5.75-4.375-5.875s-3.375-1.625-4.25-1.5s-3.875-0.125-4.875,0.625
		s-5,4.625-5.875,5.75s-3.75,5-3.75,5s-3.125-0.625-5-1.625S83.438,5.421,83.438,5.421s0.25-2.625-0.125-3.125s-2.375-2.125-4-2
		s-9.375,0.25-11.75,1.375s-10.25,5.5-10.875,6.375s-2,4.5-1.5,6s1.375,5.5,2.25,6.625s1.625,2.125,1.625,2.125s-6.625,5.5-6.75,6
		s-4.5,9.125-4.5,9.125l-9.5,5.75l-22.75,13.875L12.938,62.421z"/>
	<path fill="#5D3119" d="M111.438,37.296c0,0,1.125,8,0.875,10s-1.625,5.875-5.125,7s-19.25,3.875-19.25,3.875
		s9.375,1.875,11.125,3.125s3.25,2.625,1.625,4s-10.625,3.875-16.375,5s-12.5,1.25-12.5,1.25s1.25,6.875-1.375,10
		s-3.875,5.125-6.5,6.125s-12.5,1.5-12.5,1.5s5.5,4,6.875,4.375s4.375,0.25,4.375,0.25s-3.5-2.5-3.75-2.75s9.875-0.25,11.375-0.5
		s10.625-3.25,13.125-5.125s5.25-4.375,6.5-5.625s3.875-2.875,5.5-3.375s22.25-4.375,22.25-4.375l-7.5-6.25l14.5-1.25l-10.25-4.75
		l15.25-2.875c0,0-12.5-11-13.875-12.875s-4.125-7.5-4.125-7.5"/>
	<path fill="#5D3119" d="M78.938,102.921c-0.125-0.375,0.125-7.375,0.625-9.625s1.25-6.25,3.5-3.875s8.75,10.625,12.25,15.25
		s10.125,11.875,12.5,13.875s5.5,3.75,5.5,3.75s0.625,4.125,0.875,5.5s-0.125,5.25,0,6.5s-0.125,2.25-0.125,2.25
		s-9.625-2.375-15.5-7s-11.875-13-13.875-16.125s-5.75-8.75-5.75-8.75V102.921z"/>
	<path fill="#5D3119" d="M100.938,130.296c0,0,1,6.875,1.125,9.5s0.625,5.125,0.125,6.75s-8,15.25-8,15.25l3.375-0.375
		c0,0,4.125-6.375,5.375-8.25s10.375-16.375,10.375-16.375s-9.125-7-11.875-6.125"/>
	<path fill="#5D3119" d="M128.688,113.171c0,0,0.07,0.385,0.188,1.051c0.584,3.301,2.333,13.52,2.437,18.199
		c0.125,5.625,2.25,10.375-1,17.625s-7.75,13.75-7.75,13.75l4.625-1.125l20.625-31.375c0,0,0.625-18.625,0.375-20.875
		s-0.875-3-0.875-3s-1.25,4.375-2.5,7.125s-2.375,3.5-3.875,4.25s-7.75-0.75-11.5-5.75"/>
	<path fill="#5D3119" d="M148.313,109.296c0,0,2.5-14.625,2.625-16.125s1.5,2.375,2,3.5s1.375,5.625,1.375,7.125
		s-0.875,6.25-1.25,7.25s-1.375,4.125-1.75,4.5s-2.75,4.25-2.75,4.25s-0.625-6.125-0.375-9.375"/>
	<path fill="#5D3119" d="M148.438,128.046c0,0,4.625-1.5,7.25-3.375s4.25-4,6.5-7.75s2.25-3.75,2.25-3.75s-0.75,3.625-5.75,10.375
		s-9.125,11.75-9.625,12s-3.125,0.75-3.125,0.75l-2,0.25C143.938,136.546,147.063,129.046,148.438,128.046z"/>
	<path fill="#5D3119" d="M149.063,135.546c0,0,10.375,3.5,13,3.875s14.125,2.375,16.25,2.25s10.625-0.25,10.625-0.25l0.625-1.625
		c0,0-3-5.75-4.25-7.375s-1.25-1.625-1.25-1.625s-3.125,0.75-8.125,1s-14.75-0.375-16-0.625s-1.25-0.25-1.25-0.25L149.063,135.546z"
		/>
	<path fill="#5D3119" d="M171.938,140.671c0,0-6.625,11-9,14.125s-6.625,8.25-6.625,8.25l1.75-0.25c0,0,8.875-9.125,10.25-10.5
		s11-11.125,11-11.125l-0.875-3l-7,1.75"/>
	<path fill="#5D3119" d="M191.188,165.046c0,0,13.5-15.25,16.25-20.5s5-6.75,3.75-8.625s-5.375-5.5-8.5-7.875s-6.25-5.375-6-10.875
		s0.25-12.625,3.375-19.125s8.5-17.5,8.5-17.5s0.375,5.875,1.5,8.125s1.75,3.25,3.5,3.625s3.75,0.25,4.25-1.375
		s1.125-4.5,1.25-7.375s0.125-9.125,0.125-9.125s1.875,8.375,1.75,10.5s-0.25,10.125-0.625,12.875s-2.25,14.5-3,16.125
		s-1.375,4.25-1.25,5.25s10.25,13.375,10.25,13.375l-32.5,32.625L191.188,165.046z"/>
	<path fill="#FFFFFF" d="M33.375,59.483c0,0-13.688-1.938-17.688-1.625s-5,0.25-5,0.25l1.063,2.125l1.813,2.063l10.813,8.563
		l2.125,1.313l3.813-1.188c0,0-0.5-3.625-0.563-3.813s2.438-5.688,2.438-5.688l1.188-2.25"/>
	<ellipse fill="#FFFFFF" cx="49.844" cy="40.327" rx="12.156" ry="10.406"/>
	<ellipse fill="#FFFFFF" cx="71.469" cy="43.796" rx="14.594" ry="13"/>
	<ellipse fill="#0092FF" cx="62.563" cy="44.577" rx="5.188" ry="5.094"/>
	<ellipse fill="#0092FF" cx="42.25" cy="40.765" rx="4.438" ry="4.344"/>
	<circle fill="#00426B" cx="62.094" cy="44.577" r="2.219"/>
	<ellipse fill="#00426B" cx="41.938" cy="40.702" rx="1.875" ry="1.844"/>
	<ellipse fill="#FFFFFF" cx="64.219" cy="41.921" rx="1.344" ry="1.313"/>
	<circle fill="#FFFFFF" cx="60.281" cy="46.89" r="1.031"/>
	<ellipse fill="#FFFFFF" cx="43.625" cy="38.827" rx="1.125" ry="1.156"/>
	<circle fill="#FFFFFF" cx="40.438" cy="43.171" r="0.875"/>
	<ellipse fill="none" stroke="#000000" stroke-width="0.75" cx="71.437" cy="43.838" rx="14.5" ry="13.042"/>
	<path fill="none" stroke="#000000" stroke-width="0.75" d="M57.44,47.457c-0.485-1.258-0.609-2.637-0.429-3.98
		c-0.082-1.204,0.109-2.545,0.631-3.665c0.24-0.896,0.718-1.756,1.174-2.532c0.429-0.729,0.92-1.384,1.511-1.931
		c-2.032-3.272-6.021-5.512-10.64-5.512c-6.673,0-12.083,4.645-12.083,10.375s5.41,10.375,12.083,10.375
		c3.096,0,5.906-1.015,8.043-2.66c-0.005-0.013-0.014-0.025-0.019-0.039C57.605,47.775,57.51,47.637,57.44,47.457z"/>
	<line fill="none" stroke="#000000" stroke-width="0.75" x1="38.25" y1="44.046" x2="14.813" y2="57.921"/>
	<path fill="none" stroke="#000000" stroke-width="0.75" d="M51.25,29.921c0,0,1.563-2.625,4.688-4.813s12.125-7.625,12.125-7.625
		s-5.875-2.25-7.063-3.063s-1.438-1.125-1.438-1.125s5.625-2.5,13.563-1.875s10.75,1.125,10.75,1.125s-2.125-3.375-2.438-5.125
		s-0.313-2.625-0.313-2.625s3.125,1.688,6.438,4.313s7.188,6.25,9.063,6.875s3.125,0.875,3.125,0.875"/>
	<path fill="none" stroke="#000000" stroke-width="0.75" d="M95.188,25.858c0,0,3.75-8.125,7.063-12.5s7-7.313,8.5-7.75
		s5.375-1.375,7.688,1.313s4.438,5.5,5.813,8.688s1.75,4.75,1.875,5.938s0.125,8,0,8.188s-0.813,2.125-5.875,3.625
		s-12,3.188-12,3.188"/>
	<path fill="none" stroke="#000000" stroke-width="0.75" d="M100,28.733c0,0,4.313-7.625,9-10.063s4.938-2.5,4.938-2.5"/>
	<path fill="none" stroke="#000000" stroke-width="0.75" d="M111,35.796c0,0,2.563,5.938,6.75,10.063s11.938,11.5,11.938,11.5
		s-15.75,2.375-15.688,2.625s10.75,4.563,10.75,4.563l-14.813,1.313l7.313,6.625c0,0-20,2.688-23.063,4.313
		s-6.063,5.375-9.938,7.938s-6.125,4.188-11.5,5.313s-14,0.938-14,0.938s1.938,1.875,3.063,2.375s1.125,0.5,1.125,0.5
		s-5.25,0.813-9.188-0.375s-5.188-2-5.188-2s3.125,3.563,4,4s0.875,0.438,0.875,0.438s-4.438,1.5-7.625,0.125
		s-5.563-4.375-5.563-4.375s-1,3.813-0.563,5.75s0.438,1.938,0.438,1.938s-1.75,0.375-4.25-2.438s-3.25-5.125-3.563-7.125
		s0.063-4.75,0.063-4.75"/>
	<path fill="none" stroke="#000000" stroke-width="0.75" d="M11.188,58.108c0,0,4.063-0.438,10.313-0.125s13.125,1.438,16.125,2.438
		S43,62.858,43,62.858s-1.25,2.75-5.563,5.125s-11.188,4.25-11.188,4.25s-11.438-8.375-13.125-10.125S10.5,58.296,11.188,58.108z"/>
	<path fill="none" stroke="#000000" stroke-width="0.75" d="M12.875,62.108c0,0,0.125,11.125,0.75,14.063s1.625,5.875,3.875,7.063
		s5.438,1.688,10.625,1.938s19.125,0.375,21.813-0.813s8.438-6.563,9.75-8.125s2-2.75,2-2.75"/>
	<path fill="none" stroke="#000000" stroke-width="0.75" d="M27.875,72.108c0,0-0.063,6.125,0.688,7.813s3.5,5.438,3.5,5.438"/>
	<path fill="none" stroke="#000000" stroke-width="0.75" d="M59,23.233c0,0-3.438-4.563-3.875-8.063s0.125-5.438,2-7.063
		s8.313-5.5,11.938-6.625s7.625-1.25,9.875-1S82,1.296,82.688,2.171s0.688,4.063,0.688,4.063"/>
	<path fill="none" stroke="#000000" stroke-width="0.75" d="M221.271,84.838c0,0,0.584-4,0.584-7.417s0.5-7.333,0.25-12.75
		s-0.417-9.333-1.417-15.417s-1.5-9.5-3.5-14.917s-4.5-10.333-8.417-13.917s-13.5-5.75-20.083-6.167s-16.5,1.417-23,2.917
		s-19.5,7.5-21.084,8s-18.333,0.25-18.333,0.25"/>
	<path fill="none" stroke="#000000" stroke-width="0.75" d="M216.105,63.338c-0.167,0.25,5.583,15.751,4.916,24.417
		s-2.5,21.167-3.25,24.417s-3.582,5.667-0.666,9.75s9.083,10.583,9.083,10.583l-32.5,32.917c0,0-17.167,0.582-20.167,0.166
		s-7.667-1.834-7.917-2s3.834-4.333,6.834-5.083s7.416-1.167,9.083-0.667s1.667,0.5,1.667,0.5l6.25-18.333
		c0,0-7.749-13.584-8.833-17.167s-3.084-9.25-3.834-14s-1.25-9.665,1.25-14.749s7.333-11.667,7.333-11.667"/>
	<path fill="none" stroke="#000000" stroke-width="0.75" d="M147.771,109.005c0,0,0.5,11.25,0.417,14.5s0.167,7.25,0.167,7.25
		l-21.5,31.917c0,0-16.917,3.5-19.334,3.25s-4.833-0.75-4.833-0.75l-6-1.75c0,0,3.083-4.833,6.583-5s5.833,0.083,5.833,0.083
		s0.25-0.916,3-1.083s5.25,0.75,5.25,0.75"/>
	<path fill="none" stroke="#000000" stroke-width="0.75" d="M108.521,158.005c0,0,4.584-13.083,5.167-18s0.416-12.417-0.417-17
		s-1.333-8-1.333-8"/>
	<path fill="none" stroke="#000000" stroke-width="0.75" d="M73.688,89.922c0,0,2.667,8.832,4.417,12.416s3.916,6.917,6.583,11.084
		s8.833,12.417,12.25,14.917s9.75,6.167,11.667,6.75s5.583,1.5,5.583,1.5"/>
	<path fill="none" stroke="#000000" stroke-width="0.75" d="M83.772,156.089l4.166-17.084c0,0-0.666-3.833-1.083-7.417
		s-1.583-17.333-1.583-17.333"/>
	<path fill="none" stroke="#000000" stroke-width="0.75" d="M90.521,156.255c0,0-6.5,0.001-8.083,0.167s-5.417,0.833-6.917,1.833
		s-2.166,2.583-2.166,2.583s1.583,1.418,2.833,1.584s2.417,0.25,2.417,0.25s-0.083,0.75,4,0.75s7.834-1.001,10-1.334
		s5.333-1,5.333-1s15.75-24.833,15.75-24.583"/>
	<path fill="none" stroke="#000000" stroke-width="0.75" d="M144.854,136.588c0,0,5.334-1.166,8.084-2.333s7.25-4.416,9.833-7.083
		s6.25-8.333,6.917-11.083s1-3.167,1-3.167"/>
	<path fill="none" stroke="#000000" stroke-width="0.75" d="M148.355,119.588c0,0,3.582-4.25,4.249-6.583s1.834-9.167,1.334-11.75
		s-2.417-8.25-2.417-8.25"/>
	<path fill="none" stroke="#000000" stroke-width="0.75" d="M148.771,135.839c0,0,12.501,3.334,16.834,4s9.166,1.417,12.083,1.5
		s11.5,0.166,11.5,0.166"/>
	<path fill="none" stroke="#000000" stroke-width="0.75" d="M150.354,136.839c0,0,4.5,7.75,4.417,8s-3.833,12.666-3.833,12.666
		s-6.333-0.833-8.583,0.167s-4.667,3.583-4.667,3.583s1.083,0.667,2,1s2.916,0.667,4.333,0.75s2.334-0.167,2.334-0.167
		s-0.917,0.666,0.583,0.75s10.417-0.25,11-0.833s21.583-21.583,21.583-21.583"/>
	<path d="M151.876,92.879c0,0-1.876-4.188-2.604-4.896s1.479,3.792,1.938,5.167"/>
	<path d="M170.344,112.89c0,0,0.75-4.25,0.594-5.156s-0.156-0.906-0.156-0.906s0.719,4.875,0.125,6.406"/>
	<path d="M147.375,109.202c0,0,0.094-1.906-0.156-3.063s-0.281-1.281-0.281-1.281s1.188,3.031,1.219,4.25"/>
	<path d="M111.656,115.265c0,0-1.281-6.188-1.656-7.781s-0.375-1.594-0.375-1.594s2.688,8.063,2.719,9.063"/>
	<path d="M61.659,74.108c0,0,2.109-3.25,2.381-4.344c0.272-1.094,0.272-1.094,0.272-1.094s-2.28,4.031-3.063,4.813"/>
	<path d="M184.896,82.505c0,0,3.667-4.708,4.792-5.625s1.917-1.167,1.917-1.167s-5.125,6.166-6.25,7.375"/>
	<path d="M215.854,63.672c0,0-1.916-5.167-2.75-6.25s-0.834-1.083-0.834-1.083s2.583,1.875,4.25,7.333"/>
	<path d="M178.438,165.672c0,0,1.751-2.833,3.292-3.875s3.958-1.375,3.958-1.375s-3.708,1.916-4.583,2.958s-1.459,2.542-1.459,2.542
		"/>
	<path d="M171.438,164.797c0,0,1.209-3.084,2.542-4.042s4.708-1.541,4.708-1.541s-4.458,2.084-5.125,3s-1.375,3.291-1.375,3.291"/>
	<path d="M146.188,162.797c0,0,0.707-2.5,2.416-3.167s2.667-0.667,2.667-0.667s-3.126,1.166-3.542,2s-1.083,2.25-1.083,2.25"/>
	<path d="M141.146,162.38c0,0,0.416-1.707,1.833-2.666s2.959-0.959,2.959-0.959s-2.584,1.041-3.292,2s-1,2-1,2"/>
	<path d="M109.813,165.63c0-0.125,1.083-2.207,2.458-3.291s4.5-2,4.5-2s-4.291,2.333-4.708,3.083s-0.958,2.083-0.958,2.083"/>
	<path d="M101.938,164.88c0,0,1.083-1.832,2.125-2.916s1.749-1.708,2.833-1.875s1.667-0.084,1.667-0.084s-3.417,1.668-4.042,2.334
		s-1.75,2.666-1.75,2.666"/>
	<path d="M83.521,163.297c0,0,1.167-2.209,2.667-3.334s3.583-1.583,3.583-1.583s-3.584,2.374-4.292,3.333s-1.041,1.709-1.041,1.709"
		/>
	<path d="M78.146,162.38c0,0,0.75-1.959,1.75-2.875s3.833-1.916,3.833-1.916s-3.125,1.791-3.75,2.666s-0.75,2.542-0.75,2.542"/>
	<path d="M90.188,156.546c0,0,1.125,0.542,1.5,0.875s0.375,0.333,0.375,0.333s-0.501-1.957-1.584-1.916"/>
	<path d="M117.021,158.296l2.75,1.375c0,0-1.208-2.124-2.5-2.208"/>
	<path d="M30.938,59.337c0,0-12.583,0.833-12.083,2.25c0.5,1.417,10.583,9.917,10.583,9.917s9.25-4.332,10.583-5.416
		S43.479,63.13,43,62.858c-0.479-0.271-9.479-4.187-11.979-3.854"/>
</g>
<g id="frame_2">
	<path fill="#834421" d="M50.291,147.378l1.063,3.875l1.875,1.688l2.625,1.375l4.063-5.938l10.313-6.688
		c0,0,20.25-2.875,20.75-2.688s9.25-3.5,9.438-3.625s2.875-4.938,2.875-4.938s-1.313-2.875-1.813-3.125s-5.563-2.125-6.313-2.688
		s-5.625-6.688-5.625-6.688l-1.125-1.563l-1.688-0.313l-1.875,5.25l-29.5,12.5l-1.563,1.25c0,0-2.563,6-2.75,6.688
		S50.291,147.378,50.291,147.378z"/>
	<path fill="#834421" d="M13.02,64.586c0,0-1,10,0.417,12.75s2.667,1.167,2.667,1.167l0.5-8.833l-2.167-3.917l-0.917-1.167"/>
	<path fill="#834421" d="M22.937,84.253c0,0,2.417,1.416,4.25,1.333s3.75-0.833,3.75-0.833s-1.083-1.75-1.5-1.75
		s-5.083,0.584-5.333,0.667"/>
	<path fill="#834421" d="M55.02,92.836c0,0,1.417,1.334,2.417,1.334s3.333-0.75,3.333-0.75s-2.167-1.5-2.667-1.75"/>
	<path fill="#633319" d="M100.729,127.628l-4,8.625l-31.125,3.125c0,0-6.375,8.25-7.125,9.375s-2,3.25-2,3.25l0.125,2.125
		c0,0,2.875-2.625,3.625-3.5s5.5-6.25,5.5-6.25l36-1.375l7.75-8.875l-3.25-6.75l-5.5-0.25"/>
	<path fill="none" stroke="#000000" stroke-width="0.75" d="M86.854,116.378c0,0-1.625,4.5-2,5s-27.25,11.625-29.125,12
		s-3.5,4.375-4.25,6.75s-1.375,5.125-1.25,6.625s0.5,3.125,0.75,3.625s0.875,1.625,0.875,1.625s0.75,0.625,2.25,1.625
		s2.25,1.125,2.25,1.125s2-1.875,3.125-3s6.25-7.375,6.25-7.375l36-1.375l10-11.125"/>
	<path d="M55.916,154.315c0,0-0.25-5.25,0.25-7.125s2.125-4,2.125-4s-1.188,3.938-1.375,4.75s-0.25,6.5-0.25,6.5"/>
	<path d="M51.604,151.128c0,0,0.063-3.25,0.438-5.063s2.875-6.438,2.875-6.438s-2.188,7.625-2.438,9.438s-0.125,3.25-0.125,3.25
		l-0.875-0.688"/>
	<path fill="#834421" d="M221.813,59.546c-0.125-2.125-1.5-15.25-2-16.625s-3.875-12.75-4.625-13.875s-3.875-5.875-5.25-7.5
		s-6.75-4.625-11-5.625s-10.375-3.125-19.5-1.75s-18.75,4.375-21.25,5.125s-13.375,6-13.375,6l-18.625-0.125
		c0,0,0.75-3.75-0.375-5.875s-1.5-5.125-2.875-6.875s-3.875-5.75-4.375-5.875s-3.375-1.625-4.25-1.5s-3.875-0.125-4.875,0.625
		s-5,4.625-5.875,5.75s-3.75,5-3.75,5s-3.125-0.625-5-1.625S83.438,5.421,83.438,5.421s0.25-2.625-0.125-3.125s-2.375-2.125-4-2
		s-9.375,0.25-11.75,1.375s-10.25,5.5-10.875,6.375s-2,4.5-1.5,6s1.375,5.5,2.25,6.625s1.625,2.125,1.625,2.125s-6.625,5.5-6.75,6
		s-4.5,9.125-4.5,9.125l-9.5,5.75l-22.75,13.875l-2.625,4.875c0,0,0.5,16.5,1.75,18s5.25,4,6.5,4.25s10.75,0.5,10.75,0.5
		s1,8.125,1.625,9.125s4.125,4.5,4.625,4.75s2,0.375,2,0.375s-0.5-2.5-0.5-4.25s0.375-3.625,0.375-3.625s2.75,3.125,4.625,4
		s4.75,1.125,5.875,1s3.125-0.5,3.125-0.5s-4-2.75-4.75-3.625s-0.75-0.875-0.75-0.875s6.25,1.875,7.625,2.25s3-1.25,3-1.25
		l-1.375-2.75l8.625-2c0,0,7.625,0.5,7.875,2.375s3.75,11.375,4.375,12.875s5.625,9,6.25,10.25c0.274,0.549,0.521,1.224,0.716,1.961
		c0.014,0.011,0.027,0.017,0.04,0.027c0.621-0.251,1.33-0.188,1.818,0.436c2.804,3.582,5.508,7.238,8.371,10.767
		c3.2-1.198,8.624,2.609,12.46,5.793c0.695-0.171,1.469,0.058,1.952,0.808c0.166,0.258,0.302,0.506,0.429,0.753
		c0.147,0.07,0.287,0.154,0.413,0.255c1.042,0.834,1.216,1.197,1.641,2.347l1.66-0.271c0,0-0.75,6.375-1.375,8.25
		s-3.625,13-4,13.375s-4,0.5-5.25,0.75s-3.75,1.5-4.25,2.125s-2,2.25-2,2.25s1.5,1.125,3.25,1.625s4.375,1.375,7.125,1.375
		s9.125-1.25,9.125-1.25l8.625-2.75c0,0,10.75-17.375,10.875-17.75s4.25-10.5,4.25-10.5l6.5,1.875c0,0,2.5-0.25,3.5,1.125
		s4.375,8,4.375,8l-3.375,12.25c0,0-7.125,0.125-8.375,0.625s-3.75,1.625-4.25,2.125s-1.125,1.5-1.125,1.5s1.625,1.625,3,1.625
		s5.375,0.25,5.375,0.25l0.25,0.625c0,0,9.5,0.5,10.625-0.375s4.875-5.75,4.875-5.75l8-12.375l4.5-4.875l12.25,0.5l2.5,0.375
		l-5.75,17.125c0,0-4.75-1-6.125-0.75s-5.75,0.875-7,1.625s-4.625,4.25-4.625,4.25s1.875,0.5,3.125,1s4.5,1.5,6,1.375
		s6.375-0.5,7.25-0.375s10-0.375,10-0.375s21.25-25.75,21.375-26.125s-1.5-12.125-1.875-12.375s7-29.75,7-29.75l2.375-12.625
		c0,0,1.25-6.125,1.375-7.75S221.938,61.671,221.813,59.546z"/>
	<path fill="#5D3119" d="M111.438,37.296c0,0,1.125,8,0.875,10s-1.625,5.875-5.125,7s-19.25,3.875-19.25,3.875
		s9.375,1.875,11.125,3.125s3.25,2.625,1.625,4s-10.625,3.875-16.375,5s-12.5,1.25-12.5,1.25s1.25,6.875-1.375,10
		s-3.875,5.125-6.5,6.125s-12.5,1.5-12.5,1.5s5.5,4,6.875,4.375s4.375,0.25,4.375,0.25s-3.5-2.5-3.75-2.75s9.875-0.25,11.375-0.5
		s10.625-3.25,13.125-5.125s5.25-4.375,6.5-5.625s3.875-2.875,5.5-3.375s22.25-4.375,22.25-4.375l-7.5-6.25l14.5-1.25l-10.25-4.75
		l15.25-2.875c0,0-12.5-11-13.875-12.875s-4.125-7.5-4.125-7.5"/>
	<path fill="#5D3119" d="M78.938,102.921c-0.125-0.375,0.125-7.375,0.625-9.625s1.25-6.25,3.5-3.875s8.75,10.625,12.25,15.25
		s10.125,11.875,12.5,13.875s5.5,3.75,5.5,3.75s0.625,4.125,0.875,5.5s-0.125,5.25,0,6.5s-0.125,2.25-0.125,2.25
		s-9.625-2.375-15.5-7s-11.875-13-13.875-16.125s-5.75-8.75-5.75-8.75V102.921z"/>
	<path fill="#5D3119" d="M128.688,113.171c0,0,0.07,0.385,0.188,1.051c0.584,3.301,2.333,13.52,2.437,18.199
		c0.125,5.625,2.25,10.375-1,17.625s-7.75,13.75-7.75,13.75l4.625-1.125l20.625-31.375c0,0,0.625-18.625,0.375-20.875
		s-0.875-3-0.875-3s-1.25,4.375-2.5,7.125s-2.375,3.5-3.875,4.25s-7.75-0.75-11.5-5.75"/>
	<path fill="#5D3119" d="M148.313,109.296c0,0,2.5-14.625,2.625-16.125s1.5,2.375,2,3.5s1.375,5.625,1.375,7.125
		s-0.875,6.25-1.25,7.25s-1.375,4.125-1.75,4.5s-2.75,4.25-2.75,4.25s-0.625-6.125-0.375-9.375"/>
	<path fill="#5D3119" d="M148.438,128.046c0,0,4.625-1.5,7.25-3.375s4.25-4,6.5-7.75s2.25-3.75,2.25-3.75s-0.75,3.625-5.75,10.375
		s-9.125,11.75-9.625,12s-3.125,0.75-3.125,0.75l-2,0.25C143.938,136.546,147.063,129.046,148.438,128.046z"/>
	<path fill="#5D3119" d="M149.063,135.546c0,0,10.375,3.5,13,3.875s14.125,2.375,16.25,2.25s10.625-0.25,10.625-0.25l0.625-1.625
		c0,0-3-5.75-4.25-7.375s-1.25-1.625-1.25-1.625s-3.125,0.75-8.125,1s-14.75-0.375-16-0.625s-1.25-0.25-1.25-0.25L149.063,135.546z"
		/>
	<path fill="#5D3119" d="M171.938,140.671c0,0-6.625,11-9,14.125s-6.625,8.25-6.625,8.25l1.75-0.25c0,0,8.875-9.125,10.25-10.5
		s11-11.125,11-11.125l-0.875-3l-7,1.75"/>
	<path fill="#5D3119" d="M191.188,165.046c0,0,13.5-15.25,16.25-20.5s5-6.75,3.75-8.625s-5.375-5.5-8.5-7.875s-6.25-5.375-6-10.875
		s0.25-12.625,3.375-19.125s8.5-17.5,8.5-17.5s0.375,5.875,1.5,8.125s1.75,3.25,3.5,3.625s3.75,0.25,4.25-1.375
		s1.125-4.5,1.25-7.375s0.125-9.125,0.125-9.125s1.875,8.375,1.75,10.5s-0.25,10.125-0.625,12.875s-2.25,14.5-3,16.125
		s-1.375,4.25-1.25,5.25s10.25,13.375,10.25,13.375l-32.5,32.625L191.188,165.046z"/>
	<path fill="#FFFFFF" d="M33.375,59.483c0,0-13.688-1.938-17.688-1.625s-5,0.25-5,0.25l1.063,2.125l1.813,2.063l10.813,8.563
		l2.125,1.313l3.813-1.188c0,0-0.5-3.625-0.563-3.813s2.438-5.688,2.438-5.688l1.188-2.25"/>
	<ellipse fill="#FFFFFF" cx="49.844" cy="40.327" rx="12.156" ry="10.406"/>
	<ellipse fill="#FFFFFF" cx="71.469" cy="43.796" rx="14.594" ry="13"/>
	<ellipse fill="#0092FF" cx="62.563" cy="44.577" rx="5.188" ry="5.094"/>
	<ellipse fill="#0092FF" cx="42.25" cy="40.765" rx="4.438" ry="4.344"/>
	<circle fill="#00426B" cx="62.094" cy="44.577" r="2.219"/>
	<ellipse fill="#00426B" cx="41.938" cy="40.702" rx="1.875" ry="1.844"/>
	<ellipse fill="#FFFFFF" cx="64.219" cy="41.921" rx="1.344" ry="1.313"/>
	<circle fill="#FFFFFF" cx="60.281" cy="46.89" r="1.031"/>
	<ellipse fill="#FFFFFF" cx="43.625" cy="38.827" rx="1.125" ry="1.156"/>
	<circle fill="#FFFFFF" cx="40.438" cy="43.171" r="0.875"/>
	<ellipse fill="none" stroke="#000000" stroke-width="0.75" cx="71.437" cy="43.838" rx="14.5" ry="13.042"/>
	<path fill="none" stroke="#000000" stroke-width="0.75" d="M57.44,47.457c-0.485-1.258-0.609-2.637-0.429-3.98
		c-0.082-1.204,0.109-2.545,0.631-3.665c0.24-0.896,0.718-1.756,1.174-2.532c0.429-0.729,0.92-1.384,1.511-1.931
		c-2.032-3.272-6.021-5.512-10.64-5.512c-6.673,0-12.083,4.645-12.083,10.375s5.41,10.375,12.083,10.375
		c3.096,0,5.906-1.015,8.043-2.66c-0.005-0.013-0.014-0.025-0.019-0.039C57.605,47.775,57.51,47.637,57.44,47.457z"/>
	<line fill="none" stroke="#000000" stroke-width="0.75" x1="38.25" y1="44.046" x2="14.813" y2="57.921"/>
	<path fill="none" stroke="#000000" stroke-width="0.75" d="M51.25,29.921c0,0,1.563-2.625,4.688-4.813s12.125-7.625,12.125-7.625
		s-5.875-2.25-7.063-3.063s-1.438-1.125-1.438-1.125s5.625-2.5,13.563-1.875s10.75,1.125,10.75,1.125s-2.125-3.375-2.438-5.125
		s-0.313-2.625-0.313-2.625s3.125,1.688,6.438,4.313s7.188,6.25,9.063,6.875s3.125,0.875,3.125,0.875"/>
	<path fill="none" stroke="#000000" stroke-width="0.75" d="M95.188,25.858c0,0,3.75-8.125,7.063-12.5s7-7.313,8.5-7.75
		s5.375-1.375,7.688,1.313s4.438,5.5,5.813,8.688s1.75,4.75,1.875,5.938s0.125,8,0,8.188s-0.813,2.125-5.875,3.625
		s-12,3.188-12,3.188"/>
	<path fill="none" stroke="#000000" stroke-width="0.75" d="M100,28.733c0,0,4.313-7.625,9-10.063s4.938-2.5,4.938-2.5"/>
	<path fill="none" stroke="#000000" stroke-width="0.75" d="M111,35.796c0,0,2.563,5.938,6.75,10.063s11.938,11.5,11.938,11.5
		s-15.75,2.375-15.688,2.625s10.75,4.563,10.75,4.563l-14.813,1.313l7.313,6.625c0,0-20,2.688-23.063,4.313
		s-6.063,5.375-9.938,7.938s-6.125,4.188-11.5,5.313s-14,0.938-14,0.938s1.938,1.875,3.063,2.375s1.125,0.5,1.125,0.5
		s-5.25,0.813-9.188-0.375s-5.188-2-5.188-2s3.125,3.563,4,4s0.875,0.438,0.875,0.438s-4.438,1.5-7.625,0.125
		s-5.563-4.375-5.563-4.375s-1,3.813-0.563,5.75s0.438,1.938,0.438,1.938s-1.75,0.375-4.25-2.438s-3.25-5.125-3.563-7.125
		s0.063-4.75,0.063-4.75"/>
	<path fill="none" stroke="#000000" stroke-width="0.75" d="M11.188,58.108c0,0,4.063-0.438,10.313-0.125s13.125,1.438,16.125,2.438
		S43,62.858,43,62.858s-1.25,2.75-5.563,5.125s-11.188,4.25-11.188,4.25s-11.438-8.375-13.125-10.125S10.5,58.296,11.188,58.108z"/>
	<path fill="none" stroke="#000000" stroke-width="0.75" d="M12.875,62.108c-0.271,5.895-1.271,12.895,1.729,17.895
		c8,10,24,3,34.849,4.523"/>
	<path fill="none" stroke="#000000" stroke-width="0.75" d="M27.875,72.108c0,0-0.063,6.125,0.688,7.813s3.5,5.438,3.5,5.438"/>
	<path fill="none" stroke="#000000" stroke-width="0.75" d="M59,23.233c0,0-3.438-4.563-3.875-8.063s0.125-5.438,2-7.063
		s8.313-5.5,11.938-6.625s7.625-1.25,9.875-1S82,1.296,82.688,2.171s0.688,4.063,0.688,4.063"/>
	<path fill="none" stroke="#000000" stroke-width="0.75" d="M221.271,84.838c0,0,0.584-4,0.584-7.417s0.5-7.333,0.25-12.75
		s-0.417-9.333-1.417-15.417s-1.5-9.5-3.5-14.917s-4.5-10.333-8.417-13.917s-13.5-5.75-20.083-6.167s-16.5,1.417-23,2.917
		s-19.5,7.5-21.084,8s-18.333,0.25-18.333,0.25"/>
	<path fill="none" stroke="#000000" stroke-width="0.75" d="M216.105,63.338c-0.167,0.25,5.583,15.751,4.916,24.417
		s-2.5,21.167-3.25,24.417s-3.582,5.667-0.666,9.75s9.083,10.583,9.083,10.583l-32.5,32.917c0,0-17.167,0.582-20.167,0.166
		s-7.667-1.834-7.917-2s3.834-4.333,6.834-5.083s7.416-1.167,9.083-0.667s1.667,0.5,1.667,0.5l6.25-18.333
		c0,0-7.749-13.584-8.833-17.167s-3.084-9.25-3.834-14s-1.25-9.665,1.25-14.749s7.333-11.667,7.333-11.667"/>
	<path fill="none" stroke="#000000" stroke-width="0.75" d="M147.771,109.005c0,0,0.5,11.25,0.417,14.5s0.167,7.25,0.167,7.25
		l-21.5,31.917c0,0-16.917,3.5-19.334,3.25s-4.833-0.75-4.833-0.75l-6-1.75c0,0,3.083-4.833,6.583-5s5.833,0.083,5.833,0.083
		s0.25-0.916,3-1.083s5.25,0.75,5.25,0.75"/>
	<path fill="none" stroke="#000000" stroke-width="0.75" d="M108.521,158.005c0,0,4.584-13.083,5.167-18s0.416-12.417-0.417-17
		s-1.333-8-1.333-8"/>
	<path fill="none" stroke="#000000" stroke-width="0.75" d="M73.688,89.922c0,0,2.667,8.832,4.417,12.416s3.916,6.917,6.583,11.084
		s8.833,12.417,12.25,14.917s9.75,6.167,11.667,6.75s5.583,1.5,5.583,1.5"/>
	<path fill="none" stroke="#000000" stroke-width="0.75" d="M144.854,136.588c0,0,5.334-1.166,8.084-2.333s7.25-4.416,9.833-7.083
		s6.25-8.333,6.917-11.083s1-3.167,1-3.167"/>
	<path fill="none" stroke="#000000" stroke-width="0.75" d="M148.355,119.588c0,0,3.582-4.25,4.249-6.583s1.834-9.167,1.334-11.75
		s-2.417-8.25-2.417-8.25"/>
	<path fill="none" stroke="#000000" stroke-width="0.75" d="M148.771,135.839c0,0,12.501,3.334,16.834,4s9.166,1.417,12.083,1.5
		s11.5,0.166,11.5,0.166"/>
	<path fill="none" stroke="#000000" stroke-width="0.75" d="M150.354,136.839c0,0,4.5,7.75,4.417,8s-3.833,12.666-3.833,12.666
		s-6.333-0.833-8.583,0.167s-4.667,3.583-4.667,3.583s1.083,0.667,2,1s2.916,0.667,4.333,0.75s2.334-0.167,2.334-0.167
		s-0.917,0.666,0.583,0.75s10.417-0.25,11-0.833s21.583-21.583,21.583-21.583"/>
	<path d="M151.876,92.879c0,0-1.876-4.188-2.604-4.896s1.479,3.792,1.938,5.167"/>
	<path d="M170.344,112.89c0,0,0.75-4.25,0.594-5.156s-0.156-0.906-0.156-0.906s0.719,4.875,0.125,6.406"/>
	<path d="M147.375,109.202c0,0,0.094-1.906-0.156-3.063s-0.281-1.281-0.281-1.281s1.188,3.031,1.219,4.25"/>
	<path d="M111.656,115.265c0,0-1.281-6.188-1.656-7.781s-0.375-1.594-0.375-1.594s2.688,8.063,2.719,9.063"/>
	<path d="M184.896,82.505c0,0,3.667-4.708,4.792-5.625s1.917-1.167,1.917-1.167s-5.125,6.166-6.25,7.375"/>
	<path d="M215.854,63.672c0,0-1.916-5.167-2.75-6.25s-0.834-1.083-0.834-1.083s2.583,1.875,4.25,7.333"/>
	<path d="M178.438,165.672c0,0,1.751-2.833,3.292-3.875s3.958-1.375,3.958-1.375s-3.708,1.916-4.583,2.958s-1.459,2.542-1.459,2.542
		"/>
	<path d="M171.438,164.797c0,0,1.209-3.084,2.542-4.042s4.708-1.541,4.708-1.541s-4.458,2.084-5.125,3s-1.375,3.291-1.375,3.291"/>
	<path d="M146.188,162.797c0,0,0.707-2.5,2.416-3.167s2.667-0.667,2.667-0.667s-3.126,1.166-3.542,2s-1.083,2.25-1.083,2.25"/>
	<path d="M141.146,162.38c0,0,0.416-1.707,1.833-2.666s2.959-0.959,2.959-0.959s-2.584,1.041-3.292,2s-1,2-1,2"/>
	<path d="M109.813,165.63c0-0.125,1.083-2.207,2.458-3.291s4.5-2,4.5-2s-4.291,2.333-4.708,3.083s-0.958,2.083-0.958,2.083"/>
	<path d="M101.938,164.88c0,0,1.083-1.832,2.125-2.916s1.749-1.708,2.833-1.875s1.667-0.084,1.667-0.084s-3.417,1.668-4.042,2.334
		s-1.75,2.666-1.75,2.666"/>
	<path d="M117.021,158.296l2.75,1.375c0,0-1.208-2.124-2.5-2.208"/>
	<path d="M30.938,59.337c0,0-12.583,0.833-12.083,2.25c0.5,1.417,10.583,9.917,10.583,9.917s9.25-4.332,10.583-5.416
		S43.479,63.13,43,62.858c-0.479-0.271-9.479-4.187-11.979-3.854"/>
	<path fill="#FFFFFF" d="M57.925,40.922c-0.199,0.539-0.355,1.09-0.503,1.644c-0.21,0.863-0.131,1.74-0.027,2.615
		c2.812-0.782,12.208-3.177,12.208-3.177l-0.75-3.5c0,0-6.25-0.333-6.583-0.25s-3.667,1-3.667,1l-0.74,1.199
		C57.952,40.583,57.992,40.743,57.925,40.922z"/>
	<path fill="#FFFFFF" d="M45.104,35.836c-0.333-0.167-3.417-0.75-3.75-0.75c-0.188,0-1.268,0.657-2.18,1.233
		c-0.227,0.713-0.471,1.439-0.817,2.107l8.414,5.326l1.417-4C48.187,39.753,45.437,36.003,45.104,35.836z"/>
</g>
<g id="frame_3">
	<path fill="#834421" d="M77.063,94.921c0,0-18.5,8.25-19.25,8.5s-17.25,0.75-17.25,0.75s-2.125-7-3.25-8s-4-4.5-4.375-4.625
		s-2-1.125-2-1.125s-2.75,0.125-3.25,0.625s-1.375,4.25-1.375,4.25s-3.125-4.625-5.125-5.375s-8.25-1.5-8.75-1.25s-2,2-2.125,2.75
		s1.5,5,2,5.625s2.75,2.625,2.75,2.625l-0.875,1.5c0,0-4-2.25-6-1.75s-4.75,2.125-4.75,3.75s0,3,0.75,3.75s2.75,2.25,2.75,2.25
		l2.625,1.125c0,0,0.75,1.375-0.125,2s-3.875,1.5-3.875,1.5s-1.25,1.25-1.25,1.875s-0.25,2.75,0.125,3.125s2.5,1.125,2.5,1.125
		s8,0.125,8.5-0.25s14.375-6,14.375-6s7.625,0.125,8,0.25s28.875,6,29.625,6.125s14.75-0.5,15.625-0.375s9.125-4.875,9.125-4.875
		l-1.625-5.125c0,0-12.25-15.5-12.875-15.125"/>
	<path fill="#5D3119" d="M90.063,115.046c-0.25,0.5-10,2.125-20.125,1.75s-30-2.5-32.625-3.5s-6.375-1.625-10.75,0.25
		s-11.625,4-14.625,4.5s-6.875-0.125-7.375-0.125s0.5,2,0.875,2.5s2.5,1.75,2.5,1.75s6.25-0.375,7.125-0.75s6.75-2.125,7.125-2.25
		s4.375-0.875,4.375-0.875s13.375,0.875,15.25,1.375s9.25,1.875,9.25,1.875s11.75,2.75,14,2.875s10.5,0.625,11.25,0.625
		s5,0.125,5.375,0.25s4.875-0.25,4.875-0.25l6.125-1.25L90.063,115.046z"/>
	<path fill="none" stroke="#000000" stroke-width="0.75" d="M76.063,95.921c0,0-16.625,7-18.875,7.375s-16.5,0.625-16.5,0.625
		s-5-10-6.25-11.25s-3.375-2.5-3.375-2.5s-0.5,0.75-1.125,0.875s-2.25-0.25-2.25-0.25s-1.375,2.5-1.375,3.625s0.25,4,1,5.25
		s1.75,2.375,1.75,2.375"/>
	<path fill="none" stroke="#000000" stroke-width="0.75" d="M26.313,94.921c0,0-4-4.875-6-5.625s-5.875-1-7-0.75
		s-2.5,1.25-2.75,2.125s-0.125,3.875,1,5.375s3.25,3.625,3.25,3.625s-1.625,2.75-1.75,4.375s0.75,6.375,0.75,6.375"/>
	<path fill="none" stroke="#000000" stroke-width="0.75" d="M14.313,100.796c0,0-3-1.25-4.875-1.125s-4.375,0.375-5,1.375
		s-1.75,4-0.75,5.625s1.875,2.375,3.125,2.625s3,1.375,3,1.375s0.25,1.5-1.125,2.125s-3.5,0.875-3.75,1.875s-1,3.5,0,4.75
		s1.875,2.625,3.375,2.625s7-0.5,9.875-1.375s6.5-2,9.125-2.25s7.875,0.375,12.75,0.875s18.25,4.25,25.125,5
		s18.75,1.125,21.875,0.625s9.75-2,9.75-2"/>
	<path d="M27.813,87.483c0,0-0.375,2.688-0.125,3.313s1.438,1.375,1.438,1.375l1.625-0.438L31,90.671l0.063-0.5L27.813,87.483z"/>
	<path d="M13.375,88.796c0,0-4.313-0.625-5.063-0.5s-1.188,0.75-1.188,0.75s1.875,1.125,3,1.625s2,0.438,2,0.438l1.313-1.063
		L13.375,88.796z"/>
	<path d="M0,102.608c0,0,4.75-0.313,5.313-0.188s1.375,0.875,1.375,0.875l-1.063,1.125L4,104.983l-3.875-2.125"/>
	<path d="M1.25,117.858l5.438-1.938c0,0,0.875,1.375,0.813,1.875s-1.438,1.375-2,1.5s-2.625-0.125-2.875-0.188
		S1.25,117.858,1.25,117.858z"/>
	<path fill="#834421" d="M13.438,64.839c0,0-0.999,10,0.418,12.75c1.416,2.75,2.666,1.167,2.666,1.167l0.5-8.833l-2.166-3.917
		l-0.918-1.167"/>
	<path fill="#834421" d="M23.355,84.506c0,0,2.416,1.416,4.25,1.333c1.832-0.083,3.75-0.833,3.75-0.833s-1.084-1.75-1.5-1.75
		c-0.418,0-5.084,0.584-5.334,0.667"/>
	<path fill="#834421" d="M55.438,93.089c0,0,1.418,1.334,2.418,1.334s3.333-0.75,3.333-0.75s-2.167-1.5-2.667-1.75"/>
	<path fill="#834421" d="M222.23,59.799c-0.125-2.125-1.5-15.25-2-16.625s-3.875-12.75-4.625-13.875s-3.875-5.875-5.25-7.5
		s-6.75-4.625-11-5.625s-10.375-3.125-19.5-1.75s-18.75,4.375-21.25,5.125s-13.375,6-13.375,6l-18.625-0.125
		c0,0,0.75-3.75-0.375-5.875s-1.5-5.125-2.875-6.875s-3.875-5.75-4.375-5.875s-3.375-1.625-4.25-1.5s-3.875-0.125-4.875,0.625
		s-5,4.625-5.875,5.75s-3.75,5-3.75,5s-3.125-0.625-5-1.625S83.855,5.674,83.855,5.674s0.25-2.625-0.125-3.125s-2.375-2.125-4-2
		s-9.375,0.25-11.75,1.375s-10.25,5.5-10.875,6.375s-2,4.5-1.5,6s1.375,5.5,2.25,6.625s1.625,2.125,1.625,2.125s-6.625,5.5-6.75,6
		s-4.5,9.125-4.5,9.125l-9.5,5.75L15.98,57.799l-2.625,4.875c0,0,0.5,16.5,1.75,18s5.25,4,6.5,4.25s10.75,0.5,10.75,0.5
		s1,8.125,1.625,9.125s4.125,4.5,4.625,4.75s2,0.375,2,0.375s-0.5-2.5-0.5-4.25s0.375-3.625,0.375-3.625s2.75,3.125,4.625,4
		s4.75,1.125,5.875,1s3.125-0.5,3.125-0.5s-4-2.75-4.75-3.625s-0.75-0.875-0.75-0.875s6.25,1.875,7.625,2.25s3-1.25,3-1.25
		l-1.375-2.75l8.625-2c0,0,7.625,0.5,7.875,2.375s3.75,11.375,4.375,12.875s5.625,9,6.25,10.25c0.274,0.549,0.521,1.224,0.716,1.961
		c0.014,0.011,0.027,0.017,0.04,0.027c0.621-0.251,1.33-0.188,1.818,0.436c2.804,3.582,5.508,7.238,8.371,10.767
		c3.2-1.198,8.624,2.609,12.46,5.793c0.695-0.171,1.469,0.058,1.952,0.808c0.166,0.258,0.302,0.506,0.429,0.753
		c0.147,0.07,0.287,0.154,0.413,0.255c1.042,0.834,1.216,1.197,1.641,2.347l1.66-0.271c0,0-0.75,6.375-1.375,8.25
		s-3.625,13-4,13.375s-4,0.5-5.25,0.75s-3.75,1.5-4.25,2.125s-2,2.25-2,2.25s1.5,1.125,3.25,1.625s4.375,1.375,7.125,1.375
		s9.125-1.25,9.125-1.25l8.625-2.75c0,0,10.75-17.375,10.875-17.75s4.25-10.5,4.25-10.5l6.5,1.875c0,0,2.5-0.25,3.5,1.125
		s4.375,8,4.375,8l-3.375,12.25c0,0-7.125,0.125-8.375,0.625s-3.75,1.625-4.25,2.125s-1.125,1.5-1.125,1.5s1.625,1.625,3,1.625
		s5.375,0.25,5.375,0.25l0.25,0.625c0,0,9.5,0.5,10.625-0.375s4.875-5.75,4.875-5.75l8-12.375l4.5-4.875l12.25,0.5l2.5,0.375
		l-5.75,17.125c0,0-4.75-1-6.125-0.75s-5.75,0.875-7,1.625s-4.625,4.25-4.625,4.25s1.875,0.5,3.125,1s4.5,1.5,6,1.375
		s6.375-0.5,7.25-0.375s10-0.375,10-0.375s21.25-25.75,21.375-26.125s-1.5-12.125-1.875-12.375s7-29.75,7-29.75l2.375-12.625
		c0,0,1.25-6.125,1.375-7.75S222.355,61.924,222.23,59.799z"/>
	<path fill="#5D3119" d="M111.855,37.549c0,0,1.125,8,0.875,10s-1.625,5.875-5.125,7s-19.25,3.875-19.25,3.875
		s9.375,1.875,11.125,3.125s3.25,2.625,1.625,4s-10.625,3.875-16.375,5s-12.5,1.25-12.5,1.25s1.25,6.875-1.375,10
		s-3.875,5.125-6.5,6.125s-12.5,1.5-12.5,1.5s5.5,4,6.875,4.375s4.375,0.25,4.375,0.25s-3.5-2.5-3.75-2.75s9.875-0.25,11.375-0.5
		s10.625-3.25,13.125-5.125s5.25-4.375,6.5-5.625s3.875-2.875,5.5-3.375s22.25-4.375,22.25-4.375l-7.5-6.25l14.5-1.25l-10.25-4.75
		l15.25-2.875c0,0-12.5-11-13.875-12.875s-4.125-7.5-4.125-7.5"/>
	<path fill="#5D3119" d="M79.355,103.174c-0.125-0.375,0.125-7.375,0.625-9.625s1.25-6.25,3.5-3.875s8.75,10.625,12.25,15.25
		s10.125,11.875,12.5,13.875s5.5,3.75,5.5,3.75s0.625,4.125,0.875,5.5s-0.125,5.25,0,6.5s-0.125,2.25-0.125,2.25
		s-9.625-2.375-15.5-7s-11.875-13-13.875-16.125s-5.75-8.75-5.75-8.75V103.174z"/>
	<path fill="#5D3119" d="M129.105,113.424c0,0,0.07,0.385,0.188,1.051c0.584,3.301,2.333,13.52,2.437,18.199
		c0.125,5.625,2.25,10.375-1,17.625s-7.75,13.75-7.75,13.75l4.625-1.125l20.625-31.375c0,0,0.625-18.625,0.375-20.875
		s-0.875-3-0.875-3s-1.25,4.375-2.5,7.125s-2.375,3.5-3.875,4.25s-7.75-0.75-11.5-5.75"/>
	<path fill="#5D3119" d="M148.73,109.549c0,0,2.5-14.625,2.625-16.125s1.5,2.375,2,3.5s1.375,5.625,1.375,7.125
		s-0.875,6.25-1.25,7.25s-1.375,4.125-1.75,4.5s-2.75,4.25-2.75,4.25s-0.625-6.125-0.375-9.375"/>
	<path fill="#5D3119" d="M148.855,128.299c0,0,4.625-1.5,7.25-3.375s4.25-4,6.5-7.75s2.25-3.75,2.25-3.75s-0.75,3.625-5.75,10.375
		s-9.125,11.75-9.625,12s-3.125,0.75-3.125,0.75l-2,0.25C144.355,136.799,147.48,129.299,148.855,128.299z"/>
	<path fill="#5D3119" d="M149.48,135.799c0,0,10.375,3.5,13,3.875s14.125,2.375,16.25,2.25s10.625-0.25,10.625-0.25l0.625-1.625
		c0,0-3-5.75-4.25-7.375s-1.25-1.625-1.25-1.625s-3.125,0.75-8.125,1s-14.75-0.375-16-0.625s-1.25-0.25-1.25-0.25L149.48,135.799z"
		/>
	<path fill="#5D3119" d="M172.355,140.924c0,0-6.625,11-9,14.125s-6.625,8.25-6.625,8.25l1.75-0.25c0,0,8.875-9.125,10.25-10.5
		s11-11.125,11-11.125l-0.875-3l-7,1.75"/>
	<path fill="#5D3119" d="M191.605,165.299c0,0,13.5-15.25,16.25-20.5s5-6.75,3.75-8.625s-5.375-5.5-8.5-7.875s-6.25-5.375-6-10.875
		s0.25-12.625,3.375-19.125s8.5-17.5,8.5-17.5s0.375,5.875,1.5,8.125s1.75,3.25,3.5,3.625s3.75,0.25,4.25-1.375
		s1.125-4.5,1.25-7.375s0.125-9.125,0.125-9.125s1.875,8.375,1.75,10.5s-0.25,10.125-0.625,12.875s-2.25,14.5-3,16.125
		s-1.375,4.25-1.25,5.25s10.25,13.375,10.25,13.375l-32.5,32.625L191.605,165.299z"/>
	<path fill="#FFFFFF" d="M33.793,59.736c0,0-13.688-1.938-17.688-1.625s-5,0.25-5,0.25l1.063,2.125l1.813,2.063l10.813,8.563
		l2.125,1.313l3.813-1.188c0,0-0.5-3.625-0.563-3.813s2.438-5.688,2.438-5.688l1.188-2.25"/>
	<ellipse fill="#FFFFFF" cx="50.262" cy="40.58" rx="12.156" ry="10.406"/>
	<ellipse fill="#FFFFFF" cx="71.887" cy="44.049" rx="14.594" ry="13"/>
	<ellipse fill="#0092FF" cx="62.98" cy="44.83" rx="5.188" ry="5.094"/>
	<ellipse fill="#0092FF" cx="42.668" cy="41.018" rx="4.438" ry="4.344"/>
	<circle fill="#00426B" cx="62.512" cy="44.83" r="2.219"/>
	<ellipse fill="#00426B" cx="42.355" cy="40.955" rx="1.875" ry="1.844"/>
	<ellipse fill="#FFFFFF" cx="64.637" cy="42.174" rx="1.344" ry="1.313"/>
	<circle fill="#FFFFFF" cx="60.699" cy="47.143" r="1.031"/>
	<ellipse fill="#FFFFFF" cx="44.043" cy="39.08" rx="1.125" ry="1.156"/>
	<circle fill="#FFFFFF" cx="40.855" cy="43.424" r="0.875"/>
	<ellipse fill="none" stroke="#000000" stroke-width="0.75" cx="71.855" cy="44.091" rx="14.5" ry="13.042"/>
	<path fill="none" stroke="#000000" stroke-width="0.75" d="M57.858,47.71c-0.485-1.258-0.608-2.637-0.429-3.98
		c-0.082-1.204,0.109-2.545,0.631-3.665c0.24-0.896,0.719-1.756,1.175-2.532c0.429-0.729,0.92-1.384,1.511-1.931
		c-2.031-3.272-6.021-5.512-10.641-5.512c-6.673,0-12.083,4.645-12.083,10.375s5.41,10.375,12.083,10.375
		c3.097,0,5.906-1.015,8.044-2.66c-0.005-0.013-0.014-0.025-0.019-0.039C58.023,48.028,57.928,47.89,57.858,47.71z"/>
	<line fill="none" stroke="#000000" stroke-width="0.75" x1="38.668" y1="44.299" x2="15.23" y2="58.174"/>
	<path fill="none" stroke="#000000" stroke-width="0.75" d="M51.668,30.174c0,0,1.563-2.625,4.688-4.813s12.125-7.625,12.125-7.625
		s-5.875-2.25-7.063-3.063s-1.438-1.125-1.438-1.125s5.625-2.5,13.563-1.875s10.75,1.125,10.75,1.125s-2.125-3.375-2.438-5.125
		s-0.313-2.625-0.313-2.625s3.125,1.688,6.438,4.313s7.188,6.25,9.063,6.875s3.125,0.875,3.125,0.875"/>
	<path fill="none" stroke="#000000" stroke-width="0.75" d="M95.605,26.111c0,0,3.75-8.125,7.063-12.5s7-7.313,8.5-7.75
		s5.375-1.375,7.688,1.313s4.438,5.5,5.813,8.688s1.75,4.75,1.875,5.938s0.125,8,0,8.188s-0.813,2.125-5.875,3.625
		s-12,3.188-12,3.188"/>
	<path fill="none" stroke="#000000" stroke-width="0.75" d="M100.418,28.986c0,0,4.313-7.625,9-10.063s4.938-2.5,4.938-2.5"/>
	<path fill="none" stroke="#000000" stroke-width="0.75" d="M111.418,36.049c0,0,2.563,5.938,6.75,10.063s11.938,11.5,11.938,11.5
		s-15.75,2.375-15.688,2.625s10.75,4.563,10.75,4.563l-14.813,1.313l7.313,6.625c0,0-20,2.688-23.063,4.313
		s-6.063,5.375-9.938,7.938s-6.125,4.188-11.5,5.313s-14,0.938-14,0.938s1.938,1.875,3.063,2.375s1.125,0.5,1.125,0.5
		s-5.25,0.813-9.188-0.375s-5.188-2-5.188-2s3.125,3.563,4,4s0.875,0.438,0.875,0.438s-4.438,1.5-7.625,0.125
		s-5.563-4.375-5.563-4.375s-1,3.813-0.563,5.75s0.438,1.938,0.438,1.938s-1.75,0.375-4.25-2.438s-3.25-5.125-3.563-7.125
		s0.063-4.75,0.063-4.75"/>
	<path fill="none" stroke="#000000" stroke-width="0.75" d="M11.605,58.361c0,0,4.063-0.438,10.313-0.125s13.125,1.438,16.125,2.438
		s5.375,2.438,5.375,2.438s-1.25,2.75-5.563,5.125s-11.188,4.25-11.188,4.25S15.23,64.111,13.543,62.361
		S10.918,58.549,11.605,58.361z"/>
	<path fill="none" stroke="#000000" stroke-width="0.75" d="M13.293,62.361c-0.271,5.895-1.271,12.895,1.729,17.895
		c8,10,24,3,34.85,4.523"/>
	<path fill="none" stroke="#000000" stroke-width="0.75" d="M28.293,72.361c0,0-0.063,6.125,0.688,7.813s3.5,5.438,3.5,5.438"/>
	<path fill="none" stroke="#000000" stroke-width="0.75" d="M59.418,23.486c0,0-3.438-4.563-3.875-8.063s0.125-5.438,2-7.063
		s8.313-5.5,11.938-6.625s7.625-1.25,9.875-1s3.063,0.813,3.75,1.688s0.688,4.063,0.688,4.063"/>
	<path fill="none" stroke="#000000" stroke-width="0.75" d="M221.689,85.091c0,0,0.584-4,0.584-7.417s0.5-7.333,0.25-12.75
		s-0.417-9.333-1.417-15.417s-1.5-9.5-3.5-14.917s-4.5-10.333-8.417-13.917s-13.5-5.75-20.083-6.167s-16.5,1.417-23,2.917
		s-19.5,7.5-21.084,8s-18.333,0.25-18.333,0.25"/>
	<path fill="none" stroke="#000000" stroke-width="0.75" d="M216.523,63.591c-0.167,0.25,5.583,15.751,4.916,24.417
		s-2.5,21.167-3.25,24.417s-3.582,5.667-0.666,9.75s9.083,10.583,9.083,10.583l-32.5,32.917c0,0-17.167,0.582-20.167,0.166
		s-7.667-1.834-7.917-2s3.834-4.333,6.834-5.083s7.416-1.167,9.083-0.667s1.667,0.5,1.667,0.5l6.25-18.333
		c0,0-7.749-13.584-8.833-17.167s-3.084-9.25-3.834-14s-1.25-9.665,1.25-14.749s7.333-11.667,7.333-11.667"/>
	<path fill="none" stroke="#000000" stroke-width="0.75" d="M148.189,109.258c0,0,0.5,11.25,0.417,14.5s0.167,7.25,0.167,7.25
		l-21.5,31.917c0,0-16.917,3.5-19.334,3.25s-4.833-0.75-4.833-0.75l-6-1.75c0,0,3.083-4.833,6.583-5s5.833,0.083,5.833,0.083
		s0.25-0.916,3-1.083s5.25,0.75,5.25,0.75"/>
	<path fill="none" stroke="#000000" stroke-width="0.75" d="M108.939,158.258c0,0,4.584-13.083,5.167-18s0.416-12.417-0.417-17
		s-1.333-8-1.333-8"/>
	<path fill="none" stroke="#000000" stroke-width="0.75" d="M74.106,90.175c0,0,2.667,8.832,4.417,12.416s3.916,6.917,6.583,11.084
		s8.833,12.417,12.25,14.917s9.75,6.167,11.667,6.75s5.583,1.5,5.583,1.5"/>
	<path fill="none" stroke="#000000" stroke-width="0.75" d="M145.272,136.841c0,0,5.334-1.166,8.084-2.333s7.25-4.416,9.833-7.083
		s6.25-8.333,6.917-11.083s1-3.167,1-3.167"/>
	<path fill="none" stroke="#000000" stroke-width="0.75" d="M148.773,119.841c0,0,3.582-4.25,4.249-6.583s1.834-9.167,1.334-11.75
		s-2.417-8.25-2.417-8.25"/>
	<path fill="none" stroke="#000000" stroke-width="0.75" d="M149.189,136.092c0,0,12.501,3.334,16.834,4s9.166,1.417,12.083,1.5
		s11.5,0.166,11.5,0.166"/>
	<path fill="none" stroke="#000000" stroke-width="0.75" d="M150.772,137.092c0,0,4.5,7.75,4.417,8s-3.833,12.666-3.833,12.666
		s-6.333-0.833-8.583,0.167s-4.667,3.583-4.667,3.583s1.083,0.667,2,1s2.916,0.667,4.333,0.75s2.334-0.167,2.334-0.167
		s-0.917,0.666,0.583,0.75s10.417-0.25,11-0.833s21.583-21.583,21.583-21.583"/>
	<path d="M152.294,93.132c0,0-1.876-4.188-2.604-4.896s1.479,3.792,1.938,5.167"/>
	<path d="M170.762,113.143c0,0,0.75-4.25,0.594-5.156s-0.156-0.906-0.156-0.906s0.719,4.875,0.125,6.406"/>
	<path d="M147.793,109.455c0,0,0.094-1.906-0.156-3.063s-0.281-1.281-0.281-1.281s1.188,3.031,1.219,4.25"/>
	<path d="M112.074,115.518c0,0-1.281-6.188-1.656-7.781s-0.375-1.594-0.375-1.594s2.688,8.063,2.719,9.063"/>
	<path d="M185.313,82.758c0,0,3.667-4.708,4.792-5.625s1.917-1.167,1.917-1.167s-5.125,6.166-6.25,7.375"/>
	<path d="M216.272,63.925c0,0-1.916-5.166-2.75-6.25s-0.834-1.084-0.834-1.084s2.583,1.876,4.25,7.334"/>
	<path d="M178.855,165.925c0,0,1.751-2.833,3.292-3.875s3.958-1.375,3.958-1.375s-3.708,1.916-4.583,2.958s-1.459,2.542-1.459,2.542
		"/>
	<path d="M171.855,165.05c0,0,1.209-3.084,2.542-4.042s4.708-1.541,4.708-1.541s-4.458,2.084-5.125,3s-1.375,3.291-1.375,3.291"/>
	<path d="M146.605,163.05c0,0,0.707-2.5,2.416-3.167s2.667-0.667,2.667-0.667s-3.126,1.166-3.542,2s-1.083,2.25-1.083,2.25"/>
	<path d="M141.563,162.633c0,0,0.416-1.707,1.833-2.666s2.959-0.959,2.959-0.959s-2.584,1.041-3.292,2s-1,2-1,2"/>
	<path d="M110.23,165.883c0-0.125,1.083-2.207,2.458-3.291s4.5-2,4.5-2s-4.291,2.333-4.708,3.083s-0.958,2.083-0.958,2.083"/>
	<path d="M102.355,165.133c0,0,1.083-1.832,2.125-2.916s1.749-1.708,2.833-1.875s1.667-0.084,1.667-0.084s-3.417,1.668-4.042,2.334
		s-1.75,2.666-1.75,2.666"/>
	<path d="M117.438,158.549l2.75,1.375c0,0-1.208-2.124-2.5-2.208"/>
	<path d="M31.355,59.591c0,0-12.584,0.832-12.084,2.25c0.5,1.416,10.584,9.916,10.584,9.916s9.25-4.332,10.584-5.416
		c1.332-1.084,3.457-2.959,2.979-3.229s-9.479-4.187-11.979-3.854"/>
	<path fill="#FFFFFF" d="M58.344,41.175c-0.199,0.539-0.355,1.09-0.504,1.644c-0.21,0.863-0.131,1.74-0.027,2.615
		c2.812-0.782,12.209-3.177,12.209-3.177l-0.75-3.5c0,0-6.25-0.333-6.583-0.25s-3.667,1-3.667,1l-0.74,1.199
		C58.369,40.836,58.41,40.996,58.344,41.175z"/>
	<path fill="#FFFFFF" d="M45.521,36.089c-0.334-0.167-3.416-0.75-3.75-0.75c-0.188,0-1.268,0.657-2.18,1.233
		c-0.227,0.713-0.471,1.439-0.817,2.107l8.413,5.326l1.418-4C48.605,40.006,45.855,36.256,45.521,36.089z"/>
</g>
</svg>
