<?xml version="1.0" encoding="utf-8"?>
<!-- Generator: Adobe Illustrator 13.0.0, SVG Export Plug-In . SVG Version: 6.00 Build 14948)  -->
<!DOCTYPE svg PUBLIC "-//W3C//DTD SVG 1.1//EN" "http://www.w3.org/Graphics/SVG/1.1/DTD/svg11.dtd">
<svg version="1.1" xmlns="http://www.w3.org/2000/svg" xmlns:xlink="http://www.w3.org/1999/xlink" x="0px" y="0px"
	 width="184.203px" height="192.583px" viewBox="0 0 184.203 192.583" enable-background="new 0 0 184.203 192.583"
	 xml:space="preserve">
<g id="frame_1">
	<ellipse fill="#FFFFFF" cx="44.627" cy="26.636" rx="10.5" ry="9.813"/>
	<ellipse fill="#FFFFFF" cx="29.596" cy="23.542" rx="10.156" ry="8.281"/>
	<path fill="#FFFFFF" d="M31.877,17.511c0.063-0.188,7.875-5.25,8.125-5.25s6.625-0.5,8.125-0.313s3.875,0.5,4.063,1.25
		s-2.938,6.063-3.125,6.75s-3.688,3.25-3.688,3.25l-8.313,11.688c0,0-4.625,7.25-4.5,7.813s0.625,3.438,0.5,4.375
		s-1.563,4.5-1.563,4.5l-1.438,1.375l-0.813,0.438l-5.063,1.125l-8.063-0.188l-3.188-0.375l-2.313-0.688L8.44,52.824l-0.938-0.625
		l-0.75-0.375l-2.25-0.875l-2.5-1.75l-0.875-1.688l-0.75-3.125l0.125-1.313l0.75-1.375l1.125-0.813l1.875-0.438l1.5-0.188
		l1.938-1.375l6.875-4.375c0,0,6.938-3.5,7.125-3.563s1.625-0.75,1.625-0.75l5.938-5.438l3.125-7.25"/>
	<path fill="#FFFFFF" d="M50.315,56.136c-0.75,0.75-5.25,20.5-5.25,20.5s2.5,10.5,2.25,11.75s2.75,13.5,3,14.25s4.5,6.5,5,7.25
		s4,6.5,4.75,7s1.125,2.375,1.125,2.375l1.25,3.75l1.938,5.75l0.563,2.5l1.563,5.313l0.375,4.375l0.313,5.125l0.063,4.125
		l0.063,5.75l-0.75,6.438c0,0-0.875,5.875-0.938,6.063s-0.625,3.688-0.625,3.688l-0.438,3.375c0,0-0.563,1.813-0.625,2.063
		s-0.25,1.688-0.313,2.063s-0.563,2.25-0.563,2.25l-5.438,2l-0.563,1.375l-0.563,1.188l-0.688,0.938l-0.313,1.438
		c0,0,0.438,0.188,0.688,0.188s2.188,0.375,2.188,0.375h1.063l0.688,0.25l2.125,0.313c0,0,0.438-0.063,0.375,0.125
		s0.25,0.5,0.25,0.5s7.188-0.125,7.375-0.188s3.5-0.313,3.5-0.313l2.438-0.75l1.063-0.938l0.813-1.688v-1.5l-0.813-5.063
		l-0.563-6.875l-0.563-6.438l-0.625-9.125v-5.625l0.375-5.5l0.625-6.375l1.313-8l3.25-14.813c0,0,5.375-0.688,5.688-1.063
		s6.125-5.938,6.125-5.938s2.438-2.313,3.438-3.313s11.813-8.188,12.188-8.5s5.625-2.5,5.625-2.5s-0.875-4.25-1.313-4.688
		s-28-8.813-28-8.813L72.69,70.886l-1.125-2.125l-1.563-1.688c0,0-1.563-2.438-1.563-2.625s-1.313-3.813-1.313-3.813l-1-2.625
		l-0.563-2.063l-0.313-1.75l-0.625-1.938c0,0-0.688-1.375-1.125-1.25s-6.125,1.5-6.563,1.625s-6.625,3.063-6.625,3.063"/>
	<path fill="#FFFFFF" d="M124.065,114.011c0,0,8.125,10.75,8.5,11s13.125,4.75,13.75,5.125s8.5,1.75,8.875,1.875
		s3.375,2.125,3.375,2.125s0,11.25-0.125,11.625s-1,12-1,12.75s0.5,9.625,0,9.875s-7,5.5-7,5.5l-2.5,2.25l-0.875,0.75l-1.625,2.813
		l-1.063,1.25l-1.063,0.938l-1.75,1.313l-2.438,1.563l-1.313,1.188l-0.625,1.375v1.625c0,0,0.313,0.688,0.5,0.688
		s1.813,0.125,1.813,0.125l0.5,0.188l-0.125,0.625c0,0,0.563,0.5,0.813,0.5s1.875-0.063,1.875-0.063l1,0.063l1.25,0.125l3.125,0.25
		c0,0,2.5-0.438,2.75-0.438s1.75-0.5,1.938-0.563s1.875-0.688,1.875-0.688l1.438-0.938l1.063-1.063l0.75-1.438l1.688-3.25
		l2.125-5.688l1.125-3.625l1.5-6.75l0.938-4.125l0.813-4.438l0.313-4.625l0.063-8.563l-0.563-7.5v-4.5l-0.875-7.375l-0.5-1.563
		l-1.5-0.25l-2.688-1.375l-2.438-1.875c0,0-2.313-1.5-2.688-1.5s-14.188-6-14.875-6.25s-11.938,0-11.625,0s-4.5,0.25-4.688,0.375"/>
	<path fill="#B2B2B2" d="M46.502,46.824l-0.375,2.75c0,0-0.063,4.25-0.188,4.438s-1.063,2.063-1.125,2.25s-0.625,2.5-0.625,2.5
		s-2.063,4.938-2.75,6.813s-2.438,9.188-2.75,10.688s-0.688,3.75-0.938,5.375s-0.5,3.938-0.438,6s0.063,2.75,0.313,4.625
		s0.688,4.688,1.375,6.375s2.063,4.688,3.875,7.5s3.375,4.75,4.125,5.75s0.875,2.125,0.875,2.125l0.813,3.688
		c0,0,1.25,5.188,2,7.063s1.313,3.563,2.063,6.313s1.5,5.5,1.75,7.25s0.625,6.625,0.625,8s0.188,5.188,0.063,7.25
		s-0.125,6.188-0.438,8.063s-0.813,4.75-1.25,6.625s-0.563,1.563-1.063,3.813s-0.688,2.75-1,4s-0.625,2.875-0.625,2.875
		l-2.813,1.188l-2.75,1.563l-1.313,1.75l-0.188,1.25l0.688,1c0,0,1.125,0.25,1.313,0.25s1.375,0.063,1.375,0.063l0.438-0.125
		l-0.438,0.5l3.188,0.063v0.5l2.813,0.188h2.188l0.5-0.125l0.938-2.188c0,0,1.5-1.313,3.063-1.75s3.063-0.938,3.063-0.938
		l1.625-7.688l0.563-3.813c0,0-1.875-8.438-1.75-10.875s-0.25-14.625-0.25-14.625s1.375-8.5,1.438-8.688s1.188-2.625,1.188-2.625
		l-2.188-8.188l-2.688-8.25l-2.563-8.563c0,0-0.938-0.875-2.438-3.688s-4.313-10.438-5.375-15.5s-0.625-11.5-0.5-14.813
		s0.875-8.875,2.313-12.313s3.563-6.188,5.625-7.188s3.313-1,4-1.063s3.313,0.063,3.313,0.063s-0.063-1.875-0.188-2.125
		s-0.5-1.813-0.5-1.813l-0.125-1.5l0.063-0.813v-1.5l-0.25-1.188c0,0-1.313-0.813-1.813-0.625s-1.5,0.063-2.063,0.125
		s-6.75,0.5-6.75,0.5l-6.5-0.938l-0.438,2"/>
	<path fill="#B2B2B2" d="M73.981,107.219c0,0-1.167,2.668-1.5,4.584s-0.666,5.75,0.667,7.833s2.5,3.583,2.5,3.583
		s-1.501,9.417-2.167,14.417s-1.249,9.334-1.416,14s-0.333,7,0.667,10.75s3.416,8.083,3.416,8.083s-0.332-7.583-0.416-7.833
		s-0.25-5.917-0.25-5.917s0.334-8.167,0.25-8.5s0.833-8.083,0.833-8.083s2.166-10.167,2.083-10.5s0.917-4.417,0.917-4.417
		l2.583-1.083l2.75-1.667c0,0,6.666-5.5,6.833-5.75s6.833-6,7.75-7s4.501-4.833,4.501-4.833l3.333-2.5l2.167-1.667l1.583-0.75
		l1.833-0.75l0.5-0.167l-0.25-2.583l0.167-2c0,0-1.501-0.667-5.417,2s-3.333,2.084-8.083,5.417s-11.083,9.5-13.75,11.333
		s-4.667,3-4.667,3"/>
	<path fill="#B2B2B2" d="M113.565,98.136l-0.167,3.666c0,0,0.334,4.75,1.167,6.667s3.583,5.666,5.083,7.583s4.5,5.167,4.5,5.167
		s-2-0.5-2.5-0.583s-6.751-2.583-7.167-2.75s-6.249-1.583-6.666-1.75s-2.084-1.749-2.334-1.833s5.834,7.084,12.167,10.25
		s8.416,3.834,9.083,4s4.417,0.333,4.417,0.333l2.917,0.583l2.666,1.583l2.667,1c0,0,0.583,2.751,1.083,6.334
		s0.751,6.999,0.751,11.333s0.415,7.001-0.001,10.334s-0.75,7.25-3.75,10.333s-5.166,4.333-6.916,5.083s-3.417,0.917-3.417,0.917
		l-1.5,3.333c0,0-3.999,1.666-4.666,2.583s-2.667,3.167-2.667,3.167l-0.25,1.333l1.333,0.334h1.25l-0.083,0.583l2.833,0.667
		l1.584,0.166c0,0-0.417,0.584,0.083,0.667s3.167,0.417,3.167,0.417l1.916-0.084l2-0.75l1.834-0.833l2.333-1l1.583-1.667
		l0.917-1.333c0,0,2.417-7,3-9.5s2.667-10.833,3.25-12.75s0.999-2.5,1.166-7.25s-0.084-12.832-0.25-13.916s-1.417-6.667-1.5-6.917
		s8,1,8,1s1.251,7.75,1.084,12.5s-0.333,7.999-0.75,10.333s-1.001,5.918-1.667,8.084s-1.166,3.834-1.916,5.25
		s-0.75,2.416-1.167,3.666s-1.333,2.5-1.333,2.5s2.249,0.666,4.666-0.75s5.5-3.75,6.667-6.583s2.75-6.917,2.75-10.5
		s0.082-11.083-0.834-17.833s-1.916-11.834-1.916-11.834s-7.333,0.668-10.75-0.166s-11.751-4.75-15.167-7.667
		s-7.583-8.334-7.583-8.334"/>
	<path fill="#B2B2B2" d="M118.94,123.762c0,0,5.208,6.083,5.458,6.333s5.042,0.667,5.792,0.875s3.709,0.042,3.917,0.125
		s0.5-0.209,0.625-0.292s0.166-0.916,0.083-1.041s-3-2.376-3.25-2.459s-10.166-2.958-10.333-2.958s-2.125-0.75-2.125-0.75"/>
	<path fill="#7C7C7C" d="M63.232,124.636c0,0-0.022,0.119-0.063,0.339c-0.352,1.904-2.082,11.37-2.604,16.078
		c-0.583,5.25-1.334,9.749-1,13.999s-0.083,5.168,0.917,7.834s4,8.666,4,8.666l0.75-0.75l-0.917-2.75l-0.916-5.833v-9.833v-7.334
		l0.083-3.416l1.083-4.917l1-2.583l-2.167-9.917"/>
	<path fill="#7C7C7C" d="M98.066,110.802c0,0,1.416,3.251,2.083,4.334s2.667,4.417,3.667,5.25s4.75,4.75,5.75,5.333
		s4.332,2.749,5.666,3.583s4.501,2.918,5.334,3.334s4.499,0.75,5.416,1s5.167,0.75,5.167,0.75l2.833,0.333
		c0,0,0.334,9.833,0.417,12.333s-0.083,5.084-0.333,6.834s-1.166,5.75-1.5,7.083s-0.416,3.333-1,4.833s-1.417,3.334-1.917,4.834
		s-2.5,5.5-2.5,5.5s3.667-0.751,4-0.834s2.917-1.25,4-2.583s3.917-4.916,4.667-7.833s1.166-8.417,1.083-11.417s0.333-9.833-0.167-13
		s-1-6.75-1-6.75l-0.5-2.083l-4.333-1.833c0,0-6.833-0.667-9.25-1.417s-6.667-3.25-8.167-4.25s-3.749-2.333-6.416-4.833"/>
	<path fill="#574C3F" d="M70.981,68.303c0,0-1.25,3.583-1.5,5.75s-1.167,7.167-0.5,12.083s1.667,7.167,3.417,10.5
		s5.166,6.667,8.583,7.167s3.916,0.166,8-1.584s5.334-2.75,8.834-4.5s6.667-3.5,8.667-3.583s6.583,0.167,6.583,0.167l0.416,4.083
		c0,0,0.334,1.25,1.834,4.667s3.916,6.583,6.333,9s4.666,4.5,9,6.083s6.167,2.75,13.25,2.917s13.583,0,13.583,0l-3.166-3.75
		l-1.917-2.334l-1.667-2.333l-1.833-3l-0.833-2.417l-1-2.5l-1.5-4.083l-0.667-2.166l-0.666-2.5l-0.584-2.084l-0.416-0.916
		l3.249,0.833l2.834,0.583l2.416,0.5l4.25,0.167l4.334,0.166h4.166l5.417-2l4.75-2.416l4.167-2.834l2.333-2.749l1.917-4.167
		l0.5-2.917l-0.25-4.417l-1.084-5.75l-1.25-3.75l-2-5l-2.25-3.75l-1.666-3.167l-2.334-2.833c0,0,0.918,4.583,1.334,6.333
		s1.25,4.5,1.25,4.5l0.25,2.75l0.5,3.25c0,0,0.25,2.5,0.25,2.75s0.083,3.25,0.083,3.25l-0.166,3.5l-0.917,2.667l-1.167,1.5
		l-0.833,1.25l-1,1.083l-1.167,1.25l-3.416,1.667l-3.084,0.333l-3.333,0.25l-5.75-0.333l-3.333-0.584l-3.917-1l-5.25-1.5
		l-2.167-1.416l-1.25-0.584l-1.25-4l-2-3.417l-3.083-3.667l-4.334-2.333l-3.666-1h-4.167l-4.166,0.417l-5.584,0.917l-5.75,1.25
		l-9.75,1.917l-7.75,1.5h-5.417h-2.666l-2.417-0.167l-3.333-0.75l-1.667-1.417L70.981,68.303z"/>
	<path fill="#574C3F" d="M28.814,15.553c0,0,1.667,0.417,2.333,0.667s2,1.25,2,1.25l0.5,0.25c0,0,0.75-0.417,2.25-1.667
		s2.749-1.833,5.083-2.333s5.584-0.417,6.667-0.25s1.667,0.417,1.667,0.417l-0.417,3.583l2.667,1.833l2,1.333
		c0,0,0.834,1.833,1,2.167s0.249,1.5,0.416,1.75s0.416,1.167,0.5,1.5s0.083,1.25,0,1.833s-0.417,1.417-0.5,1.667
		s-0.5,1.167-0.583,1.417s-0.75,1.25-0.75,1.25l-2.75,2.5l-2,0.833l-2.583,0.583l-2,0.167l-3.75-0.667l-1.584-0.75
		c0,0-1.166-0.833-1.416-1.083s-1.084-1-1.334-1.083s-1.083-1.167-1.083-1.167s-1.5,2-2.667,3.667s-1.167,3.25-1.25,5.5
		s0.333,4.333,0.333,5.75s0.583,2.25-0.417,3.75s-2.583,3.417-2.583,3.417l10.25-4.25c0,0,7.416-4.417,8.416-4.917
		s8.168-5.667,8.834-6.167s7.833-9.084,7.583-8.917s-1.334-1.5-1.417-2.083s2.75-5.333,2.75-5.333s2.084-0.083,2.417-0.25
		s1.583-0.833,1.583-0.833s1.918,0.667,3.084,1.167s6,0.917,6,0.917l1.916-0.167l4.667-0.25l2.583-0.25l2.5-0.333l2.75-0.667l3.25-1
		l1.167-0.5l-3.75-3.25l-3.5-2.583l-3.417-2.083l-4.25-2.5L77.065,6.97l-3.5-1.417L72.731,4.97l2.167-2l1.5-1.417L71.731,0.97
		l-4.833-0.75h-7.5l-4.417,0.333L51.815,0.47l-4.167,1.417l-3.583,1.917l-2.167,2.083L40.065,7.72l-0.917,1.417l-3,1.333l-4.083,2.5
		L28.814,15.553z"/>
	<path fill="#3D352C" d="M63.565,18.074c0,0-1.563-1.25-1.875-1.5s-0.438-0.5-0.438-0.5s-2.063,8.313-4.313,12.313
		s-3.313,5.813-6.063,8.5s-7.938,7.563-11.063,9.875s-8.875,6.25-8.875,6.25s5.625-2.188,6.313-2.625s3.938-1.938,3.938-1.938
		l3.438-1.25l2-0.563l3.063,0.5c0,0,3.438,0.375,3.75,0.375s2.75,0.188,2.75,0.188s2.625,0,2.813,0s2.063-0.25,2.313-0.313
		s1.813-1.063,1.813-1.063l1.875-1.375l1.813-2.375l0.813-1.375l0.875-1.813l0.813-2l0.938-3.438l0.375-3.563l-0.063-3.438
		l-0.313-2.875l-0.563-1.563l-0.5-1.375l-0.125-0.438l-2-1.125l-1.688-0.625l-1.563-1L63.565,18.074z"/>
	<path fill="#3D352C" d="M100.085,108.969c0,0,1.688,3.75,4.625,5.938s5.5,4,7.938,4.938s4.625,1.188,6.375,1.313
		s4.813,0.125,4.813,0.125s-2.75-2.438-3.313-3.063s-3.75-4.875-3.75-4.875l-1.063-1.938l-0.813-1.625l-0.688-1.688l-0.688-2.688
		l-0.5-3.063l-0.063-1.188l-0.063-1l0.063-0.875l-1.313,0.188l-2.313,1.375l-2.063,1.25l-1.813,1.375l-1,1.25l-1.438,1.125
		l-2.063,1.813L100.085,108.969z"/>
	<ellipse fill="#20A0FF" cx="37.909" cy="26.761" rx="3.781" ry="3.75"/>
	<ellipse fill="#004774" cx="37.409" cy="26.574" rx="1.531" ry="1.5"/>
	<ellipse fill="#20A0FF" cx="23.19" cy="24.136" rx="3.125" ry="3"/>
	<ellipse fill="#004774" cx="22.909" cy="24.074" rx="1.094" ry="1.063"/>
	<ellipse fill="#FFFFFF" cx="39.252" cy="24.667" rx="1" ry="0.906"/>
	<ellipse fill="#FFFFFF" cx="35.721" cy="28.324" rx="0.719" ry="0.688"/>
	<ellipse fill="#FFFFFF" cx="24.377" cy="22.73" rx="0.813" ry="0.781"/>
	<ellipse fill="#FFFFFF" cx="21.721" cy="25.699" rx="0.656" ry="0.625"/>
	<path fill="none" stroke="#020202" stroke-width="0.75" d="M28.315,15.636c0,0,6.75-5.313,9.938-5.875S48.377,8.886,51.44,9.324
		s6.188,1,6.188,1s2.5-2.75,4.375-3.688s8-1.875,10.375-1.313s6.625,2.063,13.313,6.188s11.438,8.25,11.438,8.25
		s-6.75,2.125-8.375,2.375s-7.063,0.813-11.125,0.688s-6.688-1.25-7.563-1.5s-0.875-0.25-0.875-0.25s1.125,3.438,1.25,5.563
		s0.125,7.188-0.938,10.25s-2.5,5.625-4.125,7.5s-1.75,2.313-5,3.063s-3.938,0.438-6.563,0.313s-5.75-1-7.25-0.938
		s-3.063,0.625-6.063,2.063s-2.375,1.375-7.375,3.188s-6.625,2.313-10.375,2.5s-6.063,0.188-8.813-0.313s-5.188-1.25-5.938-1.688
		s-0.938-0.688-0.938-0.688"/>
	<path fill="none" stroke="#020202" stroke-width="0.75" d="M5.164,40.596c5.709-4.239,11.776-7.286,18.151-10.397"/>
	<path fill="none" stroke="#020202" stroke-width="0.75" d="M1.502,41.824c0,0-0.239,0.226-0.497,0.605
		c-0.317,0.466-0.663,1.165-0.628,1.958c0.063,1.438,0.438,3.875,2.375,5.25s3.563,2.563,5.813,2.063s3.875-1.125,5.75-2.75
		s3.063-2.688,3-4.5s-1.063-3-2.75-3.5s-9.938-0.375-10.938-0.313S2.065,41.449,1.502,41.824z"/>
	<path fill="#020202" d="M57.971,10.449c0,0-0.344,0.313-0.844,1.328s-0.5,1.016-0.5,1.016s0.125-2.266,1.156-3.016"/>
	<path fill="#020202" d="M69.471,21.636c0,0-3.406-1.531-5-2.875s-1.688-1.5-1.688-1.5s7.938,4,8.75,4.219"/>
	<path fill="#020202" d="M12.69,41.167c0,0-4.625,0.844-6.344,1.969s-2.375,1.875-2.094,3s0.219,0.594,1.375,2.156
		s3.094,3.406,3.094,3.406s4.219-1.656,4.875-2.094s3.688-3.969,3.719-4.75s-0.25-2.906-0.375-2.75S14.502,40.449,12.69,41.167z"/>
	<path fill="#020202" d="M2.049,40.917c0,0-0.703,0.484-0.969,0.781s0.141,0.328,0.141,0.328l0.547-0.391l0.563-0.766"/>
	<ellipse fill="none" stroke="#020202" stroke-width="0.75" cx="44.565" cy="26.595" rx="10.75" ry="9.708"/>
	<path fill="none" stroke="#020202" stroke-width="0.75" d="M33.898,23.898c0.007-0.038,0.028-0.061,0.04-0.094
		c0.257-1.128,0.942-2.146,1.824-2.95c-1.174-2.988-4.194-5.135-7.78-5.135c-4.603,0-8.333,3.507-8.333,7.833
		s3.731,7.833,8.333,7.833c2.387,0,4.524-0.958,6.043-2.473C33.484,27.322,33.642,25.197,33.898,23.898z"/>
	<path fill="none" stroke="#020202" stroke-width="0.75" d="M38.899,9.553c0,0,2.833-4.5,5.333-5.917s4.833-2.417,7.833-2.917
		s12.25-0.333,15.667-0.25s8.833,1.25,8.833,1.25l-4.188,3.604"/>
	<path fill="none" stroke="#020202" stroke-width="0.75" d="M46.232,46.97c0,0,0.084,6-1.083,8.833s-3.834,9.75-5.084,14.417
		s-2.75,13.584-2.583,18s0.416,8.917,2.833,13.75s6.251,9.999,10.334,13.666s10.083,7.334,11.083,7.834s1.333,0.666,1.333,0.666
		s0.563,1.875,1.188,4.688s2.063,5.563,2.563,11.063s0.563,14.5,0.188,18.938s-1.063,7.188-1.938,12.063s-2.125,11.188-2.125,11.188
		s-4.75,1.375-6,2.938s-1.625,4-1.625,4l3.813,0.125l-0.125,0.688h3.5v0.688c0,0,5.25-0.125,7.813-0.188s5.188-0.5,6.313-1.5
		s1.438-1.188,1.5-2.938s-0.688-4.875-0.875-6.938s-0.688-5.688-1-9.563s-0.813-11-0.75-15.125s0.188-6.188,0.688-11.063
		s0.938-6.625,1.75-11s2.063-9.313,2.5-11.813s1.063-4.813,1.063-4.813"/>
	<path fill="none" stroke="#020202" stroke-width="0.75" d="M79.315,125.469c0,0,4.25-1.582,7.25-4.166s5.916-5.251,9.833-9.001
		s7.668-7.499,10.334-9.666s4.249-3.083,5.166-3.25s1.25-0.167,1.25-0.167s-0.084,3.917,0.5,6.167s2.416,6.75,4.333,9.25
		s5.25,6.582,9.667,9.916s8.5,7,15.75,8.5s9.333,1.834,9.333,1.834s1,12.667,0.667,17.75s-2.083,13.167-4,17.75s-2.25,6.416-4,9.166
		s-3.001,3.168-4.667,4.334s-3.082,2.082-3.416,3.166s-0.25,2.084,0.25,2.417s2.416,0.417,2.416,0.417s-0.416,0.75-0.083,1.083
		s3.334,0.167,3.667,0.25s0.333,0.083,0.333,0.083s2.999,0.5,5.333,0.167s5.416-1.749,7.25-3.333s4.917-10.168,5.917-13.584
		s2.25-8.916,2.917-12.333s0.834-8.084,0.917-12.25s-0.417-13.834-0.667-17.417s-1.25-8-1.25-8s-3.668-0.583-6.584-3.583
		s-6.5-6.666-8.5-11.083s-3.499-8.333-4.499-11.5s-1.667-6.5-2.584-10.25s-4.001-12.333-5.667-14.917s-4-5.25-8.083-6.333
		s-7.999-0.917-12.916-0.167s-11.25,2.167-17.417,3.417s-9.916,2.25-14.833,2s-8.333-0.167-11.5-3.167s-3.5-4.75-4.75-8.5
		s-1.833-6.833-2.25-9.583s-0.584-4.833-0.584-4.833"/>
	<path fill="none" stroke="#020202" stroke-width="0.75" d="M47.815,112.699c0,0,1.563,8.75,3.125,12.688s2.688,9.563,3.438,12.563
		s0.688,6.75,0.75,10.875s0.125,7.375-0.375,12.125s-0.813,4.875-1.75,9.438s-2.375,8.625-2.375,8.625s-3.625,1.375-4.813,2.375
		s-1.688,2.125-1.813,2.75s-0.125,0.625-0.125,0.625s0.375,1,1.063,1.063s2.625,0.125,2.625,0.125l-0.438,0.5l3.563,0.063
		l-0.438,0.625h5.625"/>
	<path fill="none" stroke="#020202" stroke-width="0.75" d="M65.065,170.886c0,0-1.625-5.188-1.688-9.688s0.063-13.625,0.063-16.563
		s0.188-2.813,0.813-6.25s1.375-4.438,1.375-4.438"/>
	<path fill="none" stroke="#020202" stroke-width="0.75" d="M97.981,110.969c0,0,3.001,6.999,7.334,11.083
		s13.25,10.084,17.25,11.167s11.25,1.583,11.25,1.583s0.584,14.5,0.25,17.75s-1.834,11.083-3.167,14.75s-3.332,7.917-4.166,9.917
		s-1.084,2.584-1.084,2.584s-3.416,1.166-4.416,2.166s-2.918,3.416-3.084,4s0.167,1.25,0.167,1.25l2.583,0.084l-0.083,0.666
		c0,0,2.75,0.667,3.25,0.667s0.833,0,0.833,0l-0.166,0.667c0,0,4.834,0.417,6,0s3.332-1.084,4.916-2.167s2.584-1.916,3.167-3.083
		s1.333-2.834,2.833-8.834s3.834-14.499,4.167-16.666s0.249-12.75,0.333-16.167s-1.583-8.917-1.583-8.917"/>
	<path fill="none" stroke="#020202" stroke-width="0.75" d="M139.565,80.636c0,0,7,3.625,14.25,4.5s13.75,1.5,17.75-2
		s5.625-7.625,4.625-15.875s-3.625-18-3.625-18s7,9.125,9.125,17.25s3.25,16-2.125,20.625s-10.875,7.75-16.5,8.125
		s-16.125-1.25-17.125-1.5s-2.625-0.75-2.625-0.75"/>
	<path fill="#020202" d="M113.471,99.199c0,0-0.188-7.719,0.344-9.938s0.688-2.625,0.688-2.625s-1.469,3.188-1.625,5.5
		s-0.156,7.5-0.156,7.5"/>
	<polyline fill="#020202" points="63.315,123.97 55.523,100.428 62.69,124.345 	"/>
	<path fill="#020202" d="M81.815,115.678c0,0-2.583-2.209-4.25-4s-3.543-4.542-3.834-6s-0.291-3.375-0.291-3.375
		s-1.084,3.125,0.208,5.25s6.291,7.834,6.833,8.459s0.542,0.625,0.542,0.625"/>
	<path fill="#050505" d="M46.941,186.304c0.084-0.167,0.876-2.584,2.334-3.709s1.625-1.208,1.625-1.208s-3.042,4.708-3.167,4.958"/>
	<path fill="#050505" d="M50.4,186.22c0,0,1.75-3.041,2.75-3.958s1-0.917,1-0.917l-3.375,5.792"/>
	<path fill="#050505" d="M58.858,189.012c0,0,0.458-1.584,1.458-2.834s1.375-1.416,1.375-1.416s-2.334,4.625-2.417,5"/>
	<path fill="#050505" d="M62.358,189.762c0,0,0.959-3.126,1.875-4.084s1.166-1.166,1.166-1.166l-2.333,6"/>
	<path fill="#020202" d="M120.607,187.179c0,0,0.25-1.938,0.958-2.979s1.917-1.792,1.917-1.792s-2.126,4.626-2.209,5.084
		s-0.166,0.521-0.166,0.521"/>
	<path fill="#020202" d="M124.502,188.554c-0.021-0.063,0.604-3.666,1.625-4.625s1.521-1.042,1.521-1.042s-1.146,1.396-1.708,2.667
		s-0.625,3.438-0.625,3.438"/>
	<path fill="#020202" d="M139.815,189.742c0,0-0.042-1.958,1.333-3.313s1.375-1.354,1.375-1.354s-2.583,5.374-2.396,5.771"/>
	<path fill="#020202" d="M143.627,191.117c0,0-0.209-3.146,0.604-4.313s2.5-2.375,2.5-2.375s-1.167,1.688-1.688,2.625
		s-0.791,2.604-0.833,3.313s0,0.854,0,0.854"/>
</g>
<g id="frame_2">
	<path fill="#FFFFFF" d="M49.897,56.386c-0.75,0.75-5.25,20.5-5.25,20.5s2.5,10.5,2.25,11.75s2.75,13.5,3,14.25s4.5,6.5,5,7.25
		s4,6.5,4.75,7s1.125,2.375,1.125,2.375l1.25,3.75l1.938,5.75l0.563,2.5l1.563,5.313l0.375,4.375l0.313,5.125l0.063,4.125
		l0.063,5.75l-0.75,6.438c0,0-0.875,5.875-0.938,6.063s-0.625,3.688-0.625,3.688l-0.438,3.375c0,0-0.563,1.813-0.625,2.063
		s-0.25,1.688-0.313,2.063s-0.563,2.25-0.563,2.25l-5.438,2l-0.563,1.375l-0.563,1.188l-0.688,0.938l-0.313,1.438
		c0,0,0.438,0.188,0.688,0.188s2.188,0.375,2.188,0.375h1.063l0.688,0.25l2.125,0.313c0,0,0.438-0.063,0.375,0.125
		s0.25,0.5,0.25,0.5s7.188-0.125,7.375-0.188s3.5-0.313,3.5-0.313l2.438-0.75l1.063-0.938l0.813-1.688v-1.5l-0.813-5.063
		l-0.563-6.875l-0.563-6.438l-0.625-9.125v-5.625l0.375-5.5l0.625-6.375l1.313-8l3.25-14.813c0,0,5.375-0.688,5.688-1.063
		s6.125-5.938,6.125-5.938s2.438-2.313,3.438-3.313s11.813-8.188,12.188-8.5s5.625-2.5,5.625-2.5s-0.875-4.25-1.313-4.688
		s-28-8.813-28-8.813L72.272,71.136l-1.125-2.125l-1.563-1.688c0,0-1.563-2.438-1.563-2.625s-1.313-3.813-1.313-3.813l-1-2.625
		l-0.563-2.063l-0.313-1.75l-0.625-1.938c0,0-0.688-1.375-1.125-1.25s-6.125,1.5-6.563,1.625s-6.625,3.063-6.625,3.063"/>
	<path fill="#FFFFFF" d="M123.647,114.261c0,0,8.125,10.75,8.5,11s13.125,4.75,13.75,5.125s8.5,1.75,8.875,1.875
		s3.375,2.125,3.375,2.125s0,11.25-0.125,11.625s-1,12-1,12.75s0.5,9.625,0,9.875s-7,5.5-7,5.5l-2.5,2.25l-0.875,0.75l-1.625,2.813
		l-1.063,1.25l-1.063,0.938l-1.75,1.313l-2.438,1.563l-1.313,1.188l-0.625,1.375v1.625c0,0,0.313,0.688,0.5,0.688
		s1.813,0.125,1.813,0.125l0.5,0.188l-0.125,0.625c0,0,0.563,0.5,0.813,0.5s1.875-0.063,1.875-0.063l1,0.063l1.25,0.125l3.125,0.25
		c0,0,2.5-0.438,2.75-0.438s1.75-0.5,1.938-0.563s1.875-0.688,1.875-0.688l1.438-0.938l1.063-1.063l0.75-1.438l1.688-3.25
		l2.125-5.688l1.125-3.625l1.5-6.75l0.938-4.125l0.813-4.438l0.313-4.625l0.063-8.563l-0.563-7.5v-4.5l-0.875-7.375l-0.5-1.563
		l-1.5-0.25l-2.688-1.375l-2.438-1.875c0,0-2.313-1.5-2.688-1.5s-14.188-6-14.875-6.25s-11.938,0-11.625,0s-4.5,0.25-4.688,0.375"/>
	<path fill="#B2B2B2" d="M46.209,46.699"/>
	<path fill="#B2B2B2" d="M46.084,47.074l-0.375,2.75c0,0-0.063,4.25-0.188,4.438s-1.063,2.063-1.125,2.25s-0.625,2.5-0.625,2.5
		s-2.063,4.938-2.75,6.813s-2.438,9.188-2.75,10.688s-0.688,3.75-0.938,5.375s-0.5,3.938-0.438,6s0.063,2.75,0.313,4.625
		s0.688,4.688,1.375,6.375s2.063,4.688,3.875,7.5s3.375,4.75,4.125,5.75s0.875,2.125,0.875,2.125l0.813,3.688
		c0,0,1.25,5.188,2,7.063s1.313,3.563,2.063,6.313s1.5,5.5,1.75,7.25s0.625,6.625,0.625,8s0.188,5.188,0.063,7.25
		s-0.125,6.188-0.438,8.063s-0.813,4.75-1.25,6.625s-0.563,1.563-1.063,3.813s-0.688,2.75-1,4s-0.625,2.875-0.625,2.875
		l-2.813,1.188l-2.75,1.563l-1.313,1.75l-0.188,1.25l0.688,1c0,0,1.125,0.25,1.313,0.25s1.375,0.063,1.375,0.063l0.438-0.125
		l-0.438,0.5l3.188,0.063v0.5l2.813,0.188h2.188l0.5-0.125l0.938-2.188c0,0,1.5-1.313,3.063-1.75s3.063-0.938,3.063-0.938
		l1.625-7.688l0.563-3.813c0,0-1.875-8.438-1.75-10.875s-0.25-14.625-0.25-14.625s1.375-8.5,1.438-8.688s1.188-2.625,1.188-2.625
		l-2.188-8.188l-2.688-8.25l-2.563-8.563c0,0-0.938-0.875-2.438-3.688s-4.313-10.438-5.375-15.5s-0.625-11.5-0.5-14.813
		s0.875-8.875,2.313-12.313s3.563-6.188,5.625-7.188s3.313-1,4-1.063s3.313,0.063,3.313,0.063s-0.063-1.875-0.188-2.125
		s-0.5-1.813-0.5-1.813l-0.125-1.5l0.063-0.813v-1.5"/>
	<path fill="#B2B2B2" d="M73.563,107.469c0,0-1.167,2.668-1.5,4.584s-0.666,5.75,0.667,7.833s2.5,3.583,2.5,3.583
		s-1.501,9.417-2.167,14.417s-1.249,9.334-1.416,14s-0.333,7,0.667,10.75s3.416,8.083,3.416,8.083s-0.332-7.583-0.416-7.833
		s-0.25-5.917-0.25-5.917s0.334-8.167,0.25-8.5s0.833-8.083,0.833-8.083s2.166-10.167,2.083-10.5s0.917-4.417,0.917-4.417
		l2.583-1.083l2.75-1.667c0,0,6.666-5.5,6.833-5.75s6.833-6,7.75-7s4.501-4.833,4.501-4.833l3.333-2.5l2.167-1.667l1.583-0.75
		l1.833-0.75l0.5-0.167l-0.25-2.583l0.167-2c0,0-1.501-0.667-5.417,2s-3.333,2.084-8.083,5.417s-11.083,9.5-13.75,11.333
		s-4.667,3-4.667,3"/>
	<path fill="#B2B2B2" d="M113.147,98.386l-0.167,3.666c0,0,0.334,4.75,1.167,6.667s3.583,5.666,5.083,7.583s4.5,5.167,4.5,5.167
		s-2-0.5-2.5-0.583s-6.751-2.583-7.167-2.75s-6.249-1.583-6.666-1.75s-2.084-1.749-2.334-1.833s5.834,7.084,12.167,10.25
		s8.416,3.834,9.083,4s4.417,0.333,4.417,0.333l2.917,0.583l2.666,1.583l2.667,1c0,0,0.583,2.751,1.083,6.334
		s0.751,6.999,0.751,11.333s0.415,7.001-0.001,10.334s-0.75,7.25-3.75,10.333s-5.166,4.333-6.916,5.083s-3.417,0.917-3.417,0.917
		l-1.5,3.333c0,0-3.999,1.666-4.666,2.583s-2.667,3.167-2.667,3.167l-0.25,1.333l1.333,0.334h1.25l-0.083,0.583l2.833,0.667
		l1.584,0.166c0,0-0.417,0.584,0.083,0.667s3.167,0.417,3.167,0.417l1.916-0.084l2-0.75l1.834-0.833l2.333-1l1.583-1.667
		l0.917-1.333c0,0,2.417-7,3-9.5s2.667-10.833,3.25-12.75s0.999-2.5,1.166-7.25s-0.084-12.832-0.25-13.916s-1.417-6.667-1.5-6.917
		s8,1,8,1s1.251,7.75,1.084,12.5s-0.333,7.999-0.75,10.333s-1.001,5.918-1.667,8.084s-1.166,3.834-1.916,5.25
		s-0.75,2.416-1.167,3.666s-1.333,2.5-1.333,2.5s2.249,0.666,4.666-0.75s5.5-3.75,6.667-6.583s2.75-6.917,2.75-10.5
		s0.082-11.083-0.834-17.833s-1.916-11.834-1.916-11.834s-7.333,0.668-10.75-0.166s-11.751-4.75-15.167-7.667
		s-7.583-8.334-7.583-8.334"/>
	<path fill="#B2B2B2" d="M118.522,124.012c0,0,5.208,6.083,5.458,6.333s5.042,0.667,5.792,0.875s3.709,0.042,3.917,0.125
		s0.5-0.209,0.625-0.292s0.166-0.916,0.083-1.041s-3-2.376-3.25-2.459s-10.166-2.958-10.333-2.958s-2.125-0.75-2.125-0.75"/>
	<path fill="#7C7C7C" d="M62.814,124.886c0,0-0.022,0.119-0.063,0.339c-0.352,1.904-2.082,11.37-2.604,16.078
		c-0.583,5.25-1.334,9.749-1,13.999s-0.083,5.168,0.917,7.834s4,8.666,4,8.666l0.75-0.75l-0.917-2.75l-0.916-5.833v-9.833v-7.334
		l0.083-3.416l1.083-4.917l1-2.583l-2.167-9.917"/>
	<path fill="#7C7C7C" d="M97.648,111.052c0,0,1.416,3.251,2.083,4.334s2.667,4.417,3.667,5.25s4.75,4.75,5.75,5.333
		s4.332,2.749,5.666,3.583s4.501,2.918,5.334,3.334s4.499,0.75,5.416,1s5.167,0.75,5.167,0.75l2.833,0.333
		c0,0,0.334,9.833,0.417,12.333s-0.083,5.084-0.333,6.834s-1.166,5.75-1.5,7.083s-0.416,3.333-1,4.833s-1.417,3.334-1.917,4.834
		s-2.5,5.5-2.5,5.5s3.667-0.751,4-0.834s2.917-1.25,4-2.583s3.917-4.916,4.667-7.833s1.166-8.417,1.083-11.417s0.333-9.833-0.167-13
		s-1-6.75-1-6.75l-0.5-2.083l-4.333-1.833c0,0-6.833-0.667-9.25-1.417s-6.667-3.25-8.167-4.25s-3.749-2.333-6.416-4.833"/>
	<path fill="#574C3F" d="M70.563,68.552c0,0-1.25,3.584-1.5,5.75c-0.25,2.168-1.167,7.167-0.5,12.084s1.667,7.167,3.417,10.5
		s5.166,6.667,8.583,7.167s3.916,0.166,8-1.584s5.334-2.75,8.834-4.5s6.667-3.5,8.667-3.583s6.583,0.167,6.583,0.167l0.416,4.083
		c0,0,0.334,1.25,1.834,4.667s3.916,6.583,6.333,9s4.666,4.5,9,6.083s6.167,2.75,13.25,2.917s13.583,0,13.583,0l-3.166-3.75
		l-1.917-2.334l-1.667-2.333l-1.833-3l-0.833-2.417l-1-2.5l-1.5-4.083l-0.667-2.166l-0.666-2.5l-0.584-2.084l-0.416-0.916
		l3.249,0.833l2.834,0.583l2.416,0.5l4.25,0.167l4.334,0.166h4.166l5.417-2l4.75-2.416l4.167-2.834l2.333-2.749l1.917-4.167
		l0.5-2.917l-0.25-4.416l-1.084-5.75l-1.25-3.75l-2-5l-2.25-3.75l-1.666-3.167l-2.334-2.833c0,0,0.918,4.583,1.334,6.333
		s1.25,4.5,1.25,4.5l0.25,2.75l0.5,3.25c0,0,0.25,2.5,0.25,2.75s0.083,3.25,0.083,3.25l-0.166,3.501l-0.917,2.667l-1.167,1.5
		l-0.833,1.25l-1,1.083l-1.167,1.25l-3.416,1.667l-3.084,0.333l-3.333,0.25l-5.75-0.333l-3.333-0.584l-3.917-1l-5.25-1.5
		l-2.167-1.416l-1.25-0.584l-1.25-4l-2-3.416l-3.083-3.668l-4.334-2.332l-3.666-1h-4.167l-4.166,0.416l-5.584,0.917l-5.75,1.25
		l-9.75,1.917l-7.75,1.5h-5.417h-2.666l-2.417-0.167l-3.333-0.75l-1.667-1.417L70.563,68.552z"/>
	<line fill="#3D352C" x1="44.209" y1="47.449" x2="46.209" y2="46.886"/>
	<path fill="#3D352C" d="M99.667,109.219c0,0,1.688,3.75,4.625,5.938s5.5,4,7.938,4.938s4.625,1.188,6.375,1.313
		s4.813,0.125,4.813,0.125s-2.75-2.438-3.313-3.063s-3.75-4.875-3.75-4.875l-1.063-1.938l-0.813-1.625l-0.688-1.688l-0.688-2.688
		l-0.5-3.063l-0.063-1.188l-0.063-1l0.063-0.875l-1.313,0.188l-2.313,1.375l-2.063,1.25l-1.813,1.375l-1,1.25l-1.438,1.125
		l-2.063,1.813L99.667,109.219z"/>
	<path fill="none" stroke="#020202" stroke-width="0.75" d="M46.147,47.074"/>
	<path fill="none" stroke="#020202" stroke-width="0.75" d="M45.814,47.22c0,0,0.084,6-1.083,8.833s-3.834,9.75-5.084,14.417
		c-1.25,4.666-2.75,13.584-2.583,18s0.416,8.917,2.833,13.75s6.251,9.999,10.334,13.666s10.083,7.334,11.083,7.834
		s1.333,0.666,1.333,0.666s0.563,1.875,1.188,4.688s2.063,5.563,2.563,11.063s0.563,14.5,0.188,18.938s-1.063,7.188-1.938,12.063
		s-2.125,11.188-2.125,11.188s-4.75,1.375-6,2.938s-1.625,4-1.625,4l3.813,0.125l-0.125,0.688h3.5v0.688c0,0,5.25-0.125,7.813-0.188
		s5.188-0.5,6.313-1.5s1.438-1.188,1.5-2.938s-0.688-4.875-0.875-6.938s-0.688-5.688-1-9.563s-0.813-11-0.75-15.125
		s0.188-6.188,0.688-11.063s0.938-6.625,1.75-11s2.063-9.313,2.5-11.813s1.063-4.813,1.063-4.813"/>
	<path fill="none" stroke="#020202" stroke-width="0.75" d="M78.897,125.719c0,0,4.25-1.582,7.25-4.166s5.916-5.251,9.833-9.001
		s7.668-7.499,10.334-9.666s4.249-3.083,5.166-3.25s1.25-0.167,1.25-0.167s-0.084,3.917,0.5,6.167s2.416,6.75,4.333,9.25
		s5.25,6.582,9.667,9.916s8.5,7,15.75,8.5s9.333,1.834,9.333,1.834s1,12.667,0.667,17.75s-2.083,13.167-4,17.75s-2.25,6.416-4,9.166
		s-3.001,3.168-4.667,4.334s-3.082,2.082-3.416,3.166s-0.25,2.084,0.25,2.417s2.416,0.417,2.416,0.417s-0.416,0.75-0.083,1.083
		s3.334,0.167,3.667,0.25s0.333,0.083,0.333,0.083s2.999,0.5,5.333,0.167s5.416-1.749,7.25-3.333s4.917-10.168,5.917-13.584
		s2.25-8.916,2.917-12.333s0.834-8.084,0.917-12.25s-0.417-13.834-0.667-17.417s-1.25-8-1.25-8s-3.668-0.583-6.584-3.583
		s-6.5-6.666-8.5-11.083s-3.499-8.333-4.499-11.5s-1.667-6.5-2.584-10.25s-4.001-12.334-5.667-14.917s-4-5.25-8.083-6.333
		c-4.083-1.084-7.999-0.917-12.916-0.167s-11.25,2.167-17.417,3.417s-9.916,2.25-14.833,2s-8.333-0.167-11.5-3.167
		s-3.5-4.75-4.75-8.5s-1.833-6.833-2.25-9.583s-0.584-4.833-0.584-4.833"/>
	<path fill="none" stroke="#020202" stroke-width="0.75" d="M47.397,112.949c0,0,1.563,8.75,3.125,12.688s2.688,9.563,3.438,12.563
		s0.688,6.75,0.75,10.875s0.125,7.375-0.375,12.125s-0.813,4.875-1.75,9.438s-2.375,8.625-2.375,8.625s-3.625,1.375-4.813,2.375
		s-1.688,2.125-1.813,2.75s-0.125,0.625-0.125,0.625s0.375,1,1.063,1.063s2.625,0.125,2.625,0.125l-0.438,0.5l3.563,0.063
		l-0.438,0.625h5.625"/>
	<path fill="none" stroke="#020202" stroke-width="0.75" d="M64.647,171.136c0,0-1.625-5.188-1.688-9.688s0.063-13.625,0.063-16.563
		s0.188-2.813,0.813-6.25s1.375-4.438,1.375-4.438"/>
	<path fill="none" stroke="#020202" stroke-width="0.75" d="M97.563,111.219c0,0,3.001,6.999,7.334,11.083
		s13.25,10.084,17.25,11.167s11.25,1.583,11.25,1.583s0.584,14.5,0.25,17.75s-1.834,11.083-3.167,14.75s-3.332,7.917-4.166,9.917
		s-1.084,2.584-1.084,2.584s-3.416,1.166-4.416,2.166s-2.918,3.416-3.084,4s0.167,1.25,0.167,1.25l2.583,0.084l-0.083,0.666
		c0,0,2.75,0.667,3.25,0.667s0.833,0,0.833,0l-0.166,0.667c0,0,4.834,0.417,6,0s3.332-1.084,4.916-2.167s2.584-1.916,3.167-3.083
		s1.333-2.834,2.833-8.834s3.834-14.499,4.167-16.666s0.249-12.75,0.333-16.167s-1.583-8.917-1.583-8.917"/>
	<path fill="none" stroke="#020202" stroke-width="0.75" d="M139.147,80.886c0,0,7,3.625,14.25,4.5s13.75,1.5,17.75-2
		s5.625-7.625,4.625-15.875s-3.625-18-3.625-18s7,9.125,9.125,17.25s3.25,16-2.125,20.625s-10.875,7.75-16.5,8.125
		s-16.125-1.25-17.125-1.5s-2.625-0.75-2.625-0.75"/>
	<path fill="#020202" d="M113.053,99.449c0,0-0.188-7.719,0.344-9.938s0.688-2.625,0.688-2.625s-1.469,3.188-1.625,5.5
		s-0.156,7.5-0.156,7.5"/>
	<polyline fill="#020202" points="62.897,124.22 55.105,100.678 62.272,124.595 	"/>
	<path fill="#020202" d="M81.397,115.928c0,0-2.583-2.209-4.25-4s-3.543-4.542-3.834-6s-0.291-3.375-0.291-3.375
		s-1.084,3.125,0.208,5.25s6.291,7.834,6.833,8.459s0.542,0.625,0.542,0.625"/>
	<path fill="#050505" d="M46.523,186.554c0.084-0.167,0.876-2.584,2.334-3.709s1.625-1.208,1.625-1.208s-3.042,4.708-3.167,4.958"/>
	<path fill="#050505" d="M49.982,186.47c0,0,1.75-3.041,2.75-3.958s1-0.917,1-0.917l-3.375,5.792"/>
	<path fill="#050505" d="M58.44,189.262c0,0,0.458-1.584,1.458-2.834s1.375-1.416,1.375-1.416s-2.334,4.625-2.417,5"/>
	<path fill="#050505" d="M61.94,190.012c0,0,0.959-3.126,1.875-4.084s1.166-1.166,1.166-1.166l-2.333,6"/>
	<path fill="#020202" d="M120.189,187.429c0,0,0.25-1.938,0.958-2.979s1.917-1.792,1.917-1.792s-2.126,4.626-2.209,5.084
		s-0.166,0.521-0.166,0.521"/>
	<path fill="#020202" d="M124.084,188.804c-0.021-0.063,0.604-3.666,1.625-4.625s1.521-1.042,1.521-1.042s-1.146,1.396-1.708,2.667
		s-0.625,3.438-0.625,3.438"/>
	<path fill="#020202" d="M139.397,189.992c0,0-0.042-1.958,1.333-3.313s1.375-1.354,1.375-1.354s-2.583,5.374-2.396,5.771"/>
	<path fill="#020202" d="M143.209,191.367c0,0-0.209-3.146,0.604-4.313s2.5-2.375,2.5-2.375s-1.167,1.688-1.688,2.625
		s-0.791,2.604-0.833,3.313s0,0.854,0,0.854"/>
	
		<ellipse transform="matrix(-0.9947 0.1032 -0.1032 -0.9947 90.5456 58.4771)" fill="#FFFFFF" cx="43.76" cy="31.581" rx="10.5" ry="9.813"/>
	
		<ellipse transform="matrix(0.9947 -0.1032 0.1032 0.9947 -2.9494 3.1006)" fill="#FFFFFF" cx="28.49" cy="30.054" rx="10.156" ry="8.282"/>
	<path fill="#FFFFFF" d="M30.137,23.82c0.042-0.193,7.29-6.035,7.539-6.061c0.249-0.025,6.538-1.181,8.05-1.149
		c1.512,0.032,3.906,0.097,4.17,0.825c0.264,0.727-2.296,6.333-2.412,7.035c-0.115,0.704-3.332,3.614-3.332,3.614l-7.063,12.482
		c0,0-3.853,7.688-3.669,8.235c0.182,0.546,0.977,3.355,0.949,4.301c-0.029,0.944-1.091,4.636-1.091,4.636l-1.288,1.518
		l-0.763,0.519l-4.919,1.642l-8.04,0.645l-3.209-0.044l-2.37-0.445l-2.222-0.208l-0.996-0.526l-0.785-0.296l-2.328-0.639
		L3.69,58.421l-1.044-1.589l-1.068-3.031l-0.011-1.317l0.604-1.445l1.036-0.925l1.82-0.628l1.472-0.341l1.786-1.569l6.387-5.062
		c0,0,6.539-4.196,6.719-4.277c0.18-0.082,1.54-0.914,1.54-0.914l5.345-6.021l2.36-7.533"/>
	<path fill="#B2B2B2" d="M65.524,49.368l-0.371-1.155c0,0-1.39-0.673-1.868-0.435c-0.477,0.238-1.485,0.217-2.038,0.336
		c-0.553,0.121-6.662,1.194-6.662,1.194l-6.562-0.262l-0.229,2.034"/>
	<path fill="#574C3F" d="M26.888,22.188c0,0,1.702,0.243,2.39,0.422c0.689,0.18,2.118,1.037,2.118,1.037l0.523,0.197
		c0,0,0.703-0.492,2.066-1.891c1.363-1.398,2.545-2.106,4.815-2.844s5.512-0.99,6.606-0.937c1.095,0.054,1.7,0.242,1.7,0.242
		l-0.045,3.607l2.843,1.549l2.126,1.119c0,0,1.019,1.737,1.219,2.052c0.2,0.315,0.402,1.467,0.594,1.698s0.534,1.116,0.652,1.44
		c0.118,0.324,0.212,1.235,0.189,1.823c-0.023,0.588-0.27,1.452-0.326,1.709s-0.377,1.213-0.433,1.47
		c-0.058,0.257-0.618,1.321-0.618,1.321l-2.477,2.77l-1.904,1.036l-2.51,0.846l-1.971,0.374l-3.799-0.277l-1.653-0.583
		c0,0-1.245-0.708-1.521-0.931c-0.273-0.223-1.181-0.882-1.438-0.939c-0.258-0.058-1.198-1.049-1.198-1.049
		s-1.287,2.144-2.275,3.922c-0.988,1.778-0.825,3.353-0.676,5.6c0.15,2.247,0.78,4.276,0.925,5.685
		c0.146,1.409,0.813,2.178-0.026,3.772c-0.841,1.596-2.218,3.664-2.218,3.664l9.757-5.283c0,0,6.922-5.158,7.863-5.759
		c0.943-0.601,7.541-6.479,8.15-7.045c0.612-0.566,6.855-9.843,6.624-9.652c-0.232,0.192-1.481-1.354-1.625-1.926
		c-0.143-0.571,2.186-5.588,2.186-5.588s2.064-0.297,2.379-0.498c0.313-0.2,1.488-0.992,1.488-0.992s1.977,0.465,3.188,0.841
		c1.212,0.377,6.063,0.294,6.063,0.294l1.889-0.364l4.616-0.729l2.543-0.516l2.453-0.588l2.667-0.947l3.129-1.33l1.108-0.618
		l-4.064-2.845l-3.749-2.209l-3.612-1.718l-4.486-2.05l-5.139-1.896l-3.628-1.048l-0.89-0.494l1.95-2.212l1.346-1.564l-4.702-0.099
		l-4.885-0.247l-7.46,0.774l-4.358,0.787L48.21,4.812l-4,1.839l-3.365,2.276l-1.94,2.296l-1.634,2.012l-0.767,1.504l-2.846,1.635
		l-3.804,2.909L26.888,22.188z"/>
	<path fill="#3D352C" d="M47.814,51.268l3.097,0.182c0,0,3.457,0.018,3.769-0.014c0.311-0.033,2.755-0.097,2.755-0.097
		s2.61-0.272,2.798-0.291c0.186-0.02,2.024-0.462,2.268-0.55c0.242-0.087,1.694-1.243,1.694-1.243l1.722-1.562l1.558-2.55
		l0.667-1.451l0.683-1.894l0.603-2.073l0.577-3.516l0.006-3.582l-0.416-3.413l-0.608-2.828l-0.721-1.496l-0.639-1.316l-0.17-0.422
		l-2.105-0.913l-1.743-0.448l-1.657-0.833l-0.236,0.149c0,0-1.682-1.081-2.019-1.297c-0.337-0.217-0.487-0.453-0.487-0.453
		s-1.193,8.481-3.02,12.692c-1.824,4.211-2.694,6.123-5.152,9.08c-2.459,2.956-7.114,8.342-9.985,10.963
		c-2.87,2.623-8.182,7.133-8.182,7.133s5.368-2.757,6.007-3.263s3.718-2.333,3.718-2.333l3.29-1.599"/>
	
		<ellipse transform="matrix(-0.9947 0.1031 -0.1031 -0.9947 77.3225 60.7994)" fill="#20A0FF" cx="37.09" cy="32.398" rx="3.781" ry="3.75"/>
	
		<ellipse transform="matrix(-0.9947 0.103 -0.103 -0.9947 76.2763 60.5877)" fill="#004774" cx="36.573" cy="32.264" rx="1.531" ry="1.5"/>
	
		<ellipse transform="matrix(-0.9947 0.1031 -0.1031 -0.9947 47.4692 60.157)" fill="#20A0FF" cx="22.179" cy="31.306" rx="3.125" ry="3"/>
	
		<ellipse transform="matrix(-0.9946 0.1034 -0.1034 -0.9946 46.902 60.1147)" fill="#004774" cx="21.893" cy="31.273" rx="1.094" ry="1.063"/>
	
		<ellipse transform="matrix(-0.9947 0.1031 -0.1031 -0.9947 79.328 56.2539)" fill="#FFFFFF" cx="38.21" cy="30.177" rx="0.999" ry="0.906"/>
	
		<ellipse transform="matrix(-0.9947 0.1029 -0.1029 -0.9947 73.4815 64.5643)" fill="#FFFFFF" cx="35.075" cy="34.177" rx="0.719" ry="0.688"/>
	
		<ellipse transform="matrix(-0.9947 0.103 -0.103 -0.9947 49.3766 57.0181)" fill="#FFFFFF" cx="23.216" cy="29.784" rx="0.813" ry="0.781"/>
	
		<ellipse transform="matrix(-0.9946 0.1034 -0.1034 -0.9946 45.0611 63.6855)" fill="#FFFFFF" cx="20.879" cy="33.011" rx="0.656" ry="0.625"/>
	<path fill="none" stroke="#020202" stroke-width="0.75" d="M34.339,58.363c-7.524,4.523-16.524,4.523-25.337,2.209"/>
	<path fill="none" stroke="#020202" stroke-width="0.75" d="M47.77,51.461c-1.963,0.338-3.775,1.234-5.453,2.28"/>
	<path fill="none" stroke="#020202" stroke-width="0.75" d="M26.4,22.322c0,0,6.166-5.98,9.278-6.869
		c3.112-0.888,9.98-1.915,13.072-1.795c3.091,0.119,6.258,0.356,6.258,0.356s2.202-2.994,3.972-4.119
		c1.768-1.126,7.763-2.691,10.184-2.376s6.802,1.367,13.88,4.781c7.077,3.413,12.228,7.026,12.228,7.026s-6.495,2.81-8.085,3.226
		c-1.591,0.417-6.942,1.537-10.995,1.831c-4.055,0.295-6.781-0.553-7.677-0.711c-0.896-0.158-0.896-0.158-0.896-0.158
		s1.473,3.302,1.817,5.404c0.342,2.1,0.864,7.136,0.125,10.292c-0.741,3.155-1.907,5.853-3.33,7.885
		c-1.424,2.033-1.503,2.48-4.658,3.562c-3.154,1.081-3.87,0.842-6.493,0.988c-2.625,0.146-5.824-0.401-7.31-0.185"/>
	<path fill="none" stroke="#020202" stroke-width="0.75" d="M5.947,49.537c5.242-4.806,10.962-8.463,16.982-12.214"/>
	<path fill="none" stroke="#020202" stroke-width="0.75" d="M2.432,51.136c0,0-0.215,0.25-0.432,0.653
		c-0.267,0.497-0.54,1.228-0.422,2.012c0.209,1.424,0.834,3.811,2.903,4.978c2.069,1.168,3.808,2.182,5.995,1.45
		c2.186-0.728,3.737-1.518,5.435-3.327c1.697-1.81,2.769-2.988,2.52-4.785s-1.366-2.875-3.096-3.198
		c-1.73-0.323-9.924,0.652-10.912,0.818C3.435,49.901,2.953,50.705,2.432,51.136z"/>
	<path fill="#020202" d="M55.363,14.103c0,0-0.31,0.347-0.703,1.408c-0.392,1.062-0.392,1.062-0.392,1.062s-0.109-2.266,0.839-3.118
		"/>
	<path fill="#020202" d="M67.956,24.044c0,0-3.546-1.172-5.27-2.343c-1.724-1.172-1.833-1.318-1.833-1.318s8.308,3.159,9.139,3.293"
		/>
	<path fill="#020202" d="M13.492,49.329c0,0-4.513,1.318-6.106,2.613c-1.593,1.297-2.169,2.11-1.773,3.2
		c0.395,1.09,0.278,0.569,1.589,2.003c1.312,1.436,3.429,3.068,3.429,3.068s4.025-2.081,4.633-2.584
		c0.608-0.503,3.259-4.328,3.209-5.108c-0.049-0.78-0.549-2.865-0.657-2.698C17.708,49.992,15.221,48.428,13.492,49.329z"/>
	<path fill="#020202" d="M2.883,50.178c0,0-0.65,0.554-0.883,0.877s0.174,0.312,0.174,0.312l0.503-0.445l0.481-0.819"/>
	
		<ellipse transform="matrix(-0.9947 0.1031 -0.1031 -0.9947 90.4085 58.4177)" fill="none" stroke="#020202" stroke-width="0.75" cx="43.694" cy="31.546" rx="10.751" ry="9.708"/>
	<path fill="none" stroke="#020202" stroke-width="0.75" d="M32.806,29.964c0.004-0.038,0.022-0.063,0.03-0.097
		c0.139-1.149,0.716-2.232,1.51-3.123c-1.476-2.851-4.701-4.675-8.269-4.305c-4.578,0.475-7.927,4.349-7.48,8.652
		c0.446,4.303,4.519,7.406,9.097,6.932c2.375-0.247,4.401-1.42,5.756-3.083C32.748,33.413,32.685,31.282,32.806,29.964z"/>
	<path fill="none" stroke="#020202" stroke-width="0.75" d="M36.299,15.179c0,0,2.354-4.768,4.694-6.435
		c2.34-1.667,4.559-2.903,7.49-3.709c2.934-0.807,12.15-1.595,15.559-1.865c3.406-0.27,8.915,0.333,8.915,0.333l-3.794,4.017"/>
	<path fill="#FFFFFF" d="M33.304,31.365c0,0-0.125,2.719,1.109,3.906s3.906,1.156,3.984,1.156s3.359-1.266,3.359-1.266l0.031-2.453
		c0,0-0.141-0.563-0.188-0.625s-0.906-1.328-1-1.406s0.25-0.563,0.172-0.484s-0.859-1.344-1.109-1.406s-1.938-0.672-2.203-0.688
		s-1.5-0.063-1.703,0.031s-1.031,0.547-1.109,0.641s-0.469,0.406-0.531,0.469S33.304,31.365,33.304,31.365z"/>
	<path fill="#FFFFFF" d="M26.164,30.709c-0.016,0.047-2.266,4.125-2.297,4.188S20.164,34.1,20.164,34.1s-0.641-1-0.75-1.219
		s-0.438-1.219-0.406-2.156s0.891-1.797,0.891-1.797l1.281-1.156c0,0,2.406-0.219,2.516-0.156s1.266,0.797,1.344,0.953
		s1.016,1.984,1.016,1.984"/>
	<polyline fill="none" stroke="#000000" points="54.232,32.386 33.315,33.386 18.388,31.102 	"/>
	<path fill="#FF0000" d="M28.69,60.845c-0.042,0.083-0.271,2.833-0.292,2.917s0.958,2.104,1.042,2.229s1.063,0.125,1.125,0.167
		s0.667,0.104,0.729,0.146s0.771-0.188,0.771-0.188l0.563-0.604l0.458-1.625c0,0,0.375-1.792,0.396-1.896s0.479-2.375,0.479-2.375
		l0.042-0.604l0.063-0.313L28.69,60.845z"/>
	<path fill="#40382E" d="M34.273,58.74c0,0-0.542,3.792-0.771,4.5s-1.417,3.084-1.438,3.167s-1.542,1.313-1.542,1.313l-2.354,0.604
		l-1.979-1.771c0,0-0.229-0.708-0.313-0.687s-0.313-1.271-0.313-1.375s0.229-1.667,0.229-1.667l0.167-1.042v-0.396
		c0,0-2.104,0.458-2.208,0.521s-0.333,1.333-0.396,1.417s-0.354,3.583-0.375,3.646s0.688,1.563,0.729,1.625s2.875,1.5,2.875,1.5
		l2.438,0.208l1.958-0.063l1.333-0.875c0,0,2.438-2.792,2.479-2.854s1.833-3.75,1.833-3.75l0.771-1.646c0,0,1.02-2.75,1.041-2.833
		s1.063-1.771,1-1.771s0.5-0.417,0.438-0.417s0.104-0.271,0.104-0.271L34.273,58.74z"/>
	<path fill="#3D352C" d="M43.898,52.428c-0.063,0.021-3.207,2.5-4.354,3.75s-4.459,2.792-4.5,2.854s-0.521-0.063-0.521-0.063
		l-0.313-0.625c0,0,4.979-2.979,5.042-3.042s4.979-3.354,4.979-3.354"/>
	<path fill="none" stroke="#000000" stroke-width="0.75" d="M43.69,53.178c-0.125,0.083-3.999,2.417-5.083,4.917
		s-1.626,4.375-2.709,6.417s-2.083,3.709-2.958,4.542s-2,1.458-3.75,1.542s-3.667-1-4.583-1.375s-1.375-1.292-1.417-3.125
		s0.375-4.125,0.375-4.125"/>
	<path fill="none" stroke="#000000" stroke-width="0.75" d="M34.231,58.636c0,0-0.666,4.375-1.208,6.042s-2.417,3.333-3.583,3.375
		s-2.25-0.375-2.958-1.25s-1.167-1.833-1.042-2.625s0.417-2.625,0.417-2.625"/>
	<path d="M28.836,60.97c0,0-0.229,1.625-0.104,2.292s0.563,1.583,1.125,1.979s1.333,0.646,1.479,0.667s0.625,0.188,0.625,0.188
		s-1.063,1.146-1.208,1.25s-1.125,0.5-1.333,0.542s-1.563-0.438-1.938-0.521s-1.229-1.333-1.417-1.521s-0.646-0.917-0.5-2.104
		s0.5-2.083,0.5-2.083l2.542-0.688"/>
</g>
<g id="frame_3">
	<ellipse fill="#FFFFFF" cx="44.627" cy="27.053" rx="10.5" ry="9.813"/>
	<ellipse fill="#FFFFFF" cx="29.596" cy="23.959" rx="10.156" ry="8.281"/>
	<path fill="#FFFFFF" d="M31.877,17.928c0.063-0.188,7.875-5.25,8.125-5.25s6.625-0.5,8.125-0.313s3.875,0.5,4.063,1.25
		s-2.938,6.063-3.125,6.75s-3.688,3.25-3.688,3.25l-8.313,11.688c0,0-4.625,7.25-4.5,7.813s0.625,3.438,0.5,4.375
		s-1.563,4.5-1.563,4.5l-1.438,1.375l-0.813,0.438l-5.063,1.125l-8.063-0.188l-3.188-0.375l-2.313-0.688L8.44,53.241l-0.938-0.625
		l-0.75-0.375l-2.25-0.875l-2.5-1.75l-0.875-1.688l-0.75-3.125l0.125-1.313l0.75-1.375l1.125-0.813l1.875-0.438l1.5-0.188
		l1.938-1.375l6.875-4.375c0,0,6.938-3.5,7.125-3.563s1.625-0.75,1.625-0.75l5.938-5.438l3.125-7.25"/>
	<path fill="#FFFFFF" d="M50.315,56.553c-0.75,0.75-5.25,20.5-5.25,20.5s2.5,10.5,2.25,11.75s2.75,13.5,3,14.25s4.5,6.5,5,7.25
		s4,6.5,4.75,7s1.125,2.375,1.125,2.375l1.25,3.75l1.938,5.75l0.563,2.5l1.563,5.313l0.375,4.375l0.313,5.125l0.063,4.125
		l0.063,5.75l-0.75,6.438c0,0-0.875,5.875-0.938,6.063s-0.625,3.688-0.625,3.688l-0.438,3.375c0,0-0.563,1.813-0.625,2.063
		s-0.25,1.688-0.313,2.063s-0.563,2.25-0.563,2.25l-5.438,2l-0.563,1.375l-0.563,1.188l-0.688,0.938l-0.313,1.438
		c0,0,0.438,0.188,0.688,0.188s2.188,0.375,2.188,0.375h1.063l0.688,0.25l2.125,0.313c0,0,0.438-0.063,0.375,0.125
		s0.25,0.5,0.25,0.5s7.188-0.125,7.375-0.188s3.5-0.313,3.5-0.313l2.438-0.75l1.063-0.938l0.813-1.688v-1.5l-0.813-5.063
		l-0.563-6.875l-0.563-6.438l-0.625-9.125v-5.625l0.375-5.5l0.625-6.375l1.313-8l3.25-14.813c0,0,5.375-0.688,5.688-1.063
		s6.125-5.938,6.125-5.938s2.438-2.313,3.438-3.313s11.813-8.188,12.188-8.5s5.625-2.5,5.625-2.5s-0.875-4.25-1.313-4.688
		s-28-8.813-28-8.813L72.69,71.303l-1.125-2.125l-1.563-1.688c0,0-1.563-2.438-1.563-2.625s-1.313-3.813-1.313-3.813l-1-2.625
		l-0.563-2.063l-0.313-1.75l-0.625-1.938c0,0-0.688-1.375-1.125-1.25s-6.125,1.5-6.563,1.625s-6.625,3.063-6.625,3.063"/>
	<path fill="#FFFFFF" d="M124.065,114.428c0,0,8.125,10.75,8.5,11s13.125,4.75,13.75,5.125s8.5,1.75,8.875,1.875
		s3.375,2.125,3.375,2.125s0,11.25-0.125,11.625s-1,12-1,12.75s0.5,9.625,0,9.875s-7,5.5-7,5.5l-2.5,2.25l-0.875,0.75l-1.625,2.813
		l-1.063,1.25l-1.063,0.938l-1.75,1.313l-2.438,1.563l-1.313,1.188l-0.625,1.375v1.625c0,0,0.313,0.688,0.5,0.688
		s1.813,0.125,1.813,0.125l0.5,0.188l-0.125,0.625c0,0,0.563,0.5,0.813,0.5s1.875-0.063,1.875-0.063l1,0.063l1.25,0.125l3.125,0.25
		c0,0,2.5-0.438,2.75-0.438s1.75-0.5,1.938-0.563s1.875-0.688,1.875-0.688l1.438-0.938l1.063-1.063l0.75-1.438l1.688-3.25
		l2.125-5.688l1.125-3.625l1.5-6.75l0.938-4.125l0.813-4.438l0.313-4.625l0.063-8.563l-0.563-7.5v-4.5l-0.875-7.375l-0.5-1.563
		l-1.5-0.25l-2.688-1.375l-2.438-1.875c0,0-2.313-1.5-2.688-1.5s-14.188-6-14.875-6.25s-11.938,0-11.625,0s-4.5,0.25-4.688,0.375"/>
	<path fill="#B2B2B2" d="M46.502,47.241l-0.375,2.75c0,0-0.063,4.25-0.188,4.438s-1.063,2.063-1.125,2.25s-0.625,2.5-0.625,2.5
		s-2.063,4.938-2.75,6.813s-2.438,9.188-2.75,10.688s-0.688,3.75-0.938,5.375s-0.5,3.938-0.438,6s0.063,2.75,0.313,4.625
		s0.688,4.688,1.375,6.375s2.063,4.688,3.875,7.5s3.375,4.75,4.125,5.75s0.875,2.125,0.875,2.125l0.813,3.688
		c0,0,1.25,5.188,2,7.063s1.313,3.563,2.063,6.313s1.5,5.5,1.75,7.25s0.625,6.625,0.625,8s0.188,5.188,0.063,7.25
		s-0.125,6.188-0.438,8.063s-0.813,4.75-1.25,6.625s-0.563,1.563-1.063,3.813s-0.688,2.75-1,4s-0.625,2.875-0.625,2.875
		l-2.813,1.188l-2.75,1.563l-1.313,1.75l-0.188,1.25l0.688,1c0,0,1.125,0.25,1.313,0.25s1.375,0.063,1.375,0.063l0.438-0.125
		l-0.438,0.5l3.188,0.063v0.5l2.813,0.188h2.188l0.5-0.125l0.938-2.188c0,0,1.5-1.313,3.063-1.75s3.063-0.938,3.063-0.938
		l1.625-7.688l0.563-3.813c0,0-1.875-8.438-1.75-10.875s-0.25-14.625-0.25-14.625s1.375-8.5,1.438-8.688s1.188-2.625,1.188-2.625
		l-2.188-8.188l-2.688-8.25l-2.563-8.563c0,0-0.938-0.875-2.438-3.688s-4.313-10.438-5.375-15.5s-0.625-11.5-0.5-14.813
		s0.875-8.875,2.313-12.313s3.563-6.188,5.625-7.188s3.313-1,4-1.063s3.313,0.063,3.313,0.063s-0.063-1.875-0.188-2.125
		s-0.5-1.813-0.5-1.813l-0.125-1.5l0.063-0.813v-1.5l-0.25-1.188c0,0-1.313-0.813-1.813-0.625s-1.5,0.063-2.063,0.125
		s-6.75,0.5-6.75,0.5l-6.5-0.938l-0.438,2"/>
	<path fill="#B2B2B2" d="M73.981,107.636c0,0-1.167,2.668-1.5,4.584s-0.666,5.75,0.667,7.833s2.5,3.583,2.5,3.583
		s-1.501,9.417-2.167,14.417s-1.249,9.334-1.416,14s-0.333,7,0.667,10.75s3.416,8.083,3.416,8.083s-0.332-7.583-0.416-7.833
		s-0.25-5.917-0.25-5.917s0.334-8.167,0.25-8.5s0.833-8.083,0.833-8.083s2.166-10.167,2.083-10.5s0.917-4.417,0.917-4.417
		l2.583-1.083l2.75-1.667c0,0,6.666-5.5,6.833-5.75s6.833-6,7.75-7s4.501-4.833,4.501-4.833l3.333-2.5l2.167-1.667l1.583-0.75
		l1.833-0.75l0.5-0.167l-0.25-2.583l0.167-2c0,0-1.501-0.667-5.417,2s-3.333,2.084-8.083,5.417s-11.083,9.5-13.75,11.333
		s-4.667,3-4.667,3"/>
	<path fill="#B2B2B2" d="M113.565,98.553l-0.167,3.666c0,0,0.334,4.75,1.167,6.667s3.583,5.666,5.083,7.583s4.5,5.167,4.5,5.167
		s-2-0.5-2.5-0.583s-6.751-2.583-7.167-2.75s-6.249-1.583-6.666-1.75s-2.084-1.749-2.334-1.833s5.834,7.084,12.167,10.25
		s8.416,3.834,9.083,4s4.417,0.333,4.417,0.333l2.917,0.583l2.666,1.583l2.667,1c0,0,0.583,2.751,1.083,6.334
		s0.751,6.999,0.751,11.333s0.415,7.001-0.001,10.334s-0.75,7.25-3.75,10.333s-5.166,4.333-6.916,5.083s-3.417,0.917-3.417,0.917
		l-1.5,3.333c0,0-3.999,1.666-4.666,2.583s-2.667,3.167-2.667,3.167l-0.25,1.333l1.333,0.334h1.25l-0.083,0.583l2.833,0.667
		l1.584,0.166c0,0-0.417,0.584,0.083,0.667s3.167,0.417,3.167,0.417l1.916-0.084l2-0.75l1.834-0.833l2.333-1l1.583-1.667
		l0.917-1.333c0,0,2.417-7,3-9.5s2.667-10.833,3.25-12.75s0.999-2.5,1.166-7.25s-0.084-12.832-0.25-13.916s-1.417-6.667-1.5-6.917
		s8,1,8,1s1.251,7.75,1.084,12.5s-0.333,7.999-0.75,10.333s-1.001,5.918-1.667,8.084s-1.166,3.834-1.916,5.25
		s-0.75,2.416-1.167,3.666s-1.333,2.5-1.333,2.5s2.249,0.666,4.666-0.75s5.5-3.75,6.667-6.583s2.75-6.917,2.75-10.5
		s0.082-11.083-0.834-17.833s-1.916-11.834-1.916-11.834s-7.333,0.668-10.75-0.166s-11.751-4.75-15.167-7.667
		s-7.583-8.334-7.583-8.334"/>
	<path fill="#B2B2B2" d="M118.94,124.179c0,0,5.208,6.083,5.458,6.333s5.042,0.667,5.792,0.875s3.709,0.042,3.917,0.125
		s0.5-0.209,0.625-0.292s0.166-0.916,0.083-1.041s-3-2.376-3.25-2.459s-10.166-2.958-10.333-2.958s-2.125-0.75-2.125-0.75"/>
	<path fill="#7C7C7C" d="M63.232,125.053c0,0-0.022,0.119-0.063,0.339c-0.352,1.904-2.082,11.37-2.604,16.078
		c-0.583,5.25-1.334,9.749-1,13.999s-0.083,5.168,0.917,7.834s4,8.666,4,8.666l0.75-0.75l-0.917-2.75l-0.916-5.833v-9.833v-7.334
		l0.083-3.416l1.083-4.917l1-2.583l-2.167-9.917"/>
	<path fill="#7C7C7C" d="M98.066,111.219c0,0,1.416,3.251,2.083,4.334s2.667,4.417,3.667,5.25s4.75,4.75,5.75,5.333
		s4.332,2.749,5.666,3.583s4.501,2.918,5.334,3.334s4.499,0.75,5.416,1s5.167,0.75,5.167,0.75l2.833,0.333
		c0,0,0.334,9.833,0.417,12.333s-0.083,5.084-0.333,6.834s-1.166,5.75-1.5,7.083s-0.416,3.333-1,4.833s-1.417,3.334-1.917,4.834
		s-2.5,5.5-2.5,5.5s3.667-0.751,4-0.834s2.917-1.25,4-2.583s3.917-4.916,4.667-7.833s1.166-8.417,1.083-11.417s0.333-9.833-0.167-13
		s-1-6.75-1-6.75l-0.5-2.083l-4.333-1.833c0,0-6.833-0.667-9.25-1.417s-6.667-3.25-8.167-4.25s-3.749-2.333-6.416-4.833"/>
	<path fill="#574C3F" d="M70.981,68.72c0,0-1.25,3.583-1.5,5.75s-1.167,7.167-0.5,12.083s1.667,7.167,3.417,10.5
		s5.166,6.667,8.583,7.167s3.916,0.166,8-1.584s5.334-2.75,8.834-4.5s6.667-3.5,8.667-3.583s6.583,0.167,6.583,0.167l0.416,4.083
		c0,0,0.334,1.25,1.834,4.667s3.916,6.583,6.333,9s4.666,4.5,9,6.083s6.167,2.75,13.25,2.917s13.583,0,13.583,0l-3.166-3.75
		l-1.917-2.334l-1.667-2.333l-1.833-3l-0.833-2.417l-1-2.5l-1.5-4.083l-0.667-2.166l-0.666-2.5l-0.584-2.084l-0.416-0.916
		l3.249,0.833l2.834,0.583l2.416,0.5l4.25,0.167l4.334,0.166h4.166l5.417-2l4.75-2.416l4.167-2.834l2.333-2.749l1.917-4.167
		l0.5-2.917l-0.25-4.417l-1.084-5.75l-1.25-3.75l-2-5l-2.25-3.75l-1.666-3.167l-2.334-2.833c0,0,0.918,4.583,1.334,6.333
		s1.25,4.5,1.25,4.5l0.25,2.75l0.5,3.25c0,0,0.25,2.5,0.25,2.75s0.083,3.25,0.083,3.25l-0.166,3.5l-0.917,2.667l-1.167,1.5
		l-0.833,1.25l-1,1.083l-1.167,1.25l-3.416,1.667l-3.084,0.333l-3.333,0.25l-5.75-0.333l-3.333-0.584l-3.917-1l-5.25-1.5
		l-2.167-1.416l-1.25-0.584l-1.25-4l-2-3.417l-3.083-3.667l-4.334-2.333l-3.666-1h-4.167l-4.166,0.417l-5.584,0.917l-5.75,1.25
		l-9.75,1.917l-7.75,1.5h-5.417h-2.666l-2.417-0.167l-3.333-0.75l-1.667-1.417L70.981,68.72z"/>
	<path fill="#574C3F" d="M28.814,15.97c0,0,1.667,0.417,2.333,0.667s2,1.25,2,1.25l0.5,0.25c0,0,0.75-0.417,2.25-1.667
		s2.749-1.833,5.083-2.333s5.584-0.417,6.667-0.25s1.667,0.417,1.667,0.417l-0.417,3.583l2.667,1.833l2,1.333
		c0,0,0.834,1.833,1,2.167s0.249,1.5,0.416,1.75s0.416,1.167,0.5,1.5s0.083,1.25,0,1.833s-0.417,1.417-0.5,1.667
		s-0.5,1.167-0.583,1.417s-0.75,1.25-0.75,1.25l-2.75,2.5l-2,0.833l-2.583,0.583l-2,0.167l-3.75-0.667l-1.584-0.75
		c0,0-1.166-0.833-1.416-1.083s-1.084-1-1.334-1.083s-1.083-1.167-1.083-1.167s-1.5,2-2.667,3.667s-1.167,3.25-1.25,5.5
		s0.333,4.333,0.333,5.75s0.583,2.25-0.417,3.75s-2.583,3.417-2.583,3.417l10.25-4.25c0,0,7.416-4.417,8.416-4.917
		s8.168-5.667,8.834-6.167s7.833-9.084,7.583-8.917s-1.334-1.5-1.417-2.083s2.75-5.333,2.75-5.333s2.084-0.083,2.417-0.25
		s1.583-0.833,1.583-0.833s1.918,0.667,3.084,1.167s6,0.917,6,0.917l1.916-0.167l4.667-0.25l2.583-0.25l2.5-0.333l2.75-0.667l3.25-1
		l1.167-0.5l-3.75-3.25l-3.5-2.583l-3.417-2.083l-4.25-2.5l-4.916-2.417l-3.5-1.417l-0.834-0.583l2.167-2l1.5-1.417l-4.667-0.583
		l-4.833-0.75h-7.5L54.981,0.97l-3.166-0.083l-4.167,1.417L44.065,4.22l-2.167,2.083l-1.833,1.833l-0.917,1.417l-3,1.333l-4.083,2.5
		L28.814,15.97z"/>
	<path fill="#3D352C" d="M63.565,18.491c0,0-1.563-1.25-1.875-1.5s-0.438-0.5-0.438-0.5s-2.063,8.313-4.313,12.313
		s-3.313,5.813-6.063,8.5s-7.938,7.563-11.063,9.875s-8.875,6.25-8.875,6.25s5.625-2.188,6.313-2.625s3.938-1.938,3.938-1.938
		l3.438-1.25l2-0.563l3.063,0.5c0,0,3.438,0.375,3.75,0.375s2.75,0.188,2.75,0.188s2.625,0,2.813,0s2.063-0.25,2.313-0.313
		s1.813-1.063,1.813-1.063l1.875-1.375l1.813-2.375l0.813-1.375l0.875-1.813l0.813-2l0.938-3.438l0.375-3.563l-0.063-3.438
		l-0.313-2.875l-0.563-1.563l-0.5-1.375l-0.125-0.438l-2-1.125l-1.688-0.625l-1.563-1L63.565,18.491z"/>
	<path fill="#3D352C" d="M100.085,109.386c0,0,1.688,3.75,4.625,5.938s5.5,4,7.938,4.938s4.625,1.188,6.375,1.313
		s4.813,0.125,4.813,0.125s-2.75-2.438-3.313-3.063s-3.75-4.875-3.75-4.875l-1.063-1.938l-0.813-1.625l-0.688-1.688l-0.688-2.688
		l-0.5-3.063l-0.063-1.188l-0.063-1l0.063-0.875l-1.313,0.188l-2.313,1.375l-2.063,1.25l-1.813,1.375l-1,1.25l-1.438,1.125
		l-2.063,1.813L100.085,109.386z"/>
	<ellipse fill="#20A0FF" cx="37.909" cy="27.178" rx="3.781" ry="3.75"/>
	<ellipse fill="#004774" cx="37.409" cy="26.991" rx="1.531" ry="1.5"/>
	<ellipse fill="#20A0FF" cx="23.19" cy="24.553" rx="3.125" ry="3"/>
	<ellipse fill="#004774" cx="22.909" cy="24.491" rx="1.094" ry="1.063"/>
	<ellipse fill="#FFFFFF" cx="39.252" cy="25.084" rx="1" ry="0.906"/>
	<ellipse fill="#FFFFFF" cx="35.721" cy="28.741" rx="0.719" ry="0.688"/>
	<ellipse fill="#FFFFFF" cx="24.377" cy="23.147" rx="0.813" ry="0.781"/>
	<ellipse fill="#FFFFFF" cx="21.721" cy="26.116" rx="0.656" ry="0.625"/>
	<path fill="none" stroke="#020202" stroke-width="0.75" d="M28.315,16.053c0,0,6.75-5.313,9.938-5.875S48.377,9.303,51.44,9.741
		s6.188,1,6.188,1s2.5-2.75,4.375-3.688s8-1.875,10.375-1.313s6.625,2.063,13.313,6.188s11.438,8.25,11.438,8.25
		s-6.75,2.125-8.375,2.375s-7.063,0.813-11.125,0.688s-6.688-1.25-7.563-1.5s-0.875-0.25-0.875-0.25s1.125,3.438,1.25,5.563
		s0.125,7.188-0.938,10.25s-2.5,5.625-4.125,7.5s-1.75,2.313-5,3.063s-3.938,0.438-6.563,0.313s-5.75-1-7.25-0.938
		s-3.063,0.625-6.063,2.063s-2.375,1.375-7.375,3.188s-6.625,2.313-10.375,2.5s-6.063,0.188-8.813-0.313s-5.188-1.25-5.938-1.688
		s-0.938-0.688-0.938-0.688"/>
	<path fill="none" stroke="#020202" stroke-width="0.75" d="M5.164,41.013c5.709-4.239,11.776-7.286,18.151-10.397"/>
	<path fill="none" stroke="#020202" stroke-width="0.75" d="M1.502,42.241c0,0-0.239,0.226-0.497,0.605
		c-0.317,0.466-0.663,1.165-0.628,1.958c0.063,1.438,0.438,3.875,2.375,5.25s3.563,2.563,5.813,2.063s3.875-1.125,5.75-2.75
		s3.063-2.688,3-4.5s-1.063-3-2.75-3.5s-9.938-0.375-10.938-0.313S2.065,41.866,1.502,42.241z"/>
	<path fill="#020202" d="M57.971,10.866c0,0-0.344,0.313-0.844,1.328s-0.5,1.016-0.5,1.016s0.125-2.266,1.156-3.016"/>
	<path fill="#020202" d="M69.471,22.053c0,0-3.406-1.531-5-2.875s-1.688-1.5-1.688-1.5s7.938,4,8.75,4.219"/>
	<path fill="#020202" d="M12.69,41.584c0,0-4.625,0.844-6.344,1.969s-2.375,1.875-2.094,3s0.219,0.594,1.375,2.156
		s3.094,3.406,3.094,3.406s4.219-1.656,4.875-2.094s3.688-3.969,3.719-4.75s-0.25-2.906-0.375-2.75S14.502,40.866,12.69,41.584z"/>
	<path fill="#020202" d="M2.049,41.334c0,0-0.703,0.484-0.969,0.781s0.141,0.328,0.141,0.328l0.547-0.391l0.563-0.766"/>
	<ellipse fill="none" stroke="#020202" stroke-width="0.75" cx="44.565" cy="27.012" rx="10.75" ry="9.708"/>
	<path fill="none" stroke="#020202" stroke-width="0.75" d="M33.898,24.315c0.007-0.038,0.028-0.061,0.04-0.094
		c0.257-1.128,0.942-2.146,1.824-2.95c-1.174-2.988-4.194-5.135-7.78-5.135c-4.603,0-8.333,3.507-8.333,7.833
		s3.731,7.833,8.333,7.833c2.387,0,4.524-0.958,6.043-2.473C33.484,27.739,33.642,25.614,33.898,24.315z"/>
	<path fill="none" stroke="#020202" stroke-width="0.75" d="M38.899,9.97c0,0,2.833-4.5,5.333-5.917s4.833-2.417,7.833-2.917
		s12.25-0.333,15.667-0.25s8.833,1.25,8.833,1.25l-4.188,3.604"/>
	<path fill="none" stroke="#020202" stroke-width="0.75" d="M46.232,47.387c0,0,0.084,6-1.083,8.833s-3.834,9.75-5.084,14.417
		s-2.75,13.584-2.583,18s0.416,8.917,2.833,13.75s6.251,9.999,10.334,13.666s10.083,7.334,11.083,7.834s1.333,0.666,1.333,0.666
		s0.563,1.875,1.188,4.688s2.063,5.563,2.563,11.063s0.563,14.5,0.188,18.938s-1.063,7.188-1.938,12.063s-2.125,11.188-2.125,11.188
		s-4.75,1.375-6,2.938s-1.625,4-1.625,4l3.813,0.125l-0.125,0.688h3.5v0.688c0,0,5.25-0.125,7.813-0.188s5.188-0.5,6.313-1.5
		s1.438-1.188,1.5-2.938s-0.688-4.875-0.875-6.938s-0.688-5.688-1-9.563s-0.813-11-0.75-15.125s0.188-6.188,0.688-11.063
		s0.938-6.625,1.75-11s2.063-9.313,2.5-11.813s1.063-4.813,1.063-4.813"/>
	<path fill="none" stroke="#020202" stroke-width="0.75" d="M79.315,125.886c0,0,4.25-1.582,7.25-4.166s5.916-5.251,9.833-9.001
		s7.668-7.499,10.334-9.666s4.249-3.083,5.166-3.25s1.25-0.167,1.25-0.167s-0.084,3.917,0.5,6.167s2.416,6.75,4.333,9.25
		s5.25,6.582,9.667,9.916s8.5,7,15.75,8.5s9.333,1.834,9.333,1.834s1,12.667,0.667,17.75s-2.083,13.167-4,17.75s-2.25,6.416-4,9.166
		s-3.001,3.168-4.667,4.334s-3.082,2.082-3.416,3.166s-0.25,2.084,0.25,2.417s2.416,0.417,2.416,0.417s-0.416,0.75-0.083,1.083
		s3.334,0.167,3.667,0.25s0.333,0.083,0.333,0.083s2.999,0.5,5.333,0.167s5.416-1.749,7.25-3.333s4.917-10.168,5.917-13.584
		s2.25-8.916,2.917-12.333s0.834-8.084,0.917-12.25s-0.417-13.834-0.667-17.417s-1.25-8-1.25-8s-3.668-0.583-6.584-3.583
		s-6.5-6.666-8.5-11.083s-3.499-8.333-4.499-11.5s-1.667-6.5-2.584-10.25s-4.001-12.333-5.667-14.917s-4-5.25-8.083-6.333
		s-7.999-0.917-12.916-0.167s-11.25,2.167-17.417,3.417s-9.916,2.25-14.833,2s-8.333-0.167-11.5-3.167s-3.5-4.75-4.75-8.5
		s-1.833-6.833-2.25-9.583s-0.584-4.833-0.584-4.833"/>
	<path fill="none" stroke="#020202" stroke-width="0.75" d="M47.815,113.116c0,0,1.563,8.75,3.125,12.688s2.688,9.563,3.438,12.563
		s0.688,6.75,0.75,10.875s0.125,7.375-0.375,12.125s-0.813,4.875-1.75,9.438s-2.375,8.625-2.375,8.625s-3.625,1.375-4.813,2.375
		s-1.688,2.125-1.813,2.75s-0.125,0.625-0.125,0.625s0.375,1,1.063,1.063s2.625,0.125,2.625,0.125l-0.438,0.5l3.563,0.063
		l-0.438,0.625h5.625"/>
	<path fill="none" stroke="#020202" stroke-width="0.75" d="M65.065,171.303c0,0-1.625-5.188-1.688-9.688s0.063-13.625,0.063-16.563
		s0.188-2.813,0.813-6.25s1.375-4.438,1.375-4.438"/>
	<path fill="none" stroke="#020202" stroke-width="0.75" d="M97.981,111.386c0,0,3.001,6.999,7.334,11.083
		s13.25,10.084,17.25,11.167s11.25,1.583,11.25,1.583s0.584,14.5,0.25,17.75s-1.834,11.083-3.167,14.75s-3.332,7.917-4.166,9.917
		s-1.084,2.584-1.084,2.584s-3.416,1.166-4.416,2.166s-2.918,3.416-3.084,4s0.167,1.25,0.167,1.25l2.583,0.084l-0.083,0.666
		c0,0,2.75,0.667,3.25,0.667s0.833,0,0.833,0l-0.166,0.667c0,0,4.834,0.417,6,0s3.332-1.084,4.916-2.167s2.584-1.916,3.167-3.083
		s1.333-2.834,2.833-8.834s3.834-14.499,4.167-16.666s0.249-12.75,0.333-16.167s-1.583-8.917-1.583-8.917"/>
	<path fill="none" stroke="#020202" stroke-width="0.75" d="M139.565,81.053c0,0,7,3.625,14.25,4.5s13.75,1.5,17.75-2
		s5.625-7.625,4.625-15.875s-3.625-18-3.625-18s7,9.125,9.125,17.25s3.25,16-2.125,20.625s-10.875,7.75-16.5,8.125
		s-16.125-1.25-17.125-1.5s-2.625-0.75-2.625-0.75"/>
	<path fill="#020202" d="M113.471,99.616c0,0-0.188-7.719,0.344-9.938s0.688-2.625,0.688-2.625s-1.469,3.188-1.625,5.5
		s-0.156,7.5-0.156,7.5"/>
	<polyline fill="#020202" points="63.315,124.387 55.523,100.845 62.69,124.762 	"/>
	<path fill="#020202" d="M81.815,116.095c0,0-2.583-2.209-4.25-4s-3.543-4.542-3.834-6s-0.291-3.375-0.291-3.375
		s-1.084,3.125,0.208,5.25s6.291,7.834,6.833,8.459s0.542,0.625,0.542,0.625"/>
	<path fill="#050505" d="M46.941,186.721c0.084-0.167,0.876-2.584,2.334-3.709s1.625-1.208,1.625-1.208s-3.042,4.708-3.167,4.958"/>
	<path fill="#050505" d="M50.4,186.637c0,0,1.75-3.041,2.75-3.958s1-0.917,1-0.917l-3.375,5.792"/>
	<path fill="#050505" d="M58.858,189.429c0,0,0.458-1.584,1.458-2.834s1.375-1.416,1.375-1.416s-2.334,4.625-2.417,5"/>
	<path fill="#050505" d="M62.358,190.179c0,0,0.959-3.126,1.875-4.084s1.166-1.166,1.166-1.166l-2.333,6"/>
	<path fill="#020202" d="M120.607,187.596c0,0,0.25-1.938,0.958-2.979s1.917-1.792,1.917-1.792s-2.126,4.626-2.209,5.084
		s-0.166,0.521-0.166,0.521"/>
	<path fill="#020202" d="M124.502,188.971c-0.021-0.063,0.604-3.666,1.625-4.625s1.521-1.042,1.521-1.042s-1.146,1.396-1.708,2.667
		s-0.625,3.438-0.625,3.438"/>
	<path fill="#020202" d="M139.815,190.159c0,0-0.042-1.958,1.333-3.313s1.375-1.354,1.375-1.354s-2.583,5.374-2.396,5.771"/>
	<path fill="#020202" d="M143.627,191.534c0,0-0.209-3.146,0.604-4.313s2.5-2.375,2.5-2.375s-1.167,1.688-1.688,2.625
		s-0.791,2.604-0.833,3.313s0,0.854,0,0.854"/>
</g>
<g id="frame_4">
	<ellipse fill="#FFFFFF" cx="44.94" cy="27.261" rx="10.5" ry="9.813"/>
	<ellipse fill="#FFFFFF" cx="29.971" cy="24.167" rx="10.156" ry="8.281"/>
	<path fill="#FFFFFF" d="M32.252,18.136c0.063-0.188,7.875-5.25,8.125-5.25s6.625-0.5,8.125-0.313s3.875,0.5,4.063,1.25
		s-2.938,6.063-3.125,6.75s-3.688,3.25-3.688,3.25L37.44,35.511c0,0-4.625,7.25-4.5,7.813s0.625,3.438,0.5,4.375
		s-1.563,4.5-1.563,4.5l-1.438,1.375l-0.813,0.438l-5.063,1.125l-8.063-0.188l-3.188-0.375l-2.313-0.688l-2.188-0.438l-0.938-0.625
		l-0.75-0.375l-2.25-0.875l-2.5-1.75l-0.875-1.688l-0.75-3.125l0.125-1.313l0.75-1.375l1.125-0.813l1.875-0.438l1.5-0.188
		l1.938-1.375l6.875-4.375c0,0,6.938-3.5,7.125-3.563s1.625-0.75,1.625-0.75l5.938-5.438l3.125-7.25"/>
	<path fill="#FFFFFF" d="M50.69,56.761c-0.75,0.75-5.25,20.5-5.25,20.5s2.5,10.5,2.25,11.75s2.75,13.5,3,14.25s4.5,6.5,5,7.25
		s4,6.5,4.75,7s1.125,2.375,1.125,2.375l1.25,3.75l1.938,5.75l0.563,2.5l1.563,5.313l0.375,4.375l0.313,5.125l0.063,4.125
		l0.063,5.75l-0.75,6.438c0,0-0.875,5.875-0.938,6.063s-0.625,3.688-0.625,3.688l-0.438,3.375c0,0-0.563,1.813-0.625,2.063
		s-0.25,1.688-0.313,2.063s-0.563,2.25-0.563,2.25l-5.438,2l-0.563,1.375l-0.563,1.188l-0.688,0.938l-0.313,1.438
		c0,0,0.438,0.188,0.688,0.188s2.188,0.375,2.188,0.375h1.063l0.688,0.25l2.125,0.313c0,0,0.438-0.063,0.375,0.125
		s0.25,0.5,0.25,0.5s7.188-0.125,7.375-0.188s3.5-0.313,3.5-0.313l2.438-0.75l1.063-0.938l0.813-1.688v-1.5l-0.813-5.063
		l-0.563-6.875l-0.563-6.438l-0.625-9.125v-5.625l0.375-5.5l0.625-6.375l1.313-8l3.25-14.813c0,0,5.375-0.688,5.688-1.063
		s6.125-5.938,6.125-5.938s2.438-2.313,3.438-3.313s11.813-8.188,12.188-8.5s5.625-2.5,5.625-2.5s-0.875-4.25-1.313-4.688
		s-28-8.813-28-8.813L73.065,71.511l-1.125-2.125l-1.563-1.688c0,0-1.563-2.438-1.563-2.625s-1.313-3.813-1.313-3.813l-1-2.625
		l-0.563-2.063l-0.313-1.75l-0.625-1.938c0,0-0.688-1.375-1.125-1.25s-6.125,1.5-6.563,1.625s-6.625,3.063-6.625,3.063"/>
	<path fill="#FFFFFF" d="M124.44,114.636c0,0,8.125,10.75,8.5,11s13.125,4.75,13.75,5.125s8.5,1.75,8.875,1.875
		s3.375,2.125,3.375,2.125s0,11.25-0.125,11.625s-1,12-1,12.75s0.5,9.625,0,9.875s-7,5.5-7,5.5l-2.5,2.25l-0.875,0.75l-1.625,2.813
		l-1.063,1.25l-1.063,0.938l-1.75,1.313l-2.438,1.563l-1.313,1.188l-0.625,1.375v1.625c0,0,0.313,0.688,0.5,0.688
		s1.813,0.125,1.813,0.125l0.5,0.188l-0.125,0.625c0,0,0.563,0.5,0.813,0.5s1.875-0.063,1.875-0.063l1,0.063l1.25,0.125l3.125,0.25
		c0,0,2.5-0.438,2.75-0.438s1.75-0.5,1.938-0.563s1.875-0.688,1.875-0.688l1.438-0.938l1.063-1.063l0.75-1.438l1.688-3.25
		l2.125-5.688l1.125-3.625l1.5-6.75l0.938-4.125l0.813-4.438l0.313-4.625l0.063-8.563l-0.563-7.5v-4.5l-0.875-7.375l-0.5-1.563
		l-1.5-0.25l-2.688-1.375l-2.438-1.875c0,0-2.313-1.5-2.688-1.5s-14.188-6-14.875-6.25s-11.938,0-11.625,0s-4.5,0.25-4.688,0.375"/>
	<path fill="#B2B2B2" d="M46.877,47.449l-0.375,2.75c0,0-0.063,4.25-0.188,4.438s-1.063,2.063-1.125,2.25s-0.625,2.5-0.625,2.5
		s-2.063,4.938-2.75,6.813s-2.438,9.188-2.75,10.688s-0.688,3.75-0.938,5.375s-0.5,3.938-0.438,6s0.063,2.75,0.313,4.625
		s0.688,4.688,1.375,6.375s2.063,4.688,3.875,7.5s3.375,4.75,4.125,5.75s0.875,2.125,0.875,2.125l0.813,3.688
		c0,0,1.25,5.188,2,7.063s1.313,3.563,2.063,6.313s1.5,5.5,1.75,7.25s0.625,6.625,0.625,8s0.188,5.188,0.063,7.25
		s-0.125,6.188-0.438,8.063s-0.813,4.75-1.25,6.625s-0.563,1.563-1.063,3.813s-0.688,2.75-1,4s-0.625,2.875-0.625,2.875
		l-2.813,1.188l-2.75,1.563l-1.313,1.75l-0.188,1.25l0.688,1c0,0,1.125,0.25,1.313,0.25s1.375,0.063,1.375,0.063l0.438-0.125
		l-0.438,0.5l3.188,0.063v0.5l2.813,0.188h2.188l0.5-0.125l0.938-2.188c0,0,1.5-1.313,3.063-1.75s3.063-0.938,3.063-0.938
		l1.625-7.688l0.563-3.813c0,0-1.875-8.438-1.75-10.875s-0.25-14.625-0.25-14.625s1.375-8.5,1.438-8.688s1.188-2.625,1.188-2.625
		l-2.188-8.188l-2.688-8.25l-2.563-8.563c0,0-0.938-0.875-2.438-3.688s-4.313-10.438-5.375-15.5s-0.625-11.5-0.5-14.813
		s0.875-8.875,2.313-12.313s3.563-6.188,5.625-7.188s3.313-1,4-1.063s3.313,0.063,3.313,0.063s-0.063-1.875-0.188-2.125
		s-0.5-1.813-0.5-1.813l-0.125-1.5l0.063-0.813v-1.5l-0.25-1.188c0,0-1.313-0.813-1.813-0.625s-1.5,0.063-2.063,0.125
		s-6.75,0.5-6.75,0.5l-6.5-0.938l-0.438,2"/>
	<path fill="#B2B2B2" d="M74.356,107.844c0,0-1.167,2.668-1.5,4.584s-0.666,5.75,0.667,7.833s2.5,3.583,2.5,3.583
		s-1.501,9.417-2.167,14.417s-1.249,9.334-1.416,14s-0.333,7,0.667,10.75s3.416,8.083,3.416,8.083s-0.332-7.583-0.416-7.833
		s-0.25-5.917-0.25-5.917s0.334-8.167,0.25-8.5s0.833-8.083,0.833-8.083s2.166-10.167,2.083-10.5s0.917-4.417,0.917-4.417
		l2.583-1.083l2.75-1.667c0,0,6.666-5.5,6.833-5.75s6.833-6,7.75-7s4.501-4.833,4.501-4.833l3.333-2.5l2.167-1.667l1.583-0.75
		l1.833-0.75l0.5-0.167l-0.25-2.583l0.167-2c0,0-1.501-0.667-5.417,2s-3.333,2.084-8.083,5.417s-11.083,9.5-13.75,11.333
		s-4.667,3-4.667,3"/>
	<path fill="#B2B2B2" d="M113.94,98.761l-0.167,3.666c0,0,0.334,4.75,1.167,6.667s3.583,5.666,5.083,7.583s4.5,5.167,4.5,5.167
		s-2-0.5-2.5-0.583s-6.751-2.583-7.167-2.75s-6.249-1.583-6.666-1.75s-2.084-1.749-2.334-1.833s5.834,7.084,12.167,10.25
		s8.416,3.834,9.083,4s4.417,0.333,4.417,0.333l2.917,0.583l2.666,1.583l2.667,1c0,0,0.583,2.751,1.083,6.334
		s0.751,6.999,0.751,11.333s0.415,7.001-0.001,10.334s-0.75,7.25-3.75,10.333s-5.166,4.333-6.916,5.083s-3.417,0.917-3.417,0.917
		l-1.5,3.333c0,0-3.999,1.666-4.666,2.583s-2.667,3.167-2.667,3.167l-0.25,1.333l1.333,0.334h1.25l-0.083,0.583l2.833,0.667
		l1.584,0.166c0,0-0.417,0.584,0.083,0.667s3.167,0.417,3.167,0.417l1.916-0.084l2-0.75l1.834-0.833l2.333-1l1.583-1.667
		l0.917-1.333c0,0,2.417-7,3-9.5s2.667-10.833,3.25-12.75s0.999-2.5,1.166-7.25s-0.084-12.832-0.25-13.916s-1.417-6.667-1.5-6.917
		s8,1,8,1s1.251,7.75,1.084,12.5s-0.333,7.999-0.75,10.333s-1.001,5.918-1.667,8.084s-1.166,3.834-1.916,5.25
		s-0.75,2.416-1.167,3.666s-1.333,2.5-1.333,2.5s2.249,0.666,4.666-0.75s5.5-3.75,6.667-6.583s2.75-6.917,2.75-10.5
		s0.082-11.083-0.834-17.833s-1.916-11.834-1.916-11.834s-7.333,0.668-10.75-0.166s-11.751-4.75-15.167-7.667
		s-7.583-8.334-7.583-8.334"/>
	<path fill="#B2B2B2" d="M119.315,124.387c0,0,5.208,6.083,5.458,6.333s5.042,0.667,5.792,0.875s3.709,0.042,3.917,0.125
		s0.5-0.209,0.625-0.292s0.166-0.916,0.083-1.041s-3-2.376-3.25-2.459s-10.166-2.958-10.333-2.958s-2.125-0.75-2.125-0.75"/>
	<path fill="#7C7C7C" d="M63.607,125.261c0,0-0.022,0.119-0.063,0.339c-0.352,1.904-2.082,11.37-2.604,16.078
		c-0.583,5.25-1.334,9.749-1,13.999s-0.083,5.168,0.917,7.834s4,8.666,4,8.666l0.75-0.75l-0.917-2.75l-0.916-5.833v-9.833v-7.334
		l0.083-3.416l1.083-4.917l1-2.583l-2.167-9.917"/>
	<path fill="#7C7C7C" d="M98.441,111.427c0,0,1.416,3.251,2.083,4.334s2.667,4.417,3.667,5.25s4.75,4.75,5.75,5.333
		s4.332,2.749,5.666,3.583s4.501,2.918,5.334,3.334s4.499,0.75,5.416,1s5.167,0.75,5.167,0.75l2.833,0.333
		c0,0,0.334,9.833,0.417,12.333s-0.083,5.084-0.333,6.834s-1.166,5.75-1.5,7.083s-0.416,3.333-1,4.833s-1.417,3.334-1.917,4.834
		s-2.5,5.5-2.5,5.5s3.667-0.751,4-0.834s2.917-1.25,4-2.583s3.917-4.916,4.667-7.833s1.166-8.417,1.083-11.417s0.333-9.833-0.167-13
		s-1-6.75-1-6.75l-0.5-2.083l-4.333-1.833c0,0-6.833-0.667-9.25-1.417s-6.667-3.25-8.167-4.25s-3.749-2.333-6.416-4.833"/>
	<path fill="#574C3F" d="M71.356,68.928c0,0-1.25,3.583-1.5,5.75c-0.25,2.167-1.167,7.167-0.5,12.083s1.667,7.167,3.417,10.5
		s5.166,6.667,8.583,7.167s3.916,0.166,8-1.584s5.334-2.75,8.834-4.5s6.667-3.5,8.667-3.583s6.583,0.167,6.583,0.167l0.416,4.083
		c0,0,0.334,1.25,1.834,4.667s3.916,6.583,6.333,9s4.666,4.5,9,6.083s6.167,2.75,13.25,2.917s13.583,0,13.583,0l-3.166-3.75
		l-1.917-2.334l-1.667-2.333l-1.833-3l-0.833-2.417l-1-2.5l-1.5-4.083l-0.667-2.166l-0.666-2.5l-0.584-2.084l-0.416-0.916
		l3.249,0.833l2.834,0.583l2.416,0.5l4.25,0.167l4.334,0.166h4.166l5.417-2l4.75-2.416l4.167-2.834l2.333-2.749l1.917-4.167
		l0.5-2.917l-0.25-4.417l-1.084-5.75l-1.25-3.75l-2-5l-2.25-3.75l-1.666-3.167l-2.334-2.833c0,0,0.918,4.583,1.334,6.333
		s1.25,4.5,1.25,4.5l0.25,2.75l0.5,3.25c0,0,0.25,2.5,0.25,2.75s0.083,3.25,0.083,3.25l-0.166,3.5l-0.917,2.667l-1.167,1.5
		l-0.833,1.25l-1,1.083l-1.167,1.25l-3.416,1.667l-3.084,0.333l-3.333,0.25l-5.75-0.333l-3.333-0.584l-3.917-1l-5.25-1.5
		l-2.167-1.416l-1.25-0.584l-1.25-4l-2-3.417l-3.083-3.667l-4.334-2.333l-3.666-1h-4.167l-4.166,0.417l-5.584,0.917l-5.75,1.25
		l-9.75,1.917l-7.75,1.5h-5.417H80.44l-2.417-0.167l-3.333-0.75l-1.667-1.417L71.356,68.928z"/>
	<path fill="#574C3F" d="M29.189,16.178c0,0,1.667,0.417,2.333,0.667s2,1.25,2,1.25l0.5,0.25c0,0,0.75-0.417,2.25-1.667
		s2.749-1.833,5.083-2.333s5.584-0.417,6.667-0.25s1.667,0.417,1.667,0.417l-0.417,3.583l2.667,1.833l2,1.333
		c0,0,0.834,1.833,1,2.167s0.249,1.5,0.416,1.75s0.416,1.167,0.5,1.5s0.083,1.25,0,1.833s-0.417,1.417-0.5,1.667
		s-0.5,1.167-0.583,1.417s-0.75,1.25-0.75,1.25l-2.75,2.5l-2,0.833l-2.583,0.583l-2,0.167l-3.75-0.667l-1.584-0.75
		c0,0-1.166-0.833-1.416-1.083s-1.084-1-1.334-1.083s-1.083-1.167-1.083-1.167s-1.5,2-2.667,3.667s-1.167,3.25-1.25,5.5
		s0.333,4.333,0.333,5.75s0.583,2.25-0.417,3.75s-2.583,3.417-2.583,3.417l10.25-4.25c0,0,7.416-4.417,8.416-4.917
		s8.168-5.667,8.834-6.167s7.833-9.084,7.583-8.917s-1.334-1.5-1.417-2.083s2.75-5.333,2.75-5.333s2.084-0.083,2.417-0.25
		s1.583-0.833,1.583-0.833s1.918,0.667,3.084,1.167s6,0.917,6,0.917l1.916-0.167l4.667-0.25l2.583-0.25l2.5-0.333l2.75-0.667l3.25-1
		l1.167-0.5l-3.75-3.25l-3.5-2.583l-3.417-2.083l-4.25-2.5L77.44,7.595l-3.5-1.417l-0.834-0.583l2.167-2l1.5-1.417l-4.667-0.583
		l-4.833-0.75h-7.5l-4.417,0.333L52.19,1.095l-4.167,1.417L44.44,4.428l-2.167,2.083L40.44,8.345l-0.917,1.417l-3,1.333l-4.083,2.5
		L29.189,16.178z"/>
	<path fill="#3D352C" d="M63.94,18.699c0,0-1.563-1.25-1.875-1.5s-0.438-0.5-0.438-0.5s-2.063,8.313-4.313,12.313
		s-3.313,5.813-6.063,8.5s-7.938,7.563-11.063,9.875s-8.875,6.25-8.875,6.25s5.625-2.188,6.313-2.625s3.938-1.938,3.938-1.938
		l3.438-1.25l2-0.563l3.063,0.5c0,0,3.438,0.375,3.75,0.375s2.75,0.188,2.75,0.188s2.625,0,2.813,0s2.063-0.25,2.313-0.313
		s1.813-1.063,1.813-1.063l1.875-1.375l1.813-2.375l0.813-1.375l0.875-1.813l0.813-2l0.938-3.438l0.375-3.563l-0.063-3.438
		l-0.313-2.875l-0.563-1.563l-0.5-1.375l-0.125-0.438l-2-1.125l-1.688-0.625l-1.563-1L63.94,18.699z"/>
	<path fill="#3D352C" d="M100.46,109.594c0,0,1.688,3.75,4.625,5.938s5.5,4,7.938,4.938s4.625,1.188,6.375,1.313
		s4.813,0.125,4.813,0.125s-2.75-2.438-3.313-3.063s-3.75-4.875-3.75-4.875l-1.063-1.938l-0.813-1.625l-0.688-1.688l-0.688-2.688
		l-0.5-3.063l-0.063-1.188l-0.063-1l0.063-0.875l-1.313,0.188l-2.313,1.375l-2.063,1.25l-1.813,1.375l-1,1.25l-1.438,1.125
		l-2.063,1.813L100.46,109.594z"/>
	<ellipse fill="#20A0FF" cx="38.284" cy="27.386" rx="3.781" ry="3.75"/>
	<ellipse fill="#004774" cx="37.784" cy="27.199" rx="1.531" ry="1.5"/>
	<ellipse fill="#20A0FF" cx="23.565" cy="24.761" rx="3.125" ry="3"/>
	<ellipse fill="#004774" cx="23.284" cy="24.699" rx="1.094" ry="1.063"/>
	<ellipse fill="#FFFFFF" cx="39.627" cy="25.292" rx="1" ry="0.906"/>
	<ellipse fill="#FFFFFF" cx="36.096" cy="28.949" rx="0.719" ry="0.688"/>
	<ellipse fill="#FFFFFF" cx="24.752" cy="23.355" rx="0.813" ry="0.781"/>
	<ellipse fill="#FFFFFF" cx="22.096" cy="26.324" rx="0.656" ry="0.625"/>
	<path fill="none" stroke="#020202" stroke-width="0.75" d="M28.69,16.261c0,0,6.75-5.313,9.938-5.875s10.125-0.875,13.188-0.438
		s6.188,1,6.188,1s2.5-2.75,4.375-3.688s8-1.875,10.375-1.313s6.625,2.063,13.313,6.188s11.438,8.25,11.438,8.25
		s-6.75,2.125-8.375,2.375s-7.063,0.813-11.125,0.688s-6.688-1.25-7.563-1.5s-0.875-0.25-0.875-0.25s1.125,3.438,1.25,5.563
		s0.125,7.188-0.938,10.25s-2.5,5.625-4.125,7.5s-1.75,2.313-5,3.063s-3.938,0.438-6.563,0.313s-5.75-1-7.25-0.938
		s-3.063,0.625-6.063,2.063s-2.375,1.375-7.375,3.188s-6.625,2.313-10.375,2.5s-6.063,0.188-8.813-0.313s-5.188-1.25-5.938-1.688
		S7.44,52.511,7.44,52.511"/>
	<path fill="none" stroke="#020202" stroke-width="0.75" d="M5.539,41.221c5.709-4.239,11.776-7.286,18.151-10.397"/>
	<path fill="none" stroke="#020202" stroke-width="0.75" d="M1.877,42.449c0,0-0.239,0.226-0.497,0.605
		c-0.317,0.466-0.663,1.165-0.628,1.958c0.063,1.438,0.438,3.875,2.375,5.25s3.563,2.563,5.813,2.063s3.875-1.125,5.75-2.75
		s3.063-2.688,3-4.5s-1.063-3-2.75-3.5s-9.938-0.375-10.938-0.313S2.44,42.074,1.877,42.449z"/>
	<path fill="#020202" d="M58.346,11.074c0,0-0.344,0.313-0.844,1.328s-0.5,1.016-0.5,1.016s0.125-2.266,1.156-3.016"/>
	<path fill="#020202" d="M69.846,22.261c0,0-3.406-1.531-5-2.875s-1.688-1.5-1.688-1.5s7.938,4,8.75,4.219"/>
	<path fill="#020202" d="M13.065,41.792c0,0-4.625,0.844-6.344,1.969s-2.375,1.875-2.094,3s0.219,0.594,1.375,2.156
		s3.094,3.406,3.094,3.406s4.219-1.656,4.875-2.094s3.688-3.969,3.719-4.75s-0.25-2.906-0.375-2.75S14.877,41.074,13.065,41.792z"/>
	<path fill="#020202" d="M2.424,41.542c0,0-0.703,0.484-0.969,0.781s0.141,0.328,0.141,0.328l0.547-0.391l0.563-0.766"/>
	<ellipse fill="none" stroke="#020202" stroke-width="0.75" cx="44.94" cy="27.22" rx="10.75" ry="9.708"/>
	<path fill="none" stroke="#020202" stroke-width="0.75" d="M34.273,24.523c0.007-0.038,0.028-0.061,0.04-0.094
		c0.257-1.128,0.942-2.146,1.824-2.95c-1.174-2.988-4.194-5.135-7.78-5.135c-4.603,0-8.333,3.507-8.333,7.833
		s3.731,7.833,8.333,7.833c2.387,0,4.524-0.958,6.043-2.473C33.859,27.947,34.017,25.822,34.273,24.523z"/>
	<path fill="none" stroke="#020202" stroke-width="0.75" d="M39.274,10.178c0,0,2.833-4.5,5.333-5.917s4.833-2.417,7.833-2.917
		s12.25-0.333,15.667-0.25s8.833,1.25,8.833,1.25l-4.188,3.604"/>
	<path fill="none" stroke="#020202" stroke-width="0.75" d="M46.607,47.595c0,0,0.084,6-1.083,8.833s-3.834,9.75-5.084,14.417
		s-2.75,13.584-2.583,18s0.416,8.917,2.833,13.75s6.251,9.999,10.334,13.666s10.083,7.334,11.083,7.834s1.333,0.666,1.333,0.666
		s0.563,1.875,1.188,4.688s2.063,5.563,2.563,11.063s0.563,14.5,0.188,18.938s-1.063,7.188-1.938,12.063s-2.125,11.188-2.125,11.188
		s-4.75,1.375-6,2.938s-1.625,4-1.625,4l3.813,0.125l-0.125,0.688h3.5v0.688c0,0,5.25-0.125,7.813-0.188s5.188-0.5,6.313-1.5
		s1.438-1.188,1.5-2.938s-0.688-4.875-0.875-6.938s-0.688-5.688-1-9.563s-0.813-11-0.75-15.125s0.188-6.188,0.688-11.063
		s0.938-6.625,1.75-11s2.063-9.313,2.5-11.813s1.063-4.813,1.063-4.813"/>
	<path fill="none" stroke="#020202" stroke-width="0.75" d="M79.69,126.094c0,0,4.25-1.582,7.25-4.166s5.916-5.251,9.833-9.001
		s7.668-7.499,10.334-9.666s4.249-3.083,5.166-3.25s1.25-0.167,1.25-0.167s-0.084,3.917,0.5,6.167s2.416,6.75,4.333,9.25
		s5.25,6.582,9.667,9.916s8.5,7,15.75,8.5s9.333,1.834,9.333,1.834s1,12.667,0.667,17.75s-2.083,13.167-4,17.75s-2.25,6.416-4,9.166
		s-3.001,3.168-4.667,4.334s-3.082,2.082-3.416,3.166s-0.25,2.084,0.25,2.417s2.416,0.417,2.416,0.417s-0.416,0.75-0.083,1.083
		s3.334,0.167,3.667,0.25s0.333,0.083,0.333,0.083s2.999,0.5,5.333,0.167s5.416-1.749,7.25-3.333s4.917-10.168,5.917-13.584
		s2.25-8.916,2.917-12.333s0.834-8.084,0.917-12.25s-0.417-13.834-0.667-17.417s-1.25-8-1.25-8s-3.668-0.583-6.584-3.583
		s-6.5-6.666-8.5-11.083s-3.499-8.333-4.499-11.5s-1.667-6.5-2.584-10.25s-4.001-12.334-5.667-14.917
		c-1.666-2.583-4-5.25-8.083-6.333s-7.999-0.917-12.916-0.167s-11.25,2.167-17.417,3.417s-9.916,2.25-14.833,2
		s-8.333-0.167-11.5-3.167s-3.5-4.75-4.75-8.5s-1.833-6.833-2.25-9.583s-0.584-4.833-0.584-4.833"/>
	<path fill="none" stroke="#020202" stroke-width="0.75" d="M48.19,113.324c0,0,1.563,8.75,3.125,12.688s2.688,9.563,3.438,12.563
		s0.688,6.75,0.75,10.875s0.125,7.375-0.375,12.125s-0.813,4.875-1.75,9.438s-2.375,8.625-2.375,8.625s-3.625,1.375-4.813,2.375
		s-1.688,2.125-1.813,2.75s-0.125,0.625-0.125,0.625s0.375,1,1.063,1.063s2.625,0.125,2.625,0.125l-0.438,0.5l3.563,0.063
		l-0.438,0.625h5.625"/>
	<path fill="none" stroke="#020202" stroke-width="0.75" d="M65.44,171.511c0,0-1.625-5.188-1.688-9.688s0.063-13.625,0.063-16.563
		s0.188-2.813,0.813-6.25s1.375-4.438,1.375-4.438"/>
	<path fill="none" stroke="#020202" stroke-width="0.75" d="M98.356,111.594c0,0,3.001,6.999,7.334,11.083
		s13.25,10.084,17.25,11.167s11.25,1.583,11.25,1.583s0.584,14.5,0.25,17.75s-1.834,11.083-3.167,14.75s-3.332,7.917-4.166,9.917
		s-1.084,2.584-1.084,2.584s-3.416,1.166-4.416,2.166s-2.918,3.416-3.084,4s0.167,1.25,0.167,1.25l2.583,0.084l-0.083,0.666
		c0,0,2.75,0.667,3.25,0.667s0.833,0,0.833,0l-0.166,0.667c0,0,4.834,0.417,6,0s3.332-1.084,4.916-2.167s2.584-1.916,3.167-3.083
		s1.333-2.834,2.833-8.834s3.834-14.499,4.167-16.666s0.249-12.75,0.333-16.167s-1.583-8.917-1.583-8.917"/>
	<path fill="none" stroke="#020202" stroke-width="0.75" d="M139.94,81.261c0,0,7,3.625,14.25,4.5s13.75,1.5,17.75-2
		s5.625-7.625,4.625-15.875s-3.625-18-3.625-18s7,9.125,9.125,17.25s3.25,16-2.125,20.625s-10.875,7.75-16.5,8.125
		s-16.125-1.25-17.125-1.5s-2.625-0.75-2.625-0.75"/>
	<path fill="#020202" d="M113.846,99.824c0,0-0.188-7.719,0.344-9.938s0.688-2.625,0.688-2.625s-1.469,3.188-1.625,5.5
		s-0.156,7.5-0.156,7.5"/>
	<polyline fill="#020202" points="63.69,124.595 55.898,101.053 63.065,124.97 	"/>
	<path fill="#020202" d="M82.19,116.303c0,0-2.583-2.209-4.25-4s-3.543-4.542-3.834-6s-0.291-3.375-0.291-3.375
		s-1.084,3.125,0.208,5.25s6.291,7.834,6.833,8.459s0.542,0.625,0.542,0.625"/>
	<path fill="#050505" d="M47.316,186.929c0.084-0.167,0.876-2.584,2.334-3.709s1.625-1.208,1.625-1.208s-3.042,4.708-3.167,4.958"/>
	<path fill="#050505" d="M50.775,186.845c0,0,1.75-3.041,2.75-3.958s1-0.917,1-0.917l-3.375,5.792"/>
	<path fill="#050505" d="M59.233,189.637c0,0,0.458-1.584,1.458-2.834s1.375-1.416,1.375-1.416s-2.334,4.625-2.417,5"/>
	<path fill="#050505" d="M62.733,190.387c0,0,0.959-3.126,1.875-4.084s1.166-1.166,1.166-1.166l-2.333,6"/>
	<path fill="#020202" d="M120.982,187.804c0,0,0.25-1.938,0.958-2.979s1.917-1.792,1.917-1.792s-2.126,4.626-2.209,5.084
		s-0.166,0.521-0.166,0.521"/>
	<path fill="#020202" d="M124.877,189.179c-0.021-0.063,0.604-3.666,1.625-4.625s1.521-1.042,1.521-1.042s-1.146,1.396-1.708,2.667
		s-0.625,3.438-0.625,3.438"/>
	<path fill="#020202" d="M140.19,190.367c0,0-0.042-1.958,1.333-3.313s1.375-1.354,1.375-1.354s-2.583,5.374-2.396,5.771"/>
	<path fill="#020202" d="M144.002,191.742c0,0-0.209-3.146,0.604-4.313s2.5-2.375,2.5-2.375s-1.167,1.688-1.688,2.625
		s-0.791,2.604-0.833,3.313s0,0.854,0,0.854"/>
	<path fill="#FFFFFF" d="M34.94,25.199c0,0-0.833,3.208,0.125,4.604s6.104,2.458,6.271,2.313s1.313-2.938,1.354-3.5
		s-0.104-3.083-0.188-3.167s-1.126-1.979-1.417-2.083s-2.166-0.167-2.541-0.042s-1.604,0.438-1.813,0.5s-1.271,0.625-1.354,0.688
		c-0.083,0.063-0.708,1.396-0.708,1.396s-0.563,4.041,1.229,4.958"/>
	<path fill="#FFFFFF" d="M27.919,21.386c0,0,0.167,2.813,0.104,3.188s-1.646,2.917-1.854,3.208s-1.958,1.021-2.083,1.063
		s-1.667-0.396-1.729-0.396s-1.438-1.75-1.438-1.75s-0.625-1.271-0.521-2.771s1.313-2.021,1.313-2.021s1.583-0.563,1.646-0.583"/>
	<polyline fill="none" stroke="#000000" points="55.732,27.636 34.481,26.72 20.481,22.136 	"/>
</g>
<g id="frame_5">
	<ellipse fill="#FFFFFF" cx="44.627" cy="27.136" rx="10.5" ry="9.813"/>
	<ellipse fill="#FFFFFF" cx="29.596" cy="24.042" rx="10.156" ry="8.281"/>
	<path fill="#FFFFFF" d="M31.877,18.011c0.063-0.188,7.875-5.25,8.125-5.25s6.625-0.5,8.125-0.313s3.875,0.5,4.063,1.25
		s-2.938,6.063-3.125,6.75s-3.688,3.25-3.688,3.25l-8.313,11.688c0,0-4.625,7.25-4.5,7.813s0.625,3.438,0.5,4.375
		s-1.563,4.5-1.563,4.5l-1.438,1.375l-0.813,0.438l-5.063,1.125l-8.063-0.188l-3.188-0.375l-2.313-0.688L8.44,53.324l-0.938-0.625
		l-0.75-0.375l-2.25-0.875l-2.5-1.75l-0.875-1.688l-0.75-3.125l0.125-1.313l0.75-1.375l1.125-0.813l1.875-0.438l1.5-0.188
		l1.938-1.375l6.875-4.375c0,0,6.938-3.5,7.125-3.563s1.625-0.75,1.625-0.75l5.938-5.438l3.125-7.25"/>
	<path fill="#FFFFFF" d="M50.315,56.636c-0.75,0.75-5.25,20.5-5.25,20.5s2.5,10.5,2.25,11.75s2.75,13.5,3,14.25s4.5,6.5,5,7.25
		s4,6.5,4.75,7s1.125,2.375,1.125,2.375l1.25,3.75l1.938,5.75l0.563,2.5l1.563,5.313l0.375,4.375l0.313,5.125l0.063,4.125
		l0.063,5.75l-0.75,6.438c0,0-0.875,5.875-0.938,6.063s-0.625,3.688-0.625,3.688l-0.438,3.375c0,0-0.563,1.813-0.625,2.063
		s-0.25,1.688-0.313,2.063s-0.563,2.25-0.563,2.25l-5.438,2l-0.563,1.375l-0.563,1.188l-0.688,0.938l-0.313,1.438
		c0,0,0.438,0.188,0.688,0.188s2.188,0.375,2.188,0.375h1.063l0.688,0.25l2.125,0.313c0,0,0.438-0.063,0.375,0.125
		s0.25,0.5,0.25,0.5s7.188-0.125,7.375-0.188s3.5-0.313,3.5-0.313l2.438-0.75l1.063-0.938l0.813-1.688v-1.5l-0.813-5.063
		l-0.563-6.875l-0.563-6.438l-0.625-9.125v-5.625l0.375-5.5l0.625-6.375l1.313-8l3.25-14.813c0,0,5.375-0.688,5.688-1.063
		s6.125-5.938,6.125-5.938s2.438-2.313,3.438-3.313s11.813-8.188,12.188-8.5s5.625-2.5,5.625-2.5s-0.875-4.25-1.313-4.688
		s-28-8.813-28-8.813L72.69,71.386l-1.125-2.125l-1.563-1.688c0,0-1.563-2.438-1.563-2.625s-1.313-3.813-1.313-3.813l-1-2.625
		l-0.563-2.063l-0.313-1.75l-0.625-1.938c0,0-0.688-1.375-1.125-1.25s-6.125,1.5-6.563,1.625s-6.625,3.063-6.625,3.063"/>
	<path fill="#FFFFFF" d="M124.065,114.511c0,0,8.125,10.75,8.5,11s13.125,4.75,13.75,5.125s8.5,1.75,8.875,1.875
		s3.375,2.125,3.375,2.125s0,11.25-0.125,11.625s-1,12-1,12.75s0.5,9.625,0,9.875s-7,5.5-7,5.5l-2.5,2.25l-0.875,0.75l-1.625,2.813
		l-1.063,1.25l-1.063,0.938l-1.75,1.313l-2.438,1.563l-1.313,1.188l-0.625,1.375v1.625c0,0,0.313,0.688,0.5,0.688
		s1.813,0.125,1.813,0.125l0.5,0.188l-0.125,0.625c0,0,0.563,0.5,0.813,0.5s1.875-0.063,1.875-0.063l1,0.063l1.25,0.125l3.125,0.25
		c0,0,2.5-0.438,2.75-0.438s1.75-0.5,1.938-0.563s1.875-0.688,1.875-0.688l1.438-0.938l1.063-1.063l0.75-1.438l1.688-3.25
		l2.125-5.688l1.125-3.625l1.5-6.75l0.938-4.125l0.813-4.438l0.313-4.625l0.063-8.563l-0.563-7.5v-4.5l-0.875-7.375l-0.5-1.563
		l-1.5-0.25l-2.688-1.375l-2.438-1.875c0,0-2.313-1.5-2.688-1.5s-14.188-6-14.875-6.25s-11.938,0-11.625,0s-4.5,0.25-4.688,0.375"/>
	<path fill="#B2B2B2" d="M46.502,47.324l-0.375,2.75c0,0-0.063,4.25-0.188,4.438s-1.063,2.063-1.125,2.25s-0.625,2.5-0.625,2.5
		s-2.063,4.938-2.75,6.813s-2.438,9.188-2.75,10.688s-0.688,3.75-0.938,5.375s-0.5,3.938-0.438,6s0.063,2.75,0.313,4.625
		s0.688,4.688,1.375,6.375s2.063,4.688,3.875,7.5s3.375,4.75,4.125,5.75s0.875,2.125,0.875,2.125l0.813,3.688
		c0,0,1.25,5.188,2,7.063s1.313,3.563,2.063,6.313s1.5,5.5,1.75,7.25s0.625,6.625,0.625,8s0.188,5.188,0.063,7.25
		s-0.125,6.188-0.438,8.063s-0.813,4.75-1.25,6.625s-0.563,1.563-1.063,3.813s-0.688,2.75-1,4s-0.625,2.875-0.625,2.875
		l-2.813,1.188l-2.75,1.563l-1.313,1.75l-0.188,1.25l0.688,1c0,0,1.125,0.25,1.313,0.25s1.375,0.063,1.375,0.063l0.438-0.125
		l-0.438,0.5l3.188,0.063v0.5l2.813,0.188h2.188l0.5-0.125l0.938-2.188c0,0,1.5-1.313,3.063-1.75s3.063-0.938,3.063-0.938
		l1.625-7.688l0.563-3.813c0,0-1.875-8.438-1.75-10.875s-0.25-14.625-0.25-14.625s1.375-8.5,1.438-8.688s1.188-2.625,1.188-2.625
		l-2.188-8.188l-2.688-8.25l-2.563-8.563c0,0-0.938-0.875-2.438-3.688s-4.313-10.438-5.375-15.5s-0.625-11.5-0.5-14.813
		s0.875-8.875,2.313-12.313s3.563-6.188,5.625-7.188s3.313-1,4-1.063s3.313,0.063,3.313,0.063s-0.063-1.875-0.188-2.125
		s-0.5-1.813-0.5-1.813l-0.125-1.5l0.063-0.813v-1.5l-0.25-1.188c0,0-1.313-0.813-1.813-0.625s-1.5,0.063-2.063,0.125
		s-6.75,0.5-6.75,0.5l-6.5-0.938l-0.438,2"/>
	<path fill="#B2B2B2" d="M73.981,107.719c0,0-1.167,2.668-1.5,4.584s-0.666,5.75,0.667,7.833s2.5,3.583,2.5,3.583
		s-1.501,9.417-2.167,14.417s-1.249,9.334-1.416,14s-0.333,7,0.667,10.75s3.416,8.083,3.416,8.083s-0.332-7.583-0.416-7.833
		s-0.25-5.917-0.25-5.917s0.334-8.167,0.25-8.5s0.833-8.083,0.833-8.083s2.166-10.167,2.083-10.5s0.917-4.417,0.917-4.417
		l2.583-1.083l2.75-1.667c0,0,6.666-5.5,6.833-5.75s6.833-6,7.75-7s4.501-4.833,4.501-4.833l3.333-2.5l2.167-1.667l1.583-0.75
		l1.833-0.75l0.5-0.167l-0.25-2.583l0.167-2c0,0-1.501-0.667-5.417,2s-3.333,2.084-8.083,5.417s-11.083,9.5-13.75,11.333
		s-4.667,3-4.667,3"/>
	<path fill="#B2B2B2" d="M113.565,98.636l-0.167,3.666c0,0,0.334,4.75,1.167,6.667s3.583,5.666,5.083,7.583s4.5,5.167,4.5,5.167
		s-2-0.5-2.5-0.583s-6.751-2.583-7.167-2.75s-6.249-1.583-6.666-1.75s-2.084-1.749-2.334-1.833s5.834,7.084,12.167,10.25
		s8.416,3.834,9.083,4s4.417,0.333,4.417,0.333l2.917,0.583l2.666,1.583l2.667,1c0,0,0.583,2.751,1.083,6.334
		s0.751,6.999,0.751,11.333s0.415,7.001-0.001,10.334s-0.75,7.25-3.75,10.333s-5.166,4.333-6.916,5.083s-3.417,0.917-3.417,0.917
		l-1.5,3.333c0,0-3.999,1.666-4.666,2.583s-2.667,3.167-2.667,3.167l-0.25,1.333l1.333,0.334h1.25l-0.083,0.583l2.833,0.667
		l1.584,0.166c0,0-0.417,0.584,0.083,0.667s3.167,0.417,3.167,0.417l1.916-0.084l2-0.75l1.834-0.833l2.333-1l1.583-1.667
		l0.917-1.333c0,0,2.417-7,3-9.5s2.667-10.833,3.25-12.75s0.999-2.5,1.166-7.25s-0.084-12.832-0.25-13.916s-1.417-6.667-1.5-6.917
		s8,1,8,1s1.251,7.75,1.084,12.5s-0.333,7.999-0.75,10.333s-1.001,5.918-1.667,8.084s-1.166,3.834-1.916,5.25
		s-0.75,2.416-1.167,3.666s-1.333,2.5-1.333,2.5s2.249,0.666,4.666-0.75s5.5-3.75,6.667-6.583s2.75-6.917,2.75-10.5
		s0.082-11.083-0.834-17.833s-1.916-11.834-1.916-11.834s-7.333,0.668-10.75-0.166s-11.751-4.75-15.167-7.667
		s-7.583-8.334-7.583-8.334"/>
	<path fill="#B2B2B2" d="M118.94,124.262c0,0,5.208,6.083,5.458,6.333s5.042,0.667,5.792,0.875s3.709,0.042,3.917,0.125
		s0.5-0.209,0.625-0.292s0.166-0.916,0.083-1.041s-3-2.376-3.25-2.459s-10.166-2.958-10.333-2.958s-2.125-0.75-2.125-0.75"/>
	<path fill="#7C7C7C" d="M63.232,125.136c0,0-0.022,0.119-0.063,0.339c-0.352,1.904-2.082,11.37-2.604,16.078
		c-0.583,5.25-1.334,9.749-1,13.999s-0.083,5.168,0.917,7.834s4,8.666,4,8.666l0.75-0.75l-0.917-2.75l-0.916-5.833v-9.833v-7.334
		l0.083-3.416l1.083-4.917l1-2.583l-2.167-9.917"/>
	<path fill="#7C7C7C" d="M98.066,111.302c0,0,1.416,3.251,2.083,4.334s2.667,4.417,3.667,5.25s4.75,4.75,5.75,5.333
		s4.332,2.749,5.666,3.583s4.501,2.918,5.334,3.334s4.499,0.75,5.416,1s5.167,0.75,5.167,0.75l2.833,0.333
		c0,0,0.334,9.833,0.417,12.333s-0.083,5.084-0.333,6.834s-1.166,5.75-1.5,7.083s-0.416,3.333-1,4.833s-1.417,3.334-1.917,4.834
		s-2.5,5.5-2.5,5.5s3.667-0.751,4-0.834s2.917-1.25,4-2.583s3.917-4.916,4.667-7.833s1.166-8.417,1.083-11.417s0.333-9.833-0.167-13
		s-1-6.75-1-6.75l-0.5-2.083l-4.333-1.833c0,0-6.833-0.667-9.25-1.417s-6.667-3.25-8.167-4.25s-3.749-2.333-6.416-4.833"/>
	<path fill="#574C3F" d="M70.981,68.803c0,0-1.25,3.583-1.5,5.75s-1.167,7.167-0.5,12.083s1.667,7.167,3.417,10.5
		s5.166,6.667,8.583,7.167s3.916,0.166,8-1.584s5.334-2.75,8.834-4.5s6.667-3.5,8.667-3.583s6.583,0.167,6.583,0.167l0.416,4.083
		c0,0,0.334,1.25,1.834,4.667s3.916,6.583,6.333,9s4.666,4.5,9,6.083s6.167,2.75,13.25,2.917s13.583,0,13.583,0l-3.166-3.75
		l-1.917-2.334l-1.667-2.333l-1.833-3l-0.833-2.417l-1-2.5l-1.5-4.083l-0.667-2.166l-0.666-2.5l-0.584-2.084l-0.416-0.916
		l3.249,0.833l2.834,0.583l2.416,0.5l4.25,0.167l4.334,0.166h4.166l5.417-2l4.75-2.416l4.167-2.834l2.333-2.749l1.917-4.167
		l0.5-2.917l-0.25-4.417l-1.084-5.75l-1.25-3.75l-2-5l-2.25-3.75l-1.666-3.167l-2.334-2.833c0,0,0.918,4.583,1.334,6.333
		s1.25,4.5,1.25,4.5l0.25,2.75l0.5,3.25c0,0,0.25,2.5,0.25,2.75s0.083,3.25,0.083,3.25l-0.166,3.5l-0.917,2.667l-1.167,1.5
		l-0.833,1.25l-1,1.083l-1.167,1.25l-3.416,1.667l-3.084,0.333l-3.333,0.25l-5.75-0.333l-3.333-0.584l-3.917-1l-5.25-1.5
		l-2.167-1.416l-1.25-0.584l-1.25-4l-2-3.417l-3.083-3.667l-4.334-2.333l-3.666-1h-4.167l-4.166,0.417l-5.584,0.917l-5.75,1.25
		l-9.75,1.917l-7.75,1.5h-5.417h-2.666l-2.417-0.167l-3.333-0.75l-1.667-1.417L70.981,68.803z"/>
	<path fill="#574C3F" d="M28.814,16.053c0,0,1.667,0.417,2.333,0.667s2,1.25,2,1.25l0.5,0.25c0,0,0.75-0.417,2.25-1.667
		s2.749-1.833,5.083-2.333s5.584-0.417,6.667-0.25s1.667,0.417,1.667,0.417l-0.417,3.583l2.667,1.833l2,1.333
		c0,0,0.834,1.833,1,2.167s0.249,1.5,0.416,1.75s0.416,1.167,0.5,1.5s0.083,1.25,0,1.833s-0.417,1.417-0.5,1.667
		s-0.5,1.167-0.583,1.417s-0.75,1.25-0.75,1.25l-2.75,2.5l-2,0.833l-2.583,0.583l-2,0.167l-3.75-0.667l-1.584-0.75
		c0,0-1.166-0.833-1.416-1.083s-1.084-1-1.334-1.083s-1.083-1.167-1.083-1.167s-1.5,2-2.667,3.667s-1.167,3.25-1.25,5.5
		s0.333,4.333,0.333,5.75s0.583,2.25-0.417,3.75s-2.583,3.417-2.583,3.417l10.25-4.25c0,0,7.416-4.417,8.416-4.917
		s8.168-5.667,8.834-6.167s7.833-9.084,7.583-8.917s-1.334-1.5-1.417-2.083s2.75-5.333,2.75-5.333s2.084-0.083,2.417-0.25
		s1.583-0.833,1.583-0.833s1.918,0.667,3.084,1.167s6,0.917,6,0.917l1.916-0.167l4.667-0.25l2.583-0.25l2.5-0.333l2.75-0.667l3.25-1
		l1.167-0.5l-3.75-3.25l-3.5-2.583l-3.417-2.083l-4.25-2.5L77.065,7.47l-3.5-1.417L72.731,5.47l2.167-2l1.5-1.417L71.731,1.47
		l-4.833-0.75h-7.5l-4.417,0.333L51.815,0.97l-4.167,1.417l-3.583,1.917l-2.167,2.083L40.065,8.22l-0.917,1.417l-3,1.333l-4.083,2.5
		L28.814,16.053z"/>
	<path fill="#3D352C" d="M63.565,18.574c0,0-1.563-1.25-1.875-1.5s-0.438-0.5-0.438-0.5s-2.063,8.313-4.313,12.313
		s-3.313,5.813-6.063,8.5s-7.938,7.563-11.063,9.875s-8.875,6.25-8.875,6.25s5.625-2.188,6.313-2.625s3.938-1.938,3.938-1.938
		l3.438-1.25l2-0.563l3.063,0.5c0,0,3.438,0.375,3.75,0.375s2.75,0.188,2.75,0.188s2.625,0,2.813,0s2.063-0.25,2.313-0.313
		s1.813-1.063,1.813-1.063l1.875-1.375l1.813-2.375l0.813-1.375l0.875-1.813l0.813-2l0.938-3.438l0.375-3.563l-0.063-3.438
		l-0.313-2.875l-0.563-1.563l-0.5-1.375l-0.125-0.438l-2-1.125l-1.688-0.625l-1.563-1L63.565,18.574z"/>
	<path fill="#3D352C" d="M100.085,109.469c0,0,1.688,3.75,4.625,5.938s5.5,4,7.938,4.938s4.625,1.188,6.375,1.313
		s4.813,0.125,4.813,0.125s-2.75-2.438-3.313-3.063s-3.75-4.875-3.75-4.875l-1.063-1.938l-0.813-1.625l-0.688-1.688l-0.688-2.688
		l-0.5-3.063l-0.063-1.188l-0.063-1l0.063-0.875l-1.313,0.188l-2.313,1.375l-2.063,1.25l-1.813,1.375l-1,1.25l-1.438,1.125
		l-2.063,1.813L100.085,109.469z"/>
	<ellipse fill="#20A0FF" cx="37.909" cy="27.261" rx="3.781" ry="3.75"/>
	<ellipse fill="#004774" cx="37.409" cy="27.074" rx="1.531" ry="1.5"/>
	<ellipse fill="#20A0FF" cx="23.19" cy="24.636" rx="3.125" ry="3"/>
	<ellipse fill="#004774" cx="22.909" cy="24.574" rx="1.094" ry="1.063"/>
	<ellipse fill="#FFFFFF" cx="39.252" cy="25.167" rx="1" ry="0.906"/>
	<ellipse fill="#FFFFFF" cx="35.721" cy="28.824" rx="0.719" ry="0.688"/>
	<ellipse fill="#FFFFFF" cx="24.377" cy="23.23" rx="0.813" ry="0.781"/>
	<ellipse fill="#FFFFFF" cx="21.721" cy="26.199" rx="0.656" ry="0.625"/>
	<path fill="none" stroke="#020202" stroke-width="0.75" d="M28.315,16.136c0,0,6.75-5.313,9.938-5.875S48.377,9.386,51.44,9.824
		s6.188,1,6.188,1s2.5-2.75,4.375-3.688s8-1.875,10.375-1.313s6.625,2.063,13.313,6.188s11.438,8.25,11.438,8.25
		s-6.75,2.125-8.375,2.375s-7.063,0.813-11.125,0.688s-6.688-1.25-7.563-1.5s-0.875-0.25-0.875-0.25s1.125,3.438,1.25,5.563
		s0.125,7.188-0.938,10.25s-2.5,5.625-4.125,7.5s-1.75,2.313-5,3.063s-3.938,0.438-6.563,0.313s-5.75-1-7.25-0.938
		s-3.063,0.625-6.063,2.063s-2.375,1.375-7.375,3.188s-6.625,2.313-10.375,2.5s-6.063,0.188-8.813-0.313s-5.188-1.25-5.938-1.688
		s-0.938-0.688-0.938-0.688"/>
	<path fill="none" stroke="#020202" stroke-width="0.75" d="M5.164,41.096c5.709-4.239,11.776-7.286,18.151-10.397"/>
	<path fill="none" stroke="#020202" stroke-width="0.75" d="M1.502,42.324c0,0-0.239,0.226-0.497,0.605
		c-0.317,0.466-0.663,1.165-0.628,1.958c0.063,1.438,0.438,3.875,2.375,5.25s3.563,2.563,5.813,2.063s3.875-1.125,5.75-2.75
		s3.063-2.688,3-4.5s-1.063-3-2.75-3.5s-9.938-0.375-10.938-0.313S2.065,41.949,1.502,42.324z"/>
	<path fill="#020202" d="M57.971,10.949c0,0-0.344,0.313-0.844,1.328s-0.5,1.016-0.5,1.016s0.125-2.266,1.156-3.016"/>
	<path fill="#020202" d="M69.471,22.136c0,0-3.406-1.531-5-2.875s-1.688-1.5-1.688-1.5s7.938,4,8.75,4.219"/>
	<path fill="#020202" d="M12.69,41.667c0,0-4.625,0.844-6.344,1.969s-2.375,1.875-2.094,3s0.219,0.594,1.375,2.156
		s3.094,3.406,3.094,3.406s4.219-1.656,4.875-2.094s3.688-3.969,3.719-4.75s-0.25-2.906-0.375-2.75S14.502,40.949,12.69,41.667z"/>
	<path fill="#020202" d="M2.049,41.417c0,0-0.703,0.484-0.969,0.781s0.141,0.328,0.141,0.328l0.547-0.391l0.563-0.766"/>
	<ellipse fill="none" stroke="#020202" stroke-width="0.75" cx="44.565" cy="27.095" rx="10.75" ry="9.708"/>
	<path fill="none" stroke="#020202" stroke-width="0.75" d="M33.898,24.398c0.007-0.038,0.028-0.061,0.04-0.094
		c0.257-1.128,0.942-2.146,1.824-2.95c-1.174-2.988-4.194-5.135-7.78-5.135c-4.603,0-8.333,3.507-8.333,7.833
		s3.731,7.833,8.333,7.833c2.387,0,4.524-0.958,6.043-2.473C33.484,27.822,33.642,25.697,33.898,24.398z"/>
	<path fill="none" stroke="#020202" stroke-width="0.75" d="M38.899,10.053c0,0,2.833-4.5,5.333-5.917s4.833-2.417,7.833-2.917
		s12.25-0.333,15.667-0.25s8.833,1.25,8.833,1.25l-4.188,3.604"/>
	<path fill="none" stroke="#020202" stroke-width="0.75" d="M46.232,47.47c0,0,0.084,6-1.083,8.833s-3.834,9.75-5.084,14.417
		s-2.75,13.584-2.583,18s0.416,8.917,2.833,13.75s6.251,9.999,10.334,13.666s10.083,7.334,11.083,7.834s1.333,0.666,1.333,0.666
		s0.563,1.875,1.188,4.688s2.063,5.563,2.563,11.063s0.563,14.5,0.188,18.938s-1.063,7.188-1.938,12.063s-2.125,11.188-2.125,11.188
		s-4.75,1.375-6,2.938s-1.625,4-1.625,4l3.813,0.125l-0.125,0.688h3.5v0.688c0,0,5.25-0.125,7.813-0.188s5.188-0.5,6.313-1.5
		s1.438-1.188,1.5-2.938s-0.688-4.875-0.875-6.938s-0.688-5.688-1-9.563s-0.813-11-0.75-15.125s0.188-6.188,0.688-11.063
		s0.938-6.625,1.75-11s2.063-9.313,2.5-11.813s1.063-4.813,1.063-4.813"/>
	<path fill="none" stroke="#020202" stroke-width="0.75" d="M79.315,125.969c0,0,4.25-1.582,7.25-4.166s5.916-5.251,9.833-9.001
		s7.668-7.499,10.334-9.666s4.249-3.083,5.166-3.25s1.25-0.167,1.25-0.167s-0.084,3.917,0.5,6.167s2.416,6.75,4.333,9.25
		s5.25,6.582,9.667,9.916s8.5,7,15.75,8.5s9.333,1.834,9.333,1.834s1,12.667,0.667,17.75s-2.083,13.167-4,17.75s-2.25,6.416-4,9.166
		s-3.001,3.168-4.667,4.334s-3.082,2.082-3.416,3.166s-0.25,2.084,0.25,2.417s2.416,0.417,2.416,0.417s-0.416,0.75-0.083,1.083
		s3.334,0.167,3.667,0.25s0.333,0.083,0.333,0.083s2.999,0.5,5.333,0.167s5.416-1.749,7.25-3.333s4.917-10.168,5.917-13.584
		s2.25-8.916,2.917-12.333s0.834-8.084,0.917-12.25s-0.417-13.834-0.667-17.417s-1.25-8-1.25-8s-3.668-0.583-6.584-3.583
		s-6.5-6.666-8.5-11.083s-3.499-8.333-4.499-11.5s-1.667-6.5-2.584-10.25s-4.001-12.333-5.667-14.917s-4-5.25-8.083-6.333
		s-7.999-0.917-12.916-0.167s-11.25,2.167-17.417,3.417s-9.916,2.25-14.833,2s-8.333-0.167-11.5-3.167s-3.5-4.75-4.75-8.5
		s-1.833-6.833-2.25-9.583s-0.584-4.833-0.584-4.833"/>
	<path fill="none" stroke="#020202" stroke-width="0.75" d="M47.815,113.199c0,0,1.563,8.75,3.125,12.688s2.688,9.563,3.438,12.563
		s0.688,6.75,0.75,10.875s0.125,7.375-0.375,12.125s-0.813,4.875-1.75,9.438s-2.375,8.625-2.375,8.625s-3.625,1.375-4.813,2.375
		s-1.688,2.125-1.813,2.75s-0.125,0.625-0.125,0.625s0.375,1,1.063,1.063s2.625,0.125,2.625,0.125l-0.438,0.5l3.563,0.063
		l-0.438,0.625h5.625"/>
	<path fill="none" stroke="#020202" stroke-width="0.75" d="M65.065,171.386c0,0-1.625-5.188-1.688-9.688s0.063-13.625,0.063-16.563
		s0.188-2.813,0.813-6.25s1.375-4.438,1.375-4.438"/>
	<path fill="none" stroke="#020202" stroke-width="0.75" d="M97.981,111.469c0,0,3.001,6.999,7.334,11.083
		s13.25,10.084,17.25,11.167s11.25,1.583,11.25,1.583s0.584,14.5,0.25,17.75s-1.834,11.083-3.167,14.75s-3.332,7.917-4.166,9.917
		s-1.084,2.584-1.084,2.584s-3.416,1.166-4.416,2.166s-2.918,3.416-3.084,4s0.167,1.25,0.167,1.25l2.583,0.084l-0.083,0.666
		c0,0,2.75,0.667,3.25,0.667s0.833,0,0.833,0l-0.166,0.667c0,0,4.834,0.417,6,0s3.332-1.084,4.916-2.167s2.584-1.916,3.167-3.083
		s1.333-2.834,2.833-8.834s3.834-14.499,4.167-16.666s0.249-12.75,0.333-16.167s-1.583-8.917-1.583-8.917"/>
	<path fill="none" stroke="#020202" stroke-width="0.75" d="M139.565,81.136c0,0,7,3.625,14.25,4.5s13.75,1.5,17.75-2
		s5.625-7.625,4.625-15.875s-3.625-18-3.625-18s7,9.125,9.125,17.25s3.25,16-2.125,20.625s-10.875,7.75-16.5,8.125
		s-16.125-1.25-17.125-1.5s-2.625-0.75-2.625-0.75"/>
	<path fill="#020202" d="M113.471,99.699c0,0-0.188-7.719,0.344-9.938s0.688-2.625,0.688-2.625s-1.469,3.188-1.625,5.5
		s-0.156,7.5-0.156,7.5"/>
	<polyline fill="#020202" points="63.315,124.47 55.523,100.928 62.69,124.845 	"/>
	<path fill="#020202" d="M81.815,116.178c0,0-2.583-2.209-4.25-4s-3.543-4.542-3.834-6s-0.291-3.375-0.291-3.375
		s-1.084,3.125,0.208,5.25s6.291,7.834,6.833,8.459s0.542,0.625,0.542,0.625"/>
	<path fill="#050505" d="M46.941,186.804c0.084-0.167,0.876-2.584,2.334-3.709s1.625-1.208,1.625-1.208s-3.042,4.708-3.167,4.958"/>
	<path fill="#050505" d="M50.4,186.72c0,0,1.75-3.041,2.75-3.958s1-0.917,1-0.917l-3.375,5.792"/>
	<path fill="#050505" d="M58.858,189.512c0,0,0.458-1.584,1.458-2.834s1.375-1.416,1.375-1.416s-2.334,4.625-2.417,5"/>
	<path fill="#050505" d="M62.358,190.262c0,0,0.959-3.126,1.875-4.084s1.166-1.166,1.166-1.166l-2.333,6"/>
	<path fill="#020202" d="M120.607,187.679c0,0,0.25-1.938,0.958-2.979s1.917-1.792,1.917-1.792s-2.126,4.626-2.209,5.084
		s-0.166,0.521-0.166,0.521"/>
	<path fill="#020202" d="M124.502,189.054c-0.021-0.063,0.604-3.666,1.625-4.625s1.521-1.042,1.521-1.042s-1.146,1.396-1.708,2.667
		s-0.625,3.438-0.625,3.438"/>
	<path fill="#020202" d="M139.815,190.242c0,0-0.042-1.958,1.333-3.313s1.375-1.354,1.375-1.354s-2.583,5.374-2.396,5.771"/>
	<path fill="#020202" d="M143.627,191.617c0,0-0.209-3.146,0.604-4.313s2.5-2.375,2.5-2.375s-1.167,1.688-1.688,2.625
		s-0.791,2.604-0.833,3.313s0,0.854,0,0.854"/>
</g>
</svg>
